<svg version="1.1" xmlns="http://www.w3.org/2000/svg" viewBox="0 0 2300 2300"><g transform="scale(1,-1) translate(-256, -1869)">
		<path d="M1187 482c54 0 98 41 98 97 0 55-43 98-98 98-56 0-97-44-97-98 0-55 42-97 97-97 z" fill="#7D4533"/>
		<path d="M2010 276l0 644c0 23-8 42-23 58-16 15-35 23-58 23-23 0-40-5-51-16-11-11-19-25-23-41-4-14-6-28-6-44l0-60-57 0c-59 0-115-11-166-33-52-23-97-53-135-92-39-39-69-84-91-136-23-52-34-107-34-166l0-137 644 0 z" fill="#6D4534"/>
		<path d="M1826-287c54 0 106 7 156 21 50 14 97 34 140 59 43 25 83 56 119 92 36 36 67 76 92 119 25 43 45 90 59 140 14 50 21 102 21 156l0 540-2 0c0 94-17 181-52 261-35 80-83 150-143 209-61 59-131 106-212 141-81 35-167 54-259 59l-6 0c-12 0-22-4-30-12-8-8-12-18-12-30 0-9 2-16 6-21 3-5 9-10 16-15 21-13 41-25 61-36 19-12 39-25 58-40 81-63 143-137 187-222 44-85 66-180 66-283l0-92c0 23-8 42-23 58-16 15-35 23-58 23-23 0-40-5-51-16-11-11-19-25-23-41-4-14-6-28-6-44l0-60-57 0c-49 0-96-8-141-24-46-16-88-40-126-71-4-3-9-8-16-15l-40-41-10-10c-22-15-44-30-67-44-23-14-45-28-67-43l-216 0c-13 0-23 7-32 22-9 15-17 32-23 51-6 19-10 39-13 58-3 19-4 33-4 42l0 195c0 36-4 72-13 107-9 35-23 67-43 97 18 4 33 13 45 28 11 15 17 31 17 50 0 22-8 41-23 57-16 16-35 24-57 24-19 0-35-6-50-17-15-12-25-27-29-46-30 21-62 36-97 47-35 11-70 16-106 16-36 0-71-5-106-16-35-11-67-26-97-47-4 19-13 34-28 46-15 11-32 17-51 17-22 0-41-8-56-24-16-16-24-35-24-57 0-19 6-35 18-50 11-15 26-24 44-28-20-30-35-62-46-97-11-35-16-71-16-107l0-500c0-54 7-106 21-155 14-50 34-97 60-140 25-44 56-84 92-119 35-36 75-67 118-92 43-25 90-45 140-59 50-14 102-21 156-21l839 0 z" fill="#A56953"/>
		<path d="M1447 35l0 217c0 90 25 192 93 266l-330 0c-8 0-118-11-126-14l1-20c-1-7-2-13-5-20-37-95-132-163-238-163l-100 0c53-160 200-266 369-266l336 0 z M816 651c47 0 80 37 80 80 0 23-8 42-23 57-33 36-63 80-114 80-38 0-66-27-89-54-26-29-49-48-49-83 0-45 38-80 80-80 25 0 42 8 58 24 16-16 33-24 57-24 z" fill="#F3AD61"/>
		<path d="M1129 357c42 0 76 31 76 75l0 71c0 97-81 176-176 176l-71 0c-44 0-75-34-75-76l0-71c0-19 3-38 9-56 47 31 42 97 113 97 45 0 80-37 80-81 0-43-44-102-76-128 16-4 32-7 49-7l71 0 z" fill="#D3D3D3"/>
		<path d="M761 758c27 0 47 22 47 48 0 26-20 47-47 47-26 0-48-20-48-47 0-26 20-48 48-48 z M950 786c23 0 41 18 41 40 0 22-18 40-41 40-22 0-40-17-40-40 0-22 17-40 40-40 z M571 786c22 0 40 17 40 40 0 22-17 40-40 40-22 0-40-17-40-40 0-22 17-40 40-40 z" fill="#1C1C1C"/>
	</g></svg>
