<svg version="1.1" xmlns="http://www.w3.org/2000/svg" viewBox="0 0 2300 2300"><g transform="scale(1,-1) translate(-256, -1869)">
		<path d="M2053-287c80 0 147 64 147 147l0 352c0 79-64 148-147 148l-1290 0c-83 0-148-65-148-148l0-352c0-83 68-147 148-147l1290 0 z" fill="#A56953"/>
		<path d="M2050-144c80 0 147 64 147 145l0 207c0 81-67 144-147 144l-1288 0c-79 0-147-62-147-144l0-207c0-83 70-145 147-145l1288 0 z" fill="#8D65C5"/>
		<path d="M2050 72c80 0 147 64 147 145l0 1363c0 83-70 145-147 145l-1288 0c-80 0-147-64-147-145l0-1363c0-83 70-145 147-145l1288 0 z" fill="#BEBEBE"/>
		<path d="M2124 144l1 1 0 1507-1 1-1436 0-1-1 0-1507 1-1 1436 0 z" fill="#F4F4F4"/>
		<path d="M1407 224c45 0 71 36 71 78l0 505 167 0c7-40 39-65 77-65 42 0 78 34 78 78l0 396c0 42-34 78-78 78l-244 0 0 138c0 42-26 78-71 78-45 0-73-36-73-78l0-138-242 0c-44 0-78-36-78-78l1-396c0-43 33-78 78-78 38 0 69 30 76 65l165 0 0-505c0-42 28-78 73-78 z M1612 967l-109 0c-13 0-25 11-25 25l0 116c0 14 10 25 25 25l109 0c14 0 25-10 25-25l0-116c0-13-11-25-25-25 z M1308 967l-109 0c-13 0-25 6-25 21l0 120c0 13 11 25 25 25l109 0c15 0 26-10 26-25l0-116c0-15-13-25-26-25 z" fill="#F70A8D"/>
	</g></svg>
