<svg version="1.1" xmlns="http://www.w3.org/2000/svg"><g transform="scale(1,-1)">
		<path d="M2125-287c156 0 287 125 287 287l0 1438c0 156-125 287-287 287l-1438 0c-156 0-287-125-287-287l0-1438c0-161 130-287 287-287l1438 0 z" fill="#F92F60"/>
		<path d="M1511 142c188 0 358 146 358 351 0 114-54 214-140 280 29 53 44 109 44 170 0 193-156 351-354 351l-318 0c-69 0-126-56-126-126l-2-900c0-69 56-126 126-126l412 0 z M1421 844l-195 0 0 198 193 0c55 0 103-43 103-99 0-53-45-99-101-99 z M1514 394l-289 0 0 198 1 1 191 0 2-1 3 1 92 0c57 0 103-47 103-100 0-54-46-99-103-99 z" fill="#FFFFFF"/>
	</g></svg>
