<svg version="1.1" xmlns="http://www.w3.org/2000/svg" viewBox="0 0 2300 2300"><g transform="scale(1,-1) translate(-256, -1869)">
		<path d="M2125-287c156 0 287 125 287 287l0 1438c0 156-125 287-287 287l-1438 0c-156 0-287-125-287-287l0-1438c0-161 130-287 287-287l1438 0 z" fill="#F92F60"/>
		<path d="M1027 121c49 0 98 31 117 80l53 134 416 0 55-135c19-48 68-78 117-78 70 0 125 58 125 126 0 16-3 32-9 47l-385 943c-20 50-64 78-117 78-52 0-98-34-116-79l-372-943c-6-15-9-31-9-47 0-69 54-126 125-126 z M1510 586l-213 0 105 266 108-266 z" fill="#FFFFFF"/>
	</g></svg>
