<svg version="1.1" xmlns="http://www.w3.org/2000/svg" viewBox="0 0 2300 2300"><g transform="scale(1,-1) translate(-256, -1869)">
		<path d="M2125-287c156 0 287 125 287 287l0 1438c0 156-125 287-287 287l-1438 0c-156 0-287-125-287-287l0-1438c0-161 130-287 287-287l1438 0 z" fill="#F92F60"/>
		<path d="M1407 72c229 0 429 183 429 430l0 434c0 237-191 430-429 430-236 0-430-188-430-430l0-434c0-236 188-430 430-430 z M1407 288c-120 0-214 94-214 214l0 434c0 117 96 214 214 214 117 0 213-94 213-214l0-434c0-117-94-214-213-214 z" fill="#FFFFFF"/>
	</g></svg>
