<svg version="1.1" xmlns="http://www.w3.org/2000/svg"><g transform="scale(1,-1)">
		<path d="M2125-287c156 0 287 125 287 287l0 1438c0 156-125 287-287 287l-1438 0c-156 0-287-125-287-287l0-1438c0-161 130-287 287-287l1438 0 z" fill="#F92F60"/>
		<path d="M1945 223l-372 0c-54 0-99 46-99 99l2 796c0 53 44 98 99 98l281 0c164 0 301-131 301-297 0-55-14-108-43-155 79-55 128-144 128-243 0-163-135-298-297-298 z M1305 213c53 0 98 44 98 99 0 13-2 26-7 37l-333 817c-16 38-50 62-92 62-41 0-78-26-92-63l-322-817c-5-11-7-24-7-37 0-53 44-98 99-98 39 0 76 24 91 62l49 123 374 0 50-124c15-38 53-61 92-61 z M1858 818c56 0 102 46 102 101 0 56-50 100-104 100l-182 0c-1-127-1-67-1-201l185 0 z M1941 420c56 0 103 46 103 101 0 58-51 100-103 100l-268 0-1-201 269 0 z M1082 595l-215 0 106 268 109-268 z" fill="#FFFFFF"/>
	</g></svg>
