<svg version="1.1" xmlns="http://www.w3.org/2000/svg" viewBox="0 0 2300 2300"><g transform="scale(1,-1) translate(-256, -1869)">
		<path d="M2125-287c156 0 287 125 287 287l0 1438c0 156-125 287-287 287l-1438 0c-156 0-287-125-287-287l0-1438c0-161 130-287 287-287l1438 0 z" fill="#00A6ED"/>
		<path d="M2013 439c22 0 45 17 52 40 20 64 121 428 121 465 0 30-22 55-54 55-23 0-46-16-53-41l-62-237c-1-4-4-6-9-6-5 0-7 2-8 6l-73 239c-6 22-27 39-52 39-22 0-44-16-51-39l-70-240c-1-4-4-6-9-6-5 0-7 2-8 6l-67 239c-6 22-27 40-52 40-30 0-54-25-54-54 0-24 113-417 128-466 7-22 27-40 52-40 25 0 46 17 52 39l72 248c1 5 4 7 9 7 4 0 7-2 8-6l76-249c7-22 27-39 52-39 z M1435 432c30 0 54 22 54 54 0 32-24 54-54 54l-198 0c-6 0-9 3-9 9l0 95c0 6 3 9 9 9l194 0c32 0 54 24 54 54 0 30-22 54-54 54l-194 0c-6 0-9 3-9 9l0 113c0 6 3 9 9 9l198 0c30 0 54 25 54 54 0 30-22 54-54 54l-261 0c-32 0-54-24-54-54l0-460c0-32 24-54 54-54l261 0 z M673 431c29 0 54 24 54 54l0 243c0 6 3 9 9 9 3 0 17-23 19-25 41-60 77-122 116-185 27-42 46-95 88-95 30 0 55 21 55 53l0 464c0 30-22 54-54 54-30 0-54-22-54-54l0-243c0-6-3-9-9-9-3 0-17 22-20 25-40 59-73 114-110 175-26 43-47 106-94 106-29 0-54-24-54-54l0-464c0-30 25-54 54-54 z" fill="#FFFFFF"/>
	</g></svg>
