<svg version="1.1" xmlns="http://www.w3.org/2000/svg"><g transform="scale(1,-1)">
		<path d="M2125-287c156 0 287 125 287 287l0 1438c0 156-125 287-287 287l-1438 0c-156 0-287-125-287-287l0-1438c0-161 130-287 287-287l1438 0 z" fill="#F92F60"/>
		<path d="M1407 331c141 0 258 117 258 258l0 261c0 141-117 258-258 258-141 0-258-117-258-258l0-261c0-141 117-258 258-258 z M1996 341c-61 0-128 23-186 60-40 23-79 52-79 93 0 39 31 72 72 72 51 0 109-81 193-81 43 0 84 31 84 79 0 48-57 68-94 81-113 34-245 93-245 234 0 125 110 220 235 220 67 0 250-66 250-153 0-39-31-72-72-72-51 0-99 81-178 81-37 0-92-30-92-72 0-116 340-76 340-318 0-125-103-224-228-224 z M853 341c123 0 227 96 227 224 0 246-339 201-339 318 0 43 55 72 92 72 81 0 125-81 178-81 39 0 72 31 72 72 0 87-182 153-250 153-116 0-236-89-236-217 0-147 136-205 246-237 36-10 94-33 94-80 0-48-38-80-84-80-85 0-145 81-193 81-39 0-72-31-72-72 0-23 11-41 28-56 61-55 159-97 237-97 z M1407 475c-65 0-114 53-114 114l0 261c0 65 53 114 114 114 63 0 115-51 115-114l0-261c0-64-53-114-115-114 z" fill="#FFFFFF"/>
	</g></svg>
