<svg version="1.1" xmlns="http://www.w3.org/2000/svg"><g transform="scale(1,-1)">
		<path d="M2125-287c156 0 287 125 287 287l0 1438c0 156-125 287-287 287l-1438 0c-156 0-287-125-287-287l0-1438c0-161 130-287 287-287l1438 0 z" fill="#00A6ED"/>
		<path d="M965 216c193 0 352 155 352 352l0 304c0 188-149 351-352 351-194 0-351-155-351-351l0-304c0-194 155-352 351-352 z M2052 215c57 0 98 43 98 99 0 18-5 36-15 53-27 50-270 408-270 421 0 8 219 235 250 266 19 20 28 41 28 68 0 54-46 99-99 99-28 0-52-12-72-31-36-32-275-296-288-296-6 0-9 3-9 9l0 221c0 55-44 99-98 99-56 0-99-43-99-99l0-809c0-54 46-99 99-99 53 0 98 44 98 99l0 276c0 4 7 14 17 23 14 13 21 24 29 24 3 0 6-1 7-4l241-374c18-27 48-45 83-45 z M965 414c-85 0-154 68-154 154l0 304c0 85 68 154 154 154 85 0 154-68 154-154l0-304c0-85-68-154-154-154 z" fill="#FFFFFF"/>
	</g></svg>
