<svg version="1.1" xmlns="http://www.w3.org/2000/svg"><g transform="scale(1,-1)">
		<path d="M2125-287c156 0 287 125 287 287l0 1438c0 156-125 287-287 287l-1438 0c-156 0-287-125-287-287l0-1438c0-161 130-287 287-287l1438 0 z" fill="#00A6ED"/>
		<path d="M1649 449c104 0 189 84 189 189l0 162c0 104-86 188-189 188-104 0-188-84-188-188l0-162c0-104 83-189 188-189 z M1199 449c104 0 189 84 189 189l0 162c0 104-86 188-189 188-104 0-188-84-188-188l0-162c0-104 83-189 188-189 z M2179 449c30 0 53 25 53 54 0 29-21 54-53 54l-163 0 0 372c0 29-21 54-53 54-32 0-54-24-54-54l0-426c0-29 24-54 54-54l216 0 z M1649 557c-44 0-81 36-81 81l0 162c0 45 37 81 81 81 44 0 81-36 81-81l0-162c0-44-34-81-81-81 z M1199 557c-44 0-81 36-81 81l0 162c0 45 37 81 81 81 44 0 81-36 81-81l0-162c0-44-34-81-81-81 z M760 450c73 0 136 43 166 108 5 12 12 25 12 38 0 30-22 54-54 54-67 0-43-92-124-92-41 0-74 31-74 74l0 170c0 43 34 79 79 79 76 0 64-72 118-72 30 0 55 22 55 54 0 6-1 11-2 16-20 56-94 110-171 110-104 0-187-82-187-187l0-170c0-102 84-182 182-182 z" fill="#FFFFFF"/>
	</g></svg>
