<svg version="1.1" xmlns="http://www.w3.org/2000/svg" viewBox="0 0 2300 2300"><g transform="scale(1,-1) translate(-256, -1869)">
		<path d="M2125-287c156 0 287 125 287 287l0 1438c0 156-125 287-287 287l-1438 0c-156 0-287-125-287-287l0-1438c0-161 130-287 287-287l1438 0 z" fill="#F92F60"/>
		<path d="M2028 242c55 0 99 44 99 98 0 56-43 99-99 99l-280 0-1 1 0 657c0 55-44 99-98 99-56 0-99-43-99-99l0-757c0-53 44-98 99-98l379 0 z M1072 239c121 0 259 67 322 179 9 17 16 35 16 55 0 55-44 99-98 99-99 0-93-135-240-135-102 0-183 83-183 182l0 199c0 99 79 181 181 181 50 0 84-16 109-36 47-38 65-103 132-103 54 0 99 46 99 99 0 19-5 38-16 56-62 113-200 181-324 181-207 0-378-165-378-378l0-199c0-204 164-380 380-380 z" fill="#FFFFFF"/>
	</g></svg>
