<svg version="1.1" xmlns="http://www.w3.org/2000/svg"><g transform="scale(1,-1)">
		<path d="M2125-287c156 0 287 125 287 287l0 1438c0 156-125 287-287 287l-1438 0c-156 0-287-125-287-287l0-1438c0-161 130-287 287-287l1438 0 z" fill="#00A6ED"/>
		<path d="M1836 220c160 0 291 131 291 291l0 162c0 54-46 99-99 99l-166 0c-54 0-99-46-99-99 0-54 46-99 99-99 12 0 23 2 35 2 6 0 32 0 32-11l0-54c0-52-41-93-93-93l-39 0c-88 0-160 71-160 160l0 283c0 87 69 159 159 159 147 0 125-146 232-146 54 0 99 46 99 99 0 23-7 39-18 58-64 113-176 187-313 187-190 0-356-152-356-357l0-283c0-197 159-358 357-358l39 0 z M788 220c54 0 99 46 99 99l0 387c0 6 3 9 9 9 3 0 6-2 8-5l246-439c18-31 52-50 86-50 55 0 99 44 99 98l0 800c0 54-46 99-99 99-53 0-98-44-98-99l0-387c0-6-3-9-9-9-3 0-6 2-8 5l-247 439c-18 31-51 50-85 50-53 0-100-39-100-98l0-800c0-54 46-99 99-99 z" fill="#FFFFFF"/>
	</g></svg>
