<svg version="1.1" xmlns="http://www.w3.org/2000/svg" viewBox="0 0 2300 2300"><g transform="scale(1,-1) translate(-256, -1869)">
		<path d="M2125-287c156 0 287 125 287 287l0 1438c0 156-125 287-287 287l-1438 0c-156 0-287-125-287-287l0-1438c0-161 130-287 287-287l1438 0 z" fill="#00A6ED"/>
		<path d="M1049 427c30 0 54 22 54 54l0 162 206-194c11-9 23-14 36-14 30 0 54 22 54 54 0 16-5 29-16 39l-143 133 0 1c89 11 152 87 152 171 0 95-76 173-173 173l-170 0c-32 0-54-24-54-54l0-471c0-32 24-54 54-54 z M2224 430c30 0 54 22 54 54 0 30-22 54-54 54l-207 0 0 115 203 0c32 0 54 24 54 54 0 30-22 54-54 54l-203 0 0 131 207 0c30 0 54 25 54 54 0 30-22 54-54 54l-261 0c-32 0-54-24-54-54l0-462c0-32 24-54 54-54l261 0 z M1780 430l-261 0c-30 0-54 22-54 54l0 462c0 30 22 54 54 54l261 0c30 0 54-25 54-54 0-29-24-54-54-54l-207 0 0-131 203 0c32 0 54-24 54-54 0-30-22-54-54-54l-203 0 0-115 207 0c29 0 54-24 54-54 0-29-24-54-54-54 z M606 430c-30 0-54 22-54 54l0 462c0 30 22 54 54 54l261 0c30 0 54-22 54-54 0-29-24-54-54-54l-207 0 0-131 203 0c30 0 54-22 54-54 0-30-22-54-54-54l-203 0 0-169c0-32-24-54-54-54 z M1219 768l-116 0 0 130 116 0c37 0 65-30 65-65 0-35-28-65-65-65 z" fill="#FFFFFF"/>
	</g></svg>
