<svg version="1.1" xmlns="http://www.w3.org/2000/svg"><g transform="scale(1,-1)">
		<path d="M2125-287c156 0 287 125 287 287l0 1438c0 156-125 287-287 287l-1438 0c-156 0-287-125-287-287l0-1438c0-161 130-287 287-287l1438 0 z" fill="#00A6ED"/>
		<path d="M1334-72c7 0 14 1 20 3l18 8c84 47 156 102 215 166 59 64 108 134 146 211 37 76 65 158 82 245 17 87 25 177 25 270 0 17-1 35-2 52l-2 31 1 21 216 0c19 0 36 7 51 21 14 14 21 31 21 50 0 20-7 37-21 51-14 14-31 21-51 21l-216 0 0 216c0 20-7 37-21 51-14 14-31 21-51 21-19 0-36-7-50-21-15-15-22-32-22-51l0-216-575 0 0 216c0 19-7 36-21 51-14 14-31 21-50 21-20 0-37-7-51-21-14-14-21-31-21-51l0-216-216 0c-20 0-37-7-51-21-14-14-21-31-21-51 0-19 7-36 22-50 14-14 31-21 50-21l216 0 0-360c0-20 7-37 21-51 14-14 31-21 51-21 19 0 36 7 50 22 14 14 21 31 21 50l0 359 1 1 574 0 0-3 1-2c2-32 3-64 3-96 0-45-2-89-6-134-5-45-12-90-21-134-10-44-23-87-39-129-17-42-37-82-61-120-18-29-37-56-57-79-21-23-42-45-64-65-23-20-46-39-71-57-25-18-52-36-80-54-11-7-20-16-26-26-7-11-10-23-10-36 0-20 7-37 21-51 14-14 31-21 51-21 z" fill="#FFFFFF"/>
	</g></svg>
