<svg version="1.1" xmlns="http://www.w3.org/2000/svg"><g transform="scale(1,-1)">
		<path d="M2125-287c156 0 287 125 287 287l0 1438c0 156-125 287-287 287l-1438 0c-156 0-287-125-287-287l0-1438c0-161 130-287 287-287l1438 0 z" fill="#00A6ED"/>
		<path d="M2125 144c39 0 72 34 72 72l0 1078c0 38-33 72-72 72l-575 0c-39 0-72-31-72-72 0-39 31-72 72-72l503 0 0-862-503 0c-38 0-72-33-72-72 0-39 31-72 72-72l503 0c0-39 31-72 72-72 z M1262 144c39 0 72 31 72 72l0 1078c0 39-31 72-72 72l-575 0c-39 0-72-34-72-72 0-38 33-72 72-72l503 0 0-862-503 0c-38 0-72-33-72-72 0-39 34-72 72-72l503 0c0-39 34-72 72-72 z" fill="#FFFFFF"/>
	</g></svg>
