<svg version="1.1" xmlns="http://www.w3.org/2000/svg"><g transform="scale(1,-1)">
		<path d="M2125-287c156 0 287 125 287 287l0 1438c0 156-125 287-287 287l-1438 0c-156 0-287-125-287-287l0-1438c0-161 130-287 287-287l1438 0 z" fill="#FF822D"/>
		<path d="M1981 360c19 0 36 7 51 21 14 14 21 31 21 50 0 21-5 36-14 46-10 10-22 17-37 21-15 4-30 6-47 6-17-1-32-1-46-1l0 288 144 0c20 0 37 7 51 21 14 14 21 31 21 51 0 19-7 36-21 51-15 14-32 21-51 21l-144 0 0 287 55 0c13 0 26 2 38 5 15 4 27 11 37 21 9 10 14 25 14 46 0 20-7 37-21 51-14 14-31 21-51 21l-1073 0c4 7 9 16 16 26 7 10 13 20 19 31 6 10 11 20 16 31 4 11 6 21 6 30 0 19-7 36-21 50-14 14-31 21-50 21-13 0-25-3-36-9-11-7-20-16-27-27l-180-311c-7-12-10-24-10-35 0-20 7-37 22-51 14-15 31-22 51-22 13 0 25 3 36 10 11 6 19 15 26 26l49 86 78 0 0-287-144 0c-19 0-36-7-50-21-15-15-22-32-22-51 0-20 7-37 21-51 14-14 31-21 51-21l144 0 0-288c-14 0-29 0-46 1-17 0-32-2-47-6-15-4-27-11-36-21-10-10-15-25-15-46 0-19 7-36 22-50 14-14 31-21 50-21l1150 0 z M929-4c27 0 49 13 62 36l72 125c7 12 10 24 10 36 0 38-31 72-71 72-27 0-50-15-63-37l-72-124c-7-12-10-24-10-36 0-39 34-72 72-72 z M1963-11c40 0 71 34 71 72 0 32-31 124-39 157-8 32-39 53-70 53-38 0-71-32-71-71 0-32 31-124 39-158 8-32 39-53 70-53 z M1676-11c38 0 71 32 71 71 0 33-33 126-40 158-8 33-38 53-69 53-39 0-72-31-72-72 0-33 33-125 40-157 9-30 36-53 70-53 z M1388-11c40 0 71 34 71 72 0 32-31 124-39 157-8 32-39 53-70 53-38 0-71-32-71-71 0-32 31-124 39-158 8-32 39-53 70-53 z M1190 935l-143 0 0 287 143 0 0-287 z M1190 503l-143 0 0 288 143 0 0-288 z M1478 503l-144 0 0 288 144 0 0-288 z M1478 935l-144 0 0 287 144 0 0-287 z M1765 935l-143 0 0 287 143 0 0-287 z M1765 503l-143 0 0 288 143 0 0-288 z" fill="#FFFFFF"/>
	</g></svg>
