<svg version="1.1" xmlns="http://www.w3.org/2000/svg"><g transform="scale(1,-1)">
		<path d="M2125-287c156 0 287 125 287 287l0 1438c0 156-125 287-287 287l-1438 0c-156 0-287-125-287-287l0-1438c0-161 130-287 287-287l1438 0 z" fill="#00D26A"/>
		<path d="M2125-72c38 0 72 33 72 72l0 647c0 38-33 72-72 72l-647 0c-39 0-72-31-72-72l0-647c0-39 31-72 72-72 68 0 68 72 81 72l485 0c5 0 8-3 9-9 8-35 32-63 72-63 z M2044 431l-485 0c-6 0-9 3-9 9l0 126c0 6 3 9 9 9l485 0c6 0 9-3 9-9l0-126c0-6-3-9-9-9 z M2044 144l-485 0c-6 0-9 3-9 9l0 126c0 6 3 9 9 9l485 0c6 0 9-3 9-9l0-126c0-6-3-9-9-9 z M2125 791l-647 0c-20 0-37 7-51 21-14 14-21 31-21 51l0 575c0 19 7 36 22 51 14 14 31 21 50 21 19 0 36-7 51-21 14-15 21-32 21-51l0-215c0-6 3-9 9-9l550 122 15 2c20 0 37-7 51-21 14-15 21-32 21-52 0-17-5-32-16-45-11-13-24-22-40-25l-583-129c-5-1-7-4-7-9l0-113c0-6 3-9 9-9l485 0c4 0 7 3 8 10l3 21c0 8 0 16-1 24-1 7-1 13-1 16 0 20 7 37 21 51 14 14 31 21 51 21 19 0 36-7 51-21 14-15 21-32 21-51l0-143c0-19-7-36-21-50-15-15-32-22-51-22 z M939-72c15 0 29 3 42 9 13 5 24 13 34 23 10 10 18 22 24 35 5 13 8 26 8 41l0 621c0 4 2 7 6 8l149 40c15 4 28 13 38 26 10 13 15 27 15 43 0 20-7 37-21 51-14 14-31 21-51 21-10 0-21-1-32-4-11-3-23-7-34-11-11-4-22-7-33-10-11-3-21-5-30-5-5 0-7 3-7 8l0 173c0 6 3 9 9 9l134 0c19 0 36 7 51 22 14 14 21 31 21 50 0 20-7 37-21 51-14 14-31 21-51 21l-134 0c-6 0-9 3-9 9l0 279c0 19-7 36-21 51-15 14-32 21-51 21-19 0-36-7-50-21-15-15-22-32-22-51l0-279c0-6-3-9-9-9l-135 0c-20 0-37-7-51-21-14-14-21-31-21-51 0-19 7-36 22-50 14-15 31-22 50-22l135 0c6 0 9-3 9-9l0-216c0-4-7-8-21-13-14-5-30-10-47-15l-52-13-35-8c-16-5-29-13-38-25-10-13-15-27-15-44 0-19 7-36 21-50 13-15 30-22 50-22 10 0 21 2 32 5l68 21c11 3 21 5 30 5 2 0 4-1 5-3l2-6 0-532c0-4-3-7-9-8-7-1-14-2-22-2l-13-1-12 1-16 1c-20 0-37-7-51-21-14-14-21-31-21-51 0-20 7-37 21-51 14-14 31-21 51-21l108 0 z" fill="#FFFFFF"/>
	</g></svg>
