<svg version="1.1" xmlns="http://www.w3.org/2000/svg"><g transform="scale(1,-1)">
		<path d="M2125-287c156 0 287 125 287 287l0 1438c0 156-125 287-287 287l-1438 0c-156 0-287-125-287-287l0-1438c0-161 130-287 287-287l1438 0 z" fill="#F92F60"/>
		<path d="M2125-72c38 0 72 33 72 72l0 863c0 38-33 72-72 72l-432 0 0 71 432 0c38 0 72 33 72 72 0 38-33 72-72 72l-216 0 0 72 144 0c39 0 72 31 72 72 0 39-31 72-72 72l-144 0c0 39-31 72-72 72-38 0-72-33-72-72l-287 0c0 39-31 72-72 72-39 0-72-31-72-72l-144 0c-38 0-72-33-72-72 0-38 33-72 72-72l144 0 0-72-216 0c-40 0-71-34-71-72 0-38 31-72 71-72l432 0 0-71-432 0c-40 0-71-34-71-72l0-863c0-38 31-72 71-72 38 0 72 33 72 72l0 791 360 0 0-503-72 0 0 143c0 39-31 72-72 72-39 0-72-31-72-72l0-287c0-39 31-72 72-72 39 0 72 31 72 72l359 0c39 0 72 31 72 72l0 215c0 39-31 72-72 72-38 0-72-33-72-72l0-143-72 0 0 503 360 0 0-719-144 0c-39 0-72-31-72-72 0-38 33-72 72-72l216 0 z M862 920c41 0 73 34 73 72 0 19-7 36-22 51l-101 102c-14 14-31 21-51 21-39 0-72-31-72-72 0-20 7-37 21-51l102-102c14-14 31-21 50-21 z M661-1c26 0 53 15 65 41l212 456c5 11 7 21 7 30 0 41-34 73-72 73-28 0-53-17-65-42l-213-456c-5-11-7-21-7-30 0-41 34-72 73-72 z M1765 1150l-287 0 0 72 287 0 0-72 z M913 1277c41 0 72 33 72 71 0 20-7 37-21 51l-101 102c-14 14-31 21-51 21-39 0-72-31-72-72 0-20 7-37 21-51l102-101c14-14 31-21 50-21 z" fill="#FFFFFF"/>
	</g></svg>
