<svg version="1.1" xmlns="http://www.w3.org/2000/svg"><g transform="scale(1,-1)">
		<path d="M2125-287c156 0 287 125 287 287l0 1438c0 156-125 287-287 287l-1438 0c-156 0-287-125-287-287l0-1438c0-161 130-287 287-287l1438 0 z" fill="#00A6ED"/>
		<path d="M2053 72l-1294 0c-39 0-72 31-72 72 0 39 31 72 72 72l566 0c6 0 9 3 9 9l0 197c0 6-3 9-9 9l-422 0c-38 0-72 33-72 72 0 39 31 72 72 72l1006 0c39 0 72-31 72-72 0-39-34-72-72-72l-422 0c-6 0-9-3-9-9l0-197c0-6 3-9 9-9l566 0c39 0 72-31 72-72 0-39-31-72-72-72 z M759 611c7 0 14 1 21 3 63 19 124 44 183 75 58 30 111 66 159 108 48 42 89 90 124 145 35 54 60 115 76 182 3 15 6 30 8 45l4 44c0 6 3 9 9 9l126 0c6 0 9-3 9-9l0-350c0-20 4-39 11-56 7-18 18-33 31-46 13-13 28-24 46-31 17-7 36-11 56-11l329 0c18 0 34 3 48 8 13 5 26 12 38 21 11 8 22 18 33 29l34 35c14 14 21 31 21 51 0 19-7 36-21 51-14 14-31 21-51 21-15 0-27-4-38-11-11-8-20-16-28-25-9-9-16-18-22-25-7-7-13-11-18-11l-316 0c-6 0-9 3-9 9l0 341c0 6 3 9 9 9l413 0c6 0 9-3 9-9l0-135c0-19 7-36 22-50 14-15 31-22 50-22 19 0 36 7 51 22 14 14 21 31 21 50l0 216c0 19-7 36-21 51-15 14-32 21-51 21l-638 0c-4 0-7 3-8 10-1 6-2 13-2 22l-1 12 1 12c1 7 1 13 1 16 0 19-7 36-21 51-15 14-32 21-51 21-19 0-36-7-50-21-15-15-22-32-22-51 0-3 0-9 1-16 1-8 1-16 1-24l-3-22c-1-7-4-10-8-10l-566 0c-20 0-37-7-51-21-14-14-21-31-21-51l0-216c0-19 7-36 22-50 14-15 31-22 50-22 19 0 36 7 51 22 14 14 21 31 21 50l0 135c0 6 3 9 9 9l341 0c6 0 9-3 9-9 0-19-3-40-9-62-6-23-13-43-20-60-19-46-42-87-71-122-29-36-62-67-99-94-37-27-76-51-118-71-43-20-87-37-132-51-15-5-28-14-38-26-11-13-16-27-16-44 0-20 7-37 21-51 14-14 31-21 51-21 z" fill="#FFFFFF"/>
	</g></svg>
