<svg version="1.1" xmlns="http://www.w3.org/2000/svg"><g transform="scale(1,-1)">
		<path d="M2125-287c156 0 287 125 287 287l0 1438c0 156-125 287-287 287l-1438 0c-156 0-287-125-287-287l0-1438c0-161 130-287 287-287l1438 0 z" fill="#F92F60"/>
		<path d="M1765 719c20 0 37 7 51 21 14 14 21 31 21 51l0 164c11-8 25-19 42-33 17-15 34-29 53-43 18-14 36-26 54-36 18-11 34-16 47-16 21 0 39 7 53 21 14 14 21 31 21 52 0 13-3 24-10 35-7 11-15 19-26 26l-1-2 1 2c-45 25-85 54-120 87-35 32-71 66-107 102l137 0c20 0 37 7 51 21 14 14 21 31 21 51 0 20-7 37-21 51-14 14-31 21-51 21l-144 0c0 14 0 29 1 46 0 17-2 32-6 47-4 15-11 27-21 37-10 9-25 14-46 14-21 0-36-5-46-14-10-10-17-22-21-37-3-12-5-25-5-38l0-55-143 0c-20 0-37-7-51-21-14-14-21-31-21-51 0-20 7-37 21-51 14-14 31-21 51-21l118 0c-12-15-27-32-46-50-19-18-38-36-59-53-21-18-43-34-64-49-21-15-40-28-57-37l1-2-1 2c-11-7-19-15-26-26-7-11-10-22-10-35 0-21 7-38 21-52 14-14 32-21 53-21 12 0 28 6 48 18 20 11 41 25 63 41 21 15 41 31 60 47 19 16 33 29 42 38l0-180c0-19 7-36 22-50 14-15 31-22 50-22 z M1867-5c38 0 72 31 72 71 0 20-7 37-21 51l-102 102c-14 14-31 21-51 21-38 0-72-31-72-72 0-20 7-37 21-51l102-101c15-14 32-21 51-21 z M932 0c20 0 37 7 51 21l102 102c14 14 21 31 21 51 0 38-31 72-72 72-20 0-37-7-51-21l-101-102c-14-15-21-32-21-51 0-38 31-72 71-72 z M1334-72c18 0 35 3 51 9 16 6 30 15 43 26 12 11 22 24 31 39 9 15 14 31 17 48l2 0 0 238 575 0c20 0 37 7 51 21 14 14 21 31 21 51 0 19-7 36-21 50-15 14-32 21-51 21l-1294 0c-19 0-36-7-50-21-15-14-22-31-22-50 0-20 7-37 21-51 14-14 31-21 51-21l575 0 0-180c0-11-2-18-7-23-5-5-11-9-18-11-5-1-11-2-17-2l-30 0c-19 0-36-7-50-21-15-15-22-32-22-51 0-19 7-36 22-50 14-15 31-22 50-22l72 0 z M1909 503c39 0 72 31 72 72 0 39-31 72-72 72l-1006 0c-39 0-72-31-72-72 0-39 31-72 72-72l1006 0 z M1047 719c19 0 36 7 50 22 14 14 21 31 21 50l0 224 102-107c7-7 15-13 24-16 9-4 19-6 28-6 19 0 36 7 51 21 14 14 21 31 21 50 0 20-7 37-20 50l-136 143 56 0c13 0 26 2 38 5 15 3 27 10 37 20 10 10 15 26 15 47 0 20-7 37-21 51-14 14-31 21-51 21l-144 0c0 14 0 29 1 46 0 17-2 32-5 47-4 14-11 26-21 36-10 10-25 15-46 15-21 0-36-5-46-14-10-10-17-22-21-37-3-12-5-25-5-38l0-55-144 0c-20 0-37-7-51-21-14-14-21-31-21-51 0-20 7-37 21-51 14-14 31-21 51-21l119 0c-36-36-72-70-107-102-35-33-75-62-120-87l1-2-1 2c-11-7-19-15-26-26-7-11-10-22-10-35 0-21 7-39 22-52 14-14 31-21 52-21 13 0 29 6 49 18 20 11 41 25 62 41 21 15 41 31 60 47 19 16 33 29 43 38l0-180c0-20 7-37 21-51 14-14 31-21 51-21 z" fill="#FFFFFF"/>
	</g></svg>
