<svg version="1.1" xmlns="http://www.w3.org/2000/svg"><g transform="scale(1,-1)">
		<path d="M2125-287c156 0 287 125 287 287l0 1438c0 156-125 287-287 287l-1438 0c-156 0-287-125-287-287l0-1438c0-161 130-287 287-287l1438 0 z" fill="#F92F60"/>
		<path d="M1981 0c39 0 72 31 72 72l0 575c0 39-31 72-72 72l-1150 0c-39 0-72-31-72-72l0-575c0-39 31-72 72-72 39 0 72 31 72 72l1006 0c0-39 31-72 72-72 z M1979 851c19 0 36 7 51 22 14 14 21 31 21 50 0 15-4 29-13 41-9 12-20 21-34 27-108 44-203 103-286 178-83 75-152 163-209 265-7 13-16 23-27 29-11 6-23 10-36 12l-28 1-11 0c-14-1-27-2-40-2-15 0-29-4-40-12-12-9-21-20-27-34-22-51-51-99-86-143-35-45-75-85-118-122-44-37-91-69-140-98-49-29-99-54-149-75-14-6-25-15-33-26-9-12-13-26-13-41 0-20 7-37 22-51 14-14 31-21 50-21 7 0 18 3 32 8 13 5 27 10 42 17 14 6 28 12 41 19l31 16c5-15 14-26 27-35 12-9 26-13 41-13l718 0c15 0 29 4 42 13 12 9 21 20 26 35l31-16c13-7 27-13 42-20 14-7 28-12 41-17 13-5 24-7 32-7 z M1909 216l-1006 0 0 359 1006 0 0-359 z M1687 1006l-557 0 0 1c107 81 211 189 278 314 70-115 167-225 279-314l0-1 z" fill="#FFFFFF"/>
	</g></svg>
