<svg version="1.1" xmlns="http://www.w3.org/2000/svg"><g transform="scale(1,-1)">
		<path d="M2125-287c156 0 287 125 287 287l0 1438c0 156-125 287-287 287l-1438 0c-156 0-287-125-287-287l0-1438c0-161 130-287 287-287l1438 0 z" fill="#F92F60"/>
		<path d="M1550-72c38 0 72 33 72 72l0 324c0 18-17 36-36 36l-863 0c-19 0-36-18-36-36l0-324c0-39 31-72 72-72 70 0 65 72 81 72l629 0c5 0 8-3 9-9 8-35 32-63 72-63 z M1837 216c39 0 72 31 72 72l0 934c0 39-31 72-72 72-39 0-72-31-72-72l0-934c0-39 31-72 72-72 z M2053-72c72 0 134 54 142 126 1 0 2 0 2 1l0 1311c0 38-33 72-72 72-39 0-72-31-72-72l0-1258c0-19-15-36-36-36l-108 0c-39 0-72-31-72-72 0-39 31-72 72-72l144 0 z M1469 144l-629 0c-6 0-9 3-9 9l0 54c0 6 3 9 9 9l629 0c6 0 9-3 9-9l0-54c0-6-3-9-9-9 z M1550 431c38 0 72 33 72 72 0 39-34 72-72 72l-315 0c-6 0-9 3-9 9l0 126c0 6 3 9 9 9l243 0c39 0 72 31 72 72 0 39-31 72-72 72l-243 0c-6 0-9 3-9 9l0 125c0 6 3 9 9 9l171 0c38 0 72 33 72 72 0 39-31 72-72 72l-171 0c-5 0-8 3-9 9-8 37-31 63-72 63-42 0-60-27-71-63-1-4-4-9-9-9l-171 0c-39 0-72-31-72-72 0-38 33-72 72-72l171 0c6 0 9-3 9-9l0-125c0-6-3-9-9-9l-243 0c-39 0-72-31-72-72 0-39 31-72 72-72l243 0c6 0 9-3 9-9l0-126c0-6-3-9-9-9l-315 0c-39 0-72-31-72-72 0-39 34-72 72-72l791 0 z M1550 1150c19 0 36 7 51 22 14 14 21 31 21 50l0 144c0 19-7 36-21 51-15 14-32 21-51 21l-315 0c-4 0-7 3-8 10-1 6-2 13-2 22l-1 12 1 12c1 7 1 13 1 16 0 19-7 36-21 50-15 14-32 21-51 21-19 0-36-7-50-21-14-14-21-31-21-50 0-3 0-9 1-16 1-8 1-16 1-24l-3-22c-1-7-4-10-8-10l-315 0c-20 0-37-7-51-21-14-14-21-31-21-51l0-144c0-20 7-37 21-51 14-14 31-21 51-21 20 0 37 7 51 21 14 14 21 31 21 51l-1 16-1 12 1 13c0 8 1 15 2 22 1 6 4 9 8 9l629 0c4 0 7-3 8-9l3-22c0-9 0-17-1-25l-1-16c0-20 7-37 21-51 14-14 31-21 51-21 z" fill="#FFFFFF"/>
	</g></svg>
