<svg version="1.1" xmlns="http://www.w3.org/2000/svg"><g transform="scale(1,-1)">
		<path d="M1406-287c547 0 1006 440 1006 1006 0 547-440 1006-1006 1006-547 0-1006-440-1006-1006 0-547 440-1006 1006-1006 z" fill="#F92F60"/>
		<path d="M1837 863c39 0 72 31 72 72l0 431c0 39-31 72-72 72l-575 0c-38 0-72-33-72-72l0-431c0-39 34-72 72-72l575 0 z M1765 0l-143 0c-20 0-37 7-51 21-14 14-21 31-21 51 0 20 7 37 21 51 14 14 31 21 51 21l16-1 12-1 12 1c8 0 15 1 22 2 6 1 9 4 9 8l0 269c0 6-3 9-9 9l-494 0c-19 0-36 7-50 22-15 14-22 31-22 50 0 19 7 36 22 51 14 14 31 21 50 21l494 0c6 0 9 3 9 9 0 3 0 8 1 15 1 7 1 14 1 21l-3 19c-1 5-4 8-8 8l-494 0c-19 0-36 7-50 22-15 14-22 31-22 50 0 19 7 36 22 51 14 14 31 21 50 21l791 0c20 0 37-7 51-21 14-14 21-31 21-51 0-20-7-37-21-51-14-14-31-21-51-21l-135 0c-6 0-9-3-9-9l0-54c0-6 3-9 9-9l135 0c20 0 37-7 51-21 14-14 21-31 21-51 0-19-7-36-21-50-15-15-32-22-51-22l-135 0c-6 0-9-3-9-9l0-350c0-20-7-37-21-51-14-14-31-21-51-21 z M1435 117c-20 0-37 7-51 21l-101 102c-14 14-21 31-21 50 0 41 33 72 71 72 20 0 37-7 51-21l102-101c14-14 21-31 21-51 0-39-31-72-72-72 z M975 0c38 0 72 33 72 72l-1 416c0 188 0 371 3 374 27 27 66 53 66 96 0 39-31 72-72 72-20 0-37-7-51-21l-254-254c-14-14-21-31-21-51 0-39 31-72 72-72 31 0 58 23 77 46 7 8 15 25 27 25 7 0 10-3 10-9l0-622c0-39 31-72 72-72 z M789 964c20 0 37 7 51 21l254 254c13 13 21 32 21 51 0 41-34 72-72 72-20 0-37-7-51-21l-254-254c-14-14-21-31-21-51 0-39 31-72 72-72 z M1756 1222l-413 0c-6 0-9 3-9 9l0 54c0 6 3 9 9 9l413 0c6 0 9-3 9-9l0-54c0-6-3-9-9-9 z M1756 1006l-413 0c-6 0-9 3-9 9l0 54c0 6 3 9 9 9l413 0c6 0 9-3 9-9l0-54c0-6-3-9-9-9 z" fill="#FFFFFF"/>
	</g></svg>
