<svg version="1.1" xmlns="http://www.w3.org/2000/svg"><g transform="scale(1,-1)">
		<path d="M1406-287c547 0 1006 440 1006 1006 0 547-440 1006-1006 1006-547 0-1006-440-1006-1006 0-547 440-1006 1006-1006 z" fill="#FF822D"/>
		<path d="M1047 360c39 0 71 33 71 71l360 0c38 0 72 33 72 72l0 432c0 40-34 71-72 71l-431 0c-38 0-72-31-72-71l0-504c0-40 34-71 72-71 z M1406 575l-288 0 0 288 288 0 0-288 z M1765 144c20 0 37 7 51 21 14 14 21 31 21 51l0 934 55 0c13 0 26 2 38 5 15 4 27 11 37 21 9 10 14 25 14 46 0 20-7 37-21 51-14 14-31 21-51 21l-1006 0c-20 0-37-7-51-21-14-14-21-31-21-51 0-20 7-37 21-51 14-14 31-21 51-21l790 0 0-862-215 0c-20 0-37-7-51-21-14-14-21-31-21-51 0-20 7-37 21-51 14-14 31-21 51-21l287 0 z" fill="#FFFFFF"/>
	</g></svg>
