<svg version="1.1" xmlns="http://www.w3.org/2000/svg" viewBox="0 0 2300 2300"><g transform="scale(1,-1) translate(-256, -1869)">
		<path d="M1406-261c547 0 1006 440 1006 1006 0 435-351 790-790 790-435 0-791-352-791-790 0-315 252-575 575-575 315 0 575 252 575 575 0 191-155 359-359 359-194 0-360-154-360-359 0-81 67-144 144-144 81 0 144 67 144 144 0 39 31 72 72 72 41 0 71-34 71-72 0-161-129-288-287-288-161 0-288 128-288 288 0 276 223 503 504 503 276 0 503-223 503-503 0-395-319-719-719-719-395 0-719 319-719 719 0 218 79 441 228 612 37 42 77 73 117 113 35 35 52 61 52 111 0 80-64 144-143 144-89 0-179-110-238-174-203-232-303-514-303-806 0-547 440-1006 1006-1006 z" fill="#1345B7"/>
	</g></svg>
