<svg version="1.1" xmlns="http://www.w3.org/2000/svg" viewBox="0 0 2300 2300"><g transform="scale(1,-1) translate(-256, -1869)">
		<path d="M2412 324l0 1114c0 156-125 287-287 287l-1438 0c-156 0-287-125-287-287l0-1114 2012 0 z" fill="#FF5E59"/>
		<path d="M1406 52c111 0 139 121 211 121 39 0 75-14 114-14 68 0 129 48 143 119 8 42 6 112 52 136 75 40 152 67 152 167 0 69-60 122-60 172 0 50 60 103 60 172 0 100-75 126-152 167-46 24-44 92-52 136-14 71-74 119-143 119-39 0-75-14-114-14-73 0-101 120-211 120-113 0-138-120-211-120-40 0-75 14-115 14-69 0-131-50-142-119-8-42-6-112-52-136-77-40-153-69-153-167 0-70 60-122 60-172 0-51-60-103-60-172 0-101 78-128 153-167 46-24 44-92 52-136 11-70 73-119 142-119 40 0 75 14 115 14 72 0 99-121 211-121 z" fill="#FF9F2E"/>
		<path d="M1406 216c289 0 539 232 539 539 0 289-232 539-539 539-289 0-539-232-539-539 0-289 232-539 539-539 z" fill="#FCD53F"/>
		<path d="M2125-287c161 0 287 130 287 287l0 396c-39 25-65 35-108 35-102 0-118-71-215-71-102 0-116 71-216 71-93 0-161-71-251-71-102 0-116 71-216 71-105 0-119-71-216-71-93 0-158 71-251 71-105 0-119-71-216-71-102 0-118 71-215 71-43 0-69-10-108-35l0-396c0-161 130-287 287-287l1438 0 z" fill="#46A4FB"/>
		<path d="M1658-72c18 0 35 17 35 36 0 19-17 36-35 36l-504 0c-18 0-36-17-36-36 0-18 17-36 36-36l504 0 z M1945 144c19 0 36 15 36 36 0 19-15 36-36 36l-1078 0c-19 0-36-15-36-36 0-19 15-36 36-36l1078 0 z" fill="#FFFFFF"/>
	</g></svg>
