<svg version="1.1" xmlns="http://www.w3.org/2000/svg" viewBox="0 0 2300 2300"><g transform="scale(1,-1) translate(-256, -1869)">
		<path d="M2412 144l0 306-41 50 41 46 0 267-37 42 37 26 0 557c0 156-125 287-287 287l-1438 0c-156 0-287-125-287-287l0-563 21-30-21-34 0-246 48-65-48-57 0-299 2012 0 z" fill="#533566"/>
		<path d="M1406 1150c121 0 216 99 216 216 0 82-48 161-127 196 13-29 19-59 19-88 0-121-99-216-216-216-30 0-60 6-89 19 35-77 112-127 197-127 z" fill="#FCD53F"/>
		<path d="M2053 0l0 431 359 0 0 144-144 0 0 297c44-28 93-50 144-63l0 74c-193 61-293 236-342 408-7 25-14 51-17 78-4 38-31 69-72 69-20 0-36-7-49-20-24-24-22-55-30-88-66-259-211-467-496-467-279 0-423 205-486 428-7 25-14 51-17 78-4 38-31 69-72 69-20 0-36-7-49-20-24-24-22-55-30-88-49-191-145-381-352-447l0-74c51 13 99 34 143 63l0-297-143 0 0-144 359 0 0-431 144 0 0 431 1006 0 0-431 144 0 z M759 575l-144 0 0 353c61 57 109 127 144 203l0-556 z M2197 575l-144 0 0 556c35-76 83-146 144-203l0-353 z M1047 575l-144 0 0 556c35-76 83-146 144-203l0-353 z M1262 575l-144 0 0 297c44-28 93-50 144-63l0-234 z M1478 575l-144 0 0 220c24-3 48-4 72-4 24 0 48 1 72 4l0-220 z M1693 575l-143 0 0 234c51 13 99 34 143 63l0-297 z M1909 575l-144 0 0 353c61 57 109 127 144 203l0-556 z" fill="#F92F60"/>
		<path d="M2197-215l0 143c0 39-34 72-72 72l-288 0c-39 0-72-31-72-72l0-143 432 0 z M1047-215l0 143c0 39-34 72-72 72l-288 0c-39 0-72-34-72-72l0-143 432 0 z" fill="#E6E6E6"/>
		<path d="M2125-287c104 0 200 56 251 147-81 13-91 68-215 68-135 0-157-72-252-72-98 0-121 72-251 72-135 0-157-72-252-72-94 0-160 72-252 72-93 0-158-72-251-72-94 0-160 72-252 72-93 0-136-56-215-69 52-91 147-146 251-146l1438 0 z" fill="#00A6ED"/>
	</g></svg>
