<svg version="1.1" xmlns="http://www.w3.org/2000/svg" viewBox="0 0 2300 2300"><g transform="scale(1,-1) translate(-256, -1869)">
		<path d="M1490 1438c80 0 144 64 144 143 0 81-67 144-144 144-81 0-144-67-144-144 0-80 65-143 144-143 z" fill="#9B9B9B"/>
		<path d="M1634 1294c81 0 144 67 144 144 0 80-65 143-144 143-80 0-144-64-144-143 0-79 60-144 144-144 z" fill="#D3D3D3"/>
		<path d="M1622 935l0 182c0 28 20 33 41 33l174 0c81 0 144 67 144 144 0 81-67 144-144 144l-419 0c0 80-65 143-144 143-80 0-143-62-143-143l-84 0c-81 0-144-67-144-144 0-81 67-144 144-144l110 0c20 0 33-12 33-33l0-182 432 0 z" fill="#E6E6E6"/>
		<path d="M2089-287c-90 258-179 505-270 749-28 75-55 148-86 221-20 50-39 106-67 153l-682-45-430-925c-7-13-10-29-10-46 0-59 49-107 107-107l1438 0 z" fill="#321B41"/>
		<path d="M2161-287c58 0 108 47 108 107 0 17-3 33-10 46l-450 970-331-18 0-171 109-274c19-49 68-85 126-85 79 0 143-48 169-116l179-459 100 0 z" fill="#533566"/>
		<path d="M1190-72c19 0 36 7 51 22 14 14 21 31 21 50l0 503c0 20 7 37 21 51 14 14 31 21 51 21 20 0 37-7 51-21 14-14 21-31 21-51l0-55c0-13 2-25 5-37 4-15 11-27 21-36 10-10 25-15 46-15 19 0 34 4 44 13 10 8 17 19 22 32 4 13 6 29 7 46 0 17 0 35-1 53l-1 26 1 26c0 17 2 33 7 46 4 13 11 24 21 33 10 8 25 12 44 12 19 0 36-7 50-21 14-15 21-32 21-51 0-19 7-36 22-50 14-15 31-22 50-22 19 0 36 7 51 22 14 14 21 31 21 50l0 162c0 6-1 14-2 23-2 9-4 18-7 27l-9 27c-3 9-6 16-9 22-15 31-29 62-43 93-14 31-28 62-43 93-9 20-23 35-42 44-19 9-39 14-60 14-71 0-142 1-213 2-71 1-143 1-214 1-13 0-26-1-39-4-13-3-25-8-35-17-12-10-22-23-31-40-9-17-17-32-24-47l-29-63c-7-15-14-30-21-47l-20-46-15-38c-4-11-6-19-6-22l0-40c0-21 7-39 20-52 13-13 31-20 52-20 23 0 40-6 53-19 12-13 18-30 18-53l0-575c0-19 7-36 22-50 14-15 31-22 50-22 z" fill="#FF6723"/>
		<path d="M1406 1107c121 0 216 99 216 216 0 119-97 215-216 215-121 0-216-97-216-215 0-121 99-216 216-216 z" fill="#F4F4F4"/>
	</g></svg>
