<svg version="1.1" xmlns="http://www.w3.org/2000/svg" viewBox="0 0 2300 2300"><g transform="scale(1,-1) translate(-256, -1869)">
		<path d="M2018 235l1 1 393 160 0 1042c0 156-125 287-287 287l-1438 0c-156 0-287-125-287-287l0-1042 374-161 1244 0 z" fill="#FF5E59"/>
		<path d="M1406 52c111 0 139 121 211 121 39 0 75-14 114-14 68 0 129 48 143 119 8 42 6 112 52 136 75 40 152 67 152 167 0 69-60 122-60 172 0 50 60 103 60 172 0 100-75 126-152 167-46 24-44 92-52 136-14 71-74 119-143 119-39 0-75-14-114-14-73 0-101 120-211 120-113 0-138-120-211-120-40 0-75 14-115 14-69 0-131-50-142-119-8-42-6-112-52-136-77-40-153-69-153-167 0-70 60-122 60-172 0-51-60-103-60-172 0-101 78-128 153-167 46-24 44-92 52-136 11-70 73-119 142-119 40 0 75 14 115 14 72 0 99-121 211-121 z" fill="#FF9F2E"/>
		<path d="M1406 216c289 0 539 232 539 539 0 289-232 539-539 539-289 0-539-232-539-539 0-289 232-539 539-539 z" fill="#FCD53F"/>
		<path d="M831-93l0 381-211 184c-24 21-52 31-83 31-56 0-95-40-137-72l0-431c0-32 5-63 15-93l416 0 z" fill="#14A085"/>
		<path d="M2125-287c161 0 287 130 287 287l0 431c-43 32-83 72-137 72-31 0-59-10-83-31l-173-151-491 492c-33 33-79 50-122 50-43 0-89-17-122-50l-345-877 1078-223 108 0 z" fill="#007356"/>
		<path d="M2053-287l-400 399c-20 20-41 28-64 31l-36 2c-13-1-26-1-39-1-63 0-108 50-108 108l0 611c-43 0-89-17-122-50l-877-877c30-131 148-223 280-223l1366 0 z" fill="#008463"/>
	</g></svg>
