<svg version="1.1" xmlns="http://www.w3.org/2000/svg" viewBox="0 0 2300 2300"><g transform="scale(1,-1) translate(-256, -1869)">
		<path d="M1406-287c547 0 1006 440 1006 1006 0 547-440 1006-1006 1006-547 0-1006-440-1006-1006 0-547 440-1006 1006-1006 z" fill="#0074BA"/>
		<path d="M1742-144c15 0 28 6 38 18l325 390c9 10 14 21 16 32 2 11 3 23 3 36 0 35-8 60-25 76-17 16-42 24-77 24-13 0-23 3-28 9-5 6-9 14-11 24-2 10-3 21-3 34 0 13-1 25-4 38-3 13-9 25-16 37-8 12-20 22-37 31-23 12-46 22-69 30-23 8-48 12-74 12l-189 0c-11 0-21 4-29 13-9 8-13 18-13 29 0 8-3 15-8 21-6 6-13 9-21 9-13 0-22 2-27 6-6 3-10 8-12 13-3 5-4 11-4 17l-3 17c-2 5-5 10-10 14-5 3-12 5-22 5-13 0-23-4-28-13-5-9-8-19-8-30 0-9-3-16-8-20-5-4-12-7-19-8l-16-1-29 0-1-1-8 0c-14 0-25 3-33 9-9 5-15 13-19 22-5 9-8 19-9 30-1 11-2 22-2 33l0 32c0 25 9 47 27 65 17 17 39 26 64 26l67 0c17 0 29-4 36-11 7-8 13-16 16-25l8-25c2-7 6-11 11-11l17 0c13 0 22 4 28 11 5 7 10 15 13 26 3 10 5 21 7 32 2 11 5 20 10 28l189 317c5 9 13 14 22 16 9 1 19 2 28 2 9 0 18 0 27-1 8-1 17-1 26-1 13 0 25 2 36 7 10 4 15 14 15 30 0 10-3 19-10 26-7 7-16 10-26 10l-93 0c-9 0-18 4-25 11l-42 42c-7 7-12 16-14 27l-8 30c-3 9-8 17-13 24-6 7-16 10-30 10-12 0-24 3-35 10-12 6-18 16-18 30 0 9 3 16 10 22 6 6 13 9 22 9l103 0c27 0 52-8 74-25l275-220c13-10 25-18 37-23 11-6 23-10 35-13 12-3 25-4 38-5 13-1 28-1 43-1-57 81-123 152-200 213-77 61-161 110-252 146l-381 0c-19 0-35-3-47-10-13-7-23-16-32-27-9-11-16-22-21-34l-17-35c-5-11-11-19-18-26-7-7-15-11-24-11l-12 0c-15 0-24 4-28 11-5 7-8 16-10 25-2 9-5 17-9 24-4 7-13 11-27 11l-125 0c-31 0-58 12-80 35-74-38-142-84-204-138-62-55-117-116-165-184l188 0c19 0 36-3 53-10 16-7 30-17 43-29 12-13 22-27 29-43 7-17 10-34 10-53l0-34c0-35 2-62 6-83 4-21 11-40 21-57 9-17 22-33 38-49l60-62c13-14 21-29 22-46l4-49c1-17 4-32 11-46 6-15 21-26 45-35 7-3 20-7 41-14l157-53 84-27c26-9 48-16 66-21 17-5 27-8 30-8l98 0c13 0 23-4 28-13 5-9 8-20 8-31 0-11-4-18-11-21l-25-9c-9-3-18-6-25-11-7-5-11-16-11-31l0-148c0-13 3-26 8-37 5-11 11-21 20-30 9-9 19-15 30-20 11-5 24-8 37-8 13 0 25-5 34-14 9-9 14-21 14-34l0-263c0-13 5-25 15-34 9-10 21-15 34-15 z M1514 1222c-13 0-22 4-26 11-4 7-7 16-10 25-3 9-6 17-10 25-4 7-13 11-26 11-8 0-18 0-30-1l-18-1-17 1c-12 1-22 5-30 10-9 5-13 14-13 27 0 13 4 22 13 27 8 5 18 9 30 10l24 1 11 0c12-1 22-2 30-2 13 0 22 4 26 11 4 7 7 16 10 25 3 9 6 17 10 25 4 7 13 11 26 11 13 0 22-4 26-11 4-8 7-16 10-25 3-9 6-18 10-25 4-7 13-11 26-11 10 0 19-3 26-10 7-7 10-16 10-26 0-13-4-22-11-26-8-4-16-7-25-10-9-3-18-6-25-10-7-4-11-13-11-26 0-10-3-18-10-25-7-7-16-11-26-11 z" fill="#00D26A"/>
	</g></svg>
