<svg version="1.1" xmlns="http://www.w3.org/2000/svg" viewBox="0 0 2300 2300"><g transform="scale(1,-1) translate(-256, -1869)">
		<path d="M2412 431l0 1007c0 156-125 287-287 287l-1438 0c-156 0-287-125-287-287l0-647 2012-360 z" fill="#7167A4"/>
		<path d="M1909-287l359 110 0 806c0 49-39 90-89 90l-539 0c-51 0-90-39-90-90l0-844c16-4 215-72 215-72l144 0 z M902-287c4 0 267 68 288 72l0 1563c0 50-40 90-90 90l-107 0c-50 0-90-40-90-90l0-54-270 0c-50 0-90-40-90-90l0-1381 214-110 145 0 z" fill="#212121"/>
		<path d="M2125-287c156 0 287 125 287 287l0 503-413 0c-51 0-90-39-90-90l0-700 216 0 z M1765-287l0 413c0 51-39 90-90 90l-53 0 0 772c0 50-40 90-90 90l-539 0c-51 0-90-39-90-90l0-1275 862 0 z M759-287l0 1060c0 50-40 90-90 90l-269 0 0-863c0-161 130-287 287-287l72 0 z" fill="#433B6B"/>
		<path d="M2412-72l0 144-359 0c-39 0-72-31-72-72 0-39 31-72 72-72l359 0 z M2412 216l0 144-359 0c-38 0-72-33-72-72 0-39 31-72 72-72l359 0 z M1442 216c19 0 36 15 36 36l0 72c0 18-17 36-36 36l-72 0c-19 0-36-18-36-36l0-72c0-19 15-36 36-36l72 0 z M1442 503c19 0 36 15 36 36l0 72c0 19-15 36-36 36l-72 0c-19 0-36-15-36-36l0-72c0-19 15-36 36-36l72 0 z M1154-72c19 0 36 15 36 36l0 72c0 19-15 36-36 36l-71 0c-19 0-36-15-36-36l0-72c0-19 15-36 36-36l71 0 z M1154 503c19 0 36 15 36 36l0 72c0 19-15 36-36 36l-71 0c-19 0-36-15-36-36l0-72c0-19 15-36 36-36l71 0 z M579 288c19 0 36 15 36 36l0 72c0 18-17 35-36 35l-71 0c-19 0-36-17-36-35l0-72c0-19 15-36 36-36l71 0 z M1154 791c19 0 36 15 36 36l0 72c0 18-17 36-36 36l-71 0c-18 0-36-17-36-36l0-72c0-19 15-36 36-36l71 0 z" fill="#FFF478"/>
		<path d="M2412 36l0 36-359 0c-26 0-50-12-62-36l421 0 z M2412 324l0 36-359 0c-26 0-49-14-62-36l421 0 z M1442 216c19 0 36 15 36 36l0 72c0 18-17 36-36 36l-72 0c-19 0-36-18-36-36l67 0c29-1 40-11 41-41l0-67 z M1442 503c19 0 36 15 36 36l0 72c0 19-15 36-36 36l-72 0c-19 0-36-15-36-36l67 0c29-1 40-11 41-41l0-67 z M1154-72c19 0 36 15 36 36l0 72c0 19-15 36-36 36l-71 0c-19 0-36-15-36-36l66 0c28-1 40-11 41-41l0-67 z M1154 503c19 0 36 15 36 36l0 72c0 19-15 36-36 36l-71 0c-19 0-36-15-36-36l66 0c28-1 40-11 41-41l0-67 z M579 288c19 0 36 15 36 36l0 72c0 18-17 35-36 35l-71 0c-19 0-36-17-36-35l66 0c28-1 40-12 41-42l0-66 z M1154 791c19 0 36 15 36 36l0 72c0 18-17 36-36 36l-71 0c-18 0-36-17-36-36l66 0c28-1 40-11 41-41l0-67 z" fill="#FCD53F"/>
		<path d="M1442-72l-72 0c-19 0-36 15-36 36l0 72c0 19 15 36 36 36l72 0c19 0 36-15 36-36l0-72c0-19-15-36-36-36 z M1154 216l-71 0c-19 0-36 15-36 36l0 72c0 18 17 36 36 36l71 0c19 0 36-18 36-36l0-72c0-19-15-36-36-36 z M579 0c19 0 36 15 36 36l0 72c0 19-15 36-36 36l-71 0c-19 0-36-15-36-36l0-72c0-19 15-36 36-36l71 0 z M579 575c19 0 36 15 36 36l0 72c0 19-15 36-36 36l-71 0c-19 0-36-15-36-36l0-72c0-19 15-36 36-36l71 0 z M1442 791c19 0 36 15 36 36l0 72c0 18-17 36-36 36l-72 0c-18 0-36-17-36-36l0-72c0-19 15-36 36-36l72 0 z" fill="#212121"/>
		<path d="M1478 1042l0 36-144 0 0-36 144 0 z" fill="#433B6B"/>
		<path d="M1945 1078c139 0 252 113 252 252 0 18-2 36-6 54-12 54-62 142-93 142-10 0-18-9-18-19 0-23 9-45 9-69 0-139-113-252-252-252-23 0-46 9-68 9-11 0-20-7-20-18 0-3 1-6 4-10 42-55 121-89 192-89 z" fill="#F9C23C"/>
		<path d="M1442 1208c-29 0-27 63-59 79l-53 27c-7 3-10 9-10 16 0 7 3 13 10 16l53 26c27 14 32 79 59 79 27 0 29-63 59-79 13-8 62-20 62-42 0-26-65-32-79-59l-26-53c-3-7-9-10-16-10 z M2232 885c-18 0-25 26-30 39-13 24-55 23-55 46 0 26 42 23 55 47 5 13 13 39 30 39 19 0 24-25 31-39 11-24 55-21 55-47 0-17-21-21-41-32-22-11-20-53-45-53 z M1801 1460c-24 0-22 42-46 55-13 5-40 13-40 30 0 19 27 26 40 31 24 11 22 55 46 55 18 0 26-29 31-39 13-26 55-23 55-47 0-24-42-19-55-46-5-13-14-39-31-39 z M651 1460c18 0 26 26 31 39 14 27 55 22 55 46 0 24-42 21-55 47-5 11-12 39-31 39-17 0-21-21-32-41-11-21-54-21-54-45 0-18 28-25 40-30 24-13 23-55 46-55 z" fill="#F3EEF8"/>
	</g></svg>
