<svg version="1.1" xmlns="http://www.w3.org/2000/svg" viewBox="0 0 2300 2300"><g transform="scale(1,-1) translate(-256, -1869)">
		<path d="M1406-287c123 79 246 155 363 243 282 215 356 420 356 763 0 495-304 777-719 1006l-23 0c-98-5-186-16-277-45-421-131-706-519-706-961 0-539 430-1006 1006-1006 z" fill="#533566"/>
		<path d="M1406-287c547 0 1006 440 1006 1006 0 372-201 695-498 869-169 98-332 137-531 137-303-245-480-612-480-1006 0-389 173-759 480-1006l23 0 z" fill="#FCD53F"/>
		<path d="M988-197c39 45 59 101 59 161 0 139-113 252-252 252-81 0-152-39-198-96 103-139 238-246 391-317 z M903 721c1 0 2 1 2 4 0 3-1 6-2 10 100 48 144 168 144 271 0 69-18 134-54 189l8 19c-21 5-42 8-62 8-140 0-252-115-252-251 0-48 16-96 45-137 35-51 113-113 171-113 z" fill="#321B41"/>
		<path d="M939 719c-12 0-24 1-36 2l0 14c100 48 144 168 144 271 0 69-18 134-54 189l8 19c113-30 189-130 189-243 0-138-110-252-251-252 z M2044-59c131 107 230 245 293 396-33 15-68 23-104 23-139 0-252-113-252-252 0-63 23-121 63-167 z M1442 144c-98 0-180 78-180 180 0 98 79 179 180 179 98 0 180-79 180-179 0-98-78-180-180-180 z M1873 863c98 0 180 79 180 179 0 98-78 180-180 180-98 0-180-78-180-180 0-98 79-179 180-179 z M1370 1366c57 0 108 46 108 108 0 58-47 107-108 107-60 0-108-49-108-107 0-63 50-108 108-108 z" fill="#F9C23C"/>
	</g></svg>
