<svg version="1.1" xmlns="http://www.w3.org/2000/svg" viewBox="0 0 2300 2300"><g transform="scale(1,-1) translate(-256, -1869)">
		<path d="M1406-285c556 0 1006 452 1006 1006 0 547-441 1007-1006 1007-547 0-1006-441-1006-1007 0-556 452-1006 1006-1006 z" fill="#FCD53F"/>
		<path d="M1254-30c76 0 138 54 138 132 0 98-92 184-190 184-77 0-138-52-138-133 0-98 90-183 190-183 z M1369 1294c98 0 180 79 180 179 0 98-78 180-180 180-98 0-179-79-179-180 0-97 79-179 179-179 z M2317 294c51 109 81 226 92 347-16 4-32 6-48 6-98 0-180-79-180-179 0-82 56-155 136-174 z M1689-245c164 49 320 140 447 274-48 69-128 115-217 115-139 0-263-112-263-262 0-43 11-87 33-127 z M508 267c133 13 236 124 236 261 0 143-114 263-262 263-27 0-54-5-81-13l-1-28c0-172 24-318 108-483 z" fill="#F9C23C"/>
		<path d="M1397 453c-116 0-275 52-357 148-11 12-16 25-16 38 0 30 22 54 54 54 16 0 26-6 38-16 94-75 163-116 281-116 119 0 188 42 281 116 12 10 22 16 38 16 32 0 54-24 54-54 0-13-5-26-16-38-79-92-232-148-357-148 z M1853 936c30 0 55 22 55 54 0 5-1 11-3 17-29 81-102 142-196 142-85 0-197-72-197-150 0-29 24-55 54-55 64 0 49 97 143 97 97 0 83-105 144-105 z M1234 936c-67 0-43 105-145 105-95 0-78-97-142-97-32 0-54 25-54 55 0 7 1 13 3 19 27 79 114 131 193 131 22 0 43-3 64-10 64-22 135-92 135-149 0-29-24-54-54-54 z M1983 1077c19 0 36 15 36 36 0 139-111 250-250 250-19 0-36-15-36-36 0-19 15-36 36-36 98 0 178-79 178-178 0-19 15-36 36-36 z M809 1077c19 0 36 15 36 36 0 98 79 178 178 178 19 0 36 15 36 36 0 19-15 36-36 36-139 0-250-111-250-250 0-19 15-36 36-36 z" fill="#321B41"/>
	</g></svg>
