<svg version="1.1" xmlns="http://www.w3.org/2000/svg" viewBox="0 0 2300 2300"><g transform="scale(1,-1) translate(-256, -1869)">
		<path d="M1773 72c87 0 164 71 164 163 0 9-1 19-2 28l-51 315c-1 8-2 17-2 26 0 42 15 84 46 115l222 229c29 31 47 71 47 113 0 84-60 151-140 164l-291 45c-55 9-98 41-123 93l-125 267c-29 63-85 95-148 95-65 0-122-37-148-95l-124-267c-22-49-70-85-124-93l-291-45c-82-14-140-81-140-163 0-42 17-84 47-114l222-229c31-31 46-73 46-115 0-9-1-18-2-26l-51-315c-1-9-2-19-2-28 0-90 75-163 164-163 27 0 55 8 79 21l245 136c24 13 52 21 79 21 28 0 55-7 80-21l244-136c24-13 52-21 79-21 z M1474-234c37 0 66 30 66 66 0 30-70 185-86 223-11 25-31 40-59 40-27 0-49-16-60-40-16-38-85-194-85-224 0-37 31-65 66-65l158 0 z M515 365c16 0 30 5 42 15l164 138c15 12 23 28 23 49 0 34-23 62-59 65-72 7-146 15-218 15-35 0-67-28-67-66 0-28 39-139 52-171 11-27 34-45 63-45 z M934 1386c35 0 65 31 65 65 0 37-43 177-54 224-8 31-32 50-64 50-15 0-28-4-39-12l-127-93c-17-12-28-33-28-54 0-24 13-44 31-56l182-114c11-7 23-10 34-10 z M1830 1387c11 0 23 3 34 10l182 113c18 12 31 32 31 56 0 23-9 40-27 53l-128 93c-12 9-25 13-39 13-31 0-56-21-64-50-12-43-54-189-54-224 0-35 31-64 65-64 z M2292 360c30 0 55 16 66 46 13 34 54 143 54 174 0 39-30 67-67 67-76 0-154-8-230-16-34-4-62-27-62-66 0-21 8-37 23-49l172-141c12-10 27-15 44-15 z" fill="#FCD53F"/>
	</g></svg>
