<svg version="1.1" xmlns="http://www.w3.org/2000/svg" viewBox="0 0 2300 2300"><g transform="scale(1,-1) translate(-256, -1869)">
		<path d="M1406-287c547 0 1006 440 1006 1006 0 547-440 1006-1006 1006-547 0-1006-440-1006-1006 0-547 440-1006 1006-1006 z" fill="#FCD53F"/>
		<path d="M2044-59c131 107 230 245 293 396-33 15-68 23-104 23-139 0-252-113-252-252 0-63 23-121 63-167 z M988-197c39 45 59 101 59 161 0 139-113 252-252 252-81 0-152-39-198-96 103-139 238-246 391-317 z M1442 144c98 0 180 78 180 180 0 98-79 179-180 179-98 0-180-79-180-179 0-98 78-180 180-180 z M1873 863c98 0 180 79 180 179 0 98-78 180-180 180-98 0-180-78-180-180 0-98 79-179 180-179 z M939 719c138 0 251 111 251 252 0 140-116 251-251 251-140 0-252-115-252-251 0-139 113-252 252-252 z M1370 1366c57 0 108 46 108 108 0 58-47 107-108 107-60 0-108-49-108-107 0-63 50-108 108-108 z" fill="#F9C23C"/>
	</g></svg>
