<svg version="1.1" xmlns="http://www.w3.org/2000/svg" viewBox="0 0 2300 2300"><g transform="scale(1,-1) translate(-256, -1869)">
		<path d="M1406-287c20 0 182 66 211 77 436 187 580 469 580 929 0 458-194 739-601 929-26 10-173 77-190 77-547 0-1006-440-1006-1006 0-547 440-1006 1006-1006 z" fill="#FCD53F"/>
		<path d="M1406-287c547 0 1006 440 1006 1006 0 547-440 1006-1006 1006l0-2012 z" fill="#8D65C5"/>
		<path d="M988-197c39 45 59 101 59 161 0 139-113 252-252 252-81 0-152-39-198-96 103-139 238-246 391-317 z M939 719c138 0 251 111 251 252 0 140-116 251-251 251-140 0-252-115-252-251 0-139 113-252 252-252 z M1406 148l0 352c-83-16-144-92-144-176 0-84 59-160 144-176 z M1370 1366c12 0 24 2 36 6l0 203c-12 4-24 6-36 6-60 0-108-49-108-107 0-63 50-108 108-108 z" fill="#F9C23C"/>
		<path d="M1441 144c98 0 181 77 181 180 0 98-79 179-180 179-12 0-24-1-36-3l0-352c10-3 22-4 35-4 z M2044-59c-40 46-63 104-63 167 0 139 113 252 252 252 36 0 71-8 104-23-63-151-162-289-293-396 z M1873 863c-98 0-180 79-180 179 0 98 78 180 180 180 98 0 180-78 180-180 0-98-79-179-180-179 z M1406 1372c42 14 72 54 72 102 0 46-29 86-72 101l0-203 z" fill="#6B438B"/>
	</g></svg>
