<svg version="1.1" xmlns="http://www.w3.org/2000/svg" viewBox="0 0 2300 2300"><g transform="scale(1,-1) translate(-256, -1869)">
		<path d="M1421-312c95 0 157 48 200 128 22 41 57 71 110 71 64 0 103-58 187-58 110 0 199 90 199 198 0 38-16 70-16 108 0 32 10 59 30 80 36 38 61 37 116 46 102 19 170 96 170 198 0 150-135 154-135 263 0 104 127 116 127 258 0 107-85 196-197 202-65 3-129 40-129 121 0 34 12 64 12 98 0 105-89 198-199 198-88 0-129-63-195-63-45 0-72 21-95 49-46 55-77 140-211 140-94 0-158-49-200-128-22-42-57-71-109-71-64 0-105 58-187 58-108 0-198-88-198-197 0-38 15-71 15-109 0-30-10-56-29-78-27-31-60-41-95-44-102-10-192-84-192-201 0-150 135-157 135-264 0-104-127-117-127-257 0-112 87-196 198-201 61-4 129-42 129-124 0-34-13-63-13-97 0-109 90-198 200-198 88 0 128 62 194 62 134 0 105-188 305-188 z" fill="#FF822D"/>
		<path d="M1405-84c436 0 791 351 791 791 0 436-351 791-791 791-436 0-790-354-790-791 0-435 352-791 790-791 z" fill="#FCD53F"/>
		<path d="M1853 852c-67 0-47 105-145 105-97 0-78-96-142-96-32 0-54 24-54 54 0 7 1 13 3 19 27 81 115 131 193 131 22 0 43-3 64-10 63-20 135-89 135-149 0-30-22-54-54-54 z M1233 852c29 0 55 24 55 54 0 5-1 11-3 17-29 85-104 142-197 142-83 0-163-52-192-131-3-7-4-12-4-19 0-29 24-54 54-54 64 0 48 96 142 96 99 0 79-105 145-105 z M1982 993c-18 0-35 17-35 36 0 99-80 178-179 178-19 0-36 15-36 36 0 19 15 36 36 36 139 0 250-111 250-250 0-19-15-36-36-36 z M1396 369c116 0 275 52 357 148 11 12 16 25 16 38 0 30-22 55-54 55-16 0-26-6-38-16-97-78-162-117-281-117-123 0-194 46-280 117-12 10-22 16-38 16-30 0-55-23-55-55 0-13 5-26 16-38 79-92 232-148 357-148 z M808 993c19 0 36 15 36 36 0 98 79 178 178 178 19 0 36 15 36 36 0 19-15 36-36 36-139 0-250-111-250-250 0-19 15-36 36-36 z" fill="#321B41"/>
	</g></svg>
