<svg version="1.1" xmlns="http://www.w3.org/2000/svg" viewBox="0 0 2300 2300"><g transform="scale(1,-1) translate(-256, -1869)">
		<path d="M1787 216c392 0 697 335 697 719 0 396-319 718-719 718-189 0-368-73-503-206-41 15-82 22-123 22-124 0-239-61-308-171-274-15-503-244-503-536 0-289 237-546 546-546l913 0 z" fill="#B4ACBC"/>
		<path d="M952 623c110 0 95 108 168 108 34 0 53-31 101-31 59 0 107 49 107 107 0 20-7 39-7 59 0 49 37 60 78 68 53 9 92 49 92 107 0 81-73 82-73 142 0 59 68 63 68 139 0 56-38 101-95 108-40 5-81 16-81 67 0 19 6 36 6 55 0 58-49 105-107 105-49 0-69-33-106-33-72 0-60 102-164 102-111 0-93-108-168-108-34 0-53 31-101 31-59 0-107-49-107-108 0-19 7-38 7-58 0-49-39-60-79-68-51-9-91-47-91-106 0-80 73-85 73-143 0-56-69-65-69-140 0-56 40-100 96-107 41-5 81-17 81-68 0-19-7-34-7-53 0-60 52-106 108-106 49 0 68 33 105 33 71 0 61-102 165-102 z" fill="#FF822D"/>
		<path d="M944 748c227 0 427 180 427 427 0 233-188 427-427 427-237 0-427-190-427-427 0-230 183-427 427-427 z" fill="#F9C23C"/>
		<path d="M1611-287c39 0 78 19 102 51l166 227c15 21 24 47 24 74 0 70-57 126-125 126-39 0-78-20-102-52l-166-227c-16-21-24-47-24-74 0-71 60-125 125-125 z M1139-287c39 0 77 18 101 51l166 227c16 21 24 45 24 74 0 69-54 126-124 126-39 0-78-20-102-52l-166-227c-16-21-24-47-24-74 0-71 60-125 125-125 z M666-287c39 0 77 18 101 51l166 227c16 22 24 47 24 74 0 69-54 126-124 126-39 0-78-20-102-52l-166-227c-16-21-24-47-24-74 0-71 60-125 125-125 z" fill="#3F5FFF"/>
		<path d="M1787 288c59 0 115 8 169 24 53 16 103 38 149 67 46 29 88 63 126 103 38 40 70 84 97 132 27 48 47 99 62 154 15 54 22 110 22 167 0 59-8 117-23 172-15 55-37 106-65 154-28 47-62 91-101 131-40 39-84 73-131 101-48 28-99 50-154 65-55 15-113 23-172 23-89 0-173-17-251-50-78-33-148-81-211-144l-13-12-12-14c-43 24-90 36-140 36-29 0-56-4-83-12-27-8-51-19-74-34-23-15-44-33-62-54-19-21-34-44-46-70l-22 1c-57 0-111-11-161-32-58-25-108-58-151-101-43-43-77-94-102-151-25-58-38-119-38-182 0-65 13-127 38-184 25-57 59-107 102-150 43-43 93-77 150-102 57-25 119-38 184-38l913 0 z" fill="#F3EEF8"/>
	</g></svg>
