<svg version="1.1" xmlns="http://www.w3.org/2000/svg" viewBox="0 0 2300 2300"><g transform="scale(1,-1) translate(-256, -1869)">
		<path d="M2148-287c144 0 264 117 264 263l0 913c0 5-131 494-143 534l-146 104c-27 20-43 38-73 52l-271 97c-54 19-79 49-135 49l-981 0c-142 0-263-116-263-264l0-1485c0-143 115-263 263-263l1485 0 z" fill="#533566"/>
		<path d="M2232-72c19 0 36 15 36 36 0 19-15 36-36 36-19 0-36-15-36-36 0-19 15-36 36-36 z M579 72c-19 0-36 15-36 36 0 19 15 36 36 36 19 0 36-15 36-36 0-19-15-36-36-36 z M1944-72c19 0 36 15 36 36 0 19-15 36-36 36-19 0-36-15-36-36 0-19 15-36 36-36 z M2016 216c19 0 36 15 36 36 0 19-15 36-36 36-19 0-36-15-36-36 0-19 15-36 36-36 z M651 1078c-19 0-36 15-36 36 0 19 15 36 36 36 18 0 35-17 35-36 0-19-17-36-35-36 z M866 1438c19 0 36 15 36 36 0 18-17 36-36 36-18 0-36-17-36-36 0-19 15-36 36-36 z" fill="#E1D8EC"/>
		<path d="M1668 144l744 745 0 572c0 147-116 264-264 264l-506 0-721-690 747-891 z" fill="#A38439"/>
		<path d="M1074-114c35 0 67 17 88 43l117 151c21 28 55 43 87 43 75 0 142-22 217-22 62 0 111 53 111 112 0 21-6 41-18 60l-116 184c-12 19-18 39-18 60 0 77 95 204 95 284 0 59-50 112-111 112-78 0-181-57-254-57-113 0-185 192-298 192-60 0-108-46-111-108l-7-200c-1-40-19-70-53-91l-172-107c-34-22-53-57-53-95 0-48 27-86 69-104l200-84c33-15 58-43 66-77l52-211c13-49 54-85 109-85 z" fill="#FCD53F"/>
	</g></svg>
