<svg version="1.1" xmlns="http://www.w3.org/2000/svg"><g transform="scale(1,-1)">
		<path d="M735 175c55 0 107 13 157 40 410 216 800 602 1017 1017 27 52 40 103 40 159 0 181-150 334-332 334-131 0-229-69-288-171-199-346-409-557-758-758-103-60-172-157-172-288 0-178 148-333 336-333 z" fill="#D3883E"/>
		<path d="M889-206c80 0 155 22 224 62 422 246 862 676 1123 1123 41 71 63 142 63 224 0 237-193 435-434 435-164 0-291-84-371-210-243-379-465-595-830-829-126-80-209-208-209-372 0-240 194-433 434-433 z" fill="#FF6723"/>
		<path d="M1157-291c59 0 111 15 163 42 431 225 833 630 1054 1053 27 52 42 104 42 163 0 189-154 347-344 347-135 0-238-71-299-177-214-370-419-574-785-785-106-61-177-164-177-299 0-183 152-344 346-344 z" fill="#F3AD61"/>
		<path d="M749 348c53 0 35 38 117 38 138 0 227 71 227 223l1 38c1 22 25 47 49 50l36 1c135 0 226 68 226 220 0 69 11 93 87 93 144 0 226 77 226 226 0 84 38 66 38 117 0 38-29 70-69 70-76 0-108-113-108-170 0-70-3-104-87-104-135 0-226-68-226-220 0-51-7-78-42-88-36-11-91 1-143-18-54-20-103-74-117-123-11-39-9-88-12-126-2-22-25-47-48-48-11-1-24-2-37-2-69 0-120-12-167-59-13-13-20-30-20-49 0-40 31-69 69-69 z" fill="#FCD53F"/>
	</g></svg>
