<svg version="1.1" xmlns="http://www.w3.org/2000/svg" viewBox="0 0 2300 2300"><g transform="scale(1,-1) translate(-256, -1869)">
		<path d="M975 1222c115 32 225 55 342 75 72 12 144 22 216 39 146 37 211 96 211 256 0 44-4 89-11 133l-1070 0c42-200 100-414 312-503 z" fill="#636363"/>
		<path d="M2125-287c156 0 287 125 287 287l0 1461c0 147-116 264-264 264l-415 0c-170-92-311-238-393-424-71-12-140-24-209-39-69 183-198 351-378 463l-90 0c-142 0-263-116-263-264l0-1461c0-161 130-287 287-287l1438 0 z" fill="#9B9B9B"/>
		<path d="M1514-215c456 0 826 370 826 826 0 456-370 827-826 827-456 0-827-369-827-827 0-456 371-826 827-826 z" fill="#BEBEBE"/>
		<path d="M663-215l699 359c29 82 44 166 44 252 0 416-338 754-755 754-60 0-119-7-179-22l0-1152c0-108 87-191 191-191 z M2148-215c107 0 192 84 192 191l0 667c-288-37-503-282-503-571l311-287 z" fill="#D3D3D3"/>
		<path d="M2148-215c15 0 30 1 45 5-40 405-381 713-787 713-409 0-747-312-787-713 15-4 29-5 44-5l1485 0 z" fill="#E6E6E6"/>
	</g></svg>
