<svg version="1.1" xmlns="http://www.w3.org/2000/svg" viewBox="0 0 2300 2300"><g transform="scale(1,-1) translate(-256, -1869)">
		<path d="M1787 360c392 0 697 335 697 719 0 396-319 718-719 718-189 0-368-73-503-206-40 15-82 22-125 22-127 0-242-67-307-171-281-19-502-248-502-536 0-289 237-546 546-546l913 0 z" fill="#B4ACBC"/>
		<path d="M1721 130c18 0 33 11 39 25 19 40 78 13 78 67 0 15-10 24-10 39 0 21 17 30 17 50 0 21-13 38-34 42-43 8-27 62-73 62-24 0-31-20-55-20-12 0-20 7-34 7-25 0-42-20-42-43 0-43-45-35-45-76 0-36 33-34 33-67 0-5-2-11-2-16 0-22 19-42 42-42 7 0 15 2 21 2 32 0 34-30 65-30 z M1178-289c15 0 26 3 33 9 28 23 19 77 39 111 20 33 102 19 102 85 0 48-62 60-62 108 0 28 20 49 20 77 0 32-25 55-55 55-19 0-38-5-57-5-64 0-52 88-116 88-63 0-52-88-115-88-19 0-38 5-57 5-32 0-55-25-55-55 0-28 20-48 20-76 0-51-62-62-62-109 0-47 42-57 78-67 67-24 11-138 97-138 36 0 57 39 94 39 37 0 60-39 96-39 z" fill="#00A6ED"/>
		<path d="M1787 431c353 0 625 306 625 647 0 345-274 647-646 647-191 0-365-84-487-221-44 25-91 37-142 37-115 0-216-67-264-170-261 0-473-200-473-465 0-250 204-475 474-475l913 0 z" fill="#F3EEF8"/>
	</g></svg>
