<svg version="1.1" xmlns="http://www.w3.org/2000/svg" viewBox="0 0 2300 2300"><g transform="scale(1,-1) translate(-256, -1869)">
		<path d="M1987-99c56 0 105 45 105 104 19-4 39-7 59-7 147 0 269 120 269 269 0 159-117 269-277 269-34 69-102 111-177 111-110 0-200-91-200-200 0-62 30-118 75-154-42-63-100-121-177-153-16-5-70-14-70-32 0-5 2-10 7-14 66-50 193-87 283-95 4-53 45-98 103-98 z M400-287c202 0 404 3 616 3 206 0 362 60 426 271 12-7 24-10 37-10 40 0 70 33 70 71 0 31-21 57-48 66 27 10 49 35 49 67 0 42-34 71-73 71l2 50c65 0 143 51 143 124 0 38-18 61-40 91-39 53-73 107-102 163l0 216c0 293-240 532-530 532-185 0-365-7-550-10l0-1705 z" fill="#50E2FF"/>
		<path d="M1259 584c41 0 151 33 151 87 0 18-17 36-36 36-26 0-53-51-116-51-59 0-83 42-106 42-19 0-36-15-36-36 0-48 103-78 143-78 z" fill="#000000"/>
		<path d="M1080 862c8 0 16 3 23 8 50 33 105 49 166 49 7 0 16 0 25-1l8 0 18 1c8 1 15 5 20 10 5 5 8 14 8 26 0 10-2 18-7 23-5 5-10 9-17 12-7 3-15 4-23 5-9 1-17 1-24 1-9 0-20-1-35-2l-48-8c-17-3-35-8-53-13-18-5-34-11-49-18-15-7-27-15-36-24-9-9-14-20-14-31 0-11 4-20 11-27 7-7 16-11 27-11 z" fill="#00A6ED"/>
		<path d="M408-287c73 0 137 14 189 41 53 27 98 64 135 110 36 46 64 99 85 160 21 60 37 123 49 188 11 65 19 131 24 196l11 183 4 85c1 29 2 57 5 86 2 28 5 56 10 85 5 28 11 55 19 82 15 49 34 87 58 116 23 28 49 50 77 67 28 16 58 28 89 35l91 21c30 6 59 13 86 22 27 9 51 22 72 41 20 19 36 44 49 77 12 33 18 76 18 130 0 54-5 99-16 136-11 37-29 66-52 89-24 22-55 38-92 48-38 9-83 14-136 14l-732-1-51 1 0-2012 8 0 z" fill="#00A6ED"/>
	</g></svg>
