<svg version="1.1" xmlns="http://www.w3.org/2000/svg" viewBox="0 0 2300 2300"><g transform="scale(1,-1) translate(-256, -1869)">
		<path d="M1787 360c392 0 697 335 697 719 0 396-319 718-719 718-189 0-368-73-503-206-39 14-80 21-123 21-123 0-240-62-308-170-274-15-503-244-503-536 0-289 237-546 546-546l913 0 z" fill="#B4ACBC"/>
		<path d="M1787 431c353 0 625 306 625 647 0 345-274 647-646 647-191 0-365-84-487-221-44 25-91 37-140 37-116 0-218-68-265-170-261 0-474-200-474-465 0-250 204-475 474-475l913 0 z" fill="#F3EEF8"/>
		<path d="M1554-72c-72 0-129 59-129 130 0 29 8 54 25 77l172 235c24 33 62 53 104 53 72 0 131-60 131-130 0-28-8-53-25-76l-172-235c-25-34-66-54-106-54 z M1079-72c40 0 81 20 106 54l172 235c17 23 25 48 25 77 0 72-59 129-131 129-42 0-80-20-104-53l-172-235c-17-23-25-48-25-77 0-72 58-130 129-130 z M605-72c42 0 80 20 105 54l172 235c17 23 25 48 25 77 0 72-57 129-130 129-43 0-82-21-105-53l-172-235c-17-23-25-48-25-76 0-72 59-131 130-131 z" fill="#3F5FFF"/>
	</g></svg>
