<svg version="1.1" xmlns="http://www.w3.org/2000/svg" viewBox="0 0 2300 2300"><g transform="scale(1,-1) translate(-256, -1869)">
		<path d="M1785-359c388 0 695 332 695 718 0 395-319 717-718 717-114 115-272 187-448 187-325 0-597-246-626-570-216-75-360-278-360-507 0-298 244-545 545-545l912 0 z" fill="#B4ACBC"/>
		<path d="M936 491c108 0 94 103 164 103 34 0 58-32 103-32 59 0 106 50 106 106 0 19-7 35-7 54 0 51 40 62 80 67 55 7 93 51 93 107 0 81-70 81-70 138 0 58 70 62 70 140 0 54-38 100-92 107-41 5-79 18-79 67 0 19 8 35 8 54 0 59-49 107-108 107-48 0-66-32-101-32-73 0-58 104-164 104-106 0-94-103-165-103-34 0-54 32-101 32-59 0-107-49-107-106 0-19 7-35 7-54 0-51-39-63-79-66-53-5-93-53-93-107 0-78 69-83 69-139 0-60-70-63-70-140 0-55 38-99 92-106 41-5 79-18 79-67 0-19-7-36-7-55 0-60 51-106 107-106 48 0 65 31 100 31 71 0 63-104 165-104 z" fill="#FF822D"/>
		<path d="M936 614c230 0 423 186 423 422 0 231-190 423-423 423-233 0-423-185-423-423 0-234 190-422 423-422 z" fill="#F9C23C"/>
		<path d="M1785-287c87 0 169 18 245 53 76 35 142 82 198 141 56 59 100 128 132 206 32 78 48 160 48 246 0 61-8 120-24 177-17 57-40 109-69 158-30 49-66 93-107 132-41 39-87 73-137 100-51 27-105 48-162 62-46 11-95 16-144 16l-34-1c-53 60-116 106-188 139-72 33-148 49-229 49-77 0-149-14-216-43-67-29-126-69-176-119-51-50-91-108-120-175-29-67-44-139-45-216-53-12-101-32-144-61-44-29-82-63-113-103-32-40-57-84-74-133-17-49-26-101-26-155 0-65 13-126 38-183 25-57 59-107 102-150 43-43 93-77 150-102 57-25 118-38 183-38l912 0 z" fill="#F3EEF8"/>
	</g></svg>
