<svg version="1.1" xmlns="http://www.w3.org/2000/svg"><g transform="scale(1,-1)">
		<path d="M1933 1475c71 0 125 60 125 125 0 71-60 125-125 125-71 0-125-60-125-125 0-71 60-125 125-125 z" fill="#FCD53F"/>
		<path d="M1221-34l49 101 29-16c14-9 30-15 46-18 12-2 24-3 36-3l12 0c16 1 31 5 47 12 15 6 29 15 42 26 13 12 24 26 33 42 9 16 15 33 19 50 2 10 2 19 2 29 0 15-2 30-6 45-7 23-18 44-34 62l39-23c18-10 37-17 57-21 14-3 27-5 41-5l18 1c20 2 39 7 58 15 18 8 36 19 52 33 17 15 31 32 42 51 10 19 18 40 23 62 2 12 3 24 3 35 0 22-4 44-11 66-12 32-30 59-55 82 21-8 42-13 65-13 12 0 24 2 36 4 35 6 66 21 94 44 34 29 55 66 63 111 2 12 3 23 3 35l-1 25c-3 20-8 39-17 57-8 18-19 34-33 49-13 15-29 27-47 37l-37 21c25-12 50-18 75-18l24 2c35 4 65 18 93 41 31 27 50 61 56 100 2 11 3 21 3 32 0 25-6 50-17 73-15 33-39 59-71 78l-154 88 32-19c16-9 34-14 53-14l13 1c24 2 45 11 63 26 19 17 31 39 37 64l2 20c0 16-4 32-11 48-10 21-26 38-46 49l-225 126c-18 9-37 14-57 14l-10 0c-23-3-44-12-62-27-20-17-32-38-36-64-2-8-3-16-3-23 0-15 3-28 10-41 9-21 23-37 42-50l-117 67c-28 15-57 23-88 23l-16-1c-36-4-68-18-96-42-31-27-50-60-57-100-2-11-3-22-3-33 0-23 4-44 13-66 14-32 35-58 63-77l-25 15c-30 17-62 25-95 25l-20-1c-41-4-77-20-108-47-17-14-31-31-41-50-11-19-18-40-22-61-2-12-4-25-4-37 0-23 5-45 14-67 13-33 34-61 62-83-22 7-43 11-64 11-12 0-25-1-37-4-34-7-65-22-92-45-17-15-31-31-42-50-11-19-18-40-22-63-2-13-4-25-4-37 0-28 7-54 19-80 27-60 59-75 119-110-10 2-21 3-31 3-13 0-26-2-40-5-23-7-45-18-64-35-14-11-25-25-34-41-9-16-15-33-18-51-2-10-3-20-3-29 0-23 5-45 15-66 20-45 45-60 90-86l-55-85 324-194 z" fill="#F9C23C"/>
		<path d="M1242 103l15 1c34 3 63 16 89 39 13 11 24 25 33 41 9 16 15 33 19 51 2 10 3 21 3 31 0 15-2 29-6 43-8 24-20 45-36 63 18-10 36-17 56-20 12-2 24-4 36-4l23 2c20 2 39 7 57 15 18 8 36 19 52 32 35 30 56 68 64 114 2 13 3 25 3 37 0 22-3 43-11 64-12 32-30 60-56 83 22-9 44-13 67-13 11 0 23 1 34 3 35 6 67 21 95 45 16 14 30 31 41 50 10 19 18 40 22 61 2 11 2 21 2 32 0 29-6 57-18 84-17 37-43 65-78 86 20-7 39-10 59-10 11 0 21 1 32 3 30 5 58 19 82 40 30 27 49 60 57 101 2 12 3 23 3 34 0 25-5 48-16 71-23 46-48 65-94 90l15-1c11 0 22 2 33 5 16 5 30 13 43 24 21 18 34 40 38 66l2 20c0 17-4 33-11 49-10 22-26 39-47 52l-38 21c-19 11-39 16-59 16l-10 0c-24-3-46-12-64-29-10-9-19-19-25-30-6-11-11-23-13-36-2-7-3-15-3-22 0-9 2-18 4-27 4-16 12-30 22-43l-20 11c-27 16-57 24-88 24l-16-1c-37-4-69-18-97-43-31-27-50-60-57-100-2-12-3-23-3-35 0-20 3-39 10-58 11-30 29-55 54-74-28 13-56 21-86 21l-25-2c-39-5-73-21-103-46-17-15-31-32-41-51-11-19-18-40-22-61-2-12-4-24-4-37 0-22 5-45 13-66 12-33 33-61 61-83-22 7-43 11-64 11-12 0-25-1-37-4-34-7-65-22-92-45-36-30-57-68-65-114-2-11-3-21-3-32 0-9 1-18 2-27 2-20 8-39 16-57 8-18 18-34 32-49 13-15 28-28 46-39-11 2-23 4-34 4-13 0-25-2-38-5-24-6-46-18-65-35-28-24-46-55-53-92-2-10-3-20-3-29 0-23 5-45 15-66 14-31 36-55 66-72l106-60c25-14 51-22 79-22 z" fill="#FCD53F"/>
		<path d="M999-283c15 0 29 2 44 6 22 6 43 16 62 31 19 14 35 32 47 54l89 156-313 178-89-156c-12-21-19-44-22-67l-1-22c0-16 2-32 6-47 6-23 16-43 31-62 14-19 32-35 53-47 22-12 44-19 68-22l25-2 z" fill="#008463"/>
		<path d="M1299-146c60 0 121 9 181 28 66 20 127 52 185 96l515 392c-51 67-111 120-181 159-70 39-144 63-220 74-27 4-54 6-81 6-50 0-100-7-151-19-78-19-150-54-216-105l-319-243 9 23c27 65 43 133 48 202 1 17 2 34 2 51 0 51-6 102-17 151-16 65-41 128-76 187-36 59-80 112-133 158l-113-271c-23-55-38-111-45-168-3-28-5-55-5-83 0-29 2-58 6-87 7-56 21-110 43-163 22-53 50-103 85-149 11-15 22-28 34-41 12-13 24-26 37-38l22-20 0 1c53-44 112-78 176-102 64-24 129-37 196-39l18 0 z" fill="#44911B"/>
	</g></svg>
