<svg version="1.1" xmlns="http://www.w3.org/2000/svg"><g transform="scale(1,-1)">
		<path d="M914-287l97 281 289-30c22 0 48 13 48 38 0 23-11 45-39 48l-269 28c69 188 190 344 358 458l8 6 298-31c22 0 48 13 48 38 0 23-11 45-39 48l-209 22c133 119 230 264 289 433 8 21 30 71 30 93 0 26-20 44-44 44-20 0-33-10-40-29l-28-79c-59-165-155-306-291-418l-122 251c-6 14-22 25-40 25-23 0-43-20-43-43 0-24 116-255 134-287-166-113-302-277-380-474l-94 194c-6 14-21 25-39 25-25 0-44-21-44-45 0-21 123-258 137-289l-97-279 82-28 z" fill="#44911B"/>
		<path d="M1639-71c199 0 364 147 386 348l-378 39c-15 1-27 2-42 2-191 0-366-142-385-347l378-40c13-1 26-2 41-2 z M1960 485c155 0 287 119 303 272l-297 31c-11 1-21 2-32 2-154 0-285-118-301-272l296-31c11-1 20-2 31-2 z M821 240c135 65 218 206 218 349 0 60-13 117-39 170l-166 342c-135-65-218-206-218-349 0-61 13-117 39-170l166-342 z M1251 812c102 50 170 156 170 274 0 47-10 91-30 132l-130 268c-103-50-171-156-171-274 0-45 10-91 30-132l131-268 z M1756 1078c167 80 273 250 273 435 0 73-18 145-50 212-164-80-272-248-272-436 0-73 16-144 49-211 z" fill="#86D72F"/>
	</g></svg>
