<svg version="1.1" xmlns="http://www.w3.org/2000/svg"><g transform="scale(1,-1)">
		<path d="M1612-287c87 0 176 26 252 77 100 68 189 199 189 331 0 13-8 23-22 23l-252-1c-118-1-231-58-301-155l0 300 96 46c10 5 15 13 15 24 0 10-5 18-15 23l-96 48 0 130-144 0 0-484-97-48c-9-4-14-13-14-24 0-11 5-19 14-23l97-48 0-219 278 0 z" fill="#86D72F"/>
		<path d="M1427 993c8 0 16 0 23 1l18 0c38 0 74 7 108 22 33 15 63 35 88 60 25 25 44 54 59 88 15 34 22 70 22 108l0 414c0 12-4 21-11 26-7 5-16 9-26 11l-23 1-38-2c-27 0-54-4-79-11-26-8-50-19-72-33-22-15-42-32-59-52-17-21-32-43-43-68-11 25-26 48-43 69-17 21-37 38-59 53-22 14-46 25-71 33-26 8-53 12-80 12l-62 0c-10 0-19-3-26-10-7-7-11-15-11-26l0-414c0-38 7-74 22-108 15-34 35-63 60-88 25-25 54-45 88-60 33-15 69-22 107-22l37-1c7 0 13 0 20 1 6 0 10 1 13 2 4-2 9-3 16-4 7-1 14-2 22-2 z" fill="#CA0B4A"/>
		<path d="M1406 503c259 0 503 56 503 360 0 145-72 249-72 359 0 65 16 119 40 176 13 30 33 62 33 86 0 37-31 62-65 62l-80 0c-146 0-288-110-359-216-55 83-148 161-254 198-52 18-93 18-149 18-49 0-90-14-90-71 0-12 2-23 7-33 32-74 55-142 55-220 0-125-72-235-72-359 0-301 237-360 503-360 z" fill="#F8312F"/>
	</g></svg>
