<svg version="1.1" xmlns="http://www.w3.org/2000/svg" viewBox="0 0 2300 2300"><g transform="scale(1,-1) translate(-256, -1869)">
		<path d="M1638-287c191 0 362 164 362 346 0 11-8 20-18 20l-207-1c-138 0-253-98-290-216l0 581-144 0 0-604c-53 143-188 240-341 240l-149 0c-12 0-18-8-20-19-1-6-1-12-1-17l1-15c0-168 137-314 307-314l207-1c43 0 91 2 136 2 49 0 106-2 157-2 z" fill="#86D72F"/>
		<path d="M1718 151c157 0 286 130 286 288 0 67-21 127-64 180l-103 128 136 23c136 24 239 140 239 282 0 157-125 287-286 287-80 0-166-41-238-65 4 53 10 107 10 160 0 161-129 291-288 291-158 0-286-127-286-285 0-56 9-110 14-165-72 24-161 64-237 64-160 0-285-128-285-287 0-142 102-258 238-282l128-22-105-129c-42-52-64-116-64-180 0-157 129-288 287-288 113 0 196 58 250 145l65 105c19-35 34-70 53-105 45-87 149-145 250-145 z" fill="#D3D3D3"/>
		<path d="M1406 621c150 0 271 123 271 272 0 149-122 272-271 272-149 0-272-122-272-272 0-149 122-272 272-272 z" fill="#FFB02E"/>
	</g></svg>
