<svg version="1.1" xmlns="http://www.w3.org/2000/svg"><g transform="scale(1,-1)">
		<path d="M1560-281l83 1c78 0 151 25 215 72 79 58 147 169 147 274 0 11-8 19-18 19l-207-1c-136 0-257-96-295-229l0 594-143 0 0-591c-56 136-184 227-336 227l-149 0c-14 0-18-8-20-19-1-5-1-11-1-16l1-15c0-163 130-314 306-314l207-1 135 1 0 1c6-3 39-3 75-3 z" fill="#44911B"/>
		<path d="M1213 158c92 0 169 125 200 194 33-69 110-190 201-190 96 0 117 130 117 203 0 27-3 55-7 83 55-33 129-68 199-68 63 0 114 31 114 104 0 76-56 160-105 214 77 3 262 31 262 142 0 100-149 161-224 182 62 42 156 127 156 212 0 83-86 105-154 105-51 0-99-10-146-25 23 53 39 111 39 170 0 65-25 135-102 135-72 0-149-63-193-110-13 70-62 209-153 209-103 0-151-157-166-231-47 55-132 129-211 129-78 0-101-72-101-135 0-65 20-127 44-181-48 16-98 26-149 26-66 0-157-23-157-106 0-87 98-170 161-212-75-23-220-86-220-184 0-114 193-139 267-139-48-57-100-139-100-213 0-72 48-104 113-104 71 0 145 36 202 72-3-25-5-49-5-74 0-69 21-208 118-208 z" fill="#FCD53F"/>
		<path d="M1406 503c230 0 421 185 421 422 0 230-186 421-421 421-230 0-421-186-421-421 0-228 183-422 421-422 z" fill="#8C5543"/>
		<path d="M1406 503c29 0 58 3 86 9l-37 37 80 80 74-74c73 41 136 105 176 187l-69 68 81 81 26-27c3 20 4 41 4 61 0 29-3 59-9 88l-21-21-81 80 58 58c-12 21-25 41-41 60l-68-67-79 80 64 65c-20 15-41 26-64 37l-51-51-80 80 8 8c-19 3-38 4-57 4-20 0-40-1-60-4l7-8-80-81-51 51c-21-10-42-23-63-38l63-63-81-81-65 65c-15-19-28-40-40-61l55-55-79-78-18 18c-6-28-9-57-9-86 0-19 1-38 4-57l23 23 80-80-67-67c11-23 23-44 38-64l80 80 79-80-79-80-80 80c36-51 82-92 138-123l72 72 81-80-37-36c29-7 58-10 89-10 z M1404 600l-80 80 79 80 81-81-80-79 z M1535 730l-81 80 80 81 81-81-80-80 z M1666 861l-81 80 80 81 81-81-80-80 z M1273 731l-80 80 79 79 81-80-80-79 z M1403 861l-80 80 81 80 80-80-81-80 z M1534 992l-80 80 81 80 80-80-81-80 z M1404 1123l-80 80 80 80 80-80-80-80 z M1272 992l-80 79 81 81 80-80-81-80 z M1143 862l-80 80 79 79 80-80-79-79 z M1666 600l-80 80 80 80 80-80-80-80 z" fill="#6D4534"/>
	</g></svg>
