<svg version="1.1" xmlns="http://www.w3.org/2000/svg" viewBox="0 0 2300 2300"><g transform="scale(1,-1) translate(-256, -1869)">
		<path d="M1633-287c37 0 60 38 60 74l-1 15-37 198-498 0-37-198c-1-7-2-12-2-17 0-32 24-72 61-72l454 0 z" fill="#6D4534"/>
		<path d="M1846-72c121 0 207 102 207 218 0 184-137 357-340 357 64 0 124 35 124 104 0 151-134 256-281 256l44 0c54 0 94 49 94 103 0 17-4 35-13 52l-194 368c-16 30-46 52-81 52-35 0-65-22-81-52l-194-368c-9-17-13-35-13-52 0-52 40-103 94-103l44 0c-139 0-281-99-281-256 0-69 61-104 124-104-193 0-340-163-340-357 0-118 88-218 207-218l880 0 z" fill="#44911B"/>
	</g></svg>
