<svg version="1.1" xmlns="http://www.w3.org/2000/svg"><g transform="scale(1,-1)">
		<path d="M1783-290c38 0 176 13 176 66 0 29-8 56-8 85 0 3 2 10 7 10 19 0 73-37 97-37 11 0 20 4 29 13 60 62 96 168 96 259 0 138-66 261-198 332 20-3 40-5 60-5 52 0 101 11 146 33 146 70 224 209 224 375l-1 16c-8 57-117 34-117 60 0 3 2 5 2 6 16 16 65 62 65 86 0 7-2 14-6 20-69 116-198 190-336 190-100 0-186-35-257-104 24 48 39 99 39 154 0 186-125 337-305 383l-8 1c-46 0-62-94-83-94-21 0-37 94-81 94l-9-1c-179-45-304-195-304-382 0-55 15-106 38-154-71 71-155 103-255 103-139 0-273-77-337-190-3-7-5-13-5-19 0-35 66-77 66-93 0-6-2-9-7-10-67-21-111 4-111-83 0-196 155-391 370-391 21 0 41 2 61 5-129-64-199-191-199-331 0-83 35-198 97-260 8-8 16-13 28-13 21 0 81 38 94 38 7 0 10-3 10-10 0-28-9-53-9-81 0-17 7-32 23-40 39-21 104-31 154-31 179 0 344 121 377 309 32-185 194-309 377-309 z" fill="#FF6DC6"/>
		<path d="M1599 312c19 0 36 7 51 22 14 14 21 31 21 50 0 23-8 41-23 54-16 12-35 18-56 18l-54 75c17 18 30 40 38 65 6 18 8 35 8 52 0 8 0 15-1 22l87 28c14-12 30-18 49-18 19 0 36 7 50 22 14 14 21 31 21 50 0 19-7 36-21 50-14 14-31 21-50 21-17 0-33-5-46-15-13-11-22-24-25-41l-87-29c-13 22-29 41-49 56-21 15-44 25-69 30l0 92c11 7 20 16 27 27 6 11 9 23 9 36 0 19-7 36-21 51-15 14-32 21-51 21-19 0-36-7-50-21-15-15-22-32-22-51 0-13 3-25 10-36 6-11 15-20 26-27l0-92c-25-5-48-15-69-30-21-15-37-34-50-56l-88 29c-3 17-11 30-24 41-13 10-29 15-46 15-19 0-36-7-50-21-15-14-22-31-22-50 0-20 7-37 21-51 14-14 31-21 51-21 18 0 34 6 48 18l88-28c-1-3-1-7-1-10l0-10c0-22 4-43 12-64 8-21 19-39 34-55l-54-75c-21 0-40-6-56-18-16-13-24-31-24-54 0-19 7-36 22-50 14-15 31-22 50-22 19 0 36 7 51 22 14 14 21 31 21 50 0 11-2 21-6 30l54 74c23-10 47-15 74-15 25 0 50 5 73 15l54-74c-5-11-7-21-7-30 0-19 7-36 22-50 14-15 31-22 50-22 z" fill="#FFFFFF"/>
	</g></svg>
