<svg version="1.1" xmlns="http://www.w3.org/2000/svg"><g transform="scale(1,-1)">
		<path d="M1698-287c37 0 67 28 67 67l0 795 95 0c264 0 480 215 480 480l0 203c0 98-79 180-179 180-98 0-180-78-180-180l0-203c0-66-53-120-121-120l-95 0 0 431c0 191-155 359-359 359-196 0-359-159-359-359l0-935-95 0c-67 0-121 54-121 121l0 487c0 102-82 183-183 183-96 0-176-84-176-180l0-490c0-263 211-480 480-480l95 0 0-292c0-39 30-67 67-67l584 0 z" fill="#86D72F"/>
		<path d="M1860 719c183 0 337 148 337 336l0 379c-12 3-24 4-36 4-12 0-24-1-36-4l0-379c0-147-120-264-265-264l-95 0 0-72 95 0 z M1622-287l-72 0 0 1982c26-11 50-25 72-42l0-1940 z M1262-287l0 1982c-26-11-50-25-72-42l0-1365-238 0c-147 0-265 118-265 264l0 487c0 19-14 39-36 39-19 0-36-15-36-36l0-490c0-183 149-336 337-336l238 0 0-503 72 0 z" fill="#44911B"/>
		<path d="M1551 279l0 104 79 80c7 7 15 10 26 10 18 0 36-15 36-36 0-9-4-18-11-25l-130-133 z M1262 575l-130 133c-7 7-11 16-11 26 0 18 17 36 36 36 10 0 19-4 26-11l79-80 0-104 z M1658 1006c19 0 35 15 35 36 0 21-16 36-35 36l-108 0 0-72 108 0 z M1083-72c19 0 35 15 35 36 0 21-16 36-35 36l-72 0c-19 0-36-15-36-36 0-19 15-36 36-36l72 0 z M1801 72l-72 0c-19 0-36 15-36 36 0 19 15 36 36 36l72 0c19 0 36-15 36-36 0-19-15-36-36-36 z M816 740c10 0 19 4 26 11 16 16 61 49 61 76 0 19-15 36-36 36-19 0-44-25-61-44-17-21-26-27-26-43 0-18 17-36 36-36 z M579 143c-18 0-36 17-36 36 0 10 4 19 11 26 16 16 49 61 76 61 19 0 36-14 36-36 0-10-3-18-10-25-16-16-49-62-77-62 z M2067 1315c21 0 36 18 36 36 0 20-24 45-44 62-19 16-25 25-43 25-19 0-36-15-36-36 0-20 24-43 46-61 20-17 26-26 41-26 z M558 1099c-9 0-18 4-25 11-16 16-62 49-62 76 0 22 18 36 37 36 19 0 44-25 61-44 17-21 26-27 26-43 0-18-16-36-37-36 z M2233 646c18 0 36 16 36 37 0 14-12 29-25 43-29 28-44 44-63 44-19 0-36-18-36-36 0-22 25-45 46-62 20-17 26-26 42-26 z M1133 1529c22 0 36 18 36 37 0 11-3 19-10 26-16 16-49 61-77 61-18 0-36-15-36-36 0-9 4-18 11-25l51-52c7-7 16-11 25-11 z M1083 1150c19 0 35 15 35 36 0 21-16 36-35 36l-72 0c-19 0-36-15-36-36 0-19 15-36 36-36l72 0 z M1679 1530c20 0 43 24 61 46 17 20 26 26 26 42 0 18-17 36-36 36-10 0-19-4-26-11-15-15-62-50-62-77 0-19 16-36 37-36 z" fill="#C3EF3C"/>
	</g></svg>
