<svg version="1.1" xmlns="http://www.w3.org/2000/svg"><g transform="scale(1,-1)">
		<path d="M2206-229c10 0 17 4 23 11 6 7 9 15 9 24 0 39-6 79-16 120-10 40-25 79-43 118-18 38-40 74-64 109-24 34-50 64-78 91 38 12 76 28 113 47 36 19 71 41 103 67 32 25 62 54 90 85 27 31 51 64 71 99 2 5 4 10 4 17 0 5-2 11-5 17-3 5-7 9-12 12l-330 167c-38 19-77 33-117 42-40 9-81 14-123 14-54 0-105-7-155-21-50-15-97-35-140-62-44-27-83-59-119-97-36-38-65-81-89-128l-8-14c-4-6-7-12-10-18-3-6-6-12-8-18-2-6-3-11-3-15 0-7 2-14 6-20-6-3-11-8-13-15-2-7-4-15-4-23l-1-13 2-34c0-75 14-146 43-213 28-68 67-128 117-179 49-52 107-93 173-123 66-31 138-46 214-46l370-1 z" fill="#86D72F"/>
		<path d="M1044-75c129 0 242 60 315 158 73-83 177-135 296-135 214 0 393 173 393 394 0 82-25 159-71 223 165 51 277 203 277 375 0 206-166 393-391 393-57 0-112-12-165-37 1 14 2 24 2 38 0 215-171 391-392 391-215 0-391-171-391-390 0-20 1-40 4-59-41 15-85 22-130 22-215 0-391-173-391-393 0-179 125-345 309-383-37-61-57-132-57-204 0-208 165-393 392-393 z" fill="#FF6DC6"/>
		<path d="M1158 290c72 0 142 31 188 94 43-50 106-80 176-80 47 0 94 14 138 37 77 42 94 114 94 196 0 49-14 93-43 133 99 29 166 121 166 223 0 128-105 233-232 233-35 0-67-7-98-21l1 11c0 157-114 244-232 244-32 0-62-6-90-18-95-42-142-121-142-233 0-6 1-12 2-17-24 9-50 13-77 13-131 0-232-106-232-234 0-110 82-205 183-226-22-36-33-76-33-121 0-128 101-234 231-234 z" fill="#F70A8D"/>
		<path d="M1327 685c77 0 140 62 140 140 0 77-62 140-140 140-77 0-140-62-140-140 0-77 62-140 140-140 z" fill="#FFF478"/>
		<path d="M1323 785c21 0 37 17 37 36 0 9-3 17-9 24l-272 311c-7 9-17 13-28 13-19 0-36-16-36-37 0-9 3-17 9-23l272-311c7-9 16-13 27-13 z" fill="#F9C23C"/>
		<path d="M1128 1089c18 0 35 16 35 35 0 19-17 36-35 36-19 0-35-15-35-36 0-18 16-35 35-35 z M1058 1024c19 0 35 15 35 36 0 18-16 35-35 35-18 0-35-16-35-35 0-19 17-36 35-36 z M994 1082c18 0 35 16 35 35 0 18-16 35-35 35-21 0-36-16-36-35 0-18 17-35 36-35 z M1084 1160c18 0 35 16 35 35 0 21-16 36-35 36-18 0-35-17-35-36 0-18 16-35 35-35 z M1004 1167c21 0 36 16 36 35 0 18-17 35-36 35-18 0-35-16-35-35 0-18 16-35 35-35 z" fill="#FFF478"/>
	</g></svg>
