<svg version="1.1" xmlns="http://www.w3.org/2000/svg"><g transform="scale(1,-1)">
		<path d="M969-289c58 0 117 5 176 14 89 13 177 38 263 74 86 35 167 82 245 140 80 60 149 128 209 203 59 75 108 155 146 240 38 85 65 173 82 265 12 68 18 137 18 206 0 24 0 47-2 71-4 53-16 102-37 147-22 44-49 82-82 115-34 33-72 59-114 79-43 20-88 32-134 36-12 1-23 1-35 1-35 0-71-4-107-14-48-13-93-35-135-67-55-41-97-93-125-154-24-51-37-104-37-161l2-34c1-20 2-40 2-60 0-51-4-101-13-151-12-70-33-137-61-202-29-65-66-127-111-184-46-58-99-110-159-155-52-39-106-71-162-96-56-25-114-45-174-58-26-5-46-17-60-35-14-18-21-38-22-59l0-5c0-20 5-40 16-57 11-20 29-34 55-42 85-28 173-46 263-53 31-2 62-4 93-4 z" fill="#F8312F"/>
		<path d="M2057 910c32 0 65 11 90 35l1 0c60 53 91 126 91 203 0 191-154 359-360 359l-116 0 0 146c0 39-31 72-72 72-39 0-72-31-72-72l0-146-116 0c-194 0-360-155-360-359 0-76 31-149 91-203l1 0c25-24 58-35 91-35 32 0 64 11 91 35 26 23 59 34 92 34 32 0 64-11 91-34 25-24 58-35 91-35 32 0 64 11 91 35 26 23 59 34 92 34 32 0 64-11 91-34 26-24 59-35 92-35 z" fill="#00D26A"/>
	</g></svg>
