<svg version="1.1" xmlns="http://www.w3.org/2000/svg"><g transform="scale(1,-1)">
		<path d="M1895 649c-21 0-36 16-36 35 0 19 15 36 36 36 242 0 445 197 445 446 0 19 15 36 36 36 19 0 36-18 36-36 0-275-218-517-517-517 z M436 684c19 0 36 15 36 36 0 392 319 716 715 716 19 0 36 15 36 36 0 19-15 36-36 36-431 0-787-351-787-788 0-19 15-36 36-36 z M576 1400c9 0 18 3 26 10l47 42c135 123 331 201 538 201 83 0 161-12 241-35 4-1 7-2 11-2 19 0 35 19 35 37 0 17-11 26-26 33-80 30-182 39-261 39-223 0-468-87-636-263-7-7-11-16-11-26 0-18 17-36 36-36 z" fill="#D3D3D3"/>
		<path d="M1965-289c50 0 90 40 90 90l0 45c0 440-357 801-801 801l-567 0-72 71 0-206c0-441 358-801 801-801l549 0 z M1726 864c288 0 542 229 542 543l0 140-49-37-385 0c-227 0-416-143-499-341-37-88-43-150-43-244 0-36 27-61 61-61l373 0 z" fill="#00D26A"/>
		<path d="M1629-15c-7 0-16 2-25 7l-856 467c-82 45-133 127-133 223l0 243c0 29 24 54 54 54 30 0 54-22 54-54l0-243c0-52 29-103 76-128l856-468c18-10 28-28 28-46 0-30-22-55-54-55 z M1581 1049c7 0 12 1 17 4l581 317c57 31 89 90 89 152l0 165c0 21-17 37-36 37-19 0-37-16-37-37l0-164c0-36-20-70-52-88l-580-317c-13-8-20-19-20-32 0-22 19-37 38-37 z" fill="#008463"/>
	</g></svg>
