<svg version="1.1" xmlns="http://www.w3.org/2000/svg" viewBox="0 0 2300 2300"><g transform="scale(1,-1) translate(-256, -1869)">
		<path d="M1770-283c34 0 63 26 63 62 0 44-40 61-77 82-136 75-226 191-265 354-20 85-23 173-23 261 0 81 3 153 3 234l-126 0c0-77-3-154-3-231 0-331 78-596 399-755 9-5 18-7 29-7 z" fill="#008463"/>
		<path d="M1705 154c31 0 60 6 88 17 28 11 53 26 74 46 21 19 38 43 51 70 13 27 19 56 19 87 0 13-1 26-3 39 4-1 8-1 13-1l12 0c32 0 62 6 91 19 29 13 54 30 76 52 22 21 39 46 52 75 13 29 19 59 19 91 0 36-8 68-23 96-15 27-35 52-60 73-25 21-54 38-87 53-33 14-66 26-100 35-35 9-69 16-102 21-34 5-65 8-93 10 28 1 59 3 93 8 34 5 68 12 103 21 34 9 67 20 100 34 32 14 61 31 86 52 25 21 45 45 60 73 15 28 23 60 23 96 0 35-7 67-22 97-15 30-34 56-58 78-25 22-53 39-84 50-24 8-49 12-75 12l-24-1c2 13 3 25 3 38 0 31-6 61-19 88-13 27-31 51-52 72-21 20-46 36-74 48-28 11-57 17-88 17-41 0-76-8-106-25-30-17-56-40-77-68-22-28-40-60-54-96-14-36-25-73-33-111-9-39-15-77-19-114-4-37-6-71-7-101-1 38-4 79-9 122-5 43-12 85-23 127-11 42-27 82-46 119-19 37-45 68-76 94-21 17-43 30-67 39-24 9-49 14-75 14-31 0-60-6-88-17-29-12-54-28-75-48-21-21-38-45-51-72-13-28-20-58-20-89 0-13 1-25 3-37-4 1-8 1-12 1l-12 0c-32 0-62-6-91-19-29-13-54-30-76-52-22-22-39-47-52-76-13-29-19-59-19-91 0-36 8-68 23-95 15-28 35-52 60-72 25-21 53-38 85-52 32-15 65-26 99-35 34-9 68-16 102-20 33-5 64-8 92-9-28-1-59-4-92-9-34-5-68-13-102-22-35-9-68-21-101-35-33-15-61-32-86-53-25-21-46-46-61-73-15-28-23-60-23-95 0-35 7-67 22-97 15-31 34-57 59-79 24-22 52-39 84-50 23-8 47-13 72-13l26 2c-2-13-3-26-3-39 0-31 6-60 19-87 13-27 30-51 51-70 21-20 46-35 74-46 28-11 57-17 88-17 35 0 67 6 95 18 27 12 52 28 73 49 21 21 40 45 55 72 15 27 28 55 38 85 10 30 18 61 24 92 6 31 10 61 12 90 3-29 7-58 14-89 6-31 14-62 25-92 11-30 24-59 39-86 15-27 34-51 55-72 21-21 46-37 74-49 27-12 59-18 94-18 z" fill="#00D26A"/>
	</g></svg>
