<svg version="1.1" xmlns="http://www.w3.org/2000/svg"><g transform="scale(1,-1)">
		<path d="M722 1284c40 0 79 8 117 23l432 180c-51 144-222 232-368 232-46 0-102-8-144-30l-359-179c48-133 179-226 322-226 z" fill="#00D26A"/>
		<path d="M1894-287c112 0 184 70 215 183 16 62 24 86 71 139 148 161 232 325 232 544 0 85-14 168-42 247-31 85-59 171-90 256-104 300-388 499-702 499-411 0-747-333-747-747 0-85 15-169 43-249 31-85 59-171 90-256 83-233 272-410 507-473 46-12 87-17 134-24 140-21 167-119 289-119 z" fill="#FCD53F"/>
	</g></svg>
