<svg version="1.1" xmlns="http://www.w3.org/2000/svg" viewBox="0 0 2300 2300"><g transform="scale(1,-1) translate(-256, -1869)">
		<path d="M1405 1048c39 0 72 31 72 72l0 318c0 38-31 72-72 72-38 0-72-33-72-72l0-318c0-41 34-72 72-72 z" fill="#008463"/>
		<path d="M1691-287c395 0 718 319 718 719 0 393-315 719-718 719l-573 0c-395 0-718-319-718-719 0-396 320-719 718-719l573 0 z" fill="#F8312F"/>
		<path d="M1859 959l-414 0c0 222 179 407 407 407l414 0c0-222-179-407-407-407 z M1363 959c0 222-179 407-407 407l-414 0c0-222 179-407 407-407l414 0 z" fill="#00D26A"/>
		<path d="M2141 786c0 223-181 407-407 407l-658 0c-222 0-407-179-407-407l415 0c135 0 248 64 321 157 72-93 185-157 322-157l414 0 z" fill="#00F397"/>
	</g></svg>
