<svg version="1.1" xmlns="http://www.w3.org/2000/svg"><g transform="scale(1,-1)">
		<path d="M1188 1061c5 0 9 1 13 2 10 3 16 10 20 19 2 5 3 9 3 14 0 5-1 10-3 14l-227 567 147 55c4 2 10 3 16 3l11-1c11-1 23-5 35-11 13-7 26-16 39-29 13-13 24-31 34-52 5-9 12-15 21-18 4-1 8-2 13-2 4 0 9 1 14 3 10 5 16 12 19 21l2 11c0 5-2 11-4 16-12 27-28 50-46 69-18 19-37 34-57 45-20 11-41 17-62 19l-15 1c-16 0-31-3-45-8l-157-58c-53-21-97-35-131-42-22-5-43-7-60-7-10 0-18 1-26 2-19 3-36 12-52 27-16 15-30 39-44 72-4 9-10 16-19 20-4 1-8 2-13 2-5 0-10-1-15-3-9-3-15-10-19-19-2-5-3-10-3-15 0-4 1-9 2-13 16-39 36-70 60-95 24-25 54-40 90-47 13-2 27-4 41-4 16 0 32 2 49 5 32 5 68 15 107 28l228-569c4-9 10-16 19-19 5-2 10-3 15-3 z" fill="#6D4534"/>
		<path d="M1406-287c476 0 862 388 862 862 0 476-386 863-862 863-476 0-863-386-863-863 0-477 389-862 863-862 z" fill="#BFCC82"/>
		<path d="M1441-265c-74 19-146 54-218 104-31 21-63 47-96 77-34 30-67 65-100 106-34 41-66 87-98 140-32 53-62 112-89 179-28 67-50 130-64 190-15 59-25 115-30 168-4 37-6 72-6 105l1 42c2 45 7 85 14 122 16 86 43 162 81 228-26-61-42-132-48-214-2-23-3-47-3-74l1-44c2-43 7-91 16-142 8-51 21-106 38-165 16-59 38-122 66-188 27-67 56-127 86-180 30-53 60-101 90-143 30-42 60-79 90-111 29-32 57-59 84-82 62-54 123-93 185-118 z M1734-222c-45 153-138 426-297 811-166 399-290 653-363 783 44-153 137-426 297-811 165-401 291-656 363-783 z M1972-45c37 66 64 142 80 228 6 37 11 78 13 123l1 44c0 32-2 66-5 102-6 52-16 108-30 168-15 59-36 122-63 189-28 66-57 125-89 178-32 53-65 100-98 141-34 41-67 76-100 107-34 30-66 56-96 77-72 50-145 85-218 104 61-25 123-64 185-118 26-23 54-51 84-82 29-32 59-69 89-111 30-43 61-91 91-144 30-53 58-113 86-180 27-67 49-129 66-188 16-59 29-114 37-165 8-51 13-99 15-142l1-48c0-24-1-47-2-69-6-82-22-153-47-214 z" fill="#608842"/>
	</g></svg>
