<svg version="1.1" xmlns="http://www.w3.org/2000/svg" viewBox="0 0 2300 2300"><g transform="scale(1,-1) translate(-256, -1869)">
		<path d="M1621-144c79 0 144 63 144 144 0 19-5 37-12 56l-203 483-324 0-180-489c-6-16-9-33-9-50 0-81 67-144 144-144l440 0 z" fill="#FFCE7C"/>
		<path d="M2125 431c80 0 143 65 143 144l0 144c0 25-1 50-3 75l-213 213c-31 31-57 51-81 76-42 44-66 105-96 165l-139 268c-103 42-215 65-330 65-81 0-158-10-233-31l-234-256-271-129c-82-136-125-291-125-446l0-144c0-81 67-144 144-144l1438 0 z" fill="#F8312F"/>
		<path d="M1330 644c-109 0-197 87-197 197 0 109 87 197 197 197 109 0 197-87 197-197 0-109-87-197-197-197 z M2129 772c-256 0-477 205-477 477 0 98 31 190 83 268 293-124 503-395 530-725-45-13-91-20-136-20 z M824 1129c195 0 357 156 357 357 0 21-2 43-6 64-208-58-392-192-507-385 48-24 101-36 156-36 z" fill="#FBB8AB"/>
	</g></svg>
