<svg version="1.1" xmlns="http://www.w3.org/2000/svg"><g transform="scale(1,-1)">
		<path d="M2048 0c3 0 6 1 9 4 2 2 3 5 3 8 0 1-3 7-9 17l-24 36c-10 14-21 29-32 46-12 16-23 31-33 46l-43 60c-3 3-4 8-4 15 0 9 4 16 11 21l470 308c5 3 8 8 8 14 0 8-4 13-12 14l-167 32c-8 1-12 6-12 15 0 5 4 14 12 27l30 48c11 18 24 37 38 58l39 57 29 48c8 13 12 22 12 27 0 4-2 8-5 11-2 2-6 4-9 4l-296-27c-4 0-8 2-11 5-3 3-5 6-5 10 0 10 3 23 8 38 5 15 10 31 16 47l17 47c5 15 7 27 7 37 0 4-1 8-4 11-3 3-7 4-11 4-5 0-15-5-32-15-17-10-36-22-59-37l-146-97c-23-15-43-28-60-38-17-10-27-15-32-15-4 0-7 2-10 5-3 3-5 6-5 11l92 673c0 9-5 14-14 14-5 0-13-4-26-11-13-7-28-16-45-27l-54-36c-19-13-37-24-54-35-17-11-33-21-46-28-13-7-22-11-27-11-5 0-10 3-13 8l-134 268c-2 5-7 8-14 8-7 0-11-3-13-8l-133-268c-2-5-6-8-13-8-5 0-14 4-27 11-13 7-29 17-46 28-18 11-37 22-56 35l-56 36c-18 11-34 20-47 27-13 7-22 11-27 11-4 0-8-1-11-4-4-4-5-7-5-13l117-670 0-3c0-4-1-7-4-10-3-3-7-4-10-4-5 0-16 5-33 15-18 10-39 23-63 38-24 15-50 31-77 49l-77 49c-24 15-45 27-63 37-18 10-29 15-34 15-3 0-7-1-10-4-3-3-5-6-5-10 0-10 3-23 8-38 5-15 10-31 16-47l17-48c5-15 7-28 7-38 0-5-2-8-5-11-3-3-7-4-11-4-24 0-48 1-73 4-25 3-49 6-74 10l-74 9c-25 3-49 4-73 4-4 0-7-1-10-4-3-3-5-7-5-11 0-5 4-15 12-28 8-14 18-30 30-48 11-18 24-37 38-57l39-57 29-47c8-14 12-23 12-28 0-9-4-14-13-15l-166-31c-8-1-12-6-12-15 0-5 2-10 7-13l470-308c7-5 11-12 11-21 0-7-1-12-4-15-3-3-8-10-15-21l-60-85c-12-17-23-32-32-46l-24-35c-7-10-10-16-10-17 0-9 4-13 12-13l91 33c27 9 57 20 92 33 34 13 69 26 106 39l205 75c29 11 53 20 74 27l38 14c12 5 25 7 40 7 15 0 29-2 41-7 5-2 18-7 39-14l74-27 97-36 214-78c34-13 65-24 92-33l90-33 z" fill="#F8312F"/>
		<path d="M1402-285c39 0 72 31 72 72l0 455 457 235c24 12 39 38 39 64 0 38-31 71-72 71-11 0-22-3-33-8l-391-201 0 584c0 39-31 72-72 72-39 0-72-31-72-72l0-584-391 201c-11 5-22 8-33 8-41 0-72-33-72-71 0-26 15-52 39-64l457-235 0-455c0-39 31-72 72-72 z" fill="#CA0B4A"/>
	</g></svg>
