<svg version="1.1" xmlns="http://www.w3.org/2000/svg"><g transform="scale(1,-1)">
		<path d="M946 1112c52 0 103 11 153 32 4 1 7 2 8 3l8 4c50 27 92 62 127 105 34 43 59 90 76 141 14 43 21 89 21 136l-1 25c-3 56-18 111-43 164-53-25-98-59-135-102-37-43-64-90-81-143-23 55-57 105-100 148-44 43-96 77-155 100-15-46-23-92-23-138l2-36c5-58 19-113 44-165-42 13-84 20-127 20l-24-1c-52-3-103-16-153-39 25-53 59-99 100-137 41-38 87-67 138-87 50-20 103-30 158-30l7 0 z" fill="#86D72F"/>
		<path d="M1474-276c23 0 46 2 69 5 99 13 135 36 232 82 50 23 94 53 132 90 38 36 70 76 96 121l0 7 60 183 5 4c3 21 4 41 4 62 0 21-1 42-4 63-5 41-15 83-30 124l-9 0-140 282 9 16-81 173c-22 44-48 84-79 119-31 35-65 66-103 91-38 25-79 44-123 59-44 15-88 23-133 26l0-6-186-23-3 5c-12-3-23-7-33-11-11-4-22-9-32-14l-77-37c-23-10-43-21-61-34l0-6-135-128-2 4c-28-37-50-77-66-120-16-43-27-88-31-133-2-18-3-36-3-55 0-27 2-55 7-83 8-47 22-92 44-136l81-172 4 2 141-297-2-3c21-37 46-71 75-100 29-30 61-56 95-77l3 2 186-72 3-5c29-5 58-8 87-8 z" fill="#F3AD61"/>
		<path d="M1701-148c3 0 5 1 8 2 5 3 9 7 10 14l23 182c0 5-3 11-9 15l-153 96c-3 2-6 3-10 3l-7-2c-6-3-10-7-11-14l-22-183c0-6 2-11 8-14l153-96c3-2 7-3 10-3 z M1695 296c3 0 5 1 8 2 5 2 9 7 10 14l23 182c0 5-3 11-9 15l-153 96c-3 2-6 3-10 3l-7-2c-6-3-10-7-11-14l-22-184c0-6 2-10 8-13l153-96c3-2 7-3 10-3 z M1365 139l7 2c6 3 10 7 11 14l22 183c0 6-2 11-8 14l-153 96c-3 2-7 3-10 3-3 0-5-1-7-2-6-3-10-7-11-14l-23-182c0-5 3-11 9-15l153-96c3-2 6-3 10-3 z M1692 725c3 0 5 1 8 2 5 3 9 7 10 14l23 180c0 7-3 13-9 17l-153 96c-3 2-7 3-10 3-3 0-5-1-7-2-6-3-10-7-11-14l-23-179c0-8 3-14 9-18l153-96c3-2 7-3 10-3 z M1362 568l7 2c6 3 9 7 10 14l23 184c0 6-2 11-8 14l-153 95c-4 2-8 3-11 3l-6-1c-6-3-10-8-11-15l-23-183c0-6 2-11 8-14l154-96c3-2 6-3 10-3 z M1030 411c3 0 5 1 8 2 5 3 9 7 10 14l23 183c0 6-3 11-9 14l-153 96c-3 2-7 3-11 3l-6-1c-6-3-10-8-11-15l-22-183c0-6 2-11 8-14l153-96c3-2 7-3 10-3 z M2025 452l6 2c5 3 9 6 11 11-3 7-5 13-7 20l-133 278c-2 1-5 1-7 1-3 0-6 0-9-2-5-3-8-8-9-14l-23-182c0-5 3-11 9-15l153-96c3-2 6-3 9-3 z M2007 22c34 59 56 124 65 194l-6 5-155 97c-3 2-7 3-10 3-3 0-5-1-7-2-6-3-10-7-11-14l-23-183c0-6 3-11 9-14l138-86 z M1391-268l20 161c0 7-3 12-9 15l-153 96c-3 2-7 3-10 3-3 0-5-1-7-2-6-3-10-7-11-14l-23-181c0-1 0-1 1-1l0-2c29-19 60-35 93-47 32-13 65-22 99-28 z M1034-17c4 0 7 1 10 3 4 3 6 7 7 12l23 182c0 6-3 12-8 15l-154 96c-3 2-6 3-9 3l-5-1c-5-2-9-6-12-11l123-260c3-7 7-13 10-19 3-7 7-13 10-19l5-1 z M1024 855c3 0 5 1 8 2 5 3 9 7 10 14l23 183c0 6-2 11-8 14l-66 43c-28-17-53-37-76-59-23-22-43-46-61-71l-2-9c0-8 3-14 9-18l153-96c3-2 7-3 10-3 z M1356 1012l7 2c6 3 10 7 11 14l22 186c0 9-4 11-13 17l-32 1c-53 0-105-8-157-25l-10-82c0-6 2-11 8-14l154-96c3-2 6-3 10-3 z" fill="#E19747"/>
	</g></svg>
