<svg version="1.1" xmlns="http://www.w3.org/2000/svg" viewBox="0 0 2300 2300"><g transform="scale(1,-1) translate(-256, -1869)">
		<path d="M1391-286c91 0 191 24 273 50 443 143 748 552 748 1026l0 503-150 0c-497 0-932-406-932-910 0-212 3-414 4-616 0-35 27-53 57-53 z" fill="#F8312F"/>
		<path d="M1626 78c19 0 33 7 44 22l678 950c44 62 66 134 66 207 0 93-1 177-2 270 0 30-22 54-54 54-29 0-54-24-54-54l1-270c0-52-16-102-46-144l-677-950c-7-10-10-20-10-31 0-29 22-54 54-54 z" fill="#CA0B4A"/>
		<path d="M1118 143l0 78c0 219-177 425-414 425l-280 0c-15 0-24-12-24-26 0-21 2-42 7-63 47-239 249-414 483-414l228 0 z M1029 1006c314 0 587 206 680 500 18 55 33 119 33 181 0 21-12 38-35 38l-407-1c-336 0-603-289-603-618l0-100 332 0 z" fill="#E19747"/>
		<path d="M1142 144c7 0 13 1 19 2 8 1 15 5 21 10 5 5 8 14 8 26 0 10-3 18-9 23-7 5-14 8-23 9-9 1-18 2-27 2-9-1-17-1-23-1-35 0-66 10-95 31l-306 219c-6 4-13 6-20 6-10 0-19-3-26-10-7-7-11-16-11-26 0-11 5-21 15-29l306-218c41-29 86-44 137-44l34 0 z M720 1006c25 0 49 4 73 11 23 7 45 18 65 33l628 447c10 7 15 17 15 30 0 9-4 18-11 25-7 7-16 11-25 11-7 0-13-2-20-7l-629-448c-17-12-35-20-55-24-20-5-40-7-60-8l-18 0-78 2-14 0c-15-1-26-4-35-9-9-5-13-14-13-27 0-10 4-18 11-25 7-7 15-11 25-11l141 0 z" fill="#D3883E"/>
	</g></svg>
