<svg version="1.1" xmlns="http://www.w3.org/2000/svg" viewBox="0 0 2300 2300"><g transform="scale(1,-1) translate(-256, -1869)">
		<path d="M1418 1300c0 234-188 425-425 425l-434 0c0-227 182-425 426-425l433 0 z" fill="#00D26A"/>
		<path d="M1711-290c22 0 44 2 66 4 81 9 158 31 229 67 71 35 134 83 190 142 56 59 100 129 131 208 28 71 49 143 63 218 14 74 21 149 21 224 0 75-7 149-21 223-14 74-35 147-63 218-30 77-73 143-128 198-56 55-119 98-189 127-70 29-144 45-222 46l-7 0c-77 0-151-15-225-46-48-21-98-31-150-31-53 0-103 10-152 31-51 21-102 35-153 42-25 3-50 4-74 4-27 0-53-1-79-5-51-7-99-21-146-41-47-20-91-45-131-76-41-31-77-68-109-110-32-42-58-88-78-139-28-71-49-144-63-218-14-74-21-148-21-223 0-75 7-150 21-224 14-75 35-147 63-218 21-53 47-101 80-145 32-45 68-84 109-118 41-35 85-64 133-87 47-24 97-42 149-53 48-11 96-16 146-16l14 0c55 1 109 9 164 24 41 11 83 17 126 17 43 0 85-6 127-17 60-17 120-26 179-26 z" fill="#86D72F"/>
	</g></svg>
