<svg version="1.1" xmlns="http://www.w3.org/2000/svg" viewBox="0 0 2300 2300"><g transform="scale(1,-1) translate(-256, -1869)">
		<path d="M1818-160c19 0 32 5 47 13 69 33 166 57 222 113 58 58 74 154 113 222 46 83 143 143 143 265 0 68-20 125-20 193 0 68 20 125 20 193 0 125-93 176-143 265-40 69-55 165-112 222-62 60-150 73-223 113-86 51-148 143-264 143-68 0-125-21-193-21-68 0-126 21-194 21-121 0-176-94-264-143-71-39-164-54-223-113-61-61-71-150-113-222-51-86-143-148-143-264 0-68 21-126 21-194 0-68-21-126-21-194 0-118 90-174 143-264 39-70 55-164 113-222 58-58 148-77 222-113 17-9 29-13 48-13 43 0 85 25 129 25 31 0 56-11 87-11 68 0 126 21 194 21 68 0 126-21 194-21 32 0 56 11 88 11 43 0 85-25 129-25 z" fill="#F3AD61"/>
		<path d="M1713 697c32 0 60 25 60 59 0 25-13 44-36 55-31 13-131 63-159 63-32 0-60-25-60-59 0-25 13-44 36-55 31-13 130-63 159-63 z M791 200c-21 0-40 10-51 29l-74 128c-5 9-8 19-8 30 0 33 27 59 59 59 23 0 40-10 52-29l74-128c5-9 8-19 8-30 0-34-28-59-60-59 z M2035 229c15 0 29 5 40 15l109 101c13 11 19 26 19 43 0 34-28 59-60 59-15 0-28-5-40-16l-108-100c-13-11-19-26-19-44 0-33 27-58 59-58 z M2158 633c-18 0-33 7-45 21l-95 113c-9 11-14 24-14 38 0 32 25 60 59 60 18 0 33-7 45-21l95-113c10-12 15-25 15-39 0-33-28-59-60-59 z M827 961c-34 0-58 26-58 59 0 13 4 24 11 35l88 119c12 16 28 24 48 24 33 0 59-27 59-59 0-12-4-24-12-35l-88-119c-12-16-28-24-48-24 z M697 646c-32 0-60 25-60 59 0 22 14 43 32 53l132 69c8 4 17 6 27 6 31 0 60-25 60-58 0-23-14-42-32-53-28-15-129-76-159-76 z M1224 709c-25 0-43 13-54 36-16 30-66 131-66 158 0 34 28 60 61 60 24 0 42-14 53-35 16-32 65-133 65-159 0-33-25-60-59-60 z M1772 1003c33 0 59 27 59 59l0 148c0 32-26 59-59 59-32 0-59-26-59-59l0-148c0-32 26-59 59-59 z M1267 1161c14 0 27 5 39 15l113 95c14 12 21 27 21 45 0 33-26 60-60 60-15 0-27-5-38-14l-113-96c-14-12-21-27-21-45 0-32 26-60 59-60 z" fill="#FFDEA7"/>
		<path d="M1693-287c121 0 216 97 216 215l0 575c0 39-31 72-72 72l-862 0c-39 0-72-31-72-72l0-575c0-120 97-215 215-215l575 0 z" fill="#533566"/>
	</g></svg>
