<svg version="1.1" xmlns="http://www.w3.org/2000/svg" viewBox="0 0 2300 2300"><g transform="scale(1,-1) translate(-256, -1869)">
		<path d="M1075 1475l1201 62c34 3 61 28 61 64 0 56-1 124-76 124l-1196-122c-33-3-57-31-57-64 0-38 27-64 67-64 z" fill="#E39D89"/>
		<path d="M1154 513c19 0 36 15 36 36l0 1044c0 19-15 36-36 36-19 0-36-15-36-36l0-1044c0-19 15-36 36-36 z" fill="#FCD53F"/>
		<path d="M2271 1151c17 0 31 4 40 13 9 8 16 18 20 31 4 13 6 26 7 41l0 40c0 17-6 32-19 44-13 11-27 17-44 18l-1205 27c-17 0-32-6-43-18-13-13-19-29-19-48 0-17 6-31 18-42 11-12 25-19 41-20l1204-86 z" fill="#E39D89"/>
		<path d="M1442 865c19 0 36 17 36 35l0 457c0 19-15 36-36 36-19 0-36-15-36-36l0-457c0-18 17-35 36-35 z M1296 497c19 0 36 17 36 35l0 825c0 19-15 36-36 36-19 0-36-15-36-36l0-825c0-18 17-35 36-35 z" fill="#FCD53F"/>
		<path d="M1785-287c35 0 66 28 66 65 0 28-63 236-74 273l-895 0c-13-46-74-246-74-274 0-38 33-64 66-64l911 0 z" fill="#CA0B4A"/>
		<path d="M1530-87c351 0 658 284 658 658l0 119c0 29-24 49-50 49l-1617 0c-26 0-49-22-49-49l0-119c0-350 279-658 657-658l401 0 z" fill="#F8312F"/>
	</g></svg>
