<svg version="1.1" xmlns="http://www.w3.org/2000/svg" viewBox="0 0 2300 2300"><g transform="scale(1,-1) translate(-256, -1869)">
		<path d="M1773 1353c194 0 361 154 361 360l-367 0c-194 0-361-154-361-360l367 0 z M1406 1353c0 194-155 360-361 360l-367 0c0-194 155-360 361-360l367 0 z" fill="#00D26A"/>
		<path d="M1406-281c246 0 457 182 622 330 188 170 384 339 384 674 0 385-328 715-731 715-92 0-192-14-273-46-96 33-177 46-277 46-409 0-731-336-731-715 0-337 195-504 384-674 169-151 377-330 622-330 z" fill="#FF822D"/>
		<path d="M1909 686c41 0 72 33 72 71 0 283-144 532-355 680-75-5-154-19-218-45 250-101 429-344 429-635 0-38 31-71 72-71 z" fill="#FF6723"/>
	</g></svg>
