<svg version="1.1" xmlns="http://www.w3.org/2000/svg"><g transform="scale(1,-1)">
		<path d="M1743 1327c82 0 154 49 185 127l486-20 0 184-486-19c-29 76-101 126-185 126l-555 0c-29 0-54-24-54-54 0-29 24-54 54-54l455 0 0-37-455 0c-29 0-54-24-54-54 0-29 24-54 54-54l455 0 0-37-455 0c-29 0-54-24-54-54 0-29 24-54 54-54l555 0 z" fill="#D3D3D3"/>
		<path d="M1747-304c286 0 523 230 523 523l0 207-1714 0 0-207c0-286 231-523 524-523l667 0 z" fill="#9B9B9B"/>
		<path d="M1838-192c307 0 576 248 576 577 0 317-257 576-576 576l-862 0c-317 0-576-257-576-576 0-317 257-577 576-577l862 0 z M1838-32l-862 0c-229 0-417 187-417 417 0 229 187 417 417 417l862 0c229 0 417-187 417-417 0-229-187-417-417-417 z" fill="#D3D3D3"/>
		<path d="M1838-32c229 0 417 187 417 417 0 229-187 417-417 417l-866 0c-229 0-413-188-413-417 0-229 187-417 417-417l862 0 z" fill="#D3D3D3"/>
		<path d="M1850-31c233 0 423 185 423 423 0 110-43 206-115 283-146 156-336 256-535 298l0 716c0 19-15 36-36 36-19 0-36-15-36-36l0-703-73 7 0 433c0 19-15 36-36 36-19 0-36-15-36-36l0-431c-23 0-47-1-71-3l0 553c0 19-15 36-36 36-19 0-36-15-36-36l0-561c-222-32-432-136-594-309-72-77-115-173-115-283 0-234 186-423 422-423l874 0 z" fill="#FCD53F"/>
		<path d="M1719 74c242 0 435 196 435 438 0 32-14 61-53 61-30 0-50-25-50-53 0-190-141-342-332-342l-626 0c-184 0-332 147-332 333 0 29-11 62-50 62-40 0-53-30-53-63 0-240 191-436 435-436l626 0 z" fill="#FFF478"/>
		<path d="M1419 262c115 0 230 22 333 64 115 49 189 152 189 282 0 124-72 229-191 279-102 43-219 65-334 65-231 0-524-81-524-344 0-65 18-121 53-170 96-136 309-176 474-176 z" fill="#F8312F"/>
		<path d="M1658 408c59 0 107 49 107 107 0 57-47 106-107 106-60 0-106-46-106-106 0-58 47-107 106-107 z M1191 416c57 0 106 47 106 107 0 60-51 106-106 106-60 0-106-51-106-106 0-58 47-107 106-107 z M1413 692c58 0 107 47 107 106 0 57-47 106-107 106-60 0-106-46-106-106 0-60 46-106 106-106 z" fill="#6D4534"/>
	</g></svg>
