<svg version="1.1" xmlns="http://www.w3.org/2000/svg"><g transform="scale(1,-1)">
		<path d="M1993 357l338 626c0 408-331 742-742 742l-375 0c-412 0-742-335-742-742l337-626 1184 0 z" fill="#CA0B4A"/>
		<path d="M1202 2l205 20c32 3 53 30 53 60 0 15-1 29-4 44 41-5 127-23 171-23 30 0 55 23 59 52l73 564-27-694c41-5 122-22 167-22 31 0 54 23 58 53l159 1216c0 35-15 62-52 67l-158 21-70-49c3 23 9 47 9 70 0 30-23 54-52 58l-158 21-61-51-70-551 0 692c0 34-27 59-60 59l-160 0-44-75 6-175-145-16-41-76 44-393-84 503c-5 27-29 50-58 50-34 0-123-18-168-27l-37-70 258-1258c28 5 153 19 175 33l12-103 z" fill="#FCD53F"/>
		<path d="M1459 125c-46 6-85 10-85 71l159 1217c4 31 29 52 59 52 15 0 27-2 42-5l-175-1335 z M1732 24c-40 5-86 9-86 63 0 7 1 13 2 20 21 8 35 26 38 48l157 1205c6 3 13 4 22 4 15 0 28-2 41-5l-174-1335 z M973 65c-29 0-55 24-60 51l-203 1219c0 51 44 60 83 65l222-1328c-15-3-27-7-42-7 z M1208 1c13 0 27 1 40 4-51 455-97 883-147 1338-44-6-86-6-86-70l134-1219c3-32 29-53 59-53 z M1192 1353c27 3 63 7 84 7l8-2 0 251-33 0c-33 0-59-25-59-59l0-197 z" fill="#FFB02E"/>
		<path d="M1907-294c83 0 146 55 163 130l261 1147-325 0c-57 0-90-40-101-87-12-48-21-88-42-132-84-174-260-290-461-290-218 0-432 149-486 355-18 65-29 154-119 154l-325 0 261-1147c17-75 80-130 163-130l1011 0 z" fill="#F8312F"/>
	</g></svg>
