<svg version="1.1" xmlns="http://www.w3.org/2000/svg" viewBox="0 0 2300 2300"><g transform="scale(1,-1) translate(-256, -1869)">
		<path d="M1853-179c287 0 523 231 523 522 0 90-23 180-71 262l-488 846c-89 153-247 238-411 238-174 0-327-90-411-238l-489-846c-47-80-70-169-70-261 0-287 231-523 522-523l895 0 z" fill="#9B9B9B"/>
		<path d="M1853-108c247 0 451 201 451 451 0 80-22 157-61 226l-488 847c-72 126-208 201-349 201-143 0-275-72-349-201l-488-847c-40-69-62-146-62-226 0-239 192-451 451-451l895 0 z" fill="#F4F4F4"/>
		<path d="M1505 941c33 0 57 26 57 56 0 22-12 44-34 53-30 13-125 60-153 60-33 0-57-26-57-56 0-22 12-44 34-53 30-13 125-60 153-60 z M815 143c-21 0-37 10-48 29l-71 123c-5 9-8 19-8 29 0 30 25 57 56 57 21 0 39-12 50-29l72-123c5-8 7-19 7-28 0-33-27-58-58-58 z M1988 83c14 0 27 5 38 15l105 97c12 11 18 25 18 42 0 31-27 56-57 56-15 0-27-5-38-15l-105-97c-12-11-18-25-18-42 0-31 27-56 57-56 z M1561 655c-32 0-55 27-55 57 0 31 23 53 53 56 49 3 98 10 148 10 33 0 55-26 55-57 0-32-23-53-52-56-49-3-100-10-149-10 z M2125 424c31 0 56 27 56 57 0 19-8 34-23 46l-115 85c-11 7-22 11-33 11-33 0-58-27-58-57 0-19 8-34 24-46l115-85c11-7 22-11 34-11 z M726 573c-30 0-58 24-58 58 0 20 12 39 31 50l127 66c8 4 16 6 25 6 30 0 58-24 58-57 0-21-12-40-31-51l-126-66c-8-4-17-6-26-6 z M1233 635c30 0 57 24 57 57 0 30-50 125-63 153-9 20-30 34-53 34-30 0-57-26-57-57 0-30 50-124 64-154 9-20 29-33 52-33 z M1861 881c-23 0-39 10-50 31l-66 127c-5 9-7 18-7 27 0 32 28 56 58 56 23 0 39-10 50-31l66-126c5-9 7-18 7-27 0-30-25-57-58-57 z M1062 1036c19 0 34 8 45 23l85 115c7 11 11 22 11 35 0 30-25 56-56 56-19 0-34-8-46-23l-85-115c-7-11-11-22-11-33 0-33 27-58 57-58 z M1488 1311c31 0 58 25 58 58 0 19-8 34-23 45l-115 85c-11 7-22 11-34 11-30 0-57-26-57-57 0-19 8-35 23-46l115-85c11-7 22-11 33-11 z" fill="#9B9B9B"/>
		<path d="M1658-287c120 0 215 97 215 215l0 575c0 39-31 72-72 72l-790 0c-39 0-72-31-72-72l0-575c0-120 97-215 215-215l504 0 z" fill="#533566"/>
	</g></svg>
