<svg version="1.1" xmlns="http://www.w3.org/2000/svg"><g transform="scale(1,-1)">
		<path d="M1222 693l212 214-426 424c-8 8-12 17-12 27 0 21 60 73 60 160 0 114-90 207-207 207-109 0-207-87-207-205 0-23-18-36-40-39-115-8-203-87-203-207 0-115 95-207 208-207 87 0 141 60 162 60 11 0 20-3 27-10l426-424 z" fill="#D3D3D3"/>
		<path d="M1786-289c353 0 633 285 633 635 0 351-279 634-634 634-60 0-110-15-165-15-212 0-251 239-416 239-47 0-88-17-121-50l-55-55c-52-52-105-98-105-176 0-168 242-205 242-418 0-56-14-103-14-159 0-353 286-635 635-635 z" fill="#D3883E"/>
		<path d="M1885 440c36 0 62 28 62 62 0 34-26 62-62 62-34 0-62-26-62-62 0-34 26-62 62-62 z M2161 258c77 0 140 62 140 140 0 76-60 141-140 141-77 0-140-63-140-141 0-77 62-140 140-140 z M1957 664c49 0 86 39 86 87 0 49-42 86-86 86-49 0-86-42-86-86 0-48 37-87 86-87 z" fill="#A56953"/>
	</g></svg>
