<svg version="1.1" xmlns="http://www.w3.org/2000/svg"><g transform="scale(1,-1)">
		<path d="M1747-284c291 0 523 233 523 524l0 207-1714 0 0-207c0-287 231-524 524-524l667 0 z" fill="#9B9B9B"/>
		<path d="M1839-79c307 0 576 248 576 577 0 317-257 576-576 576l-863 0c-317 0-576-257-576-576 0-317 257-577 576-577l863 0 z M1839 81l-863 0c-229 0-417 187-417 417 0 228 184 416 417 416l863 0c228 0 417-184 417-416 0-229-187-417-417-417 z" fill="#D3D3D3"/>
		<path d="M1839 81c229 0 417 187 417 417 0 228-184 416-417 416l-863 0c-228 0-417-184-417-416 0-229 187-417 417-417l863 0 z" fill="#FF6723"/>
		<path d="M1627 585c73 0 131 59 131 129 0 13-2 26-6 38-72 235-291 398-539 398-244 0-469-159-541-398-4-12-6-24-6-37 0-72 60-130 131-130l830 0 z" fill="#F4F4F4"/>
		<path d="M2069 206c11 0 15 9 15 18 0 77-83 137-153 137-72 0-154-61-154-137 0-11 5-18 16-18l276 0 z M1724 360c11 0 16 7 16 18 0 80-85 138-154 138-70 0-153-60-153-138 0-9 4-18 15-18l276 0 z M2110 515c11 0 16 7 16 18 0 71-79 137-154 137-70 0-153-60-153-137 0-9 4-18 15-18l276 0 z" fill="#FCD53F"/>
		<path d="M1405 758c11 0 22 9 25 19 5 19 16 48 16 68 0 15-11 25-25 25-13 0-21-6-24-19-5-19-17-49-17-68 0-13 10-25 25-25 z M987 866c13 0 21 6 24 19 5 20 16 46 16 68 0 12-10 25-24 25-12 0-22-9-25-20-5-19-17-48-17-67 0-15 11-25 26-25 z M1059 660c13 0 25 10 25 25 0 10-4 17-13 22-14 8-53 34-67 34-14 0-25-10-25-25 0-9 4-16 12-21 13-8 52-35 68-35 z M1572 659c7 0 13 2 18 6 5 4 8 10 9 17l5 66c0 6-3 12-7 16-5 5-12 7-19 7-7 0-12-2-16-6-5-5-7-10-8-17l-3-32c-1-11-2-22-2-33 0-6 2-11 7-16 4-5 9-8 16-8 z M1259 639c8 0 22 4 35 11 28 13 48 19 48 39 0 13-10 25-25 25-8 0-22-4-34-10-29-14-49-20-49-40 0-15 11-25 25-25 z M810 758c19 0 52 27 68 35 8 4 12 13 12 21 0 15-10 26-25 26-9 0-22-6-34-14-27-17-46-24-46-42 0-14 11-26 25-26 z M1213 799c15 0 24 11 24 25 0 8-6 22-14 35-19 29-23 45-43 45-15 0-24-11-24-25 0-8 6-22 14-34 17-27 24-46 43-46 z M1424 957c13 0 25 10 25 25 0 8-7 18-13 22-14 8-52 34-68 34-14 0-25-9-25-24 0-9 5-19 13-23 14-8 52-34 68-34 z" fill="#D3D3D3"/>
		<path d="M942 166c30 0 56 25 56 56 0 31-26 56-56 56-30 0-56-25-56-56 0-30 25-56 56-56 z M1182 347c30 0 56 25 56 56 0 31-26 56-56 56-30 0-56-25-56-56 0-31 26-56 56-56 z M815 411c30 0 56 25 56 56 0 31-26 56-56 56-30 0-56-25-56-56 0-31 26-56 56-56 z" fill="#00D26A"/>
	</g></svg>
