<svg version="1.1" xmlns="http://www.w3.org/2000/svg"><g transform="scale(1,-1)">
		<path d="M2192-171c59 0 107 49 107 108 0 28-11 56-31 76l-1797 1793c-20 20-48 31-76 31-61 0-108-48-108-108 0-29 11-55 32-76l1797-1792c21-21 47-32 76-32 z" fill="#D3883E"/>
		<path d="M934 595c62 0 117 24 159 66l371 371c44 44 66 100 66 158 0 100-65 192-166 219l-508 136c-20 5-39 8-58 8-122 0-226-103-226-226 0-19 3-38 8-58l136-508c26-97 114-166 218-166 z" fill="#635994"/>
		<path d="M1534 99c271 0 492 217 492 492 0 271-217 492-492 492-271 0-492-217-492-492 0-271 217-492 492-492 z" fill="#E39D89"/>
		<path d="M1719-321c70 0 135 26 186 77l464 463c51 51 77 118 77 186 0 144-117 264-263 264-68 0-135-26-186-77l-464-464c-51-51-77-118-77-186 0-143 115-263 263-263 z" fill="#FFDEA7"/>
		<path d="M2340-319c58 0 108 49 108 108 0 29-11 55-32 76l-244 244c-20 20-48 31-76 31-61 0-108-48-108-108 0-28 12-56 32-76l244-243c21-21 47-32 76-32 z" fill="#D3883E"/>
	</g></svg>
