<svg version="1.1" xmlns="http://www.w3.org/2000/svg" viewBox="0 0 2300 2300"><g transform="scale(1,-1) translate(-256, -1869)">
		<path d="M1708-302c32 0 57 24 61 54l59 471-787 0 59-471c4-30 28-54 61-54l547 0 z" fill="#D3883E"/>
		<path d="M1712-302c24 1 45 16 53 39l-69 70 91 92 14 106-152-152-163 163 163 163 154-154 11 82-114 116-101 0-159-160-160 160-101 0-123-123 24-190 103-103-77-76c13-24 34-33 61-33l62 62 63-62 93 0-108 109 163 163 163-163-109-109 93 0 62 62 63-62 z M1230-146l-162 163 162 163 163-163-163-163 z" fill="#E19747"/>
		<path d="M1869 223c34 0 61 25 61 61l0 183-983-76 0-107c0-36 28-61 62-61l860 0 z" fill="#F3AD61"/>
		<path d="M1210 284c20 0 37 7 52 22 14 14 21 31 21 51 0 9 1 19 2 28 1 9 5 16 12 23l629 55c28 3 54 10 79 23 24 12 45 28 63 47 17 19 31 42 42 67 10 25 15 52 15 80 0 25-4 49-12 72-9 23-20 43-35 62-15 19-32 35-52 48-21 13-43 23-67 29 12 15 21 32 28 51 6 19 9 38 9 57 0 25-4 48-13 70-9 21-22 40-38 57-16 16-35 29-56 38-22 9-45 14-70 14l-14 0-14-2c13 15 24 31 32 50 8 19 12 38 12 58 0 19-3 36-10 53-7 16-16 30-28 42-12 12-26 22-42 29-16 7-33 10-52 10-20 0-40-1-61-4-21-3-41-6-61-8l-3 0c-9 0-15 5-18 16-2 9-3 20-3 32l0 14c0 18 1 38 2 60l0 11c0 17-2 33-4 49-4 19-11 34-22 47-11 13-28 19-51 19-17 0-30-3-39-8-10-6-18-13-23-22-6-9-11-20-14-32l-10-36c-4-12-9-24-15-35-7-11-16-21-27-30-13-10-33-21-58-34-25-13-52-26-80-38-29-13-57-24-84-35-27-11-50-20-67-26-30-10-54-28-71-53-17-25-26-54-26-86 0-22 3-42 9-60 6-19 18-36 35-51l-31-3c-23-2-44-8-64-18-20-10-37-23-52-38-15-16-26-34-34-54-9-21-13-43-13-66 0-23 4-45 13-66 8-21 20-40 36-57-26-5-50-13-72-26-22-13-41-29-57-48-16-19-28-41-37-65-9-24-14-49-14-75 0-30 6-58 17-84 11-27 27-50 47-69 20-20 43-36 70-47 26-11 54-17 84-17 35 0 72 2 110 7 38 4 75 8 111 11 5-3 8-8 9-13 1-6 1-12 1-17 0-21 7-40 20-55 13-16 31-24 54-24 z" fill="#FFDEA7"/>
	</g></svg>
