<svg version="1.1" xmlns="http://www.w3.org/2000/svg"><g transform="scale(1,-1)">
		<path d="M743 1277c57 0 104 47 104 105 0 29-10 53-31 74l-238 238c-21 21-45 31-74 31-54 0-105-45-105-105 0-29 10-53 31-74l239-238c21-21 45-31 74-31 z" fill="#D3883E"/>
		<path d="M916 797c239 0 435 193 435 436 0 239-192 436-435 436-238 0-436-191-436-436 0-238 191-436 436-436 z" fill="#FBB8AB"/>
		<path d="M1366 348c238 0 435 192 435 435 0 239-192 436-435 436-238 0-436-191-436-436 0-239 193-435 436-435 z" fill="#FFDEA7"/>
		<path d="M1816-103c239 0 436 192 436 435 0 238-191 436-436 436-239 0-435-193-435-436 0-238 192-435 435-435 z" fill="#00F397"/>
		<path d="M2311-287c54 0 105 45 105 105 0 28-11 56-31 74l-315 311c-20 18-46 31-74 31-54 0-105-45-105-105 0-28 11-56 31-74l315-311c22-21 47-31 74-31 z" fill="#D3883E"/>
	</g></svg>
