<svg version="1.1" xmlns="http://www.w3.org/2000/svg" viewBox="0 0 2300 2300"><g transform="scale(1,-1) translate(-256, -1869)">
		<path d="M1406-287c610 0 1006 390 1006 1006 0 617-385 1006-1006 1006-620 0-1006-379-1006-1006 0-613 392-1006 1006-1006 z" fill="#F3AD61"/>
		<path d="M788 508c58 0 108 47 108 107 0 55-43 105-102 108-16 1-33 2-49 2-39 0-67-30-67-67 0-73 19-150 110-150 z M1862 54c84 0 139 65 139 157 0 89-62 170-165 170-91 0-163-73-163-162 0-110 89-165 189-165 z M999 1013c103 0 190 83 190 190 0 132-105 193-219 193-89 0-164-71-164-164 0-13 1-27 2-40 8-101 88-179 191-179 z M1512 581c28 0 54 5 79 15 93 38 133 119 133 227 0 102-82 179-180 179-15 0-29-1-44-2-110-8-198-95-198-210 0-115 92-209 210-209 z M1102 17c21 0 42 2 62 3 70 3 126 62 126 134 0 72-57 134-133 134-11 0-21-1-31-4-85-23-107-93-107-182 0-46 35-85 83-85 z M2083 718c87 0 111 74 111 150 0 39-31 68-68 68-73 0-150-20-150-111 0-59 49-107 107-107 z M1735 1268c37 0 68 29 68 68 0 73-23 150-111 150-59 0-107-48-107-108 0-90 75-110 150-110 z" fill="#6D4534"/>
	</g></svg>
