<svg version="1.1" xmlns="http://www.w3.org/2000/svg"><g transform="scale(1,-1)">
		<path d="M1763 912c11 0 22 3 31 8l578 321c10 5 18 13 24 24 6 10 9 21 9 32 0 17-6 32-18 44-13 12-28 18-45 18-11 0-22-3-31-8l-508-282 378 481c9 11 13 23 13 38 0 17-6 32-18 45-13 13-28 19-45 19-20 0-36-8-49-24l-443-564c-9-11-14-24-14-39 0-9 2-18 7-26 4-9 10-16 17-22 7-6 15-10 24-12 5-2 10-2 15-2 5 0 9 0 13 1 5-15 12-28 22-37 10-10 23-15 40-15 z" fill="#E19747"/>
		<path d="M891 108c257 0 485 205 485 485 0 265-213 485-485 485-268 0-485-216-485-485 0-261 208-485 485-485 z" fill="#6D4534"/>
		<path d="M1856 117c257 0 485 205 485 485 0 265-213 485-485 485-268 0-485-216-485-485 0-261 208-485 485-485 z" fill="#FF8687"/>
		<path d="M1406 216c309 0 581 247 581 580 0 319-256 581-581 581-319 0-581-256-581-581 0-320 260-580 581-580 z" fill="#FEEFC2"/>
		<path d="M1678-284c63 0 102 33 133 86 25 43 63 76 101 100 75 46 154 94 223 153 53 48 151 157 191 216 7 11 12 20 12 33 0 32-25 53-54 53l-1832 0c-29 0-54-21-54-53 0-13 5-22 12-33 32-44 90-115 144-170 101-106 186-146 270-199 41-25 72-55 100-100 32-51 70-86 133-86l621 0 z" fill="#00A6ED"/>
		<path d="M1404 1305c81 0 142 45 142 134 0 76-60 142-142 142-80 0-143-62-143-142 0-91 62-134 143-134 z" fill="#F8312F"/>
	</g></svg>
