<svg version="1.1" xmlns="http://www.w3.org/2000/svg" viewBox="0 0 2300 2300"><g transform="scale(1,-1) translate(-256, -1869)">
		<path d="M1279-210l-25 2 245 304-245 285c-26-9-52-14-77-14-127 0-194 90-194 206l0 937c-87 0-162-73-162-162l0-319c0-12-10-23-22-23-12 0-23 11-23 23l0 319c0 88-71 162-161 162l0-930c0-440 216-742 664-790 z" fill="#FF6723"/>
		<path d="M1404-219c436 0 792 353 792 790l0 550c0 332-268 604-604 604-279 0-509-225-509-509l0-79c0-62 13-121 38-176 40-89 87-135 164-188 85-61 90-114 90-211 0-82-39-150-121-182l0-589c49-7 99-10 150-10 z" fill="#FFB02E"/>
		<path d="M1535 984c-47 0-81 37-81 81 0 45 37 80 81 80 43 0 80-34 80-80 0-44-35-81-80-81 z M1269 1019c-34 0-63 27-63 63 0 36 29 63 63 63 34 0 64-28 64-63 0-35-30-63-64-63 z M1392 1217c66 0 123 53 123 123 0 65-52 123-123 123-69 0-123-55-123-123 0-71 57-123 123-123 z" fill="#FF822D"/>
	</g></svg>
