<svg version="1.1" xmlns="http://www.w3.org/2000/svg" viewBox="0 0 2300 2300"><g transform="scale(1,-1) translate(-256, -1869)">
		<path d="M1406-287c476 0 862 388 862 862l0 288-48 0c-123 344-448 575-814 575-365 0-691-230-814-575l-49 0 0-288c0-477 389-862 863-862 z M1442 314l-72 0c-161 0-287 130-287 287 0 161 129 288 287 288l72 0c160 0 287-129 287-288 0-161-130-287-287-287 z" fill="#F3AD61"/>
		<path d="M1406 0c477 0 862 389 862 863 0 476-388 862-862 862-476 0-863-387-863-862 0-475 384-863 863-863 z M1442 575l-72 0c-160 0-287 129-287 288 0 161 130 287 287 287l72 0c161 0 287-130 287-287 0-161-129-288-287-288 z" fill="#6D4534"/>
		<path d="M1809 1228c-19 0-37 17-37 38 0 11 4 20 11 27l56 56c7 7 15 10 26 10 23 0 37-16 37-37 0-11-3-20-10-27l-56-56c-7-7-16-11-27-11 z M1074 294c21 0 38 16 38 37 0 11-4 20-11 27l-56 56c-7 7-16 11-27 11-21 0-37-17-37-38 0-10 4-19 11-26l56-56c7-7 16-11 26-11 z M1953 653c11 0 20 4 27 11l56 56c7 7 10 16 10 27 0 23-14 37-37 37-11 0-20-3-27-10l-56-56c-7-7-11-16-11-27 0-21 16-38 38-38 z M731 797c-21 0-38 16-38 37 0 11 4 20 11 27l57 56c7 7 16 11 26 11 21 0 37-15 37-37 0-11-3-20-10-27l-56-56c-7-7-16-11-27-11 z M1153 1300c21 0 37 15 37 37 0 11-4 20-11 27l-56 56c-7 7-16 11-27 11-19 0-37-16-37-37 0-11 4-20 11-27l56-56c7-7 16-11 27-11 z" fill="#00A6ED"/>
		<path d="M1003 575c21 0 37 16 37 38 0 10-4 19-11 26l-56 56c-7 7-16 11-27 11-21 0-37-17-37-38 0-10 4-19 11-26l56-56c7-7 16-11 27-11 z M1793 366c21 0 38 16 38 37 0 11-4 20-11 27l-56 56c-7 7-16 10-27 10-21 0-37-16-37-37 0-10 4-19 11-26l56-56c7-7 16-11 26-11 z M1306 150c11 0 20 4 27 11l56 56c7 7 10 16 10 27 0 22-16 37-37 37-10 0-19-4-26-11l-57-56c-7-7-11-16-11-26 0-21 16-38 38-38 z M875 1150c10 0 19 4 26 11l56 56c7 7 11 16 11 26 0 21-16 38-37 38-11 0-20-4-27-11l-56-56c-7-7-11-16-11-27 0-21 16-37 38-37 z M2009 1013c21 0 38 16 38 37 0 11-4 20-11 27l-56 56c-7 7-16 10-27 10-21 0-38-14-38-37 0-10 4-19 11-26l56-56c7-7 16-11 27-11 z M1450 1372c10 0 19 4 26 11l56 56c7 7 11 16 11 27 0 19-16 37-37 37-11 0-20-4-27-11l-56-56c-7-7-11-16-11-27 0-21 17-37 38-37 z" fill="#FF6DC6"/>
	</g></svg>
