<svg version="1.1" xmlns="http://www.w3.org/2000/svg"><g transform="scale(1,-1)">
		<path d="M1811-285c110 0 199 90 199 198l0 239-747 207-751-207 0-239c0-109 88-198 198-198l1101 0 z M2100 490c108 0 198 87 198 199l0 244-750 257-748-257 0-244c0-110 90-199 198-199l1102 0 z" fill="#F4F4F4"/>
		<path d="M2299 932c61 0 111 50 111 110l0 26c0 201-162 370-369 370l-984 0c-154 0-282-92-340-226-26-61-29-102-29-170 0-61 51-110 111-110l1500 0 z" fill="#FF6723"/>
		<path d="M1953 1179c-29 0-52 22-52 52l0 207 104 0 0-207c0-28-23-52-52-52 z M1549 1179c29 0 52 22 52 52l0 207-104 0 0-207c0-29 22-52 52-52 z M1146 1179c29 0 52 22 52 52l0 207-104 0 0-207c0-29 22-52 52-52 z" fill="#FF822D"/>
		<path d="M2011 150c74 0 111 56 111 128 0 206-165 369-370 369l-983 0c-107 0-197-44-261-108-76-76-108-162-108-279 0-61 49-110 110-110l1501 0 z" fill="#F8312F"/>
		<path d="M1665 388c-30 0-52 23-52 52l0 207 103 0 0-207c0-27-21-52-51-52 z M1261 388c30 0 52 23 52 52l0 207-104 0 0-207c0-29 22-52 52-52 z M858 388c30 0 51 25 51 52l0 207-103 0 0-207c0-29 22-52 52-52 z" fill="#FF8687"/>
	</g></svg>
