<svg version="1.1" xmlns="http://www.w3.org/2000/svg"><g transform="scale(1,-1)">
		<path d="M1190 935l0 646c0 80-64 144-143 144-81 0-144-67-144-144 0-37-31-65-66-65-48 0-68 65-150 65-79 0-144-63-144-144 0-86 65-103 65-150 0-37-30-65-65-65-80 0-143-65-143-144 0-80 62-143 143-143l647 0 z" fill="#F8312F"/>
		<path d="M1229 97c-18 60-27 122-27 185 0 351 285 641 642 641 63 0 124-9 184-27-80 278-332 470-622 470-355 0-647-288-647-647 0-89 18-174 53-256 1 5 5 9 6 14 8 92 15 174 42 251 76 221 240 409 467 509 118 52 205 61 322 71 7 0 7 4 14 5 121-53 219-138 290-250-5 4-11 11-16 14-80 43-183 60-268 60-373 0-678-297-678-674 0-69 23-239 70-291 51-33 107-58 168-75 z M1406 72c73 0 145 12 216 37l16 18 0 126c0 141 100 235 235 235l124 0 19 15c25 71 37 143 37 216 0 48-6 97-17 146 14-59 17-112 17-157l-1-15c-64 33-136 50-208 50-253 0-462-206-462-462 0-72 17-144 50-208l-29-1c-57 0-113 8-168 23 57-15 114-23 171-23 z" fill="#FCD53F"/>
		<path d="M1404 72l28 1c-33 64-49 132-49 205 0 253 206 462 461 462 72 0 144-14 208-47l1 28c0 60-9 118-25 175-60 19-120 31-184 31-356 0-647-292-647-648 0-64 13-123 32-182 57-16 115-25 175-25 z M1765-287c80 0 144 64 144 143 0 35 28 65 65 65 50 0 64-64 151-64 80 0 144 64 144 143 0 89-65 104-65 151 0 35 27 65 64 65 81 0 144 67 144 144 0 80-65 143-144 143l-395 0c-140 0-251-116-251-251l0-396c0-80 62-143 143-143 z M1061 171c-41 90-62 185-62 284 0 373 299 671 670 671 97 0 195-20 284-63-71 112-169 197-290 250-467-4-851-384-851-851 50-119 136-220 249-291 z" fill="#F8312F"/>
	</g></svg>
