<svg version="1.1" xmlns="http://www.w3.org/2000/svg" viewBox="0 0 2300 2300"><g transform="scale(1,-1) translate(-256, -1869)">
		<path d="M1621-364c27 0 51 2 76 9 101 27 148 98 230 146 76 46 172 57 242 127 69 69 78 161 126 241 61 102 155 161 155 307 0 26-2 51-6 76-14 79-13 81-22 160-3 29-10 58-10 87 0 68 21 126 21 194 0 155-90 193-152 300l0 1c-49 81-56 168-125 237-87 83-194 81-293 163-72 58-135 113-245 113-68 0-125-20-193-20-68 0-125 20-193 20-158 0-196-92-301-152l-1 0c-80-45-172-59-237-124-67-67-79-160-124-237-61-102-152-161-152-300 0-70 20-127 20-195 0-31-6-59-9-90-8-72-28-157-28-235 0-26 3-51 9-75 27-101 98-148 146-230 46-80 60-175 126-241 70-70 162-80 241-127 100-57 156-155 305-155 70 0 128 20 198 20 70 0 126-20 196-20 z" fill="#B4ACBC"/>
		<path d="M1618-147c125 0 176 93 265 143 70 39 169 59 223 113 59 59 72 153 112 222 49 87 143 143 143 266 0 67-20 124-20 192 0 68 20 125 20 193 0 20-2 39-7 57-21 80-96 139-136 209-39 68-58 168-112 222-68 68-186 74-274 149-67 55-125 106-212 106-70 0-125-20-195-20-70 0-125 20-195 20l-27-1c-83-6-159-96-237-141-67-38-167-58-222-113-69-69-74-185-148-273-56-67-107-126-107-215 0-68 20-125 20-193 0-68-20-125-20-193 0-125 95-180 142-265 40-68 56-165 113-222 58-58 150-73 222-113 83-46 145-143 266-143 68 0 125 20 193 20 68 0 125-20 193-20 z" fill="#F3EEF8"/>
		<path d="M1519 378c219 0 393 177 393 394 0 275-261 431-499 431-276 0-537-207-565-502 0-29 15-52 46-52 25 0 42 16 46 42 8 45 19 86 34 124 64 169 241 294 439 294 186 0 406-122 406-337 0-168-133-302-302-302-90 0-232 51-232 163 0 65 52 129 125 129 59 0 81-38 110-38 27 0 46 24 46 47 0 57-111 83-152 83-120 0-222-96-222-219 0-67 29-130 85-174 2-5 1-2 6-5 77-52 148-78 236-78 z" fill="#F8312F"/>
	</g></svg>
