<svg version="1.1" xmlns="http://www.w3.org/2000/svg" viewBox="0 0 2300 2300"><g transform="scale(1,-1) translate(-256, -1869)">
		<path d="M2168-287c136 0 245 107 245 244 0 81-38 151-97 196l-433 331c71 116 110 248 110 387 0 407-330 740-739 740-407 0-740-330-740-740 0-407 331-739 740-739 141 0 274 40 388 110l330-432c48-64 122-97 196-97 z M2158-140c-59 0-107 49-107 107 0 59 49 107 107 107 58 0 107-47 107-107 0-59-49-107-107-107 z" fill="#433B6B"/>
		<path d="M1254 17c473 0 853 384 853 854 0 472-381 854-853 854-472 0-854-382-854-854 0-472 382-854 854-854 z M1254 224c-355 0-647 288-647 647 0 356 286 647 647 647 357 0 646-288 646-647 0-345-274-647-646-647 z" fill="#635994"/>
		<path d="M1218 522c58 0 112 21 160 23l66 1c58 0 104 43 104 103 0 19-9 36-9 55 0 10 2 20 6 29l0 1c24 48 130 58 130 184 0 69-41 126-104 148-33 13-61 32-85 58-72 79-168 119-268 119-127 0-175-59-283-83-42-9-75-47-75-92 0-26 7-48 7-74 0-39-10-72-10-111 0-194 156-361 361-361 z" fill="#FFFFFF"/>
		<path d="M1161 706c99 0 182 80 182 182 0 98-80 182-182 182-101 0-182-82-182-182 0-102 81-182 182-182 z" fill="#F9C23C"/>
	</g></svg>
