<svg version="1.1" xmlns="http://www.w3.org/2000/svg" viewBox="0 0 2300 2300"><g transform="scale(1,-1) translate(-256, -1869)">
		<path d="M1834 1522c62 0 91 12 154 20l309 39c8 22 35 87 35 109 0 19-16 35-35 35l-920 0c-19 0-36-15-36-36 0-21 25-87 36-108l305-39c58-8 93-20 152-20 z M2344-287c37 0 68 29 68 67l0 928c0 247-119 365-272 539-17 19-26 44-26 71 0 64 42 78 81 120l-361 67-356-67c37-39 81-58 81-120 0-27-9-52-26-71-160-183-272-300-272-539l0-928c0-38 31-67 68-67l1015 0 z" fill="#CDC4D6"/>
		<path d="M1104-287l-452 0c-108 0-188 81-201 177l-23 182 301 39c57 8 92 20 151 20 58 0 86-11 149-20l298-39-23-182c-13-102-98-177-200-177 z M880 164c60 0 93 12 155 17l310 35c4 30 11 61 11 91 0 32-25 53-54 53l-849 0c-32 0-53-24-53-54 0-30 7-60 11-90l313-35c59-5 96-17 156-17 z" fill="#B4ACBC"/>
		<path d="M1327 72l18 144-935 0 18-144 899 0 z M2196 1438c42 42 76 90 101 143l-920 0c25-53 60-102 101-143l718 0 z" fill="#0084CE"/>
	</g></svg>
