<svg version="1.1" xmlns="http://www.w3.org/2000/svg"><g transform="scale(1,-1)">
		<path d="M1408-287c30 0 59 7 87 20l892 438c19 10 28 29 28 47l0 393-98 0 0-26-886 508c-10 5-19 37-30 37-11 0-16-32-16-37l-886-508 0 26-99 0 0-393c0-20 10-38 29-47l892-438c28-13 57-20 87-20 z" fill="#321B41"/>
		<path d="M1408 104c30 0 59 7 87 20l892 438c19 9 28 27 28 46 0 20-9 38-28 47l-904 443c-24 12-49 18-75 18-27 0-52-6-76-18l-903-443c-19-10-29-26-29-47 0-18 10-36 29-46l892-438c28-13 57-20 87-20 z M948 414c-11 0-21 3-32 8l-331 163c-7 3-11 9-11 17 0 9 4 15 11 18l335 165c11 5 20 7 28 7 11 0 19-3 28-7l336-165c7-3 11-9 11-18 0-8-4-14-11-17l-331-163c-11-5-22-8-33-8 z M1415 188c-11 0-21 3-32 8l-332 163c-7 3-11 9-11 17 0 7 4 13 11 17l788 386c8 4 17 6 28 6 9 0 19-2 28-6l336-166c7-3 10-9 10-17 0-8-3-14-10-17l-784-383c-11-5-21-8-32-8 z M1405 648c-11 0-21 3-32 8l-332 164c-7 3-11 9-11 17 0 7 4 13 11 17l336 165c9 4 17 7 28 7 8 0 17-2 28-7l336-165c7-3 10-9 10-17 0-8-3-14-10-17l-332-164c-11-5-21-8-32-8 z" fill="#635994"/>
		<path d="M1583 740c10 0 25 1 29 3l110 54c8 3 30 34 36 43 23 37 31 78 31 121 0 74-72 138-144 141-49 3-88 26-119 63-31 37-72 57-118 57-49 0-88-19-119-57-32-39-72-60-121-63-77-5-143-70-143-149 0-16 11-89 24-97 5-16 39-59 51-66 50-24 82-50 138-50l345 0 z" fill="#44911B"/>
		<path d="M1405 648c11 0 21 3 32 8l276 136c1 10 2 17 2 28 0 94-79 169-173 169-56 0-89-37-134-37-45 0-77 37-132 37-99 0-175-75-175-174 0-9 1-18 3-26l269-133c11-5 21-8 32-8 z" fill="#86D72F"/>
		<path d="M948 414c11 0 22 3 33 8l154 76c-13 18-28 30-44 35-17 5-34 8-52 11-18 2-37 6-56 12-20 5-40 18-60 37-17 17-30 35-37 54-7 19-13 40-16 64-1 5-1 10-1 17 0 7-1 12-2 15 10 5 18 12 25 19 9 9 18 11 25 22 17 22 31 44 41 66 9 21 14 47 14 76l0 65c0 25-8 46-25 63-17 17-38 26-63 26-25 0-46-9-63-26-17-17-26-38-26-63 0-7 0-17 1-28l0-10-1-24c-1-11-5-21-10-28-5-8-14-12-27-12-13 0-22 4-27 12-5 7-9 17-10 28l-2 20 1 14c1 11 1 21 1 28 0 25-8 46-25 63-17 17-38 26-63 26-25 0-45-9-62-26-17-17-26-38-26-63l0-65c0-38 10-73 29-105 19-33 44-59 76-78l-2-30 1-23c1-19 4-37 9-56 4-19 9-38 16-55 7-18 14-34 22-49l220-108c11-5 21-8 32-8 z" fill="#FF6723"/>
		<path d="M1415 187c11 0 21 3 32 8l784 383c7 3 10 9 10 18 0 9-3 14-10 17l-174 85c-40 19-171 30-217 30-297 0-551-169-707-410 42-23 249-131 282-131 z" fill="#F4F4F4"/>
		<path d="M1305 316c9 0 16 8 16 17 0 5-2 12-7 23-12 27-13 33-26 33-9 0-17-8-17-17 0-5 2-13 7-22 11-24 13-34 27-34 z M1425 446c11 0 48 31 48 44 0 11-5 17-16 17-13 0-49-30-49-44 0-9 8-17 17-17 z M2119 554c9 0 17 9 17 18 0 16-41 42-51 42-9 0-16-8-16-17 0-16 40-43 50-43 z M1544 563c13 0 46 33 46 46 0 9-8 17-17 17-13 0-46-32-46-46 0-11 8-17 17-17 z M1880 465c14 0 46 32 46 46 0 11-5 16-16 16-14 0-47-32-47-46 0-9 8-16 17-16 z M1516 308c11 0 16 5 16 16 0 9-4 15-13 17-15 3-30 9-45 9-11 0-16-5-16-16 0-9 4-15 13-17 15-3 30-9 45-9 z M1656 361c7 0 13 3 16 10 5 12 18 31 18 45 0 9-6 17-17 17-20 0-34-47-34-55 0-11 6-17 17-17 z M1719 503c11 0 16 8 16 17 0 22-48 23-58 23-9 0-17-6-17-17 0-8 6-16 14-17 15-3 30-6 45-6 z M1938 607c11 0 16 5 16 16 0 9-4 15-13 17-15 3-30 9-45 9-8 0-16-6-16-14 0-11 4-17 13-19 15-3 30-9 45-9 z M1733 613c16 0 43 40 43 50 0 9-6 17-17 17-16 0-43-39-43-50 0-9 8-17 17-17 z" fill="#D3D3D3"/>
	</g></svg>
