<svg version="1.1" xmlns="http://www.w3.org/2000/svg" viewBox="0 0 2300 2300"><g transform="scale(1,-1) translate(-256, -1869)">
		<path d="M1458 1290c58 0 92 31 115 82 10 26 115 27 115 135 0 64-39 101-94 119-11 4-16 6-21 17-26 50-56 82-115 82-58 0-91-31-115-81-5-11-9-13-20-17-56-18-95-55-95-120 0-64 39-99 95-118 11-4 15-6 20-17 24-50 56-82 115-82 z" fill="#F9C23C"/>
		<path d="M1708 1065c60 0 100 36 120 85 5 12 9 15 21 19 58 18 100 57 100 124 0 66-42 108-100 125-12 3-16 6-21 18-22 51-61 85-120 85-31 0-59-10-82-30-23 31-59 47-96 47-57 0-93-33-115-82-5-11-10-14-21-17-23-7-40-15-57-31-19 8-41 9-50 28-24 53-59 85-120 85-60 0-97-33-120-85-5-12-10-15-22-18-58-17-99-59-99-125 0-66 41-107 99-124 12-4 17-7 22-19 22-49 60-85 120-85 59 0 98 36 120 85 5 12 9 15 21 19 28 8 48 18 68 39 16-7 31-6 40-23 24-50 56-82 115-82 25 0 48 7 69 22 23-38 64-60 108-60 z" fill="#FCD53F"/>
		<path d="M1874 798c109 0 110 94 141 104 60 20 100 56 100 124 0 67-42 106-100 124-12 4-16 7-21 19-20 49-60 85-120 85-42 0-80-20-104-54-22 38-64 64-110 64-77 0-104-53-121-83-14-27-34-21-52-32-25 50-53 88-122 88-92 0-105-68-131-103-9-11-21-14-29-18-29 27-74 34-84 53-24 51-60 85-120 85-60 0-98-36-120-85-5-10-12-16-21-19-58-18-100-57-100-124 0-68 40-105 100-124 12-4 15-8 21-19 22-49 60-85 120-85 77 0 105 53 121 84 10 20 24 19 43 27 24-22 56-37 90-37 49 0 92 28 114 70 21-42 65-70 113-70 21 0 41 5 60 15 19-50 68-79 118-79 41 0 80 20 104 54 23-41 66-64 110-64 z" fill="#FFF478"/>
		<path d="M1853-290c17 0 33 1 49 4 21 4 39 12 55 25 15 12 25 32 29 59l169 1072 0 12c0 20-4 39-11 56-8 17-19 33-32 46-13 13-29 23-46 31-17 7-36 11-56 11-19 0-37-3-54-10-17-7-31-17-44-29-13-12-24-26-32-42-8-17-13-34-15-53l-269-39 0 7c0 23-4 43-12 64-9 22-21 41-37 58-16 17-35 30-57 40-22 10-45 15-70 15-24 0-47-5-68-14-21-9-40-22-56-37-16-16-29-35-38-56-12-27-14-47-14-77l-267 39c-1 19-6 37-14 54-8 16-18 30-31 42-13 12-29 21-46 28-17 7-35 10-54 10-20 0-39-4-56-11-18-8-33-18-46-31-13-13-24-29-31-46-8-18-12-37-12-57 0-4 0-8 1-11 0-4 0-8 1-12l167-1060c4-25 16-45 35-62 19-17 41-25 66-25l113 0 126 238 92-237 263 0 120 302 101-303c20 0 42 0 65-1l16 0 z" fill="#F8312F"/>
		<path d="M1773-289l93 1182c0 74-61 133-134 133-72 0-131-57-134-129l-47-1186 222 0 z M1288-289l-47 1186c-3 72-62 129-134 129-85 0-133-66-133-145l93-1170 221 0 z" fill="#F4F4F4"/>
	</g></svg>
