<svg version="1.1" xmlns="http://www.w3.org/2000/svg"><g transform="scale(1,-1)">
		<path d="M1839-254l0 66c0 71-58 127-128 127l-232 0 0 526 777 907c10 12 15 25 15 39 0 34-28 60-61 60l-1606 0c-33 0-60-26-60-60 0-15 5-28 14-39l777-907 0-526-232 0c-67 0-127-54-127-127l0-66 863 0 z" fill="#AEDDFF"/>
		<path d="M1407 550c42 0 85 18 114 54l462 566c8 9 12 20 12 33 0 29-23 53-53 53l-1070 0c-29 0-53-23-53-53 0-13 4-24 12-33l463-566c28-35 71-54 113-54 z" fill="#C3EF3C"/>
		<path d="M1408 735c16 0 28 9 33 24l92 272-26 34-42-12c-12-36-94-262-94-282 0-19 16-36 37-36 z" fill="#F3AD61"/>
		<path d="M1588 1322l44 4c12 40 133 379 133 399 0 19-16 36-37 36-14 0-28-9-33-24l-130-387 23-28 z" fill="#E19747"/>
		<path d="M1546 1031c88 0 160 71 160 160 0 87-68 160-160 160-88 0-160-71-160-160 0-88 71-160 160-160 z" fill="#44911B"/>
		<path d="M1492 1142c45 0 80 42 80 87 0 39-27 76-71 76-46 0-79-45-79-87 0-39 27-76 70-76 z" fill="#FF822D"/>
	</g></svg>
