<svg version="1.1" xmlns="http://www.w3.org/2000/svg"><g transform="scale(1,-1)">
		<path d="M670 1298c5 0 10 2 14 6l139 139c4 4 6 9 6 14 0 5-2 10-6 14l-136 137-166-167 135-137c4-4 9-6 14-6 z" fill="#E19747"/>
		<path d="M786 1150l117 72 72 118 0 349c0 9-3 18-10 25-7 7-16 11-25 11-11 0-19-4-26-11-7-7-11-16-11-27l0-191c0-5-2-10-5-13-3-3-8-5-13-5-9 0-16 5-23 16-7 11-13 23-20 36-7 13-14 24-22 35-8 11-17 16-28 16-9 0-17-3-23-9-7-6-10-14-10-23l0-136c0-17-4-28-12-35-9-7-19-11-32-12l-23-2-18 1c-15 1-29 1-42 1-13-1-23-3-31-7-9-5-13-13-13-26 0-9 4-17 12-25 7-9 16-17 25-25l26-23c7-7 11-14 11-21 0-5-2-9-5-12-3-3-8-5-13-5l-207 0c-10 0-19-3-26-10-7-7-11-16-11-27 0-9 4-17 11-24 7-7 16-11 25-11l350 0 z" fill="#FEEFC2"/>
		<path d="M1774-287c-19 0-34 6-47 19l-383 384c-171 171-262 392-272 621l4 5 67 227 240 82 6 5c234-11 453-106 620-273l384-384c13-13 19-28 19-47 0-19-6-34-19-47l-571-573c-13-13-29-19-48-19 z M816 1046c15 0 28 5 39 16l176 23 30 183c11 11 16 24 16 39 0 32-26 59-59 59-15 0-27-5-38-16l-206-207c-11-11-16-23-16-38 0-33 28-59 58-59 z" fill="#44911B"/>
		<path d="M1749-62c-7 0-12 2-16 6l-238 239c-4 4-6 9-6 16 0 7 2 12 6 16l413 413c5 5 10 7 15 7 6 0 11-2 16-7l238-239c5-5 7-10 7-16 0-5-2-10-7-15l-412-414c-4-4-9-6-16-6 z M1072 737l4 5 222 31c15 2 27 8 37 19 10 10 16 22 18 37l30 222 6 5-38 0c-12 0-23 1-33 3-11 2-21 6-31 11-10 5-20 13-30 23l-186 185-2 1c-1-2-7-9-18-20l-39-41-103-103-41-40c-11-11-18-18-20-19l1 0 185-186c11-11 19-22 24-32 5-10 8-20 10-30 2-11 3-22 3-33l1-38 z M494 1364c8 0 15 3 21 9l236 237c6 6 9 13 9 20 0 8-3 15-8 20l-67 67c-5 5-12 8-20 8-8 0-15-3-21-9l-236-236c-5-5-8-12-8-21 0-8 3-15 8-20l66-66c6-6 13-9 20-9 z" fill="#F3C07B"/>
		<path d="M615 934c39 0 72 31 72 72 0 39-31 72-72 72-40 0-71-34-71-72 0-38 31-72 71-72 z M1119 1460c26 0 48 20 48 48 0 26-21 49-48 49-26 0-49-22-49-49 0-27 23-48 49-48 z" fill="#FFDEA7"/>
	</g></svg>
