<svg version="1.1" xmlns="http://www.w3.org/2000/svg" viewBox="0 0 2300 2300"><g transform="scale(1,-1) translate(-256, -1869)">
		<path d="M556 1040l201 152c38 29 66 42 100 76 34 34 42 54 76 100l152 199 0 7c-44 42-77 87-145 87-62 0-133-50-184-50-70 0-91 114-205 114-85 0-151-68-151-151 0-113 114-137 114-205 0-53-50-123-50-184 0-69 42-100 87-145l5 0 z" fill="#FCD53F"/>
		<path d="M1539-288c89 0 175 34 241 100l534 534c62 62 100 146 100 240 0 92-35 176-102 243l-664 663c-56 56-133 90-216 90-70 0-126-22-186-64-3-1-5-2-7-2-14 0-24 7-38 7-3 0-7-1-8-2l-587-587c-2-2-3-5-3-9 0-14 5-24 5-38 0-4-1-7-2-9-43-61-63-116-63-185 0-82 33-158 88-213l668-668c62-62 146-100 240-100 z" fill="#FBB8AB"/>
		<path d="M918 343c-5 8-16 42-16 56 0 30 17 62 44 78l948 564c7 4 14 6 22 6 5 0 29-5 33-8l-366 367c-40 40-91 68-152 68-52 0-101-22-136-57l-588-587c-37-37-56-89-56-138 0-49 19-101 56-138l211-211 z" fill="#FFE5D9"/>
		<path d="M1537-181c64 0 123 27 164 68l534 534c41 41 68 100 68 164 0 64-23 119-68 164l-286 290c-9 9-19 13-32 13-7 0-15-2-23-7l-952-568c-27-16-44-47-44-77 0-25 9-46 26-63l450-450c41-41 101-68 163-68 z" fill="#F4F4F4"/>
		<path d="M1486 127c15 0 27 5 38 16l127 127c11 11 16 23 16 38 0 32-24 54-54 54-15 0-28-5-38-15l-127-128c-11-11-16-23-16-38 0-29 22-54 54-54 z M1244 368c15 0 27 5 38 16l128 127c11 11 15 25 15 38 0 30-21 54-53 54-15 0-28-5-39-16l-127-127c-11-11-16-23-16-38 0-32 24-54 54-54 z M1003 610c15 0 27 5 38 16l127 127c11 11 16 23 16 38 0 30-22 54-54 54-15 0-27-5-38-16l-127-127c-11-11-16-23-16-38 0-30 22-54 54-54 z M606 878c8 11 16 20 25 29l587 587c10 10 17 16 28 24l-59 59c-14 14-31 21-50 21-19 0-36-7-49-20l-541-541c-13-13-20-31-20-50 0-20 7-37 20-50l59-59 z" fill="#E39D89"/>
	</g></svg>
