<svg version="1.1" xmlns="http://www.w3.org/2000/svg"><g transform="scale(1,-1)">
		<path d="M1719-300c27 0 54 21 54 52 0 29-20 53-52 53l-255 0 0 456c0 27 14 53 40 65l356 178c166 82 274 252 274 443 0 67-13 132-40 195l-237 550c-9 20-26 33-49 33l-797 0c-23 0-40-13-49-33l-237-550c-27-63-40-128-40-195 0-181 101-359 274-444l354-176c25-12 40-39 40-65l0-457-251 0c-27 0-55-21-55-52 0-30 21-53 53-53l617 0 z" fill="#AEDDFF"/>
		<path d="M1864 940c38 0 71 31 71 72 0 9-2 19-6 28l-236 551c-11 27-39 43-66 43-38 0-72-31-72-72 0-10 2-19 6-28l237-551c11-27 37-43 66-43 z" fill="#FFFFFF"/>
		<path d="M1411 425c27 0 54 6 81 19l321 160c129 63 215 198 215 346 0 65-18 200-104 200l-45 0-47-66-106 66-827 0c-88 0-103-136-103-199 0-146 82-280 214-347l320-160c27-13 54-19 81-19 z" fill="#BB1D80"/>
		<path d="M1864 940c38 0 71 31 71 72 0 32-41 112-53 138l-156 0 72-167c11-27 37-43 66-43 z" fill="#FF6DC6"/>
	</g></svg>
