<svg version="1.1" xmlns="http://www.w3.org/2000/svg" viewBox="0 0 2300 2300"><g transform="scale(1,-1) translate(-256, -1869)">
		<path d="M484-278c11 0 22 1 33 4l1770 508 56 52 0 1010-73 142-1865-528 0-1074c0-55 14-114 79-114 z" fill="#E19747"/>
		<path d="M501 180c14 0 28 2 42 6l1671 484 10 1c27 0 44-21 44-46l0-381c0-20 8-23 24-23 67 16 120 66 120 135l0 936c0 79-66 177-144 195l-793 186c-67 16-135 36-203 36-24 0-61-4-79-20l-717-663c-33-30-76-72-76-116 0-49 50-63 92-63 16 0 35 1 51 6l1655 475c11 3 28 6 39 6 27 0 31-20 31-42l0-316c0-13-1-25-3-35-6-26-60-34-97-45-792-240-351-105-1210-364-116-35-230-73-347-104-40-11-85-21-125-21-31 0-59 21-77 21-10 0-13-9-14-18l1-27 0-156c0-33 80-47 105-47 z" fill="#FFDEA7"/>
		<path d="M1328 1332c101 0 166 42 204 144l-62 185-169 87c-112-22-165-95-181-204-5-47-21-109-21-151 0-43 30-61 67-61l162 0 z" fill="#F8312F"/>
		<path d="M1549 1464c5 0 9 3 14 10 4 7 8 14 11 23 3 8 6 16 8 25l2 17c0 15-6 34-18 57-13 23-28 45-45 68-17 23-35 44-53 63-18 19-33 32-45 40-11 7-23 13-36 18-14 5-28 7-41 7-3 0-8 0-14-1-7-1-13-3-20-5-7-2-13-5-18-8-5-3-8-7-8-12 0-2 1-4 2-5l86-89c9-9 21-16 35-20 14-5 28-7 41-7l-2-19c0-9 2-19 4-28 4-16 11-30 21-43l66-85c3-4 6-6 10-6 z" fill="#86D72F"/>
	</g></svg>
