<svg version="1.1" xmlns="http://www.w3.org/2000/svg" viewBox="0 0 2300 2300"><g transform="scale(1,-1) translate(-256, -1869)">
		<path d="M857 21c80 0 144 59 154 133l41 305 1 10c0 80-45 150-133 163l-305 42-10 1c-80 0-150-45-163-133l-41-305c-1-6-2-15-2-22 0-77 56-140 133-151l305-42 10-1 10 0 z M1958 682l10 1 305 42c77 11 133 74 133 151 0 7-1 16-2 22l-41 305c-12 81-77 133-163 133l-10-1-305-42c-86-12-133-84-133-163l1-10 41-305c12-86 83-133 164-133 z M859 153l-4 0-305 41c-13 3-19 13-19 25l42 305c2 15 10 19 24 19l305-41c11-1 19-10 19-21l0-4-41-305c-1-11-10-19-21-19 z M1950 814c-13 0-23 5-25 19l-41 305 0 4c0 11 8 20 19 21l305 41c14 0 22-4 24-19l42-305c0-12-6-22-19-25l-305-41 z" fill="#83CBFF"/>
		<path d="M1368-273c62 0 125 48 133 114l76 565 484 65c74 9 117 77 117 140l-109 796-447 28-424-146 74-545-89 30-447-28-109-796 0-9c0-71 53-122 117-131l605-82 10-1 9 0 z" fill="#AEDDFF"/>
		<path d="M1374-183c8 0 16 2 23 7 8 6 13 14 14 24l107 791-228 61c-27 7-53 15-78 22-25 7-52 11-81 11l-155 0c-51 0-103 0-155 1l-107-791 0-4c0-8 3-16 8-23 6-9 14-14 24-15l623-84 5 0 z M1588 499l467 63c10 1 17 6 23 13 8 10 9 17 9 29l-107 791-254-3-42 1-21 1c-13 0-25-1-38-3-19-3-38-7-57-13-18-6-37-12-57-17l-228-61 80-589 242-83-17-129 z" fill="#F9C23C"/>
		<path d="M1214-28c-28 0-44 20-44 48l59 439c3 21 22 36 44 36 22 0 44-17 44-41l-60-446c-3-21-21-36-43-36 z M952 7c-28 0-44 21-44 49l60 438c3 21 20 37 42 37 29 0 45-20 45-49l-59-438c-3-22-25-37-44-37 z M1591 633c28 0 44 20 44 48l-59 439c-3 22-25 36-44 36-28 0-44-20-44-48l60-439c3-21 21-36 43-36 z M1853 668c28 0 44 21 44 49l-60 438c-3 21-20 37-42 37-29 0-45-20-45-49l59-438c3-22 25-37 44-37 z" fill="#FCD53F"/>
		<path d="M1142 380c15 0 26 10 26 25 0 13-11 25-25 25-15 0-26-10-26-25 0-13 11-25 25-25 z M865 189c15 0 26 10 26 25 0 14-10 25-25 25-13 0-26-9-26-24 0-15 10-26 25-26 z M919 570c19 0 36 15 36 36 0 21-17 37-36 37-19 0-37-16-37-37 0-22 18-36 37-36 z M1663 1041c13 0 25 11 25 25 0 15-11 25-26 25-13 0-25-11-25-25 0-15 11-25 26-25 z M1940 850c15 0 25 11 25 26 0 15-13 24-26 24-14 0-25-10-25-25 0-15 11-25 26-25 z M1886 1231c19 0 37 14 37 36 0 19-16 37-37 37-19 0-36-16-36-37 0-19 15-36 36-36 z" fill="#FF9F2E"/>
		<path d="M1128 693l-392 53c13 110 85 193 199 193 109 0 198-87 198-197 0-16-2-33-5-49 z M1607 628c3 16 5 33 5 49 0 109-88 197-198 197-119 0-186-87-199-193l392-53 z M1198 1289l392 53c-13 109-84 193-199 193-109 0-198-87-198-197 0-16 2-33 5-49 z M1677 1354l392 53c-13 109-84 193-199 193-109 0-198-87-198-197 0-16 2-33 5-49 z" fill="#E6E6E6"/>
		<path d="M1282 385c69 0 121 50 130 114l30 218c1 11 2 22 2 33 0 133-108 241-242 241-134 0-241-112-241-243 0-11 1-22 2-33 48-7 89-11 137-18 34-5 63-36 63-72 0-38-13-71-13-109 0-71 57-131 132-131 z M1523 1046c71 0 132 56 132 131 0 38-13 71-13 109 0 36 29 67 63 72 48 7 89 11 137 18 1 11 2 22 2 33 0 133-108 243-241 243-133 0-242-107-242-241 0-11 1-22 2-33l30-218c9-64 61-114 130-114 z" fill="#F4F4F4"/>
		<path d="M1046 1078c39 0 72 31 72 72 0 39-31 73-72 73-40 0-73-32-73-73 0-41 34-72 73-72 z M829 1293c39 0 73 31 73 72 0 40-32 73-73 73-41 0-72-34-72-73 0-39 31-72 72-72 z" fill="#E6E6E6"/>
	</g></svg>
