<svg version="1.1" xmlns="http://www.w3.org/2000/svg"><g transform="scale(1,-1)">
		<path d="M2125 360c156 0 287 125 287 287 0 157-129 288-287 288l-1438 0c-160 0-287-129-287-288 0-161 130-287 287-287l1438 0 z M2125 503l-288 0 0 288 288 0c80 0 143-65 143-144 0-80-64-144-143-144 z M975 503l-288 0c-81 0-144 67-144 144 0 81 67 144 144 144l288 0 0-288 z" fill="#B4ACBC"/>
		<path d="M1406-287c355 0 647 288 647 647l0 503-1294 0 0-503c0-355 288-647 647-647 z" fill="#CDC4D6"/>
		<path d="M1406 216c355 0 647 288 647 647 0 355-288 647-647 647-355 0-647-288-647-647 0-355 288-647 647-647 z" fill="#E1D8EC"/>
		<path d="M1406 288c315 0 575 252 575 575 0 307-248 575-575 575-307 0-575-248-575-575 0-315 252-575 575-575 z" fill="#FF6723"/>
		<path d="M1190 503c0 39-31 72-72 72-40 0-71-34-71-72l143 0 z M1837 575c0 81-67 144-144 144-80 0-143-65-143-144l287 0 z" fill="#FCD53F"/>
		<path d="M1550 360c0 80-65 143-144 143-80 0-144-64-144-143l288 0 z M1837 1006c0 81-67 144-144 144-80 0-143-65-143-144 0 39-31 72-72 72-39 0-72-31-72-72l431 0 z" fill="#00D26A"/>
		<path d="M1765 809c-30 0-54 25-54 54 0 29 24 54 54 54 30 0 54-25 54-54 0-30-22-54-54-54 z M975 665c30 0 54 25 54 54 0 29-24 54-54 54-30 0-54-22-54-54 0-30 22-54 54-54 z M1334 1168c30 0 54 22 54 54 0 30-22 54-54 54-30 0-54-22-54-54 0-30 22-54 54-54 z" fill="#990838"/>
		<path d="M1356 631c69 0 126 56 126 126 0 69-56 126-126 126-39 0-71 33-71 71 0 69-56 126-126 126-69 0-126-56-126-126 0-179 147-323 323-323 z" fill="#7D4533"/>
	</g></svg>
