<svg version="1.1" xmlns="http://www.w3.org/2000/svg"><g transform="scale(1,-1)">
		<path d="M1081 1081c180 0 322 147 322 322 0 180-147 322-322 322-180 0-322-147-322-322 0-180 147-322 322-322 z" fill="#00D26A"/>
		<path d="M1081 1165c126 0 239 100 239 238 0 130-105 239-239 239-133 0-239-108-239-239 0-135 109-238 239-238 z" fill="#C3EF3C"/>
		<path d="M1721-295c30 0 54 22 54 54 0 30-22 54-54 54l-259 0 0 256c295 27 523 275 523 574 0 92-21 174-59 254-53 111-94 224-121 344-10 38-19 82-22 123-3 39-20 72-58 72l-634 0c-51 0-53-53-61-99-20-139-62-280-137-433-41-83-62-169-62-260 0-301 222-545 523-575l0-256-259 0c-32 0-53-25-53-54 0-29 21-54 53-54l626 0 z" fill="#AEDDFF"/>
		<path d="M1560 1136l5 13 144 432 209 0 0 144-260 0c-30 0-58-19-69-49l-179-540 150 0 z" fill="#F8312F"/>
		<path d="M1918 1581c32 0 45 46 45 72 0 27-12 72-45 72-32 0-45-43-45-72 0-24 13-72 45-72 z" fill="#990838"/>
		<path d="M1409 156c258 0 486 209 486 487 0 74-16 143-50 214-25 53-49 108-70 164-22 57-27 128-87 128l-559 0c-46 0-60-38-71-80-19-71-54-144-84-206-36-75-52-144-52-220 0-266 218-487 487-487 z" fill="#FF6723"/>
		<path d="M1336 508c30 0 56 25 56 56 0 31-26 56-56 56-30 0-57-25-57-56 0-31 27-56 57-56 z M1570 725c30 0 56 25 56 56 0 31-26 56-56 56-30 0-56-25-56-56 0-31 26-56 56-56 z M1336 920c30 0 56 25 56 56 0 30-25 56-56 56-30 0-57-25-57-56 0-31 27-56 57-56 z" fill="#FFB02E"/>
		<path d="M1859 607c19 0 36 15 36 36 0 81-17 154-54 230-38 79-67 157-95 242-1 2-1 1-1 3-9 34-16 68-16 104 0 19-15 36-36 36-18 0-35-17-35-36 0-118 65-273 119-381 31-62 46-128 46-198 0-19 15-36 36-36 z" fill="#FFFFFF"/>
	</g></svg>
