<svg version="1.1" xmlns="http://www.w3.org/2000/svg" viewBox="0 0 2300 2300"><g transform="scale(1,-1) translate(-256, -1869)">
		<path d="M573-286c51 0 102 20 152 34l28 62c61-3 122-5 183-5 0 0 182 48 191 51l43 66c61-3 117-7 178-7 0 0 174 46 187 50 78 22 129 91 129 169 0 48-20 92-51 123l-670 670c-32 33-75 51-123 51-83 0-148-54-169-129l-55-207c0-56 5-113 8-169l-64-39-57-212c0-54 7-108 10-162l-62-34c-12-45-31-92-31-139 0-94 80-173 173-173 z" fill="#F9C23C"/>
		<path d="M723-252l215 57c-217 83-348 200-454 420l-53-200c75-117 172-208 292-277 z M1126-144l225 60c-376 138-587 355-756 725l-55-209c142-257 323-446 586-576 z" fill="#3F5FFF"/>
		<path d="M1532-12c88 0 132 51 132 133 0 299-545 858-857 858-88 0-133-51-133-134 0-301 547-857 858-857 z" fill="#6D4534"/>
		<path d="M2051 1172c48 0 83 38 83 84 0 46-35 83-83 83-46 0-84-35-84-83 0-47 37-84 84-84 z M688 1172c-48 0-83 38-83 84 0 46 35 83 83 83 46 0 83-35 83-83 0-46-35-84-83-84 z M1801 651c-40 0-75 32-75 75 0 24 10 44 29 60 111 90 252 135 389 135 36 0 73-3 112-9 70-12 157-31 157-101 0-44-34-75-75-75-10 0-19 1-26 4-57 19-110 31-169 31-110 0-202-35-295-103-15-11-30-17-47-17 z M868 434c193 131 306 354 306 582 0 110-28 232-84 330-16 28-41 45-74 45-46 0-85-36-85-84 0-16 4-26 11-40 40-83 63-160 63-250 0-176-88-346-234-444 31-48 62-95 97-139 z" fill="#F70A8D"/>
		<path d="M2018 45c38 0 69 29 69 69 0 38-29 70-69 70-38 0-70-30-70-70 0-40 32-69 70-69 z M1085 1515c38 0 69 29 69 69 0 38-29 69-69 69-38 0-69-29-69-69 0-38 29-69 69-69 z" fill="#F9C23C"/>
		<path d="M1565 822c16 0 30 5 43 14 12 9 20 22 25 37 9 29 15 58 18 89 2 23 3 45 3 68l0 22c19 23 36 48 51 74 15 25 28 52 39 80 8 21 17 46 28 73 11 27 21 56 30 85 9 29 17 57 24 85 6 27 9 52 9 74 0 21-7 39-20 53-13 14-31 21-52 21-19 0-34-7-47-20-13-13-21-29-22-46-5-46-14-92-29-138-15-46-32-90-51-132-1 0-1-1-1-2l-12-28c-20 23-43 41-70 55-27 14-57 21-88 21-26 0-50-5-73-14-23-10-42-23-59-40-17-17-31-37-40-59-10-23-15-47-15-73 0-28 5-53 16-76 10-23 24-43 42-60 18-17 39-29 63-38 24-9 50-14 77-14 9 0 17 1 26 2 8 1 16 3 24 5-1-8-3-16-5-24-3-8-4-16-4-24 0-19 7-36 21-49 13-14 30-21 49-21 z M1368 565c46 0 83 35 83 83 0 46-35 83-83 83-46 0-83-35-83-83 0-46 35-83 83-83 z M1204 122c147 196 376 308 622 308 144 0 267-41 384-101 15-7 26-11 41-11 48 0 85 38 85 83 0 33-17 58-44 75-126 80-320 123-466 123-299 0-575-140-756-374 44-37 89-72 134-103 z M1454 1074c-11 0-20 5-31 6-15 9-25 22-25 41 0 26 19 46 46 46 40 0 59-34 65-66-15-15-34-27-55-27 z" fill="#00A6ED"/>
	</g></svg>
