<svg version="1.1" xmlns="http://www.w3.org/2000/svg" viewBox="0 0 2300 2300"><g transform="scale(1,-1) translate(-256, -1869)">
		<path d="M2148-287c147 0 264 116 264 264l0 1484c0 147-116 264-264 264l-1484 0c-147 0-264-116-264-264l0-1484c0-147 116-264 264-264l1484 0 z" fill="#533566"/>
		<path d="M1729 1294c19 0 36 15 36 36 0 19-15 36-36 36-18 0-36-17-36-36 0-18 17-36 36-36 z M1083 0c-19 0-36 15-36 36 0 19 15 36 36 36 18 0 35-17 35-36 0-19-17-36-35-36 z M2089 935c19 0 36 15 36 36 0 18-17 35-36 35-19 0-36-17-36-35 0-19 15-36 36-36 z M723 360c-19 0-36 15-36 36 0 18 17 35 36 35 19 0 36-17 36-35 0-19-15-36-36-36 z M2089 360c19 0 36 15 36 36 0 18-17 35-36 35-19 0-36-17-36-35 0-19 15-36 36-36 z M723 935c-19 0-36 15-36 36 0 18 17 35 36 35 19 0 36-17 36-35 0-19-15-36-36-36 z M1729 0c19 0 36 15 36 36 0 19-15 36-36 36-18 0-36-17-36-36 0-19 18-36 36-36 z M1083 1294c18 0 35 17 35 36 0 19-17 36-35 36-19 0-36-15-36-36 0-19 15-36 36-36 z" fill="#FFF478"/>
		<path d="M1406-102c7 0 12 2 17 7 5 4 8 9 9 16l39 340c1 10 7 15 16 15 7 0 15-5 24-15 9-11 18-22 27-35 9-13 19-24 30-34 10-11 20-16 31-16 9 0 18 3 25 10 7 6 10 14 10 23 0 36-2 72-5 109-4 36-6 72-6 109 0 9 3 16 10 23 7 7 14 10 23 10 36 0 72-1 108-4 35-3 71-5 107-7l3 0c9 0 17 4 23 10 7 7 10 16 10 25 0 11-4 19-11 25l-158 142c-7 6-11 14-11 25 0 11 4 20 11 26l157 142c8 8 12 17 12 26 0 9-3 17-10 24-7 7-15 10-24 10-36 0-72-1-107-4-36-3-72-5-108-7l-3 0c-8 0-16 3-22 9-7 7-11 15-11 24 0 37 2 73 6 110 3 36 5 72 5 108 0 9-3 17-10 24-7 7-15 10-24 10-9 0-18-4-26-12l-142-157c-6-7-15-11-26-11-11 0-19 4-25 11l-142 157c-8 8-17 12-26 12-9 0-17-3-24-10-7-7-10-15-10-24 0-36 2-72 6-108 3-37 5-73 5-110 0-9-3-16-10-23-7-7-14-10-23-10-37 0-73 2-109 6-37 3-73 5-109 5-9 0-17-3-23-10-7-7-10-16-10-25 0-11 4-19 11-25l157-142c7-6 11-15 11-26 0-11-4-19-11-25l-157-142c-7-6-11-14-11-25 0-9 3-17 10-24 6-7 14-11 23-11 36 0 72 2 109 6 36 3 72 5 109 5 9 0 16-3 23-10 7-7 10-14 10-23 0-36-1-72-4-107-3-36-5-72-7-108l0-3c0-9 4-16 10-22 7-7 16-11 25-11 11 0 21 5 32 16 10 10 20 21 29 34 9 13 18 24 27 35 9 10 17 15 24 15 9 0 15-5 16-15l39-340c1-7 4-12 9-16 5-5 10-7 17-7 z" fill="#FCD53F"/>
		<path d="M1732 977c9 0 17 3 23 9l157 157c7 7 10 14 10 23 0 18-14 33-33 33-9 0-16-3-23-10l-157-157c-7-7-10-14-10-23 0-18 14-32 33-32 z M1965 1210c9 0 16 3 23 10 13 13 50 39 50 63 0 18-14 33-33 33-17 0-37-20-51-36-14-17-22-23-22-37 0-19 16-33 33-33 z M923 167c9 0 16 3 23 10l157 156c7 7 10 14 10 23 0 19-16 33-33 33-9 0-16-3-23-10l-157-156c-7-7-10-14-10-23 0-19 15-33 33-33 z M806 50c9 0 16 3 23 10 13 13 50 39 50 63 0 19-16 33-33 33-9 0-16-3-23-10-13-13-50-40-50-63 0-18 14-33 33-33 z M2092 647c19 0 33 18 33 36 0 18-14 36-33 36l-222 0c-19 0-33-18-33-36 0-18 14-36 33-36l222 0 z M2254 647c19 0 32 18 32 36 0 18-13 36-32 36l-57 0c-19 0-32-18-32-36 0-18 13-36 32-36l57 0 z M942 647c19 0 33 18 33 36 0 19-12 36-33 36l-222 0c-19 0-33-18-33-36 0-18 14-36 33-36l222 0 z M614 647c19 0 32 18 32 36 0 18-11 36-32 36l-57 0c-19 0-32-18-32-36 0-18 13-36 32-36l57 0 z M1889 167c18 0 33 14 33 33 0 9-3 16-10 23l-157 156c-7 7-14 10-23 10-17 0-33-14-33-33 0-9 3-16 10-23l157-156c7-7 14-10 23-10 z M2005 50c19 0 33 15 33 33 0 9-3 16-10 23-13 13-39 50-63 50-18 0-32-14-32-33 0-20 19-37 35-50 14-12 22-23 37-23 z M1080 976c18 0 32 14 32 33 0 9-3 17-9 23l-157 157c-7 7-14 10-23 10-18 0-33-14-33-33 0-9 3-16 10-23l157-157c7-7 14-10 23-10 z M846 1210c18 0 32 14 32 33 0 12-8 24-19 35-20 20-34 38-53 38-18 0-33-14-33-33 0-17 20-37 37-51 16-14 22-22 36-22 z M1406 1112c18 0 36 13 36 32l0 222c0 19-18 33-36 33-18 0-36-14-36-33l0-222c0-19 18-32 36-32 z M1406 1442c18 0 32 14 32 33l0 57c0 18-13 32-32 32-18 0-32-13-32-32l0-57c0-19 14-33 32-33 z" fill="#F8312F"/>
	</g></svg>
