<svg version="1.1" xmlns="http://www.w3.org/2000/svg" viewBox="0 0 2300 2300"><g transform="scale(1,-1) translate(-256, -1869)">
		<path d="M1846-72c121 0 207 102 207 218 0 184-137 357-340 357 64 0 124 35 124 104 0 151-134 256-281 256l40 0c53 0 94 45 94 97 0 16-4 32-13 48l-193 344c-16 30-46 48-80 48-34 0-64-20-80-48l-193-344c-9-16-13-32-13-48 0-52 40-97 94-97l44 0c-139 0-281-99-281-256 0-69 61-104 124-104-193 0-340-163-340-357 0-118 88-218 207-218l880 0 z" fill="#44911B"/>
		<path d="M1633-286c32 0 60 23 60 57 0 7-2 19-5 34-15 66-24 118-44 147l-243 59c-100-27-205-55-224-59l-20-16c-8-36-39-138-39-166 0-34 31-56 61-56l454 0 z" fill="#6D4534"/>
		<path d="M1837 49c51 0 93 42 93 93 0 51-42 93-93 93-51 0-93-42-93-93 0-51 42-93 93-93 z M1045 44c51 0 93 42 93 93 0 51-42 93-93 93-51 0-93-42-93-93 0-51 42-93 93-93 z M1620 553c51 0 93 42 93 93 0 51-42 93-93 93-52 0-92-42-92-93 0-52 42-93 92-93 z" fill="#F8312F"/>
		<path d="M1406 198c-52 0-93 42-93 92 0 51 42 93 93 93 51 0 93-42 93-93 0-52-42-92-93-92 z M1260 626c-52 0-92 42-92 93 0 52 42 93 92 93 51 0 93-42 93-93 0-51-42-93-93-93 z M1478 913c50 0 92 39 92 92 0 52-42 93-92 93-51 0-93-42-93-93 0-52 42-92 93-92 z" fill="#FCD53F"/>
		<path d="M1478 1437c17 0 31 14 31 32 0 20-9 39-9 59 0 35 55 46 55 80 0 39-52 34-77 39-40 8-31 78-74 78-43 0-33-74-73-79-23-5-77 2-77-38 0-34 55-45 55-80 0-20-9-39-9-59 0-18 14-32 31-32 27 0 50 32 73 32 26 0 47-32 74-32 z" fill="#F9C23C"/>
	</g></svg>
