<svg version="1.1" xmlns="http://www.w3.org/2000/svg" viewBox="0 0 2300 2300"><g transform="scale(1,-1) translate(-256, -1869)">
		<path d="M1351-136c19 0 36 15 36 36 0 15-7 25-21 32l-390 177 390 177c14 7 21 17 21 32 0 21-17 37-35 37-20 0-420-189-471-210l-276 0c-19 0-36-15-36-36 0-18 17-35 36-35l276 0c46-19 447-210 470-210 z M1353 730c18 0 36 16 36 37 0 14-9 25-21 31l-391 177 391 177c12 7 21 17 21 31 0 21-17 38-36 38-21 0-432-194-476-212l-270 0c-19 0-36-15-36-36 0-18 17-36 36-36l280 0c48-24 444-207 466-207 z" fill="#533566"/>
		<path d="M650-287c19 0 36 15 36 36l0 1558c89 33 144 114 144 203 0 117-97 215-215 215-120 0-215-97-215-215 0-94 58-171 142-202l0-1559c0-19 16-36 37-36l71 0 z" fill="#F9C23C"/>
		<path d="M2411 595l0 197c0 81-51 157-132 184 75 26 132 101 132 186l0 198c-122 0-194-98-194-208 0-19-17-38-38-38-110 0-173 41-261 102-108 75-225 114-356 114-142 0-229-43-358-102l0-511c126-58 219-102 359-102 126 0 250 39 355 113 89 62 147 102 261 102 21 0 38-16 38-38 0-109 84-197 194-197 z" fill="#00A6ED"/>
		<path d="M1323 666c131 48 217 173 217 312 0 133-80 255-203 309-47-15-90-38-134-58l0-511c37-17 82-43 120-52 z" fill="#26EAFC"/>
		<path d="M1934 815c11 0 17 9 17 18 0 15-5 30-14 45l0 1c-7 10-9 14-9 25 0 9 3 17 8 26l1 0c11 13 14 30 14 46 0 37-23 45-23 71 0 11 2 15 8 25l1 0c10 16 14 27 14 46 0 9-6 18-17 18-11 0-18-7-18-18 0-23-24-34-24-71 0-39 24-47 24-71 0-26-24-34-24-72 0-16 5-31 15-45l0-1c8-13 7-43 27-43 z M1798 756c11 0 18 7 18 18 0 53-32 60-32 100 0 40 32 48 32 100 0 53-32 60-32 100 0 40 32 47 32 99 0 11-7 18-18 18-24 0-15-39-31-57l0-1c-13-19-19-36-19-59 0-53 32-59 32-100 0-41-32-47-32-100 0-39 16-53 27-74 7-14 1-44 23-44 z M1647 687c11 0 18 7 18 18 0 68-43 77-43 132 0 56 43 65 43 131 0 68-43 77-43 132 0 59 43 63 43 131 0 11-7 18-18 18-11 0-18-7-18-18 0-53-43-64-43-131 0-70 43-80 43-132 0-54-43-65-43-131 0-49 23-68 37-98 8-18 1-52 24-52 z M1156 672c27 0 52 21 52 51l0 502c0 29-22 52-52 52-28 0-52-23-52-52l0-502c0-30 25-51 52-51 z" fill="#0074BA"/>
		<path d="M2411-287l0 197c0 81-51 157-132 184 76 26 132 99 132 184l0 198c-122 0-194-98-194-208 0-22-17-38-38-38-110 0-173 41-261 102-103 73-224 114-356 114-142 0-229-43-358-102l0-511c130-60 223-103 359-103 131 0 252 40 355 114 89 62 147 102 261 102 21 0 38-16 38-38 0-107 84-195 194-195 z" fill="#F8312F"/>
		<path d="M1323-218c131 48 217 173 217 312 0 133-80 255-203 309-47-15-90-38-134-58l0-511c37-17 82-43 120-52 z" fill="#FF8687"/>
		<path d="M1351 117c22 0 41 18 41 41l0 55c0 22-18 41-41 41-22 0-41-18-41-41l0-55c0-22 18-41 41-41 z M1351 1001c23 0 41 19 41 41l0 55c0 22-18 41-41 41-22 0-41-18-41-41l0-55c0-22 18-41 41-41 z" fill="#212121"/>
		<path d="M1934-70c11 0 17 9 17 18 0 40-23 47-23 72 0 24 23 32 23 71 0 40-23 46-23 71 0 27 23 31 23 71 0 11-6 18-17 18-11 0-18-7-18-18 0-25-23-31-23-71 0-40 23-46 23-71 0-25-23-31-23-71 0-40 23-47 23-72 0-11 7-18 18-18 z M1798-127c9 0 18 6 18 17 0 57-33 60-33 100 0 42 33 44 33 100 0 57-33 60-33 100 0 42 33 44 33 100 0 11-7 18-18 18-11 0-18-7-18-18 0-40-33-49-33-99 0-54 33-59 33-100 0-43-33-48-33-100 0-39 18-53 28-74 7-14 1-44 23-44 z M1647-197c9 0 18 7 18 18 0 68-43 77-43 132 0 59 43 63 43 131 0 70-43 75-43 132 0 59 43 63 43 131 0 11-7 18-18 18-11 0-18-7-18-18 0-54-43-66-43-131 0-68 43-79 43-132 0-56-43-65-43-131 0-49 23-68 37-98 8-18 1-52 24-52 z M1156-213c30 0 52 23 52 52l0 502c0 29-22 52-52 52-29 0-52-24-52-52l0-502c0-29 22-52 52-52 z" fill="#CA0B4A"/>
	</g></svg>
