<svg version="1.1" xmlns="http://www.w3.org/2000/svg" viewBox="0 0 2300 2300"><g transform="scale(1,-1) translate(-256, -1869)">
		<path d="M2192-126c44 0 76 35 76 77l0 557c0 203-163 371-371 371l-81 0c-203 0-371-163-371-371l0-557c0-42 32-77 76-77l671 0 z" fill="#F92F60"/>
		<path d="M1291-126c44 0 76 35 76 77l0 557c0 203-163 371-371 371l-81 0c-203 0-371-163-371-371l0-557c0-42 32-77 76-77l671 0 z" fill="#00A6ED"/>
		<path d="M2340-269c39 0 72 31 72 72 0 40-34 71-72 71l-1868 0c-38 0-72-31-72-71 0-39 31-72 72-72l1868 0 z" fill="#B76A1E"/>
		<path d="M2023 871c18 0 35 4 51 11 15 7 29 16 41 28 11 11 21 25 28 41 7 15 10 32 10 50 0 18-3 35-10 51-7 15-17 29-28 41-12 12-26 22-41 29-16 7-33 10-51 10l-10 0-10-2-18 18c-2 16-7 31-14 45-8 14-18 26-29 36-11 10-24 18-39 24-15 6-31 9-47 9-16 0-31-3-46-8-15-6-28-14-39-24-12-11-22-23-29-36-8-14-13-29-15-45l-18-19c-6 1-13 1-19 1-13 0-26-2-38-5-18-5-34-14-48-25-14-12-25-27-33-44-9-17-13-36-13-56 0-18 4-35 11-50 7-16 16-30 28-41 11-12 25-21 41-28 15-7 32-11 50-11 18 0 35 4 51 11 15 7 29 16 41 28 12 11 22 25 29 41 7 15 10 32 10 50l-1 2 10 1 9-1c6-1 12-2 19-2 6 0 12 1 18 2l9 1 10-1c0-18 3-35 10-51 7-16 16-30 28-42 11-12 25-21 41-28 16-7 33-11 51-11 z" fill="#321B41"/>
		<path d="M955 154c15 0 29 13 30 27l36 397c0 18-13 32-30 32l-72 0c-19 0-29-14-29-32l36-397c1-15 15-27 29-27 z M1854 163c15 0 27 5 36 15l187 190c27 27 41 60 41 99 0 79-63 146-145 146l-239 0c-79 0-144-62-144-145 0-39 14-73 41-100l186-190c10-10 22-15 37-15 z M1923 1186c9 13 14 28 14 45 0 11-2 21-6 31 39 3 100 4 100 59 0 29-23 53-53 53-48 0-57-46-70-81-9 9-20 15-34 18 13 21 35 46 35 73 0 32-24 54-53 54-29 0-53-23-53-53 0-26 22-53 34-74-13-3-23-10-34-18-14 35-23 81-70 81-29 0-53-23-53-53 0-57 61-56 101-59-4-10-6-20-6-31 0-17 5-32 14-45 23 7 44 12 67 12 23 0 44-5 67-12 z" fill="#FCD53F"/>
		<path d="M1089 1229c19 0 36 17 36 35 0 19-15 36-36 36l-258 0c-19 0-36-15-36-36 0-18 17-35 36-35l258 0 z" fill="#D3D3D3"/>
		<path d="M1855 682c107 0 194 88 194 194l0 127-389 0 0-127 1 0c0-107 88-194 194-194 z M955 682c107 0 194 88 194 194l0 128c0 106-84 194-194 194-107 0-194-88-194-194l0-128c0-107 88-194 194-194 z" fill="#FFF3D7"/>
		<path d="M1149 1003l0 5c0 21-3 41-10 60-7 19-17 36-29 52-12 15-26 29-43 41-25 16-38 22-67 32l0 171c0 13-4 24-12 35-9 10-20 15-33 15-13 0-24-5-33-15-9-10-14-22-14-35l0-171c-2-1-4-2-6-2l-7-2c-19-5-37-14-54-27-17-13-31-27-43-44-13-17-22-35-29-55-6-17-9-35-9-52l0-8 389 0 z" fill="#433B6B"/>
		<path d="M1937 838c19 0 36 17 36 35l0 30c0 19-15 36-36 36-19 0-36-15-36-36l0-29c0-19 15-36 36-36 z M1775 838c21 0 36 16 36 35l0 30c0 19-15 36-36 36-19 0-36-15-36-36l0-29c0-19 15-36 36-36 z M1037 838c18 0 35 16 35 35l0 30c0 21-16 36-35 36-19 0-36-15-36-36l0-29c0-19 15-36 36-36 z M875 838c19 0 36 17 36 35l0 30c0 19-15 36-36 36-19 0-36-15-36-36l0-29c0-19 15-36 36-36 z" fill="#000000"/>
	</g></svg>
