<svg version="1.1" xmlns="http://www.w3.org/2000/svg"><g transform="scale(1,-1)">
		<path d="M1945 1079l-144 0 0 290c0 46 42 73 72 103 29-29 72-56 72-103l0-290 z M1478 1079l0 290c0 46-42 73-72 103-29-29-72-56-72-103l0-290 144 0 z M1011 1079l0 290c0 46-42 73-72 103-29-29-72-56-72-103l0-290 144 0 z" fill="#26EAFC"/>
		<path d="M1873 1437c57 0 108 46 108 108 0 19-5 38-16 56l-64 109c-6 10-15 15-28 15-11 0-20-4-27-15l-64-109c-11-18-16-37-16-56 0-60 47-108 107-108 z M1406 1437c57 0 108 46 108 108 0 19-5 38-16 56l-64 109c-6 10-15 15-28 15-11 0-20-4-27-15l-64-109c-11-17-16-36-16-55 0-60 46-109 107-109 z M939 1437c58 0 108 49 108 108 0 18-6 41-16 56l-65 109c-6 10-15 15-28 15-11 0-20-4-27-15l-64-109c-11-18-16-37-16-56 0-63 50-108 108-108 z" fill="#FCD53F"/>
		<path d="M1873 1483c-36 0-61 27-61 61 0 34 39 74 61 99 21-26 61-62 61-99 0-34-25-61-61-61 z M1406 1483c-36 0-61 27-61 61 0 38 39 71 61 99 21-26 61-62 61-99 0-36-27-61-61-61 z M939 1484c36 0 61 27 61 61 0 34-42 74-61 98-21-24-61-65-61-98 0-34 25-61 61-61 z" fill="#FFB02E"/>
		<path d="M2250-287c51 0 90 39 90 90l0 988-1868 0 0-988c0-49 39-90 89-90l1689 0 z" fill="#D3883E"/>
		<path d="M2340 144l0 144-1868 0 0-144 1868 0 z M1958 508c141 0 190 98 261 98 76 0 79-62 130-62 34 0 64 28 64 63l0 399c0 121-99 216-216 216l-1582 0c-119 0-215-97-215-216l0-399c0-34 27-63 64-63 51 0 57 61 130 61 73 0 120-97 260-97 153 0 199 110 276 110 80 0 124-110 276-110 153 0 199 110 276 110 80 0 124-110 276-110 z" fill="#FFDEA7"/>
		<path d="M1423 952c22 0 36 18 36 37 0 10-3 18-10 25l-53 54c-7 7-15 10-26 10-18 0-36-15-36-36 0-9 4-18 11-25l53-54c7-7 16-11 25-11 z" fill="#00A6ED"/>
		<path d="M1729 718c22 0 36 18 36 37 0 10-3 18-10 25l-72 72c-7 7-15 10-26 10-18 0-36-15-36-36 0-9 4-18 11-25l72-72c7-7 16-11 25-11 z M795 934c21 0 35 18 35 36 0 11-3 19-10 26l-71 72c-7 7-15 10-26 10-18 0-36-15-36-36 0-9 4-18 11-25l72-72c7-7 16-11 25-11 z" fill="#FF6DC6"/>
		<path d="M1010 718c10 0 19 4 26 11l72 72c7 7 10 15 10 25 0 19-15 36-36 36-10 0-18-3-25-10l-72-72c-7-7-11-16-11-25 0-21 17-37 36-37 z M2017 934c9 0 18 4 25 11l72 72c7 7 10 15 10 25 0 19-15 36-36 36-10 0-18-3-25-10l-72-72c-7-7-11-16-11-26 0-19 16-36 37-36 z" fill="#FF822D"/>
		<path d="M1442 934c18 0 35 17 35 36 0 11-3 19-10 26l-72 72c-7 7-15 10-25 10-19 0-36-15-36-36 0-9 4-18 11-25l71-72c7-7 16-11 26-11 z" fill="#00A6ED"/>
	</g></svg>
