<svg version="1.1" xmlns="http://www.w3.org/2000/svg" viewBox="0 0 2300 2300"><g transform="scale(1,-1) translate(-256, -1869)">
		<path d="M1412 1011c192 0 354 157 354 354 0 192-157 354-354 354-193 0-353-156-353-354 0-193 155-354 353-354 z M1412 1119c-133 0-245 109-245 246 0 138 113 246 245 246 137 0 246-110 246-246 0-137-110-246-246-246 z" fill="#CA0B4A"/>
		<path d="M1934-287c146 0 270 117 270 269l0 729c0 435-353 794-794 794-440 0-795-359-795-794l0-729c0-149 119-269 269-269l1050 0 z" fill="#F8312F"/>
		<path d="M1981 31l0 63c0 312-228 621-575 621-335 0-575-295-575-621l0-63c0 324 238 622 575 622 338 0 575-299 575-622 z" fill="#CA0B4A"/>
		<path d="M853-72c31 0 56 26 56 56 0 38-15 105-20 141-4 29-28 48-55 48-26 0-52-21-56-48-5-40-19-100-19-141 0-30 25-56 56-56l38 0 z M834 87c-17 0-31 13-31 31 0 18 14 31 31 31 17 0 31-13 31-31 0-18-14-31-31-31 z M1539 1000c49 0 86 39 86 87l0 43c0 48-39 87-87 87l-258 0c-48 0-87-39-87-87l0-43c0-48 39-87 87-87l259 0 z M1985 1015c19 0 36 16 36 35 0 9-2 11-2 15-11 19-19 40-30 59-120 205-340 313-577 313-236 0-467-109-589-313-6-10-27-54-32-59-2-5-3-10-3-14 0-22 18-36 37-36 17 0 24 7 32 22 17 31 35 59 54 86 110 157 292 242 501 242 157 0 308-47 427-165 41-41 89-101 112-159l0-1c7-15 15-25 34-25 z" fill="#FCD53F"/>
	</g></svg>
