<svg version="1.1" xmlns="http://www.w3.org/2000/svg" viewBox="0 0 2300 2300"><g transform="scale(1,-1) translate(-256, -1869)">
		<path d="M1978-287c119 0 219 95 219 219l0 1574c0 119-95 219-219 219l-1144 0c-119 0-219-95-219-219l0-1574c0-119 95-219 219-219l1144 0 z" fill="#BEBEBE"/>
		<path d="M1999 0l-180 0c-32 0-54 24-54 54 0 30 22 54 54 54l180 0c32 0 54-24 54-54 0-30-22-54-54-54 z M993 0c30 0 54 25 54 54 0 30-25 54-54 54l-180 0c-30 0-54-22-54-54 0-30 22-54 54-54l180 0 z M1999 1294l-180 0c-30 0-54 22-54 54 0 30 22 54 54 54l180 0c30 0 54-22 54-54 0-30-22-54-54-54 z M1999 665l-180 0c-32 0-54 24-54 54 0 30 22 54 54 54l180 0c32 0 54-24 54-54 0-30-22-54-54-54 z M993 665l-180 0c-30 0-54 22-54 54 0 30 22 54 54 54l180 0c30 0 54-25 54-54 0-30-25-54-54-54 z M993 1294c29 0 54 24 54 54 0 30-25 54-54 54l-180 0c-30 0-54-22-54-54 0-32 24-54 54-54l180 0 z" fill="#636363"/>
		<path d="M1406-36c139 0 252 113 252 252l0 1006c0 139-113 252-252 252-139 0-252-113-252-252l0-1006c0-139 113-252 252-252 z" fill="#D3D3D3"/>
		<path d="M1406 36c98 0 180 78 180 180l0 1006c0 98-78 180-180 180-98 0-180-78-180-180l0-1006c0-98 78-180 180-180 z" fill="#635994"/>
		<path d="M1622 863c80 0 143 62 143 143 0 80-64 144-143 144l-432 0c-80 0-143-65-143-144 0-80 62-143 143-143l432 0 z" fill="#00A6ED"/>
	</g></svg>
