<svg version="1.1" xmlns="http://www.w3.org/2000/svg" viewBox="0 0 2300 2300"><g transform="scale(1,-1) translate(-256, -1869)">
		<path d="M1769-287c11 0 21 4 30 12 8 8 12 18 12 29 0 5-1 11-4 19l-9 23c-4 8-8 16-11 24l-9 18c-29 67-51 134-66 203-15 69-23 140-23 213 0 9 0 19 1 32l0 11-1 24c-2 11-6 20-12 28-6 7-16 11-30 11l-400 0c-11 0-21-4-29-12-9-9-13-19-13-30l0-65c0-72 7-143 22-213 29-135 55-178 111-303 7-16 19-24 38-24l393 0 z" fill="#CDC4D6"/>
		<path d="M1441 285c19 0 36 18 36 36l0 1404c0 19-15 36-36 36-19 0-36-15-36-36l0-1404c0-18 17-36 36-36 z" fill="#00A6ED"/>
		<path d="M1661 833c216 0 391 173 391 391 0 216-173 391-391 391l-439 0c-210 0-391-170-391-391 0-216 173-391 391-391l439 0 z" fill="#83CBFF"/>
		<path d="M1441 542c59 0 107 49 107 107 0 60-51 106-107 106-60 0-106-51-106-106 0-58 47-107 106-107 z" fill="#FCD53F"/>
		<path d="M1544-200c26 0 48 20 48 48 0 26-20 48-48 48-26 0-48-20-48-48 0-26 20-48 48-48 z M1489-36c-26 0-49 21-49 48 0 27 23 48 49 48 26 0 48-20 48-48 0-26-20-48-48-48 z M1448 129c26 0 48 20 48 48 0 26-20 48-48 48-26 0-49-21-49-48 0-27 23-48 49-48 z M1908 1188c-23 0-18 27-29 44-8 10-43 5-43 28 0 23 27 18 44 29 11 7 4 42 28 42 32 0 8-51 51-51 11 0 21-10 21-20 0-32-52-8-52-51 0-11-10-21-20-21 z M1734 1045c33 0 7 52 51 52 11 0 21 10 21 20 0 23-27 17-44 29-11 7-5 42-28 42-32 0-8-51-51-51-11 0-21-10-21-20 0-10 10-20 20-20 46 0 21-52 52-52 z M1733 1333c10 0 20 10 20 20 0 46 52 21 52 52 0 29-52 9-52 50 0 11-10 21-20 21-23 0-18-27-29-44-8-11-43-5-43-27 0-24 27-16 44-29 10-8 5-43 28-43 z" fill="#F37366"/>
	</g></svg>
