<svg version="1.1" xmlns="http://www.w3.org/2000/svg" viewBox="0 0 2300 2300"><g transform="scale(1,-1) translate(-256, -1869)">
		<path d="M1643 206c277 0 499 220 499 499l0 314-1476 0 0-314c0-278 225-499 500-499l477 0 z" fill="#533566"/>
		<path d="M1405 431c29 0 57 7 82 20l883 452c25 13 40 39 40 67 0 30-15 55-40 68l-883 452c-25 13-54 19-82 19-30 0-57-6-82-19l-882-452c-27-13-41-39-41-68 0-28 15-54 41-67l882-452c25-13 53-20 82-20 z" fill="#321B41"/>
		<path d="M1878-247c19 0 38 4 55 11 17 7 31 17 44 30 13 13 23 28 30 45 7 17 11 35 11 54 0 10-1 20-3 29l-34 158 9 12c3 4 5 9 7 14 1 1 3 3 4 6l1 6c1 1 2 4 3 9l3 13 2 13 0 9c0 25-7 49-20 70-14 21-32 37-54 48l0 451c0 11-3 21-8 30-6 9-14 16-23 21l-483 248c-8 4-16 6-25 6-15 0-29-6-40-17-12-11-18-25-18-40 0-11 3-22 9-31 6-9 14-17 24-22l449-230 0-417c-11-5-22-13-34-24-13-11-21-23-25-34-5-7-9-16-11-29-3-13-4-23-4-31 0-15 2-29 7-43 5-14 12-27 21-38l-33-158c-2-10-3-20-3-30 0-19 4-37 11-54 7-17 17-32 30-44 12-13 27-23 44-30 17-7 35-11 54-11 z" fill="#FFB02E"/>
	</g></svg>
