<svg version="1.1" xmlns="http://www.w3.org/2000/svg" viewBox="0 0 2300 2300"><g transform="scale(1,-1) translate(-256, -1869)">
		<path d="M2144-286c149 0 270 119 270 270l0 1472c0 146-120 269-270 269l-1475 0c-149 0-269-121-269-269l0-1472c0-149 118-270 269-270l1475 0 z" fill="#BEBEBE"/>
		<path d="M1887-108c179 0 324 145 324 325 0 178-143 324-325 324-178 0-324-143-324-324 0-183 147-325 325-325 z M933-108c179 0 325 146 325 325 0 179-146 325-325 325-179 0-325-146-325-325 0-179 146-325 325-325 z M933 748c177 0 324 143 324 324 0 177-143 324-324 324-181 0-325-144-325-324 0-177 140-324 325-324 z M1887 747c179 0 325 146 325 325 0 179-146 325-325 325-179 0-325-146-325-325 0-179 146-325 325-325 z" fill="#D3D3D3"/>
		<path d="M1887-28c137 0 245 112 245 245 0 137-112 245-245 245-136 0-245-108-245-245 0-137 112-245 245-245 z M933-28c-137 0-245 112-245 245 0 137 112 245 245 245 137 0 245-112 245-245 0-137-112-245-245-245 z M1887 827c137 0 245 112 245 245 0 137-112 245-245 245-137 0-245-112-245-245 0-136 108-245 245-245 z M933 827c137 0 245 112 245 245 0 137-112 245-245 245-137 0-245-112-245-245 0-137 112-245 245-245 z" fill="#0092E7"/>
		<path d="M2079 511c15 0 27 8 35 19l0 1c11 16 39 56 39 78 0 23-19 39-40 39-14 0-28-7-35-19l-33-58c-3-7-5-13-5-20 0-21 16-40 39-40 z M1694 511c22 0 40 18 40 41 0 25-29 58-39 77-7 12-21 19-35 19-7 0-14-1-19-4l0-1c-13-8-20-19-20-34 0-7 1-13 4-20 14-38 41-78 69-78 z M1887 563c22 0 40 18 40 39l0 68c0 23-18 40-40 40-22 0-40-17-40-40l0-67c0-23 18-40 40-40 z M1126 511c15 0 26 7 34 20 11 19 39 53 39 77 0 23-18 40-40 40-14 0-28-7-35-19l-33-58c-3-7-5-13-5-20 0-23 18-40 40-40 z M740 511c22 0 40 18 40 41 0 13-5 26-14 41-23 34-31 55-59 55-8 0-15-1-20-4l0-1c-13-8-20-20-20-35 0-24 27-60 39-77l0-1c7-10 19-19 34-19 z M933 563c22 0 40 17 40 40l0 67c0 22-17 40-40 40-22 0-40-17-40-40l0-67c0-22 17-40 40-40 z M2079 1366c27 0 44 27 56 54 8 17 18 29 18 44 0 23-19 39-40 39-16 0-28-7-35-20-11-19-38-53-38-77 0-23 17-40 39-40 z M1694 1366c22 0 40 17 40 40 0 12-7 27-15 41-21 33-32 57-58 57-22 0-40-18-40-40 0-24 27-59 38-79l1 0c7-10 19-19 34-19 z M1887 1418c19 0 40 16 40 38l0 68c0 22-17 40-40 40-22 0-40-17-40-40l0-66c0-22 17-40 40-40 z M1126 1366c15 0 26 7 34 20 11 19 38 53 38 77 0 22-17 40-40 40-15 0-27-7-34-20-11-19-38-53-38-77 0-22 17-40 40-40 z M740 1366c23 0 40 18 40 40 0 6-2 12-5 19l-33 59c-8 13-20 20-35 20-22 0-40-18-40-40 0-12 7-28 16-41 20-33 32-57 57-57 z M933 1418c23 0 40 18 40 40l0 67c0 22-17 40-40 40-23 0-40-18-40-40l0-67c0-22 17-40 40-40 z" fill="#636363"/>
		<path d="M1886 181c21 0 36 18 36 36 0 11-3 19-10 26l-128 128c-7 7-15 10-26 10-18 0-36-15-36-36 0-9 4-18 11-25l128-128c7-7 16-11 25-11 z M1113 181c19 0 36 15 36 36 0 19-15 36-36 36l-180 0c-19 0-36-15-36-36 0-19 15-36 36-36l180 0 z M1887 1036c19 0 36 15 36 36 0 19-15 36-36 36l-181 0c-19 0-36-15-36-36 0-19 15-36 36-36l181 0 z M933 1035c9 0 18 4 25 11l128 128c7 7 10 15 10 25 0 21-16 36-35 36-10 0-18-3-25-10l-128-128c-7-7-11-16-11-26 0-18 15-36 36-36 z" fill="#F4F4F4"/>
	</g></svg>
