<svg version="1.1" xmlns="http://www.w3.org/2000/svg" viewBox="0 0 2300 2300"><g transform="scale(1,-1) translate(-256, -1869)">
		<path d="M1565-18l0 89-316 0 0-89 316 0 z" fill="#998EA4"/>
		<path d="M1939-287c22 0 42 17 42 42 0 22-63 125-76 150-32 61-92 95-159 95l-679 0c-67 0-127-34-159-95-13-26-76-128-76-150 0-22 18-42 41-42l1066 0 z M1250 71l306 1c264 0 491 211 491 491l0 308c0 39-31 72-72 72-39 0-72-31-72-72l0-308c0-192-154-347-347-347l-306-1c-186 0-347 150-347 347l0 309c0 38-32 71-71 71-38 0-72-30-72-71l0-309c0-272 219-491 490-491 z M1499 288c184 0 332 147 332 332l0 772c0 178-142 333-332 333l-184 0c-184 0-333-148-333-333l0-772c0-183 147-332 333-332l184 0 z" fill="#B4ACBC"/>
		<path d="M1831 720l0 107-342 0c-29 0-54-21-54-53 0-30 22-54 54-54l342 0 z M1831 948l-342 0c-30 0-54 25-54 54 0 30 22 54 54 54l342 0 0-108 z M1324 720c32 0 54 24 54 54 0 32-25 53-54 53l-342 0 0-107 342 0 z M1324 948c30 0 54 25 54 54 0 30-22 54-54 54l-342 0 0-108 342 0 z M1831 1178l0 107-342 0c-30 0-54-22-54-54 0-32 25-53 54-53l342 0 z M1324 1178c29 0 54 21 54 53 0 30-22 54-54 54l-342 0 0-107 342 0 z" fill="#212121"/>
	</g></svg>
