<svg version="1.1" xmlns="http://www.w3.org/2000/svg" viewBox="0 0 2300 2300"><g transform="scale(1,-1) translate(-256, -1869)">
		<path d="M2412 217l0 1012-2012 0 0-1012 2012 0 z" fill="#83CBFF"/>
		<path d="M2353-67c34 0 59 26 59 59l0 301-269 0c-79 0-138 64-138 138l0 580c0 73 59 138 138 138l269 0 0 302c0 32-26 59-59 59l-1894 0c-33 0-59-27-59-59l0-302 269 0c74 0 138-60 138-138l0-580c0-77-63-138-138-138l-269 0 0-301c0-33 25-59 59-59l1894 0 z M2240 1258l-99 0c-13 0-23 9-23 23l0 99c0 13 9 23 23 23l99 0c12 0 23-11 23-23l0-99c0-13-9-23-23-23 z M1848 1258l-99 0c-13 0-23 9-23 23l0 99c0 13 9 23 23 23l99 0c12 0 23-11 23-23l0-99c0-13-9-23-23-23 z M1456 1258l-100 0c-13 0-23 9-23 23l0 99c0 13 9 23 23 23l100 0c12 0 23-11 23-23l0-99c0-12-11-23-23-23 z M1063 1258l-99 0c-13 0-23 9-23 23l0 99c0 13 9 23 23 23l99 0c12 0 23-11 23-23l0-99c0-13-9-23-23-23 z M671 1258l-100 0c-12 0-23 11-23 23l0 99c0 12 11 23 23 23l100 0c12 0 23-11 23-23l0-99c0-13-9-23-23-23 z M2240 43l-99 0c-13 0-23 9-23 23l0 99c0 13 9 23 23 23l99 0c13 0 23-9 23-23l0-99c0-13-9-23-23-23 z M1848 43l-99 0c-13 0-23 9-23 23l0 99c0 13 9 23 23 23l99 0c12 0 23-11 23-23l0-99c0-13-9-23-23-23 z M1456 43l-100 0c-13 0-23 9-23 23l0 99c0 13 9 23 23 23l100 0c12 0 23-11 23-23l0-99c0-12-11-23-23-23 z M1063 43l-99 0c-13 0-23 9-23 23l0 99c0 13 9 23 23 23l99 0c13 0 23-9 23-23l0-99c0-13-9-23-23-23 z M671 43l-100 0c-12 0-23 11-23 23l0 99c0 12 11 23 23 23l100 0c13 0 23-9 23-23l0-99c0-13-9-23-23-23 z M1701 293l-590 0c-79 0-138 64-138 138l0 580c0 73 59 138 138 138l590 0c74 0 138-60 138-138l0-580c0-77-63-138-138-138 z" fill="#433B6B"/>
	</g></svg>
