<svg version="1.1" xmlns="http://www.w3.org/2000/svg"><g transform="scale(1,-1)">
		<path d="M1945-287c258 0 467 206 467 467 0 258-206 467-467 467l-1078 0c-258 0-467-206-467-467 0-258 206-467 467-467l1078 0 z" fill="#321B41"/>
		<path d="M2009 231c19 357 41 681 57 1038l0 21c0 148-86 292-252 292l-814 0c-188 0-255-149-255-299l0-21c15-350 37-695 58-1031l1206 0 z" fill="#533566"/>
		<path d="M1817 18c107 0 205 82 205 193l0 254c-29-90-97-159-205-159l-822 0c-100 0-175 68-205 163l0-258c0-108 96-193 205-193l822 0 z" fill="#F8312F"/>
	</g></svg>
