<svg version="1.1" xmlns="http://www.w3.org/2000/svg" viewBox="0 0 2300 2300"><g transform="scale(1,-1) translate(-256, -1869)">
		<path d="M2255 144c88 0 157 74 157 161l0 756c0 88-70 161-157 161l-367 0c-20 0-32-11-39-30-18-48-51-83-108-83-57 0-91 35-109 83-7 19-18 30-38 30l-1037 0c-88 0-157-74-157-161l0-756c0-88 70-161 157-161l1037 0c20 0 31 11 38 30 18 48 52 83 109 83 57 0 90-35 108-83 7-19 19-30 39-30l367 0 z M1741 747c-61 0-119 50-119 117 0 64 55 116 119 116 64 0 116-54 116-116 0-63-53-117-116-117 z M1741 385c-64 0-119 54-119 118 0 64 55 115 119 115 65 0 115-54 115-115 0-61-51-118-115-118 z" fill="#F9C23C"/>
		<path d="M2215 360c32 0 53 23 53 53l0 181c0 30-24 53-53 53l-181 0c-30 0-53-24-53-53l0-181c0-29 23-53 53-53l181 0 z M1365 360l-708 0c-20 0-42 13-42 36 0 24 23 35 42 35l707 0c19 0 42-11 42-35 0-23-20-36-41-36 z M1365 503l-708 0c-20 0-42 13-42 36 0 23 22 36 42 36l707 0c20 0 42-13 42-36 0-23-20-36-41-36 z M983 863c38 0 64 33 64 69 0 36-26 69-64 69l-304 0c-38 0-64-33-64-69 0-36 26-69 64-69l304 0 z" fill="#D3883E"/>
	</g></svg>
