<svg version="1.1" xmlns="http://www.w3.org/2000/svg" viewBox="0 0 2300 2300"><g transform="scale(1,-1) translate(-256, -1869)">
		<path d="M2179-287c26 0 49 22 49 49 0 26-22 50-49 50l-240 0-485 1092c-9 20-24 30-45 30-21 0-36-10-45-30l-486-1092-178 0c-27 0-49-24-49-50 0-26 22-49 49-49l1479 0 z M1831-188l-845 0 423 952 422-952 z" fill="#E1D8EC"/>
		<path d="M1409 192c19 0 36 15 36 36l0 570 403-403c7-7 16-11 26-11 18 0 35 17 35 36 0 10-3 18-10 25l-404 404 571 0c19 0 36 15 36 36 0 19-15 36-36 36l-571 0 404 404c7 7 10 15 10 25 0 19-15 35-36 35-10 0-18-3-25-10l-403-403 0 571c0 18-17 36-36 36-18 0-36-17-36-36l0-572-404 404c-7 7-15 10-26 10-19 0-36-17-36-35 0-9 4-18 11-25l404-404-571 0c-19 0-36-15-36-36 0-19 15-36 36-36l571 0-404-404c-7-7-11-16-11-25 0-18 17-36 36-36 10 0 19 4 26 11l404 404 0-571c0-19 15-36 36-36 z" fill="#635994"/>
		<path d="M1409 178c389 0 707 317 707 707 0 387-315 707-707 707-379 0-707-302-707-707 0-379 302-707 707-707 z M1409 250c-352 0-636 284-636 635 0 340 272 635 636 635 353 0 635-286 635-635 0-353-286-635-635-635 z M1409 419c-255 0-466 206-466 466 0 255 206 466 466 466 255 0 466-206 466-466 0-255-206-466-466-466 z M1409 491c214 0 394 173 394 394 0 214-173 394-394 394-212 0-394-170-394-394 0-212 170-394 394-394 z M1409 704c-102 0-181 81-181 181 0 99 79 181 181 181 98 0 181-78 181-181 0-102-82-181-181-181 z" fill="#F9C23C"/>
		<path d="M2274 745c38 0 71 30 71 70l0 110c-52 3-105 10-157 10-52 0-105-7-157-10l0-110c0-40 32-70 70-70l173 0 z M715 745l-173 0c-40 0-70 32-70 70l0 110 157 28 157-28 0-110c0-40-33-70-71-70 z M2089 1229c40 0 70 33 70 71l0 110 1 0c-52 4-104 13-157 13-53 0-105-9-158-13l0-110c0-38 32-71 71-71l173 0 z M901 1229l-174 0c-40 0-70 33-70 71l0 110c52 4 104 13 157 13 53 0 105-9 158-13l-1 0 0-110c0-38-30-71-70-71 z M2089 261c40 0 70 33 70 71l0 110-314 0 0-110c0-39 33-71 71-71l173 0 z M901 261l-174 0c-40 0-70 33-70 71l0 110c52 4 104 11 157 11 54 0 105-7 158-11l-1 0 0-110c0-38-30-71-70-71 z M1495 17c38 0 71 32 71 71l0 110c-52 7-105 18-157 18-53 0-106-11-158-18l0-110c0-39 33-71 71-71l173 0 z M1495 1419c38 0 71 30 71 70l0 110c-52 4-104 11-157 11-53 0-104-7-158-11l0-110c0-40 33-70 71-70l173 0 z" fill="#8D65C5"/>
		<path d="M2345 926l0 60c0 37-30 66-66 66l-182 0c-36 0-66-29-66-66l0-60 314 0 z M786 926l-314 0 0 60c0 37 30 66 66 66l182 0c36 0 66-29 66-66l0-60 z M2160 1410l0 59c0 37-30 66-66 66l-183 0c-36 0-66-29-66-66l0-59 315 0 z M972 1410l-315 0 0 59c0 37 28 66 66 66l183 0c36 0 66-29 66-66l0-59 z M2160 442l0 59c0 36-29 66-66 66l-183 0c-37 0-66-30-66-66l0-59 315 0 z M972 442l-315 0 0 59c0 38 29 66 66 66l183 0c36 0 66-29 66-66l0-59 z M1566 198l0 60c0 38-29 66-66 66l-182 0c-37 0-67-28-67-66l0-60 315 0 z M1566 1599l0 60c0 37-28 66-66 66l-182 0c-37 0-67-28-67-66l0-60 315 0 z" fill="#D3D3D3"/>
	</g></svg>
