<svg version="1.1" xmlns="http://www.w3.org/2000/svg" viewBox="0 0 2300 2300"><g transform="scale(1,-1) translate(-256, -1869)">
		<path d="M2212-289c68 0 120 57 120 120l0 835-527 91c-104 19-162 46-264 46-107 0-165-28-266-46l-531-91 0-835c0-71 136-120 192-120l1276 0 z" fill="#6B438B"/>
		<path d="M2019 666l-337 0-140 82c-19-4-276-82-276-82l-339 0 20 142 182 135 335 0 146-97c20 4 275 97 275 97l336 0-25-135-177-142 z M1116 1149l325 86 138 108 179 0c26 0 44-2 66-2 7 0 14 1 23 2 207 54 103 26 325 86l-79 137-188 79-324-86-144-113c-88 3-175 5-263 5-4 0-304-83-325-86l105-143 162-73 z" fill="#A4AEEB"/>
		<path d="M1685 666l-424 0 202 277 424 0-202-277 z M927 666l202 277-385 0 0-277 183 0 z M2332 666l-313 0 202 277 111 0 0-277 z M1439 1234l-266 217 409 108 267-216-410-109 z M813 1068l303 81-267 216-106-29-40-169 110-99 z M2172 1429l107 28-71 268-303-80 267-216 z" fill="#635994"/>
		<path d="M936-289c-68 0-120 57-120 120l0 1112-206 0 0-1112c0-68 57-120 120-120l206 0 z M615 1016l198 52-70 268-200-52 72-268 z" fill="#321B41"/>
	</g></svg>
