<svg version="1.1" xmlns="http://www.w3.org/2000/svg"><g transform="scale(1,-1)">
		<path d="M2125-287c156 0 287 125 287 287l0 1438c0 156-125 287-287 287l-1438 0c-156 0-287-125-287-287l0-1438c0-161 130-287 287-287l1438 0 z" fill="#00A6ED"/>
		<path d="M1873 935c-98 0-180 79-180 179 0 98 78 180 180 180 98 0 180-78 180-180 0-98-79-179-180-179 z M817 148c-30 0-55 22-55 54l0 599c0 30 22 54 54 54 15 0 27-5 38-16l178-176c11-11 16-23 16-38l0-245c0-15-5-27-16-38l-178-178c-11-11-23-16-37-16 z M1873 144l-575 0c-98 0-180 78-180 180l0 359c0 98 78 180 180 180l575 0c98 0 180-78 180-180l0-359c0-98-78-180-180-180 z M1370 935c138 0 252 110 252 251 0 139-113 252-252 252-139 0-252-113-252-252 0-138 111-251 252-251 z" fill="#FFFFFF"/>
	</g></svg>
