<svg version="1.1" xmlns="http://www.w3.org/2000/svg" viewBox="0 0 2300 2300"><g transform="scale(1,-1) translate(-256, -1869)">
		<path d="M1047 863l0 431-72 0 0-431 72 0 z" fill="#D3D3D3"/>
		<path d="M1083 863c18 0 35 17 35 36 0 19-17 36-35 36l-144 0c-18 0-36-17-36-36 0-19 15-36 36-36l144 0 z" fill="#0074BA"/>
		<path d="M2017-287c58 0 108 49 108 108l0 1293c0 329-282 611-611 611-216 0-420-114-554-282-14-18-26-37-40-54l-1-2c-11-19-16-34-16-57 0-60 47-108 107-108 39 0 73 21 92 51l0-1c6 12 17 24 25 35 93 117 236 203 387 203 211 0 395-185 395-396l0-1293c0-63 50-108 108-108 z" fill="#6D4534"/>
		<path d="M1801 144c139 0 252 113 252 252 0 135-111 251-252 251-140 0-251-116-251-251 0-138 110-252 251-252 z" fill="#BEBEBE"/>
		<path d="M1801 206c24 0 45 20 45 45 0 26-20 45-45 45-25 0-45-19-45-45 0-25 21-45 45-45 z M1945 350c25 0 45 19 45 45 0 26-20 45-45 45-25 0-45-19-45-45 0-26 20-45 45-45 z M1658 350c26 0 44 21 44 45 0 24-18 45-44 45-25 0-45-19-45-45 0-25 19-45 45-45 z M1801 494c26 0 45 20 45 45 0 25-19 45-45 45-25 0-45-19-45-45 0-25 19-45 45-45 z" fill="#636363"/>
		<path d="M1334-287c0 127-67 156-172 166l-9 1c-14 1-35 2-35 12l0 36c0 11 54 68 62 78 15 19 28 38 41 57 87 140 113 315 113 476l-647 0c0-191 34-380 154-533 8-11 62-67 62-78l0-36c0-13-39-13-44-13-109-8-172-45-172-166l180 0c47 0 141 51 144 108 3-53 93-108 143-108l180 0 z" fill="#00A6ED"/>
		<path d="M1011 216c179 0 323 147 323 323 0 179-145 324-323 324-177 0-324-143-324-324 0-178 145-323 324-323 z" fill="#26EAFC"/>
		<path d="M1154 575c19 0 36 15 36 36 0 19-15 36-36 36l-71 0c-19 0-36-15-36-36 0-19 15-36 36-36l71 0 z" fill="#533566"/>
	</g></svg>
