<svg version="1.1" xmlns="http://www.w3.org/2000/svg" viewBox="0 0 2300 2300"><g transform="scale(1,-1) translate(-256, -1869)">
		<path d="M1421-287c42 0 82 6 121 19 38 13 71 36 99 70 15 19 28 39 38 61 9 21 14 44 14 68 0 23-4 46-12 67l-27 60c-10 19-19 37-27 55-9 17-13 34-13 51 0 21 5 38 16 51 11 13 25 23 42 30 17 7 37 13 59 16 21 3 43 4 65 5l31 1 31-1c19-1 36-1 49-1 39 0 76 2 112 6 36 3 71 10 104 20 33 10 64 24 95 43 31 19 60 43 87 73 36 39 63 83 81 130 17 47 26 97 26 150 0 54-8 107-24 160-16 52-38 102-65 151-27 49-60 95-97 140-37 44-77 85-120 124-43 38-87 73-132 104-46 31-92 59-137 82-83 43-171 76-262 99-91 23-184 34-278 34-82 0-161-9-237-28-77-19-148-46-214-81-67-35-127-78-182-129-55-51-101-108-140-171-39-63-70-132-91-207-22-75-33-155-33-240 0-87 12-171 36-252 23-81 57-158 100-229 43-71 95-137 156-197 60-60 127-112 201-156 36-21 76-43 120-64 43-21 88-40 135-57 46-17 93-31 140-41 47-11 91-16 133-16 z M1981 503c-126 0-216 93-216 216 0 122 90 216 216 216 122 0 216-90 216-216 0-126-94-216-216-216 z" fill="#FBB8AB"/>
		<path d="M1280 1078c87 0 162 73 162 162 0 87-73 162-162 162-87 0-162-73-162-162 0-87 73-162 162-162 z" fill="#8D65C5"/>
		<path d="M849 791c87 0 162 73 162 162 0 85-70 161-162 161-88 0-162-72-162-161 0-87 73-162 162-162 z" fill="#F70A8D"/>
		<path d="M849 288c88 0 162 72 162 161 0 87-73 162-162 162-87 0-162-73-162-162 0-85 70-161 162-161 z" fill="#00D26A"/>
		<path d="M1244-36c87 0 162 73 162 162 0 87-73 162-162 162-85 0-161-70-161-162 0-88 72-162 161-162 z" fill="#3F5FFF"/>
	</g></svg>
