<svg version="1.1" xmlns="http://www.w3.org/2000/svg" viewBox="0 0 2300 2300"><g transform="scale(1,-1) translate(-256, -1869)">
		<path d="M1262-165c408 0 740 331 740 740 0 407-330 740-740 740-408 0-740-331-740-740 0-408 331-740 740-740 z" fill="#F4F4F4"/>
		<path d="M1262-287c476 0 863 387 863 862 0 475-384 863-863 863-477 0-862-389-862-863 0-476 388-862 862-862 z M1262-72c-355 0-647 288-647 647 0 355 288 647 647 647 355 0 647-288 647-647 0-355-288-647-647-647 z M1262 144c234 0 431 190 431 431 0 234-190 431-431 431-234 0-431-190-431-431 0-234 190-431 431-431 z M1262 360c-120 0-215 97-215 215 0 121 97 216 215 216 121 0 216-99 216-216 0-119-97-215-216-215 z" fill="#F8312F"/>
		<path d="M1324 575c17 0 32 6 45 19l306 305c13 13 19 27 19 44 0 35-30 64-64 64-17 0-31-6-44-19l-306-306c-12-12-18-27-18-44 0-34 26-63 62-63 z" fill="#9B9B9B"/>
		<path d="M2056 935c-76 0-147 27-219 48l288 311 240-66c29-8 47-35 47-64 0-43-56-86-82-112-69-72-166-117-274-117 z M1669 1144l312 294-71 240c-8 27-33 48-63 48-44 0-83-56-111-84-76-76-114-177-114-277 0-76 27-148 47-221 z" fill="#46A4FB"/>
		<path d="M1542 647c61 0 123 27 163 78l390 489c20 25 30 54 30 85 0 79-65 139-139 139-31 0-60-10-85-30l-489-390c-50-40-78-102-78-163 0-112 91-208 208-208 z" fill="#50E2FF"/>
		<path d="M1828 1078c17 0 31 6 44 19l306 306c13 13 19 27 19 44 0 36-29 63-63 63-17 0-31-6-44-19l-306-306c-13-13-19-27-19-44 0-36 29-63 63-63 z" fill="#46A4FB"/>
	</g></svg>
