<svg version="1.1" xmlns="http://www.w3.org/2000/svg" viewBox="0 0 2300 2300"><g transform="scale(1,-1) translate(-256, -1869)">
		<path d="M2086-285l-215 24 212 678 181-99c26-14 45-43 45-75 0-9-1-18-4-25l-139-444c-11-36-45-59-80-59 z M766-285l215 24-212 678-181-99c-27-15-44-46-44-76 0-8 1-16 3-24l140-444c10-34 41-59 79-59 z" fill="#998EA4"/>
		<path d="M1815-309c30 0 58 19 68 50l211 674c2 7 3 13 3 20 0 31-20 60-51 70-35 11-127 46-160 46-30 0-59-19-69-50l-211-674c-2-7-3-14-3-20 0-31 20-60 51-70 34-11 129-46 161-46 z M1038-309c-30 0-59 19-69 50l-211 674c-2 7-3 13-3 20 0 31 20 60 51 70 34 11 129 46 161 46 32 0 59-19 68-50l211-674c2-7 3-14 3-20 0-31-20-60-51-70-35-11-127-46-160-46 z M2175 336c21 0 40 11 49 30l40 81c11 23 17 46 17 71 0 123-107 123-107 179 0 5 1 9 2 14 24 79 38 155 38 238 0 434-349 776-786 776-439 0-787-341-787-779 0-82 14-157 37-236l2-15c0-20-9-31-24-41-52-34-82-76-82-138 0-25 5-48 16-69l40-81c9-18 28-30 49-30 32 0 54 25 54 55 0 40-50 89-50 126 0 50 107 58 107 177 0 16-3 33-8 50-20 70-32 135-32 204 0 82 22 162 62 228 130 218 357 352 616 352 64 0 126-8 186-24 257-71 490-302 490-554 0-70-12-136-32-206-5-17-8-33-8-48 0-124 107-128 107-179 0-37-50-87-50-126 0-30 22-55 54-55 z" fill="#CDC4D6"/>
	</g></svg>
