<svg version="1.1" xmlns="http://www.w3.org/2000/svg" viewBox="0 0 2300 2300"><g transform="scale(1,-1) translate(-256, -1869)">
		<path d="M1983 1452l-24 56c-13 27-50 22-50 64 0 26 22 50 49 50 26 0 50-20 50-48 0-11-6-19-6-30 0-18 20-55 28-72l-47-20 z M2098 1504l-25 56c-13 27-50 20-50 64 0 29 24 49 50 49 29 0 48-22 48-48 0-11-4-18-4-29 0-24 18-51 27-72l-46-20 z M2211 1556l47 20c-10 22-28 47-28 71 0 11 5 19 5 30 0 27-23 48-49 48-26 0-49-22-49-49 0-45 39-37 50-64l24-56 z" fill="#D3D3D3"/>
		<path d="M922-269c278 0 493 207 522 479 11 107 81 177 179 199 73 16 177 49 177 140 0 62-53 111-112 111-45 0-88-38-157-38-133 0-241 108-241 242 0 140 102 165 102 250 0 61-49 110-110 110-108 0-184-177-205-268-23-101-99-167-201-179-262-31-476-230-476-522 0-290 228-524 522-524 z" fill="#CA0B4A"/>
		<path d="M1043-150c13 0 26 2 37 7 107 40 186 124 231 220 60 128 11 191 133 313 45 45 77 64 139 80 24 5 70 21 70 50 0 25-21 41-43 41-34 0-64-11-98-11-38 0-65 8-102 12-89 8-146 67-160 149-8 44-40 77-88 77-87 0-73-101-184-105-119-8-264-81-264-220 0-52 21-99 55-133l162-162c24-24 34-53 34-88 0-49-19-86-19-135 0-56 43-95 97-95 z" fill="#F4F4F4"/>
		<path d="M839-18c5 0 9 2 13 6l76 76c4 4 6 8 6 13 0 5-2 9-5 12l-173 173c-3 3-8 5-13 5-5 0-10-2-13-5l-77-75c-3-3-5-8-5-13 0-5 2-10 5-13l173-173c4-4 8-6 13-6 z" fill="#9B9B9B"/>
		<path d="M1068 249c26 0 43 18 43 43 0 12-4 22-12 30l-110 110c-9 9-19 13-31 13-23 0-43-20-43-43 0-12 4-22 13-31l110-110c8-8 18-12 30-12 z M1212 394c25 0 44 21 44 43 0 12-4 22-13 31l-110 110c-8 8-18 12-30 12-25 0-43-17-43-43 0-11 4-22 12-30l110-110c9-9 19-13 30-13 z" fill="#D3D3D3"/>
		<path d="M1340 556c12 0 23 5 32 14l685 685-40 111-95 25-685-685c-9-9-14-20-14-32 0-13 6-23 14-32l71-72c8-9 19-14 32-14 z" fill="#635994"/>
		<path d="M2093 1242c18 0 37 9 46 23l77 130c7 11 16 17 29 17 17 0 34-11 53-11 61 0 110 51 110 111 0 59-45 107-105 107-23 0-44-6-64-15l-295-136c-17-8-28-30-28-49 0-15 5-28 16-39l122-122c11-11 24-16 39-16 z" fill="#CA0B4A"/>
	</g></svg>
