<svg version="1.1" xmlns="http://www.w3.org/2000/svg" viewBox="0 0 2300 2300"><g transform="scale(1,-1) translate(-256, -1869)">
		<path d="M1693 1150l0 288c-63-84-181-144-287-144-103 0-223 57-288 144l0-288 575 0 z" fill="#44911B"/>
		<path d="M2143-287c30 0 54 25 54 54l0 1114c0 30-25 54-54 54-77 0-145 33-160 120l-20-8-1179-1311-7-23 1366 0 z M615-128l16 9 1341 1485 9 26 0 279c0 30-22 54-54 54l-252 0c-32 0-53-25-53-54l0-305c0-121-99-216-216-216-121 0-216 99-216 216l0 305c0 30-22 54-54 54l-251 0c-30 0-54-22-54-54l0-593c0-61-38-111-88-132-49-21-128 2-128-65l0-1009 z" fill="#44911B"/>
		<path d="M777-287l1206 1342c-1 8-2 15-2 23l0 314-1366-1520 0-105c0-32 24-54 54-54l108 0 z" fill="#FCD53F"/>
	</g></svg>
