<svg version="1.1" xmlns="http://www.w3.org/2000/svg" viewBox="0 0 2300 2300"><g transform="scale(1,-1) translate(-256, -1869)">
		<path d="M2123-357c35 0 64 12 88 36l108 108c110 110 167 250 167 400 0 175-69 307-196 428-35 34-53 75-53 122 0 109 26 208 69 311 17 43 27 87 27 132 0 181-148 330-330 330-121 0-229-67-285-164-59 102-170 164-285 164-184 0-330-148-330-332 0-45 10-90 29-134 47-108 67-197 67-307 0-62-29-101-73-144l-1 0c-116-111-173-257-173-406 0-146 55-290 167-401l108-107c24-24 53-36 88-36l238 0c35 0 64 12 88 36l78 78 78-78c24-24 53-36 88-36l238 0 z M1719 616c-34 33-52 76-52 121 0 92 19 181 51 268 35-89 51-175 51-268 0-47-21-90-50-121 z" fill="#9B9B9B"/>
		<path d="M2123-285c15 0 27 5 37 15l108 108c98 98 146 222 146 350 0 130-51 261-151 354-62 58-98 112-98 195 0 120 29 228 75 340 13 33 21 68 21 103 0 141-113 258-257 258-141 0-260-115-260-259 0-36 8-71 23-106 48-115 74-210 74-336 0-82-35-136-96-196-97-97-152-215-152-354 0-138 56-262 146-350l109-107c10-10 22-15 37-15l238 0 z" fill="#E6E6E6"/>
		<path d="M1553-285c15 0 27 5 37 15l108 108c98 98 146 222 146 350 0 130-51 261-151 354-62 58-98 112-98 195 0 120 29 228 75 340 13 33 21 68 21 103 0 141-113 258-257 258-141 0-260-115-260-259 0-37 9-71 24-106 48-116 73-206 73-336 0-85-38-138-96-196-97-97-152-215-152-354 0-138 56-262 146-350l109-107c10-10 22-15 37-15l238 0 z" fill="#F4F4F4"/>
		<path d="M2171 832c4 32 10 64 18 96l-371 0c8-32 14-64 18-96l335 0 z M2179 656c-11 32-14 63-14 96l-324 0c0-34-4-65-14-96l352 0 z M1601 832c4 32 10 64 18 96l-370 0c7-32 13-64 17-96l335 0 z M1609 656c-10 31-14 62-14 96l-324 0c0-34-4-65-14-96l352 0 z" fill="#CA0B4A"/>
		<path d="M903-359c276 0 503 223 503 503 0 276-223 503-503 503-267 0-503-213-503-503 0-276 221-503 503-503 z" fill="#635994"/>
		<path d="M1037 166c-44 0-82 34-82 81 0 47 38 81 82 81 44 0 81-36 81-81 0-45-37-81-81-81 z M772 166c-44 0-81 34-81 81 0 47 37 81 81 81 44 0 81-34 81-81 0-47-37-81-81-81 z M911 369c44 0 81 34 81 81 0 44-34 81-81 81-47 0-81-37-81-81 0-47 37-81 81-81 z" fill="#212121"/>
	</g></svg>
