<svg version="1.1" xmlns="http://www.w3.org/2000/svg" viewBox="0 0 2300 2300"><g transform="scale(1,-1) translate(-256, -1869)">
		<path d="M932-308c36 0 69 20 87 50l191 333-175 102-191-333c-9-15-14-32-14-51 0-56 45-101 102-101 z" fill="#533566"/>
		<path d="M1209 73l61 105c49 84 114 158 191 218l220 168-23 29c-37 0-72 4-107 12l-195-150c-7-5-16-8-25-8-27 0-39 20-39 45l32 245c-25 27-45 55-62 86l-39 5-36-274c-14-102-43-188-92-274l-61-106 175-101 z" fill="#CA0B4A"/>
		<path d="M1653 540c182 0 350 98 439 252l91 158c42 73 67 161 67 252 0 277-223 505-504 505-138 0-267-57-357-147-73-73-117-168-172-264-45-78-67-162-67-251 0-277 223-505 503-505 z M1653 647c-218 0-396 178-396 398 0 69 19 138 53 198l92 158c71 121 199 199 344 199 217 0 396-174 396-397 0-71-18-139-53-199l-91-158c-72-122-200-199-345-199 z" fill="#F8312F"/>
		<path d="M1618 649l-66 125 127 5 64-122c16 4 32 9 49 15l-58 108 128 4 30-57c14 10 27 21 39 33l-14 27 40 1c15 16 26 32 37 51l-102-4-60 113 127 4 48-90 30 51-22 41 47 2c3 5 26 47 29 50l-102-3-60 113 127 4 48-89c9 21 17 42 23 62l-17 29 24 1c4 16 6 33 7 49l-57-2-59 112 108 4c-3 17-8 33-13 49l-121-4-60 113 118 4c-13 17-28 33-45 48l-99-3-46 88c-21 7-42 11-64 14l55-103-127-5-57 106c-18-3-34-8-49-13l50-95-127-5-26 50c-14-9-27-19-40-31l12-20-35-2c-15-15-29-32-41-51l102 4 59-112-127-5-48 91c-11-14-19-34-30-50l23-43-48-2-29-50 102 3 60-112-127-5-48 91c-11-19-19-38-26-57l19-36-31-1c-4-16-7-33-9-50l65 2 60-112-122-4c3-16 7-33 11-49l137 5 60-113-142-5c12-17 25-33 40-48l128 4 59-113c20-5 41-7 62-10 z M1816 1326l-59 112 127 4 60-112-128-4 z M1902 1164l-60 112 127 4 60-111-127-5 z M1805 997l-60 113 127 4 60-113-127-4 z M1709 829l-60 112 127 4 60-112-127-4 z M1526 822l-60 113 128 5 59-112-127-6 z M1440 984l-60 112 127 5 60-112-127-5 z M1537 1151l-60 113 127 4 60-113-127-4 z M1623 991l-60 112 128 4 59-112-127-4 z M1719 1158l-59 112 127 5 60-113-128-4 z M1634 1319l-60 112 127 5 60-113-127-4 z" fill="#BEBEBE"/>
		<path d="M831 503c121 0 216 99 216 216 0 121-99 216-216 216-121 0-216-99-216-216 0-121 99-216 216-216 z" fill="#C3EF3C"/>
		<path d="M831 503l17 1 0 2 1 0c0 132-104 231-233 231l-1-18 1-18c116 0 197-82 197-197l18-1 z M1046 701l1 18-1 18-9 0c-109 0-188 88-188 197l-18 1-18-1c0-130 94-233 233-233 z" fill="#D3D3D3"/>
	</g></svg>
