<svg version="1.1" xmlns="http://www.w3.org/2000/svg"><g transform="scale(1,-1)">
		<path d="M2412 180l0 1294-1653 0 0-1294 1653 0 z" fill="#B4ACBC"/>
		<path d="M2376 143c19 0 36 15 36 36 0 19-15 36-36 36l-1524 0 0 252 1524 0c19 0 36 15 36 36 0 19-15 36-36 36l-1524 0 0 251 1524 0c19 0 36 15 36 36 0 19-15 36-36 36l-1524 0 0 252 1524 0c19 0 36 15 36 36 0 19-15 36-36 36l-1524 0 0 251 1524 0c19 0 36 17 36 35 0 19-15 36-36 36l-1919 0c-33 0-57-28-57-58l0-1249c0-30 26-57 57-57l108-1 1811 0 z" fill="#CDC4D6"/>
		<path d="M1288-304c32 0 62 6 91 19 29 12 54 29 75 50 21 21 37 45 50 74 12 29 18 59 18 91l0 291c33 10 64 25 92 45 28 20 52 44 72 71 20 27 36 56 47 88 11 32 16 66 16 101 0 33-6 64-17 94-11 30-27 57-47 80-21 23-45 43-72 59-28 15-58 25-91 30l0 164 7 2c44 9 85 25 122 46 37 21 68 47 95 78 27 31 48 66 63 105 15 39 22 82 22 128l0 188c0 29-6 56-17 81-11 25-26 46-45 65-19 19-42 34-67 45-25 11-52 16-80 16-29 0-55-5-80-16-25-11-47-26-66-45-19-19-33-40-44-65-11-25-17-52-17-81l0-450c-54-12-103-32-148-60-45-29-84-63-117-104-33-41-58-86-76-136-19-51-28-103-28-158 0-51 10-100 29-145 19-46 45-86 78-121 33-35 72-62 117-83 45-21 93-33 144-35l0-278c0-17-3-34-10-49-7-15-16-29-27-40-11-11-25-20-40-27-15-7-32-10-49-10-19 0-37 4-54 12-17 8-32 20-44 35 28 5 51 18 70 40 19 21 28 46 28 75 0 16-3 31-9 46-6 14-14 26-24 37-11 10-23 18-37 25-15 6-30 9-46 9-34 0-61-10-81-31-20-21-32-48-36-80l-1-15 0-27c0-32 6-62 19-91 12-29 29-53 50-74 21-21 45-38 74-50 29-13 59-19 91-19 z M1522 1063l0 437c0 57 44 99 100 99 55 0 101-45 101-100l0-187c0-120-85-225-201-249 z M1414 316c-147 8-260 131-260 276 0 161 106 301 260 346l0-157c-94-29-155-118-155-212 0-30 22-54 54-54 32 0 54 24 54 54 0 36 18 70 47 92l0-345 z M1522 337l0 343c71-19 119-82 119-154 0-77-44-153-119-189 z" fill="#1C1C1C"/>
	</g></svg>
