<svg version="1.1" xmlns="http://www.w3.org/2000/svg"><g transform="scale(1,-1)">
		<path d="M1886 1439l135 22-43 258-133-22 41-258 z" fill="#D3D3D3"/>
		<path d="M2021 1461l284 46c40 7 66 40 66 78 0 103-233 140-311 140-28 0-55-2-82-6l43-258 z" fill="#212121"/>
		<path d="M1208-291c226 0 408 180 408 410l1 1044c0 142 104 245 229 268l75 13-43 259-87-15c-274-48-465-274-465-549 0-231 5-465 5-708 0-23-16-40-38-40-19 0-34 14-37 32-16 135-34 267-53 400l-675-240 258-544c85-182 207-330 422-330 z" fill="#F9C23C"/>
		<path d="M488 548c9 0 19 2 29 5l709 247c34 12 59 45 59 83 0 48-40 88-88 88-9 0-19-2-30-5l-708-247c-35-12-59-42-59-82 0-49 38-89 88-89 z" fill="#FCD53F"/>
		<path d="M1335 971c45 0 80 37 80 81 0 43-34 80-80 80-44 0-81-35-81-80 0-44 34-81 81-81 z M1356 1209c43 0 80 34 80 80 0 44-35 81-80 81-44 0-81-34-81-81 0-45 37-80 81-80 z M1454 1420c44 0 81 34 81 81 0 45-37 80-81 80-43 0-80-34-80-80 0-44 35-81 80-81 z" fill="#D3D3D3"/>
	</g></svg>
