<svg version="1.1" xmlns="http://www.w3.org/2000/svg"><g transform="scale(1,-1)">
		<path d="M1529-218c-24 0-44 9-60 27l-436 481-376-340c-20-18-43-27-68-27-14 0-27 3-39 8-13 5-24 13-33 22-9 9-17 19-22 32-5 13-8 26-8 40 0 29 11 54 34 75l376 341-66 72c-6 6-9 14-9 23 0 11 4 20 11 26 5 4 11 10 19 18 7 8 16 16 25 24 9 7 17 14 26 20 9 6 16 9 23 9 11 0 19-4 25-11l66-73 25 24 25 21c8 6 17 11 27 15 10 3 21 5 33 5l10 0 10-2-93 103c-6 6-9 14-9 23 0 11 4 20 11 26 5 4 11 10 19 18 7 8 15 16 24 24 9 7 17 14 26 20 9 5 16 8 23 8 5 0 9-1 14-2 5-2 9-5 12-8l638-705c14-16 21-34 21-54 0-22-8-41-23-57-16-16-35-24-58-24-25 0-45 9-61 27l-462 510 0-10c0-11-1-21-4-29-4-11-10-22-17-31-7-10-16-19-25-27l-30-26 436-481c14-16 21-34 21-54 0-22-8-41-23-57-16-16-35-24-58-24 z M1975 185c44 0 81 36 81 81 0 20-7 38-22 54l-637 705c-6 7-17 11-26 11-20 0-50-28-73-53-20-20-30-24-30-43 0-10 3-18 9-24l637-704c16-18 36-27 61-27 z" fill="#E19747"/>
		<path d="M1237-244c100 0 202 36 282 109l456 413c86 78 138 190 138 313 0 183-122 351-301 404 62 52 94 78 165 97 62 17 131 34 199 34 58 0 123-23 177-23 34 0 59 28 59 60 0 15-5 28-15 39l-456 504c-11 13-26 19-43 19-37 0-60-28-60-62 0-49 7-94 7-143 0-33-8-72-19-111-30-105-60-182-126-242l-747-676c-86-77-139-187-139-313 0-230 184-422 423-422 z M1236-41c-119 0-218 95-218 219 0 60 23 119 71 161l456 413c39 35 91 57 147 57 118 0 218-95 218-219 0-64-29-122-72-162l-455-412c-39-35-91-57-147-57 z" fill="#FFB02E"/>
		<path d="M615-168c49 0 87 40 87 88 0 22-7 41-22 58l-128 141c-18 19-40 29-65 29-49 0-87-40-87-88 0-21 7-40 22-57l128-142c17-19 39-29 65-29 z M800 509c14 0 26 4 35 13l108 97c11 10 17 23 17 40 0 30-24 52-53 52-15 0-27-4-36-13l-107-97c-11-11-17-24-17-39 0-29 23-53 53-53 z M1023 710c13 0 24 5 35 14l107 97c11 10 17 23 17 39 0 29-22 52-52 52-15 0-27-4-36-13l-107-97c-11-10-17-23-17-39 0-29 21-53 53-53 z M1245 912c14 0 26 4 35 13l107 97c11 10 17 23 17 39 0 29-21 53-51 53-14 0-26-5-37-14l-107-97c-11-10-17-23-17-39 0-28 23-52 53-52 z" fill="#D3D3D3"/>
		<path d="M1853 737l151 136c-52 57-117 98-192 121l-267-242c39 35 91 57 147 57 63 0 120-28 161-72 z" fill="#E19747"/>
	</g></svg>
