<svg version="1.1" xmlns="http://www.w3.org/2000/svg" viewBox="0 0 2300 2300"><g transform="scale(1,-1) translate(-256, -1869)">
		<path d="M2335-287c80 0 149 62 149 143l0 1366-2084 0 0-1366c0-83 70-143 149-143l1786 0 z" fill="#9B9B9B"/>
		<path d="M2340-215c38 0 72 31 72 71l0 1438c0 39-31 72-72 72l-287 0c-39 0-72-31-72-72l0-1438c0-40 34-71 72-71l287 0 z M1837-215c38 0 72 31 72 71l0 1438c0 39-31 72-72 72l-287 0c-39 0-72-31-72-72l0-1438c0-40 34-71 72-71l287 0 z M1334-215c38 0 72 31 72 71l0 1438c0 39-31 72-72 72l-287 0c-39 0-72-31-72-72l0-1438c0-40 34-71 72-71l287 0 z M831-215c38 0 72 31 72 71l0 1438c0 39-31 72-72 72l-288 0c-40 0-71-34-71-72l0-1438c0-38 32-71 71-71l288 0 z" fill="#F4F4F4"/>
		<path d="M1981 288l-72 0c-39 0-72 31-72 72l0 934c0 39 31 72 72 72l72 0c39 0 72-31 72-72l0-934c0-39-31-72-72-72 z M1478 288c39 0 72 31 72 72l0 934c0 39-31 72-72 72l-72 0c-39 0-72-31-72-72l0-934c0-39 31-72 72-72l72 0 z M975 288c38 0 72 33 72 72l0 934c0 38-33 72-72 72l-72 0c-39 0-72-31-72-72l0-934c0-39 31-72 72-72l72 0 z" fill="#1C1C1C"/>
		<path d="M2484 1222l0 431c0 43-35 72-74 72l-1936 0c-39 0-74-29-74-72l0-431 2084 0 z" fill="#321B41"/>
	</g></svg>
