<svg version="1.1" xmlns="http://www.w3.org/2000/svg" viewBox="0 0 2300 2300"><g transform="scale(1,-1) translate(-256, -1869)">
		<path d="M1406-287c547 0 1006 440 1006 1006 0 547-440 1006-1006 1006-547 0-1006-440-1006-1006 0-547 440-1006 1006-1006 z" fill="#433B6B"/>
		<path d="M1406 216c276 0 503 223 503 503 0 276-223 503-503 503-267 0-503-213-503-503 0-276 221-503 503-503 z" fill="#E6E6E6"/>
		<path d="M1406 431c91 0 180 40 180 148 0 51-5 107-51 141 35 27 51 68 51 110 0 122-50 176-180 176-121 0-180-51-180-179 0-40 16-86 52-109-46-34-52-92-52-143 0-100 80-144 180-144 z M1406 503c-52 0-93 31-93 90 0 59 41 90 93 90 52 0 96-31 96-90 0-58-45-90-96-90 z M1406 755c-52 0-93 31-93 90 0 59 41 90 93 90 51 0 96-32 96-90 0-58-45-90-96-90 z" fill="#212121"/>
	</g></svg>
