<svg version="1.1" xmlns="http://www.w3.org/2000/svg" viewBox="0 0 2300 2300"><g transform="scale(1,-1) translate(-256, -1869)">
		<path d="M1084-287c723 0 1328 603 1328 1328 0 142-19 286-65 412-36 102-105 171-207 207-134 48-281 65-413 65-725 0-1327-606-1327-1327 0-132 17-279 65-413 36-102 105-171 207-207 127-45 270-65 412-65 z" fill="#F9C23C"/>
		<path d="M585-178l455 455c64-47 139-70 213-70 92 0 184 34 255 105l305 305c71 71 105 163 105 255 0 74-23 149-70 213l455 455c-21 29-47 55-76 76l-455-455c-64 47-139 70-213 70-92 0-184-34-255-105l-305-305c-71-71-105-163-105-255 0-74 23-149 70-213l-455-455c21-30 46-55 76-76 z" fill="#FF6723"/>
		<path d="M1262 377c32 0 54 25 54 54 0 15-5 28-16 39l-143 143c-11 11-24 16-39 16-29 0-54-22-54-54 0-15 5-27 16-38l144-144c11-11 23-16 38-16 z M1406 521c32 0 54 24 54 54 0 15-5 27-16 38l-144 144c-11 11-23 16-38 16-32 0-54-24-54-54 0-15 5-27 16-38l144-144c11-11 23-16 38-16 z M1550 665c32 0 54 24 54 54 0 15-5 27-16 38l-144 144c-11 11-23 16-38 16-32 0-54-24-54-54 0-15 5-27 16-38l144-144c11-11 23-16 38-16 z M1693 809c30 0 55 22 55 54 0 15-5 27-16 38l-144 144c-11 11-23 16-38 16-32 0-54-25-54-55 0-15 5-27 16-38l143-143c11-11 23-16 38-16 z" fill="#FFDEA7"/>
	</g></svg>
