<svg version="1.1" xmlns="http://www.w3.org/2000/svg" viewBox="0 0 2300 2300"><g transform="scale(1,-1) translate(-256, -1869)">
		<path d="M2412 292l0 643c-40 40-91 60-144 60-129 0-158-119-287-119-136 0-153 119-288 119-130 0-157-119-287-119-136 0-153 119-288 119-130 0-157-119-287-119-136 0-153 119-288 119-52 0-103-20-143-60l0-643 2012 0 z" fill="#26C9FC"/>
		<path d="M1334 282c106 0 143 249 147 336l-121 351 209-90c-4-15-7-30-7-46 0-81 67-144 144-144 82 0 145 65 145 144 0 68-47 129-120 143-5 70-61 155-138 163-66 8-121 24-187 47-99-29-195-68-288-108l-150-370c19-43 24-91 31-137 11-90 76-148 174-148l11 1c0-81 71-142 150-142 z" fill="#593B39"/>
		<path d="M2405 210c0 187-86 352-224 461l-301 662c-88 195-281 320-496 320l-497 0c-58 0-108-28-145-65l-118-117c-11-11-17-25-17-40 0-13 4-25 13-36-16-15-27-29-27-52 0-30 23-56 56-56 15 0 28 5 40 16 11-19 28-31 51-31 59 0 76 94 175 94l435 0c122 0 232-71 283-183l175-385c-323-4-580-266-580-588l1177 0 z" fill="#BB806E"/>
		<path d="M2405 210c0 131-43 263-132 372-27-20-59-32-94-32-36 0-71 12-99 35l-272 214 0-1c-323-4-580-266-580-588l1177 0 z" fill="#8B62BF"/>
		<path d="M1577 357c120 0 210 99 210 211 0 55-20 109-61 149l-274 264-298-298 274-264c41-40 92-62 149-62 z" fill="#BB806E"/>
		<path d="M1131 522c49 0 95 41 95 96 0 49-40 95-95 95-53 0-96-44-96-95 0-54 42-96 96-96 z M1527 919c50 0 95 41 95 95 0 50-41 96-95 96-54 0-96-42-96-96 0-54 45-95 96-95 z" fill="#BB806E"/>
		<path d="M1442 1168c-3 4-5 7-7 8l7-8 z M968 818l0 12-8 9 8-21 z M1383 463c159 0 301 138 301 301 0 80-29 134-80 199l-124 157c-95-87-244-160-369-179l77 173-123-100c-10-9-18-26-18-40 0-20 13-37 13-56 0-8-6-9-13-9l-22 2c-8-1-14-5-14-16 0-10 10-18 10-37 0-20-14-36-21-55l23-19c17-42 22-86 22-135l-77 58 0 69c-8-11-16-22-16-35 0-11 8-27 16-34 74-56 142-106 216-163 69-52 114-81 199-81 z M1257 1170l178 6c-20 20-47 28-75 28-37 0-75-10-103-34 z" fill="#C68D7B"/>
		<path d="M1376 704c18 0 31 15 43 30 11 14 20 20 20 34 0 13-5 22-16 27-17 8-84 51-101 51-12 0-23-11-23-23 0-8 10-28 22-50 29-53 32-69 55-69 z" fill="#AB6A55"/>
		<path d="M968 708l-1 2 1 1c1 1 1 2 1 3 3 8 9 17 18 28 9 10 16 18 21 25 28 33 57 65 87 96l91 92 121 118c19 18 38 35 55 50 17 15 33 27 46 37 16 12 21 15 27 15-25 33-55 58-91 77-37 18-76 27-117 27-33 0-63-5-88-15-26-11-50-24-72-41-22-17-43-35-63-56l-62-65c-25-25-44-53-57-84-14-32-21-65-21-100 0-42 9-81 28-117 19-37 44-68 76-93 z" fill="#8B62BF"/>
		<path d="M1473 614c33 0 58 27 58 58 0 31-25 58-58 58-33 0-58-27-58-58 0-31 25-58 58-58 z" fill="#990839"/>
		<path d="M1060 638l51 32c17-15 36-23 58-23 23 0 42 8 59 25 8 8 16 16 25 23 8 7 16 15 23 24 7 8 12 17 17 27 4 9 6 20 6 32 0 12-3 24-8 36l39 39c12-5 24-8 36-8 23 0 43 8 60 25 8 8 16 16 25 23 8 7 16 15 23 24 7 8 12 17 17 27 4 9 6 20 6 32 0 22-8 41-23 58l35 48-33 44-54-66-10 1c-23 0-42-8-59-25l-24-23c-9-7-16-15-23-23-7-9-13-18-17-27-5-10-7-21-7-33 0-12 3-24 8-36l-39-39c-12 5-24 8-36 8-23 0-43-8-60-25l-27-26c-9-8-16-16-23-25-7-9-12-18-16-28-3-8-4-17-4-27l0-10-71-49 46-35 z" fill="#433B6B"/>
		<path d="M1177 684c17 0 30 6 41 17 21 21 48 40 48 72 0 31-26 56-56 56-16 0-29-5-40-16-22-22-49-40-49-72 0-30 25-57 56-57 z M1372 879c15 0 29 6 40 17 23 21 49 39 49 72 0 31-26 56-56 56-16 0-29-5-40-16-23-23-49-42-49-72 0-30 25-57 56-57 z" fill="#00A6ED"/>
		<path d="M2412-210l0 643c-40 40-91 60-144 60-134 0-153-120-287-120-133 0-158 120-288 120-44 0-76-14-104-31-54-33-91-89-183-89-133 0-158 120-288 120-44 0-76-14-104-31-54-33-91-89-183-89-133 0-158 120-288 120-52 0-103-20-143-60l0-643 2012 0 z" fill="#0084CE"/>
	</g></svg>
