<svg version="1.1" xmlns="http://www.w3.org/2000/svg" viewBox="0 0 2300 2300"><g transform="scale(1,-1) translate(-256, -1869)">
		<path d="M2128 4c0 0 197 64 212 68l69 212 0 295-69 140 69 140 0 295c0 0-65 198-69 212-16 4-212 68-212 68l-294 0-141-68-140 68-294 0-141-68-140 68-294 0-212-68c-4-16-69-212-69-212l0-295 69-140-69-140 0-295 69-212 212-68 294 0 140 68 141-68 294 0 140 68 141-68 294 0 z" fill="#F4F4F4"/>
		<path d="M2337 4l-209 0 0 280 281 0 0-208c0-38-33-72-72-72 z M2409 579l0 280-281 0 0-280 281 0 z M2409 1154l-281 0 0 280 209 0c39 0 72-34 72-72l0-208 z M1546 866l0 281-280 0 0-281 280 0 z M1546 291l-280 0 0 281 280 0 0-281 z M1259 4l0 280-281 0 0-280 281 0 z M1259 579l-281 0 0 280 281 0 0-280 z M2121 866l-280 0 0 281 280 0 0-281 z M2121 291l0 280-280 0 0-280 280 0 z M1834 4l-281 0 0 280 281 0 0-280 z M1834 579l0 280-281 0 0-280 281 0 z M971 866l0 281-280 0 0-281 280 0 z M971 291l-280 0 0 281 280 0 0-281 z M684 4l0 280-281 0 0-208c0-39 34-72 72-72l209 0 z M684 579l-281 0 0 280 281 0 0-280 z M684 1154l-281 0 0 208c0 38 33 72 72 72l209 0 0-280 z M1834 1154l-281 0 0 280 281 0 0-280 z M1259 1154l0 280-281 0 0-280 281 0 z" fill="#000000"/>
	</g></svg>
