<svg version="1.1" xmlns="http://www.w3.org/2000/svg" viewBox="0 0 2300 2300"><g transform="scale(1,-1) translate(-256, -1869)">
		<path d="M2049-287c3 9 4 18 4 27 0 12-3 23-14 30-37 21-110 55-138 86l-136 0 1-143 283 0 z M1047-287l0 143-137 0c-44-31-91-57-138-86-11-7-13-20-13-32 0-9 1-17 3-25l285 0 z" fill="#533566"/>
		<path d="M1670 719l-156 81 316 638c-5-11-10-21-10-32 0-18 15-22 29-22 19 0 97 23 97 46 0 3-1 5-4 6 19-5 57-19 57-44 0-11-4-19-8-27l-321-646 z M1142 719l156 81-316 638c5-11 9-21 9-32 0-18-13-22-28-22-18 0-97 23-97 46 0 3 1 5 4 6-19-5-57-19-57-44 0-11 4-19 8-27l321-646 z" fill="#FFD7C2"/>
		<path d="M1693 288l0 334c0 41 13 91 30 141 19 55 55 131 55 145 0 7-3 12-10 15l-182 98-36-158 3-5c-45 27-96 43-147 43-53 0-101-14-145-43l2 5-33 158-186-98c-7-3-10-9-10-17l1-6c5-19 16-37 23-54 24-61 60-159 60-224l0-334 575 0 z" fill="#8B62BF"/>
		<path d="M1407 0c188 0 271 54 430 148l36 67c16 55 30 157 40 216l-225-143-561 0-224 143 32-227 40-67c160-96 247-137 432-137 z" fill="#9B9B9B"/>
		<path d="M1899-144l27 363-199 0 38-363 134 0 z M1047-144l43 363-210 0 33-363 134 0 z" fill="#FFD7C2"/>
		<path d="M2403 1366c6 0 9 3 9 9l0 53c0 7-3 10-9 10l-63 0 0-72 63 0 z M2125 1366l-1438 0 0 72 1438 0 0-72 z M472 1366l0 72-63 0c-6 0-9-3-9-10l0-53c0-6 3-9 9-9l63 0 z" fill="#9B9B9B"/>
		<path d="M1902 216c26 0 43 18 43 43l0 101c0 80-65 143-144 143-80 0-143-62-143-143l0-101c0-25 19-43 43-43l201 0 z M1081 216c19 0 37 16 37 37l0 107c0 80-62 143-143 143-80 0-144-64-144-143l0-107c0-19 16-37 37-37l213 0 z" fill="#533566"/>
		<path d="M1882 1384c23 0 27 18 27 36 1-15 13-25 27-25 14 0 26 10 27 25l2 0c3-11 15-18 25-18 14 0 27 12 27 27l0 36c0 14-12 27-27 27-5 0-10-2-15-5-8-5-6-13-13-13-3 12-14 21-26 21-12 0-23-9-26-21l-1 0c0 18-4 36-27 36-23 0-27-18-27-36l-1 0c-4 10-15 18-26 18-14 0-27-12-27-27l0-54c0-14 12-27 27-27 14 0 27 12 27 27 0-14 12-27 27-27 z M984 1384c15 0 27 13 27 27l0 54c0 14-12 27-27 27-11 0-22-8-26-18l-1 0c0 18-4 36-27 36-23 0-27-18-27-36l-1 0c-3 12-14 21-26 21-14 0-24-9-27-21l-2 0c-3 11-15 18-25 18-15 0-27-13-27-27l0-36c0-14 12-27 27-27 10 0 22 7 25 18l2 0c1-15 13-25 27-25 14 0 26 10 27 25 0-18 4-36 27-36 15 0 27 13 27 27 0-14 12-27 27-27 z" fill="#FFD7C2"/>
		<path d="M1792 1330c-14 0-27 12-27 27 0 14 12 27 27 27 14 0 27-12 27-27 0-14-12-27-27-27 z M1020 1330c14 0 27 12 27 27 0 14-12 27-27 27-15 0-27-13-27-27 0-14 12-27 27-27 z" fill="#F4C6AD"/>
		<path d="M2132 1078c35 0 65 28 65 65l0 108c0-50 38-65 79-65 38 0 64 32 64 65l0 302c0 50-40 64-79 64-34 0-64-29-64-64l0 108c0 49-39 64-79 64-33 0-65-26-65-64l0-518c0-50 38-65 79-65 z M694 1078c35 0 65 28 65 65l0 518c0 49-39 64-79 64-33 0-65-26-65-64l0-108c0 50-40 64-79 64-35 0-64-30-64-64l0-302c0-50 38-65 79-65 38 0 64 32 64 65l0-108c0-50 38-65 79-65 z" fill="#533566"/>
		<path d="M1550 755c14 0 28 3 41 8 13 5 24 12 34 21 10 9 18 19 24 31 6 12 9 25 9 40 0 10-2 20-6 30-5 10-7 17-7 22 0 5 2 13 6 22 4 9 6 19 6 29 0 10-2 20-5 29-3 9-8 18-13 27-12 18-18 37-18 56 0 15-3 28-9 41-6 13-14 24-24 33-10 9-22 16-35 21-13 5-27 7-42 7-6 0-11 2-15 7-12 13-25 24-40 32-15 7-31 11-50 11-21 0-37-4-50-11-13-7-26-18-40-32-5-5-10-7-15-7-14 0-28-2-41-7-13-5-25-12-35-21-11-9-19-20-25-33-7-13-10-26-10-41 0-21-6-39-17-56-6-9-11-18-14-26-3-9-5-19-5-30 0-10 2-19 6-28 4-9 6-17 6-24 0-7-2-15-6-23-4-9-6-18-6-28 0-15 3-28 9-40 6-13 14-23 24-32 10-9 22-15 35-20 13-5 26-8 40-8l52 0c11 0 18 2 23 6 4 3 7 8 8 15l1 10-1 11c-1 8-1 16-1 24l133 0 0-19-1-10 1-11c1-7 3-13 7-18 3-5 9-8 17-8l49 0 z" fill="#212121"/>
		<path d="M1568 894c30 0 54 25 54 54 0 30-25 53-54 53-29 0-54-21-54-53 0-30 22-54 54-54 z M1244 894c32 0 54 24 54 54 0 32-25 53-54 53-29 0-54-21-54-53 0-30 22-54 54-54 z" fill="#F4C6AD"/>
		<path d="M1400 734c99 0 169 70 174 167 1 29 4 60 4 89 0 21-17 41-39 41l-113 0c-73 0-112 63-120 63-8 0-18-37-55-57l-2 0c-13-7-27-26-27-41 0-31 3-64 4-95 3-96 79-167 174-167 z" fill="#FFD7C2"/>
		<path d="M1291 913c-8 7-21 14-21 26 0 15 27 24 39 24 26 0 39-8 53-29l-71-21 z M1521 913c7 7 22 15 22 26 0 15-28 24-40 24-26 0-39-8-53-29 9-4 43-12 71-21 z" fill="#000000"/>
		<path d="M1470 972c3 0 27 14 42 14l19-1c6 0 9 3 9 9 0 7-5 7-9 11l-14 0c-13 0-57-8-57-23 0-7 3-10 10-10 z M1343 970c5 0 10 6 10 11 0 14-47 26-58 26-9 0-21 0-21-12 0-5 2-8 5-8l10 0c24 0 51-17 54-17 z" fill="#212121"/>
		<path d="M1524 910l-75 0c-5 0-7 2-7 6 0 23 24 40 45 40 19 0 45-15 45-38 0-5-3-8-8-8 z M1363 910c3 0 8 2 8 6 0 23-24 40-45 40-19 0-46-15-46-38 0-4 5-8 9-8l74 0 z" fill="#FFFFFF"/>
		<path d="M1509 910l-58 0-1 8c0 16 15 29 30 29 17 0 30-13 30-29l-1-8 z M1361 910c1 3 2 5 2 8 0 16-15 29-30 29-17 0-30-13-30-29l1-8 57 0 z" fill="#7D4533"/>
		<path d="M1496 910l-30 0c-2 2-3 5-3 8 0 11 9 17 18 17 9 0 17-8 17-17 0-3-1-5-2-8 z M1347 910c1 1 2 4 2 8 0 9-8 17-17 17-9 0-17-8-17-17 0-3 1-5 2-8l30 0 z" fill="#000000"/>
		<path d="M1420 839c11 0 19 8 19 19l-2 12c-10 33-16 65-31 65-7 0-11-3-13-10-3-10-20-58-20-66 0-11 9-20 19-20l28 0 z" fill="#E5AF93"/>
		<path d="M1406 786c16 0 54 17 54 35 0 3-2 6-5 6-6 0-31-13-50-13-19 0-44 13-48 13-3 0-5-3-5-6 0-16 37-35 54-35 z" fill="#990838"/>
		<path d="M1471 924c4 0 6 2 6 6 0 3-2 5-6 5-3 0-5-2-5-5 0-4 2-6 5-6 z M1322 924c3 0 5 2 5 6 0 3-2 5-5 5-3 0-5-2-5-5 0-4 2-6 5-6 z" fill="#FFFFFF"/>
	</g></svg>
