<svg version="1.1" xmlns="http://www.w3.org/2000/svg" viewBox="0 0 2300 2300"><g transform="scale(1,-1) translate(-256, -1869)">
		<path d="M2089-287c179 0 323 147 323 323 0 179-145 324-323 324-177 0-324-143-324-324 0-178 145-323 324-323 z M723-287c179 0 324 145 324 323 0 177-143 324-324 324-178 0-323-145-323-324 0-179 147-323 323-323 z" fill="#321B41"/>
		<path d="M2089-72l-466 0 0 142 338 0-196 182 90 120 270-264-36-47 0-133 z M758-18l325 306-109 97-293-287 77-116 z" fill="#636363"/>
		<path d="M1550-144c82 0 143 63 143 144 0 76 19 151 58 216l-344 72-344-72c35-68 55-140 55-216 0-79 70-144 144-144l288 0 z" fill="#FF822D"/>
		<path d="M1752 216c25 44 57 82 95 113 37 31 80 56 127 75 59 23 116 50 171 81 55 31 105 70 149 115 17 17 30 36 37 55 7 19 10 41 10 66 0 19-7 36-21 50-14 13-31 20-50 20l-291 0c-21 0-37-5-46-16-10-11-17-24-20-39-3-12-5-26-5-40l0-9c1-17 1-33 1-47l-503 0c0 19-4 38-11 57-8 18-18 34-31 48-13 14-29 25-46 34-17 8-36 12-56 12l-467 0-108-144c16-16 29-33 40-51 10-19 21-38 32-57 5-9 11-18 16-25l16-22 14-24c4-9 8-18 11-29 27-13 53-27 77-42 23-15 45-31 65-48 20-18 39-38 56-59 17-22 33-47 48-74l690 0 z" fill="#F92F60"/>
		<path d="M2177 507c52 34 122 83 148 140l-128 0 0-1c-39 0-72-31-72-72 0-32 22-58 52-67 z" fill="#CA0B4A"/>
		<path d="M1839 503c38 0 70 30 70 70l0 74-503 0 0-74c0-40 32-70 70-70l363 0 z" fill="#533566"/>
		<path d="M1047 503l-72 0c-40 0-71 34-71 72 0 38 31 72 71 72l72 0 0-144 z M815 439c9 20 16 41 16 64 0 81-67 144-144 144 0-86 47-166 128-208 z" fill="#FCD53F"/>
		<path d="M2089-72c58 0 108 49 108 108 0 58-49 108-108 108-61 0-108-48-108-108 0-58 49-108 108-108 z M723-72c58 0 108 49 108 108 0 57-46 108-108 108-58 0-108-49-108-108 0-58 49-108 108-108 z" fill="#F4F4F4"/>
		<path d="M687 647c47 0 90 22 118 55l230 276c8 10 12 20 12 31 0 26-22 50-49 50-6 0-11-1-16-3-171-57-295-218-295-409 z" fill="#26C9FC"/>
		<path d="M1011 791c19 0 36 15 36 36 0 19-15 36-36 36l-143 0c-19 0-36-15-36-36 0-19 15-36 36-36l143 0 z" fill="#321B41"/>
	</g></svg>
