<svg version="1.1" xmlns="http://www.w3.org/2000/svg" viewBox="0 0 2300 2300"><g transform="scale(1,-1) translate(-256, -1869)">
		<path d="M853-188l256 448 270 207 145-203c26-36 69-60 117-60 10 0 20 1 30 3l446 100-44 124-392-34-147 289c0 19-3 37-10 56l20 8-32 21c5-9 9-18 12-29l-307-258-192 1c-16-13-32-25-47-40-29-24-62-126-75-162l-151-404 101-67 z M909 855c180 0 357 85 470 233l178 70c6 3 13 4 22 4 13 0 25-4 34-11l174-136c4-39 14-50 41-51 9-1 19-1 31-1 5-10 15-20 27-20 40 0 96 72 96 113 0 31-81 84-102 99l-165 126c-39 31-85 47-136 47-28 0-56-6-85-17l-236-93 21-53-31 24c-81-109-208-168-339-168-86 0-169 26-238 73-5 21-25 64-52 64-11 0-17-2-25-10-5 11-16 18-26 18-5 0-9-1-11-2-38-18-72-55-72-101 0-65 60-80 107-113 86-63 212-95 317-95 z" fill="#EEBFAA"/>
		<path d="M1167 1139l151 79-75 148-151-76 75-151 z" fill="#E4B29A"/>
		<path d="M783-281c15 0 25 6 31 18l39 72-80 109-230 0c-16 0-23-35-23-46 0-3 0-5 1-8 0-3 1-6 4-8 20-16 245-137 258-137 z M2232 147c13 0 45 17 45 33 0 12-81 240-91 264-7 15-17 23-32 23-18 0-77-23-95-31l-6-134c20-20 166-155 179-155 z" fill="#533566"/>
		<path d="M1488 313l161 102c24 15 39 43 39 72 0 15-4 30-13 45l-138 229-229-201 180-247 z" fill="#636363"/>
		<path d="M1270 283c30 0 57 16 73 38l164 229c25 36 52 94 52 137 0 34-19 77-39 103l-348-178-147-126 180-177c17-17 41-26 65-26 z" fill="#9B9B9B"/>
		<path d="M599 1026c6 0 9 3 9 9l0 26c0 5 2 10 4 16 1 3 3 5 5 7 2 2 3 4 3 7 0 6-3 9-9 9-1 0-3-1-6-4l-10-9-9-11c-3-4-6-7-8-8-5 0-9 1-12 4-3 3-5 6-5 11 0 5 2 10 7 16 4 6 9 12 14 17l15 15c4 5 6 8 6 10 0 2-1 4-3 6-2 2-4 3-6 3-3 0-6-2-11-6l-14-15-14-17c-4-6-8-9-8-13-2-5-3-10-3-15 0-10 3-18 10-25 7-7 15-10 24-10 5 0 9 2 12 5l-1-7 1-10c0-7 3-11 9-11 z" fill="#D19479"/>
		<path d="M1172 610l372 140c-36 66-138 258-140 330-2 37-22 100-59 143-25 29-59 31-88 31-82 0-155-60-173-136l-1 0c-13-51-19-103-19-155 0-128 37-251 108-353 z" fill="#8B62BF"/>
		<path d="M1258 1056c9 0 19 1 28 4l243 65-55 208-243-65c-47-13-81-53-81-104 0-58 49-108 108-108 z" fill="#A17FD5"/>
		<path d="M1065 1224c43 0 108 16 150 54 26 24 32 57 40 88 5 24 41 135 41 142 0 73-60 129-127 129l-84 1c-69 0-130-57-130-128l0-36c0-40-34-59-34-78 0-35 34-22 34-35 5-80 14-137 110-137 z" fill="#EEBFAA"/>
		<path d="M997 1318c18 0 44 16 44 36 0 4-5 8-8 8-13 0-11-26-37-26-4 0-9 2-13 2-4 0-7-5-7-9 0-10 13-11 21-11 z" fill="#990839"/>
		<path d="M1052 1500c7 0 10 3 10 9 0 3-6 12-11 12-13 8-28 12-45 12l-11-1c-5-1-7-3-7-8 0-12 10-9 36-12 15-3 21-12 28-12 z" fill="#A56953"/>
		<path d="M1037 1440c8 6 28 15 28 26 0 17-28 25-40 25-16 0-32-9-40-22l52-29 z" fill="#000000"/>
		<path d="M1048 1436c7 0 10 3 10 10 0 22-17 38-40 38-19 0-40-13-40-36 0-5 2-12 9-12l61 0 z" fill="#FFFFFF"/>
		<path d="M1025 1436c1 4 2 7 2 10 0 15-8 31-24 31-17 0-25-17-25-31 0-3 1-6 2-10l45 0 z" fill="#7D4533"/>
		<path d="M1010 1436c2 3 3 6 3 10 0 9-4 18-15 18-9 0-13-9-13-17 0-5 1-8 3-11l22 0 z" fill="#000000"/>
		<path d="M991 1454c3 1 4 3 4 6 0 3-1 5-4 6-3 0-5-2-5-6 0-4 2-6 5-6 z" fill="#FFFFFF"/>
		<path d="M1304 1207c15 0 30 3 44 9 13 6 25 14 36 25 10 10 18 22 24 36 6 14 9 29 9 44 0 18-3 33-9 44-6 11-13 20-20 29-8 9-15 17-21 25-6 8-9 19-9 32l2 15c4 16 7 32 8 49 1 16 2 32 2 49 0 50-12 88-35 115-23 27-60 40-111 40-20 0-39-3-58-9-19-6-38-9-57-9-8 0-16 1-23 4-8 2-16 5-23 8l-22 8c-7 3-15 4-22 4-11 0-22-3-32-9-11-6-20-13-27-22-8-9-14-20-18-31-5-11-7-22-7-33 0-13 3-25 8-36 5-11 13-20 22-27 9-8 19-14 31-18 11-4 23-6 36-6 13 0 24 3 35 8 11 5 22 7 33 7 19 0 35-7 46-21 10-13 16-28 16-45l0-4c-1-22-1-44-1-66-1-22-1-44-1-66 0-35 9-64 27-86 18-23 43-41 74-54l4-2c1-1 3-1 5-1 3-2 9-3 17-4l17-2 z" fill="#FFF9BA"/>
	</g></svg>
