<svg version="1.1" xmlns="http://www.w3.org/2000/svg" viewBox="0 0 2300 2300"><g transform="scale(1,-1) translate(-256, -1869)">
		<path d="M933-287c812 0 1479 667 1479 1482 0 80-4 163-19 241-27 147-129 243-270 269-80 15-163 20-244 20-812 0-1479-667-1479-1482 0-80 4-163 19-241 28-152 130-243 270-269 80-15 163-20 244-20 z" fill="#6D4534"/>
		<path d="M1192-264c108 20 212 51 313 93l-989 989c-42-101-73-205-93-313l769-769 z M2303 637c41 103 71 209 90 317l-752 752c-109-19-214-49-317-90l979-979 z" fill="#D3D3D3"/>
		<path d="M1190 332c36 0 63 29 63 63 0 18-6 33-18 45l-144 144c-12 12-27 18-45 18-36 0-62-29-62-63 0-17 6-32 18-44l144-144c13-13 27-19 44-19 z M1370 512c34 0 63 27 63 63 0 17-6 32-19 45l-143 143c-13 13-28 19-45 19-34 0-63-27-63-63 0-17 6-32 19-45l144-143c13-13 27-19 44-19 z M1550 692c34 0 63 27 63 63 0 17-6 31-19 44l-144 144c-13 13-27 19-44 19-34 0-63-27-63-63 0-16 6-33 18-45l144-144c12-12 29-18 45-18 z M1729 872c34 0 63 26 63 62 0 18-6 33-18 45l-144 144c-12 12-27 18-44 18-35 0-63-26-63-63 0-17 6-32 18-44l144-144c12-12 27-18 44-18 z" fill="#FFFFFF"/>
	</g></svg>
