<svg version="1.1" xmlns="http://www.w3.org/2000/svg" viewBox="0 0 2300 2300"><g transform="scale(1,-1) translate(-256, -1869)">
		<path d="M2412 220l0 643c-40 40-91 60-144 60-129 0-158-119-287-119-136 0-153 119-288 119-130 0-157-119-287-119-136 0-153 119-288 119-130 0-157-119-287-119-136 0-153 119-288 119-52 0-103-20-143-60l0-643 2012 0 z" fill="#26C9FC"/>
		<path d="M2405 138c0 187-86 352-224 461l-301 663c-88 194-282 319-496 319l-497 0c-58 0-108-29-145-65l-118-116c-11-11-17-25-17-41 0-13 4-25 13-36-16-15-27-29-27-52 0-30 23-56 56-56 15 0 28 5 40 16 11-19 28-31 51-31 59 0 76 94 175 94l435 0c122 0 232-71 283-183l175-385c-323-4-580-266-580-588l1177 0 z" fill="#8B5C56"/>
		<path d="M2412-282l0 643c-40 40-91 60-144 60-134 0-153-120-287-120-133 0-158 120-288 120-44 0-76-14-104-31-54-33-91-89-183-89-133 0-158 120-288 120-44 0-76-14-104-31-54-33-91-89-183-89-133 0-158 120-288 120-52 0-103-20-143-60l0-643 2012 0 z" fill="#0084CE"/>
		<path d="M1131 450c49 0 95 41 95 96 0 49-40 95-95 95-53 0-96-41-96-95 0-54 42-96 96-96 z M1527 847c50 0 95 41 95 95 0 50-41 96-95 96-54 0-96-42-96-96 0-54 45-95 96-95 z" fill="#8B5C56"/>
		<path d="M1394 358c52 0 99 21 133 55l133 133c34 34 55 81 55 132 0 45-17 93-46 126l-214 246c-51 59-127 97-212 97-106 0-161-45-235-119-53-55-82-124-82-198 0-85 38-161 97-212l246-214c36-30 82-46 125-46 z" fill="#966661"/>
		<path d="M1377 633c11 0 21 5 30 15 17 19 32 30 32 48 0 13-5 22-16 27-17 8-84 51-101 51-12 0-23-11-23-23 0-12 24-54 39-81 20-36 24-37 39-37 z" fill="#75443E"/>
		<path d="M1067 547c9 0 18 3 26 10l-23 19c-9 7-18 15-27 24-9 8-16 17-22 26-7 9-10 17-10 26l0 20c0 16-3 28-8 37-5 8-14 18-25 29-5-13-8-27-10-40-3-14-5-28-7-41 3-2 5-5 5-10l0-4c0-3 1-5 2-7l76-82c2-2 6-4 11-5l12-2 z M1516 980c6 8 9 17 9 27 0 3 0 6-1 11-1 5-3 8-5 10l-83 76c-3 1-6 2-11 2-5 0-8 1-9 3-10-7-21-12-33-16l-35-12c15-13 32-20 51-20 3 0 5 0 8 1l13 0c9 0 17-3 25-8 9-6 18-13 27-22 9-9 17-18 24-27 7-10 14-18 20-25 z" fill="#2D242D"/>
		<path d="M1043 557l69 42c17-15 36-23 58-23 23 0 42 8 59 25 8 8 16 16 25 23 8 7 16 15 23 24 7 8 12 17 17 27 4 9 6 20 6 32 0 12-3 24-8 36l39 39c12-5 24-8 36-8 23 0 43 8 60 25 8 8 16 16 25 23 8 7 16 15 23 24 7 8 12 17 17 27 4 9 6 20 6 32 0 21-8 41-24 58l45 65-43 40-53-80c-1 0-3 0-5 1l-5 0c-12 0-23-2-32-6-10-5-19-10-27-17-9-7-17-15-24-23l-23-24c-8-8-14-17-18-27-4-11-6-22-6-33 0-12 3-24 8-36l-40-39c-12 5-24 8-35 8-23 0-43-8-60-25l-26-25c-9-8-17-16-24-25-7-9-13-19-16-30-3-8-4-17-4-27l0-9-80-55 37-39 z" fill="#433B6B"/>
		<path d="M1177 612c17 0 30 6 41 17 21 21 48 40 48 72 0 30-25 57-56 57-15 0-29-6-40-17-22-22-49-40-49-72 0-30 25-57 56-57 z M1372 807c15 0 29 6 40 17 23 21 49 39 49 72 0 31-26 56-56 56-16 0-29-5-40-16-23-23-49-42-49-72 0-30 25-57 56-57 z" fill="#00A6ED"/>
		<path d="M968 636l-1 2 1 1c1 1 1 2 1 3 3 8 9 17 18 28 9 10 16 18 21 25 28 33 57 66 87 97l91 92 67 66 54 51c19 18 38 35 55 50 17 15 33 27 46 37 16 12 21 15 27 15-25 33-55 58-91 77-37 18-76 27-117 27-33 0-63-5-88-15-26-11-50-24-72-41-22-17-43-35-63-56l-62-65c-25-25-44-53-57-84-14-32-21-65-21-100 0-42 9-81 28-117 19-37 44-68 76-93 z" fill="#0092E7"/>
		<path d="M1473 542c33 0 58 27 58 58 0 32-25 59-58 59-33 0-58-27-58-59 0-31 25-58 58-58 z" fill="#990839"/>
	</g></svg>
