<svg version="1.1" xmlns="http://www.w3.org/2000/svg" viewBox="0 0 2300 2300"><g transform="scale(1,-1) translate(-256, -1869)">
		<path d="M2411-287l-2011 0 0 591c226 226 534 358 865 358 254 0 458 110 620 300 113 133 254 210 434 210l92 0 0-1459 z M1880 1152c40 0 71 34 71 72 0 38-32 71-71 71-38 0-72-31-72-71 0-39 31-72 72-72 z" fill="#B4F6FC"/>
		<path d="M892-193c23 0 44 3 63 10l933 310c84 27 139 109 139 193 0 111-89 208-204 208-23 0-44-3-63-10l-933-310c-83-29-139-103-139-193 0-111 86-208 204-208 z" fill="#8D65C5"/>
		<path d="M1170-4c51 0 91 39 91 90 0 13-3 26-10 41l-64 132c-14 30-46 52-81 52-52 0-91-42-91-92 0-15 3-28 9-40l64-132c14-30 47-51 82-51 z M1600 155c51 0 90 40 90 91 0 13-3 27-9 40l-64 133c-14 30-46 51-81 51-51 0-91-40-91-91 0-14 3-27 9-40l64-133c14-30 47-51 82-51 z" fill="#00A6ED"/>
		<path d="M1053 61c9 0 17 4 22 11l0 1 3 2c23 34 80 65 127 65 19 0 37-10 54-10 16 0 27 14 27 28 0 32-58 36-82 36-63 0-133-36-168-83-7-7-11-15-11-23 0-14 13-27 28-27 z M1497 210c5 0 13 4 22 13 9 8 19 17 32 27 12 9 26 18 43 27 16 8 34 12 55 12 9 0 19-2 28-5 9-3 17-5 26-5 7 0 14 3 19 8 5 5 8 12 8 19 0 8-3 15-9 20-7 5-14 8-23 11-9 3-18 4-27 5-9 1-17 1-23 1-30 0-58-6-84-19-26-13-50-30-71-51l-10-9c-4-4-7-8-7-9l0-1c-4-5-6-11-6-16 0-7 3-14 8-19 5-6 12-9 19-9 z" fill="#212121"/>
		<path d="M1192 186c11 0 22 2 33 6 11 4 20 10 28 17l121 109c21 19 38 42 49 68 11 26 17 53 17 81 0 16-2 32-7 48-5 16-11 31-16 45l-16 37c-5 10-8 17-8 20 0 4 3 8 9 11 5 3 12 6 19 9l22 6 13 2c7 0 12-3 17-9l93-136c-17-6-32-17-43-32-12-15-18-32-18-51 0-13 2-25 7-36 5-12 11-22 19-31 8-9 18-15 29-20 10-4 21-7 32-7 25 0 16 0 40 1 20 1 39 5 57 12 17 7 33 17 46 30 13 12 23 27 31 44 7 17 11 36 11 57 0 29-8 57-25 82l-219 323c-9 13-19 23-32 30-13 7-28 10-43 10-13 0-26-3-37-8-12-6-22-14-30-23-9-9-15-20-19-32-3-9-5-18-5-27l1-12-60-18c-9 11-19 19-32 25-13 5-26 8-39 8-25 0-46-9-63-27-17-18-26-40-26-65 0-15 3-27 8-38 1-4 5-12 11-24l21-42c7-17 15-34 24-52 8-19 16-36 23-51l17-40c5-11 7-18 7-19 0-4-6-12-17-23-11-12-24-24-39-37l-42-37c-14-11-23-19-27-23-10-9-18-20-23-32-6-13-9-26-9-39 0-25 9-46 26-63 17-18 39-27 64-27 z" fill="#9B9B9B"/>
		<path d="M1210 723c11 0 21 1 29 4l268 84c45 15 74 54 74 101 0 38-7 78-10 116 24-39 47-77 71-114 53-82 146-125 234-125l32 0c51 0 90 39 90 90 0 51-41 92-90 92-46 0-88 0-115 43l-149 241c-16 27-48 43-78 43-54 0-90-44-90-98l1-7-153 0c-7 42-47 71-89 71-14 0-27-3-39-9l-238-114c-72-35-117-108-117-188l0-111c0-51 40-91 91-91 48 0 92 39 92 91l0 111c0 8 5 19 13 23l97 46c-5-39-26-167-26-197 0-56 45-102 102-102 z" fill="#FF6723"/>
		<path d="M1553 1317c26 0 47 20 47 47l0 161c0 89-72 158-157 158l-141 0c-87 0-156-70-156-158l0-34c0-16 13-29 29-29l132 0 0-66c0-42 35-79 79-79l167 0 z" fill="#5092FF"/>
		<path d="M1544 1434c14 0 28 13 28 28 0 14-13 28-28 28-16 0-28-12-28-28 0-14 13-28 28-28 z" fill="#0074BA"/>
		<path d="M1333 1266l0 95-95 0 0-95 95 0 z M1601 1362l0 47-160 0 0-47 160 0 z" fill="#1C1C1C"/>
		<path d="M1454 1172c102 0 184 62 221 151l77 197c15 37 47 59 85 59l226 0c18 0 32 14 32 31l0 84c0 17-14 31-32 31l-226 0c-102 0-188-64-221-151l-77-197c-15-34-47-59-86-59l-315 0 0-23c0-67 57-123 123-123l193 0 z" fill="#83CBFF"/>
		<path d="M1405 1307c44 0 76 36 76 78 0 42-32 77-76 77l-199 0c-42 0-77-33-77-77 0-47 36-78 79-78 53 0 38 60 75 60 37 0 20-60 76-60l46 0 z" fill="#26EAFC"/>
		<path d="M1405 1289c54 0 95 43 95 96 0 49-40 95-95 95l-199 0c-53 0-95-44-95-95 0-53 41-96 95-96 62 0 64 59 77 59 13 0 17-59 76-59l46 0 z M1405 1325l-46 0c-40 0-23 60-76 60-26 0-38-17-47-40l0-1c-5-10-16-19-28-19-34 0-61 24-61 60 0 32 26 59 59 59l199 0c33 0 58-27 58-59 0-32-24-60-58-60 z" fill="#9B9B9B"/>
		<path d="M660 398c38 0 72 33 72 72 0 39-31 72-72 72-39 0-72-31-72-72 0-39 34-72 72-72 z M2229 393c57 0 105 45 105 105 0 59-48 105-105 105-57 0-105-46-105-105 0-59 47-105 105-105 z" fill="#FFFFFF"/>
		<path d="M897 679l-55 0c-39 0-67 30-67 67l0 56c0 35 28 67 66 67l0-27c0-51 40-91 91-91 11 0 22 2 33 6 0-41-20-78-68-78 z M2011 756c19 0 30 13 30 30 0 7-2 13-5 18 52 0 120 0 120 72 0 40-33 70-71 70l-118 0c-21 0-37-15-37-37l0-70c0-20 24-42 44-59 17-15 23-24 37-24 z" fill="#FFD7C2"/>
	</g></svg>
