<svg version="1.1" xmlns="http://www.w3.org/2000/svg" viewBox="0 0 2300 2300"><g transform="scale(1,-1) translate(-256, -1869)">
		<path d="M1406-287c547 0 1006 440 1006 1006 0 547-440 1006-1006 1006-547 0-1006-440-1006-1006 0-547 440-1006 1006-1006 z" fill="#FF6723"/>
		<path d="M1427-287l21 1c-150 142-219 347-219 547 0 192 65 396 200 545 284-238 500-513 657-829 19 17 35 35 54 54-161 320-383 596-660 825 130 115 287 167 459 167 158 0 309-43 453-103-6 30-13 59-21 86-135 52-280 89-431 89-188 0-368-56-516-193-68 56-140 106-213 154 206 222 471 392 740 509-25 16-50 30-77 45-269-124-520-292-725-515-61 37-117 70-181 103 36 89 53 171 53 263 0 60-8 119-21 179l-67-32c11-49 16-98 16-149 0-75-14-163-46-229-92 45-184 85-280 121-16-19-31-39-45-60 100-37 198-78 294-125-105-186-280-295-470-382-1-13-2-26-2-39l0-39c201 77 422 219 536 427 56-29 111-60 165-93-240-282-398-653-414-1025 23-23 46-45 70-65 0 379 156 759 405 1051 73-47 143-97 211-150-145-161-216-381-216-591 0-190 56-387 191-546l29-1 50 0 z" fill="#212121"/>
	</g></svg>
