<svg version="1.1" xmlns="http://www.w3.org/2000/svg" viewBox="0 0 2300 2300"><g transform="scale(1,-1) translate(-256, -1869)">
		<path d="M2049-287c3 9 4 18 4 27 0 12-3 23-14 30-37 21-110 55-138 86l-136 0 1-143 283 0 z M1047-287l0 143-137 0c-44-31-91-57-138-86-11-7-13-20-13-32 0-9 1-17 3-25l285 0 z" fill="#533566"/>
		<path d="M1670 719l-156 81 316 638c-5-11-10-21-10-32 0-18 15-22 29-22 19 0 97 23 97 46 0 3-1 5-4 6 19-5 57-19 57-44 0-11-4-19-8-27l-321-646 z M1142 719l156 81-316 638c5-11 9-21 9-32 0-18-13-22-28-22-18 0-97 23-97 46 0 3 1 5 4 6-19-5-57-19-57-44 0-11 4-19 8-27l321-646 z" fill="#FDD641"/>
		<path d="M1693 288l0 334c0 41 13 91 30 141 19 55 55 131 55 145 0 7-3 12-10 15l-182 98-36-158 3-5c-45 27-96 43-147 43-53 0-101-14-145-43l2 5-33 158-186-98c-7-3-10-9-10-17l1-6c5-19 16-37 23-54 24-61 60-159 60-224l0-334 575 0 z" fill="#00A6ED"/>
		<path d="M1568 894c30 0 54 25 54 54 0 30-25 53-54 53-29 0-54-21-54-53 0-30 22-54 54-54 z M1244 894c32 0 54 24 54 54 0 32-25 53-54 53-29 0-54-21-54-53 0-30 22-54 54-54 z" fill="#FECA46"/>
		<path d="M1407 0c188 0 271 54 430 148l36 67c16 55 30 157 40 216l-225-143-561 0-224 143 32-227 40-67c160-96 247-137 432-137 z" fill="#9B9B9B"/>
		<path d="M1899-144l27 363-199 0 38-363 134 0 z M1047-144l43 363-210 0 33-363 134 0 z" fill="#FDD641"/>
		<path d="M2403 1366c6 0 9 3 9 9l0 53c0 7-3 10-9 10l-63 0 0-72 63 0 z M2125 1366l-1438 0 0 72 1438 0 0-72 z M472 1366l0 72-63 0c-6 0-9-3-9-10l0-53c0-6 3-9 9-9l63 0 z" fill="#9B9B9B"/>
		<path d="M1902 216c26 0 43 18 43 43l0 101c0 80-65 143-144 143-80 0-143-62-143-143l0-101c0-25 19-43 43-43l201 0 z M1081 216c19 0 37 16 37 37l0 107c0 80-62 143-143 143-80 0-144-64-144-143l0-107c0-19 16-37 37-37l213 0 z" fill="#533566"/>
		<path d="M1882 1384c23 0 27 18 27 36 1-15 13-25 27-25 14 0 26 10 27 25l2 0c3-11 15-18 25-18 14 0 27 12 27 27l0 36c0 14-12 27-27 27-5 0-10-2-15-5-8-5-6-13-13-13-3 12-14 21-26 21-12 0-23-9-26-21l-1 0c0 18-4 36-27 36-23 0-27-18-27-36l-1 0c-4 10-15 18-26 18-14 0-27-12-27-27l0-54c0-14 12-27 27-27 14 0 27 12 27 27 0-14 12-27 27-27 z M984 1384c15 0 27 13 27 27l0 54c0 14-12 27-27 27-11 0-22-8-26-18l-1 0c0 18-4 36-27 36-23 0-27-18-27-36l-1 0c-3 12-14 21-26 21-14 0-24-9-27-21l-2 0c-3 11-15 18-25 18-15 0-27-13-27-27l0-36c0-14 12-27 27-27 10 0 22 7 25 18l2 0c1-15 13-25 27-25 14 0 26 10 27 25 0-18 4-36 27-36 15 0 27 13 27 27 0-14 12-27 27-27 z" fill="#FDD641"/>
		<path d="M1792 1330c-14 0-27 12-27 27 0 14 12 27 27 27 14 0 27-12 27-27 0-14-12-27-27-27 z M1020 1330c14 0 27 12 27 27 0 14-12 27-27 27-15 0-27-13-27-27 0-14 12-27 27-27 z" fill="#FECA46"/>
		<path d="M2132 1078c35 0 65 28 65 65l0 108c0-50 38-65 79-65 38 0 64 32 64 65l0 302c0 50-40 64-79 64-34 0-64-29-64-64l0 108c0 49-39 64-79 64-33 0-65-26-65-64l0-518c0-50 38-65 79-65 z M694 1078c35 0 65 28 65 65l0 518c0 49-39 64-79 64-33 0-65-26-65-64l0-108c0 50-40 64-79 64-35 0-64-30-64-64l0-302c0-50 38-65 79-65 38 0 64 32 64 65l0-108c0-50 38-65 79-65 z" fill="#533566"/>
		<path d="M1461 719c62 0 107 47 111 106 5 69 13 140 13 211 0 90-71 168-164 168l-30 0c-90 0-164-75-164-168 0-71 8-142 13-211 4-59 49-106 111-106l110 0 z" fill="#FDD641"/>
		<path d="M1580 935c12 0 19 6 21 19 6 35 20 86 20 123 0 43-28 57-53 70-40 20-52 72-109 72-19 0-34-9-53-9-22 0-36 12-57 12-36 0-58-31-80-55-31-31-79-33-79-90 0-37 14-86 21-121 3-11 10-19 21-19-1 19-3 35-3 54 0 27 30 31 30 61l0 29c0 9 5 16 14 19 41 13 89 15 133 15 44 0 92-2 133-15 9-3 14-10 14-19l0-31c0-37 31-30 31-65 0-16-3-34-4-50 z" fill="#FFB02F"/>
		<path d="M1346 963c11 0 19 7 19 18 0 24-49 34-68 34-12 0-24-3-24-19 0-15 14-17 26-17 25 0 39-16 47-16 z M1468 968c8 0 24 13 55 13 11 0 18 6 18 17 0 17-11 20-26 20-18 0-66-9-66-32 0-11 8-18 19-18 z" fill="#D37034"/>
		<path d="M1524 910l-75 0c-5 0-7 2-7 6 0 23 24 40 45 40 19 0 45-15 45-38 0-5-3-8-8-8 z M1363 910c3 0 8 2 8 6 0 23-24 40-45 40-19 0-46-15-46-38 0-4 5-8 9-8l74 0 z" fill="#FFFFFF"/>
		<path d="M1509 910l-58 0-1 8c0 16 15 29 30 29 17 0 30-13 30-29l-1-8 z M1361 910c1 3 2 5 2 8 0 16-15 29-30 29-17 0-30-13-30-29l1-8 57 0 z" fill="#7D4533"/>
		<path d="M1496 910l-30 0c-2 2-3 5-3 8 0 11 9 17 18 17 9 0 17-8 17-17 0-3-1-5-2-8 z M1347 910c1 1 2 4 2 8 0 9-8 17-17 17-9 0-17-8-17-17 0-3 1-5 2-8l30 0 z" fill="#000000"/>
		<path d="M1420 839c11 0 19 8 19 19l-2 12c-10 33-16 65-31 65-7 0-11-3-13-10-3-10-20-58-20-66 0-11 9-20 19-20l28 0 z" fill="#FFB02C"/>
		<path d="M1406 786c16 0 54 17 54 35 0 3-2 6-5 6-6 0-31-13-50-13-19 0-44 13-48 13-3 0-5-3-5-6 0-16 37-35 54-35 z" fill="#990839"/>
		<path d="M1471 924c4 0 6 2 6 6 0 3-2 5-6 5-3 0-5-2-5-5 0-4 2-6 5-6 z M1322 924c3 0 5 2 5 6 0 3-2 5-5 5-3 0-5-2-5-5 0-4 2-6 5-6 z" fill="#FFFFFF"/>
	</g></svg>
