<svg version="1.1" xmlns="http://www.w3.org/2000/svg" viewBox="0 0 2300 2300"><g transform="scale(1,-1) translate(-256, -1869)">
		<path d="M2185-288c125 0 227 101 227 227l0 1559c0 125-102 227-228 227l-1556 0c-125 0-227-100-227-227l0-1559c0-125 101-227 227-227l1557 0 z" fill="#F37366"/>
		<path d="M2185-288c31 0 61 6 89 18 27 12 51 28 72 49 20 20 36 44 48 72 12 27 18 57 18 88l0 535c0 8-4 15-13 21-9 5-17 8-24 8-14 0-23-4-27-11-4-8-7-16-9-25-2-9-5-18-8-25-4-7-13-11-26-11-11 0-19 4-25 12-7 7-10 16-10 26l0 141c0 14-4 23-11 28-8 4-16 7-25 9-9 2-18 5-25 9-8 4-12 13-12 28 0 8 1 18 2 30l0 11-1 24c-1 11-5 21-10 30-6 8-16 12-29 12l-157 0c-13 0-25-2-36-7-11-5-21-12-29-20-9-9-15-19-20-30-5-11-8-23-8-36l0-86c0-13-3-23-10-28-7-5-16-8-27-9l-17-1-35 2-17-1c-11-1-19-4-26-9-7-5-11-15-11-28 0-8 1-18 2-30l0-11-1-24c-1-11-5-21-10-29-6-9-15-13-28-13l-286 0c-14 0-23-4-26-11-4-8-7-16-9-25-2-9-5-18-9-25-5-7-14-11-28-11l-970 0 0-420c0-31 6-61 18-88 11-28 27-52 48-72 21-21 45-37 72-49 27-12 57-18 88-18l1558 0 z" fill="#9D5044"/>
		<path d="M2185-288c125 0 227 101 227 227l0 535c0 16-22 29-37 29-54 0-18-72-70-72-22 0-36 19-36 38l0 141c0 55-72 18-72 74l0 70c0 19-17 37-38 37l-106 0 0-214c0-38 29-73 70-73 37 0 74-31 74-73 0-42-37-72-74-72l-670 0c-62 0-112-51-112-112 0-53 42-103 99-103l468 0c81 0 144-67 144-144 0-81-67-144-144-144l-805 0c-12 0-22-10-22-22l0-122 1104 0 z" fill="#B35F47"/>
		<path d="M1873 935c65 0 56 61 99 61 18 0 35-19 61-19 34 0 64 29 64 64 0 11-4 20-4 31 0 59 104 19 104 102 0 48-42 49-42 83 0 35 43 37 43 83 0 83-104 43-104 103 0 11 5 22 5 33 0 35-30 63-64 63-29 0-40-19-62-19-42 0-34 62-99 62-64 0-56-61-98-61-24 0-34 19-61 19-34 0-65-29-65-64 0-11 4-22 4-33 0-59-103-19-103-101 0-46 42-49 42-83 0-35-43-35-43-82 0-88 104-40 104-103 0-11-5-22-5-33 0-36 29-63 63-63 27 0 42 19 62 19 43 0 35-62 99-62 z" fill="#FF822D"/>
		<path d="M1873 1008c135 0 255 107 255 251 0 138-114 251-255 251-139 0-254-112-254-251 0-141 115-251 254-251 z" fill="#F9C23C"/>
		<path d="M1143-288l0 550c230 0 407 101 407 348l0 163c0 74-63 113-129 113-71 0-126-33-126-113l0-156c0-24-5-42-14-55-29-41-83-42-138-42l0 323c0 140-116 251-251 251-138 0-252-110-252-251l0-679-45 0c-86 0-108 56-108 133l0 306c0 48-30 115-86 120l0-751c74-47 145-60 239-61l0-199 503 0 z" fill="#00F397"/>
		<path d="M1137 367l67 2c20 1 39 3 57 7 18 4 36 10 54 18 18 7 38 18 59 33 15 10 27 22 37 36 9 14 17 29 22 45 5 16 8 33 10 50 2 17 3 34 3 51l0 29c-1 9-1 19-1 28 0 5 0 12 1 19 0 7-1 14-2 21-1 7-4 12-7 17-4 5-10 7-19 7-10 0-17-4-21-12-4-9-6-19-7-30l0-11 1-24 2-28c0-20-1-39-3-58-3-34-13-61-30-80-17-19-37-34-61-43-24-10-50-16-79-18-29-3-56-4-83-5l0-54 z M1039-288l0 1058c0 15-13 27-27 27-14 0-27-12-27-27l0-1058 54 0 z M822-288l0 1058c0 14-12 27-27 27-14 0-27-12-27-27l0-712-1 1-101 0c-101 0-204 22-266 114l0-82c76-70 177-86 270-86l98 0 0-293 54 0 z" fill="#00D26A"/>
		<path d="M1051 575c14 0 26 11 26 26 0 15-12 27-26 27l-66 0 0-53 66 0 z M985 75c3 1 11 6 23 17 50 45 108 94 108 114 0 14-12 26-27 26-6 0-12-2-18-7l-86-80 0-70 z M822 253l0 78-63 69c-5 5-12 8-20 8-14 0-26-12-26-27 0-5 2-11 7-17l102-111 z M479 387c17 0 57 41 57 58 0 14-12 27-27 27-8 0-11-2-18-8-25-22-28-27-28-58 0-11 5-19 16-19 z M1475 322c14 0 26 12 26 27 0 7-3 14-8 19-12 12-30 39-52 39-14 0-26-11-26-26 0-11 7-21 16-29 18-17 31-30 44-30 z M1168-79c14 0 26 11 26 26 0 15-12 27-26 27l-39 0c-14 0-27-12-27-27 0-14 12-26 27-26l39 0 z M653-179c15 0 26 12 26 26 0 15-12 27-26 27l-39 0c-15 0-27-13-27-27 0-14 12-26 27-26l39 0 z M652 673c14 0 26 12 26 27 0 14-11 26-26 26l-39 0c-15 0-27-12-27-26 0-14 12-27 27-27l39 0 z M1353 793c14 0 26 12 26 27 0 19-43 58-59 58-14 0-27-12-27-27 0-7 3-14 8-19 11-11 34-39 52-39 z M1086 942c7 0 14 3 19 8 14 14 40 29 40 51 0 17-12 26-26 26-11 0-20-5-29-15-18-21-31-29-31-44 0-14 12-26 27-26 z M691 944c12 0 26 21 26 33 0 18-33 51-52 51-14 0-26-11-26-26 0-19 42-58 52-58 z" fill="#86D72F"/>
	</g></svg>
