<svg version="1.1" xmlns="http://www.w3.org/2000/svg" viewBox="0 0 2300 2300"><g transform="scale(1,-1) translate(-256, -1869)">
		<path d="M1062-291c-244 0-447 197-447 447 0 58 11 115 34 170 42 107 76 232 215 232 98 0 179-79 179-180 0-72-56-131-56-199 0-72 61-131 131-131 52 0 100 31 121 82l80 195 133-14 120-90-97-234c-70-169-232-278-413-278 z M1640 387l108 264c-19 10-39 22-62 36-69 42-125 48-191 67l-108-263 127-95 126-9 z M1789 750l32 78-92 71-160 34-33-79c65-39 175-88 253-104 z" fill="#E39D89"/>
		<path d="M1981-287c121 0 216 97 216 215 0 121-99 216-216 216-121 0-216-99-216-216 0-119 97-215 216-215 z" fill="#D3D3D3"/>
		<path d="M1748 651l41 99-253 104-41-100 253-103 z M1821 828l310 756c3 8 5 16 5 23 0 24-15 47-38 56-33 14-134 62-163 62-26 0-47-15-56-37l-310-755 252-105 z" fill="#533566"/>
		<path d="M1572 221l68 166-253 104-68-166 253-104 z" fill="#FFFFFF"/>
	</g></svg>
