<svg version="1.1" xmlns="http://www.w3.org/2000/svg" viewBox="0 0 2300 2300"><g transform="scale(1,-1) translate(-256, -1869)">
		<path d="M2187-288c125 0 227 102 227 228l0 1559c0 125-101 227-227 227l-1560 0c-125 0-227-101-227-227l0-1559c0-125 99-228 227-228l1560 0 z" fill="#26C9FC"/>
		<path d="M889 880c114 0 207 94 207 207 0 114-90 207-207 207-114 0-207-94-207-207 0-114 94-207 207-207 z" fill="#D3D3D3"/>
		<path d="M2414 425l0 798c-63 0-131-14-186-46-62-36-108-43-168-106-34 34-80 56-131 56-72 0-133-41-163-104l-15 0c-51 186-219 319-414 319-157 0-277-76-360-197-18-26-40-53-75-53-20 0-34 7-52 16-57 28-103 42-162 42-117 0-230-62-288-166l0-333c60-104 167-167 288-167l649 0c75 0 147 20 212 56 55-61 131-98 217-98l530 0c5 0 11-1 16-3 34-13 70-14 102-14 z" fill="#E6E6E6"/>
		<path d="M640 108l1774 538 0 345-445 446c-26 26-63 42-102 42-39 0-76-16-102-42l-169-169c-80-80-161-9-238-102-120-145-234-282-350-419l-218 217c-26 26-63 43-102 43-39 0-76-17-102-43l-169-168c-7-7-10-11-17-15l0-134 319-241-79-94c-27-32-42-60-42-102 0-39 16-76 42-102 z" fill="#635994"/>
		<path d="M2084 546c24 8 326 100 330 100l0 345-445 446c-26 26-63 42-102 42-39 0-76-16-102-42l-169-169c-30-30-71-45-110-45-2 0-4 0-6 1-3 0-5-1-7-2l0-160c0-67 54-121 121-121 57 0 118-22 163-67l327-328 z" fill="#433B6B"/>
		<path d="M2414 318l0 330-128 0c9 8 14 18 14 31 0 21-30 73-51 111-25 44-27 52-54 52-16 0-32-10-38-24-14-25-62-117-62-139 0-13 5-23 14-31l-731 0c16 0 30 12 30 30 0 8-9 29-20 49-23 44-31 65-54 65-13 0-22-6-27-17-8-19-44-80-44-97 0-17 13-30 29-30l-566 0c6 8 9 17 9 28 0 9-2 16-5 22l-72 139c-8 16-25 26-43 26-19 0-35-10-43-27-13-27-72-136-72-160 0-11 3-20 9-28l-109 0 0-330 2014 0 z" fill="#00F397"/>
		<path d="M2187-288c125 0 227 102 227 228l0 413c-335 53-668 79-1007 79-339 0-672-26-1007-79l0-413c0-125 99-228 227-228l1560 0 z" fill="#00A6ED"/>
	</g></svg>
