<svg version="1.1" xmlns="http://www.w3.org/2000/svg" viewBox="0 0 2300 2300"><g transform="scale(1,-1) translate(-256, -1869)">
		<path d="M2196-287c116 0 216 95 216 216l0 574c0 81-67 144-144 144l-1725 0c-80 0-143-65-143-144l0-574c0-121 99-216 216-216l1580 0 z" fill="#608842"/>
		<path d="M2053 504l0 298-215 0 0-298 215 0 z" fill="#8C5543"/>
		<path d="M2202 790c119 0 214 96 214 216 0 80-29 113-77 166-6 7-9 14-9 23 0 8 2 16 5 24l0 1c5 8 9 50 9 60 0 81-45 150-111 188-19 11-36 14-55 22-24 10-21 42-24 63-15 81-97 171-212 171-94 0-176-60-205-147-6-22-8-43-11-65-1-8-3-17-11-21-19-8-38-10-57-21-74-38-116-112-116-190 0-27 6-53 15-78 0-4 2-5 2-13 0-26-81-71-81-183 0-114 93-216 212-216l512 0 z" fill="#96C34A"/>
		<path d="M817 1248c50 0 95 41 95 95 0 52-43 94-95 94-55 0-95-45-95-94 0-54 45-95 95-95 z" fill="#D3D3D3"/>
		<path d="M1047 1075c126 0 204 108 204 226 0 116-105 207-219 207-156 0-183-137-223-137-25 0-50 17-87 17-84 0-149-71-149-159 0-111 87-154 184-154l290 0 z" fill="#E6E6E6"/>
		<path d="M2110-1c37 0 60 20 60 58 0 17-5 32-10 48-34 97-75 186-111 282-71 178-147 368-215 549l-890 0c-28 0-40-16-49-37-28-64-56-133-85-209-90-238-87-225-174-443-17-45-37-90-53-135-7-19-13-36-13-56 0-46 36-57 74-57l1466 0 z" fill="#F9C23C"/>
		<path d="M1336-1c-69 0-99 41-121 93-83 195-175 431-251 621l0-714 372 0 z" fill="#433B6B"/>
		<path d="M942-1l0 639c0 0 20 69 23 75-11 26-68 156-68 181 0 6 1 11 4 16l-8-16c-18-43-34-78-51-123-70-183-145-368-211-537-16-42-33-80-48-122-7-19-13-37-13-56 0-46 36-57 74-57l298 0 z" fill="#FFB02E"/>
		<path d="M966-1l0 715-166-453c-29-77-54-156-87-232-5-11-8-23-19-30l272 0 z" fill="#FF6723"/>
		<path d="M1646 431c29 0 60 12 60 48 0 8-2 17-5 27-16 47-33 94-52 141-19 48-54 72-105 72l-111 0c-33 0-67-11-67-51 0-26 38-134 49-162 21-55 49-75 109-75l122 0 z" fill="#FF822D"/>
	</g></svg>
