<svg version="1.1" xmlns="http://www.w3.org/2000/svg" viewBox="0 0 2300 2300"><g transform="scale(1,-1) translate(-256, -1869)">
		<path d="M1586-34c19 0 37 17 37 38l0 1227c0 21-18 38-37 38l-284 0c-21 0-38-16-38-38l0-1227c0-21 16-38 38-38l284 0 z" fill="#6D4534"/>
		<path d="M2326-144c-194 296-522 474-878 474-354 0-682-177-877-474l1755 0 z" fill="#FF944C"/>
		<path d="M2121 1259c34 0 64 25 64 61l-1 11c-37 184-195 323-388 323-186 0-357-134-390-328-32 191-201 328-390 328-192 0-348-135-388-323l-1-11c0-36 32-61 64-61l1430 0 z" fill="#96C34A"/>
		<path d="M903 756c17 0 32 6 44 18l441 441c11 11 16 23 17 36 3-13 6-27 17-38l429-428c12-12 26-18 42-18 79 0 111 175 111 233 0 201-161 366-368 366-60 0-222-33-230-102-8 75-176 109-239 109-207 0-378-165-378-378 0-59 35-239 114-239 z" fill="#608842"/>
		<path d="M1585 791c81 0 144 67 144 144 0 80-65 143-144 143-80 0-144-64-144-143 0-81 67-144 144-144 z M1299 936c80 0 143 62 143 143 0 80-62 143-143 143-80 0-143-62-143-143 0-80 62-143 143-143 z" fill="#D3883E"/>
		<path d="M2348-215c34 0 66 28 66 64l0 34c0 40-37 72-74 77-74 8-123 40-189 40-105 0-147-72-247-72-105 0-148 72-248 72-106 0-148-72-248-72-105 0-148 72-248 72-105 0-147-72-247-72-105 0-148 72-248 72-86 0-133-39-208-63-35-11-57-38-57-75 0-44 35-77 77-77l1871 0 z" fill="#00A6ED"/>
	</g></svg>
