<svg version="1.1" xmlns="http://www.w3.org/2000/svg" viewBox="0 0 2300 2300"><g transform="scale(1,-1) translate(-256, -1869)">
		<path d="M716-226l115 298-33 290-104 0c-162 0-294-131-294-294 0-84 34-156 86-208 63-63 129-86 230-86 z M1369-223c49 5 95 15 140 32 44 17 85 39 123 66 38 27 72 60 102 97 30 37 55 77 75 121l89 196 88 196-216 124c-37-57-82-105-136-144-55-39-115-68-180-85l-56-205c-5-20-10-37-15-51-5-14-10-31-13-52-2-12-3-23-3-33l1-16c1-13 2-30 2-49l-1-197 z" fill="#F3AD61"/>
		<path d="M1981 476l306 681-219 101-259-577c-13-31-30-59-49-86l221-119 z" fill="#F8312F"/>
		<path d="M2348-226c35 0 63 30 63 64l0 132c0 36-29 63-63 63l-393 0c-36 0-63-29-63-63l0-132c0-34 28-64 63-64l393 0 z M2286 1155l115 256c7 15 11 32 11 50 0 69-53 121-122 121-49 0-89-28-109-72l-115-258 220-97 z" fill="#533566"/>
		<path d="M1151-226l75 294c2 14 3 27 3 39l-1 32 6 223-218 0c-52-196-26-98-77-294-2-12-3-23-3-33l2-38-5-223 218 0 z" fill="#F4F4F4"/>
		<path d="M933-226l83 588-218 0-82-588 217 0 z M1317-226c17 0 35 1 52 3l85 603c-57-16-112-18-163-18l-57 0-83-588 166 0 z" fill="#D3D3D3"/>
	</g></svg>
