<svg version="1.1" xmlns="http://www.w3.org/2000/svg" viewBox="0 0 2300 2300"><g transform="scale(1,-1) translate(-256, -1869)">
		<path d="M1873-108l521 432 0 151-534 711-40 33c-60 47-133 87-214 87-127 0-239-101-367-101-71 0-135 29-191 67l-593-797 0-187 1418-396 z" fill="#8C5543"/>
		<path d="M507 257l72 67c-33 33-50 79-50 122 0 39 12 75 36 106l441 574 54-1c-44 20-86 46-126 73l-543-723 0-187 116-31 z M1903 1128l-6 8-26 6c11-4 21-9 32-14 z" fill="#7D4533"/>
		<path d="M2394-212l0 543c-205-109-458-193-702-193-228 0-447 71-651 146-129 47-261 74-398 74-87 0-174-10-252-35l0-535 2003 0 z" fill="#00D26A"/>
		<path d="M1242 1060c165 0 271 158 435 158 77 0 149-32 212-70l-307 407c-1 3-22 15-23 16-43 27-89 42-138 42-74 0-137-37-179-93l-274-366c82-52 173-94 274-94 z" fill="#FFFFFF"/>
		<path d="M1009 1130l266 354c44 58 111 94 189 94 47 0 91-13 130-38-57 71-114 110-202 110-78 0-145-37-189-95l-280-371c28-19 57-37 86-54 z" fill="#CDC4D6"/>
	</g></svg>
