<svg version="1.1" xmlns="http://www.w3.org/2000/svg" viewBox="0 0 2300 2300"><g transform="scale(1,-1) translate(-256, -1869)">
		<path d="M1598 82c104 0 203 43 283 100 199 139 320 343 320 594 0 375-298 679-680 679-183 0-355-71-484-200-112-112-202-255-202-414 0-234 191-368 321-511 119-131 273-248 442-248 z" fill="#E39D89"/>
		<path d="M780-230c26 0 60 9 79 31l350 403c29 33 43 65 43 106 0 71-39 102-87 150-28 28-66 43-106 43-43 0-75-16-105-43l-393-360c-23-22-35-52-35-82 0-46 25-93 53-124 52-60 110-124 201-124 z" fill="#FBB8AB"/>
		<path d="M780-230c48 0 90 21 90 78 0 117-141 265-261 265-58 0-82-46-82-95 0-44 25-93 52-124 56-62 108-124 201-124 z" fill="#E39D89"/>
		<path d="M1679 144c104 0 203 44 282 100 196 137 319 345 319 594 0 375-298 679-680 679-183 0-355-71-484-200-112-112-202-254-202-413 0-205 138-327 269-458 137-139 281-302 496-302 z" fill="#E5336D"/>
		<path d="M1345 1218c125 0 227 101 227 227 0 125-101 227-227 227-125 0-227-101-227-227 0-125 101-227 227-227 z" fill="#E6E6E6"/>
	</g></svg>
