<svg version="1.1" xmlns="http://www.w3.org/2000/svg" viewBox="0 0 2300 2300"><g transform="scale(1,-1) translate(-256, -1869)">
		<path d="M1406-359c586 0 1078 472 1078 1078 0 586-472 1078-1078 1078-586 0-1078-472-1078-1078 0-586 472-1078 1078-1078 z" fill="#9B9B9B"/>
		<path d="M1406-287c547 0 1006 440 1006 1006 0 547-440 1006-1006 1006-547 0-1006-440-1006-1006 0-547 440-1006 1006-1006 z" fill="#F4F4F4"/>
		<path d="M1533-279c51 6 100 16 149 30 124 201 197 424 197 665 0 220-59 396-147 573 79 43 163 67 254 71 103-178 159-443 159-658 0-145-22-288-63-428 55 51 105 107 150 170 14 85 21 170 21 256 0 215-47 463-144 656 93-11 182-40 269-77-12 45-27 90-46 133-101 35-206 57-312 57-277 0-517-157-647-396-85 4-168 23-248 56 13 24 23 48 38 71 206 350 573 515 965 520-35 36-74 70-116 102-143-12-280-45-407-100-241-103-465-306-576-543-77 51-143 116-194 193 171 283 444 502 749 637-76 14-126 16-210 16-229-129-439-309-598-543-36 83-58 170-71 259-32-32-63-65-91-101 83-394 357-654 756-675 31-74 45-169 46-247-34-3-63-7-97-7-386 0-686 304-876 600-14-47-25-95-33-144 206-289 521-564 908-564 31 0 59 1 90 5-15-91-46-175-93-254-269 8-560 140-804 309-11 8-54 37-62 45 21-67 49-129 83-188 207-135 470-246 707-269-56-65-121-121-192-172 41-16 84-29 127-40 208 168 350 396 350 669 0 76-10 154-31 229-7 23-24 57-27 80 0 8 36 59 41 66 39 55 83 104 135 145 88-153 129-344 129-511 0-253-91-490-238-696 z" fill="#BEBEBE"/>
	</g></svg>
