<svg version="1.1" xmlns="http://www.w3.org/2000/svg"><g transform="scale(1,-1)">
		<path d="M1586-287c58 0 107 47 107 108l0 107-575 0 0-107c0-58 49-108 108-108l360 0 z" fill="#635994"/>
		<path d="M1703-72c217 112 350 335 350 575l0 432c0 244-137 464-350 575l-594 0c-217-112-350-335-350-575l0-432c0-244 137-464 350-575l594 0 z" fill="#FF822D"/>
		<path d="M1888 72c36 41 68 86 93 135l0 9-1150 0 0-9c25-49 56-94 93-135l964 0 z M2037 360c11 47 16 95 16 143l-1294 0c0-48 5-96 16-143l1262 0 z M2053 647l0 144-1294 0 0-144 1294 0 z M2053 935c0 48-5 96-16 143l-1262 0c-11-47-16-95-16-143l1294 0 z M1981 1222l0 9c-25 49-57 94-93 135l-964 0c-37-41-68-86-93-135l0-9 1150 0 z" fill="#CA0B4A"/>
		<path d="M1693 1510l0 107c0 60-49 108-107 108l-360 0c-58 0-108-49-108-108l0-107 575 0 z" fill="#635994"/>
	</g></svg>
