<svg version="1.1" xmlns="http://www.w3.org/2000/svg" viewBox="0 0 2300 2300"><g transform="scale(1,-1) translate(-256, -1869)">
		<path d="M2340-287l0 1431-1869 0 0-1431 1869 0 z" fill="#FBB8AB"/>
		<path d="M975-287l0 1365-72 0 0-1365 72 0 z" fill="#FF8687"/>
		<path d="M1909-287l0 1365-72 0 0-1365 72 0 z" fill="#FF8687"/>
		<path d="M1836-287l0 1536c0 234-203 404-430 404-219 0-431-162-431-404l0-1536 861 0 z" fill="#FBB8AB"/>
		<path d="M1765-287l0 569c0 46-43 78-86 78l-546 0c-43 0-86-32-86-78l0-569 718 0 z" fill="#FF8687"/>
		<path d="M1662-217c17 0 31 12 31 31l0 474c0 18-14 31-31 31l-184 0c-18 0-32-14-32-31l0-473c0-17 14-32 32-32l184 0 z M1341-218l-191 0c-17 0-32 14-32 32l0 474c0 17 14 31 32 31l191 0c18 0 32-14 32-31l0-476c0-18-16-30-32-30 z M2153 72c24 0 44 19 44 44l0 136c0 58-49 108-108 108-58 0-108-49-108-108l0-136c0-25 18-44 44-44l128 0 z M2153 575l-128 0c-24 0-44 19-44 44l0 136c0 57 46 108 108 108 58 0 108-49 108-108l0-136c0-25-20-44-44-44 z M787 72c25 0 44 20 44 44l0 136c0 58-49 108-108 108-58 0-108-49-108-108l0-136c0-24 19-44 44-44l128 0 z M787 575c24 0 44 19 44 44l0 136c0 57-46 108-108 108-61 0-108-48-108-108l0-136c0-24 19-44 44-44l128 0 z" fill="#83CBFF"/>
		<path d="M1406 1078c-45 0-160 121-187 159-19 27-29 57-29 91 0 61 51 110 111 110 66 0 99-59 105-59 5 0 38 59 104 59 59 0 112-47 112-108 0-35-10-66-29-93-28-38-139-159-187-159 z M1761 289c-14 0-25 6-32 18l-15 0c-7-12-18-18-32-18-14 0-25 6-32 18l-15 0c-7-12-18-18-32-18-14 0-25 6-32 18l-15 0c-7-12-18-18-32-18-13 0-24 6-33 18l-14 0c-7-12-18-18-32-18-13 0-24 6-33 18l-14 0c-7-12-18-18-32-18-13 0-24 6-33 18l-14 0c-7-12-18-18-32-18-15 0-26 6-33 18l-14 0c-7-12-18-18-32-18-15 0-26 6-33 18l-14 0c-7-12-18-18-32-18-15 0-26 6-33 18l-14 0c-7-12-18-18-33-18-21 0-39 18-39 40 0 7 3 14 6 21 77 139 232 224 390 224 163 0 308-86 390-224l1-2c0-8 4-13 4-19 0-22-17-40-40-40 z M1513 647c19 0 37 13 37 35l0 289c0 20-15 35-35 35-19 0-37-13-37-35l0-108-144 0 0 108c0 18-16 35-35 35-19 0-37-13-37-35l0-289c0-18 16-35 35-35 19 0 37 13 37 35l0 108 144 0 0-108c0-18 16-35 35-35 z M2365 1006c27 0 47 22 47 48 0 131-109 240-240 240l-244 0-1 4c-49 239-257 427-521 427-251 0-462-169-521-427-1-2-1-1-1-3l-244 0c-134 0-240-111-240-241 0-26 20-48 47-48l491 0c4 0 7 1 9 3 30 5 56 31 56 64l0 116c0 214 171 404 403 404 224 0 403-183 403-404l0-116c0-33 26-59 56-64 3-2 6-3 9-3l491 0 z" fill="#F8312F"/>
	</g></svg>
