<svg version="1.1" xmlns="http://www.w3.org/2000/svg" viewBox="0 0 2300 2300"><g transform="scale(1,-1) translate(-256, -1869)">
		<path d="M2197-216l0 1079-786 735-436-364 0 382c0 21-17 37-39 37l-210 0c-22 0-39-16-39-37l0-622-72-60 0-1150 1582 0 z" fill="#F3C07B"/>
		<path d="M1400-72c3 0 7 3 7 6l0 757c0 56-44 97-98 97l-380 0c-54 0-98-41-98-97l0-757c0-4 2-6 6-6l563 0 z" fill="#8C5543"/>
		<path d="M1298 359c19 0 36 15 36 36 0 19-15 36-36 36-19 0-36-15-36-36 0-19 15-36 36-36 z" fill="#402A32"/>
		<path d="M1403-144c38 0 72 33 72 72 0 39-31 72-72 72l-572 0c-39 0-72-31-72-72 0-39 34-72 72-72l572 0 z" fill="#D3D3D3"/>
		<path d="M2412-216c0 80-57 144-137 144l-1738 0c-87 0-137-68-137-144l2012 0 z" fill="#00F397"/>
		<path d="M487 646c24 0 46 10 62 26l858 845 856-842c17-17 38-26 62-26 47 0 87 39 87 86 0 25-9 45-26 61l-917 904c-17 17-37 25-62 25-23 0-43-8-61-25l-920-906c-16-16-26-39-26-61 0-49 42-87 87-87 z" fill="#F8312F"/>
		<path d="M1919 359c36 0 62 28 62 62l0 308c0 34-26 62-62 62l-307 0c-34 0-62-26-62-62l0-308c0-36 28-62 62-62l307 0 z" fill="#83CBFF"/>
	</g></svg>
