<svg version="1.1" xmlns="http://www.w3.org/2000/svg" viewBox="0 0 2300 2300"><g transform="scale(1,-1) translate(-256, -1869)">
		<path d="M2340-287l0 1365-1868 0 0-1365 719 0 215 86 216-86 718 0 z" fill="#9B9B9B"/>
		<path d="M2340 1006c38 0 72 33 72 72 0 39-31 72-72 72l-1868 0c-39 0-72-31-72-72 0-39 34-72 72-72l1868 0 z" fill="#F8312F"/>
		<path d="M1981-287l0 1854c0 93-84 100-158 100l-834 0c-72 0-158-7-158-100l0-1854 359 0c0 0 200 67 216 71 16-4 217-71 217-71l358 0 z" fill="#D3D3D3"/>
		<path d="M1083 935l288 1c31 0 60 5 89 16 28 11 53 26 75 45 22 19 41 42 56 68 15 26 24 55 28 86l1 0 0 5 1 14c1 6 1 12 1 18 0 29 0 59-1 88-1 29-2 58-2 87 0 19 3 36 9 52 5 15 12 29 19 41 7 11 13 21 19 28 6 7 9 12 9 13 0 3-1 6-3 9-2 3-5 4-8 4l-162-1c-7 0-11-4-11-11 0-1 3-5 9-12l19-28c7-12 13-26 19-41 6-15 9-32 10-50-24 23-51 41-82 54-31 12-63 18-96 18-35 0-67-7-98-20-31-13-57-31-80-54-23-23-41-49-54-80-13-31-20-63-20-98 0-34 7-67 20-98 13-31 32-59 57-82l-112 0c-10 0-18-3-25-10-7-7-11-16-11-26 0-9 4-18 11-25 7-7 16-11 25-11 z M1371 1007c-98 0-181 80-181 180 0 98 78 180 180 180 73 0 141-43 169-117 3-7 9-26 9-33l0-58c0-7-5-26-8-33-28-75-95-119-169-119 z" fill="#FF822D"/>
		<path d="M1730 575c18 0 36 17 36 36l0 145c0 19-15 36-36 36l-216 0c-18 0-36-17-36-36l0-145c0-19 15-36 36-36l216 0 z M1729 288c19 0 36 15 36 36l0 144c0 19-15 36-36 36l-216 0c-19 0-36-15-36-36l0-144c0-18 17-36 36-36l216 0 z M1298 288c19 0 36 18 36 36l0 144c0 19-15 36-36 36l-216 0c-19 0-36-15-36-36l0-144c0-19 15-36 36-36l216 0 z M2225 360c23 0 43 20 43 43l0 344c0 23-18 44-43 44l-128 0c-24 0-44-19-44-44l0-344c0-25 21-43 44-43l128 0 z M715 360c22 0 44 18 44 43l0 344c0 24-19 44-44 44l-128 0c-24 0-44-19-44-44l0-344c0-25 21-43 44-43l128 0 z M1299 575c18 0 36 17 36 36l0 145c0 18-17 36-36 36l-216 0c-19 0-36-15-36-36l0-145c0-19 15-36 36-36l216 0 z" fill="#83CBFF"/>
		<path d="M975-287l0 287c0 81-67 144-144 144-81 0-144-67-144-144l0-287 72 0 0 24c0 26 10 48 40 48l64 0c31 0 40-22 40-48l0-24 72 0 z M1981 1581c39 0 72 34 72 72 0 38-33 72-72 72l-1150 0c-39 0-72-31-72-72 0-38 33-72 72-72l1150 0 z" fill="#F8312F"/>
		<path d="M867 0c19 0 36 15 36 36 0 19-15 36-36 36l-72 0c-19 0-36-15-36-36 0-19 15-36 36-36l72 0 z M1622-287l0 332c0 54-46 99-99 99l-234 0c-56 0-99-43-99-99l0-332 432 0 z" fill="#1C1C1C"/>
	</g></svg>
