<svg version="1.1" xmlns="http://www.w3.org/2000/svg"><g transform="scale(1,-1)">
		<path d="M1150-221c59 0 110 14 153 43 43 28 81 66 112 115 31-47 68-85 111-112 43-27 93-41 151-41 35 0 67 5 97 16 30 10 57 25 81 45 23 19 43 43 60 70 16 27 28 58 35 92l27-1c32 0 62 4 89 13 35 11 65 29 91 52 26 23 47 52 64 85 16 33 27 71 33 112l2 12 0 12c0 17-2 34-7 53-5 19-12 37-20 56-8 18-17 35-27 52-11 17-21 32-32 45 35 10 68 24 98 42 29 17 55 38 76 63 21 25 38 53 50 85 11 31 17 66 17 104 0 51-13 96-39 137-26 41-60 74-103 99 7 19 13 38 18 58 4 19 6 39 6 59 0 36-7 71-22 104-15 33-35 63-60 88-25 25-54 45-87 60-33 15-68 22-105 22-23 0-48-2-75-7-27-5-52-12-74-21l0 16c0 14-1 29-2 45-3 21-7 43-12 64-6 21-14 42-23 61-9 19-21 35-34 49-28 29-60 53-96 72-37 18-76 27-117 27-35 0-69-7-102-20-33-14-62-33-88-56-25 21-54 39-85 52-31 13-64 19-98 19-42 0-82-10-119-29-37-19-70-44-98-74-13-14-24-30-32-48-9-18-16-37-21-56-5-19-9-39-11-59-2-20-3-39-3-58l0-15c-21 8-45 14-70 19-25 4-50 6-73 6-36 0-71-7-104-22-33-15-63-35-88-60-25-25-45-54-60-87-15-33-23-68-23-105 0-43 9-83 26-122-41-25-74-58-99-98-25-40-38-85-38-134 0-39 6-74 19-106 12-32 29-60 51-85 21-25 47-47 78-64 30-18 63-31 99-40-11-13-21-28-30-45-10-17-19-35-26-53-8-19-14-37-19-56-5-19-7-36-7-53 0-5 0-9 1-13 0-5 0-9 1-13 6-38 17-73 32-104 15-31 34-58 58-80 24-23 52-40 84-53 32-13 68-19 107-19l16 0c5 0 10 0 15 1 8-33 20-63 37-89 16-27 36-49 59-68 23-19 50-34 80-44 29-10 61-15 95-15 z" fill="#FF822D"/>
		<path d="M1249 31c36 0 67 9 94 26 27 17 50 40 69 70 19-29 42-51 69-68 26-17 57-25 92-25 26 0 50 5 71 14 21 9 39 22 54 38 15 16 26 35 35 57 8 22 12 46 12 71 0 34-8 67-23 98-15 31-33 59-53 86 2 2 3 3 4 3 13-18 28-35 43-51 15-17 31-31 48-44 17-13 36-23 56-30 20-7 42-11 66-11 24 0 47 5 68 14 21 9 40 21 56 37 15 15 28 34 37 55 9 21 13 43 13 68 0 21-5 44-16 68-11 23-24 43-37 60 44 13 80 34 108 65 27 30 41 69 41 116 0 26-5 50-16 72-11 21-26 40-44 55-19 15-40 26-63 35-23 8-47 12-72 12-24 0-48-3-71-8-23-6-46-13-69-21l-2 4c26 8 52 18 77 31 25 12 48 27 68 45 20 17 36 38 49 62 12 23 18 50 18 81 0 23-5 44-14 65-9 20-22 38-37 53-16 15-34 28-55 37-21 9-42 14-64 14-15 0-30-1-46-4-17-3-32-8-45-13l0 8c0 24-4 47-10 69-7 25-19 47-34 66-15 19-34 34-56 45-23 11-48 17-76 17-19 0-37-3-54-9-18-7-34-16-49-27-15-11-29-24-40-39-11-15-20-32-27-49-8-21-13-43-16-66-3-23-4-46-4-69l0-25-4 0 0 14c0 23-2 45-4 67-3 27-10 53-20 78-7 17-17 32-28 47-11 15-24 28-39 39-15 11-32 19-49 26-17 6-35 9-54 9-25 0-49-6-72-18-23-12-44-27-61-46-16-17-27-38-32-62-8-34-9-51-9-82-13 5-28 9-43 12-15 2-30 3-44 3-23 0-44-4-64-13-21-9-39-22-54-37-16-15-29-33-38-53-9-21-14-42-14-65 0-31 6-59 19-83 12-24 28-45 49-62 20-17 43-32 69-44 25-12 51-22 78-30l-1-5c-22 7-44 14-67 19-23 5-46 8-69 8-25 0-49-4-72-12-23-9-44-21-62-36-19-15-33-34-44-55-11-21-17-45-17-71 0-48 14-87 43-118 29-31 65-52 109-63-13-17-25-37-35-60-10-23-15-46-15-67 0-24 5-47 14-68 9-21 21-40 37-55 15-16 34-28 55-37 21-9 43-14 67-14 24 0 46 4 67 12 21 7 40 18 58 31 17 13 34 28 49 45 15 17 28 34 40 53 1 0 2-1 4-3-19-26-36-54-51-84-15-31-23-63-23-97 0-25 4-49 12-70 8-22 20-41 35-58 15-17 33-30 54-39 21-9 45-14 71-14 z" fill="#FFB02E"/>
		<path d="M1500 447c88 0 161 73 161 159 0 16-3 33-8 51 40 29 66 75 66 128 0 90-68 162-160 162-22 67-80 110-153 110-70 0-129-41-152-110-91 0-161-71-161-162 0-53 25-98 67-128-6-17-9-35-9-52 0-88 75-158 161-158 35 0 66 10 94 31 28-21 59-31 94-31 z" fill="#FF6723"/>
		<path d="M1406 635c63 0 117 50 117 117 0 63-50 117-117 117-63 0-117-50-117-117 0-63 50-117 117-117 z" fill="#F4F4F4"/>
	</g></svg>
