<svg version="1.1" xmlns="http://www.w3.org/2000/svg" viewBox="0 0 2300 2300"><g transform="scale(1,-1) translate(-256, -1869)">
		<path d="M2268 1150l144 72 0 144c0 39-31 72-72 72l-1939 0-1-1 0-215 143-72 1725 0 z" fill="#F8312F"/>
		<path d="M2340 0c39 0 72 31 72 72l0 144-144 72-1725 0-143-72 0-215 1-1 1939 0 z" fill="#8D65C5"/>
		<path d="M2268 935l144 71 0 216-2012 0 0-216 143-71 1725 0 z" fill="#FFB02E"/>
		<path d="M2412 216l0 215-144 72-1725 0-143-72 0-215 2012 0 z" fill="#3F5FFF"/>
		<path d="M2412 431l0 288-144 72-1725 0-143-72 0-288 2012 0 z" fill="#00D26A"/>
		<path d="M2412 719l0 287-2012 0 0-287 2012 0 z" fill="#FFF478"/>
	</g></svg>
