<svg version="1.1" xmlns="http://www.w3.org/2000/svg"><g transform="scale(1,-1)">
		<path d="M2077 711c180 0 339 143 339 340 0 185-148 339-339 339-185 0-339-148-339-339 0-181 144-340 339-340 z M2077 785c-147 0-266 119-266 266 0 147 119 266 266 266 147 0 266-119 266-266 0-147-119-266-266-266 z" fill="#D3D3D3"/>
		<path d="M1077-303c28 0 52 10 72 30l798 798c21 21 37 45 48 74l138 360c5 11 7 24 7 38 0 28-10 52-30 72l-339 339c-20 20-44 30-72 30-13 0-26-2-37-7l-361-139c-27-10-52-26-73-47l-798-798c-20-20-30-44-30-73 0-28 10-52 30-72l575-575c20-20 44-30 72-30 z M1726 897c-69 0-127 55-127 126 0 69 57 126 127 126 69 0 127-56 127-126 0-72-56-126-127-126 z" fill="#FCD53F"/>
		<path d="M1726 829c103 0 194 82 194 193 0 107-87 195-194 195-107 0-194-88-194-194 0-111 89-194 194-194 z M1726 895c-69 0-127 57-127 127 0 68 55 127 127 127 69 0 126-57 126-127 0-68-56-127-126-127 z" fill="#F8312F"/>
		<path d="M2077 711l25 1c27 0 56 8 56 39 0 18-15 36-36 36-15 0-28-2-43-2-150 0-268 118-268 266 0 19-15 36-36 36-19 0-37-14-37-36 0-188 150-340 339-340 z" fill="#D3D3D3"/>
	</g></svg>
