<svg version="1.1" xmlns="http://www.w3.org/2000/svg"><g transform="scale(1,-1)">
		<path d="M811-287c-72 0-130 57-130 129 0 40 15 60 38 92l137 185c20 26 29 47 48 70 28 37 66 58 112 91l185 136-51-383c-3-27-14-49-33-68l-215-214c-24-24-57-38-91-38 z M529-1c40 0 60 15 92 38l187 136c28 20 48 30 71 48 37 28 59 69 90 113l133 185-382-52c-28-4-46-11-68-33l-215-214c-24-24-38-57-38-91 0-72 58-130 130-130 z" fill="#635994"/>
		<path d="M676-81c20 0 37 7 51 21l1343 1343 0 94-102 8-1343-1343c-14-14-21-31-21-51 0-39 31-72 72-72 z" fill="#F3AD61"/>
		<path d="M2124-184c-39 0-72 14-99 41 19 25 60 89 78 107 21 21 90 68 120 90 25-27 40-61 40-98 0-75-60-140-139-140 z M1977-90c-104 125-166 285-166 461 0 28 2 56 5 83 8 62 26 121 26 188 0 52-9 103-27 152l90 128 172-32c30-80 45-163 45-250 0-29-2-57-5-84-8-62-26-126-26-186 0-97 30-187 85-261l-73-122-126-77 z M538 1345l111 73 86 124c-27 23-58 35-93 35-77 0-140-60-140-138 0-35 12-67 36-94 z M1056 1126c-177 0-339 63-466 170l78 114 121 85c79-59 174-89 266-89 35 0 70 4 104 12 56 12 110 19 166 19 67 0 132-9 195-27l-2 0 36-154-110-115c-39 11-79 16-119 16-91 0-162-31-269-31 z" fill="#7D4533"/>
		<path d="M1815 794l262 96c-35 96-91 187-168 264-124 124-214 207-391 256l-74-269c125-35 177-95 267-185 46-46 81-100 104-162 z" fill="#FCD53F"/>
		<path d="M1991-163c10 0 19 4 26 11l218 217c7 7 10 15 10 25 0 19-15 36-36 36-10 0-18-3-25-10l-218-217c-7-7-11-16-11-26 0-19 18-36 36-36 z M1976-89c-19 23-37 46-53 73l-1131 21c-21-21-48-53-72-71l1256-23 z M618 34c24 23 47 48 71 71l-20 1134c-27 16-50 33-73 53l22-1258 z M553 1274c10 0 19 4 26 11l218 218c7 7 10 15 10 25 0 19-15 36-36 36-10 0-18-3-25-10l-218-218c-7-7-11-16-11-26 0-18 17-36 36-36 z M2236 1130c17 0 27 8 32 25 11 48 143 520 143 536 0 19-15 34-33 34-16 0-492-133-537-143-15-4-25-18-25-32 0-9 3-16 10-23l387-387c7-7 14-10 23-10 z" fill="#D3D3D3"/>
	</g></svg>
