<svg version="1.1" xmlns="http://www.w3.org/2000/svg" viewBox="0 0 2300 2300"><g transform="scale(1,-1) translate(-256, -1869)">
		<path d="M775-250c31 0 60 18 76 44l481 832-152 88-481-832c-8-13-11-29-11-44 0-46 35-88 87-88 z" fill="#0074BA"/>
		<path d="M775-250c31 0 60 18 76 44l209 361-152 88-209-361c-8-13-11-29-11-44 0-46 35-88 87-88 z" fill="#533566"/>
		<path d="M1491 597c8 0 15 4 20 12l66 112c19-11 113-72 132-72 13 0 24 10 24 24 0 9-4 16-12 21l-119 69 90 153c24-13 145-90 163-90 13 0 24 10 24 24 0 9-4 16-12 21l-151 87 90 153c24-13 142-90 161-90 14 0 25 9 25 24 0 8-4 17-12 21l-149 86 90 153c22-14 107-70 127-70 14 0 24 11 24 25 0 9-4 16-12 20l-115 67c13 24 83 125 83 147 0 14-11 24-25 24-9 0-16-4-20-11l-80-136-158 92c11 22 82 128 82 147 0 13-10 24-24 24-9 0-16-4-21-12l-79-135-158 91c13 21 82 128 82 147 0 13-9 24-24 24-8 0-17-4-21-12l-79-135c-21 11-112 72-132 72-13 0-24-9-24-24 0-8 4-17 12-21l119-69-89-152c-24 13-136 86-157 86-14 0-24-10-24-23 0-10 4-17 12-22l144-83-90-153c-21 13-136 85-155 85-13 0-23-10-23-25 0-9 4-16 11-20l143-82-90-153c-21 10-108 69-128 69-13 0-23-10-23-24 0-8 5-17 11-21l115-66c-11-19-68-104-68-123 0-13 10-24 24-24 8 0 17 5 21 11l65 112 158-91c-13-21-83-132-83-150 0-13 9-24 24-24 8 0 15 4 20 12l81 137 158-91c-11-19-68-106-68-124 0-15 9-24 24-24 z M1789 1177l-159 91 90 153 159-92-90-152 z M1588 1292l-157 91 89 153 158-91-90-153 z M1474 1097l-158 91 90 154 158-91-90-154 z M1674 982l-158 91 90 153 158-91-90-153 z M1560 787l-158 91 90 153 158-91-90-153 z M1360 902l-158 92 90 153 158-91-90-154 z" fill="#BEBEBE"/>
		<path d="M1497 555c186 0 355 95 453 261 78 137 165 252 165 425 0 287-231 523-522 523-189 0-357-99-453-261-80-140-165-255-165-425 0-287 230-523 522-523 z M1497 663c-228 0-414 184-414 416 0 73 18 142 55 206l95 164c74 128 211 207 360 207 222 0 414-176 414-415 0-36-5-71-14-106-25-94-88-180-136-265-74-126-208-207-360-207 z" fill="#00A6ED"/>
		<path d="M1619-109c35 0 66 28 66 66 0 24-13 48-35 60l-201 113-29-55 149-162c13-15 30-22 50-22 z" fill="#D3D3D3"/>
		<path d="M1685 5c34 0 62 25 62 61 0 44-38 56-72 76 21-12 41-28 68-28 37 0 67 27 67 67 0 31-21 59-54 66l-215 43-33-56 1-1-59-105 206-116c9-5 18-7 29-7 z" fill="#F4F4F4"/>
		<path d="M1420 75l121 215c-34 19-59 36-97 36-67 0-124-54-124-123 0-72 42-98 100-128 z" fill="#F70A8D"/>
	</g></svg>
