<svg version="1.1" xmlns="http://www.w3.org/2000/svg" viewBox="0 0 2300 2300"><g transform="scale(1,-1) translate(-256, -1869)">
		<path d="M2340 0c39 0 72 31 72 72l0 1294c0 39-31 72-72 72l-1868 0c-39 0-72-31-72-72l0-1294c0-39 31-72 72-72l1868 0 z" fill="#433B6B"/>
		<path d="M1532 396c15 0 27 4 34 11 7 7 13 15 16 26 3 11 4 22 4 35l0 33c15 3 29 7 42 13 13 5 25 12 35 21 10 9 18 19 24 32 6 12 9 27 9 44 0 19-4 35-12 48l-26 42c11 30 17 60 17 90 0 37-7 70-22 101-15 31-34 57-59 80-25 22-54 39-86 52-33 12-67 18-102 18-35 0-69-6-101-18-33-13-61-30-86-52-25-23-45-49-60-80-15-31-23-64-23-101 0-15 2-30 5-45 3-15 8-30 13-45l-26-42c-8-13-12-29-12-48 0-17 3-32 9-44 5-13 13-23 23-32 10-9 22-16 35-21 13-6 28-10 43-13l0-41c0-10 2-19 4-27 3-11 8-19 16-26 7-7 19-11 34-11 14 0 25 3 32 9 7 5 13 12 16 21 3 8 5 17 6 28l0 31 18 0c0-10 0-20 1-31 0-11 2-20 5-28 3-9 9-16 16-21 7-6 18-9 32-9 14 0 25 3 32 9 7 5 13 12 16 21 3 8 5 17 6 28l0 31 18 0c0-10 0-20 1-31 0-11 2-20 5-28 3-9 9-16 16-21 7-6 18-9 32-9 z M1447 557l-82 0c-11 0-18 9-18 18 0 3 2 9 6 16 18 36 36 74 53 74 7 0 13-3 16-9 8-14 43-70 43-81 0-11-7-18-18-18 z M1550 647c-50 0-98 47-98 97 0 46 29 59 69 59 64 0 89-26 89-86 0-38-16-70-60-70 z M1261 647c-44 0-60 32-60 70 0 60 25 86 89 86 40 0 69-13 69-59 0-52-49-97-98-97 z M1758 223c39 0 72 31 72 72 38 0 72 33 72 72 0 39-34 72-72 72-20 0-37-7-51-21-14 14-77 85-93 85-14 0-64-51-64-64 0-16 70-78 85-93-14-14-21-31-21-51 0-39 31-72 72-72 z M1686 942c16 0 78 71 93 86 13-15 30-22 51-22 38 0 72 33 72 72 0 38-33 72-72 72 0 39-31 72-72 72-39 0-72-31-72-72 0-20 7-37 21-51-14-14-85-77-85-93 0-13 51-64 64-64 z M1047 223c40 0 71 34 71 72 0 20-7 37-21 51 13 13 86 77 86 93 0 13-53 64-65 64-14 0-78-71-92-85-14 14-31 21-51 21-39 0-72-31-72-72 0-39 31-72 72-72 0-39 31-72 72-72 z M1118 942c13 0 65 52 65 64 0 16-73 80-86 93 14 14 21 31 21 51 0 38-31 72-71 72-39 0-72-31-72-72-39 0-72-31-72-72 0-38 33-72 72-72 21 0 38 7 51 22 14-14 79-86 92-86 z" fill="#F3EEF8"/>
	</g></svg>
