<svg version="1.1" xmlns="http://www.w3.org/2000/svg" viewBox="0 0 2300 2300"><g transform="scale(1,-1) translate(-256, -1869)">
		<path d="M1748-287l-106 0c-11 0-19 7-19 18 0 10 161 574 176 618l144 0-178-623c-2-9-8-13-17-13 z M1469-287c9 0 15 4 17 13l51 171c3 11 4 20 4 31 0 13-1 23-4 32l-135 471-143 0c12-44 143-491 143-503 0-40-57-158-57-197 0-11 7-18 18-18l106 0 z" fill="#1C1C1C"/>
		<path d="M1133-289c5 0 10 2 13 5 3 3 5 8 5 13l0 197 62 32c26 13 45 30 57 49 11 19 19 39 23 62 3 17 4 34 4 53l0 17c-1 25-2 50-2 75l426 2c43 0 82 13 116 39 0-27 4-53 13-77 9-25 21-47 37-67 16-20 35-37 57-51 21-15 45-25 71-32l110-28 0-269c0-5 2-10 5-13 3-3 8-5 13-5l107 0c5 0 10 2 13 5 3 3 5 8 5 13l0 680c13 9 26 18 38 29 12 11 23 22 34 35l0-331 72 0 0 669c0 47-9 90-26 131-18 41-42 76-73 107-31 31-66 55-107 73-41 17-84 26-131 26l-270 0c-21 0-39 4-54 11-16 7-31 15-44 26-14 11-28 22-42 35-14 13-30 24-47 35-17 11-37 20-59 27-23 7-50 10-81 10l-144 0c-7 0-14 3-21 10-7 7-14 15-19 24-6 9-11 19-16 28l-12 23c-23 41-55 73-95 96-41 23-85 35-132 35l-64 0c-57 0-110-16-158-49l-366-244c-16-11-28-24-37-41-9-17-14-35-14-54 0-25 5-49 15-72 9-23 22-42 39-59 16-17 35-31 58-41 22-10 46-15 72-15l175 0 27-145 26-145c9-47 17-93 25-140 7-47 15-93 23-140 7-38 23-70 50-97 27-27 59-44 97-51l0-488c0-5 2-10 5-13 3-3 8-5 13-5l108 0 z" fill="#636363"/>
		<path d="M2412-72l0 288c-81 0-144-67-144-144 0-81 67-144 144-144 z" fill="#212121"/>
		<path d="M1047 1366c35 0 69 8 103 23 34 15 65 35 92 60 27 25 50 54 67 87 17 33 25 67 25 102 0 24-9 45-26 62-17 17-38 25-62 25l-162 0c-9 0-18-3-25-10-8-7-12-15-12-24 0-13 4-22 11-27 7-6 15-10 25-11l19-2 62 4 12-1c7-1 10-5 10-10l-1-4c-9-21-20-40-35-56-15-17-31-30-50-41-19-11-39-20-60-25-21-5-43-8-65-8-19 0-36-7-50-21-15-15-22-32-22-51 0-20 7-37 21-51 14-14 31-21 51-21l72 0 z" fill="#9B9B9B"/>
		<path d="M795 1152c19 0 36 15 36 36l0 46c0 19-15 36-36 36-19 0-36-15-36-36l0-46c0-19 15-36 36-36 z M579 1078c21 0 36 16 36 35l0 38c0 19-15 35-36 35-21 0-36-16-36-35l0-38c0-18 17-35 36-35 z M1162 1078c35 0 69 10 100 30l-258 258c-19-31-29-64-29-101 0-104 82-187 187-187 z" fill="#1C1C1C"/>
	</g></svg>
