<svg version="1.1" xmlns="http://www.w3.org/2000/svg" viewBox="0 0 2300 2300"><g transform="scale(1,-1) translate(-256, -1869)">
		<path d="M1798 1366l0 72-116 0c-36 0-70 4-101 11-31 7-61 18-90 35-29 17-59 42-89 76l-14 16c-5 4-12 6-21 6-11 0-19-3-26-10-7-7-10-16-10-26 0-8 4-17 12-27 7-11 16-21 27-32 10-11 20-20 31-29l25-20c-6 0-14 0-25 1l-10 0-22-1c-11-1-20-4-27-9-8-5-12-14-12-25 0-11 4-20 11-27 7-7 15-11 26-11l431 0 z" fill="#F8312F"/>
		<path d="M2340-287c39 0 72 31 72 72 0 18-5 29-15 43-110 155-313 246-497 246l-376 0c-406 0-764 166-764 618 0 179 147 319 321 319 173 0 318-145 321-319l0-39c0-279 219-509 504-509 204 0 386 123 465 306 8 22 33 88 33 109 0 35-53 37-56 74l64 68-1 162-50 74 50 69c0 224-2 295-2 517 0 113-91 202-202 202l-687 0c-26 0-45-18-45-45 0-212 168-386 386-386l165 0c12 0 23-10 23-22l2-622c0-77-63-145-142-145-83 0-147 66-147 146l0 54c-5 279-185 528-452 625-44 16-111 37-156 37-27 0-46-67-73-67-24 0-46 68-70 68-34 0-180-36-207-55-25-19 0-92-34-92-28 0-50 22-78 22-28 0-165-139-165-173 0-16 4-31 4-47 0-45-52-29-71-56 0-3-14-30-14-33-31-83-46-167-46-253 0-667 538-968 1124-968l816 0 z" fill="#00D26A"/>
		<path d="M1945 1435c21 0 39 17 39 39l0 69c0 21-17 39-39 39-21 0-39-17-39-39l0-69c0-21 17-39 39-39 z" fill="#1C1C1C"/>
		<path d="M476 617c39 0 72 31 72 72 0 39-34 72-72 72l-72 0c-3-24-4-47-4-71 0-24 2-49 2-73l74 0 z M557 920c37 0 73 31 73 71 0 57-59 75-99 99-27-39-51-80-72-125 27-16 63-45 98-45 z M779 1141c38 0 72 32 72 73 0 35-31 70-47 99-44-20-85-45-124-73 23-38 43-99 99-99 z M2404 558c5 31 8 61 8 92l0 52-75 0c-39 0-72-34-72-72 0-39 31-72 72-72l67 0 z M2411 863l0 143-74 0c-38 0-72-31-72-71 0-39 31-72 72-72l74 0 z M2411 1150l-1 144-73 0c-39 0-72-31-72-72 0-38 33-72 72-72l74 0 z M1082 1222c38 0 72 33 72 72l0 73c-25 3-51 4-76 4-23 0-45-1-68-4l0-73c0-39 31-72 72-72 z" fill="#FCD53F"/>
	</g></svg>
