<svg version="1.1" xmlns="http://www.w3.org/2000/svg"><g transform="scale(1,-1)">
		<path d="M2318-72l-339 0 1 503-539 0 188 268c20 29 46 51 77 68 31 16 64 24 99 24l195 0c15 0 27-3 34-10 7-7 12-16 15-27 2-11 3-22 3-35l-1-18 1-17c0-11 2-19 5-26 3-7 9-11 18-11l90 0c34 0 66-6 96-19 29-13 55-31 78-53 23-23 41-49 54-78 13-30 19-62 19-96l0-379c0-13-2-25-7-36-5-11-12-21-21-30-9-9-19-15-30-20-11-5-23-8-36-8 z M1354 719c139 0 230 90 230 229l0 122c0 26-23 50-50 50l-117 0c69 0 127 43 153 102 12 29 12 54 14 91 0 9-1 18-3 27-4 16-14 29-37 29l-369 0 0-650 179 0 z" fill="#F70A8D"/>
		<path d="M1167 1397c6 0 13 1 20 2 7 1 13 4 19 7 6 3 11 7 16 12 4 5 6 11 7 18l4 32c1 11 4 22 9 32 4 10 10 18 18 25 7 7 17 10 30 10l61-1c13 0 25 0 36 1 11 1 17 2 18 3l72 101c1 1 2 2 2 4 0 1-2 3-4 5-4 3-7 4-10 4l-177 0c-30 0-56-6-78-18-23-13-41-29-55-49-15-21-25-44-32-70-7-26-11-52-11-79 0-15 6-25 19-30 12-6 24-9 36-9 z M579 1284c14 0 24 5 29 15 5 9 8 21 9 35l-1 47c-1 12-2 24-2 35l0 11c1 14 4 26 9 36 5 9 14 14 28 14l95 0c14 0 27 1 38 2 14 1 26 5 36 10 9 5 18 14 26 25 8 11 16 25 24 43l30 68c4 9 11 15 22 18 10 3 19 4 28 4l142 0c13 0 23 3 31 8 7 5 11 15 11 28 0 13-4 22-12 27-8 5-18 7-30 7l-142 0c-22 0-44-5-65-14-22-9-38-25-47-46l-9-24c-4-12-9-24-14-36-6-13-12-24-19-33-7-10-15-15-23-15-31 0-60 1-88 2l-10 0c-24 0-45-3-63-9-21-7-38-19-50-38-13-19-19-48-19-88l0-96c0-10 4-18 11-25 7-7 15-11 25-11 z" fill="#FCD53F"/>
		<path d="M1879-287c63 0 118 12 167 37 48 24 89 56 122 97 33 40 58 87 75 140 17 53 25 109 25 167 0 34-2 68-7 102-5 34-12 67-23 99-11 32-25 63-42 92-18 29-40 55-65 79-43 41-90 75-141 102-51 27-107 41-168 41-41 0-81-6-122-19-41-13-80-29-116-48-38-20-72-45-101-76-30-31-58-64-83-99-25-35-49-71-72-107-23-36-46-70-70-101-25-31-51-58-79-81-28-23-59-39-94-48-4-1-9-2-14-2l-15 0c-23 0-45 5-65 14-21 9-39 21-54 36-15 15-27 34-36 55-9 21-14 43-14 66 0 39 11 72 33 99 22 27 49 51 80 72 31 21 64 40 98 59 33 18 62 38 86 60 17 16 35 35 53 57 17 21 34 44 49 68 15 24 28 49 39 74 11 25 19 50 23 73 7 39 11 80 11 122l0 215c-1 31-1 62-1 93 0 11-2 24-6 38-5 13-12 24-21 31 1 7 6 12 13 14 7 1 14 2 20 2l32-1c14 0 27 4 40 12 12 7 23 17 32 28 9 11 17 24 22 38 5 14 8 27 8 40 0 9-4 15-11 16-7 1-14 1-21 1l-442 0c-13 0-25-1-38-2-13-2-25-5-36-9-11-4-22-10-32-17-8-7-14-14-19-23l-14-24c-5-8-10-15-16-20-6-5-14-8-24-8l-78 0c-13 0-25 3-35 10-11 6-21 13-32 21-11 8-22 15-35 22-13 6-29 9-48 9-10 0-20-1-29-3-9-3-18-6-25-11-8-5-14-12-19-19-5-8-7-18-7-29l0-149c0-21 7-39 20-52 13-13 31-20 52-20l258 0c19 0 33-4 44-11 10-8 21-18 33-31 3-3 4-6 4-9 0-9-4-13-13-13l-306 0c-7 0-13-4-18-11-5-8-7-15-7-21 0-13 4-27 12-40 8-14 18-26 30-37 12-11 25-20 40-27 14-7 28-11 41-11l311 0-63-144-396-288-24-167c-3-17-5-31-8-42-3-11-4-25-4-42 0-21 2-38 5-52 23-113 17-98 41-262l-15-22-24-33-27-40c-9-14-18-27-25-39l-19-33c-5-9-8-16-8-20 0-11 4-20 12-27 7-7 16-11 27-11l191 0c9 0 18 3 25 8 7 5 14 12 20 20 6 8 12 16 17 25l13 23c2-1 4-2 7-2 3 0 7 1 11 3 7 3 15 7 23 12l24 14c8 4 15 6 21 6 2 0 10-1 23-4l108-27 62-15c19-5 36-10 51-13l29-7 218 135c11 7 21 12 30 17l27 14 26 16c8 5 17 12 26 21 11 10 21 20 30 30 8 9 16 19 23 29 7 9 15 19 22 30 7 10 16 21 26 33l202 243 108 0 36-72c0-35 0-70 1-104l0-105c0-21-2-43-6-66-4-23-15-42-32-57-7-7-19-11-34-13-16-3-33-5-52-8-19-3-39-6-58-10-20-4-38-11-54-20-17-10-30-24-40-41-11-17-16-40-16-68 0-15 5-26 15-34 9-9 21-13 35-13l211 0 z" fill="#00D26A"/>
		<path d="M621 1225c16 0 30 14 30 30l0 62c0 18-13 30-30 30-16 0-29-13-29-30l0-62c0-17 13-30 29-30 z" fill="#008463"/>
		<path d="M1011 1181c18 0 36 17 36 36l0 76c0 18-17 36-36 36-19 0-36-15-36-36l0-76c0-18 17-36 36-36 z" fill="#1C1C1C"/>
		<path d="M1054-287c175 0 354 81 464 221 65 84 119 159 192 255 13 18 37 54 53 68l0 1c17 15 36 27 59 27 45 0 87-32 87-82l0 103c0 41-38 87-83 87-80 0-124-34-161-83-88-114-65-86-168-222-27-36-53-68-78-97-87-101-208-169-361-169-87 0-146 18-224 57l-59-90c84-49 179-76 279-76 z M589-62l70 97c-33 61-46 151-46 218 0 239 107 323 302 430 25 15 52 26 75 45 39 29 102 123 102 173 0 27-7 34-34 34l-92 0c0-81-81-137-143-168-216-109-338-260-338-510 0-112 35-231 104-319 z" fill="#FCD53F"/>
	</g></svg>
