<svg version="1.1" xmlns="http://www.w3.org/2000/svg" viewBox="0 0 2300 2300"><g transform="scale(1,-1) translate(-256, -1869)">
		<path d="M649 1509c81 0 144 67 144 144l-127 0c-30 0-57-9-82-26-29-20-61-63-61-98 0-11 4-20 17-20l109 0 z M2124 719l0 334c0 7 3 13 8 18 5 5 11 7 18 7l83 0c25 0 48 5 70 14 21 9 40 22 57 39 16 16 29 35 38 57 9 22 14 45 14 70l0 143c0 15-3 29-8 42-6 13-14 25-24 35-10 10-22 18-35 24-13 5-27 8-42 8-12 0-20-3-25-10-5-7-8-16-9-27l-1-17 1-18c1-13 1-24 1-35-1-11-3-19-6-26-4-7-11-11-21-11l-83 0c-25 0-48-5-69-14-22-9-41-22-57-38-17-17-30-36-39-58-9-22-14-45-14-70l0-467 143 0 z M1234 976c161 0 288 128 288 288 0 17-13 30-29 30l-186 0c64 41 99 111 99 184 0 18-13 32-32 32l-191 0c38 24 62 67 62 113 0 17-13 31-31 31l-412 0 0-165 100 0 0-232 144 0 0-281 188 0 z" fill="#1C1C1C"/>
		<path d="M578 178c-18 0-35 24-47 36-40 40-60 91-60 144l0 170c0 104 83 191 191 191l528 0 0-144-528 0c-26 0-47-20-47-47l0-170c0-48 53-58 53-90 0-18-71-90-90-90 z M1597-144c12 0 19 5 21 15 1 7 2 16 2 25l0 24 1 31c1 15 6 28 17 39l278 279 2 0 0 506-298-12 0-560c0-13-3-24-10-34-7-11-16-21-27-32-11-11-22-22-35-33-13-12-24-25-35-40-11-15-19-32-26-51-7-19-11-41-11-66l0-68c0-6 2-11 7-16 5-5 10-7 16-7l98 0 z" fill="#6D4534"/>
		<path d="M1956-287c15 0 27 6 37 18l232 290c27 33 41 72 41 116l0 516c0 49-9 95-27 138-19 43-44 80-76 112-32 32-69 57-112 76-43 18-89 27-138 27l-506 0c-23 0-45 3-66 9-21 6-41 15-60 26-19 11-36 24-51 40-16 16-29 34-40 53l-218 394c-9 17-21 32-35 47-15 15-30 28-45 39-5 3-15 11-30 23l-49 38-48 35c-15 10-25 15-28 15-10 0-16-4-18-12-1-6-2-12-2-19l0-8c0-11 0-21 1-31l0-5c0-8-2-14-6-18l-242-262-34-112 124-43c4 1 12 5 25 10l41 17 39 15c12 5 19 7 22 7 5 0 10-2 14-5 4-3 6-8 7-13l80-578c5-34 13-64 26-91 12-27 28-55 48-83 3-3 4-6 4-11 0-7-5-15-16-25-11-10-24-22-37-37-14-15-26-33-37-54-11-21-17-45-17-74 0-27 4-51 13-72 8-21 19-40 33-57 14-18 30-35 48-51 17-17 35-34 53-53 19-19 41-34 66-44 25-11 51-16 78-16l22 0c8 0 15 1 22 3 7 1 12 5 17 10 4 5 6 12 6 22l0 75c0 14-4 23-12 27-8 4-18 6-29 7-12 0-24 1-36 2-13 1-23 6-32 15l-91 92c-4 4-7 9-10 15-3 6-5 12-5 18 0 14 5 26 14 35l15 17 22 23 23 20c7 6 13 9 17 9 3 0 6 0 7-1 23-9 46-16 69-21 23-5 47-8 72-8l575 0c16 0 31-2 45-7 13-5 27-13 40-22l181-135c21-16 38-36 50-61 12-25 18-50 18-77 0-39-11-73-34-104l-88-116-37-50c-11-16-21-29-28-40-7-11-11-17-11-19 0-4 2-8 5-11 3-3 6-5 11-5l88 0 z" fill="#A56953"/>
		<path d="M651 1366c21 0 36 16 36 35l0 38c0 18-17 35-36 35-19 0-36-17-36-35l0-38c0-19 15-35 36-35 z" fill="#1C1C1C"/>
		<path d="M476 1187c31 0 60 18 87 29l-92 156c-30-30-71-66-71-106 0-42 32-79 76-79 z" fill="#E39D89"/>
	</g></svg>
