<svg version="1.1" xmlns="http://www.w3.org/2000/svg" viewBox="0 0 2300 2300"><g transform="scale(1,-1) translate(-256, -1869)">
		<path d="M847-283c49 0 56 99 56 130 0 23-2 47-10 70-56 53-116 103-176 152-31 25-61 51-94 74-4-28-6-56-6-84 0-25 2-49 5-73 16-112 95-269 225-269 z M1681-287c57 0 63 67 63 110 39-11 78-16 118-23 394 161 478 512 478 885 0 289-171 518-356 716-5 7-10 19-10 26 0 32 49 91 49 160 0 36-8 70-15 105-5 31-12 56-52 56-25 0-52-14-75-33-70-60-101-130-101-196 0-13 4-27 4-40 0-29-14-44-41-44-77 0-119-17-172-75-28-31-83-98-83-138 0-43 124-52 152-52 107 0 159 87 186 87 5 0 9-1 14-2 113-143 183-332 183-508 0-86-10-215-128-215-86 0-155 73-155 156 0 256-192 463-450 463l-471 0c-140 0-328-108-392-261-19-44-19-85-19-131l1-40c209-10 419-21 638-36 169-10 346-95 359-288 9-113 9-217 42-328 1-5 3-9 6-14 8-18 8-34 10-51 8-107 69-220 162-271 17-9 35-18 55-18 z" fill="#00A6ED"/>
		<path d="M1371 791c23 0 44 18 44 43l0 55c0 23-22 43-44 43-23 0-43-20-43-43l0-55c0-23 20-43 43-43 z" fill="#1C1C1C"/>
		<path d="M1348-296c92 0 184 12 275 28-134 77-166 231-166 366 0 21 2 42 2 65 0 9-1 17-2 25-9 56-14 123-14 182l-1 10c-17 196-239 326-409 339-39 3-77 4-116 4-174-2-328 0-508-4 24-504 397-1015 939-1015 z M1736-242c44 12 87 25 130 44-41 12-82 24-122 40l0-42c0-14-3-28-8-42 z" fill="#AEDDFF"/>
	</g></svg>
