<svg version="1.1" xmlns="http://www.w3.org/2000/svg"><g transform="scale(1,-1)">
		<path d="M1750-287c14 0 31 12 35 27l137 576-216 0-9-39c-34-131-127-521-127-539 0-15 11-25 26-25l154 0 z M1480-287c15 0 27 12 27 26 0 15-128 534-137 577l-216 0 138-576c4-16 19-27 35-27l153 0 z" fill="#D3883E"/>
		<path d="M2035-287c11 0 19 5 24 16l181 424c19 43 28 85 28 132l0 326c0 54-9 107-28 160 107 94 172 230 172 379 0 283-228 503-508 503-54 0-164-2-164-81 0-15 4-28 12-39l0-2c14-20 36-33 62-33 28 0 58 12 95 12 197 0 360-161 360-359 0-88-34-179-102-250-84 108-206 167-333 176l-72-97-69 86c-26-6-51-14-74-24l-70-90-70 22-74-36-66-97-76 28c-9-4-17-9-28-9-34 0-43 24-43 49l-1 25-55 73 46 71c-7 25-14 50-25 73l-127 72 19 70-238 265c-7 7-14 10-22 10-17 0-30-13-30-29l0-195c-125-30-226-150-256-266-7-26-11-59-31-66-31-10-72-11-72-60 0-168 114-305 289-305l144-144c24-34 27-55 47-95l95-191 0-478c0-14 12-26 27-26l162 0c14 0 27 12 27 27l0 476 247 164c16-4 306-162 326-182l173-173c10-10 15-22 15-37 0-48-100-208-100-249 0-15 12-26 26-26l157 0 z" fill="#F3AD61"/>
		<path d="M1190 935l0 65c0 27-3 51-8 78l-99 0c-39 0-72-31-72-72 0-40 34-71 72-71l107 0 z M1334 644c38 0 72 33 72 72l0 223-144-70 0-153c0-39 34-72 72-72 z M1548 704c39 0 72 31 72 72l0 266c-50-19-97-46-144-69l0-197c0-39 34-72 72-72 z M1763 764c38 0 72 31 72 71l0 242-17 1c-50 0-84-2-127-13l0-230c0-40 34-71 72-71 z M1158 1150c-27 56-70 97-110 144l-73 0c-39 0-72-31-72-72 0-38 33-72 72-72l183 0 z" fill="#D3883E"/>
		<path d="M1763 198c-90 105-158 223-311 223l-262 0 0-205 529 0c17 0 32-6 44-18 z M975 217l0 208-92 157c-23 41-55 65-103 65l-91 0 0-114c0-163 123-300 286-316 z" fill="#FFDEA7"/>
		<path d="M418 836c14 19 106 135 106 149 0 12-11 21-21 21l-49 0c-32 0-54-24-54-54 0-41 4-78 18-116 z M724 935c22 0 35 20 35 40l0 61c0 19-11 41-35 41-24 0-35-22-35-41l0-61c0-20 13-40 35-40 z" fill="#212121"/>
	</g></svg>
