<svg version="1.1" xmlns="http://www.w3.org/2000/svg" viewBox="0 0 2300 2300"><g transform="scale(1,-1) translate(-256, -1869)">
		<path d="M1624-287c19 0 30 9 35 26l137 511-215 0-105-394c-31 0-58-13-65-49-4-23-12-49-12-72 0-12 9-22 21-22l204 0 z M1341-287c12 0 22 9 22 21 0 16-127 478-137 516l-215 0 105-396c-23-5-40-25-44-47-4-22-13-52-13-75 0-10 10-19 21-19l261 0 z" fill="#FF9F2E"/>
		<path d="M1956-287c7 0 14 2 21 7 6 4 10 10 13 17l107 324c12 37 21 75 26 114 1 3 1 7 1 12l0 4 1 8 0-55c0-29 6-57 17-83 11-27 27-50 46-69 19-20 42-36 69-47 26-11 54-17 83-17 19 0 36 7 51 22 14 14 21 31 21 50 0 20-7 37-21 51-14 14-31 21-51 21-19 0-36 7-50 22-15 14-22 31-22 50l0 431c0 29-6 57-17 84-11 26-27 49-46 69-20 19-43 35-69 46-26 11-54 17-83 17l-415 0-89-47-95 47-99 0c-31 0-58 4-82 12-24 8-50 19-77 32-1 1-8 2-20 3l-39 3-68 6 0 137c-15 38-23 77-23 116l0 86c0 15-3 29-8 42-6 13-14 25-23 35-10 9-22 17-35 23-13 5-27 8-42 8-15 0-29-3-42-8-13-6-25-14-34-23-10-10-18-22-23-35-6-13-9-27-9-42l0-36-25 0c-36 0-70-7-101-20-32-14-60-33-84-56-24-24-43-52-56-83-14-32-21-66-21-102 0-7-2-13-7-18-5-5-11-8-18-8l-77-122 102-158c20-6 41-9 63-9l9 0c25 1 49 1 72 1l80-140c9-16 14-26 15-29l32-157c3-15 7-28 11-39 3-11 5-24 5-39l0-315c-18 0-32-3-41-10-9-7-16-16-21-27-5-11-7-24-8-37-1-13-1-26-1-39 0-8 3-15 9-21 6-6 13-9 21-9l234 0c6 0 11 2 16 7 4 4 6 9 6 15l0 409 617 0 172-173-31-115c-21 0-39-4-55-11-17-7-28-22-33-45l-9-32c-4-12-6-23-6-32 0-7 2-12 7-16 5-5 10-7 17-7l232 0 z" fill="#FFB02E"/>
		<path d="M830 171l0 261c0 80-62 143-143 143l0-174c0-99 55-187 143-230 z M543 582l0 307c0-9-3-16-10-20-7-4-14-6-23-7l-14-1-14 1c-9 1-17 1-23 1l-59-91c0-22 4-43 11-63 7-21 16-39 29-56 13-17 28-31 45-43 17-13 37-22 58-28 z M975 1150l0 36c0 19-15 36-36 36-19 0-36-15-36-36l0-36 72 0 z" fill="#FFDEA7"/>
		<path d="M2340-72c38 0 72 33 72 72 0 39-31 72-72 72-39 0-72 34-72 72l0-203c25-9 49-13 72-13 z M1546 431c55 0 98 43 98 98 0 55-43 98-98 98-55 0-98-43-98-98 0-55 43-98 98-98 z M1834 572c39 0 71 33 71 71 0 38-31 72-71 72-39 0-72-31-72-72 0-40 34-71 72-71 z M1808 347c23 0 42 20 42 42 0 22-19 42-42 42-22 0-43-17-43-42 0-25 21-42 43-42 z M1292 347c23 0 42 20 42 42 0 22-19 42-42 42-22 0-43-17-43-42 0-25 21-42 43-42 z M1259 572c39 0 71 33 71 71 0 38-31 72-71 72-39 0-72-31-72-72 0-40 34-71 72-71 z M1546 719c43 0 83 28 94 72l-188 0c11-44 51-72 94-72 z M1115 794c32 0 62 14 81 41-4 1-8 4-11 7-57 40-93 82-117 143-32-18-54-51-54-90 0-56 45-101 101-101 z" fill="#6D4534"/>
		<path d="M400 749l121 114-70 0c-30 0-51-25-51-52l0-62 z M651 791c19 0 36 15 36 36l0 36c0 19-15 36-36 36-19 0-36-15-36-36l0-36c0-19 15-36 36-36 z" fill="#212121"/>
	</g></svg>
