<svg version="1.1" xmlns="http://www.w3.org/2000/svg" viewBox="0 0 2300 2300"><g transform="scale(1,-1) translate(-256, -1869)">
		<path d="M1440-285c56 0 111 7 164 20 53 13 104 32 152 57 48 25 93 55 134 91 41 36 78 77 110 122l178 0c5 0 10-2 13-5 3-3 5-8 5-13l0-95c0-10 3-17 9-22 6-5 14-8 23-8 15 0 24 5 28 15 3 9 5 20 5 32l0 9c0 4 1 6 4 6 3 0 4-2 4-6l0-9c1-12 3-23 7-32 4-10 13-15 28-15 7 0 12 2 16 5 4 3 7 6 9 11 2 4 3 9 4 14 0 5 0 11 1 16l1 9c0 5 1 7 4 7 3 0 4-2 4-7l0-9c1-11 4-22 8-31 3-10 12-15 25-15 9 0 18 2 25 7 7 5 11 12 11 23l0 212c0 15-3 30-9 44-6 13-14 25-24 35-10 10-22 18-35 24-14 6-29 9-44 9l-200 0c8 30 14 60 19 91 4 30 6 60 6 91l0 553c15-1 30-4 43-10 13-6 20-18 20-36l0-133c0-12 3-22 9-31 5-9 15-14 28-14 11 0 18 3 23 9 5 6 8 13 9 20l3 21c0 6 1 9 3 10 3-6 4-13 5-20 0-7 1-14 2-20 1-7 5-12 10-16 5-4 13-6 24-6 15 0 24 5 27 16 3 10 5 21 6 32l0 8c0 4 1 6 3 6 2 0 3-2 4-6l0-8c1-12 3-23 7-33 4-10 14-15 29-15 14 0 24 5 29 15 5 9 8 20 8 32 0 51 0 92 1 125 0 32-1 59-4 81-3 21-9 40-16 56-8 15-20 32-36 50-17 17-38 38-65 62-27 24-60 55-100 94l-28 28c-9 8-17 15-26 20-9 5-18 10-29 13-11 3-25 4-41 4-26 60-60 115-102 165-42 49-90 92-143 128-54 35-112 63-174 83-62 19-126 29-191 29-40 0-79-2-116-5-38-3-74-10-109-19-35-9-69-22-102-39-33-17-66-40-97-68-37-33-73-63-107-90-34-27-69-51-105-70-36-20-74-35-115-46-41-11-88-16-139-16-17 0-35 0-53 1-18 1-36 1-53 1-11 0-21-1-29-3-8-2-15-8-21-19-1-2-2-5-2-9 0-7 3-14 8-21 5-7 12-14 19-21 7-7 14-13 22-18 7-6 14-11 19-14 46-29 94-52 143-69 49-17 100-26 155-26 36 0 72 4 107 11 35 7 70 16 104 27 32 11 62 24 91 40 28 16 56 33 84 51 13 8 26 16 39 25 13 9 27 17 42 24 14 7 29 12 44 17 15 4 30 6 46 6 37 0 63-16 76-49l-211-201c-8-7-16-16-25-25-9-10-18-20-25-31-8-11-15-22-20-33-5-12-8-24-8-35l0-222c0-11 3-20 9-27 5-7 14-10 25-10 8 0 14 1 19 4 4 3 7 6 10 10 2 4 3 9 4 15l3 25c0 5 1 7 3 7 2 0 3-2 4-6l0-9c1-12 3-23 7-32 4-9 13-14 28-14 15 0 24 5 28 14 4 9 6 20 7 32l0 9c0 4 1 6 4 6 3 0 4-2 5-7l0-9c1-11 4-21 8-30 3-10 12-15 25-15 23 0 35 12 35 37l0 105c0 13 1 25 2 35 1 10 4 18 9 25 4 6 11 11 20 14 9 3 21 5 36 5l-3-376-243 0c-15 0-30-3-45-9-15-7-28-15-39-25-12-11-22-23-29-37-7-14-11-29-11-45l0-200c0-10 3-19 8-27 5-9 13-13 24-13 13 0 21 5 25 15 4 10 7 20 8 30l1 11c1 6 3 9 6 9 3 0 5-3 6-8l0-11c0-11 2-22 5-31 3-10 11-15 25-15 7 0 12 1 16 4 4 3 7 6 9 11 2 5 3 10 4 15 0 5 0 11 1 16l1 11c1 5 2 8 5 8 3 0 5-3 6-8l0-10c1-11 4-22 8-32 3-10 12-15 26-15 11 0 19 4 24 11 5 7 8 15 9 26l0 10-1 25c-1 13-2 24-2 35 0 11 1 20 4 27 2 7 7 10 16 10l132 0c0-31-1-56-3-77-3-21-8-39-16-54-8-15-20-29-36-42-16-13-38-27-65-42l-20-11-6-1-8 3c-5 1-10 3-16 6l-22 6c-9 1-17 2-26 2-12 0-24-2-35-7-12-5-23-12-32-21-10-9-18-18-23-29-6-11-9-23-9-36 0-3-1-6-2-7-1-2-3-4-6-5-12-7-27-15-45-24l-56-27-58-32c-19-11-36-24-51-37-15-13-28-28-37-43-10-15-15-32-15-50 0-21 5-39 15-54 10-15 23-28 39-37 16-9 34-16 53-20 19-4 37-6 55-6l453 0 z" fill="#00D26A"/>
		<path d="M1442 0c19 0 36 15 36 36 0 19-15 36-36 36-19 0-36-15-36-36 0-19 15-36 36-36 z" fill="#1C1C1C"/>
		<path d="M1906 1100c18 0 35 17 35 36l0 76c0 18-16 35-35 35-18 0-35-16-35-35l0-77c0-18 16-35 35-35 z M1906 880c18 0 35 17 35 36l0 75c0 18-16 35-35 35-20 0-35-15-35-35l0-75c0-21 16-36 35-36 z M1906 658c18 0 35 16 35 35l0 76c0 18-16 35-35 35-18 0-35-16-35-35l0-76c0-18 16-35 35-35 z M1906 441c19 0 35 17 35 35l0 76c0 18-16 35-35 35-18 0-35-16-35-35l0-76c0-18 16-35 35-35 z M1767 880c22 0 35 17 35 36l0 75c0 18-16 35-35 35-21 0-36-16-36-35l0-75c0-19 15-36 36-36 z M1767 661c20 0 35 15 35 35l0 75c0 19-17 36-35 36-19 0-36-15-36-36l0-75c0-18 17-35 36-35 z M1767 441c20 0 35 15 35 35l0 76c0 18-16 35-35 35-19 0-36-17-36-35l0-76c0-18 17-35 36-35 z M1627 441c21 0 36 16 36 35l0 76c0 18-17 35-36 35-18 0-35-16-35-35l0-76c0-18 16-35 35-35 z M1627 661c21 0 36 16 36 35l0 75c0 19-15 36-36 36-18 0-35-17-35-36l0-75c0-18 16-35 35-35 z M1627 880c19 0 36 15 36 36l0 75c0 19-15 35-36 35-18 0-35-16-35-35l0-75c0-19 17-36 35-36 z M1627 1100c19 0 36 15 36 36l0 76c0 18-17 35-36 35-18 0-35-16-35-35l0-77c0-18 16-35 35-35 z M1767 1100c19 0 35 15 35 36l0 76c0 18-16 35-35 35-19 0-36-17-36-35l0-77c0-18 17-35 36-35 z" fill="#FCD53F"/>
		<path d="M1083-215c18 0 35 17 35 36 0 19-17 35-35 35-19 0-36-17-36-35 0-19 15-36 36-36 z M939-215c18 0 36 17 36 36 0 18-17 35-36 35-19 0-36-17-36-35 0-19 15-36 36-36 z" fill="#008463"/>
	</g></svg>
