<svg version="1.1" xmlns="http://www.w3.org/2000/svg"><g transform="scale(1,-1)">
		<path d="M1821-287l-107 0c-11 0-18 6-18 17 0 8 126 445 138 486l144 0-140-490c-2-9-8-13-17-13 z M1474-287c9 0 14 4 17 13l50 172c3 11 4 20 4 31 0 13-1 23-4 32l-135 470-144 0c12-44 144-491 144-503 0-40-57-157-57-197 0-11 9-18 18-18l107 0 z" fill="#9B9B9B"/>
		<path d="M2120 72l0 431-575 0 0-220c0-113 92-211 212-211l363 0 z" fill="#FF8687"/>
		<path d="M2250-287c5 0 10 2 13 5 3 3 5 8 5 13l0 680c13 9 26 18 38 29 12 11 23 22 34 35l0-332 72 0 0 669c0 47-9 91-26 132-18 41-42 76-72 107-31 31-66 55-107 73-41 17-85 26-132 26l-32 0-431-161-351 223c-27 17-50 38-69 61-19 23-37 48-52 75l-114-198-339 0 66-360 46-71 25-40c7-13 12-22 15-29 6-14 10-26 12-36 2-11 5-23 10-38l43-147-64-104c12-28 30-51 54-70 23-19 50-31 80-36l0-488c0-5 2-10 5-13 3-3 8-5 13-5l108 0c5 0 10 2 13 5 3 3 5 8 5 13l0 197 62 32c26 13 45 30 57 49 11 19 19 39 23 62 2 17 3 34 3 52l0 19c-1 25-2 49-2 74l460 0c43 0 81 13 115 39 0-27 4-53 13-77 9-25 21-47 37-67 16-20 35-37 57-51 22-15 46-25 72-32l110-28 0-269c0-5 2-10 5-13 3-3 8-5 13-5l107 0 z" fill="#D3D3D3"/>
		<path d="M1053 1474l-59 117c-8 16-25 26-43 26-26 0-48-20-48-47 0-27 32-73 42-96l108 0 z" fill="#F9C23C"/>
		<path d="M690 935l439 575-153 0c-56 0-106-16-151-47l-273-181-107-199 219-148 26 0 z" fill="#E6E6E6"/>
		<path d="M1714 574c107 0 195 89 195 195l0 143c0 103 70 161 134 237l-581 0c-72 0-141 22-201 62l0-278c0-90 50-168 126-210l235-126c29-15 59-23 92-23 z M1909 360c38 0 72 31 72 71 0 39-31 72-72 72-39 0-72-31-72-72 0-40 34-71 72-71 z M885 288c12 0 22 4 30 12 88 80 38 178 78 221 37 40 77 68 77 127 0 89-98 143-176 143l-141 0 74-424c5-29 19-79 58-79 z M1432 431c27 0 47 22 47 48 0 15-6 28-19 37-27 19-223 176-243 176-14 0-27-13-27-28l0-164c0-40 31-69 69-69l173 0 z M2412-72l0 288c-81 0-144-67-144-144 0-81 67-144 144-144 z M2089 575c58 0 108 49 108 108l0 263c0 33-26 60-60 60-32 0-51-28-73-48-56-54-83-128-83-200l0-75c0-63 50-108 108-108 z M905 935c127 0 235 100 235 233l0 177 29 0c90 0 165 73 165 165l-203 0c-38 0-79-12-112-33l-283-180-13-124-166-236c5-1 9-2 14-2l334 0 z" fill="#636363"/>
		<path d="M667 935l0 213c0 64-44 136-113 136l-103-69c-31-22-51-57-51-95 0-100 80-185 185-185l82 0 z" fill="#FF8687"/>
		<path d="M795 1116c18 0 36 17 36 36l0 49c0 19-15 36-36 36-19 0-36-15-36-36l0-49c0-18 17-36 36-36 z" fill="#1C1C1C"/>
		<path d="M508 1038c19 0 35 16 35 37l0 39c0 21-16 36-35 36-19 0-36-15-36-36l0-40c0-19 15-36 36-36 z" fill="#BB1D80"/>
	</g></svg>
