<svg version="1.1" xmlns="http://www.w3.org/2000/svg"><g transform="scale(1,-1)">
		<path d="M1814-287c11 0 19 7 22 18l69 341-144 0c-8-31-68-320-68-335 0-15 10-24 23-24l98 0 z M1523-287c12 0 22 9 22 21 0 20-59 298-67 338l-144 0 68-341c3-11 12-18 23-18l98 0 z" fill="#FF5E59"/>
		<path d="M2246-287c6 0 11 2 16 7 4 4 6 9 6 15l0 460c47 53 82 112 107 177 25 65 37 132 37 203l0 347c0 34-10 65-29 94-19 29-45 49-77 62-4 1-7 2-10 2-7 0-14-3-19-8-6-6-9-13-9-20l0-96c-55 63-119 111-194 144-75 33-154 50-237 50l-886-1c-17 23-35 39-55 50-21 10-42 17-65 21-19 2-39 4-59 4l-13 0c-25-1-50-2-75-2-10 0-18-3-25-10-7-7-11-16-11-26 0-6 5-17 16-34 10-17 22-35 35-54 13-20 25-39 38-56l25-36c-29-25-54-53-77-82-23-30-43-62-60-96-13-25-32-37-59-37-18 0-37 1-57 2l-15 0c-15 0-29-1-42-4l0-428c13-2 27-3 42-3l75 2c31 0 57-11 79-33l379-379c13-13 20-29 20-48l0-165c0-6 2-11 7-15 4-5 9-7 15-7l99 0c6 0 11 2 16 7 4 4 6 9 6 15l0 265 429 79 338-66 152-113c5-4 9-11 12-20 3-10 4-18 4-24l0-121c0-6 2-11 7-15 4-5 9-7 15-7l99 0 z" fill="#FF8687"/>
		<path d="M1837 0c40 0 81 5 120 13 0 73-60 131-131 131l-575 0c-33 0-61-26-61-60l0-84 647 0 z M453 361c51 9 90 51 90 106l0 216c0 52-35 98-90 106-30-7-53-33-53-66l0-296c0-30 21-59 53-66 z" fill="#FBB8AB"/>
		<path d="M795 575c19 0 36 15 36 36l0 72c0 19-15 36-36 36-19 0-36-15-36-36l0-72c0-19 15-36 36-36 z" fill="#1C1C1C"/>
	</g></svg>
