<svg version="1.1" xmlns="http://www.w3.org/2000/svg"><g transform="scale(1,-1)">
		<path d="M1498-287c15 0 19 10 19 25 0 58-39 103-89 118 312 0 576 226 619 539l0-301c0-113 180-237 286-237 40 0 68 18 68 62l0 324c0 85-143 233-237 236 87 3 237 143 237 235l0 324c0 44-28 62-68 62-100 0-286-119-286-237l0-300c-37 267-240 480-505 528 87 7 160 32 213 79 55 48 99 142 99 210 0 20-1 67-41 67l-378 0c-203 0-274-196-276-346l-65 0c-278 0-521-185-598-449-6 2-13 3-20 3-42 0-76-32-76-76 0-31 20-61 51-72-30-11-51-38-51-72 0-50 41-75 83-75 56-294 316-504 611-504l128 0c3-70 39-143 117-143l159 0 z" fill="#00A6ED"/>
		<path d="M1126 122c9 0 18 4 26 12 98 98 167 244 167 389 0 138-63 272-170 358-7 5-14 9-23 9-18 0-36-17-36-36 0-24 21-35 39-51 76-71 118-188 118-282 0-145-62-238-147-338-7-8-10-16-10-25 0-19 18-36 36-36 z" fill="#0074BA"/>
		<path d="M865 567c25 0 43 21 43 44 0 23-18 44-43 44-24 0-44-19-44-44 0-24 19-44 44-44 z" fill="#1C1C1C"/>
	</g></svg>
