<svg version="1.1" xmlns="http://www.w3.org/2000/svg" viewBox="0 0 2300 2300"><g transform="scale(1,-1) translate(-256, -1869)">
		<path d="M525 719c30 0 54 22 54 54l0 75-48 0c-33 0-59-25-59-59l0-16c0-29 21-54 53-54 z" fill="#F8312F"/>
		<path d="M1742-287c11 0 19 6 22 17l141 630-215 0c-12-55-141-610-141-631 0-9 9-16 18-16l175 0 z M1460-287c12 0 18 9 18 21l-105 626-216 0 105-629c3-11 11-18 22-18l176 0 z" fill="#D3883E"/>
		<path d="M2319-287c6 0 11 2 16 7 4 4 6 9 6 15l0 420c0 27-7 50-22 67-15 17-32 31-50 43l-49 30c-15 9-23 18-23 29l0 379c0 19-2 38-6 56 34 17 65 37 92 62 27 25 50 53 69 84 19 31 34 64 45 99 10 35 15 72 15 109 0 54-10 105-31 154-21 48-49 90-84 126-36 36-78 65-126 86-48 21-99 31-153 31-41 0-80-6-118-18-38-12-73-29-105-50-32-22-61-48-86-79-25-31-45-66-60-104l-7-19-8-25c-3-9-5-17-6-25-2-9-3-15-3-20 0-5 2-10 5-14 3-4 7-6 13-6 33 0 62 6 87 17 25 11 46 31 63 62 23 43 54 76 92 101 38 24 82 36 131 36 35 0 67-7 98-20 31-13 58-31 81-54 23-23 41-49 54-80 13-31 19-64 19-99 0-23-3-46-9-68-7-22-16-43-28-62-12-19-26-37-43-52-17-16-35-29-56-40-29 37-64 65-106 86-42 20-86 30-133 30l-11 0c-4 0-8 0-12-1l-490-61c-3-1-6-1-9-1l-9 0c-21 0-38 4-52 12-14 8-26 18-36 31-10 12-19 26-26 42-7 16-14 32-20 48l-89 224c-7 19-20 35-37 47-18 12-37 18-58 18l-140 0c-33 0-63-5-92-15-29-11-56-25-79-44-23-19-43-41-60-67-17-26-30-54-38-85l-9-29c-3-9-7-17-12-24-5-7-12-13-20-17-8-5-18-7-31-7l-109 0c-15 0-28-5-38-15-11-11-16-24-16-39l0-18c0-30 6-58 17-84 11-26 27-49 46-68 19-19 42-35 68-46 26-11 54-17 84-17l122 0c6 0 11-2 16-6 4-5 6-10 6-16l0-136c0-65 13-127 38-186 25-59 60-112 106-157l0-74-94 0c-27 0-52-5-75-15-24-11-45-25-62-42-17-18-31-39-41-62-11-24-16-49-16-76l0-38c0-8 1-15 3-22 2-9 6-17 13-23 7-7 17-10 30-10l125 0c11 0 20 2 26 7 6 4 11 10 14 17 3 7 4 14 5 23l0 25 84 0c28 0 54 5 79 16 25 11 46 25 65 44 18 18 32 40 43 65 11 25 16 51 16 79l0 84 182 39c28 5 54 11 78 16l88 17c19 0 36-1 50-4l50-9 199-25c1-27 5-53 14-78 8-25 20-49 35-70 15-22 32-41 53-58 20-17 43-30 68-40l176-70c9-3 14-10 14-21l0-250c0-7 2-12 7-16 5-4 10-6 16-6l171 0 z" fill="#F3AD61"/>
		<path d="M1610 288c53 0 107 11 155 34 0 58-49 109-110 109l-537 0 0-143 492 0 z" fill="#FFDEA7"/>
		<path d="M490 971c29 0 53 23 53 53 0 29-21 54-53 54l-36 0c-32 0-54-24-54-54 0-32 25-53 54-53l36 0 z M795 1018c19 0 36 15 36 36l0 41c0 19-15 36-36 36-19 0-36-15-36-36l0-41c0-19 15-36 36-36 z" fill="#212121"/>
		<path d="M1083 1006c56 0 98 37 111 87 11 40 46 161 46 192 0 44-36 81-81 81l-256 0 68-273c13-51 60-87 112-87 z" fill="#D3883E"/>
	</g></svg>
