<svg version="1.1" xmlns="http://www.w3.org/2000/svg"><g transform="scale(1,-1)">
		<path d="M1826-287c33 0 63 6 91 18 27 11 51 27 72 48 20 20 36 44 47 72 11 27 17 57 17 90 52 2 100 14 144 36 44 22 82 51 114 87 32 35 57 76 75 123 18 46 27 95 27 146 0 73-11 138-32 193-21 55-48 105-80 148-33 43-68 82-105 116l-104 96c-33 29-60 58-81 87-21 29-32 59-32 92 0 30 9 53 26 70 17 16 40 24 69 24 25 0 44-5 57-15 13-11 24-22 34-34 10-13 21-24 33-34 12-11 30-16 53-16 13 0 26 3 38 8 12 5 23 13 32 22 9 9 16 19 21 31 5 12 7 25 7 38 0 17-5 34-14 51-13 23-29 44-48 62-19 18-41 33-64 46-23 13-48 22-73 29-26 6-52 9-78 9-42 0-81-7-116-22-35-15-66-35-92-61-26-26-46-57-61-92-15-35-22-74-22-116 0-42 6-80 19-114 12-34 28-65 49-94 21-29 44-55 70-80 26-25 53-49 80-73l79-74c26-25 49-52 70-81 21-29 37-61 50-96 12-35 18-74 18-117 0-24-4-47-11-70-8-23-19-43-33-61-14-18-31-33-51-45-21-12-43-19-68-21 0 27 0 53 1 79 0 26 0 52-1 79-1 27-5 57-13 90-9 32-18 61-27 86-48 131-120 236-217 313-97 77-214 126-353 147l-20 2-16-1c9 19 17 36 24 53 7 17 11 36 11 57 0 15-3 31-8 48-5 17-12 34-19 51l-24 51c-9 16-16 31-22 44-16 35-36 67-61 96-25 29-53 53-84 74-31 20-65 36-101 47-36 11-74 16-113 16l-71 0c-39 0-77-5-113-16-37-11-70-27-101-47-31-21-59-45-84-74-25-29-46-61-62-97l-21-44c-9-17-17-33-24-50-7-17-13-34-18-51-5-17-8-33-8-48 0-15 2-29 6-43 4-14 9-28 15-41l20-40c7-13 13-26 19-39l15-34c4-12 9-24 16-35 26-46 60-85 103-117 43-32 90-54 141-67-65-48-123-102-176-163-53-61-99-127-137-197-38-71-67-145-88-222-21-78-31-158-31-239 0-7 2-15 5-26 3-11 8-21 14-31 5-10 12-19 19-26 7-7 15-11 23-11l251 0c-1 9-1 19-1 28-1 9-1 19-1 28 0 63 9 127 28 193 18 66 44 129 78 189 33 59 74 113 122 162 47 48 100 86 158 114l225-237c-41-11-80-27-116-49-36-22-68-48-97-78-29-31-55-64-76-101-21-37-38-75-49-116-5-15-9-31-12-48-4-17-6-34-6-49 0-10 3-18 10-25 6-7 14-11 25-11l815 0 z" fill="#6D4534"/>
		<path d="M1837-287l-359 0c0 98 79 179 180 179 97 0 179-79 179-179 z M831-287l-359 0c0 97 79 179 179 179 98 0 180-79 180-179 z M1380 878c15 41 22 85 22 130l0 71c0 56-11 112-35 163 81-21 142-93 142-184 0-81-53-154-129-180 z M568 878c-75 27-126 100-126 180 0 84 53 159 140 184-23-52-35-106-35-163l0-71c0-45 7-88 21-130 z M974 758c139 0 250 111 250 250 0 13-1 27-3 40 45 28 74 77 74 135 0 91-67 165-160 165l-322 0c-88 0-159-72-159-160 0-56 21-108 74-140-2-13-3-27-3-40 0-136 112-250 249-250 z" fill="#E39D89"/>
		<path d="M974 794c80 0 143 62 143 143l-285 0c0-78 63-143 142-143 z" fill="#BB1D80"/>
		<path d="M1017 1005c21 0 39 15 39 38 0 22-16 39-39 39l-88 0c-23 0-38-18-38-39 0-22 17-38 38-38l88 0 z" fill="#FF8687"/>
		<path d="M1083 1078c-18 0-35 17-35 36l0 74c0 18 16 35 35 35 18 0 35-16 35-35l0-74c0-21-16-36-35-36 z M1013 1013c-11 0-18 7-18 18 0 11 7 18 18 18 11 0 18-7 18-18 0-11-7-18-18-18 z M935 1013c-11 0-17 9-17 18 0 9 6 18 17 18 11 0 18-7 18-18 0-11-7-18-18-18 z M868 1078c18 0 35 17 35 36l0 74c0 18-16 35-35 35-19 0-36-17-36-35l0-74c0-19 15-36 36-36 z" fill="#1C1C1C"/>
	</g></svg>
