<svg version="1.1" xmlns="http://www.w3.org/2000/svg" viewBox="0 0 2300 2300"><g transform="scale(1,-1) translate(-256, -1869)">
		<path d="M2345-250c40 0 67 31 67 68l0 1344c0 36-23 69-56 83l-274 113c-9 4-14 11-14 21 0 32 79 179 79 234 0 62-51 112-112 112l-106 0c-123 0-234-50-315-131-20-21-35-43-53-65-10-12-20-19-37-19-214 0-405-106-522-281l-82-123c-100-151-267-243-453-243-7 0-15-2-23-5l-1-566c14-6 64-6 117-6 52 0 107 2 127 2 91-136 243-216 403-216l386 0c94 0 190-20 279-60l562-256c9-4 18-6 28-6 z" fill="#6D4534"/>
		<path d="M446 291c139 24 241 144 241 284 0 140-105 263-241 284-28-9-46-35-46-64l0-440c0-30 20-54 46-64 z M1589 1150c186 0 357 108 424 288 5 16 40 104 40 115 0 16-15 28-29 28l-82 0c-136 0-262-81-316-219-8-25-67-165-67-183 0-16 13-29 30-29 z" fill="#FF8687"/>
		<path d="M1131 288c25 0 45 19 45 45 0 16-9 29-22 38-110 73-163 127-228 249-10 17-24 26-41 26-39 0-49-35-49-73 0-61 1-91 10-143 11-61 29-142 86-142l199 0 z" fill="#D3D3D3"/>
		<path d="M508 431c19 0 35 15 35 36l0 216c0 21-16 36-35 36-19 0-36-15-36-36l0-216c0-19 15-36 36-36 z M1190 647c39 0 72 31 72 72l0 144c0 39-34 72-72 72-38 0-72-33-72-72l0-144c0-39 34-72 72-72 z" fill="#1C1C1C"/>
		<path d="M1993 227c34 0 59 26 59 59 0 17-6 31-17 42l-96 96c-11 11-26 17-43 17-31 0-59-25-59-59 0-17 6-31 17-42l97-96c11-11 25-17 42-17 z M2125 568c34 0 59 27 59 60 0 33-25 59-59 59l-137 0c-33 0-60-25-60-59 0-33 26-60 60-60l137 0 z M1897 813c17 0 31 6 42 17l97 97c11 11 17 25 17 42 0 33-24 59-60 59-17 0-31-6-42-17l-96-97c-11-11-17-25-17-42 0-33 25-59 59-59 z" fill="#A56953"/>
	</g></svg>
