<svg version="1.1" xmlns="http://www.w3.org/2000/svg"><g transform="scale(1,-1)">
		<path d="M1853-215c257 0 487 208 487 488 0 193-114 368-288 447-5 3-12 4-19 4-27 0-51-21-51-50 0-194 143-239 143-400 0-152-126-273-275-273-120 0-229 83-261 198l-220 0c35-237 243-414 484-414 z" fill="#A56953"/>
		<path d="M1596 825c196 0 356 121 424 297 81 203 147 398 223 603l-115 0-210-565c-53-142-181-227-322-227l-405 0 0-108 405 0 z" fill="#00A6ED"/>
		<path d="M825-287c9 0 15 4 17 12l119 366c11 35 14 71 14 107l0 377-215 0 0-417c0-11-1-21-4-30-16-59-127-374-127-397 0-11 7-18 18-18l178 0 z" fill="#D3883E"/>
		<path d="M1684-287c163 0 298 132 298 297l1 124c0 51-2 103-10 154l-403 204-307 514 0 361c0 80-34 168-88 228-24 25-56 57-86 57-22 0-42-19-42-42l2-172-103 0c-199 0-202-216-294-216l-73 0c-23 0-107-22-107-52 0-143 32-307 214-307l22 1 24-2c16-3 28-9 28-28l1-253c0-98 61-176 143-207l0-242c0-7 0-22-3-29l-118-343-2-12c0-18 17-35 36-35l139 0c17 0 29 8 34 24l115 327c13 38 14 82 14 122l0 30 148-86c-69-74-76-133-76-239l0-35c-59 0-140-53-140-115 0-18 16-28 32-28l601 0 z" fill="#F3AD61"/>
		<path d="M1966 324c-10 47-25 93-44 137-19 44-43 85-70 124-28 39-60 74-95 107-35 33-74 62-115 87l-344 206 0-104c0-17-3-28-10-35-7-7-16-12-27-15-8-2-16-3-26-3l-9 0c-13 0-24 0-35-1-11-1-19-4-26-9-7-5-11-14-11-27l0-288c0-12 3-20 10-25 7-5 15-9 24-10 7-1 14-2 21-2l35 1c16 0 28-3 35-10 7-7 12-16 15-27 3-11 4-22 4-34l0-11 1-24c1-11 4-19 9-26 5-7 13-11 26-11l632 0 z" fill="#F8312F"/>
		<path d="M1973 288c-4 24-9 48-15 72l-264 0 0 384c-11 9-23 18-35 25-12 7-24 15-37 22l0-431-288 0 0 53c0 25-9 47-26 64-17 17-39 26-64 26l-54 0 0 288 54 0c25 0 47 9 64 26 17 17 26 39 26 64l0 83-71 42c0-13 0-27 1-41 1-14 1-28 1-41 0-19-1-32-2-41-2-9-6-14-11-17-4-2-10-4-18-4l-5 0c-10 1-23 1-39 1-17 0-32-5-45-16-13-11-22-25-25-41-2-10-3-21-3-32l0-11c1-15 2-29 2-44l-360 0 0-144 360 0-1-40c0-13 1-25 3-37 1-13 5-24 10-34 5-10 12-18 21-24 9-6 22-9 38-9 6 0 12 0 18 1 6 1 12 1 18 1 13 0 22-2 27-5 5-4 9-9 10-15l1-15 0-7c-1-9-2-17-2-26 0-21 7-39 20-54 13-15 30-23 52-23l639 0 z" fill="#636363"/>
		<path d="M1371 565c44 0 82 35 82 82 0 44-35 82-82 82-44 0-82-35-82-82 0-44 35-82 82-82 z" fill="#FBB8AB"/>
		<path d="M688 863l0 282c0 42-32 77-76 77l-161 0c-43 0-51-35-51-71 0-161 128-288 288-288 z" fill="#A56953"/>
		<path d="M868 1094c19 0 36 17 36 35l0 41c0 19-15 36-36 36-19 0-36-15-36-36l0-40c0-19 15-36 36-36 z M490 1114c32 0 53 25 53 54 0 30-21 54-53 54l-36 0c-32 0-54-24-54-54 0-30 25-54 54-54l36 0 z" fill="#212121"/>
	</g></svg>
