<svg version="1.1" xmlns="http://www.w3.org/2000/svg"><g transform="scale(1,-1)">
		<path d="M1835-215l-241 0 92 129c5 7 7 20 7 30l0 344 289 0 0-322c0-19-9-54-23-68l-124-113 z M1120-215l0 124c0 14 4 22 13 32 37 40 58 87 58 142l-1 277-287-2 0-573 217 0 z" fill="#D3883E"/>
		<path d="M2412-215l0 312c0 26-7 48-22 67-15 19-32 36-50 53-18 16-34 32-49 47-15 15-23 32-23 51l0 691c0 31-9 59-26 84-18 25-42 43-71 52l-12 2c-14 0-23-5-28-15-5-11-8-24-8-39l0-12c0-12 1-25 2-38 1-14 2-27 2-39l0-12c-1-15-3-28-8-38-5-11-15-16-30-16l-743 0c-25 0-49 7-71 20-22 13-39 31-50 54l-129 258c-15 30-37 54-66 72-29 18-61 27-95 27l-182 0c-21 0-41-4-60-12-20-8-37-19-52-34l-219-219c-7-7-13-16-16-25-4-10-6-20-6-29 0-17 3-33 10-46 6-14 15-26 26-35 11-10 23-18 38-23 14-5 29-8 46-8l46-41 49 41c7 0 14-2 20-6 6-5 10-11 11-18l128-503c6-23 16-45 29-66 13-21 28-40 46-57 18-17 38-32 59-44 21-12 44-20 67-25l0-431 215 0 0 124c0 8 4 17 11 27l25 35c9 13 17 29 25 48 7 18 11 39 11 64l0 133 511 0c15 0 28-4 39-12l366-262c5-4 10-9 14-16 3-7 5-14 5-21l0-120 215 0 z" fill="#F3AD61"/>
		<path d="M1070 940c23 0 43 16 43 42 0 23-81 171-97 201l-129-64 44-87c24-48 86-92 139-92 z" fill="#D3883E"/>
		<path d="M2390-287l-171 0c-12 0-22 10-22 22l0 121 215 0 0-121c0-12-10-22-22-22 z M1732-287c26 0 34 11 53 27l128 116-268 0c-13-16-82-108-82-121 0-14 11-22 23-22l146 0 z M1168-287c12 0 22 10 22 22l0 121-287 0 0-121c0-12 10-22 22-22l243 0 z" fill="#6D4534"/>
		<path d="M476 1006c18 0 33 16 33 35 0 22-15 37-36 37l-66 0c-5-9-7-20-7-31 0-15 3-28 7-41l69 0 z M723 1047c19 0 36 15 36 36l0 54c0 19-15 36-36 36-19 0-36-15-36-36l0-54c0-19 15-36 36-36 z" fill="#1C1C1C"/>
		<path d="M615 791l0 144-95 0 0-55c0-55 41-89 95-89 z M914 1242c36 0 60 25 70 56 35 110 127 176 242 176 78 0 141-47 154-47 15 0 26 10 26 25 0 6-2 12-6 17-55 71-156 112-246 112-147 0-270-109-310-248-2-6-3-13-3-20 0-40 36-71 73-71 z" fill="#9B9B9B"/>
	</g></svg>
