<svg version="1.1" xmlns="http://www.w3.org/2000/svg" viewBox="0 0 2300 2300"><g transform="scale(1,-1) translate(-256, -1869)">
		<path d="M1387-287c12 0 22 10 22 22 0 49-42 86-86 86l-66 0 80 305-108 0-80-305-86 0c-46 0-85-37-85-86 0-12 10-22 22-22l387 0 z" fill="#FF6723"/>
		<path d="M1674-287c12 0 22 10 22 22 0 49-38 86-85 86l-66 0 79 305-107 0-80-305-86 0c-49 0-86-42-86-86 0-12 10-22 22-22l387 0 z M617 1132l70 90-36 152-170-142c-7-5-10-12-10-21 0-11 5-18 16-23l130-56 z" fill="#FF822D"/>
		<path d="M1406 0c339 0 637 215 748 537 15 51 20 110 75 110l-679 295c0-45-37-79-80-79-103 0-167 56-211 143l-330 161-314-161 0-215c0-436 351-791 791-791 z" fill="#6D4534"/>
		<path d="M2307 647c19 0 32 14 32 32 0 9-4 18-12 25-44 38-154 64-154 110 0 18 17 36 36 36 37 0 113-78 157-78 27 0 46 22 46 48 0 19-8 33-24 42l-196 113c-12 7-18 18-18 32 0 19 17 35 36 35 37 0 112-77 158-77 27 0 44 23 44 48 0 19-8 33-24 42l-195 112c-11 7-19 20-19 33 0 18 17 35 36 35 35 0 132-85 164-85 15 0 27 12 27 26l-1 7c-45 192-224 327-420 327-89 0-175-28-247-78-102-71-183-205-183-335l0-162c0-161 129-288 287-288l470 0 z" fill="#44911B"/>
		<path d="M1259 1006l-99 192c-18 36-35 58-49 96-5 10-25 156-28 180 0 5-18 25-21 30-50 58-161 113-231 113-164 0-216-111-216-251l0-360 644 0 z" fill="#FFB02E"/>
		<path d="M540 863c26 0 44 7 55 20 11 13 17 30 20 50l2 37-1 28c-1 12-1 23-1 33 0 11 0 21 1 31 1 20 7 37 16 50 9 13 25 20 49 20l96 0c22 0 43 4 63 13 19 9 36 20 51 35 15 15 26 32 35 52 9 19 13 40 13 62 0 22-4 43-13 63-9 19-20 36-35 51-15 15-32 26-51 35-20 9-41 13-63 13-22 0-43-4-62-13-20-9-37-20-52-35-15-15-26-32-35-51-9-20-13-41-13-63l0-91c0-17-3-31-10-42-7-11-16-20-27-27-11-7-22-14-34-20-13-7-24-14-35-23-11-9-19-20-26-33-7-14-11-32-11-54l0-67c0-9 2-18 5-27 3-9 8-16 14-23 6-7 13-13 22-17 8-5 17-7 27-7 z M1110 1294l83 83c28 28 42 62 42 101 0 80-65 145-145 145-11 0-22-4-34-4-11 0-15 7-19 15-28 56-69 91-134 91-94 0-117-77-143-77-14 0-25 5-40 5-60 0-105-52-105-110l0-177c0 119 97 215 216 215 81 0 154-45 191-116l88-171 z" fill="#F8312F"/>
		<path d="M738 1265c27 0 50 25 50 51 0 26-23 50-50 50-26 0-51-23-51-50 0-27 22-51 51-51 z" fill="#212121"/>
		<path d="M1409 144c230 0 427 117 543 298 39 60 88 176 88 216 0 36-29 61-62 61l-1139 0c-37 0-62-26-62-69l1-7c73-296 331-499 631-499 z" fill="#A56953"/>
	</g></svg>
