<svg version="1.1" xmlns="http://www.w3.org/2000/svg" viewBox="0 0 2300 2300"><g transform="scale(1,-1) translate(-256, -1869)">
		<path d="M1403-290c42 0 84 3 126 8 158 18 295 38 452 67l22 257c50 73 85 153 105 238 54-28 134-67 198-67 71 0 97 52 97 113 0 129-106 317-218 480-62 89-116 151-154 202-12 55-26 107-33 163-36 280-298 529-586 529-318 0-552-246-606-529-11-61-25-115-37-177-125-141-360-486-360-668 0-61 28-113 97-113 62 0 140 36 195 66 21-86 57-167 104-237l26-257c168-29 411-75 572-75 z" fill="#533566"/>
		<path d="M1404-143c317 0 582 252 582 573 0 158-65 312-188 423 50 80 66 174 66 264 0 192-190 425-368 425-45 0-26-106-90-106-65 0-50 106-92 106-25 0-50-4-74-13-169-64-297-249-297-412 0-90 17-183 67-265-120-107-188-261-188-422 0-319 261-573 582-573 z" fill="#FFFFFF"/>
		<path d="M2058-291c18 0 32 14 32 33 0 97-36 213-86 302-133-199-352-334-599-334-246 0-469 130-602 335-48-86-87-201-87-303 0-19 14-33 32-33l1310 0 z M1623 933c0 120-97 217-217 217-120 0-216-97-216-217l433 0 z" fill="#FF822D"/>
		<path d="M1514 1244c19 0 36 15 36 36l0 50c0 19-15 36-36 36-19 0-36-15-36-36l0-50c0-19 15-36 36-36 z M1298 1244c19 0 36 15 36 36l0 50c0 19-15 36-36 36-19 0-36-15-36-36l0-50c0-19 15-36 36-36 z" fill="#1C1C1C"/>
	</g></svg>
