<svg version="1.1" xmlns="http://www.w3.org/2000/svg"><g transform="scale(1,-1)">
		<path d="M870-285c11 0 22 2 35 5l34 9c26 9 50 20 73 35 23 15 42 32 59 52 16 20 29 43 38 68 9 25 14 51 14 80l0 109c36-10 72-16 109-17 37-2 74-3 111-3 79 0 156 9 229 28 73 18 141 44 204 79 63 35 120 77 171 126 51 49 95 105 132 166 36 61 64 128 84 201 20 72 30 149 30 230 0 85-13 167-40 246-27 79-65 153-113 222 19 44 41 84 66 121 25 37 52 74 82 112 6 7 11 15 14 23 3 8 5 17 5 26 0 17-5 33-15 46-10 13-24 22-41 26-59 13-119 20-179 20-54 0-107-5-160-16-53-11-104-28-154-49-44 18-85 32-123 41-39 9-77 15-115 19-39 3-78 5-119 5-41-1-86-1-134-1-38 0-75-7-111-20-37-14-70-33-101-56-31-24-57-52-80-83-23-32-40-66-51-102-5-13-8-27-9-40l-4-41c-1-11-2-19-5-24-3-5-6-9-11-12-5-3-11-4-18-5l-24-2c-42-4-76-18-101-41-26-24-39-58-39-102 0-15 2-30 6-45l68-37 577 0-1-46 2-66c2-38 8-75 18-110 9-36 23-70 42-101 19-32 44-60 76-84 13-9 26-14 40-14 10 0 18 3 24 8 6 5 9 13 9 24 0 5-1 10-2 15l-4 15c-9 30-16 60-21 89-5 29-8 60-8 92 0 26 2 52 5 78 3 25 8 51 15 76 27-10 50-24 71-43 20-19 37-41 50-65 13-24 23-50 30-77 7-27 10-55 10-82 0-41-6-79-18-113-12-34-28-66-49-96-21-30-44-58-71-84-27-27-54-52-83-77-21-18-42-35-61-50-19-16-39-29-59-40-21-11-43-20-66-26-28-8-54-10-90-10l0 143c0 35-6 69-17 101-11 31-27 60-47 85-21 25-45 47-73 65-29 18-60 31-94 39l-11 3c-3 1-7 1-11 1-24 0-36-12-36-37l0-248c0-21 3-41 10-60 6-19 14-38 25-56 10-18 22-35 36-50 13-16 27-31 41-44l21-20c9-9 13-17 13-25 0-7-7-17-22-31-15-14-31-31-48-51-18-20-34-42-49-67-15-25-23-51-24-79-1-41-2-82-2-123 0-41 0-83-1-124 0-11 3-20 10-25 7-6 15-9 26-9 z" fill="#00A6ED"/>
		<path d="M1169 1336c27 0 51 22 51 51 0 27-22 51-51 51-27 0-51-22-51-51 0-27 22-51 51-51 z" fill="#1C1C1C"/>
		<path d="M1263 1038c0 39 1 76 4 115l-17 1-631 0c23-86 88-104 159-104l172 0c104 0 209 0 313-12 z M1414 466c117 91 259 237 259 399 0 131-81 227-202 264-16-46-26-93-30-141l2-2c68-64 106-130 106-221 0-114-62-221-135-299 z" fill="#AEDDFF"/>
	</g></svg>
