<svg version="1.1" xmlns="http://www.w3.org/2000/svg"><g transform="scale(1,-1)">
		<path d="M1895-287l-179 0c-11 0-18 7-18 18 0 24 151 685 167 753l215 0-168-757c-3-9-8-14-17-14 z M1599-287c14 0 18 9 18 22l-187 840-215 0 188-848c2-9 8-14 17-14l179 0 z" fill="#D3883E"/>
		<path d="M2304-287c19 0 36 15 36 36l0 1190c8-3 15-5 21-5 32 0 51 24 51 54 0 27-21 43-38 61-86 85-48 48-133 140-71 76-141 159-212 227-64 62-143 94-228 94-122 0-219-63-278-159l-26-39c-104-145-69-98-174-250-23-32-45-63-66-96l0-1c-15-22-35-33-62-33-42 0-71 37-71 74-5 398-6 216-6 628 0 10-9 19-20 19-68 0-123-55-123-124 0-10-9-19-20-19l-303 0c-139 0-252-114-252-253l0-26c0-44 35-81 80-81l212 0c39 0 67-30 67-67l0-207c0-192 101-351 262-450 16-11 26-23 26-43l0-634c0-19 15-36 36-36l143 0c19 0 36 15 36 36l0 611 575 0c54 0 106 12 156 35 12-63 32-123 61-182 16-35 71-126 71-161l0-303c0-19 15-36 36-36l143 0 z" fill="#F3AD61"/>
		<path d="M795 1267c19 0 36 15 36 36l0 63c0 19-15 36-36 36-19 0-36-15-36-36l0-63c0-19 15-36 36-36 z" fill="#1C1C1C"/>
		<path d="M508 1203c18 0 35 17 35 36l0 32c0 21-16 36-35 36-19 0-36-15-36-36l0-32c0-19 15-36 36-36 z" fill="#D3883E"/>
	</g></svg>
