<svg version="1.1" xmlns="http://www.w3.org/2000/svg" viewBox="0 0 2300 2300"><g transform="scale(1,-1) translate(-256, -1869)">
		<path d="M1880-287l-159 0c-16 0-22 11-22 27l162 726c2 12 9 18 22 18l170 0c12 0 22-11 22-23 0-21-145-663-159-720-4-18-19-28-36-28 z M1594-287c16 0 22 11 22 27l-186 835-215 0 184-834c4-18 19-28 36-28l159 0 z" fill="#D3883E"/>
		<path d="M998 503l0 386-76 0 0 261-242 0c-33 0-65-26-65-64l0-156c0-96 72-126 72-165l0-49c0-118 98-213 213-213l98 0 z M1047 1462l0 148-202 40c-9 2-18 3-27 3-73 0-131-60-131-131l0-58 360-2 z" fill="#A56953"/>
		<path d="M2304-287c19 0 36 15 36 36l0 1021c7-7 17-10 28-10 24 0 44 17 44 42 0 9-3 18-8 25-104 141-193 257-296 402-30 40-76 65-128 65-26 0-48-5-67-15-98-53-130-192-185-192-71 0-98 207-251 207-50 0-98-23-128-65l-163-228c-7-11-17-16-30-16-21 0-38 17-38 36l0 685c0 10-9 19-20 19-74 0-123-99-123-160 0-10-9-19-20-19l-303 0c-139 0-252-114-252-253l0-62c0-44 35-81 80-81l212 0c38 0 67-27 67-67l0-171c0-204 107-354 262-449 17-11 26-25 26-44l0-670c0-19 15-36 36-36l143 0c19 0 36 15 36 36l0 611 575 0c54 0 106 12 156 35 21-118 67-195 122-305 7-14 10-23 10-38l0-298c0-22 18-41 41-41l138 0 z" fill="#F3AD61"/>
		<path d="M795 1307c19 0 36 17 36 35l0 63c0 19-15 36-36 36-19 0-36-15-36-36l0-62c0-19 15-36 36-36 z" fill="#1C1C1C"/>
		<path d="M508 1222c19 0 35 15 35 36l0 32c0 21-16 36-35 36-19 0-36-15-36-36l0-32c0-19 15-36 36-36 z" fill="#D3883E"/>
	</g></svg>
