<svg version="1.1" xmlns="http://www.w3.org/2000/svg"><g transform="scale(1,-1)">
		<path d="M1981 590l406 406c18 18 27 39 27 63 0 51-41 91-91 91l-342 0-108-287 108-273 z M832 590l143 276-143 284-342 0c-50 0-91-39-91-92 0-23 9-44 27-62l406-406 z" fill="#F9C23C"/>
		<path d="M1981 503l0 655c0 316-262 567-575 567-314 0-575-247-575-567l0-655 1150 0 z" fill="#FCD53F"/>
		<path d="M1762 1250c30 0 56 25 56 56 0 30-25 56-56 56-30 0-56-25-56-56 0-30 25-56 56-56 z M1053 1250c30 0 56 25 56 56 0 30-25 56-56 56-30 0-56-25-56-56 0-30 25-56 56-56 z" fill="#1C1C1C"/>
		<path d="M1550 1222c0 81-67 144-144 144-81 0-144-67-144-144l288 0 z" fill="#FF822D"/>
		<path d="M1407-317c504 0 917 408 917 916l1 1-252 253-249-249-417 417-417-417-247 248-253-252c0-508 410-917 917-917 z" fill="#D3D3D3"/>
	</g></svg>
