<svg version="1.1" xmlns="http://www.w3.org/2000/svg"><g transform="scale(1,-1)">
		<path d="M1550 1169c161 0 287 130 287 286 0 96-47 187-128 241-13 8-48 29-62 29-14 0-26-12-26-27 0-5 1-9 2-12 17-40 28-79 28-123 0-127-87-241-209-275-130 36-209 152-209 275 0 44 11 83 28 123 1 3 2 7 2 12 0 15-12 27-26 27-13 0-51-21-62-29-81-54-128-145-128-241 0-157 128-286 287-286 38 0 74 7 108 21 34-14 70-21 108-21 z" fill="#FFDEA7"/>
		<path d="M2053 254l0 847c0 21-2 42-6 62l-212 111-52 29c-43 25-92 40-150 63l-191 72-346 0c-33 0-66-5-98-15-28-8-95-53-95-86l0-1083 1150 0 z" fill="#D3D3D3"/>
		<path d="M2118 1150c162 0 294 131 294 294l0 93c0 26-21 44-45 44l-236 0c-116 0-221-66-270-176-45 22-94 33-145 33l-310 0 171-171c72-72 165-111 260-116l0-1 281 0 z M759 419l647 111 0 324c0 46-6 91-17 136-45 176-199 369-371 369-15 0-32-2-51-5-32 133-151 227-287 227l-236 0c-25 0-44-20-44-44l0-93c0-162 131-294 294-294l69 0c-3-14-4-24-4-38l0-693 z" fill="#636363"/>
		<path d="M1693 719c39 0 72 31 72 72l0 72c0 39-34 72-72 72-40 0-71-34-71-72l0-72c0-38 31-72 71-72 z M1118 719c39 0 72 31 72 72l0 72c0 39-34 72-72 72-40 0-71-34-71-72l0-72c0-38 31-72 71-72 z" fill="#212121"/>
		<path d="M1405-212l302 68 22 0c217 0 396 174 396 397 0 219-180 394-397 394l-645 0c-208 0-396-169-396-394 0-163 97-303 242-366 62-27 107-31 176-31l300-68 z M2118 1258l-104 0c-16 31-37 59-61 83 24 79 92 133 178 133l158 0c8 0 15-7 15-15 0-107-69-201-186-201 z M798 1258c15 29 36 57 61 83-24 79-92 133-178 133l-158 0c-8 0-15-7-15-15 0-109 69-201 186-201l104 0 z" fill="#FBB8AB"/>
		<path d="M1622 288c40 0 71 34 71 72 0 39-33 71-71 71-38 0-72-31-72-71 0-39 31-72 72-72 z M1406-287c123 0 233 54 309 143l-618 0c76-89 186-143 309-143 z M1190 288c39 0 72 31 72 72 0 40-34 71-72 71-38 0-72-31-72-71 0-39 34-72 72-72 z" fill="#FF8687"/>
	</g></svg>
