<svg version="1.1" xmlns="http://www.w3.org/2000/svg"><g transform="scale(1,-1)">
		<path d="M1898 923c148 0 275 93 325 227 104 0 189 72 189 180 0 98-79 180-179 180-98 0-180-78-180-180 0-69 39-131 100-161-40-104-143-174-255-174-19 0-36-15-36-36 0-19 15-36 36-36 z" fill="#D3D3D3"/>
		<path d="M1024-287c12 0 23 10 23 22l0 625-144 0 0-625c0-12 10-22 22-22l99 0 z M2102-287c12 0 22 10 22 22l0 437c0 90-143 76-143 144l0 331-359 0 0-206c0-262 358-235 358-323l0-383c0-12 11-22 23-22l99 0 z" fill="#636363"/>
		<path d="M2317-287c12 0 23 8 23 22l0 437c0 91-143 79-143 144l0 458c0 128-106 232-233 232l-846 0 0 288-359 0-54-162c-10-31-40-54-74-54l-195 0c-21 0-36-16-36-35 0-99 78-180 179-180l180 0 0-360 923 0c85 0 155 69 155 156l0-218c0-92 58-176 140-209l195-79c16-7 24-18 24-35l0-383c0-12 10-22 22-22l99 0 z" fill="#9B9B9B"/>
		<path d="M472 1006c19 0 36 15 36 36 0 19-15 36-36 36l-36 0c-19 0-36-15-36-36 0-19 15-36 36-36l36 0 z M795 1019c22 0 36 19 36 38l0 43c0 19-14 37-36 37-22 0-36-18-36-37l0-43c0-19 14-38 36-38 z" fill="#212121"/>
		<path d="M2053-215c80 0 144 64 144 143 0 81-67 144-144 144-79 0-144-63-144-144 0-80 65-143 144-143 z M1168-287c6 0 11 2 16 7 4 4 6 9 6 15l0 556c41 6 80 19 115 39 35 20 66 45 92 75 25 29 45 63 60 101 14 37 21 77 21 119l0 356c0 23-4 45-13 66-9 20-22 38-37 53-15 15-33 28-53 37-21 9-43 13-66 13-13 0-23 4-32 13-9 9-14 19-14 32l-1 281c0 25-5 48-14 69-10 21-23 40-39 56-17 16-36 29-57 38-22 9-45 14-69 14-36 0-67-9-94-26-27-18-50-42-67-72-8-14-18-25-29-33-12-8-26-12-43-12l-91 0c-20 0-39-4-56-11-17-8-32-18-45-31-13-13-24-29-31-46-8-17-12-36-12-56 0-20 4-39 12-56 7-17 18-32 31-45 13-13 28-24 45-31 17-8 36-12 56-12l306 0c15 0 28-5 38-16 10-11 15-23 15-38l2-305-398 0c-15 0-30-3-43-8-14-6-26-14-37-23-11-9-19-21-26-34-7-13-12-27-14-42l-7-50c-3-19-6-37-8-55-3-19-5-37-7-55-2-18-3-35-3-50 0-35 7-69 21-100 13-31 32-59 55-82 23-23 51-42 82-55 31-14 65-21 100-21l212 0 0-235c-23 13-47 19-72 19-20 0-39-4-56-11-18-8-33-18-46-31-13-13-24-29-31-46-7-17-11-36-11-56 0-20 4-39 12-56 7-17 18-32 31-45 13-13 28-24 45-31 17-7 36-11 56-11 25 0 49 6 72 19 0-5 0-13-1-23l-1-21 0-9c1-10 3-19 6-26 3-8 9-12 18-12l99 0 z" fill="#D3D3D3"/>
		<path d="M1118-215c80 0 144 64 144 143 0 81-67 144-144 144-80 0-143-65-143-144 0-80 62-143 143-143 z M2268-215c80 0 144 64 144 143 0 81-67 144-144 144-80 0-143-65-143-144 0-80 62-143 143-143 z M1083 647c98 0 179 79 179 180 0 22-4 38-9 58l-65 254c-12 48-52 83-105 83-53 0-92-33-105-83l-66-254 1 0c-7-17-10-37-10-58 0-98 78-180 180-180 z" fill="#E6E6E6"/>
	</g></svg>
