<svg version="1.1" xmlns="http://www.w3.org/2000/svg" viewBox="0 0 2300 2300"><g transform="scale(1,-1) translate(-256, -1869)">
		<path d="M1407-251c57 0 114 18 171 46 256 125 473 346 473 636 0 28-3 55-10 82 217 46 371 238 371 458 0 258-206 467-467 467-244 0-450-185-466-437-24 2-48 3-73 3-24 0-49-1-73-4-15 237-208 438-466 438-258 0-467-206-467-467 0-215 152-414 373-458-5-27-7-55-7-82 0-332 254-589 556-670 28-8 56-12 85-12 z" fill="#CDC4D6"/>
		<path d="M1693 144c39 0 72 31 72 72l0 72c0 39-34 72-72 72-40 0-71-34-71-72l0-72c0-38 31-72 71-72 z M1118 144c39 0 72 31 72 72l0 72c0 39-34 72-72 72-40 0-71-34-71-72l0-72c0-38 31-72 71-72 z" fill="#1C1C1C"/>
		<path d="M1408-141c-62 0-108 63-132 113-4 10-13 27-13 38 0 48 56 61 104 62l41 0c39 0 139-3 139-62 0-55-74-151-139-151 z M2023 578c180 21 317 173 317 357 0 191-155 359-359 359-178 0-339-133-358-322 188-61 335-204 400-394 z M789 578c59 187 216 331 400 392-19 183-172 324-358 324-196 0-359-159-359-359 0-181 134-335 317-357 z" fill="#FF8687"/>
		<path d="M795-287c24 0 332 130 373 146 15 5 22 20 22 34 0 21-18 35-36 35-24 0-332-130-372-146-15-7-23-18-23-33 0-19 15-36 36-36 z M2017-287c19 0 36 15 36 36 0 15-8 26-23 33-44 16-349 146-372 146-21 0-36-16-36-35 0-14 7-29 22-34 40-16 351-146 373-146 z M2089-72c19 0 36 15 36 36 0 19-15 36-36 36l-360 0c-19 0-36-18-36-36 0-18 17-36 36-36l360 0 z M1083-72c18 0 35 17 35 36 0 19-17 36-35 36l-360 0c-19 0-36-15-36-36 0-19 15-36 36-36l360 0 z" fill="#B4ACBC"/>
	</g></svg>
