<svg version="1.1" xmlns="http://www.w3.org/2000/svg"><g transform="scale(1,-1)">
		<path d="M2161-287c15 0 29 3 42 9 13 5 25 13 34 23 9 10 17 22 23 35 5 13 8 26 8 41l0 107c10 0 23 0 39-1l20-1 28 2c15 2 29 7 40 14 11 7 17 20 17 37 0 9-2 18-6 27-4 9-9 16-16 23-25 25-51 50-78 74-27 24-53 49-79 74l-34-177-506 0 0-179c0-15 3-28 9-41 5-13 13-25 23-35 10-10 22-18 35-23 13-6 26-9 41-9l360 0 z M1083-287c59 0 107 49 107 108l0 179-363 0c51 48 76 114 76 180 0 138-111 251-252 251-138 0-251-108-251-251 0-121 87-233 215-249l0-110c0-58 49-108 108-108l360 0 z" fill="#C3EF3C"/>
		<path d="M2268-72l0 216c0 464-377 791-832 791-457 0-821-330-821-791l0-216 1653 0 z" fill="#008463"/>
		<path d="M579 216c19 0 36 15 36 36 0 19-15 36-36 36-19 0-36-18-36-36 0-19 18-36 36-36 z" fill="#1C1C1C"/>
		<path d="M1442 72c199 0 399 55 570 155 34 19 71 42 100 69 8 8 13 16 13 28 0 18-16 36-37 36-9 0-16-4-23-9-67-49-128-88-202-119l-152 317c39 13 198 84 198 134 0 19-15 35-36 35-9 0-18-3-25-10-116-97-263-133-406-133-143 0-290 36-406 133-7 7-16 10-26 10-18 0-36-14-36-35 0-48 159-120 198-134l-152-316c-73 31-136 70-202 118-7 5-14 9-23 9-19 0-36-18-36-36 0-31 37-50 61-65 203-132 423-187 622-187 z M1442 144c-121 0-240 22-355 62l155 322c65-17 132-25 200-25 68 0 135 8 200 25l154-322c-115-40-233-62-354-62 z" fill="#00D26A"/>
	</g></svg>
