<svg version="1.1" xmlns="http://www.w3.org/2000/svg"><g transform="scale(1,-1)">
		<path d="M1458-287c8 0 18 7 18 16l0 5c-8 48-56 87-106 87l-124 0 87 431-108 0-86-431-130 0c-54 0-95-38-105-87 0-3-1-2-1-5 0-9 9-16 18-16l537 0 z" fill="#FF6723"/>
		<path d="M1821-287c9 0 19 6 19 17-13 53-48 91-107 91l-128 0 86 431-108 0-86-431-129 0c-48 0-101-36-106-87 0-13 6-21 18-21l541 0 z M556 935l63 333-196-143c-15-11-23-27-23-47 0-19 8-35 23-46l133-97 z" fill="#FF822D"/>
		<path d="M1478-72c411 0 775 270 895 665l-177 385-547 155c-26 8-38 24-48 50-21 59-7 37-38 101-94 190-285 297-482 297-294 0-538-237-538-537l0-181c0-516 419-935 935-935 z" fill="#FCD53F"/>
		<path d="M1784 144c69 0 134 12 197 35 275 100 431 360 431 684 0 32-25 79-59 87l-722 187c138-39 595-199 595-367 0-52-41-93-83-120-134-85-254-107-378-107-221 0-497 98-669 219l0-30c0-357 363-588 688-588 z" fill="#F9C23C"/>
		<path d="M903 1078c39 0 72 34 72 72 0 39-31 72-72 72-39 0-72-31-72-72 0-38 33-72 72-72 z" fill="#1C1C1C"/>
	</g></svg>
