<svg version="1.1" xmlns="http://www.w3.org/2000/svg"><g transform="scale(1,-1)">
		<path d="M962 990c47 0 96 11 137 28 158 69 128 218 243 333 21 24 66 65 66 100 0 36-45 38-68 38-58 0-145-25-207-63-51-32-76-78-101-120-16-26-35-76-64-113-24-30-52-33-78-33-38 0-66 18-102 18-19 0-28-9-28-27 0-10 2-20 5-30 30-90 121-131 197-131 z" fill="#1C1C1C"/>
		<path d="M2137-286c37 0 71 8 103 24 103 50 159 149 159 267l-1 12c-43 448-199 1291-779 1296-56 43-127 79-203 79-49 0-88-14-126-50-37-34-72-69-106-105-178-189-332-355-526-569-87-98-211-205-211-316 0-93 93-166 183-166 13 0 27 2 42 5l619 135c11 2 22 5 33 9-135-156-266-405-288-621l1101 0 z" fill="#A56953"/>
		<path d="M746 207l134 29c15 29 22 60 22 91 0 27-4 65-39 65-21 0-37-15-37-37 0-11 2-18 2-29 0-51-31-100-82-119 z M1327 339c142 57 335 165 443 281 23 66 28 141 28 206 0 185-65 558-316 558-93 0-185-51-258-108 202-41 412-196 412-429 0-210-167-389-309-508 z" fill="#6D4534"/>
		<path d="M2193-287l0 1c127 3 212 23 212 163l0 772c0 133-50 279-203 300-38 100-133 240-255 262-114 170-294 289-507 289-69 0-136-12-204-31 38-55 72-119 99-185l21 0c30 0 72 6 72 25 0 14-11 24-11 39 0 16 19 23 31 26 15-4 31-10 47-18 177-93 224-260 224-415 0-364-322-644-322-1048 0-61 7-120 21-179l434 0 0-1 341 0 z" fill="#1C1C1C"/>
		<path d="M2193-287l-103 0c-34 78-67 193-67 282 0 145 52 327 102 471 39 112 77 200 77 299 0 92-27 167-41 262l4 0c49-85 75-181 75-276 0-45-6-88-18-131-48-176-93-353-93-537 0-126 21-249 64-370 z M1894-286c-25 111-41 221-41 334 0 187 42 319 110 502 39 104 84 221 84 337 0 178-87 341-216 459l-12 2c97-122 157-295 157-439 0-108-31-176-69-277-87-230-155-378-155-623 0-94 10-201 41-295l101 0 z" fill="#6D4534"/>
		<path d="M1336 1218c57 0 147 19 147 93l-1 14c-12 61-184 205-246 254-7 6-9 8-19 8-27 0-27-22-27-41 0-25 1-50 2-75 6-120 2-253 144-253 z" fill="#A56953"/>
		<path d="M569 393c30 0 56 25 56 56 0 15-5 28-16 40l-79-79c10-11 23-17 39-17 z M1118 791c39 0 72 31 72 72l0 72c0 40-34 71-72 71-39 0-71-33-71-71l0-72c0-38 31-72 71-72 z" fill="#1C1C1C"/>
	</g></svg>
