<svg version="1.1" xmlns="http://www.w3.org/2000/svg"><g transform="scale(1,-1)">
		<path d="M2125-287c40 0 77 8 112 23 35 15 65 35 91 61 26 26 47 56 62 91 15 35 22 72 22 112l0 995c0 49-12 93-37 132-25 39-59 70-102 92l-22 11c-11 5-22 10-33 16-11 5-21 11-30 17-9 5-13 10-13 15 0 6 2 10 7 13 5 2 10 3 17 4l9 1 10-1c6-1 11-1 15-1 25 0 48 5 70 14 21 9 40 22 57 39 16 16 29 35 38 57 9 22 14 45 14 70 0 25-5 48-14 70-9 21-22 40-38 57-17 16-36 29-57 38-22 9-45 14-70 14l-146 0c-45 0-86-8-125-25-39-17-73-39-102-68-29-29-52-63-69-102-17-39-26-81-26-126 0-57 14-109 42-158 27-49 65-88 114-117l135-81c21-13 38-30 51-51 12-21 18-44 18-69l0-856-322 0 0-287 322 0 z" fill="#A56953"/>
		<path d="M677 360c22 0 52 18 71 28 45 21 73 67 73 117l0 143-288 0 0-143c0-50 28-96 73-117 15-8 52-28 71-28 z" fill="#6D4534"/>
		<path d="M802 576c30 0 54 22 54 54 0 29-24 54-54 54l-250 0c-30 0-54-25-54-54 0-29 24-54 54-54l250 0 z M1834-287c30 0 58 6 85 17 27 11 50 27 70 47 20 20 36 43 47 70 11 27 17 55 17 85l0 571-1 0c-4 81-23 156-56 226-34 70-78 131-133 183-55 51-118 92-189 122-72 29-148 44-229 44-32 0-59 6-80 18-22 12-41 28-56 47-15 19-29 40-40 64l-36 73c-13 27-24 56-31 85-7 29-11 58-11 88 0 28-5 54-14 79-9 24-22 45-39 63-17 18-38 32-61 43-24 10-50 15-79 15-7 0-12-2-16-6-5-5-7-10-7-17l0-120-100 0c-60 0-114-14-163-43-49-29-90-68-121-118l-169-271 553-287-72-216-105 0c-15 0-30-3-43-8-13-6-25-14-35-24-10-10-18-22-24-35-6-13-9-28-9-43 0-15 3-29 9-42 5-13 13-24 23-33 10-9 22-17 35-22 13-5 26-8 41-8l144-3c0-45 0-90-1-133l0-30c0-33 1-66 5-99 5-42 14-83 28-123 13-40 35-79 64-116-26 0-53 1-81 2l-11 0c-25 0-48-3-70-7-26-5-49-16-68-31-20-15-34-39-42-72l-1-6c0-8 3-15 9-20 5-6 12-9 20-9l1043 0 z" fill="#F3AD61"/>
		<path d="M1262-144l-278 0c-61 87-81 191-81 292l0 209c147 0 269 0 359 118l0-619 z M903 575c16 3 35 7 47 19l97 98 0 261c0 68-55 125-126 125-11 0-18 7-18 18l0 74c0 65-54 124-124 124-54 0-83-23-102-56-37-63-41-160-154-160l-101 0c-15-19-22-40-22-63 0-127 102-224 224-224l279 0 0-216 z" fill="#FFDEA7"/>
		<path d="M1891 0c30 0 54 25 54 54l0 417c0 209-131 395-322 467-6 2-12 3-19 3-32 0-54-24-54-54 0-39 39-53 75-69 118-53 212-196 212-347l0-417c0-29 24-54 54-54 z" fill="#A56953"/>
		<path d="M421 940c40 0 69 31 69 69 0 38-28 69-68 69-15-19-22-40-22-63 0-25 4-50 12-74l9-1 z M741 1042c29 0 54 24 54 54 0 32-24 54-54 54-30 0-54-22-54-54 0-30 25-54 54-54 z" fill="#1C1C1C"/>
	</g></svg>
