<svg version="1.1" xmlns="http://www.w3.org/2000/svg"><g transform="scale(1,-1)">
		<path d="M1981-72c160 0 287 129 287 288l0 1006c0 161-129 288-287 288l-1150 0c-161 0-288-128-288-288l0-1006c0-161 128-288 288-288l1150 0 z" fill="#F3C07B"/>
		<path d="M1410-229c210 0 401 140 507 320 35 59 68 134 68 208 0 311-293 422-575 422-272 0-579-100-579-422 0-286 311-528 579-528 z" fill="#FFDEA7"/>
		<path d="M1406-287c121 0 216 97 216 215l0 169-216 161-216-161 0-169c0-119 97-215 216-215 z" fill="#CA0B4A"/>
		<path d="M2308 655c-30 0-54 13-72 38l-525 740c-11 15-17 33-17 52 0 49 38 90 90 90l291 0c177 0 324-143 324-324l0-506c0-51-40-90-91-90 z M501 655c31 0 55 13 73 38l525 740c11 15 17 32 17 51 0 51-40 91-91 91l-291 0c-178 0-323-145-323-324l0-506c0-51 39-90 90-90 z" fill="#6D4534"/>
		<path d="M1654 73c-105 0-204 73-248 161-50-94-148-161-249-161-19 0-36 15-36 36 0 19 15 36 36 36 116 0 213 116 213 232 0 26 0 53 35 53 35 0 36-26 37-53 3-112 89-232 212-232 19 0 36-15 36-36 0-19-15-36-36-36 z M1408 445c-47 0-146 84-146 136 0 33 27 66 60 66l166 0c33 0 62-33 62-64 0-50-90-138-142-138 z M1622 791c40 0 71 34 71 72l0 72c0 38-32 71-71 71-38 0-72-31-72-71l0-72c0-39 31-72 72-72 z M1190 791c39 0 72 31 72 72l0 72c0 40-34 71-72 71-38 0-72-31-72-71l0-72c0-39 34-72 72-72 z" fill="#212121"/>
	</g></svg>
