<svg version="1.1" xmlns="http://www.w3.org/2000/svg" viewBox="0 0 2300 2300"><g transform="scale(1,-1) translate(-256, -1869)">
		<path d="M1385-287c137 0 281 15 421 58 247 76 421 260 421 522l2 3c0 16-1 32-2 48-28 258-152 523-381 676l88 475c2 11 3 22 3 34 0 106-85 196-195 196-109 0-195-87-195-195l0-388c-59 12-114 16-176 16-37 0-74-3-111-9l0 381c0 106-86 195-195 195-107 0-195-87-195-194 0-12 1-24 3-36l84-455c-59-36-111-78-156-125-147-154-258-404-258-622 0-51 7-100 21-146 88-302 401-434 821-434 z" fill="#CDC4D6"/>
		<path d="M1703 1055c22 0 43 16 47 39l78 420 1 8c0 51-31 95-87 95-48 0-88-41-88-89l0-425c0-27 23-48 49-48 z M1103 1055c26 0 49 21 49 48l0 425c0 48-39 89-88 89-48 0-87-39-87-87l1-15 78-421c4-23 25-39 47-39 z" fill="#FF8687"/>
		<path d="M2377 0c19 0 35 17 35 35 0 8-2 16-7 23-9 12-17 13-54 24-127 35-459 134-479 134-18 0-35-16-35-37 0-15 12-30 26-34 47-16 495-145 514-145 z M2376 288c19 0 36 15 36 36 0 18-17 36-36 36l-503 0c-19 0-36-18-36-36 0-19 15-36 36-36l503 0 z M435 0c20 0 460 128 514 145 14 4 26 19 26 34 0 21-17 37-35 37-19 0-466-129-514-145-14-4-26-19-26-36 0-19 17-35 35-35 z M939 288c19 0 36 15 36 36 0 18-17 36-36 36l-503 0c-18 0-36-17-36-36 0-19 15-36 36-36l503 0 z" fill="#B4ACBC"/>
		<path d="M1480-61c18 0 32 15 32 32l0 56c0 7-3 13-10 16l-99 53-98-53c-6-3-9-9-9-16l0-56c0-18 13-32 32-32l152 0 z" fill="#F4F4F4"/>
		<path d="M1403 218c12 0 23 4 32 11l67 56c12 10 18 22 18 36 0 26-20 48-48 48l-138 0c-27 0-47-22-47-48 0-15 6-27 17-36l67-56c9-7 20-11 32-11 z" fill="#CA0B4A"/>
		<path d="M1529 17c88 0 161 73 161 161 0 19-15 36-36 36-19 0-36-15-36-36 0-50-39-89-89-89-50 0-89 39-89 89 0 19-15 36-36 36-19 0-37-14-37-36 0-50-39-89-89-89-50 0-89 39-89 89 0 19-15 36-36 36-19 0-36-15-36-36 0-88 73-161 161-161 50 0 95 23 125 61 29-37 75-61 126-61 z M1693 434c39 0 72 31 72 72l0 71c0 39-31 72-72 72-40 0-71-34-71-72l0-71c0-38 31-72 71-72 z M1118 434c39 0 72 31 72 72l0 71c0 39-31 72-72 72-40 0-71-34-71-72l0-71c0-38 31-72 71-72 z" fill="#1C1C1C"/>
	</g></svg>
