<svg version="1.1" xmlns="http://www.w3.org/2000/svg"><g transform="scale(1,-1)">
		<path d="M2359 354c-8 27-35 78-35 107 0 72 93 26 93 94 0 8-2 16-6 23l-248 431 0 2c-13 23-26 46-38 70l-2 596c0 26-17 48-46 48-14 0-21-6-32-14l-508-388c-20-15-43-29-69-29l-125 0c-26 0-49 14-69 29l-508 388c-11 8-18 14-32 14-24 0-46-18-46-44 0-199-1-411-2-610-89-169-185-327-280-493-4-7-6-15-6-23 0-70 92-24 92-92 0-27-25-82-33-109l1900 0 z" fill="#9B9B9B"/>
		<path d="M2023 1136c17 0 30 14 30 31l-1 350c0 18-13 30-30 30-9 0-13-4-20-9l-307-235c-8-6-12-14-12-24 0-15 7-24 20-29 32-12 305-114 320-114 z M790 1136c16 0 279 101 319 114 13 5 20 14 20 29 0 9-4 17-12 24l-308 235c-7 7-10 9-21 9-19 0-28-13-28-30l-1-352c0-16 15-29 31-29 z" fill="#D3D3D3"/>
		<path d="M1549-287c70 0 133 40 167 99 7 10 14 24 17 36 17 76 33 152 49 228 8 36 33 51 71 51l251-29c42-5 87-12 131-12 25 0 52 8 52 40 0 40-31 76-31 116 0 88 108 23 108 88 0 13-3 25-9 36l-343 144c-52 23-105 39-162 39-43 0-83-10-114-41l-210-211c-24-24-83-39-117-39-31 0-92 14-117 39l-210 211c-31 31-71 41-114 41-57 0-110-16-162-39l-343-144c-6-11-9-23-9-36 0-67 108 0 108-88 0-40-31-76-31-116 0-32 27-40 52-40 21 0 43 1 66 4 110 13 214 24 316 37 35 0 63-14 71-51 16-76 32-152 49-228 1-6 4-12 7-18 39-75 102-117 177-117l280 0 z" fill="#D3D3D3"/>
		<path d="M1586-144c-83 0-143 53-180 117-37-64-96-117-180-117-19 0-36 18-36 36 0 19 15 36 36 36 86 0 144 98 144 180 0 19 15 36 36 36 19 0 36-15 36-36 0-82 58-180 144-180 18 0 36-17 36-36 0-19-18-36-36-36 z M1405 144c27 0 44 11 63 30l91 85c18 16 26 48 26 71 0 49-33 101-88 101l-182 0c-56 0-89-52-89-102 0-23 9-55 25-70l92-85c19-19 36-30 62-30 z M1693 647c39 0 72 31 72 72l0 72c0 39-31 72-72 72-40 0-71-34-71-72l0-72c0-38 31-72 71-72 z M1118 647c39 0 72 31 72 72l0 72c0 39-31 72-72 72-40 0-71-34-71-72l0-72c0-38 31-72 71-72 z" fill="#1C1C1C"/>
	</g></svg>
