<svg version="1.1" xmlns="http://www.w3.org/2000/svg"><g transform="scale(1,-1)">
		<path d="M1837-287l71 1c131 1 287 27 287 177 0 204-129 392-358 392-232 0-356-189-356-392 0-151 160-176 285-177l71-1 z M2247 171c-81 0-122 88-122 162 0 77 37 131 122 131 84 0 133-43 133-131 0-73-48-162-133-162 z M1992 317c84 0 133 87 133 162 0 88-48 132-133 132-85 0-122-55-122-132 0-70 39-162 122-162 z M1678 317c-83 0-123 91-123 162 0 77 39 132 123 132 85 0 132-46 132-132 0-74-48-162-132-162 z M1417 171c84 0 133 87 133 162 0 88-49 131-133 131-85 0-122-54-122-131 0-70 39-162 122-162 z M975 579l-71 1c-129 1-285 28-285 177 0 207 126 392 356 392 224 0 358-185 358-392 0-150-158-176-287-177l-71-1 z M1385 1037c84 0 132 86 132 161 0 86-47 132-132 132-84 0-123-55-123-132 0-74 42-161 123-161 z M1130 1183c-83 0-123 91-123 162 0 77 38 131 123 131 84 0 132-43 132-131 0-74-48-162-132-162 z M555 1037c84 0 132 86 132 161 0 86-47 132-132 132-84 0-123-55-123-132 0-74 42-161 123-161 z M815 1183c86 0 133 86 133 162 0 88-49 131-133 131-85 0-122-54-122-131 0-70 39-162 122-162 z" fill="#635994"/>
	</g></svg>
