<svg version="1.1" xmlns="http://www.w3.org/2000/svg" viewBox="0 0 2300 2300"><g transform="scale(1,-1) translate(-256, -1869)">
		<path d="M1406-323c525 0 1042 138 1042 749 0 177-44 358-139 523 69 64 103 150 103 237 0 179-145 324-323 324-104 0-197-49-257-127-134 60-280 91-426 91-148 0-293-31-426-92-63 83-158 128-257 128-178 0-323-145-323-324 0-87 34-173 103-237-91-157-139-336-139-523 0-618 526-749 1042-749 z" fill="#433B6B"/>
		<path d="M1406-251c468 0 970 106 970 677 0 536-430 976-970 976-535 0-970-436-970-976 0-597 549-677 970-677 z" fill="#F4F4F4"/>
		<path d="M1811 431c106 0 242 79 242 203 0 124-168 300-301 300-119 0-203-131-203-242 0-144 117-261 262-261 z M1001 431c144 0 261 116 261 261 0 106-79 242-202 242-128 0-301-171-301-300 0-119 131-203 242-203 z" fill="#635994"/>
		<path d="M1550 72c79 0 143 61 143 144 0 19-17 36-35 36-59 0-13-108-108-108-120 0-87 144-144 144-60 0-26-144-144-144-95 0-51 108-108 108-18 0-36-17-36-36 0-79 60-144 144-144 59 0 114 25 144 80 27-54 90-80 144-80 z M1406 360c12 0 23 4 34 13l73 59c13 11 19 24 19 40 0 29-24 51-51 51l-149 0c-27 0-52-21-52-51 0-16 6-29 19-40l73-59c11-9 22-13 34-13 z M1693 575c39 0 72 31 72 72l0 72c0 39-31 72-72 72-40 0-71-34-71-72l0-72c0-38 31-72 71-72 z M1118 575c39 0 72 31 72 72l0 72c0 39-31 72-72 72-40 0-71-34-71-72l0-72c0-38 31-72 71-72 z" fill="#1C1C1C"/>
	</g></svg>
