<svg version="1.1" xmlns="http://www.w3.org/2000/svg"><g transform="scale(1,-1)">
		<path d="M1702-283c35 0 69 4 104 11 272 58 459 260 459 523 0 170-125 382-224 510 212 19 371 201 371 409 0 226-184 411-411 411-226 0-411-184-411-411 0-20 1-40 4-60-58 22-118 33-181 33-68 0-133-15-197-40 4 22 6 44 6 67 0 226-184 411-411 411-226 0-411-184-411-411 0-216 165-394 382-410-101-125-236-336-236-509 0-280 246-534 507-534 109 0 193 15 286 49 24 9 47 19 74 19 30 0 47-10 75-23 72-33 132-45 214-45 z" fill="#F3AD61"/>
		<path d="M2061 872c167 0 306 134 306 306 0 166-133 307-306 307-171 0-307-136-307-307 0-168 136-306 307-306 z M749 872c166 0 307 133 307 306 0 166-134 307-307 307-166 0-307-134-307-307 0-168 136-306 307-306 z" fill="#FF8687"/>
		<path d="M1693 362c39 0 72 31 72 72l0 72c0 40-34 71-72 71-39 0-71-33-71-71l0-72c0-38 31-72 71-72 z M1118 362c39 0 72 31 72 72l0 72c0 40-34 71-72 71-39 0-71-33-71-71l0-72c0-38 31-72 71-72 z" fill="#1C1C1C"/>
		<path d="M1407 119c41 0 113 82 113 123 0 37-44 46-81 46l-64 0c-39 0-83-10-83-46 0-45 67-123 115-123 z" fill="#F70A8D"/>
		<path d="M1304-85c43 0 78 24 102 57 24-35 59-56 102-56 65 0 113 52 113 116 0 21-8 42-33 42-19 0-38-11-38-33 0-26-9-54-41-54-71 0-46 104-103 104-56 0-33-104-103-104-13 0-23 4-30 13-20 24-3 73-44 73-27 0-38-17-38-42 0-64 48-116 113-116 z" fill="#1C1C1C"/>
	</g></svg>
