<svg version="1.1" xmlns="http://www.w3.org/2000/svg"><g transform="scale(1,-1)">
		<path d="M1093 416c12 0 27 4 35 14l79 91-245 0 3-3-189 0 3-2-198 0 85-86c9-9 21-14 35-14 14 0 26 5 35 14l63 65 64-65c9-9 21-14 34-14 14 0 26 5 35 14l61 62 65-62c9-9 21-14 35-14 z" fill="#D3D3D3"/>
		<path d="M2138-282c56 0 104 14 145 43 40 29 73 65 99 109 26 43 45 91 58 143 13 52 19 101 19 148l0 263c0 13-3 25-8 36-5 10-12 19-21 26-9 7-19 12-30 15-12 3-24 5-36 5l-229 0c43 4 83 15 122 32 39 17 72 39 101 67 29 28 52 61 69 98 17 37 25 79 25 124 0 13 1 29 2 49l0 14c0 15-1 29-3 43-3 19-9 35-18 49-9 13-24 20-44 20l-729 0-38-499 47 0 0-785 469 0 z" fill="#F70A8D"/>
		<path d="M1717 1006c17 0 31 12 37 26l100 232c8 18 26 30 45 30l135 0c94 0 174 61 205 144 3 8 18 43 18 50 0 12-9 22-21 22l-337 0c-111 0-206-72-245-169-16-35-118-274-118-292 0-22 18-43 41-43l140 0 z M624 930c36 0 70 29 70 69 0 15-4 25-11 37-37 61-63 161-63 232 0 86 38 143 131 143 76 0 152-71 257-71 108 0 197 98 197 201 0 57-24 101-58 135-38 36-109 75-153 75-40 0-69-32-69-69 0-90 141-64 141-141 0-29-28-62-58-62-72 0-151 71-256 71-40 0-78-8-115-23-114-45-156-146-156-262 0-66 17-153 51-235 21-53 44-100 92-100 z" fill="#FCD53F"/>
		<path d="M1892-282c35 74 63 150 82 228 19 78 28 158 28 240l0 559c0 17-1 33-4 47-3 14-8 27-13 40-5 12-12 24-20 36-8 12-17 25-27 38l123 0c21 0 41 4 62 11 21 7 40 18 57 31 17 13 32 28 44 46 12 18 20 38 24 59 1 9 4 20 7 33 3 13 5 27 8 42l7 42c2 13 3 23 3 30 0 7-3 14-8 20-6 5-13 8-20 8l-853 0 5 17c2 7 5 15 8 22 3 7 6 14 10 19 4 5 9 8 14 8l44 0c15 0 28 2 40 6 11 4 21 11 28 22 7 10 10 25 10 45 0 23-8 39-23 50-16 10-34 15-54 15l-111 0c-12 0-24-2-35-7-11-5-22-11-31-19-10-8-19-17-26-27-8-10-15-20-20-30-3-7-7-13-11-19-4-6-8-12-11-18-24-41-48-81-71-122-24-41-48-81-71-122-10-17-21-30-32-39-12-9-28-14-49-15l-223-7c-11 0-21 4-31 11l-37 27c-14 9-31 18-51 27-21 8-47 12-79 12-24 0-47-5-68-14-22-9-41-22-58-38-17-16-30-35-39-56-10-22-15-45-15-69l0-273c0-17 3-33 10-48 7-15 16-29 27-40 11-11 25-20 40-27 15-7 31-10 48-10l666 0c-13-14-26-30-41-47-15-18-30-35-47-50-17-15-36-28-55-39-19-11-40-16-62-16l-399 0c-11 0-21-3-30-8-9-5-13-14-13-27 0-27 7-52 21-73 14-22 32-41 53-56 21-16 45-28 71-36 26-9 51-13 75-13l628 0c5 0 9-2 12-5 2-2 3-5 3-8l0-4c-1-15-2-31-2-47-1-17-2-33-4-48-3-15-7-30-13-44-6-15-15-28-28-39l-66-231 593 0 z" fill="#00D26A"/>
		<path d="M1306-282c64 40 202 273 202 347 0 43-38 79-81 79l-150 0-5-3c9-1 12-8 12-16 0-56-27-134-69-176-77-72-179-96-280-132-29-11-101-34-101-71 0-23 26-28 48-28l424 0 z" fill="#FCD53F"/>
		<path d="M543 647c37 0 72 26 72 66l0 155c0 40-36 67-72 67-37 0-71-27-71-67l0-155c0-40 34-66 71-66 z" fill="#008463"/>
		<path d="M1334 647c39 0 72 31 72 72l0 144c0 39-34 72-72 72-38 0-72-33-72-72l0-144c0-39 31-72 72-72 z" fill="#1C1C1C"/>
	</g></svg>
