<svg version="1.1" xmlns="http://www.w3.org/2000/svg"><g transform="scale(1,-1)">
		<path d="M1478-287c476 0 862 388 862 862l0 72c0 476-387 863-862 863l-144 0c-477 0-862-389-862-863l0-72c0-476 388-862 862-862l144 0 z" fill="#FF8687"/>
		<path d="M1550 72l-288 0c-119 0-215 97-215 216 0 120 97 215 215 215l288 0c120 0 215-97 215-215 0-121-97-216-215-216 z M760 719c-38 0-73 18-100 46l-219 239c-26 30-41 70-41 110 0 40 15 80 41 110l219 240c27 28 60 46 99 46 85 0 144-75 144-157l0-478c0-80-56-156-143-156 z M2052 719c38 0 73 18 100 46l219 239c27 30 41 70 41 110 0 41-14 80-41 111l-219 239c-27 28-60 46-99 46-85 0-144-75-144-157l0-478c0-80 56-156 143-156 z" fill="#FBB8AB"/>
		<path d="M1550 216c38 0 72 33 72 72 0 39-34 72-72 72-38 0-72-33-72-72 0-39 31-72 72-72 z M1262 216c39 0 72 31 72 72 0 39-34 72-72 72-38 0-72-33-72-72 0-39 34-72 72-72 z" fill="#F92F60"/>
		<path d="M1693 647c39 0 72 31 72 72l0 72c0 39-34 72-72 72-40 0-71-34-71-72l0-72c0-38 31-72 71-72 z M1118 647c39 0 72 31 72 72l0 72c0 39-34 72-72 72-40 0-71-34-71-72l0-72c0-38 31-72 71-72 z" fill="#1C1C1C"/>
	</g></svg>
