<svg version="1.1" xmlns="http://www.w3.org/2000/svg"><g transform="scale(1,-1)">
		<path d="M2017 863c179 0 323 147 323 323 0 179-144 324-323 324-177 0-324-143-324-324 0-178 145-323 324-323 z M795 863c179 0 323 147 323 323 0 179-144 324-323 324-178 0-323-144-323-324 0-179 147-323 323-323 z" fill="#8C5543"/>
		<path d="M1406-267c153 0 332 17 505 69 309 94 501 330 501 624l0 2c0 19-1 38-2 57-46 515-434 973-1004 973-541 0-921-404-996-916-7-39-10-77-10-116 0-248 137-450 350-562 187-100 458-131 656-131 z" fill="#A56953"/>
		<path d="M1406-72c205 0 359 175 359 375l0 53c0 55-25 102-71 133-85 57-190 86-288 86-50 0-100-7-150-22-110-32-209-90-209-197l0-53c0-193 148-375 359-375 z M2170 1093c18 29 27 60 27 93 0 98-78 180-180 180-41 0-82-14-114-41 101-59 194-137 267-232 z M642 1093c73 95 166 173 267 232-32 27-73 41-114 41-98 0-180-78-180-180 0-33 9-64 27-93 z" fill="#F3AD61"/>
		<path d="M1550 72c79 0 143 61 143 144 0 19-17 36-35 36-59 0-13-108-108-108-120 0-87 144-144 144-60 0-26-144-144-144-95 0-51 108-108 108-18 0-36-17-36-36 0-79 60-144 144-144 59 0 114 25 144 80 27-54 90-80 144-80 z M1406 360c12 0 23 4 34 13l73 59c13 11 19 24 19 40 0 29-24 51-51 51l-149 0c-27 0-52-21-52-51 0-16 6-29 19-40l73-59c11-9 22-13 34-13 z M1693 577c38 0 72 33 72 72l0 72c0 39-31 72-72 72-40 0-71-34-71-72l0-72c0-38 31-72 71-72 z M1118 577c38 0 72 33 72 72l0 72c0 39-31 72-72 72-40 0-71-34-71-72l0-72c0-38 31-72 71-72 z" fill="#402A32"/>
	</g></svg>
