<svg version="1.1" xmlns="http://www.w3.org/2000/svg" viewBox="0 0 2300 2300"><g transform="scale(1,-1) translate(-256, -1869)">
		<path d="M1406-267c160 0 334 18 503 69 300 91 503 317 503 624 0 175-68 394-162 551 96 56 162 158 162 281 0 179-147 323-323 323-136 0-253-84-299-200-123 51-251 77-384 77-133 0-261-26-384-77-50 124-173 200-299 200-179 0-323-147-323-323 0-123 66-225 162-281-92-156-162-380-162-549 0-250 135-451 350-564 193-102 462-131 656-131 z" fill="#9B9B9B"/>
		<path d="M2167 1096c62 31 101 93 101 162 0 98-79 180-179 180-81 0-146-51-170-122 96-60 181-133 248-220 z M645 1096c71 88 153 161 248 220-24 71-89 122-170 122-98 0-180-78-180-180 0-71 42-132 102-162 z" fill="#636363"/>
		<path d="M1406-195c147 0 307 16 466 64 270 82 468 280 468 571l0 2c0 67-13 140-31 212-129 482-488 731-903 731-404 0-717-238-858-592-40-103-77-239-77-353 0-112 31-215 89-304 166-258 520-331 846-331 z" fill="#F4F4F4"/>
		<path d="M1406-72c205 0 359 175 359 375l0 53c0 55-25 102-71 133-85 57-190 86-288 86-50 0-100-7-150-22-110-32-209-90-209-197l0-53c0-193 148-375 359-375 z" fill="#FFFFFF"/>
		<path d="M1550 72c79 0 143 61 143 144 0 19-17 36-35 36-59 0-13-108-108-108-120 0-87 144-144 144-60 0-26-144-144-144-95 0-51 108-108 108-18 0-36-17-36-36 0-79 60-144 144-144 59 0 114 25 144 80 27-54 90-80 144-80 z M1406 360c12 0 23 4 34 13l73 59c13 11 19 24 19 40 0 29-24 51-51 51l-149 0c-27 0-52-21-52-51 0-16 6-29 19-40l73-59c11-9 22-13 34-13 z M1693 577c38 0 72 33 72 72l0 72c0 39-31 72-72 72-40 0-71-34-71-72l0-72c0-38 31-72 71-72 z M1118 577c38 0 72 33 72 72l0 72c0 39-31 72-72 72-40 0-71-34-71-72l0-72c0-38 31-72 71-72 z" fill="#402A32"/>
	</g></svg>
