<svg version="1.1" xmlns="http://www.w3.org/2000/svg" viewBox="0 0 2300 2300"><g transform="scale(1,-1) translate(-256, -1869)">
		<path d="M1377-276c46 0 92 6 137 17 45 11 88 26 130 45 69 33 130 74 183 125 53 51 97 108 133 171 36 63 63 130 82 202 18 71 27 144 27 219 0 153 1 306 2 458 1 151 1 304 1 457 0 23-4 44-13 64-9 20-20 37-35 52-15 15-33 26-52 35-20 8-41 12-64 12-35 0-63-7-86-21-23-15-41-33-54-56-13-23-22-49-27-78-4-22-5-46-5-68l0-20-73 263c-5 17-12 32-23 47-11 14-24 26-38 37-15 11-30 19-47 25-17 5-35 8-52 8-23 0-44-4-64-13-20-9-37-20-52-35-15-15-26-33-35-53-9-20-13-41-13-64 0-13 2-26 5-41l55-218-204 327c-17 27-38 47-63 60-25 13-54 20-85 20-27 0-51-5-73-14-22-9-41-22-57-38-16-17-28-36-37-58-9-23-13-47-13-73 0-15 2-30 6-45 3-15 9-30 17-43l268-438c-44-15-87-34-130-58-43-24-82-52-119-84-37-32-69-68-97-107-29-39-50-82-65-127-5-17-8-34-8-51 0-23 5-46 14-68 9-22 22-41 38-58 15-17 34-31 55-42 21-11 43-16 67-16 32 0 59 7 81 20 22 13 42 30 59 50 17 20 33 42 49 66 16 23 35 45 56 65 21 20 46 37 75 50 29 13 66 20 109 20 37 0 72-7 105-21 33-15 62-34 87-58 25-25 45-53 60-86 15-33 22-67 22-104 0-37-7-73-21-107-15-34-34-64-58-90-25-26-53-47-86-62-33-16-69-24-107-24-29 0-57 5-84 14-27 9-53 21-76 37-24 16-45 35-64 57-19 22-35 46-46 71-15 33-38 59-69 76-31 17-64 26-100 26-23 0-45-5-65-14-21-10-38-23-53-39-15-16-27-35-35-56-9-21-13-43-13-66 0-9 1-17 2-26 1-9 2-17 5-25 21-68 52-129 95-182 43-53 92-98 149-135 57-37 118-66 185-85 66-19 133-29 202-29 z" fill="#573739"/>
		<path d="M1795 1114l13 324c3 45 7 95 37 133-85-32-109-128-109-210 0-24 52-213 59-247 z M1158 992c36 11 73 17 110 18 37 1 75 2 112 2-98 20-181 46-246 152-67 109-129 218-190 315-23 35-39 74-39 117 0 20 4 39 15 56-36-36-53-86-53-133 0-31 7-62 23-89l268-438 z M1514 1114l-97 426c-5 25-8 48-8 71 0 32 4 67 26 93-60-27-96-89-96-151 0-13 2-26 5-41 8-34 40-178 51-202 10-28 98-162 119-196 z" fill="#3D2123"/>
	</g></svg>
