<svg version="1.1" xmlns="http://www.w3.org/2000/svg" viewBox="0 0 2300 2300"><g transform="scale(1,-1) translate(-256, -1869)">
		<path d="M1500-288c45 0 89 6 133 18 214 58 368 266 368 493l-1 33-11 674c0 14-6 35-11 49-24 69-78 102-152 102-82 0-142-71-145-151l-214 382c-24 43-75 73-125 73-71 0-127-57-137-121-47 63-68 107-153 107-82 0-151-64-151-149 0-32 10-64 33-88-3 3-8 4-13 5l-13 0c-32 0-64-14-90-30-42-26-56-80-56-122 0-52 26-90 50-133-8 4-20 5-29 5-91 0-148-74-148-162 0-23 4-48 16-68 138-233 281-469 426-706 7-11 15-21 24-31 105-117 243-180 399-180 z" fill="#E4B29A"/>
		<path d="M1074 553c-13 0-23 5-30 16-37 56-126 219-166 254-14 12-48 30-67 31-10 27-28 51-40 77 61 0 139-26 178-78 27-36 162-241 162-264 0-19-16-36-37-36 z M809 855c-8 3-15 3-23 4 8-1 15-1 23-4 z M1255 702c-12 0-22 6-30 17-15 21-30 45-43 70-55 102-77 142-157 277-28 45-59 58-93 69-19 21-28 49-31 77 66 0 143-42 180-99 78-122 130-228 205-355 3-7 5-13 5-20 0-18-15-36-36-36 z M930 1136c-5 2-11 3-16 3 5 0 11-2 16-3 z M1500 824c18 0 36 17 36 36 0 7-2 13-6 19-26 45-53 90-82 134-69 106-140 220-206 327-17-20-32-50-37-76 14-27 30-53 47-79 99-148 75-118 164-260 28-41 49-101 84-101 z" fill="#D19479"/>
		<path d="M1903-287c46 0 91 6 136 18 214 55 371 271 371 495l-1 717c0 14-7 35-12 47-28 73-91 104-163 104-83 0-144-70-147-151l-216 385c-26 45-78 73-127 73-69 0-127-53-138-121-50 63-68 107-155 107-85 0-152-66-152-150 0-33 10-65 33-89-6 5-20 6-27 6-32 0-64-14-90-31-42-26-57-80-57-125 0-52 25-86 51-133-9 4-21 5-30 5-94 0-149-76-149-162 0-24 5-49 17-70 145-249 265-443 430-713 7-11 15-22 24-32 107-119 245-180 402-180 z" fill="#EEBFAA"/>
		<path d="M2185 806c21 0 36 18 36 36 0 17-92 170-103 192-17-23-31-60-31-91 23-39 41-81 67-119 7-12 18-18 31-18 z M1478 538c18 0 36 17 36 36 0 16-54 102-65 121-60 107-92 188-205 235-26 12-48 18-78 18 11-27 27-55 42-81 23-7 54-25 73-41 34-27 99-157 145-234 21-36 29-54 52-54 z M1666 740c21 0 36 18 36 36 0 25-23 52-37 75-54 80-91 153-147 239-15 23-31 48-52 67-50 44-104 68-167 68 2-29 12-54 31-75 43-9 83-31 110-72 65-98 118-186 161-265 17-31 36-73 65-73 z M1326 1151c-3 1-6 2-9 2l-19 0c12 0 18 0 28-2 z M1895 850c21 0 37 17 37 36 0 7-2 13-6 19-87 148-189 293-282 452-19-23-31-48-38-76 5-12 22-40 43-72 103-158 110-176 163-258 26-39 48-101 83-101 z" fill="#D19479"/>
		<path d="M433 1196c-18 0-33 14-33 32 0 25 20 87 25 112 4 15 17 26 33 26 7 0 13-2 19-6l124-83c9-6 14-15 14-28 0-17-11-30-29-33-38-5-118-20-153-20 z M677 1404c18 0 33 14 33 33 0 14-30 75-51 114-25 43-25 47-46 47-9 0-17-3-23-10l-69-74c-6-6-9-14-9-23 0-12 7-24 19-29 24-11 128-58 146-58 z M860 1510c17 0 32 13 33 31 3 51 10 102 10 151 0 18-14 33-33 33-12 0-53-14-83-24-43-16-47-19-47-40 0-7 2-13 7-20l88-118c7-9 15-13 25-13 z" fill="#46A4FB"/>
	</g></svg>
