<svg version="1.1" xmlns="http://www.w3.org/2000/svg" viewBox="0 0 2300 2300"><g transform="scale(1,-1) translate(-256, -1869)">
		<path d="M1340 293l32 1c51 3 113 7 170 12 234 21 565 104 767 247-19 31-60 66-89 88-197 147-468 183-687 183-291 0-688-56-925-190-32-18-81-51-106-78 240-139 556-263 838-263 z" fill="#533566"/>
		<path d="M1406 610c92 0 185 3 277 14 58 4 394 47 394 140 0 92-328 130-394 139-92 11-185 14-277 14-88 0-175-4-262-12-62-8-410-44-410-141 0-95 349-138 410-142 87-8 174-12 262-12 z" fill="#F4F4F4"/>
		<path d="M1455-130c386 0 771 345 932 664 9 18 25 40 25 60 0 10-3 19-8 28l-251 395c-11 17-22 35-33 54-86 142-254 223-412 223-108 0-213-34-302-102-84 64-188 102-302 102-149 0-283-65-375-172-29-33-49-74-73-111l-248-389c-5-9-8-18-8-28 0-18 15-45 23-60 163-323 554-664 935-664l97 0 z M1405 416c-332 0-548 57-865 152 310 107 541 202 865 202 334 0 560-97 866-202l-150-45c-235-71-472-107-716-107 z" fill="#F92F60"/>
	</g></svg>
