<svg version="1.1" xmlns="http://www.w3.org/2000/svg" viewBox="0 0 2300 2300"><g transform="scale(1,-1) translate(-256, -1869)">
		<path d="M1433-288c38 0 72 7 102 20 29 13 54 31 74 54 20 23 35 50 46 81 11 31 16 65 16 102 0 22 0 49-1 81l0 28 1 71c1 33 5 65 11 96 5 31 14 56 26 75 23 35 49 65 80 88 31 23 63 46 97 69l73 51c24 17 47 35 68 56 34 32 62 66 84 102 22 36 40 74 53 114 13 40 22 81 27 124 5 43 7 87 7 132 0 119-18 221-55 306-37 85-88 154-155 208-67 54-148 94-242 119-94 25-198 38-313 38l-541 0c-28 0-54-4-79-11-25-7-46-18-64-33-19-15-33-34-44-56-11-23-17-49-17-79 0-23 3-46 9-69 5-23 17-43 34-60-37-17-66-41-85-73-20-33-30-69-30-109 0-35 9-67 27-96 18-29 42-53 71-72-32-18-56-42-73-73-17-31-25-64-25-101 0-41 12-78 37-110 24-32 54-56 90-73-19-19-33-42-42-67-9-26-13-53-13-80 0-28 5-54 16-79 11-25 25-46 44-64 19-19 40-33 65-44 25-11 51-16 79-16l277 0c6 0 12 0 19 1l18 3 0-3-10-154c-4-51-6-103-6-155 0-41 3-81 10-122 7-41 19-77 37-110 18-33 43-59 75-79 31-21 72-31 122-31 z" fill="#FFD7C2"/>
		<path d="M1190 362c119 3 288 65 288 213 0 64-17 129-74 168 57 24 76 116 76 168 0 60-35 122-76 159 40 39 76 103 76 163 0 63-26 115-76 150 53 32 76 95 76 149 0 143-165 187-278 192 86-16 133-92 133-176 0-37-14-73-33-104l-399 0c-19 0-36-15-36-36 0-19 15-36 36-36l388 0c29-38 44-89 44-135 0-43-17-88-39-121l-393 0c-19 0-36-15-36-36 0-18 17-36 36-36l377 0c38-41 55-96 55-149 0-35-12-71-28-102l-404 0c-19 0-36-15-36-36 0-19 15-36 36-36l372 0c37-39 60-98 60-156 0-86-50-189-145-202l0-1 z" fill="#F1B99B"/>
	</g></svg>
