<svg version="1.1" xmlns="http://www.w3.org/2000/svg" viewBox="0 0 2300 2300"><g transform="scale(1,-1) translate(-256, -1869)">
		<path d="M1878-287c35 0 70 4 105 12 253 58 429 263 429 523 0 33-3 66-9 99-29 146-70 282-70 423 0 91 13 180 20 271 0 85-70 171-160 171-35 0-63-7-83-21-105-72-57-269-99-366-96 112-208 376-275 523-26 52-67 78-125 78-91 0-146-66-146-151 0-58 46-163 69-222-31 70-58 133-91 201-23 47-79 73-130 73-80 0-149-63-149-147 0-47 66-205 95-254-28 36-76 56-117 56-86 0-147-60-147-144 0-33 10-67 25-96 8-15 64-106 75-117-9 3-19 4-32 4-77 0-159-62-159-143 0-99 145-232 225-303l330-301c98-90 285-169 419-169 z" fill="#FFD7C2"/>
		<path d="M2043 767c23 0 36 11 39 33 15 102 5 305 79 384 11 12 24 25 41 28-127 0-157-81-164-183-6-80-12-135-26-203-1-4-2-8-2-13l0-13c0-16 18-33 33-33 z M1467 636c19 0 36 15 36 36 0 21-19 39-30 54-27 32-52 74-75 110-64 101-175 279-175 392 0 26 7 71 31 87-54-19-90-80-90-135 0-47 27-99 46-149 47-121 156-291 228-380 8-10 18-15 29-15 z M1351 390c21 0 36 18 36 36 0 60-332 247-332 454 0 28 4 61 19 87-51-19-79-75-79-129 0-125 162-287 251-361 21-18 80-87 105-87 z M1686 796c21 0 36 18 36 36 0 27-196 347-196 484 0 33 8 77 34 103-63-26-95-78-95-144 0-58 46-163 69-222l-9 19c34-76 84-189 130-258 7-12 18-18 31-18 z" fill="#F1B99B"/>
		<path d="M807 70c19 0 36 15 36 36 0 19-15 36-36 36-179 0-321 140-321 323 0 19-15 36-36 36-19 0-36-15-36-36 0-211 165-395 393-395 z M949 187c19 0 36 15 36 36 0 18-17 35-36 35-51 0-99 10-144 31-112 50-199 184-199 314 0 19-15 36-36 36-18 0-36-17-36-36 0-48 9-95 28-142 68-174 211-274 387-274 z M1900 1151c18 0 36 17 36 36 0 47-9 95-28 143-70 179-216 271-389 271-19 0-36-15-36-36 0-19 15-36 36-36 53 0 101-10 144-29 108-48 201-180 201-313 0-19 15-36 36-36 z M2020 1290c19 0 36 15 36 36 0 25-3 51-9 78-47 196-189 315-387 315-19 0-36-15-36-36 0-19 15-36 36-36 179 0 324-139 324-321 0-19 15-36 36-36 z" fill="#5092FF"/>
	</g></svg>
