<svg version="1.1" xmlns="http://www.w3.org/2000/svg" viewBox="0 0 2300 2300"><g transform="scale(1,-1) translate(-256, -1869)">
		<path d="M1526-278c43 0 83 8 123 23l548 191c130 45 214 165 214 303 0 179-144 318-322 318-34 0-68-6-102-17l-548-190c-126-43-199-162-199-291 0-21 2-40 6-58 28-141 94-279 280-279 z" fill="#FFB02C"/>
		<path d="M1632-139c41 0 75 3 102 9 27 6 51 16 71 30 20 13 38 31 55 54 16 23 33 51 52 84 32-35 69-61 110-78 41-17 85-26 132-26 41 0 77 9 110 28 32 19 59 43 81 73 22 29 39 63 50 100 10 34 16 69 16 103l-13 862c-1 43-7 84-18 123-12 38-29 71-52 100-23 29-52 51-87 68-35 17-75 25-122 25-27 0-53-1-79-3-26-2-52-3-79-3-13 0-26 0-39 1-13 1-26 2-39 5-6 1-13 4-20 7-8 3-16 6-23 10-7 3-14 7-21 11l-20 9c-33 15-67 29-101 41-34 11-70 17-107 17-37 0-71-6-100-18-30-12-60-25-90-39-31-15-63-28-98-40-35-12-75-18-122-18-7 0-15 0-23 1l-23 0c-59 0-115-10-168-30-54-20-101-52-141-96-19-21-40-38-62-50-23-12-46-22-70-31-24-9-48-18-73-26-25-9-48-19-71-32-24-13-45-30-63-50-19-21-34-43-47-67-13-25-23-51-30-78-7-27-10-54-10-81l0-481c0-50 3-96 9-139 5-43 17-81 35-114 18-33 44-59 78-80 34-21 79-35 136-42 5-1 11-1 16-1 5-1 11-1 16-1 38 0 70 7 97 20 27 13 52 34 77 61l18 20c7 7 14 13 21 16 3-23 13-45 28-67 15-23 33-43 54-60 21-18 43-32 68-43 24-11 47-17 70-17 31 0 58 2 82 5 24 3 46 8 67 16 20 8 40 19 59 34 19 14 38 32 58 55 11-24 24-47 41-68 16-21 34-40 55-56 21-17 43-30 68-39 25-9 51-14 79-14 z" fill="#FDD641"/>
		<path d="M2072-57c-16 15-31 32-46 51-15 19-28 40-40 62-12 21-22 43-29 66-8 23-11 45-11 67l0 153-1 187 0 353c0 13 0 27 1 41l1 20-1 20c-2 10-5 19-10 26-6 7-14 11-25 11-12 0-20-3-26-10-6-7-10-16-11-26-2-11-2-22-2-34 0-142 1-80 1-215l0-263 1-263c0-10 1-22 3-36 2-14 4-28 8-43 4-15 8-28 13-41 4-13 10-24 16-33 6-11 16-21 29-30 13-10 27-19 42-27 15-9 30-16 46-22 15-7 29-11 41-14 z M1580-133c-20 5-40 13-60 24-20 11-39 24-56 39-17 15-32 32-45 51-13 19-23 38-30 57-4 11-7 25-9 40-2 15-3 28-3 40l-1 261 0 487-1 65c0 12 1 24 2 36 1 10 4 18 10 25 6 7 14 10 26 10 9 0 17-4 25-11 7-7 11-16 11-25l0-848c0-22 3-45 11-68 8-24 18-47 30-69 12-23 26-44 42-63 16-20 32-37 48-51 z M1104-70c-18 13-36 30-53 51-17 20-32 42-45 65-14 23-24 47-32 72-8 25-12 48-12 71l0 141-1 145 0 289c0 11 0 23 1 34l1 17-1 16c-1 10-4 19-10 26-6 7-14 10-25 10-11 0-20-3-26-10-6-7-10-15-11-25-2-11-2-23-2-34 0-108 1-73 1-179l0-215 1-215c0-25 3-50 11-75l2 1c3-21 11-42 25-63 13-21 29-40 48-57 19-17 40-32 62-43 22-12 44-19 66-22 z M587 13c-14 11-27 23-40 36-13 13-24 28-34 44-10 15-19 31-26 48-7 17-11 34-12 52-2 20-3 40-3 61l0 61-1 125 0 124c0 168 1 336 3 504-20-25-37-55-51-88-14-33-21-66-22-98l-2-33 1-23 0-284-1-108c0-36 0-72 2-108 0-35 3-69 9-102 5-33 14-64 28-91 14-28 32-52 56-73 24-21 55-36 93-47 z" fill="#FFB02C"/>
	</g></svg>
