<svg version="1.1" xmlns="http://www.w3.org/2000/svg" viewBox="0 0 2300 2300"><g transform="scale(1,-1) translate(-256, -1869)">
		<path d="M1650-286c88 0 219 84 219 186 0 43-9 111-40 147 64 27 115 98 115 164 0 45-14 128-57 158 73 22 116 96 116 166 0 60-28 141-92 165l283 0c99 0 219 69 219 183 0 120-106 193-219 193l-735 0c46 71 158 227 158 314 0 95-96 170-190 170-50 0-94-17-131-50-33-28-81-111-113-154-79-108-157-186-262-250-62-38-133-64-193-99-191-109-328-352-328-578 0-85 11-160 33-225 152-453 735-490 1217-490 z" fill="#EEBFAA"/>
		<path d="M1829 47l-257 0c-19 0-36 15-36 36 0 19 15 36 36 36l343 0c-20-28-54-58-86-72 z M1887 369c25 0 76 52 90 71l-319 0c-19 0-36-15-36-36 0-18 17-35 36-35l229 0 z M2194 700c94 0 195 57 216 155-60-54-208-64-281-64l-602 0c65-57 317-91 385-91l282 0 z" fill="#D19479"/>
	</g></svg>
