<svg version="1.1" xmlns="http://www.w3.org/2000/svg" viewBox="0 0 2300 2300"><g transform="scale(1,-1) translate(-256, -1869)">
		<path d="M968-287c53 0 103 11 148 33 45 22 83 52 116 89 32 37 57 79 75 127 18 47 27 97 27 148l0 106c0 22 7 40 20 53 13 13 30 19 52 19 24 0 41-6 52-19 10-13 17-28 20-46 2-12 3-24 3-37l-1-22c-1-21-2-39-2-54 0-51 9-101 27-148 18-47 43-89 76-126 32-37 70-67 115-89 45-22 94-33 147-33l142 0c52 0 100 11 144 32 43 21 81 50 112 86 31 35 56 76 74 123 17 46 26 94 26 144l0 189c0 17 4 31 11 42 7 10 16 20 25 29 9 9 17 19 24 30 7 11 11 25 11 43 0 19-7 36-21 50-14 14-31 21-50 21l-648 0c-23 0-44-3-61-10-17-7-33-16-47-27-15-11-28-22-40-35-13-13-26-24-39-35-14-11-29-19-45-26-16-7-34-11-55-11-21 0-40 4-56 11-16 7-31 15-44 26-13 11-26 22-39 35-13 13-26 24-40 35-14 11-30 20-47 27-17 7-38 10-61 10l-648 0c-19 0-36-7-50-21-14-15-21-32-21-51 0-17 4-31 11-42 7-11 16-21 25-30 9-9 17-19 25-30 7-11 11-25 11-42l0-188c0-49 9-97 26-143 17-47 42-88 73-124 31-36 69-65 112-86 43-22 91-33 143-33l142 0 z" fill="#533566"/>
		<path d="M968-216c183 0 295 168 295 326l0 150c0 86-59 171-153 171l-414 0c-96 0-152-87-152-171l0-161c0-160 113-315 283-315l141 0 z M1985-216c172 0 284 158 284 316l0 160c0 86-59 171-153 171l-414 0c-96 0-152-87-152-171l0-149c0-161 112-327 293-327l142 0 z" fill="#83CBFF"/>
		<path d="M1059 72c75 0 131 57 131 132 0 82-71 155-155 155-76 0-132-58-132-132 0-83 71-155 156-155 z M2064 72c76 0 132 58 132 132 0 82-70 156-156 156-75 0-131-57-131-132 0-82 70-156 155-156 z" fill="#FFFFFF"/>
	</g></svg>
