<svg version="1.1" xmlns="http://www.w3.org/2000/svg"><g transform="scale(1,-1)">
		<path d="M1404-317c149 0 297 15 444 42 59 14 134 14 134 80l0 626c269 0 415 221 430 451 0 35-10 56-39 78-60 46-130 85-199 125-47 28-98 61-149 84-49 22-117 29-167 32l-70-40c-69-158-200-232-366-232-77 0-149 17-214 52-87 45-125 95-178 184l-93 37c-82-4-158-31-233-77-93-56-188-105-271-165-28-22-39-42-39-78 16-246 179-451 437-451l0-627c0-30 19-53 49-61 148-42 368-60 524-60 z" fill="#FF6DC6"/>
		<path d="M1420 727l376 474c-127-47-260-71-396-71-135 0-268 24-395 71l-36 0 451-474 z" fill="#BB1D80"/>
		<path d="M1405 701c22 0 40 8 53 24l403 476-65 0-354-403c-10-11-25-18-39-18-15 0-28 6-39 18l-360 404-72 0 420-477c15-16 32-24 53-24 z" fill="#F70A8D"/>
	</g></svg>
