<svg version="1.1" xmlns="http://www.w3.org/2000/svg"><g transform="scale(1,-1)">
		<path d="M1814 942l-123 324c-31 83-99 141-196 141-80 0-120-38-176-91l178-178c34-34 51-60 89-89 4-4 210-100 228-107 z" fill="#635994"/>
		<path d="M2221-247c24 0 53 3 68 14 47 32 130 85 130 153 0 108-233 168-271 258l-363 847c-16 41-13 49-46 84-27 27-52 60-91 60-54 0-57-45-107-45-20 0-39 8-54 23l-318 319c-15 15-23 33-23 53 0 51 45 57 45 107 0 64-79 99-131 99-40 0-79-16-107-44l-528-529c-16-16-24-35-24-58 0-19 9-47 24-59l1496-1239c38-34 226-43 300-43 z" fill="#9B9B9B"/>
		<path d="M2041 339l-176 0c-42 0-75 35-75 76 0 40 32 75 75 75l176 0c40 0 75-32 75-75 0-41-33-76-75-76 z M1946 593c42 0 75 35 75 76 0 43-35 75-75 75l-176 0c-40 0-75-32-75-75 0-41 33-76 75-76l176 0 z M1831 833c42 0 76 32 76 76 0 42-35 75-76 75l-175 0c-40 0-75-32-75-75 0-41 33-76 75-76l175 0 z" fill="#E6E6E6"/>
		<path d="M1275 608l1 211c0 125-50 240-132 325l-360 368-226-223 717-681 z" fill="#635994"/>
		<path d="M2202-279c76 0 107 36 156 88-34 2-68 6-101 12-153 28-304 69-450 146-203 106-339 240-421 467-101 279-540 729-752 930l-209-209c-17-17-25-37-25-60 0-13 2-24 7-32 17-33 62-76 95-111 220-238 477-501 685-696 99-92 198-186 310-261 179-116 488-274 705-274 z" fill="#BEBEBE"/>
	</g></svg>
