<svg version="1.1" xmlns="http://www.w3.org/2000/svg" viewBox="0 0 2300 2300"><g transform="scale(1,-1) translate(-256, -1869)">
		<path d="M1945-215c258 0 467 206 467 467 0 258-206 467-467 467l-1078 0c-258 0-467-206-467-467 0-258 206-467 467-467l1078 0 z" fill="#F3AD61"/>
		<path d="M1760 137c106 0 194 88 194 195l0 392c0 207-175 379-384 379l-375 0c-204 0-386-164-386-383l0-388c0-109 88-195 195-195l756 0 z" fill="#F3C07B"/>
		<path d="M1955 538l1 2-1 0 0-2 z M1778 140c94 0 172 75 175 167 1 39 1 77 1 116 0 38 0 76 1 115-2-5-2-9-2-13l1-14c0-91-73-168-166-168l-811 0c-90 0-165 70-167 167l0 15c0 6 0 11-1 14l-1-115c0-38 0-76 2-115 2-92 79-169 175-169l793 0 z" fill="#CA0B4A"/>
		<path d="M1790-316c41 0 33 100 74 100 32 0 63-37 92-37 13 0 23 9 23 23 0 12-93 239-105 271 28-14 48-24 78-24 66 0 122 55 122 121l0 259c0 68-55 121-122 121-20 0-38-4-55-13l-277-141-277 141c-17 9-35 13-56 13-67 0-121-54-121-121l0-259c0-66 53-121 122-121 30 0 50 12 78 24-12-32-102-258-102-271 0-12 11-23 23-23 32 0 60 37 92 37 41 0 33-100 74-100 11 0 18 5 21 14l146 381 149-381c3-9 10-14 21-14 z" fill="#CA0B4A"/>
		<path d="M1952 17c55 0 121 46 121 108 0 58-63 107-121 107-20 0-38-4-55-13l-182-93c15 21 23 44 23 70l0 156c0 67-53 118-119 118-64 0-118-54-118-118l0-156c0-25 7-50 23-70l-181 92c-17 9-35 13-55 13-55 0-121-47-121-107 0-59 64-107 120-107 21 0 39 4 56 13l183 93c23-30 57-46 93-46 37 0 72 16 95 47l183-94c17-9 35-13 55-13 z" fill="#990838"/>
	</g></svg>
