<svg version="1.1" xmlns="http://www.w3.org/2000/svg" viewBox="0 0 2300 2300"><g transform="scale(1,-1) translate(-256, -1869)">
		<path d="M1757-224l246 42c46 8 81 46 81 95l-1 15-186 1738c-4 33-32 59-66 59l-856 0c-33 0-60-29-63-59l-185-1749c0-46 31-89 81-96l241-36c7-1 11-2 18-2 40 0 87 33 92 73l175 1222 144 0 174-1222c9-56 66-80 105-80 z" fill="#00A6ED"/>
		<path d="M1122-291c22 0 40 18 43 37 5 30 15 63 15 93 0 22-16 40-37 43l-406 69c-22 0-41-18-44-37-5-30-15-62-15-92 0-22 15-40 37-44l407-69 z M1691-291l405 69c22 4 38 23 38 45 0 28-11 62-16 92-4 22-22 37-44 37l-405-69c-23-4-38-22-38-44 0-14 2-29 6-45 10-41 12-85 54-85 z M1488 1078c17 0 32 6 44 18 12 11 18 26 18 43l1 370 142 0 0-5c0-84 22-153 67-208 45-55 107-92 188-110l-8 77c-2 1-4 1-5 2l-6 2c-19 7-38 16-57 27-19 11-36 24-49 39-9 11-18 23-25 38-7 14-13 29-18 45-5 16-9 32-11 48-3 16-4 31-4 45l149 0-8 72-1003 0-7-72 151 0c0-14-1-29-4-45-3-16-7-32-12-47-5-16-12-31-19-45-7-14-16-26-25-37-13-15-29-28-48-39-19-11-38-20-57-27-3-1-7-3-12-4l-3-38c-1-13-3-25-5-38 81 19 143 57 188 112 44 55 67 124 68 208l360 0 0-340c0-9-3-15-10-17-7-2-16-3-27-3-11 0-23 0-35 1l-9 0c-9 0-18-1-26-3-11-3-20-8-27-17-7-9-11-22-11-41 0-2 0-4 1-5l0-6 154 0 z M1407 1609c19 0 36 15 36 36 0 19-14 37-36 37-21 0-37-15-37-37 0-22 18-36 37-36 z" fill="#0074BA"/>
	</g></svg>
