<svg version="1.1" xmlns="http://www.w3.org/2000/svg"><g transform="scale(1,-1)">
		<path d="M625 1102c42 0 79 35 79 80 0 17-5 35-16 48l-117 150c-14 18-37 31-62 31-21 0-40-8-56-24-26-29-60-49-60-93 0-27 11-48 32-64l154-113c13-11 30-15 46-15 z M627 1136c-26 0-44 21-44 45 0 23 18 44 43 44 25 0 44-21 44-45 0-22-20-44-43-44 z" fill="#F9C23C"/>
		<path d="M1969-285c305 0 444 192 444 479 0 39-3 75-7 114-19 163-37 318-61 481-32 222-163 366-396 366l-1115 0c-200 0-329-131-356-324-18-115-33-241-50-364-12-87-27-185-27-273 0-283 134-479 433-479l1135 0 z" fill="#F99EA3"/>
		<path d="M1969-285c305 0 444 192 444 479 0 39-2 75-7 114l-1998 1c-5-39-7-76-7-115 0-283 134-479 433-479l1135 0 z" fill="#FBB8AB"/>
	</g></svg>
