<svg version="1.1" xmlns="http://www.w3.org/2000/svg"><g transform="scale(1,-1)">
		<path d="M1927-287c30 0 54 22 54 54l0 890c30-16 160-101 187-101 17 0 29 7 36 21 24 44 208 345 208 370 0 15-9 30-22 36l-358 207c-36 21-76 31-119 31l-1015 0c-23 0-45-3-67-9-144-42-279-147-410-229-14-9-21-21-21-38 0-20 125-234 182-327 34-57 35-62 61-62 25 0 158 85 188 102l0-891c0-32 24-54 54-54l1042 0 z" fill="#86D72F"/>
		<path d="M1406 896c184 0 325 143 325 325l-650 0c0-184 141-325 325-325 z" fill="#44911B"/>
		<path d="M1981 503l0 216-1150 0 0-216 1150 0 z" fill="#C3EF3C"/>
		<path d="M1406 863c196 0 360 158 360 358l-73 0c0-157-128-286-287-286-157 0-287 127-287 286l-73 0c0-196 160-358 360-358 z" fill="#00D26A"/>
	</g></svg>
