<svg version="1.1" xmlns="http://www.w3.org/2000/svg" viewBox="0 0 2300 2300"><g transform="scale(1,-1) translate(-256, -1869)">
		<path d="M1808 822c74 0 137 60 137 138 0 75-60 138-137 138-77 0-137-63-137-138 0-76 60-138 137-138 z M1004 822c74 0 137 60 137 138 0 75-60 138-137 138-77 0-137-63-137-138 0-76 60-138 137-138 z" fill="#8B5C56"/>
		<path d="M2004-287l102 290-102 303c-160 149-375 233-594 233-223 0-435-84-598-236l-72-300 72-290 1192 0 z" fill="#00A6ED"/>
		<path d="M1576 324c7 0 10 3 10 10l0 205-360 0 0-205c0-7 3-10 10-10l340 0 z" fill="#8B5C56"/>
		<path d="M1522-287l-72 386 100 189-144 36-144-36 100-189-83-386 243 0 z" fill="#0074BA"/>
		<path d="M1556 180c14 0 26 11 29 26l55 297-235-144-233 144 55-297c3-15 15-26 29-26 7 0 13 2 19 7l130 115 132-115c6-5 12-7 19-7 z" fill="#50E2FF"/>
		<path d="M812-287l0 590c-171-160-252-360-287-590l287 0 z M2286-287c-32 235-117 434-286 593l0-593 286 0 z" fill="#0084CE"/>
		<path d="M1536 463c134 0 251 102 262 243l33 466c0 231-170 403-389 403l-72 0c-53 0-104-10-151-30-153-66-238-204-238-373l33-466c11-135 121-243 261-243l261 0 z" fill="#966661"/>
		<path d="M1536 434c134 0 251 102 262 243l33 466c0 231-170 403-389 403l-72 0c-53 0-104-10-151-30-153-66-238-204-238-373l33-466c11-135 121-243 261-243l261 0 z" fill="#966661"/>
		<path d="M1822 998c25 1 46 18 50 43l46 251c1 5 2 9 2 14l0 14c0 99-66 133-128 164-94 46-131 164-257 164-46 0-85-22-130-22-54 0-86 27-135 27-85 0-134-70-190-126-68-68-188-73-188-206 0-9 1-19 3-29l46-251c5-27 24-42 51-43-3 40-8 82-8 122 0 66 73 68 73 142l0 71c0 21 14 36 32 42 96 29 212 35 317 35 101 0 215-5 317-35 20-7 33-21 33-42l0-71c0-78 74-79 74-142 0-40-5-82-8-122 z" fill="#FFF9BA"/>
		<path d="M1925 1258c11 0 20 6 23 17l46 164c3 12 5 23 5 32 0 53-35 94-80 109l-354 119c-52 17-104 26-157 26-52 0-104-9-156-26l-358-119c-47-16-81-59-81-111 0-11 1-21 4-30l46-164c3-11 12-17 23-17l1039 0 z" fill="#00A6ED"/>
		<path d="M1863 1234c30 0 57 25 57 56 0 29-17 50-44 58-139 40-297 57-450 57-145 0-307-15-447-56-26-8-43-29-43-56 0-33 27-58 57-58l15 2c140 34 277 52 418 52 142 0 279-18 422-53l15-2 z" fill="#50E2FF"/>
		<path d="M1609 1080c124 0 228 67 285 165-152 44-308 67-467 67-158 0-310-24-466-67l-1 0c59-103 166-165 285-165l364 0 z" fill="#321B41"/>
		<path d="M1406 634c56 0 112 29 142 81 1 3 2 5 2 7 0 9-5 14-14 14-9 0-22-10-31-13-33-13-66-20-99-20-44 0-82 11-123 32-3 1-5 2-7 2-7 0-13-7-13-14 0-3 1-5 2-8 28-51 87-81 141-81 z" fill="#990839"/>
		<path d="M1437 782c26 0 42 23 42 45 0 20-18 81-32 124-15 43-16 58-40 58-15 0-25-11-29-24-8-30-43-129-43-157 0-23 17-46 42-46l60 0 z" fill="#75443E"/>
		<path d="M1699 946l-188 0c-11 0-19 7-19 18 0 55 62 100 116 100 48 0 113-43 113-94 0-12-8-24-22-24 z M1302 946c15 0 19 11 19 23 0 5-5 20-8 24-19 43-61 71-107 71-48 0-114-42-114-95 0-12 11-23 23-23l187 0 z" fill="#FFFFFF"/>
		<path d="M1663 946l-145 0c-1 3-2 7-2 10l0 10c0 41 31 75 74 75 40 0 75-32 75-75 0-7-1-13-2-20 z M1296 946c1 7 2 13 2 20 0 44-33 75-75 75-49 0-74-39-74-85 0-3 1-7 2-10l145 0 z" fill="#7D4533"/>
		<path d="M1628 946l-75 0c-3 5-5 11-5 20 0 23 17 43 42 43 24 0 43-18 43-43 0-7-2-13-5-20 z M1261 946c3 7 5 13 5 20 0 25-19 43-43 43-25 0-42-20-42-43 0-8 1-15 4-20l76 0 z" fill="#000000"/>
		<path d="M1567 983c9 0 13 4 13 13 0 9-4 14-13 14-8 0-13-7-13-14 0-9 4-13 13-13 z M1198 983c9 0 13 4 13 13 0 7-5 14-13 14-8 0-13-7-13-14 0-9 4-13 13-13 z" fill="#FFFFFF"/>
		<path d="M1179-72c5 0 11 2 11 9l0 55c0 5-7 8-11 8l-266 0c-7 0-10-3-10-8l0-55c0-6 3-9 10-9l266 0 z M1729-145c52 0 108 38 108 95l0 116c0 25-24 41-47 41l-122 0c-22 0-46-16-46-41l0-117c0-56 51-94 107-94 z M1407 1464c45 0 89 34 89 82l0 60c0 9-8 15-17 15-15 0-13-14-28-14-21 0-24 37-45 37-22 0-21-38-45-38-15 0-13 14-28 14-9 0-17-6-17-15l0-59c0-50 46-82 91-82 z" fill="#FCD53F"/>
	</g></svg>
