<svg version="1.1" xmlns="http://www.w3.org/2000/svg" viewBox="0 0 2300 2300"><g transform="scale(1,-1) translate(-256, -1869)">
		<path d="M2398 86c9 9 13 19 13 32l0 1419c0 26-21 44-45 44l-1922 0c-12 0-22-4-31-13 4-17 59-202 59-202l539-863 1222-359c56-16 110-39 165-58 z" fill="#FFCE7C"/>
		<path d="M2367 73c12 0 22 4 31 13-17 17-37 43-58 58l-1868 1366c-20 15-40 39-59 58-9-9-13-19-13-31l0-1420c0-24 19-44 44-44l1923 0 z" fill="#E19747"/>
		<path d="M2340 145l0 1365-1868 0 0-1365 1868 0 z" fill="#44911B"/>
		<path d="M1909-287l108 431-108 430c-139 114-313 181-503 181-190 0-364-67-503-181l-108-430 108-431 1006 0 z" fill="#8C5543"/>
		<path d="M1550-287l0 1006 100 0 31-65 46-98 17-38c4-11 6-17 6-19 0-13-6-20-18-21l-19-1-41 2-19-1c-12-1-18-8-18-20 0-9 7-19 20-30l42-36c15-13 30-27 43-42 13-15 19-32 19-49 0-9-1-17-4-23l-205-565 z M1262-287l0 1006-97 0-31-64-45-98c-7-15-13-28-17-39-5-11-7-17-7-19 0-9 3-14 9-17 5-3 12-5 21-5l28 1c10 1 19 1 28 1 9 0 16-1 22-4 5-3 8-8 8-16 0-5-2-9-6-13l-98-96c-13-13-20-30-20-49 0-9 1-17 4-23l201-565 z" fill="#6D4534"/>
		<path d="M2197-287l-1 252c0 235-106 461-287 610l0-862 288 0 z M903-287l0 862c-180-151-288-372-288-611l0-251 288 0 z" fill="#6D4534"/>
		<path d="M1553-287l0 947-295 0 0-947 295 0 z" fill="#E6E6E6"/>
		<path d="M1406 526c80 0 144 66 144 148l0 184c0 82-65 148-144 148-80 0-144-66-144-148l0-184c0-82 65-148 144-148 z" fill="#E4B29A"/>
		<path d="M1755 973c65 0 120 53 120 119 0 68-57 119-120 119-68 0-119-55-119-119 0-68 55-119 119-119 z M1057 973c68 0 119 55 119 119 0 68-55 119-119 119-65 0-120-53-120-119 0-68 57-119 120-119 z" fill="#E4B29A"/>
		<path d="M1523 626c122 0 227 96 235 219 11 138 18 268 29 406l1 12 0 13c0 191-153 349-350 349l-64 0c-145 0-269-87-322-213-22-51-28-104-28-149l1-12c11-138 18-268 29-406 8-123 112-219 235-219l234 0 z" fill="#EEBFAA"/>
		<path d="M1660 1090l-163 0c-7 0-16 5-16 13 0 52 54 88 100 88 39 0 99-35 99-82 0-10-9-19-20-19 z M1315 1090c7 0 17 5 17 13 0 52-54 88-100 88-39 0-99-35-99-82 0-10 9-19 20-19l162 0 z" fill="#FFFFFF"/>
		<path d="M1629 1089l-126 0c-1 7-2 10-2 17 0 37 27 66 65 66 38 0 65-33 65-66 0-7-1-10-2-17 z M1310 1089c1 7 2 10 2 17 0 35-28 66-65 66-18 0-33-6-46-19-16-17-19-40-19-55 0-3 1-6 2-9l126 0 z" fill="#7D4533"/>
		<path d="M1599 1090l-67 0c-3 7-4 12-4 17 0 21 16 37 38 37 19 0 37-16 37-37 0-5-1-10-4-17 z M1279 1090c3 5 5 11 5 17 0 21-16 37-38 37-19 0-37-16-37-37 0-7 1-12 4-17l66 0 z" fill="#000000"/>
		<path d="M1545 1121c7 0 12 4 12 11 0 7-5 12-12 12-7 0-11-5-11-12 0-7 4-11 11-11 z M1225 1121c7 0 11 4 11 11 0 7-4 12-11 12-6 0-12-5-12-12 0-7 5-11 12-11 z" fill="#FFFFFF"/>
		<path d="M1779 1135c11 1 21 5 30 12 8 7 13 17 15 28l41 224c2 9 3 18 3 27 0 31-6 54-17 71-11 17-25 31-42 43-17 11-36 22-55 32-20 9-38 22-55 39l-39 41c-13 13-26 24-39 35-14 10-29 18-45 24-16 6-35 9-56 9-19 0-38-3-56-10-19-7-38-10-58-10-11 0-22 1-32 4l-29 9-30 8c-10 3-20 4-31 4-19 0-37-3-52-10-15-7-30-16-43-27-14-11-27-24-39-37l-37-39c-17-17-35-30-55-40-20-11-38-22-55-33-17-12-32-26-43-43-11-17-17-41-17-71 0-9 1-17 3-26l41-224c2-11 8-21 17-28 9-7 19-11 30-12-1 19-3 37-5 56-2 19-3 37-3 55 0 14 4 25 11 34 7 9 14 17 22 25 8 8 16 17 23 27 7 10 10 24 10 41l0 63c0 20 10 33 29 38 45 13 92 22 142 26 49 4 97 6 143 6 46 0 94-2 144-6 49-4 96-13 141-26 11-3 18-9 23-16 4-8 7-17 8-26l1-15-1-16c-1-11-2-20-2-28 0-17 4-31 11-41 7-10 14-19 22-27 8-9 16-17 23-26 7-9 10-20 10-34 0-18-1-36-2-55-2-19-4-37-5-55 z" fill="#FFF9BA"/>
		<path d="M1157 1219c21 0 49 30 100 30l19-1c22 0 42 15 42 38 0 37-32 43-61 43-33 0-140-19-140-70 0-22 17-40 40-40 z M1656 1219c22 0 39 17 39 40 0 51-104 71-138 71-29 0-63-6-63-41 0-30 18-38 39-38 32-2 70-3 98-24l1 0c7-5 15-8 24-8 z" fill="#A56953"/>
		<path d="M1435 945c21 0 39 17 39 39 0 16-16 65-29 104-14 39-16 49-39 49-13 0-22-7-27-20-8-29-40-109-40-134 0-21 18-38 40-38l56 0 z" fill="#D19479"/>
		<path d="M1406 810c24 0 47 6 70 18 24 12 55 43 55 55 0 7-4 12-11 12-3 0-5-2-6-2-39-15-68-25-108-25-38 0-74 8-108 25l-6 2c-7 0-11-5-11-12l2-6c16-39 81-67 123-67 z" fill="#990839"/>
		<path d="M1622 934c74 0 137 60 137 138l0 80c0 11 14 10 14 43 0 14-10 25-25 25l-250 0c-53 0-50-44-92-44-42 0-41 44-92 44l-250 0c-13 0-20-4-22-13-2-9-3-18-3-27 0-19 15-17 15-28l0-80c0-75 62-137 137-137l51 0c75 0 137 59 137 137l0 44c0 15 14 25 27 25 17 0 25-12 27-27l1-22-1-20c0-76 60-138 137-138l52 0 z M1617 960l-40 0c-63 0-119 52-119 119l0 52c0 35 27 64 64 64l150 0c35 0 63-30 63-64l0-52c0-63-52-119-118-119 z M1237 960l-39 0c-63 0-119 52-119 119l0 52c0 34 28 64 63 64l150 0c51 0 63-38 63-77l0-39 1 0c0-63-52-119-119-119 z" fill="#433B6B"/>
		<path d="M1886-29l-144 0 0 165c0 39 34 72 72 72 39 0 72-31 72-72l0-165 z M1070-29l0 165c0 39-31 72-72 72-40 0-71-34-71-72l0-165 143 0 z" fill="#E4B29A"/>
		<path d="M1812-287l0 588c0 32-25 59-58 59l-549 0c-74 0-136-59-136-136l0-511 743 0 z" fill="#F92F60"/>
		<path d="M1118-287l0 615 694 0 0 35c0 36-12 68-58 68l-621 0c-78 0-136-60-136-135l0-583 121 0 z" fill="#433B6B"/>
		<path d="M1811 245l0 125-685 0c-36 0-63-29-63-63 0-36 29-62 63-62l685 0 z" fill="#E6E6E6"/>
		<path d="M1823-287c36 0 62 28 62 62l0 253c0 34-26 62-62 62l-237 0 0-1c-28 0-56-21-56-52 0-21 8-36 25-47-15-9-25-25-25-44 0-19 9-36 25-45-16-9-25-26-25-45 0-19 10-35 25-44-17-11-25-26-25-47 0-31 28-52 56-52l237 0 z M1226-287c27 0 55 21 55 52 0 21-8 36-25 47 16 9 25 25 25 44 0 19-9 36-25 45 16 9 25 26 25 45 0 19-10 35-25 44 15 9 25 25 25 42 0 31-22 57-55 57l0 1-238 0c-36 0-62-28-62-62l0-253c0-34 26-62 62-62l238 0 z" fill="#EEBFAA"/>
	</g></svg>
