<svg version="1.1" xmlns="http://www.w3.org/2000/svg" viewBox="0 0 2300 2300"><g transform="scale(1,-1) translate(-256, -1869)">
		<path d="M1757 988c67 0 120 54 120 120 0 68-57 120-120 120-68 0-120-57-120-120 0-68 57-120 120-120 z M1054 988c68 0 120 57 120 120 0 68-57 120-120 120-68 0-120-57-120-120 0-67 54-120 120-120 z" fill="#452829"/>
		<path d="M1522 647c118 0 224 92 232 220 11 141 18 268 28 409l1 14 0 13c0 188-151 350-345 350l-64 0c-48 0-93-9-135-28-140-61-211-189-211-336l1-13c11-139 18-270 29-409 8-124 110-220 232-220l232 0 z" fill="#573739"/>
		<path d="M1667 1090l-163 0c-7 0-16 6-16 13 0 52 54 88 100 88 39 0 99-35 99-82 0-10-9-19-20-19 z M1323 1090c7 0 16 6 16 13 0 52-54 88-100 88-39 0-99-35-99-82 0-10 9-19 20-19l163 0 z" fill="#FFFFFF"/>
		<path d="M1636 1089l-126 0c-1 7-2 10-2 17 0 35 28 66 65 66 37 0 65-31 65-66 0-7-1-10-2-17 z M1317 1089c1 7 2 11 2 18 0 35-28 65-65 65-37 0-65-31-65-66 0-7 1-10 2-17l126 0 z" fill="#7D4533"/>
		<path d="M1606 1090l-66 0c-3 5-5 11-5 17 0 21 16 37 38 37 21 0 37-15 37-37 0-7-1-12-4-17 z M1287 1090c3 5 5 11 5 17 0 21-16 37-38 37-21 0-37-15-37-37 0-7 1-12 4-17l66 0 z" fill="#000000"/>
		<path d="M1553 1121c7 0 11 4 11 11 0 7-4 12-11 12-6 0-12-5-12-12 0-7 5-11 12-11 z M1232 1121c7 0 12 4 12 11 0 7-5 12-12 12-7 0-11-5-11-12 0-7 4-11 11-11 z" fill="#FFFFFF"/>
		<path d="M1769 1135c22 1 40 18 44 40l40 224c1 5 2 9 2 13l0 13c0 89-57 118-110 146-78 41-120 149-228 149-41 0-70-20-111-20-43 0-78 25-118 25-77 0-117-63-167-113-66-66-164-71-164-188 0-8 1-17 2-25l40-224c4-22 22-39 45-40-3 37-7 74-7 111 0 58 63 58 63 127l0 63c0 20 10 33 29 38 89 27 187 32 277 32 88 0 189-5 277-32 17-5 28-19 28-38l0-63c0-70 65-73 65-128 0-36-4-74-7-110 z" fill="#000000"/>
		<path d="M1164 1219c18 0 48 31 101 31l20-1c22 0 40 17 40 38 0 37-31 42-60 42-34 0-141-19-141-70 0-22 17-40 40-40 z M1663 1219c22 0 39 17 39 40 0 51-104 71-138 71-29 0-62-5-62-41 0-30 17-38 38-38l22-1c51 0 80-31 101-31 z" fill="#000000"/>
		<path d="M1433 953c22 0 37 20 37 39 0 18-16 71-28 107-12 32-12 51-35 51-14 0-23-9-26-21-8-29-38-113-38-136 0-19 15-40 37-40l53 0 z" fill="#3D2123"/>
		<path d="M1406 823c25 0 48 7 71 20 23 13 55 45 55 57 0 9-4 13-12 13l-6-2c-42-15-65-27-108-27-38 0-74 9-108 27l-6 2c-6 0-12-5-12-12 0-2 1-4 2-7 24-42 75-71 124-71 z" fill="#990839"/>
		<path d="M2337-287c38 0 72 30 72 70 0 9-2 19-6 28-37 90-130 153-231 153-24 0-48-4-71-11-75-23-165-95-165-169 0-39 33-71 71-71l330 0 z M801-287c38 0 72 30 72 70 0 9-2 19-6 28-39 94-136 153-231 153-24 0-48-4-71-11-76-23-165-97-165-170 0-40 33-70 71-70l330 0 z" fill="#573739"/>
		<path d="M2193-286l0 934c0 38-29 70-69 70l-1440 0c-40 0-69-32-69-70l0-934 1578 0 z" fill="#9B9B9B"/>
		<path d="M1387 104l0 93-93 0 0-82c0-7 4-11 11-11l82 0 z M1386 233l-93 0 0 81c0 7 4 12 11 12l82 0 0-93 z M1504 105c7 0 12 4 12 11l0 82-94 0 0-93 82 0 z M1515 233l0 82c0 8-4 12-12 12l-81 0 0-94 93 0 z" fill="#533566"/>
	</g></svg>
