<svg version="1.1" xmlns="http://www.w3.org/2000/svg" viewBox="0 0 2300 2300"><g transform="scale(1,-1) translate(-256, -1869)">
		<path d="M1837-287l108 431-108 430c-56 45-117 86-184 114-3 0-31 13-31 13l-192 12c-32 3-64 6-96 6-16 0-32-1-48-2-143-12-107-8-239-16 0 0-26-12-29-12-68-28-131-68-187-115l-108-430 108-431 1006 0 z" fill="#0084CE"/>
		<path d="M831-287l-288 0 0 251c0 237 106 460 288 610l0-861 z M2125-287l-288 0 0 861c185-153 288-376 288-610l0-251 z M1581 313c23 0 41 19 41 41l0 347c-92 36-189 54-288 54-99 0-195-18-287-54l0-347c0-23 18-41 40-41 24 0 212 141 247 165 33-24 225-165 247-165 z" fill="#0074BA"/>
		<path d="M1334 431c18 0 51 34 64 47 51 47 80 106 80 175l0 212c0 80-66 141-144 141-77 0-144-62-144-140l0-212c0-68 28-128 80-176 13-13 46-47 64-47 z" fill="#E6E6E6"/>
		<path d="M1334 575c85 0 144 80 144 155l0 193c0 82-62 155-144 155-83 0-144-75-144-154l0-193c0-81 60-156 144-156 z" fill="#F9C136"/>
		<path d="M2197 0l0 150c0 40-36 66-72 66-36 0-72-26-72-66l0-150 144 0 z" fill="#FECA46"/>
		<path d="M2052 173l0 485c0 10 4 19 11 26l113 113-51 51-102-102c-27-27-43-65-43-103l0-470 72 0 z" fill="#D3D3D3"/>
		<path d="M2142 701c59 0 95 39 109 87 8 23 35 120 35 137 0 17-13 31-31 31-9 0-135-36-144-36-49-14-80-59-80-107 0-60 49-112 111-112 z" fill="#50E2FF"/>
		<path d="M2137 748c34 0 61 25 61 61 0 36-27 61-61 61-34 0-61-25-61-61 0-36 27-61 61-61 z" fill="#FFFFFF"/>
		<path d="M2090 5l0 215c0 14-10 25-25 25l-97 0c-14 0-25-10-25-25l0-215 147 0 z" fill="#533566"/>
		<path d="M2140-287c34 0 57 30 57 62l0 253c0 32-23 62-57 62l-216 0c-33 0-50-29-50-58 0-16 8-32 21-43-15-11-22-25-22-44 0-19 7-34 22-45-15-11-22-25-22-44 0-19 7-34 22-45-14-11-21-25-21-42 0-30 17-56 50-56l216 0 z" fill="#FDD641"/>
		<path d="M1852 1150l0 143c15 0 27-2 42-2 27 0 56 6 56 38l0 73c0 19-17 36-35 36l-1162 0c-19 0-35-15-35-36l0-74c0-18 16-35 35-35l76 0 0-143 1023 0 z" fill="#321B41"/>
		<path d="M1666 988c64 0 117 53 117 117 0 63-50 117-117 117-64 0-116-52-116-117 0-64 51-117 116-117 z M1002 988c64 0 116 53 116 117 0 66-52 117-116 117-63 0-117-50-117-117 0-64 53-117 117-117 z" fill="#FECA46"/>
		<path d="M1450 647c125 0 218 95 232 220 14 139 18 270 29 409l1 13c0 211-152 364-346 364l-64 0c-48 0-93-9-135-28-138-61-210-187-210-336l1-13c11-139 14-270 28-409 11-124 109-220 232-220l232 0 z" fill="#FDD641"/>
		<path d="M1093 1226c19 0 50 30 97 30l23-1c23 0 38 19 38 40 0 35-35 40-62 40-36 0-136-20-136-69 0-22 17-40 40-40 z M1586 1226c21 0 39 17 39 39 0 51-102 70-136 70-29 0-62-4-62-40 0-29 17-38 38-38l22-1c48 0 78-30 99-30 z" fill="#D37034"/>
		<path d="M1590 1103l-160 0c-11 0-17 6-17 19 0 47 61 81 99 81 39 0 98-35 98-81 0-10-9-19-20-19 z M1249 1103c11 0 17 6 17 19 0 5-4 16-7 21-17 36-51 60-92 60-39 0-98-35-98-81 0-10 9-19 20-19l160 0 z" fill="#FFFFFF"/>
		<path d="M1558 1103l-123 0c-1 3-2 6-2 9l0 8c0 35 30 64 64 64 17 0 32-6 45-19 15-16 18-39 18-53 0-3-1-6-2-9 z M1244 1103c1 3 2 6 2 9l0 8c0 35-27 65-64 65-17 0-32-6-45-19-16-16-19-37-19-54 0-3 1-6 2-9l124 0 z" fill="#7D4533"/>
		<path d="M1529 1103l-65 0c-3 5-4 10-4 17 0 19 16 37 37 37 19 0 36-16 36-37 0-7-1-12-4-17 z M1215 1103c3 7 4 10 4 17 0 19-16 37-37 37-19 0-36-16-36-37 0-7 1-12 4-17l65 0 z" fill="#000000"/>
		<path d="M1476 1134c7 0 12 4 12 11 0 8-4 12-12 12-7 0-11-5-11-12 0-7 4-11 11-11 z M1160 1134c7 0 12 4 12 11 0 7-5 12-12 12-7 0-11-5-11-12 0-7 4-11 11-11 z" fill="#FFFFFF"/>
		<path d="M1697 1150c11 1 21 5 29 12 8 7 13 16 15 27l42 233 0 12c0 30-5 53-16 70-11 17-24 31-40 43-17 11-35 22-54 32-19 10-37 23-54 40-13 13-26 25-38 38-12 13-25 24-38 34-13 10-28 18-43 25-16 6-34 9-54 9-19 0-38-3-56-10-19-7-38-10-57-10-21 0-41 3-60 10-20 7-40 10-61 10-20 0-37-3-52-9-15-7-28-15-40-25-13-10-24-21-35-34-11-13-23-25-36-38-17-17-34-30-53-40-19-10-37-21-53-32-17-12-30-26-41-42-11-17-17-40-17-69l0-12c0-4 1-8 2-13l41-221c2-11 7-20 15-27 8-7 18-11 29-11l-4 55c-2 18-3 36-3 54 0 13 3 24 10 33l22 24c7 8 14 17 21 27 7 10 10 23 10 40l0 61c0 10 3 18 8 24 5 5 12 10 21 13 19 7 41 12 65 17 23 4 47 7 72 9 24 2 48 3 73 4 24 1 46 1 67 1 21 0 44 0 68-1 24-1 48-2 72-4 24-2 48-5 72-9 23-5 45-10 65-17 11-4 18-10 23-17 4-7 7-16 8-25l1-14-1-15c-1-10-2-19-2-28 0-17 3-31 10-40 7-10 14-19 22-27 8-8 15-16 22-25 7-9 10-20 10-34 0-18-1-36-2-54-2-18-4-36-5-54 z" fill="#FFB02F"/>
		<path d="M1361 953c22 0 37 20 37 39 0 19-16 70-28 107-12 33-12 51-35 51-15 0-22-9-26-21-8-30-37-111-37-137 0-19 15-39 37-39l52 0 z" fill="#FFB02C"/>
		<path d="M1334 823c50 0 98 28 124 71 1 3 2 5 2 7 0 7-4 12-11 12-13 0-71-29-115-29-40 0-69 10-108 27l-6 2c-6 0-12-5-12-12l2-7c16-39 83-71 124-71 z" fill="#990839"/>
		<path d="M1806 1343l0 190-882 0 0-190 882 0 z" fill="#321B41"/>
		<path d="M1874 1150c18 0 34 16 34 35l0 233c0 109-57 209-152 264-11 5-53 28-63 28-31 0-61-3-92-3l-535 0c-31 0-60 4-91 4-8 0-52-22-63-27-92-53-153-153-153-266l0-233c0-31 25-35 50-35l20 0c85 191 297 292 505 292 43 0 85-3 127-10 161-28 329-139 379-282l34 0 z" fill="#533566"/>
		<path d="M1876 1150c-3 47-80 139-113 172-111 108-271 156-429 156-148 0-290-40-407-142-37-32-131-138-134-186l36 0c85 191 297 292 505 292 43 0 86-4 128-11 155-27 322-131 378-281l36 0 z" fill="#8D65C5"/>
		<path d="M1261 1555c3 0 158 53 181 62l-5 108-371 0c-31 0-60-5-91-13l0-117c0-22 17-40 40-40l246 0 z" fill="#B4F6FC"/>
		<path d="M1652 1555c23 0 41 18 41 40l0 117c-29 9-59 13-92 13l-164 0-176-170 391 0 z" fill="#26EAFC"/>
	</g></svg>
