<svg version="1.1" xmlns="http://www.w3.org/2000/svg" viewBox="0 0 2300 2300"><g transform="scale(1,-1) translate(-256, -1869)">
		<path d="M1736 603c134 0 241 108 241 240 0 38-9 71-25 105-3 7-5 13-5 18 0 4 1 9 4 16 15 35 25 67 25 106 0 49-14 92-41 136-27 42-40 87-40 134 0 137-110 246-246 246-15 0-25 7-34 18-55 67-116 102-200 102-84 0-149-37-201-102-9-11-18-18-33-18-136 0-247-110-247-246 0-48-13-92-39-133-27-44-41-87-41-136 0-39 9-71 24-106 3-7 4-11 4-18 0-7-1-10-4-17-14-34-24-67-24-105 0-134 109-240 241-240l641 0 z" fill="#000000"/>
		<path d="M1909-287l144 431-144 395-1006 0-144-395 144-431 1006 0 z M1736 683c-104 47-215 72-330 72-115 0-226-25-330-72l660 0 z" fill="#212121"/>
		<path d="M1729-287l-71 0 0 378c0 21 16 36 35 36 19 0 36-15 36-36l0-378 z M1442-287l-72 0 0 378c0 19 15 36 36 36 19 0 36-15 36-36l0-378 z M1154-287l-71 0 0 378c0 21 16 36 35 36 19 0 36-15 36-36l0-378 z M2197-287l0 251c0 235-106 461-288 611l0-1c-139 114-313 181-503 181-184 0-361-63-503-181l0 1c-180-151-288-372-288-611l0-251 288 0 0 819c101-184 297-296 503-296 210 0 401 112 503 297l0-820 288 0 z" fill="#000000"/>
		<path d="M1405 505c19 0 55 38 67 50 49 45 81 111 81 183l0 222c0 82-66 149-148 149-84 0-148-68-148-149l0-222c0-71 32-137 82-183 14-14 47-50 66-50 z" fill="#452829"/>
		<path d="M1746 986c63 0 117 50 117 117 0 64-53 117-117 117-64 0-117-53-117-117 0-63 50-117 117-117 z M1085 986c64 0 117 53 117 117 0 64-53 117-117 117-64 0-117-53-117-117 0-63 50-117 117-117 z" fill="#452829"/>
		<path d="M1415 643c197 0 359 140 367 350 3 75 9 150 9 225 0 49-26 106-84 106l-237 0c-100 0-170 44-235 124-5 6-10 9-17 9-8 0-13-3-16-9-25-55-46-82-104-112-42-22-59-62-59-107 0-79 7-157 10-236 8-206 165-350 366-350 z" fill="#573739"/>
		<path d="M1415 810c24 0 47 6 69 18 22 11 54 42 54 54 0 7-5 11-12 11l-2 0c-61-21-70-26-109-26-37 0-72 8-105 25l-6 2c-7 0-11-4-11-11 0-2 1-4 2-7 24-43 75-66 120-66 z" fill="#990839"/>
		<path d="M1443 937c22 0 39 17 39 38 0 18-17 69-30 105-14 36-15 49-37 49-14 0-23-7-28-20-8-29-40-109-40-134 0-21 18-38 40-38l56 0 z" fill="#3D2123"/>
		<path d="M1663 1079c-51 18-97 29-149 45 21 34 55 62 98 62 25 0 98-14 98-51 0-25-32-44-47-56 z M1169 1079c49 19 99 30 150 45-22 32-54 62-98 62-29 0-98-15-98-51 0-21 29-42 46-56 z" fill="#000000"/>
		<path d="M1679 1075l-166 0c-7 0-17 6-17 14 0 51 55 90 102 90 41 0 102-36 102-84 0-10-10-20-21-20 z M1319 1075c7 0 17 6 17 14 0 51-55 90-102 90-41 0-102-36-102-84 0-10 10-20 21-20l166 0 z" fill="#FFFFFF"/>
		<path d="M1647 1074l-128 0c-1 3-2 6-2 9l0 9c0 37 26 67 66 67 36 0 67-30 67-67 0-6-1-12-3-18 z M1313 1074c2 6 3 12 3 19 0 38-32 66-67 66-36 0-67-30-67-67 0-6 1-12 3-18l128 0 z" fill="#7D4533"/>
		<path d="M1617 1075l-68 0c-3 5-4 11-4 18 0 21 16 38 38 38 21 0 38-16 38-38 0-7-1-11-4-18 z M1283 1075c3 5 4 11 4 18 0 21-16 38-38 38-21 0-38-16-38-38 0-7 1-11 4-18l68 0 z" fill="#000000"/>
		<path d="M1560 1106c9 0 13 4 13 13 0 7-6 12-13 12-6 0-12-5-12-12 0-7 5-13 12-13 z M1226 1106c8 0 12 4 12 13 0 7-5 12-12 12-6 0-12-5-12-12 0-7 5-13 12-13 z" fill="#FFFFFF"/>
		<path d="M1151 1224c3 0 10 1 11 4 28 13 58 21 89 21 11 0 19-3 30-3 12 0 17 11 17 22 0 16-18 21-35 21-35 0-132-10-132-44 0-11 10-21 20-21 z M1679 1224c10 0 20 10 20 20 0 7-3 13-10 18l-1 0c-31 18-72 27-107 27-19 0-50 0-50-23 0-12 9-19 20-19 11 0 19 2 30 2 31 0 59-9 87-21 3-3 8-4 11-4 z" fill="#000000"/>
		<path d="M2092 692c14 0 27 13 27 28 0 11-37 139-42 159-7 27-33 43-59 43-26 0-52-16-59-43-5-21-43-149-43-159 0-15 13-28 27-28l149 0 z" fill="#452829"/>
		<path d="M2018 913c36 0 61 28 61 62 0 24-14 44-33 54l0 639c0 33-28 57-58 57l-1147 0c-31 0-57-27-57-57 0-31 24-58 57-58l199 0-63-115 328-54c36-7 73-8 110-8 36 0 74 1 110 8l327 55-62 114 199 0 0-581c-19-10-33-30-33-54 0-34 26-62 62-62 z" fill="#1C1C1C"/>
	</g></svg>
