<svg version="1.1" xmlns="http://www.w3.org/2000/svg" viewBox="0 0 2300 2300"><g transform="scale(1,-1) translate(-256, -1869)">
		<path d="M2295-162l-147 0-257 522 18 143-144 0 36-143-75-522-140 0 0 522 72 180 359-1c87-174 56-92 153-353l125-348 z M1361-162l-126 348c-24 68-39 115-63 174l-89 179-360 1-72-180 0-522 141 0 75 522-36 143 144 0-19-143 258-522 147 0 z M633 629c-29 0-54 24-54 54l1 6-105 84c-27 22-39 63-39 94 0 93 84 121 156 163l54-95-84-48c-7-3-13-10-13-18 0-3 1-11 4-14l135-113c13-11 19-24 19-40 0-19-10-41-29-49-11-16-26-24-45-24 z M1100 629c-18 0-35 10-44 24-19 8-29 30-29 49 0 16 6 29 19 40l135 113c3 3 4 11 4 14 0 8-6 15-13 18l-84 48 54 95c65-39 156-68 156-163 0-30-12-73-39-94l-105-84c0-32-18-60-54-60 z M1568 629c19 0 34 9 45 24 19 10 28 30 28 49 0 16-6 29-19 40l-135 113c-3 3-3 10-3 13 0 5 1 10 4 13 28 21 61 37 92 54l-54 95c-68-39-156-70-156-164 0-30 13-72 39-93l105-84c0-32 18-60 54-60 z M2035 629c32 0 54 24 54 54l-1 6 105 84c26 21 40 62 40 92 0 97-87 125-156 165l-54-95 83-48c9-5 13-11 13-19 0-4-1-10-4-13l-135-113c-12-11-19-27-19-43 0-19 12-40 29-46 11-16 26-24 45-24 z" fill="#FCD53F"/>
		<path d="M2053 917l-225 131c-18 11-27 30-27 48 0 32 26 54 56 54 9 0 18-2 26-7l225-131-55-95 z M1550 917l224 131c18 10 27 26 27 48 0 32-25 54-55 54-10 0-19-2-27-7l-224-131 55-95 z M1118 917l-224 131c-18 11-27 30-27 48 0 32 26 54 56 54 8 0 17-2 26-7l224-131-55-95 z M615 917l225 131c18 11 27 30 27 48 0 32-26 54-56 54-9 0-18-2-26-7l-225-131 55-95 z" fill="#321B41"/>
		<path d="M1406-287l-52 143-149 0c40-87 101-143 201-143 z M653-287c87 0 131 62 142 143l-144 0 0-143 2 0 z M2340-287l-52 143-149 0c41-83 97-143 201-143 z M1587-287c69 0 128 49 138 115l4 28-143 0 0-143 1 0 z M2107 360l-90 287 0 288c0 119-97 215-216 215-120 0-215-97-215-215l0-575 215 0 16 119c4 7 2 5 9 7l6-2c5-5 53-110 59-124l216 0 z M1172 360l-89 287 0 288c0 119-97 215-216 215-121 0-216-97-216-215l0-575 216 0 15 119c6 7 2 4 10 7l6-2c5-5 53-111 58-124l216 0 z" fill="#533566"/>
		<path d="M1801 1023c7 0 12 3 15 8l75 119-180 0 75-119c3-5 8-8 15-8 z M867 1023c7 0 12 3 15 8l75 119-180 0 75-119c3-5 8-8 15-8 z" fill="#F9C23C"/>
		<path d="M1950 1266c27 0 50 21 50 50 0 26-23 50-50 50-26 0-50-23-50-50 0-27 21-50 50-50 z M1654 1266c26 0 50 23 50 50 0 26-23 50-50 50-26 0-50-23-50-50 0-27 21-50 50-50 z M1016 1265c26 0 50 23 50 50 0 26-23 51-50 51-29 0-50-24-50-51 0-27 21-50 50-50 z M719 1265c29 0 50 23 50 50 0 27-21 51-50 51-27 0-50-25-50-51 0-26 23-50 50-50 z" fill="#FECA46"/>
		<path d="M1852 1114c54 0 97 40 101 94 4 61 12 124 12 185 0 83-68 147-150 147l-28 0c-82 0-149-65-149-148 0-61 8-124 13-184 4-55 46-94 101-94l100 0 z M918 1114c54 0 97 40 101 94 4 61 11 124 11 185 0 83-68 147-149 147l-28 0c-83 0-150-68-150-150 0-60 9-122 14-182 4-52 43-94 100-94l101 0 z" fill="#FCD53F"/>
		<path d="M707 1331c-1 15-3 30-3 45 0 23 25 33 25 55l0 28c0 27 117 30 136 30 43 0 82-5 123-14 9-2 14-7 14-16l0-27c0-30 27-26 27-54 0-15-3-30-4-45 11 0 18 5 21 16 7 32 18 71 18 102 0 41-23 52-48 65-34 18-55 66-96 66-19 0-34-11-54-11-18 0-31 7-49 7-35 0-51-18-76-44-29-29-72-29-72-81 0-33 13-73 20-105 2-11 8-17 18-17 z M1642 1331c-1 15-4 30-4 45 0 21 26 32 26 56l0 27c0 9 4 14 13 16 40 11 82 14 123 14 41 0 82-5 123-14 9-2 14-8 14-17l-1-26c0-30 27-26 27-54 0-15-2-30-3-45 11 0 18 5 20 16 7 33 19 70 19 104 0 39-25 51-50 64-36 17-49 65-95 65-19 0-34-11-53-11-18 0-31 7-49 7-35 0-52-19-77-44-28-28-71-30-71-80 0-35 12-72 19-106 3-9 8-17 19-17 z" fill="#FFB02F"/>
		<path d="M1801 1186c13 0 50 14 50 31 0 3-2 5-5 5-3 0-26-12-45-12-18 0-41 12-44 12-3 0-5-2-5-5 0-17 36-31 49-31 z M867 1186c14 0 50 15 50 31 0 3-2 5-5 5-4 0-26-12-45-12-19 0-42 12-45 12-3 0-5-2-5-5 0-16 37-31 50-31 z" fill="#990838"/>
		<path d="M1908 1304c6 0 9 3 9 9 0 19-23 35-42 35-20 0-42-15-42-38 0-4 2-6 7-6l68 0 z M1763 1304c5 0 7 2 7 6 0 22-22 38-42 38-18 0-42-16-42-35 0-6 3-9 9-9l68 0 z M974 1304c5 0 8 3 8 8 0 20-23 36-42 36-20 0-42-16-42-38 0-4 2-6 7-6l69 0 z M829 1304c5 0 7 5 7 9 0 19-25 35-43 35-19 0-41-16-41-36 0-5 3-8 8-8l69 0 z" fill="#FFFFFF"/>
		<path d="M1895 1304l1 8c0 14-13 28-28 28-14 0-27-13-27-28l1-8 53 0 z M1761 1304l1 8c0 14-13 28-28 28-14 0-27-13-27-28l1-8 53 0 z M960 1304l1 8c0 15-13 28-27 28-15 0-27-12-27-26l1-10 52 0 z M826 1304l1 8c0 15-13 28-27 28-15 0-28-14-28-28l1-8 53 0 z" fill="#7D4533"/>
		<path d="M1882 1304l2 8c0 11-5 16-16 16-9 0-15-8-15-16l1-8 28 0 z M1748 1304l2 8c0 11-5 16-16 16-9 0-15-8-15-16l1-8 28 0 z M948 1304l1 8c0 8-6 16-15 16-11 0-16-5-16-16l2-8 28 0 z M814 1304l1 8c0 8-6 16-15 16-11 0-16-5-16-16l2-8 28 0 z" fill="#000000"/>
		<path d="M1860 1318c-3 0-5 2-5 5 1 3 3 5 5 5l5-5c0-2-2-4-5-5 z M1725 1318c-3 0-5 2-5 5 1 3 3 5 5 5l5-5c0-2-2-4-5-5 z M925 1318c-3 1-5 3-5 5l5 5c1 0 3-2 5-5 0-3-2-5-5-5 z M790 1318c3 0 5 2 5 5-2 3-4 5-5 5l-4-5c0-2 1-4 4-5 z" fill="#FFFFFF"/>
		<path d="M1813 1230c9 0 17 7 17 16 0 7-2 16-7 29-9 26-10 38-22 38-5 0-8-3-11-9-3-8-18-49-18-57 0-9 8-17 17-17l24 0 z M879 1230c9 0 17 8 17 17 0 17-16 66-29 66-5 0-9-3-12-9-3-11-17-48-17-57 0-9 8-17 17-17l24 0 z" fill="#FFB02E"/>
		<path d="M1907 1369c5 0 9 2 12 5 3 3 5 7 5 11 0 5-2 10-6 13l0 1-6 3c-3 1-5 3-6 4l-7 3c-11 4-22 6-33 6-6 0-12-1-18-2-6-2-9-7-9-15 0-5 1-9 4-12 3-3 7-5 12-5l21 0 7-2 12-5c0-1 1-1 2-1 4-3 7-4 10-4 z M1694 1369c5 0 10 2 16 7 5 4 13 6 23 6l7 0c2-1 4-1 6-1 5 0 9 2 12 6 3 3 4 7 4 11 0 7-3 12-9 14-7 2-13 3-18 3-11 0-22-2-33-6l-14-7-5-3 0-1c-4-3-6-8-6-13 0-4 2-8 5-11 3-3 7-5 12-5 z M973 1369c9 0 17 7 17 16 0 22-42 30-58 30-12 0-28-1-28-18 0-8 7-16 16-16l13 1c22 0 29-13 40-13 z M759 1369c5 0 11 2 16 7 5 4 13 6 24 6l7 0c2-1 4-1 6-1 5 0 9 2 12 5 3 3 4 7 4 11 0 8-3 13-9 15-6 2-12 3-18 3-12 0-23-2-34-6l-10-5c-5-3-8-4-8-6-4-3-6-8-6-13 0-11 5-16 16-16 z" fill="#D37034"/>
		<path d="M1899 1518c27 37 44 109 44 155 0 11-3 52-22 52-45 0-74-136-77-176l55-31 z M965 1518c27 42 44 106 44 154 0 11-3 53-22 53-45 0-77-136-77-176l55-31 z" fill="#321B41"/>
		<path d="M1944 1448c10 1 13 0 13 10l-1 4c-16 71-82 121-153 121-17 0-33-2-47-7-5 28-33 149-74 149-21 0-22-38-22-52 0-43 13-97 32-136-16-16-42-57-42-78 0-5 3-11 10-11 3 0 6 1 9 3 36 34 81 71 135 71 34 0 77-22 107-45 15-12 19-22 33-29 z M1010 1448c7 0 7 1 12 6l0 8c-16 70-81 121-153 121-17 0-33-2-47-7-5 28-34 149-74 149-22 0-23-37-23-52 0-48 15-96 33-136-16-16-43-58-43-79l1-2c3-8 3-8 12-8 3 0 73 74 141 74 67 0 138-74 141-74 z" fill="#533566"/>
	</g></svg>
