<svg version="1.1" xmlns="http://www.w3.org/2000/svg" viewBox="0 0 2300 2300"><g transform="scale(1,-1) translate(-256, -1869)">
		<path d="M1714 614c128 0 231 103 231 231 0 52-27 97-27 120 0 4 1 9 3 14 15 35 23 65 23 103 0 131-100 176-100 258 0 125-78 236-213 236-13 0-24 6-33 17-53 64-110 99-192 99-80 0-141-33-193-99-9-11-18-17-33-17-138 0-212-111-212-237 0-79-101-130-101-257 0-36 9-69 23-103 3-5 4-9 4-16 0-5-1-10-4-17-14-33-23-64-23-101 0-128 103-231 231-231l616 0 z" fill="#593B39"/>
		<path d="M1909-287l158 433-158 428c-139 114-313 181-503 181-190 0-364-67-503-181l-138-428 138-433 1006 0 z" fill="#E6E6E6"/>
		<path d="M1594 216l0 116c0 38-13 77-36 107 96 13 171 95 171 193 0 108-93 195-202 195l-243 0c-111 0-201-88-201-195 0-98 75-180 171-193-23-30-36-69-36-107l0-116c95 0 188 75 188 181 0-102 89-181 188-181 z" fill="#F92F60"/>
		<path d="M2197-287l0 252c0 234-106 460-288 610l0-862 288 0 z M617-287l286 1 0 861c-176-148-288-362-288-611 0-84 1-167 2-251 z" fill="#D3D3D3"/>
		<path d="M2304-25l0 163c0 38-32 71-71 71-39 0-72-30-72-71l0-163 143 0 z" fill="#BB806E"/>
		<path d="M2140-271c21 0 38 16 41 36l39 314c5 41 8 82 8 125 0 59-5 117-16 174l-73 28-71-28c-10-57-15-115-15-174 0-43 3-82 8-125l39-314c3-21 21-36 40-36 z" fill="#8C5543"/>
		<path d="M2213 378c-9 48-16 96-31 143l-86 0c-16-47-20-95-28-143l145 0 z" fill="#E6E6E6"/>
		<path d="M2124 503c66 0 107 52 107 116-3-27-27-29-49-29l-12 0c-31 1-40 5-40 37 0 20-28 53-49 53 0 0-48-15-51-15-10-19-14-33-14-54 0-63 50-108 108-108 z" fill="#F3AD61"/>
		<path d="M2173 567c30 0 58 24 58 56 0 19-6 34-6 53 0 40 26 81 26 93 0 15-7 22-22 22-82 0-164-53-199-126l48 0c61 0 18-98 95-98 z" fill="#5092FF"/>
		<path d="M2247-286c36 0 57 31 57 63l0 252c0 32-21 62-57 62l-216 0c-32 0-50-29-50-57 0-17 9-33 22-42-15-11-22-26-22-45 0-19 7-34 22-45-15-11-22-25-22-44 0-19 7-34 22-45-15-11-22-27-22-46 0-26 21-53 50-53l216 0 z" fill="#C68D7B"/>
		<path d="M1300-287l-155 424c-42 117-165 221-296 221-177 0-331-160-331-337 0-39 8-78 21-115l70-193 691 0 z" fill="#FFCE7C"/>
		<path d="M644-287l-70 193c-13 37-21 76-21 116 0 173 132 320 306 336-11 1-20 2-31 2-185 0-339-148-339-338 0-39 8-79 21-116l70-193 64 0 z" fill="#E19747"/>
		<path d="M848 55c50 0 89 39 89 89 0 50-39 89-89 89-50 0-89-39-89-89 0-50 39-89 89-89 z" fill="#F92F60"/>
		<path d="M1064-161c50 0 89 39 89 89 0 50-39 89-89 89-50 0-89-39-89-89 0-50 39-89 89-89 z" fill="#5092FF"/>
		<path d="M776-225c50 0 89 39 89 89 0 51-38 89-89 89-50 0-89-39-89-89 0-50 39-89 89-89 z" fill="#86D72F"/>
		<path d="M1406 539c81 0 144 69 144 145l0 142c0 81-67 145-144 145-81 0-144-69-144-145l0-142c0-79 62-145 144-145 z" fill="#BB806E"/>
		<path d="M1720 988c64 0 117 53 117 117 0 63-50 117-117 117-64 0-116-52-116-117 0-64 51-117 116-117 z M1091 988c64 0 117 53 117 117 0 63-50 117-117 117-64 0-116-52-116-117 0-64 51-117 116-117 z" fill="#BB806E"/>
		<path d="M1406 683c196 0 343 148 351 340 3 73 8 146 8 219 0 46-24 103-80 103l-227 0c-97 0-164 43-225 121-4 5-9 8-15 8-17 0-18-14-23-26-44-109-148-75-148-195 0-76 6-154 9-230 8-188 146-340 350-340 z" fill="#C68D7B"/>
		<path d="M1637 1101c-47 17-95 29-143 44 19 32 52 59 94 59 26 0 93-13 93-49 0-21-28-41-44-54 z M1163 1102c46 14 97 30 144 43-21 31-54 59-95 59-26 0-94-15-94-49 0-22 31-42 45-53 z" fill="#000000"/>
		<path d="M1652 1098l-159 0c-11 0-17 6-17 19 0 4 4 16 7 20 16 36 52 61 92 61 40 0 98-38 98-80 0-10-10-20-21-20 z M1307 1098c11 0 17 6 17 19 0 44-60 81-99 81-39 0-97-36-97-82 0-11 10-18 20-18l159 0 z" fill="#FFFFFF"/>
		<path d="M1621 1097l-123 0c-1 7-2 10-2 17 0 35 30 64 64 64 35 0 64-30 64-64 0-7-1-12-3-17 z M1302 1097c1 7 2 10 2 17 0 35-30 64-64 64-35 0-64-30-64-64 0-7 1-10 2-17l124 0 z" fill="#7D4533"/>
		<path d="M1593 1097l-65 0c-3 5-4 10-4 17 0 21 17 37 36 37 19 0 37-16 37-37 0-7-1-12-4-17 z M1272 1097c3 5 4 10 4 17 0 21-17 37-36 37-19 0-37-16-37-37 0-5 1-10 4-17l65 0 z" fill="#000000"/>
		<path d="M1538 1128c7 0 12 4 12 11 0 7-5 12-12 12-7 0-11-5-11-12 0-7 4-11 11-11 z M1218 1128c7 0 12 4 12 11 0 8-4 12-12 12-7 0-11-5-11-12 0-7 4-11 11-11 z" fill="#FFFFFF"/>
		<path d="M1397 804c50 0 93 31 115 71 1 3 2 5 2 7 0 7-4 12-11 12-3 0-60-29-107-29-50 0-102 29-105 29-7 0-11-5-11-12 0-2 1-4 2-7 22-43 69-71 115-71 z" fill="#990839"/>
		<path d="M1423 917c22 0 37 20 37 39 0 21-16 70-28 107-10 33-12 51-35 51-14 0-23-9-26-21-8-30-37-111-37-137 0-22 16-39 37-39l52 0 z" fill="#AB6A55"/>
		<path d="M1644 1232c11 0 20 9 20 19 0 33-96 43-114 43l-13 0c-17 0-35-5-35-20 0-12 9-21 21-21 10 0 17 2 28 2 41 0 80-23 93-23 z M1137 1232c18 0 55 23 96 23 9 0 19-2 27-2 11 0 20 9 20 19 0 18-17 22-33 22-32 0-128-9-128-43 0-11 7-19 18-19 z" fill="#593B39"/>
		<path d="M1820 1366c28 0 53 23 53 52 0 166-134 307-307 307-222 0-443-58-636-177-36-21-63-44-63-90 0-50 39-92 92-92l861 0 z" fill="#212121"/>
	</g></svg>
