<svg version="1.1" xmlns="http://www.w3.org/2000/svg" viewBox="0 0 2300 2300"><g transform="scale(1,-1) translate(-256, -1869)">
		<path d="M1909-287l144 431-144 395-1006 0-144-395 144-431 1006 0 z" fill="#212121"/>
		<path d="M1729-287l-71 0 0 378c0 21 16 36 35 36 19 0 36-15 36-36l0-378 z M1442-287l-72 0 0 378c0 19 15 36 36 36 19 0 36-15 36-36l0-378 z M1154-287l-71 0 0 378c0 21 16 36 35 36 19 0 36-15 36-36l0-378 z M2197-287l0 251c0 235-106 461-288 611l0-1c-139 114-313 181-503 181-184 0-361-63-503-181l0 1c-180-151-288-372-288-611l0-251 288 0 0 819c101-184 297-296 503-296 210 0 401 112 503 297l0-820 288 0 z" fill="#000000"/>
		<path d="M1405 404c19 0 55 38 67 50 49 45 82 110 82 182l0 222c0 83-65 148-148 148-82 0-149-67-149-147l0-222c0-73 31-138 82-183 14-14 47-50 66-50 z" fill="#9B9B9B"/>
		<path d="M1465 450c4 0 7 1 9 3 51 40 81 120 81 183l0 140-297 0 0-140c0-66 31-142 82-183 2-2 5-3 8-3 19 0 40 70 59 70 19 0 39-70 58-70 z" fill="#E6E6E6"/>
		<path d="M2268 0l0 150c0 40-35 66-72 66-38 0-71-25-71-66l0-150 143 0 z" fill="#F4C6AD"/>
		<path d="M2135-98l0 386c11 0 21 3 29 9 8 6 12 15 12 27 0 9-3 16-8 23-5 7-12 11-20 13l32 0c9 0 16 2 23 5 6 3 11 8 14 15 3 7 4 17 4 31 3-15 10-27 21-36 11-10 24-15 39-15 17 0 31 6 43 18 11 12 17 26 17 43l0 167c0 17-6 31-17 43-12 12-26 18-43 18-15 0-29-5-40-14-11-10-18-23-20-38l0 6c0 10-2 19-6 28-5 11-15 16-30 16l-207 0c-10 0-17-2-22-7-5-5-9-11-11-18-2-7-3-15-3-24l0-23c0 19-4 37-13 52-9 15-25 22-47 22-17 0-31-6-43-18-12-12-18-26-18-43l0-167c0-17 6-31 18-43 12-12 26-18 43-18 21 0 37 7 46 22 9 14 14 30 14 49 0-17 1-31 2-40 1-10 4-17 9-22 5-5 12-7 22-8 9-1 23-1 40-1-9-2-16-6-21-13-5-7-8-14-8-23 0-12 4-21 12-27 8-6 18-9 29-9l0-386 108 0 z" fill="#7D4533"/>
		<path d="M2211-287c36 0 57 33 57 65l0 264c0 33-21 66-57 66l-216 0 0-1c-33 0-50-31-50-60 0-16 8-33 22-44-15-11-22-29-22-46 0-19 7-36 22-47-15-11-22-28-22-47 0-17 7-35 22-46-15-12-22-30-22-49 0-26 21-55 50-55l216 0 z" fill="#FFD7C2"/>
		<path d="M1406 539c86 0 144 80 144 155l0 193c0 82-62 155-144 155-88 0-144-76-144-154l0-193c0-78 56-156 144-156 z" fill="#F4C6AD"/>
		<path d="M1742 986c64 0 117 53 117 117 0 66-54 118-117 118-62 0-117-52-117-118 0-64 53-117 117-117 z M1056 986c64 0 117 53 117 117 0 66-54 118-117 118-63 0-117-52-117-118 0-64 53-117 117-117 z" fill="#F4C6AD"/>
		<path d="M1514 646c123 0 222 95 230 215 11 135 18 263 29 398l1 12 0 11c0 188-150 345-344 345l-63 0c-142 0-262-85-316-209-22-50-27-102-27-147l1-12c9-133 17-265 28-398 8-119 109-215 231-215l230 0 z" fill="#FFD7C2"/>
		<path d="M1154 1229c21 0 46 29 97 29l22-1c19 0 39 16 39 37 0 38-31 42-60 42-30 0-137-18-137-68 0-22 17-39 39-39 z M1645 1229c22 0 38 17 38 40 0 49-102 68-137 68-29 0-60-5-60-42 0-29 20-37 41-37 38 0 61-3 94-21l0-1c7-5 15-7 24-7 z" fill="#212121"/>
		<path d="M1648 1101l-159 0c-11 0-17 9-17 20 0 42 57 80 99 80 40 0 97-36 97-81 0-11-10-19-20-19 z M1310 1101c7 0 16 7 16 14 0 48-53 86-98 86-40 0-98-35-98-80 0-10 10-20 20-20l160 0 z" fill="#FFFFFF"/>
		<path d="M1617 1101l-123 0c-1 7-2 10-2 17 0 34 26 64 63 64 17 0 32-6 45-19 16-16 19-37 19-54 0-3-1-5-2-8 z M1304 1101c1 7 2 10 2 17 0 34-26 64-63 64-35 0-64-30-64-64 0-7 1-10 2-17l123 0 z" fill="#7D4533"/>
		<path d="M1588 1101l-65 0c-3 5-4 10-4 17 0 21 17 37 36 37 19 0 37-16 37-37 0-7-1-12-4-17 z M1275 1101c3 5 4 10 4 17 0 21-17 37-36 37-19 0-37-16-37-37 0-5 1-10 4-17l65 0 z" fill="#000000"/>
		<path d="M1536 1132c7 0 12 4 12 11 0 7-5 12-12 12-7 0-11-5-11-12 0-7 4-11 11-11 z M1221 1132c7 0 12 4 12 11 0 7-5 12-12 12-7 0-11-5-11-12 0-7 4-11 11-11 z" fill="#FFFFFF"/>
		<path d="M1426 954c21 0 39 17 39 39 0 11-8 38-16 64-18 54-23 86-50 86-13 0-22-6-27-19-8-30-39-108-39-132 0-21 17-38 38-38l55 0 z" fill="#F1B99B"/>
		<path d="M1033 1146c-3 36-7 73-7 109 0 59 64 57 64 124l0 62c0 17 12 33 28 38 76 24 194 31 280 31 63 0 140-4 214-16 46-8 94-13 94-53l0-62c0-69 66-67 66-124 0-36-4-72-7-108 23 1 39 17 43 38l41 221c2 9 3 17 3 26 0 85-58 115-113 143-86 42-115 145-227 145-41 0-71-20-113-20-42 0-78 25-120 25-75 0-120-64-168-112-66-63-166-67-166-184 0-8 1-16 2-24l41-220c4-23 23-38 45-39 z" fill="#212121"/>
		<path d="M1399 827c23 0 46 6 69 17 23 12 54 42 54 54 0 7-6 12-13 12l-2 0c-63-21-71-26-108-26-39 0-71 9-106 25l-5 1c-6 0-12-5-12-12l2-6c16-39 81-65 121-65 z" fill="#990839"/>
	</g></svg>
