<svg version="1.1" xmlns="http://www.w3.org/2000/svg" viewBox="0 0 2300 2300"><g transform="scale(1,-1) translate(-256, -1869)">
		<path d="M1909-287l151 428-151 433c-27 22-55 42-84 61-34 22-122 62-122 62l-197 16c-38 3-61 8-99 8-38 0-58-4-98-7l-196-15-29-12c-65-29-126-67-181-113l-143-433 143-428 1006 0 z" fill="#533566"/>
		<path d="M1600-287l0 998-389 0 0-998 389 0 z" fill="#D3D3D3"/>
		<path d="M1553-287l-97 639 70 151-120 24-121-24 71-151-99-639 296 0 z" fill="#533566"/>
		<path d="M1574 401c14 0 27 12 27 27l0 340-390 0 0-340c0-15 13-27 27-27 6 0 12 2 17 6l151 120 151-120c5-4 10-6 17-6 z" fill="#F4F4F4"/>
		<path d="M2197-287l0 251c0 234-106 460-288 610l0-861 288 0 z M903-287l0 862c-181-151-288-366-288-611l0-251 288 0 z M1211-287l0 999-61 0-18-6c-4-2-8-4-12-5-4-1-7-2-8-3l-11-22-60-126c-7-14-12-26-16-36-4-10-6-16-6-18 0-9 3-14 9-17 5-3 12-4 21-4l28 1c9 1 18 1 27 1 9-1 16-2 22-5 5-3 8-9 8-17 0-9-6-19-19-30l-43-36c-15-13-29-27-42-42-13-15-20-32-20-49 0-9 1-17 4-23l196-562 1 0 z M1601-287l197 565c3 7 3 15 3 23 0 19-7 37-20 50l-98 95c-3 3-5 7-5 14 0 16 13 20 30 21l55-3c17 0 30 5 30 21 0 12-85 183-91 198-15 7-37 10-52 18l-49 0 0-1002 z" fill="#321B41"/>
		<path d="M1406 539c83 0 144 76 144 155l0 193c0 82-62 155-144 155-85 0-144-75-144-155l0-193c0-78 58-155 144-155 z" fill="#F4C6AD"/>
		<path d="M1757 988c68 0 120 57 120 120 0 68-57 120-120 120-68 0-120-57-120-120 0-68 57-120 120-120 z M1054 988c68 0 120 57 120 120 0 68-57 120-120 120-68 0-120-57-120-120 0-68 57-120 120-120 z" fill="#F4C6AD"/>
		<path d="M1527 647c118 0 236 89 244 220 11 139 18 270 29 409l1 13 0 13c0 196-164 351-362 351l-66 0c-144 0-274-82-333-213-23-51-29-105-29-151l1-13c11-139 18-270 29-409 8-130 121-220 243-220l243 0 z" fill="#FFD7C2"/>
		<path d="M1044 1132l-4 54c-2 18-3 36-3 54 0 14 3 25 10 34l22 24c7 7 14 16 21 26 7 9 10 23 10 40 0 8 0 17-1 28l-1 15 1 14c1 9 3 18 8 25 4 7 11 13 22 16 43 13 89 22 137 26 48 3 95 5 140 5 45 0 91-2 140-5 48-4 94-13 137-26 19-5 28-18 28-37l0-61c0-17 3-31 10-40 7-10 14-19 22-26 8-7 15-15 22-23 7-9 10-20 10-35 0-17-1-35-2-53l-4-54c11 1 20 5 28 12 8 7 13 15 15 26l40 220c2 9 3 18 3 28 0 19-3 36-8 49-5 13-12 25-20 34-9 9-19 18-30 25l-71 42c-13 7-24 16-34 27l-39 40c-12 13-24 24-37 34-13 9-28 17-43 23-15 6-33 9-54 9-9 0-18-1-27-2-9-2-18-4-27-7l-344-97c-16-16-34-29-53-39-19-10-37-20-53-31-17-11-30-25-41-42-11-17-17-40-17-69l0-12c0-5 1-9 2-13l40-219c2-11 7-20 16-27 8-7 18-11 29-12 z" fill="#212121"/>
		<path d="M1662 1105l-164 0c-7 0-17 6-17 14 0 47 52 89 101 89 39 0 100-36 100-83 0-10-10-20-20-20 z M1315 1105c7 0 16 6 16 14 0 48-51 89-100 89-39 0-101-35-101-82 0-10 10-21 21-21l164 0 z" fill="#FFFFFF"/>
		<path d="M1630 1105l-126 0c-1 3-2 6-2 9l0 8c0 35 28 66 65 66 18 0 33-6 46-19 16-17 19-40 19-55 0-3-1-6-2-9 z M1309 1105c1 7 2 10 2 17 0 35-27 66-65 66-36 0-66-29-66-66 0-7 1-10 2-17l127 0 z" fill="#7D4533"/>
		<path d="M1600 1105l-66 0c-3 5-4 10-4 17 0 22 16 38 37 38 21 0 37-16 37-38 0-7-1-12-4-17 z M1279 1105c3 5 4 10 4 17 0 22-16 38-37 38-21 0-38-16-38-38 0-6 2-12 5-17l66 0 z" fill="#000000"/>
		<path d="M1547 1137c7 0 11 5 11 12 0 7-4 11-11 11-7 0-12-4-12-11 0-8 4-12 12-12 z M1223 1137c8 0 12 4 12 12 0 7-5 11-12 11-7 0-11-4-11-11 0-7 4-12 11-12 z" fill="#FFFFFF"/>
		<path d="M1433 953c22 0 37 20 37 39 0 18-16 71-28 107-12 32-12 51-35 51-14 0-23-9-26-21-8-29-38-113-38-136 0-19 15-40 37-40l53 0 z" fill="#F1B99B"/>
		<path d="M1406 823c25 0 48 7 71 20 23 13 55 45 55 57 0 9-4 13-12 13l-6-2c-42-15-65-27-108-27-38 0-74 9-108 27l-6 2c-6 0-12-5-12-12 0-2 1-4 2-7 24-42 75-71 124-71 z" fill="#990839"/>
		<path d="M1556 1229c112 0 175 55 242 132l-1 1c39 41 84 75 84 139 0 48-25 88-63 113-114 73-275 111-405 111-101 0-224-23-327-65-84-34-157-71-157-158 0-76 64-111 100-157 53-70 136-116 226-116l301 0 z" fill="#533566"/>
		<path d="M1798 1361c0 38-24 64-61 74-102 26-216 37-327 37-109 0-225-10-335-37-37-10-61-36-61-74 128 34 261 53 392 53 131 0 264-19 392-53 z" fill="#FFD7C2"/>
		<path d="M1888 380c23 0 21 18 29 28 5 7 36 2 36 21 0 9-9 18-18 18l-46 0c-16 0-33-10-39-24l-3 0c-6 14-23 24-39 24l-44 0c-11 0-18-7-18-18 0-24 30-12 35-20 7-15 11-29 30-29l77 0 z M1398 1561c5 0 8 3 8 8l-1 3-39 71c-3 5-8 8-13 8l-101 0c-5 0-8-3-8-8l1-4 39-70c3-5 8-8 13-8l101 0 z M1514 1562c5 0 10 3 13 8l40 70 1 3c0 6-3 9-8 9l-101 0c-5 0-10-3-13-8l-39-70-1-4c0-5 2-8 7-8l101 0 z" fill="#F4C6AD"/>
		<path d="M1406 1486c36 0 63 29 63 63 0 36-29 63-63 63-36 0-63-29-63-63 0-36 29-63 63-63 z" fill="#F1B99B"/>
		<path d="M1427 1517c3 0 5 2 5 5 0 3-4 15-5 18 2 7 15 13 15 20 0 8-15 6-21 7-4 3-8 15-11 19l-4 3c-3 0-6-3-7-10-3-11-3-12-20-12-6-1-9-3-9-7 0-7 13-13 15-20-1-3-5-15-5-18 0-3 2-5 5-5 3 0 16 8 19 9 6 0 18-9 23-9 z" fill="#FFF478"/>
	</g></svg>
