<svg version="1.1" xmlns="http://www.w3.org/2000/svg" viewBox="0 0 2300 2300"><g transform="scale(1,-1) translate(-256, -1869)">
		<path d="M1967-285c236 0 428 189 428 428 0 66-16 124-43 187-5 11-7 21-7 30 0 11 3 19 7 30 27 64 43 124 43 190 0 60-13 118-36 174l1 0c-11 23-22 45-37 68l-1 0c-47 73-70 155-70 237 0 235-187 439-438 439-44 0-61 31-86 62-80 96-207 152-331 152-110 0-220-41-306-124-39-39-61-90-111-90-238 0-439-193-439-439 0-86-22-162-70-237-48-78-72-155-72-242 0-68 16-124 43-190 4-11 7-19 7-30 0-9-2-19-7-30-27-63-43-121-43-187 0-237 190-428 427-428l1141 0 z" fill="#FFB02C"/>
		<path d="M776 357c120 0 214 94 214 214 0 117-96 214-214 214-117 0-213-94-213-214 0-117 94-214 213-214 z M2039 364c117 0 213 94 213 214 0 117-94 214-213 214-117 0-214-96-214-214 0-117 96-214 214-214 z" fill="#FECA46"/>
		<path d="M1396-196c361 0 646 255 662 623l11 259c3 51 5 79 5 129 0 88-54 177-151 177l-428 0c-156 0-314 77-399 192-16 20-31 46-53 46-22 0-31-15-37-31-36-88-81-142-165-181-80-37-122-104-122-196 0-25 3-51 3-76l-1 0 12-319c16-362 297-623 663-623 z" fill="#FDD641"/>
		<path d="M1449 285c37 0 73 31 73 71 0 8-1 15-4 22l-70 226c-7 23-27 37-51 37-22 0-44-14-51-37-13-39-74-216-74-247 0-41 34-72 73-72l104 0 z" fill="#FFB02C"/>
		<path d="M1397 89c83 0 164 40 210 113 3 4 4 8 4 11 0 10-10 19-21 19l-9-2c-61-30-118-44-184-44-67 0-122 15-184 44l-9 2c-11 0-21-10-21-20 0-4 1-7 3-10 46-73 128-113 211-113 z" fill="#990839"/>
		<path d="M1844 571c-86 27-169 44-256 71 34 58 110 114 180 114 56 0 96-15 140-50 15-12 31-24 31-45 0-39-71-73-95-90 z M964 571c86 27 169 44 256 71-36 57-106 114-180 114-54 0-95-14-141-50-15-12-30-24-30-45 0-39 71-73 95-90 z" fill="#000000"/>
		<path d="M1859 571l-296 0c-21 0-31 14-31 36 19 92 99 149 183 149 83 0 158-57 180-140l1-9c0-22-18-36-37-36 z M1231 571c16 0 31 12 31 30l-1 6c-19 88-95 149-182 149-86 0-159-59-180-140l-1-9c0-22 18-36 37-36l296 0 z" fill="#FFFFFF"/>
		<path d="M1802 571l-229 0c-3 11-4 20-4 31 0 67 52 119 118 119 68 0 119-55 119-119 0-11-1-20-4-31 z M1220 571c3 11 5 22 5 31 0 68-55 119-119 119-63 0-119-52-119-119 0-9 2-20 5-31l228 0 z" fill="#7D4533"/>
		<path d="M1746 571l-119 0c-5 9-8 20-8 31 0 39 31 68 68 68 38 0 67-31 67-68 0-11-3-22-8-31 z M1166 571c5 9 8 20 8 31 0 39-31 68-68 68-38 0-67-31-67-68 0-11 3-22 8-31l119 0 z" fill="#000000"/>
		<path d="M1650 626c12 0 21 10 21 22 0 10-10 21-21 21-11 0-21-11-21-21 0-12 9-22 21-22 z M1066 626c12 0 21 12 21 22 0 10-10 21-21 21-10 0-22-9-22-21 0-12 10-22 22-22 z" fill="#FFFFFF"/>
		<path d="M1868 809c-14 0-63 26-80 31-32 11-64 16-99 16-16 0-33-4-49-4-18 0-36 15-36 34 0 32 31 40 60 41l26 0c68 0 130-18 190-49l6-3c11-7 17-18 17-30 0-21-16-36-35-36 z M926 809c11 0 62 25 80 31 31 11 65 16 98 16 18 0 32-4 50-4 19 0 36 15 36 36 0 30-32 38-61 39l-26 0c-40 0-212-26-212-82 0-21 16-36 35-36 z" fill="#D37034"/>
	</g></svg>
