<svg version="1.1" xmlns="http://www.w3.org/2000/svg" viewBox="0 0 2300 2300"><g transform="scale(1,-1) translate(-256, -1869)">
		<path d="M2198-287l-73 143 1 42c0 250-84 506-317 643l-806 0c-245-144-316-420-316-685l-72-143 469 0 321 129 322-129 471 0 z" fill="#D3D3D3"/>
		<path d="M760-287l-143 0-1 72 69 80-65 85c24 202 125 391 281 520l4-756-145-1 z M2197-287l-287 0 0 758c172-142 287-367 287-587l0-171 z M1407 286c159 0 341 53 470 155 29 23 46 51 46 90 0 62-49 117-115 117l-803 0c-64 0-115-51-115-116 0-39 16-67 47-91 128-101 307-155 470-155 z" fill="#E6E6E6"/>
		<path d="M1550 72c38 0 72 33 72 72 0 39-34 72-72 72-39 0-72-31-72-72 0-39 31-72 72-72 z" fill="#F92F60"/>
		<path d="M762-215c13 0 24 10 24 24l0 116c0 14-10 25-25 25l-141 0c-3-19-4-39-4-58l1-107 145 0 z M1262 72c39 0 72 31 72 72 0 39-31 72-72 72-38 0-72-33-72-72 0-39 34-72 72-72 z" fill="#5092FF"/>
		<path d="M1729-287l0 229c0 33-27 58-58 58l-530 0c-31 0-58-25-58-58l0-229 646 0 z M2062 863l-97 0c27 68 40 142 40 215 0 49-6 97-18 144l75 0c34 0 63-26 63-62l0-235c0-36-29-62-63-62 z M847 863c-27 68-40 142-40 215 0 49 6 97 18 144l-75 0c-34 0-63-26-63-62l0-235c0-36 29-62 63-62l97 0 z" fill="#9B9B9B"/>
		<path d="M1388 491c327 0 593 262 593 593 0 327-262 593-593 593-327 0-593-262-593-593 0-327 262-593 593-593 z" fill="#212121"/>
		<path d="M1406 685c188 0 344 134 352 336 3 72 9 145 9 217 0 50-24 103-80 103l-228 0c-94 0-163 40-226 118-4 5-9 8-15 8-9 0-14-3-16-9-39-117-157-88-157-209 0-76 6-152 9-228 8-195 156-336 352-336 z" fill="#966661"/>
		<path d="M1716 1336l151 37c0 131-107 237-236 237-14 0-23 7-33 17-55 65-110 98-192 98-82 0-139-35-192-98-9-11-18-18-33-18-132 0-237-105-237-237l137-35 4 4c5 0 5 6 10 6 5 3 3 1 7 5 39 8 75 53 92 90 7 13 9 25 23 25 6 0 11-2 15-7 64-80 131-119 226-119l240 0 5-2c8 0 9-3 13-3 z" fill="#2D242D"/>
		<path d="M1644 1105c-49 16-95 28-144 44 21 31 54 59 94 59 26 0 94-15 94-50 0-21-30-39-44-53 z M1168 1105c47 17 97 29 145 44-21 29-53 59-94 59-27 0-94-13-94-49 0-23 28-41 43-54 z" fill="#000000"/>
		<path d="M1659 1100c10 0 20 10 20 21 0 42-57 79-98 79-45 0-98-39-98-86 0-7 9-14 16-14l160 0 z M1313 1100c7 0 17 6 17 14 0 49-57 86-99 86-40 0-98-35-98-80 0-10 10-20 20-20l160 0 z" fill="#FFFFFF"/>
		<path d="M1628 1100l-123 0c-1 3-2 6-2 9l0 8c0 35 26 64 63 64 35 0 64-30 64-64 0-7-1-10-2-17 z M1307 1100c2 5 3 10 3 17 0 35-30 64-64 64-35 0-64-30-64-64 0-7 1-10 2-17l123 0 z" fill="#7D4533"/>
		<path d="M1599 1100l-64 0c-3 5-5 11-5 17 0 21 15 37 37 37 22 0 36-18 36-37 0-7-1-12-4-17 z M1277 1100c3 5 5 11 5 17 0 21-15 37-37 37-22 0-36-18-36-37 0-7 1-12 4-17l64 0 z" fill="#000000"/>
		<path d="M1545 1131c7 0 11 5 11 12 0 7-4 11-11 11-7 0-12-4-12-11 0-8 4-12 12-12 z M1224 1131c8 0 12 4 12 12 0 7-5 11-12 11-7 0-11-4-11-11 0-7 4-12 11-12 z" fill="#FFFFFF"/>
		<path d="M1433 953c22 0 37 20 37 39 0 18-16 71-28 107-12 32-12 51-35 51-14 0-23-9-26-21-8-29-38-113-38-136 0-19 15-40 37-40l53 0 z" fill="#75443E"/>
		<path d="M1406 823c25 0 48 7 71 20 23 13 55 45 55 57 0 9-4 13-12 13l-6-2c-42-15-65-27-108-27-38 0-74 9-108 27l-6 2c-6 0-12-5-12-12 0-2 1-4 2-7 24-42 75-71 124-71 z" fill="#990839"/>
		<path d="M1152 1245c16 0 53 23 95 23 9 0 19-2 28-2 11 0 19 7 19 18 0 17-18 23-34 23-31 0-127-8-127-43 0-13 6-19 19-19 z M1660 1245c10 0 19 9 19 20 0 30-97 43-115 43l-13 0c-15 0-33-5-33-21 0-12 8-21 20-21 9 0 19 2 28 2 41 0 80-23 94-23 z" fill="#372128"/>
		<path d="M1931 1203c0 338-225 471-524 471-244 0-527-156-527-437 0-10 1-24 2-34 149 114 331 177 525 177 188 0 371-60 524-177 z" fill="#636363"/>
		<path d="M1765 743c19 0 36 15 36 36 0 19-15 36-36 36l-213 0c-19 0-36-15-36-36 0-19 15-36 36-36l213 0 z" fill="#636363"/>
		<path d="M1587 505c5 0 60 22 68 27 146 66 264 192 319 352l-132 0c-32 0-53-14-72-39-85-114-142-153-281-191-32-9-55-31-55-66l0-83 153 0 z" fill="#9B9B9B"/>
		<path d="M1406 431c355 0 647 288 647 647 0 355-288 647-647 647-360 0-647-290-647-647 0-355 288-647 647-647 z M1406 539c-294 0-539 239-539 539 0 296 239 540 539 540 298 0 539-243 539-540 0-294-239-539-539-539 z" fill="#D3D3D3"/>
	</g></svg>
