<svg version="1.1" xmlns="http://www.w3.org/2000/svg" viewBox="0 0 2300 2300"><g transform="scale(1,-1) translate(-256, -1869)">
		<path d="M932 162l172 409c5 13 15 20 29 20l510 10c40 0 45 51 45 82 0 43-8 88-19 132-205-7-409-23-623-41-64-6-94-40-108-107l-83-401 77-104 z" fill="#9B9B9B"/>
		<path d="M887 84c6 0 10 3 13 9l35 75-79 98-222-21c-10-1-19-11-19-22 0-9 4-16 13-20l252-117 7-2 z" fill="#533566"/>
		<path d="M1666 422l0 177-572 0c-22 0-39-16-39-39l0-138 611 0 z M2004 989c25 0 46 20 46 46 0 27-20 46-46 46l-216 0c-25 0-46-20-46-46 0-25 20-46 46-46l216 0 z" fill="#212121"/>
		<path d="M1093-212c25 0 46 20 46 46l0 376c0 25-20 46-46 46-26 0-46-19-46-46l0-376c0-26 19-46 46-46 z" fill="#9B9B9B"/>
		<path d="M1694-36c13 0 24 5 33 14 9 9 13 19 13 32l0 412c8 8 12 18 12 31l0 249c0 9-2 17-6 24l11 34c5 17 10 36 17 58l21 69 34 121c4 15 6 24 6 27 0 13-4 24-13 33-9 9-20 14-33 14-11 0-20-3-27-9-8-7-14-15-17-25l-89-300-328 0c-24 0-46-4-67-13-21-9-40-22-56-38-16-16-28-34-37-55-9-21-14-44-14-68l0-75c-16 0-30 0-43 1l-7 0c-10 0-20-2-27-4-10-3-17-9-22-18-5-9-8-23-8-42-3-8-10-23-21-45-11-22-23-47-36-76l-85-182c-13-28-23-52-31-71-8-20-12-32-12-36 0-12 4-22 13-31 9-9 19-14 32-14 19 0 33 9 42 27l98 209 0-58c0-13 5-23 14-32 9-9 19-14 32-14 30 0 55-10 75-29 19-20 30-45 31-74 1-13 5-23 14-32 8-9 19-14 32-14l449 0 z M1648 56l-363 0c-18 70-72 126-146 144l0 207 509 0 0-351 z M1660 499l-414 0 0 75c0 44 35 82 82 82l332 0 0-157 z" fill="#F92F60"/>
		<path d="M1100-292c68 0 125 55 125 124 0 71-60 125-125 125-69 0-124-56-124-125 0-70 58-124 124-124 z M1744-296c249 0 454 201 454 455 0 249-200 455-454 455-254 0-455-203-455-455 0-250 203-455 455-455 z" fill="#321B41"/>
		<path d="M910-27c-28 0-214 95-252 112-18 9-27 23-27 42 0 26 20 47 47 47 8 0 15-1 20-4l232-107c18-9 27-23 27-43 0-26-20-47-47-47 z M1744-200c190 0 359 152 359 359 0 191-153 360-359 360-194 0-360-156-360-360 0-200 163-359 360-359 z" fill="#9B9B9B"/>
		<path d="M1744-138c163 0 297 131 297 297 0 162-131 298-297 298-167 0-298-136-298-298 0-161 130-297 298-297 z" fill="#D3D3D3"/>
		<path d="M1744 74c48 0 84 39 84 85 0 46-36 85-84 85-47 0-85-38-85-85 0-47 38-85 85-85 z" fill="#212121"/>
		<path d="M1345 1225l135 48-45 132-134-45 44-135 z" fill="#BB806E"/>
		<path d="M1717 663l-88 508c-14 74-88 126-159 126-94 0-165-76-165-165 0-14 1-23 4-37l48-295 360-137 z" fill="#8B62BF"/>
		<path d="M1601 491c10 0 25 0 35 10 16 16 28 85 33 105l72 299 2 15c0 14-5 27-15 39l-214 250c-13 15-28 22-47 22-34 0-61-29-61-62 0-15 5-28 15-40l194-226-65-266c-18-7-46-20-46-42 0-9 9-27 12-38-5-6-7-12-7-18 0-30 67-48 92-48 z" fill="#C68D7B"/>
		<path d="M1529 980l110 99-132 146c-15 16-33 24-55 24-41 0-74-31-74-74 0-19 6-35 19-50l132-145 z" fill="#A17FD5"/>
		<path d="M1275 1264c57 0 161 46 166 114l7 84c3 29 10 60 10 89 0 52-64 93-110 93-32 0-62-9-94-14-57-10-94-60-94-113 0-22 9-40 9-60 0-25-20-45-20-60 0-19 15-24 31-24 2 0 4-1 5-4 17-53 22-105 90-105 z" fill="#C68D7B"/>
		<path d="M1220 1338c19 0 42 16 42 35 0 5-3 8-9 8-6 0-6-14-17-23-6-5-18-5-24-5-2-1-3-3-3-8 0-7 6-7 11-7 z" fill="#990839"/>
		<path d="M1247 1505c5 0 8 2 8 7 0 4-2 7-5 8l-1 2-4 0-14 4c-4 1-9 2-14 2l-17-2c-8-1-12-5-12-10 0-5 3-8 8-8 3 0 7 1 11 2 3 1 7 1 11 1 4 0 8 0 13-1 4-1 8-2 11-4l3 0 2-1 z" fill="#593B39"/>
		<path d="M1244 1451c4 4 20 18 20 25 0 11-21 18-31 18-16 0-33-10-38-26l49-17 z" fill="#000000"/>
		<path d="M1201 1439c8 0 17 1 27 4 16 3 33 3 33 15 0 18-18 29-34 29-18 0-36-14-36-33 0-7 2-15 10-15 z" fill="#FFFFFF"/>
		<path d="M1195 1437l39 8c0 1 1 2 1 5 0 13-10 28-25 28-12 0-19-14-19-25 0-7 1-9 4-16 z" fill="#7D4533"/>
		<path d="M1202 1439l19 4 1 8c0 7-7 15-14 15-7 0-11-7-11-14 0-5 2-10 5-13 z" fill="#000000"/>
		<path d="M1201 1455c3 0 4 2 4 6l-5 4c-3-1-4-3-4-6 0-1 4-4 5-4 z" fill="#FFFFFF"/>
		<path d="M1492 1289c29 0 53 9 73 28 20 19 30 43 30 72 0 21-4 37-12 48-8 11-17 20-26 28-9 7-18 15-25 24-8 8-12 20-12 35 0 3 0 6 1 9l0 9c0 21-2 43-5 65-3 22-10 42-19 60-9 17-22 32-39 43-17 11-38 16-64 16-15 0-29-2-42-6-13-4-26-8-37-13l-32-13c-11-4-21-6-31-6-10 0-20 2-30 5-10 3-20 4-31 4-10 0-19-3-27-8-8-5-15-12-21-20-6-8-11-17-14-26-3-10-5-19-5-28 0-23 8-42 24-56 15-14 34-21 57-21 11 0 20 1 28 4l20 9 18 9c5 3 12 4 19 4 19 0 32-6 39-17 6-11 12-24 18-39l4 0c11 0 22-4 30-12 9-9 14-21 14-34 0-10-3-19-10-27-7-8-15-14-24-17 3-18 7-35 14-50 7-16 15-30 26-41 11-12 24-21 39-28 15-7 32-10 52-10 z" fill="#593B39"/>
	</g></svg>
