<svg version="1.1" xmlns="http://www.w3.org/2000/svg" viewBox="0 0 2300 2300"><g transform="scale(1,-1) translate(-256, -1869)">
		<path d="M2046 345c123 0 222 100 222 223 0 123-99 223-222 223-123 0-223-100-223-223 0-123 100-223 223-223 z M766 345c123 0 223 100 223 223 0 123-100 223-223 223-123 0-223-100-223-223 0-123 100-223 223-223 z" fill="#FECA46"/>
		<path d="M1622-287c226 0 412 173 431 402 20 244 39 504 57 748 1 17 2 34 2 51 0 352-288 639-641 639l-123 0c-269 0-497-165-596-398-40-93-51-181-51-272l1-20 57-748c18-219 194-402 431-402l432 0 z" fill="#FDD641"/>
		<path d="M1406 72c90 0 180 48 223 122 3 5 5 9 5 14 0 10-10 20-20 20-5 0-9-2-14-5-60-32-126-50-194-50-82 0-121 12-194 50-1 1-4 1-9 1-11 0-25-7-25-19 0-5 2-8 5-11 53-73 127-122 223-122 z" fill="#990839"/>
		<path d="M1456 288c48 0 73 36 73 79 0 32-62 204-73 242-7 23-25 38-50 38-25 0-43-15-50-38-12-41-75-217-75-247 0-41 35-74 75-74l100 0 z" fill="#FFB02C"/>
		<path d="M1873 575l-302 0c-14 0-30 7-30 25l1 6c14 74 77 156 187 156 96 0 158-61 180-144l1-8c0-19-19-35-37-35 z M1241 575c14 0 30 7 30 25l0 6c-15 74-78 156-188 156-96 0-158-61-180-144l-1-8c0-19 19-35 37-35l302 0 z" fill="#FFFFFF"/>
		<path d="M1816 575l-230 0c-1 11-8 18-8 29 0 66 59 122 123 122 66 0 122-52 122-122l0-15c-1-5-3-10-7-14 z M1226 575c1 11 7 18 7 29 0 66-58 122-122 122-69 0-122-55-122-122 0-5 0-10 1-15 0-5 2-10 6-14l230 0 z" fill="#7D4533"/>
		<path d="M1765 575l-122 0c-8 8-14 17-14 29 0 41 34 72 72 72 41 0 72-34 72-72l0-16c-1-5-3-10-8-13 z M1169 575c8 8 14 17 14 29 0 41-34 72-72 72-41 0-72-34-72-72l1-16c0-5 2-10 7-13l122 0 z" fill="#000000"/>
		<path d="M1665 633c12 0 21 9 21 21 0 12-9 22-21 22-12 0-22-10-22-22 0-12 10-21 22-21 z M1068 633c12 0 22 9 22 21 0 12-10 22-22 22-12 0-21-10-21-22 0-12 9-21 21-21 z" fill="#FFFFFF"/>
		<path d="M724 721c10 0 15 5 15 16 0 3-1 7-3 10 5 1 8 5 8 12 0 6-2 11-5 14 9 3 13 10 13 21 0 9-3 16-10 20 6 4 9 10 9 18 0 8-3 15-9 20 8 2 12 7 12 15 0 5-1 8-4 10 8 2 14 7 18 14 3 7 5 14 5 21 0 12-4 23-11 32l6 0c13 0 23 5 29 15 5 9 8 20 8 32 0 6-1 13-3 20 11 1 21 4 29 10 7 6 11 15 11 27 0 5-1 11-2 16-2 5-5 9-8 13 15 2 28 8 37 17 9 9 13 21 13 36 0 13-3 24-9 33 12 3 22 9 30 17 7 8 11 19 11 32 0 7-1 13-2 20-2 6-4 12-7 18 13-9 26-13 40-13 13 0 25 4 36 13 10 8 16 19 17 32 9-8 19-12 30-12 9 0 17 3 24 8 7 5 11 12 13 21 11-13 24-19 40-19 11 0 21 3 32 8 10 5 18 13 23 22 11-13 25-19 44-19 9 0 19 2 28 6 9 4 16 11 20 20 7-5 15-10 23-13 7-4 16-6 25-6 10 0 20 3 29 8 9 5 16 12 21 21 11-19 29-29 52-29 11 0 22 3 33 8 10 5 18 12 24 21 7-8 14-14 23-19 9-5 18-8 29-8 9 0 18 2 27 6 8 3 15 9 20 16 3-11 10-18 20-22 10-5 20-7 29-7 7 0 15 1 23 4 7 2 13 6 17 12 5-9 13-17 22-22 9-6 19-9 30-9 8 0 16 2 23 5 7 3 14 7 19 13 6-25 22-38 49-38 7 0 15 1 24 4 8 3 14 7 19 14 1-13 4-25 11-36 6-11 17-16 32-16 10 0 20 3 29 8-1-3-1-7-1-10-1-3-1-7-1-10 0-13 4-24 11-31 7-7 18-11 31-11 9 0 17 1 24 4-3-6-6-12-8-18-2-7-3-13-3-20 0-13 4-24 13-32 9-9 19-14 31-17-4-5-7-11-10-17-3-7-5-14-5-21 0-13 5-22 14-29 9-7 20-10 31-10-3-6-6-12-8-19-3-7-4-15-4-22 0-9 2-17 6-25 4-9 10-15 19-18-2-5-3-11-3-17 0-7 2-13 6-20 3-7 9-11 16-12-4-6-6-13-6-21 0-5 1-11 4-16 3-5 7-9 13-10-7-7-11-16-11-27 0-5 1-11 3-16 2-5 6-9 11-11-3-3-5-7-5-12 0-6 2-11 7-16 4-5 9-7 15-7 6 0 11 2 14 7 3 4 5 9 5 14 0 7-2 12-6 16 10 3 15 10 15 20 0 7-2 12-6 16l9 10c3 3 4 7 4 12 0 9-4 18-11 25 12 7 18 17 18 30 0 12-5 21-15 28 7 8 10 17 10 26 0 9-3 16-10 21 15 11 23 25 23 43 0 13-4 26-12 37 5 2 8 5 10 10 2 4 3 8 3 13 0 7-3 14-8 21 9 7 14 17 14 29 0 4-1 8-2 13-2 4-5 7-8 10 9 6 14 15 14 28 0 9-3 17-9 23 3 3 6 6 7 10 1 4 2 8 2 12 0 6-2 12-5 17 7 5 13 12 17 21 3 8 5 16 5 25 0 7-1 15-3 22-3 7-7 12-12 17 15 10 23 25 23 44 0 7-1 15-4 23-3 8-7 14-14 17 2 5 3 10 3 15 0 9-3 17-8 25-5 7-13 11-22 11-3 0-7-1-10-2l-11-4c10 9 15 19 15 31 0 15-5 25-16 32-7 4-15 6-22 6l-14-2c0 1 0 3 1 4l0 4c0 8-3 14-9 18-5 3-10 4-15 4l-5 0c3 3 4 8 4 14 0 9-4 15-12 20-6 3-12 4-18 4l-5 0c1 3 1 6 1 11 0 6-1 12-4 19-3 6-7 11-12 16-5 5-11 8-17 10l-7 1c-5 0-9-1-13-3-3 9-9 15-16 20-4 2-9 3-14 3-4 0-8-1-12-2-3 10-11 15-22 15-9 0-16-2-21-7 0 7-2 12-6 16-5 4-10 6-17 6-4 0-8-1-12-3-1 7-3 13-7 18-4 5-10 7-17 7-6 0-11-1-16-4-2 5-5 10-9 15-4 4-9 6-16 6-7 0-14-3-21-9-1 5-4 10-8 13-5 3-10 5-15 5-7 0-12-2-17-6l-10 9c-4 3-9 4-14 4-10 0-18-4-23-13-5 17-16 25-32 25-7 0-13-1-18-4-6-3-11-6-16-10-3 5-8 10-13 14-5 4-12 6-19 6-7 0-13-2-19-5-6-4-10-9-13-15-6 7-14 11-23 11-5 0-10-1-15-3-5-2-9-5-12-8-3 5-8 10-13 13-6 3-12 5-19 5-5 0-11-1-17-4-6-3-10-8-11-14-5 7-13 13-23 16-10 3-19 4-28 4-23 0-41-9-54-26-3 9-7 16-14 21-7 5-16 7-25 7-7 0-13-1-19-4-7-3-12-7-15-12-4 3-8 5-12 7-5 2-9 3-14 3-6 0-11-2-15-5-5-4-8-9-11-14-7 9-15 13-26 13-7 0-14-2-21-6-7-4-12-9-15-16-5 16-16 24-33 24-11 0-20-3-28-9-9-7-15-15-19-24-6 11-15 17-27 17-7 0-14-2-19-7-6-5-11-10-14-17-9 8-19 12-28 12-8 0-16-3-24-9-8-5-11-12-11-20l0-3c-7 5-14 8-23 8-11 0-20-3-28-10-7-6-10-15-10-24l0-4c-9 0-16-2-23-6-7-5-11-12-11-21 0-5 1-10 4-13-6 4-13 6-21 6-7 0-16-2-25-7-10-5-15-12-15-21 0-3 1-6 3-9-9 0-16-4-20-11-5-7-7-15-7-22 0-9 2-15 7-20-9 6-19 9-30 9-11 0-20-3-29-10-9-7-14-16-14-27 0-6 2-12 5-17-8-2-15-6-21-12-7-6-10-14-10-23 0-7 2-12 5-15-10 0-18-4-23-11-5-7-8-16-8-25 0-11 3-19 8-25-5-3-10-8-13-13-4-6-6-12-6-19 0-7 2-13 5-19 3-6 8-10 14-13l-9-13c-3-5-5-11-5-17 0-7 2-12 7-17 4-5 9-8 15-10-12-3-18-11-18-22 0-9 3-17 10-24-7-5-10-11-10-18 0-5 2-10 5-14 3-4 8-7 13-8-5-5-8-12-8-21 0-6 2-11 5-15 2-3 6-5 12-5l3 0c-7-3-10-9-10-16 0-5 2-10 6-15 4-5 9-8 14-9l-9-9c-3-4-4-8-4-13 0-11 5-18 16-23-7-3-10-9-10-17 0-8 3-15 10-20-6-4-9-10-9-18 0-8 3-14 9-18-3-3-5-7-7-10-2-4-3-8-3-13 0-5 2-10 5-15 3-5 7-9 12-12-12-9-18-20-18-34 0-9 3-18 9-25 5-7 12-13 21-16-11-6-17-16-17-30 0-3 1-6 2-10 1-4 2-8 4-12 1-5 3-9 6-12 2-3 5-5 8-6-4-8-6-17-6-26 0-7 2-14 5-21 3-8 9-12 17-12 z" fill="#EA9129"/>
		<path d="M1639 1500c0 5 2 10 5 16 4 7 10 10 17 10l-4 11c-1 3-2 7-2 11 0 11 5 20 14 25 7 4 14 5 21 5l7 0c1 17 9 25 23 25l5 0c-4 6-10 9-18 9-7 0-14-2-21-7-5-4-8-8-8-14l1-5c-2 1-6 1-11 1-10 0-19-3-27-10-11-8-13-16-13-28 4-4 6-9 6-16 0-7-2-13-6-17 3-1 6-4 9-8l2-8 z M1344 1429c-1 5-2 9-2 14 0 9 3 15 8 20-4 7-5 17-5 25 0 4 0 11 3 15-10 10-14 23-14 35 0 12 5 24 16 29-2 5-3 10-3 16 0 27 20 37 44 37 11 0 18 4 18 15l-2 13c13 0 24 7 24 22 0 12-10 20-22 20l-12-2c-7 7-14 10-22 10-18 0-24-16-25-30-22 0-39-6-39-29 0-7 1-12 4-19-17-3-30-13-30-32 0-11 4-21 11-30-11-5-14-15-14-26 0-16 9-33 27-36l0-7c0-15 27-36 35-60 z M1313 1668c3 5 8 9 14 10l7 1 10-2c0 21 11 32 32 32 5 0 11-1 16-4 5-3 10-4 15-4 5 0 9 2 12 6 3 4 4 9 4 14 0 13-4 22-12 28-8 6-18 9-29 9-11 0-21-2-30-6-9-4-17-10-23-19l-1 2-6-20-4 0c-11 0-19-6-22-18 5-3 9-7 12-12 2-5 4-11 5-17 z M964 1600c0 8 8 13 15 16-5 7-9 16-9 25 0 7 2 12 6 16 0 1 1 2 1 5 0 7-5 11-12 11l-5-1c-3 8-7 17-16 17-11 0-17-6-17-17 0-8 3-16 6-23-11-4-20-12-20-25 0-7 2-13 6-18 7 3 11 4 18 4 9 0 21-3 27-10 z M1068 1619c1 5 5 9 12 12 7 2 12 3 17 3 7 0 12-1 17-4l-1 6 2 6c1 3 4 6 9 9-4 1-7 4-9 8-2 3-3 7-3 11 0 2 0 4 1 6 0 1 0 3 1 5-3 1-6 4-8 7-3 3-4 7-4 10 0 3 1 5 2 8-18 0-27-9-28-27l-4 0c-4 0-8-1-11-4-4-4-6-9-6-15 0-5 1-9 3-13 5-4 8-8 9-12 1-5 1-10 1-16 z M1054 1580c3 1 6 4 9 7 2 3 3 7 3 11 0 7-3 13-9 19 1 2 2 5 2 10 0 13-6 20-18 22 1 2 1 5 1 9 0 7-2 14-7 20-5 5-11 8-19 8-9 0-14-3-17-9-2-4-3-8-3-12l1-8c-13-1-19-8-19-20 0-9 3-16 9-22 6 0 11-2 16-6 4-4 7-9 8-15 6 5 12 7 19 7 6 0 11-2 15-6 4-5 7-10 9-15 z M835 1500c15 0 21 15 21 29 0 8-3 23-14 23-8 0-15-6-15-14 0-8 5-16 5-25 0-3-1-7-4-12l7-1 z M1522 1618c9 0 18 6 18 17 0 7-8 17-8 29 0 8 3 14 8 17-5 7-11 12-20 12-8 0-16-6-17-15 0 13-2 29-19 29-15 0-20-13-20-24 0-7 1-13 4-20 54 0 25-45 54-45 z M726 1430c9 0 20 4 20 15 0 11-11 16-20 17 4 7 9 14 9 21 0 7-4 11-11 11-18 0-31-19-31-35 0-19 16-29 33-29 z M906 1437c11 0 17 6 17 17 0 5-1 10-3 15-14 4-27 13-27 30 0 23 18 41 40 41 7 0 19 0 20-10 3 5 5 11 5 16 0 10-5 17-15 22 5 3 7 8 7 13 0 12-13 18-24 18-19 0-25-16-25-31-14-4-30-12-30-30 0-7 2-12 6-17-13-3-17-13-17-25 0-24 16-59 46-59 z M793 1388c-1 3-1 6-1 11 0 4 0 9 1 14 1 5 2 9 4 12-9 9-13 18-13 29 0 9 2 17 6 22 4 5 8 9 13 13 5 3 9 7 13 11 4 4 6 10 6 17 0 9-2 16-7 23-5 6-12 9-21 9-9 0-15-2-18-7-2-4-4-10-4-16l0-4c-12-5-18-14-18-26 0-7 3-14 8-21-7-4-11-11-11-20 0-3 1-7 3-12 1-5 4-8 7-10 7-5 11-8 14-11 3-3 5-7 6-10l4-10c1-4 4-9 8-14 z M1779 1592c5 13 13 20 26 20 12 0 22-4 29-13l3 12c1 4 1 8 1 12 0 8-2 16-5 24-4 8-11 12-20 12l-7-1 1 7c0 5-1 9-4 13-4 5-10 8-18 8-7 0-13-3-17-10-5-7-7-14-7-21 0-4 1-8 3-13 1-5 4-9 9-11-9-5-13-11-13-18 0-5 2-10 6-13 4-4 8-7 13-8 z M1280 1503c-3 5-5 11-7 17-3 5-4 11-4 17 0 7 2 13 6 18 3 5 5 11 5 18 0 13-5 23-14 30 7 1 14 5 19 10 5 5 7 11 7 18 0 7-3 14-8 19 1-1 3-1 6-1 5 0 9 2 11 7 2 5 3 9 3 13 0 17-9 26-27 26-13 0-24-4-32-12-9-8-13-19-13-32 0-11 4-22 12-32-4-5-8-10-11-15-4-5-6-11-6-18 0-6 2-11 5-16l10-15 9-15c2-4 3-9 3-14l0-6c11 0 20-6 26-17 z M999 1534c19 0 44 11 44 33 0 10-2 23-13 23-11 0-20-7-27-14-1 11-5 26-18 26-15 0-22-18-22-30 0-22 13-38 36-38 z M1760 1403c1 10 3 18 6 25 3 6 9 11 20 14-3 3-6 8-7 13-1 5-2 9-2 14 0 9 3 17 9 23 5 6 13 10 22 12l0 4c0 11 4 22 11 30 7 9 18 13 32 13 6 0 11 0 14-1 3 5 4 10 4 13 0 7-2 12-7 16-5 3-10 5-17 5l-12-2c-2 5-5 10-9 13-5 3-10 5-15 5-9 0-15-3-17-8-3-6-5-12-6-18-1-7-3-13-5-18-4-8-11-9-23-9 1-4 2-8 2-12l0-4c-1-5-5-9-12-10 3-5 4-10 4-13 0-5-3-10-8-15 3-3 6-6 7-11l2-13c0-3-1-7-2-11-1-4-4-7-7-8 9-5 14-12 15-20 1-9 1-18 1-27 z M1483 1427c3 5 9 9 17 12l11 2 10-2-1 4c0 4 2 8 5 11 3 3 6 5 10 6-1 2-1 5-1 8 0 9 3 16 10 20-3 5-5 11-5 16 0 9 3 15 10 19-7 10-10 20-10 31 0 9 3 17 8 25 5 7 13 12 22 13 0 6-2 11-7 15-5 3-10 5-15 5-7 0-14-3-19-10-2 1-5 1-9 1-8 0-15-3-20-8-5-5-8-12-8-21 0-7 2-13 5-20-7-2-12-6-15-12-4-6-6-12-6-19 0-11 3-20 10-29-6-2-10-6-13-13-3-7-5-13-5-19 0-14 5-26 16-35 z M1460 1520c3 14 6 36 24 40-5 8-7 16-7 23 0 15 9 26 22 29l1 11c0 21-10 25-29 25-3 11-11 17-24 17-9 0-15-10-15-18 0-3 1-6 3-8-7-3-14-8-14-15 0-16 22-20 22-36 0-5-2-9-5-12 7-5 11-10 11-17 0-3-1-6-4-10 12-9 15-13 15-29 z M1623 1582c11 7 17 16 17 28 0 13-6 21-19 24l1 9c0 18-10 24-31 24l1 8-1 9c-2 5-7 8-14 8-7 0-15-2-23-7-9-5-13-12-13-20 0-8 4-14 11-17-2-4-3-9-3-14 0-5 1-8 4-11 3-3 6-5 9-7l8-8c3-3 4-6 5-11 5 2 10 3 16 3 6 0 12-1 19-4 7-3 11-7 13-14 z M1642 1591c5 2 9 4 14 5l6 1 9-2c1 8 5 14 10 17 5 3 10 5 15 7 5 1 10 3 15 6 4 3 6 8 6 16 0 6-2 12-6 18-3 4-8 7-14 7l-3 0 0 3c0 7-1 14-4 21-3 7-9 10-18 10-4 0-8-1-12-2-5-2-9-4-12-7l0 3c0 5-1 10-4 15-3 5-7 7-12 7-13 0-19-7-19-20 0-9 2-18 6-27 3-9 7-17 12-24 4-7 8-14 12-19 3-6 5-11 5-15 0-3-1-7-2-10l-4-10 z M1135 1479c3 7 7 14 13 19 4 4 10 7 17 7l3 0c-7 7-11 16-11 27 0 5 2 11 5 17 3 6 7 10 13 11 1 2 1 5 1 10 0 15-7 22-21 22-2 10-7 17-14 22-4 2-9 3-14 3-4 0-8-1-12-2-7 5-13 8-20 8-5 0-10-2-15-6-5-4-8-9-8-15 0-5 2-9 6-12l12-10c4-4 7-8 10-13 2-2 2-5 2-8 0-4 0-7-2-12 7-4 11-9 13-14 1-6 2-13 2-20 8-5 13-9 15-14 2-5 4-11 5-20 z M1189 1593c14 0 24 4 29 13 5 8 8 18 8 31 0 13-3 26-10 39-9 16-20 19-38 19 1 4 2 8 2 11 0 5-1 9-4 12-5 6-12 9-21 9-7 0-16-2-26-6-11-4-16-11-16-20 0-6 4-11 11-16l0-6c0-6 1-12 4-17 3-7 9-11 18-14l-1-11c0-10 3-19 9-27 8-11 20-17 35-17 z M1048 1675c0 5 2 9 6 12 3 2 6 3 9 3l4 0c-3 5-5 10-6 15l-1 5 2 9c-5 11-14 16-27 16-7 0-14-2-19-7-6-5-11-10-14-17-2 1-4 3-6 5l-8 4c-2-4-3-9-3-14 0-5 1-9 4-12 2-3 6-5 11-5 3 0 7 1 11 2 4 1 8 2 11 2 7 0 12-2 16-5 4-3 7-8 10-13 z M1546 1688c3 7 10 12 16 13 0 9-4 14-13 14l2 12c0 5-2 10-6 14l-1-2c-6 7-14 11-23 11-14 0-31-9-31-24 0-35 35-12 56-38 z M1603 1686l-1 9c0 6 2 12 5 17 5 7 12 11 23 11 5 0 11-1 16-3 5-3 10-4 15-4 9 0 14 4 14 13l-1-1c-3 7-7 13-12 18-5 5-12 7-20 7-6 0-12-1-18-4-6-3-11-6-16-10l0-1-12 2c-7 0-13-2-18-7-5-5-8-12-8-19 0-5 1-9 3-13l6 0c12 0 20-5 24-15 z M1744 1607c5 7 11 13 11 21 0 7-4 11-8 15 4 5 8 11 8 18 0 8-4 15-11 21 12 3 19 15 19 27l-1 8-1-1c-3 11-12 18-23 18-12 0-24-7-24-21 0-3 1-5 2-8-7-5-14-13-14-22 0-19 24-24 24-34 0-7-3-14-6-21 13-3 24-6 24-21 z M1893 1567c7 0 14 2 23 7 8 5 12 11 12 19 0 3-1 7-3 10-3 4-6 5-11 5 4 4 6 8 6 12 0 5-3 10-9 13 10 2 15 8 15 19l0 5-1-1c-3 10-11 15-22 15-9 0-16-2-21-7 0 7-2 12-6 16-5 4-10 6-17 6-4 0-8-1-12-3-5-7-7-17-7-28 0-11 2-21 7-32 5-11 12-19 22-24l0-6c0-7 1-12 4-17 3-6 10-9 20-9 z M1954 1534c0 13 6 27 21 27-2 4-3 8-3 13 0 14 12 27 27 27 9 0 16-4 21-13 0 26-15 49-43 49-3 0-6-1-10-2l0 1c-22-11-34-33-34-57 0-17 6-34 21-45 z M2020 1445c15 0 24 11 24 25 0 8-2 16-7 24 14 1 23 14 23 26 0 4-1 8-2 12-2 4-3 11-8 11 3 3 4 8 4 14 0 15-16 25-30 25-3 0-6-1-9-3-4 7-9 11-16 11-11 0-17-11-17-22 0-5 1-10 3-15-11 0-17-8-17-19 0-16 17-19 28-36 6-10 4-27 7-42 1-7 6-11 17-11 z M2083 1400c7 18 23 25 41 25 0 7-9 15-15 18l14 6-8-3c10 9 15 19 15 31 0 22-16 38-39 38l-13-2 1 1c-11-7-18-14-18-27 0-5 1-10 3-15-7-3-13-8-13-16 0-3 1-8 4-13 25 0 28-22 28-43 z M2143 1095c7 7 10 14 10 23 0 11-4 19-11 24 9 6 14 15 14 28 0 9-3 17-9 23 3 3 6 6 7 10 1 4 2 8 2 12 0 6-2 12-5 17l3 3c-7 11-16 19-29 24 1-5 2-10 2-14 0-7-2-14-6-21-5-7-11-11-20-11 3-5 5-9 5-14 0-7-2-12-7-17l5 0c11 0 20-3 26-9 6-7 10-18 12-31l-1 0c-9-5-13-13-13-22 0-11 5-20 15-25 z M2127 1033c4 0 8 1 12 3l-6 10c5 2 8 5 10 10 2 4 3 8 3 13 0 7-3 14-8 21l0 1c-2 1-5 1-8 1l1-7c0-7-2-13-6-20-5-9-13-13-24-13 1-5 5-10 10-13 5-4 11-6 16-6 z M2091 773c7 0 11 1 18 4l-1 1c10 3 15 10 15 20 0 7-2 12-6 16 9 5 13 13 13 22 0 3-1 8-4 15-9-18-25-34-47-34l-12 2c-2-5-3-10-3-15 0-10 3-23 14-28l-1 0c5-2 9-3 14-3 z M2076 829c18 0 35 11 38 30l6 0-1 2c12 7 18 17 18 30 0 9-3 17-9 24-4-6-11-19-21-19l-6 2c-3-16-14-30-32-30l-8 1c-1-2-2-4-2-6 0-16 3-30 16-33l-1-1 2 0 z M2069 877c17 0 26 9 26 28 0 3 0 6-1 8 3-1 6-1 9-1 7 0 14 2 20 7l-1 0c7 8 10 17 10 26 0 9-3 16-10 21l1 1c-1 2-3 4-6 7-4 3-8 3-12 3 0-7-2-13-6-20-5-7-11-10-18-10 0-7-3-14-8-19-6-6-13-9-20-9-5 0-8 0-10 1-1-2-1-5-1-10 0-8 2-15 7-22 4-7 11-11 20-11 z M2046 926c9 0 15 3 20 9 5 5 7 13 7 23l3 0c5 0 9 2 13 8 6 7 7 13 7 19 6 1 11 4 15 9 3 5 5 10 5 15 0 7-2 13-6 18-4 5-10 7-17 7-6 0-11-2-14-6-4-4-6-9-6-15l-9 1c-6 0-10-1-15-3-7-4-11-11-11-20 0-4 0-7 1-9-9-1-16-6-19-14 0-9 2-17 6-25 4-8 10-14 19-17l1 0 z M2031 1008c8 5 12 11 12 20 0 3 0 6-1 7l10-5c3-2 6-3 9-3 8 0 15 3 21 10 5 6 8 13 8 20 0 3-1 6-2 10 7 1 14 4 21 8 6 4 9 10 9 19 0 10-4 20-12 29 5 3 9 8 13 13 4 5 6 10 6 16 0 6-3 11-8 15-5 4-11 6-16 6-6 0-11-2-14-6-5-5-6-10-6-17-14-4-21-14-21-29 0-5 1-9 3-13-3 0-8-1-14-4-7-3-11-7-12-10l-9 1c-11 0-20-4-27-10-9-9-14-21-14-36 0-13 5-22 14-29 9-7 20-10 31-10l-1-2 z M1990 1091c5 7 12 12 19 14 7 1 14 3 21 5 6 2 11 6 16 11 5 5 7 14 7 28 0 6 0 11-1 14l6-1c9 0 16 4 22 10 7 7 11 16 11 26 0 7-2 15-6 22 17 2 26 11 26 28 0 4 0 8-1 12l-3 11c7 1 13 4 18 9 5 5 7 11 7 18 0 10-3 19-10 28l4 0c5 0 10 2 14 5 5 3 8 9 8 16 0 3-1 6-2 10l3 0c6 0 11 2 15 6 5 4 8 9 8 16 0 7-2 14-7 21l-2 1 1 1c-7 11-18 16-32 16-11 0-21-4-28-12-8-9-12-19-12-30 0-6 0-11 1-15 0-4 0-7-1-10-1-3-2-6-5-9-3-3-8-6-15-10 4-3 7-7 10-12 2-5 3-10 3-15 0-9-3-15-8-18 3-7 4-15 4-24 0-9-2-16-6-21-4-6-11-10-20-11l0-5c0-10-2-18-6-26-6-9-16-14-29-14l-7 1c-4-15-14-22-29-22-6 0-12 1-18 3-5-11-8-21-8-32 0-11 3-21 9-28 6-7 14-13 23-17 z M1945 1170c9 0 17 1 23 4l3 4 10-1c13 0 21 7 24 22l10-1c5 0 11 1 16 3 8 3 12 10 12 21l-2 15c7 1 13 3 20 7 6 4 9 10 9 17 0 7-4 15-11 22 4 3 8 7 11 11 3 4 4 9 4 14 0 5-2 10-5 14l-12 9c7 7 10 14 10 22 0 5-1 9-4 12l-9 8c5 3 10 9 13 16 3 7 4 13 4 19 0 8-2 15-6 21-5 5-11 8-20 8-5 0-11-2-16-5-6-3-9-8-9-15l2-8-6 0c-5 0-10-1-14-3-6-3-9-10-9-19 0-4 1-8 2-11l4-11c-5-1-8-3-10-8-2-5-3-9-3-13 0-11 4-20 13-25-5-1-8-4-10-7-3-4-4-8-4-13 0-7 2-13 7-19l-5 0c-14 0-21-8-21-23-9 7-18 10-28 10-10 0-18-4-23-12-6-8-11-16-14-25l4 2c-1-3-1-7-1-10-1-3-1-7-1-10 0-13 4-24 11-31 7-7 18-11 31-11 z M1884 1225c3 0 5 1 8 2 1 13 5 24 13 35 8 10 19 15 32 15 10 0 18 1 24 2 6 1 9 9 9 23 0 9-3 16-8 23 5 1 10 5 13 10 3 5 5 10 5 15 0 7-2 12-6 17-5 4-10 7-16 9 5 1 10 4 14 9 3 4 5 9 5 14 0 5-1 9-4 12-3 3-7 6-11 7 8 3 12 9 12 17 0 3-1 7-2 10l-4 10 5 0c5 0 9 1 13 5 4 5 6 10 6 17 0 11-4 21-13 28-9 7-18 10-29 10-13 0-22-4-29-11-7-7-10-17-10-29 0-4 1-9 2-14-7-1-13-4-18-8-5-5-7-11-7-18 0-5 1-10 3-14 1-5 3-9 5-14-6-1-10-4-13-8-3-5-5-10-5-15 0-11 4-19 11-25-15-3-22-12-22-26l2-12c-13-1-24-8-31-19-8-11-13-23-14-35l5 4 4 5c1-13 4-25 10-35 6-11 17-16 32-16l9 0 z M1790 1258l15 2c4 5 7 10 8 15 1 5 3 10 5 15 1 5 3 9 6 14 3 5 7 9 14 13 5 3 8 5 11 8 3 3 4 7 4 13 0 6-1 12-3 17 7 0 12 3 16 9 3 5 5 11 5 16 0 5-1 10-4 14-3 4-6 8-10 11 5 1 9 4 12 7 3 3 5 7 5 12 0 4-1 8-3 12l-6 11c12 1 18 8 18 20 0 5-1 10-3 15l4 0c5 0 11 2 15 4 5 3 7 8 7 17l0 7c0 2 0 4-1 6l5 0c6 0 11 1 16 3 7 3 10 8 10 17 0 9-4 15-11 18-7 3-15 5-22 5-7 0-14-1-21-4-7-3-11-9-13-17-7 1-12 2-17 2-21 0-31-11-31-32 0-5 0-8 1-11-9-1-16-4-23-9-7-5-11-13-11-22 0-9 3-18 10-27-6-3-11-6-16-10-5-4-8-10-8-17 0-6 2-12 5-19-10-5-15-12-15-23 0-7 1-12 4-17-19-9-28-24-28-45 0-15 5-27 14-36 9-9 21-14 36-14 z M1699 1277c6 0 12 1 18 3 10 12 8 33 16 54 4 13 21 22 21 40 0 11-4 21-15 26 4 5 6 11 6 19 0 13-5 22-16 29 6 7 9 14 9 20 0 9-4 16-11 23 7 5 10 11 10 18 0 5-2 10-5 15 13 1 20 8 20 20l-2 12c3-1 5-2 8-2 11 0 18 7 18 18 0 18-23 26-38 26-19 0-31-9-36-26-20 0-35-9-35-30 0-9 1-16 4-21-12-7-22-16-22-29 0-11 4-20 12-28-8-8-12-17-12-26 0-7 2-15 7-23-5-6-7-12-7-19 0-5 1-10 4-17-5-5-7-11-7-20 0-3 1-6 2-10-3-8-5-16-5-23 0-7 1-12 3-17l1 0c11-19 29-32 52-32 z M1606 1293c9 0 19 2 28 6-4 7-6 14-6 22 0 11 4 21 11 30-5 8-8 18-8 31 0 9 2 20 5 32-3-9-8-20-14-31-6-11-14-19-24-22l0-4c0-9-3-18-9-26-7-9-16-16-26-19 5-7 12-12 20-15 7-3 15-4 23-4 z M1511 1300c11 0 22 3 32 8 9 5 15 14 18 25 7 1 13 5 18 11 6 7 7 14 7 22 7 1 13 5 16 10 3 5 5 12 5 19 0 3 0 6-1 8 14 1 21 9 21 23 0 12-5 22-14 29 5 3 10 6 15 10 4 4 6 9 6 16 0 7-2 13-6 18-5 5-10 9-15 12 6 7 9 14 9 21 0 9-4 16-11 20 5 3 7 8 7 14 0 7-3 13-10 16-7 3-14 5-20 5-10 0-19-3-26-8-7-6-11-14-11-25 0-11 4-21 12-30-9-5-14-11-14-20 0-7 3-14 8-21-5-1-8-3-10-6-2-4-3-8-3-12 0-5 1-8 3-10-5 0-10-2-14-5-4-3-6-8-6-13 0-3 1-5 2-8l-12 2c-6 0-12-2-18-5-9-5-14-14-14-26l1-7c-9 0-16-4-20-13-4-9-6-17-6-24 0-17 4-30 13-40 8-11 21-16 38-16 z M1402 1298c11 0 22 3 33 8 11 5 25 9 25 32 0 15-4 31-13 43 4 5 5 11 5 18 0 6-1 12-3 17 9 4 15 16 15 25 0 9-4 18-11 25 5 4 7 11 7 18 0 15-7 24-21 26 3 5 4 10 4 13 0 9-7 15-14 19 3 5 5 9 5 13 0 8-6 15-13 18 4 3 6 7 6 14 0 18-18 23-33 23-23 0-34-14-34-37l2-16c-7-6-11-14-11-24 0-11 5-21 15-29-4-5-6-12-6-19 0-11 4-19 13-26-9-4-14-15-14-24 0-5 1-10 3-15-9-7-14-17-14-28 0-7 2-15 5-23-5-9-6-19-6-30l1-15 2 3c11-19 29-29 52-29 z M1299 1298c25 0 37 12 37 37 0 8-2 17-5 27 5 1 8 4 10 8 2 4 3 8 3 13 0 5-1 11-4 18-3 7-8 11-15 12 3 5 5 9 5 14 0 7-2 13-7 18-6 6-11 7-19 7l1 9c0 6-1 10-3 14-4 7-12 8-27 8l0 4c0 8-2 14-6 18-6 6-14 8-24 8l2 12c0 9-3 15-9 18-6 3-13 5-20 5 3 5 4 9 4 12 0 5-2 8-5 11-4 3-8 4-12 4-5 0-10-2-13-5-3-3-5-8-5-13 0-1 0-2 1-3l0-3c-5 0-10-2-13-6-4-4-6-9-6-14 0-11 5-20 15-25-4-6-6-13-6-20 0-9 3-16 9-20 6-5 13-8 21-9-4-5-6-11-6-16 0-8 3-15 8-20 5-5 12-8 20-8-5-6-7-12-7-17 0-6 2-12 6-18 4-6 9-9 16-9-3-3-4-7-5-11-1-4-2-8-2-12 0-13 4-23 12-32l2 3c7-5 14-10 22-13 7-4 16-6 25-6 z M1204 1291c17 0 30 5 40 15-11 9-17 23-17 38 0 5 1 10 3 15-15 7-22 25-22 39l1 9c-15 3-21 14-21 29 0 7 1 11 3 14-16 1-24 10-24 26 0 5 1 9 2 12l-4 1c-15 0-20-21-20-32 0-36 27-31 27-63 0-8-2-18-9-23 5-7 10-14 10-25 0-6-2-11-7-15 3-7 5-14 5-21l-1-9c9-7 21-10 34-10 z M1105 1280c11 0 21 3 32 8 10 5 18 13 23 22 0 9-3 16-9 21 5 5 8 11 8 18 0 4-1 8-3 12-2 4-5 8-8 11 7 8 10 16 10 25 0 7-2 13-6 20-5 6-10 10-17 11 2 6 3 12 3 18 0 15-7 25-21 28 3 5 4 10 4 14 0 5-2 10-5 14-3 3-8 6-13 7 3 5 4 10 4 15 0 5-2 10-5 14-3 4-8 7-13 8l-1 16c-1 5-6 7-13 7-7 0-12-2-17-7-5-5-8-10-8-17 0-5 1-8 2-10-7-3-13-8-16-14-4-7-6-14-6-21 0-5 1-11 3-17 2-6 5-11 10-14l-3-8c-1-3-1-6-1-9 0-7 2-14 6-20 4-6 10-10 17-11-7-9-11-20-11-31 0-5 1-10 3-15 1-5 4-10 8-14-6-8-9-18-9-29 0-13 4-24 12-34l0 1c11-13 24-19 40-19 z M1028 1270c15 0 27 7 34 20-7 5-12 12-15 22-3 9-4 18-4 26 0 3 0 7 1 11 1 5 5 6 5 11-3 4-5 8-7 12-3 4-4 8-4 13 0 5 1 9 2 14 1 4 2 8 2 13 0 7-2 13-6 17-4 4-9 8-15 11 5 8 7 16 7 24 0 7-2 13-6 18-5 5-11 7-18 7-3 0-6 0-8-1l1 10c0 5-1 11-3 17-4 8-12 12-23 12-7 0-13-2-18-6-6 8-13 12-21 12-8 0-15-4-21-11-6-7-9-15-9-22 0-7 2-13 7-17 5-4 10-7 17-8 0-6 2-11 5-16 3-5 7-8 14-8-4-4-6-9-6-16 0-3 1-7 2-11 1-4 4-7 7-9-7-7-10-14-10-23 0-7 2-14 6-21 4-7 9-13 15-17-1-3-1-5-1-7-1-2-1-4-1-7 0-9 3-17 9-22 5-5 12-9 20-11 0-11 5-19 14-26 9-7 18-11 28-11 z M945 1237c10 0 20 3 29 8 9 5 15 13 20 22-6 3-11 8-14 14-3 5-5 12-5 19-10 1-18 7-23 16-5 9-8 19-8 28 0 1 0 2 1 3l0 3c-7 3-12 8-14 15-2 7-3 14-3 21 0 4 0 8 1 13 0 5 0 9-1 13-1 3-3 6-6 9-3 3-7 4-13 4-3 0-7 0-10-1l-11-3c0 7-3 14-9 20-6 6-13 9-20 9-4 0-7 0-8-1l2 11c0 6-1 11-3 16-4 9-11 14-22 14-9 0-17-4-24-12-7-8-10-17-10-26 0-5 1-9 3-13 1-5 4-8 8-11-1-4-1-8-1-12 0-8 2-16 6-23 6-10 16-15 31-15l0-4c0-8 2-14 7-20 5-7 13-11 22-11l8 2-1-10 0-4c1-5 2-10 4-15 2-5 5-9 9-12 3-3 8-5 13-5-5-9-7-18-7-25 0-13 5-23 16-28 11-6 22-9 33-9 z M908 1244l-1 2c-15 5-22 16-22 33 0 6-1 12-2 19-2 6-6 10-13 12l0 5c0 10-3 18-9 23-7 5-17 8-28 8 1 3 1 6 1 8 0 7-2 12-7 17-7 7-16 10-25 10-7 0-14-3-20-8-7-6-10-13-10-21 0-11 6-18 19-21-3-4-4-8-4-12 0-5 2-9 5-10l11-6c4-2 8-5 11-9 3-4 5-10 5-19 5 3 10 4 16 4 8 0 17-3 28-10 10-7 15-15 15-24 3 2 6 3 9 3 3 0 7-1 11-2 3-1 7-2 10-2 z M881 1165c10 5 18 11 24 19 6 7 9 17 9 28l0 9-2 9c-7 5-14 7-20 7-7 0-15-2-23-7 0 13-4 22-11 29-8 6-18 9-30 9-7 0-12-1-17-3-1 8-3 15-7 22-4 6-10 9-19 9-3 0-6-1-10-2l0 5c0 5-1 10-3 14-3 5-8 9-16 10 5 4 8 10 8 18 0 9-3 17-10 25 7 0 13 3 17 9 3 5 5 12 5 19 0 6-2 13-6 20-4 7-10 11-17 11-5 0-9-2-11-7-3-5-4-9-4-14l0-4c-9-1-16-5-22-10-7-5-10-13-10-22 0-8 3-15 8-22-4-5-7-10-10-15-3-5-5-11-5-17 0-7 2-14 7-19 4-5 9-9 16-12l0-6c0-10 2-18 7-26 8-12 18-14 35-14 1-14 6-22 14-23 8-2 18-3 30-3 8 0 17-3 26-10 9-7 13-14 13-23l-1-4c4 2 8 3 13 3 4 0 8-1 13-3 5-2 8-5 9-9 z M802 1011c11 0 21 3 29 10 7 6 11 15 11 26 0 7-2 14-5 22l-8-1c-8 0-15 2-20 6-8 5-15 13-20 22l-4-1c-6 0-11 4-15 11-5 9-8 16-8 23l-5-1c-3 0-5 1-8 3-5 2-7 6-7 11 0 3 0 5 1 6-5-5-11-7-18-7-11 0-19 5-26 15-1-4-2-7-2-10 0-5 1-11 3-16 1-6 4-10 9-12-7-5-11-13-11-23 0-9 3-17 10-22 6-6 13-10 21-12l0-3c0-8 3-14 10-20 7-7 15-10 23-10 3 0 8 1 15 4 2-3 6-7 12-12 5-6 10-9 13-9 z M740 773l-1 0c9 3 13 10 13 21 0 9-3 16-10 20 7 5 10 11 10 18 0 4-1 8-3 11-7-4-15-6-24-6-11 0-19 3-28 7-6-6-9-14-9-23 0-11 8-37 20-41l0-1c11-5 21-6 32-6 z M722 848c3 0 7 0 11 1 3 0 7 1 10 2l-1 1c8 3 12 8 12 17l-5 0c-9 0-16 2-23 6-9 5-13 14-13 25 0 3 1 5 2 8-5 0-11 1-16 2-5 1-10 4-14 7-7-8-10-17-10-27 0-9 3-17 9-24 5-7 12-13 21-16l-1-1c3-1 6-1 9-1l9 0 z M749 876l2 1-1 0c8 2 14 7 18 14 3 7 5 14 5 21 0 9-2 16-5 22l-5 0c-16 0-29 4-39 14-15 14-18 27-18 50l-6-1-7 2c-5 1-9 4-12 7-3-3-4-8-4-13 0-8 3-14 9-18-7-7-10-14-10-23 0-11 6-20 17-26 11-7 21-10 31-10-1-3-2-6-2-10 0-5 1-10 4-15 6-13 12-15 23-15 z M762 943l0 1 4 0c13 0 23 4 29 13 7 9 10 21 10 34 0 6 0 10-1 13l-8-1-10 2c-6 1-10 6-13 13-4-2-8-3-13-3-9 0-18 4-27 11-9 7-13 15-13 24 0 1 0 2 1 3l0 3-3 0c-24 0-29 12-29 37l-6-1-9-9c-3-4-4-8-4-13 0-10 5-17 16-22-7-3-10-9-10-17 0-7 2-13 6-16 3-3 7-6 12-7 5-1 9-2 14-2 4-1 6-1 7-2l-2-14c0-11 4-20 10-28 9-11 22-17 39-19 z M678 1098c11 0 16 9 16 18 0 11-7 18-7 29 0 6 2 12 5 17-6-1-12-2-19-2-7 0-13 2-18 5l-2-11c0-14 8-21 20-21-7-3-10-9-10-16 0-10 5-19 15-19 z M834 1077c30 0 48 27 48 53 0 11-1 23-8 32-1 0-3 2-6 2-4 0-9-2-14-6-4 9-10 11-21 11 0 20-10 33-31 33-8 0-15-1-21-4-6 10-18 22-33 22-9 0-17-3-24-10-4 9-13 13-24 13l-6 0c-4 19-14 34-35 34-11 0-16-6-16-19 0-9 3-17 10-24-7-5-10-11-10-18 0-19 20-25 36-25 7 0 10 1 17 2 7-11 15-21 28-21 8 0 15 4 22 11 3-12 10-21 24-21 0-15 10-34 26-34 7-16 19-31 38-31 z M726 1229c5 0 9 1 11 4-7 3-13 8-18 14-5 6-8 13-8 21 0 5 1 9 3 13-18 4-27 15-27 34 0 7 2 15 5 22 3 7 7 12 13 16-3 2-5 5-6 10-1 4-2 8-2 11 0 8 2 15 6 20 3 5 5 11 5 18 0 9-3 17-10 22-7 5-14 8-23 8l1 0c-10 0-18-4-23-11-5-7-8-16-8-25 0-13 6-25 19-34-3-5-6-11-8-17-2-6-3-12-3-19 0-9 3-17 9-24 5-7 12-13 20-18l-2-13 1-9c1-8 4-15 8-21 4-7 9-12 16-16 6-4 13-6 21-6 z M822 1551c5 0 12 2 12 9 0 10-8 16-8 27 0 8 3 15 3 23 0 7-2 13-5 17-15-1-37-10-37-28 0-3 1-6 3-9-15 0-24-14-27-28 3 0 56-11 59-11 z M865 1549c0 5 3 11 9 16 5 5 11 7 16 7 0 7 2 14 5 19 3 5 8 9 15 10-5 7-7 15-7 26 0 7 2 12 5 17 3 5 9 8 16 9-3 7-5 14-5 21 0 9 4 17 11 22-5 2-10 3-14 3-11 0-21-3-28-10-7-6-10-15-10-24l0-4c-9 0-16-2-23-6-7-5-11-12-11-21 0-5 1-10 4-13l-1 0 4-5c-5-3-9-7-12-12-3-5-5-11-5-17 0-9 3-17 10-23 6-7 13-12 21-15 z M1224 1666c0 15 23 24 23 33 0 5-3 9-8 13 2 4 3 8 3 13 0 11-9 14-18 14-15 0-38-8-38-27 0-7 7-11 14-12 20-4 24-16 24-34 z M1289 1701c0 14 13 24 26 24 3 5 5 11 5 16 0 16-17 20-30 20-23 0-41-17-41-39 0-7 3-14 8-21 4 4 9 6 15 6 6 0 12-2 17-6 z M1452 1675c0 25 8 40 34 40-3 5-4 10-4 13 0 7 2 13 6 18-7 7-16 11-25 11-11 0-26-6-29-18l-1 2c-2-6-3-12-3-19 0-19 7-36 22-47 z" fill="#FFB02F"/>
		<path d="M1868 805c39 0 72 31 72 72 0 23-10 44-29 57-31-36-58-75-87-114 13-9 28-15 44-15 z M1824 820l87 114c-43 43-155 69-216 69-52 0-122-6-122-75 0-43 32-73 73-73 16 0 32 4 49 4 26 0 112-17 129-39 z M1883 898l23 29c-10-7-16-20-23-29 z M948 805c37 0 89 54 173 54 17 0 33-4 49-4 42 0 72 34 72 73 0 68-69 75-121 75-55 0-175-27-217-69l44-57-44 57c-19-13-28-32-28-57 0-38 31-72 72-72 z" fill="#D37034"/>
	</g></svg>
