<svg version="1.1" xmlns="http://www.w3.org/2000/svg" viewBox="0 0 2300 2300"><g transform="scale(1,-1) translate(-256, -1869)">
		<path d="M1981-359c276 0 503 223 503 503 0 76-18 151-50 219 33 70 50 144 50 221 0 120-34 199-85 284-38 64-59 128-59 199 0 281-227 514-514 514-2 1-2 0-2 2-95 132-251 214-418 214-163 0-319-77-417-214-7-1-10-2-17-2-54-3-103-9-154-28-208-72-346-268-346-486 0-73-21-137-60-200-56-92-84-178-84-282 0-77 18-151 50-222-32-68-50-143-50-219 0-276 221-503 503-503l1150 0 z" fill="#E1D8EC"/>
		<path d="M1981-287c238 0 431 188 431 431 0 66-16 125-43 188-5 11-8 19-8 30 0 12 3 20 8 31 29 66 43 125 43 191 0 90-24 162-73 245-46 78-71 150-71 238 0 234-186 443-442 443-28 0-44 10-61 31-97 119-208 184-359 184-109 0-219-40-305-122-19-19-36-41-54-62-38-44-83-30-140-39-203-35-364-216-364-435 0-85-26-167-70-239-48-79-73-153-73-243 0-68 16-129 43-192 5-11 7-17 7-31 0-10-2-20-7-30-27-63-43-122-43-188 0-238 188-431 431-431l1150 0 z" fill="#F3EEF8"/>
		<path d="M781 360c120 0 215 97 215 215 0 121-97 216-215 216-121 0-216-99-216-216 0-119 97-215 216-215 z M2053 367c120 0 215 97 215 215 0 121-97 216-215 216-121 0-216-99-216-216 0-119 97-215 216-215 z" fill="#BB806E"/>
		<path d="M1405-198c362 0 652 257 668 628l11 261c3 49 5 82 5 131 0 90-54 178-152 178l-432 0c-153 0-318 76-399 189-15 21-33 51-57 51-22 0-31-15-37-31-38-92-82-144-167-183-4-3-9-2-13-5-74-40-109-112-109-193 0-25 3-51 3-76l-2 0c4-108 8-214 13-322 16-367 302-628 668-628 z" fill="#C68D7B"/>
		<path d="M1459 288c37 0 73 31 73 71 0 8-1 15-4 22l-71 228c-6 22-25 38-51 38-24 0-44-16-51-38-12-40-75-214-75-249 0-41 34-72 73-72l106 0 z" fill="#AB6A55"/>
		<path d="M1406 90c83 0 166 39 212 113 3 4 4 8 4 11 0 10-10 20-20 20-4 0-7-1-10-3-63-31-121-44-186-44-65 0-124 14-186 44-3 2-7 3-10 3-10 0-20-10-20-20 0-3 1-7 4-11 47-73 129-113 212-113 z" fill="#990839"/>
		<path d="M1857 575c-87 30-169 44-259 72 38 59 109 115 182 115 54 0 96-14 142-50 15-12 30-25 30-46 0-38-69-73-95-91 z M969 575c87 30 169 44 259 72-36 57-108 115-181 115-56 0-96-15-142-50-15-12-31-25-31-46 0-38 69-73 95-91 z" fill="#000000"/>
		<path d="M1872 575l-299 0c-16 0-31 12-31 30l1 6c19 88 91 151 183 151 86 0 161-59 182-141l1-9c0-21-16-37-37-37 z M1239 575c16 0 31 12 31 30l-1 6c-19 89-96 151-183 151-86 0-161-59-182-141l-1-9c0-21 16-37 37-37l299 0 z" fill="#FFFFFF"/>
		<path d="M1814 575l-230 0c-3 11-5 22-5 32 0 68 57 120 120 120 68 0 120-57 120-120 0-10-2-21-5-32 z M1228 575c3 9 4 19 4 32 0 67-51 120-119 120-68 0-120-57-120-120 0-10 2-21 5-32l230 0 z" fill="#7D4533"/>
		<path d="M1758 575l-120 0c-5 11-8 21-8 32 0 38 28 68 68 68 40 0 68-30 68-68 0-11-3-21-8-32 z M1174 575c5 9 7 20 7 32 0 38-28 68-68 68-37 0-68-29-68-68 0-11 3-21 8-32l121 0 z" fill="#000000"/>
		<path d="M1661 631c12 0 21 10 21 22 0 12-9 21-21 21-12 0-21-9-21-21 0-12 9-22 21-22 z M1072 631c12 0 21 10 21 22 0 12-9 21-21 21-12 0-21-9-21-21 0-12 9-22 21-22 z" fill="#FFFFFF"/>
		<path d="M1880 815c-6 0-15 5-22 7-24 24-123 41-157 41-17 0-34-5-51-5-22 0-36 18-36 37 0 40 58 40 88 40 68 0 131-19 191-50l6-3c11-7 17-18 17-30 0-21-17-37-36-37 z M932 815c4 0 16 2 19 6l3 1c24 24 123 41 157 41 17 0 34-5 51-5 19 0 35 15 35 36 0 32-31 40-60 41l-27 0c-68 0-131-19-191-50l-6-3c-11-7-17-18-17-30 0-21 17-37 36-37 z" fill="#F3EEF8"/>
	</g></svg>
