<svg version="1.1" xmlns="http://www.w3.org/2000/svg" viewBox="0 0 2300 2300"><g transform="scale(1,-1) translate(-256, -1869)">
		<path d="M2084-285c24 0 45 8 63 24l227 201c17 15 26 34 26 55 0 23-13 46-31 59l-428 287-115-99 165-463c15-39 52-64 93-64 z M715-285c-24 0-45 8-63 24l-228 201c-17 15-25 33-25 54 0 24 11 47 31 60l428 287 114-99-165-463c-14-38-50-64-92-64 z M2252 738l1 19 0 241c0 391-316 714-713 714l-414 0c-80 0-152-64-155-149-245-37-428-248-428-498 0-187 1-121 1-325 586 0 1122-2 1708-2 z" fill="#FFF9BA"/>
		<path d="M2074 357c128 0 232 104 232 231 0 129-107 232-232 232-128 0-232-104-232-232 0-127 101-231 232-231 z M719 357c128 0 232 104 232 231 0 129-107 232-232 232-128 0-231-105-231-232 0-128 103-231 231-231 z" fill="#452829"/>
		<path d="M1397-285c100 0 193 18 278 54 85 35 159 84 222 147 63 62 112 136 149 221 37 85 57 177 61 276 3 67 5 134 7 201 2 67 4 134 7 201-7 2-15 3-23 4-8 1-16 1-24 1-9 0-17 0-25-1l-25-4c-31 33-62 58-95 74-33 15-66 26-101 32-30 4-62 7-95 7l-15 0c-38-1-78-1-119-1-63 0-123 9-182 27-59 18-113 44-164 77-51 33-96 73-135 120-40 47-72 99-97 157-11-41-25-79-41-114-17-35-36-69-57-100-21-31-45-61-72-89-27-29-56-57-88-84-17-15-32-31-45-46-13-16-23-35-30-57l-15-3 6-201c2-67 4-134 7-201 3-99 24-191 61-276 37-85 87-159 150-221 63-63 137-112 222-147 85-36 178-54 278-54 z" fill="#573739"/>
		<path d="M1398 72c47 0 96 13 140 36 44 23 109 82 109 111 0 12-11 24-23 24-5 0-8-1-11-3-75-36-138-52-215-52-79 0-143 17-215 52-4 2-8 3-11 3-13 0-24-10-24-24 0-3 1-8 4-13 49-82 146-134 246-134 z" fill="#290118"/>
		<path d="M1397 285c45 0 124 38 124 91 0 27-21 52-50 52l-148 0c-29 0-51-24-51-51 0-54 78-92 125-92 z" fill="#3D2123"/>
		<path d="M1912 484l-353 0c-19 0-37 14-37 36l1 6c21 104 111 178 217 178 101 0 190-66 214-167l1-11c0-23-21-42-43-42 z M1237 484c18 0 37 14 37 35l-1 7c-22 108-114 178-217 178-103 0-191-72-214-167l-1-11c0-25 20-42 44-42l352 0 z" fill="#FFFFFF"/>
		<path d="M1845 484l-272 0c-4 12-5 24-5 37 0 76 60 141 140 141 78 0 142-64 142-141 0-12-2-25-5-37 z M1224 484c4 12 5 24 5 37 0 77-62 141-140 141-76 0-141-62-141-141 0-11 2-24 5-37l271 0 z" fill="#7D4533"/>
		<path d="M1780 484l-143 0c-7 11-9 24-9 37 0 46 37 80 80 80 44 0 81-35 81-80 0-14-3-26-9-37 z M1160 484c7 11 9 24 9 37 0 46-37 80-80 80-44 0-81-35-81-80 0-14 3-26 9-37l143 0 z" fill="#000000"/>
		<path d="M1664 551c13 0 25 11 25 25 0 15-11 25-25 25-14 0-25-10-25-25 0-13 11-25 25-25 z M1040 551c13 0 25 11 25 25 0 15-11 25-25 25-14 0-25-10-25-25 0-13 11-25 25-25 z" fill="#FFFFFF"/>
		<path d="M1846 770c18 0 36 14 36 35 0 14-9 28-24 35-49 20-100 23-166 23-29 0-58-8-58-38 0-19 17-36 35-36 16 0 33 2 49 2 21 0 41-2 60-5 24-5 55-16 68-16 z M951 770l11 2c38 12 76 19 116 19 16 0 33-2 49-2 18 0 35 17 35 36 0 31-29 38-57 38l-26 0c-33 0-164-5-164-57 0-19 14-36 36-36 z" fill="#000000"/>
	</g></svg>
