<svg version="1.1" xmlns="http://www.w3.org/2000/svg" viewBox="0 0 2300 2300"><g transform="scale(1,-1) translate(-256, -1869)">
		<path d="M1728 863c178 0 323 145 323 324 0 179-147 323-323 323l-70 36 13 35c-86 90-207 144-338 144-133 0-253-56-339-144l17-35-74-36c-176 0-321-147-321-323 0-179 145-324 323-324l789 0 z" fill="#7D4533"/>
		<path d="M1728 1510c-17 25-35 49-57 71l-677 0c-21-21-40-45-56-71l790 0 z" fill="#533566"/>
		<path d="M1334 144l359 72 72 215-72 238c-114 58-236 87-360 87-128 0-249-30-358-86l-72-239 72-215 359-72 z M2125-287l-288 0-48 287c-8 48-24 93-24 144 0 49 16 95 24 143l48 287c181-149 288-375 288-610l0-251 z M831-287c-149 0-147 1-285 1l0 1-3 0 0 249c0 233 100 456 286 612l0-2 2 2 48-288c8-48 24-93 24-144 0-51-16-96-24-144l-48-287 z" fill="#00D26A"/>
		<path d="M1837-287l0 861c-44 37-93 68-144 95l0-417c0-19-17-36-35-36l-647 0c-19 0-36 15-36 36l0 418c-51-26-99-57-144-94l0-863 1006 0 z" fill="#0084CE"/>
		<path d="M1622-287l0 215c0 39-34 72-72 72l-432 0c-40 0-71-34-71-72l0-215 575 0 z" fill="#46A4FB"/>
		<path d="M1581 314c22 0 40 18 40 41l0 347c-92 35-189 54-288 54-99 0-195-19-287-54l0-348c0-22 18-40 41-40 24 0 212 138 246 165 36-28 222-165 248-165 z" fill="#008463"/>
		<path d="M1333 405c19 0 52 35 66 49 52 49 82 111 82 184l0 222c0 83-65 148-148 148-83 0-148-65-148-148l0-222c0-73 30-135 82-184 13-13 46-49 66-49 z" fill="#FFFFFF"/>
		<path d="M1333 528c83 0 148 65 148 148l0 184c0 83-65 148-148 148-83 0-148-65-148-148l0-184c0-83 65-148 148-148 z" fill="#8B5C56"/>
		<path d="M1685 988c66 0 120 53 120 121 0 68-57 120-120 120-68 0-120-57-120-120 0-67 53-121 120-121 z M981 988c66 0 120 53 120 121 0 68-57 120-120 120-68 0-120-57-120-120 0-67 53-121 120-121 z" fill="#8B5C56"/>
		<path d="M2268 0l0 150c0 40-34 66-71 66-37 0-72-26-72-66l0-150 143 0 z" fill="#8B5C56"/>
		<path d="M2125 17l0 288-72 0 0-288 72 0 z" fill="#7D4533"/>
		<path d="M2127 289c11 0 16 5 16 16l0 126 96 0c56 0 101 48 101 103l0 509c0 21-16 36-38 36-19 0-34-19-34-37l0-320c0-43-33-74-74-74-40 0-70 34-70 72l0 322c0 18-14 37-33 37-21 0-38-13-38-36l0-321c0-44-33-74-75-74-40 0-69 36-69 72l0 322c0 18-15 37-34 37-21 0-38-13-38-36l0-509c0-56 46-103 101-103l97 0 0-126c0-8 6-16 15-16l77 0 z" fill="#D3D3D3"/>
		<path d="M2212-287c34 0 56 32 56 62l0 253c0 30-22 62-56 62l-216 0 0-1c-32 0-50-27-50-56 0-17 7-31 21-42-15-11-22-28-22-45 0-19 7-33 22-44-15-11-22-26-22-45 0-19 7-33 22-44-13-11-21-27-21-43 0-29 18-57 50-57l216 0 z" fill="#966661"/>
		<path d="M1705 1137c1 35 4 68 4 103 0 72-62 140-137 140l39 0c82 0 153-65 153-151 0-39-6-92-59-92 z M973 1137c-3 35-7 69-7 104 0 77 62 139 140 139l-40 0c-82 0-153-65-153-151 0-43 8-92 60-92 z" fill="#2D242D"/>
		<path d="M1454 649c94 0 171 54 209 130 25 51 26 111 30 167 5 97 18 200 18 292 0 73-59 142-139 142l-467 0c-78 0-140-62-140-139l1-12c9-124 14-242 25-366 11-124 112-214 232-214l231 0 z" fill="#966661"/>
		<path d="M1334 829c40 0 103 25 122 66l2 6c0 8-4 12-13 12-13 0-59-27-111-27-43 0-66 12-106 26l-5 1c-7 0-12-4-12-11 0-2 1-4 2-7 25-43 76-66 121-66 z" fill="#990839"/>
		<path d="M1589 1106l-163 0c-8 0-17 6-17 15 0 47 54 87 100 87 39 0 101-35 101-82 0-10-10-20-21-20 z M1242 1106c7 0 17 6 17 14 0 48-53 88-100 88-43 0-100-37-100-83 0-10 9-19 20-19l163 0 z" fill="#FFFFFF"/>
		<path d="M1558 1106l-127 0c-1 7-2 10-2 17 0 35 28 65 65 65 35 0 66-28 66-65 0-7-1-10-2-17 z M1237 1106c1 7 2 10 2 17 0 35-28 65-65 65-35 0-66-28-66-65 0-7 1-12 3-17l126 0 z" fill="#7D4533"/>
		<path d="M1527 1106l-66 0c-3 5-4 10-4 17 0 19 16 37 37 37 22 0 38-16 38-37 0-6-2-12-5-17 z M1207 1106c3 7 4 12 4 17 0 21-15 37-37 37-22 0-38-16-38-37 0-6 2-12 5-17l66 0 z" fill="#000000"/>
		<path d="M1366 955c22 0 40 18 40 39 0 12-8 38-16 67-18 56-24 88-51 88-13 0-23-7-28-20-11-27-40-114-40-135 0-21 17-39 39-39l56 0 z" fill="#75443E"/>
		<path d="M1586 1245c-15 0-38 15-70 26-35 12-93-7-93 42 0 37 32 43 61 43 36 0 142-20 142-71 0-22-17-40-40-40 z M1082 1245c17 0 38 15 70 26 35 12 93-7 93 44 0 35-32 41-61 41-36 0-142-20-142-71 0-22 17-40 40-40 z" fill="#372128"/>
		<path d="M1474 1137c8 0 12 4 12 12 0 7-5 11-12 11-7 0-11-4-11-11 0-7 4-12 11-12 z M1151 1137c7 0 11 5 11 12 0 7-4 11-11 11-7 0-12-4-12-11 0-8 4-12 12-12 z" fill="#FFFFFF"/>
	</g></svg>
