<svg version="1.1" xmlns="http://www.w3.org/2000/svg" viewBox="0 0 2300 2300"><g transform="scale(1,-1) translate(-256, -1869)">
		<path d="M1724 607c133 0 239 108 239 242 0 19-2 38-6 55-7 25-22 53-22 69 0 7 1 10 4 17 15 35 24 69 24 108 0 171-147 201-147 271 0 57-6 121-36 172l-741 0c-26-51-29-117-29-172 0-72-161-89-161-271 0-39 10-73 24-108 3-7 4-10 4-17 0-5-1-10-4-17-15-35-24-68-24-107 0-133 105-242 239-242l636 0 z" fill="#000000"/>
		<path d="M1747 971c69 0 126 54 126 125 0 69-56 126-126 126-68 0-125-55-125-126 0-71 60-125 125-125 z M1065 971c71 0 125 60 125 125 0 69-54 126-125 126-69 0-126-56-126-126 0-68 55-125 126-125 z" fill="#452829"/>
		<path d="M903-287l144 431-144 431c-181-152-288-372-288-611l0-251 288 0 z M2197-287l0 251c0 235-103 455-289 611l-179 36-107-36 95-239c24-62 43-98 62-164 60-220 42-153 130-459l288 0 z" fill="#E6E6E6"/>
		<path d="M1909-287l0 574c0 129-87 239-203 275-38 11-48 7-84 13-124 23-236 47-360 72l-359-72 0-862 1006 0 z" fill="#F4F4F4"/>
		<path d="M1592 303l0 120c0 59-28 117-78 152l394 0c-145 122-322 182-503 182-184 0-360-63-502-181l0-1 395 0c-48-34-81-89-81-152l0-120c103 0 188 82 188 187 0-104 82-187 187-187 z" fill="#F92F60"/>
		<path d="M1406 647c199 0 359 145 367 356 3 80 10 160 10 240 0 42-15 87-59 108-4 1-7 3-8 4-49 21-72 57-94 106-3 7-10 13-18 13-7 0-12-3-17-9-54-75-127-123-233-123l-238 0c-60 0-87-60-87-110 0-76 6-153 9-229 8-207 164-356 368-356 z" fill="#573739"/>
		<path d="M1649 1088c-48 19-98 31-147 46 20 32 52 62 95 62 28 0 97-14 97-52 0-21-29-43-45-56 z M1163 1089l147 45c-20 32-52 63-96 63-28 0-96-15-96-53 0-24 30-42 45-55 z" fill="#000000"/>
		<path d="M1665 1083l-163 0c-7 0-17 6-17 14 0 52 52 92 100 92 42 0 100-40 100-86 0-10-10-20-20-20 z M1311 1084c7 0 17 6 17 14 0 51-53 91-100 91-39 0-101-38-101-84 0-10 10-21 21-21l163 0 z" fill="#FFFFFF"/>
		<path d="M1633 1083l-126 0c-1 7-2 11-2 18 0 37 25 67 65 67 19 0 34-7 47-20 15-17 18-39 18-56 0-3-1-6-2-9 z M1305 1084c2 6 3 12 3 18 0 37-28 67-66 67-38 0-65-32-65-67 0-7 1-11 2-18l126 0 z" fill="#7D4533"/>
		<path d="M1602 1083l-66 0c-1 7-4 11-4 18 0 21 18 38 37 38 21 0 38-16 38-38 0-5-2-11-5-18 z M1275 1084c3 7 5 13 5 18 0 21-16 38-38 38-19 0-37-17-37-38 0-5 2-11 5-18l65 0 z" fill="#000000"/>
		<path d="M1548 1116c7 0 12 6 12 13 0 7-5 12-12 12-6 0-12-5-12-12 0-9 4-13 12-13 z M1220 1116c8 0 12 4 12 13 0 7-5 12-12 12-6 0-12-5-12-12 0-7 5-13 12-13 z" fill="#FFFFFF"/>
		<path d="M1406 809c51 0 99 28 124 70 1 3 2 5 2 7 0 7-5 13-12 13l-5-2c-40-15-67-28-109-28-20 0-39 2-56 7-22 6-53 23-58 23-7 0-12-6-12-13 0-2 1-4 2-7 24-44 78-70 124-70 z" fill="#990839"/>
		<path d="M1436 935c23 0 42 18 42 40 0 9-8 36-18 66-22 62-24 91-54 91-15 0-24-7-29-20-8-24-43-119-43-138 0-23 20-39 42-39l60 0 z" fill="#3D2123"/>
		<path d="M1122 1235c3 0 8 1 11 4 27 12 55 21 86 21 11 0 21-3 32-3 11 0 21 10 21 20 0 24-35 24-50 24-21 0-120-13-120-46 0-10 10-20 20-20 z M1655 1235c10 0 20 11 20 21 0 7-3 13-10 18l-1 0c-31 18-73 27-108 27-18 0-51 0-51-24 0-12 10-19 21-19 11 0 19 2 30 2 43 0 89-25 99-25 z" fill="#000000"/>
		<path d="M1808 1339c14 0 29 11 29 27l0 72c42 45 93 80 93 150 0 73-58 137-137 137l-777 0c-77 0-137-61-137-137 0-70 50-104 96-150l0-72c0-14 10-27 25-27l808 0 z" fill="#E6E6E6"/>
		<path d="M1716-207c-30 0-54 22-54 54 0 30 22 54 54 54 32 0 54-24 54-54 0-30-22-54-54-54 z M1716 55c-32 0-54 24-54 54 0 29 24 54 54 54 30 0 54-25 54-54 0-30-22-54-54-54 z M1716 316c-30 0-54 22-54 54 0 29 24 54 54 54 30 0 54-25 54-54 0-32-24-54-54-54 z M1655 1436l-65 0 64 184c5 13 14 20 29 20 17 0 32-12 32-31 0-17-52-149-60-173 z M1218 1436l-64 184c-5 13-14 20-29 20-17 0-32-12-32-31 0-17 52-149 60-173l65 0 z M1438 1436l0 172c0 18-14 33-33 33-19 0-34-15-34-33l0-172 67 0 z" fill="#D3D3D3"/>
		<path d="M2268 0l0 150c0 40-34 66-71 66-37 0-72-26-72-66l0-150 143 0 z" fill="#452829"/>
		<path d="M2087-195c28 0 52 23 52 52l0 503c0 24 13 45 32 60 53 40 73 108 73 174 0 93-45 198-156 198-111 0-157-106-157-199 0-61 20-132 74-174 19-15 31-35 31-60l0-500c0-26 22-54 51-54 z" fill="#F3C07B"/>
		<path d="M2088 444c83 0 118 80 118 150 0 71-37 150-118 150-83 0-118-80-118-150 0-71 36-150 118-150 z" fill="#F3AD61"/>
		<path d="M2211-287c36 0 57 30 57 62l0 253c0 32-21 62-57 62l-215 0c-33 0-50-29-50-58 0-16 8-32 21-43-15-11-22-25-22-44 0-19 7-34 22-45-15-11-22-25-22-44 0-19 7-34 22-45-14-11-21-25-21-42 0-30 17-56 50-56l215 0 z" fill="#573739"/>
	</g></svg>
