<svg version="1.1" xmlns="http://www.w3.org/2000/svg" viewBox="0 0 2300 2300"><g transform="scale(1,-1) translate(-256, -1869)">
		<path d="M2398 86c9 9 13 19 13 32l0 1419c0 26-21 44-45 44l-1922 0c-12 0-22-4-31-13 4-17 59-202 59-202l539-863 1222-359c56-16 110-39 165-58 z" fill="#FFCE7C"/>
		<path d="M2367 73c12 0 22 4 31 13-17 17-37 43-58 58l-1868 1366c-20 15-40 39-59 58-9-9-13-19-13-31l0-1420c0-24 19-44 44-44l1923 0 z" fill="#E19747"/>
		<path d="M2340 145l0 1365-1868 0 0-1365 1868 0 z" fill="#44911B"/>
		<path d="M1732 587c132 0 243 106 243 243 0 39-9 72-24 107-3 7-4 10-4 17 0 7 1 11 4 18 15 36 25 69 25 108 0 51-13 93-42 138-27 42-40 87-40 136 0 139-111 250-250 250-14 0-26 6-35 17-58 69-116 104-202 104-86 0-148-36-203-104-10-12-19-18-35-18-139 0-250-111-250-250 0-49-13-94-40-135-27-43-42-87-42-138 0-39 10-72 25-108 3-7 4-11 4-18 0-7-1-10-4-17-15-35-25-68-25-107 0-133 108-243 244-243l651 0 z" fill="#FFB02F"/>
		<path d="M1909-287l108 431-108 430c-139 114-313 181-503 181-190 0-364-67-503-181l-108-430 108-431 1006 0 z" fill="#8C5543"/>
		<path d="M1550-287l0 1006 100 0 31-65 46-98 17-38c4-11 6-17 6-19 0-13-6-20-18-21l-19-1-41 2-19-1c-12-1-18-8-18-20 0-9 7-19 20-30l42-36c15-13 30-27 43-42 13-15 19-32 19-49 0-9-1-17-4-23l-205-565 z M1262-287l0 1006-97 0-31-64-45-98c-7-15-13-28-17-39-5-11-7-17-7-19 0-9 3-14 9-17 5-3 12-5 21-5l28 1c10 1 19 1 28 1 9 0 16-1 22-4 5-3 8-8 8-16 0-5-2-9-6-13l-98-96c-13-13-20-30-20-49 0-9 1-17 4-23l201-565 z" fill="#6D4534"/>
		<path d="M2197-287l-1 252c0 235-106 461-287 610l0-862 288 0 z M903-287l0 862c-180-151-288-372-288-611l0-251 288 0 z" fill="#6D4534"/>
		<path d="M1553-287l0 947-295 0 0-947 295 0 z" fill="#E6E6E6"/>
		<path d="M1406 527c79 0 148 64 148 148l0 184c0 83-65 148-148 148-83 0-148-65-148-148l0-184c0-83 65-148 148-148 z" fill="#F9C136"/>
		<path d="M1734 983c63 0 117 52 117 118 0 64-53 117-117 117-64 0-117-53-117-117 0-65 54-118 117-118 z M1073 983c63 0 117 52 117 118 0 64-53 117-117 117-64 0-117-53-117-117 0-65 54-118 117-118 z" fill="#FECA46"/>
		<path d="M1555-289l0 948-296 0 0-948 296 0 z" fill="#E6E6E6"/>
		<path d="M1406 526c80 0 144 66 144 148l0 184c0 82-65 148-144 148-80 0-144-66-144-148l0-184c0-82 65-148 144-148 z" fill="#F9C136"/>
		<path d="M1407 627c210 0 363 151 371 355 3 76 10 153 10 229 0 52-26 107-84 107l-241 0c-100 0-173 43-239 126-5 6-10 9-16 9-17 0-19-16-24-28-19-43-60-72-99-94-39-22-60-61-60-109 0-80 7-160 10-240 8-206 167-355 372-355 z" fill="#FDD641"/>
		<path d="M1658 1070c-49 19-101 33-152 46 21 33 55 63 99 63 29 0 100-15 100-52 0-24-31-44-47-57 z M1156 1070c51 19 101 31 152 46-21 33-55 63-99 63-28 0-99-14-99-52 0-23 29-43 46-57 z" fill="#000000"/>
		<path d="M1674 1065l-169 0c-7 0-17 7-17 15 0 50 54 91 103 91 43 0 104-37 104-86 0-10-10-20-21-20 z M1309 1065c7 0 17 7 17 15 0 52-57 91-104 91-42 0-104-37-104-85 0-10 10-21 22-21l169 0 z" fill="#FFFFFF"/>
		<path d="M1642 1065l-130 0c-2 6-3 12-3 18 0 38 27 68 67 68 38 0 68-28 68-68 0-7-1-11-2-18 z M1302 1065c2 6 3 12 3 18 0 37-29 68-67 68-38 0-68-28-68-68 0-7 1-11 2-18l130 0 z" fill="#7D4533"/>
		<path d="M1611 1065l-68 0c-4 5-6 11-6 18 0 21 17 39 39 39 22 0 39-16 39-39 0-7-1-13-4-18 z M1272 1065c3 7 5 11 5 18 0 21-17 39-39 39-22 0-39-16-39-39 0-7 1-13 4-18l69 0 z" fill="#000000"/>
		<path d="M1553 1098c9 0 13 4 13 12 0 8-4 12-13 12-6 0-12-5-12-12 0-6 6-12 12-12 z M1215 1098c8 0 12 4 12 12 0 8-4 12-12 12-8 0-12-4-12-12 0-8 4-12 12-12 z" fill="#FFFFFF"/>
		<path d="M1407 798c24 0 47 6 70 18 24 12 55 43 55 55 0 7-5 12-12 12l-6-2c-40-14-67-25-107-25-38 0-74 8-108 25l-6 2c-7 0-11-4-11-11 0-2 1-4 2-7 25-44 78-67 123-67 z" fill="#990839"/>
		<path d="M1435 925c22 0 40 17 40 40 0 10-7 37-17 66-19 58-23 90-51 90-14 0-23-7-28-20-8-28-40-113-40-137 0-21 18-39 40-39l56 0 z" fill="#FFB02C"/>
		<path d="M1139 1218c13 0 59 24 98 24 11 0 19-2 30-2 11 0 21 8 21 20 0 17-19 23-36 23-33 0-134-9-134-44 0-12 9-21 21-21 z M1675 1218c10 0 20 11 20 22 0 32-100 44-119 44l-15 0c-17 0-37-4-37-22 0-13 9-21 21-21 11 0 19 2 30 2 26 0 65-7 88-22l2 0c2-2 5-3 10-3 z" fill="#D37034"/>
		<path d="M1622 930c19 0 36 4 53 11 17 7 31 17 44 30 13 12 23 26 30 43 7 17 10 35 10 54l0 79c0 3 1 5 2 7l5 7c2 3 4 6 5 11 1 4 2 10 2 19 0 7-2 12-7 17-5 5-10 7-17 7l-250 0c-13 0-23-2-30-7l-20-15-18-15c-6-5-14-7-24-7-10 0-18 2-23 7l-18 15-20 15c-8 5-18 7-31 7l-250 0c-13 0-20-4-22-13-2-9-3-18-3-27 0-9 2-14 7-17 5-3 7-6 7-11l0-79c0-19 4-37 11-54 7-17 17-31 30-43 12-13 26-23 43-30 17-7 35-11 54-11l51 0c19 0 36 4 53 11 17 7 31 17 44 30 13 12 23 26 30 43 7 17 10 35 10 54l0 43c0 7 3 14 8 19 5 5 12 7 19 7 9 0 15-3 19-8 4-5 7-12 8-19l1-11-1-11c-1-8-1-15-1-20 0-19 4-37 11-54 7-17 17-31 30-43 12-13 26-23 43-30 17-7 35-11 54-11l51 0 z M1617 956l-39 0c-68 0-119 55-119 119l0 51c0 34 28 64 63 64l151 0c35 0 63-30 63-64l0-51c0-68-55-119-119-119 z M1238 956l-40 0c-66 0-118 53-118 119l0 51c0 34 28 64 63 64l149 0c35 0 64-27 64-64l0-51c0-62-48-119-118-119 z" fill="#433B6B"/>
		<path d="M1886-29l-144 0 0 165c0 39 34 72 72 72 39 0 72-31 72-72l0-165 z M1070-29l0 165c0 39-31 72-72 72-40 0-71-34-71-72l0-165 143 0 z" fill="#FECA46"/>
		<path d="M1812-287l0 588c0 32-25 59-58 59l-549 0c-74 0-136-59-136-136l0-511 743 0 z" fill="#F92F60"/>
		<path d="M1118-287l0 615 694 0 0 35c0 36-12 68-58 68l-621 0c-78 0-136-60-136-135l0-583 121 0 z" fill="#433B6B"/>
		<path d="M1811 245l0 125-685 0c-36 0-63-29-63-63 0-36 29-62 63-62l685 0 z" fill="#E6E6E6"/>
		<path d="M1823-287c36 0 62 28 62 62l0 253c0 34-26 62-62 62l-237 0 0-1c-28 0-56-21-56-52 0-21 8-36 25-47-15-9-25-25-25-44 0-19 9-36 25-45-16-9-25-26-25-45 0-19 10-35 25-44-17-11-25-26-25-47 0-31 28-52 56-52l237 0 z M1226-287c27 0 55 21 55 52 0 21-8 36-25 47 16 9 25 25 25 44 0 19-9 36-25 45 16 9 25 26 25 45 0 19-10 35-25 44 15 9 25 25 25 42 0 31-22 57-55 57l0 1-238 0c-36 0-62-28-62-62l0-253c0-34 26-62 62-62l238 0 z" fill="#FDD641"/>
	</g></svg>
