<svg version="1.1" xmlns="http://www.w3.org/2000/svg" viewBox="0 0 2300 2300"><g transform="scale(1,-1) translate(-256, -1869)">
		<path d="M1909-287l144 431-144 395-1006 0-144-395 144-431 1006 0 z M1736 683c-104 47-215 72-330 72-115 0-226-25-330-72l660 0 z" fill="#212121"/>
		<path d="M1729-287l-71 0 0 378c0 21 16 36 35 36 19 0 36-15 36-36l0-378 z M1442-287l-72 0 0 378c0 19 15 36 36 36 19 0 36-15 36-36l0-378 z M1154-287l-71 0 0 378c0 21 16 36 35 36 19 0 36-15 36-36l0-378 z M2197-287l0 251c0 235-106 461-288 611l0-1c-139 114-313 181-503 181-184 0-361-63-503-181l0 1c-180-151-288-372-288-611l0-251 288 0 0 819c101-184 297-296 503-296 210 0 401 112 503 297l0-820 288 0 z" fill="#000000"/>
		<path d="M1405 505c19 0 55 38 67 50 49 45 81 111 81 183l0 222c0 82-66 149-148 149-84 0-148-68-148-149l0-222c0-71 32-137 82-183 14-14 47-50 66-50 z" fill="#8B5C56"/>
		<path d="M1780 1147c22 1 40 15 44 38l41 221c1 5 2 9 2 13 0 24-2 51-15 77l-102 22c-19-16-52-56-57-80l0-144 87-147 z M1049 1146l69 148c0 29 0 59-1 89l0 22c0 22 1 44 3 66l-73 39-65-6c-14-22-21-47-21-74l0-12c0-5 1-9 2-13l40-220c2-11 7-20 16-27 9-7 19-11 30-12 z" fill="#2D242D"/>
		<path d="M1758 986c64 0 117 53 117 117 0 66-54 118-117 118-63 0-117-52-117-118 0-64 53-117 117-117 z M1072 986c64 0 117 53 117 117 0 65-54 118-117 118-63 0-117-52-117-118 0-64 53-117 117-117 z" fill="#8B5C56"/>
		<path d="M1530 646c30 0 59 6 86 17 27 11 50 26 71 45 21 19 38 42 51 69 13 26 20 54 22 84l28 395c0 13-3 22-9 30l-22 24c-9 8-17 17-24 28-7 10-11 24-11 41 0 9 1 18 2 28l1 15-1 15c-1 9-4 18-8 26-5 7-12 13-23 16-18 6-39 11-63 15-25 4-50 7-75 10-26 2-51 4-76 5-25 1-46 1-65 1-17 0-38 0-63-1-25-1-51-3-78-6l-78-9c-25-4-45-9-61-15-19-7-28-19-28-38l0-62c0-17-3-30-10-39-7-10-14-19-22-26-8-8-15-16-22-25-7-9-10-20-10-34l0-12c0-5 0-9 1-13l26-369c2-30 10-58 23-84 13-27 30-50 51-69 21-19 45-34 72-45 27-11 55-17 85-17l230 0 z" fill="#966661"/>
		<path d="M1415 827c24 0 47 6 68 18 22 11 54 41 54 53 0 7-5 12-12 12l-2 0c-63-21-71-26-108-26-39 0-71 9-106 25l-5 1c-6 0-12-5-12-12l2-6c25-42 76-65 121-65 z" fill="#990839"/>
		<path d="M1442 954c21 0 39 17 39 39 0 11-8 38-16 64-18 54-23 86-50 86-13 0-22-6-27-19-8-30-39-108-39-132 0-21 16-38 38-38l55 0 z" fill="#75443E"/>
		<path d="M1664 1101l-160 0c-7 0-16 7-16 14 0 48 53 86 98 86 40 0 98-35 98-80 0-10-10-20-20-20 z M1325 1101c12 0 17 9 17 20 0 41-56 80-98 80-43 0-98-36-98-81 0-11 10-19 20-19l159 0 z" fill="#FFFFFF"/>
		<path d="M1633 1101l-123 0c-1 7-2 10-2 17 0 34 26 64 63 64 17 0 32-6 45-19 16-16 19-37 19-54 0-3-1-5-2-8 z M1320 1101c1 7 2 10 2 17 0 34-26 64-63 64-17 0-32-6-45-19-16-16-19-37-19-54 0-3 1-5 2-8l123 0 z" fill="#7D4533"/>
		<path d="M1604 1101l-65 0c-3 5-4 10-4 17 0 21 17 37 36 37 19 0 37-16 37-37 0-5-1-10-4-17 z M1291 1101c3 5 4 10 4 17 0 21-17 37-36 37-19 0-37-16-37-37 0-7 1-12 4-17l65 0 z" fill="#000000"/>
		<path d="M1552 1132c7 0 11 4 11 11 0 7-4 12-11 12-6 0-12-5-12-12 0-7 5-11 12-11 z M1237 1132c7 0 12 4 12 11 0 7-5 12-12 12-7 0-11-5-11-12 0-7 4-11 11-11 z" fill="#FFFFFF"/>
		<path d="M1170 1229c21 0 46 29 97 29l22-1c19 0 39 16 39 37 0 38-31 42-60 42-30 0-137-18-137-68 0-22 16-39 39-39 z M1660 1229c22 0 39 16 39 39 0 51-104 69-137 69-27 0-60-6-60-40 0-30 19-38 40-38l22-1c51 0 73-29 96-29 z" fill="#372128"/>
		<path d="M2092 692c14 0 27 13 27 28 0 11-37 139-42 159-7 27-33 43-59 43-26 0-52-16-59-43-5-21-43-149-43-159 0-15 13-28 27-28l149 0 z" fill="#8B5C56"/>
		<path d="M2018 913c36 0 61 28 61 62 0 24-14 44-33 54l0 639c0 33-28 57-58 57l-1147 0c-31 0-57-27-57-57 0-31 24-58 57-58l199 0-63-115 328-54c36-7 73-8 110-8 36 0 74 1 110 8l327 55-62 114 199 0 0-581c-19-10-33-30-33-54 0-34 26-62 62-62 z" fill="#1C1C1C"/>
	</g></svg>
