<svg version="1.1" xmlns="http://www.w3.org/2000/svg" viewBox="0 0 2300 2300"><g transform="scale(1,-1) translate(-256, -1869)">
		<path d="M1714 647c128 0 230 103 230 231 0 37-8 66-23 101-2 5-3 10-3 16 0 7 1 10 4 17 14 34 23 67 23 103 0 47-13 90-39 130-27 41-39 81-39 128 0 131-107 237-236 237-15 0-24 6-33 17-52 64-111 98-192 98-81 0-143-35-192-98-9-11-18-18-33-18-130 0-237-104-237-236 0-47-10-85-38-128-25-39-39-83-39-130 0-19 2-36 6-52 6-24 21-52 21-68 0-4-1-9-4-16-14-33-23-64-23-101 0-128 103-231 231-231l616 0 z" fill="#000000"/>
		<path d="M1909-287l48 287c8 53 24 88 24 144 0 58-17 93-24 143l-48 287c-28 23-59 45-92 66-137 3-274 7-411 7-139 0-277-7-416-10-31-19-60-40-87-63l-48-287c-8-54-24-86-24-143 0-58 17-93 24-144l48-287 1006 0 z" fill="#E6E6E6"/>
		<path d="M1442-287l0 407 287 491-97 111c-40 8-199 33-226 33-29 0-186-27-227-33l-96-111 287-481 0-417 72 0 z" fill="#8B62BF"/>
		<path d="M903-287l0 861c-181-149-288-375-288-610l0-251 288 0 z M1356-11c9 0 14 5 14 14l0 260-1 7-194 450c-68-21-131-51-191-88-5-47-14-98-14-145 0-35 84-7 84-42 0-21-63-60-63-82 0-5 2-9 5-12l350-358c3-3 6-4 10-4 z M1456-12c4 0 7 1 10 4l350 357c3 3 5 7 5 12 0 21-63 59-63 83 0 34 84 6 84 42 0 47-9 98-13 146-60 39-124 67-192 88-4-11-20-44-38-87-54-126-157-360-157-372l0-259c0-9 5-14 14-14 z M2197-287l0 251c0 235-106 459-288 609l0-860 288 0 z" fill="#F4F4F4"/>
		<path d="M2268 0l0 150c0 40-34 66-71 66-37 0-72-26-72-66l0-150 143 0 z" fill="#452829"/>
		<path d="M2089 252l108 76 0 103c23 0 38 6 38 33 0 15-3 39-23 39l-247 0c-15 0-22-19-22-32 0-33 8-40 38-40l0-103 108-76 z" fill="#B4F6FC"/>
		<path d="M2197-126l0 454-216 0 0-454 216 0 z" fill="#C3EF3C"/>
		<path d="M2031 135c6 0 6 15 6 18 0 3-2 14-6 14l-30 0c-3 0-4-2-4-7l-1-10c0-3 1-15 5-15l30 0 z M2031 264c3 0 5 2 6 7l0 10c0 3 0 15-6 15l-30 0c-3 0-4-3-4-8l-1-10c0-3 1-14 5-14l30 0 z" fill="#008463"/>
		<path d="M2211-287c36 0 57 30 57 62l0 253c0 32-21 62-57 62l-215 0c-33 0-50-29-50-58 0-16 8-32 21-43-15-11-22-25-22-44 0-19 7-34 22-45-15-11-22-25-22-44 0-19 7-34 22-45-14-11-21-25-21-42 0-30 17-56 50-56l215 0 z" fill="#573739"/>
		<path d="M1406 539c83 0 144 76 144 155l0 193c0 82-62 155-144 155-85 0-144-75-144-155l0-193c0-78 58-155 144-155 z" fill="#452829"/>
		<path d="M1406 685c188 0 344 134 352 336 3 72 9 145 9 217 0 48-24 102-80 102l-228 0c-96 0-164 42-226 119-4 5-9 8-15 8-9 0-14-3-16-9-39-117-157-88-157-209 0-76 6-152 9-228 8-195 156-336 352-336 z" fill="#573739"/>
		<path d="M1433 953c22 0 37 20 37 39 0 18-16 71-28 107-12 32-12 51-35 51-14 0-23-9-26-21-8-29-38-113-38-136 0-19 15-40 37-40l53 0 z" fill="#3D2123"/>
		<path d="M1211 1006c72 0 119 31 166 89 8 11 16 16 29 16 13 0 21-5 29-16 47-58 95-88 167-88 103 0 199 89 199 195 0 114-90 200-199 200l-389 0c-109 0-202-88-202-198 0-109 90-198 200-198 z" fill="#452829"/>
		<path d="M1644 1105c-49 16-95 28-144 44 21 31 54 59 94 59 26 0 94-15 94-50 0-21-30-39-44-53 z M1168 1105c47 17 97 29 145 44-21 29-53 59-94 59-27 0-94-13-94-49 0-23 28-41 43-54 z" fill="#000000"/>
		<path d="M1659 1100c10 0 20 10 20 21 0 42-57 79-98 79-45 0-98-39-98-86 0-7 9-14 16-14l160 0 z M1313 1100c7 0 17 6 17 14 0 49-57 86-99 86-40 0-98-35-98-80 0-10 10-20 20-20l160 0 z" fill="#FFFFFF"/>
		<path d="M1628 1100l-123 0c-1 3-2 6-2 9l0 8c0 35 26 64 63 64 35 0 64-30 64-64 0-7-1-10-2-17 z M1307 1100c2 5 3 10 3 17 0 35-30 64-64 64-35 0-64-30-64-64 0-7 1-10 2-17l123 0 z" fill="#7D4533"/>
		<path d="M1599 1100l-64 0c-3 5-5 11-5 17 0 21 15 37 37 37 22 0 36-18 36-37 0-7-1-12-4-17 z M1277 1100c3 5 5 11 5 17 0 21-15 37-37 37-22 0-36-18-36-37 0-7 1-12 4-17l64 0 z" fill="#000000"/>
		<path d="M1545 1131c7 0 11 5 11 12 0 7-4 11-11 11-7 0-12-4-12-11 0-8 4-12 12-12 z M1224 1131c8 0 12 4 12 12 0 7-5 11-12 11-7 0-11-4-11-11 0-7 4-12 11-12 z" fill="#FFFFFF"/>
		<path d="M1406 823c25 0 48 7 71 20 23 13 55 45 55 57 0 9-4 13-12 13l-6-2c-42-15-65-27-108-27-38 0-74 9-108 27l-6 2c-6 0-12-5-12-12 0-2 1-4 2-7 24-42 75-71 124-71 z" fill="#990839"/>
		<path d="M1152 1245c16 0 53 23 95 23 9 0 19-2 28-2 11 0 19 7 19 18 0 17-18 23-34 23-31 0-127-8-127-43 0-13 6-19 19-19 z M1660 1245c10 0 19 9 19 20 0 30-97 43-115 43l-13 0c-15 0-33-5-33-21 0-12 8-21 20-21 9 0 19 2 28 2 41 0 80-23 94-23 z" fill="#000000"/>
		<path d="M1211 987c79 0 135 36 182 98 3 5 8 7 13 7 18 0 65-104 197-104 115 0 217 100 217 214 0 120-95 219-218 219l-389 0c-116 0-221-92-221-216 0-119 97-218 219-218 z M1211 1025c-95 0-181 76-181 179 0 98 81 179 183 179l389 0c98 0 180-78 180-180 0-96-85-177-180-177-130 0-139 103-196 103-56 0-65-104-195-104 z" fill="#9B9B9B"/>
	</g></svg>
