<svg version="1.1" xmlns="http://www.w3.org/2000/svg" viewBox="0 0 2300 2300"><g transform="scale(1,-1) translate(-256, -1869)">
		<path d="M1425-270c21 0 31 10 31 29 0 3 0 7-1 10-1 3-2 6-2 9 0 2 1 2 3 4 1 0 2-2 5-6 3-5 7-10 12-15 5-6 10-11 17-15 6-5 13-7 20-7l5 1c7 1 13 5 16 14 1 1 2 3 2 5 0 1 0 3 1 4 0 3 0 4 1 4l5-2c2-2 4-3 7-3 7-15 19-23 36-23 16 0 30 5 42 16 8-7 17-10 26-10 8 0 14 3 19 8 4 5 6 11 6 19 7-7 16-13 27-17 10-5 20-7 29-7 13 0 23 4 30 13 7 8 11 18 12 31 5-3 11-6 18-7 6-2 12-3 19-3 7 0 14 1 21 3 7 1 14 4 19 8 5 4 9 9 12 15 2 3 2 7 2 11 0 3 0 7-1 11l8 0c-1-3-1-6-1-11 0-13 4-23 11-31 7-8 18-12 31-12 13 0 26 5 37 14 11 9 20 19 27 30 6-2 13-3 20-3 7 0 14 1 21 4 6 3 11 7 14 13 3-1 6-1 11-1 12 0 23 4 33 11 10 7 16 16 17 29 12 0 24 2 35 7 11 5 18 14 21 27l4 0c9 0 17 3 24 8 10-14 23-21 38-21 8 0 16 2 24 5 7 3 14 8 20 14 6 6 11 13 15 20 3 7 5 15 5 23 0 7-1 13-4 18-3 5-6 10-10 15 11 4 21 10 29 19 7 9 11 19 11 31 0 9-3 18-8 27 8 8 15 18 21 29 5 11 9 22 11 33 11 7 17 16 17 28 0 10-4 17-11 21-5 2-10 4-15 4l-10-2 0 17c19 5 31 14 37 28 3 10 5 20 5 31 0 5 0 11-1 16 11 3 20 9 28 16 7 7 11 17 11 29 0 13-4 27-13 40-9 13-18 24-29 31 5-5 13-7 22-7 11 0 21 4 29 11 7 7 11 17 11 28 0 5-1 11-3 16-2 5-5 10-8 15 2 6 3 12 3 18 0 8-2 15-6 20-5 5-10 10-17 14 2 5 3 10 3 16 0 13-6 23-17 30 3 3 5 9 6 16l1 10-1 9c7 0 13 3 17 10 3 7 5 13 5 20 0 11-5 20-14 26 3 2 4 5 5 9 1 4 1 8 1 11 0 5-1 11-2 17-1 5-5 9-10 11 0 1 0 2 1 3l0 2c0 4-2 8-7 13 2 2 3 5 3 8 0 3-1 6-2 10 4 6 6 13 6 22 0 8-2 16-6 23-5 7-11 13-19 16-2 13-9 22-20 29 3 3 5 7 7 12 1 4 2 8 2 12 0 9-3 15-8 20-5 5-12 8-19 9l-5 7c8 4 18 10 29 18 11 8 16 17 16 26 0 11-4 19-13 24-6 3-12 5-18 5-3 0-6 0-9-1 1 1 1 4 1 7l-1 14c5 5 8 12 8 20 0 7-2 15-7 22 6 9 9 18 9 26 0 7-2 14-5 20-4 6-9 11-16 14 7 0 13 2 17 7 3 5 5 11 5 18 0 9-3 18-8 25-4 6-10 9-18 9l-6-1c7 2 12 6 16 12 4 5 6 11 6 18 0 9-3 17-8 23-6 6-14 9-23 9 10 8 15 18 15 29 0 9-3 16-9 21-7 4-14 7-22 8 1 2 1 6 1 11 0 9-2 17-7 24-5 6-12 11-20 15 3 7 4 12 4 17 0 11-4 20-11 27-7 7-16 12-25 15-2 7-4 14-7 20-3 6-8 12-13 17 0 10-4 20-12 30l2 9 0 9c0 13-5 24-14 33 1 3 1 7 1 12 0 10-3 20-8 29-6 9-14 16-25 19-5 10-12 18-21 25-10 6-21 9-32 9-13 0-24-5-33-14-3 10-9 18-17 25-9 7-18 10-29 10-10 0-20-3-30-10 0 7-4 14-11 20l-19 12c-5 9-13 16-22 21-9 5-19 7-29 7-6 0-12-1-18-3-7 3-16 4-26 4-7 13-15 23-24 28-9 4-19 7-31 7l-6 0c-8 10-19 15-33 15-15 0-28-4-41-13l-6 0c-13 0-26-3-38-9-13-7-20-18-21-33l-2 0c-5 0-12-2-19-5-8-4-13-9-15-14-10 5-23 8-38 11-16 3-30 4-41 4-11 0-21-1-31-3 5 5 8 13 8 22 0 9-3 19-8 28-6 9-14 14-25 14-5 0-9-1-13-3-2 7-6 12-12 16-6 3-12 5-19 5-9 0-17-3-23-9-3 4-7 7-12 9-5 1-11 2-16 2-7 0-13-1-18-4-1 9-5 18-12 27-7 8-15 12-25 12-6 0-11-2-16-5-5-3-9-7-12-12-5 2-10 3-15 3-11 0-19-3-24-9-5-5-7-11-7-19l0-5c-1 0-3 0-4 1l-4 0c-9 0-16-2-21-7-5-5-8-12-8-21l2-15c-2 1-5 2-10 2-3 0-6-1-10-2-3 12-10 20-20 24-6 2-12 4-19 4l-13-2c-1 12-6 22-15 30-9 7-20 11-32 11-11 0-20-3-28-9-5 5-10 10-15 13-6 3-13 5-20 5-10 0-19-3-26-9-7-7-13-14-18-22-10 11-22 17-36 17-8 0-15-3-22-8-9 5-18 7-27 7-16 0-28-7-37-20-9-14-13-28-13-42 0-13 6-21 17-26-3-3-5-7-5-11l0-11c-1 1-4 1-7 1-9 0-16-4-21-11-4-6-5-12-5-19l0-5c-6 2-12 3-18 3-13 0-23-4-28-13-4-7-6-14-6-22l1-9c-2 1-5 1-10 1-9 0-17-3-24-9-7-6-10-14-10-24 0-5 1-9 2-12-8 9-17 14-28 14-11 0-18-5-22-14-4 1-8 2-11 2-7 0-13-2-19-6-6-5-9-11-9-18l-6 0c-11 0-20-3-25-10-4-6-7-14-7-23l0-4-3 0c-7 0-13-3-18-9-5-7-8-14-8-21 0-7 2-12 6-16-7-1-12-5-16-10-5-5-7-11-7-18 0-9 4-17 11-22-6-2-11-6-14-11-3-5-5-11-5-17 0-6 2-12 5-17-7-1-12-4-15-9-3-5-4-11-4-17 0-7 1-11 2-14-19 0-28-10-28-29 0-5 1-10 3-15-4 2-8 3-12 3-9 0-17-4-22-11-4-7-6-13-6-21l0-4c-7 3-12 4-17 4-9 0-16-3-19-10-3-7-5-15-5-23 0-12 2-23 7-32-6-6-9-13-9-20 0-7 4-13 11-16 7-3 13-5 20-5 6 0 12 1 17 3 0-7 3-12 9-15 1-8 2-15 5-21 3-6 9-10 18-12l-3-6c-3-6-1-6-7-6-11 0-20-4-27-13l-11 2c-9 0-17-3-23-9-6-7-9-15-9-24 0-14 6-27 17-39 11-12 21-22 31-29-9-3-15-7-18-14-4-7-6-14-6-22-8 5-15 7-22 7-6 0-11-2-15-5-4-3-6-8-6-14 0-10 4-19 12-28 7-9 15-16 22-21-10-3-18-9-24-18-7-9-10-19-10-30 0-15 6-29 18-42-7-6-11-14-11-24 0-13 5-24 16-31-11 0-19-4-26-11-7-7-11-16-11-26 0-9 3-16 8-21 5-6 11-10 18-12-7-2-13-6-17-13-5-7-7-14-7-21 0-10 4-18 11-24-5-3-9-6-11-11-2-5-3-10-3-15 0-5 2-11 5-16 3-6 7-10 13-11l-2-16c0-20 10-31 31-32-8-7-12-16-12-26 0-13 4-24 13-33-11-9-16-21-16-34 0-8 2-15 6-22 4-7 10-12 17-15-9-7-13-15-13-25 0-7 2-14 7-21 4-7 10-12 17-15-2-2-3-5-3-8-1-3-1-6-1-8 0-13 5-24 14-31l27-21c-11-8-17-18-17-29 0-9 4-17 11-24 7-7 15-10 24-10l-8-16c-2-5-3-11-3-16 0-13 5-25 16-35 11-11 22-17 35-19-7-5-12-11-16-18-4-7-6-15-6-24 0-6 1-12 4-19 3-7 6-13 11-18 5-6 10-11 17-14 6-3 12-5 19-5 6 0 11 2 16 6 4 4 7 9 9 14 3-1 7-2 12-2l12 2c1-7 5-14 11-21 5-7 11-12 16-16-1-1-1-3-1-6 0-7 3-14 10-20 6-6 13-9 20-9 2-12 7-20 14-24 4-2 10-4 16-4l12 2c0-11 4-20 13-27 9-7 18-11 29-11 14 0 24 7 31 21 4-2 9-3 14-3l9 1c5-14 12-25 20-33 8-8 20-12 35-12 11 0 21 5 29 15 7 9 13 19 17 28-3-5-4-12-4-19 0-13 5-22 16-26 8-3 15-4 23-4l8 0 0-3c0-9 3-17 9-24 5-7 13-11 23-11 7 0 14 2 19 7 5 5 9 11 11 18 0-9 2-16 7-23 5-7 12-10 21-10 10 0 17 5 22 15 4 10 7 19 8 27 3-3 8-7 14-10 5-3 11-5 16-5 7 0 14 2 19 7 5 4 10 9 14 14 4-9 11-18 20-27 9-9 19-14 30-14 5 0 11 1 16 4l13 9 11-10c3-3 8-5 13-5 5 0 12 2 19 7 4-2 10-3 18-4l17-2c13 0 22 3 27 10 5 7 7 16 7 28 2-5 6-11 11-16 5-5 12-10 19-14 7-4 14-7 21-10 7-3 14-4 19-4 z" fill="#EA9129"/>
		<path d="M2044-167c15 0 28 5 37 15 9 10 13 23 13 38 0 27-13 40-38 40-5 0-9 0-12-1l0 7c0 8-1 16-5 23-5 8-14 12-27 12-4 0-7 0-9-1l0 7c0 8-1 16-5 23-5 8-15 12-28 12 1 3 2 6 2 9l0 9c0 17-5 30-14 40-10 9-23 14-40 14-9 0-18-3-27-8-9-6-13-14-13-25 0-8 3-14 8-17 5-4 11-7 18-10 7-3 13-7 18-11 5-5 8-12 8-21 0-7-2-14-7-22l4 0c8 0 15-2 21-6 7-5 10-12 10-23 0-5-1-9-2-12l7 0c8 0 14-1 19-5 7-5 10-13 10-24 0-5 0-8-1-10l12 2c11 0 19-4 24-12 5-9 8-18 8-27l-2-14c4-1 8-2 11-2 z M1912-225c14 0 26 5 37 14 11 9 20 19 27 30l2 12c0 9-3 16-8 21-7 7-14 7-26 7l0 5c0 8-2 15-8 20-7 5-15 9-24 10l3 9c1 3 1 6 1 9 0 9-3 16-9 22-6 5-13 9-21 10 1 3 2 8 2 14 0 13-4 24-11 33-5-3-11-8-19-14l-25-21c-8-8-15-16-21-24-6-8-9-15-9-20 0-9 5-16 14-20 9-4 17-7 24-8-5-7-8-15-8-23 0-9 4-17 11-23 8-7 16-9 26-9l-1-9c0-11 3-20 9-29 7-11 18-16 34-16 z M1650-255c16 0 26 11 26 27l1-1c-1 7-3 13-8 18 15 4 34 17 34 35 0 19-20 29-36 29-26 0-65-28-65-56 0-24 22-52 48-52 z M1510-261c7 0 13 3 18 8 4 5 6 12 6 19l1 1c-1 5-4 11-8 18l-15 19-18 16c-7 4-13 6-19 6-5 0-11-1-16-4-6-3-9-8-9-15 0-1 0-3 1-4l0-2 1 1 2-10 3-11c4-3 8-7 11-12l10-14c3-5 8-8 13-11 5-3 11-5 19-5 z M1267-265c5 0 12 2 19 7 8-4 27-6 35-6 4 0 9 1 14 2 17 7 20 19 20 35-5 24-31 55-58 55-17 0-25-8-25-25 0-6 1-11 3-16-24 0-31-17-31-38 7-7 12-14 23-14 z M1072-270c5 0 9 2 12 5 3 3 6 6 9 11 2 4 4 8 5 13l3 13c3-3 8-7 14-10 5-3 11-5 16-5 7 0 14 2 19 7 5 4 10 9 14 14 2 9 3 18 3 28 0 14-3 27-9 38-6 11-17 16-33 16-13 0-23-6-30-18l-9 1c-8 0-14-2-19-6-7-6-13-13-16-22-3-9-5-19-6-30-1-11-1-20-1-29 0-7 3-13 9-18 5-5 12-8 19-8 z M2317 93c3 5 5 11 7 17 2 6 4 12 5 18 11 7 17 16 17 28 0 10-4 17-11 21-5 2-10 4-15 4l-10-2 0 17-3 0c-11 0-21 4-28 13-7 8-11 17-11 28 0 9 3 16 8 21-7-5-14-7-20-7-8 0-15 3-20 9-6 6-9 13-9 21 0 5 2 11 5 16-2-1-5-1-8-1-9 0-16 4-20 11-4 7-6 15-6 23 0 7 1 14 3 20-11 0-19-5-24-16-5-11-7-21-7-30 0-7 1-14 4-20 3-7 7-12 12-17-6-8-9-17-9-28 0-12 4-22 12-31 5-7 13-11 23-11l8 1c-5-7-7-14-7-23 0-10 4-19 11-27 7-9 15-13 26-13 5 0 10 1 14 3 1-13 6-24 15-32 10-11 21-13 38-13 z M783-194c15 0 26 8 31 23-1 3-1 7-1 10-1 3-1 7-1 10 0 10 3 18 9 24 5 6 13 11 22 15-4 6-6 12-6 19 0 9 3 16 8 23 5 6 12 9 21 10-3 5-4 10-4 15 0 9 3 17 10 24 6 7 14 10 23 10-1 5-1 9-1 12 0 4 0 7 1 10 2 5 6 10 11 14 5 3 10 6 17 9l20 6-36 28c-13 9-25 18-36 29-9-3-17-8-24-15-7-8-11-17-11-27 0-6 2-13 5-21-9-1-16-3-22-8-7-5-10-13-10-22 0-8 2-15 6-22-7 0-13-2-18-5-5-3-8-9-8-17 0-8 1-15 4-20-9 0-17-2-23-7-6-5-9-12-9-21 0-6 2-12 5-19-8-1-15-4-20-8-5-5-8-12-8-21 0-5 1-10 3-15 1-5 2-11 2-16 3-8 9-14 16-19 7-5 15-8 24-8 z M695-99c15 0 31 7 31 25 0 7-2 14-7 21 23 0 35 9 35 32 0 10-3 19-8 26 4-1 7-2 10-2 29 0 32 33 32 51 0 3-1 5-2 8l8-1c23 0 31 25 31 44 0 7-2 14-5 21 26 12 55 32 55 65 0 26-20 56-48 56-29 0-38-33-41-57-31 0-48-21-48-49 0-11 3-22 8-31-5 3-9 5-13 5-18 0-27-23-27-38 0-9 3-18 8-25-5 3-10 4-13 4-21 0-32-22-32-40 0-7 2-14 6-21l-9 1c-19 0-27-18-27-34 0-6 1-12 3-18l1 0c4-23 30-43 52-43 z M893-218c30 0 51 49 51 73 25 0 32 24 32 44l-2 15c24 3 49 36 49 59 0 27-32 55-56 55-23 0-41-21-41-42 0-7 1-12 4-15-20-3-33-15-33-35 0-6 1-11 3-15-19-4-30-17-30-36l2-12c-19-4-35-21-35-41 0-32 30-50 56-50 z M519 167c9 0 16 3 21 10 4 6 7 13 8 22 8 1 15 5 20 10 5 5 8 11 8 19 0 8-2 17-7 26 17 5 26 16 26 32 0 8-2 16-5 25 7 1 14 5 19 10 5 5 8 12 8 20 0 7-2 15-7 23 13 7 19 17 19 30 0 5-1 10-3 15-2 5-5 9-8 13 10 34 18 69 25 106 6 36 9 72 9 108 0 11-1 24-2 39-1 15-4 29-9 42-5 13-13 23-22 32-9 9-22 13-37 13-9 0-18-3-26-8-8-5-12-13-12-23 0-7 2-14 7-21l-9 1c-9 0-17-2-25-7-11-7-16-17-16-31 0-7 2-14 6-20 3-6 8-11 13-16-9-2-16-6-22-12-7-6-10-14-10-23 0-7 2-14 6-20 4-6 9-11 14-15-8-9-12-19-12-29 0-7 2-14 5-19 3-6 6-12 11-17-9-9-13-19-13-30 0-9 3-17 9-23 5-7 12-12 21-15-5-4-10-9-13-15-3-6-5-12-5-19 0-7 2-13 5-18 3-5 8-10 13-14-7-3-13-7-17-13-4-7-6-14-6-21 0-4 1-8 2-12l4-11c-8-3-15-7-20-14-6-7-9-14-9-22 0-9 3-18 9-27l-4 0c-7 0-13-2-17-6-6-6-9-13-9-21 0-6 2-12 6-19 3-7 8-12 13-17 5-5 12-10 19-13 7-3 13-5 19-5 z M642 75c10 0 19 4 27 12 8 7 12 16 12 27 0 4 0 7-1 9 7 2 14 5 20 10 6 5 9 11 9 20 0 5-1 11-3 16-2 5-4 11-7 16l4 0c9 0 17 3 22 9 6 7 9 15 9 26 0 10-3 19-9 27 10 1 19 4 28 9 8 5 15 12 21 20 5 7 10 16 13 26 3 9 4 19 4 28 0 22-7 38-20 49-13 11-31 16-52 16-13 0-25-4-34-11-9-7-14-18-14-33 0-5 1-11 3-17-8-1-15-5-20-11-5-7-8-14-8-22 0-9 3-18 10-27-8-1-15-4-21-9-6-5-9-12-9-21 0-7 2-16 7-25-9-1-17-5-22-11-6-6-9-14-9-23 0-3 0-7 1-10l3-10-5 0c-9 0-16-2-22-6-8-6-12-15-12-26 0-9 3-17 10-23 7-6 15-9 24-9 4 0 7 0 9 1 2-7 6-14 11-19 5-5 12-8 21-8 z M2299 306c9 0 16 3 23 8 7 5 10 13 10 22 0 5-1 9-2 14l-6 12c9 6 14 13 14 22 0 7-3 13-8 18-5 5-11 8-18 9 5 2 10 5 15 10 4 5 6 10 6 16 0 7-2 14-7 19-5 5-11 9-18 11 5 2 10 5 13 10 3 5 5 10 5 15 0 13-6 21-18 26 9 5 14 13 14 23 0 6-2 12-5 17-3 5-8 8-13 11 10 6 15 15 15 27 0 16-8 26-23 29 7 9 11 18 11 28 0 17-8 27-25 32 6 6 9 13 9 22 0 11-4 20-11 29-7 8-16 12-27 12 0 11-4 21-12 28-8 7-18 10-29 10-17 0-32-7-43-21-12-14-18-29-18-46 0-17 4-37 12-58 8-22 17-43 26-64 9-21 18-40 26-57 8-18 12-31 12-40l-1-2c-1-1-1-2-1-3-8-5-12-13-12-24 0-7 2-14 7-20 4-7 10-11 18-12-7-1-12-5-15-10-3-5-5-11-5-18 0-8 2-15 7-21 5-7 11-11 20-12-9-7-13-15-13-24 0-11 4-19 13-24 5-3 10-4 15-4 4 0 8 1 12 2 1-7 4-13 9-16 5-4 11-6 18-6 z M2215-106c8 0 16 2 24 5 7 3 14 8 20 14 6 6 11 13 15 20 3 7 5 15 5 23 0 5-1 11-3 18-3 6-6 11-11 15 11 4 20 11 28 20 8 9 12 19 12 31 0 11-4 21-11 28-8 7-18 10-29 10-3 0-6 0-9-1l-10-3 2 12c0 7-3 14-8 21-6 6-13 9-21 9-5 0-9-1-13-3 1 3 2 7 2 14 0 11-4 18-12 23-5 3-11 4-17 4l-9-1c6 6 9 14 9 24 0 10-4 18-11 24-6 4-13 6-21 6l-4 0c9 9 14 19 14 30 0 9-3 17-9 22-7 5-14 9-23 10 7 3 13 7 18 13 5 5 7 12 7 19 0 7-2 12-6 17-5 5-10 8-15 11 11 0 19 5 25 14 6 9 9 19 9 28 0 15-6 26-18 32-12 5-25 8-38 8-7 0-14-2-21-5-7-3-12-8-17-13-5-5-9-11-11-18-1-3-1-6-1-10 0-4 0-9 2-13-7-5-12-13-15-22-3-10-5-19-5-28 0-13 3-24 9-33 6-10 15-17 28-20-12-10-18-22-18-35 0-9 3-17 9-24 6-7 14-11 23-11-4-5-7-10-10-15-3-5-4-11-4-17 0-14 6-23 17-26 7-2 14-3 21-3l11 1c-3-4-5-8-7-12-2-5-3-9-3-14 0-9 3-17 10-22 7-6 14-9 23-9 7 0 12 1 15 4-1-3-1-7-1-12 0-9 3-17 8-24 5-7 13-10 23-10 7 0 13 2 18 5 5-17 16-29 33-34-5-1-10-3-14-6l-11-10c-4 16-14 24-31 24-10 0-20-4-29-12 1 2 1 5 1 9 0 9-3 17-8 23-5 6-13 9-22 9-5 0-10-1-17-4l4 10c1 3 2 6 2 9 0 11-5 19-14 23-7 2-14 3-21 3l-7 0c7 8 10 16 10 25 0 9-3 16-10 21-7 5-15 7-23 7l6 11c1 3 2 7 2 11 0 9-3 16-9 23-7 6-14 10-21 12 5 5 9 11 12 17 3 6 4 13 4 20 0 9-2 16-7 23-5 7-12 12-20 15-7-5-14-13-19-24-5-11-10-22-13-35-4-13-7-25-9-37-2-13-3-23-3-32 0-15 3-27 9-34 5-7 15-13 29-16-4-9-6-19-6-28 0-13 5-24 14-31 6-6 14-8 23-8 4 0 7 0 11 1-1-2-1-4-1-6l0-7c0-13 4-25 13-36 8-11 19-16 33-16 5 0 9 1 13 3 3-9 7-18 13-27 5-9 14-14 25-14 3 0 8 1 14 3 5 1 9 3 10 5 10-14 23-21 38-21 z M490 791c7 0 12 2 16 5 3 3 6 8 7 13l5 30c4-4 8-8 13-11 4-4 9-6 15-6 12 0 21 5 26 16 5 11 8 21 8 31 0 5 0 12-1 20-1 7-3 15-6 22-3 7-6 13-11 18-5 5-11 7-18 7-11 0-19-4-22-11-3-5-4-12-4-19l0-6c-6 2-12 3-18 3l-18-1c-7-3-12-8-15-15-3-7-5-15-5-22-7 5-16 8-25 8-7 0-13-2-17-7-4-5-6-11-6-18 0-9 5-18 14-25l25-19-1-1c6-3 12-6 18-8 6-3 13-4 20-4 z" fill="#212121"/>
		<path d="M759 360c121 0 216 97 216 215 0 121-99 216-216 216-121 0-216-99-216-216 0-119 97-215 216-215 z M2053 367c120 0 215 97 215 215 0 121-97 216-215 216-121 0-216-99-216-216 0-119 97-215 216-215 z" fill="#F4C6AD"/>
		<path d="M1405-215c92 0 178 16 258 48 79 31 149 75 208 132 59 56 107 123 143 201 35 77 55 162 59 254l15 376-1 6c-1 4-3 8-4 13-1 5-3 9-4 13l-2 7c-6 1-12 4-19 7-7 3-13 6-18 10-6 4-11 9-14 15-4 5-6 11-6 18 0 7 2 14 6 21 4 7 9 13 15 16-5 3-10 8-15 14-5 5-7 12-7 19 0 7 2 13 7 19 4 6 9 10 15 13-7 3-14 8-19 13-6 5-9 11-9 20 0 5 1 11 4 16l9 14c-8 2-14 6-18 12-5 6-7 13-7 21 0 8 2 16 6 23-8 0-16 3-23 8-7 5-11 12-11 21-3-2-6-3-9-4-4-1-8-1-11-1l9-8 10-6c3-3 5-6 7-9 2-3 3-8 3-13 0-9-3-16-10-21-7-6-15-10-22-13 10-7 15-16 15-28 0-7-2-12-6-16-4-5-10-7-17-7-7 0-15 2-22 5-8 3-15 8-22 13-7 5-12 12-16 19-4 7-6 14-6 21 0 16 7 27 22 34-5 4-9 9-12 14-3 5-5 11-5 18 0 7 2 14 6 21 4 6 9 11 15 14-13 5-20 14-20 28 0 9 3 17 10 23-1 3-2 5-2 7 0 5 2 9 5 14l0-1c-5-7-12-11-21-12-9-2-18-3-25-3l-16 2c-7 1-11 3-14 8-5-7-12-14-21-19-9-5-19-8-28-8-6 0-10 3-12 9-3 7-3 11-3 18l-4 2c0-3-1-9-4-17-3-8-6-13-9-14l1-8c0-7-3-14-10-19-9-7-18-11-27-11-11 0-20 4-25 12-6 8-10 17-12 26-5 1-11 3-16 7-5 3-9 8-11 13l-17-6c1-3 3-6 4-11 1-5 1-9 1-12 0-7-2-12-5-15l3 0c8 0 13-3 16-7 3-6 5-13 5-20 0-5-2-10-5-14-4-4-9-7-14-10-6-3-12-5-18-6-6-1-11-2-15-2-10 0-19 2-28 7-9 5-14 13-14 24 0 9 2 16 6 22l-8 0c-8 0-16 1-24 4-11 4-16 13-16 26l0 8c0 3 1 5 2 6-5-5-12-10-20-13l-22-12c3-2 4-5 5-8 1-3 1-7 1-10 0-10-2-17-7-20-5-4-12-7-21-8-4-5-10-9-18-12-9-3-16-4-22-4-12 0-21 4-27 13-9-17-22-26-41-26-7 0-13 1-20 4-7 3-14 6-20 11-6 5-11 10-14 17-4 6-6 13-6 20 0 9 3 17 8 24 5 7 11 13 18 18-8 3-15 7-20 13-6 5-9 12-9 21 0 9 3 17 9 24 6 7 13 12 20 15-6-3-13-4-22-4-9 0-17 3-23 8-9 6-10 15-10 27-13 0-26 4-38 12-15 10-19 20-19 38-3-2-5-4-8-5-3-2-7-3-10-3-5 0-9 2-14 5l2-9c0-11-5-20-16-28-11-8-21-12-30-12-6 0-11 1-14 4-7-9-16-13-27-13l-12 2c-2-5-5-8-10-11-5-3-9-4-14-4-2 0-4 0-5 1 0-7-2-13-5-19-4-7-10-10-17-10 1-3 2-7 2-12 0-7-1-13-4-18-3-6-9-9-16-10 8-5 12-14 12-25 0-7-2-12-6-17-4-5-9-8-16-9 9-5 14-14 14-26 0-7-2-13-7-17-5-5-11-7-18-8l0-3c0-10-4-18-12-23-9-6-19-9-28-9-11 0-20 4-27 11-10 10-11 18-11 33l-8-4c-3-1-7-2-10-2-5 0-9 2-12 6 0-9-1-18-4-26-3-8-11-12-22-12-6 0-12 1-18 3l6-11c1-5 2-9 2-13 0-7-3-13-8-17-5-5-11-7-18-7-5 0-9 1-13 3 3-3 7-7 10-12 3-5 4-10 4-15 0-7-3-13-8-18-6-5-13-7-20-7l-12 2c6-3 12-6 17-11 5-5 7-12 7-19 0-17-8-25-25-25-3 0-7 0-10 1l-10 3c7-3 13-8 18-13 5-6 8-13 8-20 0-7-2-13-7-18-5-5-11-8-19-8-10 0-14 2-16 8l-3-38c-1-13-2-26-2-39 0-13 1-26 2-38 1-13 1-26 1-39l-2 0 6-163c2-54 4-108 7-163 4-92 24-177 60-254 35-78 83-145 142-201 59-57 129-101 209-132 79-32 165-48 257-48 z" fill="#FFD7C2"/>
		<path d="M1406 90c83 0 166 39 212 113 3 4 4 8 4 11 0 10-10 20-20 20-4 0-7-1-10-3-63-31-121-44-186-44-65 0-124 14-186 44-3 2-7 3-10 3-10 0-20-10-20-20 0-3 1-7 4-11 47-73 129-113 212-113 z" fill="#990839"/>
		<path d="M1459 288c37 0 73 31 73 71 0 8-1 15-4 22l-71 228c-6 22-25 38-51 38-24 0-44-16-51-38-12-40-75-214-75-249 0-41 34-72 73-72l106 0 z" fill="#F1B99B"/>
		<path d="M1857 575c-87 30-169 44-259 72 38 59 109 115 182 115 54 0 96-14 142-50 15-12 30-25 30-46 0-38-69-73-95-91 z M969 575c87 30 169 44 259 72-36 57-108 115-181 115-56 0-96-15-142-50-15-12-31-25-31-46 0-38 69-73 95-91 z" fill="#000000"/>
		<path d="M1872 575l-299 0c-16 0-31 12-31 30l1 6c19 88 91 151 183 151 86 0 161-59 182-141l1-9c0-21-16-37-37-37 z M1239 575c16 0 31 12 31 30l-1 6c-19 89-96 151-183 151-86 0-161-59-182-141l-1-9c0-21 16-37 37-37l299 0 z" fill="#FFFFFF"/>
		<path d="M1814 575l-230 0c-3 11-5 22-5 32 0 68 57 120 120 120 68 0 120-57 120-120 0-10-2-21-5-32 z M1228 575c3 9 4 19 4 32 0 67-51 120-119 120-68 0-120-57-120-120 0-10 2-21 5-32l230 0 z" fill="#7D4533"/>
		<path d="M1758 575l-120 0c-5 11-8 21-8 32 0 38 28 68 68 68 40 0 68-30 68-68 0-11-3-21-8-32 z M1174 575c5 9 7 20 7 32 0 38-28 68-68 68-37 0-68-29-68-68 0-11 3-21 8-32l121 0 z" fill="#000000"/>
		<path d="M1661 631c12 0 21 10 21 22 0 12-9 21-21 21-12 0-21-9-21-21 0-12 9-22 21-22 z M1072 631c12 0 21 10 21 22 0 12-9 21-21 21-12 0-21-9-21-21 0-12 9-22 21-22 z" fill="#FFFFFF"/>
		<path d="M1881 827c19 0 35 15 35 36 0 13-6 24-17 31l-6 3c-60 31-123 49-191 49l-26 0c-29-1-62-9-62-39 0-21 16-37 37-37 17 0 34 4 53 4 41 0 126-17 157-42l1 0c7-3 13-5 19-5 z M931 827c6 0 12 2 19 5l1 0c29 24 119 42 157 42 19 0 36-4 53-4 21 0 36 16 36 35 0 31-31 39-61 41l-26 0c-68 0-131-18-191-49l-6-3c-11-7-17-18-17-31 0-21 16-36 35-36 z" fill="#212121"/>
		<path d="M739 1166c5 15 15 22 30 22l13-2-1 5c0 10 4 17 12 21 5 3 11 4 18 4l6 0c-6 4-10 9-13 16-3 7-4 14-4 21 0 7 2 14 5 22-6 3-11 7-15 12-5 5-7 11-7 18 0 5 1 9 3 13 1 4 3 8 6 11-13 3-22 9-26 17-4 7-6 17-6 30l-16-23c-6-9-9-18-9-27 0-5 1-10 3-15l7-14c-5-3-9-8-11-14-3-6-4-12-4-19 0-5 1-11 4-16 2-6 6-10 11-13-11-8-17-19-17-32 0-7 1-13 3-19 2-6 5-12 8-18 z M638 781c23 0 48 13 48 40 0 24-28 28-28 52 0 15 14 25 24 31-16 4-28 14-28 31 0 11 4 23 12 34-9-8-21-14-34-14-7 0-12 1-19 4-10-5-14-19-14-30 0-11 5-19 14-25-9-6-16-17-16-28 0-12 8-23 16-31-14-4-21-19-21-32 0-25 24-32 46-32 z M2299 796c7 0 13 2 18 5 6 4 7 11 14 14 5 8 7 15 7 22 0 16-12 28-28 28-10-12-22-18-37-18-19 0-41 13-41 33l1 6c-7-3-13-6-21-6-16 0-28 15-28 31 0 5 1 10 4 13-17 3-29 17-29 36l1 9c-14-7-22-21-22-35 0-11 4-18 13-22-9-8-14-17-14-27 0-18 13-27 29-28-3-5-5-11-5-17 0-18 14-30 30-30 11 0 21 5 29 14 0-18 18-27 33-27 9 0 16 3 21 10 7-7 16-11 25-11 z M474 925c13 0 23 5 30 14 7 9 12 19 15 30 11-10 24-15 38-15 13 0 25 4 34 13 9 8 15 18 18 31 8-6 17-9 28-9 14 0 25 5 32 16 7 10 11 22 11 35 0 10-2 20-7 29-5 9-14 14-25 14-7 0-14-2-20-7-6-5-10-12-11-19-3 3-7 5-11 7-4 1-8 2-13 2-11 0-19-4-24-11-4-6-5-13-5-20l0-7c-3 3-7 5-10 7-4 1-8 2-13 2-6 0-12-2-18-7-9-8-4-17-15-17-11 0-20-4-27-13l-11 2c-9 0-17-3-23-9-6-7-9-15-9-24 0-10 3-20 10-29 6-10 15-15 26-15 z M2361 581c5 0 8 0 10 1l0 1c7 0 13 3 17 10 3 7 5 13 5 20 0 11-5 20-14 26 3 2 4 5 5 9 1 4 1 8 1 11 0 5-1 11-2 17-1 5-5 9-10 11l0 3c0 6-2 11-6 15 2 2 3 5 3 8 0 3-1 6-2 10 4 6 6 13 6 22 0 8-2 16-6 23-4 7-10 13-18 16l0-5c0-9-2-17-5-24-4-9-12-13-25-13l-12 2c6-2 11-6 14-12 3-6 4-12 4-18 0-5-1-9-2-14-2-5-5-8-10-9 9 0 17-4 22-12 5-8 7-16 7-24 0-11-2-18-7-23-5-5-7-12-7-21 0-9 3-17 10-22 6-5 13-8 22-8 z M462 1068c8 0 15 1 21 4 3 3 7 8 10 13 3 5 5 10 6 15l15-2c7 0 12 2 16 5 5 5 9 15 12 28l7-1c5 0 9 1 12 3 5 3 10 7 14 12 3 5 6 12 8 19 2 7 3 13 3 18 0 5-1 12-3 20-3 8-6 16-10 23-5 7-10 13-15 18-6 5-12 7-18 7-7 0-13-3-18-8-5-6-8-12-8-19 0-5 1-10 3-14-4 2-8 2-12 2-6 0-11-1-16-5-11-8-12-16-12-30-3 3-7 4-12 4-7 0-14-3-20-9-7-7-10-14-10-21 0-5 0-12 1-19 1-7 3-13 6-18-5-5-7-11-7-19 0-17 9-26 27-26 z M743 892c8 0 15 3 20 8 5 5 7 11 7 19 0 7-2 14-7 19-5 5-11 9-17 12 6-2 12-3 18-3 17 0 25 8 25 25 0 7-2 14-7 19-5 5-11 8-17 11l12-2c7 0 14 2 20 7 5 5 8 11 8 18 0 5-1 10-4 15-3 5-7 9-10 12 4-2 8-3 13-3 7 0 13 2 18 7 5 4 8 10 8 17 0 4-1 8-2 13l-6 11c6-2 12-3 18-3 11 0 19 4 22 12 3 8 4 17 4 26l1 0-4 19c-1 7-3 13-6 19-3 6-7 11-12 15-5 3-12 5-20 5-9 0-16-2-21-6-4-4-6-10-6-17l0-4-8 0c-16 0-27-4-33-13-5-7-8-16-8-26l1-11c-10-3-18-8-24-16-6-8-9-17-9-27 0-6 1-12 3-18-8-3-14-8-19-15-5-7-7-15-7-24 0-5 1-9 2-13 1-5 3-9 4-13-7-1-12-5-15-12-3-7-5-14-5-21 0-7 2-15 6-22 4-7 9-14 16-20 6-6 13-11 20-14 7-4 14-6 21-6 z M2081 832c21 0 41 8 41 32 0 13-5 22-14 28 10 5 20 14 20 26 0 18-15 32-29 38 24 0 31 19 31 39 0 7-1 10-2 17-7-2-15-3-23-3-29 0-46 15-51 45l-9 1c-19 0-32-17-32-35 0-17 13-26 28-33-12-5-22-19-22-32 0-15 12-27 22-33-12-5-22-20-22-34 0-33 35-56 62-56 z M2285 869c21 0 67 26 67 50 0 18-13 28-30 28-5 0-9-1-11-2 0 4 3 7 3 12 0 15-18 25-33 25l-10-1c3 7 4 15 4 23 0 29-22 45-48 45-25 0-51-15-51-44 0-19 13-33 30-38-3-5-5-11-5-18 0-28 20-38 48-38l6 1c-3-3-4-8-4-13 0-19 17-30 34-30 z M2224 1066c15 0 30 11 30 26 0 6-3 12-9 18 7 8 10 17 10 27 0 18-13 38-34 41 7 7 13 15 13 26 0 17-15 34-33 34 5 8 7 16 7 23 0 19-18 31-36 34 3 7 4 14 4 21 0 24-17 34-42 34 0 20-9 42-32 42-16 0-30-12-30-28 0-13 8-24 17-33-7-4-11-10-11-19 0-15 11-39 29-39l4 1c-2-7-3-14-3-20 0-21 13-31 33-34-5-5-8-11-8-19 0-23 17-37 39-37-5-9-9-18-9-29 0-21 13-35 35-35 0-17 7-34 26-34 z M1987 1405c12 0 21 5 27 14 6 9 10 18 11 29 7 1 14 4 20 9 6 5 9 11 9 20 0 9-4 18-11 26-6 6-14 10-22 10l-3 0c2 5 3 10 3 16 0 11-4 20-12 27-8 6-15 8-24 8l-5 0c1 2 1 5 1 10 0 11-4 21-12 28-9 7-18 10-29 10-11 19-26 28-47 28-5 0-9 0-13-1l-13-3c14 0 25-4 32-13 6-8 9-17 9-28l0-5c9-3 17-9 22-17 5-9 7-18 7-27 0-7-1-14-3-20 9-3 17-8 22-15 5-7 8-16 8-25 0-9-2-17-6-24-4-7-6-15-6-23 0-9 4-17 11-24 7-7 15-10 24-10 z M2240 1298c2 5 3 10 3 16 0 10-3 19-10 27-7 8-15 14-24 17 0 8-2 15-5 20-3 5-8 9-15 13 1 3 2 5 2 8 0 5-2 10-5 14l-10 10c3 7 5 14 5 21 0 13-5 23-16 30l2 15c0 11-3 21-8 30-6 9-15 14-26 16-5 10-12 18-21 25-9 6-20 9-31 9-14 0-26-5-37-16l0 1c-4-6-6-13-6-20 0-11 4-20 12-26 7-7 17-10 28-10-2-5-3-11-3-16 0-9 3-16 9-21 6-5 13-8 22-9-2-4-3-8-3-13 0-9 4-16 11-20 7-4 15-7 23-10 7-3 14-8 19-13 3-3 4-6 4-11 0-5-1-10-3-16 11 0 20-4 29-11 9-7 13-17 13-28 0-5-1-9-3-13 17 0 32-6 44-19 z M2106 1033c9 0 17 3 24 9 6 5 9 13 9 22 0 5 0 8-1 11 12 7 18 16 18 29 0 9-3 16-8 22-5 5-12 9-20 10 3 5 5 11 5 18 0 10-4 19-12 26-9 7-18 10-27 10 5 9 8 17 8 26 0 9-3 17-9 22-6 5-14 8-23 9 5 7 8 16 8 25 0 9-3 17-9 23-7 6-15 9-24 10l2 13c0 8-2 15-7 22-7 9-18 14-32 14-7 0-13-1-18-4-5-3-9-8-11-15 7-3 13-9 18-16 4-8 6-16 6-24 0-11-5-21-14-28 9-5 16-11 21-19 5-9 7-18 7-27 0-8-2-15-5-21-4-7-6-14-6-22 0-11 3-20 10-26 10-8 18-9 32-9-11-7-17-16-17-29 0-10 4-18 11-24 10-9 17-9 32-9-3-5-4-10-4-17 0-10 4-18 11-23 7-5 16-8 25-8 z M635 1105c19 0 25 21 28 36 19 3 41 15 41 38 0 17-15 26-29 31 14 5 28 15 28 32 0 15-9 27-20 36 18 3 29 20 29 37 0 11-5 20-14 26l2 0c23 0 28 31 28 50 23 0 33 28 33 47 0 23-20 69-48 69-18 0-29-17-29-33 0-12 6-23 14-32-7 4-14 6-21 6-18 0-31-13-31-30 0-15 8-26 19-35l-9 1c-19 0-39-13-39-35 0-12 8-22 17-29-14-6-33-20-33-39 0-15 11-26 21-34-12-9-23-23-23-38 0-15 11-27 23-35-11-9-18-20-18-35 0-16 12-34 31-34 z M1939 1008c15 0 25 11 25 26 0 11-5 20-14 26 14 4 32 13 32 32 0 18-15 30-29 38 7 0 15 1 20 5l0-1c9 6 14 15 14 27 0 14-8 28-22 35 15 7 22 18 22 33 0 15-6 27-18 38 7 9 11 18 11 28 0 15-9 31-22 39 5 9 7 18 7 27 0 23-19 37-40 37-18 0-33-11-33-30 0-8 3-16 6-24-15-3-23-18-23-32 0-13 6-27 18-32-11-7-16-20-16-32 0-13 5-22 15-29-7-6-11-14-11-24 0-13 9-22 21-27-12-6-22-19-22-34 0-15 7-25 18-33-14-6-25-20-25-36 0-32 35-57 66-57 z M1978 1122l-5 10c1-3 2-6 5-10 z M1887 1421c13 0 25 5 35 15 9 10 14 22 14 35 0 11-3 21-8 31-5 9-12 17-21 23 5 7 7 14 7 21 0 9-3 17-9 25-6 8-14 12-23 12 2 5 3 10 3 17 0 11-4 21-12 28-8 7-17 11-28 12-7 13-15 23-24 29-9 5-21 8-36 8-4 5-10 9-18 12-9 2-16 3-23 3-7 0-14-1-19-4l-16-11-10 1c-5 0-11-1-17-3-7-2-13-5-18-8-6-4-11-9-15-14-4-5-6-11-6-17 0-9 3-17 9-23 5-6 13-9 22-9 10 0 17 4 21 12 1-5 5-9 10-10 5-2 10-3 14-3 6 0 11 1 16 4l0-2c0-7 3-12 9-17 5-5 11-7 17-7 5 0 8 1 10 2-3-4-4-7-4-10 0-9 4-15 12-18 5-3 10-4 15-4l7 1-2-13c0-10 3-17 10-20 6-3 12-5 19-5l4 0c-6-7-9-14-9-21 0-9 3-15 10-19 7-5 14-7 21-7-2-5-3-10-3-14 0-10 4-18 11-23 7-6 16-9 25-9 z M1793 1261c11 0 20 3 27 10 7 7 10 16 10 27 0 5-1 9-2 14l-4 14c5 3 10 8 13 13 3 5 4 11 4 17 0 11-3 20-9 29-7 8-15 13-25 16 8 7 12 15 12 24 0 9-4 18-11 27-7 8-16 12-26 12-5 0-9-1-13-3l4 11c1 3 2 7 2 11 0 11-4 20-13 25-6 3-13 5-20 5l-10-1c2 5 3 10 3 15 0 8-3 15-8 20-5 5-12 8-20 8-7 0-13-1-18-4 1 2 1 5 1 10 0 8-2 15-7 22-5 7-12 10-21 10-5 0-10-2-15-5l0 5c0 7-2 14-7 19-5 5-11 8-18 8-5 0-9-1-13-3-3 3-8 5-14 7-7 2-14 4-21 5l-22 3-18 0c-9 0-19-1-29-3-11-3-19-8-26-15 5 2 9 3 14 3 9 0 17-2 24-7 6-5 10-13 11-22l12 2c11 0 19-4 26-12 4-5 6-11 6-17l-2-10c2 1 5 1 9 1 11 0 19-4 24-11 3-5 4-9 4-14 0-4-1-8-2-12 14-1 24-5 29-12 5-7 7-17 7-30 13-3 23-7 30-13 6-7 9-17 9-31 11-2 20-6 27-13 7-7 10-17 10-28 0-6-1-12-3-18 11 0 22-2 33-7 10-5 15-15 15-28 0-7-2-14-5-21-3-7-5-14-5-21 0-11 5-19 14-24 9-5 18-8 27-8 z M903 1180c8 0 16 3 25 9 8 5 12 13 12 22 0 6-2 12-6 17-4 5-8 9-13 12 7 1 12 5 16 10 3 5 5 11 5 18 0 13-5 21-16 25l6 0c7 0 14 1 19 4 7 4 11 11 11 22 0 5-1 11-3 16 3-1 5-2 8-2l6 0c10 0 18 3 23 10 5 6 8 14 8 23 5-4 11-6 18-6 7 0 14 3 19 8 5 5 9 12 10 19 4-7 11-11 20-11 7 0 13 2 18 6 5 4 9 9 12 15 8-3 15-5 22-5 11 0 20 4 26 13 6 9 9 18 9 29 0 9-2 17-7 24-6 9-13 11-24 11 1 4 1 7 1 10 0 8-2 14-7 20-7 8-16 12-28 12-9 0-17-3-24-8-7-5-10-13-10-22-11 8-23 12-34 12-9 0-18-3-25-8-7-6-11-14-11-24 0-3 0-6 1-8-7 4-15 6-24 6-9 0-17-3-23-8-6-6-9-14-9-23 0-3 0-6 1-9l3-10c-4 1-8 1-12 1-9 0-17-2-24-5-11-6-17-16-17-31 0-9 3-18 10-27l-4 0c-10 0-19-3-28-7-10-5-15-15-15-28 0-7 2-13 5-18 3-6 6-11 11-15-9-2-17-6-23-13-6-7-9-15-9-24 0-11 4-21 12-28 10-10 19-11 35-11 1-15 9-23 24-23 z M1593 1122c5 0 10 1 16 2 6 1 12 3 17 6 5 3 10 6 14 10 3 4 5 9 5 15 0 7-2 14-6 19-3 4-8 7-15 7l-3 0c3 3 5 8 5 15 0 3 0 7-1 12l-3 10-1-1 0 1-1 0 1 1c-4 8-8 15-12 20-4 5-10 9-19 12 2 5 3 10 3 17 0 8-3 15-8 21-5 6-12 10-21 11l3 10c1 3 1 7 1 10 0 11-4 21-11 29-8 7-18 11-29 12l1 8c0 13-4 24-12 32-9 7-19 11-32 12l0 3c0 27-14 41-42 41l0 6c0 13-5 23-16 29-8 5-16 7-25 7l-8-1 0 2c0 9-3 17-9 23-7 5-15 8-24 8-7 0-14-1-19-4 0 9-4 16-11 21-8 4-16 6-24 6-9 0-15-2-19-5-8 9-19 14-32 14-15 0-26-7-32-20-3 1-7 1-12 1-14 0-26-4-37-13-11-9-17-21-17-36 0-10 3-20 10-30 3 6 8 11 13 16 5 5 11 7 18 7 9 0 17-4 25-12 3 4 7 8 11 11 4 3 9 4 14 4 7 0 13-2 18-7 5-5 8-10 9-17 7 5 15 8 24 8 7 0 13-2 18-7 5-5 7-12 8-19 6 2 12 3 17 3 11 0 19-3 23-10 3-5 4-10 4-16l-1-10c3 1 6 1 11 1 11 0 21-3 28-10 7-7 10-15 10-26 0-6-1-11-3-16 11 0 20-3 27-10 7-7 11-17 11-28 0-8-1-15-4-20 3-6 7-11 12-15 5-5 11-7 18-7-3-5-4-11-4-18 0-11 4-21 11-29 6-8 14-11 23-11l4 0-3-9 1 1c-1-1-2-3-2-6l0-8c0-13 5-22 16-26 8-3 16-4 24-4l8 0c-4-6-6-13-6-22 0-11 5-19 14-24 9-5 18-7 28-7 z M1432 1147c11 0 21 2 30 5 9 3 13 11 13 24 0 11-5 20-14 25-10 5-20 8-29 9 7 3 14 8 19 15 5 6 7 13 7 22 0 9-3 18-9 26-6 7-13 13-22 16l3 10c1 3 1 6 1 9 0 11-4 21-11 28-8 7-17 12-28 15l2 15c0 12-4 21-11 28-6 6-15 9-25 9l-4 0 0 3c0 13-4 21-12 25-5 2-11 3-18 3l-11-1c-1 8-5 14-11 17-6 3-13 5-20 5-6 0-12-1-18-3-2 5-5 8-10 11-5 2-10 3-15 3-7 0-13-2-20-7-7 3-13 5-18 5-11 0-21-4-28-12-7-9-11-18-11-29 0-15 6-25 18-30 11-5 23-8 35-9l0-3-1-2c0-9 4-17 12-22 8-6 16-9 25-9 7 0 13 2 18 6-1-2-1-5-1-8 0-8 3-15 8-21 5-6 11-9 19-9 3 0 7 1 10 2l8 4c-3-5-5-10-5-15 0-11 5-19 14-22 7-3 16-5 23-5l5 0c-5-5-7-11-7-19 0-10 4-19 12-26 6-6 14-9 23-9l4 0c-7-11-10-22-10-33 0-15 7-27 20-34 13-8 26-12 40-12 z M1714 1126c7 0 14 3 21 8 7 6 9 12 9 22l4 0c5 0 11 2 16 5 5 3 8 9 8 17 0 8-3 15-8 21-7 6-14 8-23 8 6 6 9 14 9 23 0 9-3 17-9 22-6 5-13 8-21 9 4 6 6 13 6 20 0 8-3 15-8 22-5 6-12 10-20 11 3 5 4 11 4 18 0 9-3 17-8 23-6 5-13 9-21 11 1 3 2 8 2 14 0 9-3 17-8 24-7 8-15 10-25 10 2 4 3 9 3 14 0 8-3 15-9 22-6 6-13 10-20 11 0 23-11 35-32 38l0 5c0 8-2 15-8 22-7 7-15 11-25 11 0 10-3 18-9 25-6 7-14 10-24 10-5 0-8 0-10-1l1 5c0 7-4 13-10 18-8 5-16 8-24 8l-12-2c0 17-8 25-25 25-7 0-12-2-17-6-2 5-6 9-11 12-5 3-11 4-16 4-4 0-8-1-12-2-4-1-7-4-10-7-7 4-15 6-22 6-15 0-25-7-30-20l-13 2c-7 0-14-2-20-7-9-7-13-18-13-31 11 3 22 5 32 5 11 0 20-2 29-7 8-5 14-12 19-22l13 1c8 0 15-1 21-3 10-4 16-13 19-28 3 1 7 2 14 2 11 0 18-3 21-8 3-5 6-11 8-17 2-7 5-13 9-18 3-5 10-8 21-8 1 0 3 0 5 1l4 0-2-9c0-5 2-10 6-14 6-7 14-10 23-10 5 0 8 0 10 1-3-5-4-10-4-14 0-7 3-14 9-19 5-6 12-9 19-9 4 0 7 0 9 1-2-4-3-9-3-14 0-9 3-17 9-22 6-6 14-8 26-8l-3-7c-1-3-1-6-1-9 0-11 4-18 12-23 8-5 17-7 26-7-3-3-5-7-6-11-2-5-3-9-3-14 0-7 3-13 8-17 5-4 11-7 18-8-3-3-4-7-5-11-1-4-2-8-2-11 0-9 3-17 8-22 5-5 12-9 20-12-4-3-7-6-8-11-2-5-3-9-3-14 0-9 3-16 8-21 5-5 11-8 20-8 1 0 3 0 4 1l4 0c0-7 2-13 7-18 5-5 11-8 19-8 z M826 1344c13 0 24 4 32 12 6 6 10 15 10 24l-1 8c6 1 11 4 15 9 4 4 6 9 6 15 0 8-3 16-9 23 5 3 10 6 15 10 4 4 6 9 6 16 0 4-1 8-2 12l-6 10c12 0 19 4 22 13 2 4 2 9 2 14 0 4 0 8-1 12 5-3 10-4 13-4 8 0 14 3 19 10 4 6 6 13 6 20 3-5 7-8 12-9 5-2 9-3 14-3 13 0 23 4 30 12 1-5 5-9 10-12 5-3 10-4 15-4 13 0 21 5 25 16l6 0c9 0 17 3 23 9 6 5 9 13 9 22 0 13-5 23-14 30-10 7-21 11-32 12l0 4c0 7-3 13-9 17-6 3-12 5-18 5-8 0-14-2-19-7-2 5-6 9-11 12-6 2-12 3-17 3-5 0-9-1-13-2-5-2-8-5-11-9-1 4-4 7-9 9-5 1-9 2-13 2-5 0-10-1-15-3-5-3-8-7-10-12-3 3-6 4-11 4-7 0-15-3-22-10-7-6-10-13-10-20l0-3c-1 1-3 1-6 1-7 0-14-3-20-9-6-7-9-14-9-21 0-5 1-8 3-11-7 0-12-3-15-8-3-6-5-12-5-18 0-5 1-9 3-14 2-5 5-8 10-9l-6 1c-7 0-13-3-18-8-5-5-8-12-8-19 0-12 5-21 15-26-7 0-13-2-18-7-5-5-8-11-8-18 0-13 6-23 18-30-5-3-10-6-15-10-5-5-7-10-7-17 0-12 5-22 16-31 11-9 22-13 33-13 z M1167 1556c9 0 17 3 25 9 8 5 12 13 12 22 0 6-1 12-4 17-3 5-7 10-11 14 3 3 6 8 7 13 1 5 1 9 1 14 0 5 0 9-1 12l-1-1 0 1c-1 4-2 8-5 12l-10 9c-5 4-11 6-18 7l-6 0-13-1c0 11-5 22-14 31-9 9-20 13-31 13-5 0-10-1-15-3-5-2-10-5-15-8l-15 13c-5 3-12 5-21 5-9 0-18-3-25-8-8-6-14-13-19-21-1 7-5 13-11 16-7 3-13 4-19 4-5 0-10-1-15-2-5-1-10-4-13-7-7 5-14 8-23 8-17 0-31-7-40-20-10-14-15-29-15-45 0-3 0-6 1-9 0-3 1-6 3-9 9 12 21 18 35 18l10-1c3 6 8 10 13 13 5 3 11 4 18 4 10 0 19-3 26-9 8 7 16 10 25 10 12 0 22-5 29-14 5 5 13 7 22 7 13 0 22-3 27-8 5-5 8-11 11-17 2-6 5-12 8-17 3-5 10-8 19-8 4 0 9 1 14 4-8-6-12-13-12-22 0-11 4-17 12-20 4-2 9-2 13-2 4 0 7 0 11 1 1-8 5-14 10-18 5-5 12-7 20-7 z M1250 1583c0 15 5 27 14 35 6 6 14 8 24 8 4 0 8 0 12-1-5 7-8 16-8 25 0 13 4 22 11 25 7 3 15 5 24 6 9 1 17 3 24 6 7 3 11 11 11 24 0 11-4 20-12 28-8 7-17 11-28 11-13 0-22-6-29-18-3 3-8 4-14 4-9 0-17-3-24-10-6-6-8-12-8-20l0-4-7 1c-7 0-15-2-22-6-7-5-11-12-11-21 0-6 2-12 5-17l-1 0c6-5 9-12 9-21 0-8-2-14-7-19 11-1 19-5 24-11 5-7 9-15 13-25 z" fill="#212121"/>
	</g></svg>
