<svg version="1.1" xmlns="http://www.w3.org/2000/svg" viewBox="0 0 2300 2300"><g transform="scale(1,-1) translate(-256, -1869)">
		<path d="M1642 649c128 0 232 104 232 231 0 19-2 36-6 52-6 22-21 50-21 66 0 7 1 11 4 16 14 34 24 67 24 103 0 114-124 163-124 208l-834 0c0-45-123-96-123-208 0-36 9-69 23-103 3-5 4-9 4-16 0-5-1-10-4-17-15-35-23-64-23-101 0-127 101-231 232-231l616 0 z" fill="#593B39"/>
		<path d="M2124-287l0 246c0 237-105 460-287 613l-72 3-72 92c-112 59-235 88-359 88-125 0-247-29-359-86l-72-94-72-1c-185-153-288-376-288-610l0-251 1581 0 z" fill="#D3D3D3"/>
		<path d="M1837-287l0 859c-45 38-93 70-144 95l0-379c0-38-31-72-71-72l-575 0c-39 0-72 31-72 72l0 381c-51-27-100-58-144-95l0-861 1006 0 z" fill="#0084CE"/>
		<path d="M1581 313c23 0 41 19 41 41l0 348c-92 35-189 54-288 54-99 0-195-19-287-54l0-348c0-23 18-41 40-41 9 0 16 3 23 8l195 168c8 7 18 10 29 10 13 0 23-3 30-10l194-168c7-5 14-8 23-8 z" fill="#E6E6E6"/>
		<path d="M1136-113c73 0 128 60 128 128 0 73-58 129-128 129l-105 0c-72 0-128-58-128-129 0-73 60-128 128-128l105 0 z" fill="#F8312F"/>
		<path d="M1136-77c50 0 92 39 92 92 0 52-42 93-92 93l-105 0c-52 0-92-42-92-93 0-50 39-92 92-92l105 0 z" fill="#E6E6E6"/>
		<path d="M1334 527c80 0 144 69 144 147l0 184c0 82-65 148-144 148-80 0-144-67-144-147l0-184c0-82 65-148 144-148 z" fill="#BB806E"/>
		<path d="M1664 988c63 0 117 50 117 117 0 63-50 117-117 117-64 0-117-53-117-117 0-64 53-117 117-117 z M1003 988c63 0 117 50 117 117 0 63-50 117-117 117-63 0-117-50-117-117 0-63 50-117 117-117 z" fill="#BB806E"/>
		<path d="M1334 687c188 0 345 132 353 337 3 72 9 145 9 217 0 48-24 103-81 103l-228 0c-96 0-164 40-227 119-5 6-10 9-16 9-16 0-18-15-23-26-43-106-149-74-149-194 0-76 6-152 9-228 8-195 157-337 353-337 z" fill="#C68D7B"/>
		<path d="M1573 1108c-49 16-95 28-144 44 21 29 53 59 94 59 27 0 94-13 94-49 0-22-30-40-44-54 z M1097 1108c47 16 97 26 144 44-21 31-54 59-95 59-26 0-94-15-94-50 0-21 29-39 45-53 z" fill="#000000"/>
		<path d="M1589 1103l-161 0c-7 0-16 7-16 14 0 49 53 87 98 87 39 0 99-37 99-80 0-11-10-21-20-21 z M1241 1103c12 0 17 9 17 20 0 43-58 81-99 81-40 0-98-37-98-80 0-11 10-21 20-21l160 0 z" fill="#FFFFFF"/>
		<path d="M1558 1103l-124 0c-1 7-2 11-2 18 0 35 27 64 64 64 35 0 64-30 64-64 0-7-1-11-2-18 z M1236 1103c1 3 2 6 2 9l0 9c0 34-28 64-63 64-17 0-32-6-45-19-16-16-19-37-19-54 0-3 1-6 2-9l123 0 z" fill="#7D4533"/>
		<path d="M1528 1103l-65 0c-3 7-4 11-4 18 0 19 16 36 37 36 19 0 36-15 36-36 0-7-1-13-4-18 z M1207 1103c3 5 4 11 4 18 0 19-15 36-36 36-19 0-37-14-37-36 0-7 1-13 4-18l65 0 z" fill="#000000"/>
		<path d="M1474 1134c7 0 11 5 11 12 0 7-4 11-11 11-7 0-12-4-12-11 0-6 6-12 12-12 z M1152 1134c7 0 12 6 12 12 0 7-5 11-12 11-7 0-11-4-11-11 0-7 4-12 11-12 z" fill="#FFFFFF"/>
		<path d="M1334 849c23 0 45 6 67 17 23 12 52 41 52 52 0 7-5 11-12 11l-2 0c-60-20-70-25-105-25-35 0-69 8-102 24l-5 1c-7 0-11-3-11-10 0-2 1-4 2-7 24-42 72-63 116-63 z" fill="#990839"/>
		<path d="M1361 970c21 0 38 16 38 38 0 18-17 66-29 101-13 36-14 47-37 47-13 0-22-6-26-19-8-26-38-106-38-129 0-21 16-38 38-38l54 0 z" fill="#AB6A55"/>
		<path d="M1589 1248c10 0 19 9 19 20 0 32-95 43-113 43l-14 0c-17 0-35-5-35-22 0-10 9-19 20-19 9 0 18 2 27 2 28 0 61-6 85-21l1 0c3-2 6-3 10-3 z M1080 1248c13 0 57 24 95 24 11 0 20-3 29-3 9 0 19 9 19 19 0 17-18 23-35 23-56 0-87-8-117-26l-1 0c-6-4-9-10-9-18 0-11 8-19 19-19 z" fill="#593B39"/>
		<path d="M1751 1325c5 25 7 52 7 81 0 213-140 319-346 319l-156 0c-204 0-346-105-346-319 0-29 2-56 7-81l5 1c104 70 275 111 412 111 136 0 286-33 412-111l5-1 z" fill="#0084CE"/>
		<path d="M1661 1261c43 0 66 32 90 64-119 108-272 152-417 152-147 0-299-43-417-152 24-31 46-64 90-64 14 0 24 2 36 9 102 47 187 71 291 71 104 0 189-24 291-71 12-7 22-9 36-9 z" fill="#00A6ED"/>
		<path d="M2197 0l0 150c0 40-36 66-72 66-36 0-72-26-72-66l0-150 144 0 z" fill="#BB806E"/>
		<path d="M2018-215c19 0 36 7 51 21 14 14 21 31 21 50l0 455c0 7 4 13 11 18l16 10c5 3 10 6 15 11 21 17 37 37 48 61 11 24 17 49 17 76 0 32-9 63-26 92-18 29-41 50-70 65-2 1-5 2-10 2-10 0-16-5-19-14-2-7-3-15-3-24l0-10c0-14 1-29 2-45l0-13c0-11-1-21-2-31-3-14-8-26-15-35-8-9-21-14-39-14-17 0-30 5-37 14-7 9-12 21-14 35l-2 25 1 20c1 16 1 31 1 45 0 13-1 25-4 34-3 9-9 14-19 14l-9-2c-29-15-52-36-69-65-17-29-26-59-26-91 0-20 2-38 7-53 4-15 10-29 19-42 9-13 19-24 31-34 12-11 26-21 41-32 7-5 11-11 11-18l0-454c0-19 7-36 22-50 14-14 31-21 50-21 z" fill="#9B9B9B"/>
		<path d="M2140-287c34 0 57 30 57 62l0 253c0 32-23 62-57 62l-216 0c-33 0-50-29-50-58 0-16 8-32 21-43-15-11-22-25-22-44 0-19 7-34 22-45-15-11-22-25-22-44 0-19 7-34 22-45-14-11-21-25-21-42 0-30 17-56 50-56l216 0 z" fill="#C68D7B"/>
	</g></svg>
