<svg version="1.1" xmlns="http://www.w3.org/2000/svg" viewBox="0 0 2300 2300"><g transform="scale(1,-1) translate(-256, -1869)">
		<path d="M1755 402c143 0 262 116 262 262 0 38-7 80-26 115-4 8-6 11-6 19 0 7 1 11 4 18 16 37 26 75 26 116 0 124-87 172-87 293 0 146-117 268-267 268-18 0-27 6-37 19-56 72-126 112-218 112-92 0-156-39-218-112-11-13-23-19-38-19-149 0-268-120-268-268 0-52-14-100-42-145-30-48-45-93-45-148 0-42 10-78 27-116 3-5 4-12 4-19 0-7-1-11-4-18-16-39-26-73-26-115 0-143 115-262 262-262l697 0 z" fill="#FFF9BA"/>
		<path d="M2004-287l102 290-102 303c-160 149-375 233-594 233-223 0-435-84-598-236l-72-300 72-290 1192 0 z" fill="#00A6ED"/>
		<path d="M1522-287l-72 386 100 189-144 36-144-36 100-189-83-386 243 0 z" fill="#0074BA"/>
		<path d="M1556 180c14 0 26 11 29 26l55 305c-61 42-159 64-234 64-73 0-174-22-234-64l55-305c3-15 15-26 29-26 20 0 120 98 149 122 21-19 129-122 151-122 z" fill="#50E2FF"/>
		<path d="M812-287l0 590c-171-160-252-360-287-590l287 0 z M2286-287c-32 235-117 434-286 593l0-593 286 0 z" fill="#0084CE"/>
		<path d="M1406 324c98 0 180 79 180 179l0 36-360 0 0-36c0-98 79-179 180-179 z" fill="#E4B29A"/>
		<path d="M1785 847c71 0 133 58 133 133 0 71-58 133-133 133-71 0-133-58-133-133 0-71 58-133 133-133 z M1036 847c71 0 132 59 132 133 0 74-58 133-132 133-76 0-133-62-133-133 0-71 58-133 133-133 z" fill="#E4B29A"/>
		<path d="M1407 479c221 0 388 159 399 382 3 81 10 163 10 244 0 56-27 117-90 117l-259 0c-109 0-186 49-256 135-5 6-10 9-17 9-9 0-15-3-17-9-18-49-52-94-105-119-3-1-6-3-9-3-45-24-65-71-65-117 0-85 7-172 11-257 11-222 177-382 398-382 z" fill="#EEBFAA"/>
		<path d="M1673 958c-56 19-106 31-162 49 22 36 59 67 106 67 31 0 106-16 106-55 0-24-35-49-50-61 z M1136 958c56 19 106 31 162 49-22 36-59 67-106 67-31 0-106-16-106-55 0-24 35-49 50-61 z" fill="#000000"/>
		<path d="M1691 953l-181 0c-13 0-19 10-19 22 0 4 6 19 7 23 19 43 61 68 105 68 45 0 110-39 110-92 0-11-11-21-22-21 z M1300 953c14 0 19 12 19 22 0 4-6 19-7 23-19 43-61 68-105 68-44 0-111-39-111-91 0-12 11-22 23-22l181 0 z" fill="#FFFFFF"/>
		<path d="M1656 953l-140 0c-2 6-3 13-3 20 0 42 36 72 73 72 20 0 37-7 51-21 18-18 21-38 21-61 0-3-1-7-2-10 z M1294 953c2 6 3 13 3 20 0 40-36 72-74 72-38 0-72-33-72-72 0-7 1-13 3-20l140 0 z" fill="#7D4533"/>
		<path d="M1622 952l-74 0c-1 7-4 13-4 20 0 23 20 41 42 41 22 0 41-18 41-41 0-7-2-13-5-20 z M1261 952c3 7 4 13 4 20 0 23-20 41-42 41-22 0-41-18-41-41 0-7 2-13 5-20l74 0 z" fill="#000000"/>
		<path d="M1561 988c9 0 13 4 13 13 0 9-4 13-13 13-9 0-13-4-13-13 0-9 4-13 13-13 z M1198 988c9 0 13 4 13 13 0 9-4 13-13 13-9 0-13-4-13-13 0-9 4-13 13-13 z" fill="#FFFFFF"/>
		<path d="M1925 1258c11 0 20 6 23 17l46 164c3 12 5 23 5 32 0 53-35 94-80 109l-354 119c-52 17-104 26-157 26-52 0-104-9-156-26l-358-119c-47-16-81-59-81-111 0-11 1-21 4-30l46-164c3-11 12-17 23-17l1039 0 z" fill="#00A6ED"/>
		<path d="M1863 1234c30 0 57 25 57 56 0 29-17 50-44 58-139 40-297 57-450 57-145 0-307-15-447-56-26-8-43-29-43-56 0-33 27-58 57-58l15 2c140 34 277 52 418 52 142 0 279-18 422-53l15-2 z" fill="#50E2FF"/>
		<path d="M1609 1080c124 0 228 67 285 165-152 44-308 67-467 67-158 0-310-24-466-67l-1 0c59-103 166-165 285-165l364 0 z" fill="#321B41"/>
		<path d="M1406 634c56 0 112 29 142 81 1 3 2 5 2 7 0 9-5 14-14 14-9 0-22-10-31-13-33-13-66-20-99-20-44 0-82 11-123 32-3 1-5 2-7 2-7 0-13-7-13-14 0-3 1-5 2-8 28-51 87-81 141-81 z" fill="#990839"/>
		<path d="M1437 782c26 0 42 23 42 45 0 20-18 81-32 124-15 43-16 58-40 58-15 0-25-11-29-24-8-30-43-129-43-157 0-23 17-46 42-46l60 0 z" fill="#D19479"/>
		<path d="M1179-72c5 0 11 2 11 9l0 55c0 5-7 8-11 8l-266 0c-7 0-10-3-10-8l0-55c0-6 3-9 10-9l266 0 z M1729-145c52 0 108 38 108 95l0 116c0 25-24 41-47 41l-122 0c-22 0-46-16-46-41l0-117c0-56 51-94 107-94 z M1407 1464c45 0 89 34 89 82l0 60c0 9-8 15-17 15-15 0-13-14-28-14-21 0-24 37-45 37-22 0-21-38-45-38-15 0-13 14-28 14-9 0-17-6-17-15l0-59c0-50 46-82 91-82 z" fill="#FCD53F"/>
	</g></svg>
