<svg version="1.1" xmlns="http://www.w3.org/2000/svg" viewBox="0 0 2300 2300"><g transform="scale(1,-1) translate(-256, -1869)">
		<path d="M1741 587c133 0 244 108 244 243 0 40-10 71-25 107-2 5-3 10-3 16 0 7 1 14 4 19 15 36 24 69 24 108 0 51-14 95-41 138-27 44-41 87-41 136 0 139-111 250-250 250-13 0-25 6-34 17-58 69-117 104-203 104-86 0-148-36-203-104-9-11-19-18-34-18-139 0-250-111-250-250 0-49-14-91-41-135-27-43-41-89-41-138 0-39 9-72 24-108 3-7 4-11 4-18 0-7-1-10-4-17-15-35-24-68-24-107 0-132 106-243 243-243l651 0 z" fill="#000000"/>
		<path d="M2197-287l0 251c0 275-142 531-384 678-14 8-94 52-111 55l-197 15c-38 3-61 7-99 7-38 0-58-4-98-7l-196-13c-24-3-130-67-154-83-217-150-343-393-343-652l0-251 1582 0 z" fill="#433B6B"/>
		<path d="M1601-287l0 997-390 0 1-997 389 0 z" fill="#D3D3D3"/>
		<path d="M1212-287l0 999-31 11c-23-7-46-15-69-24l-10-23-18-37c-7-15-15-30-22-46l-21-44c-7-14-12-26-16-35-4-10-6-16-6-18 0-9 3-14 9-17 5-3 12-5 21-5l28 1c10 1 19 1 28 1 9 0 16-1 22-4 5-3 8-8 8-16 0-9-6-19-19-30l-43-36c-15-13-29-27-42-42-13-15-20-32-20-50 0-9 1-17 4-23l196-562 1 0 z M1601-287l197 565c3 7 4 15 4 24 0 69-124 121-124 158 0 16 13 20 30 21l55-3c17 0 30 5 30 21 0 12-83 181-90 198-29 12-59 22-90 31l-12-12 0-1003 z" fill="#8D65C5"/>
		<path d="M1553-287l-97 639 69 151-120 23-121-23 71-151-98-639 296 0 z" fill="#321B41"/>
		<path d="M1574 401c14 0 27 12 27 27l0 341-390 0 0-341c0-15 13-27 27-27 6 0 12 2 17 6l151 120 151-120c5-4 10-6 17-6 z" fill="#E6E6E6"/>
		<path d="M1751 983c63 0 117 52 117 118 0 64-53 117-117 117-64 0-117-53-117-117 0-65 54-118 117-118 z M1080 983c63 0 117 52 117 118 0 64-53 117-117 117-64 0-117-53-117-117 0-66 54-118 117-118 z" fill="#452829"/>
		<path d="M1406 539c86 0 144 80 144 155l0 193c0 82-62 155-144 155-85 0-144-75-144-155l0-193c0-78 58-155 144-155 z" fill="#452829"/>
		<path d="M1416 627c205 0 364 149 372 355 3 76 9 153 9 229 0 53-26 107-85 107l-241 0c-101 0-172 44-238 126-5 6-10 9-17 9-8 0-13-3-16-9-12-29-23-52-43-73-18-18-35-33-62-40-41-23-61-65-61-109 0-80 7-160 10-240 8-206 167-355 372-355 z" fill="#573739"/>
		<path d="M1667 1070c-51 17-102 31-153 46 22 34 57 63 100 63 28 0 99-15 99-53 0-23-30-43-46-56 z M1164 1070c51 19 102 33 153 46-22 33-55 63-99 63-29 0-100-15-100-52 0-23 29-43 46-57 z" fill="#000000"/>
		<path d="M1683 1065l-169 0c-12 0-17 10-17 21 0 4 4 17 7 21 17 38 54 64 97 64 39 0 103-37 103-84 0-12-11-22-21-22 z M1318 1065c12 0 17 10 17 21 0 4-4 17-7 21-17 38-54 64-97 64-42 0-103-37-103-85 0-10 10-21 21-21l169 0 z" fill="#FFFFFF"/>
		<path d="M1650 1065l-130 0c-1 7-2 11-2 18 0 38 27 68 67 68 19 0 35-7 48-20 16-17 19-39 19-57 0-3-1-6-2-9 z M1312 1065c1 7 3 11 3 18 0 37-29 68-68 68-19 0-34-7-47-20-17-17-20-39-20-57 0-3 1-6 2-9l130 0 z" fill="#7D4533"/>
		<path d="M1620 1065l-68 0c-4 5-5 11-5 18 0 22 16 39 39 39 23 0 38-18 38-39 0-7-1-13-4-18 z M1280 1065c4 5 5 11 5 18 0 22-16 39-39 39-23 0-38-18-38-39 0-7 1-13 4-18l68 0 z" fill="#000000"/>
		<path d="M1562 1098c8 0 12 4 12 12 0 8-4 12-12 12-8 0-12-4-12-12 0-8 4-12 12-12 z M1223 1098c9 0 13 4 13 12 0 8-4 12-13 12-6 0-12-5-12-12 0-6 6-12 12-12 z" fill="#FFFFFF"/>
		<path d="M1416 798c24 0 47 6 70 18 24 12 55 43 55 55 0 7-4 12-11 12-3 0-5-2-6-2-38-14-66-25-108-25-38 0-74 8-108 25l-6 2c-7 0-11-5-11-12l2-6c16-39 81-67 123-67 z" fill="#290118"/>
		<path d="M1445 925c22 0 40 18 40 40 0 10-7 37-17 66-20 60-21 90-52 90-12 0-24-8-28-20-8-28-40-113-40-137 0-21 18-39 40-39l57 0 z" fill="#3D2123"/>
		<path d="M1148 1218c16 0 58 24 99 24 11 0 19-2 30-2 11 0 21 9 21 19 0 17-20 24-37 24-51 0-86-6-123-27l-1 0c-7-5-10-11-10-18 0-10 10-20 21-20 z M1684 1218c12 0 20 10 20 22 0 32-100 44-119 44l-16 0c-17 0-35-5-35-24 0-12 10-19 21-19 11 0 19 2 30 2 28 0 62-7 88-22l1 0c2-2 5-3 10-3 z" fill="#000000"/>
	</g></svg>
