<svg version="1.1" xmlns="http://www.w3.org/2000/svg" viewBox="0 0 2300 2300"><g transform="scale(1,-1) translate(-256, -1869)">
		<path d="M1961 1479c11 0 18 6 20 17 7 34 18 71 18 105 0 37-25 48-49 61-38 19-51 63-96 63-19 0-34-10-53-10-18 0-30 8-48 8-35 0-52-22-77-45-29-26-72-30-72-77 0-35 11-71 18-105 2-10 8-16 19-17-1 15-3 29-3 44 0 27 29 28 29 56l0 26c0 26 115 28 134 28 43 0 83-4 122-13 9-2 14-7 14-16l-1-25c0-29 28-30 28-54 0-14-2-32-3-46 z M1144 1258c56 0 100 44 100 100 0 19-12 36-12 51 0 13 12 31 12 51 0 22-6 41-17 57-11 16-16 38-16 56 0 58-48 102-103 102-5 0-9 2-14 7-25 27-45 43-83 43-38 0-59-16-84-43-4-5-10-7-17-7-54-3-100-44-100-102 0-43-33-71-33-113 0-19 11-36 11-51 0-15-11-32-11-51 0-56 44-100 100-100l267 0 z" fill="#593B39"/>
		<path d="M2051-287l-214 0 0 108 67 71 67-71c0-17 61-59 72-67 7-5 10-14 10-25l-2-16 z M1766-287l0 108-67 71-67-71c0-17-61-59-72-67-7-5-10-14-10-25l2-16 214 0 z M1260-287l-213 0 0 108 67 71 66-71c0-17 61-59 72-67 7-5 10-14 10-25l-2-16 z M975-287l0 108-67 71-67-71c0-16-61-59-72-67-7-5-10-14-10-25l2-16 214 0 z" fill="#533566"/>
		<path d="M2057 407c7 0 13 3 17 9 13 20 24 46 31 78 7 32 12 66 15 101 3 35 4 70 5 104l0 87c0 25 0 50-1 75-1 25-3 49-6 74-3 21-6 43-10 66-4 23-10 45-18 67-8 21-18 42-30 61-12 19-27 34-46 47-10 7-20 13-31 18l-33 12-19 8c-7 2-13 5-19 8-3-56-8-112-15-168l2 1-1-2c19-17 34-40 46-69 11-30 20-62 27-95 7-33 11-66 14-99 2-33 3-60 3-82 0-37-1-73-4-109l-10-112c0-4 2-5 6-6l12-2c9 0 15 3 18 8 3 5 5 10 6 17 1 6 2 12 4 17 1 5 6 7 14 7 5 0 9-2 11-7 2-5 3-9 3-14 0-13-2-25-6-38-5-13-7-27-7-40 0-15 7-22 22-22 z M1443 457c24 0 35 32 35 54l0 18c-1 6-3 11-6 16 69 171 124 345 180 521l-117 36c-3-20-9-40-17-61-44-114-70-209-112-325-32 88-61 176-90 265-14 40-32 80-39 121l-117-36c56-176 112-350 180-521-3-5-5-10-5-16l-1-18c0-21 10-54 35-54 15 0 29 15 37 27 8-12 22-27 37-27 z M755 407c15 0 22 7 22 22 0 13-2 27-6 40-4 13-6 26-6 39 0 4 1 8 3 13 1 5 5 7 10 7 7 0 12-2 14-7 2-5 4-11 5-17 1-7 3-12 6-17 3-5 9-8 18-8l12 2c3 1 5 2 5 6l-9 112c-3 36-5 72-5 109 0 26 1 55 4 87 2 32 6 64 13 95 6 31 15 62 27 91 12 29 28 53 47 73-7 56-12 112-15 168-6-3-12-6-18-8l-20-8c-32-11-58-26-78-43-20-18-36-38-48-61-12-23-21-49-27-77-6-28-11-58-15-90-3-25-5-49-6-74-1-25-1-50-1-75 0-24 0-53 1-87 0-34 2-69 5-104 3-35 8-69 15-101 7-32 17-58 30-78 4-6 10-9 17-9 z" fill="#C68D7B"/>
		<path d="M774 443c-19 0-50 38-50 54 0 13 9 25 23 25 19 0 50-40 50-56 0-12-11-23-23-23 z M2038 443c19 0 50 38 50 54 0 13-9 25-23 25-19 0-50-40-50-56 0-12 11-23 23-23 z M1424 474c22 0 45 45 45 58 0 13-10 24-24 24-22 0-45-46-45-59 0-13 10-23 24-23 z" fill="#BB806E"/>
		<path d="M1981-179l-144 0-18 734c0 11-5 20-16 20-11 0-17-9-17-20l-20-734-144 0-36 898 216 144 215-144-36-898 z M1190-179l36 898-215 144-216-144 36-898 144 0 18 734c0 11 5 20 16 20 11 0 17-9 17-20l21-734 143 0 z" fill="#636363"/>
		<path d="M1226 719l0 244 99 0c5 0 8 3 8 10 0 36-14 75-34 111-72 125-179 183-288 183-43 0-82-8-117-23-91-39-206-161-206-271 0-7 3-10 9-10l98 0 0-244 431 0 z" fill="#8B62BF"/>
		<path d="M2017 719l0 244 98 0c6 0 9 3 9 10 0 36-14 75-34 111-70 122-177 183-289 183-43 0-81-8-116-23-90-39-206-160-206-271 0-7 3-10 9-10l98 0 0-244 431 0 z" fill="#00A6ED"/>
		<path d="M1805 1195c37 0 63 30 63 65l0 43-125 0 0-43c0-34 25-65 62-65 z M1007 1195c36 0 63 31 63 65l0 43-126 0 0-43c0-34 26-65 63-65 z" fill="#BB806E"/>
		<path d="M1945 1402c30 0 54 22 54 54 0 29-24 54-54 54-29 0-54-24-54-54 0-30 22-54 54-54 z M1658 1402c30 0 54 22 54 54 0 29-24 54-54 54-29 0-54-24-54-54 0-30 22-54 54-54 z M1154 1402c30 0 54 22 54 54 0 29-24 54-54 54-29 0-54-24-54-54 0-29 24-54 54-54 z M867 1402c30 0 54 22 54 54 0 30-25 54-54 54-29 0-54-24-54-54 0-32 24-54 54-54 z" fill="#BB806E"/>
		<path d="M1008 1270c-88 0-150 66-153 152-1 31-4 64-4 95 0 18 8 40 27 48l1 0c27 11 39 52 47 52 5 0 43-58 105-58l99 0c26 0 35-24 35-46 0-31-2-60-3-91-5-84-64-152-154-152 z M1852 1258c52 0 98 36 102 92l10 130-3-1c1 16 3 32 3 48 0 21-28 25-28 52l0 26c0 8-4 13-13 15-38 11-82 13-122 13-19 0-134-2-134-28l0-26c0-29-29-30-29-56 0-15 2-29 3-44l-2 1 10-130c4-57 50-92 102-92l101 0 z" fill="#C68D7B"/>
		<path d="M1118 1456c-19 7-39 10-58 17 8 13 22 25 38 25 10 0 39-5 39-21 0-11-12-14-19-21 z M904 1456c19 7 39 12 59 17-8 15-22 25-39 25-11 0-38-8-38-21 0-9 11-16 18-21 z" fill="#000000"/>
		<path d="M1802 1330c-21 0-39 8-54 25 0 5 1 7 4 7l3 0c14-5 28-8 43-8 20 0 34 7 53 12l3-2c0-3 1-2 1-6-12-16-31-28-53-28 z M1010 1330c21 0 39 8 54 25 0 5-1 7-4 7l-3 0c-14-5-28-8-43-8-20 0-34 7-53 12l-3-2c0-3-1-2-1-6 12-16 31-28 53-28 z" fill="#990839"/>
		<path d="M1812 1384l-23 0c-5 0-10 3-13 8-2 3-3 6-3 10l16 62c1 7 5 10 11 10 6 0 10-3 11-10l16-57 0-3c0-5-1-8-2-10-1-2-3-5-6-8l-4-1c-1-1-2-1-3-1 z M1021 1384c4 0 8 2 13 7 1 4 2 8 2 16l-15 57c-1 7-5 10-11 10-6 0-10-3-11-10l-16-57-1-6 1-5 8-10c1 0 2 0 3-1l4-1 23 0 z" fill="#AB6A55"/>
		<path d="M1120 1450c3 0 8 2 8 6 0 23-23 39-44 39-21 0-44-16-44-39 0-4 2-6 7-6l73 0 z M973 1450c3 0 8 2 8 6 0 23-23 39-44 39-21 0-44-16-44-39 0-4 5-6 8-6l72 0 z M1911 1457c3 0 8 2 8 6 0 23-23 39-44 39-21 0-44-16-44-39 0-4 5-6 8-6l72 0 z M1765 1457c5 0 8 3 8 9 0 20-26 36-45 36-20 0-44-16-44-39 0-4 5-6 8-6l73 0 z" fill="#FFFFFF"/>
		<path d="M1107 1450l1 8c0 14-12 26-27 26-14 0-26-11-26-26l1-8 51 0 z M965 1450l1 8c0 14-12 26-27 26-15 0-26-12-26-26l1-8 51 0 z M1898 1457l1 8c0 15-12 27-26 27-14 0-27-12-27-27l1-8 51 0 z M1757 1457l1 8c0 14-12 27-27 27-14 0-27-12-27-27l2-8 51 0 z" fill="#7D4533"/>
		<path d="M1097 1450l2 8c0 11-7 18-18 18-11 0-18-7-18-18l2-8 32 0 z M956 1450l1 8c0 11-7 18-18 18-11 0-18-9-18-18l2-8 33 0 z M1889 1457l2 8c0 11-7 18-18 18-11 0-18-7-18-18l1-8 33 0 z M1747 1457l2 8c0 11-7 18-18 18-11 0-18-7-18-18l2-8 32 0 z" fill="#000000"/>
		<path d="M1075 1464c-3 0-5 2-5 5 1 3 3 5 5 5l5-5c0-2-2-4-5-5 z M928 1464c-3 0-5 2-5 5 1 3 3 5 5 5 1 0 3-2 5-5 0-3-2-5-5-5 z M1884 1471c3 0 5 2 5 5 0 3-2 5-5 5-3 0-5-2-5-5 0-3 2-5 5-5 z M1738 1471c3 1 5 3 5 5 0 1-2 3-5 5-4 0-6-2-6-5 0-3 2-5 6-5 z" fill="#FFFFFF"/>
		<path d="M1131 1511l6 2c1 1 2 3 2 5 0 16-44 23-55 23-5 0-8-2-8-7 0-8 13-9 25-11 19-3 25-12 30-12 z M910 1511c3 0 26 15 48 15 5 0 8 3 8 8 0 5-3 7-8 7-13 0-55-7-55-23 0-6 2-5 7-7 z M1911 1508c11 0 16 5 16 16 0 19-42 29-58 29-11 0-27-2-27-17 0-16 13-16 25-16 20 0 33-12 44-12 z M1698 1508c3 0 7 1 10 3l2-1 4 2c1 2 3 3 5 4l16 4 15 0c5 0 9 2 12 5 3 3 4 7 4 12 0 7-3 12-9 14-6 1-12 2-17 2-19 0-35-5-50-15l-1 0c-2 0-3-1-5-4-2-5-3-8-3-10 0-5 2-8 5-11 3-3 7-5 12-5 z" fill="#593B39"/>
	</g></svg>
