<svg version="1.1" xmlns="http://www.w3.org/2000/svg" viewBox="0 0 2300 2300"><g transform="scale(1,-1) translate(-256, -1869)">
		<path d="M1909-287l158 433-158 428c-139 114-313 181-503 181-190 0-364-67-503-181l-138-428 138-433 1006 0 z" fill="#E6E6E6"/>
		<path d="M1594 216l0 116c0 38-13 77-36 107 96 13 171 95 171 193 0 108-93 195-202 195l-243 0c-111 0-201-88-201-195 0-98 75-180 171-193-23-30-36-69-36-107l0-116c95 0 188 75 188 181 0-102 89-181 188-181 z" fill="#F92F60"/>
		<path d="M2197-287l0 252c0 234-106 460-288 610l0-862 288 0 z M617-287l286 1 0 861c-176-148-288-362-288-611 0-84 1-167 2-251 z" fill="#D3D3D3"/>
		<path d="M2304-25l0 163c0 38-32 71-71 71-39 0-72-30-72-71l0-163 143 0 z" fill="#452829"/>
		<path d="M2140-271c21 0 38 16 41 36l39 314c5 41 8 82 8 125 0 59-5 117-16 174l-73 28-71-28c-10-57-15-115-15-174 0-43 3-82 8-125l39-314c3-21 21-36 40-36 z" fill="#8C5543"/>
		<path d="M2213 378c-9 48-16 96-31 143l-86 0c-16-47-20-95-28-143l145 0 z" fill="#E6E6E6"/>
		<path d="M2124 503c66 0 107 52 107 116-3-27-27-29-49-29l-12 0c-31 1-40 5-40 37 0 20-28 53-49 53 0 0-48-15-51-15-10-19-14-33-14-54 0-63 50-108 108-108 z" fill="#F3AD61"/>
		<path d="M2173 567c30 0 58 24 58 56 0 19-6 34-6 53 0 40 26 81 26 93 0 15-7 22-22 22-82 0-164-53-199-126l48 0c61 0 18-98 95-98 z" fill="#5092FF"/>
		<path d="M2247-286c36 0 57 31 57 63l0 252c0 32-21 62-57 62l-216 0c-32 0-50-29-50-57 0-17 9-33 22-42-15-11-22-26-22-45 0-19 7-34 22-45-15-11-22-25-22-44 0-19 7-34 22-45-15-11-22-27-22-46 0-26 21-53 50-53l216 0 z" fill="#573739"/>
		<path d="M1300-287l-155 424c-42 117-165 221-296 221-177 0-331-160-331-337 0-39 8-78 21-115l70-193 691 0 z" fill="#FFCE7C"/>
		<path d="M644-287l-70 193c-13 37-21 76-21 116 0 173 132 320 306 336-11 1-20 2-31 2-185 0-339-148-339-338 0-39 8-79 21-116l70-193 64 0 z" fill="#E19747"/>
		<path d="M848 55c50 0 89 39 89 89 0 50-39 89-89 89-50 0-89-39-89-89 0-50 39-89 89-89 z" fill="#F92F60"/>
		<path d="M1064-161c50 0 89 39 89 89 0 50-39 89-89 89-50 0-89-39-89-89 0-50 39-89 89-89 z" fill="#5092FF"/>
		<path d="M776-225c50 0 89 39 89 89 0 51-38 89-89 89-50 0-89-39-89-89 0-50 39-89 89-89 z" fill="#86D72F"/>
		<path d="M1406 539c81 0 144 69 144 145l0 142c0 81-67 145-144 145-81 0-144-69-144-145l0-142c0-79 62-145 144-145 z" fill="#452829"/>
		<path d="M1774 988c64 0 117 53 117 117 0 63-50 117-117 117-64 0-116-52-116-117 0-64 51-117 116-117 z M1056 988c64 0 116 53 116 117 0 66-52 117-116 117-63 0-117-50-117-117 0-64 53-117 117-117 z" fill="#452829"/>
		<path d="M1528 647c122 0 235 91 243 220 11 139 18 270 29 409l1 13 0 13c0 197-164 351-361 351l-68 0c-210 0-361-163-361-363l1-14c11-141 18-267 29-408 8-128 119-221 244-221l243 0 z" fill="#573739"/>
		<path d="M1647 1229c19 0 36 15 36 36 0 46-94 64-128 64-27 0-55-7-55-38 0-9 2-15 6-20 10-14 31-14 51-14 48 0 72-28 90-28 z M1163 1229c19 0 44 29 91 29l21-1c19 0 35 15 35 36 0 33-30 37-55 37-30 0-128-17-128-64 0-21 17-37 36-37 z" fill="#000000"/>
		<path d="M1649 1105l-163 0c-7 0-17 6-17 14 0 51 54 89 101 89 39 0 100-36 100-83 0-10-10-20-21-20 z M1302 1105c7 0 17 6 17 14 0 51-54 89-101 89-39 0-100-36-100-83 0-10 10-20 20-20l164 0 z" fill="#FFFFFF"/>
		<path d="M1618 1105l-127 0c-1 7-2 10-2 17 0 36 29 66 66 66 38 0 65-33 65-66 0-7-1-10-2-17 z M1297 1105c1 7 2 10 2 17 0 36-29 66-66 66-37 0-65-31-65-66 0-7 1-10 2-17l127 0 z" fill="#7D4533"/>
		<path d="M1588 1105l-67 0c-3 7-4 12-4 17 0 21 16 38 38 38 19 0 37-17 37-38 0-5-1-10-4-17 z M1267 1105c3 7 4 12 4 17 0 22-16 38-37 38-21 0-37-16-37-38 0-7 1-12 4-17l66 0 z" fill="#000000"/>
		<path d="M1534 1137c7 0 12 4 12 11 0 7-5 12-12 12-7 0-11-5-11-12 0-7 4-11 11-11 z M1211 1137c7 0 11 4 11 11 0 7-4 12-11 12-6 0-12-5-12-12 0-7 5-11 12-11 z" fill="#FFFFFF"/>
		<path d="M1432 951c22 0 37 20 37 39 0 20-16 72-28 108-13 36-13 50-35 50-12 0-23-8-26-20-8-29-37-113-37-138 0-19 15-39 37-39l52 0 z" fill="#3D2123"/>
		<path d="M1406 823c25 0 48 7 71 20 23 13 55 45 55 57 0 9-4 13-12 13l-6-2c-40-16-65-27-108-27-38 0-74 9-108 27l-6 2c-6 0-12-5-12-12 0-2 1-4 2-7 24-42 75-71 124-71 z" fill="#990839"/>
		<path d="M1044 1132l-4 54c-2 18-3 36-3 54 0 14 3 25 10 34l22 24c7 7 14 16 21 26 7 9 10 23 10 40 0 8 0 17-1 28l-1 15 1 14c1 9 3 18 8 25 4 7 11 13 22 16 43 13 89 22 137 26 48 3 95 5 140 5 45 0 91-2 140-5 48-4 94-13 137-26 19-5 28-18 28-37l0-61c0-17 3-31 10-40 7-10 14-19 22-26 8-7 15-15 22-23 7-9 10-20 10-35 0-17-1-35-2-53l-4-54c11 1 20 5 28 12 8 7 13 15 15 26l40 220c2 9 3 18 3 28 0 19-3 36-8 49-5 13-12 25-20 34-9 9-19 18-30 25l-71 42c-13 7-24 16-34 27l-39 40c-12 13-24 24-37 34-13 9-28 17-43 23-15 6-33 9-54 9-9 0-18-1-27-2-9-2-18-4-27-7l-344-97c-16-16-34-29-53-39-19-10-37-20-53-31-17-11-30-25-41-42-11-17-17-40-17-69l0-12c0-5 1-9 2-13l40-219c2-11 7-20 16-27 8-7 18-11 29-12 z" fill="#000000"/>
		<path d="M1856 1366c28 0 53 23 53 52 0 166-134 307-307 307-222 0-443-58-636-177-37-21-64-45-64-90 0-50 39-92 92-92l862 0 z" fill="#212121"/>
	</g></svg>
