<svg version="1.1" xmlns="http://www.w3.org/2000/svg" viewBox="0 0 2300 2300"><g transform="scale(1,-1) translate(-256, -1869)">
		<path d="M1642 539c128 0 230 103 230 231 0 37-8 66-23 101-2 5-3 10-3 16 0 7 1 10 4 17 14 34 23 67 23 103 0 46-13 91-39 131-26 39-38 78-38 127 0 132-109 237-237 237-15 0-24 6-33 17-52 65-111 98-192 98-81 0-140-34-192-98-9-11-18-17-33-17-132 0-236-109-236-237 0-47-12-87-39-128-25-39-39-83-39-130 0-36 9-69 23-103 3-5 4-9 4-16 0-5-1-10-4-17-14-33-23-64-23-101 0-128 103-231 231-231l616 0 z" fill="#000000"/>
		<path d="M2197-215c-23 224-129 429-298 578l-277-223 0-355 575 0 z M1047-215l0 355-278 223c-171-148-276-354-297-578l575 0 z" fill="#433B6B"/>
		<path d="M1304 0c72 0 143 13 211 36l107 564c-104 32-213 47-322 47-111 0-219-16-325-47l106-558c72-28 147-42 223-42 z" fill="#452829"/>
		<path d="M1444-215l70 355c-56-20-115-29-175-29-64 0-125 12-185 33l71-359 219 0 z" fill="#E6E6E6"/>
		<path d="M1622-215c31 62 420 870 420 880 0 11-7 18-18 18l-438 0-180-898 216 0 z M1262-215l-179 898-439 0c-11 0-18-7-18-18 0-11 388-815 421-880l215 0 z" fill="#8B62BF"/>
		<path d="M1334 577c188 0 344 134 352 337 3 72 9 144 9 216 0 48-24 102-80 102l-228 0c-96 0-164 42-226 119-4 5-9 8-15 8-7 0-12-3-15-8-23-50-41-78-94-105-3-1-5-2-7-2-38-20-57-60-57-103 0-76 6-151 9-227 8-194 155-337 352-337 z" fill="#573739"/>
		<path d="M1104 755l261 371-136 0 42 132c-45 22-78 51-110 93-3 5-7 7-12 8l-140-409 131 0-36-195 z" fill="#F92F60"/>
		<path d="M1572 997c-47 17-96 28-144 44 21 31 54 59 94 59 27 0 94-13 94-49 0-24-29-41-44-54 z M1097 997c47 19 96 29 144 44-21 29-53 59-94 59-27 0-94-13-94-49 0-24 29-41 44-54 z" fill="#000000"/>
		<path d="M1587 993c11 0 20 9 20 19 0 46-59 81-98 81-45 0-98-40-98-86 0-8 9-14 16-14l160 0 z M1242 993c7 0 16 6 16 14 0 48-56 86-99 86-40 0-98-37-98-80 0-10 10-20 21-20l160 0 z" fill="#FFFFFF"/>
		<path d="M1556 993l-123 0c-1 3-2 5-2 8l0 9c0 34 26 64 63 64 35 0 64-30 64-64 0-7-1-10-2-17 z M1235 993c2 5 3 10 3 17 0 35-30 64-64 64-35 0-64-30-64-64 0-7 1-10 2-17l123 0 z" fill="#7D4533"/>
		<path d="M1527 993l-64 0c-3 4-5 10-5 17 0 22 18 36 37 36 19 0 36-15 36-36 0-7-1-12-4-17 z M1205 993c3 4 5 10 5 17 0 22-18 36-37 36-19 0-36-15-36-36 0-7 1-12 4-17l64 0 z" fill="#000000"/>
		<path d="M1473 1023c7 0 11 5 11 12 0 7-4 11-11 11-7 0-12-4-12-11 0-6 6-12 12-12 z M1152 1023c8 0 12 4 12 12 0 7-5 11-12 11-7 0-11-4-11-11 0-7 4-12 11-12 z" fill="#FFFFFF"/>
		<path d="M1361 845c23 0 37 19 37 40 0 20-16 70-28 107-13 36-13 50-35 50-12 0-23-8-26-20-8-29-37-113-37-138 0-19 15-39 37-39l52 0 z" fill="#3D2123"/>
		<path d="M1334 715c51 0 98 29 124 71 1 3 2 5 2 7 0 7-5 12-12 12l-2 0c-69-23-61-29-112-29-40 0-73 9-108 28l-6 2c-7 0-12-6-12-13 0-2 1-4 2-7 24-42 75-71 124-71 z" fill="#990839"/>
		<path d="M1080 1137c16 0 53 23 95 23 9 0 19-2 28-2 11 0 19 7 19 18 0 17-18 23-34 23-54 0-85-9-117-26l-1 0c-6-4-9-10-9-17 0-13 6-19 19-19 z M1588 1137c10 0 19 10 19 21 0 30-96 42-114 42l-14 0c-16 0-33-5-33-21 0-11 6-20 17-20 11 0 18 2 29 2 31 0 58-8 85-21l1 0c3-2 6-3 10-3 z" fill="#000000"/>
		<path d="M2268 144l0 150c0 40-34 66-71 66-37 0-72-26-72-66l0-150 143 0 z" fill="#452829"/>
		<path d="M2102 455c95 0 177 78 177 177 0 95-78 177-177 177-100 0-177-82-177-177 0-100 82-177 177-177 z" fill="#321B41"/>
		<path d="M2099-15c-27 0-53 21-56 50l-47 455 211 0-52-455c-3-29-29-50-56-50 z M2275 597c22 0 41 18 41 41 0 23-19 41-41 41l-343 1c-22 0-41-18-41-41 0-23 19-41 41-41l343-1 z" fill="#D3D3D3"/>
		<path d="M2100 319c19 0 34 16 34 34 0 19-16 35-34 35-19 0-35-17-35-35 0-21 17-34 35-34 z" fill="#F4F4F4"/>
		<path d="M2205-215c40 0 63 35 63 71l0 288c0 36-23 72-63 72l-240 0 0-2c-36 0-56-32-56-64 0-18 10-37 25-48-16-11-25-32-25-51 0-21 8-39 25-52-18-11-25-31-25-51 0-21 8-38 25-51-15-11-25-30-25-48 0-33 20-64 56-64l240 0 z" fill="#573739"/>
	</g></svg>
