<svg version="1.1" xmlns="http://www.w3.org/2000/svg" viewBox="0 0 2300 2300"><g transform="scale(1,-1) translate(-256, -1869)">
		<path d="M2412-287l0 593c0 276-223 503-503 503-276 0-503-223-503-503 0 276-223 503-503 503-276 0-503-223-503-503l0-593 2012 0 z" fill="#FF6723"/>
		<path d="M1837-287c-76 167-237 287-431 287-189 0-354-117-431-287l862 0 z" fill="#9B9B9B"/>
		<path d="M1601-46c67 0 121 58 121 125l0 101-151 0 0-226 30 0 z M1235-46l0 226-155 0 0-101c0-71 60-125 125-125l30 0 z M1729 216l0 90c26 0 51 5 51 38l0 52c0 78-43 138-109 170l17 0c18 0 36 4 36 27l-2 9c-16 47-59 81-111 81l-316 0c-36 0-62-30-69-61l-2-1c-112 0-203-75-203-190l0-87c0-26 20-43 44-43l0-85 664 0 z M2197 895c24 11 44 28 59 51 15 23 23 48 23 75l0 57c-4-3-12-5-23-7-12-3-24-5-37-6-13-2-26-3-39-4l-28-3-6-93c0-6 3-11 7-15 5-6 11-12 18-17l19-17c5-5 8-11 8-16 0-2 0-4-1-5 z M1622 893c-1 2-1 4-1 6 0 4 2 8 5 12 5 6 11 12 18 18 7 5 13 11 20 17 5 5 8 10 8 16l-6 98-67 5c-14 1-27 3-38 6-12 2-20 5-25 8l0-59c0-28 8-54 23-77 15-23 36-40 63-50 z M2277 1180l0 104c0 50 45 78 45 140 0 65-34 120-101 144-37 14-67 38-88 72-26 41-75 72-128 72-38 0-64-21-98-21-34 0-62 21-97 21-53 0-101-30-127-72-21-34-50-58-89-72-62-23-102-75-102-146 0-61 44-88 44-138l0-104c5 3 37 18 45 18l657-1c6 0 34-14 39-17 z M1190 895c25 11 45 28 60 51 15 23 22 48 22 75l0 57c-4-3-12-5-23-7-11-3-24-5-37-6-13-2-26-3-38-4l-28-3-4-47c-1-17-2-33-2-48 0-5 3-11 9-16 6-6 13-12 20-17l18-17c3-4 5-7 5-11l-2-7 z M615 893c-1 1-1 3-1 5 0 5 3 11 9 16l18 17c7 5 13 11 18 17 4 4 7 9 7 15l-6 97-67 5c-14 1-27 3-38 6-12 2-20 5-25 8l0-59c0-28 8-53 23-76 15-23 36-40 62-51 z M1271 1180l0 104c0 50 45 79 45 140 0 70-40 122-101 144-39 14-68 38-88 72-26 42-75 72-129 72-36 0-62-21-97-21-34 0-62 21-97 21-53 0-102-31-128-72-23-36-51-58-89-72-58-22-101-73-101-141 0-69 44-93 44-143l0-104c5 3 39 18 44 18l658-1c3 0 34-14 39-17 z" fill="#2D242D"/>
		<path d="M1127 145c-26 0-48 9-66 28-18 18-27 40-27 66 0 15 4 30 11 44 7 14 18 25 31 34l0-33 1-19c1-9 4-17 9-24 5-7 12-10 22-10l0 99c3 1 7 2 10 2l9 0c13 0 25-2 36-7 11-5 21-12 30-20 9-9 16-19 21-30 5-11 7-23 7-36 0-13-2-26-7-37-5-11-12-21-20-29-9-9-19-15-30-20-12-5-24-8-37-8 z M1677 145c-13 0-26 3-37 8-11 5-21 11-29 20-9 8-15 18-20 29-5 11-8 24-8 37 0 13 3 25 8 36 5 11 11 21 20 30 9 8 19 15 30 20 11 5 23 7 36 7 6 0 11 0 14-1l2-101c11 0 18 4 23 11 5 7 8 15 9 25l1 14-3 40c15-9 26-20 35-34 8-15 12-30 12-47 0-26-9-48-27-66-18-19-40-28-66-28 z M2215 1042c59 0 107 49 107 108 0 60-49 108-107 108-61 0-108-48-108-108 0-58 49-108 108-108 z M1604 1042c-58 0-108 49-108 108 0 57 46 108 108 108 58 0 107-47 107-108 0-58-47-108-107-108 z M1208 1042c58 0 108 49 108 108 0 57-46 108-108 108-58 0-108-49-108-108 0-58 49-108 108-108 z M597 1042c58 0 108 49 108 108 0 57-46 108-108 108-59 0-107-48-107-108 0-58 47-108 107-108 z" fill="#8B5C56"/>
		<path d="M1399-118c41 0 80 7 115 21 35 14 66 34 92 59 26 25 47 55 62 90 15 35 24 73 25 114l4 82c1 27 1 54 1 82 0 7-2 15-5 23-3 7-8 14-13 19-10 10-23 16-39 19-12 1-25 2-40 2l-16 0-67-3-16 0c-18 0-36 1-54 5-24 5-47 13-69 26-23 12-43 31-61 57-3-13-8-25-15-36-7-11-16-20-27-27-11-8-22-14-35-18-13-5-25-7-38-7l-38 0c-15 0-28-6-39-17-12-11-18-25-18-40 0-28 0-56 1-83l3-84c1-39 10-76 25-110 15-35 35-65 61-90 25-26 55-46 90-61 34-15 71-23 111-23 z M1969 751c29 0 59 6 88 17 29 11 55 27 78 46 23 19 43 42 58 69 15 26 23 54 25 84l22 366c0 1 0 2 1 3l0 2c0 7-3 17-8 28-6 11-12 20-17 25-14 15-30 23-49 26-14 1-28 2-43 2l-33 0c-16 0-32 1-48 2-23 1-45 9-66 23-11 7-21 16-28 25-8 9-15 17-20 25l-14 22c-4 6-8 11-13 14-7 5-15 8-24 8l-82 0c-30 0-58-6-84-17-26-11-49-27-68-46-19-20-35-43-46-69-11-27-17-55-17-84 0-59 2-118 7-177 5-59 9-119 13-178 2-31 11-59 26-85 15-27 34-50 57-69 23-19 49-34 78-45 29-11 58-17 87-17l120 0 z M963 751c31 0 60 5 88 16 28 11 54 26 77 46 10 9 20 19 30 31 10 12 19 25 27 39 7 13 14 27 19 42 5 14 7 28 8 42l22 366c0 1 0 2 1 3l0 2c0 8-3 17-9 28-6 11-12 19-17 25-14 15-30 23-49 26-19 2-39 3-60 3l-19 0-46 1c-22 1-44 9-65 23-13 8-23 17-31 28l-22 31c-7 10-13 18-20 25-7 7-15 10-25 10l-82 0c-29 0-57-6-83-17-27-11-50-27-69-46-20-20-36-43-47-69-11-27-17-55-17-84 0-59 2-118 7-177 5-59 9-119 13-178 1-14 4-28 9-42 5-15 12-29 20-42 7-14 16-27 26-39 9-12 19-22 29-31 23-19 49-34 77-45 27-11 56-17 87-17l121 0 z" fill="#966661"/>
		<path d="M1404 0c43 0 75 22 98 57l1 6c-1 4-3 7-8 9-16-1-45-22-90-22-47 0-76 21-92 22-7-4-4-2-8-9l1-6c23-35 55-57 98-57 z M1909 917c43 0 82 22 107 56l1 6c-1 6-5 9-11 9-5 0-55-23-96-23-33 0-65 8-94 23-10 0-10-2-15-9l2-6c23-35 65-56 106-56 z M903 917c35 0 100 25 108 62-3 8-7 9-15 9-29-15-59-23-92-23-34 0-62 10-94 23-8 0-13-1-15-9l1-6c25-34 64-56 107-56 z" fill="#990839"/>
		<path d="M1406 108c16 0 54 13 54 33 0 12-10 21-22 21l-64 0c-12 0-22-9-22-21 0-22 38-33 54-33 z M1934 1024c18 0 34 16 34 35 0 21-14 60-25 97-10 29-13 48-34 48-12 0-21-10-24-20-8-24-35-104-35-125 0-18 16-35 35-35l49 0 z M928 1024c18 0 34 16 34 35 0 11-7 37-15 62-15 46-19 83-44 83-12 0-22-9-25-20-8-29-34-99-34-125 0-19 16-35 34-35l50 0 z" fill="#75443E"/>
		<path d="M1631 216c5 0 8 3 8 8 0 45-47 82-90 82-42 0-89-36-89-82 0-5 3-8 8-8l163 0 z M1343 216l-162 0c-4 0-9 3-9 8 0 45 47 82 90 82 42 0 89-36 89-82 0-5-3-8-8-8 z M2152 1168l-163 0c-5 0-8 3-8 9 0 44 46 81 89 81 42 0 90-36 90-81 0-4-3-9-8-9 z M1829 1168c5 0 8 5 8 9 0 47-51 81-90 81-42 0-89-36-89-81 0-6 3-9 8-9l163 0 z M1145 1168l-162 0c-5 0-8 3-8 9 0 44 46 81 89 81 42 0 90-36 90-81 0-6-3-9-9-9 z M822 1168c6 0 9 3 9 9 0 47-51 81-90 81-42 0-89-36-89-81 0-6 3-9 8-9l162 0 z" fill="#FFFFFF"/>
		<path d="M1582 216c2 6 3 12 3 18 0 32-24 54-54 54-30 0-54-25-54-54 0-7 1-11 4-18l101 0 z M1331 216l-102 0c-2 6-3 12-3 18 0 32 24 54 54 54 30 0 54-22 54-54 0-6-1-12-3-18 z M2103 1168l-101 0c-2 6-3 12-3 18 0 29 21 54 53 54 30 0 54-22 54-54 0-6-1-12-3-18 z M1816 1168c2 6 3 12 3 18 0 30-22 54-54 54-29 0-54-24-54-54 0-6 1-12 3-18l102 0 z M1097 1168l-102 0c-2 6-3 12-3 18 0 30 22 54 54 54 30 0 54-22 54-54 0-6-1-12-3-18 z M810 1168c2 6 3 12 3 18 0 32-24 54-54 54-30 0-54-22-54-54 0-6 1-12 3-18l102 0 z" fill="#7D4533"/>
		<path d="M1562 216c4 5 5 11 5 18 0 19-15 36-36 36-19 0-36-18-36-36 0-7 2-13 5-18l62 0 z M1311 216l-62 0c-3 5-5 11-5 18 0 19 15 36 36 36 19 0 36-15 36-36 0-7-2-13-5-18 z M2084 1168l-63 0c-3 5-4 11-4 18 0 19 17 36 35 36 19 0 36-15 36-36 0-7-1-13-4-18 z M1796 1168c4 5 5 11 5 18 0 19-15 36-36 36-19 0-36-15-36-36 0-7 2-13 5-18l62 0 z M1077 1168l-62 0c-3 5-5 11-5 18 0 19 15 36 36 36 19 0 36-15 36-36 0-7-2-13-5-18 z M790 1168c3 5 5 11 5 18 0 19-15 36-36 36-19 0-36-15-36-36 0-7 2-13 5-18l62 0 z" fill="#000000"/>
		<path d="M1507 248c-7 0-11 4-11 11 0 7 4 11 11 11 7 0 10-4 10-11 0-7-3-11-10-11 z M1255 248c-7 0-11 4-11 11 0 7 4 11 11 11 7 0 10-4 10-11 0-7-3-11-10-11 z M2028 1201c7 0 10 3 10 10 0 7-3 11-10 11-7 0-11-4-11-11 0-7 4-10 11-10 z M1740 1201c7 0 11 3 11 10 0 7-4 11-11 11-7 0-11-4-11-11 0-7 4-10 11-10 z M1021 1201c7 0 11 3 11 10 0 7-4 11-11 11-7 0-10-4-10-11 0-7 3-10 10-10 z M734 1201c7 0 11 3 11 10 0 7-4 11-11 11-7 0-11-4-11-11 0-7 4-10 11-10 z" fill="#FFFFFF"/>
		<path d="M1584 328c7 0 15 7 15 15 0 21-53 23-70 23l-19-1c-8-1-12-6-12-14 0-8 6-15 14-15l18 1c19 0 39-9 54-9 z M1220 328c15 0 35 9 54 9l21 0c7 0 11 5 11 14 0 8-4 13-11 14l-20 1c-16 0-70-2-70-23 0-8 8-15 15-15 z M1680 1283l12 3 20 7c7 3 16 5 25 7 9 2 17 3 25 3 3 0 7 0 12-1l7-1 7 1c5 1 9 2 12 4 3 1 5 5 5 10 0 12-5 19-14 20-9 1-18 2-27 2l-25-2c-12-1-24-3-35-6-12-3-22-7-31-12-9-5-14-11-14-18 0-5 2-9 7-12 4-3 9-5 14-5 z M2142 1284c11 0 17 9 17 20 0 28-84 38-105 38l-13 0c-14 0-28-4-28-19 0-12 6-18 17-18 40 0 65-1 103-18 3-1 6-3 9-3 z M674 1283l12 3 20 7c7 3 16 5 25 7 9 2 17 3 25 3 4 0 9 0 14-1l7-1 6 1c4 0 8 1 11 4 3 3 4 7 4 14 0 5-1 8-4 11-3 3-7 5-11 6-4 1-8 1-13 1l-12 0-25-2c-12-1-24-3-35-6-12-3-22-7-31-12-9-5-14-11-14-18 0-7 3-11 8-13 1-1 4-2 7-3l6-1 z M1136 1284c11 0 17 9 17 20 0 26-87 38-106 38-9 0-18-1-27-2-9-1-14-8-14-21 0-8 11-14 18-14 21 0 38-1 53-2 14-1 31-7 50-16 3-1 6-3 9-3 z" fill="#372128"/>
	</g></svg>
