<svg version="1.1" xmlns="http://www.w3.org/2000/svg" viewBox="0 0 2300 2300"><g transform="scale(1,-1) translate(-256, -1869)">
		<path d="M2051-287l-214 0 0 108 67 71 67-71c0-17 61-59 72-67 7-5 10-14 10-25l-2-16 z M1766-287l0 108-67 71-67-71c0-17-61-59-72-67-7-5-10-14-10-25l2-16 214 0 z M1260-287l-213 0 0 108 67 71 66-71c0-17 61-59 72-67 7-5 10-14 10-25l-2-16 z M975-287l0 108-67 71-67-71c0-16-61-59-72-67-7-5-10-14-10-25l2-16 214 0 z" fill="#533566"/>
		<path d="M2057 407c7 0 13 3 17 9 13 20 24 46 31 78 7 32 12 66 15 101 3 35 4 70 5 104l0 87c0 25 0 50-1 75-1 25-3 49-6 74-3 21-6 43-10 66-4 23-10 45-18 67-8 21-18 42-30 61-12 19-27 34-46 47-10 7-20 13-31 18l-33 12-19 8c-7 2-13 5-19 8-3-56-8-112-15-168l2 1-1-2c19-17 34-40 46-69 11-30 20-62 27-95 7-33 11-66 14-99 2-33 3-60 3-82 0-37-1-73-4-109l-10-112c0-4 2-5 6-6l12-2c9 0 15 3 18 8 3 5 5 10 6 17 1 6 2 12 4 17 1 5 6 7 14 7 5 0 9-2 11-7 2-5 3-9 3-14 0-13-2-25-6-38-5-13-7-27-7-40 0-15 7-22 22-22 z M1443 457c24 0 35 32 35 54l0 18c-1 6-3 11-6 16 69 171 124 345 180 521l-117 36c-3-20-9-40-17-61-44-114-70-209-112-325-32 88-61 176-90 265-14 40-32 80-39 121l-117-36c56-176 112-350 180-521-3-5-5-10-5-16l-1-18c0-21 10-54 35-54 15 0 29 15 37 27 8-12 22-27 37-27 z M755 407c15 0 22 7 22 22 0 13-2 27-6 40-4 13-6 26-6 39 0 4 1 8 3 13 1 5 5 7 10 7 7 0 12-2 14-7 2-5 4-11 5-17 1-7 3-12 6-17 3-5 9-8 18-8l12 2c3 1 5 2 5 6l-9 112c-3 36-5 72-5 109 0 26 1 55 4 87 2 32 6 64 13 95 6 31 15 62 27 91 12 29 28 53 47 73-7 56-12 112-15 168-6-3-12-6-18-8l-20-8c-32-11-58-26-78-43-20-18-36-38-48-61-12-23-21-49-27-77-6-28-11-58-15-90-3-25-5-49-6-74-1-25-1-50-1-75 0-24 0-53 1-87 0-34 2-69 5-104 3-35 8-69 15-101 7-32 17-58 30-78 4-6 10-9 17-9 z" fill="#573739"/>
		<path d="M774 443c-19 0-50 38-50 54 0 13 9 25 23 25 19 0 50-40 50-56 0-12-11-23-23-23 z M2038 443c19 0 50 38 50 54 0 13-9 25-23 25-19 0-50-40-50-56 0-12 11-23 23-23 z M1424 474c22 0 45 45 45 58 0 13-10 24-24 24-22 0-45-46-45-59 0-13 10-23 24-23 z" fill="#452829"/>
		<path d="M1981-179l-144 0-18 734c0 11-5 20-16 20-11 0-17-9-17-20l-20-734-144 0-36 898 216 144 215-144-36-898 z M1190-179l36 898-215 144-216-144 36-898 144 0 18 734c0 11 5 20 16 20 11 0 17-9 17-20l21-734 143 0 z" fill="#636363"/>
		<path d="M2017 719l0 244 98 0c6 0 9 3 9 10 0 36-14 75-34 111-70 122-177 183-289 183-43 0-81-8-116-23-90-39-206-160-206-271 0-7 3-10 9-10l98 0 0-244 431 0 z M1226 719l0 244 99 0c5 0 8 3 8 10 0 36-14 75-34 111-72 125-179 183-288 183-43 0-82-8-117-23-91-39-206-161-206-271 0-7 3-10 9-10l98 0 0-244 431 0 z" fill="#00A6ED"/>
		<path d="M1805 1195c37 0 63 30 63 65l0 43-125 0 0-43c0-34 25-65 62-65 z M1007 1195c36 0 63 31 63 65l0 43-126 0 0-43c0-34 26-65 63-65 z" fill="#452829"/>
		<path d="M1945 1402c30 0 54 22 54 54 0 29-24 54-54 54-29 0-54-24-54-54 0-30 22-54 54-54 z M1658 1402c30 0 54 22 54 54 0 29-24 54-54 54-29 0-54-24-54-54 0-30 22-54 54-54 z M1154 1402c30 0 54 22 54 54 0 29-24 54-54 54-29 0-54-24-54-54 0-29 24-54 54-54 z M867 1402c30 0 54 22 54 54 0 30-25 54-54 54-29 0-54-24-54-54 0-32 24-54 54-54 z" fill="#452829"/>
		<path d="M1961 1479c1 14 3 32 3 46 0 25-28 26-28 54l1 25c0 9-5 14-14 16-39 9-79 13-122 13-19 0-134-2-134-28l0-26c0-29-29-30-29-56 0-15 2-29 3-44-11 1-17 7-19 17-7 34-18 70-18 105 0 35 25 48 49 61 37 19 52 61 100 61 18 0 30-8 48-8 19 0 34 10 53 10 33 0 50-26 73-47 26-26 72-27 72-77 0-34-11-71-18-105-2-11-9-17-20-17 z M1171 1479c11 1 17 7 19 17 3 17 7 34 12 53 4 18 6 35 6 52 0 12-2 22-7 29-5 7-11 13-18 18-7 5-15 9-24 14-9 4-16 9-23 16-12 11-23 22-34 31-11 9-25 14-43 14-8 0-16-1-23-4-8-3-17-4-26-4-9 0-18 2-26 5-8 3-17 5-26 5-17 0-30-5-40-15l-33-32c-7-7-15-12-23-16-9-5-16-9-23-14-7-5-13-11-18-18-5-7-8-17-8-29 0-17 2-34 7-52 5-19 9-36 12-53 2-11 8-17 19-17l-2 22c-1 7-1 15-1 22 0 7 2 13 5 17l9 12 10 11c3 3 4 9 4 16l0 27c0 8 5 12 13 14 39 9 79 13 122 13l29 0c15-1 30-2 46-4 15-2 29-5 42-8 12-4 18-9 18-16l0-28c0-9 4-17 12-25l12-12c3-4 4-10 4-17 0-7 0-15-1-22l-2-22 z" fill="#000000"/>
		<path d="M1852 1258c52 0 98 36 102 92l10 130-3-1c1 16 3 32 3 48 0 21-28 25-28 52l0 26c0 8-4 13-13 15-38 11-82 13-122 13-19 0-134-2-134-28l0-26c0-29-29-30-29-56 0-15 2-29 3-44l-2 1 10-130c4-57 50-92 102-92l101 0 z M1062 1258c52 0 97 37 101 92l10 130-2-1c1 15 3 29 3 44 0 27-28 27-28 56l0 26c0 26-115 28-135 28-40 0-84-2-122-13-9-2-13-7-13-15l0-26c0-29-28-29-28-56 0-15 2-29 3-44l-3 1 10-130c4-56 50-92 102-92l102 0 z" fill="#573739"/>
		<path d="M1911 1508c-11 0-24 12-44 12-12 0-25 0-25 16 0 15 16 17 27 17 16 0 58-10 58-29 0-11-5-16-16-16 z M1698 1508c-5 0-9 2-12 5-3 3-5 6-5 11 0 2 1 5 3 10 2 3 3 4 5 4l1 0c15 10 31 15 50 15 5 0 11-1 17-2 6-2 9-7 9-14 0-5-1-9-4-12-3-3-7-5-12-5l-15 0-16-4c-2-1-4-2-5-4l-4-2-2 1c-3-2-7-3-10-3 z M901 1508c11 0 22 12 44 12 12 0 25 0 25 16 0 15-15 17-26 17-16 0-59-10-59-29 0-11 5-16 16-16 z M1114 1508c9 0 17 7 17 16 0 5-2 10-7 13l0 1-2 0c-15 11-33 15-50 15-11 0-26-2-26-17 0-8 7-16 16-16 27 0 41-12 52-12 z" fill="#000000"/>
		<path d="M1802 1330c-21 0-39 8-54 25 0 5 1 7 4 7l3 0c14-5 28-8 43-8 20 0 34 7 53 12l3-2c0-3 1-2 1-6-12-16-31-28-53-28 z M1010 1330c21 0 39 8 54 25 0 5-1 7-4 7l-3 0c-14-5-28-8-43-8-20 0-34 7-53 12l-3-2c0-3-1-2-1-6 12-16 31-28 53-28 z" fill="#990839"/>
		<path d="M1812 1384l-23 0c-5 0-10 3-13 8-2 3-3 6-3 10l16 62c1 7 5 10 11 10 6 0 10-3 11-10l16-57 0-3c0-5-1-8-2-10-1-2-3-5-6-8l-4-1c-1-1-2-1-3-1 z M1021 1384c4 0 8 2 13 7 1 4 2 8 2 16l-15 57c-1 7-5 10-11 10-6 0-10-3-11-10l-16-57-1-6 1-5 8-10c1 0 2 0 3-1l4-1 23 0 z" fill="#3D2123"/>
		<path d="M1911 1457c3 0 8 2 8 6 0 23-23 39-44 39-21 0-44-16-44-39 0-4 5-6 8-6l72 0 z M1765 1457c5 0 8 3 8 9 0 20-26 36-45 36-20 0-44-16-44-39 0-4 5-6 8-6l73 0 z M1120 1457c3 0 8 2 8 6 0 23-23 39-44 39-21 0-44-16-44-39 0-4 2-6 7-6l73 0 z M973 1457c3 0 8 2 8 6 0 23-23 39-44 39-21 0-44-16-44-39 0-4 5-6 8-6l72 0 z" fill="#FFFFFF"/>
		<path d="M1898 1457l1 8c0 15-12 27-26 27-14 0-27-12-27-27l1-8 51 0 z M1757 1457l1 8c0 14-12 27-27 27-14 0-27-12-27-27l2-8 51 0 z M1107 1457l1 8c0 14-12 27-27 27-14 0-26-12-26-27l1-8 51 0 z M965 1457l1 8c0 14-12 27-27 27-14 0-26-12-26-27l1-8 51 0 z" fill="#7D4533"/>
		<path d="M1889 1457l2 8c0 11-7 18-18 18-11 0-18-7-18-18l1-8 33 0 z M1747 1457l2 8c0 11-7 18-18 18-11 0-18-7-18-18l2-8 32 0 z M1097 1457l2 8c0 11-7 18-18 18-11 0-18-7-18-18l2-8 32 0 z M956 1457l1 8c0 11-7 18-18 18-11 0-18-9-18-18l2-8 33 0 z" fill="#000000"/>
		<path d="M1884 1471c3 0 5 2 5 5 0 3-2 5-5 5-3 0-5-2-5-5 0-3 2-5 5-5 z M1738 1471c3 1 5 3 5 5 0 1-2 3-5 5-4 0-6-2-6-5 0-3 2-5 6-5 z M1075 1471c3 1 5 3 5 5 0 1-2 3-5 5-3 0-5-2-5-5 0-3 2-5 5-5 z M928 1471c3 0 5 2 5 5 0 3-2 5-5 5-3 0-5-2-5-5 0-3 2-5 5-5 z" fill="#FFFFFF"/>
	</g></svg>
