<svg version="1.1" xmlns="http://www.w3.org/2000/svg"><g transform="scale(1,-1)">
		<path d="M786-287c25 0 45 17 45 43l0 747-359 0 0-747c0-26 22-43 46-43l268 0 z" fill="#D3883E"/>
		<path d="M831 215l0 135-359 152c0-91 27-215 143-215l108 0c43 0 108-21 108-72 z" fill="#B76A1E"/>
		<path d="M2362-287c64 0 122 54 122 120 0 15 2 26 2 41 0 19-3 55-31 55l-1104 0c-32 0-54 24-54 54l0 138c0 245-198 444-444 444l-351 0c-16 0-30-14-30-30l0-44c0-76 60-142 141-142l247 0c123 0 221-101 221-221l0-224c0-103 84-191 192-191l1089 0 z" fill="#E19747"/>
		<path d="M2149-287c44 0 78 36 78 78l3 430c0 31-21 63-52 74l-348 125c-7 3-16 4-26 4-26 0-54-14-69-38l-297-508c-10-17-15-36-15-55 0-61 49-110 110-110l616 0 z" fill="#CA0B4A"/>
	</g></svg>
