<svg version="1.1" xmlns="http://www.w3.org/2000/svg" viewBox="0 0 2300 2300"><g transform="scale(1,-1) translate(-256, -1869)">
		<path d="M1406 467c334 0 611 269 611 611l0 122-72 94-1067 0-83-69 0-147c0-334 269-611 611-611 z" fill="#990838"/>
		<path d="M1981-287l144 72 0 215c0 69-23 151-45 215-8 23-22 50-27 73-3 13-2 28-5 43-11 61-25 126-67 176-21 25-46 45-71 66-145 122-324 182-504 182-181 0-360-60-507-185-48-40-94-80-114-148-11-34-22-73-23-113-2-33-19-62-30-94-22-64-45-146-45-215l0-215 144-72 1150 0 z" fill="#F92F60"/>
		<path d="M1504 467c74 0 139 59 139 136l0 116-485 0 0-116c0-76 64-136 140-136l206 0 z" fill="#990838"/>
		<path d="M2197-287l0 251c0 235-106 461-288 611l0-862 288 0 z M903-287l0 862c-180-151-288-372-288-611l0-251 288 0 z M1442 0l0 467 74 0c73 0 142 56 142 136l0 116-342 0 0-182c0-33 24-60 54-67l0-470 72 0 z" fill="#CA0B4A"/>
		<path d="M1909-287l0 287-1006 0 0-287 1006 0 z" fill="#FCD53F"/>
		<path d="M1757 988c68 0 120 57 120 120 0 68-57 120-120 120-68 0-120-57-120-120 0-68 57-120 120-120 z M1054 988c68 0 120 57 120 120 0 68-57 120-120 120-68 0-120-57-120-120 0-68 57-120 120-120 z" fill="#E4B29A"/>
		<path d="M1522 647c118 0 224 92 232 220 11 141 18 268 28 409l1 14 0 13c0 188-151 350-345 350l-64 0c-48 0-93-9-135-28-140-61-211-189-211-336l1-13c11-139 18-270 29-409 8-124 110-220 232-220l232 0 z" fill="#EEBFAA"/>
		<path d="M1667 1090l-163 0c-7 0-16 6-16 13 0 52 54 88 100 88 39 0 99-35 99-82 0-10-9-19-20-19 z M1323 1090c7 0 16 6 16 13 0 52-54 88-100 88-39 0-99-35-99-82 0-10 9-19 20-19l163 0 z" fill="#FFFFFF"/>
		<path d="M1636 1089l-126 0c-1 7-2 10-2 17 0 35 28 66 65 66 37 0 65-31 65-66 0-7-1-10-2-17 z M1317 1089c1 7 2 11 2 18 0 35-28 65-65 65-37 0-65-31-65-66 0-7 1-10 2-17l126 0 z" fill="#7D4533"/>
		<path d="M1606 1090l-66 0c-3 5-5 11-5 17 0 21 16 37 38 37 21 0 37-15 37-37 0-7-1-12-4-17 z M1287 1090c3 5 5 11 5 17 0 21-16 37-38 37-21 0-37-15-37-37 0-7 1-12 4-17l66 0 z" fill="#000000"/>
		<path d="M1553 1121c7 0 11 4 11 11 0 7-4 12-11 12-6 0-12-5-12-12 0-7 5-11 12-11 z M1232 1121c7 0 12 4 12 11 0 7-5 12-12 12-7 0-11-5-11-12 0-7 4-11 11-11 z" fill="#FFFFFF"/>
		<path d="M1769 1135c22 1 40 18 44 40l40 224c1 5 2 9 2 13l0 13c0 89-57 118-110 146-78 41-120 149-228 149-41 0-70-20-111-20-43 0-78 25-118 25-77 0-117-63-167-113-66-66-164-71-164-188 0-8 1-17 2-25l40-224c4-22 22-39 45-40-3 37-7 74-7 111 0 58 63 58 63 127l0 63c0 20 10 33 29 38 89 27 187 32 277 32 88 0 189-5 277-32 17-5 28-19 28-38l0-63c0-70 65-73 65-128 0-36-4-74-7-110 z" fill="#FFF9BA"/>
		<path d="M1164 1219c18 0 48 31 101 31l20-1c22 0 40 17 40 38 0 37-31 42-60 42-34 0-141-19-141-70 0-22 17-40 40-40 z M1663 1219c22 0 39 17 39 40 0 51-104 71-138 71-29 0-62-5-62-41 0-30 17-38 38-38l22-1c51 0 80-31 101-31 z" fill="#A56953"/>
		<path d="M1433 953c22 0 37 20 37 39 0 18-16 71-28 107-12 32-12 51-35 51-14 0-23-9-26-21-8-29-38-113-38-136 0-19 15-40 37-40l53 0 z" fill="#D19479"/>
		<path d="M1406 823c25 0 48 7 71 20 23 13 55 45 55 57 0 9-4 13-12 13l-6-2c-42-15-65-27-108-27-38 0-74 9-108 27l-6 2c-6 0-12-5-12-12 0-2 1-4 2-7 24-42 75-71 124-71 z" fill="#990839"/>
		<path d="M2017 1101l0 121c0 81-67 144-144 144 0 194-154 359-359 359l-216 0c-194 0-359-154-359-359-81 0-144-67-144-144l0-121c0 107 87 193 192 193l837 0c106 0 193-85 193-193 z" fill="#F92F60"/>
		<path d="M1604 1366l0 94c0 109-93 193-198 193-105 0-198-82-198-193l0-94 396 0 z" fill="#321B41"/>
		<path d="M1404 1402c24 0 45 7 64 22 19 15 28 35 28 61 0 4 0 9 1 16 0 6-3 9-10 9-3 0-6-1-7-3-1-3-5-4-10-4-11 0-18 6-19 18l-1 15 2 24c1 14 2 27 2 39-1 12-6 18-15 18-3 0-7-1-12-4l-12-8c-13-8-23-17-28-26-6-10-10-19-12-27-3-8-5-15-6-20-1-6-5-9-11-9-6 0-11 3-14 8-3 5-8 7-14 7-9 0-14-4-14-13 0-13 2-26 6-40 3-15 9-28 16-40 7-13 17-23 28-31 11-8 23-12 38-12 z" fill="#F9C23C"/>
		<path d="M1756-287c21 74 252 924 252 943 0 17-11 32-27 36-27 8-82 27-106 27-16 0-31-11-35-27l-263-979 179 0 z" fill="#6D4534"/>
		<path d="M2158 80c20 0 38 8 55 24 16 16 30 35 42 58 12 22 22 45 31 68 8 23 14 43 18 58 3 9 6 20 11 32l14 37c5 12 9 24 12 36 3 12 5 22 5 31 0 7-1 15-2 22l-4 21-72 102 0-30-82 23c-9-1-18-1-27-1-21 0-42 2-63 8l-303 81c-2 1-5 1-9 1-15 0-24-7-28-20-1-6-5-18-10-37l-18-67c-7-25-15-52-22-80l-21-79c-7-25-12-45-16-62-5-17-7-26-7-28 0-7 2-14 7-19 5-5 11-9 18-11l303-81c15-4 30-9 43-16 13-7 27-16 40-25 7-5 12-8 17-8l14 0c4-1 9-3 16-7 6-5 15-14 28-29 4-1 7-2 10-2 z" fill="#9B9B9B"/>
		<path d="M2144 60l4 1c138 40 228 160 228 301 0 72-31 163-89 218-3 3-7 5-11 5-8 0-69-21-90-23 68-42 112-116 112-201 0-126-103-231-227-234 23-19 42-38 61-61 3-4 7-6 12-6 z" fill="#D3D3D3"/>
	</g></svg>
