<svg version="1.1" xmlns="http://www.w3.org/2000/svg" viewBox="0 0 2300 2300"><g transform="scale(1,-1) translate(-256, -1869)">
		<path d="M1909-287l48 287c8 53 24 88 24 144 0 58-17 93-24 143l-48 287c-28 23-59 45-92 66-137 3-274 7-411 7-139 0-277-7-416-10-31-19-60-40-87-63l-48-287c-8-54-24-86-24-143 0-58 17-93 24-144l48-287 1006 0 z" fill="#E6E6E6"/>
		<path d="M1442-287l0 407 287 491-97 111c-40 8-199 33-226 33-29 0-186-27-227-33l-96-111 287-481 0-417 72 0 z" fill="#00A6ED"/>
		<path d="M903-287l0 861c-181-149-288-375-288-610l0-251 288 0 z M1356-11c9 0 14 5 14 14l0 260-1 7-194 450c-68-21-131-51-191-88-5-47-14-98-14-145 0-35 84-7 84-42 0-21-63-60-63-82 0-5 2-9 5-12l350-358c3-3 6-4 10-4 z M1456-12c4 0 7 1 10 4l350 357c3 3 5 7 5 12 0 21-63 59-63 83 0 34 84 6 84 42 0 47-9 98-13 146-60 39-124 67-192 88-4-11-20-44-38-87-54-126-157-360-157-372l0-259c0-9 5-14 14-14 z M2197-287l0 251c0 235-106 459-288 609l0-860 288 0 z" fill="#F4F4F4"/>
		<path d="M2268 0l0 150c0 40-34 66-71 66-37 0-72-26-72-66l0-150 143 0 z" fill="#F4C6AD"/>
		<path d="M2089 252l108 76 0 103c23 0 38 6 38 33 0 15-3 39-23 39l-247 0c-15 0-22-19-22-32 0-33 8-40 38-40l0-103 108-76 z" fill="#B4F6FC"/>
		<path d="M2197-126l0 454-216 0 0-454 216 0 z" fill="#C3EF3C"/>
		<path d="M2031 135c6 0 6 15 6 18 0 3-2 14-6 14l-30 0c-3 0-4-2-4-7l-1-10c0-3 1-15 5-15l30 0 z M2031 264c3 0 5 2 6 7l0 10c0 3 0 15-6 15l-30 0c-3 0-4-3-4-8l-1-10c0-3 1-14 5-14l30 0 z" fill="#008463"/>
		<path d="M2211-287c36 0 57 30 57 62l0 253c0 32-21 62-57 62l-215 0c-33 0-50-29-50-58 0-16 8-32 21-43-15-11-22-25-22-44 0-19 7-34 22-45-15-11-22-25-22-44 0-19 7-34 22-45-14-11-21-25-21-42 0-30 17-56 50-56l215 0 z" fill="#FFD7C2"/>
		<path d="M1406 539c83 0 144 76 144 155l0 193c0 82-62 155-144 155-85 0-144-75-144-155l0-193c0-78 58-155 144-155 z" fill="#F4C6AD"/>
		<path d="M1757 988c68 0 120 57 120 120 0 68-57 120-120 120-68 0-120-57-120-120 0-68 57-120 120-120 z M1054 988c68 0 120 57 120 120 0 68-57 120-120 120-68 0-120-57-120-120 0-68 57-120 120-120 z" fill="#F4C6AD"/>
		<path d="M1522 647c118 0 224 92 232 220 11 141 18 268 28 409l1 14 0 13c0 188-151 350-345 350l-64 0c-48 0-93-9-135-28-140-61-211-189-211-336l1-13c11-139 18-270 29-409 8-124 110-220 232-220l232 0 z" fill="#FFD7C2"/>
		<path d="M1769 1135c22 1 40 18 44 40l40 224c1 5 2 9 2 13l0 13c0 89-57 118-110 146-78 41-120 149-228 149-41 0-70-20-111-20-43 0-78 25-118 25-77 0-117-63-167-113-66-66-164-71-164-188 0-8 1-17 2-25l40-224c4-22 22-39 45-40-3 37-7 74-7 111 0 58 63 58 63 127l0 63c0 20 10 33 29 38 89 27 187 32 277 32 88 0 189-5 277-32 17-5 28-19 28-38l0-63c0-70 65-73 65-128 0-36-4-74-7-110 z" fill="#212121"/>
		<path d="M1433 953c22 0 37 20 37 39 0 18-16 71-28 107-12 32-12 51-35 51-14 0-23-9-26-21-8-29-38-113-38-136 0-19 15-40 37-40l53 0 z" fill="#F1B99B"/>
		<path d="M1211 1006c72 0 119 31 166 89 8 11 16 16 29 16 13 0 21-5 29-16 47-58 95-88 167-88 103 0 199 89 199 195 0 114-90 200-199 200l-389 0c-109 0-202-88-202-198 0-109 90-198 200-198 z" fill="#F4C6AD"/>
		<path d="M1667 1090l-163 0c-7 0-16 6-16 13 0 52 54 88 100 88 39 0 99-35 99-82 0-10-9-19-20-19 z M1323 1090c7 0 16 6 16 13 0 52-54 88-100 88-39 0-99-35-99-82 0-10 9-19 20-19l163 0 z" fill="#FFFFFF"/>
		<path d="M1636 1089l-126 0c-1 7-2 10-2 17 0 35 28 66 65 66 37 0 65-31 65-66 0-7-1-10-2-17 z M1317 1089c1 7 2 11 2 18 0 35-28 65-65 65-37 0-65-31-65-66 0-7 1-10 2-17l126 0 z" fill="#7D4533"/>
		<path d="M1606 1090l-66 0c-3 5-5 11-5 17 0 21 16 37 38 37 21 0 37-15 37-37 0-7-1-12-4-17 z M1287 1090c3 5 5 11 5 17 0 21-16 37-38 37-21 0-37-15-37-37 0-7 1-12 4-17l66 0 z" fill="#000000"/>
		<path d="M1553 1121c7 0 11 4 11 11 0 7-4 12-11 12-6 0-12-5-12-12 0-7 5-11 12-11 z M1232 1121c7 0 12 4 12 11 0 7-5 12-12 12-7 0-11-5-11-12 0-7 4-11 11-11 z" fill="#FFFFFF"/>
		<path d="M1164 1219c18 0 48 31 101 31l20-1c22 0 40 17 40 38 0 37-31 42-60 42-34 0-141-19-141-70 0-22 17-40 40-40 z M1663 1219c22 0 39 17 39 40 0 51-104 71-138 71-29 0-62-5-62-41 0-30 17-38 38-38l22-1c51 0 80-31 101-31 z" fill="#212121"/>
		<path d="M1406 823c25 0 48 7 71 20 23 13 55 45 55 57 0 9-4 13-12 13l-6-2c-42-15-65-27-108-27-38 0-74 9-108 27l-6 2c-6 0-12-5-12-12 0-2 1-4 2-7 24-42 75-71 124-71 z" fill="#990839"/>
		<path d="M1211 987c79 0 135 36 182 98 3 5 8 7 13 7 18 0 65-104 197-104 115 0 217 100 217 214 0 120-95 219-218 219l-389 0c-116 0-221-92-221-216 0-119 97-218 219-218 z M1211 1025c-95 0-181 76-181 179 0 98 81 179 183 179l389 0c98 0 180-78 180-180 0-96-85-177-180-177-130 0-139 103-196 103-56 0-65-104-195-104 z" fill="#9B9B9B"/>
	</g></svg>
