<svg version="1.1" xmlns="http://www.w3.org/2000/svg" viewBox="0 0 2300 2300"><g transform="scale(1,-1) translate(-256, -1869)">
		<path d="M1714 614c128 0 231 103 231 231 0 52-27 97-27 120 0 4 1 9 3 14 15 35 23 65 23 103 0 131-100 176-100 258 0 125-78 236-213 236-13 0-24 6-33 17-53 64-110 99-192 99-80 0-141-33-193-99-9-11-18-17-33-17-138 0-212-111-212-237 0-79-101-130-101-257 0-36 9-69 23-103 3-5 4-9 4-16 0-5-1-10-4-17-14-33-23-64-23-101 0-128 103-231 231-231l616 0 z" fill="#2D242D"/>
		<path d="M1909-287l151 428-151 433c-27 22-55 42-84 61-34 22-122 62-122 62l-197 16c-38 3-61 8-99 8-38 0-58-4-98-7l-196-15-29-12c-65-29-126-67-181-113l-143-433 143-428 1006 0 z" fill="#533566"/>
		<path d="M1600-287l0 998-389 0 0-998 389 0 z" fill="#D3D3D3"/>
		<path d="M1553-287l-97 639 70 151-120 24-121-24 71-151-99-639 296 0 z" fill="#533566"/>
		<path d="M1574 401c14 0 27 12 27 27l0 340-390 0 0-340c0-15 13-27 27-27 6 0 12 2 17 6l151 120 151-120c5-4 10-6 17-6 z" fill="#F4F4F4"/>
		<path d="M2197-287l0 251c0 234-106 460-288 610l0-861 288 0 z M903-287l0 862c-181-151-288-366-288-611l0-251 288 0 z M1211-287l0 999-61 0-18-6c-4-2-8-4-12-5-4-1-7-2-8-3l-11-22-60-126c-7-14-12-26-16-36-4-10-6-16-6-18 0-9 3-14 9-17 5-3 12-4 21-4l28 1c9 1 18 1 27 1 9-1 16-2 22-5 5-3 8-9 8-17 0-9-6-19-19-30l-43-36c-15-13-29-27-42-42-13-15-20-32-20-49 0-9 1-17 4-23l196-562 1 0 z M1601-287l197 565c3 7 3 15 3 23 0 19-7 37-20 50l-98 95c-3 3-5 7-5 14 0 16 13 20 30 21l55-3c17 0 30 5 30 21 0 12-85 183-91 198-15 7-37 10-52 18l-49 0 0-1002 z" fill="#321B41"/>
		<path d="M1406 539c83 0 144 76 144 155l0 193c0 82-62 155-144 155-85 0-144-75-144-155l0-193c0-78 58-155 144-155 z" fill="#8B5C56"/>
		<path d="M1720 988c64 0 117 53 117 117 0 63-50 117-117 117-64 0-116-52-116-117 0-64 51-117 116-117 z M1091 988c64 0 117 53 117 117 0 63-50 117-117 117-64 0-116-52-116-117 0-64 51-117 116-117 z" fill="#8B5C56"/>
		<path d="M1406 683c196 0 343 148 351 340 3 73 8 146 8 219 0 46-24 103-80 103l-227 0c-97 0-164 43-225 121-4 5-9 8-15 8-17 0-18-14-23-26-44-109-148-75-148-195 0-76 6-154 9-230 8-188 146-340 350-340 z" fill="#966661"/>
		<path d="M1637 1101c-47 17-95 29-143 44 19 32 52 59 94 59 26 0 93-13 93-49 0-21-28-41-44-54 z M1163 1102c46 14 97 30 144 43-21 31-54 59-95 59-26 0-94-15-94-49 0-22 31-42 45-53 z" fill="#000000"/>
		<path d="M1652 1098l-159 0c-11 0-17 6-17 19 0 4 4 16 7 20 16 36 52 61 92 61 40 0 98-38 98-80 0-10-10-20-21-20 z M1307 1098c11 0 17 6 17 19 0 44-60 81-99 81-39 0-97-36-97-82 0-11 10-18 20-18l159 0 z" fill="#FFFFFF"/>
		<path d="M1621 1097l-123 0c-1 7-2 10-2 17 0 35 30 64 64 64 35 0 64-30 64-64 0-7-1-12-3-17 z M1302 1097c1 7 2 10 2 17 0 35-30 64-64 64-35 0-64-30-64-64 0-7 1-10 2-17l124 0 z" fill="#7D4533"/>
		<path d="M1593 1097l-65 0c-3 5-4 10-4 17 0 21 17 37 36 37 19 0 37-16 37-37 0-7-1-12-4-17 z M1272 1097c3 5 4 10 4 17 0 21-17 37-36 37-19 0-37-16-37-37 0-5 1-10 4-17l65 0 z" fill="#000000"/>
		<path d="M1538 1128c7 0 12 4 12 11 0 7-5 12-12 12-7 0-11-5-11-12 0-7 4-11 11-11 z M1218 1128c7 0 12 4 12 11 0 8-4 12-12 12-7 0-11-5-11-12 0-7 4-11 11-11 z" fill="#FFFFFF"/>
		<path d="M1423 917c22 0 37 20 37 39 0 21-16 70-28 107-10 33-12 51-35 51-14 0-23-9-26-21-8-30-37-111-37-137 0-22 16-39 37-39l52 0 z" fill="#75443E"/>
		<path d="M1397 804c50 0 93 31 115 71 1 3 2 5 2 7 0 7-4 12-11 12-3 0-60-29-107-29-50 0-102 29-105 29-7 0-11-5-11-12 0-2 1-4 2-7 22-43 69-71 115-71 z" fill="#990839"/>
		<path d="M1556 1229c112 0 175 55 242 132l-1 1c39 41 84 75 84 139 0 48-25 88-63 113-114 73-275 111-405 111-101 0-224-23-327-65-84-34-157-71-157-158 0-76 64-111 100-157 53-70 136-116 226-116l301 0 z" fill="#533566"/>
		<path d="M1798 1361c0 38-24 64-61 74-102 26-216 37-327 37-109 0-225-10-335-37-37-10-61-36-61-74 128 34 261 53 392 53 131 0 264-19 392-53 z" fill="#966661"/>
		<path d="M1888 380c23 0 21 18 29 28 5 7 36 2 36 21 0 9-9 18-18 18l-46 0c-16 0-33-10-39-24l-3 0c-6 14-23 24-39 24l-44 0c-11 0-18-7-18-18 0-24 30-12 35-20 7-15 11-29 30-29l77 0 z M1398 1561c5 0 8 3 8 8l-1 3-39 71c-3 5-8 8-13 8l-101 0c-5 0-8-3-8-8l1-4 39-70c3-5 8-8 13-8l101 0 z M1514 1562c5 0 10 3 13 8l40 70 1 3c0 6-3 9-8 9l-101 0c-5 0-10-3-13-8l-39-70-1-4c0-5 2-8 7-8l101 0 z" fill="#8B5C56"/>
		<path d="M1406 1486c36 0 63 29 63 63 0 36-29 63-63 63-36 0-63-29-63-63 0-36 29-63 63-63 z" fill="#75443E"/>
		<path d="M1427 1517c3 0 5 2 5 5 0 3-4 15-5 18 2 7 15 13 15 20 0 8-15 6-21 7-4 3-8 15-11 19l-4 3c-3 0-6-3-7-10-3-11-3-12-20-12-6-1-9-3-9-7 0-7 13-13 15-20-1-3-5-15-5-18 0-3 2-5 5-5 3 0 16 8 19 9 6 0 18-9 23-9 z" fill="#FFF478"/>
	</g></svg>
