<svg version="1.1" xmlns="http://www.w3.org/2000/svg" viewBox="0 0 2300 2300"><g transform="scale(1,-1) translate(-256, -1869)">
		<path d="M2073 641c45 0 71 28 79 71l78 404c3 19 5 36 5 51 0 50-12 96-37 137-52 85-117 97-191 141-127 75-193 253-403 253-69 0-133-31-205-31-17 0-35 1-56 4-75 10-106 39-169 39-60 0-132-23-178-69l-128-135c-38-41-114-82-164-107-96-51-145-139-145-259 0-6 1-12 2-17l79-404c8-42 40-71 85-71 465 0 883-7 1348-7 z" fill="#000000"/>
		<path d="M755 357c117 0 214 96 214 214 0 117-96 214-214 214-13 0-26-1-39-4l9-133c-65 0-81 47-91 99-60-40-93-107-93-176 0-117 96-214 214-214 z M2039 357c117 0 213 94 213 214 0 68-32 136-93 177-10-52-20-107-86-107l10 139c-15 3-30 5-44 5-117 0-214-96-214-214 0-120 94-214 214-214 z" fill="#452829"/>
		<path d="M1613-285c223 0 411 171 427 399l36 527-3 0c3 48 6 96 10 144 3 16 5 31 5 47 0 38-20 77-37 92-9 7-18 36-26 43-18 14-44 62-44 106l0 114c0 67-78 76-136 88-145 28-293 39-442 39-138 0-382-14-521-56-36-11-57-31-57-71l0-114c0-126-114-120-114-234 0-9 1-17 2-25 6-50 9-115 12-166l-6 0c14-174 27-360 41-534 19-230 196-399 427-399l426 0 z" fill="#573739"/>
		<path d="M1449 285c37 0 73 31 73 71 0 8-1 15-4 22l-70 226c-7 23-27 37-51 37-22 0-44-14-51-37-13-39-74-216-74-247 0-41 34-72 73-72l104 0 z" fill="#3D2123"/>
		<path d="M1397 54c83 0 164 41 210 112 3 4 4 8 4 11 0 10-10 19-21 19l-9-2c-61-30-118-44-184-44-67 0-122 15-184 44-4 1-7 2-10 2-11 0-20-9-20-19 0-5 1-8 3-11 46-72 130-112 211-112 z" fill="#990839"/>
		<path d="M1859 571l-296 0c-21 0-31 14-31 36 19 92 99 149 183 149 83 0 158-57 180-140l1-9c0-22-18-36-37-36 z M1231 571c16 0 31 12 31 30l-1 6c-19 88-95 149-182 149-86 0-159-59-180-140l-1-9c0-22 18-36 37-36l296 0 z" fill="#FFFFFF"/>
		<path d="M1802 571l-229 0c-3 11-4 20-4 31 0 67 52 119 118 119 68 0 119-55 119-119 0-11-1-20-4-31 z M1220 571c3 11 5 22 5 31 0 68-55 119-119 119-63 0-119-52-119-119 0-9 2-20 5-31l228 0 z" fill="#7D4533"/>
		<path d="M1746 571l-119 0c-5 9-8 20-8 31 0 39 31 68 68 68 38 0 67-31 67-68 0-11-3-22-8-31 z M1166 571c5 9 8 20 8 31 0 39-31 68-68 68-38 0-67-31-67-68 0-11 3-22 8-31l119 0 z" fill="#000000"/>
		<path d="M1650 626c12 0 21 10 21 22 0 10-10 21-21 21-11 0-21-11-21-21 0-12 9-22 21-22 z M1066 626c12 0 21 12 21 22 0 10-10 21-21 21-10 0-22-9-22-21 0-12 10-22 22-22 z" fill="#FFFFFF"/>
		<path d="M1846 803c-17 0-32 5-45 16l-1 0c-35 27-81 37-123 37-19 0-34-4-52-4-39 0-71 33-71 71 0 69 67 76 120 76 64 0 243-35 243-126 0-40-33-70-71-70 z M940 803c16 0 31 5 45 16l1 0c17 13 37 23 59 29 22 5 44 8 65 8 9 0 17-1 26-2 8-1 16-2 25-2 9 0 18 2 27 6 9 3 16 8 23 15 7 7 12 14 16 23 4 8 6 17 6 27 0 17-4 31-11 41-8 10-18 18-29 23-12 5-25 9-39 10-15 1-28 2-41 2-49 0-95-9-139-26-11-5-24-10-37-17-14-7-26-14-35-22l-3-3-3-2 1-1-1-1-1 1c-8-7-14-15-18-24-5-10-7-20-7-31 0-19 7-36 21-49 13-14 30-21 49-21 z" fill="#000000"/>
	</g></svg>
