<svg version="1.1" xmlns="http://www.w3.org/2000/svg" viewBox="0 0 2300 2300"><g transform="scale(1,-1) translate(-256, -1869)">
		<path d="M1745 360c140 0 254 113 254 254 0 41-10 73-26 111-3 7-4 11-4 18 0 7 1 11 4 18 16 37 26 71 26 112 0 37-16 117-43 144l-211 212-698-7-191-204c-27-30-43-106-43-144 0-42 10-74 26-113 3-7 4-11 4-18 0-7-1-11-4-18-16-38-26-68-26-111 0-142 116-254 254-254l678 0 z" fill="#000000"/>
		<path d="M1801 719c69 0 126 56 126 126 0 69-56 126-126 126-69 0-126-56-126-126 0-69 56-126 126-126 z M1011 719c68 0 125 55 125 126 0 70-57 126-125 126-69 0-126-56-126-126 0-69 56-126 126-126 z" fill="#452829"/>
		<path d="M2229-287c-18 213-116 400-266 538l-96-268 96-270 266 0 z M1568-287l120 362-120 377c-53 10-107 15-162 15-55 0-109-5-162-15l-88-377 88-362 324 0 z M849-287l68 270-68 269c-155-143-249-333-267-539l267 0 z" fill="#8B62BF"/>
		<path d="M1963-287l0 538c-40 37-82 68-126 95l-24-226c-5-43-12-70-12-113 0-38 7-62 12-98l24-196 126 0 z M975-287l66 319-66 314c-44-27-86-58-126-95l0-538 126 0 z M1693-287l66 353-66 350c-41 15-82 27-125 36l0-739 125 0 z M1244-287l0 739c-43-9-85-21-126-36l-62-350 62-353 126 0 z" fill="#FF6723"/>
		<path d="M1406 234c70 0 144 51 144 130l0 85-288 0 0-85c0-76 69-130 144-130 z" fill="#452829"/>
		<path d="M1837-287l0 633c-45 28-93 51-144 70l0-703 144 0 z M1118-287l0 703c-51-19-98-42-143-70l0-633 143 0 z" fill="#FFF478"/>
		<path d="M1406 378c218 0 377 157 385 370 3 80 10 159 10 239 0 58-28 112-88 112l-249 0c-106 0-182 48-247 132-4 6-10 9-17 9-17 0-20-16-25-28-52-119-164-82-164-213 0-84 7-167 10-251 8-212 169-370 385-370 z" fill="#573739"/>
		<path d="M1663 863c-51 18-97 30-149 46 22 32 55 62 98 62 25 0 98-14 98-52 0-21-29-41-47-56 z M1136 863c51 18 97 30 149 46-21 32-54 62-97 62-29 0-98-15-98-51 0-23 29-43 46-57 z" fill="#000000"/>
		<path d="M1672 859l-170 0c-13 0-18 10-18 21 0 4 4 18 7 22 17 38 55 66 98 66 42 0 105-38 105-87 0-12-10-22-22-22 z M1310 859c13 0 18 10 18 21 0 47-59 88-105 88-42 0-105-38-105-87 0-12 10-22 22-22l170 0 z" fill="#FFFFFF"/>
		<path d="M1639 859l-132 0c-2 6-3 12-3 19 0 38 32 69 69 69 40 0 69-31 69-69 0-7-1-13-3-19 z M1306 859l1 9 0 9c0 38-28 70-68 70-40 0-68-31-68-69 0-7 1-13 3-19l132 0 z" fill="#7D4533"/>
		<path d="M1608 859l-69 0c-3 7-5 13-5 19 0 21 17 39 39 39 22 0 40-18 40-39 0-6-2-12-5-19 z M1273 859c3 7 5 13 5 19 0 21-17 39-39 39-21 0-39-17-39-39 0-7 1-14 4-19l69 0 z" fill="#000000"/>
		<path d="M1552 893c8 0 12 4 12 12 0 8-4 12-12 12-6 0-12-5-12-12 0-6 6-12 12-12 z M1216 893c7 0 12 6 12 12 0 7-5 12-12 12-8 0-12-4-12-12 0-8 4-12 12-12 z" fill="#FFFFFF"/>
		<path d="M1436 719c23 0 42 18 42 40 0 14-19 69-33 108-16 45-19 49-39 49-15 0-25-7-29-20-8-26-43-114-43-137 0-22 19-40 42-40l60 0 z" fill="#3D2123"/>
		<path d="M1406 567c51 0 99 28 124 70 1 3 2 5 2 7 0 7-5 13-12 13l-5-2c-40-15-67-28-109-28-40 0-73 9-108 28l-6 2c-7 0-12-6-12-13 0-2 1-4 2-7 25-44 79-70 124-70 z" fill="#990839"/>
		<path d="M1837-287l0 633c-45 28-93 51-144 70l0-703 144 0 z M1118-287l0 703c-51-19-98-42-143-70l0-633 143 0 z M1855 990c49 0 90 39 90 89 0 64-52 89-108 89l0 194c0 148-108 291-270 291l-321 0c-156 0-271-136-271-291l0-194c-56 0-108-25-108-89 0-50 41-89 90-89l898 0 z" fill="#FFF478"/>
		<path d="M1622 1168l0 415c0 80-69 142-148 142l-136 0c-81 0-148-64-148-142l0-415 432 0 z" fill="#573739"/>
	</g></svg>
