<svg version="1.1" xmlns="http://www.w3.org/2000/svg" viewBox="0 0 2300 2300"><g transform="scale(1,-1) translate(-256, -1869)">
		<path d="M1910-2c80 0 143 62 143 143l0 319c0 32 24 41 49 41l25 0c79 0 141 63 141 142l0 33c0 23 19 41 41 41l31 0c39 0 72 31 72 72l0 287c0 39-31 72-72 72-39 0-72-34-72-72l0-103c0-23-19-41-41-41l-133 0c-23 0-39 14-43 37-26 141-110 224-252 249-19 4-34 18-34 40l0 139c0 22-18 41-41 41l-26 0c-82 0-148-67-148-149l0-28c0-22-18-41-41-41l-206 0c-22 0-41 18-41 41l0 24c0 81-65 153-152 153-29 0-63-3-63-41l0-139c0-22-15-36-34-40-141-25-227-107-254-248-4-21-20-37-43-37l-129-1c-22 0-41 18-41 41l0 103c0 38-33 72-72 72-40 0-74-28-74-72l0-287c0-20 7-37 21-51 21-21 43-20 75-21 24-1 47-10 47-41l0-31c0-81 67-144 144-144l31 0c23 0 41-19 41-41l0-318c0-81 67-144 144-144 29 0 72 0 72 41l0 206c0 22 18 41 41 41l780 0c23 0 41-19 41-41l0-206c0-22 18-41 41-41l32 0 z M1909 1438l-103 0c-22 0-41 18-41 41l0 102c0 38 33 72 72 72l72 0c39 0 72-31 72-72l0-71c0-39-31-72-72-72 z M1696-218l-74 0c-38 0-72 33-72 72l0 72c0 39 31 72 72 72l174 0c23 0 41-19 41-41l0-33c0-76-60-142-141-142 z M1190-218l-72 0c-80 0-143 62-143 143l0 32c0 22 18 41 41 41l174 0c39 0 72-31 72-72l0-72c0-39-34-72-72-72 z M1006 1438c23 0 41 19 41 41l0 102c0 38-33 72-72 72l-72 0c-39 0-72-31-72-72l0-71c0-39 31-72 72-72l103 0 z" fill="#635994"/>
		<path d="M1765 647c41 0 72 34 72 73l0 141c0 39-29 74-72 74-43 0-72-35-72-74l0-141c0-39 31-73 72-73 z M1047 647c41 0 71 34 71 73l0 141c0 37-29 74-71 74-43 0-72-35-72-74l0-141c0-39 31-73 72-73 z" fill="#402A32"/>
	</g></svg>
