<svg version="1.1" xmlns="http://www.w3.org/2000/svg" viewBox="0 0 2300 2300"><g transform="scale(1,-1) translate(-256, -1869)">
		<path d="M2108-323c106 0 196 82 196 192 0 9-1 18-2 27l-82 725 200 200c17 17 26 38 26 61 0 49-38 89-88 89l-177 0c-3 25-6 50-8 75-32 411-353 715-767 715-334 0-636-211-734-537-27-88-29-166-40-253l-181 0c-50 0-88-40-88-89 0-23 9-44 26-61l203-203-82-723c-1-9-2-19-2-28 0-112 87-190 197-190 182 0 200 141 350 141 154 0 169-141 351-141 183 0 201 141 350 141 154 0 169-141 352-141 z" fill="#9B9B9B"/>
		<path d="M705-252c156 0 165 142 350 142 182 0 202-141 351-141 152 0 172 141 350 141 181 0 204-141 353-141 51 0 93 29 113 73 9 18 10 39 10 56l-87 769c24 24 229 220 229 235 0 9-7 17-16 17l-241 0c-8 74-15 138-25 212-42 334-350 578-686 578-133 0-262-37-373-106-157-98-293-283-313-472-10-74-16-138-24-212l-245 0c-9 0-15-8-15-17 0-12 210-216 231-237l-87-769 0-9c0-71 53-119 125-119 z" fill="#FFFFFF"/>
		<path d="M1406 647c86 0 158 21 216 62 79 56 143 177 143 297l-718 0c0-19 2-38 6-57 37-202 166-302 353-302 z" fill="#89029C"/>
		<path d="M1406 503c129 0 232 92 258 212 5 27 15 53 15 80 0 43-28 78-69 89-66 19-135 25-204 25-34 0-68-2-103-5-81-9-170-27-170-109 0-27 10-53 15-80 28-127 135-212 258-212 z" fill="#F70A8D"/>
		<path d="M1658 1150c58 0 107 47 107 108 0 60-49 108-107 108-61 0-108-48-108-108 0-63 50-108 108-108 z M1082 1150c18 0 85 35 128 59 43 24 52 25 52 49 0 15-7 26-20 32-26 13-135 76-160 76-18 0-35-16-35-35 0-15 7-26 19-33l80-40-80-40c-13-7-19-18-19-33 0-18 16-35 35-35 z" fill="#321B41"/>
	</g></svg>
