<svg version="1.1" xmlns="http://www.w3.org/2000/svg" viewBox="0 0 2300 2300"><g transform="scale(1,-1) translate(-256, -1869)">
		<path d="M2039 357c117 0 213 94 213 214 0 117-94 214-213 214-117 0-214-96-214-214 0-120 94-214 214-214 z M755 357c117 0 214 96 214 214 0 117-96 214-214 214-117 0-214-96-214-214 0-117 96-214 214-214 z" fill="#452829"/>
		<path d="M1613-285c223 0 411 171 427 399 17 242 33 500 50 742 1 17 2 34 2 51 0 351-284 626-635 626l-121 0c-264 0-485-158-584-390-39-91-50-177-50-267l1-20 57-742c19-230 195-399 427-399l426 0 z" fill="#573739"/>
		<path d="M1449 285c37 0 73 31 73 71 0 8-1 15-4 22l-70 226c-7 23-27 37-51 37-22 0-44-14-51-37-13-39-74-216-74-247 0-41 34-72 73-72l104 0 z" fill="#3D2123"/>
		<path d="M1397 54c83 0 164 41 210 112 3 4 4 8 4 11 0 10-10 19-21 19l-9-2c-61-30-118-44-184-44-67 0-122 15-184 44-4 1-7 2-10 2-11 0-20-9-20-19 0-5 1-8 3-11 46-72 130-112 211-112 z" fill="#990839"/>
		<path d="M1859 571l-296 0c-21 0-31 14-31 36 19 92 99 149 183 149 83 0 158-57 180-140l1-9c0-22-18-36-37-36 z M1231 571c16 0 31 12 31 30l-1 6c-19 88-95 149-182 149-86 0-159-59-180-140l-1-9c0-22 18-36 37-36l296 0 z" fill="#FFFFFF"/>
		<path d="M1802 571l-229 0c-3 11-4 20-4 31 0 67 52 119 118 119 68 0 119-55 119-119 0-11-1-20-4-31 z M1220 571c3 11 5 22 5 31 0 68-55 119-119 119-63 0-119-52-119-119 0-9 2-20 5-31l228 0 z" fill="#7D4533"/>
		<path d="M1746 571l-119 0c-5 9-8 20-8 31 0 39 31 68 68 68 38 0 67-31 67-68 0-11-3-22-8-31 z M1166 571c5 9 8 20 8 31 0 39-31 68-68 68-38 0-67-31-67-68 0-11 3-22 8-31l119 0 z" fill="#000000"/>
		<path d="M1650 626c12 0 21 10 21 22 0 10-10 21-21 21-11 0-21-11-21-21 0-12 9-22 21-22 z M1066 626c12 0 21 12 21 22 0 10-10 21-21 21-10 0-22-9-22-21 0-12 10-22 22-22 z" fill="#FFFFFF"/>
		<path d="M1846 803c-17 0-32 5-45 16l-1 0c-35 27-81 37-123 37-19 0-34-4-52-4-39 0-71 33-71 71 0 69 67 76 120 76 64 0 243-35 243-126 0-40-33-70-71-70 z M940 803c16 0 31 5 45 16l1 0c17 13 37 23 59 29 22 5 44 8 65 8 9 0 17-1 26-2 8-1 16-2 25-2 9 0 18 2 27 6 9 3 16 8 23 15 7 7 12 14 16 23 4 8 6 17 6 27 0 17-4 31-11 41-8 10-18 18-29 23-12 5-25 9-39 10-15 1-28 2-41 2-49 0-95-9-139-26-11-5-24-10-37-17-14-7-26-14-35-22l-3-3-3-2 1-1-1-1-1 1c-8-7-14-15-18-24-5-10-7-20-7-31 0-19 7-36 21-49 13-14 30-21 49-21 z" fill="#9B9B9B"/>
		<path d="M2074 642l0 251c0 23-9 42-26 56l-100 82c-33 26-52 67-52 110 0 80 62 143 143 143 77 0 142-63 142-143l-30-428c-3-41-38-71-77-71 z M719 642l0 251c0 23 9 41 27 56l100 82-1 0c34 27 53 68 53 110 0 80-62 143-143 143-80 0-143-62-143-143 0-7 2-13 2-20l29-408c3-41 37-71 76-71 z" fill="#9B9B9B"/>
		<path d="M1718 1070c18 0 35 16 35 35 0 19-17 36-35 36l-642 0c-19 0-36-15-36-36 0-18 17-35 36-35l642 0 z M1575 1212c19 0 36 15 36 36 0 19-15 36-36 36l-356 0c-19 0-36-15-36-36 0-19 15-36 36-36l356 0 z M1040 405c53 0 106 12 161 58 3 1 13 11 13 12 7 7 10 15 10 24 0 19-16 36-35 36-24 0-68-58-149-58-18 0-35-17-35-36 0-19 17-36 35-36 z M1763 405c18 0 35 17 35 36 0 19-17 36-35 36-113 0-115 58-149 58-19 0-35-17-35-36 0-9 3-16 9-23 46-55 103-71 175-71 z" fill="#3D2123"/>
	</g></svg>
