<svg version="1.1" xmlns="http://www.w3.org/2000/svg" viewBox="0 0 2300 2300"><g transform="scale(1,-1) translate(-256, -1869)">
		<path d="M1714 360c128 0 231 103 231 231 0 37-8 67-24 101-3 5-4 9-4 16 0 4 1 9 4 16 14 34 23 67 23 103 0 107-77 154-77 258 0 130-105 237-237 237-15 0-23 7-32 17-53 64-110 99-192 99-82 0-137-35-192-99-9-11-20-16-33-16-130 0-237-105-237-237 0-45-12-88-37-128-26-42-40-83-40-131 0-37 8-67 23-102 3-5 4-9 4-16 0-19-27-64-27-118 0-128 103-231 231-231l616 0 z" fill="#FFF9BA"/>
		<path d="M1981-287l72 269-72 270c-33 28-69 51-108 72l-945 0c-35-20-66-45-97-72l-72-270 72-269 1150 0 z" fill="#633589"/>
		<path d="M2250-287c-33 217-111 397-269 539l0-539 269 0 z M831-287l0 539c-165-151-236-330-270-539l270 0 z" fill="#8B62BF"/>
		<path d="M714-224c43 0 82 13 117 36l0 440-65 0c-147 0-264-116-264-264 0-117 93-212 212-212 z M2099-224c118 0 211 94 211 211 0 147-118 265-264 265l-65 0 0-440c35-23 75-36 118-36 z" fill="#774AA6"/>
		<path d="M1406-170c52 0 111 20 144 62l323 432c-23 13-47 24-72 35l-197 1-401 0-203-1c-25-10-48-22-70-35l332-432c33-44 95-62 144-62 z" fill="#A17FD5"/>
		<path d="M1406-98c29 0 69 10 88 36l307 422c-137 55-255 71-395 71-147 0-276-19-407-71l319-423c19-25 58-35 88-35 z" fill="#E4B29A"/>
		<path d="M1765 701c57 0 108 46 108 108 0 58-49 108-108 108-59 0-107-49-107-108 0-57 45-108 107-108 z M1047 701c58 0 107 47 107 108 0 58-47 108-107 108-58 0-108-49-108-108 0-63 50-108 108-108 z" fill="#E4B29A"/>
		<path d="M1411 96c35 0 67 26 71 63 15-19 35-28 58-28 38 0 72 33 72 72 0 10-2 19-6 27 10-3 19-5 28-5 38 0 72 33 72 72 0 23-10 44-29 57 37 4 63 36 63 71 0 39-31 72-72 72-38 0-72-33-72-72 0-23 10-44 29-57-37-4-63-36-63-71 0-10 2-19 6-28-10 3-19 5-28 5-38 0-67-28-72-63-13 19-34 29-57 29-23 0-44-9-57-28-4 36-37 62-71 62-11 0-20-2-29-6 4 9 6 18 6 29 0 37-28 66-62 71 19 13 28 34 28 57 0 39-31 72-72 72-40 0-71-34-71-72 0-37 28-66 62-71-19-13-29-34-29-57 0-39 31-72 72-72 10 0 20 2 29 6-4-9-6-19-6-28 0-39 31-72 72-72 23 0 44 8 57 27 4-36 37-62 71-62 z" fill="#F3EEF8"/>
		<path d="M1406 396c195 0 342 143 350 339l9 219-1 0c0 48-24 104-80 104l-227 0c-96 0-162 43-224 120-4 5-9 8-16 8-8 0-14-4-17-12-22-51-40-76-89-102-41-21-64-53-64-102 0-79 6-156 9-235 8-189 147-339 350-339 z" fill="#EEBFAA"/>
		<path d="M1651 825c-51 17-103 30-154 46 22 33 56 64 100 64 29 0 101-15 101-53 0-24-31-44-47-57 z M1170 825c51 17 103 31 154 46-22 33-57 64-101 64-29 0-100-16-100-53 0-24 31-44 47-57 z" fill="#000000"/>
		<path d="M1666 820l-171 0c-12 0-17 9-17 20 0 4 4 18 7 22 17 38 56 65 99 65 43 0 104-38 104-87 0-10-11-20-22-20 z M1325 820c12 0 18 9 18 20 0 4-6 18-7 22-18 38-56 65-99 65-43 0-104-38-104-87 0-10 10-20 21-20l171 0 z" fill="#FFFFFF"/>
		<path d="M1634 820l-132 0c-1 3-2 6-2 9l0 9c0 39 31 68 68 68 19 0 35-7 48-20 17-17 20-39 20-57 0-3-1-6-2-9 z M1319 820c1 7 2 11 2 18 0 39-31 68-68 68-19 0-35-7-48-20-17-17-20-39-20-57 0-3 1-6 2-9l132 0 z" fill="#7D4533"/>
		<path d="M1602 820l-69 0c-3 7-4 11-4 18 0 23 17 39 39 39 22 0 39-16 39-39 0-7-2-13-5-18 z M1287 820c3 5 5 11 5 18 0 21-17 39-39 39-22 0-39-16-39-39 0-7 1-13 4-18l69 0 z" fill="#000000"/>
		<path d="M1572 853c8 0 12 4 12 12 0 8-4 12-12 12-8 0-12-4-12-12 0-8 4-12 12-12 z M1229 853c8 0 12 4 12 12 0 8-4 12-12 12-8 0-12-4-12-12 0-8 4-12 12-12 z" fill="#FFFFFF"/>
		<path d="M1406 539c51 0 100 30 124 71 1 3 2 5 2 7 0 7-5 13-12 13-5 0-63-30-114-30-40 0-73 9-108 28l-6 2c-7 0-12-6-12-13 0-2 1-4 2-7 24-44 78-71 124-71 z" fill="#990839"/>
		<path d="M1432 665c23 0 37 19 37 40 0 21-16 70-28 107-10 33-12 51-35 51-14 0-23-9-26-21-8-29-37-113-37-138 0-19 15-39 37-39l52 0 z" fill="#D19479"/>
		<path d="M1837 1294c19 0 36 15 36 36 0 19-15 36-36 36-19 0-36-15-36-36 0-19 15-36 36-36 z M975 1294c19 0 36 15 36 36 0 19-15 36-36 36-19 0-36-15-36-36 0-19 15-36 36-36 z" fill="#37C9CD"/>
		<path d="M1047 1292l252 54-138 156c10 10 19 27 19 43 0 30-25 53-54 53-32 0-54-25-54-55 0-25 17-44 39-51l-64-200 z M1765 1292l-64 200c22 7 39 27 39 52 0 29-24 54-54 54-32 0-53-26-53-55 0-17 6-30 19-41l-140-156 253-54 z" fill="#EEBFAA"/>
		<path d="M1790 1258c12 0 20 6 25 17l65 154c2-1 5-1 10-1 15 0 28 5 39 16 11 11 16 24 16 39 0 15-5 29-16 40-11 11-24 16-39 16-15 0-28-5-38-15-11-11-16-24-16-39 0-8 1-15 3-22l-56-17c-13-5-27-9-42-14l-75-23c-9-3-15-4-16-4-7 0-13 3-18 8l-204 206c9 5 17 12 23 21 5 9 8 18 8 29 0 15-5 29-15 40-10 11-23 16-38 16-15 0-28-5-39-16-11-11-17-24-17-39 0-11 3-20 9-29 6-9 14-16 23-20l-203-208c-5-5-10-7-17-7-3 0-14 3-32 8-18 5-38 11-59 18l-100 31c3 6 4 13 4 22 0 15-5 27-15 38-11 11-24 16-39 16-15 0-28-5-38-15-11-11-16-24-16-39 0-9 2-17 5-24 3-8 8-14 14-19 6-5 13-9 21-11 5-2 10-3 15-3l10 1 65-154c4-11 12-17 25-17l768 0 z" fill="#FFF478"/>
		<path d="M1406 1294c51 0 90 39 90 90 0 50-40 90-90 90-50 0-90-40-90-90 0-51 39-90 90-90 z" fill="#F92F60"/>
		<path d="M1658 1294c18 0 35 17 35 36 0 19-17 36-35 36-19 0-36-15-36-36 0-19 15-36 36-36 z M1154 1294c19 0 36 15 36 36 0 19-15 36-36 36-18 0-36-17-36-36 0-18 17-36 36-36 z" fill="#00D1ED"/>
		<path d="M1152 957c16 0 53 23 95 23 9 0 19-2 28-2 10 0 19 8 19 18 0 17-18 23-35 23-63 0-81-11-117-25l0-1c-6-3-9-9-9-17 0-11 8-19 19-19 z M1660 957c10 0 19 10 19 21 0 30-96 42-114 42l-13 0c-16 0-34-5-34-20 0-12 7-21 20-21 9 0 18 2 27 2 25 0 61-6 84-21l1 0c3-2 6-3 10-3 z" fill="#A56953"/>
	</g></svg>
