<svg version="1.1" xmlns="http://www.w3.org/2000/svg" viewBox="0 0 2300 2300"><g transform="scale(1,-1) translate(-256, -1869)">
		<path d="M2197-287l0 934c0 251-49 538-217 750-29 37-61 72-100 99l-474-467-474 467c-19-13-37-28-53-45-201-209-264-520-264-804l0-934 1582 0 z" fill="#E6E6E6"/>
		<path d="M1826 247l0 759-842 0 0-759 842 0 z" fill="#D3D3D3"/>
		<path d="M1714 647c128 0 230 103 230 231 0 51-26 94-26 117 0 5 1 10 4 17 15 35 23 65 23 103 0 48-12 88-39 130-28 43-39 81-39 128 0 131-107 237-236 237-14 0-23 7-33 17-57 64-110 98-192 98-82 0-135-33-192-98-9-11-18-18-33-18-130 0-237-104-237-236 0-50-11-85-38-128-25-40-39-82-39-130 0-19 2-37 6-53 6-23 21-51 21-67 0-4-1-9-4-16-15-35-23-64-23-101 0-128 103-231 231-231l616 0 z" fill="#FFF9BA"/>
		<path d="M1394 216c177 0 374 56 503 188-65 51-137 92-215 121-31 11-64 16-93 29-21 9-35 18-35 43l0 210c0 82-66 151-151 151-80 0-145-69-145-148l0-213c0-13-3-23-9-28-16-13-44-23-72-29-103-25-203-87-276-147 128-122 318-177 493-177 z" fill="#E4B29A"/>
		<path d="M2197-287l0 72c0 234-106 459-289 610-110-144-282-228-460-228l-83 0c-180 0-352 84-461 228-185-150-289-379-289-610l0-72 1582 0 z" fill="#F4F4F4"/>
		<path d="M1386 133c5 0 9 0 13 1l12 3c4-1 9-2 15-2l7 0c9 0 15 1 20 4 7-2 14-3 21-3 11 0 22 3 33 10 11 6 19 14 25 23 14-13 30-19 49-19 15 0 29 4 41 13 11 8 20 19 26 32 13-7 26-11 39-11 5 0 10 1 14 2 5 1 8 3 14 3 11 5 20 12 28 21 7 9 12 19 14 30 10-3 19-5 28-5 13 0 26 4 39 11l0 1c10 6 18 14 24 25 5 11 8 22 9 33l13-2c7 0 13 1 19 3 11 3 20 7 28 14 8 6 15 14 20 24 5 9 7 20 7 31 0 20-7 37-21 51-14 14-31 21-51 21-19 0-36-7-50-20-15-14-22-31-22-50l-16 2c-13 0-26-4-38-12-17-11-28-26-32-45-9 4-19 6-28 6-9 0-18-2-26-6l-1 0c-9-4-16-9-23-15-7-7-13-15-16-24-11 8-24 12-39 12l-15-2 0-1c-9-2-18-6-25-11-8-5-15-12-20-20-7 7-14 12-22 15-9 3-18 4-27 4-9 0-17-1-24-4l-21 3c-9 0-16-2-22-5-7 2-14 3-21 3-11 0-22-3-32-9-11-6-19-14-25-23-6 12-15 22-27 29-12 7-25 10-38 10-9 0-18-2-27-5-9-3-16-8-23-15-5 15-13 28-26 37-13 9-28 14-43 14-7 0-14-1-21-2-7-2-13-5-18-9-1 11-5 22-11 32-6 9-14 17-23 23l0 1c-13 7-26 11-39 11-8 0-16-2-25-5l0 4c0 20-6 37-18 53-14 16-32 24-54 24-20 0-37-7-51-21-14-14-21-31-21-51 0-20 7-37 22-51 14-14 31-21 51-21 9 0 18 1 25 4l0-4c0-20 6-37 19-52 13-17 31-25 53-25 15 0 28 4 39 12 1-13 6-25 15-36 8-11 18-20 31-25l1-1c9-3 17-5 25-5 19 0 36 7 50 21 5-15 14-28 27-37 13-10 28-15 43-15 11 0 22 3 33 9 11 5 19 13 26 22 7-11 16-20 27-27 11-7 24-11 37-11 z" fill="#D3D3D3"/>
		<path d="M1646-287l148 218c29-30 62-45 101-45 18 0 95 16 95 40l-2 5c-27 27-48 59-83 76 67 0 134 60 134 130 0 6-17 9-29 9-52 0-39-2-56-2-70 0-116-60-116-126l-14-2c-11 40-52 62-90 62l-604-7c-36 0-74-20-86-57l-12 2c0 67-48 126-116 126l-78 0c-5 0-7-2-7-7 0-70 67-130 134-130-14-8-83-71-86-81l2-5c25-23 58-35 93-35 26 0 85 16 98 42l154-213 420 0 z" fill="#44911B"/>
		<path d="M1761-32l-195 80c49 120 78 222 207 275 4 1 8 2 11 2 37 0 46-101 46-129 0-82-38-152-69-228 z M1072-25l195 80c-48 117-79 223-207 276-4 1-7 2-10 2-38 0-48-101-48-131 0-79 39-157 70-227 z" fill="#F70A8D"/>
		<path d="M1702-44c97 0 154 78 188 156 8 20 55 120 55 133 0 20-25 23-40 23-101 0-186-135-205-135-7 0-12 4-12 11 0 23 5 47 5 70 0 50-14 154-73 173l-5 1c-9 0-17-7-20-15l-51-119c-16-39-30-80-30-123 0-104 87-175 188-175 z M1110-37c96 0 188 70 188 175 0 44-14 86-31 124l-50 118c-3 8-12 15-21 15-60 0-77-133-77-174 0-21 5-43 5-64 0-8-2-17-13-17-18 0-105 135-204 135-15 0-40-3-40-23 0-13 47-114 55-133 35-80 92-156 188-156 z" fill="#FF6DC6"/>
		<path d="M1321-80c50 0 70 34 89 76 24-38 41-72 92-72 48 0 83 38 83 84 0 39-28 65-51 93 55 10 106 25 106 91 0 46-36 85-84 85-25 0-47-13-70-21 1 16 2 33 2 49 0 48-41 83-85 83-49 0-82-42-82-86 0-17 1-33 4-50-23 7-45 18-69 18-47 0-84-37-84-84 0-72 57-82 113-90-23-27-48-54-48-91 0-46 36-85 84-85 z" fill="#FFF478"/>
		<path d="M1410 72c39 0 72 31 72 72 0 39-31 72-72 72-38 0-72-33-72-72 0-39 34-72 72-72 z" fill="#D19479"/>
		<path d="M1406 685c192 0 341 134 352 336 4 72 9 145 9 217 0 48-24 102-80 102l-228 0c-157 0-220 127-241 127-17 0-18-14-23-26-48-104-150-74-150-192 0-76 5-152 9-228 11-198 158-336 352-336 z" fill="#EEBFAA"/>
		<path d="M1644 1105c-49 16-95 28-144 44 21 31 54 59 94 59 26 0 94-15 94-50 0-21-30-39-44-53 z M1168 1105c48 17 97 29 145 44-21 29-53 59-94 59-27 0-94-13-94-49 0-23 28-41 43-54 z" fill="#000000"/>
		<path d="M1659 1100c10 0 20 10 20 21 0 43-56 79-98 79-45 0-98-38-98-86 0-7 9-14 16-14l160 0 z M1313 1100c7 0 17 6 17 14 0 49-55 86-99 86-40 0-98-34-98-80 0-10 10-20 20-20l160 0 z" fill="#FFFFFF"/>
		<path d="M1628 1100l-123 0c-1 3-2 6-2 9l0 8c0 35 26 64 63 64 35 0 64-30 64-64 0-7-1-10-2-17 z M1307 1100c2 5 3 10 3 17 0 35-30 64-64 64-35 0-64-30-64-64 0-7 1-10 2-17l123 0 z" fill="#7D4533"/>
		<path d="M1599 1100l-64 0c-3 5-5 11-5 17 0 21 15 37 37 37 22 0 36-18 36-37 0-7-1-12-4-17 z M1277 1100c3 5 5 11 5 17 0 21-15 37-37 37-22 0-36-18-36-37 0-7 1-12 4-17l64 0 z" fill="#000000"/>
		<path d="M1545 1131c7 0 11 5 11 12 0 7-4 11-11 11-7 0-12-4-12-11 0-8 4-12 12-12 z M1224 1131c8 0 12 4 12 12 0 7-5 11-12 11-7 0-11-4-11-11 0-7 4-12 11-12 z" fill="#FFFFFF"/>
		<path d="M1433 953c22 0 37 20 37 39 0 19-16 70-28 107-12 33-12 51-35 51-15 0-22-9-26-21-8-30-38-111-38-136 0-19 15-40 37-40l53 0 z" fill="#D19479"/>
		<path d="M1406 823c43 0 105 31 124 71l2 6c0 9-4 13-12 13-16 0-69-29-114-29-40 0-69 12-108 27l-6 2c-6 0-12-5-12-12l2-7c16-40 82-71 124-71 z" fill="#990839"/>
		<path d="M1152 1245c25 0 58 23 95 23 9 0 19-2 28-2 11 0 19 7 19 18 0 6-2 11-5 14-10 9-29 9-41 9-23 0-115-12-115-43 0-13 6-19 19-19 z M1660 1245c5 0 10 2 14 6 3 4 5 9 5 14 0 7-5 14-15 19-10 5-22 10-35 14-13 3-26 6-39 8l-29 2-13 0-14-3c-5-1-8-3-11-6-3-3-5-7-5-12 0-7 2-12 5-15 3-3 8-5 13-5l8-1 7 1c5 1 10 1 15 1 9 0 18-1 27-3l25-8 23-8c7-3 13-4 19-4 z" fill="#A56953"/>
		<path d="M1909 1344c29 0 54 23 54 53 0 37-56 82-82 102-139 111-313 154-475 154-170 0-335-44-475-154-29-21-82-63-82-101 0-29 21-54 53-54 18 0 29 7 42 20 143 135 284 182 462 182 186 0 324-53 461-182 14-13 22-20 42-20 z" fill="#D3D3D3"/>
	</g></svg>
