<svg version="1.1" xmlns="http://www.w3.org/2000/svg" viewBox="0 0 2300 2300"><g transform="scale(1,-1) translate(-256, -1869)">
		<path d="M2074 214c127 0 232 103 232 232 0 129-107 232-232 232-128 0-232-104-232-232 0-127 100-232 232-232 z M719 214c127 0 232 103 232 232 0 129-107 232-232 232-128 0-231-105-231-232 0-127 100-232 231-232 z" fill="#FECA46"/>
		<path d="M1397-285c116 0 230 17 341 52 216 67 352 256 376 476l64 579c2 22 3 44 3 67 0 360-279 680-648 680l-272 0c-369 0-648-318-648-677 0-24 0-47 3-70l64-579c18-168 101-314 229-404 128-92 327-124 488-124 z" fill="#FDD641"/>
		<path d="M1397 29c95 0 195 51 246 135 2 4 3 8 3 12 0 13-10 24-24 24-3 0-6-1-10-2-73-34-138-53-216-53-75 0-142 17-214 53-3 2-7 3-11 3-13 0-24-10-24-24 0-3 1-8 4-13 53-90 157-135 246-135 z" fill="#990839"/>
		<path d="M1397 239c30 0 89 26 89 64 0 19-15 36-36 36l-106 0c-21 0-37-17-37-36 0-38 57-64 90-64 z" fill="#FFB02C"/>
		<path d="M1924 392l-392 0c-23 0-41 19-41 41l1 8c24 114 120 201 241 201 88 0 163-46 205-113 17-27 35-72 35-88 0-26-22-49-49-49 z M1221 392c23 0 41 19 41 41l-1 8c-24 115-121 201-241 201-114 0-212-77-239-189l-1-11c0-26 22-50 49-50l392 0 z" fill="#FFFFFF"/>
		<path d="M1847 392l-303 0c-3 15-5 29-5 42 0 85 71 157 157 157 85 0 157-71 157-157 0-14-2-28-6-42 z M1208 392c3 15 6 27 6 42 0 84-70 157-158 157-85 0-157-71-157-157 0-14 2-28 6-42l303 0 z" fill="#7D4533"/>
		<path d="M1776 392l-159 0c-7 13-11 27-11 42 0 51 39 90 90 90 51 0 90-39 90-90 0-15-3-29-10-42 z M1135 392c7 13 11 27 11 42 0 51-39 90-90 90-51 0-90-39-90-90 0-13 3-27 10-42l159 0 z" fill="#000000"/>
		<path d="M1647 467c14 0 28 13 28 28 0 14-13 28-28 28-14 0-28-13-28-28 0-15 14-28 28-28 z M979 467c15 0 28 14 28 28 0 14-13 28-28 28-15 0-28-14-28-28 0-14 13-28 28-28 z" fill="#FFFFFF"/>
		<path d="M1828 743c19 0 36 17 36 35 0 17-8 29-24 34-52 20-96 23-167 23-27 0-56-6-56-37 0-21 14-36 34-36 16 0 32 2 47 2 21 0 41-2 60-5 24-4 57-16 70-16 z M932 743l12 2c39 12 76 19 118 19 15 0 31-2 47-2 19 0 35 15 35 36 0 30-28 37-57 37-76 0-117-4-167-23-16-5-24-17-24-34 0-18 17-35 36-35 z" fill="#D37034"/>
		<path d="M1464 1118l13 2c121 42 206 154 206 288 0 170-138 303-304 303-117 0-213-63-266-158 47 11 95 16 145 16 128 0 237-104 237-235 0-95-68-153-68-177 0-22 16-39 37-39 z" fill="#FFB02C"/>
	</g></svg>
