<svg version="1.1" xmlns="http://www.w3.org/2000/svg"><g transform="scale(1,-1)">
		<path d="M1406-287c476 0 862 388 862 862l0 1001c0 84-70 149-149 149l-1426 0c-83 0-150-67-150-149l0-1001c0-477 389-862 863-862 z" fill="#F8312F"/>
		<path d="M1151-42c21 0 37 8 52 23 60 59 128 91 212 91 77 0 137-26 197-78 15-13 32-20 49-20 38 0 72 33 72 72 0 20-8 38-23 53-80 79-193 117-296 117-86 0-174-25-250-78-38-26-85-61-85-107 0-37 30-73 72-73 z" fill="#FFF478"/>
		<path d="M1801 791c179 0 324 145 324 323 0 177-143 324-324 324-178 0-323-145-323-324 0-179 147-323 323-323 z M1011 791c179 0 323 147 323 323 0 179-145 324-323 324-177 0-324-143-324-324 0-178 145-323 324-323 z" fill="#FFFFFF"/>
		<path d="M2001 216l-387 0c-129 0-208 101-208 217 0-120-97-217-216-217l-380 0c-30 0-51 23-51 52 0 19 9 34 26 44l39 22c145 77 568 313 573 313 6 0 9-3 9-9l0 9 620-337c16-9 27-24 27-43 0-27-22-51-52-51 z M1693 863c80 0 144 64 144 143 0 81-67 144-144 144-80 0-143-65-143-144 0-80 62-143 143-143 z M1118 863c80 0 144 64 144 143 0 81-67 144-144 144-80 0-143-65-143-144 0-80 62-143 143-143 z M1590 1262c248 0 463 200 463 463 0 39-31 72-72 72-39 0-72-31-72-72 0-176-142-319-319-319-39 0-72-31-72-72 0-38 33-72 72-72 z M1222 1262c38 0 72 33 72 72 0 39-31 72-72 72-176 0-319 142-319 319 0 39-31 72-72 72-39 0-72-31-72-72 0-248 200-463 463-463 z" fill="#533566"/>
		<path d="M2303 431c98 0 180 78 180 180 0 98-78 180-180 180l-792 0c-98 0-180-78-180-180 0-98 78-180 180-180l792 0 z" fill="#CA0B4A"/>
	</g></svg>
