<svg version="1.1" xmlns="http://www.w3.org/2000/svg" viewBox="0 0 2300 2300"><g transform="scale(1,-1) translate(-256, -1869)">
		<path d="M2197-287l0 934c0 65-3 130-10 197-24 227-126 527-307 652l-474-467-474 467c-36-25-77-68-100-99-166-209-217-492-217-750l0-934 1582 0 z" fill="#E6E6E6"/>
		<path d="M1826 247l0 759-842 0 0-759 842 0 z" fill="#D3D3D3"/>
		<path d="M1394 216c175 0 374 56 503 188-72 56-168 112-261 136-35 9-82 17-82 57l0 210c0 82-66 151-151 151-80 0-145-69-145-148l0-213c0-41-44-47-81-57-102-26-202-85-276-147 127-122 315-177 493-177 z" fill="#E4B29A"/>
		<path d="M2197-287l0 72c0 234-106 459-289 610-110-144-282-228-460-228l-83 0c-180 0-352 84-461 228-185-150-289-377-289-610l0-72 1582 0 z" fill="#F4F4F4"/>
		<path d="M1386 133c5 0 9 0 13 1l12 3c3-1 8-2 15-2 5 0 9 0 14 1 5 0 9 1 13 3 7-2 14-3 21-3 11 0 22 3 33 10 11 6 19 14 25 23 14-13 30-19 49-19 15 0 29 4 41 13 11 8 20 19 26 32 13-7 26-11 39-11 8 0 17 2 27 5l1 0c11 5 20 12 28 21 7 9 12 19 14 30 10-3 19-5 28-5 13 0 26 4 39 11l0 1c10 6 18 14 24 25 5 11 8 22 9 33l13-2c7 0 13 1 19 3 11 3 20 7 28 14 8 6 15 14 20 24 5 9 7 20 7 31 0 20-7 37-21 51-14 14-31 21-51 21-19 0-36-7-50-20-15-14-22-31-22-50l-16 2c-13 0-26-4-38-12-17-11-28-26-32-45-9 4-19 6-28 6-9 0-18-2-26-6l-1 0c-9-4-16-9-23-15-7-7-13-15-16-24-11 8-24 12-39 12l-15-2 0-1c-20-4-35-14-45-31-7 7-14 12-22 15-9 3-18 4-27 4-9 0-17-1-24-4l-7 2-23 0c-5-1-9-2-13-4-7 2-14 3-21 3-11 0-22-3-32-9-11-6-19-14-25-23-6 12-15 22-27 29-12 7-25 10-38 10-20 0-37-7-50-20-5 15-13 28-26 37-13 9-28 14-43 14-7 0-14-1-21-2-7-2-13-5-18-9-1 11-5 22-11 32-6 9-14 17-23 23l0 1c-13 7-26 11-39 11-8 0-16-2-25-5l0 4c0 20-6 37-18 53-14 16-32 24-54 24-21 0-38-7-51-21-14-14-21-31-21-51 0-21 7-38 22-51 14-14 31-21 51-21 9 0 18 1 25 4l0-8c0-8 1-15 3-22 3-10 8-19 15-26 7-8 15-14 24-18 9-5 19-7 30-7 14 0 27 4 39 12 1-13 6-25 15-36 8-11 18-20 31-25l1-1c9-3 17-5 25-5 19 0 36 7 50 21 5-15 14-28 27-37 13-10 27-15 43-15 11 0 22 3 33 9 11 5 19 13 26 22 7-11 16-20 27-27 11-7 24-11 37-11 z" fill="#D3D3D3"/>
		<path d="M1646-287l148 218c28-29 60-45 101-45 18 0 95 17 95 40l-2 5c-26 26-50 60-83 76 67 0 134 60 134 130 0 7-19 9-37 9-19 0-41-2-48-2-70 0-116-60-116-126l-14-2c-11 40-52 62-90 62l-604-7c-35 0-74-20-86-57l-12 2c0 67-48 126-116 126l-78 0c-5 0-7-2-7-7 0-70 67-130 134-130-22-14-86-74-86-81l2-5c25-23 58-35 93-35 26 0 85 16 98 42l154-213 420 0 z" fill="#44911B"/>
		<path d="M1761-32l-195 80c51 121 78 222 207 275 4 1 8 2 11 2 38 0 46-102 46-129 0-84-39-153-69-228 z M1072-25l195 80c-49 119-82 227-207 276-4 1-7 2-10 2-37 0-48-98-48-131 0-80 35-146 70-227 z" fill="#F70A8D"/>
		<path d="M1702-44c95 0 153 75 188 156 8 20 55 120 55 133 0 20-25 23-40 23-58 0-111-43-152-86-20-21-37-49-53-49-7 0-12 4-12 11 0 23 5 47 5 70 0 50-14 154-73 173-1 0-2 1-5 1-9 0-17-7-20-15l-51-119c-16-40-30-83-30-123 0-104 87-175 188-175 z M1110-37c95 0 188 68 188 175 0 43-15 86-31 124l-50 118c-3 8-12 15-21 15l-5-1c-59-16-72-126-72-173 0-21 5-43 5-64 0-8-2-17-13-17-5 0-10 2-13 7-46 52-116 128-191 128-15 0-40-3-40-23 0-13 47-114 55-133 35-80 92-156 188-156 z" fill="#FF6DC6"/>
		<path d="M1321-80c50 0 70 34 89 76 24-38 41-72 92-72 48 0 83 38 83 84 0 40-27 63-51 93 52 10 106 23 106 91 0 46-36 85-84 85-24 0-47-13-70-21 1 16 2 33 2 49 0 48-41 83-85 83-49 0-82-42-82-86 0-16 1-33 4-50-23 7-45 18-69 18-47 0-84-37-84-84 0-72 57-82 113-90-23-28-48-52-48-91 0-44 36-85 84-85 z" fill="#FFF478"/>
		<path d="M1410 72c39 0 72 31 72 72 0 39-31 72-72 72-38 0-72-33-72-72 0-39 34-72 72-72 z" fill="#D19479"/>
		<path d="M1757 988c68 0 120 57 120 120 0 68-57 120-120 120-68 0-120-57-120-120 0-68 57-120 120-120 z M1054 988c68 0 120 57 120 120 0 68-57 120-120 120-68 0-120-57-120-120 0-68 57-120 120-120 z" fill="#E4B29A"/>
		<path d="M1522 647c118 0 224 92 232 220 11 141 18 268 28 409l1 14 0 13c0 188-151 350-345 350l-64 0c-48 0-93-9-135-28-140-61-211-189-211-336l1-13c11-139 18-270 29-409 8-124 110-220 232-220l232 0 z" fill="#EEBFAA"/>
		<path d="M1667 1090l-163 0c-7 0-16 6-16 13 0 52 54 88 100 88 39 0 99-35 99-82 0-10-9-19-20-19 z M1323 1090c7 0 16 6 16 13 0 52-54 88-100 88-39 0-99-35-99-82 0-10 9-19 20-19l163 0 z" fill="#FFFFFF"/>
		<path d="M1636 1089l-126 0c-1 7-2 10-2 17 0 35 28 66 65 66 37 0 65-31 65-66 0-7-1-10-2-17 z M1317 1089c1 7 2 11 2 18 0 35-28 65-65 65-37 0-65-31-65-66 0-7 1-10 2-17l126 0 z" fill="#7D4533"/>
		<path d="M1606 1090l-66 0c-3 5-5 11-5 17 0 21 16 37 38 37 21 0 37-15 37-37 0-7-1-12-4-17 z M1287 1090c3 5 5 11 5 17 0 21-16 37-38 37-21 0-37-15-37-37 0-7 1-12 4-17l66 0 z" fill="#000000"/>
		<path d="M1553 1121c7 0 11 4 11 11 0 7-4 12-11 12-6 0-12-5-12-12 0-7 5-11 12-11 z M1232 1121c7 0 12 4 12 11 0 7-5 12-12 12-7 0-11-5-11-12 0-7 4-11 11-11 z" fill="#FFFFFF"/>
		<path d="M1769 1135c22 1 40 18 44 40l40 224c1 5 2 9 2 13l0 13c0 89-57 118-110 146-78 41-120 149-228 149-41 0-70-20-111-20-43 0-78 25-118 25-77 0-117-63-167-113-66-66-164-71-164-188 0-8 1-17 2-25l40-224c4-22 22-39 45-40-3 37-7 74-7 111 0 58 63 58 63 127l0 63c0 20 10 33 29 38 89 27 187 32 277 32 88 0 189-5 277-32 17-5 28-19 28-38l0-63c0-70 65-73 65-128 0-36-4-74-7-110 z" fill="#FFF9BA"/>
		<path d="M1164 1219c18 0 48 31 101 31l20-1c22 0 40 17 40 38 0 37-31 42-60 42-34 0-141-19-141-70 0-22 17-40 40-40 z M1663 1219c22 0 39 17 39 40 0 51-104 71-138 71-29 0-62-5-62-41 0-30 17-38 38-38l22-1c51 0 80-31 101-31 z" fill="#A56953"/>
		<path d="M1433 953c22 0 37 20 37 39 0 18-16 71-28 107-12 32-12 51-35 51-14 0-23-9-26-21-8-29-38-113-38-136 0-19 15-40 37-40l53 0 z" fill="#D19479"/>
		<path d="M1406 823c25 0 48 7 71 20 23 13 55 45 55 57 0 9-4 13-12 13l-6-2c-42-15-65-27-108-27-38 0-74 9-108 27l-6 2c-6 0-12-5-12-12 0-2 1-4 2-7 24-42 75-71 124-71 z" fill="#990839"/>
		<path d="M1909 1344c29 0 54 23 54 53 0 14-4 22-12 34-14 19-51 52-70 68-140 112-311 154-475 154-164 0-335-42-475-154-29-21-82-63-82-101 0-29 21-54 53-54 18 0 29 7 42 20 126 130 286 182 462 182 177 0 336-54 461-182 13-13 24-20 42-20 z" fill="#D3D3D3"/>
	</g></svg>
