<svg version="1.1" xmlns="http://www.w3.org/2000/svg" viewBox="0 0 2300 2300"><g transform="scale(1,-1) translate(-256, -1869)">
		<path d="M1400 1169c84 0 168 7 251 22 118 20 394 99 394 256 0 128-187 208-324 241-143 35-227 37-322 37-89 0-178-8-266-25-114-24-378-98-378-253 0-161 286-237 394-256 84-15 167-22 251-22 z M1399 1277c-134 0-298 21-412 72-26 10-124 59-124 98 0 38 96 84 124 98 113 51 283 72 412 72 125 0 300-20 414-72 25-13 123-59 123-98 0-37-95-87-123-98-116-53-292-72-414-72 z" fill="#26C9FC"/>
		<path d="M2176-144l-287 0 0 144 373 0c17 0 30-12 30-30 0-65-57-114-116-114 z M915-144l0 144-373 0c-17 0-30-12-30-30 0-65 57-114 116-114l287 0 z" fill="#F4F4F4"/>
		<path d="M2062-287l-173 0 0 143 258 0c17 0 30-13 30-29 0-64-53-114-115-114 z M915-287l0 143-258 0c-17 0-30-13-30-29 0-64 53-114 115-114l173 0 z" fill="#FFFFFF"/>
		<path d="M1876-292c48 0 92 15 92 72l0 187c0 18 13 32 32 32l289 0c65 0 115 54 115 115 0 17-12 30-30 30l-543 0c-120 0-217-97-217-218 0-91 55-168 133-201 39-17 78-17 129-17 z M973-292c120 0 217 97 217 218 0 120-96 218-217 218l-543 0c-18 0-30-13-30-30 0-65 54-115 115-115l289 0c18 0 32-13 32-32l0-187c0-59 45-72 92-72l45 0 z" fill="#E6E6E6"/>
		<path d="M2035 179c119 0 215 97 215 216 0 120-97 215-215 215-121 0-216-97-216-215 0-121 99-216 216-216 z M777 179c121 0 216 99 216 216 0 119-97 215-216 215-121 0-216-97-216-215 0-121 99-216 216-216 z" fill="#452829"/>
		<path d="M1401-287c107 0 213 16 314 49 201 64 324 243 345 445l58 541c2 22 3 44 3 65 0 332-250 635-595 635l-249 0c-343 0-595-302-595-637 0-21 1-42 3-63l58-541c16-154 91-290 210-377 117-86 299-117 448-117 z" fill="#573739"/>
		<path d="M1821 675c18 0 34 15 34 34 0 47-121 52-153 52l-24 0c-27 0-54-5-54-34 0-19 14-34 32-34 15 0 29 2 44 2 39 0 74-6 111-18 4-1 7-2 10-2 z M983 675c4 0 7 1 11 2 38 11 71 18 110 18 15 0 29-2 44-2 18 0 32 15 32 34 0 29-28 34-54 34l-24 0c-31 0-153-4-153-52 0-18 15-34 34-34 z" fill="#000000"/>
		<path d="M1402 7c45 0 91 12 132 34 43 23 103 81 103 104 0 11-11 22-22 22-5 0-8-1-11-3-67-31-130-48-202-48-72 0-135 17-202 48-3 2-7 3-11 3-10 0-21-10-21-22 0-3 1-7 4-12 51-82 141-126 230-126 z" fill="#990839"/>
		<path d="M1398 211c30 0 82 23 82 57 0 18-15 34-34 34l-96 0c-19 0-33-14-33-32 0-35 52-59 81-59 z" fill="#3D2123"/>
		<path d="M1910 346l-367 0c-19 0-38 15-38 37l1 7c25 109 114 186 226 186 81 0 150-42 191-104 17-25 33-66 33-82 0-25-23-44-46-44 z M1253 346c21 0 38 17 38 36l-1 8c-25 111-115 186-225 186-107 0-200-73-223-174l-1-11c0-26 20-45 45-45l367 0 z" fill="#FFFFFF"/>
		<path d="M1839 346l-283 0c-3 13-6 26-6 39 0 83 68 147 148 147 80 0 147-64 147-147 0-13-2-26-6-39 z M1240 346c4 13 6 26 6 39 0 83-67 147-148 147-80 0-147-64-147-147 0-13 2-26 6-39l283 0 z" fill="#7D4533"/>
		<path d="M1773 347l-149 0c-7 11-10 23-10 38 0 46 36 85 84 85 48 0 84-39 84-85 0-13-4-26-9-38 z M1172 347c7 11 10 23 10 38 0 46-36 85-84 85-48 0-84-39-84-85 0-12 3-25 10-38l148 0 z" fill="#000000"/>
		<path d="M1652 417c14 0 26 11 26 26 0 15-12 26-26 26-15 0-25-11-25-26 0-15 10-26 25-26 z M1039 417c14 0 26 11 26 26 0 15-12 26-26 26-15 0-26-12-26-26 0-14 11-26 26-26 z" fill="#FFFFFF"/>
		<path d="M1482 1025c4 0 7 1 11 2 114 40 193 146 193 270 0 158-128 284-285 284-107 0-200-60-248-148 44 10 87 15 135 15 119 0 221-94 221-219 0-96-64-143-64-167 0-19 16-37 37-37 z" fill="#000000"/>
	</g></svg>
