<svg version="1.1" xmlns="http://www.w3.org/2000/svg" viewBox="0 0 2300 2300"><g transform="scale(1,-1) translate(-256, -1869)">
		<path d="M2229-287c-18 213-116 400-266 538l-96-268 96-270 266 0 z M1568-287l120 362-120 377c-53 10-107 15-162 15-55 0-109-5-162-15l-88-377 88-362 324 0 z M849-287l68 270-68 269c-155-143-249-333-267-539l267 0 z" fill="#FF9C38"/>
		<path d="M1963-287l0 538c-40 37-82 68-126 95l-24-226c-5-43-12-70-12-113 0-38 7-62 12-98l24-196 126 0 z M975-287l66 319-66 314c-44-27-86-58-126-95l0-538 126 0 z M1693-287l66 353-66 350c-41 15-82 27-125 36l0-739 125 0 z M1244-287l0 739c-43-9-85-21-126-36l-62-350 62-353 126 0 z" fill="#FF6723"/>
		<path d="M1594 503c27 10 56 20 85 29 29 9 56 20 80 34 24 14 44 32 59 54 15 22 23 51 23 87l0 312c0 5-3 11-8 16l-18 16c-7 5-13 10-18 15-6 5-9 9-9 14l17 35c4 10 8 21 11 34 3 13 5 25 5 37 0 13-2 26-5 38-3 11-7 22-10 31l-11 26c-3 8-5 15-5 22 0 5 1 11 2 16 1 5 2 11 2 16 0 6-2 11-5 14-3 3-8 5-13 7-23 9-42 20-58 32-16 11-31 28-44 49-5 9-11 16-18 20-7 4-17 6-28 6-17 0-34-2-51-7-17-5-35-8-53-8-6 0-12 3-17 10-5 6-11 13-16 21-5 8-11 15-16 22-5 6-10 9-15 9-5 0-12-2-21-5-9-4-19-6-28-6-9 0-18 2-27 6-9 3-17 5-22 5-5 0-10-3-15-9-5-7-11-14-16-22-5-8-11-15-16-21-5-7-11-10-17-10-18 0-36 3-53 9-17 5-35 8-52 8-19 0-33-8-44-25-14-21-29-38-44-51-16-13-36-24-59-33-9-3-15-10-16-21-2-11-3-20-3-28 0-17 1-33 4-50 3-17 6-33 11-49l-27-18c-10-7-20-15-29-24-9-9-17-19-23-29-7-10-10-20-10-29 0-5 1-11 4-16l10-20 9-24c3-9 4-18 4-28l0-313c0-36 8-65 24-87 15-22 35-40 59-54 24-14 51-25 80-34 29-9 57-19 84-28l0 556c14 14 25 31 34 50 8 19 13 38 16 57 3-1 7-1 10-1 3-1 7-1 10-1 43 0 81 14 113 43 18-15 39-27 63-35 15-5 31-8 47-8 8 0 16 1 24 2 3-23 9-42 17-57 7-16 18-33 33-50l0-557 z" fill="#593B39"/>
		<path d="M1406 234c70 0 144 51 144 130l0 85-288 0 0-85c0-76 69-130 144-130 z" fill="#BB806E"/>
		<path d="M1747 738c69 0 126 54 126 125 0 69-56 126-126 126-68 0-125-55-125-126 0-71 60-125 125-125 z M1065 738c71 0 125 60 125 125 0 69-54 126-125 126-69 0-126-56-126-126 0-68 55-125 126-125 z" fill="#BB806E"/>
		<path d="M1478 360c147 0 279 119 294 265l26 448c1 15 3 28 3 43 0 172-135 322-312 322l-168 0c-181 0-310-145-310-324 0-7 0-14 1-20 7-136 19-324 29-469 1-18 8-45 15-63 41-122 157-202 279-202l143 0 z" fill="#C68D7B"/>
		<path d="M1672 859l-170 0c-13 0-18 10-18 21 0 4 4 18 7 22 17 38 55 66 98 66 42 0 105-38 105-87 0-12-10-22-22-22 z M1310 859c13 0 18 10 18 21 0 47-59 88-105 88-42 0-105-38-105-87 0-12 10-22 22-22l170 0 z" fill="#FFFFFF"/>
		<path d="M1639 859l-132 0c-2 6-3 12-3 19 0 38 32 69 69 69 40 0 69-31 69-69 0-7-1-13-3-19 z M1306 859l1 9 0 9c0 38-28 70-68 70-40 0-68-31-68-69 0-7 1-13 3-19l132 0 z" fill="#7D4533"/>
		<path d="M1608 859l-69 0c-3 7-5 13-5 19 0 21 17 39 39 39 22 0 40-18 40-39 0-6-2-12-5-19 z M1273 859c3 7 5 13 5 19 0 21-17 39-39 39-21 0-39-17-39-39 0-7 1-14 4-19l69 0 z" fill="#000000"/>
		<path d="M1552 893c8 0 12 4 12 12 0 8-4 12-12 12-6 0-12-5-12-12 0-6 6-12 12-12 z M1216 893c7 0 12 6 12 12 0 7-5 12-12 12-8 0-12-4-12-12 0-8 4-12 12-12 z" fill="#FFFFFF"/>
		<path d="M1436 719c23 0 42 18 42 40 0 14-19 69-33 108-16 45-19 49-39 49-15 0-25-7-29-20-8-26-43-114-43-137 0-22 19-40 42-40l60 0 z" fill="#AB6A55"/>
		<path d="M1406 567c51 0 99 28 124 70 1 3 2 5 2 7 0 7-5 13-12 13l-5-2c-40-15-67-28-109-28-40 0-73 9-108 28l-6 2c-7 0-12-6-12-13 0-2 1-4 2-7 25-44 79-70 124-70 z" fill="#990839"/>
		<path d="M1837-287l0 633c-45 28-93 51-144 70l0-703 144 0 z M1118-287l0 703c-51-19-98-42-143-70l0-633 143 0 z M1855 990c49 0 90 39 90 89 0 64-52 89-108 89l0 194c0 148-108 291-270 291l-321 0c-156 0-271-136-271-291l0-194c-56 0-108-25-108-89 0-50 41-89 90-89l898 0 z" fill="#FFF478"/>
		<path d="M1622 1168l0 415c0 80-69 142-148 142l-136 0c-81 0-148-64-148-142l0-415 432 0 z" fill="#C68D7B"/>
	</g></svg>
