<svg version="1.1" xmlns="http://www.w3.org/2000/svg" viewBox="0 0 2300 2300"><g transform="scale(1,-1) translate(-256, -1869)">
		<path d="M1765-359c117 0 216 94 216 215l0 302c339 43 503 215 503 561 0 586-472 1078-1078 1078-586 0-1078-472-1078-1078 0-347 166-520 503-562l0-301c0-117 96-215 216-215 70 0 139 35 179 96 41-61 110-96 180-96 70 0 139 35 180 96 40-61 109-96 179-96 z" fill="#9B9B9B"/>
		<path d="M1765-287c80 0 144 64 144 143l0 366c329 27 503 151 503 497 0 547-440 1006-1006 1006-547 0-1006-440-1006-1006 0-354 179-471 503-497l0-366c0-80 65-143 144-143 80 0 143 62 143 143l0 181c0 19 15 36 36 36 19 0 36-15 36-36l0-181c0-80 65-143 144-143 80 0 144 64 144 143l0 181c0 19 15 36 36 36 18 0 36-17 36-36l0-181c0-80 62-143 143-143 z" fill="#FFFFFF"/>
		<path d="M1476 290l-141 0c-30 0-53 24-53 53 0 25 21 69 29 93 13 38 50 67 94 67 42 0 79-25 94-67 8-25 29-71 29-95 0-29-24-51-52-51 z M1873 431c167 0 324 38 324 233 0 176-133 342-324 342-186 0-323-158-323-342 0-199 160-233 323-233 z M939 431c158 0 323 34 323 233 0 173-130 342-323 342-187 0-324-161-324-342 0-199 160-233 324-233 z" fill="#402A32"/>
	</g></svg>
