<svg version="1.1" xmlns="http://www.w3.org/2000/svg" viewBox="0 0 2300 2300"><g transform="scale(1,-1) translate(-256, -1869)">
		<path d="M2041-188l138 47c65 22 105 85 105 148l0 299c0 61 50 83 50 159 0 31-8 60-25 88-51 88-137 71-192 154-31 49-81 82-143 82-46 0-74-23-111-23-36 0-71 25-113 25-47 0-77-13-101-32-46-37-69-104-146-130-47-17-78-48-101-94-17 46-60 80-102 94-116 40-106 160-243 160-43 0-74-23-110-23-37 0-72 25-114 25-64 0-115-33-146-82-24-38-57-65-100-80-66-23-115-86-115-162 0-77 50-103 50-161l0-299c0-67 41-125 106-148l135-47 0 534c28 25 45 64 50 102 54 0 93 8 131 41 40-33 77-41 131-41 5-41 22-71 49-102l0-534 138 47c65 23 106 81 106 148l0 299c0 43 22 57 35 91 13-34 35-48 35-91l0-299c0-67 41-125 106-148l136-47 0 534c27 26 44 66 49 102 54 0 93 8 131 41 40-33 77-41 131-41 5-40 22-74 50-102l0-534 z" fill="#FFF9BA"/>
		<path d="M2215 36c68 0 125 55 125 126 0 70-57 126-125 126-69 0-126-56-126-126 0-69 56-126 126-126 z M1514 36c69 0 126 56 126 126 0 69-56 126-126 126-44 0-85-23-108-61-23 38-64 61-108 61-69 0-126-56-126-126 0-69 56-126 126-126 44 0 85 23 108 61 23-38 64-61 108-61 z M597 36c69 0 126 56 126 126 0 69-56 126-126 126-70 0-125-58-125-126 0-69 54-126 125-126 z" fill="#E4B29A"/>
		<path d="M1934-287c34 0 67 6 100 19 32 12 61 29 87 52 11 10 22 22 33 36 11 14 21 29 30 45 8 15 15 31 21 48 6 16 9 32 11 47 4 65 8 130 14 196 5 66 8 131 8 196 0 14-3 28-8 41-5 13-12 24-21 35-9 10-20 18-32 25-12 6-26 9-40 9-18 0-35 0-52-1l-16 0-36 1c-17 1-34 3-50 7-16 4-32 11-46 21-13 8-24 17-32 28-8 10-15 20-21 29l-16 25c-5 7-10 13-14 16-8 6-18 9-28 9l-93 0c-32 0-64-6-94-18-31-13-58-31-80-54-10-9-19-21-28-34-9-13-17-27-23-41-7-15-12-30-16-45-3-11-5-22-5-32l27-413c0-15 4-31 10-48 6-17 13-33 22-48 8-16 18-31 29-44 11-14 22-26 34-36 26-23 55-41 87-53 32-12 66-18 101-18l137 0 z M1018-287c34 0 67 6 99 19 32 12 61 29 87 52 12 10 23 22 34 36 11 13 21 28 30 44 8 15 15 31 21 48 5 16 8 32 10 48 4 63 8 129 14 197 6 67 9 132 9 195 0 14-3 28-8 41-6 13-13 24-22 35-9 10-20 18-32 25-12 6-26 9-40 9-18 0-35 0-52-1l-15 0-36 1c-17 1-33 3-49 7-16 4-32 11-47 21-16 10-28 21-38 33-10 12-20 26-28 43-5 9-11 17-18 23-8 5-17 8-27 8l-94 0c-33 0-64-6-94-18-30-13-56-31-79-54-10-9-19-20-28-33-9-13-17-27-24-42-7-15-12-30-16-45-3-11-5-22-5-32l28-413c0-16 3-32 9-48 6-17 13-33 22-48 8-16 18-31 29-44 11-14 23-26 35-36 26-23 55-41 87-53 32-12 65-18 100-18l138 0 z" fill="#EEBFAA"/>
		<path d="M1783-179c11 0 18 7 18 18 0 23-28 16-32 22-2 2-7 4-7 14 0 6 1 9 6 14 10 8 33 0 33 21 0 27-36 12-36 36 0 27 36 10 36 36 0 11-7 18-18 18-30 0-54-25-54-54 0-13 5-25 14-36-9-9-14-21-14-35 0-29 24-54 54-54 z M1029-179c30 0 54 25 54 54 0 14-5 26-14 35 9 11 14 23 14 36 0 29-24 54-54 54-11 0-18-7-18-18 0-27 36-10 36-36 0-25-36-10-36-36 0-20 20-17 33-21 2-3 6-6 6-14 0-29-39-7-39-36 0-11 7-18 18-18 z" fill="#7D4533"/>
		<path d="M1891 36c22 0 42 12 42 37 0 22-34 103-42 126-3 11-16 17-26 17-11 0-24-6-27-17-8-23-39-104-39-127 0-22 21-36 39-36l53 0 z M975 36c22 0 42 15 42 38 0 21-34 101-42 125-3 11-16 17-27 17-10 0-23-6-26-17-8-25-40-103-40-125 0-22 17-38 40-38l53 0 z" fill="#D19479"/>
		<path d="M2024 144c21 0 87 23 87 50 0 11-8 22-18 22-3 0-11-2-14-8-15-16-32-26-55-26-37 0-57 34-68 34-10 0-19-8-19-17 0-32 61-55 87-55 z M1707 144c24 0 87 22 87 50 0 11-8 22-18 22-13 0-29-34-69-34-37 0-57 34-68 34-12 0-18-11-18-22 0-30 63-50 86-50 z M1108 144c24 0 86 22 86 53 0 8-7 19-17 19-15 0-29-34-69-34-15 0-26 3-34 9-12 8-21 25-35 25-13 0-18-11-18-22 0-27 65-50 87-50 z M791 144c26 0 86 22 86 53 0 8-7 19-17 19-13 0-29-34-69-34-15 0-26 3-34 9-12 8-21 25-35 25-11 0-17-12-17-22 0-30 63-50 86-50 z" fill="#7D4533"/>
		<path d="M2107 324c12 0 18 6 18 17 0 6-3 11-8 15-40 29-87 40-136 40-9 0-18-7-18-18 0-11 7-18 18-18 45 0 76-7 116-33 3-2 6-3 10-3 z M1603 324c4 0 8 1 11 3 40 26 70 33 115 33 11 0 18 7 18 18 0 11-9 18-18 18-49 0-95-11-136-40-5-3-7-7-7-14 0-11 6-18 17-18 z M1191 324c11 0 17 7 17 18 0 5-3 10-8 14-42 29-83 40-135 40-9 0-18-7-18-18 0-11 7-18 18-18 45 0 75-7 115-33 3-2 6-3 11-3 z M687 324c3 0 7 1 10 3 40 26 71 33 116 33 11 0 18 7 18 18 0 11-9 18-18 18-49 0-96-11-136-40-5-4-8-9-8-15 0-11 6-17 18-17 z" fill="#A56953"/>
		<path d="M1411 647c20 0 36 4 53 15 31 18 65 40 100 67 222 167 455 429 455 658 0 162-111 338-298 338-116 0-213-55-288-130-7-7-14-11-25-11-11 0-18 4-25 11-73 73-173 130-288 130-179 0-294-167-294-333 0-50 9-99 26-147 70-202 337-472 531-583 17-10 34-15 53-15 z" fill="#F70A8D"/>
	</g></svg>
