<svg version="1.1" xmlns="http://www.w3.org/2000/svg" viewBox="0 0 2300 2300"><g transform="scale(1,-1) translate(-256, -1869)">
		<path d="M1539 785c80 0 143 62 143 142 0 80-62 143-143 143-77 0-142-63-142-143 0-76 60-142 142-142 z M684 793c76 0 142 60 142 142 0 80-62 143-142 143-80 0-143-62-143-143 0-77 63-142 143-142 z" fill="#BB806E"/>
		<path d="M1825-285l0 27c0 387-328 686-713 686-257 0-488-132-613-335-75-121-100-230-100-378l1426 0 z" fill="#00A6ED"/>
		<path d="M1112 178c108 0 178 97 178 194l0 127-357 0 0-127c0-101 74-194 179-194 z" fill="#BB806E"/>
		<path d="M1580 984c27 0 50 24 55 49l51 277c2 11 3 22 3 34 0 121-85 145-164 193-90 55-126 168-261 168-49 0-93-25-143-25-55 0-97 31-150 31-47 0-87-18-120-50l-92-90c-37-35-66-50-111-72-59-30-98-90-98-159 0-10 1-20 3-30l51-278c5-27 28-48 57-48l919 0 z" fill="#593B39"/>
		<path d="M1265 356c38 0 74 7 108 21 34 13 64 32 90 57 26 24 47 52 64 85 16 33 25 68 28 106l35 490 0 7c0 15-3 27-11 37-9 11-18 21-29 31-11 10-20 22-29 35-9 13-14 30-14 52l0 78c0 12-3 22-9 30-7 8-16 14-27 17-21 7-47 14-78 19-31 5-63 9-96 12-33 3-66 5-97 6-31 1-58 2-80 2-13 0-28 0-47-1l-62-3-69-6c-24-2-47-4-69-7-22-3-42-7-60-10-19-4-34-8-45-12-10-4-18-10-25-18-7-8-11-18-11-29l0-79c0-22-4-39-12-51-9-12-18-23-28-32-10-10-19-20-27-30-9-11-13-25-13-43 0-7 0-13 1-20 0-7 0-14 1-21l32-454c3-38 12-73 29-106 16-33 37-61 64-85 26-24 56-43 90-57 33-14 69-21 107-21l289 0 z" fill="#C68D7B"/>
		<path d="M2056 499l0 125c0 9-6 18-17 18l-138 51-148-51c-11-3-17-5-17-18l0-125 320 0 z" fill="#00A6ED"/>
		<path d="M2110-285l0 791c0 32-25 65-61 65l-306 0c-36 0-61-33-61-65l0-791 428 0 z" fill="#3BC6F6"/>
		<path d="M1420 927c18 0 37 12 37 33l0 6c-10 45-70 90-128 90-54 0-128-45-128-96 0-21 19-33 37-33l182 0 z M988 927c18 0 38 12 38 33l0 6c-9 44-70 90-128 90-58 0-107-36-126-85-2-4-3-8-3-12 0-19 20-32 38-32l181 0 z" fill="#FFFFFF"/>
		<path d="M1390 927c2 7 3 14 3 22 0 47-38 85-85 85-49 0-86-38-86-85 0-7 1-12 2-19 4-2 9-3 14-3l152 0 z M988 927c5 0 10 1 15 3 1 7 2 12 2 19 0 46-37 85-86 85-23 0-43-8-60-25-21-21-25-39-25-71 0-4 1-8 2-11l152 0 z" fill="#7D4533"/>
		<path d="M1355 927c3 5 4 12 4 19 0 30-22 54-54 54-32 0-53-25-53-54 0-7 1-14 4-19l99 0 z M971 927c3 7 4 12 4 19 0 30-22 54-54 54-32 0-53-25-53-54 0-7 1-13 3-19l100 0 z" fill="#000000"/>
		<path d="M1329 970c-11 0-21 11-21 21 0 12 9 22 21 22 12 0 21-10 21-22 0-10-10-21-21-21 z M898 970c10 0 21 10 21 21 0 12-9 22-21 22-12 0-22-10-22-22 0-12 12-21 22-21 z" fill="#FFFFFF"/>
		<path d="M1147 749c27 0 46 24 46 50 0 27-38 138-47 173-4 15-17 26-33 26-16 0-29-11-33-26-8-32-47-143-47-173 0-26 19-50 47-50l67 0 z" fill="#AB6A55"/>
		<path d="M811 1089c24 0 59 36 120 36l27-1c26 0 49 21 49 48 0 43-37 51-73 51-41 0-172-22-172-86 0-27 23-48 49-48 z M1420 1089c13 0 25 5 34 14 9 9 14 21 14 34 0 16-7 29-20 40-14 11-30 20-48 27-19 7-38 12-57 15-19 3-34 4-45 4-9 0-17 0-26-1-9-1-17-4-24-7-7-4-13-9-18-16-5-7-7-17-7-28 0-13 5-24 15-33 9-8 19-13 31-13l3 0c5 0 9 0 14 1l13 0c16 0 30-2 43-6 12-4 23-8 32-12l26-13c7-4 14-6 20-6 z" fill="#593B39"/>
		<path d="M1111 571c57 0 109 37 140 78 2 2 3 5 3 8 0 8-7 16-15 16l-2 0c-76-26-74-30-126-30-57 0-124 34-129 34-7 0-13-7-13-14 0-3 1-6 3-8 32-40 85-84 139-84 z" fill="#990839"/>
		<path d="M2039 642c12 6 28 11 48 15l63 9 65 6c21 2 38 4 53 7 14 3 25 9 34 19 8 8 12 19 12 32l0 4c15 3 27 7 38 13 11 6 17 18 18 35 7 5 12 12 16 19 4 7 6 15 6 24 0 14-5 26-15 36-10 10-22 16-35 17 0 11-4 20-11 25-8 5-17 7-27 7-6 0-11 0-14-1l-180-27-180-26c9 9 18 17 26 26 7 8 11 19 11 33 0 15-5 28-15 39-10 10-23 15-38 15-7 0-13-1-20-4-7-3-13-7-18-12l-87-97c-12-13-21-30-27-50-6-21-9-40-9-57l0-107 286 0 z" fill="#C68D7B"/>
		<path d="M2003 824l339 54-1 9-339-54c-3 0-4-3-4-6l5-3 z M2314 727l0 7 6 1c-5 15-12 28-19 39-8 11-21 16-40 16-9 0-21-1-36-3-15-2-31-4-48-7l-48-8c-16-3-29-6-40-7-2 0-3-2-3-5 0-1 1-1 2-2 1-1 2-2 3-2 10 1 23 4 39 7l48 8c16 3 32 5 47 7 15 2 27 3 36 3 5 0 10-1 16-3 6-3 12-6 17-10 5-4 9-8 12-13 2-4 3-8 3-13l0-4 5-11 z M2371 782l7 8 0 4c0 5-2 10-4 16-4 7-9 12-14 17-5 5-11 9-18 12-7 3-14 4-21 4l-9-1-274-41c-3 0-4-2-4-5l5-4 282 42c17 0 28-5 35-15 7-11 12-23 15-37 z" fill="#A9715F"/>
	</g></svg>
