<svg version="1.1" xmlns="http://www.w3.org/2000/svg" viewBox="0 0 2300 2300"><g transform="scale(1,-1) translate(-256, -1869)">
		<path d="M1714 309c128 0 231 103 231 230 0 37-8 66-23 101-3 7-4 10-4 17 0 5 1 10 4 17 14 34 23 67 23 103 0 47-14 91-39 130-26 41-38 79-38 128 0 131-106 236-237 236-15 0-23 7-32 17-51 61-110 99-193 99-81 0-140-36-192-99-9-11-20-17-33-17-130 0-237-104-237-236 0-47-10-85-38-128-26-40-39-85-39-131 0-36 9-69 23-103 3-5 4-9 4-16 0-5-1-10-4-17-14-33-23-64-23-101 0-128 103-230 231-230l616 0 z" fill="#212121"/>
		<path d="M1908-287c5 27 37 199 37 215 0 38-8 62-12 100l-25 201c-141 132-326 204-519 204-195 0-382-78-528-210-12-170-23-340-33-510l1080 0 z" fill="#F92F60"/>
		<path d="M1747 651c69 0 126 56 126 126 0 69-56 126-126 126-68 0-125-55-125-126 0-70 57-126 125-126 z M1065 651c70 0 125 58 125 126 0 69-54 126-125 126-69 0-126-56-126-126 0-69 56-126 126-126 z" fill="#F4C6AD"/>
		<path d="M1406 108c117 0 220 73 265 180 61-25 112-56 168-96 5-5 12-7 20-7 22 0 86 65 86 83 0 9-4 16-11 22-144 125-360 180-527 180-178 0-385-59-529-182-7-6-11-13-11-21 0-21 66-84 87-84 7 0 14 2 21 7 58 40 105 71 167 96 46-108 150-178 264-178 z" fill="#321B41"/>
		<path d="M1406 180c71 0 144 50 144 130l0 86-288 0 0-86c0-76 69-130 144-130 z" fill="#F4C6AD"/>
		<path d="M1514-215c19 0 36 15 36 36 0 18-17 35-36 35-19 0-36-17-36-35 0-19 15-36 36-36 z M1873 216c-19 0-36 15-36 36 0 19 15 36 36 36 19 0 36-15 36-36 0-19-15-36-36-36 z M1514 0c19 0 36 15 36 36 0 19-15 36-36 36-19 0-36-15-36-36 0-19 15-36 36-36 z M939 216c19 0 36 15 36 36 0 19-15 36-36 36-19 0-36-15-36-36 0-19 15-36 36-36 z" fill="#FFD7C2"/>
		<path d="M1406 288c191 0 360 133 368 340 3 72 9 146 9 218 0 51-27 104-84 104l-239 0c-97 0-170 39-235 120-4 5-9 8-16 8-9 0-15-3-17-8-17-48-50-82-103-109-41-19-60-61-60-104 0-76 7-153 10-229 8-210 176-340 367-340 z" fill="#FFD7C2"/>
		<path d="M1648 761c-49 19-97 29-147 45 22 31 53 62 96 62 28 0 96-14 96-52 0-21-29-42-45-55 z M1164 761c47 19 98 30 147 45-22 31-54 62-97 62-29 0-95-15-95-52 0-21 29-42 45-55 z" fill="#000000"/>
		<path d="M1664 756l-163 0c-7 0-17 6-17 14 0 50 55 90 101 90 45 0 99-38 99-85 0-11-10-19-20-19 z M1311 756c12 0 17 9 17 20 0 4-4 17-7 21-16 39-53 63-94 63-39 0-100-36-100-83 0-10 10-21 21-21l163 0 z" fill="#FFFFFF"/>
		<path d="M1633 756l-126 0c-1 7-2 11-2 18 0 35 26 66 64 66 37 0 66-30 66-66 0-7-1-11-2-18 z M1304 756c1 3 2 7 2 11 0 47-24 73-64 73-37 0-66-30-66-66 0-7 1-11 2-18l126 0 z" fill="#7D4533"/>
		<path d="M1603 756l-66 0c-3 5-5 11-5 18 0 19 17 38 38 38 19 0 37-17 37-38 0-7-1-13-4-18 z M1275 756c3 5 4 11 4 18 0 21-18 38-37 38-19 0-37-17-37-38 0-7 1-13 4-18l66 0 z" fill="#000000"/>
		<path d="M1547 789c7 0 12 4 12 11 0 8-4 12-12 12-7 0-11-5-11-12 0-7 4-11 11-11 z M1220 789c7 0 11 4 11 11 0 7-4 12-11 12-7 0-11-5-11-12 0-7 4-11 11-11 z" fill="#FFFFFF"/>
		<path d="M1436 629c25 0 42 22 42 44 0 20-18 77-32 117-16 43-17 54-40 54-15 0-24-7-29-22-8-28-43-123-43-150 0-22 17-43 42-43l60 0 z" fill="#F1B99B"/>
		<path d="M1406 505c50 0 98 28 124 71 1 3 2 5 2 7 0 7-5 13-12 13l-6-2c-43-16-55-28-108-28-40 0-73 9-108 28-1 1-2 1-5 1-9 0-13-4-13-13l2-6c18-39 79-71 124-71 z" fill="#990839"/>
		<path d="M1442-287l0 471c-11-3-23-4-36-4-13 0-25 1-36 4l0-471 72 0 z M1478 295c165 0 306 129 324 293 11 154 19 299 28 453l-57 3c-9-151-17-299-28-450-8-134-138-242-267-242l-143 0c-127 0-260 104-268 242-11 151-19 299-28 450l-57-3c11-154 18-299 29-453 3-25 11-61 22-84 50-132 178-209 302-209l143 0 z" fill="#D3D3D3"/>
		<path d="M1815 845c44 0 76 36 76 78 0 28-17 42-17 70 0 27 17 42 17 70 0 28-17 43-17 70 0 28 17 43 17 71 0 28-17 42-17 70 0 27 17 42 17 70 0 29-20 46-20 75 0 22 12 38 12 61 0 32-18 58-44 71-64 32-22 114-125 114-51 0-53 49-108 49-22 0-36-12-58-12-30 0-51 23-80 23-23 0-39-14-62-14-24 0-39 14-63 14-28 0-50-24-79-24-22 0-36 13-58 13-56 0-57-50-114-50-38 0-72-21-79-62-11-62-85-50-85-124 0-22 12-38 12-60 0-28-19-45-19-74 0-28 17-43 17-70 0-28-17-42-17-70 0-28 17-43 17-71 0-27-17-42-17-70 0-28 17-43 17-70 0-28-17-42-17-70 0-42 32-78 76-78l818 0 z" fill="#321B41"/>
		<path d="M2159-287c-30 202-102 378-251 516l0-516 251 0 z M866-287l0 514c-151-140-220-319-251-514l251 0 z" fill="#CA0B4A"/>
	</g></svg>
