<svg version="1.1" xmlns="http://www.w3.org/2000/svg" viewBox="0 0 2300 2300"><g transform="scale(1,-1) translate(-256, -1869)">
		<path d="M1404-292c11 0 20 4 27 12l966 1023c6 6 9 14 9 24 0 9-4 17-9 24l-371 495c-7 10-17 15-30 15l-1180 0c-13 0-23-5-30-15l-376-495c-5-7-8-15-8-24 0-11 3-19 8-24l966-1023c7-8 16-12 28-12 z" fill="#00A6ED"/>
		<path d="M1406-292l1 7 0 1148-942 0c-14-19-65-79-65-97 0-11 4-17 11-24 51-63 109-116 165-175 258-275 496-522 754-797 15-15 48-62 72-62l4 0 z" fill="#1C5CD7"/>
		<path d="M1057 775l349 526-590 0c-13 0-23-5-30-15l-348-459c-7-8-13-16-13-27 0-6 2-10 6-13 11-10 30-11 43-11l583-1 z" fill="#0084CE"/>
		<path d="M1406-292l349 1066-698 0 349-1066 z" fill="#AEDDFF"/>
		<path d="M2405 777c-14 26-36 51-52 74l-256 344c-20 27-42 61-66 85-18 16-24 21-47 21l-577 0 0-524 998 0 z" fill="#26EAFC"/>
		<path d="M1755 774l-349 527-349-527 698 0 z" fill="#B4F6FC"/>
	</g></svg>
