<svg version="1.1" xmlns="http://www.w3.org/2000/svg" viewBox="0 0 2300 2300"><g transform="scale(1,-1) translate(-256, -1869)">
		<path d="M1908-287c5 27 37 199 37 215 0 38-8 62-12 100l-25 201c-141 132-326 204-519 204-195 0-382-78-528-210-12-170-23-340-33-510l1080 0 z" fill="#F92F60"/>
		<path d="M2159-287c-30 202-102 378-251 516l0-516 251 0 z M866-287l0 514c-151-140-220-319-251-514l251 0 z" fill="#CA0B4A"/>
		<path d="M1406 108c117 0 220 73 265 180 61-25 112-56 168-96 5-5 12-7 20-7 22 0 86 65 86 83 0 9-4 16-11 22-144 125-360 180-527 180-178 0-385-59-529-182-7-6-11-13-11-21 0-21 66-84 87-84 7 0 14 2 21 7 58 40 105 71 167 96 46-108 150-178 264-178 z" fill="#321B41"/>
		<path d="M1406 180c71 0 144 50 144 130l0 86-288 0 0-86c0-76 69-130 144-130 z" fill="#F9C136"/>
		<path d="M1740 479c30 69 26 114 32 193 24 1 46 9 65 23l0-69c0-62-35-122-97-147 z M1072 479c-29 66-29 117-32 193-24 1-46 9-65 23l0-69c0-62 35-122 97-147 z" fill="#FFB02F"/>
		<path d="M1747 651c69 0 126 56 126 126 0 69-56 126-126 126-68 0-125-55-125-126 0-70 57-126 125-126 z M1065 651c70 0 125 58 125 126 0 69-54 126-125 126-69 0-126-56-126-126 0-69 56-126 126-126 z" fill="#FECA46"/>
		<path d="M1477 328c140 0 277 100 294 244 11 139 18 271 27 410 1 15 3 26 3 41 0 168-145 293-311 293l-168 0c-168 0-311-122-311-296 0-7 0-13 1-19 7-129 19-295 29-429 3-22 12-54 22-76 48-103 155-168 272-168l142 0 z" fill="#FDD641"/>
		<path d="M1656 782l-160 0c-12 0-17 9-17 20 0 43 58 81 99 81 39 0 98-36 98-81 0-10-10-20-20-20 z M1316 782c9 0 17 7 17 16 0 45-56 85-99 85-39 0-98-36-98-81 0-10 10-20 20-20l160 0 z" fill="#FFFFFF"/>
		<path d="M1625 781l-123 0c-2 6-3 12-3 18 0 35 27 64 64 64 37 0 64-29 64-64 0-7-1-11-2-18 z M1310 781c1 3 2 6 2 9l0 9c0 35-26 64-63 64-18 0-33-6-45-18-16-16-19-38-19-55 0-3 1-6 2-9l123 0 z" fill="#7D4533"/>
		<path d="M1594 781l-65 0c0 7-3 10-3 18 0 19 15 36 36 36 21 0 37-17 37-36 0-5-2-11-5-18 z M1281 781c3 5 4 11 4 18 0 19-15 36-36 36-19 0-36-15-36-36 0-7 1-13 4-18l64 0 z" fill="#000000"/>
		<path d="M1543 813c7 0 11 5 11 12 0 7-4 11-11 11-7 0-11-4-11-11 0-7 4-12 11-12 z M1227 813c7 0 11 5 11 12 0 7-4 11-11 11-7 0-12-4-12-11 0-6 6-12 12-12 z" fill="#FFFFFF"/>
		<path d="M1442-287l0 471c-11-3-23-4-36-4-13 0-25 1-36 4l0-471 72 0 z M1478 295c165 0 306 129 324 293 11 154 19 299 28 453l-57 3c-9-151-17-299-28-450-8-134-138-242-267-242l-143 0c-127 0-260 104-268 242-11 151-19 299-28 450l-57-3c11-154 18-299 29-453 3-25 11-61 22-84 50-132 178-209 302-209l143 0 z" fill="#D3D3D3"/>
		<path d="M1514-215c19 0 36 15 36 36 0 18-17 35-36 35-19 0-36-17-36-35 0-19 15-36 36-36 z M1873 216c-19 0-36 15-36 36 0 19 15 36 36 36 19 0 36-15 36-36 0-19-15-36-36-36 z M1514 0c19 0 36 15 36 36 0 19-15 36-36 36-19 0-36-15-36-36 0-19 15-36 36-36 z M939 216c19 0 36 15 36 36 0 19-15 36-36 36-19 0-36-15-36-36 0-19 15-36 36-36 z" fill="#FDD641"/>
		<path d="M1815 845c44 0 76 36 76 78 0 28-17 42-17 70 0 27 17 42 17 70 0 28-17 43-17 70 0 28 17 43 17 71 0 28-17 42-17 70 0 27 17 42 17 70 0 29-20 46-20 75 0 22 12 38 12 61 0 32-18 58-44 71-64 32-22 114-125 114-51 0-53 49-108 49-22 0-36-12-58-12-30 0-51 23-80 23-23 0-39-14-62-14-24 0-39 14-63 14-28 0-50-24-79-24-22 0-36 13-58 13-56 0-57-50-114-50-38 0-72-21-79-62-11-62-85-50-85-124 0-22 12-38 12-60 0-28-19-45-19-74 0-28 17-43 17-70 0-28-17-42-17-70 0-28 17-43 17-71 0-27-17-42-17-70 0-28 17-43 17-70 0-28-17-42-17-70 0-42 32-78 76-78l818 0 z" fill="#321B41"/>
		<path d="M1436 629c25 0 42 22 42 44 0 20-18 77-32 117-16 43-17 54-40 54-15 0-24-7-29-22-8-28-43-123-43-150 0-22 17-43 42-43l60 0 z" fill="#FFB02C"/>
		<path d="M1406 505c50 0 98 28 124 71 1 3 2 5 2 7 0 7-5 13-12 13l-6-2c-43-16-55-28-108-28-40 0-73 9-108 28-1 1-2 1-5 1-9 0-13-4-13-13l2-6c18-39 79-71 124-71 z" fill="#990839"/>
	</g></svg>
