<svg version="1.1" xmlns="http://www.w3.org/2000/svg" viewBox="0 0 2300 2300"><g transform="scale(1,-1) translate(-256, -1869)">
		<path d="M1035 897c82 0 156 36 208 94l19 0c147 0 264 120 264 265 0 43-9 82-27 118l1 0c8 14 12 30 12 47 0 24-5 46-18 67-32 51-4 89-51 138-45 45-81 23-90 38-14 20-51 49-94 49-37 0-67-17-90-46-5-6-10-8-18-8-28 0-46-4-72-17-99-52-95-136-98-186-2-25-18-45-45-49-117-24-182-113-182-231 0-155 129-279 281-279 z" fill="#3D2123"/>
		<path d="M1770 1414c19 0 37 14 37 36l0 80c13 13 50 41 50 65 0 21-16 37-38 37-10 0-19-4-26-11-24-24-59-48-59-87l0-84c0-18 17-36 36-36 z" fill="#452829"/>
		<path d="M1668 1089c30 0 58 6 85 17 27 11 50 27 70 47 19 20 35 43 47 70 11 26 17 54 17 84l0 169c17 0 34 2 51 6 17 4 29 15 38 33l18 36 9 20c3 6 4 11 4 15 0 9-3 16-9 22-6 6-13 9-22 9-11 0-19-4-25-11-6-8-11-16-16-25-5-9-9-17-14-23-4-5-8-8-14-8l-5 1c-12 3-25 7-38 12-13 5-26 7-39 7-23 0-43-8-60-23-13-11-21-25-26-41-5-16-7-33-7-50l0-14c0-14 1-27 2-41l3-55 0-13c0-12-1-24-3-35-3-15-9-28-19-37-13-13-28-19-47-19l-228 0 0-153 228 0 z" fill="#573739"/>
		<path d="M868-285c35 38 136 83 225 118 153 59 207 77 289 106 73 26 112 42 247 90 188 66 606 232 606 367l160 354 0 30c0 62-52 109-112 109-19 0-32-4-48-12-146-69-305-101-462-101l-281 0c-3 59-11 117-11 174 0 36 37 61 37 123 0 64-49 117-78 169l-301 0c-54 0-102-52-102-104 0-27 9-54 17-78 28-96 45-209 54-305-29-12-53-29-74-51-67-70-72-132-72-218 0-173-79-316-214-427-42-34-71-89-71-146 0-109 77-198 191-198 z" fill="#F8312F"/>
		<path d="M1567-285c15 0 29 3 42 9 13 5 24 13 34 23 10 10 18 22 24 35 5 13 8 26 8 41 0 29 10 54 31 75 21 21 46 31 75 31l143 0c15 0 29 3 42 9 13 5 24 13 34 23 13 13 21 25 24 38 3 13 6 25 8 38 2 13 5 25 9 38 4 13 13 25 27 38 11 10 22 17 35 22 13 4 26 7 39 8l29 1 12 0c13-1 27-1 41-1 23 0 45 5 66 16 21 10 39 23 55 40 15 17 28 36 37 58 9 21 13 43 13 66l0 422c0 18-6 33-19 46-13 13-28 19-46 19-8 0-16-2-24-6-8-5-15-10-20-15-11-12-17-25-18-40l-1-23 1-38c0-12-1-24-3-37-3-17-13-33-28-48-15-15-29-23-43-26-14-3-28-5-41-6-14-1-28-2-41-4-13-3-26-10-39-23-13-13-21-27-24-42l-8-45c-3-15-8-30-16-43-8-14-23-26-46-36-15-6-30-10-44-10l-63 2c-14 0-27-2-40-4-16-3-32-12-47-27-13-13-22-25-25-38-3-13-6-25-7-38-2-13-4-25-7-38-3-13-11-25-24-37-13-13-28-21-44-26-16-5-33-7-50-7l-14 0c-13 0-26 1-39 2-18 1-36 2-53 2-17-1-34-3-50-8-16-5-31-13-44-26-13-13-21-25-24-38-3-13-6-25-7-37-2-13-4-25-7-38-3-13-11-25-24-37-10-10-22-18-35-23-13-6-27-9-41-9l-428 0c-16 0-31-3-45-9-14-6-26-14-37-25-11-11-19-23-25-37-6-14-9-29-9-45 0-16 3-31 10-44 6-14 14-26 25-36 11-10 23-18 37-23 14-6 29-9 45-9l704 0 z" fill="#990839"/>
		<path d="M1119-159l54 102-174 0c-13-33-31-67-40-102l160 0 z M1939-194l-186 455c-3-58-48-105-107-105l-43 0 155-301 181-49 z" fill="#3D2123"/>
		<path d="M1052-285c-55 0-98 43-98 98 0 17 4 30 11 45l163 0-76-143 z M1976-285l-42 104-186 54c44-85 75-158 180-158l48 0 z" fill="#F8312F"/>
		<path d="M1342 1115c15 0 26 10 26 25l0 102-177 0 135-121c4-4 9-6 16-6 z" fill="#452829"/>
		<path d="M1262 1227c92 0 164 63 169 159l4 81c0 27-3 63-39 63l-109 0c-73 0-111 61-116 61-8 0-25-43-52-54-8-14-31-11-31-51 0-33 3-67 4-100 3-94 81-159 170-159 z" fill="#573739"/>
		<path d="M1370 1420c-22 6-44 13-67 21 10 14 26 27 45 27 17 0 43-6 43-22 0-11-12-17-21-26 z M1149 1420l67 21c-10 14-26 27-45 27-17 0-43-7-43-22 0-11 12-17 21-26 z" fill="#000000"/>
		<path d="M1378 1418l-75 0c-6 4-4 1-7 8 3 23 24 39 46 39 16 0 46-16 46-35 0-9-1-12-10-12 z M1216 1418c7 4 4 1 8 8-4 23-25 39-47 39-18 0-45-15-45-35 0-10 3-12 9-12l75 0 z" fill="#FFFFFF"/>
		<path d="M1365 1418l-59 0c0 22 8 38 29 38 16 0 30-14 30-30l0-8 z M1213 1418c0 21-8 38-30 38-16 0-29-13-29-30l0-8 59 0 z" fill="#7D4533"/>
		<path d="M1352 1418l-30 0c-3 3-4 5-4 8l1 7c5 6 9 10 16 10 12 0 17-4 17-25 z M1197 1418c3 3 4 5 4 8 0 11-6 17-17 17-15 0-17-13-17-25l30 0 z" fill="#000000"/>
		<path d="M1325 1432c4 0 6 2 6 6 0 3-2 5-6 5-4 0-6-2-6-5 0-4 2-6 6-6 z M1174 1432c4 0 6 2 6 6 0 3-2 5-6 5-3 0-5-2-5-5 0-4 2-6 5-6 z" fill="#FFFFFF"/>
		<path d="M1259 1299c26 0 42 12 57 33-2 4 0 3-5 5-19-3-29-13-52-13-20 0-32 8-51 13-5-1-4 0-5-5 3-18 38-33 56-33 z" fill="#990839"/>
		<path d="M1272 1356c9 0 12 3 17 14 0 13-15 63-22 70l-8 2-7-2c-11-11-23-57-23-66 0-9 6-18 17-18l26 0 z" fill="#3D2123"/>
		<path d="M1140 1484c24 3 14 10 56 10 5 0 12 2 12 9 0 13-10 13-22 13-19 0-36-4-52-12-1-3-4-5-4-8l1-6 4-4 5-2 z M1378 1484c12 0 12 5 14 10 0 16-41 22-55 22l-12 0c-8-1-12-4-12-13 0-5 2-8 7-8 25-2 37-2 53-11l5 0 z" fill="#000000"/>
		<path d="M784 589c18 0 35 16 35 35 0 35-51 48-51 79l0 71c-23-11-46-25-71-29l0-43c0-36 16-58 39-80 14-13 27-33 48-33 z" fill="#452829"/>
		<path d="M693 583c16 0 26 5 31 15 4 9 6 21 6 34 0 13 0 25-1 38l0 5c0 10 3 18 8 23 1 3 4 7 8 10 3 3 7 5 10 5 11 0 17-4 19-12 2-8 4-17 5-27 1-10 3-19 7-27 4-8 14-12 29-12 9 0 17 4 24 11 7 7 10 16 10 25l0 193c0 21 5 40 14 58 4 7 10 16 17 25 7 9 15 15 23 19l214 105c15 7 28 17 37 28 9 11 13 26 13 44 0 20-7 37-21 52-15 14-32 21-53 21-13 0-24-2-34-7l-225-109c-9-4-17-10-26-18l-27-26c-9-9-16-19-23-28-7-10-13-19-18-28-11-21-20-42-25-64-6-23-9-46-9-69 0-4 0-10 1-19l0-56c-1-9-1-14-2-17-3-8-7-15-12-20l-15-18c-5-6-10-13-14-21-4-9-6-20-6-33l0-65c0-9 4-17 11-24 7-7 15-11 24-11 z" fill="#573739"/>
		<path d="M1400 1471c18 0 38 8 46 27 9-5 18-8 27-8 25 0 43 23 43 46 0 13-5 24-16 33 13 8 22 24 22 39 0 25-19 45-46 45-9 0-19-3-29-10-3 21-20 37-42 37-27 0-45-18-45-43 0-8 1-15 4-20-29 0-49-17-49-45 0-27 20-44 46-44-2-5-3-11-3-17 0-22 19-40 42-40 z" fill="#F92F60"/>
		<path d="M1410 1515c5 0 11 2 16 5 5 3 9 7 10 12 5-3 11-5 19-5 5 0 11 3 16 8 5 5 7 10 7 15 0 4-1 8-2 13-2 5-5 8-8 11 8 5 12 12 12 23 0 9-3 16-10 20-7 4-14 6-22 6l-5-2c-3-1-5-3-6-4-1 6-4 11-9 16-5 5-10 7-16 7-10 0-18-4-23-12-3-5-5-10-5-16l2-10-4 0c-7 0-12-3-17-8-5-6-7-12-7-19 0-7 3-13 8-18 5-5 12-8 19-8-1-1-1-4-1-7 0-7 3-14 8-19 5-5 11-8 18-8 z" fill="#CA0B4A"/>
	</g></svg>
