<svg version="1.1" xmlns="http://www.w3.org/2000/svg" viewBox="0 0 2300 2300"><g transform="scale(1,-1) translate(-256, -1869)">
		<path d="M1513 321c162 0 294 132 294 298 0 23-3 46-8 67-8 29-27 62-27 84 0 6 2 13 5 21 19 45 30 86 30 133 0 41-8 81-25 120l1 0c-37 80-74 113-74 213 0 167-133 306-301 306-19 0-30 6-41 21-65 81-141 128-245 128-104 0-178-46-245-128-14-18-27-21-49-22-165-11-293-137-293-306 0-59-16-113-48-164-32-52-50-107-50-168 0-48 11-88 30-133 3-6 4-13 4-21 0-8-1-15-4-21-19-44-30-84-30-130 0-164 129-298 294-298l782 0 z" fill="#000000"/>
		<path d="M1539 809c80 0 143 62 143 143 0 77-63 142-143 142-76 0-142-60-142-142 0-78 63-143 142-143 z M684 809c80 0 142 64 142 143 0 76-60 142-142 142-78 0-143-63-143-142 0-80 62-143 143-143 z" fill="#452829"/>
		<path d="M1825-285l0 27c0 387-328 686-713 686-257 0-488-132-613-335-75-121-100-230-100-378l1426 0 z" fill="#8B62BF"/>
		<path d="M1112 178c108 0 178 97 178 194l0 127-357 0 0-127c0-101 74-194 179-194 z" fill="#452829"/>
		<path d="M1896 549c32 0 118 16 160 22l0 53c0 11-6 17-17 18-44 5-100 15-143 15-43 0-99-10-143-15-11-1-17-7-17-18l0-53c37-5 128-22 160-22 z" fill="#8B62BF"/>
		<path d="M2110-285l0 791c0 32-25 65-61 65l-306 0c-36 0-61-33-61-65l0-791 428 0 z" fill="#A17FD5"/>
		<path d="M1115 357c260 0 439 200 450 451 4 91 10 180 10 271 0 66-30 138-103 138l-290 0c-103 0-193 48-254 118-21 23-31 55-53 55-11 0-17-4-20-11-27-68-55-110-118-143-55-29-82-77-82-143 0-97 6-188 10-285 10-245 185-451 450-451 z" fill="#573739"/>
		<path d="M1147 749c27 0 46 24 46 50 0 27-38 138-47 173-4 15-17 26-33 26-16 0-29-11-33-26-8-32-47-143-47-173 0-26 19-50 47-50l67 0 z" fill="#3D2123"/>
		<path d="M1416 910c-56 20-115 36-172 52 24 37 63 72 113 72 33 0 113-17 113-60 0-27-36-48-54-64 z M809 910c59 20 114 33 173 52-24 37-64 72-114 72-33 0-113-17-113-60 0-27 36-48 54-64 z" fill="#000000"/>
		<path d="M1420 906c18 0 37 12 37 33l0 6c-10 46-71 89-128 89-54 0-128-44-128-95 0-21 19-33 37-33l182 0 z M988 906c18 0 38 12 38 33l0 6c-10 46-73 89-128 89-53 0-105-32-126-84-2-4-3-8-3-12 0-19 20-32 38-32l181 0 z" fill="#FFFFFF"/>
		<path d="M1390 906c2 7 3 14 3 21 0 49-38 86-85 86-49 0-86-42-86-86 0-7 1-12 2-19 5-1 9-2 14-2l152 0 z M988 906l15 2c1 7 2 12 2 19 0 49-42 86-86 86-53 0-85-41-85-96 0-4 1-8 2-11l152 0 z" fill="#7D4533"/>
		<path d="M1355 906c3 5 4 12 4 19 0 32-24 53-54 53-30 0-53-24-53-53 0-7 1-14 4-19l99 0 z M971 906c3 7 4 12 4 19 0 32-24 53-54 53-29 0-53-23-53-53 0-7 1-13 3-19l100 0 z" fill="#000000"/>
		<path d="M1329 949c-12 0-21 9-21 21 0 12 9 21 21 21 12 0 21-9 21-21 0-12-9-21-21-21 z M898 949c12 0 21 9 21 21 0 12-9 21-21 21-12 0-22-9-22-21 0-12 10-21 22-21 z" fill="#FFFFFF"/>
		<path d="M1436 1072c14 0 24 10 24 23 0 45-125 69-162 69-12 0-23-11-23-23 0-12 11-23 23-23 39 0 90-10 122-39 6-5 11-7 16-7 z M790 1072c5 0 11 2 17 7 22 20 56 31 91 37 25 3 54-1 54 25 0 13-9 23-23 23-34 0-162-23-162-69 0-14 11-23 23-23 z" fill="#000000"/>
		<path d="M1111 571c61 0 104 31 140 78 2 2 3 5 3 8 0 8-7 16-15 16l-2 0c-76-26-74-30-126-30-57 0-124 34-129 34-7 0-13-7-13-14 0-3 1-6 3-8 38-49 78-84 139-84 z" fill="#990839"/>
		<path d="M2039 642c12 6 28 11 48 15l63 9 65 6c21 2 38 4 53 7 14 3 25 9 34 19 8 8 12 19 12 32l0 4c15 3 27 7 38 13 11 6 17 18 18 35 7 5 12 12 16 19 4 7 6 15 6 24 0 14-5 26-15 36-10 10-22 16-35 17 0 11-4 20-11 25-8 5-17 7-27 7-6 0-11 0-14-1l-180-27-180-26c9 9 18 17 26 26 7 8 11 19 11 33 0 15-5 28-15 39-10 10-23 15-38 15-7 0-13-1-20-4-7-3-13-7-18-12l-87-97c-12-13-21-30-27-50-6-21-9-40-9-57l0-107 286 0 z" fill="#573739"/>
		<path d="M2003 824l339 54-1 9-339-54c-3 0-4-3-4-6l5-3 z M2314 727l0 7 6 1c-5 15-12 28-19 39-8 11-21 16-40 16-9 0-21-1-36-3-15-2-31-4-48-7l-48-8c-16-3-29-6-40-7-2 0-3-2-3-5 0-1 1-1 2-2 1-1 2-2 3-2 10 1 23 4 39 7l48 8c16 3 32 5 47 7 15 2 27 3 36 3 5 0 10-1 16-3 6-3 12-6 17-10 5-4 9-8 12-13 2-4 3-8 3-13l0-4 5-11 z M2371 782l7 8 0 4c0 5-2 10-4 16-4 7-9 12-14 17-5 5-11 9-18 12-7 3-14 4-21 4l-9-1-274-41c-3 0-4-2-4-5l5-4 282 42c17 0 28-5 35-15 7-11 12-23 15-37 z" fill="#341A1C"/>
	</g></svg>
