<svg version="1.1" xmlns="http://www.w3.org/2000/svg" viewBox="0 0 2300 2300"><g transform="scale(1,-1) translate(-256, -1869)">
		<path d="M1975 1221l57 60 81 282c2 6 3 13 3 20 0 44-30 59-68 70l-101-348 11-76 17-8 z" fill="#D3D3D3"/>
		<path d="M956 554c99 52 248 66 362 66 36 0 318-11 318-60l-1-4c61 28 97 87 97 149l0 70c-12-8-25-15-40-15-51 0-90 72-106 114 21 15 132 102 145 102l0 40c0 27 7 45 21 66 22 33 25 92 25 127l0 17c76 38 227 149 227 252 0 14-12 27-27 27-8 0-15-4-21-11-66-68-173-133-273-133-31 0-72 9-93 33-43 48-73 123-183 123-42 0-75-23-115-23-41 0-74 23-115 23-64 0-117-31-151-82-26-39-61-67-104-84-69-27-121-85-121-168 0-80 53-104 53-167l0-38c40-5 83-70 102-104-13-29-53-104-88-104-6 0-11 1-14 4l0-69c0-68 40-127 102-151 z" fill="#FFF9BA"/>
		<path d="M2125-287c0 416-338 754-755 754l-144 0c-417 0-754-338-754-754l1653 0 z" fill="#FF6723"/>
		<path d="M1292 252c87 0 161 70 161 160l0 106-321 0 0-106c0-88 71-160 160-160 z" fill="#E4B29A"/>
		<path d="M1658 751c71 0 125 60 125 125 0 71-60 125-125 125-71 0-125-60-125-125 0-71 60-125 125-125 z M927 751c71 0 125 60 125 125 0 71-60 125-125 125-69 0-126-54-126-125 0-68 55-125 126-125 z" fill="#E4B29A"/>
		<path d="M1366 385c30 0 59 5 88 14 28 9 54 21 78 37 24 16 45 36 64 59 19 23 34 48 45 76 4 11 8 23 11 35 3 12 6 24 7 35l23 357-1 0 4 35c1 11 1 23 1 34 0 14-3 28-8 41-6 13-14 24-24 34-10 10-21 18-34 24-13 6-26 9-40 9-33 1-63 1-88 1l-10 0c-22 0-43 3-61 7-21 5-41 16-60 31-19 15-37 38-56 70-5 9-11 17-18 23-7 6-17 9-29 9l-97 0c-35 0-68-7-99-20-31-13-58-32-81-55-23-23-42-50-55-81-13-31-20-64-20-99 0-71 3-141 8-210l15-210c1-11 4-23 7-35 3-13 7-24 11-35 11-28 26-53 45-76 19-23 40-43 65-59 24-16 50-28 79-37 28-9 57-14 87-14l143 0 z" fill="#EEBFAA"/>
		<path d="M1322 717c23 0 41 18 41 40 0 18-18 71-32 110-15 42-15 51-38 51-13 0-25-7-29-21-8-30-41-115-41-140 0-22 18-40 41-40l58 0 z" fill="#D19479"/>
		<path d="M1293 585c25 0 50 6 73 19 23 12 56 44 56 56 0 7-5 13-12 13l-6-2c-40-15-69-27-111-27-19 0-38 2-57 7-23 6-54 22-59 22-8 0-12-4-12-13l2-6c26-44 79-69 126-69 z" fill="#990839"/>
		<path d="M1032 1031c5 0 8 1 12 4 19 13 37 21 54 23 17 2 36 3 58 3 10 0 22 7 22 18 0 18-13 24-27 24-33 0-140-13-140-53 0-10 10-19 21-19 z M1555 1031c5 0 10 2 14 6 4 3 6 8 6 13 0 9-5 16-15 23-11 7-23 12-36 17-14 4-28 7-41 10-14 2-24 3-31 3l-9 0c-5 0-9 0-13-1l-12-3c-3-1-5-3-6-6-3-3-4-5-4-6l0-8c0-5 2-9 7-14 6-2 11-4 15-4l3 0c5 1 11 1 18 1 13 0 25-2 36-5 11-3 22-7 31-10l23-11c7-3 11-5 14-5 z" fill="#A56953"/>
		<path d="M1558 873l-170 0c-7 0-17 7-17 15 0 52 59 92 105 92 43 0 104-38 104-86 0-12-12-21-22-21 z M1198 873c9 0 18 8 18 17 0 47-59 90-105 90-41 0-105-38-105-86 0-12 12-21 22-21l170 0 z" fill="#FFFFFF"/>
		<path d="M1526 873l-132 0c-1 7-2 11-2 18 0 38 28 69 68 69 40 0 68-32 68-69 0-7-1-11-2-18 z M1192 873c1 7 2 11 2 18 0 38-28 69-68 69-40 0-68-32-68-69 0-7 1-11 2-18l132 0 z" fill="#7D4533"/>
		<path d="M1494 873l-69 0c-3 5-4 11-4 18 0 23 17 39 39 39 21 0 39-17 39-39 0-5-2-11-5-18 z M1161 873c3 5 4 11 4 18 0 23-17 39-39 39-23 0-38-18-38-39 0-7 1-13 4-18l69 0 z" fill="#000000"/>
		<path d="M1439 906c8 0 12 4 12 12 0 8-4 12-12 12-8 0-12-4-12-12 0-8 4-12 12-12 z M1103 906c7 0 12 6 12 12 0 7-5 12-12 12-9 0-13-4-13-12 0-8 4-12 13-12 z" fill="#FFFFFF"/>
		<path d="M2032 1281c26 0 52 1 78 2l6 33-60 49-348 101c-3-12-8-24-8-37 0-32 22-59 51-67 20-4 281-81 281-81 z" fill="#D3D3D3"/>
		<path d="M2002 1314c12 0 21 10 21 22 0 12-9 21-21 21-12 0-22-9-22-21 0-12 10-22 22-22 z" fill="#9B9B9B"/>
		<path d="M1942 995c71 0 131 57 131 132 0 41-20 84-55 107l13 47-84 24-13-46c-70 0-125-63-125-130 0-71 57-134 133-134 z M2207 1143c71 0 133 58 133 132 0 75-61 133-133 133-43 0-82-21-106-55l-45 12-24-84 45-14c0-72 66-124 130-124 z M1942 1067c-36 0-62 28-62 62 0 33 26 61 62 61 33 0 62-26 62-62 0-33-26-61-62-61 z M2209 1214c-34 0-62 25-62 61 0 33 27 62 61 62 34 0 62-26 62-62 0-36-27-61-61-61 z" fill="#F8312F"/>
	</g></svg>
