<svg version="1.1" xmlns="http://www.w3.org/2000/svg" viewBox="0 0 2300 2300"><g transform="scale(1,-1) translate(-256, -1869)">
		<path d="M1755 288c143 0 262 115 262 262 0 41-11 74-27 114-3 5-4 12-4 19 0 7 1 13 4 18 18 39 27 74 27 117 0 53-15 99-45 147-29 45-43 94-43 145 0 146-117 268-268 268-16 0-26 7-37 19-62 73-126 113-218 113-92 0-162-41-218-112-10-13-19-19-37-19-149 0-268-120-268-268 0-51-14-100-43-145-30-48-45-93-45-148 0-43 9-78 27-117 3-5 4-12 4-19 0-7-1-13-4-18-18-39-27-72-27-114 0-143 115-262 262-262l698 0 z" fill="#FFB02F"/>
		<path d="M1029 701c68 0 125 55 125 126 0 70-57 126-125 126-69 0-126-56-126-126 0-69 56-126 126-126 z M1783 705c69 0 126 54 126 125 0 69-56 126-126 126-68 0-125-55-125-126 0-71 60-125 125-125 z" fill="#FECA46"/>
		<path d="M2161-287c-64 364-386 620-755 620-368 0-691-255-755-620l1510 0 z" fill="#8B62BF"/>
		<path d="M1406 144c85 0 144 77 144 158l0 187c0 78-57 158-144 158-85 0-144-77-144-158l0-187c0-78 57-158 144-158 z" fill="#F9C136"/>
		<path d="M1406 324c217 0 395 157 403 386 3 83 10 166 10 249 0 56-30 117-92 117l-261 0c-110 0-188 49-259 137-4 6-10 9-17 9-9 0-15-3-18-9-21-50-48-95-106-120-54-24-73-68-73-122 0-87 7-174 11-261 11-224 176-386 402-386 z" fill="#FDD641"/>
		<path d="M1701 927c7 0 12 2 16 7 4 4 6 9 6 16 0 9-6 18-17 25-12 7-25 12-40 17-15 5-30 8-45 11-15 2-26 3-32 3l-15 0c-5 0-10-1-15-2-5-2-9-5-12-8-3-3-5-8-5-14 0-7 2-12 5-15 3-3 7-5 12-6l11-1 4 0c5 1 10 1 15 1 15 0 32-2 50-7 18-5 34-13 47-22l1 0c5-3 9-5 14-5 z M1141 927c10 0 53 34 111 34l25-1c14 0 22 11 22 23 0 18-15 23-30 23-30 0-151-13-151-56 0-13 9-23 23-23 z" fill="#D37034"/>
		<path d="M1436 647c25 0 42 22 42 44 0 20-18 77-32 118-16 44-17 54-40 54-15 0-25-10-29-23-8-28-43-127-43-150 0-22 17-43 42-43l60 0 z" fill="#FFB02C"/>
		<path d="M1406 511c56 0 110 27 141 74 1 3 2 5 2 7 0 7-7 12-14 12l-6-1c-50-16-60-29-122-29-45 0-83 10-125 29l-6 1c-7 0-14-6-14-13l2-6c22-46 93-74 142-74 z" fill="#990839"/>
		<path d="M1865 807c42 0 79 39 79 84l1 834-242 0 0-241c0-47-20-92-51-123l-130-131c-17-17-25-37-25-61 0-43 34-81 81-81 71 0 86 89 144 89 34 0 59-27 59-58l0-230c0-48 38-82 84-82 z M953 807c43 0 78 39 78 82l0 229c0 31 25 58 59 58 58 0 72-88 144-88 44 0 81 36 81 81 0 24-8 44-25 61l-130 131c-33 34-51 78-51 123l0 241-242 0 1-834c0-51 39-84 85-84 z" fill="#F59B31"/>
		<path d="M1580 783c26 0 95 23 95 56 0 11-9 21-19 21-18 0-31-35-76-35-45 0-59 35-75 35-10 0-20-10-20-20 0-33 69-57 95-57 z M1231 783c25 0 96 24 96 57 0 10-10 20-20 20-16 0-32-35-76-35-45 0-59 35-75 35-10 0-20-10-20-20 0-33 69-57 95-57 z" fill="#D37034"/>
	</g></svg>
