<svg version="1.1" xmlns="http://www.w3.org/2000/svg" viewBox="0 0 2300 2300"><g transform="scale(1,-1) translate(-256, -1869)">
		<path d="M1825-285l0 27c0 387-328 686-713 686-257 0-488-132-613-335-75-121-100-230-100-378l1426 0 z" fill="#FF6723"/>
		<path d="M1896 549c32 0 118 16 160 22l0 53c0 11-6 17-17 18-44 5-100 15-143 15-43 0-99-10-143-15-11-1-17-7-17-18l0-53c37-5 128-22 160-22 z" fill="#FF6723"/>
		<path d="M2110-285l0 791c0 32-25 65-61 65l-306 0c-36 0-61-33-61-65l0-791 428 0 z" fill="#FF8101"/>
		<path d="M1539 809c80 0 143 62 143 143 0 77-63 142-143 142-76 0-142-60-142-142 0-78 63-143 142-143 z M684 809c80 0 142 64 142 143 0 76-60 142-142 142-78 0-143-63-143-142 0-80 62-143 143-143 z" fill="#452829"/>
		<path d="M1112 178c108 0 178 97 178 194l0 127-357 0 0-127c0-101 74-194 179-194 z" fill="#452829"/>
		<path d="M1504 583c35 75 33 150 38 234 30 1 57 10 81 27l0-83c0-74-44-147-119-178 z M719 583c-35 75-33 150-38 234-31 1-57 10-80 27l0-83c0-75 44-148 118-178 z" fill="#000000"/>
		<path d="M1196 380c166 0 329 130 344 302l32 509c1 16 3 32 3 49 0 200-165 365-365 365l-197 0c-208 0-365-162-365-367 0-16 2-31 3-47 11-171 21-338 33-509 1-15 5-31 10-47 51-167 189-255 334-255l168 0 z" fill="#573739"/>
		<path d="M1621 1068l0 46 1 23c1 10 4 20 7 30 3 10 9 21 16 32 12 19 21 38 28 57 6 19 9 40 9 62 0 45-13 86-38 122-26 35-60 61-102 76-26 9-49 22-68 37-19 15-37 34-52 58-19 31-44 56-74 74-31 18-65 27-102 27-12 0-23-1-34-4l-33-10-33-9c-11-3-23-5-34-5-11 0-22 2-33 5l-33 9-33 10c-11 3-23 4-35 4-37 0-71-9-100-26-30-17-55-41-75-72-16-24-34-44-53-59-19-16-43-29-70-39-42-16-76-41-101-76-25-35-38-76-38-122 0-23 3-43 10-62 6-19 15-38 27-57 7-11 13-22 16-32 3-11 6-21 7-31 1-10 2-20 2-31-1-11-1-24-1-37 9 6 19 11 29 16 10 4 21 7 32 8l0 83c0 41 8 79 23 116 15 36 36 68 63 95 27 27 58 49 94 65 36 15 75 23 116 23l113 0c13 0 24-3 33-10 9-7 16-16 21-27 19-39 45-70 79-93 34-23 73-35 117-35l124 0c17 0 32-3 47-10 15-7 28-17 39-29 11-12 20-26 27-41 7-15 10-31 10-47 0-15 0-30-1-45l-4-46c21-3 40-10 57-23 z" fill="#000000"/>
		<path d="M1147 749c27 0 46 24 46 50 0 27-38 138-47 173-4 15-17 26-33 26-16 0-29-11-33-26-8-32-47-143-47-173 0-26 19-50 47-50l67 0 z" fill="#3D2123"/>
		<path d="M1111 571c61 0 104 31 140 78 2 2 3 5 3 8 0 8-7 16-15 16l-2 0c-76-26-74-30-126-30-57 0-124 34-129 34-7 0-13-7-13-14 0-3 1-6 3-8 38-49 78-84 139-84 z" fill="#290118"/>
		<path d="M1420 927c18 0 37 12 37 33l0 6c-10 45-70 90-128 90-54 0-128-45-128-96 0-21 19-33 37-33l182 0 z M988 927c18 0 38 12 38 33l0 6c-9 44-70 90-128 90-58 0-107-36-126-85-2-4-3-8-3-12 0-19 20-32 38-32l181 0 z" fill="#FFFFFF"/>
		<path d="M1390 927c2 7 3 14 3 22 0 47-38 85-85 85-49 0-86-38-86-85 0-7 1-12 2-19 4-2 9-3 14-3l152 0 z M988 927c5 0 10 1 15 3 1 7 2 12 2 19 0 46-37 85-86 85-23 0-43-8-60-25-21-21-25-39-25-71 0-4 1-8 2-11l152 0 z" fill="#7D4533"/>
		<path d="M1355 927c3 5 4 12 4 19 0 30-22 54-54 54-32 0-53-25-53-54 0-7 1-14 4-19l99 0 z M971 929c3 7 4 11 4 18 0 32-25 53-54 53-29 0-53-23-53-53 0-6 1-12 3-18l100 0 z" fill="#000000"/>
		<path d="M1329 970c11 0 21 11 21 21 0 12-9 22-21 22-12 0-21-10-21-22 0-10 10-21 21-21 z M898 970c10 0 21 10 21 21 0 12-9 22-21 22-12 0-22-10-22-22 0-12 12-21 22-21 z" fill="#FFFFFF"/>
		<path d="M1420 1083c14 0 24 11 24 23 0 46-129 71-166 71-13 0-24-10-24-24 0-13 10-23 24-23 27 0 53-4 78-13 16-5 56-34 64-34 z M814 1083c4 0 16 7 30 15 35 21 53 26 74 29 26 4 62-2 62 26 0 14-10 24-23 24-36 0-166-23-166-71 0-14 11-23 23-23 z" fill="#000000"/>
		<path d="M2039 642c12 6 28 11 48 15l63 9 65 6c21 2 38 4 53 7 14 3 25 9 34 19 8 8 12 19 12 32l0 4c15 3 27 7 38 13 11 6 17 18 18 35 7 5 12 12 16 19 4 7 6 15 6 24 0 14-5 26-15 36-10 10-22 16-35 17 0 11-4 20-11 25-8 5-17 7-27 7-6 0-11 0-14-1l-180-27-180-26c9 9 18 17 26 26 7 8 11 19 11 33 0 15-5 28-15 39-10 10-23 15-38 15-7 0-13-1-20-4-7-3-13-7-18-12l-87-97c-12-13-21-30-27-50-6-21-9-40-9-57l0-107 286 0 z" fill="#573739"/>
		<path d="M2314 727l0 7 6 1c-5 15-12 28-19 39-8 11-21 16-40 16-9 0-21-1-36-3-15-2-31-4-48-7l-48-8c-16-3-29-6-40-7-2 0-3-2-3-5 0-1 1-1 2-2 1-1 2-2 3-2 10 1 23 4 39 7l48 8c16 3 32 5 47 7 15 2 27 3 36 3 5 0 10-1 16-3 6-3 12-6 17-10 5-4 9-8 12-13 2-4 3-8 3-13l0-4 5-11 z M2371 782l7 8 0 4c0 5-2 10-4 16-4 7-9 12-14 17-5 5-11 9-18 12-7 3-14 4-21 4l-9-1-274-41c-3 0-4-2-4-5l5-4 282 42c17 0 28-5 35-15 7-11 12-23 15-37 z M2003 824l339 54-1 9-339-54c-3 0-4-3-4-6l5-3 z" fill="#341A1C"/>
	</g></svg>
