<svg version="1.1" xmlns="http://www.w3.org/2000/svg" viewBox="0 0 2300 2300"><g transform="scale(1,-1) translate(-256, -1869)">
		<path d="M1747 651c69 0 126 56 126 126 0 69-56 126-126 126-68 0-125-55-125-126 0-70 57-126 125-126 z M1065 651c70 0 125 58 125 126 0 69-54 126-125 126-69 0-126-56-126-126 0-69 56-126 126-126 z" fill="#FECA46"/>
		<path d="M1908-287c8 49 37 174 37 215 0 35-8 67-12 100l-25 201c-142 131-326 204-519 204-195 0-382-78-528-210-12-170-23-340-33-510l1080 0 z" fill="#F92F60"/>
		<path d="M2159-287c-29 196-98 374-251 516l0-516 251 0 z M866-287l0 514c-158-147-221-328-251-514l251 0 z" fill="#CA0B4A"/>
		<path d="M1406 108c117 0 220 73 265 180 60-25 112-58 168-96 7-5 10-7 20-7 19 0 86 61 86 83 0 9-4 16-11 22-128 115-344 180-527 180-186 0-397-66-529-182-7-7-11-12-11-21 0-21 65-84 87-84 7 0 14 2 21 7 56 36 106 72 167 96 46-108 150-178 264-178 z" fill="#321B41"/>
		<path d="M1406 180c71 0 144 50 144 130l0 86-288 0 0-86c0-76 69-130 144-130 z" fill="#F9C136"/>
		<path d="M1514-215c19 0 36 15 36 36 0 18-17 35-36 35-19 0-36-17-36-35 0-19 15-36 36-36 z M1873 216c-19 0-36 15-36 36 0 19 15 36 36 36 19 0 36-15 36-36 0-19-15-36-36-36 z M1514 0c19 0 36 15 36 36 0 19-15 36-36 36-19 0-36-15-36-36 0-19 15-36 36-36 z M939 216c19 0 36 15 36 36 0 19-15 36-36 36-19 0-36-15-36-36 0-19 15-36 36-36 z" fill="#FDD641"/>
		<path d="M1522 314c125 0 218 95 232 220 14 139 19 270 28 409l1 14 0 13c0 189-151 351-345 351l-64 0c-48 0-93-9-135-28-139-63-211-189-211-337l1-13c11-139 15-270 29-409 11-124 109-220 232-220l232 0 z" fill="#FDD641"/>
		<path d="M1656 782l-160 0c-11 0-17 9-17 20 0 43 58 81 99 81 39 0 98-36 98-81 0-10-10-20-20-20 z M1316 782c9 0 17 7 17 16 0 45-56 85-99 85-39 0-98-36-98-81 0-10 10-20 20-20l160 0 z" fill="#FFFFFF"/>
		<path d="M1625 781l-123 0c-2 6-3 12-3 18 0 35 27 64 64 64 37 0 64-29 64-64 0-7-1-11-2-18 z M1310 781c1 3 2 6 2 9l0 9c0 35-26 64-63 64-18 0-33-6-45-18-16-16-19-38-19-55 0-3 1-6 2-9l123 0 z" fill="#7D4533"/>
		<path d="M1594 781l-65 0c0 7-3 10-3 18 0 19 15 36 36 36 21 0 37-17 37-36 0-5-2-11-5-18 z M1281 781c3 5 4 11 4 18 0 19-15 36-36 36-19 0-36-15-36-36 0-7 1-13 4-18l64 0 z" fill="#000000"/>
		<path d="M1543 813c7 0 11 5 11 12 0 7-4 11-11 11-7 0-11-4-11-11 0-7 4-12 11-12 z M1227 813c7 0 11 5 11 12 0 7-4 11-11 11-7 0-12-4-12-11 0-6 6-12 12-12 z" fill="#FFFFFF"/>
		<path d="M1442-287l0 471c-11-3-23-4-36-4-13 0-25 1-36 4l0-471 72 0 z M1478 295c122 0 233 73 290 179 31 58 37 117 40 186 5 133 13 244 22 381l-57 3c-9-151-13-301-28-450-13-132-129-242-267-242l-143 0c-130 0-257 106-268 242-15 149-19 299-28 450l-57-3c11-154 14-303 29-453 1-15 4-29 8-43 40-141 158-250 316-250l143 0 z" fill="#D3D3D3"/>
		<path d="M1815 845c44 0 76 36 76 78 0 27-17 43-17 70 0 27 17 43 17 70 0 27-17 43-17 70 0 27 17 44 17 71 0 27-17 43-17 70 0 27 17 43 17 70 0 28-20 47-20 75 0 22 12 39 12 61 0 31-18 57-44 71-64 35-26 114-125 114-49 0-54 49-108 49-20 0-38-12-58-12-30 0-51 23-80 23-23 0-39-14-62-14-24 0-39 14-63 14-28 0-50-24-79-24-20 0-38 13-58 13-56 0-57-50-114-50-41 0-71-21-79-62-14-62-85-52-85-124 0-22 12-38 12-60 0-28-19-46-19-74 0-27 17-43 17-70 0-27-17-43-17-70 0-27 17-44 17-71 0-27-17-43-17-70 0-27 17-43 17-70 0-27-17-43-17-70 0-42 32-78 76-78l818 0 z" fill="#321B41"/>
		<path d="M1436 629c25 0 42 22 42 44 0 14-9 44-18 74-19 60-25 97-54 97-14 0-24-7-29-22-11-30-43-122-43-150 0-22 17-43 42-43l60 0 z" fill="#FFB02C"/>
		<path d="M1406 505c50 0 98 28 124 71 1 3 2 5 2 7 0 7-5 13-12 13-11 0-58-30-114-30-52 0-108 29-113 29-9 0-13-4-13-13l2-6c16-39 83-71 124-71 z" fill="#990839"/>
	</g></svg>
