<svg version="1.1" xmlns="http://www.w3.org/2000/svg"><g transform="scale(1,-1)">
		<path d="M1402-292c349 214 935 714 935 1154 0 282-190 508-483 508-19 0-39-1-58-2-158-14-296-115-394-265-99 152-245 267-452 267-294 0-483-225-483-508 0-454 614-959 935-1154 z" fill="#F92F60"/>
		<path d="M1190-14c58 0 32 111 93 111 29 0 60-31 89-31 21 0 36 19 36 37 0 22-43 101-53 124l-171 142-66 134c-37-70-63-149-79-222l117-273c7-15 18-22 34-22 z M760-14c15 0 26 7 33 22l117 272-79 80 0 143c-21-31-66-110-88-135-29-32-114-107-148-139-10-23-54-105-54-127 0-18 16-36 37-36 30 0 57 31 89 31 59 0 36-111 93-111 z" fill="#FFB02E"/>
		<path d="M1356 224l-94 207-144 72-143-72 66-154 315-53 z M593 224l315 53 67 154-144 72-144-72-94-207 z" fill="#FF822D"/>
		<path d="M1404 306c69 0 128 55 128 125 0 71-56 126-128 126-86 0-191-62-255-126 60-60 166-125 255-125 z M545 306c86 0 192 61 256 125-59 59-166 126-256 126-69 0-127-55-127-126 0-68 55-125 127-125 z" fill="#FF6723"/>
		<path d="M2184 431c70 108 129 229 148 360l-782 0 0-360 634 0 z M1047 360c18 0 33 5 46 16 20 18 24 48 31 68l66 167-66 167c-4 10-4 17-7 27-7 36-36 58-70 58l-144 0c-17 0-33-5-46-16-22-19-24-44-31-69l-67-167 67-167 3-13c6-33 29-71 74-71l144 0 z" fill="#FFB02E"/>
		<path d="M1406 288c-106 0-206 70-288 143l0 360c68 68 189 144 288 144 81 0 144-67 144-144l0-360c0-80-65-143-144-143 z M543 288c106 0 206 70 288 143l0 360c-68 68-190 144-288 144-80 0-143-65-143-144l0-360c0-80 62-143 143-143 z M1406 324c58 0 108 47 108 107 0 58-49 108-108 108-84 0-177-59-234-108 63-53 151-107 234-107 z M543 324c-59 0-107 49-107 107 0 57 45 108 107 108 78 0 175-55 234-108-62-54-155-107-234-107 z" fill="#FCD53F"/>
	</g></svg>
