<svg version="1.1" xmlns="http://www.w3.org/2000/svg" viewBox="0 0 2300 2300"><g transform="scale(1,-1) translate(-256, -1869)">
		<path d="M1148-151c8 16 28 63 28 77l0 160c21 0 49-47 68-47l5 2c-5-83-7-160-101-192 z M556-117c-25 13-45 31-60 55-15 24-22 50-22 78 0 11 1 23 2 35l2 35c3-3 7-4 11-4 3-1 7-1 10-1 9 0 18 1 27 3 11 1 18 2 30 2l-18-122 1-17c1-7 3-15 5-23 2-9 4-17 7-24l5-17 z M1258 210c-13 9-29 12-42 20-103 59-237 63-348 63-59 0-318-7-379-38 1 15 2 30 2 45 0 51-37 81-37 137 0 74 48 131 114 152 40 13 72 36 97 69 31 43 74 66 127 66 47 0 74-27 115-27 32 0 56 15 88 15 131 0 119-114 223-160 59-25 97-79 97-146 0-81-52-99-55-156l-2-40 z M1675-151c-7 13-13 27-17 42-5 14-8 28-11 43-3 15-5 30-6 45-1 15-3 30-5 45l-6 0c-20 0-39 5-56 17 1-21 3-42 5-61 2-19 6-37 13-54 6-17 16-32 29-45 13-13 31-24 54-32 z M2267-117c50 25 82 76 82 133 0 23-3 47-4 70-17-14-36-22-59-24 0-17 0-32 1-47l-1-45c-2-29-7-58-19-87 z M1605 153l677 18c1 3 4 10 9 19l14 29c5 9 10 18 15 25 7 10 11 11 15 11l-2 23c-1 7-1 15-1 22 0 12 2 23 6 34l13 31c5 11 9 22 13 33 4 11 6 24 6 39 0 36-10 68-31 95-21 27-49 46-83 57-39 11-72 34-97 69-15 21-34 37-56 49-23 11-47 17-72 17-11 0-22-1-31-4l-28-9c-9-4-18-7-27-10-9-3-18-4-28-4-15 0-30 3-44 8-14 5-29 7-45 7-29 0-55-7-80-22-25-15-44-36-57-61-12-23-25-39-40-49-15-11-29-20-44-28-15-8-30-17-44-27-15-10-27-26-38-49-11-23-17-46-17-71 0-20 3-36 8-49 5-13 11-25 18-36l19-32c6-11 9-23 10-38l2-40 3 1c2 0 5-2 8-5 4-5 8-11 12-18 4-7 8-14 11-21l6-14 z" fill="#000000"/>
		<path d="M1632 18c59 0 108 49 108 108 0 59-49 107-107 107-60 0-109-46-109-108 0-59 49-107 108-107 z M2277 56c59 0 108 45 108 107 0 59-46 108-106 108-60 0-109-46-109-108 0-59 49-107 107-107 z M1191 18c58 0 108 47 108 107 0 57-46 108-108 108-62 0-107-50-107-108 0-59 49-107 107-107 z M546 56c62 0 107 50 107 108 0 62-50 107-108 107-62 0-107-50-107-108 0-62 50-107 108-107 z" fill="#452829"/>
		<path d="M923-290c116 0 240 88 257 212 14 107 25 201 37 308l-1 0c3 23 8 46 8 69 0 51-35 98-87 101-30 3-64 2-94 5-70 4-114 46-142 105-8 19-18 30-39 31-33 3-66 5-99 5-122 0-215-96-223-213l-4-63-4 0 2-310c0-128 123-235 246-243 48-3 97-7 143-7 z M1901-290c47 0 95 4 142 7 118 8 247 109 247 243l2 310-5 0-3 63c-8 116-102 213-224 213-33 0-66-2-98-5-21-1-32-12-40-31-14-30-32-54-55-73-46-38-113-31-181-37-48-3-86-48-86-95 0-25 4-51 7-75l-1 0c14-107 24-201 38-308 16-123 138-212 257-212 z" fill="#573739"/>
		<path d="M888-10c22 0 36 21 36 39 0 13-5 38-12 64-13 48-16 87-42 87-10 0-21-7-25-18-8-27-43-109-43-132 0-34 31-40 60-40l26 0 z M1962-10c28 0 59 8 59 41 0 18-18 67-32 103-14 33-15 46-36 46-12 0-22-9-25-21-8-29-28-108-28-131 0-18 14-38 35-38l27 0 z" fill="#3D2123"/>
		<path d="M1964-123c-44 0-71 22-101 53l-2 6c0 7 4 13 11 13 8 0 50-18 82-18 52 0 109 33 112 33 5 0 9-6 9-11 0-2-1-5-4-9-29-39-57-67-107-67 z M860-123c43 0 71 21 101 53l2 6c0 7-4 13-11 13-10 0-51-18-82-18-51 0-112 33-112 33-7 0-10-6-10-11 0-4 1-6 4-9 28-39 58-67 108-67 z" fill="#290118"/>
		<path d="M1720 113c47 0 93 5 140 8 13 1 27 9 27 24 0 38-61 68-94 68-40 0-99-34-99-76 0-15 13-24 26-24 z M2045 132c-13 0-26 9-26 24 0 42 64 76 100 76 32 0 94-31 94-67 0-15-14-24-27-25-47-3-94-8-141-8 z M1104 113c-47 0-94 5-141 8-13 1-27 10-27 25 0 37 61 67 94 67 37 0 99-33 99-76 0-15-13-24-25-24 z M778 132c13 0 26 9 26 24 0 41-57 76-99 76-31 0-94-29-94-67 0-15 14-24 27-25 47-3 93-8 140-8 z" fill="#FFFFFF"/>
		<path d="M1746 114c29 3 102 1 125 9l1 14c0 36-34 61-66 61-36 0-63-29-63-63 0-7 0-14 3-21 z M2045 132l-7 1c-1 7-2 12-2 17 0 37 30 65 64 65 16 0 31-6 45-17 17-16 20-37 20-51l-1-9c-38-3-81-6-119-6 z M1078 114c-34 3-94 1-126 9 0 42 19 75 65 75 34 0 64-28 64-65 0-7-2-12-3-19 z M778 132l7 1c3 4 3 13 3 17 0 37-30 65-64 65-32 0-66-24-66-60 0-7 1-10 2-17 39-3 79-6 118-6 z" fill="#7D4533"/>
		<path d="M1051 115c3 7 4 11 4 18 0 22-18 39-41 39-19 0-40-16-40-38 0-5 1-9 2-14l75-5 z M761 133c3 5 4 11 4 18 0 22-20 38-41 38-18 0-40-15-40-37 0-5 1-9 2-14l75-5 z M1772 115l75 5c1 2 2 5 2 10 0 22-14 42-39 42-22 0-42-15-42-40 0-5 1-10 4-17 z M2062 133l75 5c1 3 2 7 2 14 0 23-21 37-40 37-21 0-41-16-41-38 0-5 1-11 4-18 z" fill="#000000"/>
		<path d="M1035 149c9 0 15 8 15 17 0 9-8 15-17 15-7 0-15-7-15-15 0-11 6-17 17-17 z M710 168c7 0 15 7 15 15 0 11-6 17-17 17-9 0-15-8-15-17 0-9 8-15 17-15 z M1788 149c9 0 17 6 17 15 0 9-6 17-15 17-9 0-17-6-17-15 0-9 6-17 15-17 z M2114 168c11 0 17 6 17 17 0 8-8 15-15 15-11 0-18-6-18-17 0-8 9-15 16-15 z" fill="#FFFFFF"/>
		<path d="M1715 261c5 0 10 2 13 6 22 23 64 33 94 36 11 1 16 7 16 16 0 9-5 19-16 19-26 0-125-25-125-59 0-11 9-18 18-18 z M2172 288c-4 0-29 15-64 25-18 4-33 2-53 6-7 1-10 6-10 15 0 19 16 19 31 19 23 0 114-15 114-47 0-11-7-18-18-18 z M1108 261c-5 0-9 2-13 6-23 23-63 33-93 36-8 1-17 5-17 16 0 9 6 19 17 19 27 0 124-24 124-59 0-11-7-18-18-18 z M651 288c3 0 53 29 100 29 15 0 27 1 27 19 0 9-3 14-10 15-7 1-14 2-20 2-23 0-115-15-115-47 0-11 9-18 18-18 z" fill="#000000"/>
		<path d="M1407 503c39 0 76 25 113 51 240 173 551 452 551 738 0 179-126 361-326 361-121 0-235-57-314-138-7-7-15-12-27-12-11 0-20 4-28 12-81 78-189 138-313 138-191 0-322-171-322-356 0-253 249-514 478-689 59-44 130-105 188-105 z" fill="#F70A8D"/>
	</g></svg>
