<svg version="1.1" xmlns="http://www.w3.org/2000/svg" viewBox="0 0 2300 2300"><g transform="scale(1,-1) translate(-256, -1869)">
		<path d="M1491-288c9 0 18 3 25 8 81 53 158 115 234 176 298 241 662 623 662 988 0 301-202 554-535 554-176 0-287-50-404-167-5-5-9-10-9-18 0-20 138-350 138-384 0-16-5-31-16-45-45-56-76-96-116-140-25-28-64-55-64-96 0-13 3-25 9-36l185-333c6-11 9-23 9-36 0-16-5-30-14-43l-130-167c-11-12-14-30-14-44l-2-174c0-25 20-43 42-43 z M1304-287c22 0 42 18 42 41l2 221c0 77 129 145 129 219 0 12-3 24-9 35l-189 344c-6 11-9 22-9 35 0 20 7 37 20 50l123 128c9 9 18 20 26 31 18 28 39 48 39 76 0 20-99 286-106 296 0 9-6 15-9 24-11 29-32 58-64 87-110 100-243 138-372 138-316 0-527-241-527-554 0-435 522-921 880-1163 7-5 15-8 24-8 z" fill="#F92F60"/>
	</g></svg>
