<svg version="1.1" xmlns="http://www.w3.org/2000/svg"><g transform="scale(1,-1)">
		<path d="M1120 933c39 0 72 31 72 72 0 20-7 37-21 51l-443 442c-15 15-32 22-51 22-38 0-72-32-72-73 0-19 7-36 21-50l443-443c14-14 31-21 51-21 z" fill="#FF822D"/>
		<path d="M1402-292c349 214 935 714 935 1154 0 282-190 508-483 508-19 0-39-1-58-2-158-14-296-115-394-265-99 152-245 267-452 267-294 0-483-225-483-508 0-454 614-959 935-1154 z" fill="#F92F60"/>
		<path d="M2302-68c-48 0-86 31-102 72l-368 360 227 1c41 0 81-16 109-44l209-204c21-21 32-47 32-77 0-58-47-108-107-108 z M2085-283c-29 0-57 11-77 32l-204 209c-27 27-44 69-44 110l1 226 360-368c44-15 71-57 71-101 0-60-49-108-107-108 z M545 1298c11 0 21 4 29 12l242 241c7 7 11 17 11 28 0 17-10 33-28 38-39 12-342 108-358 108-22 0-41-18-41-41 0-16 94-317 108-359 6-16 22-27 37-27 z" fill="#635994"/>
		<path d="M2126-73c41 0 72 33 72 71 0 20-7 37-21 51l-579 580c-14 14-31 21-51 21-39 0-72-31-72-72 0-20 7-37 21-51l579-579c13-13 32-21 51-21 z" fill="#FF822D"/>
	</g></svg>
