<svg version="1.1" xmlns="http://www.w3.org/2000/svg"><g transform="scale(1,-1)">
		<path d="M2048-284c19 0 36 8 48 20l296 296c13 13 20 29 20 47 0 24-15 44-39 49l-303 59c-6 1-9 4-10 10l-192 915c123 0 244 89 244 224 0 7-4 12-11 12l-134 0c-19 0-38-3-56-9 42 44 63 103 63 161 0 54-21 119-60 158-3 3-6 4-9 4-3 0-6-1-8-3-72-72-151-128-151-234 0-61 24-109 68-153-5-7-10-13-14-20-20 12-42 18-66 18-46 0-87-21-118-53l-724-740c-31-31-49-71-49-115 0-21 4-41 13-58l-18-13c-43 43-91 68-152 68-109 0-161-79-235-151-2-2-3-5-3-8 0-3 1-6 4-9 42-42 108-60 158-60 58 0 117 21 161 63-8-27-11-60-11-95 0-36 2-69 2-95 0-7 4-11 12-11 124 0 223 113 223 238l934-169c5-1 9-5 10-10l58-297c5-24 25-39 49-39 z" fill="#44911B"/>
		<path d="M1955-20l193 192-82 16-127-131 16-77 z" fill="#00A6ED"/>
		<path d="M982 315l139 333-201 84c-62 25-126 38-192 38-74 0-221-19-221-80 0-7 1-10 4-17 88-224 260-271 471-358 z M1494 1004l334 139c-86 204-141 387-359 471-5 2-11 3-17 3-18 0-32-9-41-27-26-49-38-137-38-193 0-67 13-131 38-193l83-200 z" fill="#F70A8D"/>
		<path d="M850 260c-134 0-311 88-424 137-13 5-26 19-26 34l2 9c43 105 211 121 302 121 43 0 83-9 120-9 13 0 25 7 25 22 0 5-1 10-4 13-10 12-24 23-37 33-76 60-196 190-196 300 0 27 6 68 40 68 22 0 193-77 225-90l0 1c138-65 278-148 278-325 0-173-127-314-305-314 z M1568 970c173 0 314 127 314 305 0 134-88 311-137 424-5 13-18 26-33 26-3 0-6-1-10-2-103-43-120-207-120-300 0-39 4-77 8-116 0-16-4-31-22-31-5 0-10 1-13 4-12 10-23 24-33 37-60 76-190 196-300 196-27 0-68-6-68-40 0-22 77-193 90-225l-1 0c64-141 153-278 325-278 z" fill="#FF6DC6"/>
		<path d="M1271 513c80 0 144 64 144 143 0 33-13 65-24 96 32-7 63-17 94-17 81 0 145 67 145 144 0 74-57 138-132 143l-83 7c29 42 61 80 61 135 0 80-63 144-142 144-101 0-129-74-163-152-47 55-79 103-155 103-80 0-143-64-143-145 0-80 52-113 107-157-75-38-147-65-147-161 0-80 63-145 143-145 59 0 97 38 142 70l11-82c11-72 69-126 142-126 z" fill="#FFF478"/>
		<path d="M1196 804c74 0 136 59 136 136 0 74-59 136-136 136-74 0-136-59-136-136 0-74 59-136 136-136 z" fill="#FFB02E"/>
	</g></svg>
