<svg version="1.1" xmlns="http://www.w3.org/2000/svg" viewBox="0 0 2300 2300"><g transform="scale(1,-1) translate(-256, -1869)">
		<path d="M1406-249c39 0 64 11 94 32 68 46 133 106 193 158 310 269 719 709 719 1092 0 294-194 549-520 549-41 0-85-4-126-12-148-30-285-160-360-277-19 30-42 60-69 90-113 127-240 199-417 199-313 0-520-241-520-549 0-50 6-99 18-147 95-367 447-725 701-945 60-52 125-112 193-158 30-21 55-32 94-32 z" fill="#FFB2FF"/>
		<path d="M1406-36c19 0 35 3 48 9 61 26 128 92 196 151 224 197 546 532 546 825 0 236-165 417-408 417-34 0-67-3-99-9-112-21-222-118-283-210-15 23-33 46-54 69-90 96-188 150-328 150-239 0-409-175-409-416 0-39 5-76 15-113 71-274 341-546 532-714 48-42 99-89 154-127 32-21 54-32 90-32 z" fill="#FF6DC6"/>
		<path d="M1406 176c35 0 61 11 88 30 174 124 415 373 415 586 0 152-98 286-260 286-110 0-188-59-243-150-55 88-133 150-244 150-168 0-259-137-259-285 0-26 3-51 9-76 49-196 251-400 407-511 27-19 54-30 87-30 z" fill="#F92F60"/>
	</g></svg>
