<svg version="1.1" xmlns="http://www.w3.org/2000/svg" viewBox="0 0 2300 2300"><g transform="scale(1,-1) translate(-256, -1869)">
		<path d="M939 1201c10 0 19 3 26 10 7 7 10 15 10 25l0 274 30 0c6 0 12 1 17 2 7 2 13 6 18 11 5 5 7 12 7 23 0 10-2 18-7 23-5 5-12 8-19 10-7 2-15 3-23 3-9-1-16-1-23-1 0 7 0 14 1 23 0 9-1 17-3 24-2 7-5 13-10 18-5 5-13 7-24 7-11 0-18-2-23-7-5-5-9-11-11-18-1-5-2-11-2-17l0-30c-7 0-14 0-22 1-9 0-17-1-24-3-7-2-13-5-18-10-5-5-8-13-8-23 0-11 3-18 8-23 5-5 11-9 18-11 5-1 10-2 16-2l30 0 0-274c0-10 4-18 11-25 7-7 15-10 25-10 z" fill="#8C5543"/>
		<path d="M2340-287l0 936c0 38-29 70-69 70l-937 0 0-1006 1006 0 z" fill="#E39D89"/>
		<path d="M2362 503c26 0 51 21 51 50 0 24-32 89-43 113-13 32-46 53-80 53l-976-1c-34 0-67-20-81-53l-39-96c-3-7-4-11-4-18 0-29 24-48 50-48l1122 0 z" fill="#F8312F"/>
		<path d="M1334-287l0 1329-395 252-396-252 0-1329 791 0 z" fill="#FBB8AB"/>
		<path d="M1190-215l0 251c0 140-115 252-251 252-139 0-252-113-252-252l0-251 503 0 z" fill="#321B41"/>
		<path d="M2125-72l0 324c0 58-47 108-107 108-58 0-108-49-108-108l0-324 215 0 z M1766-72l0 324c0 58-49 108-108 108-58 0-108-49-108-108l0-324 216 0 z M939 575c98 0 179 79 179 180 0 98-79 180-179 180-98 0-180-78-180-180 0-98 78-180 180-180 z" fill="#50E2FF"/>
		<path d="M1262-287c0 39-31 72-72 72l-503 0c-38 0-72-33-72-72l647 0 z" fill="#9B9B9B"/>
		<path d="M1874 863c-54 0-185 141-219 190-21 30-33 72-33 109 0 72 57 132 130 132 81 0 111-70 122-70 5 0 46 70 122 70 71 0 129-56 129-129 0-40-10-79-33-112-32-45-162-190-218-190 z M1415 913c34 0 63 27 63 63 0 20-11 39-27 51l-444 317c-21 15-43 22-68 22-25 0-47-7-68-22l-445-317c-16-10-26-30-26-51 0-36 29-63 63-63 13 0 25 4 36 12l397 283c13 9 28 14 43 14 16 0 31-5 44-14l396-283c11-8 23-12 36-12 z" fill="#F8312F"/>
	</g></svg>
