<svg version="1.1" xmlns="http://www.w3.org/2000/svg"><g transform="scale(1,-1)">
		<path d="M1406-209c47 29 98 63 153 101 381 267 853 735 853 1144 0 295-196 545-519 545-43 0-85-3-126-11-148-30-285-160-361-276-60 93-152 183-255 238-77 40-149 49-232 49-314 0-519-241-519-546 0-465 605-999 1006-1244 z" fill="#F92F60"/>
		<path d="M867-101c19 0 40 12 46 29l101 238c7 18 18 33 32 45 73 60 193 64 193 128 0 79-182 69-225 173l-101 238c-7 17-27 28-46 28-18 0-37-9-45-28l-102-238c-48-107-225-97-225-173 0-79 177-65 225-173l102-238c8-19 27-29 45-29 z M1945 894c11 0 21 6 25 15l55 128c27 62 122 51 122 93 0 43-94 31-121 93l-55 128c-4 11-12 16-25 16-11 0-21-5-25-16l-55-127c-27-61-122-51-122-94 0-43 95-31 122-93l55-128c4-9 15-15 24-15 z" fill="#FCD53F"/>
	</g></svg>
