<svg version="1.1" xmlns="http://www.w3.org/2000/svg"><g transform="scale(1,-1)">
		<path d="M2232 1294c19 0 36 15 36 36 0 7-2 14-6 20-69 112-185 167-306 167l-32 0c-39-1-87-9-87-43 0-20 16-36 37-36 28 0 54 7 83 7 105 0 179-43 246-135 7-11 17-16 29-16 z M2412 1364c-13 0-23 6-31 17-117 159-258 226-444 226-68 0-131-11-198-26l-10-1c-21 0-37 16-37 37 0 19 9 32 28 37 67 22 148 28 217 28 193 0 394-80 507-259 4-6 6-13 6-21 0-22-17-38-38-38 z M580 1294c-21 0-37 18-37 36 0 7 2 14 6 20 70 111 185 167 307 167l33 0c38-1 86-9 86-43 0-19-16-36-37-36-28 0-54 7-83 7-105 0-179-43-246-135-7-11-17-16-29-16 z M1406-218c-18 0-34 3-47 8-65 26-140 95-210 151-247 204-606 565-606 892 0 249 168 461 445 461 37 0 73-3 109-10 122-24 237-124 309-232 91 138 231 242 418 242 271 0 445-205 445-461 0-43-5-84-16-124-80-305-379-594-590-768-55-44-108-92-167-129-32-19-56-30-90-30 z M400 1364c13 0 23 6 31 17 117 159 258 226 444 226 68 0 131-11 198-26l10-1c21 0 37 16 37 37 0 19-9 32-28 37-67 22-148 28-217 28-193 0-394-80-507-259-4-6-6-13-6-21 0-21 16-38 38-38 z" fill="#F92F60"/>
	</g></svg>
