<svg version="1.1" xmlns="http://www.w3.org/2000/svg" viewBox="0 0 2300 2300"><g transform="scale(1,-1) translate(-256, -1869)">
		<path d="M2090-287c178 0 322 145 322 326 0 231-143 438-366 511 4 15 7 31 7 47 0 178-117 334-288 388l0 76c0 81-67 144-144 144-23 0-44-5-64-15l-367-184c-224 0-431-161-431-409 0-16 3-32 7-47-222-72-366-282-366-511 0-180 142-326 321-326l1369 0 z" fill="#9D5044"/>
		<path d="M1728 284c139 0 253 113 253 252 0 138-111 253-253 253-139 0-252-114-252-253 0-139 113-252 252-252 z M1086 284c139 0 252 113 252 252 0 139-113 253-252 253-141 0-253-114-253-253 0-139 114-252 253-252 z" fill="#FFFFFF"/>
		<path d="M1695 357c80 0 143 65 143 144 0 80-64 144-143 144-81 0-144-67-144-144 0-81 67-144 144-144 z M1122 357c81 0 144 67 144 144 0 81-67 144-144 144-81 0-144-67-144-144 0-81 67-144 144-144 z" fill="#533566"/>
		<path d="M1406-144c160 0 271 137 287 287l-1 1-572 0-1-1c16-153 130-287 287-287 z" fill="#402A32"/>
	</g></svg>
