<svg version="1.1" xmlns="http://www.w3.org/2000/svg"><g transform="scale(1,-1)">
		<path d="M1972-307c263 0 443 183 443 449 0 124-37 254-91 371-150 325-417 623-667 822-227 182-571 390-879 390-221 0-378-125-378-356 0-100 39-250 88-339 3-6 8-9 14-9 7 0 14 6 14 14l-1 5c-29 91-52 183-52 279 0 176 86 294 270 294 82 0 175-25 257-59 216-92 390-219 544-363 245-229 582-653 582-1018 0-141-60-194-201-194-101 0-226 32-328 72-237 90-432 216-612 327-3 2-6 3-9 3-7 0-14-8-14-16 0-2 1-4 2-7 197-308 621-665 1018-665 z" fill="#F9C23C"/>
		<path d="M1181-169c25 0 44 5 57 15 55 41 50 137 93 195 48 63 219 29 219 158 0 116-172 112-172 228l1 106c0 54-42 103-102 103-83 0-123-104-206-104-57 0-110 45-165 45-57 0-101-48-101-101 0-56 44-111 44-166 0-83-103-124-103-206 0-60 46-102 102-102l106 1c116 0 113-172 227-172 z" fill="#FFB02E"/>
	</g></svg>
