<svg version="1.1" xmlns="http://www.w3.org/2000/svg" viewBox="0 0 2300 2300"><g transform="scale(1,-1) translate(-256, -1869)">
		<path d="M1225 288c-192 0-287 133-287 317 0 30 2 60 7 89 14 99 13 101 24 201 26 230 135 471 400 471 188 0 288-131 288-311 0-23-1-45-4-68l-28-228c-23-224-133-471-400-471 z M1979 432c271 0 378 250 401 471 10 104 32 208 32 296 0 179-101 310-288 310-113 0-220-48-291-148-91-129-104-281-123-435-7-60-17-117-17-177 0-181 94-317 286-317 z M904-288l15 2 1114 252c33 7 56 37 56 70 0 38-31 72-72 72l-16-2-1114-251c-33-7-56-37-56-70 0-39 30-73 73-73 z M1046 0l16 2 1150 251c34 7 57 38 57 71 0 42-36 72-73 72l-15-2-1150-252c-33-7-57-34-57-70 0-38 33-72 72-72 z M615 0c-51 0-93 28-114 76-9 19-10 40-10 57l88 622c-26-27-52-43-90-43-61 0-111 50-111 110 0 24 7 46 22 66 56 76 260 334 359 334 84 0 112-62 112-133 0-16-1-31-4-47l-129-935c-8-61-61-107-123-107 z M1258 558c62 0 83 52 88 105l20 173c7 63 21 131 21 194 0 34-10 66-50 66-62 0-83-52-88-104-7-66-15-122-22-188-7-59-19-120-19-179 0-34 9-67 50-67 z M2013 702c-40 0-50 30-50 64 0 30 2 60 7 91 9 61 16 126 24 185 9 82 7 198 97 198 40 0 50-30 50-64 0-32-2-65-7-98-11-67-17-122-23-185-9-80-9-191-98-191 z" fill="#F8312F"/>
	</g></svg>
