<svg version="1.1" xmlns="http://www.w3.org/2000/svg"><g transform="scale(1,-1)">
		<path d="M543 0c41 0 76 17 105 46 165 165 255 428 255 673 0 237-85 500-255 673-29 29-64 46-105 46-80 0-143-65-143-144 0-39 14-69 39-98 121-139 176-297 176-477 0-180-55-338-176-477-25-29-39-60-39-99 0-80 62-143 143-143 z M2269 0c80 0 143 62 143 143 0 39-14 70-39 99-121 139-176 297-176 477 0 180 55 338 176 477 25 29 39 59 39 98 0 80-64 144-143 144-41 0-76-17-105-46-170-173-255-436-255-673 0-231 83-501 255-673 29-29 64-46 105-46 z M1981-287c80 0 144 64 144 143 0 41-17 76-46 105-173 170-436 255-673 255-231 0-501-83-673-255-29-29-46-64-46-105 0-80 62-143 143-143 39 0 70 14 99 39 139 121 297 176 477 176 180 0 338-55 477-176 29-25 59-39 98-39 z M1406 1222c238 0 495 88 670 252 31 29 49 65 49 108 0 80-65 143-144 143-37 0-66-13-96-36-146-117-289-179-480-179-179 0-330 57-479 179-30 23-58 36-95 36-81 0-144-67-144-144 0-43 17-78 48-107 175-167 439-252 671-252 z" fill="#F8312F"/>
	</g></svg>
