<svg version="1.1" xmlns="http://www.w3.org/2000/svg" viewBox="0 0 2300 2300"><g transform="scale(1,-1) translate(-256, -1869)">
		<path d="M1232-288c7 0 13 4 16 11l257 626c3 7 9 11 16 11 31 0 268-216 299-216 9 0 18 8 18 17 0 44-103 281-103 326 0 9 7 18 16 19l615 64c11 1 16 7 16 18 0 7-3 12-8 15l-528 320c-6 3-9 8-9 15 0 5 2 10 5 13l354 386c3 3 5 7 5 12 0 9-7 18-18 18-17 0-536-132-582-141-9 0-16 8-17 17l-30 323c-1 11-7 16-18 16-6 0-11-2-14-7l-213-268c-3-5-8-7-14-7-8 0-17 8-49 33-134 97-524 392-540 392-9 0-18-7-18-18l1-6 16-41c55-148 228-595 228-605 0-9-5-15-14-17l-361-90c-9-2-13-8-13-17 0-8 4-14 11-17l285-113c8-3 12-9 12-17 0-5-2-9-6-13l-369-366c-3-3-5-8-5-13 0-9 7-18 16-18 16 0 492 117 540 129 11 0 18-2 21-14l164-763c3-8 10-14 18-14 z" fill="#F8312F"/>
		<path d="M1305 359c8 0 14 4 17 13l93 263c3 8 9 12 17 12 29 0 70-72 100-72 16 0 20 16 20 37 0 22-4 46-4 68 0 21 4 37 20 37 108 0 221-26 327-26 9 0 14 5 14 14 0 6-3 10-9 13l-339 136c-7 3-11 9-11 18 0 29 70 82 70 115 0 11-7 18-18 18-35 0-71-2-107-3-11 0-17 6-18 17l-13 192c-1 9-7 17-18 17-7 0-13-3-16-10l-86-157c-3-6-9-9-16-9-32 0-160 139-190 139-11 0-19-7-19-18 0-43 66-181 66-225 0-8-7-16-15-17l-147-24c-10-1-15-7-15-18 0-35 135-66 135-101 0-32-96-83-96-113 0-11 7-18 18-18 51 0 104 26 155 26 9 0 15-5 16-14l50-294c3-11 9-16 19-16 z" fill="#FCD53F"/>
	</g></svg>
