<svg version="1.1" xmlns="http://www.w3.org/2000/svg"><g transform="scale(1,-1)">
		<path d="M1384-288c51 0 97 29 122 71 67 0 121 31 121 103l0 280c0 56-45 102-102 102l-280 0c-56 0-103-45-103-102l0-280c0-72 58-103 121-103 25-41 69-71 121-71 z" fill="#9B9B9B"/>
		<path d="M1561 206c44 0 41 88 49 118 30 118 110 246 202 323 125 105 197 295 197 453 0 343-278 625-625 625-334 0-625-265-625-626 0-166 82-360 206-459 88-71 169-210 196-315 8-28 6-119 48-119l352 0 z" fill="#FCD53F"/>
		<path d="M1480 206c0 114 5 395 98 472 58 48 92 134 92 211 0 154-129 283-286 283-153 0-284-124-284-282 0-71 24-142 76-196l32-30c72-72 82-358 82-458l190 0 z M1408 279l-47 0c-4 113-19 349-99 433l-10 8c-51 45-81 100-81 169 0 111 93 211 213 211 118 0 213-95 213-216 0-69-32-122-81-164l-9-8c-82-95-96-318-99-433 z" fill="#FFB02E"/>
		<path d="M1145-171c1 0 3 0 4 1l3 0 478 84c8 1 15 5 21 12 6 6 9 13 9 22 0 11-4 20-12 28-7 6-15 10-24 10l-484-86c-9-1-16-5-21-12-6-7-9-15-9-24 0-9 4-17 11-24 7-7 15-11 24-11 z M1143-18l491 86c9 1 16 6 21 13 5 7 8 14 8 23 0 9-3 18-10 25-7 7-16 11-25 11l-7-1-484-85c-8-1-15-5-21-11-6-7-9-14-9-23 0-11 4-20 13-28 6-6 14-10 23-10 z" fill="#D3D3D3"/>
		<path d="M1465 1059c160 0 291 141 291 300 0 147-111 268-259 268-160 0-291-140-291-300 0-146 108-268 259-268 z" fill="#FFF478"/>
	</g></svg>
