<svg version="1.1" xmlns="http://www.w3.org/2000/svg"><g transform="scale(1,-1)">
		<path d="M1812 372c39 0 76 16 102 42l229 229c20 20 31 48 31 76 0 28-11 56-31 76l-229 229c-26 26-63 42-102 42-37 0-74-15-101-42l-229-229c-20-20-32-48-32-76 0-28 12-56 32-76l229-229c27-27 64-42 101-42 z M1406-50c28 0 56 12 76 32l229 229c27 27 42 64 42 101 0 39-16 76-42 102l-229 229c-20 20-48 31-76 31-28 0-56-11-76-31l-229-229c-26-26-42-63-42-102 0-37 15-74 42-101l229-229c21-21 47-32 76-32 z M999 372c39 0 76 16 102 42l229 229c20 20 31 48 31 76 0 28-11 56-31 76l-229 229c-26 26-63 42-102 42-37 0-74-15-101-42l-229-229c-20-20-32-48-32-76 0-29 11-55 32-76l229-229c27-27 64-42 101-42 z M1406 763c28 0 56 12 76 32l229 229c27 27 42 64 42 101 0 39-16 76-42 102l-229 229c-20 20-48 31-76 31-28 0-56-11-76-31l-229-229c-26-26-42-63-42-102 0-37 15-74 42-101l229-229c21-21 47-32 76-32 z" fill="#00A6ED"/>
		<path d="M1406 575c81 0 144 67 144 144 0 81-67 144-144 144-81 0-144-67-144-144 0-81 67-144 144-144 z" fill="#26C9FC"/>
	</g></svg>
