<svg version="1.1" xmlns="http://www.w3.org/2000/svg"><g transform="scale(1,-1)">
		<path d="M1657 144c8 0 16 1 24 3l647 143c50 11 85 55 85 106 0 58-48 108-109 108-7 0-15-1-23-3l-417-93 392 727c8 15 12 32 12 51 0 58-47 108-107 108-9 0-20-2-31-5l-719-215c-44-14-77-55-77-103 0-58 49-108 108-108 12 0 22 1 31 4l469 141-379-705c-9-17-13-35-13-52 0-59 49-107 107-107 z" fill="#00A6ED"/>
		<path d="M1478-144c38 0 72 33 72 72 0 39-31 72-72 72l-345 0 399 456c12 14 18 30 18 47 0 39-31 72-72 72l-503 0c-39 0-72-31-72-72 0-39 34-72 72-72l344 0-398-455c-12-13-18-29-18-48 0-41 34-72 72-72l503 0 z" fill="#83CBFF"/>
		<path d="M831-287c41 0 71 33 71 72 0 33-23 63-57 70l-202 40 303 227c19 15 29 35 29 59 0 30-21 58-52 68l-359 108c-6 2-13 3-20 3-41 0-72-34-72-73 0-32 21-59 51-68l223-67-318-238c-18-13-29-35-29-58 0-34 27-63 58-70l360-72 14-1 z" fill="#AEDDFF"/>
	</g></svg>
