<svg version="1.1" xmlns="http://www.w3.org/2000/svg" viewBox="0 0 2300 2300"><g transform="scale(1,-1) translate(-256, -1869)">
		<path d="M1730-285c382 0 682 244 682 661 0 299-328 559-617 559-101 0-198-34-282-84-136-81-215-178-278-331-3-6-12-16-20-16-9 0-14 9-18 16-32 55-58 114-86 171l-159 318 269 0c66 0 118 72 118 136 55 21 82 93 82 151 0 200-228 324-392 324-127 0-192-70-234-164-111-244-391-1022-391-1246 0-284 224-495 506-495l820 0 z" fill="#573739"/>
		<path d="M948 133c13 0 23 6 30 17l208 338c5 9 14 15 27 17-13 3-35 48-40 62-21-9-37-23-48-42l-208-338c-3-5-5-11-5-18 0-19 15-36 36-36 z M1492 119c21 0 35 18 35 36 0 6-2 12-5 19l-213 351c-13 21-31 36-54 45-8-16-20-62-36-65 13-1 22-7 29-18l213-350c7-12 18-18 31-18 z M1030 853l-67 156 258 0c66 0 118 72 118 136l1 0c-8 29-43 77-77 77 12-21 21-45 21-69 0-47-40-75-82-75l-382 0-2 1-59 0c37-116 143-215 271-226 z M1236 1288c-42 58-146 120-220 120-8 0-15-1-23-2l93-118 150 0 z" fill="#3D2123"/>
	</g></svg>
