<svg version="1.1" xmlns="http://www.w3.org/2000/svg"><g transform="scale(1,-1)">
		<path d="M2078 1006c7 0 12 1 19 4 32 13 75 21 75 66 0 19-13 32-13 51 0 28 25 53 53 53 21 0 33-15 54-15 21 0 39 12 48 31 9 19 23 40 23 62 0 65-77 41-77 102 0 65 80 38 80 103 0 6-1 12-3 18-13 34-22 76-66 76-19 0-33-13-52-13-29 0-52 25-52 53 0 21 15 32 15 54 0 32-23 47-48 56-17 7-34 15-47 15-65 0-40-77-101-77-65 0-37 80-102 80-21 0-42-12-61-20-19-8-33-27-33-49 0-19 13-33 13-52 0-29-25-52-53-52-21 0-33 15-54 15-33 0-47-23-56-48-6-16-15-27-15-46 0-16 4-27 12-33 25-21 64-26 64-69 0-68-79-38-79-102 0-7 1-13 3-19 13-34 21-76 66-76 19 0 33 14 52 14 29 0 52-25 52-53 0-21-15-33-15-54 0-21 12-39 31-48 19-9 40-23 62-23 64 0 42 76 102 76 65 0 38-80 103-80 z" fill="#FF822D"/>
		<path d="M1801 1114c20 0 37 7 51 21l216 216c14 14 21 31 21 51 0 39-31 72-72 72-20 0-37-7-51-21l-216-216c-14-14-21-31-21-51 0-41 34-72 72-72 z" fill="#F4F4F4"/>
		<path d="M1262-287c476 0 863 387 863 862 0 475-384 863-863 863-477 0-862-389-862-863 0-476 388-862 862-862 z" fill="#533566"/>
		<path d="M1262-144c395 0 719 319 719 719 0 135-37 266-107 378 23-77 35-155 35-234 0-436-351-791-791-791-78 0-156 12-233 35 115-70 246-107 377-107 z" fill="#6B438B"/>
	</g></svg>
