<svg version="1.1" xmlns="http://www.w3.org/2000/svg" viewBox="0 0 2300 2300"><g transform="scale(1,-1) translate(-256, -1869)">
		<path d="M579-287c138 0 252 110 252 251 0 56-19 111-55 157 57-29 119-43 183-43 67 0 129 15 187 46 66-81 161-124 259-124 98 0 193 43 259 124 58-31 120-46 186-46 231 0 408 183 408 420 138 69 226 209 226 364 0 154-84 294-224 364 0 224-165 421-408 421-66 0-128-15-186-46-62 77-156 124-260 124-99 0-194-42-260-124-57 31-121 47-186 47-227 0-408-185-408-410l1-11c-138-71-225-208-225-365 0-154 84-294 224-364 0-115 36-216 117-299-30 11-60 17-90 17-138 0-251-111-251-252 0-138 108-251 251-251 z" fill="#9B9B9B"/>
		<path d="M579-215c98 0 180 79 180 179 0 98-78 180-180 180-98 0-179-79-179-180 0-97 79-179 179-179 z M1405 72c101 0 194 57 237 152 62-48 134-75 208-75 187 0 336 155 336 338 0 19-2 37-5 56 135 45 231 173 231 319 0 143-92 273-229 319 0 20 5 37 5 57 0 187-151 337-336 337-74 0-146-26-208-74-44 93-138 152-238 152-102 0-199-60-238-152-61 48-129 75-208 75-181 0-336-145-336-338 0-19 3-37 6-56-134-47-230-169-230-320 0-143 92-273 229-319 0-19-6-37-6-56 0-179 144-338 336-338 74 0 148 26 208 75 45-91 129-152 238-152 z" fill="#FFFFFF"/>
	</g></svg>
