<svg version="1.1" xmlns="http://www.w3.org/2000/svg" viewBox="0 0 2300 2300"><g transform="scale(1,-1) translate(-256, -1869)">
		<path d="M759-72c197 0 360 161 360 359 0 60-17 119-46 171l-250 439c-13 23-38 37-64 37-28 0-52-15-65-37l-246-432c-31-55-48-115-48-178 0-196 157-359 359-359 z M1869-288c211 0 399 167 399 397 0 179-115 337-287 385l-542 150c-7 2-15 3-23 3-44 0-82-35-82-82 0-9 1-16 3-23l148-534c48-176 200-296 384-296 z M1925 791c252 0 487 192 487 468 0 264-228 467-487 467-81 0-160-21-232-60l-596-324c-30-17-50-48-50-84 0-36 20-67 50-84l588-320c75-40 156-63 240-63 z" fill="#00A6ED"/>
	</g></svg>
