<svg version="1.1" xmlns="http://www.w3.org/2000/svg" viewBox="0 0 2300 2300"><g transform="scale(1,-1) translate(-256, -1869)">
		<path d="M1398-295c18 0 35 3 51 10 16 7 30 16 42 28 11 12 21 26 28 42 7 15 10 32 10 50l0 149c51 11 97 28 139 51 41 23 78 52 109 86 31 34 56 73 76 116 19 43 33 90 40 141 1 2 1 4 1 7l0 6c0 30-3 60-10 91-7 30-17 59-28 86-20 48-45 90-76 126-31 36-67 66-106 90-39 24-82 42-129 54-47 12-95 18-146 18-21 0-43 2-65 5-23 3-44 9-64 18-20 9-38 20-54 35-16 14-29 32-38 53-4 9-7 19-10 30-3 11-4 21-4 30 0 34 6 63 19 88 13 24 30 44 51 60 21 15 46 27 74 35 28 7 57 11 88 11 69 0 123-15 163-45 40-31 65-81 75-150 3-17 7-33 13-48 6-15 14-29 24-40 10-11 22-20 37-27 14-7 30-11 49-11 19 0 37 3 54 10 17 7 31 16 43 28 12 11 22 25 29 42 7 16 10 34 10 53 0 23-2 45-7 68-5 23-11 45-18 66-13 39-31 75-53 108-23 33-48 62-77 87-29 25-62 47-97 65-36 17-74 30-114 39l2 64 0 64c0 18-3 35-10 51-7 16-16 30-28 42-12 11-26 21-41 28-16 7-33 10-51 10-19 0-36-3-51-10-16-7-30-16-41-27-11-11-20-25-27-40-7-16-11-33-12-51l-1-46 0-84c-52-11-100-30-144-57-45-27-83-59-116-98-33-39-58-82-76-130-19-49-28-100-28-154 0-28 4-56 11-84 7-29 16-56 27-81 21-46 47-86 79-119 32-34 68-62 108-84 39-22 82-38 128-49 46-11 94-16 143-16 25 0 48-2 71-7 23-5 44-13 63-24 19-11 36-24 51-41 15-17 27-38 36-63 3-9 7-20 10-33 3-13 4-24 4-33 0-4-2-11-5-22-3-11-6-18-8-22-10-23-23-42-38-57-16-15-34-28-53-37-19-9-40-16-63-20-23-4-45-6-68-6-63 0-114 13-155 39-41 26-68 71-81 134-7 35-21 63-42 85-21 22-50 33-88 33-21 0-39-4-55-11-17-7-30-17-41-30-11-13-20-28-25-45-6-17-9-36-9-55 0-15 2-30 7-47 4-17 8-32 13-46 13-39 30-75 53-108 23-33 49-63 79-89 30-26 63-48 99-66 36-18 74-31 114-40l0-149c0-18 3-35 10-50 7-16 16-30 28-42 12-12 26-21 42-28 15-7 32-10 50-10 z" fill="#00D26A"/>
	</g></svg>
