<svg version="1.1" xmlns="http://www.w3.org/2000/svg"><g transform="scale(1,-1)">
		<path d="M2268 0c81 0 144 67 144 144l0 1006c0 81-67 144-144 144l-646 0-144-72-144 72-791 0c-80 0-143-65-143-144l0-1006c0-80 64-144 143-144l1725 0 z" fill="#00F397"/>
		<path d="M2197 72c80 0 143 65 143 144l0 862c0 80-64 144-143 144l-1582 0c-80 0-143-65-143-144l0-862c0-80 64-144 143-144l1582 0 z M2197 144l-1582 0c-38 0-72 33-72 72l0 862c0 38 33 72 72 72l1582 0c40 0 71-34 71-72l0-862c0-38-31-72-71-72 z M1801 324c179 0 324 144 324 323 0 177-143 324-324 324-178 0-323-145-323-324 0-179 147-323 323-323 z M2268-287l-646 0-144 72-144-72-791 0c-80 0-143 62-143 143l0 288c0-80 64-144 143-144l1725 0c81 0 144 67 144 144l0-288c0-80-65-143-144-143 z" fill="#008463"/>
		<path d="M1622-72l0 1366-288 0 0-1366 288 0 z" fill="#FFF478"/>
		<path d="M1622-287l0 287-288 0 0-287 288 0 z" fill="#F3AD61"/>
		<path d="M939 288c11 0 19 3 24 8 5 5 8 12 10 19 2 7 3 15 3 24-1 9-1 17-1 24 19 3 38 10 55 19 17 9 33 21 46 35 13 13 23 29 31 47 7 17 11 36 11 57 0 24-5 46-15 66-10 20-23 37-40 52-17 14-36 25-57 33-22 7-44 11-67 11-13 0-25 2-38 6-13 4-25 10-35 18-11 8-19 18-25 29-7 11-10 23-10 37 0 14 3 27 10 38 6 11 14 20 25 28 10 8 22 14 35 18 13 4 25 6 38 6 22 0 40-4 53-11 13-8 23-16 32-25l23-25c7-7 16-11 27-11 9 0 17 3 24 8 7 5 10 13 10 22 0 5-1 9-2 12-11 27-29 48-53 65-24 17-50 28-78 33 0 7 0 15 1 24 0 9-1 17-3 24-2 7-5 14-10 19-5 5-13 8-24 8-11 0-18-3-23-8-5-5-9-12-11-19-1-5-2-11-2-17l0-31c-19-3-38-10-55-19-17-9-33-21-46-34-13-14-24-30-31-47-8-18-12-37-12-58 0-24 5-46 16-66 10-20 23-37 40-51 17-14 36-25 58-33 21-8 43-12 66-12 13 0 26-2 39-6 13-4 24-10 35-18 10-8 18-17 25-28 6-11 9-24 9-38 0-14-3-26-10-37-7-11-15-21-25-29-11-8-22-14-35-18-13-4-25-6-38-6-23 0-40 4-53 11-13 7-23 16-32 25-9 9-16 17-23 25-7 7-16 11-27 11-8 0-16-2-23-7-8-5-12-13-12-22 0-4 1-8 3-12 11-27 29-48 53-65 24-17 50-29 78-34l0-31c0-6 1-12 2-17 2-7 6-14 11-19 5-5 12-8 23-8 z" fill="#FFFFFF"/>
	</g></svg>
