<svg version="1.1" xmlns="http://www.w3.org/2000/svg" viewBox="0 0 2300 2300"><g transform="scale(1,-1) translate(-256, -1869)">
		<path d="M2268 0c81 0 144 67 144 144l0 1006c0 81-67 144-144 144l-1725 0c-80 0-143-65-143-144l0-1006c0-80 64-144 143-144l1725 0 z" fill="#BCA4EB"/>
		<path d="M2197 72c80 0 143 65 143 144l0 862c0 80-64 144-143 144l-1582 0c-80 0-143-65-143-144l0-862c0-80 64-144 143-144l1582 0 z M2197 144l-1582 0c-38 0-72 33-72 72l0 862c0 38 33 72 72 72l1582 0c40 0 71-34 71-72l0-862c0-38-31-72-71-72 z M1801 324c179 0 324 144 324 323 0 177-143 324-324 324-178 0-323-145-323-324 0-179 147-323 323-323 z M2268-287l-1725 0c-80 0-143 62-143 143l0 288c0-80 64-144 143-144l1725 0c81 0 144 67 144 144l0-288c0-80-65-143-144-143 z" fill="#635994"/>
		<path d="M1622-287l0 1581-288 0 0-1581 288 0 z" fill="#FFF478"/>
		<path d="M1622-287l0 287-288 0 0-287 288 0 z" fill="#F3AD61"/>
		<path d="M1154 288c19 0 36 15 36 36 0 18-17 36-36 36l-296 0c7 12 9 28 9 43l0 172 108 0c19 0 36 15 36 36 0 19-15 36-36 36l-108 0 0 159c0 52 39 93 90 93 41 0 63-12 75-28 21-31 6-80 51-80 22 0 35 17 35 36 0 83-72 144-151 144-95 0-172-63-172-165l0-159-72 0c-19 0-36-15-36-36 0-19 15-36 36-36l72 0 0-164c0-92-108-16-108-87 0-19 15-36 36-36l431 0 z" fill="#FFFFFF"/>
	</g></svg>
