<svg version="1.1" xmlns="http://www.w3.org/2000/svg"><g transform="scale(1,-1)">
		<path d="M1616-286c346 0 629 280 629 629 0 468-381 851-851 851-468 0-851-381-851-851 0-346 280-629 629-629l444 0 z M1532 1331l174 199c4 4 6 22 6 29 0 39-34 68-69 68-32 0-50-26-81-26-77 0-91 124-168 124-80 0-89-124-169-124-32 0-52 29-84 29-37 0-70-31-70-69 0-7 3-25 7-29l176-201 278 0 z" fill="#F3C07B"/>
		<path d="M1394-44c17 0 29 5 37 15 7 9 12 21 15 35 1 10 2 21 2 32l-2 50c22 6 42 15 60 27 18 12 34 27 47 44 13 17 23 35 30 56 7 21 11 42 11 65 0 27-5 53-15 77-11 23-25 44-42 62-17 18-38 32-62 43-24 10-49 16-76 17-28 1-52 10-71 27-19 16-29 39-29 68 0 13 3 25 8 37 5 11 11 22 20 31 9 9 19 16 30 21 11 5 24 7 37 7 27 0 49-9 68-28 19-19 28-41 28-68 0-15 5-27 15-37 10-10 22-15 37-15 15 0 27 5 37 15 10 10 15 22 15 37 0 23-4 44-11 65-7 21-17 40-30 57-13 17-29 31-47 43-18 12-38 21-60 27 0 11 1 24 2 39l0 12c0 11-1 21-2 31-2 14-7 26-14 36-8 9-21 14-38 14-17 0-29-5-36-14-7-10-12-22-14-36-2-9-3-18-3-27l1-16c1-15 1-28 1-39-22-6-42-15-60-27-18-12-33-26-46-43-13-17-24-36-31-57-7-21-11-42-11-65 0-27 5-53 16-76 10-24 24-45 41-62 17-18 38-32 62-43 23-11 48-16 75-17 28-1 52-10 71-26 19-17 29-40 29-70 0-13-2-26-7-37-5-11-12-21-21-30-9-9-19-15-30-20-12-5-24-8-37-8-27 0-49 9-67 28-19 18-28 40-28 67 0 15-5 27-15 37-10 10-22 15-37 15-15 0-27-5-37-15-10-10-15-22-15-37 0-23 4-44 11-65 7-21 18-39 31-56 13-17 28-32 46-44 18-12 38-21 60-27 0-11 0-23-1-38l-1-16c0-10 1-19 3-28 2-14 7-26 14-35 7-10 19-15 36-15 z M1518 1173c43 0 80 34 80 80 0 43-38 79-80 79l-247 0c-43 0-80-37-80-79 0-43 34-80 80-80l247 0 z" fill="#8C5543"/>
	</g></svg>
