<svg version="1.1" xmlns="http://www.w3.org/2000/svg"><g transform="scale(1,-1)">
		<path d="M2410-36l2 2 0 1326-2 2-789 0-142-71-2 0-143 71-932 0-2-2 0-1326 2-2 2008 0 z" fill="#F3C07B"/>
		<path d="M2197 72c80 0 143 65 143 144l0 862c0 80-64 144-143 144l-1582 0c-80 0-143-65-143-144l0-862c0-80 64-144 143-144l1582 0 z M2197 144l-1582 0c-38 0-72 33-72 72l0 862c0 38 33 72 72 72l1582 0c40 0 71-34 71-72l0-862c0-38-31-72-71-72 z M2268-287l-646 0-144 72-144-72-791 0c-80 0-143 62-143 143l0 288c0-80 64-144 143-144l1725 0c81 0 144 67 144 144l0-288c0-80-65-143-144-143 z M1801 324c179 0 324 144 324 323 0 177-143 324-324 324-178 0-323-145-323-324 0-179 147-323 323-323 z" fill="#B97028"/>
		<path d="M1622-72l0 1366-288 0 0-1366 288 0 z" fill="#FFF478"/>
		<path d="M1622-287l0 287-288 0 0-287 288 0 z" fill="#F3AD61"/>
		<path d="M939 288c19 0 36 15 36 36l0 107 143 0c19 0 36 18 36 36 0 19-15 36-36 36l-143 0 0 72 143 0c19 0 36 15 36 36 0 19-15 36-36 36l-138 0c19 35 175 300 175 323 0 18-17 37-36 37-15 0-25-6-32-19l-148-267-149 267c-7 13-17 19-31 19-18 0-36-17-36-36 0-24 154-285 175-324l-139 0c-19 0-36-15-36-36 0-19 15-36 36-36l144 0 0-72-144 0c-19 0-36-15-36-36 0-18 17-36 36-36l144 0 0-107c0-19 15-36 36-36 z" fill="#F4F4F4"/>
	</g></svg>
