<svg version="1.1" xmlns="http://www.w3.org/2000/svg"><g transform="scale(1,-1)">
		<path d="M2197-287c120 0 215 97 215 215l0 1582c0 120-97 215-215 215l-1582 0c-120 0-215-97-215-215l0-1582c0-120 97-215 215-215l1582 0 z" fill="#433B6B"/>
		<path d="M1406-144c477 0 862 389 862 863 0 476-388 862-862 862-476 0-863-387-863-862 0-476 388-863 863-863 z M1406 503c-121 0-216 99-216 216 0 121 99 216 216 216 121 0 216-99 216-216 0-121-99-216-216-216 z" fill="#FFB02E"/>
		<path d="M1406-72c-111 0-236 26-351 80-72 34-138 74-138 137 0 27 9 51 28 71l291 318c48-44 108-67 170-67 51 0 97 14 139 43l240-359c12-18 18-38 18-59 0-38-17-66-52-85-96-53-235-79-345-79 z M1576 904l291 318c19 20 28 44 28 71 0 31-13 56-39 76-116 90-295 141-450 141-80 0-178-14-266-45-68-24-131-51-131-119 0-21 6-41 18-59l239-359c42 29 89 43 140 43 62 0 122-23 170-67 z" fill="#FCD53F"/>
		<path d="M1406 431c160 0 287 129 287 288 0 161-130 287-287 287-161 0-288-129-288-287 0-161 128-288 288-288 z M1406 503c-121 0-216 99-216 216 0 121 99 216 216 216 121 0 216-99 216-216 0-121-99-216-216-216 z" fill="#FF822D"/>
		<path d="M2412 360l0 718-575 0c-80 0-144-64-144-143l0-432c0-80 65-143 144-143l575 0 z" fill="#D3D3D3"/>
	</g></svg>
