<svg version="1.1" xmlns="http://www.w3.org/2000/svg"><g transform="scale(1,-1)">
		<path d="M1378-296c32 0 62 3 89 8 27 5 54 13 79 23 25 10 49 22 73 37 24 14 49 30 74 48 5 3 9 5 13 5 9 0 18-6 28-17 10-11 20-24 31-37 11-13 22-26 33-37 11-11 21-17 31-17 9 0 16 3 22 8 6 5 9 12 10 21l29 367c0 8-3 15-8 21-7 7-14 10-23 10l-366-2c-9 0-16-3-22-9-7-7-10-14-10-23 0-10 5-21 16-32 10-11 21-23 34-34l35-34c10-11 15-20 15-28 0-7-3-12-8-16-11-11-24-20-39-27-15-8-31-14-47-19-17-5-33-8-50-10-17-3-33-4-48-4-25 0-50 4-73 13-24 8-46 19-67 34-21 15-40 32-57 51-17 19-30 39-41 61-5 11-9 23-12 34-3 11-7 22-12 33-1 3-3 6-5 8-2 2-5 3-9 3l-175 0c-5 0-9-2-11-5-3-3-4-7-4-12 0-15 3-33 9-53 6-20 12-38 18-53 18-47 42-89 72-128 30-39 65-72 104-100 39-28 81-50 127-65 46-15 94-23 145-23 z M947 1285l366 2c9 0 16 3 23 10 6 6 9 13 9 22 0 9-5 20-15 32-11 11-22 23-35 35-13 11-24 22-34 33-11 11-16 20-16 28 0 6 2 11 7 16 11 11 24 20 39 28 15 7 31 13 48 18 17 5 34 8 51 11 17 2 32 3 47 3 25 0 49-4 73-12 24-9 46-20 67-35 21-15 39-31 56-50 17-19 30-40 41-62l7-19 9-26c3-9 7-16 11-23 3-7 7-10 12-10l175 0c5 0 9 2 12 5 2 3 3 7 3 12 0 15-3 33-9 53-6 20-12 38-18 53-18 46-42 88-72 127-30 39-64 72-103 100-39 28-82 50-128 66-46 15-94 23-145 23-33 0-62-2-89-7-27-5-53-13-78-23-25-10-50-22-73-36-24-15-49-31-75-50-5-3-9-5-13-5-9 0-18 6-28 17-11 11-21 24-32 37-11 13-21 26-32 37-11 11-22 17-32 17-9 0-16-3-21-8-6-6-9-13-10-21l-29-367c0-8 3-15 8-21 6-7 14-10 23-10 z" fill="#00A6ED"/>
		<path d="M2125 144c-65 0-72 54-72 106l0 38-144 0c-39 0-72 31-72 72 0 40 34 71 72 71l144 0 0 72-144 0c-39 0-72 31-72 72 0 39 31 72 72 72l136 0-194 373c-5 11-9 22-9 34 0 40 34 71 72 71 28 0 51-16 64-39l147-281 146 281c12 24 38 39 64 39 39 0 72-34 72-72 0-11-3-22-8-33l-194-373 135 0c39 0 72-31 72-72 0-39-31-72-72-72l-143 0 0-72 143 0c38 0 72-31 72-71 0-39-31-72-72-72l-143 0 1-46c0-17-2-33-6-47-8-30-26-51-67-51 z M687 144c16 0 29 3 39 9 9 6 17 14 22 24 5 10 8 21 10 34 1 12 2 25 2 38l0 30c-1 9-1 19-1 28 26 6 51 16 75 30 23 14 44 31 63 51 18 20 33 43 44 68 11 25 16 51 16 78 0 41-7 78-21 111-14 32-33 59-58 82-25 23-54 40-88 52-34 11-71 17-111 17-18 0-35 1-51 4-17 2-31 7-43 14-13 7-23 18-30 31-8 13-12 30-12 51 0 22 3 40 10 55 7 14 16 25 28 33 12 8 26 14 43 17 16 3 34 5 53 5 33 0 58-4 75-13 17-9 29-21 38-34 9-13 15-28 18-43 3-16 7-31 12-44 5-13 12-24 21-33 9-9 25-14 46-14 10 0 19 2 28 6 9 4 16 9 23 16 6 7 11 14 14 23 3 9 5 18 5 28l-71-2 71 2c0 29-5 56-15 83-11 27-25 51-42 72-18 21-39 40-63 55-24 15-50 26-78 33 0 15 0 31 1 49l0 9c0 14-2 28-4 40-4 15-11 28-21 39-11 11-27 16-48 16-16 0-29-3-38-9-10-7-17-15-22-25-5-10-9-21-10-34-2-13-3-26-3-39l1-41c-67-10-120-37-158-80-38-44-57-100-57-169 0-25 3-49 9-73 6-24 16-46 30-67 13-20 29-37 47-50 18-13 38-24 59-32 21-9 43-15 66-18 23-3 45-5 68-5 20 0 38-2 55-6 16-5 30-12 42-21 12-9 21-21 28-36 7-15 10-34 10-55l-1-1c-1-8-3-16-7-25-5-9-9-16-14-22-13-17-30-29-51-35-21-6-41-9-62-9-28 0-50 4-66 12-17 8-30 18-39 31-9 12-17 25-22 40-5 14-11 27-17 40-6 12-14 22-23 30-9 8-23 12-41 12-19 0-36-7-50-21-14-15-21-32-21-51l0-6c0-3 0-5 1-7l71 13-71-13c14-55 39-103 74-142 35-39 82-65 140-76 0-15 0-31-1-50l0-10c0-15 2-29 5-42 3-17 10-30 20-41 10-11 26-17 48-17 z" fill="#635994"/>
	</g></svg>
