<svg version="1.1" xmlns="http://www.w3.org/2000/svg" viewBox="0 0 2300 2300"><g transform="scale(1,-1) translate(-256, -1869)">
		<path d="M1119 975c106 0 193 85 193 192 0 107-88 192-193 192l-647 0c0-60 39-112 97-128 1-59 40-113 103-128 3-73 63-126 133-126l122 0 0-2 192 0 z" fill="#E6E6E6"/>
		<path d="M1070 977l0 25-265 0c-63 0-115 41-130 101 9-2 18-3 27-3l266 0 0 25-266 0c-61 0-120 46-130 105 10-3 21-4 34-4l332 0 0 133-1 0 0-109-309 0c-68 0-137 39-153 109l-3 0c0-60 39-112 97-128 1-59 40-113 103-128 3-73 63-126 133-126l265 0 z" fill="#D3D3D3"/>
		<path d="M1350-121c34 0 67 14 89 36l919 919c22 22 36 55 36 89 0 35-12 64-36 88l-143 143c-23 23-56 37-89 37-34 0-66-15-88-37l-920-918c-22-22-36-55-36-89 0-34 14-67 36-89l143-143c22-22 55-36 89-36 z" fill="#008463"/>
		<path d="M1211 18c33 0 66 14 89 37l918 918c22 22 37 54 37 88 0 33-14 66-37 89l-537 539c-22 22-55 36-89 36-34 0-67-14-89-36l-919-918c-23-23-37-56-37-89 0-33 14-66 37-89l538-538c23-23 56-37 89-37 z" fill="#00F397"/>
		<path d="M1201 115c37 0 71 14 98 41l821 820c27 27 40 61 40 97 0 36-13 71-40 98l-427 427c-27 27-61 40-97 40-36 0-72-15-97-40l-822-821c-27-27-40-62-40-98 0-36 15-72 40-97l427-426 0-1c27-25 61-40 97-40 z M1202 168c-23 0-45 9-61 25l-427 427c-16 16-24 37-24 60 0 23 8 44 24 60l1 0 821 821c16 16 38 24 61 24 23 0 43-8 59-24l427-427c17-17 25-37 25-60 0-23-9-43-26-60l-820-821c-17-17-37-25-60-25 z M1601 827c131 0 246 104 246 245 0 133-109 245-246 245-137 0-245-112-245-245 0-137 112-245 245-245 z" fill="#008463"/>
		<path d="M1796 273l224 224-854 854-225-224 855-854 z" fill="#FFF478"/>
		<path d="M1796 272l224 224-139 139-224-224 139-139 z" fill="#FFB02E"/>
		<path d="M1327 373c14 0 27 12 27 27 0 19-38 50-50 62 17 24 28 52 28 81 0 74-55 123-126 123-86 0-106-78-164-78-40 0-69 33-69 71 0 41 48 94 94 94 19 0 39-9 53-19 1-7 15-9 20-9 14 0 27 12 27 27 0 8-3 15-8 20-4 0-7 3-9 6-15 17-54 29-82 29-31 0-58-11-82-28-13 13-34 45-56 45-14 0-27-12-27-27 0-22 32-44 45-57-19-23-29-52-29-81 0-66 54-125 122-125 86 0 106 78 166 78 39 0 72-27 72-69 0-46-52-95-95-95-17 0-32 7-47 15-4 7-11 8-18 8-14 0-27-13-27-28 0-33 67-48 91-48 31 0 58 11 82 28 13-13 41-50 62-50 z" fill="#FFFFFF"/>
		<path d="M2084-292l0 647c0 107-88 193-193 193-107 0-192-88-192-193l0-192 2 0 0-122c0-73 59-130 127-133 14-61 67-102 127-103 17-61 71-97 129-97 z" fill="#E6E6E6"/>
		<path d="M2084-292l0 3c-69 16-109 82-109 153l0 309 109 0 0 1-134 0 0-332c0-10 1-24 4-34-62 13-105 67-105 130l0 266-25 0 0-266c0-9 1-18 3-26-59 13-101 69-101 129l0 265-25 0 0-265c0-73 59-130 127-133 14-61 67-102 127-103 16-58 69-97 129-97 z" fill="#D3D3D3"/>
	</g></svg>
