<svg version="1.1" xmlns="http://www.w3.org/2000/svg"><g transform="scale(1,-1)">
		<path d="M2251-287c87 0 161 69 161 161l0 971c0 87-69 161-161 161l-1690 0c-87 0-161-69-161-161l0-971c0-87 69-161 161-161l1690 0 z" fill="#00A6ED"/>
		<path d="M1937 144c24 0 44 19 44 44l0 199c0 25-20 44-44 44l-1278 0c-24 0-44-19-44-44l0-199c0-23 21-44 44-44l1278 0 z" fill="#F4F4F4"/>
		<path d="M2207-144c36 0 61 28 61 62l0 129c0 36-27 61-61 61l-129 0c-36 0-61-27-61-61l0-129c0-33 25-62 61-62l129 0 z" fill="#FFF478"/>
		<path d="M2412 575l0 216-2012 0 0-216 2012 0 z" fill="#321B41"/>
		<path d="M1514 252c19 0 36 15 36 36 0 19-15 36-36 36l-791 0c-19 0-36-15-36-36 0-19 15-36 36-36l791 0 z" fill="#9B9B9B"/>
	</g></svg>
