<svg version="1.1" xmlns="http://www.w3.org/2000/svg"><g transform="scale(1,-1)">
		<path d="M2125-287c156 0 287 125 287 287l0 1438c0 156-125 287-287 287l-1438 0c-156 0-287-125-287-287l0-1438c0-161 130-287 287-287l1438 0 z" fill="#00D26A"/>
		<path d="M684-62c-29 0-54 22-54 54 0 15 5 27 16 38l318 318c23 23 56 37 89 37 34 0 65-14 89-38 24-24 182-194 201-194 5 0 10 2 13 5l749 749c11 11 23 16 38 16 32 0 54-24 54-54 0-15-5-27-16-38l-749-750c-23-23-56-37-89-37-34 0-64 13-89 38-23 23-184 194-201 194-5 0-10-2-13-5l-317-317c-11-11-24-16-39-16 z M869 682c32 0 53 25 53 54l0 101 154 0c32 0 53 25 53 54 0 29-23 54-53 54l-154 0 0 68 154 0c32 0 53 25 53 54 0 29-21 54-53 54l-126 0 172 306c5 7 7 16 7 27 0 32-25 53-54 53-20 0-35-9-46-27l-159-282-149 281c-9 17-28 28-47 28-30 0-54-22-54-54 0-9 2-17 6-25l163-307-105 0c-30 0-54-22-54-54 0-32 24-54 54-54l131 0 0-68-131 0c-29 0-54-24-54-54 0-30 22-54 54-54l131 0 0-101c0-30 22-54 54-54 z" fill="#F4F4F4"/>
	</g></svg>
