<svg version="1.1" xmlns="http://www.w3.org/2000/svg" viewBox="0 0 2300 2300"><g transform="scale(1,-1) translate(-256, -1869)">
		<path d="M2346-252c23 0 66 2 66 37 0 26-130 591-144 646l-575 48c-111 8-178 24-287 24-115 0-186-17-288-24l-575-48-142-639-1-7c0-34 42-37 66-37l1880 0 z" fill="#D3D3D3"/>
		<path d="M2268 432l0 1221c0 38-31 72-71 72l-1582 0c-39 0-72-34-72-72l0-1221 1725 0 z" fill="#7167A4"/>
		<path d="M2179 504c11 0 18 7 18 18l0 1113c0 11-7 18-18 18l-1546 0c-11 0-18-7-18-18l0-1113c0-11 7-18 18-18l1546 0 z" fill="#26C9FC"/>
		<path d="M2241 73c14 0 27 13 27 28 0 17-48 210-52 238-3 14-12 21-27 21l-1566 0c-15 0-24-7-27-21l-6-26c-13-66-46-199-46-212 0-15 13-28 27-28l1670 0 z M1778-143l-744 0c-11 0-18 7-18 18 0 8 25 98 28 112 2 9 8 14 17 14l690 0c9 0 14-5 17-14 3-14 28-105 28-112 0-11-7-18-18-18 z M2347-287c35 0 65 28 65 65 0 15-4 27-8 42-11-24-34-35-57-35l-1882 0c-22 0-46 12-57 34-3-13-8-28-8-41 0-37 30-65 65-65l1882 0 z M1388 198l-100 0 3 54 97 0 0-54 z M1252 198l-97 0 3 54 97 0-3-54 z M1119 198l-92 0 5 54 90 0-3-54 z M991 198l-99 0 6 54 98 0-5-54 z M856 198l-100 0 9 54 97 0-6-54 z M1523 198l-99 0 0 54 97 0 2-54 z M1656 198l-97 0-2 54 97 0 2-54 z M1785 198l-93 0-2 54 90 0 5-54 z M1920 198l-99 0-5 54 97 0 7-54 z M2056 198l-100 0-6 54 97 0 9-54 z M705 108l-90 0 9 54 90 0-9-54 z M720 198l-90 0 9 54 90 0-9-54 z M735 288l-90 0 6 36 90 0-6-36 z M867 288l-96 0 6 36 94 0-4-36 z M999 288l-96 0 4 36 95 0-3-36 z M1123 288l-88 0 3 36 87 0-2-36 z M1256 288l-97 0 2 36 97 0-2-36 z M1388 288l-96 0 2 36 94 0 0-36 z M1520 288l-96 0 0 36 94 0 2-36 z M1653 288l-97 0-2 36 97 0 2-36 z M1777 288l-88 0-2 36 87 0 3-36 z M1909 288l-96 0-3 36 94 0 5-36 z M2041 288l-96 0-4 36 94 0 6-36 z M2167 288l-90 0-6 36 90 0 6-36 z M2182 198l-90 0-9 54 90 0 9-54 z M2197 108l-90 0-9 54 90 0 9-54 z M2071 108l-103 0-7 54 101 0 9-54 z M1931 108l-103 0-4 54 101 0 6-54 z M1792 108l-96 0-2 54 94 0 4-54 z M1660 108l-97 0-2 54 97 0 2-54 z M1527 108l-103 0 0 54 101 0 2-54 z M1388 108l-103 0 2 54 101 0 0-54 z M1249 108l-97 0 2 54 97 0-2-54 z M1116 108l-96 0 4 54 94 0-2-54 z M984 108l-103 0 6 54 101 0-4-54 z M844 108l-103 0 9 54 101 0-7-54 z" fill="#9B9B9B"/>
	</g></svg>
