<svg version="1.1" xmlns="http://www.w3.org/2000/svg"><g transform="scale(1,-1)">
		<path d="M2125-287c131 0 247 90 280 222l-65 137 72 72 0 1294c0 156-125 287-287 287l-1438 0c-112 0-222-68-266-179l44-153-65-36 0-1357c0-161 130-287 287-287l1438 0 z" fill="#E1D8EC"/>
		<path d="M1837-287l0 575 575 0 0 72-575 0 0 718 575 0 0 72-575 0 0 575-72 0 0-575-718 0 0 575-72 0 0-575-575 0 0-72 575 0 0-718-575 0 0-72 575 0 0-575 72 0 0 575 718 0 0-575 72 0 z M1765 360l-718 0 0 718 718 0 0-718 z" fill="#B4ACBC"/>
		<path d="M2404-66c3 7 5 20 6 39 2 38 2 83 2 125l0 46-507 484c-30 28-69 46-111 46-41 0-78-15-109-44l-155-146c-8-7-16-10-25-10-10 0-18 3-25 10l-1059 1063c-19-44-21-88-21-135l0-55 996-986c31-29 69-46 112-46 41 0 79 17 108 43l154 145c8 7 16 10 25 10 10 0 18-3 25-10l584-579 z" fill="#0084CE"/>
	</g></svg>
