<svg version="1.1" xmlns="http://www.w3.org/2000/svg" viewBox="0 0 2300 2300"><g transform="scale(1,-1) translate(-256, -1869)">
		<path d="M1522-288c60 0 112 12 155 35 43 23 79 53 108 91 29 38 50 82 64 132 13 50 20 102 20 156 0 28-2 56-6 84l-14 83c-5 27-10 55-14 83-4 27-6 55-6 84 0 23 1 45 4 68 3 23 8 45 15 67 6 20 13 38 22 53 8 15 17 30 27 43 9 13 20 25 31 38l37 42c5 6 9 12 12 18 3 5 4 12 4 20 0 15-5 28-15 39-11 10-24 15-39 15-8 0-15-1-20-4-6-3-12-7-18-12-32-27-61-61-86-100-26-40-45-80-58-120-9-27-15-55-18-83-4-28-6-56-6-84 0-38 3-75 9-111 5-36 12-72 19-109 8-37 12-75 12-113 0-39-4-76-12-113-9-37-22-69-41-98-19-29-44-52-74-69-31-18-68-27-113-27-37 0-70 7-101 22-31 15-58 34-83 57-25 23-48 50-68 80-20 29-37 59-52 89-23 48-43 99-60 153-17 54-31 109-42 165-11 56-19 112-24 169-5 56-8 111-8 164 0 55 2 112 7 170 5 58 12 116 23 174 10 57 23 114 40 170 16 55 36 108 59 159 10 21 22 44 37 71 15 26 32 51 52 74 19 23 41 42 64 58 23 15 49 23 76 23 8 0 17-1 26-3 54-12 95-33 123-64 28-31 42-75 42-132 0-25-2-49-7-73-5-24-12-48-19-71-15-46-29-94-40-144-12-50-22-101-31-152-9-51-15-103-19-154-5-51-7-101-7-149 0-27 1-54 4-80l18-155c3-25 4-51 4-77 0-11 0-22-1-33-1-11-3-21-6-30-3-9-9-17-17-22-8-6-19-9-33-9-22 0-41 8-56 23-16 15-29 34-40 57-11 23-20 50-26 79-7 29-12 58-15 87-4 29-6 56-7 81l-2 60c0 13 0 26 1 39 1 13 1 25 1 38 0 14-5 27-14 39-9 12-22 18-37 18-17 0-30-4-38-13-9-9-14-21-17-34-2-11-4-22-4-34l0-49c0-27 1-59 3-94 2-35 6-71 13-108 6-37 15-74 26-109 11-35 27-67 46-95 19-28 42-50 69-67 27-17 59-26 97-26 31 0 57 5 78 16 21 11 38 25 51 44 13 18 22 39 28 64 5 25 8 51 8 78 0 26-1 52-4 78l-18 155c-3 26-4 52-4 78 0 95 8 191 24 287 16 95 39 188 68 279 9 29 17 59 23 89 5 29 8 59 8 90 0 82-22 148-66 199-45 51-106 84-185 101l-24 4c-9 1-17 2-26 2-39 0-76-9-109-27-33-18-63-41-90-69-27-28-51-59-72-93-21-34-39-67-54-99-25-54-47-111-64-170-17-60-32-121-43-182-11-61-19-123-24-185-5-63-8-123-8-182 0-58 3-117 9-177 5-61 14-121 26-181 11-60 26-119 45-176 18-58 40-113 66-165 19-40 42-78 69-115 26-37 56-70 89-98 33-29 70-52 111-69 40-17 84-26 132-26 z" fill="#9B9B9B"/>
		<path d="M1622 791c120 0 215 97 215 215 0 121-97 216-215 216-120 0-216-95-216-216 0-119 97-215 216-215 z M1047 935c120 0 215 97 215 215 0 121-97 216-215 216-121 0-216-99-216-216 0-119 97-215 216-215 z" fill="#E6E6E6"/>
		<path d="M1794 1240c-21 0-58 29-92 53-76 51-159 22-159 89 0 32 25 54 55 54 61 0 125-28 181-64 32-21 69-42 69-78 0-30-22-54-54-54 z M1586 863c-80 0-144 64-144 143 0 79 63 144 144 144 80 0 143-65 143-144 0-80-62-143-143-143 z M1083 1006c-81 0-144 67-144 144 0 79 63 144 144 144 80 0 143-65 143-144 0-80-64-144-143-144 z M1298 1455c29 0 54 22 54 54 0 65-110 71-157 71-21 0-43-2-64-5-48-8-103-15-103-66 0-30 26-54 55-54 26 0 72 17 113 17 41 0 79-17 102-17 z" fill="#402A32"/>
	</g></svg>
