<svg version="1.1" xmlns="http://www.w3.org/2000/svg"><g transform="scale(1,-1)">
		<path d="M1943-288c43 0 82 16 113 47l309 309c29 29 47 69 47 111 0 34-10 65-29 92l-45 0 0 48-131 132-53-6 6 53-121 120-54-5 5 54-127 128-54-6 6 54-119 119-57-10 8 58-126 126-56-10 9 58-121 121-58-9 8 58-125 126-50 0 0 49-120 121-58-8 8 54c-26 18-56 27-89 27-43 0-82-16-113-47l-309-309c-31-31-47-69-47-112 0-43 16-82 47-113l1384-1384c31-31 69-46 112-46 z" fill="#BEBEBE"/>
		<path d="M845 1498c10 0 19 4 26 11l139 139c-17 17-34 34-53 49l-137-137c-7-7-11-16-11-26 0-18 17-36 36-36 z M1068 1381c10 0 19 4 26 11l85 87-51 51-85-87c-7-7-11-16-11-26 0-18 17-36 36-36 z M1189 1155c9 0 18 4 25 11l139 138-51 51-138-138c-7-7-11-16-11-26 0-18 17-36 36-36 z M1411 1038c10 0 19 4 26 11l85 87-51 50-85-87c-7-7-11-16-11-26 0-18 17-35 36-35 z M1532 812c9 0 18 4 25 11l139 139-51 50-139-138c-7-7-11-16-11-26 0-19 16-36 37-36 z M1754 695c10 0 19 4 26 11l84 87-51 51-85-88c-7-8-10-16-10-25 0-19 15-36 36-36 z M1875 468c10 0 19 4 26 11l139 139-51 51-139-139c-7-7-11-16-11-26 0-18 17-36 36-36 z M2098 352c9 0 18 4 25 11l85 87-51 51-85-88c-7-7-10-15-10-25 0-18 17-36 36-36 z M2222 122c9 0 18 4 25 11l137 137c-12 21-32 35-49 52l-139-138c-7-7-11-16-11-26 0-19 16-36 37-36 z" fill="#8D65C5"/>
	</g></svg>
