<svg version="1.1" xmlns="http://www.w3.org/2000/svg" viewBox="0 0 2300 2300"><g transform="scale(1,-1) translate(-256, -1869)">
		<path d="M2038-287c205 0 374 164 374 373l0 1136-953 204c-18 4-36 6-53 6-17 0-35-2-53-6l-953-204 0-1136c0-205 167-373 373-373l1265 0 z" fill="#B4ACBC"/>
		<path d="M1945-215l395 407 0 895-901 171-967-171 0-979c0-179 144-323 323-323l1150 0 z" fill="#F3EEF8"/>
		<path d="M1967 0c8 0 14 7 14 15l0 186c0 8-6 15-14 15l-187 0c-8 0-15-7-15-15l0-186c0-8 7-15 15-15l187 0 z M1499 0c8 0 15 7 15 15l0 186c0 8-7 15-15 15l-186 0c-8 0-15-7-15-15l0-186c0-8 7-15 15-15l186 0 z M1032 0c8 0 15 7 15 15l0 186c0 8-7 15-15 15l-187 0c-8 0-14-7-14-15l0-186c0-8 6-15 14-15l187 0 z M1499 360c8 0 15 6 15 14l0 187c0 8-7 14-15 14l-186 0c-8 0-15-6-15-14l0-187c0-8 7-14 15-14l186 0 z M1032 360c8 0 15 6 15 14l0 187c0 8-7 14-15 14l-187 0c-9 0-14-5-14-14l0-187c0-9 5-14 14-14l187 0 z M1967 719c9 0 14 5 14 14l0 187c0 8-6 15-14 15l-187 0c-8 0-15-7-15-15l0-187c0-8 7-14 15-14l187 0 z M1499 719c8 0 15 6 15 14l0 187c0 8-7 15-15 15l-186 0c-8 0-15-7-15-15l0-187c0-8 7-14 15-14l186 0 z M1032 719c8 0 15 6 15 14l0 187c0 8-7 15-15 15l-187 0c-8 0-14-7-14-15l0-187c0-9 5-14 14-14l187 0 z" fill="#998EA4"/>
		<path d="M2143-287c149 0 270 119 270 270l0 233-324-180-179-323 233 0 z" fill="#998EA4"/>
		<path d="M1910-287l503 503-233 0c-148 0-270-121-270-270l0-233 z" fill="#E1D8EC"/>
		<path d="M1967 360l-187 0c-8 0-15 6-15 14l0 187c0 8 7 14 15 14l187 0c9 0 14-5 14-14l0-187c0-9-5-14-14-14 z M2412 1078l0 160c0 149-118 272-270 272l-1472 0c-149 0-270-121-270-272l0-160 2012 0 z" fill="#0084CE"/>
		<path d="M1891 1294c53 0 90 45 90 94l0 243c0 51-39 94-90 94-53 0-90-45-90-94l0-243c0-51 39-94 90-94 z M921 1294c53 0 90 45 90 94l0 243c0 51-39 94-90 94-53 0-90-45-90-94l0-243c0-51 39-94 90-94 z" fill="#CDC4D6"/>
	</g></svg>
