<svg version="1.1" xmlns="http://www.w3.org/2000/svg"><g transform="scale(1,-1)">
		<path d="M2125-287c156 0 287 125 287 287l0 1353-61 61 42 128c-42 108-148 183-268 183l-1438 0c-156 0-287-125-287-287l0-1319 56-51-48-136c32-128 145-219 279-219l1438 0 z" fill="#E1D8EC"/>
		<path d="M1837-287l0 575 575 0 0 72-575 0 0 718 575 0 0 72-575 0 0 575-72 0 0-575-718 0 0 575-72 0 0-575-575 0 0-72 575 0 0-718-575 0 0-72 575 0 0-575 72 0 0 575 718 0 0-575 72 0 z M1765 360l-718 0 0 718 718 0 0-718 z" fill="#B4ACBC"/>
		<path d="M408-70l584 578c7 7 16 11 25 11 10 0 18-3 25-10l154-145c29-26 68-43 108-43 41 0 81 16 111 46l997 985 0 56c0 47-3 92-20 135l-1060-1063c-7-7-16-11-26-11-9 0-17 3-24 10l-155 147c-29 28-68 44-109 44-41 0-81-16-111-46l-507-502-1-89c0-35 1-68 9-103 z" fill="#F92F60"/>
	</g></svg>
