<svg version="1.1" xmlns="http://www.w3.org/2000/svg"><g transform="scale(1,-1)">
		<path d="M1406-287c547 0 1006 440 1006 1006 0 547-440 1006-1006 1006-547 0-1006-440-1006-1006 0-547 440-1006 1006-1006 z M1406 431c-161 0-288 128-288 288 0 160 129 287 288 287 161 0 287-130 287-287 0-161-129-288-287-288 z" fill="#FFB02E"/>
		<path d="M1406-215c-199 0-429 70-580 202-23 20-36 43-36 74 0 28 13 55 31 73l382 382c52-52 125-85 203-85 51 0 100 13 143 38l267-468c9-17 14-34 14-53 0-43-21-69-57-88-99-51-247-75-367-75 z M1609 922l381 381c19 19 32 46 32 74 0 31-13 54-36 74-151 130-376 202-580 202-87 0-192-13-282-41-72-23-142-49-142-122 0-19 5-36 14-53l267-468c43 25 92 37 143 37 78 0 151-32 203-84 z" fill="#FCD53F"/>
		<path d="M1406 360c190 0 359 152 359 359 0 191-155 359-359 359-196 0-359-159-359-359 0-194 154-359 359-359 z M1406 503c-121 0-216 99-216 216 0 121 99 216 216 216 121 0 216-99 216-216 0-121-99-216-216-216 z" fill="#FF822D"/>
	</g></svg>
