<svg version="1.1" xmlns="http://www.w3.org/2000/svg"><g transform="scale(1,-1)">
		<path d="M493-279c25 0 49 11 66 28l644 644-132 132-644-644c-17-17-27-42-27-66 0-50 41-94 93-94 z" fill="#D3D3D3"/>
		<path d="M1696 491l331 331-118 436-416 98-331-331 100-414 434-120 z" fill="#CA0B4A"/>
		<path d="M1560-6c27 0 48 10 68 29 82 77 150 145 150 268 0 74-28 147-84 203l-530 529c-53 52-125 84-203 84-90 0-157-40-210-91-38-35-86-74-86-126 0-27 9-49 28-68l799-799c19-19 42-29 68-29 z M2160 765c66 0 122 40 168 88 32 33 67 60 67 102 0 20-7 40-22 55l-693 693c-15 15-35 22-55 22-20 0-38-7-54-22-62-60-135-117-135-213 0-51 22-100 55-133l537-536c34-34 80-56 132-56 z" fill="#F8312F"/>
	</g></svg>
