<svg version="1.1" xmlns="http://www.w3.org/2000/svg" viewBox="0 0 2300 2300"><g transform="scale(1,-1) translate(-256, -1869)">
		<path d="M2038-287c205 0 374 164 374 373l0 1136-953 204c-18 4-36 6-53 6-17 0-35-2-53-6l-953-204 0-1136c0-205 167-373 373-373l1265 0 z" fill="#B4ACBC"/>
		<path d="M2017-215c179 0 323 144 323 323l0 1186-877 203c-19 4-38 6-57 6-19 0-38-2-57-6l-877-203 0-1186c0-179 144-323 323-323l1222 0 z" fill="#F3EEF8"/>
		<path d="M1981 7c8 0 14 7 14 15l0 187c0 9-5 14-14 14l-201 0c-8 0-15-6-15-14l0-187c0-8 7-15 15-15l201 0 z M1981 791c9 0 14 5 14 14l0 187c0 9-5 14-14 14l-201 0c-8 0-15-6-15-14l0-187c0-8 7-14 15-14l201 0 z M1507 7c8 0 14 7 14 15l0 187c0 9-5 14-14 14l-202 0c-9 0-14-5-14-14l0-187c0-8 6-15 14-15l202 0 z M1507 396c9 0 14 5 14 14l0 187c0 9-5 14-14 14l-202 0c-9 0-14-5-14-14l0-187c0-9 5-14 14-14l202 0 z M1507 791c9 0 14 5 14 14l0 187c0 9-5 14-14 14l-202 0c-9 0-14-5-14-14l0-187c0-9 5-14 14-14l202 0 z M1032 7c8 0 15 7 15 15l0 187c0 8-7 14-15 14l-201 0c-9 0-14-5-14-14l0-187c0-8 6-15 14-15l201 0 z M1032 396c8 0 15 6 15 14l0 187c0 8-7 14-15 14l-201 0c-9 0-14-5-14-14l0-187c0-9 5-14 14-14l201 0 z M1032 791c8 0 15 6 15 14l0 187c0 8-7 14-15 14l-201 0c-9 0-14-5-14-14l0-187c0-9 5-14 14-14l201 0 z" fill="#998EA4"/>
		<path d="M1981 396c9 0 14 5 14 14l0 187c0 9-5 14-14 14l-201 0c-8 0-15-6-15-14l0-187c0-8 7-14 15-14l201 0 z M2412 1222l0 129c0 202-161 374-374 374l-1265 0c-206 0-373-166-373-374l0-129 2012 0 z" fill="#0084CE"/>
	</g></svg>
