<svg version="1.1" xmlns="http://www.w3.org/2000/svg"><g transform="scale(1,-1)">
		<path d="M2197-287c120 0 215 97 215 215l0 1078c0 121-97 216-215 216l-1582 0c-119 0-215-97-215-216l0-1078c0-120 97-215 215-215l1582 0 z" fill="#636363"/>
		<path d="M2197 252c40 0 71 34 71 72l0 682c0 38-31 72-71 72l-1582 0c-39 0-72-34-72-72l0-682c0-38 33-72 72-72l1582 0 z" fill="#00D26A"/>
		<path d="M1009-144c60 0 109 49 109 108 0 58-47 107-108 107l-359 0c-58 0-108-47-108-107 0-58 49-108 108-108l358 0 z M1691-144c59 0 107 49 107 108 0 60-49 108-107 108l-359 0c-61 0-108-48-108-108 0-58 49-108 108-108l359 0 z" fill="#9B9B9B"/>
		<path d="M2160-144c58 0 108 49 108 108 0 57-46 108-108 108l-147 0c-58 0-108-49-108-108 0-58 49-108 108-108l147 0 z" fill="#CA0B4A"/>
		<path d="M1872 414c39 0 72 31 72 72l0 72c0 39-34 72-72 72-40 0-71-34-71-72l0-72c0-38 31-72 71-72 z M1872 701c39 0 72 31 72 72l0 72c0 39-34 72-72 72-40 0-71-34-71-72l0-72c0-38 31-72 71-72 z M1585 414c39 0 72 31 72 72l0 72c0 39-34 72-72 72-38 0-72-33-72-72l0-72c0-39 34-72 72-72 z M1585 701c39 0 72 31 72 72l0 72c0 39-34 72-72 72-38 0-72-33-72-72l0-72c0-39 31-72 72-72 z M1227 414c38 0 72 33 72 72l0 72c0 39-34 72-72 72-38 0-72-33-72-72l0-72c0-39 34-72 72-72 z M1227 701c38 0 72 33 72 72l0 72c0 39-34 72-72 72-38 0-72-33-72-72l0-72c0-39 31-72 72-72 z M939 414c39 0 72 31 72 72l0 72c0 38-33 72-72 72-40 0-71-34-71-72l0-72c0-38 31-72 71-72 z M939 701c39 0 72 31 72 72l0 72c0 38-33 72-72 72-40 0-71-34-71-72l0-72c0-38 31-72 71-72 z" fill="#008463"/>
	</g></svg>
