<svg version="1.1" xmlns="http://www.w3.org/2000/svg"><g transform="scale(1,-1)">
		<path d="M1406-287c547 0 1006 440 1006 1006 0 216-67 427-201 604-26 34-78 112-126 112-21 0-39-8-52-23l-214-238c-15-16-33-24-54-24-21 0-39 8-53 24l-251 286c-8 8-44 30-55 30-14 0-47-22-55-30l-251-286c-15-16-33-24-54-24-21 0-39 8-53 24l-214 238c-13 15-31 23-52 23-49 0-99-77-126-112-136-182-201-389-201-604 0-547 440-1006 1006-1006 z" fill="#F92F60"/>
		<path d="M2053 431c39 0 72 34 72 72l0 144c0 39-31 72-72 72l-1294 0c-39 0-72-31-72-72l0-144c0-39 34-72 72-72l1294 0 z" fill="#FFFFFF"/>
	</g></svg>
