<svg version="1.1" xmlns="http://www.w3.org/2000/svg"><g transform="scale(1,-1)">
		<path d="M2197 0l0 1581c0 81-67 144-144 144l-1222 0 0-1725 1366 0 z" fill="#CA0B4A"/>
		<path d="M1442-251c84 0 168 8 252 12l503 24 0 143-503 24c-84 4-168 12-252 12-84 0-168-8-252-12l-503-24 0-143 503-24c84-4 168-12 252-12 z" fill="#D3D3D3"/>
		<path d="M2089-287c46 0 86 29 101 72l-1431 0c-38 0-72 31-72 71 0 39 31 72 72 72l1438 0 0 72-1366 0 0 1725-108 0c-58 0-108-49-108-108l0-1796c0-58 49-108 108-108l1366 0 z" fill="#990838"/>
	</g></svg>
