<svg version="1.1" xmlns="http://www.w3.org/2000/svg" viewBox="0 0 2300 2300"><g transform="scale(1,-1) translate(-256, -1869)">
		<path d="M2093-288c56 0 100 44 100 100l0 1665c0 136-111 247-247 247l-1072 0 0 1-298 0 0-215 179 0 0-1587c0-113 92-211 212-211l1126 0 z" fill="#FFDEA7"/>
		<path d="M2095-287c128 0 277 13 314 164l1 8c0 30-33 45-60 45l-1059 0c-13 0-25-3-35-8-20-11-25-36-33-60-24-71-98-135-186-149l1058 0 z" fill="#E19747"/>
		<path d="M755 1510c0 97-64 215-179 215-98 0-158-85-176-167l-1-8c0-18 11-40 33-40l323 0 z" fill="#D3883E"/>
		<path d="M1583 300c19 0 36 15 36 36 0 19-15 36-36 36l-572 0c-19 0-36-18-36-36 0-18 17-36 36-36l572 0 z M1945 514c19 0 36 15 36 36 0 19-15 36-36 36l-936 0c-19 0-36-15-36-36 0-19 15-36 36-36l936 0 z M1945 731c19 0 36 15 36 36 0 19-15 36-36 36l-936 0c-19 0-36-15-36-36 0-19 15-36 36-36l936 0 z M1945 944c19 0 36 15 36 36 0 19-15 36-36 36l-940 0c-19 0-36-15-36-36 0-19 15-36 36-36l940 0 z" fill="#D3883E"/>
	</g></svg>
