<svg version="1.1" xmlns="http://www.w3.org/2000/svg" viewBox="0 0 2300 2300"><g transform="scale(1,-1) translate(-256, -1869)">
		<path d="M2053-287c80 0 144 64 144 143l0 1340c0 20-7 37-21 51l-458 457c-14 14-31 21-51 21l-908 0c-81 0-144-67-144-144l0-1725c0-80 65-143 144-143l1294 0 z" fill="#B4ACBC"/>
		<path d="M2053-215c38 0 72 31 72 71l0 1333-454 464-912 0c-39 0-72-31-72-72l0-1725c0-40 34-71 72-71l1294 0 z" fill="#F3EEF8"/>
		<path d="M1514 288l-575 0c-19 0-36 15-36 36 0 18 17 36 36 36l575 0c19 0 36-18 36-36 0-19-15-36-36-36 z M1873 503c19 0 36 15 36 36 0 19-15 36-36 36l-934 0c-19 0-36-15-36-36 0-19 15-36 36-36l934 0 z M1873 719l-934 0c-19 0-36 15-36 36 0 19 15 36 36 36l934 0c19 0 36-15 36-36 0-19-15-36-36-36 z M1873 935c19 0 36 15 36 36 0 18-17 35-36 35l-934 0c-19 0-36-17-36-35 0-19 15-36 36-36l934 0 z" fill="#998EA4"/>
		<path d="M2125 1189l-454 464 0-341c0-65 53-123 122-123l332 0 z" fill="#CDC4D6"/>
		<path d="M1417-145l763 564-78 232-201 145-762-565 82-226 196-150 z" fill="#FF822D"/>
		<path d="M1127-145l290 1-278 375-85-278 12-64 61-34 z" fill="#FFCE7C"/>
		<path d="M1127-145l-73 98-30-98 103 0 z" fill="#402A32"/>
		<path d="M2293 503l148 109c35 26 58 70 58 116 0 31-9 61-28 85l-108 146c-26 35-70 58-116 58-31 0-61-9-85-28l-148-110 77-228 202-148 z" fill="#F92F60"/>
		<path d="M2180 419l113 84-279 376-113-83 279-377 z" fill="#D3D3D3"/>
	</g></svg>
