<svg version="1.1" xmlns="http://www.w3.org/2000/svg"><g transform="scale(1,-1)">
		<path d="M2060-287l0 1c34 3 68 10 102 21 33 11 65 26 95 45 30 18 58 40 83 65 25 25 46 52 63 82 6 11 9 22 9 35 0 3 0 7-1 12l-4 16-7 14c-3 4-5 7-8 8l-332 168-180 344c-3 6-11 11-22 15-12 3-21 5-28 5-11 0-23-3-35-10-36-21-69-47-98-79-29-33-53-67-71-104-5-11-10-21-13-31l-12-32c-7-17-18-32-31-43-14-11-31-17-50-17l-25 5c-5 1-10 3-14 5-3 1-5 2-5 3l0 1c-116 69-218 149-307 240-89 91-169 193-240 307-9 13-13 28-13 44 0 20 6 37 17 50 11 13 25 24 42 31l32 12c11 3 21 8 31 13 37 18 72 42 104 71 32 29 58 62 79 98 7 12 10 24 10 35 0 3 0 7-1 12l-4 16-7 14c-3 4-5 7-8 8l-344 173-168 339c-1 3-4 5-8 8l-14 7-16 4c-5 1-9 1-12 1-11 0-23-3-35-10-30-17-58-39-84-66-27-27-49-56-68-88-19-32-34-66-45-101-11-36-17-71-17-106 0-95 8-188 24-281 16-93 40-183 71-270 31-88 69-173 114-254 45-81 96-158 154-230 58-73 122-140 193-202 71-62 147-117 229-166l0-1c127-77 263-135 406-176 166-48 300-61 469-61 z" fill="#F8312F"/>
		<path d="M2299-192c36 31 113 107 113 153 0 19-7 35-21 49l-512 514c-13 13-30 20-49 20-48 0-124-78-154-113l623-623 z M1118 990c35 29 114 105 114 154 0 19-7 36-20 49l-513 512c-13 13-30 20-50 20-46 0-121-75-153-113l622-622 z" fill="#BB1D80"/>
	</g></svg>
