<svg version="1.1" xmlns="http://www.w3.org/2000/svg"><g transform="scale(1,-1)">
		<path d="M2197 0l0 1581c0 81-67 144-144 144l-1222 0 0-1725 1366 0 z" fill="#86D72F"/>
		<path d="M2197-215l0 143-1510 0 0-143 1510 0 z" fill="#D3D3D3"/>
		<path d="M687-144c0 41 21 59 51 67 14 4 30 6 47 6l46-1 0 1797-108 0c-58 0-108-49-108-108l0-1761 72 0 z" fill="#44911B"/>
		<path d="M2089-287c46 0 86 29 101 72l-1431 0c-38 0-72 31-72 71 0 39 31 72 72 72l1438 0 0 72-1474 0c-58 0-108-49-108-108l0-71c0-58 49-108 108-108l1366 0 z" fill="#008463"/>
	</g></svg>
