<svg version="1.1" xmlns="http://www.w3.org/2000/svg"><g transform="scale(1,-1)">
		<path d="M869-252c64 0 117 51 117 116 0 24-7 46-21 66l-11 14-123 236-230 139c-4 3-9 9-14 12-20 16-46 24-71 24-65 0-116-52-116-116 0-31 10-58 31-80l353-374c22-22 53-37 85-37 z M1531-218c24 0 48 5 72 14l352 145c73 30 117 97 117 173 0 25-6 50-15 73l-82 201-123-50c13-35 86-198 86-224 0-23-14-42-33-50l-353-144 0-1c-6-3-13-4-21-4-23 0-41 13-50 34l-83 202-124-50 83-202c29-71 96-117 174-117 z" fill="#FFB02E"/>
		<path d="M958-60l1333 540c71 29 118 95 118 175 0 47-18 94-52 130l-830 881c-36 40-87 59-137 59-73 0-139-38-172-108l-617-1298 357-379 z" fill="#F9C23C"/>
	</g></svg>
