<svg version="1.1" xmlns="http://www.w3.org/2000/svg"><g transform="scale(1,-1)">
		<path d="M2340 887l0 483c0 37-29 68-67 68l-1303 0c-38 0-67-31-67-68l0-483 1437 0 z" fill="#321B41"/>
		<path d="M2277-287c19 0 36 4 53 11 16 7 30 16 43 28 12 12 22 26 29 43 7 16 10 33 10 52l0 1168c0 19-3 36-10 53-7 16-17 30-29 43-12 12-26 22-42 29-17 7-34 10-53 10l-81 0-575 144-383-96c-19-5-36-9-51-14-15-5-30-9-44-13-15-5-30-9-45-12l-52-9c-17-2-32-3-45-3l-20-1-20 1c-13 0-27 1-40 2-14 1-29 1-46 1l-341 0c-19 0-36-3-52-10-17-7-31-17-43-29-13-13-22-27-29-43-7-17-11-34-11-53l0-1167c0-19 4-36 11-52 7-17 16-31 29-43 12-13 26-22 43-29 16-7 33-11 52-11l1742 0 z" fill="#533566"/>
		<path d="M2197 1150l0 508c0 38-31 67-68 67l-1015 0c-37 0-67-28-67-67l0-508 1150 0 z" fill="#E6E6E6"/>
		<path d="M2161 791c58 0 107 47 107 108 0 59-49 107-107 107-60 0-108-49-108-107 0-63 50-108 108-108 z M723-215c138 0 252 110 252 251l0 1006c0 139-113 252-252 252-138 0-251-111-251-252l0-1006c0-138 108-251 251-251 z" fill="#636363"/>
		<path d="M723-144c98 0 180 78 180 180l0 1006c0 98-78 180-180 180-98 0-180-78-180-180l0-1006c0-98 78-180 180-180 z" fill="#321B41"/>
		<path d="M1801 791c57 0 108 46 108 108 0 58-47 107-108 107l-575 0c-58 0-108-47-108-107 0-58 49-108 108-108l575 0 z" fill="#00F397"/>
		<path d="M1801-144c-58 0-108 49-108 108 0 58 49 108 108 108 57 0 108-46 108-108 0-58-49-108-108-108 z M1514-144c58 0 108 49 108 108 0 58-49 108-108 108-61 0-108-48-108-108 0-58 49-108 108-108 z M1226-144c-58 0-108 49-108 108 0 58 49 108 108 108 57 0 108-46 108-108 0-58-49-108-108-108 z M1801 144c57 0 108 46 108 108 0 58-49 108-108 108-58 0-108-49-108-108 0-58 49-108 108-108 z M1514 144c-63 0-108 50-108 108 0 58 49 108 108 108 58 0 108-49 108-108 0-58-49-108-108-108 z M1226 144c57 0 108 46 108 108 0 58-49 108-108 108-58 0-108-49-108-108 0-58 49-108 108-108 z M1801 431c-58 0-108 49-108 108 0 58 49 108 108 108 57 0 108-46 108-108 0-58-49-108-108-108 z M1514 431c58 0 108 49 108 108 0 58-49 108-108 108-61 0-108-48-108-108 0-58 49-108 108-108 z M1226 431c58 0 108 49 108 108 0 57-46 108-108 108-58 0-108-49-108-108 0-58 49-108 108-108 z" fill="#9B9B9B"/>
		<path d="M2233-144c19 0 35 15 35 36 0 21-16 36-35 36l-144 0c-19 0-36-15-36-36 0-19 15-36 36-36l144 0 z M2233 0c19 0 35 15 35 36 0 21-16 36-35 36l-144 0c-19 0-36-15-36-36 0-19 15-36 36-36l144 0 z M2233 144c19 0 35 15 35 36 0 21-16 36-35 36l-144 0c-19 0-36-15-36-36 0-19 15-36 36-36l144 0 z M2233 288c19 0 35 15 35 36 0 21-16 36-35 36l-144 0c-19 0-36-15-36-36 0-19 15-36 36-36l144 0 z M2233 431c19 0 35 15 35 36 0 21-16 36-35 36l-144 0c-19 0-36-15-36-36 0-19 15-36 36-36l144 0 z M2233 575c19 0 35 15 35 36 0 21-16 36-35 36l-144 0c-19 0-36-15-36-36 0-19 15-36 36-36l144 0 z" fill="#635994"/>
	</g></svg>
