<svg version="1.1" xmlns="http://www.w3.org/2000/svg"><g transform="scale(1,-1)">
		<path d="M1993-283c128 0 231 103 231 231l0 355c0 128-103 231-231 231l-1147 0c-128 0-231-103-231-231l0-355c0-128 103-231 231-231l1147 0 z" fill="#9B9B9B"/>
		<path d="M1420-165c107 0 204 48 266 124 18 23 33 50 66 50l241 0c128 0 231 103 231 230l0 743c0 124-104 231-232 231l-1146 0c-128 0-231-103-231-231l0-743c0-128 103-230 231-230l241 0c32 0 47-24 66-49 53-73 166-125 267-125 z" fill="#E6E6E6"/>
		<path d="M1419 13c88 0 140 55 166 129 9 25 25 43 54 43l221 0c96 0 178 78 178 177l0 490c0 99-81 177-178 177l-882 0c-96 0-178-78-178-177l0-490c0-99 82-177 178-177l221 0c29 0 45-18 54-43 26-75 78-129 166-129 z" fill="#00A6ED"/>
		<path d="M1420 669c15 0 28 6 38 17l288 317c9 10 13 21 13 34 0 15-3 27-10 34-7 7-16 12-27 15-11 2-22 3-34 3l-17-1-17 1c-11 0-19 1-26 4-7 2-11 7-11 16l0 511c0 9-3 17-9 24-7 6-15 9-24 9l-329 0c-9 0-17-3-24-9-7-7-10-15-10-24l0-511c0-9-3-14-10-16-7-3-16-4-27-4l-17-1-17 1c-12 0-23-1-34-3-11-3-19-8-26-15-7-7-11-19-11-34 0-12 5-23 14-34l289-317c10-11 23-17 38-17 z" fill="#F92F60"/>
	</g></svg>
