<svg version="1.1" xmlns="http://www.w3.org/2000/svg" viewBox="0 0 2300 2300"><g transform="scale(1,-1) translate(-256, -1869)">
		<path d="M1897 485l72 2-23 740c-1 21-15 35-37 35-20 0-650-156-727-175l17-70 622 151-288-377 57-44 288 377 19-639 z" fill="#636363"/>
		<path d="M1760-211c-3 7-8 14-15 19l-393 322-114 220-152 46-73-36c-101 0-182-88-182-190l0-381 929 0 z M1605 231c159 0 291 85 390 198l-861 649c-60-90-103-196-103-312 0-297 321-535 574-535 z" fill="#D3D3D3"/>
		<path d="M1047 72c-39 0-72 31-72 72 0 39 31 72 72 72 40 0 71-34 71-72 0-38-31-72-71-72 z M1758-287l-991 0c-40 0-80 28-80 72 0 44 40 71 80 71l992 0c39 0 78-27 78-71 0-44-38-72-79-72 z M1352 130l94 127-328 246-109-143c40 0 80-12 110-39l233-191 z M2008 401c39 0 72 30 72 71 0 23-10 45-28 58l-862 649c-13 9-27 14-42 14-39 0-73-31-73-72 0-23 10-42 29-57l861-649c13-9 27-14 43-14 z M1889 1097c81 0 145 67 145 144 0 81-67 144-144 144-79 0-144-63-144-144 0-80 64-144 143-144 z" fill="#9B9B9B"/>
		<path d="M2115 1186c43 0 46 74 46 104 0 136-107 256-246 256-30 0-114-9-114-53 0-19 16-36 37-36 20 0 46 17 78 17 98 0 173-88 173-184 0-23-10-45-10-67 0-19 14-37 36-37 z M2254 1114c17 0 29 11 34 27 15 51 23 108 23 159 0 89-29 167-87 233-74 83-188 148-298 148-31 0-125-11-125-55 0-21 17-37 36-37 18 0 48 20 88 20 22 0 45-3 68-10 141-41 247-160 247-300 0-48-10-93-21-140l-1-9c0-19 15-36 36-36 z" fill="#1C5CD7"/>
	</g></svg>
