<svg version="1.1" xmlns="http://www.w3.org/2000/svg"><g transform="scale(1,-1)">
		<path d="M1993-283c128 0 231 103 231 231l0 355c0 128-103 231-231 231l-1147 0c-128 0-231-103-231-231l0-355c0-128 103-231 231-231l1147 0 z" fill="#9B9B9B"/>
		<path d="M1420-165c107 0 204 48 266 124 18 23 33 50 66 50l241 0c128 0 231 103 231 230l0 743c0 124-104 231-232 231l-1146 0c-128 0-231-103-231-231l0-743c0-128 103-230 231-230l241 0c32 0 47-24 66-49 53-73 166-125 267-125 z" fill="#E6E6E6"/>
		<path d="M1419 13c88 0 140 55 166 129 9 25 25 43 54 43l221 0c96 0 178 78 178 177l0 490c0 99-81 177-178 177l-882 0c-96 0-178-78-178-177l0-490c0-99 82-177 178-177l221 0c29 0 45-18 54-43 26-75 78-129 166-129 z" fill="#00A6ED"/>
		<path d="M1584 741c9 0 17 3 24 10 6 7 9 15 9 24l0 510c0 9 4 14 11 17 7 2 15 3 26 4 11 0 22 0 34-1l9 0c9 0 17 1 25 3 11 3 20 8 27 15 7 7 10 18 10 34 0 15-4 26-13 35l-288 316c-10 11-23 17-38 17-15 0-28-6-38-17l-289-316c-9-11-14-22-14-35 0-15 4-27 11-34 7-7 15-12 26-14 8-2 17-3 25-3l43 0c11-1 20-2 27-4 7-3 10-8 10-17l0-510c0-9 3-17 10-24 7-7 15-10 24-10l329 0 z" fill="#F92F60"/>
	</g></svg>
