<svg version="1.1" xmlns="http://www.w3.org/2000/svg" viewBox="0 0 2300 2300"><g transform="scale(1,-1) translate(-256, -1869)">
		<path d="M2483-287l1 1 0 1578-1 2-2154 0-1-2 0-1578 1-1 2154 0 z" fill="#B4ACBC"/>
		<path d="M2411-144l1 1 0 1292-1 1-2010 0-1-1 0-1292 1-1 2010 0 z" fill="#CDC4D6"/>
		<path d="M2411-215l1 1 0 185-932 560c-23 13-47 20-74 20-27 0-51-7-74-20l-932-560 0-185 1-1 2010 0 z" fill="#E1D8EC"/>
		<path d="M1406 383c40 0 77 10 111 31l895 537 0 127-2012 0 0-127 895-537c34-21 71-31 111-31 z" fill="#998EA4"/>
		<path d="M1406 456c27 0 51 7 74 20l932 559 0 186-1 1-2010 0-1-1 0-186 932-559c23-13 47-20 74-20 z" fill="#F3EEF8"/>
		<path d="M1420 669c15 0 28 6 38 17l288 317c9 10 13 21 13 34 0 15-3 27-10 34-7 7-16 12-27 15-11 2-22 3-34 3l-17-1-17 1c-11 0-19 1-26 4-7 2-11 7-11 16l0 511c0 9-3 17-9 24-7 6-15 9-24 9l-329 0c-9 0-17-3-24-9-7-7-10-15-10-24l0-511c0-9-3-14-10-16-7-3-16-4-27-4l-17-1-17 1c-12 0-23-1-34-3-11-3-19-8-26-15-7-7-11-19-11-34 0-12 5-23 14-34l289-317c10-11 23-17 38-17 z" fill="#F92F60"/>
	</g></svg>
