<svg version="1.1" xmlns="http://www.w3.org/2000/svg" viewBox="0 0 2300 2300"><g transform="scale(1,-1) translate(-256, -1869)">
		<path d="M1396 611l852 573c0 23-13 43-31 54l-784 477c-11 7-23 10-37 10-14 0-26-3-37-10l-785-478c-23-13-31-31-31-60l853-566 z" fill="#F3C07B"/>
		<path d="M1393-286c5 0 26 2 30 5l765 465c39 23 60 65 60 106l0 887c0 12-11 24-24 24-10 0-773-461-828-500-30-21-42-39-69-66l-137-132 173-781-1 0c9-5 20-8 31-8 z" fill="#FFCE7C"/>
		<path d="M1374-281c12 0 22 9 22 21l0 961c-68 42-813 500-829 500-12 0-24-10-24-24l0-887c0-42 22-84 60-107l760-461c3-2 6-3 11-3 z" fill="#E19747"/>
		<path d="M1278-76c10 0 20 10 20 20l0 141c0 16-7 32-22 40l-201 122c-2 1-5 2-10 2-11 0-21-10-21-20l0-141c0-16 7-32 22-40l201-121c3-2 6-3 11-3 z" fill="#D3D3D3"/>
		<path d="M1079 657c12 0 22 10 22 22l0 328-236 16 0-227c0-9 4-15 11-19 24-16 186-120 203-120 z" fill="#8C5543"/>
		<path d="M1101 879l853 518-236 144-853-518 236-144 z" fill="#A56953"/>
	</g></svg>
