<svg version="1.1" xmlns="http://www.w3.org/2000/svg" viewBox="0 0 2300 2300"><g transform="scale(1,-1) translate(-256, -1869)">
		<path d="M1464-290l0 477-166 101-192-101 0-477 358 0 z" fill="#7D4533"/>
		<path d="M2230 172l2 1 0 773c0 231-187 420-420 420l-993 0 228-1194 1183 0 z" fill="#5092FF"/>
		<path d="M1237 172l1 1 0 773c0 232-186 420-419 420-224 0-419-178-419-420l0-773 1-1 836 0 z" fill="#3F5FFF"/>
		<path d="M1131 244c19 0 36 15 36 36l0 666c0 192-156 348-348 348-191 0-347-153-347-348l0-666c0-19 15-36 36-36l623 0 z" fill="#321B41"/>
		<path d="M2354 431c36 0 58 31 58 63l0 378c0 32-22 63-58 63l-171 0c-36 0-58-31-58-63l0-378c0-32 22-63 58-63l171 0 z" fill="#F92F60"/>
		<path d="M1580 730c64 0 120 35 151 87l640 0c49 0 86 39 86 87 0 46-35 87-86 87l-640 0c-31 52-87 87-151 87-96 0-174-77-174-174 0-96 77-174 174-174 z" fill="#D3D3D3"/>
	</g></svg>
