<svg version="1.1" xmlns="http://www.w3.org/2000/svg" viewBox="0 0 2300 2300"><g transform="scale(1,-1) translate(-256, -1869)">
		<path d="M2340-359c79 0 144 63 144 144l0 1581c0 81-67 144-144 144l-1653 0c-81 0-144-67-144-144-119 0-215-97-215-216l0-1294c0-120 97-215 215-215l1797 0 z" fill="#B4ACBC"/>
		<path d="M2376-287c-58 0-108 49-108 108l0 1329c0 80-64 144-143 144l-1582 0c-80 0-143-65-143-144l0-1294c0-80 62-143 143-143l1833 0 z" fill="#F3EEF8"/>
		<path d="M1334-72l-647 0c-81 0-144 67-144 144l0 431c0 81 67 144 144 144l647 0c81 0 144-67 144-144l0-431c0-81-67-144-144-144 z M2089-72c19 0 36 15 36 36 0 19-15 36-36 36l-431 0c-19 0-36-15-36-36 0-19 15-36 36-36l431 0 z M2089 144l-431 0c-19 0-36 15-36 36 0 19 15 36 36 36l431 0c19 0 36-15 36-36 0-19-15-36-36-36 z M2089 360c19 0 36 15 36 36 0 18-17 35-36 35l-431 0c-19 0-36-17-36-35 0-19 15-36 36-36l431 0 z M2089 575l-431 0c-19 0-36 15-36 36 0 19 15 36 36 36l431 0c19 0 36-15 36-36 0-19-15-36-36-36 z M2089 791c19 0 36 15 36 36 0 19-15 36-36 36l-1510 0c-18 0-36-17-36-36 0-18 17-36 36-36l1510 0 z M2053 1006c38 0 72 33 72 72 0 39-31 72-72 72l-1438 0c-39 0-72-34-72-72 0-38 33-72 72-72l1438 0 z" fill="#998EA4"/>
	</g></svg>
