<svg version="1.1" xmlns="http://www.w3.org/2000/svg"><g transform="scale(1,-1)">
		<path d="M1837 863l-1078 0-72 287 863 0c156 0 287-125 287-287 z M1981-287l-1078 0c-80 0-144 64-144 143l0 144 455 48c76 8 151 24 228 24 77 0 152-16 228-24l455-48 0-144c0-80-65-143-144-143 z M2340 288l-72 0-71 287 71 288 72 0c39 0 72-31 72-72l0-431c0-39-31-72-72-72 z M472 719c37 0 71 18 71 62 0 40 69 170 69 225 0 39-69 192-69 226 0 34-25 62-61 62-44 0-82-22-82-72l0-431c0-39 31-72 72-72 z" fill="#635994"/>
		<path d="M1298-144l-72 0c-19 0-36 18-36 36 0 19 15 36 36 36l72 0c19 0 36-15 36-36 0-19-18-36-36-36 z M2125 0l0 863-1366 0 0-863 1366 0 z M651 791c57 0 108 46 108 108l0 215c0 57-46 108-108 108l-108 0 0-431 108 0 z" fill="#BEBEBE"/>
		<path d="M1586-144c18 0 36 17 36 36 0 18-17 36-36 36-19 0-36-15-36-36 0-19 18-36 36-36 z" fill="#CA0B4A"/>
		<path d="M1693 144c20 0 37 7 51 21 14 14 21 31 21 51l0 144 55 0c13 0 26 2 38 5 15 4 27 11 37 21 9 10 14 25 14 45l0 72c0 16-3 29-9 39-7 9-15 17-25 22-10 5-21 8-34 9-13 1-25 2-38 2l-38 0 0 144c0 20-7 37-21 51-14 14-31 21-51 21l-718 0c-20 0-37-7-51-21-14-14-21-31-21-51l0-503c0-20 7-37 21-51 14-14 31-21 51-21l718 0 z M2268 288l0 575-143 0 0-575 143 0 z" fill="#E6E6E6"/>
		<path d="M1550 288c38 0 72 33 72 72l0 215c0 39-34 72-72 72l-432 0c-40 0-71-34-71-72l0-215c0-38 31-72 71-72l432 0 z" fill="#321B41"/>
	</g></svg>
