<svg version="1.1" xmlns="http://www.w3.org/2000/svg" viewBox="0 0 2300 2300"><g transform="scale(1,-1) translate(-256, -1869)">
		<path d="M2125-287c156 0 287 125 287 287l0 1438c0 156-125 287-287 287l-1438 0c-156 0-287-125-287-287l0-1438c0-161 130-287 287-287l1438 0 z" fill="#00A6ED"/>
		<path d="M840-72c36 0 63 29 63 63l0 377c0 34-27 63-63 63l-161 0c-34 0-64-26-64-62l0-377c0-35 27-64 64-64l161 0 z M1271-72c34 0 64 28 64 63l0 808c0 34-28 64-63 64l-162 0c-35 0-63-30-63-64l0-807c0-34 28-64 63-64l161 0 z M1702-72c36 0 63 29 63 63l0 1168c0 34-26 63-62 63l-162 0c-36 0-63-29-63-63l0-1167c0-34 26-64 62-64l162 0 z M2133-72c34 0 64 28 64 63l0 1455c0 34-28 64-63 64l-162 0c-35 0-63-30-63-64l0-1454c0-34 28-64 63-64l161 0 z" fill="#FFFFFF"/>
	</g></svg>
