<svg version="1.1" xmlns="http://www.w3.org/2000/svg" viewBox="0 0 2300 2300"><g transform="scale(1,-1) translate(-256, -1869)">
		<path d="M2090-241c55 0 99 44 99 98l0 99-197 0 0-99c0-55 43-98 98-98 z M714-241c55 0 98 43 98 98l0 99-197 0 0-99c0-53 44-98 99-98 z" fill="#212121"/>
		<path d="M829 1213l1245 246c14-14 31-21 51-21 39 0 72 34 72 72 0 40-34 71-72 71-33 0-62-20-70-53l-1240-244 14-71 z" fill="#9B9B9B"/>
		<path d="M748 1017c82 0 146 67 146 147 0 79-63 146-146 146-79 0-147-62-147-146 0-80 64-147 147-147 z" fill="#D3D3D3"/>
		<path d="M2224-95c104 0 189 84 189 189l0 882c0 101-84 188-189 188l-1635 0c-104 0-189-84-189-189l0-881c0-104 84-189 189-189l1635 0 z" fill="#9B9B9B"/>
		<path d="M2148 432c49 0 86 42 86 86l0 348c0 49-42 86-86 86l-566 0c-49 0-86-42-86-86l0-348c0-49 42-86 86-86l566 0 z" fill="#83CBFF"/>
		<path d="M1742 433l0 241c0 31-27 57-57 57-30 0-57-26-57-57l0-241 114 0 z" fill="#F8312F"/>
		<path d="M1322 131c26 0 49 22 49 49 0 26-22 49-49 49l-694 0c-26 0-49-22-49-49 0-26 22-49 49-49l694 0 z M1322 311c26 0 49 22 49 49 0 29-22 49-49 49l-694 0c-26 0-49-22-49-49 0-26 22-49 49-49l694 0 z M1322 493c26 0 49 21 49 48 0 26-22 49-49 49l-694 0c-26 0-49-22-49-49 0-27 23-48 49-48l694 0 z M1322 673c26 0 49 22 49 49 0 26-22 49-49 49l-694 0c-26 0-49-22-49-49 0-26 22-49 49-49l694 0 z M1322 854c26 0 49 22 49 49 0 26-22 49-49 49l-694 0c-26 0-49-22-49-49 0-26 22-49 49-49l694 0 z" fill="#212121"/>
		<path d="M2079 132c51 0 90 39 90 90 0 50-41 89-90 89-50 0-89-39-89-89 0-49 39-90 89-90 z M1678 132c51 0 90 39 90 90 0 50-41 89-90 89-50 0-89-39-89-89 0-49 39-90 89-90 z" fill="#F4F4F4"/>
	</g></svg>
