<svg version="1.1" xmlns="http://www.w3.org/2000/svg" viewBox="0 0 2300 2300"><g transform="scale(1,-1) translate(-256, -1869)">
		<path d="M2197-215c120 0 215 97 215 215l0 1006c0 121-97 216-215 216l-1582 0c-119 0-215-97-215-216l0-1006c0-120 97-215 215-215l1582 0 z" fill="#635994"/>
		<path d="M2197-287c120 0 215 97 215 215l0 216c0-121-97-216-215-216l-1582 0c-119 0-215 97-215 216l0-216c0-120 97-215 215-215l1582 0 z M1467 863c18 0 29 14 29 30 0 12-37 75-60 114-21 33-25 35-39 35-9 0-16-3-21-9-13-16-78-126-78-140 0-16 11-30 29-30l140 0 z" fill="#433B6B"/>
		<path d="M2197 216c40 0 71 34 71 72l0 431c0 38-31 72-71 72l-360 0c-39 0-72-31-72-72l0-431c0-39 31-72 72-72l360 0 z M975 216c38 0 72 33 72 72l0 431c0 39-34 72-72 72l-360 0c-38 0-72-33-72-72l0-431c0-39 34-72 72-72l360 0 z" fill="#321B41"/>
		<path d="M2087 216c73 81 110 186 110 287 0 110-40 211-110 288l-250 0c-39 0-72-31-72-72l0-431c0-39 31-72 72-72l250 0 z M975 216c38 0 72 33 72 72l0 431c0 39-34 72-72 72l-250 0c-70-77-110-178-110-288 0-101 37-206 110-287l250 0 z" fill="#F4F4F4"/>
		<path d="M1813 220c139 24 240 141 240 283 0 138-98 259-240 284-27-10-48-37-48-68l0-431c0-30 18-57 48-68 z M998 220c29 11 49 37 49 68l0 431c0 31-22 58-49 68-140-24-239-147-239-284 0-137 98-258 239-283 z" fill="#533566"/>
		<path d="M1622 216c40 0 71 34 71 72l0 431c0 38-31 72-71 72l-432 0c-38 0-72-33-72-72l0-431c0-39 34-72 72-72l432 0 z" fill="#FFFFFF"/>
		<path d="M1586 360c19 0 36 18 36 36 0 18-17 35-36 35l-360 0c-19 0-36-17-36-35 0-19 15-36 36-36l360 0 z M1586 503c18 0 36 17 36 36 0 18-17 36-36 36l-360 0c-19 0-36-15-36-36 0-19 15-36 36-36l360 0 z M1765 360l0 287c81 0 144-67 144-144 0-80-65-143-144-143 z M1047 360l0 287c-79 0-144-63-144-144 0-80 65-143 144-143 z" fill="#D3D3D3"/>
		<path d="M1693 647l0 72c0 38-31 72-71 72l-432 0c-38 0-72-33-72-72l0-72 575 0 z" fill="#F70A8D"/>
	</g></svg>
