<svg version="1.1" xmlns="http://www.w3.org/2000/svg" viewBox="0 0 2300 2300"><g transform="scale(1,-1) translate(-256, -1869)">
		<path d="M2125-287c156 0 287 125 287 287l0 1438c0 156-125 287-287 287l-1438 0c-156 0-287-125-287-287l0-1438c0-161 130-287 287-287l1438 0 z" fill="#FF9F2E"/>
		<path d="M1693 72c79 0 144 63 144 144l0 1006c0 81-67 144-144 144l-575 0c-80 0-143-65-143-144l0-1006c0-80 64-144 143-144l575 0 z M2085 286c-19 0-36 18-36 36 0 9 4 17 9 24 94 135 139 224 139 384 0 148-41 234-122 363-5 7-7 14-7 22 0 21 16 36 35 36 11 0 21-5 29-14 86-92 137-277 137-407 0-138-54-325-156-430-8-8-17-14-28-14 z M1949 503c11 0 20 6 27 13 50 50 75 145 75 208 0 49-11 104-37 154-14 27-33 56-58 56-18 0-35-17-35-36 0-16 58-93 58-174 0-104-67-161-67-185 0-21 19-36 37-36 z M867 503c18 0 37 15 37 36 0 23-67 85-67 185 0 82 58 158 58 174 0 19-17 36-35 36-11 0-21-5-29-14-46-48-66-133-66-196 0-65 27-160 75-208 7-7 16-13 27-13 z M731 286c19 0 36 18 36 36 0 9-4 17-9 24-94 135-139 224-139 384 0 148 41 234 122 363 5 7 7 14 7 22 0 21-16 36-35 36-11 0-21-5-29-14-86-92-137-277-137-407 0-143 57-331 156-430 9-9 19-14 28-14 z M1709 256l-602 0c-11 0-18 7-18 18l0 887c0 11 7 18 18 18l602 0c11 0 18-7 18-18l0-887c0-11-7-18-18-18 z" fill="#FFFFFF"/>
	</g></svg>
