<svg version="1.1" xmlns="http://www.w3.org/2000/svg"><g transform="scale(1,-1)">
		<path d="M1165 227c23 0 44 4 64 13 20 9 38 21 53 36 15 15 26 32 35 52 9 20 13 41 13 64 0 23-4 44-13 64-9 20-20 38-35 53-15 15-33 26-53 35-20 9-41 13-64 13-17 0-33-3-49-8-17-5-32-13-45-22 9 13 17 28 22 45 5 16 7 32 7 49 0 23-4 44-13 64-9 20-20 38-35 53-15 15-32 26-52 35-20 9-41 13-64 13-7 0-12 0-15-1 29 13 53 34 70 61 17 27 25 57 25 89 0 32-8 61-25 88-17 27-39 47-68 60 24 0 47 4 69 12 21 7 40 18 56 32 16 14 29 31 38 52 9 20 14 43 14 68 0 35-10 66-29 95 13-10 28-17 45-22 16-5 32-8 49-8 23 0 44 4 64 13 20 9 38 21 53 36 15 15 26 32 35 52 9 20 13 41 13 64l0 7c0 2 0 4-1 6 14-29 34-51 61-68 27-17 56-26 88-26 19 0 39 4 59 11 4-31 16-60 35-85-23-1-45-6-65-15-21-10-39-23-54-38-15-16-27-34-36-55-9-21-13-43-13-66 0-23 4-44 12-64 8-21 19-39 34-54 14-15 31-28 51-38 19-10 40-16 63-17-19-30-28-62-28-96 0-24 5-46 14-67 9-21 21-40 37-56 16-16 35-28 56-37 21-9 43-14 67-14 13 0 26 2 39 5 13 3 25 8 37 13-9-20-13-42-13-67 0-29 6-56 19-81-8 1-17 2-25 2-16 0-33-3-48-8-23-9-44-21-61-37-18-17-32-36-43-59-11-23-16-46-16-71 0-24 5-46 14-67 9-21 21-40 37-56 16-16 35-28 56-37 21-9 43-14 67-14 24 0 47 5 68 14 21 9 39 21 55 37 15 16 28 35 37 56 9 21 13 43 13 67 0 29-6 56-19 81 8-1 16-2 24-2 17 0 33 3 49 9 23 8 44 20 62 37 17 16 31 35 42 58 11 22 16 46 16 71 0 24-4 47-13 68-9 21-22 39-38 55-16 16-34 29-55 38-21 9-44 13-68 13-27 0-52-6-75-18 9 23 13 45 13 67 0 23-4 44-12 65-9 20-20 38-34 54-15 15-32 28-51 38-20 9-41 15-64 17 19 29 29 60 29 95 0 19-3 38-10 57-7 18-16 35-27 50 23 1 45 6 66 15 21 9 39 22 54 37 15 15 27 34 36 55 9 21 13 43 13 66 0 24-4 47-13 68-9 21-22 39-38 55-16 16-34 29-55 38-21 9-44 13-68 13-24 0-47-5-70-14-3 20-10 38-19 55-10 17-22 31-37 43-15 12-31 22-49 29-18 7-37 10-57 10-23 0-44-4-64-13-20-9-37-20-52-35-15-15-27-32-36-52-9-20-13-41-13-64 0-6 0-11 1-14-14 29-34 52-61 69-27 17-56 25-88 25-23 0-44-4-63-13-20-9-37-20-52-35-15-15-27-33-36-52-9-20-13-41-13-64 0-35 10-66 29-95-13 10-28 18-44 23-17 5-33 7-50 7-23 0-44-4-64-13-20-9-37-20-52-35-15-15-27-33-36-53-9-20-13-41-13-64 0-32 9-61 26-88 17-27 39-47 68-60-24 0-47-4-68-11-22-8-41-19-57-33-17-14-30-31-39-51-9-21-14-44-14-69 0-23 4-44 13-64 9-20 21-37 36-52 15-15 32-27 52-36 20-9 41-13 64-13 7 0 12 0 15 1-29-13-53-34-70-61-17-27-26-57-26-89 0-23 4-44 13-64 9-20 21-37 36-52 15-15 32-26 52-35 20-9 41-13 64-13 17 0 33 3 50 8 16 5 31 12 44 21-9-13-16-28-21-44-5-17-8-33-8-50 0-23 4-44 13-64 9-20 20-37 35-52 15-15 32-27 52-36 20-9 41-13 64-13 z" fill="#FFCE7C"/>
		<path d="M1709-287c43 0 74 49 74 88 0 17-4 32-13 46l-208 336-173 0-208-337c-9-13-13-29-13-47 0-45 34-86 81-86 56 0 60 61 113 61 56 0 60-61 113-61 56 0 60 61 113 61 60 0 55-61 121-61 z" fill="#F8312F"/>
		<path d="M1476 130c96 0 174 77 174 174 0 96-77 173-174 173-96 0-174-77-174-173 0-96 77-174 174-174 z" fill="#FFB02E"/>
	</g></svg>
