<svg version="1.1" xmlns="http://www.w3.org/2000/svg"><g transform="scale(1,-1)">
		<path d="M1397 136c324 0 591 263 591 592 0 324-263 591-591 591-329 0-592-267-592-591 0-328 265-592 592-592 z M1994 1210c75 0 137 59 137 137 0 73-58 137-137 137-77 0-137-61-137-137 0-78 62-137 137-137 z M2256 607c75 0 138 60 138 137 0 75-62 137-138 137-77 0-137-61-137-137 0-78 62-137 137-137 z M2016-6c75 0 137 59 137 137 0 73-58 137-137 137-77 0-137-61-137-137 0-78 62-137 137-137 z M1412-269c73 0 138 59 138 138 0 73-60 137-138 137-75 0-137-62-137-137 0-73 59-138 137-138 z M800-29c74 0 137 60 137 138 0 73-58 137-137 137-77 0-137-61-137-137 0-76 60-138 137-138 z M537 575c75 0 137 62 137 137 0 75-60 138-137 138-77 0-137-63-137-138 0-75 62-137 137-137 z M778 1188c75 0 137 59 137 137 0 73-58 137-137 137-79 0-138-64-138-137 0-76 62-137 138-137 z M1397 352c-207 0-376 167-376 376 0 207 167 376 376 376 207 0 376-167 376-376 0-207-167-376-376-376 z M1381 1451c75 0 137 59 137 137 0 73-58 137-137 137-77 0-137-61-137-137 0-78 62-137 137-137 z" fill="#FFB02E"/>
	</g></svg>
