<svg version="1.1" xmlns="http://www.w3.org/2000/svg"><g transform="scale(1,-1)">
		<path d="M2125-287c156 0 287 125 287 287l0 1438c0 156-125 287-287 287l-1438 0c-156 0-287-125-287-287l0-1438c0-161 130-287 287-287l1438 0 z" fill="#00A6ED"/>
		<path d="M960 73c28 0 30 25 30 47 0 19-2 35-2 54 0 19 1 44 27 44l709 0c211 0 401 168 401 398l0 224c0 15-12 27-26 27-6 0-12-2-18-7l-161-148c-5-5-8-11-8-18l0-77c0-104-83-188-189-188l-709 2c-26 0-27 26-27 45 0 19 2 36 2 55 0 19-1 46-29 46-7 0-14-3-19-8l-244-224c-7-7-10-14-10-21 0-8 3-15 10-20l244-223c5-5 12-8 19-8 z M713 569c6 0 12 2 18 7l161 148c5 5 8 11 8 18l0 79c0 101 84 189 188 189l709-2c26 0 28-26 28-45 0-19-2-36-2-55 0-21 3-46 30-46 7 0 13 2 18 7l244 224c7 5 10 12 10 21 0 9-3 16-10 21l-244 223c-5 5-12 8-19 8-27 0-30-25-30-47 0-19 2-37 2-56 0-18-1-43-27-43l-709 0c-222 0-401-177-401-398l0-226c0-15 12-27 26-27 z" fill="#FFFFFF"/>
	</g></svg>
