<svg version="1.1" xmlns="http://www.w3.org/2000/svg"><g transform="scale(1,-1)">
		<path d="M2125-287c156 0 287 125 287 287l0 1438c0 156-125 287-287 287l-1438 0c-156 0-287-125-287-287l0-1438c0-161 130-287 287-287l1438 0 z" fill="#00A6ED"/>
		<path d="M957 36c128 0 233 105 233 234 0 127-104 233-233 233-127 0-234-103-234-233 0-127 103-234 234-234 z M963 128c-19 0-36 15-36 36l0 196c-24 0-45 8-45 36 0 19 17 36 35 36l46 0c18 0 35-17 35-36l0-232c0-19-17-36-35-36 z M1724 218c211 0 401 168 401 398l0 224c0 15-12 27-26 27-6 0-12-2-18-7l-161-148c-5-5-8-11-8-18l0-77c0-104-83-188-189-188l-434 1c-11 0-18-9-18-20l1-7c20-76 27-67 27-164 0-11 7-21 19-21l406 0 z M709 509c5 0 9 2 14 5 45 32 76 60 126 77 15 5 51 7 51 28l0 202c0 101 84 189 188 189l709-2c26 0 28-26 28-45 0-19-2-36-2-55 0-21 3-46 30-46 7 0 13 2 18 7l244 224c7 5 10 12 10 21 0 9-3 16-10 21l-244 223c-5 5-12 8-19 8-28 0-30-26-30-47 0-19 2-36 2-55 0-18-1-44-27-44l-709 0c-222 0-401-177-401-398l0-294c0-12 11-19 22-19 z" fill="#FFFFFF"/>
	</g></svg>
