<svg version="1.1" xmlns="http://www.w3.org/2000/svg"><g transform="scale(1,-1)">
		<path d="M1400 196c293 0 530 238 530 529 0 293-235 530-530 530-291 0-530-238-530-530 0-293 236-529 530-529 z M1892 1109c-59 0-107 48-107 108 0 28 11 56 31 76l139 139c20 20 48 31 76 31 59 0 107-49 107-107 0-28-11-56-31-76l-138-139c-19-19-48-32-77-32 z M2292 617c58 0 108 49 108 108 0 58-49 108-108 108l-196 0c-58 0-108-49-108-108 0-58 49-108 108-108l196 0 z M2031-14c-28 0-56 11-76 31l-139 139c-19 19-32 48-32 77 0 58 47 107 108 107 28 0 57-11 77-31l138-139c21-21 31-46 31-77 0-59-49-107-107-107 z M1400-275c58 0 108 49 108 108l0 196c0 57-46 108-108 108-58 0-108-49-108-108l0-196c0-58 49-108 108-108 z M769-14c-60 0-108 47-108 107 0 30 12 57 32 77l139 139c20 20 48 31 76 31 58 0 107-47 107-108 0-28-11-56-31-76l-139-139c-20-20-48-31-76-31 z M704 617c58 0 108 49 108 108 0 58-49 108-108 108l-196 0c-58 0-108-49-108-108 0-58 49-108 108-108l196 0 z M908 1109c-28 0-56 12-76 32l-139 139c-21 21-32 47-32 76 0 59 49 107 108 107 28 0 56-11 76-31l139-139c20-20 31-48 31-76 0-58-47-108-107-108 z M1400 411c-173 0-314 140-314 314 0 173 140 314 314 314 173 0 314-140 314-314 0-173-140-314-314-314 z M1400 1313c58 0 108 49 108 108l0 196c0 58-49 108-108 108-58 0-108-49-108-108l0-196c0-58 49-108 108-108 z" fill="#FFB02E"/>
	</g></svg>
