<svg version="1.1" xmlns="http://www.w3.org/2000/svg"><g transform="scale(1,-1)">
		<path d="M1765-287c121 0 216 97 216 215l0 935c0 119-97 215-216 215l-143 0-72 72-108-72-503 0-72 72-108-72-144 0c-120 0-215-97-215-215l0-935c0-120 97-215 215-215l1150 0 z" fill="#F9C23C"/>
		<path d="M1190 36c57 0 108 46 108 108l0 251c44 34 72 85 72 144 0 98-78 180-180 180-98 0-179-79-179-180 0-59 28-110 72-144l0-251c0-57 45-108 107-108 z" fill="#433B6B"/>
		<path d="M2042-277c11 7 20 17 27 28l20 34 233 431c5 9 10 21 13 35 3 14 5 26 5 37l0 431-647 0 0-431c0-11 2-23 5-37 3-14 8-26 13-35l234-431c6-11 13-22 20-33 7-11 16-21 26-29l-1 3c0 2 1 5 3 9l9 18 10 18c3 6 5 11 5 14 0-3 1-8 4-13l18-34c3-5 4-9 4-12 0-1 0-2-1-3 z M1622 1078l0 216c0 237-192 431-432 431-234 0-431-190-431-431l0-216 180 0 0 216c0 138 110 252 251 252 139 0 252-113 252-252l0-216 180 0 z" fill="#9B9B9B"/>
		<path d="M2322 683c51 0 90 39 90 90 0 50-40 90-90 90l-611 0c-50 0-89-41-89-90 0-49 39-90 89-90l611 0 z" fill="#00A6ED"/>
		<path d="M2017-287c19 0 36 15 36 36l0 473c42 14 72 54 72 102 0 59-49 107-108 107-60 0-108-49-108-107 0-48 31-88 72-102l0-473c0-19 15-36 36-36 z" fill="#636363"/>
	</g></svg>
