<svg version="1.1" xmlns="http://www.w3.org/2000/svg" viewBox="0 0 2300 2300"><g transform="scale(1,-1) translate(-256, -1869)">
		<path d="M1618 498c119 0 219 95 219 219 0 120-98 220-219 220-122 0-220-97-220-220 0-121 99-219 220-219 z M832 216l48 335c8 64 24 102 24 168 0 68-16 105-24 168l-48 335-303 0c-74 0-129-63-129-136l0-734c0-72 54-136 129-136l303 0 z" fill="#B4ACBC"/>
		<path d="M1502-72c66 0 122 52 122 122l0 1352c0 73-82 105-146 105-23 0-46-3-69-14l-578-272 0-1005 619-276c16-7 33-12 52-12 z" fill="#CDC4D6"/>
		<path d="M1824-72c46 0 85 37 85 86 0 23-8 43-25 60l-1425 1425c-17 17-37 25-60 25-49 0-86-42-86-86 0-23 9-43 26-60l1424-1425c16-16 38-25 61-25 z" fill="#F8312F"/>
	</g></svg>
