<svg version="1.1" xmlns="http://www.w3.org/2000/svg" viewBox="0 0 2300 2300"><g transform="scale(1,-1) translate(-256, -1869)">
		<path d="M832 216c0 0 733 264 790 287 8 3 50 4 71 12 84 32 144 111 144 204 0 90-57 172-144 204-22 8-64 10-71 12-53 21-790 287-790 287l-303 0c-74 0-129-63-129-136l0-734c0-72 54-136 129-136l303 0 z" fill="#B4ACBC"/>
		<path d="M1502-72c66 0 122 52 122 122l0 1352c0 73-82 105-146 105-23 0-46-3-69-14l-578-272 0-1005 619-276c16-7 33-12 52-12 z" fill="#CDC4D6"/>
	</g></svg>
