<svg version="1.1" xmlns="http://www.w3.org/2000/svg" viewBox="0 0 2300 2300"><g transform="scale(1,-1) translate(-256, -1869)">
		<path d="M1910 347c27 0 43 14 62 33 91 92 147 218 147 356 0 119-43 242-130 337-23 24-45 51-80 51-39 0-72-31-72-72 0-20 8-38 23-53 77-77 115-160 115-263 0-105-39-186-115-264-15-15-23-33-23-53 0-39 30-72 73-72 z M1981 41c12 0 24 3 36 10 242 136 395 404 395 685 0 275-152 548-395 684-12 7-24 10-36 10-39 0-72-31-72-72 0-28 13-47 36-62 27-19 53-37 77-55 141-106 246-288 246-506 0-166-62-331-189-457-42-41-85-69-134-103-23-15-36-34-36-62 0-41 34-72 72-72 z" fill="#83CBFF"/>
		<path d="M832 216c0 0 733 264 790 287 8 3 50 4 71 12 84 32 144 111 144 204 0 90-57 172-144 204-22 8-64 10-71 12-53 21-790 287-790 287l-303 0c-74 0-129-63-129-136l0-734c0-72 54-136 129-136l303 0 z" fill="#B4ACBC"/>
		<path d="M1502-72c66 0 122 52 122 122l0 1352c0 73-82 105-146 105-23 0-46-3-69-14l-578-272 0-1005 619-276c16-7 33-12 52-12 z" fill="#CDC4D6"/>
	</g></svg>
