<svg version="1.1" xmlns="http://www.w3.org/2000/svg" viewBox="0 0 2300 2300"><g transform="scale(1,-1) translate(-256, -1869)">
		<path d="M1622 1294c37 0 71 26 71 66l0 299c0 40-34 66-71 66-37 0-72-26-72-66l0-299c0-40 35-66 72-66 z M1262 1294c37 0 72 26 72 66l0 299c0 40-35 66-72 66-36 0-72-26-72-66l0-299c0-40 36-66 72-66 z" fill="#F3AD61"/>
		<path d="M1550-287l0 503c37 0 72 23 72 66l0 281c130 66 216 201 216 352l0 242c43 16 71 56 71 101 0 57-46 108-108 108l-718 0c-61 0-108-48-108-108 0-46 29-89 76-103l0-240c0-149 86-284 211-349l0-284c0-43 35-66 72-66l0-503 216 0 z" fill="#533566"/>
		<path d="M1550 863c18 0 36 17 36 36 0 18-17 36-36 36l-216 0c-18 0-36-17-36-36 0-18 17-36 36-36l216 0 z M1550 1006c19 0 36 18 36 36 0 19-15 36-36 36l-216 0c-19 0-36-15-36-36 0-18 17-36 36-36l216 0 z" fill="#C790F1"/>
	</g></svg>
