<svg version="1.1" xmlns="http://www.w3.org/2000/svg"><g transform="scale(1,-1)">
		<path d="M1854-287c17 0 34 3 49 10 15 7 29 16 41 27 11 11 20 25 27 41 7 15 10 32 10 49l0 1614c0 17-3 34-10 49-7 15-16 29-27 41-12 11-26 20-41 27-15 7-32 10-49 10l-232 0c0 11 1 24 2 41l0 13c0 12-1 23-2 34-3 15-8 29-15 40-7 11-19 16-36 16l-330 0c-12 0-21-3-28-8-7-6-13-13-16-22-4-9-6-19-7-29-1-11-2-21-2-30 0-9 0-18 1-27 1-9 1-19 1-28l-232 0c-17 0-34-3-49-10-16-7-30-16-41-27-11-12-20-26-27-41-7-15-10-32-10-49l0-1614c0-17 3-34 10-49 7-16 16-30 27-41 11-11 25-20 41-27 15-7 32-10 49-10l896 0 z" fill="#9B9B9B"/>
		<path d="M1981-144l0 1582-1150 0 0-1582 1150 0 z" fill="#86D72F"/>
		<path d="M1545 72c22 0 40 19 40 42l0 61c0 22-18 41-41 41l-277 0c-23 0-41-20-41-42l0-61c0-22 18-41 41-41l278 0 z M1437 863c14 0 24 4 30 12 6 8 10 18 12 29l1 25 0 11c-1 12-2 22-2 31 7 0 15 0 23-1 7-1 15-1 22-1 7 0 15 1 22 2 7 1 14 3 20 6 6 3 11 7 15 13 3 5 5 13 5 22l0 61c0 14-4 24-12 30-8 6-17 10-28 12l-24 1-11 0c-13-1-23-2-32-2 0 7 0 15 1 22 1 7 1 14 1 21 0 8 0 16-1 24-1 7-3 14-6 20-3 6-8 11-14 15-6 4-14 6-23 6l-61 0c-13 0-23-4-29-12-6-8-10-18-11-29-1-8-2-17-2-25l1-42c-7 0-14 0-21 1-7 1-15 1-22 1-7 0-15 0-22-1-8-1-15-3-21-6-7-3-12-8-16-13-4-6-6-14-6-23l0-62c0-13 4-23 12-28 8-6 18-10 29-11 8-1 17-2 26-2l41 1c0-7 0-14-1-21-1-7-1-15-1-22 0-7 1-15 2-22 1-8 3-15 6-21 3-7 7-12 13-16 5-4 13-6 22-6l62 0 z" fill="#FFFFFF"/>
	</g></svg>
