<svg version="1.1" xmlns="http://www.w3.org/2000/svg"><g transform="scale(1,-1)">
		<path d="M713-287c96 0 182 94 182 194 0 59-28 118-77 155 20 31 29 67 29 103 0 107-87 195-194 195l-187 0c-36 0-66-29-66-66l0-515c0-38 29-66 66-66l247 0 z M1368-287c38 0 66 29 66 66 0 9-1 17-4 23l-183 499c-13 36-42 59-81 59-39 0-68-23-81-57l-184-502c-3-6-4-14-4-23 0-38 29-65 66-65 29 0 52 17 62 43l29 81c1-1 8-1 19-1l93-1c56 0 107 0 111 2l29-81c10-27 36-43 62-43 z M2345-288c37 0 67 31 67 67 0 14-4 27-12 38l-187 264 165 166c13 13 19 28 19 46 0 35-28 66-65 66-19 0-34-6-47-19l-216-217 0 170c0 35-28 67-66 67-37 0-67-28-67-67l0-515c0-38 30-66 67-66 37 0 66 30 66 66l0 158 49 50 173-246c12-17 33-28 54-28 z M1675-287c21 0 41 3 62 8 67 18 152 80 152 144 0 35-27 66-65 66-67 0-62-86-149-86-60 0-106 51-106 106l0 171c0 58 50 105 106 105 91 0 82-86 149-86 37 0 66 31 66 67 0 12-3 23-9 33-40 72-124 119-206 119-131 0-238-108-238-238l0-171c0-135 108-238 238-238 z M701-154l-169 0 0 125 169 0c36 0 62-29 62-63 0-34-26-62-62-62 z M653 102l-121 0 0 125 121 0c34 0 63-26 63-62 0-34-27-63-63-63 z M1228-31l-125 0 63 171 62-171 z M1069 500c38 0 69 29 69 69l0 261c0 25 20 46 46 46l1140 0c47 0 85 38 85 85l0 303c0 47-38 85-85 85l-1140 0c-25 0-46 20-46 46l0 261c0 38-29 69-69 69-17 0-32-6-46-18l-597-544c-15-13-23-30-23-51 0-20 8-37 23-50l597-544c13-12 28-18 46-18 z" fill="#635994"/>
	</g></svg>
