<svg version="1.1" xmlns="http://www.w3.org/2000/svg"><g transform="scale(1,-1)">
		<path d="M1406 647c234 0 431 190 431 431l0 216c0 234-190 431-431 431-234 0-431-190-431-431l0-216c0-234 190-431 431-431 z M1406 827c-138 0-252 110-252 251l0 216c0 139 113 252 252 252 139 0 252-113 252-252l0-216c0-138-111-251-252-251 z" fill="#9B9B9B"/>
		<path d="M1981-287c121 0 216 97 216 215l0 935c0 119-97 215-216 215l-1150 0c-121 0-216-97-216-215l0-935c0-119 97-215 216-215l1150 0 z" fill="#F9C23C"/>
		<path d="M1406 36c58 0 108 49 108 108l0 251c43 34 72 87 72 144 0 98-78 180-180 180-98 0-180-78-180-180 0-59 28-110 72-144l0-251c0-63 50-108 108-108 z" fill="#433B6B"/>
	</g></svg>
