<svg version="1.1" xmlns="http://www.w3.org/2000/svg" viewBox="0 0 2300 2300"><g transform="scale(1,-1) translate(-256, -1869)">
		<path d="M1765 686l0 216c-44 46-72 109-72 176l0 216c0 139 113 252 252 252 139 0 252-113 252-252l0-126c0-49 39-90 89-90 50 0 90 40 90 90l0 126c0 234-190 431-431 431-234 0-431-190-431-431l0-216c0-167 97-322 251-392 z" fill="#9B9B9B"/>
		<path d="M1837-287c121 0 216 97 216 215l0 935c0 119-97 215-216 215l-1150 0c-120 0-215-97-215-215l0-935c0-120 97-215 215-215l1150 0 z" fill="#F9C23C"/>
		<path d="M1262 36c57 0 108 46 108 108l0 251c44 34 72 85 72 144 0 98-78 180-180 180-98 0-179-79-179-180 0-58 29-111 71-144l0-251c0-58 49-108 108-108 z" fill="#433B6B"/>
	</g></svg>
