<svg version="1.1" xmlns="http://www.w3.org/2000/svg"><g transform="scale(1,-1)">
		<path d="M1401-135c471 0 858 381 858 858 0 471-381 858-858 858-471 0-858-381-858-858 0-471 381-858 858-858 z" fill="#FFFFFF"/>
		<path d="M1630 198c176 0 319 142 319 319 0 94-43 188-120 249 50 51 80 120 80 196 0 156-128 279-279 279-156 0-279-128-279-279 0-76 30-145 80-196-77-61-120-155-120-249 0-176 142-319 319-319 z M1141 226c-49 0-90 39-90 89l0 601c-31-28-60-69-109-69-50 0-90 40-90 90 0 26 9 48 28 65l198 189c18 17 39 25 63 25 51 0 89-40 89-90l0-811c0-50-39-89-89-89 z M1630 396c-66 0-122 52-122 121 0 66 53 121 122 121 67 0 121-54 121-121 0-67-54-121-121-121 z M1630 845c-63 0-117 50-117 117 0 63 50 117 117 117 64 0 117-53 117-117 0-64-53-117-117-117 z" fill="#000000"/>
		<path d="M1406-287c547 0 1006 440 1006 1006 0 547-440 1006-1006 1006-547 0-1006-440-1006-1006 0-547 440-1006 1006-1006 z M2036 241l-1108 1108c134 103 299 161 478 161 436 0 791-351 791-791 0-179-58-344-161-478 z M1406-72c-436 0-791 351-791 791 0 166 53 335 161 478l1108-1108c-143-108-312-161-478-161 z" fill="#F8312F"/>
	</g></svg>
