<svg version="1.1" xmlns="http://www.w3.org/2000/svg" viewBox="0 0 2300 2300"><g transform="scale(1,-1) translate(-256, -1869)">
		<path d="M1017-288c125 0 229 100 229 229l0 211c0 125-103 228-229 228-125 0-228-102-228-228l0-211c0-125 101-229 228-229 z M1951-288c-37 0-65 31-65 66 0 35 28 65 65 65 35 0 66-28 66-65 0-36-29-66-66-66 z M1017-144c-47 0-85 38-85 85l0 211c0 48 39 84 85 84 46 0 85-36 85-84l0-211c0-47-38-85-85-85 z M1727-288c40 0 71 34 71 72l0 524c0 38-31 72-71 72-39 0-72-31-72-72l0-283-212 323c-13 20-38 32-60 32-41 0-72-34-72-72l0-524c0-39 34-72 72-72 38 0 72 33 72 72l0 283 212-322c13-19 35-33 60-33 z M1951-109c-40 0-71 34-71 72l0 346c0 38 31 72 71 72 38 0 72-33 72-72l0-346c0-39-31-72-72-72 z M1841 672c14 0 27 5 39 16l513 467c13 11 19 26 19 43 0 18-6 33-19 44l-513 467c-12 11-25 16-40 16-33 0-60-26-60-60l0-205c0-32-26-59-59-59l-631 0c-32 0-59 26-59 59l0 206c0 34-27 59-60 59-15 0-28-5-39-15l-513-467c-13-12-20-27-20-44 0-17 7-32 20-44l513-467c12-11 25-16 40-16 34 0 59 27 59 60l0 204c0 33 27 59 59 59l631 0c33 0 59-25 59-59l0-204c0-34 28-60 61-60 z" fill="#635994"/>
	</g></svg>
