<svg version="1.1" xmlns="http://www.w3.org/2000/svg"><g transform="scale(1,-1)">
		<path d="M969-277c76 0 149 14 218 43 69 29 131 70 185 124l287 287c49 49 88 107 117 172-17 5-35 8-52 11-18 3-36 4-54 4-39 0-78-6-115-17-38-11-75-24-111-39l-245-245c-31-31-66-54-105-70-40-17-82-25-125-25-45 0-88 9-127 26-39 17-74 40-103 70-29 29-52 64-69 103-17 39-26 81-26 126 0 43 8 85 25 125 16 39 39 74 70 105l245 245 66 0 172 134 18 2 18 0c49 0 94-10 135-29 41-19 77-45 106-78 29-33 50-71 65-114 10-32 16-66 16-101 0-12-1-24-2-36 13-13 27-25 44-34 16-10 34-15 53-15 15 0 30 3 43 10 13 6 24 14 35 25l63 148c-9 57-27 112-54 164-27 51-62 98-103 139-32 32-67 60-106 84-39 23-79 42-122 55-13 4-25 7-38 10-13 2-25 5-37 8-26 8-52 16-78 25l-79 24-87-45-87-44c-32-17-62-34-90-51-28-18-55-40-81-66l-288-288c-54-54-95-115-124-184-29-69-43-142-43-219 0-79 15-152 45-221 30-69 71-130 122-181 51-52 112-93 181-122 69-30 143-45 222-45 z" fill="#9B9B9B"/>
		<path d="M1544 300c75 0 148 15 219 44 70 29 132 70 185 123l287 287c54 54 95 115 124 184 28 69 42 141 42 218 0 52-7 102-20 151-14 49-33 94-58 136-25 42-54 80-89 115-35 35-73 64-115 89-43 25-88 44-136 58-49 13-99 20-152 20-76 0-148-14-217-42-69-29-131-70-185-124l-288-288c-50-50-89-107-116-171 37 17 75 29 114 37 39 8 79 12 119 12 17 0 33 0 50-1 16-1 32-4 49-7l245 245c31 31 66 54 106 71 39 16 81 24 124 24 45 0 87-8 127-25 39-17 74-41 103-70 29-30 53-65 70-104 17-39 25-81 25-126 0-44-8-86-24-125-17-39-40-74-71-105l-245-245c-21-21-41-39-60-56-20-17-41-31-62-43-21-12-44-21-69-27-25-7-52-10-83-10-49 0-94 10-135 29-41 19-77 45-106 78-29 33-51 71-66 114-11 31-16 64-16 99 0 12 1 25 2 38-27-3-51-8-72-15-21-7-41-17-59-28-19-11-36-25-53-40-17-15-34-32-53-51 12-68 35-131 69-188 33-57 75-107 125-148 50-42 106-75 169-98 62-23 127-35 196-35 z" fill="#BEBEBE"/>
	</g></svg>
