<svg version="1.1" xmlns="http://www.w3.org/2000/svg"><g transform="scale(1,-1)">
		<path d="M1971-287c104 0 187 82 187 187l0 286c0 104-82 187-187 187l-182 0c-39 0-72-31-72-72l0-516c0-39 31-72 72-72l182 0 z M959-287l-239 0c-38 0-72 33-72 72l0 517c0 39 34 72 72 72l239 0c38 0 72-33 72-72 0-38-33-72-72-72l-168 0 0-115 168 0c38 0 72-33 72-72 0-39-34-72-72-72l-168 0 0-115 168 0c38 0 72-31 72-71 0-39-31-72-72-72 z M1971-144l-110 0 0 374 110 0c24 0 44-19 44-44l0-286c0-25-20-44-44-44 z M1549-280c38 0 72 30 72 71l0 517c0 39-31 72-72 72-39 0-72-31-72-72l0-277-208 317c-14 21-34 32-59 32-38 0-72-30-72-71l0-517c0-39 31-72 72-72 40 0 71 34 71 72l0 277 208-317c13-19 35-32 60-32 z M1065 500c38 0 69 29 69 69l0 261c0 25 20 46 46 46l1140 0c49 0 86 38 86 85l0 303c0 46-37 85-86 85l-1140 0c-25 0-46 20-46 46l0 261c0 38-29 69-69 69-17 0-32-6-46-18l-597-544c-15-14-23-31-23-51 0-19 8-36 23-50l597-544c13-12 28-18 46-18 z" fill="#635994"/>
	</g></svg>
