<svg version="1.1" xmlns="http://www.w3.org/2000/svg" viewBox="0 0 2300 2300"><g transform="scale(1,-1) translate(-256, -1869)">
		<path d="M2125-287c156 0 287 125 287 287l0 1438c0 156-125 287-287 287l-1438 0c-156 0-287-125-287-287l0-1438c0-161 130-287 287-287l1438 0 z" fill="#00A6ED"/>
		<path d="M1693 126c229 0 432 180 432 431l0 324c0 239-192 431-432 431-234 0-431-190-431-431l0-324c0-234 190-431 431-431 z M993 126c68 0 125 55 125 126l0 934c0 70-57 126-125 126-35 0-67-14-91-39l-229-240c-23-23-34-55-34-87 0-70 58-125 126-125 44 0 74 19 102 51l0-620c0-69 56-126 126-126 z M1693 378c-97 0-179 79-179 179l0 324c0 97 79 179 179 179 98 0 180-79 180-179l0-324c0-98-79-179-180-179 z" fill="#FFFFFF"/>
	</g></svg>
