<svg version="1.1" xmlns="http://www.w3.org/2000/svg" viewBox="0 0 2300 2300"><g transform="scale(1,-1) translate(-256, -1869)">
		<path d="M1837-215c121 0 216 97 216 215l0 935c0 119-97 215-216 215l-144 0-71 72-108-72-503 0-72 72-108-72-144 0c-120 0-215-97-215-215l0-935c0-120 97-215 215-215l1150 0 z" fill="#F9C23C"/>
		<path d="M1262 108c57 0 108 46 108 108l0 251c44 34 72 85 72 144 0 98-78 180-180 180-98 0-179-79-179-180 0-58 29-111 71-144l0-251c0-58 49-108 108-108 z" fill="#433B6B"/>
		<path d="M2089 144c58 0 108 49 108 108l0 629c127 45 215 165 215 305 0 179-145 324-323 324-177 0-324-143-324-324 0-135 84-258 216-305l0-160c0-48 54-52 54-97 0-37-32-41-32-75 0-38 32-38 32-74 0-48-54-49-54-97l0-126c0-63 50-108 108-108 z M2089 1294c-39 0-72 31-72 72 0 39 31 72 72 72 39 0 72-34 72-72 0-38-33-72-72-72 z M1693 1150l0 216c0 234-190 431-431 431-234 0-431-190-431-431l0-216 180 0 0 216c0 138 108 251 251 251 138 0 252-110 252-251l0-216 179 0 z" fill="#9B9B9B"/>
	</g></svg>
