<svg version="1.1" xmlns="http://www.w3.org/2000/svg"><g transform="scale(1,-1)">
		<path d="M1034-287c22 0 41 8 57 24l1253 1252c16 16 24 36 24 59 0 23-8 42-24 58l-550 550c-17 17-36 25-59 25-23 0-44-11-58-25l-1253-1250c-16-16-24-35-24-58 0-50 35-84 89-84l428 60 12 1c47 0 82-39 82-83l-1-11-59-423-1-12c0-48 38-83 84-83 z M1915 1085c-80 0-143 65-143 144 0 80 64 144 143 144 81 0 144-67 144-144 0-81-67-144-144-144 z" fill="#F8312F"/>
		<path d="M1430 479c52 0 60 134 111 134l121 0c16 0 31 15 31 31 0 43-86 85-86 131 0 45 41 85 41 130 0 16-15 31-31 31-48 0-88-40-133-40-41 0-87 86-130 86-18 0-30-13-30-30l-1-121c0-53-134-59-134-111 0-15 7-24 20-29l128-46c44-17 38-166 93-166 z" fill="#F7A7B8"/>
		<path d="M2376 1294c9 0 18 4 25 11 7 7 11 16 11 25 0 9-4 18-11 25-7 7-16 11-25 11l-278 0 0 5c0 9-2 17-7 25-6 9-15 13-27 13l-12-2 0 282c0 10-3 19-10 26-7 7-16 10-26 10-9 0-17-4-24-11-7-7-11-16-11-25l0-295c0-7 2-14 5-19 3-6 8-11 15-14-4-4-7-8-10-12-3-5-5-10-5-17 0-10 3-18 10-25 7-7 15-11 25-11 11 0 20 5 29 15 7-11 17-17 30-17l296 0 z" fill="#D3883E"/>
	</g></svg>
