<svg version="1.1" xmlns="http://www.w3.org/2000/svg" viewBox="0 0 2300 2300"><g transform="scale(1,-1) translate(-256, -1869)">
		<path d="M1406-72c477 0 862 389 862 863 0 476-388 862-862 862-476 0-863-387-863-862 0-476 388-863 863-863 z" fill="#533566"/>
		<path d="M1939-287c54 0 114 38 114 99 0 12-3 20-6 31l-66 301-1150 0-66-301c-3-11-6-19-6-31 0-60 57-99 114-99l1066 0 z" fill="#B4ACBC"/>
		<path d="M1047 360c17 0 28 8 35 23l79 194c36 93 173 72 173 142 0 68-136 49-173 142l-79 194c-7 15-18 23-35 23-14 0-29-8-36-23l-78-194c-35-86-174-76-174-142 0-67 136-54 174-142l78-194c7-15 22-23 36-23 z M1907 882c9 0 15 4 18 11l39 92c19 44 85 37 85 67 0 30-69 26-85 67l-39 92c-3 7-9 11-18 11-8 0-14-4-17-11l-39-92c-16-40-86-35-86-67 0-29 70-26 86-67l39-92c3-6 11-11 17-11 z M1219 1271c6 0 10 3 12 8l27 64c14 30 60 25 60 47 0 24-50 19-60 48l-27 64c-2 5-6 7-12 7-7 0-11-2-13-7l-27-64c-14-30-61-25-61-48 0-22 48-18 61-47l27-64c2-5 6-8 13-8 z" fill="#FCD53F"/>
	</g></svg>
