<svg version="1.1" xmlns="http://www.w3.org/2000/svg" viewBox="0 0 2300 2300"><g transform="scale(1,-1) translate(-256, -1869)">
		<path d="M2125-287c156 0 287 125 287 287l0 1438c0 156-125 287-287 287l-1438 0c-156 0-287-125-287-287l0-1438c0-161 130-287 287-287l1438 0 z" fill="#00A6ED"/>
		<path d="M1951-8c-26 0-50 14-62 37-37-19-76-29-117-29-139 0-252 113-252 252 0 138 111 251 252 251 38 0 74-8 108-24l0 168c0 38 31 72 71 72 39 0 72-31 72-72l0-583c0-39-31-72-72-72 z M1189 784c-25 0-47 14-60 33-36-20-75-30-118-30-139 0-252 113-252 252 0 139 113 252 252 252 41 0 79-9 115-28 12 22 36 38 63 38 39 0 72-31 72-72l1-190-1-183c0-39-31-72-72-72 z M1622 784c25 0 47 14 60 33 37-19 78-30 119-30 139 0 252 113 252 252 0 139-113 252-252 252-37 0-73-8-108-25l0 173c0 38-31 72-71 72-39 0-72-31-72-72l0-583c0-39 31-72 72-72 z M1772 144c58 0 108 49 108 108 0 58-49 108-108 108-58 0-108-49-108-108 0-63 50-108 108-108 z M1048 0c58 0 177 34 177 106 0 37-30 73-72 73-40 0-57-35-105-35-63 0-108 50-108 108 0 58 49 108 108 108 49 0 66-35 105-35 42 0 72 36 72 73 0 74-119 105-177 105-138 0-252-110-252-251 0-139 113-252 252-252 z M1011 931c48 0 106 42 106 93l0 30c0 51-58 93-106 93-61 0-108-48-108-108 0-63 50-108 108-108 z M1801 931c-58 0-108 49-108 108 0 58 49 108 108 108 57 0 108-46 108-108 0-61-48-108-108-108 z" fill="#FFFFFF"/>
	</g></svg>
