<svg version="1.1" xmlns="http://www.w3.org/2000/svg" viewBox="0 0 2300 2300"><g transform="scale(1,-1) translate(-256, -1869)">
		<path d="M2125-287c156 0 287 125 287 287l0 1438c0 156-125 287-287 287l-1438 0c-156 0-287-125-287-287l0-1438c0-161 130-287 287-287l1438 0 z" fill="#00A6ED"/>
		<path d="M1946-1c-58 0-108 49-108 108 0 58 49 108 108 108 57 0 108-46 108-108 0-58-49-108-108-108 z M1656 430c58 0 108 49 108 108 0 58-49 108-108 108-61 0-108-48-108-108 0-63 50-108 108-108 z M1018-30c29 0 54 24 54 54 0 30-25 54-54 54-136 0-250 112-250 249 0 140 113 249 250 249 135 0 249-109 249-249 0-27-4-52-12-76l-71 0 0 188c0 32-24 54-54 54-17 0-30-6-39-17l-1 0c-25 15-54 20-82 20-97 0-176-81-176-176 0-97 81-176 176-176 27 0 53 6 80 19 11-13 25-20 42-20l161 0c68 0 84 136 84 184 0 195-156 357-357 357-195 0-357-156-357-357 0-195 156-357 357-357 z M2026 764c32 0 54 24 54 54 0 15-5 27-16 38l-87 87 96 94c11 11 16 24 16 39 0 32-25 53-54 53-15 0-27-5-37-15l-98-94-94 94c45 45 93 90 93 160 0 92-76 170-170 170-92 0-170-76-170-170 0-65 40-117 86-152l0-1c-47-41-94-95-94-164 0-101 85-184 186-184 71 0 121 38 167 90l84-83c11-11 23-16 38-16 z M1946 71c19 0 36 15 36 36 0 19-15 36-36 36-19 0-36-15-36-36 0-19 15-36 36-36 z M1656 502c-19 0-36 15-36 36 0 19 15 36 36 36 19 0 36-15 36-36 0-19-15-36-36-36 z M1645-3c26 0 49 14 62 36l293 507c7 12 10 24 10 37 0 38-32 71-71 71-24 0-49-12-63-36l-294-507c-6-10-9-22-9-35 0-39 31-73 72-73 z M1008 251c-40 0-68 32-68 69 0 37 29 68 68 68 29 0 68-25 68-58l0-20c0-32-39-59-68-59 z M1047 784c38 0 72 33 72 72l0 294 160 0c39 0 72 31 72 72 0 39-31 72-72 72l-465 0c-39 0-72-31-72-72 0-39 31-72 72-72l161 0 0-294c0-39 31-72 72-72 z M1317 1365l-541 0c-18 0-35 17-35 36 0 19 17 36 35 36l541 0c19 0 36-15 36-36 0-19-15-36-36-36 z M1737 881c-40 0-78 31-78 76 0 27 41 80 64 88l104-105c-24-29-50-59-90-59 z M1729 1191c-24 24-63 48-63 83 0 36 29 63 63 63 36 0 62-29 62-63 0-29-40-67-62-83 z" fill="#FFFFFF"/>
	</g></svg>
