<svg version="1.1" xmlns="http://www.w3.org/2000/svg" viewBox="0 0 2300 2300"><g transform="scale(1,-1) translate(-256, -1869)">
		<path d="M2125-287c156 0 287 125 287 287l0 1438c0 156-125 287-287 287l-1438 0c-156 0-287-125-287-287l0-1438c0-161 130-287 287-287l1438 0 z" fill="#00A6ED"/>
		<path d="M1749 0c179 0 326 145 326 326 0 172-137 327-326 327l-123 0c-40 0-71-34-71-72l0-509c0-38 31-72 71-72l123 0 z M1864 784c107 0 195 91 195 198 0 64-31 120-77 156l0 1c16 29 24 60 24 95 0 109-87 197-197 197l-190 0c-38 0-72-31-72-71l-1-504c0-39 31-72 72-72l246 0 z M809 786c65 0 76 68 95 116l221 0c18-44 32-115 95-115 38 0 72 29 72 70 0 11-2 21-5 28l-209 512c-11 26-36 45-66 45-30 0-57-19-67-45l-202-513c-3-9-5-17-5-26 0-38 31-72 71-72 z M1749 144l-51 0 0 365 51 0c102 0 183-82 183-183 0-101-82-182-183-182 z M993 0c99 0 179 37 226 129 8 15 16 30 16 49 0 39-31 73-72 73-83 0-59-107-153-107-58 0-107 26-107 90l0 180c0 51 39 90 90 90l28 0c80 0 75-85 143-85 40 0 71 34 71 72 0 19-6 33-17 48-22 34-50 61-84 80-50 28-83 29-141 29-127 0-234-103-234-234l0-180c0-127 103-234 234-234 z M1809 1180l-119 0 1 107 118 0c29 0 53-23 53-53 0-29-21-54-53-54 z M1861 928l-171 0 0 108 171 0c30 0 54-22 54-54 0-30-22-54-54-54 z M1066 1046l-105 0 52 131 53-131 z" fill="#FFFFFF"/>
	</g></svg>
