<svg version="1.1" xmlns="http://www.w3.org/2000/svg"><g transform="scale(1,-1)">
		<path d="M2125-287c156 0 287 125 287 287l0 1438c0 156-125 287-287 287l-1438 0c-156 0-287-125-287-287l0-1438c0-161 130-287 287-287l1438 0 z" fill="#00A6ED"/>
		<path d="M1031 378c32 0 59 26 59 59l0 285c0 117-94 213-214 213l-140 0c-32 0-59-26-59-59 0-32 26-59 59-59l140 0c68 0 96-53 96-112l-166 0c-92 0-163-77-163-164 0-88 73-163 163-163 71 0 112 3 168 42 8-24 30-42 57-42 z M1410 378c131 0 236 105 236 236l0 86c0 131-107 235-236 235-41 0-81-10-118-31l0 240c0 33-25 59-59 59-33 0-58-27-58-59l0-707c0-32 25-59 58-59 22 0 44 13 54 35 37-23 78-35 123-35 z M841 485l-35 0c-30 0-56 25-56 56 0 30 25 56 56 56l163 0c-8-64-64-112-128-112 z M1944 378c100 0 191 66 223 158 2 6 3 13 3 20 0 33-27 58-59 58-72 0-50-118-167-118-64 0-118 54-118 118l0 86c0 62 52 117 118 117 115 0 99-118 168-118 33 0 58 27 58 59 0 7-1 14-3 20-32 94-124 157-223 157-131 0-235-107-235-235l0-86c0-130 105-236 235-236 z M1410 496c-64 0-118 54-118 118l0 86c0 62 52 117 118 117 65 0 118-54 118-117l0-86c0-64-54-118-118-118 z" fill="#F4F4F4"/>
	</g></svg>
