<svg version="1.1" xmlns="http://www.w3.org/2000/svg" viewBox="0 0 2300 2300"><g transform="scale(1,-1) translate(-256, -1869)">
		<path d="M834 647c200 0 667 466 667 667 0 43-22 65-65 65-200 0-667-466-667-667 0-43 22-65 65-65 z M679 871c30 0 54 22 54 54 0 32-25 53-54 53l-279 0c-29 0-54-21-54-53 0-30 22-54 54-54l279 0 z M842 1256c30 0 55 22 55 54 0 15-5 28-16 39l-224 223c-11 11-23 16-38 16-30 0-54-22-54-54 0-15 5-27 16-38l223-224c11-11 23-16 38-16 z M1218 1384c30 0 54 22 54 54l0 287c0 30-22 54-54 54-29 0-54-24-54-54l0-287c0-29 24-54 54-54 z" fill="#F9C23C"/>
		<path d="M2062-225c166 0 298 134 298 299 0 75-29 150-85 206l-533 533c4 25 6 50 6 76 0 135-56 259-144 347l-427-265-265-427c95-97 222-144 348-144 17 0 35 1 53 3l543-542c56-56 127-86 206-86 z" fill="#B4ACBC"/>
		<path d="M871 514c17 0 34 8 46 20l697 697c13 13 19 28 19 46 0 18-6 33-19 46l-61 61c-13 13-28 19-46 19-18 0-33-6-46-19l-698-697c-13-13-19-28-19-46 0-18 6-33 19-46l62-61c13-12 27-20 46-20 z" fill="#321B41"/>
		<path d="M1694 393c31 0 60 25 60 60 0 16-6 30-17 41l-87 87c-11 11-24 16-41 16-32 0-60-25-60-59 0-16 6-30 17-41l87-87c11-11 25-17 41-17 z" fill="#F4F4F4"/>
	</g></svg>
