<svg version="1.1" xmlns="http://www.w3.org/2000/svg"><g transform="scale(1,-1)">
		<path d="M2125-287c156 0 287 125 287 287l0 1438c0 156-125 287-287 287l-1438 0c-156 0-287-125-287-287l0-1438c0-161 130-287 287-287l1438 0 z" fill="#00A6ED"/>
		<path d="M1826-33c41 0 73 33 73 73l0 158c33 7 58 35 58 71 0 36-25 64-58 71l0 48c0 41-34 72-73 72-51 0-68-33-70-70-2-18-2-29-2-48l-79 0c11 52 56 188 56 232 0 39-31 73-72 73-34 0-63-21-71-55l-76-305c-1-3-2-6-2-9l0-10c0-40 34-71 72-71l172 0 0-157c0-39 31-73 72-73 z M1034-34c114 0 210 92 210 210 0 49-17 96-47 132l0 1c30 36 47 83 47 132 0 113-91 210-210 210-85 0-196-71-196-150 0-39 31-73 72-73 73 0 60 77 124 77 35 0 65-27 65-64 0-82-105-44-105-133 0-87 105-52 105-132 0-35-28-65-65-65-76 0-49 96-130 96-40 0-73-32-73-73 0-8 1-15 3-22 24-84 109-146 200-146 z M1054 786c40 0 73 32 73 73l0 539c0 41-34 72-73 72-19 0-39-8-52-22l-132-138c-13-13-20-31-20-50 0-37 29-73 71-73 25 0 42 10 60 29l1 0 0-357c0-39 31-73 72-73 z M1902 786c41 0 72 34 72 73 0 39-31 72-72 72l-170 0 0 1 49 51c77 82 175 161 175 281 0 108-86 206-200 206-61 0-187-54-187-132 0-40 32-73 73-73 56 0 66 60 111 60 36 0 58-29 58-62 0-29-16-53-35-74-76-84-162-160-234-248-15-19-25-38-25-62 0-51 42-93 93-93l292 0 z" fill="#FFFFFF"/>
	</g></svg>
