<svg version="1.1" xmlns="http://www.w3.org/2000/svg" viewBox="0 0 2300 2300"><g transform="scale(1,-1) translate(-256, -1869)">
		<path d="M1694-287c325 0 604 222 692 529 23 80 25 140 27 235 0 17-2 32-6 47-8 30-26 51-67 51l-317 0c202 210 317 498 317 789l0 272c0 50-39 89-89 89l-139 0c-131 0-251-49-348-143l-70-69 0 134c0 19-4 34-13 45-29 32-78 33-123 33-153 0-291-64-388-171-58-64-73-100-112-179-57 41-125 63-191 63-165 0-303-125-322-287l-58-106 56-96 0-247c0-388 315-702 702-702l297 0c43 0 80-34 80-80l0-135c0-39 31-72 72-72 z" fill="#9B9B9B"/>
		<path d="M1693-215c351 0 647 291 647 646l0 72-485 0 116 122c190 200 297 455 297 739l0 272c0 11-6 17-17 17l-122 0c-119-2-219-29-314-122l-1 0-430-425c-28-26-64-43-103-43-53 0-97 26-124 66l0 1c-76 112-131 236-290 236-117 0-238-92-250-220-1-17-2-35-2-52l0-392c0-348 280-630 630-630l297 0c83 0 151-68 151-152l0-135 z" fill="#FFFFFF"/>
		<path d="M502 144c16 0 72 42 87 52 81 52 97 123 98 200l0 82 151-87c-2-10-3-20-3-31 0-76 60-138 137-138 11 0 23 2 36 5l98 26c14 4 26 20 26 35 0 27-19 82-27 108l-1-1c-16 60-69 102-132 102-38 0-74-17-100-43l-324 188c-3 3-5 2-8 5 29 0 56 0 81 1 75 0 142 24 191 98 11 16 51 70 51 86 0 17-13 31-31 31l-125 0c-115 0-163-67-221-154-9 22-14 44-14 66l0 483c0 19-15 36-36 36-19 0-36-15-36-36l0-483c0-149 110-194 219-257-89-61-147-107-147-217l0-126c0-18 13-31 30-31 z" fill="#44911B"/>
		<path d="M831 1006c38 0 72 33 72 72 0 39-31 72-72 72-39 0-72-31-72-72 0-38 33-72 72-72 z" fill="#212121"/>
		<path d="M543 948l0 166c0 13 1 25 3 37l-133-81c-9-5-13-13-13-22 0-9 4-16 13-21l130-79 z" fill="#F9C23C"/>
	</g></svg>
