<svg version="1.1" xmlns="http://www.w3.org/2000/svg" viewBox="0 0 2300 2300"><g transform="scale(1,-1) translate(-256, -1869)">
		<path d="M1976 1150c-40 289-284 503-574 503-278 0-536-208-572-503l1146 0 z" fill="#212121"/>
		<path d="M1172-288l18 1c3 0 10 2 21 5l37 12 158 55 164-55 52-17 71 0 108 72 108-72 216 0 0 1362c0 20-4 39-11 57-8 18-19 34-32 47-13 13-29 24-47 32-18 7-37 11-57 11l-1144 0c-20 0-39-4-57-11-18-8-34-19-47-32-13-13-24-29-31-47-8-18-12-37-12-57l0-1362 216 0 108 72 107-72 36 0 18-1 z" fill="#F3AD61"/>
		<path d="M1406 400c196 0 358 156 358 358 0 196-158 358-358 358-196 0-358-158-358-358 0-196 156-358 358-358 z M1406 475c-7 0-14 7-23 21-9 14-19 30-28 47-9 17-18 32-27 46-9 14-16 21-22 21l-128 0c-6 0-11 2-16 5-5 3-8 8-8 15 0 4 4 13 11 26 7 13 16 26 25 40l25 39c7 12 11 20 11 23 0 3-4 11-11 23l-23 39c-9 13-17 26-24 39-7 12-11 20-11 25 0 7 3 12 8 15 5 3 11 4 17 4l64 0c10 0 20 0 30-1 9-1 19-1 29-1 4 0 9 3 14 10 5 7 11 15 17 25l37 66c6 10 12 18 18 25 5 7 10 10 15 10 6 0 13-6 21-17l25-40 23-43c7-14 13-23 17-28 5-6 15-9 30-9l62 3 16 0 36-1c15-2 22-8 22-19 0-4-4-12-11-25l-50-80c-7-13-11-21-11-24 0-3 4-11 11-22 7-12 15-25 24-38l23-40c7-13 11-21 11-26 0-5-1-9-4-12-3-3-7-4-11-5-5-1-9-2-14-2-5-1-9-1-12-1-14 0-28 1-42 3-14 1-28 2-42 2-5 0-12 0-19-1-8-1-14-5-17-10l-69-114c-5-9-11-13-19-13 z M1465 650l-124 0c-3 0-6 1-7 2-7 3-64 103-64 107 0 3 50 88 58 98 4 7 5 7 13 7l122-1c5 0 9-2 12-6 21-26 41-72 59-102 0-5-51-92-58-99-3-4-6-6-11-6 z M1561 793l-3 1c-5 8-39 62-39 68 0 6 22 6 35 6l9 0 23 1c9-1 17-3 17-8l-37-67-5-1 z M1234 648l-24 4c-5 1-7 4-7 7l37 65 4 2c1 0 4-3 9-10l15-22 14-24c4-7 6-12 6-14 0-2-1-3-4-4l-11-2c-4-1-8-1-11-1l-19 0-9-1 z M1565 648c-9 0-18 0-26 1-18 0-23-1-23 5 12 23 23 46 38 67l4 2c8 0 37-57 42-67 0-7-18-8-35-8 z M1247 795c-5 0-38 58-43 69 0 6 16 6 27 6 43 0 37-1 53-1l5-4c-13-23-26-45-38-68l-4-2 z M1402 537l-3 2c-15 21-26 44-39 67 0 3 2 4 5 4l75 0c3 0 4-1 4-4l-38-67-4-2 z M1438 904l-74 0c-3 0-4 2-4 5 0 3 32 68 41 68 8 0 36-56 42-68 0-3-2-5-5-5 z" fill="#212121"/>
		<path d="M2414-108l0 791c0 98-78 180-180 180-98 0-180-78-180-180l0-791 360 0 z M759-108l0 791c0 98-78 180-180 180-98 0-179-79-179-180l0-791 359 0 z" fill="#FFDEA7"/>
		<path d="M2412-287l0 215-359 0 0-215 359 0 z M759-287l0 215-359 0 0-215 359 0 z M1909-287l0 179c0 57-46 108-108 108-58 0-108-49-108-108l0-179 216 0 z M1118-287l0 179c0 60-49 108-107 108-61 0-108-48-108-108l0-179 215 0 z M1622-287l0 215c0 121-99 216-216 216-121 0-216-99-216-216l0-215 432 0 z" fill="#212121"/>
	</g></svg>
