<svg version="1.1" xmlns="http://www.w3.org/2000/svg"><g transform="scale(1,-1)">
		<path d="M2125-287c156 0 287 125 287 287l0 1438c0 156-125 287-287 287l-1438 0c-156 0-287-125-287-287l0-1438c0-161 130-287 287-287l1438 0 z" fill="#8D65C5"/>
		<path d="M1927 914c17 0 34 1 51 4 52 8 118 10 118 80 0 42-36 72-73 72-32 0-62-12-96-12-103 0-151 55-203 130-13 20-38 32-60 32-40 0-71-34-71-72 0-31 20-53 37-77 67-95 171-157 297-157 z M1118 0c194 0 360 156 360 360 0 44-9 87-24 128l294 107c42 15 89 22 131 22 104 0 203-52 203-174 0-118-64-197-194-197-75 0-146 27-217 46-3 1-6 2-9 2l-9 0c-38 0-72-31-72-71 0-31 21-62 54-70l148-38c2-1 1-1 3-1 35-7 68-11 103-11 203 0 337 141 337 340 0 207-165 318-346 318-58 0-123-10-180-31l-325-118c-13 13-27 24-41 35 88 66 144 172 144 288 0 200-163 359-360 359-196 0-359-159-359-359 0-39 31-72 72-72 39 0 72 31 72 72 0 120 97 215 215 215 121 0 216-97 216-215 0-91-54-166-131-199-39-17-76-13-112-23-28-11-44-36-44-66 0-38 31-72 71-72 121 0 216-97 216-215 0-120-95-216-216-216-60 0-122 25-161 72l-230 275c-15 16-32 26-55 26-38 0-71-32-71-71 0-17 6-33 17-46l219-264c71-85 165-136 281-136 z M1837 1222c39 0 72 31 72 72 0 39-31 72-72 72-39 0-72-31-72-72 0-39 31-72 72-72 z" fill="#FFFFFF"/>
	</g></svg>
