<svg version="1.1" xmlns="http://www.w3.org/2000/svg" viewBox="0 0 2300 2300"><g transform="scale(1,-1) translate(-256, -1869)">
		<path d="M1406-282l399 1013-399 994-1006-396 0-326 105-84-105-85 0-720 1006-396 z" fill="#321B41"/>
		<path d="M851 517c23 0 35 25 35 45l0 73c0 24-16 51-41 54-58 5-124 14-185 14-21 0-30-24-30-42l0-65c0-21 11-48 34-51 39-5 156-28 187-28 z M524 567c3 0 6 2 11 7 22 22 40 49 40 61 0 5-2 11-5 18-18 32-39 62-49 62-3 0-7-2-11-7-23-24-39-52-39-61 0-16 17-41 30-57 11-14 15-23 23-23 z M1406 431l77 97-77 115c-48 4-100 13-148 13-29 0-49-27-49-53l0-82c0-30 22-62 55-67l142-23 z M1040 487c14 0 41 29 59 49 15 16 21 19 21 34 0 9-2 16-7 21l-59 72c-5 6-12 9-20 9-5 0-10-2-14-6l-55-58c-4-4-6-12-6-19 0-9 2-15 6-20l55-71c6-7 13-11 20-11 z M400 833l1006 9 64 147-64 137c-31 0-61-1-92-5l-914-115 0-173 z" fill="#FFB02E"/>
		<path d="M1406-282l1006 396 0 749-98 78 98 61 0 327-1006 396 0-2007 z" fill="#533566"/>
		<path d="M1963 517c32 0 146 22 185 27 23 3 34 32 34 51l0 65c0 19-9 42-31 42-62 0-124-9-183-14-25-3-41-30-41-54l0-72c0-20 11-45 36-45 z M2288 567c5 0 9 3 13 8 11 16 39 49 39 72 0 6-1 11-4 14-8 8-32 53-45 53-5 0-9-2-12-7-8-13-42-51-42-73 0-5 2-10 5-15 8-8 33-52 46-52 z M1406 431l142 23c32 6 55 37 55 67l0 82c0 26-20 53-49 53-48 0-100-9-148-13l0-212 z M1772 487c7 0 14 4 20 12l55 71c4 5 6 11 6 20 0 7-2 13-6 18l-55 58c-5 5-10 7-15 7-8 0-14-3-19-9l-59-72c-5-7-8-14-8-21 0-8 3-15 8-20 11-13 56-64 73-64 z M1406 842l1006 21 0 143-914 115c-31 4-61 5-92 5l0-284 z" fill="#FCD53F"/>
	</g></svg>
