<svg version="1.1" xmlns="http://www.w3.org/2000/svg" viewBox="0 0 2300 2300"><g transform="scale(1,-1) translate(-256, -1869)">
		<path d="M1406-185c500 0 904 405 904 904 0 500-405 904-904 904-500 0-904-405-904-904 0-500 405-904 904-904 z" fill="#E6E6E6"/>
		<path d="M1408 72c38 0 72 31 72 71l0 575c0 39-31 72-72 72-39 0-72-31-72-72l0-575c0-40 34-71 72-71 z" fill="#CA0B4A"/>
		<path d="M1406 646c26 0 49 14 62 36l215 372c6 11 9 22 9 35 0 39-31 73-72 73-26 0-49-14-62-36l-214-372c-7-12-10-24-10-36 0-38 31-72 72-72 z" fill="#000000"/>
		<path d="M1406-287c547 0 1006 440 1006 1006 0 547-440 1006-1006 1006-547 0-1006-440-1006-1006 0-547 440-1006 1006-1006 z M1406-72c-436 0-791 351-791 791 0 436 351 791 791 791 436 0 791-351 791-791 0-436-351-791-791-791 z" fill="#636363"/>
		<path d="M1408 575c80 0 143 62 143 143 0 80-62 143-143 143-80 0-143-62-143-143 0-80 62-143 143-143 z" fill="#9B9B9B"/>
	</g></svg>
