<svg version="1.1" xmlns="http://www.w3.org/2000/svg" viewBox="0 0 2300 2300"><g transform="scale(1,-1) translate(-256, -1869)">
		<path d="M1406-183c496 0 902 401 902 902 0 495-401 902-902 902-495 0-902-401-902-902 0-496 401-902 902-902 z" fill="#E6E6E6"/>
		<path d="M1408 646c39 0 72 31 72 72l0 575c0 39-31 72-72 72-39 0-72-31-72-72l0-575c0-39 31-72 72-72 z" fill="#CA0B4A"/>
		<path d="M1837 647c39 0 72 31 72 72 0 39-31 72-72 72l-429 0c-38 0-72-33-72-72 0-39 34-72 72-72l429 0 z" fill="#000000"/>
		<path d="M1406-287c547 0 1006 440 1006 1006 0 547-440 1006-1006 1006-547 0-1006-440-1006-1006 0-547 440-1006 1006-1006 z M1406-72c-436 0-791 351-791 791 0 436 351 791 791 791 436 0 791-351 791-791 0-436-351-791-791-791 z" fill="#636363"/>
		<path d="M1408 575c80 0 143 62 143 143 0 80-62 143-143 143-80 0-143-62-143-143 0-80 62-143 143-143 z" fill="#9B9B9B"/>
	</g></svg>
