<svg version="1.1" xmlns="http://www.w3.org/2000/svg" viewBox="0 0 2300 2300"><g transform="scale(1,-1) translate(-256, -1869)">
		<path d="M1406-171c493 0 890 399 890 890 0 493-399 890-890 890-493 0-890-399-890-890 0-493 399-890 890-890 z" fill="#E6E6E6"/>
		<path d="M1408 72c38 0 72 31 72 71l0 575c0 39-31 72-72 72-39 0-72-31-72-72l0-575c0-40 34-71 72-71 z" fill="#CA0B4A"/>
		<path d="M1623 275c39 0 72 30 72 72 0 12-3 24-10 36l-215 371c-13 23-35 36-62 36-38 0-72-31-72-72 0-12 3-24 10-36l214-371c14-23 37-36 63-36 z" fill="#000000"/>
		<path d="M1406-287c547 0 1006 440 1006 1006 0 547-440 1006-1006 1006-547 0-1006-440-1006-1006 0-547 440-1006 1006-1006 z M1406-72c-436 0-791 351-791 791 0 436 351 791 791 791 436 0 791-351 791-791 0-436-351-791-791-791 z" fill="#636363"/>
		<path d="M1408 575c80 0 143 62 143 143 0 80-62 143-143 143-80 0-143-62-143-143 0-80 62-143 143-143 z" fill="#9B9B9B"/>
	</g></svg>
