<svg version="1.1" xmlns="http://www.w3.org/2000/svg"><g transform="scale(1,-1)">
		<path d="M1667-287c56 0 101 45 101 101l0 943c0 55-44 102-101 102l-569 0c-56 0-101-45-101-102l0-943c0-56 45-101 101-101l569 0 z" fill="#FFDEA7"/>
		<path d="M1440 999l0 170-116 0 0-170 116 0 z" fill="#9B9B9B"/>
		<path d="M1760 314c56 0 102 48 102 104l0 498c0 72-58 130-130 130l-699 0c-72 0-130-58-130-130l0-333c0-56 45-104 102-104 60 0 106 46 106 106l0 169c0 18 14 33 33 33l211 0c13 0 25-11 25-25l0-55c0-58 47-107 106-107 57 0 102 49 102 104l-1 32c0 24 4 51 34 51 18 0 33-14 33-33l0-334c0-60 46-106 106-106 z" fill="#FFCE7C"/>
		<path d="M1379 1134c124 0 222 96 222 219 0 41-12 81-33 116l-133 226c-11 19-30 30-53 30-22 0-43-12-53-30l-133-227c-20-35-32-73-32-113 0-117 94-221 215-221 z" fill="#FFB02E"/>
		<path d="M1382 1220c65 0 120 53 120 119 0 68-57 120-120 120-68 0-119-57-119-120 0-68 55-119 119-119 z" fill="#FCD53F"/>
	</g></svg>
