<svg version="1.1" xmlns="http://www.w3.org/2000/svg" viewBox="0 0 2300 2300"><g transform="scale(1,-1) translate(-256, -1869)">
		<path d="M1406-292c141 0 279 15 416 50 237 59 590 231 590 523 0 154-97 275-214 359-247 175-555 223-792 223-133 0-263-14-392-46-244-59-614-234-614-536 0-147 89-265 205-348 256-184 567-225 801-225 z" fill="#D3D3D3"/>
		<path d="M1406-295c123 0 244 12 364 40 222 49 571 202 571 464 0 217-240 359-435 425-187 62-346 78-500 78-131 0-259-14-386-45-209-51-549-197-549-458 0-134 90-240 205-314 239-154 519-190 730-190 z" fill="#321B41"/>
	</g></svg>
