<svg version="1.1" xmlns="http://www.w3.org/2000/svg" viewBox="0 0 2300 2300"><g transform="scale(1,-1) translate(-256, -1869)">
		<path d="M1197-285c17 0 30 12 30 30 0 14-7 23-20 28l-106 36c-11 3-16 11-16 22l0 98-237 0-13-198c0-7 6-16 14-16l70 0c27 0 2 51 36 51 30 0 23-51 47-51l195 0 z M1904-285c16 0 30 14 30 30 0 13-9 25-21 29l-104 35c-11 3-16 12-16 23l0 98-234 0-13-199c0-7 7-16 14-16l70 0c27 0 1 52 35 52 27 0 23-52 47-52l192 0 z" fill="#433B6B"/>
		<path d="M1324 1021c7 0 11 1 18 2l389 88c33 7 58 36 64 67l31 180-166 13-20-109-334-76c-40-10-65-44-65-82 0-46 35-83 83-83 z" fill="#0092E7"/>
		<path d="M985 521c31 0 112 24 112 62 0 9-3 16-10 23 3 11 12 38 12 45 0 19-17 31-31 37-3 3-10 34-10 39l-162-41c5-21 32-137 53-155 10-8 26-10 36-10 z M1840 1434c8 39 27 124 27 160 0 13-6 19-19 19-10 0-17-5-20-15l1 1-79 12c4 26 12 55 12 81 0 12-9 19-20 19-11 0-18-5-19-16l-19-120c-8 11-16 27-31 27-11 0-18-7-18-18 0-19 31-30 31-64 0-19-8-44-11-62l165-24 z" fill="#573739"/>
		<path d="M1694-177c33 0 66 3 99 9l47 434 1 15c0 31-10 60-29 83l-213 267-138-222 178-151c7-6 10-14 10-23 0-12-133-317-148-359 46-40 139-53 193-53 z" fill="#007ACF"/>
		<path d="M1573 630c68 0 150 29 207 76 7 6 11 14 11 23 0 13-57 144-65 165-47 118-115 219-225 280-32 19-68 45-107 45-60 0-105-49-105-105 0-38 15-57 43-85l149-146 65-251c5-1 9-2 14-2l13 0 z" fill="#00A6ED"/>
		<path d="M1078-190c5 0 11 1 16 2l99 296c13 40 35 75 65 104l196 194c46 15 81 41 104 76 31 48 36 85 41 149l-417 0c-1-9-2-18-2-27 0-23 3-44 10-65l-47-127c-73-198-189-325-317-494 67-83 153-108 252-108 z" fill="#0092E7"/>
		<path d="M1599 631c3 39 6 77 6 116 0 98-15 187-42 283-25 94-97 163-206 163-122 0-134-118-134-210 0-81 54-126 54-213 0-47-16-92-24-139l346 0 z" fill="#FF6723"/>
		<path d="M1307 518c19 0 86 0 89 24 9 100 22 198 22 298 0 70-22 139-62 201 12 15 18 33 18 54 0 45-37 83-84 83-10 0-21-2-32-7l-372-159c-30-13-51-43-51-77 0-35 41-168 52-213l148 94-18 70 135 58c18-56 33-96 33-153 0-73-24-146-42-218 0-38 142-55 164-55 z" fill="#00A6ED"/>
		<path d="M1446 1033c9 0 14 5 14 14 0 10-21 115-24 131-24 10-49 15-76 15-39 0-75-11-107-30l21-14c53-37 162-116 172-116 z" fill="#452829"/>
		<path d="M1397 553c9 96 21 191 21 287 0 73-26 162-88 238-17 20-32 26-47 35l-42-123 96-35c2-1 3-3 3-4 0-14-59-18-59-27 0-3 1-6 2-7 94-76 114-264 114-364 z" fill="#75E0FC"/>
		<path d="M904 653c-10 16-70 88-70 104 0 7 6 13 12 16l189 43 31-119-162-44 z M1224 985c-5 0-10 2-13 6-2 2-3 6-3 9l0 4 30 158 11 5 161-113-20-7-35-14c-13-5-27-11-42-16l-41-16c-13-5-24-8-33-11l-15-5 z M1457 1069l100 10c6 1 9 4 9 9 0 11-82 85-96 99l-31-25 18-93 z M1853 1332c3 0 7 1 10 4 4 3 6 8 6 13l-3 20-7 36-13 59-165 27-21-120 189-39 4 0 z" fill="#F95725"/>
		<path d="M1512 691c9 0 17 8 17 17 0 9-8 17-17 17-11 0-18-6-18-17 0-11 9-17 18-17 z M1507 817c11 0 17 6 17 17 0 9-8 17-17 17-9 0-17-8-17-17 0-9 8-17 17-17 z M1489 933c9 0 17 8 17 17 0 9-8 17-17 17-9 0-18-6-18-17 0-11 7-17 18-17 z" fill="#E6E6E6"/>
		<path d="M1844 1547c6 0 11 2 14 6 8 10 9 31 9 43 0 11-9 18-20 18-23 0-23-36-23-49 0-11 9-18 20-18 z M1803 1554c18 0 23 32 23 47 0 11-9 21-19 21-7 0-12-2-16-7 0 11-9 21-19 21-24 0-26-35-26-54 0-10 10-19 21-19 7 0 12 3 15 8 1-11 10-17 21-17 z" fill="#452829"/>
		<path d="M1514 1274c27 0 52 21 52 51 0 29-22 52-52 52-30 0-51-25-51-52 0-27 22-51 51-51 z M1212 1274c27 0 51 22 51 51 0 27-21 52-51 52-29 0-52-22-52-52 0-30 25-51 52-51 z" fill="#452829"/>
		<path d="M1408 1125c54 0 92 42 96 91 5 59 13 118 13 177 0 81-67 145-144 145l-27 0c-81 0-144-67-144-144 0-59 8-119 12-179 4-51 46-90 97-90l97 0 z" fill="#573739"/>
		<path d="M1256 1371c11 0 20 12 51 12 8 0 15 7 15 15 0 15-11 18-23 18-13 0-61-7-61-29 0-11 9-16 18-16 z M1462 1371c11 0 17 5 17 16 0 22-46 30-59 30-12 0-24-4-24-19 0-8 3-12 9-13 5-1 11-2 16-2 22 0 31-12 41-12 z" fill="#000000"/>
		<path d="M1513 1336c11 1 17 7 19 17 7 34 18 70 18 104 0 35-24 49-47 60-37 18-50 60-97 60-16 0-31-8-47-8-19 0-31 11-50 11-32 0-50-26-71-47-26-26-70-28-70-76 0-35 11-71 18-105 3-11 9-16 19-16-1 15-3 30-3 45 0 27 27 25 27 54l0 26c0 26 112 28 130 28 38 0 81-2 118-13 9-3 12-10 13-18l-1-24c0-30 27-28 27-52 0-14-2-32-3-46 z" fill="#3D2123"/>
		<path d="M1475 1324l-72 0c-5 0-8 3-8 8 0 19 26 36 44 36 19 0 43-15 43-35 0-5-2-8-7-9 z M1324 1324c5 0 7 3 7 8 0 20-24 36-43 36-19 0-43-15-43-35 0-5 2-8 7-9l72 0 z" fill="#FFFFFF"/>
		<path d="M1460 1324l-55 0-1 8c0 14 13 28 28 28 14 0 28-13 28-28l0-8 z M1322 1324l1 7c0 14-13 29-28 29-14 0-29-12-29-28 0-3 1-5 2-8l54 0 z" fill="#7D4533"/>
		<path d="M1447 1324l-29 0c-1 3-2 5-2 8 0 9 8 16 17 16 8 0 16-8 16-16 0-3-1-5-2-8 z M1309 1324c1 3 2 5 2 8 0 8-8 16-16 16-8 0-16-8-16-16l1-8 29 0 z" fill="#7D4533"/>
		<path d="M1424 1338c3 1 5 3 5 5l-5 5c-2 0-4-2-5-5 0-3 2-5 5-5 z M1285 1338c3 0 5 2 5 5-2 3-4 5-5 5-2 0-4-2-5-5 0-3 2-5 5-5 z" fill="#FFFFFF"/>
		<path d="M1376 1260c5 0 10 2 13 7 2 4 3 8 3 11l0 4c-1 2-2 6-3 13-1 7-3 14-5 21l-9 19c-3 5-7 8-11 8-5 0-9-3-12-9l-10-29-5-17-2-11c0-3 1-7 4-11 2-4 5-6 8-6l29 0 z" fill="#3D2123"/>
		<path d="M1364 1205c23 0 40 10 52 29-2 7 0 6-7 7-15-8-30-11-46-11-18 0-42 11-45 11-3 0-6-1-7-2l0-5c13-19 30-29 53-29 z" fill="#990839"/>
	</g></svg>
