<svg version="1.1" xmlns="http://www.w3.org/2000/svg"><g transform="scale(1,-1)">
		<path d="M1406-288c7 0 15 2 22 7l0 1c3 3 1 3 4 3l5 8c24 44 51 85 81 122 30 37 64 69 101 96 37 27 77 48 122 63 44 15 92 23 144 23 14 0 30-1 47-2 17-2 35-4 53-7 18-3 35-7 52-12 17-5 31-10 44-17l16 0c3 0 7 1 10 2l0 1 11 7c1 1 5 2 5 7l3 4 2 4 0 20-22 100c-7 31-10 66-10 103 0 55 9 109 26 160 17 51 44 97 80 139 28 33 58 60 89 81 31 21 66 42 103 61l1 0c3 2 4-1 4 3 2 1 4 3 7 6l1 3c3 2 4 5 4 9 2 4 3 8 3 12l0 5c-1 1-1 2-1 3-2 3-2 1-2 4l-6 11-10 8c-45 26-85 54-122 84-37 29-69 62-96 98-27 36-48 76-63 120-15 43-23 92-23 147 0 30 3 62 9 97 5 35 14 66 26 94l2 5 0 11c0 7-1 11-2 14l-1 0c-1 4-5 5-5 9l-11 9-5 2-3-1-3 1c-2 1-4 1-6 1-5 0-8 0-10-1-34-9-67-17-100-23-33-6-67-9-102-9-57 0-110 9-160 26-50 17-96 44-139 81-28 24-55 52-81 85-26 33-46 67-60 102-1 3-4 8-7 13-6 7-10 5-17 9-1 0-3 0-4 1l-5 0-12-2c0-1-2-3-6-3-5-3-10-8-13-13-25-45-52-86-82-123-31-37-65-69-102-96-37-27-78-48-123-63-45-15-95-22-148-22-29 0-60 3-94 9-35 5-69 14-96 28l-3-1-2 1c-2 1-4 1-6 1-4 0-8-1-13-3l-1-1c-6-2-3-4-9-4l-1-2c-2-2-2-1-2-3-2-7-4-4-5-8l-1 0-2-5 0-15-1-3 1-2c2-9 4-17 7-25 3-8 5-16 6-25 6-25 11-51 14-76 3-25 5-51 5-77 0-55-9-108-26-159-17-51-44-97-80-139-16-18-31-34-45-47-15-13-29-25-44-36-15-11-31-21-48-30l-57-30-4-3c-2-2-4-1-4-3-3-3-5-5-6-8l-4-9 0-15c2-3 2-1 2-4 2-4 4-8 7-11 2-3 5-6 9-8 46-27 88-56 125-85 37-30 69-63 96-99 26-37 46-77 61-122 15-45 22-95 22-151 0-29-3-60-8-94-5-35-13-69-27-96l1-3-1-3c-1-2-1-4-1-6 0-3 0-6 1-7l2-7 1 0c1-2 2-4 5-7l0-1c0-1 2-3 5-5l8-6 15-2c4 0 7 0 9 1 34 9 68 17 101 23 33 6 66 9 101 9 56 0 110-9 161-26 51-17 97-44 139-81 31-27 58-55 81-86 22-31 42-65 59-102 3-7 8-12 13-16 5-4 11-6 19-6 z M2032 145l-211 212c-9 32-15 65-15 98 0 103 60 188 148 228l291 0c-143-105-220-257-220-439 0-33 2-66 7-99 z M1443-128l0 299c50 88 124 153 233 153 31 0 62-6 92-17l206-205c-28 4-57 5-85 5-189 0-335-88-446-235 z M1371-118c-105 141-257 220-439 220-33 0-66-3-98-8l211 212c33 9 66 14 98 14 99 0 186-53 228-147l0-291 z M790 153c4 27 6 54 6 81 0 190-86 336-235 449l298 0c88-50 153-124 153-233 0-31-5-61-16-92l-206-205 z M861 755l-291 0c143 105 220 257 220 439 0 33-2 66-7 99l211-212c9-33 14-66 14-97 0-100-56-188-147-229 z M1139 1114c-31 0-62 6-92 17l-206 205c28-4 56-6 85-6 191 0 338 92 445 236l0-299c-49-87-124-153-232-153 z M1672 1118c-100 0-188 56-229 147l0 291c105-142 255-220 436-220 35 0 67 3 102 8l-211-212c-33-9-66-14-98-14 z M1834 755l-340 0 238 237 0-8c0-43 8-83 25-121 17-40 43-76 77-108 z M1735 443l-241 240 336 0c-33-34-58-70-73-109-15-37-22-78-22-122l0-9 z M1443 293l0 339 238-237-4 0c-92 0-170-34-234-102 z M1371 296c-64 70-151 95-240 95l240 241 0-336 z M1320 755l-335 0c34 30 59 67 74 110 14 40 21 81 21 122l0 8 240-240 z M1371 806l-237 237 4 0c91 0 169 34 233 102l0-339 z M1443 806l0 335c74-69 139-95 240-95l-240-240 z M1084 446c-1 94-36 173-103 237l340 0-237-237 z M2254 755l-298 0c-87 49-153 125-153 234 0 31 5 62 16 91l206 205c-5-29-6-58-6-87 0-189 93-336 235-443 z" fill="#998EA4"/>
	</g></svg>
