<svg version="1.1" xmlns="http://www.w3.org/2000/svg" viewBox="0 0 2300 2300"><g transform="scale(1,-1) translate(-256, -1869)">
		<path d="M2105-313c19 0 36 15 36 36 0 200-90 388-245 514 57 85 88 180 96 276 147-68 283-213 322-372 8-35 15-81 50-81 19 0 36 15 36 36l-1 7c-43 219-204 404-407 488-4 65-17 130-44 190 233 75 398 270 451 504l1 7c0 21-17 37-35 37-19 0-29-12-36-29-15-43-20-79-39-121-73-162-215-285-375-333-47 79-109 143-185 194 247 112 411 333 411 613 0 19-15 36-36 36-19 0-36-15-36-36 0-178-78-336-199-442-80-70-121-83-219-129l-7 4c32 45 49 99 49 155 0 98-50 188-138 238l0 76c0 55-43 98-98 98l0-140c-13 2-26 3-39 3-13 0-26-1-39-3l0 140c-55 0-99-44-99-98l0-76c-86-51-136-139-136-238 0-56 16-110 48-155l-7-4-77 36c-209 99-342 304-342 535 0 19-15 36-36 36-19 0-36-15-36-36 0-274 164-507 412-613-76-51-138-115-185-194-167 50-302 170-375 333-19 42-24 78-39 121-7 17-17 29-36 29-18 0-36-16-36-37l1-7c48-234 224-429 452-504-25-61-40-124-44-190-214-85-358-268-408-488l-1-7c0-19 16-36 37-36 36 0 42 46 51 82 39 161 180 305 322 371 7-96 38-191 95-276-155-126-246-312-246-514 0-19 15-36 36-36 19 0 36 15 36 36 0 184 84 347 217 457 106-122 261-198 435-198 174 0 329 76 435 198 133-109 216-272 216-457 0-19 15-36 36-36 z" fill="#635994"/>
	</g></svg>
