<svg version="1.1" xmlns="http://www.w3.org/2000/svg" viewBox="0 0 2300 2300"><g transform="scale(1,-1) translate(-256, -1869)">
		<path d="M797-159c151 0 381 110 381 294 0 56-22 110-63 152l-104 105c-42 42-98 63-152 63-45 0-84-13-124-39l-49-33c-133-93-69-222-117-335-19-45-41-57-85-96-2-3-3-7-3-10 0-15 10-29 24-33 93-28 190-68 292-68 z" fill="#FFB02E"/>
		<path d="M1198 187c19 0 36 7 51 21l128 126-22 270-281 37-128-126c-14-13-21-31-21-52 0-19 7-37 20-50l202-205c13-15 32-21 51-21 z" fill="#D3D3D3"/>
		<path d="M1377 334l950 982c34 36 51 82 51 127 0 101-81 185-184 185-48 0-92-19-126-50l-994-937 303-307 z" fill="#F92F60"/>
	</g></svg>
