<svg version="1.1" xmlns="http://www.w3.org/2000/svg"><g transform="scale(1,-1)">
		<path d="M811-208c205 0 412 150 412 374l0 665-60 59-58-35 0-674c0-160-137-282-294-282-144 0-293 104-293 267l0 659c0 33-29 54-59 54-30 0-59-21-59-54l0-644c0-223 191-389 411-389 z M811 141c100 0 185 79 185 183l0 501c0 33-29 54-59 54-30 0-59-21-59-54l0-516c0-37-33-61-67-61-34 0-68 22-68 61l0 768c0 70 51 129 113 152l47-43 60 51c79-16 143-79 143-160l0-89 57-53 60 15 0 112c0 144-110 257-244 281l-40 59-36 0-36-59c-101-19-175-75-220-168-12-24-21-50-21-77l0-789c0-74 53-133 118-156l0 2 1-2c21-8 43-12 66-12 z" fill="#BEBEBE"/>
		<path d="M2126 830c160 0 286 136 286 297 0 119-58 222-174 279-24 12-48 21-75 21l-790 0c-72 0-131-49-156-118l1 0-2-1c-7-22-11-43-11-64 0-98 76-187 182-187l502 0c33 0 53 29 53 59 0 29-21 59-53 59l-516 0c-37 0-61 33-61 67 0 34 22 68 61 68l768 0c93 0 166-88 166-181 0-91-67-181-165-181l-897 0c-158 0-278 133-283 290-13 2-26 3-38 3-23 0-45-5-68-12 5-200 154-399 374-399l896 0 z M979 1343c35 110 136 193 251 193l659 0c32 0 53 30 53 59 0 30-22 58-54 58l-643 0c-182 0-338-136-378-310 20 3 39 6 59 6 19 0 34-6 53-6 z" fill="#9B9B9B"/>
	</g></svg>
