<svg version="1.1" xmlns="http://www.w3.org/2000/svg"><g transform="scale(1,-1)">
		<path d="M415-309c9 0 18 4 25 11l102 102c7 7 10 15 10 25 0 19-15 36-36 36-10 0-18-3-25-10l-101-102c-7-7-11-16-11-26 0-18 15-36 36-36 z" fill="#402A32"/>
		<path d="M720-170l756 511c20 13 39 29 58 48l0 8c0 19 3 37 9 54 7 19 17 36 30 51 13 14 28 25 47 33 14 6 31 9 48 9l14-1 588 735-9 9c38 17 68 44 90 79 22 35 33 74 33 115 0 30-6 58-17 85-11 26-27 49-46 68-19 19-42 35-68 46-27 11-55 17-85 17-41 0-80-11-115-33-35-22-62-52-79-90l-9 9-734-587c0-21-4-41-12-59-9-19-20-35-34-48-14-14-30-25-49-32-17-7-35-11-54-11l-6 0-12-11c-5-5-9-10-13-15l-13-17-10-14-511-756 67-141 136-62 z" fill="#0074BA"/>
		<path d="M592-238c58 0 88 27 128 67l-204 204c-41-41-67-72-67-128 0-80 62-143 143-143 z M1533 389c38 38 123 115 150 155l-452 452c-41-27-118-113-155-150l457-457 z M1965 784c9 0 18 4 25 11l382 381c14 14 21 31 21 51 0 20-7 37-21 51l-356 356-51-51 356-356-381-381c-7-7-11-16-11-26 0-18 15-36 36-36 z" fill="#F9C23C"/>
	</g></svg>
