<svg version="1.1" xmlns="http://www.w3.org/2000/svg"><g transform="scale(1,-1)">
		<path d="M999 22c10 0 19 4 26 11l1296 1296c42 42 63 98 63 152 0 120-95 216-216 216-54 0-110-21-152-63l-1296-1296c-7-7-11-16-11-26 0-9 4-18 11-25l50-194 204-60c7-7 16-11 25-11 z" fill="#0074BA"/>
		<path d="M447-270c12 0 273 97 304 109 31 11 57 28 79 50l144 144-254 254-144-144c-22-22-39-48-50-79-12-27-109-293-109-304 0-16 14-30 30-30 z M1533 505c10 0 19 4 26 11 16 16 60 47 60 75 0 11-3 19-10 26l-305 305c-7 7-15 10-25 10-19 0-45-26-61-45-17-19-26-26-26-42 0-9 4-18 11-25l305-304c7-7 16-11 25-11 z M1965 800c20 0 37 7 51 21l356 355c14 14 21 31 21 51 0 20-7 37-21 51l-331 330c-14 14-31 21-51 21-38 0-71-31-71-72 0-19 7-36 21-50l279-280-305-305c-14-14-21-31-21-51 0-40 34-71 72-71 z" fill="#D3D3D3"/>
		<path d="M694-64c41 0 72 33 72 71 0 39-31 72-72 72-38 0-71-31-71-72 0-39 33-71 71-71 z" fill="#636363"/>
	</g></svg>
