<svg version="1.1" xmlns="http://www.w3.org/2000/svg" viewBox="0 0 2300 2300"><g transform="scale(1,-1) translate(-256, -1869)">
		<path d="M1290-287c236 0 452 150 566 358 101 185 278 419 425 586 40 44 61 89 61 147 0 98-77 183-178 183-52 0-104-23-138-60l-188-202 218 563c12 31 21 59 21 94 0 97-72 182-170 182-103 0-163-102-192-184 16 37 41 125 41 164 0 104-77 173-178 173-137 0-161-120-207-256-31-93-57-186-84-281-11-37-18-75-29-112 0-5-11-46-24-46-11 0-20 41-23 46l-83 250c-15 45-27 92-46 135-27 67-97 103-164 103-90 0-170-78-170-165 0-40 27-110 39-157-21 59-82 95-151 95-92 0-171-64-171-158 0-121 91-326 120-454l10-32c16-91 19-182 30-273 44-372 254-699 665-699 z" fill="#FDD641"/>
		<path d="M1069 137c11 0 21 5 29 15l28 35c9 12 18 24 28 35 45 50 96 95 152 134 56 39 115 73 176 102 50 23 102 43 156 59l29 10c11 3 21 5 30 5l2 1 4-1c2 0 4 1 7 3 3 2 7 5 10 9 3 4 5 8 7 13 1 4 2 8 2 11 0 14-6 25-18 32-27 17-61 32-102 43-41 11-83 19-127 25-45 6-89 10-132 12-43 2-81 3-114 3l-57 0c-23 0-46 0-69-1l-69-3c-22-1-41-3-56-6-22-3-33-16-33-38 0-11 4-19 12-25 8-6 17-9 26-9 13 0 26 1 39 2l38 3 85 4c28 1 56 1 84 1 58 0 116-2 174-7 58-5 115-15 171-30-51-17-102-37-153-62-51-25-101-54-148-86-47-33-91-68-132-107-41-39-77-81-108-125-5-7-7-14-7-21 0-10 4-18 11-25 7-7 16-11 25-11 z M944 877c21 0 35 18 35 36l-2 13-152 418c-12 33-20 68-20 103 0 30 6 63 29 86-46-27-86-84-86-142 0-21 28-119 36-144l125-346c5-14 20-24 35-24 z M1606 916c15 0 30 10 35 24l163 474c18 55 64 142 135 142 7 0 15-1 23-3-19 7-37 11-55 11-81 0-156-78-180-151-16-43-156-444-156-460 0-21 17-37 35-37 z M1280 994c7 0 14 3 21 8 7 5 11 11 13 18l161 552 1 1c4 17 10 35 19 53 8 17 18 33 31 47 12 13 26 24 43 32 12 5 25 8 39 8l16-1c-13 3-28 4-45 4-37 0-69-9-95-27-26-18-46-44-60-78-13-31-24-62-34-93-11-32-21-64-31-96-19-59-36-117-53-176-17-59-33-118-48-178-1-7-3-13-5-20-3-7-6-14-10-19 1-9 5-17 12-24 7-7 15-11 25-11 z" fill="#FFB02C"/>
	</g></svg>
