<svg version="1.1" xmlns="http://www.w3.org/2000/svg" viewBox="0 0 2300 2300"><g transform="scale(1,-1) translate(-256, -1869)">
		<path d="M1836 863c82 0 145 70 145 153l0 413c0 80-62 152-145 152l-860 0c-83 0-145-71-145-152l0-413c0-80 61-153 145-153l860 0 z" fill="#433B6B"/>
		<path d="M2125 72l48 383c8 64 24 127 24 192 0 65-16 128-24 192l-48 383-1438 0-48-383c-8-64-24-127-24-192 0-65 16-128 24-192l48-383 1438 0 z" fill="#635994"/>
		<path d="M2053 72l0 217c0 80-63 142-143 142l-1007 0c-80 0-144-63-144-142l0-217 1294 0 z" fill="#1C1C1C"/>
		<path d="M1794-287c60 0 115 47 115 111l0 607-1006 0 0-607c0-65 56-111 116-111l775 0 z" fill="#433B6B"/>
		<path d="M1730-144c54 0 107 40 107 101l0 474-862 0 0-473c0-58 50-102 107-102l648 0 z M2242 72c91 0 170 70 170 160l0 831c0 94-82 159-170 159l-117 0 0-1150 117 0 z M687 72l0 1150-117 0c-88 0-170-66-170-159l0-831c0-93 81-160 170-160l117 0 z M1837 1222l0 409c0 58-56 94-107 94l-648 0c-52 0-107-37-107-94l0-409 862 0 z" fill="#D3D3D3"/>
		<path d="M2268 431c39 0 72 34 72 72 0 39-31 72-72 72-40 0-71-34-71-72 0-38 31-72 71-72 z M1693 0c19 0 36 15 36 36 0 19-15 36-36 36l-575 0c-18 0-35-17-35-36 0-19 17-36 35-36l575 0 z M1693 144c19 0 36 15 36 36 0 19-15 36-36 36l-575 0c-18 0-35-17-35-36 0-19 17-36 35-36l575 0 z M1693 288c19 0 36 15 36 36 0 18-17 36-36 36l-575 0c-18 0-35-17-35-36 0-19 17-36 35-36l575 0 z M2268 647c39 0 72 31 72 72 0 39-31 72-72 72-40 0-71-34-71-72 0-38 31-72 71-72 z" fill="#9B9B9B"/>
		<path d="M1622 575c40 0 71 34 71 72 0 38-31 72-71 72l-360 0c-39 0-72-31-72-72 0-39 31-72 72-72l360 0 z" fill="#1C1C1C"/>
		<path d="M2268 216c39 0 72 31 72 72 0 38-33 72-72 72-40 0-71-34-71-72 0-38 31-72 71-72 z" fill="#F70A8D"/>
	</g></svg>
