<svg version="1.1" xmlns="http://www.w3.org/2000/svg" viewBox="0 0 2300 2300"><g transform="scale(1,-1) translate(-256, -1869)">
		<path d="M2412-287l0 2012-1006-215-1006 215 0-2012 1006 215 1006-215 z" fill="#D3883E"/>
		<path d="M1406 719l1006 1006-2012 0 1006-1006 z" fill="#F3AD61"/>
		<path d="M2412-287l-1006 1006-1006-1006 2012 0 z" fill="#B97028"/>
		<path d="M1550 288l647 922 0 300-1582 0 0-360 108-215-108-216 0-216 935-215 z" fill="#AEDDFF"/>
		<path d="M903 719c81 0 144 67 144 144 0 80-65 143-144 143 0 39-31 72-72 72-16 0-30-5-43-14-43 57-108 86-173 86l0-431 288 0 z M1837 647c112 0 207 86 215 199 39-34 90-55 145-55l0 431c-63 0-127-28-168-80-16 5-32 8-48 8-52 0-98-26-125-72l-19 0c-120 0-215-97-215-215 0-121 97-216 215-216 z" fill="#FFFFFF"/>
		<path d="M2197-72l0 1078c-122 0-194-49-288-143l-323-324c-31-31-79-86-128-86-19 0-36 6-52 14l-288 144c-47 23-96 36-147 36-51 0-92-12-140-36l-216-108 0-575 1582 0 z" fill="#14A085"/>
		<path d="M2197-72l0 14c-205 205-500 310-791 310-287 0-584-103-791-310l0-14 1582 0 z" fill="#96C34A"/>
		<path d="M1442 971c11 0 21 3 30 9 9 5 15 13 19 22 9-7 19-10 32-10 17 0 31 6 41 18 8 11 12 23 12 37l0 5 6 0c15 0 28 5 39 15 10 10 15 23 15 38 0 13-3 23-10 32 9 4 17 11 23 20 6 9 9 18 9 29 0 11-3 21-9 30-6 9-14 15-23 19 7 9 10 19 10 32 0 17-6 30-18 41-11 9-23 13-37 13l-5 0 0 5c0 15-5 28-15 39-10 10-23 15-38 15-13 0-23-3-32-10-4 9-10 17-19 23-9 6-19 9-30 9-11 0-20-3-29-9-9-6-16-14-20-23-9 7-19 10-32 10-16 0-29-6-40-17-10-11-14-23-14-37l0-5-5 0c-15 0-28-5-38-15-11-11-16-24-16-39 0-13 3-23 10-32-9-4-17-10-23-19-6-9-9-19-9-30 0-11 3-20 9-29 6-9 14-16 23-20-7-9-10-19-10-32 0-17 6-30 18-40 10-9 22-13 36-13l5 0 0-5c0-15 5-28 16-39 10-11 23-16 38-16 13 0 23 3 32 10 4-9 11-17 20-22 9-6 18-9 29-9 z" fill="#FF822D"/>
		<path d="M1442 1028c89 0 158 73 158 158 0 85-68 159-158 159-87 0-159-69-159-159 0-85 69-158 159-158 z" fill="#F9C23C"/>
	</g></svg>
