<svg version="1.1" xmlns="http://www.w3.org/2000/svg" viewBox="0 0 2300 2300"><g transform="scale(1,-1) translate(-256, -1869)">
		<path d="M1693-287c191 0 360 153 360 359l0 1294c0 200-163 359-360 359l-575 0c-196 0-359-159-359-359l0-1294c0-196 157-359 359-359l575 0 z" fill="#CDC4D6"/>
		<path d="M1406 791c19 0 36 15 36 36l0 179 36 0c38 0 72 33 72 72l0 288c0 39-31 72-72 72l-36 0 0 287-72 0 0-287-36 0c-39 0-72-31-72-72l0-288c0-38 33-72 72-72l36 0 0-179c0-19 15-36 36-36 z" fill="#998EA4"/>
	</g></svg>
