<svg version="1.1" xmlns="http://www.w3.org/2000/svg"><g transform="scale(1,-1)">
		<path d="M1865-287c103 0 188 83 188 188l0 1636c0 105-87 188-188 188l-918 0c-104 0-188-84-188-188l0-1636c0-103 81-188 188-188l918 0 z" fill="#000000"/>
		<path d="M1856-215c68 0 125 55 125 126l0 646c0 69-54 126-125 126l-900 0c-68 0-125-55-125-126l0-646c0-69 54-126 125-126l900 0 z M1856 755c68 0 125 55 125 126l0 646c0 69-54 126-125 126l-900 0c-68 0-125-55-125-126l0-646c0-69 54-126 125-126l900 0 z" fill="#433B6B"/>
		<path d="M1581 322c31 0 56 27 56 57l0 114c0 31-26 56-56 56l-353 0c-30 0-56-25-56-56l0-114c0-30 25-57 56-57l353 0 z M1581 1287c31 0 56 27 56 57l0 113c0 30-25 57-56 57l-353 0c-31 0-56-27-56-57l0-113c0-30 25-57 56-57l353 0 z" fill="#F4F4F4"/>
		<path d="M1581 295c48 0 83 38 83 84l0 114c0 45-37 83-83 83l-353 0c-45 0-83-37-83-83l0-114c0-46 35-84 83-84l353 0 z M1581 1260c48 0 83 38 83 84l0 113c0 46-35 84-83 84l-353 0c-48 0-83-38-83-84l0-113c0-46 35-84 83-84l353 0 z M1609 65c32 0 54 24 54 54 0 30-22 54-54 54l-411 0c-30 0-54-22-54-54 0-30 22-54 54-54l411 0 z M1581 349l-353 0c-16 0-30 14-30 30l0 114c0 16 14 30 30 30l353 0c16 0 30-14 30-30l0-114c0-16-14-30-30-30 z M1609 1029c29 0 54 24 54 54 0 30-22 54-54 54l-411 0c-30 0-54-22-54-54 0-29 24-54 54-54l411 0 z M1581 1314l-353 0c-16 0-30 14-30 30l0 113c0 16 14 30 30 30l353 0c16 0 30-14 30-30l0-113c0-16-14-30-30-30 z" fill="#8D65C5"/>
	</g></svg>
