<svg version="1.1" xmlns="http://www.w3.org/2000/svg"><g transform="scale(1,-1)">
		<path d="M2260-284c85 0 152 71 152 153l0 866c0 149-121 271-271 271l-1470 0c-149 0-271-120-271-271l0-866c0-86 69-153 152-153l1708 0 z" fill="#433B6B"/>
		<path d="M1586-72c59 0 107 49 107 108l0 216c0 58-47 108-107 108l-360 0c-58 0-108-49-108-108l0-216c0-58 49-108 108-108l360 0 z M2260 538c87 0 152 72 152 153l0 666c0 81-65 153-152 153l-1708 0c-85 0-152-69-152-153l0-666c0-86 69-153 152-153l1708 0 z" fill="#8D65C5"/>
		<path d="M2218 646l28 1c30 0 59 10 59 45l0 664c0 25-21 44-45 44l-1708 0c-24 0-45-19-45-44l0-664c0-35 29-45 59-45 14-1 25-1 39-1l10 1 527 72c90 12 173 36 264 36 91 0 174-24 264-36l527-72 11-1 10 0 z" fill="#321B41"/>
		<path d="M1586 0c18 0 36 17 36 36l0 216c0 18-17 36-36 36l-360 0c-19 0-36-15-36-36l0-216c0-19 15-36 36-36l360 0 z" fill="#F4F4F4"/>
		<path d="M1765 1438l216 72 0 70c0 39-31 73-72 73l-287 0c-41 0-72-34-72-73l0-70 215-72 z" fill="#00D26A"/>
		<path d="M2197 1006l0 347c0 82-65 157-153 157l-1276 0c-88 0-153-75-153-157l0-345 1582-2 z" fill="#FFB02E"/>
		<path d="M1406 1150l216 72 0 71c0 37-30 73-72 73l-288 0c-42 0-72-36-72-73l0-71 216-72 z" fill="#00A6ED"/>
		<path d="M2197 755l0 310c0 85-68 157-153 157l-1276 0c-85 0-153-72-153-157l0-309 1582-1 z" fill="#F9C23C"/>
		<path d="M1047 863l215 72 0 70c0 39-31 73-72 73l-287 0c-41 0-72-34-72-73l0-70 216-72 z" fill="#F8312F"/>
		<path d="M2197 647l0 135c0 82-65 153-151 153l-1270 0c-85 0-161-70-161-162l0-126 1582 0 z" fill="#FCD53F"/>
	</g></svg>
