<svg version="1.1" xmlns="http://www.w3.org/2000/svg"><g transform="scale(1,-1)">
		<path d="M1801 1474c29 0 56 8 84 12l168 24 0 36c0 59-49 107-108 107l-287 0c-58 0-108-47-108-107l0-36 167-24c28-4 55-12 84-12 z" fill="#00D26A"/>
		<path d="M2412 1006l0 288c0 121-97 216-215 216l-1582 0c-119 0-215-97-215-216l0-288 2012 0 z" fill="#FFB02E"/>
		<path d="M1442 1150l251 72 0 36c0 60-49 108-107 108l-288 0c-58 0-108-49-108-108l0-36 252-72 z" fill="#00A6ED"/>
		<path d="M2412 647l0 359c0 121-97 216-215 216l-1582 0c-119 0-215-97-215-216l0-359 2012 0 z" fill="#F9C23C"/>
		<path d="M1011 863l251 72 0 36c0 58-47 107-108 107l-287 0c-60 0-108-49-108-107l0-36 252-72 z" fill="#F8312F"/>
		<path d="M2197-287c120 0 215 97 215 215l0 791c0 121-97 216-215 216l-1582 0c-119 0-215-97-215-216l0-791c0-120 97-215 215-215l1582 0 z" fill="#FCD53F"/>
	</g></svg>
