<svg version="1.1" xmlns="http://www.w3.org/2000/svg" viewBox="0 0 2300 2300"><g transform="scale(1,-1) translate(-256, -1869)">
		<path d="M940-286c38 0 94 34 94 79 0 32-13 59-13 91 0 41 32 70 71 70 32 0 56-13 88-13 45 0 84 54 84 97 0 23-7 41-22 56l-169 169c-15 15-33 22-56 22-27 0-51-10-71-30l-222-223c-18-18-31-44-31-71 0-22 7-40 22-55l169-169c15-15 34-23 56-23 z" fill="#FF9F2E"/>
		<path d="M557-217c59 0 115 28 154 67l817 817c78-39 165-61 255-61 308 0 560 249 560 560 0 305-243 559-549 559-305 0-581-244-581-553 0-94 28-182 70-262-225-225-469-464-700-699-82-85-183-155-183-267 0-88 66-161 157-161 z M1784 887c-149 0-286 123-286 283 0 154 136 276 289 276 152 0 276-125 276-279 0-154-124-280-279-280 z" fill="#F9C23C"/>
		<path d="M1442 485c30 0 54 25 54 54 0 7-2 15-5 23 8-3 16-5 23-5 30 0 54 25 54 54 0 15-5 27-16 38l-288 288c-11 11-23 16-38 16-32 0-53-25-53-55 0-9 2-17 5-23-6 3-14 5-23 5-30 0-55-21-55-53 0-15 5-27 16-38l288-288c11-11 23-16 38-16 z" fill="#FFB02E"/>
	</g></svg>
