<svg version="1.1" xmlns="http://www.w3.org/2000/svg" viewBox="0 0 2300 2300"><g transform="scale(1,-1) translate(-256, -1869)">
		<path d="M1083-215l1126 1127c83 83 127 195 127 307 0 243-197 438-440 438-113 0-226-43-312-130l-1125-1137 624-605 z" fill="#B4ACBC"/>
		<path d="M868-313c168 0 285 117 285 285 0 249-247 493-493 493-168 0-285-117-285-285 0-252 247-493 493-493 z" fill="#CDC4D6"/>
		<path d="M797-79c68 0 76 35 76 95l0 27c0 98-99 168-186 168-80 0-92-41-138-96 16-51 49-115 94-153 44-38 106-41 154-41 z" fill="#B4ACBC"/>
		<path d="M790-301c176 0 311 121 311 299 0 213-214 417-427 417-146 0-250-123-250-266 0-169 155-366 339-366 128 0 232 109 232 235 0 162-160 288-316 288-98 0-158-64-158-159 0-130 114-254 252-254 89 0 125 49 125 132 0 114-117 204-226 204-42 0-83-16-111-48 14 63 54 89 119 89 130 0 279-107 279-251 0-106-86-201-195-201-162 0-304 177-304 334 0 117 87 227 214 227 189 0 391-184 391-379 0-159-119-266-279-266-54 0-107 9-160 28 43-27 114-63 164-63 z M774-71c-94 0-184 70-208 161l-1 10c0 55 50 93 106 93 86 0 191-72 191-167 0-67-23-97-88-97 z" fill="#B4ACBC"/>
		<path d="M795-106c77 9 103 59 103 131 0 112-113 204-227 204-27 0-54-5-77-20 95-49 205-154 205-277 0-14-1-24-4-38 z" fill="#B4ACBC"/>
		<path d="M1083-215c206 232 1224 1416 1224 1636 0 6-1 12-3 17-57 130-226 224-353 272-9 3-17 5-24 5-19 0-35-7-49-21l-1061-1061c-14-14-21-31-21-51 0-13 2-24 7-32 22-38 82-80 124-122 117-120 224-273 224-443 0-69-18-143-68-200 z" fill="#B4ACBC"/>
		<path d="M1069-238c168 168 342 332 524 504 147 142 558 515 732 735 78 99 90 165 90 241 0 114-58 238-127 335-61 84-116 144-198 144-50 0-96-22-128-55l-1055-1086c-7-7-11-17-11-28 0-9 2-17 6-22 14-22 47-48 68-69 103-106 182-278 182-443 0-88-21-183-83-256 z" fill="#F3EEF8"/>
		<path d="M1724 523c9 0 16 4 23 11l299 312c6 7 9 15 9 23 0 159-89 321-242 386-14 5-66 23-76 23-11 0-19-1-27-9l-316-310c-7-7-11-15-11-24 0-15 8-24 20-31 174-99 224-150 288-355 5-17 16-26 33-26 z" fill="#9B9B9B"/>
		<path d="M1560 338c9 0 18 4 25 11 9 9 10 17 10 29-5 42-15 84-28 125-13 41-31 81-52 118-21 37-47 71-76 102-30 31-63 58-100 80l-21 12-22 10-9-25 9 25-12 2c-9 0-18-4-25-11-7-7-11-16-11-25l2-9c1-5 3-9 6-13 2-4 5-7 8-10 2-2 3-3 5-3l3 1c62-31 111-71 148-121 36-51 64-109 83-174 5-15 9-31 12-46l9-48c2-9 6-17 13-22 6-5 14-8 23-8 z M2196 974c18 0 39 11 39 33 0 129-75 278-174 366-33 29-74 59-127 75-12 4-21 11-31 11-21 0-37-17-37-36 0-19 11-28 27-35 44-19 85-37 121-69 104-88 127-189 150-313 3-16 13-32 32-32 z M2329 1115c22 0 32 21 32 40 0 30-10 61-18 90-45 152-160 276-307 337-3 1-7 2-13 2-19 0-36-17-36-35 0-15 9-27 22-34 23-13 48-21 71-36 97-61 163-155 194-255 10-37 8-109 55-109 z" fill="#9B9B9B"/>
	</g></svg>
