<svg version="1.1" xmlns="http://www.w3.org/2000/svg" viewBox="0 0 2300 2300"><g transform="scale(1,-1) translate(-256, -1869)">
		<path d="M1967-359c89 0 158 73 158 158l0 1696c0 89-73 158-158 158l-1194 0c-89 0-158-71-158-159l0-1687c0-105 87-166 179-166l748 0 6 1 8-1 411 0 z" fill="#B4ACBC"/>
		<path d="M1967-287c49 0 86 42 86 86l0 1696c0 49-42 86-86 86l-63 0c-38 0-73-24-84-64l-339-1290c-2-7-3-15-3-22l0-406c0-48 38-86 86-86l403 0 z" fill="#CDC4D6"/>
		<path d="M1535-287c10 0 18 3 25 10l421 421 0 1350c0 49-39 87-85 87l-1123 0c-49 0-86-39-86-87l0-1687c0-64 52-94 107-94l741 0 z" fill="#F3EEF8"/>
		<path d="M1550-287l431 431-345 0c-49 0-86-42-86-86l0-345 z" fill="#B4ACBC"/>
		<path d="M1692 1400c23 0 39 16 39 38 0 56-112 25-112 137 0 57 42 104 97 104 47 0 96-47 96-97l76 0c0 89-77 173-172 173-60 0-110-30-141-75-31 43-82 75-140 75-58 0-111-29-141-75-32 43-84 75-141 75-54 0-107-24-140-73-30 42-82 73-138 73-99 0-174-84-174-179 0-75 63-176 150-176 23 0 39 16 39 38 0 56-112 25-112 137 0 57 42 104 97 104 47 0 96-47 96-97l9 0c0-80 59-182 149-182 23 0 39 16 39 38 0 56-112 26-112 137 0 57 42 104 97 104 47 0 97-48 97-97l12 0c0-80 59-182 149-182 23 0 39 16 39 38 0 56-112 25-112 137 0 57 42 104 97 104 47 0 97-48 97-97l11 0c0-80 59-182 149-182 z" fill="#BEBEBE"/>
		<path d="M1370 431c19 0 36 18 36 36 0 19-15 36-36 36l-503 0c-19 0-36-15-36-36 0-18 17-36 36-36l503 0 z M1801 647c19 0 36 15 36 36 0 19-15 36-36 36l-934 0c-19 0-36-15-36-36 0-19 15-36 36-36l934 0 z M1801 863c19 0 36 15 36 36 0 18-17 36-36 36l-934 0c-18 0-36-17-36-36 0-19 15-36 36-36l934 0 z M1801 1078c19 0 36 15 36 36 0 19-15 36-36 36l-934 0c-19 0-36-15-36-36 0-19 15-36 36-36l934 0 z" fill="#998EA4"/>
	</g></svg>
