<svg version="1.1" xmlns="http://www.w3.org/2000/svg" viewBox="0 0 2300 2300"><g transform="scale(1,-1) translate(-256, -1869)">
		<path d="M436-251l431 311c84 63 143 83 216 156 74 74 93 129 156 216l311 431-178 178-647-647c-111-115-312-406-312-576 0-25 4-50 23-69 z" fill="#D3D3D3"/>
		<path d="M505-274c161 0 455 191 576 312l647 647-178 178-1114-1114c19-19 44-23 69-23 z" fill="#9B9B9B"/>
		<path d="M1693 755c66 0 129 26 178 74l288 287c45 45 76 108 76 178 0 13-1 25-3 37l-35 215-179-1c-12 0-24 3-36 3-70 0-133-29-179-76l-287-288c-48-49-74-112-74-178 0-135 111-251 251-251 z" fill="#7D4533"/>
		<path d="M1819 360c109 0 198 87 198 197 0 109-88 198-198 198-15 0-26-1-41-4l-340 340c3 15 4 26 4 41 0 109-88 198-198 198-109 0-197-88-197-198 0-109 87-197 197-197 15 0 28 1 41 4l341-341c-3-13-4-26-4-41 0-109 87-197 197-197 z M2232 1331c101 8 180 95 180 197 0 109-87 197-197 197-102 0-189-79-197-180l214-214 z" fill="#F9C23C"/>
		<path d="M1819 431c69 0 126 56 126 126 0 69-56 126-126 126-69 0-126-56-126-126 0-69 56-126 126-126 z M1244 1006c69 0 126 56 126 126 0 69-56 126-126 126-69 0-126-56-126-126 0-69 56-126 126-126 z" fill="#F70A8D"/>
	</g></svg>
