<svg version="1.1" xmlns="http://www.w3.org/2000/svg" viewBox="0 0 2300 2300"><g transform="scale(1,-1) translate(-256, -1869)">
		<path d="M2017-144c58 0 108 49 108 108l0 302c116 96 230 220 313 360 31 53 48 105 48 165 0 101-51 180-115 265-246 320-563 525-965 525-402 0-725-208-964-525-62-83-117-165-117-265 0-102 52-180 117-265 242-320 565-526 964-526 85 0 168 9 249 28l313-160c15-8 31-12 49-12 z" fill="#9B9B9B"/>
		<path d="M2016-72c21 0 37 17 37 36l0 336c92 72 186 169 258 264 55 73 103 145 103 227 0 84-48 152-101 223-228 302-536 496-907 496-373 0-678-193-906-496-53-70-103-143-103-223 0-84 51-155 103-223 227-302 535-496 906-496 88 0 174 11 258 33 40-20 332-177 352-177 z" fill="#FFFFFF"/>
	</g></svg>
