<svg version="1.1" xmlns="http://www.w3.org/2000/svg" viewBox="0 0 2300 2300"><g transform="scale(1,-1) translate(-256, -1869)">
		<path d="M973-146c29 0 56 8 80 24l354 234 162-95c21-12 48-19 72-19 43 0 79 16 108 48l151 169 223 0c79 0 144 63 144 144l0 182 165 139c32 26 51 67 51 110 0 45-17 81-51 110l-165 139 0 182c0 81-67 144-144 144l-220 0-150 167c-29 32-65 48-108 48-31 0-61-9-85-28l-156-115-156 116c-25 18-58 29-88 29-40 0-78-18-105-49l-150-168-220 0c-80 0-143-62-143-143l0-183-165-139c-34-29-51-65-51-110 0-44 17-80 51-109l165-140 0-182c0-80 64-144 143-144l144 0 0-217c0-81 67-144 144-144 z" fill="#9B9B9B"/>
		<path d="M976-74c5 0 12 1 19 4 7 2 13 5 18 8l354 235c5 3 12 6 19 9 7 2 13 3 19 3 16 0 34-6 55-18 21-12 42-25 63-39 21-15 42-28 63-40 21-12 39-18 54-18 23 0 41 8 55 24l151 169c7 8 16 14 25 18 9 4 18 6 29 6l223 0c19 0 36 7 51 22 14 14 21 31 21 50l0 183c0 22 8 40 25 54l165 140c17 14 26 32 26 55 0 23-9 41-26 55l-165 139c-7 6-13 14-18 23-5 9-7 18-7 28l0 186c0 19-7 36-21 51-15 14-32 21-51 21l-220 0c-11 0-20 2-29 6-9 3-17 9-24 18l-151 167c-7 7-15 13-24 17-10 4-20 6-30 6-15 0-29-5-42-14l-157-115c-13-9-27-14-42-14-16 0-30 5-43 14l-156 117c-5 5-12 8-20 10-8 2-16 3-23 3-22 0-40-8-54-23l-150-168-11-10c-4-3-8-6-13-8-9-4-19-6-30-6l-219-1c-20 0-37-7-50-21-14-14-21-31-21-51l0-182c0-10-2-20-7-30-5-10-12-18-19-25l-165-139c-8-7-14-15-18-24-5-10-7-20-7-31 0-10 2-20 7-30 5-10 11-18 18-25l165-139c8-7 14-15 19-24 5-11 7-21 7-31l0-182c0-20 7-37 21-51 15-15 33-22 55-23l18 0c16 0 33 1 50 2 17 1 34 2 50 2l18 0c22-1 40-8 54-23 14-15 21-32 21-51l0-217c0-21 7-39 22-52 15-13 32-20 53-20 z" fill="#FFFFFF"/>
	</g></svg>
