<svg version="1.1" xmlns="http://www.w3.org/2000/svg" viewBox="0 0 2300 2300"><g transform="scale(1,-1) translate(-256, -1869)">
		<path d="M2211-215c41 0 75 31 75 74l0 352-642 729-337 2-525-268-382-463 0-351c0-41 31-75 74-75l1737 0 z" fill="#321B41"/>
		<path d="M2335-217c44 0 77 35 77 77l0 351-372 494-634 86 72-288c26-105 112-143 215-143 79 0 142-47 184-108l320-467c48-1 90-2 138-2 z" fill="#6B438B"/>
		<path d="M1880 648c80 0 91 23 161 55l-295 393c-24 33-61 54-101 54l-322 0c-19-64-46-153-46-220 0-47 19-85 42-123 28-47 48-102 65-159 105 0 148 72 248 72 106 0 148-72 248-72 z" fill="#F4F4F4"/>
		<path d="M1384 648c19 0 37 1 56 6l-58 231c-4 17-6 34-6 52 0 46 14 89 41 126 36 50 69 66 133 87l-320 0c-33 0-68-15-90-42l-358-434c34-18 66-26 106-26 105 0 148 72 248 72 106 0 148-72 248-72 z" fill="#CDC4D6"/>
	</g></svg>
