<svg version="1.1" xmlns="http://www.w3.org/2000/svg" viewBox="0 0 2300 2300"><g transform="scale(1,-1) translate(-256, -1869)">
		<path d="M2248-287c85 0 164 62 164 152l0 926c0 87-75 153-164 153l-1684 0c-84 0-164-62-164-153l0-926c0-87 76-152 164-152l1684 0 z" fill="#636363"/>
		<path d="M2412 791l0 494c0 87-75 153-164 153l-1684 0c-84 0-164-62-164-153l0-494 2012 0 z" fill="#9B9B9B"/>
		<path d="M1809 1005c8 0 16 2 24 5 11 5 22 12 31 21 9 9 16 19 22 31 5 11 8 23 8 34 0 13-3 25-8 36-5 11-12 20-21 28-9 8-20 14-31 19-11 4-23 6-36 6l-784 0c-13 0-25-2-36-6-11-5-21-11-30-19-9-8-17-17-22-28-5-11-8-23-8-36 0-11 3-23 9-34 5-12 13-22 22-31 9-9 19-16 30-21 8-3 16-5 24-5l11 1 392 72 392-72 11-1 z" fill="#321B41"/>
		<path d="M1798 1006l0 629c0 53-46 90-97 90l-585 0c-51 0-97-37-97-90l0-629 779 0 z" fill="#F3EEF8"/>
		<path d="M2148-93c57 0 109 42 109 102l0 569c0 57-49 102-109 102-57 0-109-42-109-102l0-569c0-57 49-102 109-102 z" fill="#D3D3D3"/>
		<path d="M1301 1131c17 0 32 6 43 18l337 346c10 11 15 23 15 36 0 32-28 54-58 54-16 0-32-6-43-18l-293-301-85 90c-11 12-26 18-43 18-30 0-58-21-58-53 0-13 5-25 14-36l127-136c11-12 28-18 44-18 z" fill="#44911B"/>
	</g></svg>
