<svg version="1.1" xmlns="http://www.w3.org/2000/svg" viewBox="0 0 2300 2300"><g transform="scale(1,-1) translate(-256, -1869)">
		<path d="M1156-287l1113 1510-144 175 0 40c0 156-128 287-288 287l-486 0c-85 0-172-30-241-92l-229-206c-19-17-32-38-40-61l135-145-103-142c-3-56-16-112-36-164l-393-289c-29-21-44-49-44-86 0-60 46-109 108-109l136 0c-27-46-60-80-101-116-39-34-48-50-48-104l120-66-72-73 0-144c0-119 97-215 216-215l397 0 z" fill="#D3D3D3"/>
		<path d="M961 431c62 0 115 41 134 95 15 46 177 475 177 493 0 13-6 20-19 20-21 0-37-18-43-35l-178-455c-10-27-35-46-67-46l-457 0c-21 0-56-15-56-42 0-24 37-30 55-30l454 0 z M1837-287c40 0 78 8 113 23 35 15 65 35 91 61 26 26 47 56 62 91 15 35 22 72 22 112l0 251c0-12 4-20 13-25 8-5 18-9 30-10l20-2 15 1c12 1 22 1 30 1 15 0 29 3 42 9 13 5 25 13 34 23 9 10 17 22 23 35 5 13 8 26 8 41l0 1006c0 15-3 29-8 42-6 13-14 24-23 34-10 10-21 18-34 24-13 5-27 8-42 8l-72 0c-10 0-18-3-25-10-7-7-11-16-11-26l0-259c-45-32-89-65-130-98-42-34-83-71-122-110l-44-43c-88-84-168-170-240-258-72-88-136-180-192-276-57-96-105-197-145-304-41-107-73-220-98-341l683 0 z" fill="#9B9B9B"/>
		<path d="M1261 72c20 0 37 7 51 21 14 14 21 31 21 51 0 20-7 37-21 51-14 14-31 21-51 21l-767 0 0-1c0-3 2-10 6-21l32-94 10-28 719 0 z M1621 1078c80 0 143 65 143 144 0 80-64 144-143 144l-781 0c-7-16-8-32-8-49 0-69 40-138 40-239l186 0c34 26 71 61 115 61 41 0 77-26 93-61l355 0 z M2196 216l0 1222-36 0c-19 0-36-15-36-36l0-1151c0-18 17-35 36-35l36 0 z" fill="#636363"/>
	</g></svg>
