<svg version="1.1" xmlns="http://www.w3.org/2000/svg" viewBox="0 0 2300 2300"><g transform="scale(1,-1) translate(-256, -1869)">
		<path d="M1405-287l503 143 25 551c4 92 12 184 12 276 0 92-9 184-13 276l-25 551-502-144-47-551c-8-92-24-183-24-276 0-93 16-183 24-275l47-551 z M449-288c24 0 391 125 452 145l25 551c4 92 13 183 13 275 0 92-9 184-13 276l-25 551-464-133c-21-6-37-24-37-47l0-1568c0-26 22-50 49-50 z" fill="#FFFFFF"/>
		<path d="M2357-288c27 0 49 24 49 50l0 1568c0 24-14 40-37 47l-462 133 0-1654c64-20 424-144 450-144 z M1405-287l0 1653-504 144 0-1653 504-144 z" fill="#E6E6E6"/>
		<path d="M1402-143l505 144 49 455c8 76 25 150 25 227 0 77-17 151-25 227l-49 454-505-142-45-455c-8-76-23-151-23-228 0-77 15-151 23-227l45-455 z M553-104c28 0 301 89 348 104l49 455c8 76 25 151 25 228 0 77-17 152-25 228l-49 455-361-96c-21-6-37-25-37-48l0-1276c0-26 23-50 50-50 z" fill="#00A6ED"/>
		<path d="M2252-105c26 0 49 22 49 49l0 1278c0 23-16 42-37 48l-357 94 0-1365c53-16 313-104 345-104 z M1402-143l0 1365-501 142 0-1363 501-144 z" fill="#0074BA"/>
		<path d="M2087 144c19 0 36 15 36 36l0 68c0 22-18 40-41 40l-115 0c-33 0-60-26-60-60l0-48c0-19 15-36 36-36l144 0 z M2101 350c-75 0-32 79-89 79-23 0-33-7-33-29 0-30-1-45-38-45-53 0-106 58-106 112 0 34 4 38 38 38 56 0 19-44 56-44 27 0 32 44 60 44l62 0c39 0 72-34 72-72l0-60c0-12-10-23-22-23 z M1008 145c12 0 20 3 25 9 5 6 8 14 10 24 1 9 2 20 2 33 0 13 2 26 6 39 3 13 10 25 19 38 9 13 23 24 42 34l26 12c9 4 17 9 25 15 7 5 13 12 18 19 5 7 7 17 7 28 0 23-11 41-32 52-18 9-33 18-46 25-13 7-25 12-36 17-12 4-25 7-39 10-14 2-32 3-53 3-6 0-11 2-16 7l-131 131c-4 4-6 11-6 20-1 9-1 17-1 22 0 8 1 16 4 24 3 8 9 12 19 12l27 0c11 0 17-4 19-11 2-8 4-16 5-25 1-9 3-18 7-25 4-7 13-11 28-11 14 0 23 4 27 11 4 7 7 16 8 25 1 9 3 17 5 25 2 7 8 11 18 11 22 0 42 5 59 16 17 11 32 24 46 40 5 6 7 11 7 16 0 5-2 10-7 16l-16 18-18 18c-7 5-12 10-15 13-5 5-7 13-7 22 0 9 0 17-1 26-1 8-4 15-8 22-5 6-14 9-27 9-13 0-22-4-25-11-4-8-7-16-9-25-3-9-6-18-10-25-5-7-14-11-27-11-10 0-18 4-25 11-7 7-11 15-11 25 0 15 2 24 7 29 5 4 10 7 15 8 5 1 10 2 15 4 5 2 7 8 7 18l0 20c0 6 1 11 2 16 1 4 4 7 9 10 4 2 10 3 19 3l24 0c7-1 15-1 23-1 10 0 16 4 18 11 2 7 4 16 5 25 1 9 4 17 8 25 4 7 13 11 27 11 9 0 16-2 21-6 5-4 8-9 11-15 3-7 4-14 5-21 1-7 1-14 1-21 0-15-1-30-2-45-1-15-2-30-2-45 0-7 0-14 1-21 1-7 2-14 5-20 3-7 7-12 12-16 5-4 11-6 20-6 13 0 22 3 27 9 4 6 7 13 8 22 1 8 1 17 1 26 0 9 2 16 7 21l25 26c7 8 14 16 20 25 6 9 11 18 15 29 3 10 5 22 5 36 0 13-2 25-7 36-5 11-12 21-20 30-9 8-19 15-30 20-11 5-23 7-36 7l-115 0c-25 0-47-3-64-10-17-7-33-16-46-27-13-11-25-22-36-34-11-13-22-24-33-35-11-11-24-19-37-26-13-7-30-11-49-11-8 0-14 2-18 6-4 3-7 8-9 13-3 5-5 11-6 17-2 6-4 12-7 17-3 5-8 10-14 14-6 3-14 5-25 5l-21 0c-9 0-18 0-27-1-9-1-16-4-23-7-7-3-13-8-17-15-4-7-6-16-6-27l0-27c0-21-4-40-11-56-7-16-15-30-24-42-9-12-18-22-25-30-7-9-11-15-11-20 0-7 1-14 4-21 3-7 9-10 18-10 10 0 20 6 31 18 11 11 22 24 34 38 11 14 24 27 37 39 13 11 26 17 40 17 4 0 7-1 9-3-1-3-2-6-5-9l-10-11c-4-4-7-8-10-13-3-5-5-10-5-15l0-170c0-11 5-21 15-31 10-11 22-21 35-31 13-10 26-19 39-28 13-9 24-17 31-24l90-90c4-4 6-9 6-16 0-15 0-31-1-46l0-12c0-11 1-22 2-33 2-15 6-30 11-43 5-14 14-27 26-39 5-5 12-12 21-19 9-7 13-15 13-24l0-99c0-9 3-17 10-23 7-7 15-10 24-10 z M1440 217c11 0 20 1 27 2 6 1 11 2 16 5 4 3 8 7 13 12 4 5 10 11 18 19 15 15 25 32 29 51 4 18 6 37 6 58l-1 39 0 23c0 7 1 11 2 13l18 33c8 14 16 29 23 44l20 43c5 14 8 25 8 33l0 24c0 5 1 10 2 14 1 5 4 10 8 14 4 3 10 5 18 5 19 0 31-4 36-11 5-8 7-16 8-25 1-9 2-18 4-25 2-7 10-11 24-11 13 0 22 2 28 6 5 3 9 8 12 13 2 5 3 11 3 17 0 6 1 12 2 17 1 5 3 10 7 14 3 3 10 5 19 5 19 0 30-4 35-11 5-8 7-16 8-25 1-9 2-18 4-25 2-7 10-11 24-11l80 0c13 0 22 6 27 18l14 33c7 17 15 36 22 55l20 53c6 16 9 25 9 28 0 11-3 18-9 21-6 3-12 5-19 7-7 2-14 5-20 8-6 3-9 10-9 21l0 86c0 8 3 15 9 20 6 5 13 8 20 8 19 0 30-4 35-11 5-8 8-16 9-25 1-9 3-18 6-25 3-7 13-11 28-11 10 0 19 4 26 11 7 7 10 15 10 25l0 140c0 15-3 30-9 43-6 13-14 25-24 35-10 10-22 18-35 24-13 6-28 9-43 9-14 0-23-4-26-11-3-7-5-15-6-24-1-9-3-18-6-25-3-7-10-11-23-11l-85 0c-11 0-19 4-22 11-3 7-6 16-8 25-3 9-7 17-12 25-5 7-15 11-30 11l-29 0c-20 0-35-4-44-13-9-9-16-18-20-29-4-11-7-22-8-32-1-11-4-18-9-22l-126-113c-5-5-14-7-27-8-13-1-22-1-29-1-11 0-22 0-33 1-11 1-23 1-34 1-13 0-20-4-23-11-3-7-4-15-5-24-1-9-3-18-6-25-3-7-11-11-23-11-11 0-20-1-29-4-9-3-14-12-14-25l0-85c0-12 4-19 11-22 7-3 16-6 25-7 9-1 17-3 24-6 7-3 11-11 11-23 0-17-3-29-8-34-6-5-18-8-35-8l-16 0c-9-5-19-12-28-19-10-8-19-17-27-26-8-10-15-20-20-31-5-11-8-23-8-34 0-21 7-40 21-55 13-16 27-31 42-44 7-6 14-9 21-9l20 0c7 0 13-1 19-2 6-1 11-4 15-8 4-4 6-10 6-19l0-157c0-11 4-19 11-23 7-4 16-6 25-6 z" fill="#00D26A"/>
	</g></svg>
