<svg version="1.1" xmlns="http://www.w3.org/2000/svg" viewBox="0 0 2300 2300"><g transform="scale(1,-1) translate(-256, -1869)">
		<path d="M1821 506l279 45c12 3 21 11 21 24 0 12-9 22-21 25l-279 44c-9 0-15-2-15-12l0-113c0-10 5-13 15-13 z M1317 826c-6 0-10 2-12 7-16 32-129 247-129 266 0 13 11 24 26 24 7 0 12-2 17-7l199-202c3-3 4-6 4-9 0-5-2-8-6-11-13-8-91-68-99-68 z M1776 826c5 0 9 2 12 7 16 32 129 246 129 265 0 13-11 24-26 24-7 0-12-2-17-7l-199-201c-3-3-4-6-4-9 0-5 2-9 5-11 14-8 90-68 100-68 z M1603 907l-113 0c-10 0-12 6-12 15l44 279c3 12 13 21 25 21 13 0 21-9 24-21l45-279c0-10-3-15-13-15 z M1546 91l11 2c5 1 10 3 15 5 5 1 11 3 16 5l10 3c19 7 37 16 55 26 18 10 35 22 50 36 15 13 28 28 39 45 11 17 18 36 23 57 7 32 13 69 16 112 3 43 5 86 6 131 1 45 1 88 1 131-1 42-1 79-1 110l7-19c3-9 6-19 10-28 4-10 8-19 13-26 4-7 8-11 12-11 2 0 4 1 7 2l243 145c8 5 12 11 12 20 0 7-2 14-7 19-5 5-10 7-17 7-8 0-19-1-34-4-15-3-32-7-51-12-19-5-38-11-59-16l-58-15c-19-5-35-9-50-12-15-3-26-5-33-5l-468 0c-11 0-30 3-56 10l-170 44c-27 7-47 10-59 10-4 0-8-1-12-3l2 164c10 1 18 5 23 14 5 9 9 19 12 30 2 11 3 23 4 35l0 27c0 4-1 8-3 12l-5 10c-5 10-7 20-8 30l-3 31c-1 7-5 13-11 18-6 4-13 6-20 6-9 0-16-3-21-10-5-7-7-15-7-23 0-3 0-6 1-8l0-8-90 106 153 0c19 0 36 7 51 22 14 14 21 31 21 50 0 19-7 36-21 51-15 14-32 21-51 21l-216 0c-19 0-36-7-50-21-15-15-22-32-22-51 0-19 7-36 21-50 14-15 31-22 50-22l0-28c-4 2-9 3-14 3-9 0-16-3-21-9-6-6-9-13-9-22 0-11 3-18 10-22 6-5 14-8 23-10l-3 0c-8 0-15-3-21-7-7-6-11-14-11-23 0-13 5-22 15-26 9-4 19-8 30-11l-4 0c-8 0-15-2-21-6-7-6-11-14-11-23 0-9 2-16 7-19 4-4 10-8 17-12 0-4 2 0 4-5 9-13 17-26 22-37 5-12 8-26 8-43l0-8c0-3 0-6-1-9l-125-638 289-142 3 350 260-41c2 0 6 2 8 4 3 3 5 6 5 9l0 113c0 3-1 5-3 8-2 3-5 4-8 4l-4 0-257-41 2 214 26-15c13-9 29-18 47-29l58-34c20-13 39-24 56-34l44-25c11-7 18-10 19-10 4 0 8 2 11 7 3 5 6 10 9 17l11 33 0-138 1-88c1-43 2-84 5-124 3-40 7-74 14-103 5-21 13-41 25-58 11-17 25-33 41-46 15-14 32-26 51-36 19-11 38-20 57-27 2-1 6-3 11-4 5-2 11-4 16-5 5-2 11-4 16-5l11-2 z" fill="#72CCB4"/>
		<path d="M1693 16l0 267c-26-24-105-67-144-67-8 0-32 7-39 10-54 18-109 48-140 100l0-310 323 0 z M1765 647l0 13c-48 49-114 78-186 78l-26-1c12-51 57-90 113-90l99 0 z M1443 647c54 0 97 40 105 90l-41 0c-67 0-130-29-173-74l0-16 109 0 z M1262 541c0 35 6 67 19 98 46 109 140 155 263 155l36 0c139 0 257-109 257-252l0 141c0 140-115 252-257 252l-72 0c-139 0-246-117-246-253l0-141 z" fill="#49B59D"/>
		<path d="M1524-290c100 0 200 0 299 1l298 0 0 71c0 22-9 45-27 70-18 25-39 49-64 72-25 23-51 45-78 64-27 19-49 35-67 47l-77 397c9 3 17 8 22 16 5 8 7 17 7 26l0 203c0 15-5 26-15 34-9 26-22 49-38 70-17 21-35 38-56 53-21 14-45 25-70 33-25 8-52 12-79 12l-72-1c-27-1-52-5-76-13-24-8-46-19-66-34-21-15-38-32-53-53-15-21-27-43-36-68-7-7-12-20-13-37-1-13-2-27-2-41l0-16 3-59 0-14c0-12-1-22-2-29-1-7-4-18-9-31l-15-42-17-43-12-33-20 30-31 43c-11 15-24 31-37 47-13 16-26 31-39 44-13 13-25 24-36 33-12 9-22 13-31 13l0-15c0-24-2-46-5-68-4-26-12-49-23-68-12-19-29-35-50-46-21-12-49-18-83-18-12 0-24 3-36 8-12 5-22 11-31 20-9 9-17 19-22 30-6 11-9 23-9 36 0 19 2 40 6 61 3 21 6 41 8 60-8-1-16-6-24-17-8-11-15-23-22-37-7-14-13-28-18-41-5-14-9-24-10-30-6-34-9-68-9-103 0-36 3-71 9-106 5-35 13-69 22-103 9-37 17-72 22-107 5-35 9-70 12-105 2-35 3-70 4-105l0-110 768-1 z M1691 70l-73 0c-96 0-140 21-212 77l0 137c-25 23-44 48-52 80-15 59-20 145-20 213l0 86c18 19 36 33 55 43 57 30 113 32 190 32 72 0 138-29 186-78l0-75c0-26-1-52-2-78-5-98-11-174-72-226l0-211 z M949 791c18 0 34 15 35 34l11 302c0 8-15 50-15 77 0 13 6 27 20 31l2 59-145 0 2-37c24-5 61-11 61-41 0-20-17-30-36-30 14-8 24-12 24-30 0-16-14-30-30-30l-7 1c17-5 25-16 25-31 0-16-14-30-30-30l9-241c1-19 17-34 35-34l39 0 z" fill="#14A085"/>
		<path d="M2009-290l-167 219c-2 3-5 5-9 5-7 0-13-5-13-12 0-4 69-194 78-212l111 0 z M1187-289l289 288c3 3 4 6 4 9 0 7-6 12-13 12-5 0-600-291-640-309l360 0 z M756-190l214 235c44 48 69 109 69 178-13 24-25 79-59 79-20 0-37-12-50-27l-192-223c17-80 18-162 18-242 z" fill="#49B59D"/>
		<path d="M1043 1438c16 18 32 46 32 72 0 42-22 89-43 121-13 21-63 94-89 94-29 0-43-103-67-103-11 0-11 19-22 19-24 0-57-98-57-120 0-28 9-62 30-83l216 0 z" fill="#FF822D"/>
	</g></svg>
