<svg version="1.1" xmlns="http://www.w3.org/2000/svg"><g transform="scale(1,-1)">
		<path d="M1406-287c616 0 1006 391 1006 1006 0 613-388 1006-1006 1006-616 0-1006-391-1006-1006 0-613 388-1006 1006-1006 z" fill="#FFB02E"/>
		<path d="M1980 1007c39 0 73 30 73 72l-1 12c-22 130-133 203-251 203-128 0-226-74-250-202l-1-14c0-41 34-71 72-71 104 0 37 143 179 143 143 0 79-143 179-143 z M1190 1007c39 0 72 30 72 71l-1 13c-22 129-128 203-250 203-128 0-227-73-251-202l-1-6c0-52 32-79 72-79 103 0 37 143 180 143 46 0 71-16 87-37 29-42 24-106 92-106 z" fill="#402A32"/>
		<path d="M1766 182c147 0 269 120 269 269 0 35-7 70-21 103l-69 165-575-252 206-206c49-49 116-79 190-79 z" fill="#F70A8D"/>
		<path d="M1406 467c171 0 361 37 497 146 32 25 78 62 78 106 0 41-34 72-73 72-25 0-40-10-56-29-106-117-288-151-446-151-147 0-336 30-446 151-18 19-31 29-57 29-38 0-72-33-72-72 0-44 46-81 78-106 141-113 335-146 497-146 z" fill="#402A32"/>
	</g></svg>
