<svg version="1.1" xmlns="http://www.w3.org/2000/svg" viewBox="0 0 2300 2300"><g transform="scale(1,-1) translate(-256, -1869)">
		<path d="M1406-287c615 0 1006 388 1006 1006 0 615-388 1006-1006 1006-615 0-1006-388-1006-1006 0-615 388-1006 1006-1006 z" fill="#FFB02E"/>
		<path d="M2003 861c75 60 122 152 122 253 0 177-143 324-324 324-178 0-323-145-323-324 0-96 43-190 122-253 65 23 132 38 201 38 69 0 137-15 202-38 z M1212 861c79 63 122 157 122 253 0 179-145 324-323 324-177 0-324-143-324-324 0-101 47-193 122-253 65 23 133 38 202 38 69 0 136-15 201-38 z" fill="#FFFFFF"/>
		<path d="M1765 935c121 0 216 97 216 215 0 121-99 216-216 216-119 0-215-97-215-216 0-120 97-215 215-215 z M1047 935c120 0 215 97 215 215 0 121-97 216-215 216-121 0-216-99-216-216 0-119 97-215 216-215 z" fill="#402A32"/>
		<path d="M1406 72c294 0 519 136 613 442 20 67 34 136 34 205l-1294 0c0-35 3-69 10-103 62-341 279-544 637-544 z" fill="#BB1D80"/>
		<path d="M1909 611c39 0 72 31 72 72l0 36-1150 0 0-36c0-39 31-72 72-72l1006 0 z" fill="#FFFFFF"/>
	</g></svg>
