<svg version="1.1" xmlns="http://www.w3.org/2000/svg"><g transform="scale(1,-1)">
		<path d="M1406-287c616 0 1006 391 1006 1006 0 613-388 1006-1006 1006-616 0-1006-391-1006-1006 0-613 388-1006 1006-1006 z" fill="#FFB02E"/>
		<path d="M1406 72c297 0 519 135 613 442 18 63 34 136 34 205l-1294 0c0-34 3-69 10-104 71-376 306-543 637-543 z" fill="#BB1D80"/>
		<path d="M1909 611c39 0 72 31 72 72l0 36-1150 0 0-36c0-39 31-72 72-72l1006 0 z" fill="#FFFFFF"/>
		<path d="M1860 895c11 0 20 1 31 4 204 52 521 248 521 482 0 145-108 244-250 244-65 0-128-20-187-47-53 87-143 147-252 147-141 0-246-100-246-242 0-9 1-18 2-27 20-178 151-391 299-527 24-22 48-34 82-34 z M952 895c34 0 58 12 82 34 138 126 301 371 301 554 0 142-105 242-246 242-109 0-199-60-252-147-59 27-122 47-187 47-145 0-250-102-250-244 0-193 216-363 412-444 47-20 96-42 140-42 z" fill="#F70A8D"/>
	</g></svg>
