<svg version="1.1" xmlns="http://www.w3.org/2000/svg"><g transform="scale(1,-1)">
		<path d="M1406-287c615 0 1006 388 1006 1006 0 615-388 1006-1006 1006-615 0-1006-388-1006-1006 0-615 388-1006 1006-1006 z" fill="#FFB02E"/>
		<path d="M1980 1007c39 0 73 31 73 72l-1 12c-25 128-126 203-251 203-128 0-226-74-250-202l-1-14c0-40 34-71 72-71 105 0 36 143 179 143 143 0 78-143 179-143 z M1190 1007c42 0 72 28 72 78l-1 6c-24 126-124 203-250 203-128 0-227-74-251-202l-1-6c0-49 29-79 72-79 102 0 39 143 180 143 141 0 77-143 179-143 z" fill="#402A32"/>
		<path d="M1958 238c97 126 167 314 167 481l-1438 0c0-163 69-358 167-481l1104 0 z" fill="#BB1D80"/>
		<path d="M1893 360c50 0 94 35 105 86l55 273-1294 0 55-273c11-51 55-86 105-86l974 0 z" fill="#FFFFFF"/>
		<path d="M1406 0c222 0 421 71 554 241-11 28-36 47-67 47l-974 0c-31 0-57-19-68-47 140-175 337-241 555-241 z" fill="#FFFFFF"/>
	</g></svg>
