<svg version="1.1" xmlns="http://www.w3.org/2000/svg" viewBox="0 0 2300 2300"><g transform="scale(1,-1) translate(-256, -1869)">
		<path d="M1406-287c616 0 1006 391 1006 1006 0 613-388 1006-1006 1006-616 0-1006-391-1006-1006 0-613 388-1006 1006-1006 z" fill="#FFB02E"/>
		<path d="M1980 1007c39 0 73 30 73 72l-1 12c-22 130-133 203-251 203-128 0-226-74-250-202l-1-14c0-41 34-71 72-71 104 0 37 143 179 143 143 0 79-143 179-143 z M1190 1007c39 0 72 30 72 71l-1 13c-22 129-128 203-250 203-128 0-227-73-251-202l-1-6c0-52 32-79 72-79 103 0 37 143 180 143 46 0 71-16 87-37 29-42 24-106 92-106 z" fill="#402A32"/>
		<path d="M1406 72c297 0 519 135 613 442 18 63 34 136 34 205l-1294 0c0-34 3-69 10-104 71-376 306-543 637-543 z" fill="#BB1D80"/>
		<path d="M1909 611c39 0 72 31 72 72l0 36-1150 0 0-36c0-39 31-72 72-72l1006 0 z" fill="#FFFFFF"/>
		<path d="M2349 360c82 0 153 67 153 153 0 40-17 79-45 107l-242 243c-28 28-67 44-108 44-86 0-153-70-153-152 0-40 16-79 45-108l242-242c29-29 68-45 108-45 z M481 360c40 0 79 16 108 45l242 242c28 28 44 67 44 108 0 87-71 152-152 152-41 0-80-16-108-44l-242-243c-28-28-45-67-45-107 0-87 71-153 153-153 z" fill="#3F5FFF"/>
	</g></svg>
