<svg version="1.1" xmlns="http://www.w3.org/2000/svg"><g transform="scale(1,-1)">
		<path d="M1406-287c615 0 1006 388 1006 1006 0 615-388 1006-1006 1006-615 0-1006-388-1006-1006 0-615 388-1006 1006-1006 z" fill="#FFB02E"/>
		<path d="M1909 863c39 0 72 31 72 72 0 27-16 52-40 64l-159 79 159 80c24 12 40 37 40 64 0 38-33 72-72 72-11 0-21-3-32-8l-288-143c-25-12-39-39-39-65 0-26 15-52 39-64l288-144c9-5 20-7 32-7 z M903 863c12 0 23 2 32 7l287 144c25 13 40 36 40 64 0 27-14 53-40 65l-287 143c-11 5-22 8-33 8-40 0-71-34-71-72 0-27 16-52 40-64l159-80-159-79c-24-12-40-37-40-64 0-39 31-72 72-72 z" fill="#402A32"/>
		<path d="M1406 0c327 0 576 149 681 492 23 73 38 150 38 227l-1438 0c0-39 4-77 11-115 72-395 326-604 708-604 z" fill="#BB1D80"/>
		<path d="M1945 611c57 0 108 46 108 108l-1294 0c0-63 50-108 108-108l1078 0 z" fill="#FFFFFF"/>
	</g></svg>
