<svg version="1.1" xmlns="http://www.w3.org/2000/svg"><g transform="scale(1,-1)">
		<path d="M1406-287c616 0 1006 391 1006 1006 0 613-388 1006-1006 1006-616 0-1006-391-1006-1006 0-613 388-1006 1006-1006 z" fill="#FFB02E"/>
		<path d="M1406 288c57 0 112 6 166 19 54 12 105 33 153 64 17 11 34 23 51 37 17 14 31 29 42 46l5 6c2 3 3 4 3 5 7 11 11 24 11 38 0 19-7 36-21 51-15 14-32 21-51 21-13 0-25-3-34-8-10-6-19-14-26-25-15-21-35-38-59-52-25-15-51-26-78-35-27-9-55-15-83-18-29-4-55-6-79-6-24 0-50 2-78 6-29 3-57 9-84 18-28 9-54 20-78 35-24 14-44 31-59 52-8 11-17 19-26 25-9 5-21 8-34 8-20 0-37-7-51-21-14-14-21-31-21-50 0-13 4-26 11-39l0-1c0-1 1-2 3-4l5-6c11-17 25-32 42-46 17-14 33-26 50-37 48-31 99-52 154-64 55-13 110-19 166-19 z" fill="#402A32"/>
		<path d="M1954 647c102 0 163 31 252 77 171 88 278 259 278 450l0 84c0 140-115 252-251 252l-504 0c-138 0-251-111-251-252l0-113c0-247 200-498 476-498 z M858 647c263 0 476 240 476 498l0 77c0 157-129 288-287 288l-432 0c-156 0-287-128-287-288l0-48c0-194 106-361 278-450 93-48 153-77 252-77 z" fill="#321B41"/>
		<path d="M1954 647c102 0 163 31 252 77 170 87 278 255 278 450l0 84c0 140-115 252-251 252l-504 0c-165 0-206-144-270-144l-125 0c-58 0-115 144-287 144l-432 0c-156 0-287-128-287-288l0-48c0-192 105-361 278-450 93-48 153-77 252-77 268 0 476 243 476 503 0 39 31 72 72 72 39 0 72-31 72-72 0-251 199-503 476-503 z M1954 719c-223 0-404 206-404 426l0 113c0 98 79 180 179 180l504 0c98 0 179-79 179-180l0-84c0-166-91-311-238-386-75-39-134-69-220-69 z M857 719c-89 0-144 30-219 69-147 75-238 220-238 386l0 48c0 121 97 216 215 216l432 0c119 0 215-97 215-216l0-77c0-208-170-426-405-426 z" fill="#8D65C5"/>
		<path d="M2230 1106c53 0 92 34 92 91 0 82-81 162-163 162-52 0-91-35-91-91 0-79 78-162 162-162 z M1080 1106c53 0 92 34 92 91 0 82-81 162-163 162-52 0-91-35-91-91 0-79 78-162 162-162 z" fill="#FFFFFF"/>
	</g></svg>
