<svg version="1.1" xmlns="http://www.w3.org/2000/svg"><g transform="scale(1,-1)">
		<path d="M1406-287c615 0 1006 388 1006 1006 0 615-388 1006-1006 1006-615 0-1006-388-1006-1006 0-615 388-1006 1006-1006 z" fill="#FFB02E"/>
		<path d="M1908 863c39 0 73 31 73 72l-1 12c-24 127-120 203-251 203-126 0-224-70-250-202l-1-6c0-49 29-79 72-79 105 0 36 143 179 143 144 0 78-143 179-143 z M1261 863c41 0 73 28 73 78l-1 6c-24 127-123 203-250 203-128 0-227-74-251-202l-1-6c0-49 29-79 72-79 102 0 39 143 180 143 47 0 71-15 87-37 30-43 22-106 91-106 z" fill="#402A32"/>
		<path d="M1406 72c294 0 519 136 613 442 20 67 34 136 34 205l-1294 0c0-35 3-69 10-103 62-341 279-544 637-544 z" fill="#BB1D80"/>
		<path d="M1909 611c39 0 72 31 72 72l0 36-1150 0 0-36c0-39 31-72 72-72l1006 0 z" fill="#FFFFFF"/>
		<path d="M2161 1006c98 0 179 79 179 180l0 360c0 97-79 179-179 179-98 0-180-79-180-179l0-360c0-98 78-180 180-180 z" fill="#3F5FFF"/>
	</g></svg>
