<svg version="1.1" xmlns="http://www.w3.org/2000/svg"><g transform="scale(1,-1)">
		<path d="M1406-287c616 0 1006 391 1006 1006 0 613-388 1006-1006 1006-616 0-1006-391-1006-1006 0-613 388-1006 1006-1006 z" fill="#FFB02E"/>
		<path d="M1406-72c124 0 255 33 360 116 33 26 71 60 71 100 0 39-34 72-72 72-24 0-42-10-57-29-69-82-200-115-302-115-103 0-234 34-302 115-15 19-33 29-57 29-39 0-72-31-72-72 0-29 18-52 41-73 117-111 265-143 390-143 z M1837 503c100 0 288 51 288 144 0 39-31 72-72 72-21 0-36-8-51-21-39-37-114-51-165-51-38 0-89 9-129 28-35 15-49 44-87 44-40 0-71-34-71-72 0-94 190-144 287-144 z M975 503c101 0 287 51 287 144 0 38-31 72-72 72-20 0-35-8-50-21-39-37-114-51-165-51-41 0-90 9-129 28-35 15-49 44-87 44-39 0-72-31-72-72 0-95 193-144 288-144 z M2089 1078c19 0 36 16 36 37 0 4-1 7-2 11-41 132-174 240-322 240-19 0-36-15-36-36 0-19 15-36 36-36 120 0 209-79 254-191 7-17 18-25 34-25 z M723 1078c16 0 27 8 34 25 43 107 129 191 254 191 18 0 36 17 36 36 0 18-17 36-36 36-143 0-278-101-322-240-1-4-2-7-2-11 0-21 17-37 36-37 z" fill="#402A32"/>
	</g></svg>
