<svg version="1.1" xmlns="http://www.w3.org/2000/svg" viewBox="0 0 2300 2300"><g transform="scale(1,-1) translate(-256, -1869)">
		<path d="M1406-287c616 0 1006 391 1006 1006 0 165-29 326-96 474 16 55 24 111 24 169 0 71-21 210-61 275-5 7-14 16-23 16-11 0-15-9-20-16-40-64-80-106-140-143-192 168-443 231-690 231-244 0-497-62-690-231-60 37-100 79-140 143-5 7-9 16-20 16-9 0-18-9-23-16-42-66-61-205-61-274 0-58 8-114 24-169-69-152-96-315-96-475 0-613 388-1006 1006-1006 z" fill="#8C42B2"/>
		<path d="M1801 288c179 0 324 145 324 323 0 177-143 324-324 324-178 0-323-145-323-324 0-179 147-323 323-323 z M1011 288c179 0 323 147 323 323 0 179-145 324-323 324-177 0-324-143-324-324 0-178 145-323 324-323 z" fill="#FFFFFF"/>
		<path d="M1406-144c-124 0-255 33-360 116-33 26-71 60-71 100 0 39 30 72 71 72 25 0 42-10 58-29 68-78 193-115 302-115 103 0 231 33 302 115 16 19 33 29 58 29 40 0 71-34 71-72 0-29-18-52-40-73-118-111-266-143-391-143 z M1693 431c-80 0-143 65-143 144 0 80 64 144 143 144 81 0 144-67 144-144 0-81-67-144-144-144 z M1118 431c-80 0-143 65-143 144 0 80 64 144 143 144 81 0 144-67 144-144 0-81-67-144-144-144 z M1535 791c-29 0-57 18-57 51 0 31 18 54 51 57 57 6 101 13 146 44 49 34 71 76 93 134 8 23 26 37 50 37 30 0 55-21 55-53 0-6-1-12-3-18-48-150-174-252-335-252 z M1277 791c29 0 57 19 57 51 0 31-18 54-51 57-57 6-102 13-147 44-47 34-72 80-92 134-8 23-26 37-50 37-30 0-55-21-55-53 0-6 1-12 3-18 48-150 174-252 335-252 z" fill="#402A32"/>
	</g></svg>
