<svg version="1.1" xmlns="http://www.w3.org/2000/svg"><g transform="scale(1,-1)">
		<path d="M1406-287c616 0 1006 391 1006 1006 0 613-388 1006-1006 1006-616 0-1006-391-1006-1006 0-613 388-1006 1006-1006 z" fill="#FFB02E"/>
		<path d="M1259 620c49 60 75 133 75 207 0 179-147 323-323 323-179 0-324-145-324-323 0-74 26-147 75-207 36 19 72 31 111 43 49 15 96 37 143 60 81-35 164-64 243-103 z" fill="#FFFFFF"/>
		<path d="M1980 719c-35 0-58 22-69 54-21 63-82 90-146 90-62 0-128-31-146-90-11-32-34-54-69-54-38 0-72 31-72 71 0 7 1 11 2 18 32 129 161 198 285 198 60 0 124-17 178-51 59-39 110-111 110-164 0-38-32-72-73-72 z M1205 644c35 39 57 91 57 147 0 120-97 215-215 215-121 0-216-97-216-215 0-47 15-91 42-128 46 13 92 20 138 20 67 0 131-15 194-39 z" fill="#402A32"/>
		<path d="M2088 1007c19 0 37 14 37 36l-1 8c-32 135-182 243-323 243-19 0-36-15-36-36 0-19 15-36 36-36 25 0 51-5 77-14 95-35 151-89 176-174 5-16 15-27 34-27 z M723 1150c16 0 27 8 34 25 45 112 134 191 254 191 18 0 36 17 36 36 0 18-17 36-36 36-139 0-278-98-322-240-1-4-2-7-2-11 0-21 17-37 36-37 z" fill="#402A32"/>
		<path d="M1406 0c230 0 404 104 476 344 16 49 27 106 27 159l-1006 0c0-26 3-53 8-80 52-284 234-423 495-423 z" fill="#BB1D80"/>
		<path d="M1896 396c7 35 13 71 13 107l-1006 0c0-36 6-72 13-107l980 0 z" fill="#FFFFFF"/>
	</g></svg>
