<svg version="1.1" xmlns="http://www.w3.org/2000/svg"><g transform="scale(1,-1)">
		<path d="M1406-287c615 0 1006 388 1006 1006 0 615-388 1006-1006 1006-615 0-1006-388-1006-1006 0-615 388-1006 1006-1006 z" fill="#FFB02E"/>
		<path d="M1980 1007c39 0 73 31 73 72l-1 12c-25 128-126 203-251 203-128 0-226-74-250-202l-1-14c0-40 34-71 72-71 105 0 36 143 179 143 143 0 78-143 179-143 z M1190 1007c42 0 72 28 72 78l-1 6c-24 126-124 203-250 203-128 0-227-74-251-202l-1-6c0-49 29-79 72-79 102 0 39 143 180 143 141 0 77-143 179-143 z" fill="#402A32"/>
		<path d="M1406 72c294 0 519 136 613 442 20 67 34 136 34 205l-1294 0c0-35 3-69 10-103 62-341 279-544 637-544 z" fill="#BB1D80"/>
		<path d="M1909 611c39 0 72 31 72 72l0 36-1150 0 0-36c0-39 31-72 72-72l1006 0 z" fill="#FFFFFF"/>
	</g></svg>
