<svg version="1.1" xmlns="http://www.w3.org/2000/svg"><g transform="scale(1,-1)">
		<path d="M1406 1474c139 0 269 4 407 19 48 5 90 13 136 18 81 11 163 7 244 10 26 24 111 102 111 134l20-15c-166 141-704 157-918 157-208 0-761-12-926-165 33-39 74-71 113-104 91-7 182-18 274-18 26 0 49-5 75-9 152-22 316-27 464-27 z" fill="#1C5CD7"/>
		<path d="M1406-287c616 0 1006 391 1006 1006 0 613-388 1006-1006 1006-616 0-1006-391-1006-1006 0-613 388-1006 1006-1006 z" fill="#FFB02E"/>
		<path d="M1406 144c-209 0-359 151-359 359 0 38 31 72 71 72 39 0 72-31 72-72 0-131 87-215 216-215 129 0 216 87 216 215 0 38 31 72 71 72 39 0 72-31 72-72 0-206-149-359-359-359 z M1980 791c39 0 73 31 73 72l-1 12c-21 128-126 203-251 203-128 0-226-74-250-202l-1-14c0-38 32-71 71-71 18 0 32 4 41 11 45 35 26 133 139 133 146 0 77-144 179-144 z M1190 791c41 0 72 33 72 71l-1 13c-21 128-126 203-250 203-128 0-227-73-251-202l-1-6c0-48 30-79 71-79 103 0 42 144 181 144 145 0 77-144 179-144 z" fill="#402A32"/>
		<path d="M1406 1258c104 0 295 4 478 26 266 31 492 92 492 244 0 56-30 97-72 127 0-78-296-136-355-144-179-26-356-37-543-37-135 0-267 4-402 19-44 4-88 12-132 17-84 0-340 62-392 122-26-28-44-65-44-104 0-80 61-137 160-173 241-87 635-97 810-97 z" fill="#3F5FFF"/>
	</g></svg>
