<svg version="1.1" xmlns="http://www.w3.org/2000/svg"><g transform="scale(1,-1)">
		<path d="M1406-287c616 0 1006 391 1006 1006 0 613-388 1006-1006 1006-616 0-1006-391-1006-1006 0-613 388-1006 1006-1006 z" fill="#FFB02E"/>
		<path d="M2018 635c62 57 100 136 100 225 0 167-135 305-306 305-168 0-305-136-305-305 0-89 40-170 101-225 66 25 134 38 205 38 71 0 139-13 205-38 z" fill="#FFFFFF"/>
		<path d="M1406 0c230 0 404 104 476 344 16 49 27 106 27 159l-1006 0c0-26 3-53 8-80 52-284 234-423 495-423 z" fill="#BB1D80"/>
		<path d="M1407-215c231 0 336 181 359 377l1 9 0 9c0 45-24 72-61 95-56 35-230 40-299 40-52 0-157-3-237-19-59-12-87-34-106-59-14-18-17-45-17-66l1-9c23-198 130-377 359-377 z" fill="#F70A8D"/>
		<path d="M1899 401c7 35 10 67 10 102l-1006 0c0-35 3-69 10-102l986 0 z" fill="#FFFFFF"/>
		<path d="M1780 719c79 0 144 63 144 144 0 80-65 143-144 143-80 0-143-62-143-143 0-80 64-144 143-144 z M1230 733c40 0 73 29 73 72 0 7-1 10-2 17-26 109-138 173-248 173-27 0-53-4-80-11-79-23-169-95-169-179 0-43 33-72 73-72 89 0 44 118 176 118 134 0 88-118 177-118 z M724 1007c17 0 29 11 34 27 9 32 22 59 39 81 41 53 130 107 214 107 18 0 36 17 36 36 0 18-17 36-36 36-141 0-288-106-323-243l-1-9c0-19 16-35 37-35 z M2089 1150c19 0 36 16 36 37 0 4-1 7-2 11-41 132-174 240-322 240-19 0-36-15-36-36 0-19 15-36 36-36 122 0 210-81 254-191 7-17 18-25 34-25 z" fill="#402A32"/>
	</g></svg>
