<svg version="1.1" xmlns="http://www.w3.org/2000/svg"><g transform="scale(1,-1)">
		<path d="M1406-287c616 0 1006 391 1006 1006 0 613-388 1006-1006 1006-616 0-1006-391-1006-1006 0-613 388-1006 1006-1006 z" fill="#FFB02E"/>
		<path d="M1837 72c-20 0-37 7-51 21l-164 165-165-165c-14-14-31-21-51-21-20 0-37 7-51 21l-165 165-164-165c-13-13-32-21-51-21-20 0-37 7-51 21l-144 144c-14 14-21 31-21 51 0 38 31 72 72 72 20 0 37-7 51-21l93-93 165 164c14 14 31 21 50 21 20 0 37-7 51-21l165-164 165 164c14 14 31 21 50 21 20 0 37-7 51-21l165-164 93 93c14 14 31 21 51 21 41 0 72-34 72-72 0-20-7-37-21-51l-144-144c-14-14-31-21-51-21 z M1909 503c-11 0-21 3-32 8l-288 144c-24 12-39 38-39 64 0 26 15 52 39 64l288 144c11 5 21 8 32 8 41 0 72-34 72-73 0-27-16-52-40-64l-159-79 159-80c27-13 40-34 40-63 0-39-31-73-72-73 z M903 503c11 0 21 3 32 8l287 144c25 12 40 36 40 64 0 28-15 52-40 64l-287 144c-11 5-21 8-32 8-41 0-72-34-72-73 0-27 16-52 40-64l159-79-159-80c-27-13-40-34-40-63 0-39 31-73 72-73 z" fill="#402A32"/>
	</g></svg>
