<svg version="1.1" xmlns="http://www.w3.org/2000/svg"><g transform="scale(1,-1)">
		<path d="M1406-287c616 0 1006 391 1006 1006 0 613-388 1006-1006 1006-616 0-1006-391-1006-1006 0-613 388-1006 1006-1006 z" fill="#FFB02E"/>
		<path d="M1981 863c38 0 72 31 72 71 0 19-7 36-21 51-64 66-137 93-231 93-94 0-168-27-230-93-14-15-21-32-21-51 0-38 32-71 71-71 60 0 67 72 180 72 118 0 120-72 180-72 z M1190 863c41 0 72 33 72 71 0 19-7 36-21 51-62 66-136 93-230 93-94 0-167-27-231-93-14-15-21-32-21-51 0-40 34-71 72-71 61 0 66 72 180 72 115 0 121-72 179-72 z" fill="#402A32"/>
		<path d="M1526 72c99 0 181 79 181 181 0 41-12 77-37 109 25 33 37 69 37 110 0 98-78 181-181 181-39 0-72-31-72-72 0-39 31-72 72-72 19 0 37-16 37-37 0-22-16-38-37-38-39 0-72-31-72-72 0-40 34-71 72-71 21 0 37-16 37-38 0-19-16-37-37-37-39 0-72-31-72-72 0-39 31-72 72-72 z" fill="#402A32"/>
	</g></svg>
