<svg version="1.1" xmlns="http://www.w3.org/2000/svg" viewBox="0 0 2300 2300"><g transform="scale(1,-1) translate(-256, -1869)">
		<path d="M1406-287c616 0 1006 391 1006 1006 0 613-388 1006-1006 1006-616 0-1006-391-1006-1006 0-613 388-1006 1006-1006 z" fill="#FFB02E"/>
		<path d="M1765 360l-718 0c-38 0-72 31-72 71 0 39 31 72 72 72l718 0c39 0 72-31 72-72 0-40-34-71-72-71 z M1909 863c39 0 72 31 72 72 0 40-34 71-72 71l-287 0c-38 0-72-31-72-71 0-39 31-72 72-72l287 0 z M1190 863c39 0 72 31 72 72 0 40-34 71-72 71l-287 0c-38 0-72-31-72-71 0-39 31-72 72-72l287 0 z" fill="#402A32"/>
	</g></svg>
