<svg version="1.1" xmlns="http://www.w3.org/2000/svg" viewBox="0 0 2300 2300"><g transform="scale(1,-1) translate(-256, -1869)">
		<path d="M1406-287c616 0 1006 391 1006 1006 0 613-388 1006-1006 1006-616 0-1006-391-1006-1006 0-613 388-1006 1006-1006 z" fill="#FFB02E"/>
		<path d="M1050 71c-38 0-72 31-72 71 0 19 7 36 21 51 106 111 261 170 408 170 151 0 303-62 405-167 15-15 22-32 22-51 0-41-34-72-72-72-19 0-36 7-51 21-92 82-186 125-304 125-121 0-215-44-306-127-15-13-30-21-51-21 z M1874 510c-122 0-260 57-317 177-5 9-7 20-7 31 0 39 31 73 72 73 28 0 51-15 64-40 39-71 116-98 187-98 112 0 130 66 180 66 39 0 72-31 72-72 0-19-7-36-21-51-61-63-152-86-230-86 z M938 510c122 0 260 57 317 177 5 9 7 20 7 31 0 41-34 73-72 73-29 0-51-16-64-40-39-71-116-98-187-98-112 0-130 66-180 66-39 0-72-31-72-72 0-19 7-36 21-51 61-63 152-86 230-86 z" fill="#402A32"/>
	</g></svg>
