<svg version="1.1" xmlns="http://www.w3.org/2000/svg"><g transform="scale(1,-1)">
		<path d="M1406-287c616 0 1006 391 1006 1006 0 613-388 1006-1006 1006-616 0-1006-391-1006-1006 0-613 388-1006 1006-1006 z" fill="#FFB02E"/>
		<path d="M1259 620c49 60 75 133 75 207 0 179-147 323-323 323-179 0-324-145-324-323 0-74 26-147 75-207 36 19 72 31 111 43 47 15 93 35 138 56 83-32 168-59 248-99 z" fill="#FFFFFF"/>
		<path d="M1980 719c41 0 73 34 73 72 0 5-1 10-2 17-33 133-170 198-286 198-125 0-253-71-285-198-1-7-2-11-2-18 0-40 34-71 72-71 35 0 58 22 69 54 19 63 89 90 146 90 62 0 125-26 146-90 11-32 34-54 69-54 z M1205 644c35 39 57 91 57 147 0 120-97 215-215 215-121 0-216-97-216-215 0-47 15-91 42-128 46 13 92 20 138 20 67 0 131-15 194-39 z M2088 1007c19 0 37 14 37 36l-1 8c-34 135-180 243-323 243-19 0-36-15-36-36 0-19 15-36 36-36 25 0 51-5 77-14 95-35 151-89 176-174 5-16 15-27 34-27 z M723 1150c16 0 27 8 34 25 45 112 134 191 254 191 18 0 36 17 36 36 0 18-17 36-36 36-139 0-278-98-322-240-1-4-2-7-2-11 0-21 17-37 36-37 z" fill="#402A32"/>
		<path d="M1454 0c99 0 181 79 181 181 0 38-12 78-36 110 24 31 36 71 36 109 0 98-78 181-181 181-39 0-72-31-72-72 0-39 31-72 72-72 21 0 37-15 37-37 0-22-16-38-37-38-38 0-72-31-72-71 0-39 31-72 72-72 21 0 37-16 37-38 0-19-16-37-37-37-39 0-72-31-72-72 0-39 31-72 72-72 z" fill="#402A32"/>
		<path d="M1962-41c159 0 452 80 452 281 0 121-106 178-212 178-20 0-39-2-59-5-24 94-105 163-201 163-129 0-175-108-175-217 0-81 25-180 59-262 30-75 62-138 136-138 z" fill="#F70A8D"/>
	</g></svg>
