<svg version="1.1" xmlns="http://www.w3.org/2000/svg" viewBox="0 0 2300 2300"><g transform="scale(1,-1) translate(-256, -1869)">
		<path d="M1406-287c616 0 1006 391 1006 1006 0 613-388 1006-1006 1006-616 0-1006-391-1006-1006 0-613 388-1006 1006-1006 z" fill="#FFB02E"/>
		<path d="M1909 647c41 0 72 34 72 72 0 27-16 52-40 64l-159 80 159 79c24 12 40 37 40 64 0 39-31 72-72 72-12 0-23-2-32-7l-288-144c-24-12-39-38-39-64 0-26 14-53 39-65l288-143c11-5 21-8 32-8 z M902 647c11 0 22 3 33 8l287 143c26 12 40 39 40 65 0 28-15 52-40 64l-287 144c-9 5-20 7-32 7-39 0-72-31-72-72 0-27 16-52 40-64l159-79-159-80c-24-12-40-37-40-64 0-38 31-72 71-72 z" fill="#402A32"/>
		<path d="M1406 0c230 0 404 104 476 344 16 49 27 106 27 159l-1006 0c0-26 3-53 8-80 52-284 234-423 495-423 z" fill="#BB1D80"/>
		<path d="M1407-215c231 0 336 181 359 377l1 9 0 9c0 45-24 72-61 95-56 35-230 40-299 40-52 0-157-3-237-19-59-12-87-34-106-59-14-18-17-45-17-66l1-9c23-198 130-377 359-377 z" fill="#F70A8D"/>
		<path d="M1899 401c7 35 10 67 10 102l-1006 0c0-35 3-69 10-102l986 0 z" fill="#FFFFFF"/>
	</g></svg>
