<svg version="1.1" xmlns="http://www.w3.org/2000/svg" viewBox="0 0 2300 2300"><g transform="scale(1,-1) translate(-256, -1869)">
		<path d="M1406-287c616 0 1006 391 1006 1006 0 613-388 1006-1006 1006-616 0-1006-391-1006-1006 0-613 388-1006 1006-1006 z" fill="#FFB02E"/>
		<path d="M1801 503c177 0 324 143 324 324 0 178-145 323-324 323-179 0-323-147-323-323 0-179 145-324 323-324 z M1011 503c178 0 323 145 323 324 0 179-147 323-323 323-179 0-324-145-324-323 0-177 143-324 324-324 z" fill="#FFFFFF"/>
		<path d="M1693 0c41 0 72 34 72 73 0 24-12 44-27 63-89 119-222 152-332 152-122 0-295-60-352-184-5-11-8-21-8-32 0-38 32-72 73-72 28 0 49 13 64 40 43 76 148 104 223 104 81 0 182-32 223-104 15-27 36-40 64-40 z M2089 1222c19 0 36 15 36 36 0 19-15 36-36 36-24 0-49 4-75 11-104 27-152 76-177 175-4 17-17 29-36 29-19 0-35-15-35-36l0-5c22-159 180-246 323-246 z M1693 647c79 0 144 63 144 144 0 81-67 144-144 144-80 0-143-65-143-144 0-80 64-144 143-144 z M1118 647c79 0 144 63 144 144 0 81-67 144-144 144-80 0-143-65-143-144 0-80 64-144 143-144 z M723 1222c153 0 297 92 323 246l0 5c0 21-16 36-35 36-19 0-32-10-36-29-7-34-19-63-34-86-39-59-133-100-218-100-19 0-36-15-36-36 0-19 15-36 36-36 z" fill="#402A32"/>
	</g></svg>
