<svg version="1.1" xmlns="http://www.w3.org/2000/svg" viewBox="0 0 2300 2300"><g transform="scale(1,-1) translate(-256, -1869)">
		<path d="M1406-287c616 0 1006 391 1006 1006 0 613-388 1006-1006 1006-616 0-1006-391-1006-1006 0-613 388-1006 1006-1006 z" fill="#FFB02E"/>
		<path d="M1801 431c45 0 87 9 126 26 39 17 74 40 103 69 29 29 53 64 70 103 17 39 25 81 25 126l0 18-2 18c-3 1-7 2-12 2-7 0-16-2-27-4-18-4-37-9-57-15-20-7-39-13-57-20l-41-14-121 39c-11 3-21 6-28 9l-12 3-288 0c-1-6-2-12-2-18l0-18c0-45 9-87 26-126 17-39 40-74 69-103 29-29 64-52 103-69 39-17 80-26 125-26 z M1011 431c178 0 323 145 323 324 0 12-1 24-2 36l-36 0-154-67-165 67-288 0c-1-12-2-24-2-36 0-177 143-324 324-324 z" fill="#FFFFFF"/>
		<path d="M1927 611c87 0 162 73 162 162l-1 18-322 0-1-18c0-87 73-162 162-162 z M1136 611c67 0 124 38 150 99 10 24 12 51 12 72l-1 9-321 0-1-9 0-9c0-88 72-162 161-162 z" fill="#402A32"/>
		<path d="M1693 0c-28 0-49 13-64 40-43 76-148 104-223 104-81 0-182-32-223-104-15-27-36-40-64-40-41 0-73 34-73 72 0 11 3 21 8 32 59 129 236 184 352 184 110 0 225-36 308-123 22-24 51-57 51-92 0-39-31-73-72-73 z M2089 1006c-16 0-27 8-34 25-43 107-129 191-254 191-19 0-36 15-36 36 0 19 15 36 36 36 141 0 279-102 322-240 1-4 2-7 2-11 0-21-17-37-36-37 z M723 1006c16 0 27 8 34 25 43 107 129 191 254 191 18 0 36 17 36 36 0 18-17 36-36 36-143 0-278-101-322-240-1-4-2-7-2-11 0-21 17-37 36-37 z" fill="#402A32"/>
	</g></svg>
