<svg version="1.1" xmlns="http://www.w3.org/2000/svg"><g transform="scale(1,-1)">
		<path d="M1406-287c616 0 1006 391 1006 1006 0 613-388 1006-1006 1006-616 0-1006-391-1006-1006 0-613 388-1006 1006-1006 z" fill="#FFB02E"/>
		<path d="M1837 647c100 0 288 51 288 144 0 39-31 72-72 72-19 0-36-7-51-21-39-37-114-51-165-51-41 0-90 9-129 28-35 15-49 44-87 44-40 0-71-34-71-72 0-93 187-144 287-144 z M975 647c101 0 287 51 287 144 0 38-31 72-72 72-20 0-35-8-50-21-39-37-114-51-165-51-41 0-90 9-129 28-35 15-54 44-87 44-39 0-72-31-72-72 0-95 193-144 288-144 z M2089 1078c-16 0-27 8-34 25-43 107-129 191-254 191-19 0-36 15-36 36 0 19 15 36 36 36 141 0 279-102 322-240 1-4 2-7 2-11 0-21-17-37-36-37 z M723 1078c16 0 27 8 34 25 43 107 129 191 254 191 18 0 36 17 36 36 0 18-17 36-36 36-143 0-278-101-322-240-1-4-2-7-2-11 0-21 17-37 36-37 z" fill="#402A32"/>
		<path d="M1693 0c34 0 66 24 66 60l-1 12c-39 175-185 288-352 288-174 0-318-121-352-288l-1-12c0-36 33-60 65-60l575 0 z" fill="#BB1D80"/>
		<path d="M1729 72c139 0 252 113 252 252 0 138-111 251-252 251l-179 0c-39 0-72-31-72-72l0-179c0-138 110-252 251-252 z" fill="#5092FF"/>
	</g></svg>
