<svg version="1.1" xmlns="http://www.w3.org/2000/svg" viewBox="0 0 2300 2300"><g transform="scale(1,-1) translate(-256, -1869)">
		<path d="M1406-287c616 0 1006 391 1006 1006 0 613-388 1006-1006 1006-616 0-1006-391-1006-1006 0-613 388-1006 1006-1006 z" fill="#FFB02E"/>
		<path d="M1806 482c167 0 305 133 305 305 0 168-136 305-305 305-168 0-305-136-305-305 0-168 136-305 305-305 z M1005 487c166 0 302 136 302 302 0 168-134 303-302 303-169 0-302-137-302-303 0-166 136-302 302-302 z" fill="#FFFFFF"/>
		<path d="M1765 575c121 0 216 99 216 216 0 119-97 215-216 215-120 0-215-97-215-215 0-121 97-216 215-216 z M1047 575c119 0 215 97 215 216 0 120-97 215-215 215-121 0-216-97-216-215 0-121 99-216 216-216 z M2089 1078c19 0 36 16 36 37 0 4-1 7-2 11-41 132-174 240-322 240-19 0-36-15-36-36 0-19 15-36 36-36 120 0 209-79 254-191 7-17 18-25 34-25 z M1621 144c41 0 72 34 72 72 0 19-7 36-21 51-65 67-180 93-266 93-22 0-45-2-70-5-91-12-218-65-218-139 0-41 34-72 72-72 21 0 36 8 51 21 44 40 110 51 165 51 54 0 121-11 165-51 15-13 30-21 50-21 z M723 1078c16 0 27 8 34 25 43 107 129 191 254 191 18 0 36 17 36 36 0 18-17 36-36 36-143 0-278-101-322-240-1-4-2-7-2-11 0-21 17-37 36-37 z" fill="#402A32"/>
		<path d="M831 0c81 0 144 67 144 144l0 216c0 80-65 143-144 143-80 0-144-64-144-143l0-216c0-81 67-144 144-144 z" fill="#3F5FFF"/>
	</g></svg>
