<svg version="1.1" xmlns="http://www.w3.org/2000/svg"><g transform="scale(1,-1)">
		<path d="M1406-287c616 0 1006 391 1006 1006 0 48-3 96-8 144l-998 431-999-431c-5-48-7-96-7-144 0-613 388-1006 1006-1006 z" fill="#FFB02E"/>
		<path d="M2404 863c-60 560-461 862-998 862-546 0-938-309-999-862l1997 0 z" fill="#5092FF"/>
		<path d="M1801 575c177 0 324 143 324 324 0 178-145 323-324 323-179 0-323-147-323-323 0-179 145-324 323-324 z M1011 575c178 0 323 145 323 324 0 179-147 323-323 323-179 0-324-145-324-323 0-177 143-324 324-324 z" fill="#FFFFFF"/>
		<path d="M1693 719c79 0 144 63 144 144 0 80-65 143-144 143-80 0-143-62-143-143 0-80 64-144 143-144 z M1118 719c79 0 144 63 144 144 0 80-65 143-144 143-80 0-143-62-143-143 0-80 64-144 143-144 z M2089 1222c-164 0-279 79-322 242-1 4-2 7-2 10 0 21 19 36 37 36 18 0 29-13 34-27 18-51 35-95 77-132 49-43 113-57 176-57 19 0 36-15 36-36 0-19-15-36-36-36 z M723 1222c164 0 279 79 322 242 1 4 2 7 2 10 0 21-19 36-37 36-18 0-29-13-34-27-18-51-35-95-77-132-49-44-115-57-176-57-19 0-36-15-36-36 0-19 15-36 36-36 z" fill="#402A32"/>
		<path d="M1765 0c67 0 128 48 128 112 0 11-1 21-4 30-62 214-261 361-483 361-224 0-422-149-483-361-3-9-4-19-4-30 0-69 66-112 128-112l718 0 z" fill="#BB1D80"/>
	</g></svg>
