<svg version="1.1" xmlns="http://www.w3.org/2000/svg"><g transform="scale(1,-1)">
		<path d="M1406-287c616 0 1006 391 1006 1006 0 613-388 1006-1006 1006-616 0-1006-391-1006-1006 0-613 388-1006 1006-1006 z" fill="#FFB02E"/>
		<path d="M1404 222c80 0 144 64 144 143 0 81-67 144-144 144-79 0-144-63-144-144 0-80 65-143 144-143 z" fill="#BB1D80"/>
		<path d="M1406-359c93 0 172 58 203 144 83 0 156 50 156 143 0 80-64 144-143 144-89 45-163 150-188 254-8 10-18 15-30 15-12 0-22-5-30-15-23-93-88-206-184-254-80 0-143-65-143-144 0-88 67-143 155-143 32-84 111-144 204-144 z" fill="#EFD5FF"/>
		<path d="M1837 719c97 0 185 24 261 88 18 15 27 33 27 56 0 41-34 71-72 71-16 0-31-5-46-16-57-44-100-55-170-55-53 0-91 6-130 29-28 15-54 43-85 43-39 0-72-31-72-72 0-23 9-42 27-57 76-63 164-87 260-87 z M975 719c95 0 186 24 261 88 17 14 26 32 26 55 0 38-31 72-71 72-16 0-31-5-46-16-57-44-100-55-170-55-55 0-91 6-130 29-26 15-54 43-86 43-38 0-72-32-72-73 0-23 11-41 28-56 75-62 161-87 260-87 z M2089 1150c-16 0-27 8-34 25-44 111-133 191-254 191-19 0-36 15-36 36 0 19 15 36 36 36 141 0 279-102 322-240 1-4 2-7 2-11 0-21-17-37-36-37 z M723 1150c16 0 27 8 34 25 45 112 134 191 254 191 18 0 36 17 36 36 0 18-17 36-36 36-139 0-278-98-322-240-1-4-2-7-2-11 0-21 17-37 36-37 z" fill="#402A32"/>
	</g></svg>
