<svg version="1.1" xmlns="http://www.w3.org/2000/svg"><g transform="scale(1,-1)">
		<path d="M1406-287c616 0 1006 391 1006 1006 0 613-388 1006-1006 1006-616 0-1006-391-1006-1006 0-613 388-1006 1006-1006 z" fill="#FFB02E"/>
		<path d="M1801 360c179 0 324 144 324 323 0 178-144 323-324 323-179 0-323-147-323-323 0-179 147-323 323-323 z M1011 360c179 0 323 147 323 323 0 179-147 323-323 323-179 0-324-144-324-323 0-178 144-323 324-323 z" fill="#FFFFFF"/>
		<path d="M1693 503c81 0 144 67 144 144 0 81-67 144-144 144-80 0-143-65-143-144 0-80 64-144 143-144 z M1118 503c81 0 144 67 144 144 0 81-67 144-144 144-80 0-143-65-143-144 0-80 64-144 143-144 z M1693 0c41 0 72 34 72 73 0 24-12 44-27 63-89 119-222 152-332 152-122 0-295-60-352-184-5-11-8-21-8-32 0-38 32-72 73-72 28 0 49 13 64 40 43 76 148 104 223 104 81 0 182-32 223-104 15-27 36-40 64-40 z M1535 863c-29 0-57 18-57 51 0 32 19 53 51 56 54 5 101 15 146 45 49 34 71 76 93 134 8 23 26 37 50 37 30 0 55-21 55-53 0-6-1-12-3-18-48-150-174-252-335-252 z M1277 863c29 0 57 19 57 51 0 32-19 53-51 56-54 5-102 15-147 45-47 34-72 80-92 134-8 23-26 37-50 37-30 0-55-21-55-53 0-6 1-12 3-18 48-150 174-252 335-252 z" fill="#402A32"/>
	</g></svg>
