<svg version="1.1" xmlns="http://www.w3.org/2000/svg"><g transform="scale(1,-1)">
		<path d="M1406-287c616 0 1006 391 1006 1006 0 613-388 1006-1006 1006-616 0-1006-391-1006-1006 0-613 388-1006 1006-1006 z" fill="#FFB02E"/>
		<path d="M1801 719c179 0 324 145 324 323 0 177-143 324-324 324-178 0-323-145-323-324 0-179 147-323 323-323 z M1011 719c179 0 323 147 323 323 0 179-145 324-323 324-177 0-324-143-324-324 0-178 145-323 324-323 z" fill="#FFFFFF"/>
		<path d="M1693 863c80 0 144 64 144 143 0 81-67 144-144 144-80 0-143-65-143-144 0-80 62-143 143-143 z M1118 863c80 0 144 64 144 143 0 81-67 144-144 144-80 0-143-65-143-144 0-80 62-143 143-143 z" fill="#402A32"/>
		<path d="M1406-144c160 0 287 129 287 288l0 144c0 156-125 287-287 287-157 0-288-129-288-287l0-144c0-161 128-288 288-288 z" fill="#BB1D80"/>
	</g></svg>
