<svg version="1.1" xmlns="http://www.w3.org/2000/svg" viewBox="0 0 2300 2300"><g transform="scale(1,-1) translate(-256, -1869)">
		<path d="M1406-287c616 0 1006 391 1006 1006 0 613-388 1006-1006 1006-616 0-1006-391-1006-1006 0-613 388-1006 1006-1006 z" fill="#FFB02E"/>
		<path d="M1909 503c41 0 72 34 72 73 0 29-13 50-40 63l-159 80 159 79c24 12 40 37 40 64 0 39-31 73-72 73-11 0-21-3-32-8l-288-144c-24-12-39-38-39-64 0-26 15-52 39-64l288-144c11-5 21-8 32-8 z M903 503c11 0 21 3 32 8l287 144c25 12 40 36 40 64 0 28-15 52-40 64l-287 144c-11 5-21 8-32 8-41 0-72-34-72-73 0-27 16-52 40-64l159-79-159-80c-27-13-40-34-40-63 0-39 31-73 72-73 z M1621 144c41 0 72 34 72 72 0 19-7 36-21 51-65 67-180 93-266 93-23 0-46-2-70-5-93-13-218-67-218-139 0-39 34-72 72-72 21 0 36 8 51 21 44 40 110 51 165 51 54 0 121-11 165-51 15-13 30-21 50-21 z M2089 1078c19 0 36 15 36 36 0 19-15 36-36 36-61 0-125 14-176 58-41 36-59 77-77 131-5 16-18 27-35 27-18 0-36-17-36-36 0-3 1-6 2-10 45-166 165-242 322-242 z M723 1078c157 0 277 76 322 242 1 4 2 7 2 10 0 18-17 36-36 36-17 0-30-11-35-27-18-54-36-95-77-131-51-44-114-58-176-58-19 0-36-15-36-36 0-19 15-36 36-36 z" fill="#402A32"/>
	</g></svg>
