<svg version="1.1" xmlns="http://www.w3.org/2000/svg"><g transform="scale(1,-1)">
		<path d="M1406-287c616 0 1006 391 1006 1006 0 613-388 1006-1006 1006-616 0-1006-391-1006-1006 0-613 388-1006 1006-1006 z" fill="#FFB02E"/>
		<path d="M1873 1222c19 0 36 15 36 36 0 19-15 36-36 36-103 0-180 74-180 180 0 19-17 36-35 36-18 0-36-17-36-36 0-147 106-252 251-252 z M1872 869c42 0 84 7 125 21 57 18 128 63 128 116 0 41-34 72-72 72-49 0-71-66-180-66-71 0-148 27-187 98-15 27-36 40-65 40-41 0-71-33-71-72 0-12 2-23 7-32 57-120 195-177 315-177 z M940 869c-42 0-84 7-125 21-57 18-128 63-128 116 0 41 34 72 72 72 49 0 71-66 180-66 71 0 148 27 187 98 13 25 36 40 65 40 41 0 71-34 71-72 0-12-2-23-7-32-57-119-196-177-315-177 z M939 1222c147 0 251 107 251 252 0 18-17 36-36 36-18 0-36-17-36-36 0-101-68-180-179-180-19 0-36-15-36-36 0-19 15-36 36-36 z" fill="#402A32"/>
		<path d="M1945 72c51 0 100 39 100 92l-1 15c-28 163-111 300-231 396l-407 72-407-72c-120-96-203-233-231-396l-1-15c0-54 50-92 100-92l1078 0 z" fill="#BB1D80"/>
		<path d="M1813 575c-119 94-260 144-407 144-147 0-289-49-407-144l814 0 z" fill="#FFFFFF"/>
	</g></svg>
