<svg version="1.1" xmlns="http://www.w3.org/2000/svg"><g transform="scale(1,-1)">
		<path d="M1406-287c616 0 1006 391 1006 1006 0 613-388 1006-1006 1006-616 0-1006-391-1006-1006 0-613 388-1006 1006-1006 z" fill="#FFB02E"/>
		<path d="M1801 719c179 0 324 145 324 323 0 177-143 324-324 324-178 0-323-145-323-324 0-179 147-323 323-323 z M1011 719c179 0 323 147 323 323 0 179-145 324-323 324-177 0-324-143-324-324 0-178 145-323 324-323 z" fill="#FFFFFF"/>
		<path d="M1693 863c80 0 144 64 144 143 0 81-67 144-144 144-80 0-143-65-143-144 0-80 62-143 143-143 z M1118 863c80 0 144 64 144 143 0 81-67 144-144 144-80 0-143-65-143-144 0-80 62-143 143-143 z" fill="#402A32"/>
		<path d="M1908 126c45 40 73 98 73 162 0 59-24 119-73 161l-1005 0c-44-41-72-98-72-161 0-60 24-120 73-162l1004 0 z" fill="#BB1D80"/>
		<path d="M1765 72c55 0 106 21 144 55l0 53c0 39-31 72-72 72l-862 0c-39 0-72-31-72-72l0-53c38-34 89-55 144-55l718 0 z M1837 324c39 0 72 31 72 72l0 52c-40 37-92 55-144 55l-718 0c-52 0-104-18-144-55l0-52c0-39 31-72 72-72l862 0 z" fill="#FFFFFF"/>
	</g></svg>
