<svg version="1.1" xmlns="http://www.w3.org/2000/svg"><g transform="scale(1,-1)">
		<path d="M1406-287c616 0 1006 391 1006 1006 0 613-388 1006-1006 1006-616 0-1006-391-1006-1006 0-613 388-1006 1006-1006 z" fill="#FFB02E"/>
		<path d="M1585 1294c18 0 30 9 35 26 22 69 74 117 153 117 40 0 82-23 100-23 19 0 36 17 36 35 0 48-102 60-136 60-107 0-192-67-222-170l-1-9c0-19 17-36 35-36 z M1848 897c61 0 205 27 205 109 0 41-34 72-72 72-37 0-67-37-134-37-61 0-127 23-166 77-15 21-34 32-59 32-41 0-72-34-72-72 0-15 4-28 12-40 57-91 178-141 286-141 z M1050 286c21 0 36 8 51 21 91 83 185 127 306 127 119 0 213-43 304-125 15-13 30-21 51-21 38 0 72 33 72 72 0 19-7 36-22 51-104 106-254 167-405 167-154 0-311-64-408-169-14-15-21-32-21-51 0-41 34-72 72-72 z M964 897c82 0 167 28 231 80 30 25 67 59 67 101 0 38-31 72-72 72-25 0-44-11-59-32-39-54-106-77-166-77-69 0-100 37-134 37-38 0-72-31-72-72 0-81 141-109 205-109 z M1227 1294c18 0 35 17 35 36l-1 9c-29 101-113 170-222 170-33 0-136-13-136-59 0-21 18-36 36-36 18 0 60 23 100 23 79 0 131-48 153-117 5-17 17-26 35-26 z" fill="#402A32"/>
		<path d="M2089-215c179 0 323 147 323 323 0 49-10 97-31 139 21 35 31 73 31 113 0 120-97 215-215 215-77 0-144-39-184-102l-381 238c-9 5-18 8-28 8-29 0-55-24-55-54 0-24 155-430 175-481-66-40-102-110-102-184 0-120 97-215 215-215 39 0 79 10 112 31 45-21 92-31 140-31 z M975-215c120 0 215 97 215 215 0 74-36 144-102 184 20 51 175 459 175 481 0 30-26 54-55 54-10 0-19-3-28-8l-382-238c-40 66-109 102-183 102-120 0-215-97-215-215 0-40 10-78 31-113-21-42-31-90-31-139 0-179 147-323 323-323 49 0 97 10 139 31 35-21 73-31 113-31 z" fill="#D3D3D3"/>
	</g></svg>
