<svg version="1.1" xmlns="http://www.w3.org/2000/svg"><g transform="scale(1,-1)">
		<path d="M1406-287c616 0 1006 391 1006 1006 0 613-388 1006-1006 1006-616 0-1006-391-1006-1006 0-613 388-1006 1006-1006 z" fill="#FFB02E"/>
		<path d="M1801 503c177 0 324 143 324 324 0 178-145 323-324 323-179 0-323-147-323-323 0-179 145-324 323-324 z M1011 503c178 0 323 145 323 324 0 179-147 323-323 323-179 0-324-145-324-323 0-177 143-324 324-324 z" fill="#FFFFFF"/>
		<path d="M1693 647c79 0 144 63 144 144 0 81-67 144-144 144-80 0-143-65-143-144 0-80 64-144 143-144 z M1118 647c79 0 144 63 144 144 0 81-67 144-144 144-80 0-143-65-143-144 0-80 64-144 143-144 z" fill="#402A32"/>
		<path d="M2089 1150c19 0 36 16 36 37 0 4-1 7-2 11-41 132-174 240-322 240-19 0-36-15-36-36 0-19 15-36 36-36 122 0 210-81 254-191 7-17 18-25 34-25 z M723 1150c16 0 27 8 34 25 45 112 134 191 254 191 18 0 36 17 36 36 0 18-17 36-36 36-139 0-278-98-322-240-1-4-2-7-2-11 0-21 17-37 36-37 z" fill="#402A32"/>
		<path d="M1729-72c47 0 98 33 98 86 0 7-1 14-3 21-51 194-222 325-418 325-192 0-369-129-418-325-2-7-3-14-3-21 0-53 51-86 98-86l646 0 z" fill="#BB1D80"/>
	</g></svg>
