<svg version="1.1" xmlns="http://www.w3.org/2000/svg" viewBox="0 0 2300 2300"><g transform="scale(1,-1) translate(-256, -1869)">
		<path d="M1406-287c616 0 1006 391 1006 1006 0 613-388 1006-1006 1006-616 0-1006-391-1006-1006 0-613 388-1006 1006-1006 z" fill="#FFB02E"/>
		<path d="M1801 575c177 0 324 143 324 324 0 178-145 323-324 323-179 0-323-147-323-323 0-179 145-324 323-324 z M1011 575c178 0 323 145 323 324 0 179-147 323-323 323-179 0-324-145-324-323 0-177 143-324 324-324 z" fill="#FFFFFF"/>
		<path d="M1693 719c79 0 144 63 144 144 0 80-65 143-144 143-80 0-143-62-143-143 0-80 64-144 143-144 z M1118 719c79 0 144 63 144 144 0 80-65 143-144 143-80 0-143-62-143-143 0-80 64-144 143-144 z" fill="#402A32"/>
		<path d="M1693 0c34 0 66 24 66 60l-1 12c-39 175-185 288-352 288-174 0-318-121-352-288l-1-12c0-36 33-60 65-60l575 0 z" fill="#BB1D80"/>
	</g></svg>
