<svg version="1.1" xmlns="http://www.w3.org/2000/svg"><g transform="scale(1,-1)">
		<path d="M1406-287c616 0 1006 391 1006 1006 0 613-388 1006-1006 1006-616 0-1006-391-1006-1006 0-613 388-1006 1006-1006 z" fill="#FFB02E"/>
		<path d="M1981 575c81 0 216 43 216 144 0 102-136 144-216 144-81 0-216-43-216-144 0-102 136-144 216-144 z M831 575c81 0 216 43 216 144 0 102-136 144-216 144-81 0-216-43-216-144 0-102 136-144 216-144 z" fill="#F8312F"/>
		<path d="M2089 1150c19 0 36 16 36 37 0 4-1 7-2 11-41 132-174 240-322 240-19 0-36-15-36-36 0-19 15-36 36-36 122 0 210-81 254-191 7-17 18-25 34-25 z M1980 935c-105 0-35 143-179 143-144 0-78-143-179-143-38 0-72 30-72 71l1 14c24 129 123 202 250 202 131 0 231-84 251-203l1-12c0-42-34-72-73-72 z M1190 935c-17 0-30 4-39 11-44 35-28 132-140 132-25 0-44-3-57-10-68-36-42-133-123-133-44 0-72 30-72 79l1 6c24 127 121 202 251 202 125 0 229-78 250-203l1-13c0-41-33-71-72-71 z M723 1150c16 0 27 8 34 25 45 112 134 191 254 191 18 0 36 17 36 36 0 18-17 36-36 36-139 0-278-98-322-240-1-4-2-7-2-11 0-21 17-37 36-37 z" fill="#402A32"/>
		<path d="M1406-66c179 0 319 43 482 103 54 21 93 72 93 135l0 44 322 0c11 24 22 47 31 72l-353 0 0 254-1 85 420 270c-4 26-8 51-13 77l-436-280c-21 27-47 44-79 52l-327 82c-47 11-93 17-139 17-46 0-93-6-140-17l-326-82c-33-8-60-25-80-52l-435 280c-5-26-10-51-13-77l420-270-1-10 0-329-354 0 32-72 322 0 0-44c0-63 39-114 93-135 161-61 308-103 482-103 z" fill="#FFFFFF"/>
	</g></svg>
