<svg version="1.1" xmlns="http://www.w3.org/2000/svg"><g transform="scale(1,-1)">
		<path d="M1987-287c161 0 281 145 281 299l0 1395c0 61-48 102-105 102-29 0-53-10-73-30l-327-329-705 0-335 329c-21 20-46 30-74 30-57 0-106-39-106-102l0-1403c0-157 123-291 282-291l1162 0 z" fill="#FFB02E"/>
		<path d="M2153 881c-14 0-27 5-39 16l-201 187c-11 11-17 24-17 39 0 17 6 30 17 40l201 187c12 11 25 16 40 16 28 0 61-20 61-52l0-374c0-35-31-59-62-59 z M663 881c14 0 27 5 39 16l201 187c11 11 16 24 16 39 0 14-5 30-16 40l-201 187c-12 11-25 16-40 16-28 0-61-20-61-52l0-374c0-35 31-59 62-59 z" fill="#FF822D"/>
		<path d="M1406 270l161 161-322 0 161-161 z" fill="#F70A8D"/>
		<path d="M2377-72c19 0 35 16 35 37 0 14-7 24-20 31l-287 144c-5 3-10 4-17 4-18 0-35-17-35-36 0-15 7-25 20-32l287-144c5-3 10-4 17-4 z M2088 216c7 0 12 1 17 4l287 143c13 7 20 17 20 32 0 21-16 37-36 37-7 0-11-1-16-4l-287-144c-13-7-20-17-20-32 0-19 16-36 35-36 z M435-72c7 0 12 1 17 4l287 144c13 7 20 17 20 32 0 18-15 36-36 36-6 0-11-1-16-4l-287-144c-13-7-20-17-20-31 0-21 16-37 35-37 z M723 216c21 0 36 18 36 36 0 15-7 25-20 32l-287 144c-5 3-9 4-16 4-20 0-36-16-36-37 0-15 7-25 20-32l287-143c5-3 10-4 16-4 z" fill="#FF6723"/>
		<path d="M1370-215c69 0 144 51 144 125 0 34-18 67-45 90 26 22 45 53 45 90 0 77-80 126-144 126-19 0-36-15-36-36 0-33 32-36 60-42 23-5 48-23 48-48 0-15-12-27-22-36-32-24-86-10-86-54 0-33 31-36 60-42 25-5 48-25 48-48 0-15-12-27-22-36-32-24-86-11-86-53 0-19 15-36 36-36 z M1801 431c19 0 36 18 36 36 0 81-57 144-144 144-83 0-143-60-143-144 0-18 17-36 36-36 63 0 7 108 107 108 104 0 44-108 108-108 z M1226 431c19 0 36 18 36 36 0 81-57 144-144 144-83 0-143-60-143-144 0-18 17-36 36-36 63 0 7 108 107 108 104 0 44-108 108-108 z" fill="#402A32"/>
		<path d="M1939-72c154 4 473 63 473 268 0 80-67 157-151 157-31 0-70-10-96-24-5 88-61 174-162 174-116 0-165-115-165-215 0-115 52-270 101-360 z" fill="#CA0B4A"/>
	</g></svg>
