<svg version="1.1" xmlns="http://www.w3.org/2000/svg"><g transform="scale(1,-1)">
		<path d="M1987-287c161 0 281 145 281 299l0 1395c0 61-48 102-105 102-29 0-53-10-73-30l-327-329-705 0-335 329c-21 20-46 30-74 30-57 0-106-39-106-102l0-1403c0-157 123-291 282-291l1162 0 z" fill="#FFB02E"/>
		<path d="M2153 881c-14 0-27 5-39 16l-201 187c-11 11-17 24-17 39 0 17 6 30 17 40l201 187c12 11 25 16 40 16 28 0 61-20 61-52l0-374c0-35-31-59-62-59 z M663 881c14 0 27 5 39 16l201 187c11 11 16 24 16 39 0 14-5 30-16 40l-201 187c-12 11-25 16-40 16-28 0-61-20-61-52l0-374c0-35 31-59 62-59 z" fill="#FF822D"/>
		<path d="M2377-72c19 0 35 16 35 37 0 14-7 24-20 31l-287 144c-5 3-10 4-17 4-18 0-35-17-35-36 0-15 7-25 20-32l287-144c5-3 10-4 17-4 z M2088 216c7 0 12 1 17 4l287 143c13 7 20 17 20 32 0 21-16 37-36 37-7 0-11-1-16-4l-287-144c-13-7-20-17-20-32 0-19 16-36 35-36 z M435-72c7 0 12 1 17 4l287 144c13 7 20 17 20 32 0 18-15 36-36 36-6 0-11-1-16-4l-287-144c-13-7-20-17-20-31 0-21 16-37 35-37 z M723 216c21 0 36 18 36 36 0 15-7 25-20 32l-287 144c-5 3-9 4-16 4-20 0-36-16-36-37 0-15 7-25 20-32l287-143c5-3 10-4 16-4 z" fill="#FF6723"/>
		<path d="M1781 471c34 0 128 21 128 68 0 19-15 36-36 36-21 0-42-32-91-32-105 0-68 104-124 104-19 0-36-15-36-36l1-9c18-77 72-131 158-131 z M1622 0c19 0 35 15 35 36 0 7-2 14-6 20-41 68-138 114-209 122l0 182c0 18-17 36-36 36-19 0-36-18-36-36l0-182c-72-8-170-55-210-122-4-6-6-12-6-19 0-21 17-37 36-37 11 0 21 5 30 16 46 61 116 92 186 92 75 0 142-36 186-92 9-11 19-16 30-16 z M1031 471c86 0 140 54 158 131l1 9c0 19-15 36-36 36-56 0-20-104-124-104-51 0-71 32-92 32-18 0-36-15-36-36 0-46 91-68 129-68 z" fill="#402A32"/>
		<path d="M1406 284c9 0 18 4 25 11l75 75c7 7 11 16 11 25 0 19-15 36-36 36l-150 0c-19 0-36-15-36-36 0-9 4-18 11-25l75-75c7-7 16-11 25-11 z" fill="#F70A8D"/>
		<path d="M975-144c80 0 143 65 143 144l0 216c0 80-64 144-143 144-81 0-144-67-144-144l0-216c0-81 67-144 144-144 z" fill="#5092FF"/>
	</g></svg>
