<svg version="1.1" xmlns="http://www.w3.org/2000/svg"><g transform="scale(1,-1)">
		<path d="M1406-287c616 0 1006 391 1006 1006 0 613-388 1006-1006 1006-616 0-1006-391-1006-1006 0-613 388-1006 1006-1006 z" fill="#FFB02E"/>
		<path d="M1789 585c39 0 75 7 109 20 34 13 64 32 89 56 25 24 45 53 60 86 15 33 22 69 22 108 0 31-5 60-15 88-11 28-25 53-44 74-19 21-41 38-67 51-27 12-56 18-88 18-25 0-48-4-69-12-21-8-40-19-55-34-16-15-28-33-37-54-9-21-13-45-13-70 0-15 3-31 8-46 5-15 13-29 23-42 9-13 21-23 34-31 13-8 28-12 45-12 20 0 37 7 52 21 14 14 21 31 21 51 0 13-3 26-10 37-7 11-17 20-29 27l0 1c0 2 2 5 4 9l6 9 10 2 9 0c13 0 24-2 33-7 9-5 16-12 22-20 5-9 9-18 12-29 3-11 4-21 4-32 0-19-4-37-11-52-7-15-17-28-29-39-13-11-27-20-43-26-17-6-34-9-52-9-26 0-50 5-71 15-22 10-41 24-56 41-16 17-28 36-36 59-9 23-13 47-13 72 0 33 6 64 19 93 13 29 30 54 51 75 21 21 47 38 76 51 29 12 60 18 93 18 37 0 70-7 101-20 30-14 57-32 80-55 23-23 43-50 59-81 15-31 26-63 33-96 3-17 11-32 24-43 12-11 27-17 46-17 20 0 37 7 52 21 14 14 21 31 21 51 0 5 0 8-1 11-9 50-25 98-49 143-25 45-55 85-91 119-36 34-77 61-124 81-47 20-96 30-149 30-53 0-102-10-149-29-47-20-87-47-122-81-35-34-63-74-83-120-21-47-31-97-31-150 0-45 8-88 24-128 15-40 37-75 66-105 28-30 62-54 101-71 39-18 81-27 128-27 z M1837 15c28 0 56 12 76 32l155 154c14 14 21 31 21 51 0 39-31 72-72 72-20 0-37-7-51-21l-129-129-139 139c-21 21-46 31-77 31-28 0-56-11-76-31l-139-139-139 139c-20 20-49 31-77 31-28 0-56-11-76-31l-139-139-129 129c-14 14-31 21-51 21-39 0-72-31-72-72 0-20 7-37 21-51l154-154c19-19 48-32 77-32 28 0 56 12 76 32l139 139 140-139c21-21 47-32 76-32 28 0 56 12 76 32l140 139 139-139c21-21 47-32 76-32 z M1021 585c184 0 319 148 319 330 0 210-170 381-386 381-216 0-378-176-412-373l-1-11c0-41 34-72 73-72 39 0 64 26 70 60 28 138 130 252 273 252 127 0 239-100 239-237 0-98-67-187-176-187-72 0-135 50-135 126 0 44 20 88 71 88 7 0 12-1 19-2l6-8c2-4 1-8 4-11-23-13-39-36-39-64 0-41 34-72 72-72 67 0 111 70 111 131 0 103-78 170-174 170-127 0-214-105-214-231 0-157 125-270 280-270 z" fill="#402A32"/>
	</g></svg>
