<svg version="1.1" xmlns="http://www.w3.org/2000/svg"><g transform="scale(1,-1)">
		<path d="M1406-287c616 0 1006 391 1006 1006 0 48-3 96-8 144l-998 431-999-431c-5-48-7-96-7-144 0-613 388-1006 1006-1006 z" fill="#FFB02E"/>
		<path d="M2404 863c-60 560-461 862-998 862-546 0-938-309-999-862l1997 0 z" fill="#5092FF"/>
		<path d="M1801 719c179 0 324 145 324 323 0 177-143 324-324 324-178 0-323-145-323-324 0-179 147-323 323-323 z M1011 719c179 0 323 147 323 323 0 179-145 324-323 324-177 0-324-143-324-324 0-178 145-323 324-323 z" fill="#FFFFFF"/>
		<path d="M1406-72c121 0 216 99 216 216l0 216c0 119-97 215-216 215-121 0-216-97-216-215l0-216c0-121 99-216 216-216 z" fill="#BB1D80"/>
		<path d="M2058-348c163 0 239 121 332 233 66 78 99 171 99 267l0 387c0 57-46 108-108 108-61 0-108-48-108-108l0-41c-1-39-12-76-51-101l-325-216c-81-54-128-144-128-240 0-161 130-289 289-289 z M759-348c161 0 289 129 289 288 0 100-50 188-129 241l-324 216c-41 26-51 63-51 101-1 13-1 26-1 41 0 60-49 108-107 108-61 0-108-48-108-108l0-387c0-96 33-189 99-267 94-112 172-233 332-233 z" fill="#FF822D"/>
	</g></svg>
