<svg version="1.1" xmlns="http://www.w3.org/2000/svg"><g transform="scale(1,-1)">
		<path d="M1987-287c161 0 281 145 281 299l0 1395c0 61-48 102-105 102-29 0-53-10-73-30l-327-329-705 0-335 329c-21 20-46 30-74 30-57 0-106-39-106-102l0-1403c0-157 123-291 282-291l1162 0 z" fill="#FFB02E"/>
		<path d="M2153 881c-14 0-27 5-39 16l-201 187c-11 11-17 24-17 39 0 17 6 30 17 40l201 187c12 11 25 16 40 16 28 0 61-20 61-52l0-374c0-35-31-59-62-59 z M663 881c14 0 27 5 39 16l201 187c11 11 16 24 16 39 0 14-5 30-16 40l-201 187c-12 11-25 16-40 16-28 0-61-20-61-52l0-374c0-35 31-59 62-59 z" fill="#FF822D"/>
		<path d="M1406 572c9 0 18 4 25 11l75 75c7 7 11 16 11 25 0 19-15 36-36 36l-150 0c-19 0-36-15-36-36 0-9 4-18 11-25l75-75c7-7 16-11 25-11 z" fill="#F70A8D"/>
		<path d="M2377-72c19 0 35 16 35 37 0 14-7 24-20 31l-287 144c-5 3-10 4-17 4-18 0-35-17-35-36 0-15 7-25 20-32l287-144c5-3 10-4 17-4 z M2088 216c24 0 134 62 161 75 12 7 20 20 20 33 0 19-16 36-37 36-17 0-84-35-126-58-46-26-53-27-53-50 0-19 16-36 35-36 z M435-72c7 0 12 1 17 4l287 144c13 7 20 17 20 32 0 18-15 36-36 36-6 0-11-1-16-4l-287-144c-13-7-20-17-20-31 0-21 16-37 35-37 z M723 216c21 0 36 18 36 36 0 15-7 25-20 32-25 14-137 76-159 76-21 0-37-17-37-36 0-13 8-26 20-33 26-13 138-75 160-75 z" fill="#FF6723"/>
		<path d="M1406 180c195 0 326 129 358 314-48-47-116-63-178-63-61 0-131 16-180 65-49-49-119-65-180-65-62 0-130 16-178 63 32-188 166-314 358-314 z" fill="#BB1D80"/>
		<path d="M1837 754c21 0 36 18 36 36 0 51-107 73-144 73-36 0-144-21-144-73 0-18 17-36 36-36 23 0 44 37 108 37 67 0 87-37 108-37 z M1190 754c21 0 36 18 36 36 0 52-106 73-143 73-35 0-145-21-145-73 0-18 17-36 36-36 21 0 43 37 109 37 64 0 86-37 107-37 z" fill="#402A32"/>
		<path d="M2232 253c99 0 178 80 178 178 0 48-19 91-52 126l-179 180c-34 34-80 52-126 52-98 0-178-79-178-178 0-46 18-92 52-126l180-179c36-34 80-53 125-53 z M579 253c47 0 90 19 126 53l180 179c34 34 52 80 52 126 0 98-79 178-178 178-46 0-92-18-126-52l-179-180c-34-36-53-79-53-126 0-95 79-178 178-178 z" fill="#3F5FFF"/>
	</g></svg>
