<svg version="1.1" xmlns="http://www.w3.org/2000/svg"><g transform="scale(1,-1)">
		<path d="M1406-287c616 0 1006 391 1006 1006 0 613-388 1006-1006 1006-616 0-1006-391-1006-1006 0-613 388-1006 1006-1006 z" fill="#FFB02E"/>
		<path d="M1837 503c100 0 288 51 288 144 0 39-31 72-72 72-21 0-36-8-51-21-39-37-114-51-165-51-38 0-89 9-129 28-35 15-49 44-87 44-40 0-71-34-71-72 0-94 190-144 287-144 z M975 503c101 0 287 51 287 144 0 38-31 72-72 72-20 0-35-8-50-21-39-37-114-51-165-51-41 0-90 9-129 28-35 15-49 44-87 44-39 0-72-31-72-72 0-95 193-144 288-144 z" fill="#402A32"/>
		<path d="M1406 0c81 0 144 67 144 144 0 81-67 144-144 144-81 0-144-67-144-144 0-81 67-144 144-144 z" fill="#BB1D80"/>
		<path d="M1477 934c-20 0-201 63-226 74-14 4-25 19-25 33 0 15 6 26 18 33l182 103-139 47c-15 5-25 20-25 34 0 21 18 36 36 36 18 0 197-63 227-74 14-5 25-17 25-32 0-13-6-26-18-33l-182-104 139-46c15-5 25-21 25-35 0-19-16-36-37-36 z M1873 1078c19 0 36 15 36 36 0 19-15 36-36 36l-144 0 173 230c5 5 7 12 7 21 0 21-17 37-36 37l-215 0c-19 0-36-15-36-36 0-19 15-36 36-36l143 0-172-230c-5-7-7-15-7-23 0-21 18-35 36-35l215 0 z M2053 1150c5 0 10 1 17 2l288 72c30 8 54 36 54 69 0 41-34 73-72 73-32 0-120-28-153-36l146 291c5 9 7 20 7 32 0 39-31 72-72 72-7 0-10-1-17-2l-287-72c-33-8-55-35-55-70 0-38 32-71 71-71 32 0 119 28 154 36l-145-292c-5-11-8-22-8-33 0-40 34-71 72-71 z" fill="#00A6ED"/>
	</g></svg>
