<svg version="1.1" xmlns="http://www.w3.org/2000/svg" viewBox="0 0 2300 2300"><g transform="scale(1,-1) translate(-256, -1869)">
		<path d="M1406-287c616 0 1006 391 1006 1006 0 613-388 1006-1006 1006-616 0-1006-391-1006-1006 0-613 388-1006 1006-1006 z" fill="#FFB02E"/>
		<path d="M1981 216c80 0 216 41 216 144 0 103-137 143-216 143-77 0-216-40-216-143 0-104 135-144 216-144 z M831 216c80 0 216 41 216 144 0 103-137 143-216 143-77 0-216-40-216-143 0-104 135-144 216-144 z" fill="#F8312F"/>
		<path d="M1801 575c177 0 324 143 324 324 0 178-145 323-324 323-179 0-323-147-323-323 0-179 145-324 323-324 z M1011 575c178 0 323 145 323 324 0 179-147 323-323 323-179 0-324-145-324-323 0-177 143-324 324-324 z" fill="#FFFFFF"/>
		<path d="M1693 719c79 0 144 63 144 144 0 80-65 143-144 143-80 0-143-62-143-143 0-80 64-144 143-144 z M1118 719c79 0 144 63 144 144 0 80-65 143-144 143-80 0-143-62-143-143 0-80 64-144 143-144 z" fill="#402A32"/>
		<path d="M1550 144l-288 0c-39 0-72 31-72 72 0 39 31 72 72 72l288 0c38 0 72-33 72-72 0-39-34-72-72-72 z M2089 1150c-16 0-27 8-34 25-44 111-133 191-254 191-19 0-36 15-36 36 0 19 15 36 36 36 141 0 279-102 322-240 1-4 2-7 2-11 0-21-17-37-36-37 z M723 1150c16 0 27 8 34 25 45 112 134 191 254 191 18 0 36 17 36 36 0 18-17 36-36 36-139 0-278-98-322-240-1-4-2-7-2-11 0-21 17-37 36-37 z" fill="#402A32"/>
	</g></svg>
