<svg version="1.1" xmlns="http://www.w3.org/2000/svg"><g transform="scale(1,-1)">
		<path d="M1406-287c616 0 1006 391 1006 1006 0 48-3 96-8 144l-998 467-999-467c-5-48-7-96-7-144 0-613 388-1006 1006-1006 z" fill="#FFB02E"/>
		<path d="M2404 863c-60 560-461 862-998 862-546 0-938-309-999-862l1997 0 z" fill="#5092FF"/>
		<path d="M1801 503c177 0 324 143 324 324 0 77-29 151-81 213-55-23-112-34-171-34-95 0-183 28-259 84-86-60-136-159-136-263 0-179 145-324 323-324 z M1011 503c178 0 323 145 323 324 0 104-50 203-136 263-76-56-164-84-259-84-59 0-116 11-171 34-52-62-81-136-81-213 0-177 143-324 324-324 z" fill="#FFFFFF"/>
		<path d="M1693 647c79 0 144 63 144 144 0 81-67 144-144 144-80 0-143-65-143-144 0-80 64-144 143-144 z M1118 647c79 0 144 63 144 144 0 81-67 144-144 144-80 0-143-65-143-144 0-80 64-144 143-144 z" fill="#402A32"/>
		<path d="M2089 1222c19 0 36 15 36 36 0 19-15 36-36 36-63 0-127 14-176 57-42 37-59 81-77 132-5 14-16 27-34 27-18 0-37-15-37-36 0-3 1-6 2-10 43-163 158-242 322-242 z M723 1222c164 0 279 79 322 242 1 4 2 7 2 10 0 21-19 36-37 36-18 0-29-13-34-27-18-51-35-95-77-132-49-44-115-57-176-57-19 0-36-15-36-36 0-19 15-36 36-36 z" fill="#402A32"/>
		<path d="M1693 0c34 0 66 24 66 60l-1 12c-39 175-185 288-352 288-174 0-318-121-352-288l-1-12c0-36 33-60 65-60l575 0 z" fill="#BB1D80"/>
		<path d="M508 72c98 0 179 79 179 180l0 287c0 98-79 180-179 180-98 0-180-78-180-180l0-287c0-98 78-180 180-180 z" fill="#3F5FFF"/>
	</g></svg>
