<svg version="1.1" xmlns="http://www.w3.org/2000/svg"><g transform="scale(1,-1)">
		<path d="M1987-287c161 0 281 145 281 299l0 1395c0 61-48 102-105 102-29 0-53-10-73-30l-327-329-705 0-335 329c-21 20-46 30-74 30-57 0-106-39-106-102l0-1403c0-157 123-291 282-291l1162 0 z" fill="#FFB02E"/>
		<path d="M2153 881c-14 0-27 5-39 16l-201 187c-11 11-17 24-17 39 0 17 6 30 17 40l201 187c12 11 25 16 40 16 28 0 61-20 61-52l0-374c0-35-31-59-62-59 z M663 881c14 0 27 5 39 16l201 187c11 11 16 24 16 39 0 14-5 30-16 40l-201 187c-12 11-25 16-40 16-28 0-61-20-61-52l0-374c0-35 31-59 62-59 z" fill="#FF822D"/>
		<path d="M1406 284c9 0 18 4 25 11l75 75c7 7 11 16 11 25 0 19-15 36-36 36l-150 0c-19 0-36-15-36-36 0-9 4-18 11-25l75-75c7-7 16-11 25-11 z" fill="#F70A8D"/>
		<path d="M2377-72c19 0 35 16 35 37 0 14-7 24-20 31l-287 144c-5 3-10 4-17 4-18 0-35-17-35-36 0-15 7-25 20-32l287-144c5-3 10-4 17-4 z M2088 216c7 0 12 1 17 4l287 143c13 7 20 17 20 32 0 21-16 37-36 37-7 0-11-1-16-4l-287-144c-13-7-20-17-20-32 0-19 16-36 35-36 z M435-72c7 0 12 1 17 4l287 144c13 7 20 17 20 32 0 18-15 36-36 36-6 0-11-1-16-4l-287-144c-13-7-20-17-20-31 0-21 16-37 35-37 z M723 216c21 0 36 18 36 36 0 15-7 25-20 32l-287 144c-5 3-9 4-16 4-20 0-36-16-36-37 0-15 7-25 20-32l287-143c5-3 10-4 16-4 z" fill="#FF6723"/>
		<path d="M1406-108c195 0 326 128 358 315-48-47-116-63-178-63-63 0-132 16-180 64-48-48-117-64-180-64-62 0-130 16-178 63 32-187 163-315 358-315 z" fill="#BB1D80"/>
		<path d="M1656 431c127 28 397 130 397 287 0 87-77 139-155 139-37 0-81-20-110-42-22 72-77 119-159 119-85 0-151-70-151-154 0-119 104-270 178-349 z M1156 431c74 79 178 231 178 349 0 83-66 154-151 154-82 0-137-47-159-119-29 22-73 42-110 42-80 0-155-55-155-139 0-160 276-261 397-287 z" fill="#CA0B4A"/>
	</g></svg>
