<svg version="1.1" xmlns="http://www.w3.org/2000/svg" viewBox="0 0 2300 2300"><g transform="scale(1,-1) translate(-256, -1869)">
		<path d="M1861-285c109 0 213 82 213 203l0 252c0 355-311 615-659 615-344 0-660-255-660-615l0-252c0-117 100-203 213-203l893 0 z" fill="#FF8101"/>
		<path d="M1415 499c86 0 160 70 160 157l0 185c0 85-70 157-160 157-88 0-161-70-161-157l0-185c0-88 74-157 161-157 z" fill="#F9C136"/>
		<path d="M2074 71l-249 0 0 571 12 0c146-114 237-284 237-472l0-99 z M1005 71l0 571-13 0c-146-114-237-284-237-472l0-99 250 0 z" fill="#FF6723"/>
		<path d="M1591 762l132 46c31 11 56 30 75 56 19 25 28 55 28 88l0 290c0 15 3 28 8 39 5 11 10 23 17 34 6 11 12 23 17 36 5 13 7 29 7 48 0 15-2 29-6 43-4 14-10 27-17 40-13 23-28 39-43 49-15 10-31 19-47 26-17 7-33 15-49 25-17 10-32 27-47 50-15 24-36 43-61 58-25 15-52 22-81 22-10 0-19-1-28-3l-26-8c-9-3-17-5-26-7-9-3-19-4-28-4-9 0-18 1-27 4-9 2-17 4-26 7l-26 8c-9 2-19 3-29 3-29 0-56-7-80-20-25-14-45-33-60-58-24-37-57-63-98-78-34-12-61-32-81-60-21-29-31-61-31-97 0-19 3-35 8-48 5-13 10-26 16-37 6-11 12-22 17-33 5-11 7-24 7-38l0-291c0-33 9-63 28-88 19-26 44-45 75-56l132-46 0 519c13 13 24 29 33 46 8 17 13 35 14 54 3-1 7-1 10-1 3-1 7-1 10-1 41 0 77 13 108 40 17-15 37-26 60-33 14-5 29-7 44-7l24 2c2-21 7-39 15-54 8-15 19-30 32-46l0-519 z" fill="#FFB02F"/>
		<path d="M1753 998c59 0 107 49 107 107 0 59-49 107-107 107-59 0-107-49-107-107 0-59 49-107 107-107 z M1076 998c59 0 107 49 107 107 0 59-49 107-107 107-59 0-107-49-107-107 0-59 49-107 107-107 z" fill="#FECA46"/>
		<path d="M1481 678c28 0 56 4 82 12 27 8 52 20 75 35 23 15 43 33 61 54 18 21 33 45 44 71 4 10 7 21 11 32 3 11 6 22 6 33l12 171 10 170c1 5 1 10 1 15-1 5-1 10-1 15 0 15-2 28-7 41-5 13-12 24-21 34-9 9-20 17-33 23-12 5-26 8-41 8l-89 0c-21 0-40 3-57 8-20 5-38 15-56 29-17 14-34 35-51 64-5 9-11 17-17 22-7 5-15 8-27 8l-91 0c-26 0-51-4-75-12-25-9-47-20-67-35-20-15-37-32-52-53-15-21-26-44-34-69-3-12-5-23-6-34-1-11-2-23-4-35l-4-36c-2-13-2-24-2-35 4-50 7-100 10-149 4-50 7-100 10-150 2-11 4-22 7-33 3-11 6-22 10-32 11-27 25-50 44-71 18-21 39-39 62-54 23-15 48-27 74-35 27-8 54-12 82-12l134 0 z" fill="#FDD641"/>
		<path d="M1486 874c11 0 18 7 18 18 0 25-68 35-89 35-20 0-89-9-89-36 0-11 9-17 18-17 8 0 43 18 71 18 30 0 60-18 71-18 z" fill="#990839"/>
		<path d="M1445 963c18 0 38 14 38 35 0 14-17 60-30 98-15 41-19 45-37 45-13 0-21-6-26-19-8-24-39-104-39-124 0-22 20-35 39-35l55 0 z" fill="#FFB02C"/>
		<path d="M1865-285c27 0 54 5 79 15 25 9 48 23 67 41 19 17 35 38 46 62 11 24 17 50 17 79l0 174-173 0c-17 0-32 0-43-1l-16-1-28 2c-21 3-39 5-56 8l-99 18-56 11-421 73c-11 2-22 4-33 5-11 1-23 2-34 2-20 0-40-3-60-8-21-6-39-15-56-26-17-11-32-25-45-41-13-17-22-35-27-56l849-334 43-16c13-5 29-7 46-7 z" fill="#FECA46"/>
		<path d="M965-284c17 0 32 2 45 7l43 16 845 340c-5 20-13 37-25 52-13 15-27 27-44 37-17 9-35 16-54 21-19 5-38 7-57 7-12 0-24-1-36-2-12-1-24-3-35-5l-477-90-49-10-49-9-57-9-27-2-16 1c-12 1-27 1-44 1l-173 0 0-158c0-29 6-55 18-79 11-24 27-45 46-62 19-18 42-32 67-41 25-10 52-15 79-15 z" fill="#FDD641"/>
		<path d="M1663 1105c12 0 16 7 16 18 0 51-61 89-105 89-45 0-106-40-106-89 0-11 6-18 17-18l178 0 z M1343 1105c11 0 17 7 17 18 0 49-61 89-106 89-45 0-105-39-105-89 0-11 4-18 16-18l178 0 z" fill="#FFFFFF"/>
		<path d="M1623 1105c3 9 6 18 6 27 0 36-29 63-63 63-36 0-62-29-62-63 0-10 2-19 6-27l113 0 z M1320 1105c3 9 6 18 6 27 0 36-29 63-63 63-36 0-62-29-62-63 0-10 2-19 6-27l113 0 z" fill="#7D4533"/>
		<path d="M1589 1105c9 7 13 17 13 28 0 18-17 35-36 35-19 0-36-17-36-35 0-11 4-21 13-28l46 0 z M1286 1105c9 7 13 17 13 28 0 18-17 35-36 35-19 0-36-17-36-35 0-11 4-21 13-28l46 0 z" fill="#000000"/>
		<path d="M1543 1148c7 0 14 7 14 14 0 8-6 15-14 15-8 0-14-7-14-15 0-7 7-14 14-14 z M1240 1148c7 0 14 7 14 14 0 8-6 15-14 15-8 0-14-7-14-15 0-7 7-14 14-14 z" fill="#FFFFFF"/>
		<path d="M1465 820c-7 22-28 36-50 36-23 0-43-15-51-36l101 0 z" fill="#F59B31"/>
		<path d="M1664 1248c11 0 18 7 18 18 0 11-7 18-18 18l-142 0c-11 0-18-7-18-18 0-11 7-18 18-18l142 0 z M1308 1248c11 0 18 7 18 18 0 11-7 18-18 18l-143 0c-11 0-18-7-18-18 0-11 7-18 18-18l143 0 z" fill="#D37034"/>
	</g></svg>
