<svg version="1.1" xmlns="http://www.w3.org/2000/svg" viewBox="0 0 2300 2300"><g transform="scale(1,-1) translate(-256, -1869)">
		<path d="M1628 464l174 60c41 14 74 38 99 73 24 34 36 73 36 116l0 382c0 19 4 36 11 51l22 44c8 14 16 30 23 47 7 17 10 39 10 64 0 23-4 46-11 68-7 21-17 41-30 59-13 18-29 34-47 48-19 13-39 24-61 32-28 10-52 23-73 38-21 15-39 36-55 61-21 33-48 59-79 78-32 18-68 27-108 27-13 0-26-1-38-4-12-3-24-7-35-11-11-4-23-7-34-10-11-3-23-5-35-5-12 0-24 2-35 5-11 3-23 6-34 10-11 4-23 8-35 11-12 3-25 4-39 4-39 0-74-9-105-27-32-18-59-43-80-75-17-25-36-46-56-63-21-17-46-30-75-40-22-8-42-19-60-32-18-13-33-29-46-47-13-18-23-38-30-59-7-21-11-44-11-67 0-25 3-47 10-64 7-17 14-33 22-48 8-15 15-30 22-45 7-15 10-31 10-50l0-382c0-21 3-42 10-61 7-20 16-38 28-55 11-17 25-31 42-44 17-13 35-22 55-29l175-60 0 682c17 17 32 37 43 60 11 22 17 45 20 70 5-1 9-1 13-1l13 0c26 0 51 4 76 13 25 9 47 22 66 39 23-19 50-33 79-42 22-7 44-10 67-10l22 1c3-24 10-48 21-71 10-23 24-43 43-59l0-682 z" fill="#000000"/>
		<path d="M1488 321c38 0 75 6 111 17 35 11 68 26 99 46 30 20 57 44 81 73 24 29 43 61 57 96 5 13 10 27 14 42 4 14 7 28 8 42l8 114c19 3 37 9 54 18 17 9 31 21 44 36 12 14 22 30 29 48 7 17 10 36 10 56 0 36-11 68-32 97-22 29-50 48-85 58l1 29-1 29-4 58c-1 15-4 28-9 41-6 13-14 24-23 33-10 9-21 17-34 22-13 5-26 8-41 8l-162 0c-45 0-85 12-120 37-35 24-62 56-79 97-1 1-1 3-1 5l-3 5c-5 10-12 18-19 25-7 6-17 9-30 9l-116 0c-47 0-91-9-132-26-41-18-77-42-108-73-31-31-55-66-72-107-18-41-27-85-27-132l0-31c0-14 1-24 2-29-35-9-64-28-85-57-21-29-32-62-32-98 0-20 4-39 11-57 7-18 16-34 29-48 12-15 26-27 43-36 17-9 35-15 55-18l4-56 3-57c1-13 4-27 8-42 4-15 9-29 14-42 14-35 33-67 57-96 24-29 51-53 82-73 31-20 64-35 100-46 35-11 72-17 110-17l181 0 z" fill="#573739"/>
		<path d="M1431 749c29 0 50 24 50 50 0 20-22 89-38 137-18 49-20 62-48 62-16 0-30-10-35-26-11-32-51-145-51-173 0-26 23-50 50-50l72 0 z" fill="#3D2123"/>
		<path d="M1718 927c16 0 32 12 32 28l-1 7c-17 62-71 108-138 108-60 0-139-50-139-115 0-18 16-28 32-28l214 0 z M1290 927c16 0 32 10 32 28l-1 7c-16 64-72 108-138 108-60 0-139-50-139-115 0-18 16-28 32-28l214 0 z" fill="#FFFFFF"/>
		<path d="M1680 927c1 7 2 11 2 18 0 50-39 89-89 89-25 0-46-9-63-26-21-21-26-50-26-72 0-3 1-6 2-9l174 0 z M1288 927c1 7 2 11 2 18 0 50-39 89-89 89-25 0-46-9-63-26-21-21-26-50-26-72l1-9 175 0 z" fill="#7D4533"/>
		<path d="M1643 927c2 6 3 12 3 18 0 29-23 53-53 53-30 0-54-21-54-53 0-7 2-11 3-18l101 0 z M1251 927c2 6 3 12 3 18 0 29-23 53-53 53-30 0-54-21-54-53 0-6 1-12 3-18l101 0 z" fill="#000000"/>
		<path d="M1397 499c59 0 107 49 107 107 0 59-49 107-107 107-59 0-107-49-107-107 0-59 49-107 107-107 z" fill="#990839"/>
		<path d="M1691 1128c15 0 26 10 26 25 0 13-6 21-19 24-21 8-149 38-159 38-14 0-25-12-25-26 0-10 9-21 20-24 16-5 146-37 157-37 z M1085 1128c11 0 142 32 158 37 13 3 19 11 19 24 0 15-10 26-25 26-13 0-139-31-158-38-13-5-20-13-20-24 0-15 13-25 26-25 z" fill="#000000"/>
		<path d="M1557 963c11 0 18 7 18 18 0 11-9 17-18 17-9 0-18-6-18-17 0-11 7-18 18-18 z M1165 963c11 0 18 7 18 18 0 11-9 17-18 17-9 0-18-6-18-17 0-11 7-18 18-18 z" fill="#FFFFFF"/>
		<path d="M2074-285c59 0 107 49 107 107l0 309c0 162-131 297-297 297l-974 0c-166 0-298-134-298-297l0-309c0-59 49-107 107-107l1355 0 z" fill="#F24827"/>
		<path d="M904 312l151 322-159 75-154-322 162-75 z" fill="#FF8101"/>
		<path d="M2073-285c140 0 251 116 251 251 0 102-60 188-145 228l-1099 512c-9 5-20 7-31 7-28 0-52-15-64-41-25-50-159-324-159-355 0-28 17-54 42-66l1098-512c33-16 68-24 107-24 z" fill="#FF6723"/>
		<path d="M1890 312l162 75-152 323-161-76 151-322 z" fill="#FF6723"/>
		<path d="M721-285c37 0 73 8 106 24l1099 512c26 12 41 38 41 65 0 11-2 22-7 31l-151 325c-12 26-39 41-65 41-11 0-22-2-31-7l-1098-511c-91-42-145-136-145-228 0-138 110-252 251-252 z" fill="#FF8101"/>
		<path d="M696 412l-16 199c-34 8-144 42-173 42-33 0-61-25-61-61 0-22 12-41 31-52l219-128 z M2098 412l219 127c18 10 30 31 30 53 0 36-28 61-61 61-30 0-141-35-173-42l-15-199 z" fill="#452829"/>
		<path d="M2047 385l-151 323 401 218c11 5 21 9 32 9 38 0 66-32 66-67 0-21-8-38-23-51l-108-92c-84-72-17-234-166-313l-51-27 z M747 385l151 323-401 218c-11 5-21 9-32 9-38 0-66-32-66-67 0-21 8-38 23-51l108-92c83-71 20-240 165-313l52-27 z" fill="#573739"/>
	</g></svg>
