<svg version="1.1" xmlns="http://www.w3.org/2000/svg" viewBox="0 0 2300 2300"><g transform="scale(1,-1) translate(-256, -1869)">
		<path d="M1943 863c-8 37-17 75-17 113l1 12 52 301c1 5 2 11 2 16 0 39-4 77-25 117-44 81-126 84-186 151l-75 80c-40 44-76 71-135 71-57 0-97-33-155-33-61 0-97 34-153 34-47 0-87-19-119-54l-92-98c-37-37-63-52-112-78-64-36-98-101-98-170 0-12 1-24 3-36l52-307c0-46-8-84-15-119l1072 0 z" fill="#000000"/>
		<path d="M2125-287l0 27c0 391-332 691-719 691-255 0-490-131-618-337-75-120-101-229-101-381l1438 0 z" fill="#00A6ED"/>
		<path d="M1406 108c105 0 180 92 180 192l0 227c0 96-72 192-180 192-103 0-180-90-180-192l0-227c0-102 77-192 180-192 z" fill="#452829"/>
		<path d="M955 759c86 0 153 68 153 153 0 81-66 153-153 153-6 0-14-1-21-2l8-128c-57 3-61 65-66 108-44-27-74-76-74-131 0-87 71-153 153-153 z M1854 759c82 0 153 67 153 153 0 51-26 100-71 129-5-39-9-103-65-106l7 128c-8 1-16 2-24 2-84 0-153-68-153-153 0-86 68-153 153-153 z" fill="#452829"/>
		<path d="M1555 324c158 0 288 127 299 283 8 109 15 219 22 328l-5 0c3 49 8 97 8 146 0 81-83 83-83 172l0 85c0 25-13 42-36 51-77 29-269 42-354 42-68 0-179-6-276-22-70-12-115-25-115-71l0-85c0-95-82-93-82-177 0-47 6-94 9-141l-7 0 23-328c11-157 141-283 299-283l298 0 z" fill="#573739"/>
		<path d="M1514 557c11 0 18 7 18 18 0 29-101 45-126 45-24 0-126-15-126-45 0-11 7-18 18-18 10 0 63 27 108 27 46 0 100-27 108-27 z" fill="#290118"/>
		<path d="M1440 719c27 0 51 21 51 51 0 21-22 86-39 137-18 52-21 63-47 63-19 0-31-9-36-26-11-32-51-146-51-174 0-27 21-51 50-51l72 0 z" fill="#452829"/>
		<path d="M1729 935c16 0 33 10 33 28l-1 7c-17 62-70 108-139 108-60 0-141-51-141-115 0-18 17-28 33-28l215 0 z M1298 935c16 0 33 10 33 28l-1 7c-17 62-71 108-140 108-60 0-140-51-140-115 0-18 17-28 33-28l215 0 z" fill="#FFFFFF"/>
		<path d="M1692 935l1 9 0 9c0 50-39 89-89 89-25 0-46-9-63-26-22-21-27-50-27-72 0-3 1-6 2-9l176 0 z M1296 935c1 3 2 6 2 9l0 9c0 50-41 89-90 89-49 0-90-39-90-89 0-7 1-11 2-18l176 0 z" fill="#7D4533"/>
		<path d="M1654 935c3 7 4 11 4 18 0 30-25 53-54 53-29 0-54-21-54-53 0-6 1-12 3-18l101 0 z M1259 935c2 6 3 12 3 18 0 32-25 53-54 53-29 0-54-23-54-53 0-6 1-12 3-18l102 0 z" fill="#000000"/>
		<path d="M1568 971c9 0 18 6 18 17 0 11-7 18-18 18-11 0-18-7-18-18 0-11 9-17 18-17 z M1172 971c9 0 18 6 18 17 0 11-7 18-18 18-11 0-18-7-18-18 0-11 9-17 18-17 z" fill="#FFFFFF"/>
		<path d="M1729 1078c30 0 54 22 54 54 0 30-22 54-54 54-80 0-129 54-161 54-30 0-54-22-54-54 0-70 163-108 215-108 z M1083 1078c54 0 215 38 215 108 0 30-22 54-54 54-31 0-84-54-161-54-30 0-54-22-54-54 0-30 22-54 54-54 z" fill="#000000"/>
	</g></svg>
