<svg version="1.1" xmlns="http://www.w3.org/2000/svg" viewBox="0 0 2300 2300"><g transform="scale(1,-1) translate(-256, -1869)">
		<path d="M1406-287c616 0 1006 391 1006 1006 0 613-388 1006-1006 1006-616 0-1006-391-1006-1006 0-613 388-1006 1006-1006 z" fill="#FFB02E"/>
		<path d="M1801 503c177 0 324 143 324 324 0 145-98 271-231 310l-124-97-145 58c-92-60-147-161-147-271 0-179 145-324 323-324 z M1011 503c178 0 323 145 323 324 0 107-51 208-146 270l-141-44-129 84c-138-41-231-171-231-310 0-177 143-324 324-324 z" fill="#FFFFFF"/>
		<path d="M1765 935c80 0 144 64 144 143 0 21-4 40-12 58-32 9-64 14-96 14-64 0-125-19-178-54l-1-9 0-9c0-80 62-143 143-143 z M1047 935c60 0 110 35 132 87 9 22 11 46 11 65l-1 9c-53 35-114 54-178 54-32 0-64-5-96-14-8-18-12-37-12-58 0-80 65-143 144-143 z" fill="#402A32"/>
		<path d="M1622 0c40 0 71 34 71 72 0 38-31 72-71 72l-432 0c-38 0-72-33-72-72 0-38 33-72 72-72l432 0 z" fill="#402A32"/>
	</g></svg>
