<svg version="1.1" xmlns="http://www.w3.org/2000/svg"><g transform="scale(1,-1)">
		<path d="M1406-287c616 0 1006 391 1006 1006 0 613-388 1006-1006 1006-616 0-1006-391-1006-1006 0-613 388-1006 1006-1006 z" fill="#FFB02E"/>
		<path d="M1806 554c167 0 305 133 305 305 0 168-136 305-305 305-168 0-305-136-305-305 0-168 136-305 305-305 z M1005 559c168 0 302 133 302 302 0 168-134 303-302 303-169 0-302-137-302-303 0-168 133-302 302-302 z" fill="#FFFFFF"/>
		<path d="M1050 71c-38 0-72 31-72 71 0 19 7 36 21 51 106 111 261 170 408 170 151 0 303-62 405-167 15-15 22-32 22-51 0-41-34-72-72-72-19 0-36 7-51 21-92 82-186 125-304 125-121 0-215-44-306-127-15-13-30-21-51-21 z M1765 647c121 0 216 99 216 216 0 119-97 215-216 215-120 0-215-97-215-215 0-121 97-216 215-216 z M1047 647c119 0 215 97 215 216 0 120-97 215-215 215-121 0-216-97-216-215 0-121 99-216 216-216 z" fill="#402A32"/>
	</g></svg>
