<svg version="1.1" xmlns="http://www.w3.org/2000/svg" viewBox="0 0 2300 2300"><g transform="scale(1,-1) translate(-256, -1869)">
		<path d="M1784 357c159 0 290 125 290 290 0 23-2 45-7 65-8 29-27 63-27 82 0 8 2 14 5 21 19 44 29 84 29 129 0 59-14 110-49 164-31 52-48 103-48 161 0 162-131 297-297 297-17 0-30 7-41 21-65 80-140 125-242 125-102 0-173-43-242-125-11-12-24-21-41-21-166 0-298-132-298-297 0-59-16-109-47-161-33-52-50-104-50-164 0-45 11-85 30-129 3-6 4-13 4-21 0-7-1-14-4-20-19-44-30-81-30-127 0-159 128-290 291-290l774 0 z" fill="#FFB02F"/>
		<path d="M969 785c80 0 143 62 143 142 0 80-62 143-143 143-80 0-143-62-143-143 0-80 64-142 143-142 z M1825 785c76 0 142 60 142 142 0 78-63 143-142 143-80 0-143-62-143-143 0-80 64-142 143-142 z" fill="#FECA46"/>
		<path d="M1397 445c60 0 116 10 168 30 51 20 97 48 136 84 39 36 70 79 93 130 23 50 36 105 39 165l9 208 0 15-1 40c-2 19-6 37-13 53-7 16-18 29-31 40-13 10-31 15-54 15l-282 0c-46 0-90 9-133 28-43 18-81 44-113 78l-16 20-16 21c-5 7-12 10-20 10-9 0-15-3-18-10l-10-21c-11-25-25-47-41-64-17-17-38-32-63-45-53-26-80-69-80-130 0-9 0-17 1-25 0-8 0-16 1-25l-1 0 8-208c3-60 16-115 40-165 23-50 55-93 94-129 39-37 84-65 136-85 52-20 108-30 167-30 z" fill="#FDD641"/>
		<path d="M1400 499c59 0 107 49 107 107 0 59-49 107-107 107-59 0-107-49-107-107 0-59 49-107 107-107 z" fill="#990839"/>
		<path d="M1430 769c26 0 47 19 47 46 0 13-9 44-20 78-21 63-27 105-60 105-15 0-29-10-33-24-11-33-47-135-47-159 0-25 20-46 46-46l67 0 z" fill="#FFB02C"/>
		<path d="M1691 943c-60 20-116 35-177 54 24 38 64 73 116 73 33 0 116-15 116-61 0-29-36-50-55-66 z M1104 943c59 20 118 37 178 54-26 37-65 73-116 73-34 0-117-17-117-61 0-27 36-50 55-66 z" fill="#000000"/>
		<path d="M1712 938l-198 0c-11 0-21 9-21 19 0 60 70 105 122 105 55 0 110-41 121-94 0-18-6-30-24-30 z M1283 938c11 0 21 9 21 19 0 58-72 105-123 105-52 0-121-48-121-100 0-15 12-24 25-24l198 0 z" fill="#FFFFFF"/>
		<path d="M1673 937l-153 0c-2 7-3 14-3 22 0 44 37 79 79 79 43 0 80-37 80-79 0-8-1-15-3-22 z M1276 937c1 3 2 7 2 11 0 57-28 90-79 90-44 0-79-37-79-79 0-8 1-15 3-22l153 0 z" fill="#7D4533"/>
		<path d="M1638 937l-81 0c-3 6-5 13-5 22 0 25 21 45 45 45 25 0 46-19 46-45 0-7-2-14-5-22 z M1239 937c4 7 6 14 6 22 0 26-21 45-46 45-25 0-45-19-45-45 0-7 2-14 5-22l80 0 z" fill="#000000"/>
		<path d="M1172 976c9 0 14 5 14 14 0 9-5 14-14 14-9 0-14-5-14-14 0-9 5-14 14-14 z M1569 976c8 0 15 6 15 14 0 8-7 14-15 14-7 0-14-7-14-14 0-7 7-14 14-14 z" fill="#FFFFFF"/>
		<path d="M1711 1120c15 0 24 11 24 25 0 12-6 20-19 23-21 5-144 26-159 26-15 0-22-13-22-25 0-6 2-11 6-14 17-16 152-35 170-35 z M1084 1120c11 0 136 24 155 27 11 3 20 11 20 22 0 13-8 25-22 25-11 0-144-21-159-26-13-4-19-12-19-25 0-15 11-23 25-23 z" fill="#D37034"/>
		<path d="M2074-285c59 0 107 49 107 106l0 309c0 162-131 298-297 298l-974 0c-165 0-298-135-298-298l0-309c0-60 51-106 107-106l1355 0 z" fill="#633589"/>
		<path d="M904 312l151 322-159 75-154-322 162-75 z" fill="#A17FD5"/>
		<path d="M2073-285c140 0 251 116 251 251 0 102-60 188-145 228l-1099 512c-9 5-20 7-31 7-28 0-52-15-64-41-25-50-159-324-159-355 0-28 17-54 42-66l1098-512c33-16 68-24 107-24 z" fill="#8B62BF"/>
		<path d="M1890 312l162 75-152 323-161-76 151-322 z" fill="#8B62BF"/>
		<path d="M721-285c37 0 73 8 106 24l1099 512c26 12 41 38 41 65 0 11-2 22-7 31l-151 325c-12 26-39 41-65 41-11 0-22-2-31-7l-1098-511c-91-42-145-136-145-228 0-138 110-252 251-252 z" fill="#A17FD5"/>
		<path d="M696 412l-16 199c-34 8-144 42-173 42-33 0-61-25-61-61 0-22 12-41 31-52l219-128 z M2098 412l219 127c18 10 30 31 30 53 0 36-28 61-61 61-30 0-141-35-173-42l-15-199 z" fill="#FECA46"/>
		<path d="M747 385c-81 42-115 58-142 127-30 75-20 166-75 213l-108 92c-15 13-23 30-23 51 0 35 28 67 66 67 11 0 21-4 32-9l401-218-151-323 z M2047 385c87 46 116 62 143 129 29 73 20 165 74 211l108 92c15 13 23 30 23 51 0 35-28 67-66 67-11 0-21-4-32-9l-401-218 151-323 z" fill="#FDD641"/>
	</g></svg>
