<svg version="1.1" xmlns="http://www.w3.org/2000/svg" viewBox="0 0 2300 2300"><g transform="scale(1,-1) translate(-256, -1869)">
		<path d="M1730 642c128 0 237 98 237 229 0 37-8 67-24 101-3 5-5 11-5 16 0 3 1 6 2 8 10 22 27 67 27 110 0 48-14 88-41 129-26 38-39 80-39 127 0 130-109 235-242 235-13 0-25 5-34 16-58 66-113 99-197 99-83 0-140-34-197-99-9-11-20-16-33-16-131 0-243-102-243-235 0-46-13-88-38-127-27-42-41-81-41-129 0-37 9-68 24-102 3-5 4-9 4-16 0-7-1-11-4-16-14-33-24-64-24-101 0-131 108-229 237-229l631 0 z" fill="#000000"/>
		<path d="M1861-285c109 0 213 82 213 203l0 252c0 355-311 615-659 615-344 0-660-255-660-615l0-252c0-117 100-203 213-203l893 0 z" fill="#A17FD5"/>
		<path d="M1415 499c86 0 160 70 160 157l0 185c0 85-70 157-160 157-88 0-161-70-161-157l0-185c0-88 74-157 161-157 z" fill="#452829"/>
		<path d="M2074 71l-249 0 0 571 12 0c146-114 237-284 237-472l0-99 z M1005 71l0 571-13 0c-146-114-237-284-237-472l0-99 250 0 z" fill="#8B62BF"/>
		<path d="M1753 998c59 0 107 49 107 107 0 59-49 107-107 107-59 0-107-49-107-107 0-59 49-107 107-107 z M1076 998c59 0 107 49 107 107 0 59-49 107-107 107-59 0-107-49-107-107 0-59 49-107 107-107 z" fill="#452829"/>
		<path d="M1416 666c188 0 346 133 354 338 4 84 11 169 11 253 0 23-3 44-10 67l-302 0c-96 0-167 42-228 120-5 6-10 9-15 9-8 0-14-4-17-12-33-67-70-111-147-116-7-23-10-47-10-73 0-83 6-165 10-248 8-199 160-338 354-338 z" fill="#573739"/>
		<path d="M1486 874c11 0 18 7 18 18 0 25-68 35-89 35-20 0-89-9-89-36 0-11 9-17 18-17 8 0 43 18 71 18 30 0 60-18 71-18 z" fill="#990839"/>
		<path d="M1445 963c18 0 38 14 38 35 0 14-17 60-30 98-15 41-19 45-37 45-13 0-21-6-26-19-8-24-39-104-39-124 0-22 20-35 39-35l55 0 z" fill="#3D2123"/>
		<path d="M1865-285c27 0 54 5 79 15 25 9 48 23 67 41 19 17 35 38 46 62 11 24 17 50 17 79l0 174-173 0c-17 0-32 0-43-1l-16-1-28 2c-21 3-39 5-56 8l-99 18-56 11-421 73c-11 2-22 4-33 5-11 1-23 2-34 2-20 0-40-3-60-8-21-6-39-15-56-26-17-11-32-25-45-41-13-17-22-35-27-56l849-334 43-16c13-5 29-7 46-7 z" fill="#452829"/>
		<path d="M965-284c17 0 32 2 45 7l43 16 845 340c-5 20-13 37-25 52-13 15-27 27-44 37-17 9-35 16-54 21-19 5-38 7-57 7-12 0-24-1-36-2-12-1-24-3-35-5l-477-90-49-10-49-9-57-9-27-2-16 1c-12 1-27 1-44 1l-173 0 0-158c0-29 6-55 18-79 11-24 27-45 46-62 19-18 42-32 67-41 25-10 52-15 79-15 z" fill="#573739"/>
		<path d="M1655 1109c-48 16-96 31-145 44 21 31 54 59 95 59 26 0 95-13 95-49 0-22-32-41-45-54 z M1179 1109c47 16 96 29 144 44-19 31-53 59-94 59-29 0-95-15-95-50 0-22 33-41 45-53 z" fill="#000000"/>
		<path d="M1663 1105c12 0 16 7 16 18 0 51-61 89-105 89-45 0-106-40-106-89 0-11 6-18 17-18l178 0 z M1343 1105c11 0 17 7 17 18 0 49-61 89-106 89-45 0-105-39-105-89 0-11 4-18 16-18l178 0 z" fill="#FFFFFF"/>
		<path d="M1623 1105c3 9 6 18 6 27 0 36-29 63-63 63-36 0-62-29-62-63 0-10 2-19 6-27l113 0 z M1320 1105c3 9 6 18 6 27 0 36-29 63-63 63-36 0-62-29-62-63 0-10 2-19 6-27l113 0 z" fill="#7D4533"/>
		<path d="M1589 1105c9 7 13 17 13 28 0 18-17 35-36 35-19 0-36-17-36-35 0-11 4-21 13-28l46 0 z M1286 1105c9 7 13 17 13 28 0 18-17 35-36 35-19 0-36-17-36-35 0-11 4-21 13-28l46 0 z" fill="#000000"/>
		<path d="M1543 1148c7 0 14 7 14 14 0 8-6 15-14 15-8 0-14-7-14-15 0-7 7-14 14-14 z M1240 1148c7 0 14 7 14 14 0 8-6 15-14 15-8 0-14-7-14-15 0-7 7-14 14-14 z" fill="#FFFFFF"/>
		<path d="M1465 820c-7 22-28 36-50 36-23 0-43-15-51-36l101 0 z" fill="#341A1C"/>
		<path d="M1664 1248c11 0 18 7 18 18 0 11-7 18-18 18l-142 0c-11 0-18-7-18-18 0-11 7-18 18-18l142 0 z M1308 1248c11 0 18 7 18 18 0 11-7 18-18 18l-143 0c-11 0-18-7-18-18 0-11 7-18 18-18l143 0 z" fill="#000000"/>
	</g></svg>
