<svg version="1.1" xmlns="http://www.w3.org/2000/svg" viewBox="0 0 2300 2300"><g transform="scale(1,-1) translate(-256, -1869)">
		<path d="M2016 285c152 0 272 127 272 275 0 44-11 81-28 121-3 7-5 13-5 19 0 7 2 13 5 20 17 40 28 78 28 122 0 56-17 108-46 155-29 47-45 96-45 152 0 154-123 282-278 282-15 0-28 7-38 20-59 74-131 118-226 118-96 0-163-43-226-118-11-12-22-20-39-20-155 0-278-127-278-282 0-54-15-105-44-152-31-49-46-99-46-155 0-43 10-81 27-122 3-5 4-12 4-20 0-7-1-14-4-19-18-40-27-77-27-121 0-147 117-275 271-275l723 0 z" fill="#2D242D"/>
		<path d="M751 963c79 0 146 43 180 110 29 58 68 110 116 156 28 27 64 49 64 82 0 34-27 58-58 58-46 0-90-71-103-71-5 0-7 2-7 7 0 11 1 23 3 35 10 71 17 135 25 209 0 35-12 65-52 65-24 0-44-16-52-38-3-11-14-112-17-135-1-7-2-27-9-28l-3 4c3 56 7 146 15 197l1 10c0 30-25 52-54 52-37 0-55-28-55-71 0-58-7-103-12-156l-3 0-3 129c-1 30-30 49-56 49-27 0-51-24-51-51 0-49 6-100 9-147 0-2-1-3-4-3l-3 3c-5 44-5 116-63 116-29 0-54-22-54-52l1-7c15-121 37-236 48-357l1-2c6-23 13-44 21-61 24-51 91-103 175-103 z" fill="#966661"/>
		<path d="M897 856l0 112c0 14-7 30-24 30l-237 0c-17 0-24-16-24-30l0-112 285 0 z" fill="#774AA6"/>
		<path d="M2324-285c0 60-8 119-25 176-17 57-41 110-71 161-31 50-67 96-110 138-43 41-90 77-142 106-27 16-57 30-90 43-33 12-65 18-97 18l-214 0c-11 0-20 0-29-1-9-1-17-1-25-1l-12-1-13 1c-9 0-18 1-28 2-14 2-27 4-38 7l-34 9c-11 3-22 6-33 10-11 3-24 7-38 10l-285 71c-25 6-43 19-54 40-11 21-17 43-17 67l0 284c0 19-6 35-19 50-13 15-29 22-48 22l-294 0c-19 0-35-7-48-22-13-15-19-31-19-50l0-377c0-30 4-60 11-89 7-30 18-59 32-86 13-28 30-54 49-78 19-25 40-46 63-64 15-11 31-21 46-30 15-9 32-17 49-24l220-98c19-9 29-23 29-44l0-250 1284 0 z" fill="#8B62BF"/>
		<path d="M1646 143c85 0 179 58 179 157l0 185c0 99-93 157-179 157-86 0-178-59-178-157l0-185c0-100 94-157 178-157 z" fill="#8B5C56"/>
		<path d="M2039 696c76 0 142 60 142 142 0 78-63 143-142 143-80 0-143-62-143-143 0-77 63-142 143-142 z M1236 696c78 0 143 63 143 142 0 80-62 143-143 143-77 0-142-63-142-143 0-76 60-142 142-142 z" fill="#8B5C56"/>
		<path d="M1651 329c243 0 411 186 419 417 3 86 9 164 9 250 0 57-26 128-96 128l-270 0c-117 0-199 56-268 149-5 7-10 11-18 11-9 0-15-4-18-11-28-68-48-100-109-132-51-27-77-71-77-132 0-17 1-34 2-51l-1 0 8-212c8-235 181-417 419-417 z" fill="#966661"/>
		<path d="M1929 839c-59 20-113 34-172 53 24 37 63 71 113 71 31 0 113-16 113-60 0-25-38-48-54-64 z M1361 839c57 19 115 34 172 53-26 38-64 71-113 71-31 0-112-17-112-59 0-26 36-48 53-65 z" fill="#000000"/>
		<path d="M1949 834l-192 0c-15 0-20 12-20 24 0 4 5 19 8 24 19 43 63 72 110 72 47 0 117-40 117-96 0-14-10-24-23-24 z M1534 834c15 0 20 12 20 24 0 4-5 20-8 24-20 43-63 72-111 72-51 0-117-44-117-96 0-13 10-24 24-24l192 0 z" fill="#FFFFFF"/>
		<path d="M1912 834l-149 0c-2 6-3 13-3 20 0 42 33 77 77 77 21 0 40-7 55-22 18-19 22-40 22-65 0-3-1-7-2-10 z M1527 834c2 6 3 13 3 20 0 42-33 77-77 77-42 0-77-33-77-77 0-7 1-13 3-20l148 0 z" fill="#7D4533"/>
		<path d="M1877 834l-78 0c-4 6-6 13-6 20 0 24 18 45 44 45 25 0 45-19 45-45 0-7-2-13-5-20 z M1491 834c4 6 6 13 6 20 0 25-19 45-45 45-26 0-44-21-44-45 0-7 2-13 5-20l78 0 z" fill="#000000"/>
		<path d="M1812 871c9 0 13 4 13 13 0 7-5 14-13 14-9 0-14-5-14-14 0-8 7-13 14-13 z M1427 871c9 0 13 4 13 13 0 7-5 14-13 14-9 0-14-5-14-14 0-8 7-13 14-13 z" fill="#FFFFFF"/>
		<path d="M1646 515c57 0 111 29 141 79 1 3 2 5 2 7 0 7-7 13-14 13l-6-1c-49-18-68-31-123-31-46 0-83 13-122 31l-6 1c-7 0-14-6-14-13 0-2 1-4 2-7 28-50 87-79 140-79 z" fill="#990839"/>
		<path d="M1685 663c25 0 45 19 45 45 0 18-20 78-35 121-17 47-17 56-42 56-17 0-27-8-32-23-8-28-46-129-46-154 0-25 19-45 45-45l65 0 z" fill="#75443E"/>
		<path d="M1925 995c14 0 22 10 22 23 0 37-108 52-135 52l-18 0c-20-2-40-6-40-27 0-12 8-23 22-23 11 0 23 4 35 4 51 0 100-29 114-29 z M1349 1013c10 0 63 28 111 28 12 0 24-3 36-3 13 0 23 9 23 23 0 14-10 21-22 24-12 3-27 3-36 3-23 0-135-15-135-52 0-14 10-23 23-23 z" fill="#372128"/>
	</g></svg>
