<svg version="1.1" xmlns="http://www.w3.org/2000/svg" viewBox="0 0 2300 2300"><g transform="scale(1,-1) translate(-256, -1869)">
		<path d="M1406-287c616 0 1006 391 1006 1006 0 613-388 1006-1006 1006-616 0-1006-391-1006-1006 0-613 388-1006 1006-1006 z" fill="#FFB02E"/>
		<path d="M1806 697c168 0 305 136 305 305 0 167-133 305-305 305-168 0-305-136-305-305 0-168 136-305 305-305 z M1005 703c168 0 302 133 302 302 0 168-133 302-302 302-168 0-302-133-302-302 0-168 133-302 302-302 z" fill="#FFFFFF"/>
		<path d="M1765 791c121 0 216 97 216 215 0 121-99 216-216 216-119 0-215-97-215-216 0-120 97-215 215-215 z M1047 791c120 0 215 97 215 215 0 121-97 216-215 216-120 0-216-95-216-216 0-119 97-215 216-215 z" fill="#402A32"/>
		<path d="M1406 288c122 0 254 32 360 115 33 26 71 60 71 100 0 38-31 72-71 72-25 0-42-10-58-29-68-78-193-115-302-115-103 0-231 33-302 115-16 19-33 29-58 29-41 0-71-34-71-72 0-29 18-52 41-73 118-111 266-142 390-142 z" fill="#402A32"/>
	</g></svg>
