<svg version="1.1" xmlns="http://www.w3.org/2000/svg" viewBox="0 0 2300 2300"><g transform="scale(1,-1) translate(-256, -1869)">
		<path d="M2089 431c211 0 395 169 395 396 0 216-173 395-395 395-218 0-396-175-396-395 0-217 174-396 396-396 z M723 431c211 0 395 169 395 396 0 216-173 395-395 395-216 0-395-173-395-395 0-218 175-396 395-396 z" fill="#E39D89"/>
		<path d="M1478-72c436 0 790 354 790 791l0 144c0 435-351 790-790 790l-144 0c-435 0-791-352-791-790l0-144c0-436 351-791 791-791l144 0 z" fill="#7D4533"/>
		<path d="M1406 216c276 0 503 223 503 503 0 27-2 54-6 80 104 67 150 171 150 283 0 180-147 322-322 322l-650 0c-187 0-322-147-322-332 0-114 58-214 150-273-4-26-6-53-6-80 0-276 221-503 503-503 z" fill="#E39D89"/>
		<path d="M1406 360c161 0 287 130 287 287l-575 0c0-160 129-287 288-287 z" fill="#BB1D80"/>
		<path d="M1262 396l318 412c12 16 18 34 18 55 0 51-39 91-90 91-13 0-24-2-34-7 23 29 39 50 39 87 0 59-49 107-107 107-38 0-61-16-88-43 4 10 6 21 6 32 0 49-40 94-94 94-30 0-57-15-75-37l-123-163c-23 26-57 55-97 55-73 0-95-84-95-139 0-49 11-105 27-149l90 108 161 0 129-193-21-23 36-287 z" fill="#FBB8AB"/>
		<path d="M616-287c91 0 167 39 224 107 128 154 230 295 368 474 71 93 135 190 135 298 0 188-157 358-296 450l-649-811c-58-71-70-143-70-230 0-161 128-288 288-288 z" fill="#8C5543"/>
		<path d="M1550 396l36 287-21 23 128 193 162 0 90-108c16 44 27 100 27 149 0 57-23 139-96 139-39 0-72-29-97-55l-122 163c-19 24-46 37-75 37-54 0-94-44-94-94 0-11 2-22 6-32-27 27-50 43-88 43-57 0-108-46-108-106 0-37 17-58 40-88-10 5-21 7-34 7-51 0-91-40-91-91 0-20 6-38 19-55l318-412 z" fill="#FBB8AB"/>
		<path d="M2196-287c161 0 288 128 288 288 0 92-15 162-70 230l-649 811c-140-93-296-265-296-450 0-110 63-204 136-298 127-166 237-318 367-474 57-68 133-107 224-107 z" fill="#8C5543"/>
	</g></svg>
