<svg version="1.1" xmlns="http://www.w3.org/2000/svg" viewBox="0 0 2300 2300"><g transform="scale(1,-1) translate(-256, -1869)">
		<path d="M1856 912c14 27 50 94 56 120l50 277c2 11 3 22 3 34 0 107-71 144-140 180-93 46-162 187-274 187-55 0-99-30-155-30-55 0-97 31-150 31-43 0-89-18-120-49l-91-92c-34-34-67-49-111-71-59-30-98-90-98-159 0-10 1-20 3-30l51-278c5-24 42-92 57-119l919-1 z" fill="#2D242D"/>
		<path d="M966 784c80 0 147 64 147 147 0 82-67 146-147 146-13 0-25-1-35-4l6-89c-39 1-53 29-60 63-35-26-58-70-58-116 0-80 64-147 147-147 z M1827 784c84 0 147 68 147 147 0 49-23 91-59 118-5-34-20-63-59-66l6 90c-10 3-22 4-35 4-79 0-146-63-146-146 0-81 64-147 146-147 z" fill="#8B5C56"/>
		<path d="M1542 356c153 0 280 120 290 269 9 120 17 238 25 358l-1 0c3 45 9 91 9 135 0 75-82 75-82 158l0 78c0 24-15 39-36 46-89 31-260 40-351 40-70 0-182-5-272-21-58-10-115-18-115-65l0-78c0-89-81-83-81-162 0-43 6-87 9-130 8-124 15-235 25-359 11-153 142-269 290-269l290 0 z" fill="#966661"/>
		<path d="M1397 499c59 0 107 49 107 107 0 59-49 107-107 107-59 0-107-49-107-107 0-59 49-107 107-107 z" fill="#990839"/>
		<path d="M1432 761c26 0 47 20 47 47 0 27-37 132-48 165-5 15-20 25-34 25-17 0-29-8-34-25-11-33-48-136-48-164 0-26 20-48 48-48l69 0 z" fill="#75443E"/>
		<path d="M1284 927l-200 0c-14 0-25 10-25 24 0 56 71 101 122 101 54 0 124-46 124-107 0-11-11-18-21-18 z M1710 927c13 0 25 10 25 25 0 56-73 100-123 100-55 0-123-46-123-107 0-11 10-18 20-18l201 0 z" fill="#FFFFFF"/>
		<path d="M1277 926l-155 0c-1 7-3 16-3 22 0 45 37 80 81 80 48 0 80-36 80-80 0-8-1-15-3-22 z M1671 926c2 7 3 14 3 22 0 46-37 80-80 80-48 0-80-36-80-80 0-6 0-15 3-22l154 0 z" fill="#7D4533"/>
		<path d="M1241 927l-81 0c-3 7-5 14-5 21 0 25 20 46 46 46 26 0 45-21 45-46 0-7-2-14-5-21 z M1634 927c3 7 5 15 5 21 0 25-20 46-46 46-25 0-46-20-46-46 0-7 2-14 5-21l82 0 z" fill="#000000"/>
		<path d="M1173 965c8 0 14 7 14 15 0 9-5 14-14 14-9 0-14-5-14-14 0-8 6-15 14-15 z M1569 965c8 0 14 7 14 15 0 9-5 14-14 14-8 0-15-6-15-14 0-8 7-15 15-15 z" fill="#FFFFFF"/>
		<path d="M1705 1086c26 0 50 21 50 50 0 22-15 43-38 48-40 11-122 38-162 38-26 0-50-22-50-51 0-25 19-44 42-49 33-8 135-36 158-36 z M1090 1086c11 0 139 32 160 37 22 6 38 24 38 49 0 26-21 49-50 49-16 0-139-30-161-37-23-7-38-24-38-49 0-26 22-49 51-49 z" fill="#372128"/>
		<path d="M2074-286c59 0 107 49 107 107l0 309c0 162-131 297-297 297l-974 0c-166 0-298-134-298-297l0-309c0-59 49-107 107-107l1355 0 z" fill="#007ACF"/>
		<path d="M904 312l151 322-159 75-154-322 162-75 z" fill="#00A6ED"/>
		<path d="M2073-285c140 0 251 116 251 251 0 102-60 188-145 228l-1099 512c-9 5-20 7-31 7-28 0-52-15-64-41-25-50-159-324-159-355 0-28 17-54 42-66l1098-512c33-16 68-24 107-24 z" fill="#0092E7"/>
		<path d="M1890 312l162 75-152 323-161-76 151-322 z" fill="#3BC6F6"/>
		<path d="M721-285c37 0 73 8 106 24l1099 512c26 12 41 38 41 65 0 11-2 22-7 31l-151 325c-12 26-39 41-65 41-11 0-22-2-31-7l-1098-511c-91-42-145-136-145-228 0-138 110-252 251-252 z" fill="#00A6ED"/>
		<path d="M696 412l-16 199c-34 8-144 42-173 42-33 0-61-25-61-61 0-22 12-41 31-52l219-128 z M2098 412l219 127c18 10 30 31 30 53 0 36-28 61-61 61-30 0-141-35-173-42l-15-199 z" fill="#8B5C56"/>
		<path d="M747 385c-81 42-115 58-142 127-30 75-20 166-75 213l-108 92c-15 13-23 30-23 51 0 35 28 67 66 67 11 0 21-4 32-9l401-218-151-323 z M2047 385c87 46 116 62 143 129 29 73 20 165 74 211l108 92c15 13 23 30 23 51 0 35-28 67-66 67-11 0-21-4-32-9l-401-218 151-323 z" fill="#966661"/>
	</g></svg>
