<svg version="1.1" xmlns="http://www.w3.org/2000/svg" viewBox="0 0 2300 2300"><g transform="scale(1,-1) translate(-256, -1869)">
		<path d="M2017-287c41 0 80 7 117 20 37 13 71 31 102 54 31 23 58 50 83 81 24 31 44 64 60 101 7 15 14 32 20 50 6 18 10 36 13 53l72 539c1 3 1 8 1 15 0 17-3 33-9 48-7 15-15 27-26 38-11 11-24 19-39 25-15 6-31 9-48 9-12 0-23-3-32-8-9-5-18-12-27-19 0 24 1 48 2 72l0 9c0 21-3 40-7 57-6 20-17 37-32 50-15 13-41 23-78 23-17 0-32-3-47-10-15-7-28-18-38-31l0 46c0 16-3 32-9 47-7 15-15 29-25 40-11 11-23 21-37 28-15 7-30 10-47 10-18 0-34-3-48-10-14-7-26-16-35-27-10-11-17-25-22-40-5-15-8-31-8-48-12 15-26 27-43 38-17 11-35 16-54 16-15 0-30-3-44-9-15-7-27-15-38-25-11-11-20-23-27-37-7-14-10-29-10-44l36-335c-12 38-29 66-51 83-23 17-53 25-92 25-16 0-30-4-43-11-13-8-25-18-34-30-9-12-17-25-22-40-5-15-8-29-8-43 0-17 3-32 8-46 5-14 12-28 21-42 24-38 47-76 69-113 21-37 41-75 60-113 19-39 36-78 51-118 15-41 29-83 41-127 9-35 25-68 46-98 21-31 47-57 76-80 29-23 60-40 95-53 35-13 70-20 107-20 z M796-287c37 0 72 7 107 20 35 13 66 30 95 53 29 23 54 49 75 80 21 30 37 63 46 98 12 44 26 86 42 127 15 40 32 79 51 118 19 38 39 76 61 113 21 37 44 75 68 113 9 14 16 28 21 42 5 14 8 29 8 46 0 14-3 28-8 43-5 15-13 28-22 40-9 12-20 22-33 30-13 7-28 11-44 11-39 0-69-8-91-25-23-17-40-45-53-83l36 324c0 2 0 4 1 6l0 5c0 15-3 30-10 44-7 14-15 26-26 37-11 10-24 18-38 25-15 6-30 9-45 9-19 0-37-5-54-16-17-11-32-23-43-38 0 17-2 33-7 48-5 15-13 29-22 40-10 11-22 20-36 27-14 7-30 10-48 10-17 0-33-3-47-10-14-7-26-17-37-28-11-11-19-25-25-40-6-15-9-31-9-47l0-46c-10 13-22 24-37 31-19 9-33 10-54 10-14-1-27-4-40-9-13-5-25-11-35-19-10-8-18-18-24-30-7-12-10-25-11-40l-1-28 1-29 0-56c-9 7-18 14-27 19-9 5-20 8-32 8-17 0-33-3-48-9-15-6-27-14-38-25-11-11-19-24-25-39-7-15-10-30-10-47 0-7 0-12 1-15l72-539c3-17 7-35 13-53 6-18 13-35 20-50 16-37 36-70 61-101 24-31 52-58 83-81 31-23 64-41 101-54 37-13 76-20 117-20 z" fill="#573739"/>
		<path d="M2033 529c19 0 36 13 36 35 0 85 2 172 9 256 3 27 11 48 26 71l0 44c0 14-3 29-8 44-79-38-94-143-94-226-1-74-5-126-5-179 0-22 7-45 36-45 z M2200 418c19 0 32 14 35 31 12 70 17 131 32 201 5 27 21 47 37 70l0 85c-13-5-26-12-37-22-74-66-78-153-92-245-4-27-11-58-11-85 0-22 17-35 36-35 z M1668 451c18 0 35 17 35 36 0 13-15 72-23 85-27 55-69 75-130 75-16 0-30-4-43-12l0-1c63-8 94-53 111-101 11-35 12-82 50-82 z M1857 534c10 0 18 4 25 11 7 7 10 16 10 26 0 7 0 21-1 41l-2 69-9 160-6 64-5 34c-11 14-25 26-41 35-17 9-34 14-53 14l-22-1c15-10 26-21 33-32 7-11 12-26 15-43 8-57 12-114 12-172l0-22c0-51 3-100 7-150 2-23 14-34 37-34 z M1144 451c17 0 32 11 36 29 15 67 41 143 124 154l0 2c-13 7-27 11-41 11-73 0-113-30-139-95-5-13-16-56-16-66 0-18 17-35 36-35 z M609 418c9 0 18 3 27 9 11 8 12 16 12 30-4 66-18 138-33 208-11 52-55 121-107 140l0-86-3 3c42-42 55-132 63-205 5-43 3-99 41-99 z M777 529c28 0 36 17 37 36l0 21c0 80 0 160-8 240-5 52-38 128-89 152-5-15-8-29-8-43l0-46c0-3 4-6 5-9 11-18 17-42 20-60 8-77 8-157 8-234 0-24 0-57 35-57 z M954 534c21 0 35 13 38 34 11 112 2 233 18 344 5 36 21 56 49 75l-10 1c-48 0-79-18-107-51-7-35-9-55-10-91-3-98-12-188-12-275 0-18 12-37 34-37 z" fill="#3D2123"/>
		<path d="M1150 1154c-12 0-44 17-77 38-61 37-96 51-96 80 0 11 4 21 13 28l88 69c7 5 14 8 23 8 17 0 28-8 33-25 8-27 52-143 52-162 0-21-18-36-36-36 z M1662 1154c12 0 44 17 78 38 60 37 95 51 95 80 0 11-4 21-13 28l-88 69c-7 5-14 8-23 8-14 0-29-10-34-25-8-26-51-141-51-162 0-21 18-36 36-36 z M1406 1217c14 0 29 8 34 23 10 26 58 140 58 161 0 21-17 37-36 37l-112 0c-19 0-36-16-36-37 0-16 26-82 45-127 21-52 25-57 47-57 z" fill="#46A4FB"/>
	</g></svg>
