<svg version="1.1" xmlns="http://www.w3.org/2000/svg" viewBox="0 0 2300 2300"><g transform="scale(1,-1) translate(-256, -1869)">
		<path d="M1457 175l425 584c-49 42-113 92-157 139-23 25-36 66-36 97l0 558c0 91-58 171-155 171-101 0-158-52-165-152-5 100-63 152-164 152-98 0-155-80-155-171l0-558c0-31-13-72-36-97-44-47-108-97-157-139l425-584c45 15 81 57 87 108 7-51 43-93 88-108 z" fill="#D6A089"/>
		<path d="M1689 1510l0 43c0 91-58 171-155 171-47 0-96-11-129-50l0-122c41 23 88 29 132 29 56 0 109-15 151-54l0-17 1 0 z M1050 1528c43 37 95 53 151 53 44 0 91-6 132-29l0 123c-33 38-82 49-128 49-98 0-155-80-155-171l0-25 z" fill="#E4B29A"/>
		<path d="M1282 175c20 7 37 18 51 32l0 1253c-33 38-82 48-128 48-94 0-155-75-155-170l0-343c0-31-13-74-36-97-49-50-104-93-157-139l425-584 z M1457 175c-20 7-37 18-52 33l0 1248c33 39 82 50 129 50 94 0 155-75 155-170l0-341c0-31 13-74 36-97 49-50 104-93 157-139l-425-584 z" fill="#EEBFAA"/>
		<path d="M1953-287c19 0 28 15 28 32l0 940c0 21-8 39-24 53-16 13-58 49-76 49-5 0-9-1-12-3-25-19-52-61-77-90l-152-181c-80-95-161-187-237-283-9-11-18-22-18-37 0-7 2-13 5-17 20-27 66-59 99-86l346-292c27-23 54-48 82-69 11-8 21-16 36-16 z M787-287c7 0 14 2 20 5 35 21 69 55 98 80l346 292c29 24 59 47 86 72 11 9 18 17 18 31 0 15-9 26-18 37-38 48-77 95-116 142-139 163-127 149-265 313-25 30-48 63-75 90-7 7-11 12-22 12-5 0-10-2-17-6-50-28-83-58-83-96l0-940c0-17 9-32 28-32 z" fill="#803BFF"/>
	</g></svg>
