<svg version="1.1" xmlns="http://www.w3.org/2000/svg" viewBox="0 0 2300 2300"><g transform="scale(1,-1) translate(-256, -1869)">
		<path d="M1504-285l535 296 338 1-202 474c-40 93-130 156-235 156l-1092 0c-102 0-194-60-235-156l-197-474 339 0 535-297 214 0 z" fill="#FF6723"/>
		<path d="M2168-285c117 0 227 87 227 214 0 122-105 214-227 214-28 0-53-6-80-14l-333-100c-83-24-144-84-144-173 0-56 238-110 285-141l272 0 z M898-285c48 32 285 86 285 141 0 92-63 149-145 173l-332 100c-27 8-52 14-80 14-117 0-227-87-227-214 0-122 104-214 226-214l273 0 z" fill="#FF8101"/>
		<path d="M1780 1427c13 0 154 49 177 57 13 5 19 13 19 26 0 7-3 13-8 18l-113 113c-5 5-11 8-18 8-13 0-21-6-26-19-8-22-57-166-57-177 0-14 11-26 26-26 z M1015 1426c15 0 25 11 25 26 0 13-49 155-57 178-5 13-13 19-26 19-7 0-14-3-19-8l-112-113c-5-5-8-12-8-19 0-12 6-20 18-25 23-8 163-58 179-58 z M1397 1498c11 0 19 5 24 15 10 23 83 152 83 172 0 14-12 27-27 27l-160 0c-14 0-27-12-27-27 0-13 40-90 65-137 22-43 24-50 42-50 z" fill="#46A4FB"/>
		<path d="M1842 446c78 0 143 63 143 142 0 80-62 143-143 143-77 0-142-63-142-143 0-76 60-142 142-142 z M951 446c78 0 143 63 143 142 0 80-62 143-143 143-80 0-142-64-142-143 0-76 60-142 142-142 z" fill="#BB806E"/>
		<path d="M1399 0c118 0 233 27 321 108 46 43 99 125 105 199l42 518c1 17 3 33 3 50 0 199-162 372-372 372l-201 0c-210 0-371-167-371-376 0-16 1-31 2-46l41-518c3-32 21-74 36-104 77-143 223-203 394-203 z" fill="#C68D7B"/>
		<path d="M1715 334l-203 0c-10 0-21 9-21 21 0 58 70 107 124 107 55 0 125-48 125-103 0-13-11-25-25-25 z M1282 334c10 0 21 9 21 21 0 58-70 107-124 107-55 0-125-48-125-104 0-13 11-24 25-24l203 0 z" fill="#FFFFFF"/>
		<path d="M1710 521c7 0 13 3 18 8 5 5 7 10 7 17 0 11-6 20-19 28-13 8-28 15-45 20-17 5-34 9-51 12-17 3-28 4-35 4l-16 0-17-3c-5-1-10-4-13-8-4-4-6-9-6-16 0-8 2-14 5-17 3-3 8-5 13-6l12-1 21 0c16 0 31-2 45-6 14-4 27-8 38-13 11-5 20-9 27-13 7-4 13-6 16-6 z M1084 521c13 0 62 38 126 38l26-1c14 0 25 10 25 25 0 7-2 12-5 16-12 11-33 11-47 11-28 0-151-21-151-63 0-15 12-26 26-26 z" fill="#593B39"/>
		<path d="M1675 334l-157 0c-2 7-3 14-3 21 0 44 34 82 81 82 44 0 82-35 82-82 0-6-2-14-3-21 z M1276 334c1 3 2 7 2 11 0 52-27 92-81 92-47 0-81-38-81-82 0-7 1-14 3-21l157 0 z" fill="#7D4533"/>
		<path d="M1637 334l-83 0c-3 7-5 15-5 21 0 26 20 47 47 47 27 0 46-22 46-47 0-6-2-13-5-21 z M1239 334c3 8 5 15 5 21 0 26-20 47-47 47-27 0-46-22-46-47 0-6 2-13 5-21l83 0 z" fill="#000000"/>
		<path d="M1432 147c26 0 48 20 48 48 0 27-39 138-49 167-5 15-20 25-34 25-17 0-29-8-34-25-11-32-49-142-49-167 0-26 20-48 48-48l70 0 z" fill="#AB6A55"/>
		<path d="M1896-285l0 126c0 63-47 124-117 124-17 0-34-4-50-11l-264-126c-18-9-33-31-33-53 0-30 22-60 55-60l409 0 z M1306-285c33 0 55 30 55 60 0 21-11 43-32 53l-265 126c-16 7-32 11-49 11-71 0-117-62-117-124l0-126 408 0 z" fill="#C68D7B"/>
		<path d="M948 535l-3 31c0 176 134 251 294 251l122 0c25 0 42-19 51-38 36-78 111-131 202-131l150 0c42 0 87-13 87-59l-1-53c55 0 70 38 71 81l0 134c0 74 64 104 64 200 0 89-55 170-144 204-57 19-95 50-124 97-41 63-103 103-182 103-53 0-91-28-139-28-47 0-83 28-137 28-78 0-141-39-180-100-31-49-68-78-126-100-83-31-144-104-144-203 0-96 62-130 62-202l0-141c0-43 38-74 77-74 z" fill="#593B39"/>
		<path d="M1571 373c7 0 14 7 14 14 0 8-6 15-14 15-8 0-14-7-14-15 0-7 7-14 14-14 z M1169 373c7 0 15 6 15 14 0 8-7 15-15 15-8 0-14-7-14-15 0-7 7-14 14-14 z" fill="#FFFFFF"/>
	</g></svg>
