<svg version="1.1" xmlns="http://www.w3.org/2000/svg" viewBox="0 0 2300 2300"><g transform="scale(1,-1) translate(-256, -1869)">
		<path d="M1861-285c109 0 213 82 213 203l0 252c0 355-311 615-659 615-344 0-660-255-660-615l0-252c0-117 100-203 213-203l893 0 z" fill="#3BC6F6"/>
		<path d="M2074 71l-249 0 0 571 12 0c146-114 237-284 237-472l0-99 z M1005 71l0 571-13 0c-146-114-237-284-237-472l0-99 250 0 z" fill="#00A6ED"/>
		<path d="M1865-285c27 0 54 5 79 15 25 9 48 23 67 41 19 17 35 38 46 62 11 24 17 50 17 79l0 174-173 0c-17 0-32 0-43-1l-16-1-28 2c-21 3-39 5-56 8l-99 18-56 11-421 73c-11 2-22 4-33 5-11 1-23 2-34 2-20 0-40-3-60-8-21-6-39-15-56-26-17-11-32-25-45-41-13-17-22-35-27-56l849-334 43-16c13-5 29-7 46-7 z" fill="#452829"/>
		<path d="M965-284c17 0 32 2 45 7l43 16 845 340c-5 20-13 37-25 52-13 15-27 27-44 37-17 9-35 16-54 21-19 5-38 7-57 7-12 0-24-1-36-2-12-1-24-3-35-5l-477-90-49-10-49-9-57-9-27-2-16 1c-12 1-27 1-44 1l-173 0 0-158c0-29 6-55 18-79 11-24 27-45 46-62 19-18 42-32 67-41 25-10 52-15 79-15 z" fill="#573739"/>
		<path d="M1848 1073c-10 29-28 81-28 109l40 216c1 8 2 15 2 23 0 88-56 115-111 143-82 41-114 143-224 143-41 0-70-19-111-19-42 0-80 24-117 24-74 0-116-60-166-110-47-47-110-58-145-110-14-21-17-52-17-82 0-4 1-8 2-12l40-216c0-28-17-78-27-109l862 0 z" fill="#FFF9BA"/>
		<path d="M1415 499c86 0 160 70 160 157l0 185c0 85-70 157-160 157-88 0-161-70-161-157l0-185c0-88 74-157 161-157 z" fill="#452829"/>
		<path d="M1076 998c59 0 107 49 107 107 0 68-56 107-118 107-4 0-8-1-12-2l4-66c-28 1-44 22-45 47-26-20-43-51-43-86 0-59 49-107 107-107 z M1753 998c59 0 107 49 107 107 0 33-13 61-38 83-10-25-15-43-45-44l4 65c-9 2-19 3-28 3-59 0-107-49-107-107 0-59 49-107 107-107 z" fill="#452829"/>
		<path d="M1529 642c117 0 223 90 231 210l21 292-4 0c3 35 6 71 6 106 0 56-63 56-63 122l0 61c0 19-12 29-29 36-75 25-202 31-274 31-56 0-141-4-213-16-52-9-90-17-90-51l0-61c0-70-63-63-63-127 0-33 3-68 6-101l-9 1 21-293c8-121 115-210 231-210l229 0 z" fill="#573739"/>
		<path d="M1465 820c-7 22-28 36-50 36-23 0-43-15-51-36l101 0 z" fill="#452829"/>
		<path d="M1486 874c11 0 17 8 17 17 0 27-68 36-88 36-25 0-44-5-68-13-6-2-11-8-14-8-5-3-7-8-7-15 0-9 7-17 18-17 8 0 39 18 71 18 22 0 36-6 58-13 4-4 6-5 13-5 z" fill="#990839"/>
		<path d="M1445 963c18 0 38 14 38 35 0 14-17 60-30 98-15 41-19 45-37 45-13 0-21-6-26-19-8-24-39-104-39-124 0-22 20-35 39-35l55 0 z" fill="#3D2123"/>
		<path d="M1663 1105c12 0 16 7 16 18 0 51-61 89-105 89-45 0-106-40-106-89 0-11 6-18 17-18l178 0 z M1343 1105c11 0 17 7 17 18 0 49-61 89-106 89-45 0-105-39-105-89 0-11 4-18 16-18l178 0 z" fill="#FFFFFF"/>
		<path d="M1623 1105c3 9 6 18 6 27 0 36-29 63-63 63-36 0-62-29-62-63 0-10 2-19 6-27l113 0 z M1320 1105c3 9 6 18 6 27 0 36-29 63-63 63-36 0-62-29-62-63 0-10 2-19 6-27l113 0 z" fill="#7D4533"/>
		<path d="M1589 1105c9 7 13 17 13 28 0 18-17 35-36 35-19 0-36-17-36-35 0-11 4-21 13-28l46 0 z M1286 1105c9 7 13 17 13 28 0 18-17 35-36 35-19 0-36-17-36-35 0-11 4-21 13-28l46 0 z" fill="#000000"/>
		<path d="M1543 1148c7 0 14 7 14 14 0 8-6 15-14 15-8 0-14-7-14-15 0-7 7-14 14-14 z M1240 1148c7 0 14 7 14 14 0 8-6 15-14 15-8 0-14-7-14-15 0-7 7-14 14-14 z" fill="#FFFFFF"/>
		<path d="M1646 1248c19 0 36 15 36 36 0 18-17 35-36 35l-142 0c-19 0-36-17-36-35 0-19 15-36 36-36l142 0 z M1326 1248c18 0 35 17 35 36 0 18-16 35-35 35l-143 0c-19 0-36-17-36-35 0-19 15-36 36-36l143 0 z" fill="#000000"/>
	</g></svg>
