<svg version="1.1" xmlns="http://www.w3.org/2000/svg" viewBox="0 0 2300 2300"><g transform="scale(1,-1) translate(-256, -1869)">
		<path d="M2268-72c81 0 144 67 144 144l0 295-671 48c-135 8-209 24-335 24-133 0-221-17-335-24l-671-48 0-295c0-80 64-144 143-144l1725 0 z" fill="#00F397"/>
		<path d="M1945-287c138 0 252 110 252 251 0 139-113 252-252 252-139 0-252-113-252-252 0-138 111-251 252-251 z M867-287c138 0 251 108 251 251 0 138-110 252-251 252-139 0-252-113-252-252 0-138 111-251 252-251 z" fill="#212121"/>
		<path d="M1945-144c58 0 108 49 108 108 0 57-46 108-108 108-61 0-108-48-108-108 0-58 49-108 108-108 z M867-144c58 0 108 49 108 108 0 58-49 108-108 108-61 0-108-48-108-108 0-58 49-108 108-108 z" fill="#FFFFFF"/>
		<path d="M2412 144l0 144-72 0c-39 0-72-34-72-72 0-38 33-72 72-72l72 0 z" fill="#F8312F"/>
		<path d="M400 72c39 0 72 34 72 72l0 72c0 38-33 72-72 72l0-216 z" fill="#FFB02E"/>
		<path d="M2412 360l0 503c0 30-6 58-17 84-11 26-27 49-46 68-19 19-42 35-68 46-26 11-54 17-84 17l-504 0 0 72c0 19-7 36-21 51-14 14-31 21-50 21l-128 0c9 18 20 36 34 53 13 17 29 33 47 47 17 13 36 24 56 32 20 8 41 12 62 12 20 0 37 7 51 21 14 14 21 31 21 51 0 19-7 36-21 51-15 14-32 21-51 21-40 0-79-8-117-23-38-16-73-37-104-63-32-27-59-57-82-92-23-35-38-72-47-110-14 0-30 0-48 1l-9 0c-15 0-29-2-41-4-15-4-28-11-39-21-11-11-16-27-16-48l0-72-575 0c-30 0-58-6-84-17-26-11-49-27-68-46-19-19-35-42-46-68-11-26-17-54-17-84l0-503 2012 0 z" fill="#BEBEBE"/>
		<path d="M2412 360l0 143-2012 0 0-143 2012 0 z" fill="#5092FF"/>
		<path d="M681 575c43 0 80 34 80 79l0 201c0 43-38 79-80 79l-269 0c-8-23-12-47-12-71l0-288 281 0 z M2197 575c40 0 71 34 71 72l0 216c0 38-31 72-71 72l-216 0c-38 0-72-33-72-72l0-216c0-39 31-72 72-72l216 0 z M1693 575c39 0 72 31 72 72l0 216c0 39-34 72-72 72l-215 0c-38 0-72-33-72-72l0-216c0-39 31-72 72-72l215 0 z M1190 575c39 0 72 31 72 72l0 216c0 39-34 72-72 72l-215 0c-38 0-72-33-72-72l0-216c0-39 31-72 72-72l215 0 z" fill="#00A6ED"/>
	</g></svg>
