<svg version="1.1" xmlns="http://www.w3.org/2000/svg" viewBox="0 0 2300 2300"><g transform="scale(1,-1) translate(-256, -1869)">
		<path d="M2267-287l0 431 144 0 0 216-2011 0 0-216 143 0 0-431 216 0 0 431 288 0 0-431 215 0 0 431 287 0 0-431 215 0 0 431 287 0 0-431 216 0 z" fill="#D3D3D3"/>
		<path d="M2411 216l0 144-1508 0 100-102c26-26 64-42 103-42l1305 0 z" fill="#3F5FFF"/>
		<path d="M2411 360l0 934-932 0c-49 0-95-12-138-37l-674-394c-78-45-124-143-124-230 0-153 125-273 274-273l1594 0 z" fill="#E6E6E6"/>
		<path d="M2411 360l0 143-1833 0c48-88 139-143 239-143l1594 0 z" fill="#46A4FB"/>
		<path d="M2411 503l0 72-1861 0c7-25 16-49 28-72l1833 0 z" fill="#26EAFC"/>
		<path d="M1190 647c40 0 71 34 71 72 0 38-31 72-71 72l-144 0c-38 0-72-33-72-72 0-39 31-72 72-72l144 0 z" fill="#FF6723"/>
		<path d="M2411 863l-507 0c-37 0-68 29-68 68l0 222c0 37 29 68 68 68l507 0 0-358 z M1553 863c37 0 69 28 69 68l0 222c0 37-31 69-69 69l-271 0-614-359 885 0 z" fill="#26C9FC"/>
	</g></svg>
