<svg version="1.1" xmlns="http://www.w3.org/2000/svg" viewBox="0 0 2300 2300"><g transform="scale(1,-1) translate(-256, -1869)">
		<path d="M2412-215l0 143-2012 0 0-143 2012 0 z" fill="#9B9B9B"/>
		<path d="M2125-72c80 0 143 62 143 143 0 80-64 144-143 144-79 0-144-63-144-144 0-80 65-143 144-143 z M1729-72c-80 0-144 64-144 143 0 79 63 144 144 144 80 0 143-65 143-144 0-80-62-143-143-143 z M1083-72c80 0 144 64 144 143 0 81-67 144-144 144-81 0-144-67-144-144 0-80 65-143 144-143 z M687-72c80 0 144 64 144 143 0 81-67 144-144 144-81 0-144-67-144-144 0-80 65-143 144-143 z" fill="#212121"/>
		<path d="M2089 35c19 0 36 15 36 36 0 19-15 36-36 36l-360 0c-19 0-36-15-36-36 0-19 15-36 36-36l360 0 z M1047 35c19 0 36 15 36 36 0 19-15 36-36 36l-359 0c-19 0-36-15-36-36 0-19 15-36 36-36l359 0 z" fill="#9B9B9B"/>
		<path d="M2329 72c46 0 83 35 83 83l0 348-2012 0 0-356c0-42 44-75 82-75l1847 0 z" fill="#F92F60"/>
		<path d="M2412 503l0 73-179 250 179 253 0 143c0 42-33 72-72 72l-1867 0c-47 0-72-25-72-72l0-143 179-253-180-251 0-72 2012 0 z" fill="#D3D3D3"/>
		<path d="M2412 575l0 503-280 0c-45 0-79-36-79-79l0-345c0-45 36-79 79-79l280 0 z M1830 647l-273 0c-42 0-79 34-79 78l0 275c0 44 37 78 79 78l273 0c42 0 79-34 79-78l0-275c0-44-37-78-79-78 z M1255 647c42 0 79 34 79 78l0 275c0 44-37 78-79 78l-273 0c-42 0-79-34-79-78l0-275c0-44 37-78 79-78l273 0 z M680 575c43 0 79 34 79 79l0 345c0 44-37 79-79 79l-280 0 0-503 280 0 z" fill="#00A6ED"/>
		<path d="M472 288c41 0 71 33 71 72 0 39-33 71-71 71l-72 0 0-143 72 0 z" fill="#FFB02E"/>
		<path d="M2340 1581c39 0 72 34 72 72 0 39-31 72-72 72l-1868 0c-39 0-72-31-72-72 0-39 31-72 72-72l1868 0 z" fill="#BEBEBE"/>
		<path d="M1406 1366c20 0 37 7 52 22l69 69c15 15 22 32 22 52 0 21-7 38-22 53l-69 69c-15 15-32 22-52 22-20 0-37-7-52-22l-69-69c-15-15-22-32-22-53 0-20 7-37 22-52l69-69c15-15 32-22 52-22 z M1407 1439l-2 0-70 69 0 3 70 69 2 0 70-69 0-3-70-69 z" fill="#636363"/>
		<path d="M2125 1294l0 59c0 46-37 85-86 85l-1267 0c-47 0-85-38-85-85l0-59 1438 0 z" fill="#9B9B9B"/>
	</g></svg>
