<svg version="1.1" xmlns="http://www.w3.org/2000/svg" viewBox="0 0 2300 2300"><g transform="scale(1,-1) translate(-256, -1869)">
		<path d="M2029-287c27 0 49 9 68 28 19 18 28 40 28 67 0 32-9 61-28 88l-217 311-29-3-31-4c-10-1-20-3-29-6-9-3-18-8-26-14-18-13-31-30-39-49-8-19-16-39-23-59 15 0 28 0 39 1l10 0 21-1c9-2 17-6 25-11 8-6 17-15 26-28l12-16 10-17-882 0c5 6 9 12 13 19 3 6 7 12 11 18 7 10 15 18 25 23 9 5 19 8 30 10 11 1 22 2 33 2l33 0c0 23-6 44-17 61-12 17-27 33-45 47-17 13-36 21-55 24-19 2-39 3-60 3l-217-311c-19-27-28-56-28-88 0-13 3-26 8-37 5-11 11-21 20-30 9-9 19-15 30-20 11-5 24-8 37-8l1247 0 z M1981-144l-1150 0c24 35 44 72 89 72l972 0c48 0 66-38 89-72 z" fill="#212121"/>
		<path d="M1406 0c355 0 647 288 647 647l0 72-1294 0 0-72c0-355 288-647 647-647 z" fill="#3F5FFF"/>
		<path d="M1406 144c264 0 512 163 608 425 16 43 35 102 35 150 0 76-94 98-140 144 36 137 132 257 132 399l-1 8c-53 263-294 455-562 455l-144 0c-133 0-259-45-363-129-107-87-207-244-207-392 0-85 35-153 67-233-33-80-69-146-69-238l1-14c40-329 311-575 643-575 z" fill="#9B9B9B"/>
		<path d="M2053 719l0 431c0 40-4 80-13 119l-203-406 0-36c0-63 50-108 108-108l108 0 z M867 719c58 0 108 49 108 108l0 36-204 406c-8-39-12-79-12-119l0-431 108 0 z" fill="#5092FF"/>
		<path d="M1729 431c58 0 108 49 108 108 0 57-46 108-108 108-59 0-107-48-107-108 0-58 47-108 107-108 z M1083 431c59 0 107 49 107 108 0 60-49 108-107 108-61 0-108-48-108-108 0-58 49-108 108-108 z" fill="#FFB02E"/>
		<path d="M1514 503c19 0 36 15 36 36 0 19-15 36-36 36l-216 0c-19 0-36-15-36-36 0-19 15-36 36-36l216 0 z" fill="#212121"/>
		<path d="M1406 719c169 0 314 113 357 279l57 226c6 23 9 46 9 70 0 160-131 287-288 287l-270 0c-153 0-288-123-288-287 0-24 3-47 9-70l57-226c43-168 190-279 357-279 z" fill="#26C9FC"/>
	</g></svg>
