<svg version="1.1" xmlns="http://www.w3.org/2000/svg" viewBox="0 0 2300 2300"><g transform="scale(1,-1) translate(-256, -1869)">
		<path d="M831-239l-72 0 0 407 72 0 0-407 z M1658-231l51 52-396 395-51-51 396-396 z M1190 1150l0 72 647 0c39 0 72 31 72 72 0 38-33 72-72 72l-647 0 0 72-72 0 0-72-575 0c-40 0-71-34-71-72 0-38 31-72 71-72l575 0 0-72 72 0 z" fill="#B4ACBC"/>
		<path d="M1550 503l359 360 324 0c58 0 107 47 107 108l0 327c0 37-29 68-67 68-19 0-35-7-48-20l-268-268-946 0c-60 0-108-49-108-107 0-63 50-108 108-108l539 0 0-360 z" fill="#FFB02E"/>
		<path d="M1190 1438l0 36c0 19-15 36-36 36-19 0-36-15-36-36l0-36 72 0 z" fill="#F8312F"/>
		<path d="M1909-287c39 0 72 31 72 72 0 40-34 71-72 71l-1437 0c-38 0-72-31-72-71 0-39 31-72 72-72l1437 0 z" fill="#FF822D"/>
		<path d="M1262 1006l0 102c0 22-19 42-42 42l-131 0c-22 0-42-19-42-42l0-102 215 0 z" fill="#FCD53F"/>
		<path d="M1188 72c280 0 505 223 505 503 0 23-1 45-4 68l220 220 324 0c59 0 107 49 107 108l0 327c0 37-29 68-67 68-19 0-35-7-48-20l-268-268-1057 0c-48 0-95-7-141-21l-29-345-330-209c35-250 254-431 500-431l288 0 z" fill="#FF822D"/>
		<path d="M2197 935c39 0 71 33 71 71 0 38-31 72-71 72-39 0-72-31-72-72 0-40 34-71 72-71 z" fill="#E6E6E6"/>
		<path d="M1202 646c33 0 60 23 60 59l0 241c0 33-25 60-59 60l-157 0c-33 0-60-26-60-60 0-10 3-21 10-32l156-241c11-17 30-27 50-27 z M1008 503c35 0 60 29 60 60 0 11-3 22-10 33l-299 461c-213-64-359-258-359-482 0-24 1-48 5-72l603 0 z" fill="#00A6ED"/>
		<path d="M1542 216c43 41 78 89 103 144l-1202 0c27-53 60-103 103-144l996 0 z" fill="#FCD53F"/>
	</g></svg>
