<svg version="1.1" xmlns="http://www.w3.org/2000/svg" viewBox="0 0 2300 2300"><g transform="scale(1,-1) translate(-256, -1869)">
		<path d="M1406 288c133 0 210 30 335 48l671 95 0 724c0 74-60 139-139 139l-1734 0c-77 0-139-64-139-139l0-724 671-95c128-18 205-48 335-48 z" fill="#BEBEBE"/>
		<path d="M2202 504c33 0 67 24 67 62l0 522c0 38-34 62-67 62l-298 0c-33 0-67-24-67-62l0-522c0-38 34-62 67-62l298 0 z M1699 504c33 0 67 24 67 62l0 522c0 38-34 62-67 62l-298 0c-33 0-67-24-67-62l0-522c0-38 34-62 67-62l298 0 z M1196 504c33 0 67 24 67 62l0 522c0 38-34 62-67 62l-298 0c-33 0-67-24-67-62l0-522c0-38 34-62 67-62l298 0 z M620 503c33 0 67 24 67 62l0 523c0 38-34 62-67 62l-220 0 0-647 220 0 z" fill="#00A6ED"/>
		<path d="M2273-72c77 0 139 62 139 140l0 363-2012 0 0-363c0-78 62-140 139-140l1734 0 z" fill="#FFB02E"/>
		<path d="M1946-287c-138 0-252 110-252 251 0 139 113 252 252 252 138 0 251-111 251-252 0-138-108-251-251-251 z M869-287c138 0 252 110 252 251 0 139-113 252-252 252-139 0-252-113-252-252 0-138 111-251 252-251 z M725 647c18 0 34 16 34 35l0 218c0 19-16 35-34 35l-28 0c-44 0-82-35-82-82l0-125c0-47 38-81 82-81l28 0 z M687 1006l0 82c0 38-34 62-67 62l-220 0 0-144 287 0 z" fill="#212121"/>
		<path d="M2412 144l0 216-36 0c-63 0-108-51-108-113 0-60 60-103 112-103l32 0 z" fill="#F92F60"/>
		<path d="M465 72c42 0 78 34 78 78l0 131c0 42-34 79-78 79l-65 0 0-288 65 0 z" fill="#FFF478"/>
		<path d="M1945-144c58 0 108 49 108 108 0 57-46 108-108 108-61 0-108-48-108-108 0-58 49-108 108-108 z M867-144c58 0 108 49 108 108 0 58-49 108-108 108-61 0-108-48-108-108 0-58 49-108 108-108 z" fill="#D3D3D3"/>
	</g></svg>
