<svg version="1.1" xmlns="http://www.w3.org/2000/svg" viewBox="0 0 2300 2300"><g transform="scale(1,-1) translate(-256, -1869)">
		<path d="M1930-216c40 0 82 14 82 62 0 19-7 37-18 53-70 117-150 221-224 336l-732 0c-47-71-96-140-145-209-31-43-63-84-90-131-9-16-20-31-20-51 0-43 39-60 77-60l1070 0 z M1866-124l-935 0c24 35 52 72 97 72l758 0c43 0 62-41 80-72 z M1770 19l-746 0c21 34 38 73 86 73l576 0c44 0 68-37 84-73 z" fill="#321B41"/>
		<path d="M1693 1438l0 143 144 0c39 0 72 31 72 72 0 39-31 72-72 72l-862 0c-39 0-72-31-72-72 0-38 33-72 72-72l143 0 0-143 144 0 0 143 288 0 0-143 143 0 z" fill="#BEBEBE"/>
		<path d="M1744 143c167 0 309 130 309 304l0 343-1294 0 0-343c0-170 138-304 308-304l677 0 z" fill="#F92F60"/>
		<path d="M1837 360c39 0 72 30 72 71 0 39-31 72-72 72l-144 0c-40 0-71-34-71-72 0-39 33-71 71-71l144 0 z M1118 360c39 0 72 30 72 71 0 39-31 72-72 72l-143 0c-39 0-72-31-72-72 0-40 34-71 72-71l143 0 z" fill="#FFB02E"/>
		<path d="M1513 431l-216 0c-19 0-36 15-36 36 0 19 16 36 36 36l216 0c20 0 36-15 36-36 0-19-15-36-36-36 z M1835 575c120 0 217 97 217 217l0 577c0 76-70 141-148 141l-1000 0c-78 0-142-62-145-136-1-16-1-32-1-48 1-17 1-33 1-49l-1-485c0-120 97-217 216-217l861 0 z" fill="#D3D3D3"/>
		<path d="M1514 431c19 0 36 15 36 36 0 19-15 36-36 36l-216 0c-19 0-36-15-36-36 0-19 15-36 36-36l216 0 z" fill="#E6E6E6"/>
		<path d="M1824 719c47 0 85 38 85 85l0 476c0 49-38 86-85 86l-836 0c-46 0-85-37-85-86l0-476c0-47 38-85 85-85l836 0 z" fill="#00A6ED"/>
		<path d="M1909 1150l0 156c0 32-25 60-59 60l-888 0c-34 0-59-27-59-60l0-156 1006 0 z" fill="#636363"/>
	</g></svg>
