<svg version="1.1" xmlns="http://www.w3.org/2000/svg" viewBox="0 0 2300 2300"><g transform="scale(1,-1) translate(-256, -1869)">
		<path d="M1406-287c547 0 1006 440 1006 1006 0 547-440 1006-1006 1006-547 0-1006-440-1006-1006 0-547 440-1006 1006-1006 z" fill="#321B41"/>
		<path d="M1981 719l0 662c0 72-59 129-130 129l-889 0c-72 0-130-58-130-129l0-662 1149 0 z" fill="#FFFFFF"/>
		<path d="M1938-92c40 0 82 14 82 62 0 20-7 38-18 54-49 80-104 157-155 237l-881 0c-52-80-107-158-155-242-9-16-20-31-20-51 0-43 41-60 78-60l1069 0 z M1874 0l-935 0c24 35 52 72 97 72l758 0c43 0 62-41 80-72 z M1778 143l-746 0c21 34 38 73 86 73l576 0c44 0 68-37 84-73 z" fill="#D3D3D3"/>
		<path d="M1706 216c149 0 274 117 274 270l0 233-1149 0 0-233c0-149 124-270 274-270l601 0 z" fill="#F92F60"/>
		<path d="M1765 431c39 0 72 31 72 72 0 39-31 72-72 72l-143 0c-39 0-72-31-72-72 0-39 34-72 72-72l143 0 z M1190 431c39 0 72 31 72 72 0 39-31 72-72 72l-143 0c-39 0-72-31-72-72 0-39 34-72 72-72l143 0 z" fill="#FCD53F"/>
		<path d="M1697 647c76 0 141 62 141 141l0 366c0 76-62 141-141 141l-581 0c-76 0-141-62-141-141l0-366c0-76 60-141 141-141l581 0 z M1658 1366c19 0 35 15 35 36 0 21-16 36-35 36l-504 0c-19 0-36-15-36-36 0-19 15-36 36-36l504 0 z" fill="#636363"/>
		<path d="M1660 719c60 0 106 51 106 106l0 292c0 60-51 106-106 106l-508 0c-58 0-105-48-105-106l0-292c0-59 47-106 105-106l508 0 z" fill="#00D1ED"/>
	</g></svg>
