<svg version="1.1" xmlns="http://www.w3.org/2000/svg" viewBox="0 0 2300 2300"><g transform="scale(1,-1) translate(-256, -1869)">
		<path d="M2268-72c81 0 144 67 144 144l0 863c0 80-65 143-144 143l-1365 0c-44 0-87-20-115-57l-331-441c-36-48-57-109-57-173l0-335c0-80 64-144 143-144l1725 0 z" fill="#D3D3D3"/>
		<path d="M1945-287c138 0 252 110 252 251 0 139-113 252-252 252-139 0-252-113-252-252 0-138 111-251 252-251 z M867-287c138 0 251 108 251 251 0 138-110 252-251 252-139 0-252-113-252-252 0-138 111-251 252-251 z" fill="#212121"/>
		<path d="M1945-144c58 0 108 49 108 108 0 57-46 108-108 108-61 0-108-48-108-108 0-58 49-108 108-108 z M867-144c58 0 108 49 108 108 0 58-49 108-108 108-61 0-108-48-108-108 0-58 49-108 108-108 z" fill="#FFFFFF"/>
		<path d="M2412 360l0 143-1996 0c-11-30-16-62-16-96l0-47 2012 0 z" fill="#8D65C5"/>
		<path d="M2412 144l0 144-72 0c-39 0-72-34-72-72 0-38 33-72 72-72l72 0 z" fill="#F92F60"/>
		<path d="M400 72c39 0 72 34 72 72l0 72c0 38-33 72-72 72l0-216 z" fill="#FFB02E"/>
		<path d="M1334 575c39 0 72 31 72 72l0 216c0 39-34 72-72 72l-216 0c-40 0-71-34-71-72l0-216c0-38 31-72 71-72l216 0 z M2415 575l-2 360-791 0c-38 0-72-33-72-72l0-216c0-39 31-72 72-72l793 0 z M831 575c39 0 72 31 72 72l0 216c0 38-33 72-72 72l-108 0c-31-39-261-341-269-360l377 0 z" fill="#00A6ED"/>
	</g></svg>
