<svg version="1.1" xmlns="http://www.w3.org/2000/svg" viewBox="0 0 2300 2300"><g transform="scale(1,-1) translate(-256, -1869)">
		<path d="M2412 144l0 1150c0 81-67 144-144 144l-934 0c-81 0-144-67-144-144l0-1150 1222 0 z" fill="#D3D3D3"/>
		<path d="M1118 144l0 862-459 0c-26 0-53-14-65-39l-172-346c-19-39-22-76-22-118l72-143-72-144 0-72 718 0 z" fill="#00F397"/>
		<path d="M2340 0c39 0 72 31 72 72l0 72-2012 0 0-72c0-38 33-72 72-72l1868 0 z" fill="#9B9B9B"/>
		<path d="M975 575c38 0 72 33 72 72l0 216c0 38-33 72-72 72l-73 0c-40 0-71-34-71-72l0-216c0-38 31-72 71-72l73 0 z M687 575c38 0 72 33 72 72l0 216c0 42-36 72-73 72l-107 0-157-314c-7-15-13-30-17-46l282 0 z" fill="#00A6ED"/>
		<path d="M1118 1006l0 188c0 38-30 72-71 72-31 0-186-59-223-71-84-27-137-105-137-189l431 0 z" fill="#00D26A"/>
		<path d="M2227 360l-133 0c-23 0-41 19-41 41l0 852c0 22 18 41 41 41l133 0c22 0 41-18 41-41l0-852c0-22-18-41-41-41 z M1868 360c23 0 41 19 41 41l0 852c0 22-18 41-41 41l-134 0c-22 0-41-18-41-41l0-852c0-22 18-41 41-41l134 0 z M1509 360c23 0 41 19 41 41l0 852c0 22-18 41-41 41l-134 0c-22 0-41-18-41-41l0-852c0-22 18-41 41-41l134 0 z" fill="#F4F4F4"/>
		<path d="M759 863c0 36-30 72-70 72l-111 0-35-72 216 0 z" fill="#212121"/>
		<path d="M465 216c42 0 78 34 78 78l0 131c0 44-36 78-78 78l-65 0 0-287 65 0 z" fill="#FFF478"/>
		<path d="M2016-215c-133 0-243 103-251 238-8-132-115-238-251-238-138 0-252 110-252 251 0 139 113 252 252 252 133 0 243-103 251-238 8 133 115 238 251 238 139 0 252-113 252-252 0-138-111-251-252-251 z M795-215c138 0 252 110 252 251 0 139-113 252-252 252-139 0-252-113-252-252 0-138 111-251 252-251 z" fill="#321B41"/>
		<path d="M2017-72c-58 0-108 49-108 108 0 57 46 108 108 108 58 0 108-49 108-108 0-58-49-108-108-108 z M1514-72c-58 0-108 49-108 108 0 57 46 108 108 108 58 0 108-49 108-108 0-58-49-108-108-108 z M795-72c58 0 108 49 108 108 0 57-46 108-108 108-61 0-108-48-108-108 0-58 49-108 108-108 z" fill="#F4F4F4"/>
		<path d="M2412 144l0 216-36 0c-59 0-107-49-107-108 0-62 53-108 111-108l32 0 z" fill="#CA0B4A"/>
	</g></svg>
