<svg version="1.1" xmlns="http://www.w3.org/2000/svg" viewBox="0 0 2300 2300"><g transform="scale(1,-1) translate(-256, -1869)">
		<path d="M2412-287l0 934-896 832c-27 26-60 39-98 39-43 0-83-20-109-51l-892-1051c-11-13-17-29-17-47l0-656 2012 0 z" fill="#008463"/>
		<path d="M2412-287l0 1725-212 235c-27 31-67 47-106 47-43 0-85-19-111-52l-1064-1289c-11-13-16-28-16-45l0-621 1509 0 z" fill="#00D26A"/>
		<path d="M2412-287c-80 0-144 64-144 143l144 0 0-143 z M1693-287c80 0 144 64 144 143 0 81-67 144-144 144-80 0-143-65-143-144 0-80 62-143 143-143 z M1262-287c80 0 144 64 144 143 0 81-67 144-144 144-81 0-144-67-144-144 0-80 65-143 144-143 z" fill="#636363"/>
		<path d="M2412-144l0 360-144 359 144 360 0 143-1294 0c-40 0-71-34-71-72l0-71 143-360-143-359 0-288c0-38 31-72 71-72l1294 0 z" fill="#FFB02E"/>
		<path d="M1226 72c19 0 36 15 36 36 0 19-15 36-36 36l-72 0c-19 0-36-18-36-36 0-18 17-36 36-36l72 0 z" fill="#F9C23C"/>
		<path d="M2412 216l0 72-72 287 72 288 0 72-1365 0 0-72 71-288-71-287 0-72 1365 0 z" fill="#E6E6E6"/>
		<path d="M1226 72c19 0 36 15 36 36 0 19-15 36-36 36l-72 0c-19 0-36-18-36-36 0-18 17-36 36-36l72 0 z" fill="#FF6723"/>
		<path d="M2053 288c39 0 72 31 72 72l0 431c0 39-31 72-72 72l-144 0c-39 0-72-31-72-72l0-431c0-39 31-72 72-72l144 0 z M1622 288c40 0 71 34 71 72l0 431c0 38-31 72-71 72l-144 0c-39 0-72-31-72-72l0-431c0-39 31-72 72-72l144 0 z M2412 288l0 575-72 0c-39 0-72-34-72-72l0-431c0-38 33-72 72-72l72 0 z M1190 288c39 0 72 31 72 72l0 431c0 39-31 72-72 72l-143 0 0-575 143 0 z" fill="#26C9FC"/>
		<path d="M1622-215c38 0 71 32 71 71l-431 0c0-40 34-71 72-71l288 0 z" fill="#D3D3D3"/>
	</g></svg>
