<svg version="1.1" xmlns="http://www.w3.org/2000/svg" viewBox="0 0 2300 2300"><g transform="scale(1,-1) translate(-256, -1869)">
		<path d="M1285-72c0 282 20 522 20 804l0 62c-1 77-9 178-43 212l-289 0c-43 0-86-19-113-55l-400-514c-40-52-60-113-60-176l0-189c0-80 64-144 143-144l742 0 z" fill="#E6E6E6"/>
		<path d="M2412 353l0 797c0 29-8 56-25 82l-1061 0c-40-53-64-84-64-154l0-725 1150 0 z" fill="#F92F60"/>
		<path d="M2268-72c81 0 144 67 144 144l0 288-1150 0 0-432 1006 0 z M2393 1222c-27 46-73 72-125 72l-790 0c-63 0-120-28-161-72l1076 0 z" fill="#D3D3D3"/>
		<path d="M1945-287c138 0 252 110 252 251 0 139-113 252-252 252-139 0-252-113-252-252 0-138 111-251 252-251 z M867-287c138 0 251 108 251 251 0 138-110 252-251 252-139 0-252-113-252-252 0-138 111-251 252-251 z" fill="#433B6B"/>
		<path d="M1945-144c58 0 108 49 108 108 0 57-46 108-108 108-61 0-108-48-108-108 0-58 49-108 108-108 z M867-144c58 0 108 49 108 108 0 58-49 108-108 108-61 0-108-48-108-108 0-58 49-108 108-108 z" fill="#F4F4F4"/>
		<path d="M1837 575c21 0 36 5 46 15 10 9 17 21 21 36 4 15 6 30 6 47-1 17-1 32-1 46l55 0c13 0 26 2 38 5 15 4 27 11 37 21 9 10 14 25 14 46 0 21-5 36-14 46-10 10-22 17-37 21-15 4-30 6-47 6-17-1-32-1-46-1 0 14 0 29 1 46 0 17-2 32-6 47-4 14-11 26-21 36-10 9-25 14-46 14-21 0-36-5-46-14-10-10-17-22-21-36-3-12-5-25-5-38l0-55c-14 0-29 0-46 1-17 0-32-2-46-6-15-4-27-11-36-21-10-10-15-25-15-46 0-21 5-36 15-46 9-10 21-17 36-21 12-3 24-5 37-5l55 0 0-55c0-13 2-26 5-38 4-15 11-27 21-36 10-10 25-15 46-15 z" fill="#F4F4F4"/>
		<path d="M2412 72l-36 0c-58 0-108 49-108 108 0 58 49 108 108 108l36 0 0-216 z M472 72c40 0 71 34 71 72l0 144c0 38-31 72-71 72l-55 0c-11-33-17-66-17-99l0-189 72 0 z" fill="#FF822D"/>
		<path d="M1047 575c80 0 143 65 143 144l0 144c0 39-34 72-72 72l-271 0-280-360 480 0 z" fill="#26C9FC"/>
		<path d="M1262 1006c0 39-31 72-72 72l-143 0c-39 0-72-31-72-72l287 0 z" fill="#D3D3D3"/>
		<path d="M1190 1078c0 39-31 72-72 72-40 0-71-34-71-72l143 0 z" fill="#F8312F"/>
	</g></svg>
