<svg version="1.1" xmlns="http://www.w3.org/2000/svg" viewBox="0 0 2300 2300"><g transform="scale(1,-1) translate(-256, -1869)">
		<path d="M2071-72c27 0 53 5 77 16 24 10 45 24 63 42 17 18 31 39 42 63 10 24 15 50 15 77l0 418c0 21-3 42-10 61-7 19-17 36-30 51-13 15-28 28-45 39-18 10-37 17-58 21l0 3-503 108-383-72c-19-3-36-7-51-10-15-4-30-7-44-10l-45-9c-16-3-33-5-52-7-14-1-27-2-38-2l-17-1-17 1c-11 0-23 0-34 1-11 1-24 1-38 1l-288 0c-27 0-54-6-79-19-26-13-49-29-69-49-20-21-36-44-48-70-13-27-19-53-19-80l0-429c0-20 4-39 11-56 7-17 18-32 31-45 13-13 28-24 45-31 17-8 36-12 56-12l1528 0 z M1754 1151l371 71 0 72c0 20-7 37-21 51-14 14-31 21-51 21l-719 0c-20 0-37-7-51-21-14-14-21-31-21-51 0-20 7-37 21-51 14-14 31-21 51-21 7 0 16 0 25 1l8 0 16-1 371-71 z" fill="#00F397"/>
		<path d="M975 647l0 252c0 19-15 36-36 36-19 0-36-15-36-36l0-252 72 0 z" fill="#D3D3D3"/>
		<path d="M975 791l0 72-72 0 0-72 72 0 z" fill="#9B9B9B"/>
		<path d="M796-288c139 0 252 113 252 252 0 135-111 251-252 251-140 0-251-116-251-251 0-140 115-252 251-252 z M2017-288c216 0 395 173 395 395 0 218-175 396-395 396-211 0-395-169-395-396 0-216 173-395 395-395 z" fill="#321B41"/>
		<path d="M795-144c58 0 108 49 108 108 0 57-46 108-108 108-61 0-108-48-108-108 0-58 49-108 108-108 z M2017-72c98 0 180 78 180 180 0 98-78 180-180 180-98 0-180-78-180-180 0-98 78-180 180-180 z" fill="#D3D3D3"/>
		<path d="M2053 719l0 503-670 0-336-503 1006 0 z" fill="#26C9FC"/>
		<path d="M1155-1c18 0 36 17 36 36 0 179-145 324-323 324l-179 0c-19 0-36-15-36-36 0-19 15-36 36-36l179 0c138 0 251-111 251-252 0-19 18-36 36-36 z M1514 108c19 0 36 15 36 36 0 236 189 431 430 431l397 0c19 0 36 15 36 36 0 19-15 36-36 36l-397 0c-268 0-502-215-502-503 0-19 15-36 36-36 z M2125 719l0 503-72 0 0-503 72 0 z M1550 719l0 503-72 0 0-503 72 0 z" fill="#008463"/>
		<path d="M508 144l-108 0 0 72 108 0c19 0 35-15 35-36 0-21-16-36-35-36 z M508 288c19 0 35 15 35 36 0 21-16 36-35 36l-108 0 0-72 108 0 z M508 431c19 0 35 15 35 36 0 21-16 36-35 36l-108 0 0-72 108 0 z" fill="#321B41"/>
	</g></svg>
