<svg version="1.1" xmlns="http://www.w3.org/2000/svg" viewBox="0 0 2300 2300"><g transform="scale(1,-1) translate(-256, -1869)">
		<path d="M2125 1222l0 72c0 39-31 72-72 72l-791 0c-38 0-72-33-72-72l0-72 72 0 0 72 791 0 0-72 72 0 z" fill="#212121"/>
		<path d="M1909 1294l0 72-72 0 0-72 72 0 z M2053 1294l-72 0 0 72 72 0 0-72 z M1765 1294l0 72-72 0 0-72 72 0 z M1622 1294l-72 0 0 72 72 0 0-72 z M1478 1294l0 72-72 0 0-72 72 0 z M1334 1294l0 72-72 0 0-72 72 0 z" fill="#D3D3D3"/>
		<path d="M2376 216c19 0 36 18 36 36l0 502c0 21-17 37-36 37l-179 0 0-575 179 0 z" fill="#636363"/>
		<path d="M2268 0l0 647-71 252c8 24 71 245 71 255 0 37-29 68-68 68l-1111 0c-26 0-49-15-61-38-5-10-14-23-17-34l-48-167c-5-17-8-31-10-43-7-41-39-76-74-125l-119-168-144 0c-109 0-144-37-144-144l0-503 1796 0 z" fill="#5092FF"/>
		<path d="M2278-72c36 0 62 29 62 63l0 90c0 34-26 63-62 63l-1816 0c-36 0-62-29-62-63l0-90c0-34 26-63 62-63l1816 0 z" fill="#D3D3D3"/>
		<path d="M543 288c39 0 72 31 72 72l0 71c0 39-31 72-72 72l-71 0 0-215 71 0 z" fill="#FFF478"/>
		<path d="M1872-287c138 0 252 110 252 251 0 139-113 252-252 252-138 0-251-111-251-252 0-138 108-251 251-251 z M866-287c138 0 252 110 252 251 0 139-113 252-252 252-138 0-251-111-251-252 0-138 108-251 251-251 z" fill="#321B41"/>
		<path d="M1873-144c58 0 108 49 108 108 0 57-46 108-108 108-58 0-108-49-108-108 0-58 49-108 108-108 z M867-144c58 0 108 49 108 108 0 58-49 108-108 108-61 0-108-48-108-108 0-58 49-108 108-108 z" fill="#F4F4F4"/>
		<path d="M2268 647l0 503-146 0c-40 0-69-31-69-69l0-365c0-38 29-69 69-69l146 0 z M1264 647l-505 0 252 503 253 0c38 0 70-29 70-69l0-365c0-40-32-69-70-69 z M1840 647c40 0 69 31 69 69l0 365c0 38-29 69-69 69l-293 0c-38 0-69-29-69-69l0-365c0-38 29-69 69-69l293 0 z" fill="#26C9FC"/>
		<path d="M2268 288l0 215-35 0c-61 0-108-48-108-108 0-59 51-107 111-107l32 0 z" fill="#F8312F"/>
		<path d="M1729 503c19 0 36 15 36 36 0 19-15 36-36 36l-71 0c-19 0-36-15-36-36 0-19 15-36 36-36l71 0 z M1370 503c19 0 36 15 36 36 0 19-15 36-36 36l-72 0c-19 0-36-15-36-36 0-19 15-36 36-36l72 0 z M1084 575c18 0 34 16 34 35l0 146c0 18-13 35-34 35l-28 0c-44 0-81-36-81-81l0-54c0-47 37-81 81-81l28 0 z" fill="#D3D3D3"/>
	</g></svg>
