<svg version="1.1" xmlns="http://www.w3.org/2000/svg" viewBox="0 0 2300 2300"><g transform="scale(1,-1) translate(-256, -1869)">
		<path d="M1323 1213l86 93-94 87-86-92 94-88 z" fill="#452829"/>
		<path d="M1232 876c8 46 40 166 71 205 31 36 55 76 55 125 0 68-70 105-128 105-134 0-257-255-284-351l123-84 163 0 z" fill="#FF6723"/>
		<path d="M1218 615c27 0 49 15 61 39l84 170-135 53-282 83c-11-28-17-64-17-94 0-46 42-92 75-115l175-123c13-9 26-13 39-13 z" fill="#9B9B9B"/>
		<path d="M1463 1243c48 0 65 45 79 88 14 3 34 0 34 20 0 10-10 36-13 49 7 21 15 43 15 66 0 43-28 85-72 97-30 8-60 22-91 22-37 0-72-20-90-54-1-3-7-15-7-18l-1-76 0-77c0-60 90-117 146-117 z" fill="#573739"/>
		<path d="M1535 1391c3 0 6 2 7 5 1 3 2 6 2 9 0 9-3 17-10 22-7 5-14 7-22 7-2 0-5 0-8-1-4-1-7-3-10-5l-8-6c-2-2-3-4-3-6l-1-4c0-3 3-6 8-9 5-3 10-5 17-6 6-2 12-3 18-4l10-2 z" fill="#FFFFFF"/>
		<path d="M1539 1389c3 8 5 6 5 16 0 11-6 22-17 22-15 0-20-15-23-27l35-11 z" fill="#7D4533"/>
		<path d="M1533 1391c4 4 6 8 6 12 0 7-3 12-10 12-9 0-12-6-12-18l16-6 z" fill="#000000"/>
		<path d="M1535 1405l5 3-2 5-5-3 2-5 z" fill="#FFFFFF"/>
		<path d="M1511 1304c5 0 8 2 8 7 0 4-2 6-7 6-29 0-20 28-31 28-4 0-6-2-6-7 0-19 18-34 36-34 z" fill="#990839"/>
		<path d="M1305 1358c8 0 14 2 19 7 5 5 9 10 12 17 3 7 5 14 7 21 2 7 4 14 7 19-1 3-2 7-2 12 0 6 2 12 5 18 3 6 7 11 12 16 5 4 10 7 16 8l7 1c3 0 7-1 11-3 3 11 11 20 23 25 11 5 22 7 33 7 15 0 30-2 45-7 14-5 29-8 44-8 19 0 34 6 45 18 11 12 16 27 16 46 0 11-3 21-9 28-6 7-13 13-22 17-9 4-18 7-28 9-11 1-20 2-29 2-11 1-20 2-26 4-7 1-15 5-25 11-13 8-28 15-43 20-15 5-31 7-47 7-22 0-40-5-54-16-15-11-26-25-34-42-9-17-15-36-18-56-4-20-6-39-6-57 0-5 0-10 1-17 1-7 2-13 4-19 2-7 5-13 8-18 3-5 8-9 13-10-2 1-5 1-10 1-8 0-14-3-19-8-5-5-8-12-8-20 0-6 2-11 6-15 3-4 8-7 13-10 5-3 11-5 17-6 6-1 11-2 16-2 z" fill="#000000"/>
		<path d="M1545 1451c5 0 8 2 8 7 0 11-23 12-30 12l-12 0c-4 0-8-1-11-2-1-3-6-1-6-8 0-5 4-6 8-6 4 0 5 2 10 2 18 0 26-5 33-5 z" fill="#000000"/>
		<path d="M2195 99l-3 577-504 48c-98 8-156 24-252 24-104 0-157-16-259-24l-519-48 348-577 1189 0 z" fill="#86D72F"/>
		<path d="M2184 676c42 0 77 33 77 77 0 44-36 77-78 77l-1566 0c-42 0-77-33-77-77 0-42 33-77 77-77l1567 0 z" fill="#44911B"/>
		<path d="M1710 982l53 22c9 3 14 10 14 21 0 12-10 22-22 22-16 0-47-17-62-24l17-41 z" fill="#341A1C"/>
		<path d="M2410-213l2 682c-107 0-147-74-251-74-108 0-150 74-252 74-107 0-147-74-251-74-108 0-150 74-252 74-108 0-150-74-252-74-107 0-147 74-251 74-108 0-150-74-252-74-107 0-147 74-251 74l0-682 2010 0 z" fill="#0084CE"/>
		<path d="M994 78c36 0 70 13 96 39l175 176c26 26 39 61 39 95 0 22-4 42-13 60l559 559c9 9 13 19 13 31 0 23-20 43-43 43-12 0-22-4-31-13l-560-559c-19 9-39 13-59 13-36 0-68-13-95-39l-176-175c-26-26-39-60-39-96 0-75 60-134 134-134 z" fill="#F3C07B"/>
		<path d="M2410-214l2 424c-108 0-147-75-251-75-108 0-148 75-252 75-108 0-147-75-251-75-108 0-148 75-252 75-108 0-148-75-252-75-108 0-147 75-251 75-108 0-148-75-252-75-108 0-147 75-251 75l0-424 2010 0 z" fill="#26C9FC"/>
		<path d="M1486 898l276 1c34 0 63 27 63 63 0 36-29 62-63 62l-273-1c-17 0-29 7-38 21l0 1-102 163-106-66 100-162c30-48 81-82 143-82 z" fill="#573739"/>
		<path d="M1297 1039c29 0 95 49 118 64l-79 140c-15 24-40 39-68 39-46 0-83-40-83-82 0-15 3-29 11-41l60-97c10-15 24-23 41-23 z" fill="#FF8101"/>
	</g></svg>
