<svg version="1.1" xmlns="http://www.w3.org/2000/svg" viewBox="0 0 2300 2300"><g transform="scale(1,-1) translate(-256, -1869)">
		<path d="M1478 0l934 216 0 503-1939 0c-39 0-74-31-74-72 0-31 127-387 144-431l935-216 z M1837 719c77 0 119 16 192 24l383 48 0 431-215 0 0 216-360 0-144-216-277 0c-21 0-36-14-41-32l-113-399 383-48c72-8 118-24 192-24 z" fill="#CDC4D6"/>
		<path d="M2077 935c27 0 47 22 47 48l0 48c0 25-21 47-47 47l-49 0c-26 0-47-20-47-47l0-48c0-26 20-48 47-48l49 0 z" fill="#26EAFC"/>
		<path d="M2340-287c38 0 72 31 72 71l0 432-1869 0 130-451c9-30 35-52 69-52l1598 0 z" fill="#CA0B4A"/>
		<path d="M2077 935c27 0 47 22 47 48l0 48c0 25-21 47-47 47l-49 0c-26 0-47-20-47-47l0-48c0-26 20-48 47-48l49 0 z M2221 360l-49 0c-26 0-47 20-47 47l0 49c0 26 20 47 47 47l49 0c26 0 47-20 47-47l0-49c0-26-20-47-47-47 z M1933 360c26 0 48 20 48 47l0 49c0 27-22 47-48 47l-48 0c-26 0-48-20-48-47l0-49c0-27 22-47 48-47l48 0 z M1646 360l-49 0c-26 0-47 20-47 47l0 49c0 26 20 47 47 47l49 0c26 0 47-20 47-47l0-49c0-26-20-47-47-47 z M1358 360c26 0 48 20 48 47l0 49c0 27-22 47-48 47l-48 0c-26 0-48-20-48-47l0-49c0-27 22-47 48-47l48 0 z M1767 935c55 0 70 16 70 71 0 56-16 72-72 72l-422 0-40-143 464 0 z" fill="#00A6ED"/>
		<path d="M2412-287l1 167c-121 0-137-80-252-80-122 0-138 80-253 80-121 0-136-80-251-80-121 0-137 80-252 80-121 0-136-80-251-80-121 0-137 80-252 80-121 0-136-80-251-80-121 0-136 80-251 80l0-167 2012 0 z" fill="#00A6ED"/>
		<path d="M2412 719l-1797 0 0 30c0 22 19 42 42 42l1755 0 0-72 z M2197 1438l0 114-1 0c0 14-12 29-28 29l-180 0c-89 0-114-79-151-143l360 0 z" fill="#533566"/>
	</g></svg>
