<svg version="1.1" xmlns="http://www.w3.org/2000/svg"><g transform="scale(1,-1)">
		<path d="M1837-287c80 0 144 64 144 143l0 1725c0 81-67 144-144 144l-862 0c-79 0-144-63-144-144l0-1725c0-80 65-143 144-143l862 0 z" fill="#E19747"/>
		<path d="M1765-144l-718 0c-38 0-72 33-72 72l0 216c0 39 31 72 72 72l718 0c39 0 72-31 72-72l0-216c0-39-34-72-72-72 z M1765 360c38 0 72 31 72 71l0 216c0 39-31 72-72 72l-718 0c-39 0-72-31-72-72l0-216c0-40 34-71 72-71l718 0 z M1765 935c38 0 72 31 72 71l0 504c0 40-34 71-72 71l-718 0c-38 0-72-31-72-71l0-504c0-40 34-71 72-71l718 0 z" fill="#D3883E"/>
		<path d="M1855 755c39 0 72 31 72 72 0 39-34 72-72 72-38 0-72-33-72-72 0-39 31-72 72-72 z" fill="#F9C23C"/>
	</g></svg>
