<svg version="1.1" xmlns="http://www.w3.org/2000/svg" viewBox="0 0 2300 2300"><g transform="scale(1,-1) translate(-256, -1869)">
		<path d="M1623-144l70 216-70 216-1004 0-76-216 76-216 1004 0 z" fill="#F4F4F4"/>
		<path d="M1622-287l143 287-1222 0 0-287 1079 0 z" fill="#D3D3D3"/>
		<path d="M2411-287l1 1 0 286-395 144-395-144 0-287 789 0 z" fill="#E19747"/>
		<path d="M2412 0l0 286-1 2-789 0 0-288 790 0 z" fill="#F9C23C"/>
		<path d="M2237-39c19 0 36 15 36 36 0 18-17 36-36 36-19 0-36-18-36-36 0-18 17-36 36-36 z M1771-187c-19 0-36 15-36 36 0 19 15 36 36 36 19 0 36-15 36-36 0-19-15-36-36-36 z M2082-187c19 0 36 15 36 36 0 19-15 36-36 36-19 0-36-15-36-36 0-19 15-36 36-36 z M2082 109c-19 0-36 15-36 36 0 19 15 36 36 36 19 0 36-15 36-36 0-19-15-36-36-36 z M1927-39c19 0 36 15 36 36 0 19-18 36-36 36-19 0-36-18-36-36 0-19 15-36 36-36 z M1771 109c19 0 36 15 36 36 0 19-15 36-36 36-19 0-36-15-36-36 0-19 15-36 36-36 z" fill="#FEEFC2"/>
		<path d="M687-287c-32 43-78 88-78 143 0 57 48 89 48 144 0 56-48 88-48 144 0 59 46 101 78 144l-179 0c-58 0-108-49-108-108l0-359c0-63 50-108 108-108l179 0 z" fill="#636363"/>
		<path d="M651 360c23 0 27 23 27 41 0 9-1 18-3 27-7 40-11 81-11 122 0 235 167 316 167 492 0 92-44 211-85 291-6 14-16 33-35 33-21 0-30-14-33-33-5-31-12-60-21-85-60-168-257-334-257-504 0-120 82-231 155-309 17-19 35-40 55-56 12-11 25-19 41-19 z M1028 1078c12 0 14 15 14 25 0 28-7 56-7 85 0 135 84 179 84 280 0 31-31 185-61 185-5 0-9-2-11-5-9-18-11-42-16-61-29-96-128-193-128-289 0-77 54-157 105-208 5-5 12-12 20-12 z" fill="#9B9B9B"/>
	</g></svg>
