<svg version="1.1" xmlns="http://www.w3.org/2000/svg"><g transform="scale(1,-1)">
		<path d="M1401-135c471 0 858 381 858 858 0 471-381 858-858 858-471 0-858-381-858-858 0-471 381-858 858-858 z" fill="#FFFFFF"/>
		<path d="M939 418c5 0 47 39 47 47 0 8-39 47-47 47-11 0-47-38-47-47l2-6c8-8 34-41 45-41 z M1109 503c6 0 9 3 9 9l0 54c0 6-3 9-9 9l-53 0c-6 0-9-3-9-9l0-54c0-6 3-9 9-9l53 0 z M1083 288c18 0 35 17 35 36 0 19-17 36-35 36-19 0-36-18-36-36 0-19 15-36 36-36 z M939 647c19 0 36 15 36 36 0 19-15 36-36 36-19 0-36-15-36-36 0-19 15-36 36-36 z M1663 72c36 0 63 29 63 63l-1 675 75-154c11-21 32-36 56-36 34 0 63 27 63 63 0 31-147 321-170 367-11 22-35 35-57 35l-265 0c-16 0-30-5-42-16l-155-140-197-70c-26-9-41-34-41-60 0-34 26-62 62-62 7 0 14 1 21 4l209 74c30 11 94 78 122 103 0-117-2-235-2-352l0-431c0-36 29-63 63-63 36 0 62 29 62 63l0 389 71 0 0-389c0-36 29-63 63-63 z M1544 1142c57 0 105 45 105 105 0 59-48 105-105 105-57 0-105-46-105-105 0-59 47-105 105-105 z" fill="#000000"/>
		<path d="M1406-287c547 0 1006 440 1006 1006 0 547-440 1006-1006 1006-547 0-1006-440-1006-1006 0-547 440-1006 1006-1006 z M2036 241l-1108 1108c134 103 299 161 478 161 436 0 791-351 791-791 0-179-58-344-161-478 z M1406-72c-436 0-791 351-791 791 0 166 53 335 161 478l1108-1108c-143-108-312-161-478-161 z" fill="#F8312F"/>
	</g></svg>
