<svg version="1.1" xmlns="http://www.w3.org/2000/svg" viewBox="0 0 2300 2300"><g transform="scale(1,-1) translate(-256, -1869)">
		<path d="M2217 427c16 51 129 364 129 389 0 21-14 34-34 38-31 7-66 9-97 9-13 0-27-6-34-18l-219-368 255-50 z" fill="#FF822D"/>
		<path d="M1900 529c2 9 3 18 3 27 0 49-23 97-67 124l-351 230c-26 17-54 25-85 25-37 0-71-13-100-38l-256-217 856-151 z" fill="#D3D3D3"/>
		<path d="M1300 635l155 132c7 7 12 22 12 32 0 40-41 53-70 73l-67 44-1 0c-12-7-23-12-34-21l-251-215 256-45 z" fill="#26EAFC"/>
		<path d="M1818 544l1 15c0 26-13 50-34 64l-167 109c-13 9-27 12-43 12-19 0-36-6-50-18l-127-108 420-74 z" fill="#26EAFC"/>
		<path d="M2110-81c165 0 278 145 302 292l-1940 355 51-88c195-326 522-559 909-559l678 0 z" fill="#FF822D"/>
		<path d="M2412 350c-10 68-56 125-131 137l-1782 293-14 1c-51 0-85-17-85-72l2012-359 z" fill="#FF822D"/>
		<path d="M2412 206l0 144-2012 359c0-18 5-35 14-50l75-122 1923-331 z" fill="#D3D3D3"/>
		<path d="M2411-287l1 503c-122 0-137-94-252-94-122 0-137 94-252 94-122 0-137-94-252-94-121 0-136 94-251 94-122 0-137-94-252-94-121 0-136 94-251 94-121 0-136-94-251-94-121 0-136 94-251 94l0-503 2011 0 z" fill="#00A6ED"/>
	</g></svg>
