<svg version="1.1" xmlns="http://www.w3.org/2000/svg"><g transform="scale(1,-1)">
		<path d="M1401-135c471 0 858 381 858 858 0 471-381 858-858 858-471 0-858-381-858-858 0-471 381-858 858-858 z" fill="#FFFFFF"/>
		<path d="M1963 503c11 0 18 7 18 18l0 180c0 11-7 18-18 18l-36 0c-11 0-18-7-18-18l0-180c0-11 7-18 18-18l36 0 z M1819 503c11 0 18 7 18 18l0 180c0 11-7 18-18 18l-988 0c-39 0-72-31-72-72l0-72c0-39 31-72 72-72l988 0 z M1930 754c5 0 9 2 14 7 34 39 80 97 80 154 0 83-78 125-97 199-5 15-5 62-29 62-8 0-14-4-17-13-13-39-32-78-32-121 0-69 62-120 62-188l0-82c0-11 8-18 19-18 z" fill="#000000"/>
		<path d="M1406-287c547 0 1006 440 1006 1006 0 547-440 1006-1006 1006-547 0-1006-440-1006-1006 0-547 440-1006 1006-1006 z M2036 241l-1108 1108c134 103 299 161 478 161 436 0 791-351 791-791 0-179-58-344-161-478 z M1406-72c-436 0-791 351-791 791 0 166 53 335 161 478l1108-1108c-143-108-312-161-478-161 z" fill="#F8312F"/>
	</g></svg>
