<svg version="1.1" xmlns="http://www.w3.org/2000/svg" viewBox="0 0 2300 2300"><g transform="scale(1,-1) translate(-256, -1869)">
		<path d="M2017 72l-170 728c-48 207-232 350-441 350-213 0-394-147-441-350l-170-728 1222 0 z" fill="#F8312F"/>
		<path d="M2115-287c41 0 82 32 82 77l0 205c0 41-36 77-82 77l-1418 0c-43 0-82-34-82-77l0-205c0-45 40-77 82-77l1418 0 z" fill="#D3D3D3"/>
		<path d="M1636 719c63 0 103 51 103 115 0 82-67 172-154 172-63 0-103-51-103-115 0-77 65-172 154-172 z" fill="#F4F4F4"/>
		<path d="M972 1150c42 0 75 34 75 74 0 21-7 38-22 53l-211 211c-15 15-32 22-53 22-40 0-74-33-74-75 0-20 7-37 22-52l211-211c15-15 32-22 52-22 z M1839 1150c21 0 38 7 53 22l211 211c15 15 22 32 22 52 0 43-35 75-75 75-20 0-37-7-52-22l-211-211c-15-15-22-32-22-53 0-40 33-74 74-74 z M1406 1294c39 0 72 31 72 72l0 287c0 39-31 72-72 72-39 0-72-31-72-72l0-287c0-39 31-72 72-72 z" fill="#FCD53F"/>
	</g></svg>
