<svg version="1.1" xmlns="http://www.w3.org/2000/svg"><g transform="scale(1,-1)">
		<path d="M2125-287c156 0 287 125 287 287l0 1438c0 156-125 287-287 287l-1438 0c-156 0-287-125-287-287l0-1438c0-161 130-287 287-287l1438 0 z" fill="#00A6ED"/>
		<path d="M1351 0l-324 0c-31 0-60 22-69 51-20 65-179 580-179 607 0 33 26 61 62 61 26 0 51-17 59-44l66-219c5-14 19-26 35-26l377 0c15 0 30 11 34 25l69 222c8 26 32 42 58 42 34 0 61-25 61-61 0-26-163-552-181-607-10-31-38-51-68-51 z M1298 792c10 0 19 4 26 11 7 7 10 15 10 25 0 21 4 42 11 61 7 19 17 37 30 53 13 15 28 29 45 40 17 11 37 18 58 22l0 2 575 0c19 0 36 7 51 22 14 14 21 31 21 50l0 144c0 20-7 37-21 51-14 14-31 21-51 21l-288 0 0 72 55 0c13 0 26 2 38 5 15 4 27 11 37 21 9 10 14 25 14 46 0 19-7 36-21 51-15 14-32 21-51 21l-287 0c-19 0-36-7-50-21-15-15-22-32-22-51 0-21 5-36 15-46 9-10 21-17 36-21 12-3 25-5 38-5l55 0 0-72c-24 0-48 0-72 1-24 0-48 0-72-1-18-1-37-3-56-7l-56-15c-48-16-91-39-130-68-39-29-73-63-101-102-28-39-50-82-65-129-15-47-23-95-23-145 0-10 4-18 11-25 7-7 15-11 25-11l215 0 z" fill="#FFFFFF"/>
	</g></svg>
