<svg version="1.1" xmlns="http://www.w3.org/2000/svg"><g transform="scale(1,-1)">
		<path d="M2125-287c156 0 287 125 287 287l0 1438c0 156-125 287-287 287l-1438 0c-156 0-287-125-287-287l0-1438c0-161 130-287 287-287l1438 0 z" fill="#00A6ED"/>
		<path d="M1510-72c42 0 76 28 76 72l0 865c0 18 17 35 36 35 19 0 36-17 36-35l0-315c0-44 33-72 75-72 41 0 68 39 68 74l0 371c0 88-71 160-160 160l-470 0c-88 0-160-71-160-160l0-371c0-39 30-74 68-74 42 0 75 28 75 72l0 314c0 18 17 36 36 36 19 0 36-15 36-36l0-862c0-37 31-74 69-74 42 0 75 28 75 72l0 421c0 19 15 36 36 36 19 0 36-15 36-36l0-419c0-37 31-74 68-74 z M1402 1150c98 0 179 79 179 180 0 98-79 180-179 180-98 0-180-78-180-180 0-98 78-180 180-180 z" fill="#FFFFFF"/>
	</g></svg>
