<svg version="1.1" xmlns="http://www.w3.org/2000/svg"><g transform="scale(1,-1)">
		<path d="M1401-135c471 0 858 381 858 858 0 471-381 858-858 858-471 0-858-381-858-858 0-471 381-858 858-858 z" fill="#FFFFFF"/>
		<path d="M1273 152c15 0 23 9 27 21 8 24 59 282 59 300 0 14-12 26-27 26l-357 0c-16 0-27-15-27-29 0-12 55-282 63-297 5-12 12-21 27-21l235 0 z M1150 352c-28 0-49 17-77 17-16 0-31-4-46-11l-19 87 291 0-18-90c-19 7-36 14-55 14-28 0-48-17-76-17 z M1251 206l-192 0-21 98c11 7 22 11 35 11 28 0 50-18 78-18 28 0 47 18 75 18 16 0 29-7 44-14l-19-95 z M1226 574c19 0 36 17 36 35l0 164c0 11 7 18 18 18l664 0c19 0 36 15 36 36l0 144c0 18-17 35-36 35l-248 0 0 61c15 7 27 18 38 33 27-5 104-28 123-28 38 0 72 31 72 71 0 39-31 72-72 72-22 0-96-22-119-27-14 30-44 50-80 50-36 0-68-22-82-52-29 5-106 29-130 29-38 0-72-33-72-72 0-40 34-71 72-71 24 0 104 25 134 30 11-18 25-30 44-37l0-59-290 0c-146 0-287-130-287-280l0-117c0-18 17-35 36-35l143 0 z" fill="#000000"/>
		<path d="M1406-287c547 0 1006 440 1006 1006 0 547-440 1006-1006 1006-547 0-1006-440-1006-1006 0-547 440-1006 1006-1006 z M2036 241l-1108 1108c134 103 299 161 478 161 436 0 791-351 791-791 0-179-58-344-161-478 z M1406-72c-436 0-791 351-791 791 0 166 53 335 161 478l1108-1108c-143-108-312-161-478-161 z" fill="#F8312F"/>
	</g></svg>
