<svg version="1.1" xmlns="http://www.w3.org/2000/svg"><g transform="scale(1,-1)">
		<path d="M1401-135c471 0 858 381 858 858 0 471-381 858-858 858-471 0-858-381-858-858 0-471 381-858 858-858 z" fill="#FFFFFF"/>
		<path d="M1406-287c547 0 1006 440 1006 1006 0 547-440 1006-1006 1006-547 0-1006-440-1006-1006 0-547 440-1006 1006-1006 z M1406-72c-436 0-791 351-791 791 0 436 351 791 791 791 436 0 791-351 791-791 0-436-351-791-791-791 z M1255 65c39 0 72 31 72 72l0 330 106 128c0-17-2-46-2-73 0-28 3-55 15-71l218-300c15-20 34-30 58-30 38 0 72 33 72 72 0 15-5 29-14 42l-204 281 0 197-1 15-30 217 67-51 31-148c7-33 34-57 70-57 40 0 71 34 71 72 0 38-13 92-26 145-11 40-12 65-38 86l-208 160c-13 10-28 15-43 15-27 0-54-3-81-8-57-11-114-10-137-59l-85-208-207-35c-34-7-60-35-60-71 0-41 34-72 73-72l11 1 246 41c24 4 46 21 55 44l36 89 17-184-137-166c-11-13-17-29-17-46l0-356c0-39 31-72 72-72 z M1329 1192c58 0 108 47 108 107 0 58-49 108-108 108-61 0-108-48-108-108 0-59 48-107 108-107 z" fill="#000000"/>
		<path d="M1406-287c547 0 1006 440 1006 1006 0 547-440 1006-1006 1006-547 0-1006-440-1006-1006 0-547 440-1006 1006-1006 z M2036 241l-1108 1108c134 103 299 161 478 161 436 0 791-351 791-791 0-179-58-344-161-478 z M1406-72c-436 0-791 351-791 791 0 166 53 335 161 478l1108-1108c-143-108-312-161-478-161 z" fill="#F8312F"/>
	</g></svg>
