<svg version="1.1" xmlns="http://www.w3.org/2000/svg" viewBox="0 0 2300 2300"><g transform="scale(1,-1) translate(-256, -1869)">
		<path d="M1849-83l99 62c-31 43-295 386-299 411l-91 381c-4 19-6 33-13 52-31 80-100 110-184 115l-69 5c11-49 21-99 30-148 30-161 73-292 117-456 8-32 91-109 114-130l296-292 z" fill="#636363"/>
		<path d="M1161-201l146 489 228 259c30 34 44 79 44 122 0 11-1 23-3 35l-168 35-175-35-91-280c-18-54-27-109-34-169l-40-373 93-83 z" fill="#9B9B9B"/>
		<path d="M1116-297c9 0 14 4 16 12l31 90-94 83-219-47c-11-3-19-14-19-24 0-11 6-19 17-24 25-8 260-90 268-90 z M1793-296c7 0 13 3 18 8l189 202c3 3 4 7 4 12 0 19-62 66-75 79l-114-53c-4-25-48-209-48-222 0-15 12-26 26-26 z" fill="#533566"/>
		<path d="M949 551c-9 0-19 4-29 11-11 7-21 15-30 25-9 10-17 21-23 32-6 11-9 21-9 30 0 15 7 25 22 29 3 8 5 16 6 23 1 7 4 13 7 18 3 5 7 8 12 11 5 3 13 4 24 4 10 0 21-2 33-5 27 21 53 45 78 70 25 25 47 51 68 80 21 29 39 59 54 90 15 31 27 64 36 98l5 15 1 14 1 1c2 17 9 31 22 42 12 11 27 17 44 17 18 0 34-6 47-19 13-13 19-29 19-47 0-12-2-25-5-40-3-15-7-30-12-45-5-16-11-31-17-45l-16-38c-22-47-48-90-79-131-31-41-65-80-103-115-9-9-19-17-29-24-10-8-20-16-29-25l-17-17-28-26c-10-9-20-16-29-23-10-7-18-10-24-10 z M1770 544c8 0 18 1 30 4 12 3 24 7 35 12 11 5 21 12 29 20 8 7 12 16 12 26 0 10-2 20-5 29-4 9-7 18-10 27l0 1c-6 15-12 30-17 45-6 15-12 30-17 45-30 81-67 155-112 224-45 69-102 130-170 184l-39 30c-14 10-28 19-43 26-9 5-20 7-31 7-19 0-34-6-47-19-13-13-20-29-20-48 0-13 4-25 11-35 7-11 16-19 27-26 35-20 67-45 98-74 30-29 58-61 83-95 25-35 48-71 67-108 19-38 36-75 49-111l11-36c-5-7-10-15-14-24-5-9-7-18-7-27 0-6 1-11 4-15 3-4 6-8 10-11l25-18-1-7c0-10 5-17 12-20 9-4 19-6 30-6 z" fill="#C68D7B"/>
		<path d="M1276 1215l145 25-23 142-144-23 22-144 z" fill="#BB806E"/>
		<path d="M1271 883c24 0 86 199 86 233 0 41-34 77-76 77-17 0-31-4-40-13-19-18-21-52-33-81-20-48-33-93-59-141l-1-4c0-14 117-71 123-71 z" fill="#0092E7"/>
		<path d="M1576 704l-44 405c-8 75-64 144-142 144-12 0-23-1-33-4-139-33-165-128-165-257 0-94 15-194 41-288l343 0 z" fill="#00A6ED"/>
		<path d="M1544 966c8 0 106 88 106 98 0 13-39 49-79 81-76 59-110 84-141 84-39 0-77-31-77-74 0-28 16-50 38-65 55-33 97-71 144-119 3-3 6-5 9-5 z" fill="#3BC6F6"/>
		<path d="M1221 1247c52 0 149 32 165 90 12 37 54 180 54 180 0 67-55 125-122 125l-80 1c-68 0-126-52-126-120l0-35c0-37-35-57-35-75 0-19 13-27 29-28 20-12-27-138 115-138 z" fill="#C68D7B"/>
		<path d="M1201 1450c6 0 9 3 9 10 0 21-16 37-38 37-19 0-38-14-38-35 0-5 3-11 8-11l59-1 z" fill="#FFFFFF"/>
		<path d="M1179 1450l1 11c0 14-8 30-23 30-15 0-23-16-23-30l1-10 44-1 z" fill="#7D4533"/>
		<path d="M1164 1451c1 4 2 7 2 10 0 8-4 17-13 17-9 0-13-9-13-17 0-4 1-7 3-10l21 0 z" fill="#000000"/>
		<path d="M1145 1468c4 1 6 3 6 6 0 3-2 5-5 5-1 0-5-1-5-4 0-4 1-6 4-7 z" fill="#FFFFFF"/>
		<path d="M1151 1339c17 0 42 14 42 33 0 4-5 7-9 7-8 0-11-24-34-24-4 0-9 2-13 2-4 0-7-5-7-8 0-10 14-10 21-10 z" fill="#990839"/>
		<path d="M1205 1499c8 0 16 7 16 15 0 21-42 31-59 31-10 0-21-1-25-12 0-15 3-20 17-20 27 0 44-14 51-14 z" fill="#593B39"/>
		<path d="M1395 1375c21 0 38 8 51 25 13 17 23 36 30 59 7 23 11 46 14 70 3 24 4 43 4 58 0 24-6 46-19 67-13 21-32 34-57 40-7 2-13 3-18 3-5 0-10 0-15 1-5 0-10 1-15 3-5 1-12 4-19 8-10 6-21 9-34 9-8 0-16-1-23-4-7-3-15-4-23-4-11 0-22 3-32 8-10 5-21 7-32 7-10 0-18-2-24-5-7-4-12-8-17-12l-13-11c-4-4-9-6-15-6-19 0-34-5-46-15-13-11-19-26-19-46 0-19 5-32 16-40 11-8 24-13 40-16 13-2 28-4 43-4l10 0c19 0 36 0 52-1 16-1 29-4 40-9 11-5 16-15 16-28 0-10 1-17 4-21 2-5 5-8 9-9 4-1 9-2 14-2 5-1 11-2 17-5 9-5 17-11 23-18 5-8 8-17 8-28 0-8-2-16-5-23-3-7-9-13-16-18 3-10 10-18 21-24 10-6 20-9 30-9 z" fill="#593B39"/>
	</g></svg>
