<svg version="1.1" xmlns="http://www.w3.org/2000/svg" viewBox="0 0 2300 2300"><g transform="scale(1,-1) translate(-256, -1869)">
		<path d="M2412-284l0 1150-312 469c0 3-25 20-27 20-68 48-146 74-230 74-90 0-178-29-247-74-5-5-33-24-36-27l-543-783-164 124c-43 31-91 49-144 49-65 0-127-28-169-70l-140-141 0-791 2012 0 z" fill="#00D26A"/>
		<path d="M1838 1280c56 0 82 117 131 117 19 0 109-51 131-62l-106 159c-36 53-94 85-159 85-67 0-124-33-158-83l-117-168c24 11 127 69 147 69 50 0 73-117 131-117 z" fill="#D3D3D3"/>
		<path d="M2412-287l-252 154c-33 19-68 29-106 29-39 0-76-10-108-30l-2 0c-32-19-68-30-107-30-81 0-137 61-216 61-82 0-134-61-216-61-37 0-75 10-107 30l-1 0c-32 20-69 30-108 30-82 0-134-61-216-61-85 0-132 60-217 60-36 0-75-11-107-29l-249-153 2012 0 z" fill="#000000"/>
		<path d="M1529 136c4 0 7 2 9 5l139 184c4 5 6 11 6 18 0 9-4 17-12 24l-54 41-98-51c-5-41-27-141-27-174 0-16 18-47 37-47 z" fill="#533566"/>
		<path d="M1521 356l97 51-239 204 96 55-107 132c-68-39-158-75-158-167 0-29 8-53 33-72l278-203 z" fill="#452829"/>
		<path d="M1476 656c6 0 19 2 25 5l229 132-152 137-235-146 82-102c15-19 26-26 51-26 z" fill="#636363"/>
		<path d="M1016 538c13 0 26 7 31 21 16 39 176 422 176 439 0 19-15 33-33 33l-252 0c-83 0-149-67-149-149 0-82 66-149 149-149 19 0 34 15 34 33 0 18-15 34-34 34-44 0-82 35-82 82 0 44 35 82 82 82l202 0c-15-39-157-376-157-392 0-19 15-34 33-34 z" fill="#D3D3D3"/>
		<path d="M938 733c19 0 34 15 34 33 0 18-15 34-34 34-44 0-82 35-82 82 0 18-15 34-34 34-18 0-33-15-33-34 0-82 66-149 149-149 z" fill="#433B6B"/>
		<path d="M1970-251c168 0 306 134 306 305 0 167-134 306-306 306-167 0-305-135-305-306 0-167 133-305 305-305 z M813-251c167 0 305 133 305 305 0 168-134 306-305 306-167 0-305-135-305-306 0-167 133-305 305-305 z M1970-144c-109 0-197 88-197 198 0 109 87 198 197 198 109 0 198-88 198-198 0-109-88-198-198-198 z M813-144c-109 0-198 88-198 198 0 109 88 198 198 198 109 0 198-88 198-198 0-109-88-198-198-198 z" fill="#F3EEF8"/>
		<path d="M1973-287c188 0 345 150 345 344 0 188-150 345-345 345-191 0-344-154-344-345 0-188 150-344 344-344 z M816-287c188 0 344 150 344 344 0 189-151 345-344 345-188 0-345-150-345-345 0-188 151-344 345-344 z M1973-213c-144 0-271 115-271 270 0 149 121 271 271 271 149 0 271-121 271-271 0-152-123-270-271-270 z M816-213c-144 0-271 115-271 270 0 149 119 271 271 271 149 0 271-121 271-271 0-152-123-270-271-270 z" fill="#433B6B"/>
		<path d="M1542 39c19 0 32 12 36 29l102 464 299-469c8-11 18-17 31-17 21 0 38 17 38 38 0 7-2 13-6 19l-348 544c-8 11-18 17-31 17-18 0-33-12-37-29l-108-495-489 365c10 23 47 101 47 122 0 19-16 37-37 37-17 0-28-8-35-23-23-53-225-544-225-565 0-21 17-37 36-37 17 0 28 8 35 23l151 372 519-388c7-5 15-7 22-7 z" fill="#F8312F"/>
		<path d="M1567-35l434 57c33 4 55 32 55 63 0 34-24 59-55 63l-434 57-9 0c-68 0-119-57-119-120 0-49 30-92 73-110 18-9 40-10 55-10 z" fill="#452829"/>
		<path d="M1555 14c38 0 70 30 70 70 0 38-30 71-70 71-38 0-71-32-71-71 0-40 33-70 71-70 z" fill="#FFFFFF"/>
		<path d="M1357 1153l81 127-123 80-82-124 124-83 z" fill="#452829"/>
		<path d="M1171 1147c69 0 153 90 153 160 0 16-3 33-8 50-17 52-26 94-37 138-8 32-69 59-102 59-19 0-39-5-58-16-59-33-125-57-125-139 0-56 40-81 40-115 0-14-2-24-2-38 0-13 9-25 23-25 7 0 12 4 16 4 3 0 6-1 7-2 21-34 49-76 93-76 z" fill="#573739"/>
		<path d="M1065 1297c3 0 56 25 56 34 0 8-13 23-31 23-18 0-38-14-38-35 0-9 5-22 13-22 z" fill="#FFFFFF"/>
		<path d="M1062 1295l36 20c0 12-16 25-27 25-12 0-19-9-19-20 0-8 5-20 10-25 z" fill="#7D4533"/>
		<path d="M1069 1298l17 10c-1 9-6 19-17 19-7 0-10-6-10-13 0-7 5-12 10-16 z" fill="#000000"/>
		<path d="M1061 1312c3 0 3 3 3 6 0 4-3 5-7 5l-2-4c0-4 4-7 6-7 z" fill="#FFFFFF"/>
		<path d="M1114 1204c20 0 37 24 37 43 0 5-1 13-9 13-5 0-8-3-8-9 0-18-3-27-21-32-4-1-6-4-6-8 0-5 2-7 7-7 z" fill="#990839"/>
		<path d="M1325 1322c18 0 62 23 62 46 0 17-12 33-31 33-7 0-13-3-20-6 7 13 9 29 9 44 0 37-17 70-42 97-12-5-11-8-25-9l-150-7c-39-39-78-74-114-114 47 5 86 46 133 46 18 0 40-7 50-24 3 3 6 4 11 4 52 0 74-110 117-110 z" fill="#000000"/>
		<path d="M1236 1339c18 8 29 26 29 44 0 26-20 48-47 48-7 0-14-1-19-4l37-88 z" fill="#573739"/>
		<path d="M1568 828c20 0 240 128 273 149-58 100-230 314-368 314-60 0-146-57-146-123 0-64 50-118 93-149 28-22 66-82 93-129 21-37 27-62 55-62 z" fill="#FF6723"/>
		<path d="M1497 140l-3 396 282 194c54 37 84 74 84 138 0 44-18 87-30 128l-108-69c-116-73-211-148-326-234-35-27-57-96-57-139 0-10 1-16 2-26l56-342 100-46 z" fill="#573739"/>
		<path d="M1273 1180c9 0 17 6 17 17 0 6-19 58-39 112-35 90-44 132-63 132-11 0-18-6-18-17 0-6 19-59 40-111 35-89 43-133 63-133 z" fill="#433B6B"/>
		<path d="M1010 1331c11 0 141 64 219 103 85 42 107 47 107 71 0 13-25 58-33 72-23 46-67 77-122 77-21 0-41-5-60-14-77-39-180-68-180-174 0-19 5-39 14-59 10-20 24-76 55-76 z" fill="#00A6ED"/>
		<path d="M1095 1424c8 0 27 9 49 21 46 24 65 28 65 47 0 12-10 24-24 24-8 0-28-9-49-20-45-25-65-29-65-48 0-12 10-24 24-24 z" fill="#007ACF"/>
		<path d="M1631 549c23 0 42 9 59 28l120 138c41 46 67 91 67 153 0 51-53 153-89 192l-278-172 43-73-117-91 140-151c15-16 33-24 55-24 z" fill="#9B9B9B"/>
		<path d="M1466 42c16 0 31 14 31 30l0 68-100 47-148-78c-17-9-25-22-25-40l0-15c0-7 5-11 12-11l230-1 z" fill="#533566"/>
		<path d="M891 732c30 0 18 41 40 44 83 11 180 30 249 60 118 50 259 175 315 298 5 11 8 21 8 33 0 43-34 74-73 74-31 0-52-16-67-41-72-120-180-229-334-255-50-9-115-14-155-47-22-19-58-73-58-100 0-29 46-66 75-66 z" fill="#573739"/>
	</g></svg>
