<svg version="1.1" xmlns="http://www.w3.org/2000/svg"><g transform="scale(1,-1)">
		<path d="M2125-287c156 0 287 125 287 287l0 1438c0 156-125 287-287 287l-1438 0c-156 0-287-125-287-287l0-1438c0-161 130-287 287-287l1438 0 z" fill="#8D65C5"/>
		<path d="M1515-72c-21 0-38 7-52 22-14 15-21 32-21 52l0 321c0 9-4 18-11 25-7 7-16 10-25 10-9 0-18-3-25-10-7-7-11-16-11-25l0-323c0-19-7-36-20-50-14-15-31-22-50-22-21 0-38 7-52 22-15 14-22 31-22 52l0 356-76 0c-10 0-18 4-25 11-7 7-11 16-11 26 0 3 3 16 10 40 6 24 14 54 24 89 9 35 20 72 31 113 11 41 22 79 33 116l27 96 15 52-1 12c-2 4-5 8-8 11-3 3-7 6-11 8-5 2-9 3-12 3-7 0-14 0-20-1-6-1-10-6-12-15l-76-286c-4-15-13-28-26-38-13-10-28-15-44-15-19 0-36 7-50 22-14 14-21 31-21 50l0 9c0 3 1 6 2 9l81 306c9 32 26 58 52 78 25 19 54 29 87 29l424 0c16 0 32-3 47-8 15-5 28-13 41-22 12-9 23-20 32-33 9-13 15-28 19-43l83-307c2-6 3-12 3-19 0-19-7-36-21-50-15-14-32-21-51-21-17 0-31 5-43 15-13 9-21 22-26 38l-76 279c-2 7-6 13-12 18-6 4-13 6-20 6-7 0-15-3-23-10-7-6-11-11-11-17l1-5 15-53c7-27 16-59 27-96l63-231 23-89c6-24 9-37 9-40 0-10-3-19-10-26-7-7-16-11-26-11l-77 0 0-358c0-19-7-36-21-50-14-15-31-22-50-22 z M1402 1150c98 0 179 79 179 180 0 98-79 180-179 180-98 0-180-78-180-180 0-98 78-180 180-180 z" fill="#FFFFFF"/>
	</g></svg>
