<svg version="1.1" xmlns="http://www.w3.org/2000/svg"><g transform="scale(1,-1)">
		<path d="M2125-287c156 0 287 125 287 287l0 1438c0 156-125 287-287 287l-1438 0c-156 0-287-125-287-287l0-1438c0-161 130-287 287-287l1438 0 z" fill="#00A6ED"/>
		<path d="M911 1097c85 0 159 68 159 158 0 85-69 158-159 158-89 0-158-73-158-158 0-89 73-158 158-158 z M1008 25c35 0 66 26 66 64l0 770c0 17 14 32 32 32 17 0 31-14 31-32l0-221c0-38 31-63 66-63 36 0 61 33 61 65l0 258c0 77-67 141-143 141l-412 0c-76 0-141-60-141-141l0-258c0-32 24-65 60-65 35 0 66 25 66 63l0 221c0 17 14 32 32 32 17 0 32-14 32-32l0-770c0-40 30-64 66-64 35 0 60 32 60 63l0 417c0 17 14 32 32 32 17 0 31-14 31-32l0-415c0-32 25-65 61-65 z M1976 25c18 0 34 6 47 18 13 12 19 27 19 46l0 307c0 6 5 9 15 9l16-1 17 1c12 0 23 2 33 7 10 5 15 15 15 31 0 3-2 14-7 35l-20 74-25 95-27 97c-9 31-16 58-22 81l-13 45c-1 2-1 5-1 8 0 9 3 16 9 22 6 6 13 9 22 9 7 0 14-2 19-7 5-5 8-10 10-16 9-29 18-58 25-87l23-89c3-9 5-18 7-28 2-10 5-19 8-28 5-13 13-23 24-30 10-8 22-12 36-12 18 0 33 6 45 18 12 12 18 27 18 45 0 4 0 8-1 12l-73 268c-3 12-9 23-17 34-9 10-18 19-29 27-11 7-23 13-36 17-13 4-25 6-37 6l-380 0c-12 0-24-2-37-6-13-4-24-10-35-17-11-7-21-16-29-26-9-11-15-22-18-35l-73-268c-1-4-1-8-1-12 0-17 6-32 18-44 12-13 27-19 45-19 13 0 25 4 36 12 11 7 19 17 24 30l9 30c2 11 4 21 7 30 8 29 16 58 23 87 7 29 15 57 24 85 2 7 6 12 11 17 5 4 12 6 19 6 9 0 16-3 22-9 5-7 8-14 8-22 0-4 0-7-1-8l-35-126c-9-31-17-63-26-97l-26-96c-8-29-14-54-19-74-5-20-8-32-8-35 0-12 3-21 9-26 6-6 13-10 22-11 6-1 12-2 19-2l34 0c5 0 8-2 8-7l0-306c0-16 6-31 17-44 11-14 26-21 43-21 18 0 34 6 47 18 13 12 19 27 19 46l0 284c0 9 3 16 10 22 6 6 13 9 22 9 9 0 16-3 23-9 6-6 9-13 9-22l0-283c0-16 6-31 17-44 11-14 26-21 43-21 z M1882 1097c85 0 159 68 159 158 0 85-69 158-159 158-89 0-158-73-158-158 0-89 73-158 158-158 z M1406 0c22 0 39 17 39 40l0 1334c0 21-17 39-39 39-23 0-40-17-40-39l0-1334c0-22 17-40 40-40 z" fill="#FFFFFF"/>
	</g></svg>
