<svg version="1.1" xmlns="http://www.w3.org/2000/svg" viewBox="0 0 2300 2300"><g transform="scale(1,-1) translate(-256, -1869)">
		<path d="M1837-287c18 0 36 4 53 12 17 8 32 19 46 33 13 13 24 29 33 46 8 17 12 34 12 52l0 575c0 20 5 40 14 61 9 21 21 41 35 60 14 19 30 36 47 53 17 17 33 31 48 42l-180 0c10 0 19 4 26 11 7 7 10 15 10 25l0 144c0 10-3 19-10 26-7 7-16 10-26 10l-1437 0c-15 0-28-3-41-8-13-6-25-14-35-24-10-10-18-21-23-34-6-13-9-27-9-42l0-72c0-13 4-22 13-27 8-5 18-9 30-10l17-1 18 1c12 1 22 1 30 1l395-503-144-288c-5-11-10-22-13-35-3-13-5-25-5-37 0-13 2-25 7-34 5-9 11-17 20-22 8-5 18-9 29-11 11-3 22-4 34-4l1006 0 z" fill="#B4ACBC"/>
		<path d="M1190 72c315 0 594 204 687 506 25-4 54-5 87-5 33 0 63 2 89 2 119 0 215 97 215 216l0 862c0 38-30 72-71 72l-432 0c-38 0-72-33-72-72l0-862c0-55 21-106 55-144l-1262 0c67-337 366-575 704-575 z" fill="#CDC4D6"/>
	</g></svg>
