<svg version="1.1" xmlns="http://www.w3.org/2000/svg" viewBox="0 0 2300 2300"><g transform="scale(1,-1) translate(-256, -1869)">
		<path d="M1406-288c31 0 60 12 83 35l889 889c23 23 34 50 34 83 0 33-11 60-34 83l-889 889c-23 23-50 34-83 34-33 0-60-11-83-34l-889-889c-23-23-35-52-35-83 0-32 12-60 35-83l889-889c23-23 51-35 83-35 z" fill="#FFB02E"/>
		<path d="M1272 352c36 0 62 29 62 63 0 32-70 217-86 261 29-13 90-43 116-43 11 0 12 2 23 5 21 19 115 68 150 88-16-56-85-276-85-311 0-36 28-62 62-62 28 0 52 19 60 45l50 178 51-178c7-27 33-45 59-45 34 0 63 26 63 62 0 35-66 242-84 306 32-19 106-76 141-76 34 0 62 26 62 62 0 21-10 42-29 53l-182 113c41 28 65 74 65 121 0 81-67 144-144 144-81 0-145-67-145-144 0-47 23-94 64-121l-184-108-109 43c36 27 55 71 55 114 0 81-67 144-144 144-81 0-144-67-144-144 0-48 22-93 65-121l-157-98c-19-12-31-29-31-52 0-33 28-62 62-62 34 0 81 37 107 54-13-40-75-193-75-227 0-34 26-64 62-64 26 0 51 17 59 43l51 149 51-149c8-26 33-43 59-43 z" fill="#000000"/>
	</g></svg>
