<svg version="1.1" xmlns="http://www.w3.org/2000/svg" viewBox="0 0 2300 2300"><g transform="scale(1,-1) translate(-256, -1869)">
		<path d="M1849-83l99 62c-31 43-295 386-299 411l-91 381c-4 19-6 33-13 52-31 80-100 110-184 115l-69 5c11-49 21-99 30-148 30-161 73-292 117-456 8-32 91-109 114-130l296-292 z" fill="#636363"/>
		<path d="M1161-201l146 489 228 259c30 34 44 79 44 122 0 11-1 23-3 35l-162 40-181-40-91-280c-18-54-27-109-34-169l-40-373 93-83 z" fill="#9B9B9B"/>
		<path d="M1116-297c9 0 14 4 16 12l31 90-94 83-219-47c-11-3-19-14-19-24 0-11 6-19 17-24 25-8 260-90 268-90 z M1793-296c7 0 13 3 18 8l189 202c3 3 4 7 4 12 0 19-62 66-75 79l-114-53c-4-25-48-209-48-222 0-15 12-26 26-26 z" fill="#321B41"/>
		<path d="M949 551c-9 0-19 4-29 11-11 7-21 15-30 25-9 10-17 21-23 32-6 11-9 21-9 30 0 15 7 25 22 29 3 8 5 16 6 23 1 7 4 13 7 18 3 5 7 8 12 11 5 3 13 4 24 4 10 0 21-2 33-5 27 21 53 45 78 70 25 25 47 51 68 80 21 29 39 59 54 90 15 31 27 64 36 98l5 15 1 14 1 1c2 17 9 31 22 42 12 11 27 17 44 17 18 0 34-6 47-19 13-13 19-29 19-47 0-12-2-25-5-40-3-15-7-30-12-45-5-16-11-31-17-45l-16-38c-22-47-48-90-79-131-31-41-65-80-103-115-9-9-19-17-29-24-10-8-20-16-29-25l-17-17-28-26c-10-9-20-16-29-23-10-7-18-10-24-10 z M1770 544c8 0 18 1 30 4 12 3 24 7 35 12 11 5 21 12 29 20 8 7 12 16 12 26 0 10-2 20-5 29-4 9-7 18-10 27l0 1c-6 15-12 30-17 45-6 15-12 30-17 45-30 81-67 155-112 224-45 69-102 130-170 184l-39 30c-14 10-28 19-43 26-9 5-20 7-31 7-19 0-34-6-47-19-13-13-20-29-20-48 0-13 4-25 11-35 7-11 16-19 27-26 35-20 67-45 98-74 30-29 58-61 83-95 25-35 48-71 67-108 19-38 36-75 49-111l11-36c-5-7-10-15-14-24-5-9-7-18-7-27 0-6 1-11 4-15 3-4 6-8 10-11l25-18-1-7c0-10 5-17 12-20 9-4 19-6 30-6 z" fill="#573739"/>
		<path d="M1276 1215l145 25-23 142-144-23 22-144 z" fill="#452829"/>
		<path d="M1271 883c24 0 86 199 86 233 0 41-34 77-76 77-17 0-31-4-40-13-19-18-21-52-33-81-20-48-33-93-59-141l-1-4c0-14 117-71 123-71 z" fill="#774AA6"/>
		<path d="M1576 704l-44 405c-8 75-64 144-142 144-12 0-23-1-33-4-139-33-165-128-165-257 0-94 15-194 41-288l343 0 z" fill="#8B62BF"/>
		<path d="M1544 966c8 0 106 88 106 98 0 13-39 49-79 81-76 59-110 84-141 84-39 0-77-31-77-74 0-28 16-50 38-65 55-33 97-71 144-119 3-3 6-5 9-5 z" fill="#A17FD5"/>
		<path d="M1232 1247c53 0 146 32 162 91l23 87c3 8 28 89 28 92 0 66-53 123-121 123l-80 1c-66 0-123-53-123-121l0-34c0-37-34-54-34-75 0-32 33-23 33-34 5-86 16-130 112-130 z" fill="#573739"/>
		<path d="M1160 1338c8 0 17 3 27 9 10 6 15 14 15 23 0 5-3 8-8 8-3 0-5-1-6-4l-6-8c-2-3-5-6-8-8-3-3-8-4-14-4l-14 2c-4 0-6-3-6-8 0-5 3-7 8-8l12-2 z" fill="#290118"/>
		<path d="M1214 1511l5 1 3 5 0 5-3 5c-15 10-31 15-48 15l-16-2c-3-1-4-3-4-9 0-3 2-7 6-7l26-1c11-1 16-10 31-12 z" fill="#000000"/>
		<path d="M1198 1454c7 4 27 13 27 24 0 13-28 24-39 24-15 0-30-8-37-20l49-28 z" fill="#000000"/>
		<path d="M1209 1449c5 0 9 6 9 10 0 23-19 36-40 36-18 0-36-15-36-34 0-7 3-11 9-11l58-1 z" fill="#FFFFFF"/>
		<path d="M1187 1450c1 4 2 7 2 11 0 14-8 29-23 29-15 0-24-16-24-29 0-4 1-7 2-11l43 0 z" fill="#7D4533"/>
		<path d="M1172 1450c1 3 3 6 3 10 0 7-5 17-13 17-9 0-13-8-13-16 0-5 1-9 3-11l20 0 z" fill="#000000"/>
		<path d="M1154 1466c3 1 4 3 4 6 0 3-1 5-4 6-4 0-4-5-4-8 0-3 1-4 4-4 z" fill="#FFFFFF"/>
		<path d="M1453 1232c58 0 107 48 107 109 0 67-56 74-56 122l2 16c7 31 10 63 10 95 0 93-45 146-140 146-40 0-70-17-108-17-31 0-57 22-86 22-46 0-81-52-81-91 0-56 48-82 94-82 24 0 39 14 63 14 33 0 53-23 58-53 26-1 49-23 49-50 0-26-20-50-49-50l-1-35c0-59 37-123 97-139 10-5 26-7 41-7 z" fill="#000000"/>
	</g></svg>
