<svg version="1.1" xmlns="http://www.w3.org/2000/svg" viewBox="0 0 2300 2300"><g transform="scale(1,-1) translate(-256, -1869)">
		<path d="M1401-135c471 0 858 381 858 858 0 471-381 858-858 858-471 0-858-381-858-858 0-471 381-858 858-858 z" fill="#FFFFFF"/>
		<path d="M1801 288c-138 0-251 108-251 251 0 81 39 152 96 198l-45 93-68-158c-7-15-18-22-33-22-18 0-36 17-36 36 0 16 69 166 83 202l-436 0-21-110c104-35 172-131 172-239 0-138-108-251-251-251-138 0-252 110-252 251 0 148 119 252 260 252l26 140c3 17 18 29 36 29l497 0 20 46-84 0c-19 0-36 18-36 36 0 19 15 36 36 36l215 0c19 0 36-15 36-36 0-32-31-37-57-37l-32 1-38-89 70-144c29 12 60 18 93 18 139 0 252-113 252-252 0-138-111-251-252-251 z M1801 360c98 0 180 79 180 179 0 98-78 180-180 180-21 0-41-4-61-11 13-26 80-153 80-172 0-18-17-35-36-35l-138 0c-9 0-17 2-22 7 16-85 90-148 177-148 z M1623 564c15 11 35 11 52 11 17 0 34-2 51-2l-47 98c-31-28-49-66-56-107 z M1011 360c97 0 179 79 179 179 0 71-42 138-113 167l-33-176c-3-19-18-29-36-29-18 0-35 16-35 35 0 54 25 127 33 183-98-3-175-82-175-180 0-98 79-179 180-179 z M938 904c18 0 36 17 36 36 0 65 13 94 28 108 15 14 33 14 41 30l255 0c19 0 36 15 36 36 0 19-15 36-36 36l-359 0c-19 0-36-15-36-36l0-36 31 0c-25-39-32-97-32-138 0-18 17-36 36-36 z" fill="#000000"/>
		<path d="M1406-287c547 0 1006 440 1006 1006 0 547-440 1006-1006 1006-547 0-1006-440-1006-1006 0-547 440-1006 1006-1006 z M2036 241l-1108 1108c134 103 299 161 478 161 436 0 791-351 791-791 0-179-58-344-161-478 z M1406-72c-436 0-791 351-791 791 0 166 53 335 161 478l1108-1108c-143-108-312-161-478-161 z" fill="#F8312F"/>
	</g></svg>
