<svg version="1.1" xmlns="http://www.w3.org/2000/svg" viewBox="0 0 2300 2300"><g transform="scale(1,-1) translate(-256, -1869)">
		<path d="M2270-287l0 287-217 0 0-287 217 0 z M759-287l0 287-216 0 0-287 216 0 z" fill="#635994"/>
		<path d="M2412-72l0 432-1869 0 0 646c0 38-31 72-71 72-39 0-72-31-72-72l0-1078 2012 0 z" fill="#533566"/>
		<path d="M1118 360l0 287-575 0 0-287 575 0 z" fill="#A17FD5"/>
		<path d="M1070 647l0 60c0 42-27 79-71 90l-342 80c-7 2-15 3-22 3-51 0-92-41-92-92l0-136c1-3 3-5 6-5l521 0 z" fill="#007ACF"/>
		<path d="M2412 288l0 431c0 121-97 216-215 216l-1079 0c-40 0-71-34-71-72l0-575 1365 0 z" fill="#0092E7"/>
		<path d="M1000 748c73 0 191 80 191 163 0 48-45 84-76 110 5 7 8 15 8 24 0 41-57 30-84 35-3 3-39 29-44 34-25 19-52 28-83 28-60 0-94-32-128-77-29-40-61-75-61-127 0-29 20-94 52-107l98-39c42-17 83-44 127-44 z" fill="#573739"/>
		<path d="M907 686c22 0 58 46 58 68 0 43-106 84-106 143 0 6 1 14 6 17-15 11-21 32-21 49 0 68 78 109 78 175 0 37-42 77-81 77-23 0-42-12-55-29-32-42-34-77-78-113-45-35-90-88-90-149 0-46 27-83 61-109 40-32 110-79 163-79 12 0 31 2 39 13-7-8-11-16-11-27 0-21 19-36 37-36 z" fill="#000000"/>
		<path d="M908 825c18 0 32 7 43 21l-86 68c-8-10-12-21-12-34 0-30 23-55 55-55 z" fill="#452829"/>
		<path d="M1088 937c16 0 47 16 47 35 0 6-3 9-10 9-11 0-9-26-36-26-5 0-9 2-14 2-7 0-10-3-10-9 0-11 16-11 23-11 z" fill="#290118"/>
		<path d="M982 993c23 0 44 19 44 45 0 13-1 22-14 29-4 0-6-5-7-8 0-4 7-10 7-21 0-18-15-31-31-31-8 0-15 5-18 5-5 0-7-2-7-7 0-10 19-12 26-12 z" fill="#000000"/>
		<path d="M932 1024c8 0 13 20 21 40 4 10 14 17 14 24 0 7-3 10-10 10-16 0-34-49-34-64 0-7 3-10 9-10 z" fill="#000000"/>
	</g></svg>
