<svg version="1.1" xmlns="http://www.w3.org/2000/svg"><g transform="scale(1,-1)">
		<path d="M2125-287c156 0 287 125 287 287l0 1438c0 156-125 287-287 287l-1438 0c-156 0-287-125-287-287l0-1438c0-161 130-287 287-287l1438 0 z" fill="#00A6ED"/>
		<path d="M2089-144l-1366 0c-58 0-108 49-108 108l0 935c0 59 49 107 108 107l1366 0c58 0 108-47 108-107l0-935c0-58-49-108-108-108 z M2089-72c19 0 36 15 36 36l0 935c0 18-17 36-36 36l-1366 0c-18 0-36-17-36-36l0-935c0-19 15-36 36-36l1366 0 z M1675 0l-539 0c-11 0-18 7-18 18l0 683c0 11 7 18 18 18l126 0c0 81 67 144 144 144 81 0 144-67 144-144l125 0c11 0 18-7 18-18l0-683c0-11-7-18-18-18 z M1127 1078c24 0 47 4 70 11 22 7 43 17 62 30 19 13 35 28 50 47 15 18 27 38 36 60l131 0c11 0 19 2 25 6 6 4 12 9 17 14 5 5 10 9 15 13 5 4 12 6 21 6 7 0 12-1 17-3 4-3 8-5 11-8 3-3 7-5 12-7 4-3 9-4 16-4 7 0 12 1 17 4 4 2 8 4 11 7 3 3 7 5 11 8 4 2 9 3 16 3 9 0 16-2 21-6 5-4 11-8 16-13 5-5 10-10 17-14 6-4 14-6 25-6l50 0 27 1c25 3 46 13 63 28 17 15 25 37 25 64 0 31-10 55-31 70-21 15-45 23-74 23l-465 0c-19 42-48 75-86 99-38 24-80 36-126 36-32 0-62-6-90-18-29-13-53-29-74-50-21-21-38-46-50-75-13-29-19-59-19-91 0-32 6-62 18-91 12-29 29-54 50-75 21-21 45-38 74-50 28-13 58-19 91-19 z M1909 0c39 0 72 31 72 72l0 575c0 39-31 72-72 72l-126 0c-11 0-18-7-18-18l0-683c0-11 7-18 18-18l126 0 z M1029 0c11 0 18 7 18 18l0 683c0 11-7 18-18 18l-126 0c-39 0-72-31-72-72l0-575c0-39 31-72 72-72l126 0 z M1478 719c0 39-31 72-72 72-39 0-72-31-72-72l144 0 z M1010 1259c-30 0-54 22-54 54 0 30 25 54 54 54 29 0 54-24 54-54 0-30-22-54-54-54 z" fill="#FFFFFF"/>
	</g></svg>
