<svg version="1.1" xmlns="http://www.w3.org/2000/svg" viewBox="0 0 2300 2300"><g transform="scale(1,-1) translate(-256, -1869)">
		<path d="M828 626l179 82-84 176-176-84 81-174 z" fill="#452829"/>
		<path d="M2090 537l-258 447c-26 46-74 74-129 74-51 0-100-26-128-74l-258-447 773 0 z M834 778c82 0 216 91 216 184 0 53-47 95-86 125l0 1c6 8 9 17 9 27 0 42-61 34-96 40-48 37-82 70-143 70-71 0-112-41-146-87-33-45-69-84-69-144 0-40 17-79 45-109 3-3 11-12 14-13 37-16 74-30 111-45 42-18 98-49 145-49 z" fill="#573739"/>
		<path d="M728 708c25 0 65 51 65 76 0 51-121 95-121 163 0 7 2 15 7 19-15 12-23 36-23 55 0 78 88 124 88 199 0 43-47 89-90 89-26 0-50-16-64-34-39-50-37-89-89-128-54-41-102-103-102-170 0-52 32-93 69-123 44-36 126-89 186-89 12 0 33 3 43 14-8-10-12-20-12-31 0-23 21-40 43-40 z" fill="#000000"/>
		<path d="M728 866c18 0 38 8 50 23l-99 77c-9-12-13-25-13-38 0-34 26-62 62-62 z" fill="#452829"/>
		<path d="M932 992c18 0 54 17 54 40 0 7-3 11-10 11-13 0-13-30-43-30-5 0-10 3-15 3-7 0-11-4-11-11 0-12 15-13 25-13 z" fill="#290118"/>
		<path d="M819 1047c11 0 56 61 56 69 0 3-1 10-6 10-7 6-16 9-26 9-27 0-49-24-49-50 0-12 10-38 25-38 z" fill="#FFFFFF"/>
		<path d="M845 1073l33 43c-7 12-22 19-35 19-14 0-26-9-26-24 0-18 14-32 28-38 z" fill="#7D4533"/>
		<path d="M857 1088l16 21c-5 10-12 15-23 15-8 0-15-5-15-13 0-11 11-23 22-23 z" fill="#000000"/>
		<path d="M850 1117l5 2 1 3c0 4-5 8-8 8-4-2-6 1-6-5 0-5 3-8 8-8 z" fill="#FFFFFF"/>
		<path d="M756 1092c7 0 11 4 11 12 0 27 28 55 28 61 0 7-4 11-11 11-21 0-39-56-39-73 0-7 4-11 11-11 z" fill="#000000"/>
		<path d="M1851 423c129 0 230 105 230 230 0 129-105 230-230 230-52 0-104-18-146-52-30 43-81 72-137 72-41 0-80-15-111-43-38 78-116 131-208 131-129 0-230-105-230-230 0-129 105-230 230-230 75 0 148 36 192 102 32-40 80-61 127-61 23 0 43 5 63 13 30-99 122-162 220-162 z" fill="#26C9FC"/>
		<path d="M2197 719l0 737c0 149-120 269-270 269-149 0-269-119-269-269l0-34c-74-26-120-85-137-155l-1-8c0-19 17-37 38-37l318 0c24 0 63 7 63 38l-1 7c-14 71-68 131-137 155l0 34c0 70 58 125 126 125 69 0 126-54 126-125l0-737 144 0 z" fill="#9B9B9B"/>
		<path d="M1940-216c-15 0-27 5-37 15l-73 73c-10 10-15 22-15 37 0 29 22 52 52 52 15 0 27-5 37-15l73-73c10-10 15-22 15-37 0-29-22-52-52-52 z M942-216c15 0 27 5 37 15l73 73c10 10 15 22 15 37 0 29-22 52-52 52-15 0-27-5-37-15l-73-73c-11-11-16-23-16-37 0-31 26-52 53-52 z" fill="#9B9B9B"/>
		<path d="M1693-108c255 0 479 166 552 414l91 311c3 9 4 19 4 30 0 58-47 108-107 108l-1582 0c-59 0-107-49-107-107 0-12 1-22 4-31l90-311c73-248 299-414 552-414l503 0 z" fill="#E1D8EC"/>
		<path d="M2340 647c39 0 72 31 72 72 0 39-31 72-72 72l-1797 0c-40 0-71-34-71-72 0-38 31-72 71-72l1797 0 z" fill="#F3EEF8"/>
	</g></svg>
