<svg version="1.1" xmlns="http://www.w3.org/2000/svg"><g transform="scale(1,-1)">
		<path d="M2233-287c18 0 35 17 35 36l0 107-107 72-108-72 0-107c0-19 15-36 36-36l144 0 z M723-287c19 0 36 15 36 36l0 107-108 72-108-72 0-107c0-18 17-36 36-36l144 0 z" fill="#8D65C5"/>
		<path d="M1047 324c23 0 43 1 60 4 17 3 37 5 60 8l239 24 0 251-168 0c-17 0-31 0-42-1l-42 1-167 24c-17 3-31 5-42 8-11 3-25 4-42 4-17 0-31-1-42-4-11-3-25-5-42-8l-168-24c-10-1-18-5-25-10-7-6-11-15-11-26l0-179c0-11 4-20 11-25 7-6 15-10 25-11l264-24 35-4 31-4 31-3c10-1 22-1 35-1 z" fill="#E1D8EC"/>
		<path d="M2340-144c39 0 72 34 72 72l0 432-1797 0 0 682c0 60-49 108-107 108-61 0-108-48-108-108l0-1114c0-38 33-72 72-72l1868 0 z" fill="#533566"/>
		<path d="M2376 288c19 0 36 15 36 36l0 144c0 138-108 251-251 251l-719 0c-61 0-108-48-108-108l0-287c0-19 15-36 36-36l1006 0 z M1154 611c34 0 36 29 36 54 0 71-60 112-121 125-106 24-223 73-328 73-69 0-126-56-126-126l0-90c0-19 15-36 36-36l503 0 z" fill="#3F5FFF"/>
	</g></svg>
