<svg version="1.1" xmlns="http://www.w3.org/2000/svg"><g transform="scale(1,-1)">
		<path d="M2125-287c156 0 287 125 287 287l0 1438c0 156-125 287-287 287l-1438 0c-156 0-287-125-287-287l0-1438c0-161 130-287 287-287l1438 0 z" fill="#00A6ED"/>
		<path d="M939 764c13 0 22 4 27 12 5 7 9 16 10 27l1 22 0 10-2 28 108 0c9 0 18 4 25 11 7 7 10 16 10 25l0 359c0 9-3 18-10 25-7 7-16 11-25 11l-288 0c-10 0-18-3-25-10-7-7-11-16-11-26l0-375c0-13 4-22 13-27l56-33c13-9 27-17 42-26 14-9 28-16 41-23 13-7 22-10 28-10 z M2017 0c19 0 36 15 36 36l0 563c0 19-15 36-36 36-9 0-17-3-25-10l-575-550c-7-7-11-16-11-26 0-23 5-49 36-49l575 0 z M1428 214c6 0 11 2 15 6l544 509c8 8 12 17 12 26 0 19-15 36-36 36l-523 0c-29 0-55-11-76-32l-257-256-242 0c-59 0-107-48-107-108 0-57 45-108 107-108l286 0c29 0 55 11 76 32l179 178 0-261c0-12 10-22 22-22 z M1038 935l-54 0c-6 0-9 3-9 9l0 191c0 33-53 59-59 78 0 6 3 9 9 9l113 0c6 0 9-3 9-9l0-269c0-6-3-9-9-9 z M1729 863c119 0 252 79 252 215l0 36c0 19-15 36-36 36l-431 0c-19 0-36-15-36-36l0-36c0-139 138-215 251-215 z M1945 1222c19 0 36 15 36 36l0 148c0 18-17 36-36 36l-482 0c-18 0-36-17-36-36 0-20 40-93 51-112l-108 0c-19 0-36-15-36-36 0-19 15-36 36-36l575 0 z" fill="#FFFFFF"/>
	</g></svg>
