<svg version="1.1" xmlns="http://www.w3.org/2000/svg"><g transform="scale(1,-1)">
		<path d="M2312-287c55 0 102 44 102 101l0 946c0 56-45 103-102 103l-875 0c-57 0-102-46-102-103l0-945c0-56 45-102 102-102l875 0 z" fill="#F9C23C"/>
		<path d="M1877 143c189 0 394 130 394 345l0 193c0 19-15 36-36 36-19 0-36-15-36-36l0-193c0-170-168-273-322-273-151 0-323 102-323 273l0 193c0 19-15 36-36 36-19 0-36-15-36-36l0-193c0-220 212-345 395-345 z" fill="#FF6723"/>
		<path d="M1559-141c64 0 124 50 124 123l0 1188c0 65-54 124-124 124l-1035 0c-69 0-124-57-124-124l0-1187c0-70 58-124 124-124l1035 0 z" fill="#00A6ED"/>
		<path d="M1683 0l0 168-1283 0 0-168 1283 0 z M1683 323l0 167-1283 0 0-167 1283 0 z M1683 646l0 167-1283 0 0-167 1283 0 z M1444 1078c19 0 36 15 36 36l0 221c0 230-209 390-432 390-213 0-433-153-433-390l0-221c0-19 15-36 36-36 19 0 36 15 36 36l0 221c0 198 188 318 361 318 174 0 360-121 360-318l0-221c0-19 15-36 36-36 z" fill="#0074BA"/>
	</g></svg>
