<svg version="1.1" xmlns="http://www.w3.org/2000/svg" viewBox="0 0 2300 2300"><g transform="scale(1,-1) translate(-256, -1869)">
		<path d="M2008-72c50 0 96 10 136 31 41 21 76 48 104 83 28 34 50 73 66 118 16 44 23 89 23 136 0 45-7 89-23 132-16 42-38 79-66 112-28 32-62 58-102 78-42 20-83 29-132 29l0 1c10 1 17 5 22 12 5 7 7 15 7 24 0 11-4 20-12 26l189 728-1593 0c-30 0-60-6-88-19-28-13-53-30-75-51-22-21-39-46-51-74-10-25-16-51-16-78l0-12 18-305 19-306c3-44 14-83 34-117 20-34 46-63 77-87 31-25 66-44 105-58 39-14 78-23 118-26l1134-89 75 287 38 0c29 0 54-6 76-19 22-13 41-29 56-50 16-21 27-44 35-69 8-25 12-51 12-77 0-26-4-52-14-78-9-26-22-49-38-69-16-21-36-37-60-50-23-13-49-19-77-19l-1536 0c-20 0-37-6-51-19-14-13-21-29-21-50 0-19 7-37 21-52 14-15 30-23 50-23l1540 0 z M1232 719l-331 0 0 287 331 0 0-287 z M1619 719l-315 0 0 287 315 0 0-287 z M1690 388l0 259 99 0-49-197c-7-29-24-49-50-62 z M1619 381l-315 25 0 241 315 0 0-266 z M1232 412l-331 26 0 209 331 0 0-235 z M829 444c-99 5-240 34-251 158l-3 45 254 0 0-203 z M829 719l-258 0-18 287 276 0 0-287 z M829 1078l-281 0c-2 43-8 87-8 130 0 48 39 87 87 87l202-1 0-216 z M1232 1078l-331 0 0 216 331 0 0-216 z M1619 1078l-315 0 0 216 315 0 0-216 z M1895 1078l-205 0 0 215 141 0c52 0 92-41 92-90 0-36-19-89-28-125 z M1807 719l-117 0 0 287 188 0-71-287 z" fill="#9B9B9B"/>
		<path d="M1913 144c34 0 64 19 74 55l351 1364c1 7 2 12 2 17 0 44-35 73-76 73-34 0-65-21-74-55l-351-1364c-1-7-2-12-2-17 0-42 37-73 76-73 z" fill="#BEBEBE"/>
		<path d="M1945-287c57 0 108 46 108 108 0 58-47 107-108 107-60 0-108-49-108-107 0-63 50-108 108-108 z M651-287c57 0 108 46 108 108 0 58-47 107-108 107-58 0-108-47-108-107 0-58 49-108 108-108 z M2340 1510c38 0 72 31 72 71 0 39-31 72-72 72l-143 0c-39 0-72-31-72-72 0-40 34-71 72-71l143 0 z" fill="#0084CE"/>
	</g></svg>
