<svg version="1.1" xmlns="http://www.w3.org/2000/svg" viewBox="0 0 2300 2300"><g transform="scale(1,-1) translate(-256, -1869)">
		<path d="M2125-287c156 0 287 125 287 287l0 1438c0 156-125 287-287 287l-1438 0c-156 0-287-125-287-287l0-1438c0-161 130-287 287-287l1438 0 z" fill="#00A6ED"/>
		<path d="M2053-72c81 0 144 67 144 144l0 1078c0 81-67 144-144 144l-1294 0c-81 0-144-67-144-144l0-1078c0-81 67-144 144-144l1294 0 z M2053 0l-1294 0c-39 0-72 31-72 72l0 1078c0 39 31 72 72 72l1294 0c39 0 72-31 72-72l0-1078c0-39-31-72-72-72 z M1882 152c11 0 21 4 29 12 7 7 11 17 11 28l0 248c11 0 21 3 29 9 7 6 11 15 11 27 0 6-2 18-5 35-3 17-8 37-13 60l-17 73c-7 25-13 50-19 74l-26 105 45 0 48-215c2-9 6-16 13-21 6-5 13-8 22-8 12 0 22 5 31 14 9 9 13 20 13 31 0 6-2 21-7 44l-17 75-31 128-1-1c-5 15-14 27-26 36-13 9-27 13-42 13l-258 0c-15 0-29-4-41-13-13-9-21-21-26-36l-2 1c-1-7-4-17-7-30l-23-98c-5-19-9-36-12-52l-8-42c-3-13-4-21-4-26 0-11 4-21 13-30 8-9 18-14 30-14 9 0 17 3 23 8 6 5 10 12 12 21l49 215 45 0-80-335c-1-4-1-7-1-11 0-9 3-17 9-23 8-9 19-14 32-14l0-248c0-11 4-21 12-28 7-8 17-12 28-12 11 0 21 4 29 12 7 7 11 17 11 28l0 248 80 0 0-248c0-11 4-21 12-28 8-8 18-12 29-12 z M1801 935c57 0 108 45 108 107 0 57-46 108-108 108-58 0-108-49-108-108 0-59 49-107 108-107 z M1406 72c39 0 72 31 72 72l0 934c0 39-31 72-72 72-39 0-72-31-72-72l0-934c0-39 31-72 72-72 z M1077 144c26 0 48 19 48 46l0 574c0 13 9 23 23 23 12 0 23-11 23-23l0-224c0-27 22-46 48-46 26 0 43 24 43 47l0 236c0 56-45 102-102 102l-299 0c-56 0-102-45-102-102l0-236c0-23 17-47 44-47 26 0 48 19 48 46l0 224c0 12 10 23 22 23 13 0 23-9 23-23l0-573c0-23 17-47 44-47 26 0 48 19 48 46l0 321c0 12 11 22 23 22 12 0 23-10 23-22l0-320c0-23 17-47 43-47 z M1011 935c59 0 107 49 107 107 0 60-49 108-107 108-61 0-108-48-108-108 0-59 48-107 108-107 z M1657 1348c15 0 25 6 32 18 16 27 98 157 98 180 0 21-18 35-36 35l-187 0c-18 0-36-14-36-35 0-17 46-96 76-144 29-48 33-54 53-54 z M1248 1348c21 0 36 18 36 36 0 18-45 93-76 143-30 48-31 54-54 54-12 0-24-7-31-18-17-28-98-156-98-179 0-19 15-36 36-36l187 0 z" fill="#FFFFFF"/>
	</g></svg>
