<svg version="1.1" xmlns="http://www.w3.org/2000/svg" viewBox="0 0 2300 2300"><g transform="scale(1,-1) translate(-256, -1869)">
		<path d="M2340-287l0 215-72 0 0 216-71 0 0 216-72 0 0 215-144 0 0 216-1150 0 0-216-144 0 0-215-72 0 0-216-72 0 0-216-71 0 0-215 790 0 144 72 144-72 790 0 z M1622 1151l0 143c-52 8-174 36-216 36-46 0-166-28-216-36l0-143 432 0 z" fill="#A56953"/>
		<path d="M2376-144c18 0 36 17 36 36 0 19-15 36-36 36l-1940 0c-19 0-36-15-36-36 0-19 18-36 36-36l1940 0 z M2304 72c19 0 36 17 36 35 0 22-15 37-36 37l-1796 0c-21 0-36-16-36-35 0-22 15-37 36-37l1796 0 z M2233 288c19 0 35 15 35 36 0 19-17 36-35 36l-1654 0c-19 0-36-18-36-36 0-19 15-36 36-36l1654 0 z M2162 503c19 0 35 17 35 35 0 21-16 37-38 37l-1509 0c-19 0-35-16-35-34 0-19 13-38 35-38l1512 0 z M2016 719c19 0 37 14 37 36 0 19-16 36-37 36l-1220 0c-21 0-37-17-37-36 0-19 16-36 37-36l1220 0 z M1654 1294c10 0 18 4 25 11 7 7 10 16 10 26 0 11-2 18-6 23-5 4-10 7-17 9-7 1-14 2-22 2l-7 0-15 1c-15 2-32 5-51 9l-60 12c-20 4-39 8-58 11-19 3-34 4-47 4-13 0-29-1-48-4-19-3-38-7-58-11l-59-12c-19-4-36-7-51-9l-16-1-6 0c-7 0-14-1-19-2-6-2-11-5-14-10-4-5-6-13-6-24 0-9 4-17 11-24 7-7 15-11 24-11l490 0 z" fill="#212121"/>
		<path d="M1909-287l0 1222c0 157-129 288-287 288l-432 0c-160 0-287-129-287-288l0-1222 215 0 288 108 287-108 216 0 z M1622 1366c0 38-33 72-72 72l-289 0c-40 0-71-35-71-72l432 0 z" fill="#FF6723"/>
		<path d="M1693-287l0 503-575 0 0-503 144 0 144 72 144-72 143 0 z M1678 218l-115 410-335 0-114-410 564 0 z" fill="#6D4534"/>
		<path d="M1548-287l0 295c0 35-30 64-64 64l-158 0c-35 0-64-30-64-64l0-295 286 0 z M1549 718c0 40-32 73-73 73l-140 0c-40 0-74-32-74-73l287 0 z" fill="#212121"/>
		<path d="M1406 791c19 0 36 15 36 36 0 19-15 36-36 36-19 0-36-15-36-36 0-19 15-36 36-36 z M1651 575l-489 0c-22 0-43 18-43 41 0 7 1 12 4 17l35 64c8 14 21 21 38 21l421 0c15 0 31-8 38-21l34-64c3-5 5-11 5-18 0-23-21-40-43-40 z M1722 360c22 0 43 16 43 39 0 6-2 12-5 19l-34 64c-7 15-22 22-38 22l-564 0c-16 0-31-7-38-22l-34-64c-3-5-5-11-5-18 0-23 21-40 43-40l632 0 z M1793 144l-777 0c-22 0-42 18-42 41 0 11 7 26 16 42 22 40 33 61 61 61l708 0c16 0 31-7 38-22l34-64c3-5 5-11 5-18 0-23-21-40-43-40 z M1443 1438c18 0 36 17 36 36 0 30-25 36-48 36 28 11 47 35 47 66 0 34-30 149-72 149-42 0-72-111-72-146 0-30 17-58 47-69-23 0-47-7-47-36 0-18 17-36 36-36l73 0 z" fill="#FFB02E"/>
	</g></svg>
