<svg version="1.1" xmlns="http://www.w3.org/2000/svg" viewBox="0 0 2300 2300"><g transform="scale(1,-1) translate(-256, -1869)">
		<path d="M2268-287l0 934-1725 0 0-934 616 0 252 381 252-381 605 0 z" fill="#6D4534"/>
		<path d="M2325 504c48 0 82 36 82 82 0 11-1 21-4 32l-5 8c-21 37-54 92-90 143-211 303-423 561-716 816-51 44-113 68-181 68-68 0-129-24-180-67-325-275-598-609-813-949-4-7-10-12-13-19-3-11-5-22-5-32 0-46 33-82 81-82 113 0 126 74 233 74 111 0 123-74 231-74 111 0 125 74 230 74 111 0 123-74 231-74 114 0 126 74 231 74 113 0 125-74 232-74 114 0 126 74 231 74 107 0 130-74 225-74 z" fill="#F3AD61"/>
		<path d="M1693-287l0 343c0 96-93 160-183 160l-209 0c-88 0-183-63-183-160l0-343 575 0 z" fill="#212121"/>
	</g></svg>
