<svg version="1.1" xmlns="http://www.w3.org/2000/svg" viewBox="0 0 2300 2300"><g transform="scale(1,-1) translate(-256, -1869)">
		<path d="M1712-287c69 0 137 26 189 78l433 433c52 52 78 120 78 189l0 612c0 69-26 137-78 189l-433 433c-52 52-120 78-189 78l-612 0c-69 0-137-26-189-78l-433-433c-52-52-78-120-78-189l0-612c0-69 26-137 78-189l433-433c52-52 120-78 189-78l612 0 z" fill="#D3D3D3"/>
		<path d="M1652-144c74 0 141 30 190 79l348 348c52 52 78 120 78 189l0 493c0 69-26 138-78 190l-348 348c-52 52-121 78-190 78l-493 0c-69 0-137-26-189-78l-348-348c-49-49-79-116-79-190l0-493c0-70 27-137 79-189l348-348c52-52 119-79 189-79l493 0 z" fill="#F8312F"/>
	</g></svg>
