<svg version="1.1" xmlns="http://www.w3.org/2000/svg" viewBox="0 0 2300 2300"><g transform="scale(1,-1) translate(-256, -1869)">
		<path d="M2160 72c13 0 26 7 37 16l199 189c9 9 16 20 16 33 0 15-7 27-16 36l-696 660-366-473 791-445c14-7 18-16 35-16 z" fill="#F92F60"/>
		<path d="M998-287c10 0 19 4 26 11l84 84c7 7 11 16 11 25 0 7-2 13-6 19l-212 354 2 2c-7 4-4 1-8 8l-1-2-355 212c-6 4-12 6-19 6-9 0-18-4-25-11l-84-84c-7-7-11-16-11-26 0-10 4-19 11-26l561-561c7-7 16-11 26-11 z M2160 72c13 0 26 7 37 16l199 189c9 9 16 20 16 33 0 15-7 27-16 36l-696 660-366-473 247-139 256-34 134-186 154-86c14-7 18-16 35-16 z M1220 647l474 366-661 696c-9 9-22 16-35 16-13 0-25-8-34-17l-189-199c-9-11-16-24-16-37 0-9 2-15 6-19 14-16 86-159 97-170 16-21 122-108 149-133l47-171c5-17 8-31 10-43 6-39 34-82 59-124l93-165 z" fill="#F92F60"/>
		<path d="M2219 1150c28 0 49 25 49 49 0 13-4 24-13 33l-336 336c-9 9-20 13-33 13-26 0-49-22-49-49 0-12 5-23 14-32l336-336c9-9 20-14 32-14 z" fill="#635994"/>
		<path d="M1971 174l67 68c8 9 12 19 12 28 0 11-4 21-12 29l-248 248c-7 7-17 11-29 11-11 0-21-4-28-11l-152-153 390-220 z" fill="#FFFFFF"/>
		<path d="M2003 1186l132 132c17 17 25 37 25 62 0 48-42 93-93 93-25 0-45-8-62-25l-132-132 130-130 z" fill="#321B41"/>
		<path d="M847 72c21 0 39 6 54 18l1117 860c67 51 107 128 107 216 0 149-122 272-272 272-88 0-165-40-216-107l-859-1117c-13-17-19-35-19-54 0-47 37-88 88-88 z" fill="#CDC4D6"/>
		<path d="M657-72c11 0 20 4 28 12l350 350c7 7 11 17 11 28 0 23-20 41-41 41-11 0-21-4-28-11l-350-350c-8-8-12-17-12-28 0-22 19-42 42-42 z" fill="#B4ACBC"/>
		<path d="M1986 1079c40 0 67 65 67 101 0 33-12 62-36 86-44 41-83 100-150 100-35 0-102-26-102-68 0-10 4-19 11-26l182-182c7-7 17-11 28-11 z" fill="#00A6ED"/>
		<path d="M1971 174l67 68c8 9 12 19 12 28 0 11-4 21-12 29l-248 248c-7 7-17 11-29 11-11 0-21-4-28-11l-152-153 390-220 z M1082 893l152 153c8 8 12 17 12 28 0 11-4 21-12 29l-248 248c-7 7-17 11-29 11-11 0-21-4-28-11l-67-68 220-390 z" fill="#F4F4F4"/>
	</g></svg>
