<svg version="1.1" xmlns="http://www.w3.org/2000/svg" viewBox="0 0 2300 2300"><g transform="scale(1,-1) translate(-256, -1869)">
		<path d="M2124-215c121 0 216 97 216 215 0 59-24 114-63 153l-1078 1078-305-305 1078-1078c42-42 98-63 152-63 z" fill="#7D4533"/>
		<path d="M891-231c198 0 363 159 363 364 0 36-5 71-16 106l700 704c37-11 74-17 111-17 199 0 363 160 363 364 0 34 0 119-51 119-11 0-21-4-30-13l-183-183c-8-8-18-12-30-12-12 0-22 4-30 12l-116 116c-8 8-12 18-12 29 0 12 4 22 12 30l184 184c8 8 12 18 12 29 0 52-82 53-119 53-198 0-363-159-363-364 0-37 6-73 17-109l-698-703c-37 12-76 19-115 19-193 0-362-157-362-364l1-34c2-39 12-85 51-85 11 0 21 4 29 12l183 184c8 8 18 12 30 12 12 0 22-4 30-12l116-116c8-8 12-18 12-30 0-12-4-22-12-30l-184-183c-8-8-12-18-12-29 0-13 5-23 14-30 28-22 76-23 105-23 z M924 808c10 0 19 4 26 11l356 356c7 7 10 15 10 25 0 11-3 19-10 26l-140 140c-11 11-17 21-17 36 0 11 6 29 13 36l196 195c7 7 10 15 10 25 0 19-14 34-32 37l-230 24c-11 0-21-2-29-10l-508-509c-7-7-11-16-11-26 0-12 5-14 11-25l118-214 212-116c11-6 13-11 25-11 z" fill="#B4ACBC"/>
		<path d="M810 594c5 0 10 2 13 5 47 47 89 80 89 148 0 39-16 76-42 102l-280 280c-26 26-63 42-102 42-69 0-103-43-147-89-3-3-5-8-5-13 0-5 2-9 5-12l457-458c3-3 7-5 12-5 z" fill="#CDC4D6"/>
	</g></svg>
