<svg version="1.1" xmlns="http://www.w3.org/2000/svg" viewBox="0 0 2300 2300"><g transform="scale(1,-1) translate(-256, -1869)">
		<path d="M1683 623l191 110c23 14 35 34 35 60 0 38-30 70-70 70-13 0-24-3-35-9l-191-110 70-121 z M1354 1198l192 110c21 12 35 34 35 60 0 38-30 70-70 70-13 0-25-3-35-9l-191-110 69-121 z" fill="#9B9B9B"/>
		<path d="M957 563c73 0 145 20 209 56l1130 652c76 44 116 124 116 205 0 136-110 249-245 249-41 0-79-10-115-31l-555-319-284-47-77-162-214-123-273-24-90-186 34-60c74-127 212-210 364-210 z" fill="#CDC4D6"/>
		<path d="M2117 1457c8 0 17 2 26 7l236 137 0 1c-18 31-42 57-72 79l-217-125c-17-10-26-25-26-46 0-30 24-53 53-53 z" fill="#00A6ED"/>
		<path d="M1554 295c-66 0-122 54-122 119l51 586c3 28 17 53 43 68l298 173c10 6 21 9 33 9 33 0 66-28 66-66 0-7-1-13-3-20l-251-785c-16-49-60-84-115-84 z M559 833c-20 36-159 257-159 287 0 57 123 78 169 78 51 0 99-12 143-37l211-118-364-210 z M1135 1166l364 210-463 100c-9 2-18 3-26 3-67 0-121-54-121-121 0-49 29-91 70-110l176-82 z" fill="#0084CE"/>
		<path d="M2341-287c40 0 71 34 71 72l0 287c0 38-31 72-71 72l-1869 0c-39 0-72-31-72-72l0-287c0-39 31-72 72-72l1869 0 z" fill="#636363"/>
		<path d="M2233-108c18 0 35 17 35 36 0 19-17 36-35 36l-252 0c-19 0-36-15-36-36 0-19 15-36 36-36l252 0 z M1765-108c19 0 36 15 36 36 0 19-15 36-36 36l-251 0c-19 0-36-15-36-36 0-19 15-36 36-36l251 0 z M1298-108c19 0 36 15 36 36 0 19-15 36-36 36l-251 0c-19 0-36-15-36-36 0-19 15-36 36-36l251 0 z M831-108c19 0 36 15 36 36 0 19-15 36-36 36l-252 0c-18 0-36-17-36-36 0-18 17-36 36-36l252 0 z" fill="#9B9B9B"/>
	</g></svg>
