<svg version="1.1" xmlns="http://www.w3.org/2000/svg"><g transform="scale(1,-1)">
		<path d="M1412-252c44 0 113 9 153 26 60 27 217 156 271 210 255 263 391 721 391 1089l0 67c-1 48-7 97-20 141-38 119-136 102-207 152-70 48-87 119-120 187-29 57-94 105-172 105l-583 0c-51 0-97-15-136-50-74-66-69-176-164-242-67-46-116-24-176-97-40-50-50-125-51-198l-1-67c0-356 132-821 392-1087 51-51 212-183 270-210 39-17 110-26 153-26 z" fill="#E6E6E6"/>
		<path d="M1406-179c37 0 67 4 92 11 24 7 46 16 66 29 20 13 40 28 59 45 19 17 43 37 70 58 32 25 62 52 89 82 27 29 53 60 76 93 49 68 91 140 125 217 34 76 62 155 83 236 21 81 37 163 47 247 9 83 14 167 14 250l0 49-2 48c-1 27-7 49-18 67-11 17-29 31-54 41l-23 9-9 2-2-3-1 1-8 3-23 11c-24 12-45 26-63 43-19 17-35 35-50 55-15 19-28 40-39 63-12 22-23 45-34 68-11 23-24 41-41 53-17 12-39 18-66 18l-288 0-231-892 231-904 z" fill="#AEDDFF"/>
		<path d="M1408-179l0 1796-288 0c-27 0-49-6-66-18-17-12-30-30-41-53l-33-68c-12-23-25-44-40-63-15-20-31-38-49-55-19-17-40-31-64-43l-22-11-9-3-1-1 0 1c0 1-1 1-2 2l-9-2-23-9c-25-10-43-24-54-41-11-18-17-40-18-67-1-17-1-33-1-49-1-16-1-32-1-49 0-83 5-166 15-249 9-84 25-166 46-247 21-81 48-160 82-236 34-77 76-149 125-217 23-33 49-64 76-93 27-30 57-57 89-82 27-21 51-41 71-58 19-17 39-32 59-45 20-13 42-22 67-29 24-7 54-11 91-11 z" fill="#00A6ED"/>
	</g></svg>
