<svg version="1.1" xmlns="http://www.w3.org/2000/svg" viewBox="0 0 2300 2300"><g transform="scale(1,-1) translate(-256, -1869)">
		<path d="M1452 450c44 0 75 34 75 76 0 38-28 67-65 72l-231 31-20-147 241-32 z M1462 1171l158 52c-1 36-30 65-64 70l-231 30-8-61 145-91 z" fill="#9B9B9B"/>
		<path d="M1298 1186l243 47-324 382c-26 30-59 45-100 45-70 0-127-57-127-128 0-20 6-40 15-59l95-183 198-104 z M615 1294l228 30-102 235c-43 99-139 171-246 184-28 0-48-14-51-40l-42-321 213-88 z" fill="#0084CE"/>
		<path d="M2174 630c144 0 253 122 253 263 0 124-88 236-216 252l-1809 237c-7-43-14-86-14-130 0-224 166-412 387-441l1369-179c11-1 19-2 30-2 z" fill="#CDC4D6"/>
		<path d="M2426 856l1 19c1 7 2 13 2 18 0 27-4 52-12 76l-263 35-8 0c-15 0-28-5-39-16-11-11-16-24-16-39 0-13 5-26 14-37 9-11 21-18 34-19l287-37 z" fill="#00A6ED"/>
		<path d="M969 262c27 0 52 8 74 24l716 498c19 14 30 35 30 57 0 36-27 64-61 69l-362 47-12 1c-27 0-51-13-68-31l-411-449c-21-22-34-54-34-86 0-69 57-130 128-130 z" fill="#0084CE"/>
		<path d="M2341-287c40 0 71 34 71 72l0 287c0 38-31 72-71 72l-1869 0c-39 0-72-31-72-72l0-287c0-39 31-72 72-72l1869 0 z" fill="#636363"/>
		<path d="M2233-108c18 0 35 17 35 36 0 19-17 36-35 36l-252 0c-19 0-36-15-36-36 0-19 15-36 36-36l252 0 z M1765-108c19 0 36 15 36 36 0 19-15 36-36 36l-251 0c-19 0-36-15-36-36 0-19 15-36 36-36l251 0 z M1298-108c19 0 36 15 36 36 0 19-15 36-36 36l-251 0c-19 0-36-15-36-36 0-19 15-36 36-36l251 0 z M831-108c19 0 36 15 36 36 0 19-15 36-36 36l-252 0c-18 0-36-17-36-36 0-18 17-36 36-36l252 0 z" fill="#9B9B9B"/>
	</g></svg>
