<svg version="1.1" xmlns="http://www.w3.org/2000/svg" viewBox="0 0 2300 2300"><g transform="scale(1,-1) translate(-256, -1869)">
		<path d="M2053-144l0 1582-1294 0 0-1582 1294 0 z" fill="#00A6ED"/>
		<path d="M1981 1581l0 74c0 38-30 70-70 70l-218 0c-38 0-71-30-71-70l0-74 359 0 z" fill="#212121"/>
		<path d="M1981-144l0 1582-144 0 0-1582 144 0 z M1765-144l0 1582-72 0 0-1582 72 0 z" fill="#26EAFC"/>
		<path d="M2053 288c39 0 72 34 72 72 0 40-34 71-72 71l-1294 0c-38 0-72-31-72-71 0-39 34-72 72-72l1294 0 z M2053 863c39 0 72 34 72 72 0 40-34 71-72 71l-1294 0c-38 0-72-31-72-71 0-38 33-72 72-72l1294 0 z M2053-287c39 0 72 34 72 72 0 40-34 71-72 71l-1294 0c-38 0-72-31-72-71 0-38 33-72 72-72l1294 0 z M2053 1438c39 0 72 34 72 72 0 40-34 71-72 71l-1294 0c-38 0-72-31-72-71 0-38 33-72 72-72l1294 0 z" fill="#0074BA"/>
	</g></svg>
