<svg version="1.1" xmlns="http://www.w3.org/2000/svg" viewBox="0 0 2300 2300"><g transform="scale(1,-1) translate(-256, -1869)">
		<path d="M2125-144l0 432-144 0 0-432 144 0 z M1190-144l0 432-143 0 0-432 143 0 z" fill="#CA0B4A"/>
		<path d="M2340-215c38 0 72 31 72 71 0 39-31 72-72 72l-1653 0c-91 0-144 61-144 145 0 39-33 71-71 71-44 0-72-34-72-74 0-166 122-285 287-285l1653 0 z M903 360l0 143-216 0c-15 0-29 2-44 5-61 12-100 80-100 140 0 38-32 71-71 71-44 0-72-34-72-74 0-166 122-285 287-285l216 0 z" fill="#F8312F"/>
		<path d="M2233 216c58 0 107 47 107 108l0 115c0-39-31-72-72-72l-1365 0c-39 0-72 31-72 72l0-115c0-63 50-108 108-108l1294 0 z" fill="#E39D89"/>
		<path d="M2268 360l-1365 0c-38 0-72 31-72 71l0 108 36 36 1437 0 36-36 0-108c0-40-34-71-72-71 z M2304 611l36 36 0 144-36 36-1437 0-36-36 0-144 36-36 1437 0 z M2304 863l36 36 0 107c0 39-31 72-72 72l-1365 0c-39 0-72-31-72-72l0-107 36-36 1437 0 z" fill="#F3C07B"/>
		<path d="M2340 539l0 108-1509 0 0-108 1509 0 z M2340 791l0 108-1509 0 0-108 1509 0 z" fill="#F3AD61"/>
	</g></svg>
