<svg version="1.1" xmlns="http://www.w3.org/2000/svg" viewBox="0 0 2300 2300"><g transform="scale(1,-1) translate(-256, -1869)">
		<path d="M2089-287c138 0 251 108 251 251 0 138-110 252-251 252-139 0-252-113-252-252 0-138 111-251 252-251 z M723-287c138 0 252 110 252 251 0 139-113 252-252 252-138 0-251-111-251-252 0-138 108-251 251-251 z" fill="#433B6B"/>
		<path d="M2089-144c58 0 108 49 108 108 0 58-49 108-108 108-61 0-108-48-108-108 0-58 49-108 108-108 z M723-144c58 0 108 49 108 108 0 57-46 108-108 108-58 0-108-49-108-108 0-58 49-108 108-108 z" fill="#F3EEF8"/>
		<path d="M1710-72c30 0 55 23 55 55l0 377 432 0c41 0 59 21 67 51 3 15 5 30 5 47l-1 45c0 121-97 216-215 216l-755 0c-19 0-36-15-36-36l0-108c0-81 67-144 144-144l36 0c58 0 108-47 108-107 0-58-49-108-108-108l-276 0c-26 0-48 20-48 48l0 814c0 80-64 144-143 144-79 0-144-63-144-144l0-971c0-99 79-179 178-179l701 0 z" fill="#F92F60"/>
		<path d="M1190 1078c38 0 72 33 72 72 0 39-31 72-72 72l-215 0c-39 0-72-31-72-72 0-38 33-72 72-72l215 0 z" fill="#636363"/>
		<path d="M867 575c19 0 36 15 36 36l0 216c0 19-15 36-36 36l-36 0 0-288 36 0 z" fill="#F9C23C"/>
		<path d="M1014 0c18 0 33 14 33 33 0 179-144 327-324 327-178 0-323-147-323-327 0-19 14-33 32-33l582 0 z M2340-72c39 0 72 31 72 72l0 186c0 137-112 245-245 245l-294 0c-138 0-251-108-251-251 0-138 110-252 251-252l467 0 z" fill="#CA0B4A"/>
		<path d="M1885 719c13 0 24 10 24 24 0 68-57 120-120 120l-407 0c-68 0-120-57-120-120 0-13 10-24 24-24l599 0 z" fill="#8C5543"/>
	</g></svg>
