<svg version="1.1" xmlns="http://www.w3.org/2000/svg" viewBox="0 0 2300 2300"><g transform="scale(1,-1) translate(-256, -1869)">
		<path d="M1765 72l215 72 72 359-182 0c-57 0-105-46-105-105l0-326 z M1621 72l-72 431-110 0c-58 0-106-48-106-105l0-254 288-72 z" fill="#433B6B"/>
		<path d="M1622 647l0 647-72 0 0-647 72 0 z" fill="#D3D3D3"/>
		<path d="M2340-72l0 791-359 0 0-402c-74-39-134-99-173-173l-187 0 0 575-72 0 0-575-359 0 0 582-412 0-20-7c-21-64-41-115-41-186 0-86 25-140 62-214-19 3-37 5-56 5-167 0-323-136-323-312 0-6 6-12 12-12l526 0 36-72 1366 0 z" fill="#008463"/>
		<path d="M2340 216l0 215-50 0c-12 0-22-10-22-22l0-121c0-39 31-72 72-72 z" fill="#F8312F"/>
		<path d="M723-287c-35 0-67 7-98 20-106 44-153 136-153 249 0 6 1 12 2 18l498 0c2-12 3-24 3-36 0-138-111-251-252-251 z M2160-287c138 0 251 108 251 251 0 138-110 252-251 252-139 0-252-113-252-252 0-138 111-251 252-251 z" fill="#321B41"/>
		<path d="M723-144c-58 0-108 49-108 108 0 12 2 24 6 36l204 0c4-12 6-24 6-36 0-58-49-108-108-108 z M2161-144c59 0 107 49 107 108 0 60-49 108-107 108-61 0-108-48-108-108 0-58 49-108 108-108 z" fill="#E6E6E6"/>
		<path d="M867 214c58 0 108 49 108 108 0 60-47 109-108 109l-109 0 0-217 109 0 z" fill="#00D26A"/>
		<path d="M758 214l0 217c-38 0-72-33-72-72l0-73c0-39 34-72 72-72 z M2339 719l0 364c0 188-147 355-354 355l-1016 0c-68 0-133-35-169-100-3-3-14-30-14-32 0-7 1-12 9-12l155 0-11-288-105-143c-20-27-34-43-52-72 0 0-21-67-24-72l431 0 0 575 791 0 0-575 359 0 z" fill="#F9C23C"/>
		<path d="M879 791c87 0 168 69 168 167l0 336-97 0-167-503 96 0 z" fill="#26C9FC"/>
	</g></svg>
