<svg version="1.1" xmlns="http://www.w3.org/2000/svg" viewBox="0 0 2300 2300"><g transform="scale(1,-1) translate(-256, -1869)">
		<path d="M1512 511c256 0 464 206 464 463 0 255-206 464-464 464-247 0-463-198-463-464 0-256 206-463 463-463 z" fill="#26C9FC"/>
		<path d="M1693-287l-34 572-559 146-485-718 1078 0 z" fill="#FCD53F"/>
		<path d="M1909 161c201 0 394 76 545 219l-650 254c-112 44-205 94-325 127-119 32-238 37-360 56l-719 113c80-270 284-467 553-541 176-49 394-105 564-151 127-35 261-77 392-77 z" fill="#9B9B9B"/>
		<path d="M2454 380c-80 269-282 463-554 541-189 52-366 98-563 152-125 33-264 77-393 77-205 0-403-84-544-220l2054-550 z" fill="#D3D3D3"/>
		<path d="M1765 1078c38 0 72 33 72 72 0 39-31 72-72 72-38 0-72-33-72-72 0-38 33-72 72-72 z" fill="#FFFFFF"/>
		<path d="M2049 577c40 0 71 34 71 72 0 38-31 72-71 72-39 0-72-31-72-72 0-39 34-72 72-72 z M1755 656c-38 0-72 33-72 72 0 40 34 71 72 71 38 0 72-31 72-71 0-39-31-72-72-72 z M1462 734c-39 0-72 31-72 72 0 39 31 72 72 72 39 0 72-31 72-72 0-39-31-72-72-72 z M1168 813c-39 0-72 31-72 72 0 39 31 72 72 72 39 0 72-31 72-72 0-39-31-72-72-72 z M875 891c38 0 72 33 72 72 0 38-33 72-72 72-39 0-72-31-72-72 0-38 33-72 72-72 z" fill="#321B41"/>
	</g></svg>
