<svg version="1.1" xmlns="http://www.w3.org/2000/svg" viewBox="0 0 2300 2300"><g transform="scale(1,-1) translate(-256, -1869)">
		<path d="M2125-287c156 0 287 125 287 287 0 157-129 288-287 288-161 0-288-128-288-288 0-160 129-287 288-287 z M687-287c161 0 288 129 288 287 0 161-128 288-288 288-160 0-287-129-287-288 0-161 130-287 287-287 z M2125-144c-81 0-144 67-144 144 0 79 63 144 144 144 80 0 143-65 143-144 0-80-64-144-143-144 z M687-144c-81 0-144 67-144 144 0 81 67 144 144 144 81 0 144-67 144-144 0-81-67-144-144-144 z M797 1333c3 0 9 2 18 5l30 11c11 4 21 8 31 11l20 6 37 1c10-1 22-1 37-1l148 0c20 0 37 7 51 21 14 14 21 31 21 51 0 19-7 36-21 51-15 14-32 21-51 21l-287 0c-25 0-43-8-54-25-12-17-18-36-18-58 0-7 0-15 1-26 0-11 1-21 3-31 2-10 6-19 11-26 5-7 13-11 23-11 z" fill="#635994"/>
		<path d="M2125-72c38 0 72 33 72 72 0 39-34 72-72 72l-727 0c-67 0-126 30-166 79l-408 497 72 718-47 0c-50 0-90 16-90 76l-143-1435c0-44 26-78 71-78 38 0 68 29 72 64l45 453 316-386c67-81 169-132 278-132l727 0 z" fill="#26C9FC"/>
	</g></svg>
