<svg version="1.1" xmlns="http://www.w3.org/2000/svg" viewBox="0 0 2300 2300"><g transform="scale(1,-1) translate(-256, -1869)">
		<path d="M1573-44c21 0 41 3 61 10 43 13 86 32 129 56 43 23 85 50 125 80 40 29 78 61 114 95 36 34 68 68 97 102 75 89 135 187 179 294 44 107 66 219 66 337 0 63-7 125-20 185-14 60-34 118-59 174-25 55-56 108-91 159-36 50-76 97-120 141-19 18-39 37-60 58-22 20-45 36-68 49-17 9-33 17-49 22-16 5-34 7-53 7-26 0-51-5-74-15-23-10-44-24-61-41-17-17-31-38-41-61-10-23-15-48-15-74 0-30 7-58 21-85 13-27 32-49 55-67 9-7 14-10 16-11l2-1 4-1 16-10c19-13 37-29 55-49 17-20 33-39 46-56 37-47 66-98 87-152 21-55 31-112 31-173 0-65-13-128-38-191-25-63-59-121-101-175-42-54-90-102-144-143-55-42-111-74-170-97-39-15-70-38-93-69-24-31-36-68-36-110 0-26 5-50 15-73 10-23 24-43 41-60 17-17 37-31 60-40 23-10 47-15 73-15 z" fill="#F1B99B"/>
		<path d="M1016-287c135 0 266 20 393 59 127 39 245 98 355 176 24 17 47 35 70 54 22 19 44 38 65 58 55 50 105 104 151 161 46 57 86 117 119 180 33 63 59 130 78 201 18 70 27 143 27 220 0 64-7 126-20 186-13 60-32 118-57 173-25 55-56 108-91 159-35 50-75 97-120 142l-60 59c-22 20-45 36-68 49-15 9-31 16-48 21-17 5-35 8-53 8-26 0-50-5-72-14-23-9-42-22-59-38-17-17-30-36-40-58-11-22-17-46-20-71l-1-8 1-8 0-16c-65-11-113-46-146-103l-383-658c-13-22-28-42-45-59-18-18-37-33-58-45-21-12-44-21-68-28-24-7-49-10-74-10l-320 0c-20 0-37-7-51-21-14-14-21-31-21-51l0-646c0-20 7-37 21-51 14-14 31-21 51-21l544 0 z M1652 560c-56 0-100 47-100 101 0 17 4 34 13 49l216 392c5 9 9 18 12 27 65-92 104-194 104-307 0-144-94-262-245-262 z" fill="#FFD7C2"/>
		<path d="M1843 1049c22 55 30 117 30 173 0 148-130 253-271 253-11 0-19-1-30-2-4-15-6-31-6-46 0-6 1-15 2-22 11 2 22 3 34 3 111 0 205-92 205-206 0-27-4-51-13-73 19-27 34-52 49-80 z" fill="#F1B99B"/>
	</g></svg>
