<svg version="1.1" xmlns="http://www.w3.org/2000/svg" viewBox="0 0 2300 2300"><g transform="scale(1,-1) translate(-256, -1869)">
		<path d="M1173-286c191 0 373 84 509 223 81 84 140 185 199 285 28 48 55 98 91 141 92 106 187 168 300 253 47 37 68 89 68 149 0 114-81 193-196 193-115 0-272-152-292-152-15 0-16 21-16 32l0 683c0 110-77 204-193 204-110 0-193-100-193-204l0-265c-28 59-76 83-140 83-116 0-173-66-187-172-34 33-84 55-137 55-62 0-118-30-154-76l0 100c0 110-71 192-184 192-100 0-179-90-179-192 0-282 6-583 6-865 0-407 298-667 698-667 z" fill="#FFD7C2"/>
		<path d="M997 108c11 0 21 5 29 15 27 35 55 67 84 96 28 29 58 57 89 82 31 25 64 48 99 69 35 21 72 40 112 59 52 23 104 43 157 59 10 3 20 6 31 8 10 2 20 5 30 8 9 3 16 8 21 13 5 5 8 13 8 22 0 14-6 25-18 32-9 6-21 12-35 18-15 6-30 11-45 16-16 5-32 9-47 13-15 4-29 7-40 9 13 27 22 55 29 86 6 30 10 61 13 92 3 31 4 62 4 93l0 575c0 21 2 45 5 72 3 26 8 51 17 76 8 25 20 47 35 66 15 19 35 31 60 38-27-1-51-8-74-19-23-12-42-27-58-46-17-19-30-40-39-64-9-24-14-49-14-75l0-265c11-23 19-48 22-75 3-27 5-53 5-79l0-218c0-27-2-54-6-82-4-28-12-53-23-76-12-23-28-42-49-57-21-15-49-22-82-22-43 0-77 5-103 16-26 11-46 26-60 46-15 20-24 45-29 74-5 29-7 63-7 101l0 218c0 11 1 22 2 33l3 32c-17 17-36 29-57 38-6-30-10-60-10-92l1-64-1-52c-1-29-1-58-1-87-1-29-1-59-1-88 0-26 3-51 10-74 7-24 16-48 27-71-21-13-40-21-59-24-19-3-40-5-63-5-25 0-48 6-69 17-22 11-41 26-57 45-16 19-29 40-38 63-9 23-14 47-14 71l0 181c0 21 4 42 11 65 7 22 17 41 30 57l0 100c-20-16-37-31-50-46-13-15-24-31-32-47-8-17-14-35-17-54-3-20-5-43-5-68l-1 0 0-26-1-64c-1-30-2-60-2-90 0-35 2-73 6-114 3-41 12-78 25-113 13-35 34-64 61-87 27-23 63-35 110-35 37 0 69 5 95 16 25 11 49 31 71 62l12 0c9-15 21-27 34-37 13-10 27-18 42-24 15-6 31-10 48-13 17-3 33-4 49-4 29 0 56 5 82 14 26 9 49 24 69 45l40-8 40-9c-52-19-103-40-154-65-51-25-99-52-146-83-47-31-90-66-131-104-41-39-77-81-109-128-5-7-7-14-7-21 0-10 4-18 11-25 7-7 16-11 25-11 z" fill="#F1B99B"/>
	</g></svg>
