<svg version="1.1" xmlns="http://www.w3.org/2000/svg" viewBox="0 0 2300 2300"><g transform="scale(1,-1) translate(-256, -1869)">
		<path d="M2008 1c149 0 288 82 357 214 5 10 29 62 29 70l0 25c-69-69-185-129-269-154l0 707-791 0 0-791 461 0c15-23 25-47 31-71l182 0 z" fill="#75443E"/>
		<path d="M1621-286c121 0 216 97 216 215 0 25-4 49-12 72l1 0c-39 134-156 169-228 265-44 59-189 247-189 325 0 32 26 55 56 55l362 0c46 89 105 156 202 182 15 4 36 10 53 10 13 0 19-6 19-19 0-4-2-8-5-13-52-60-109-138-117-219l1-11 0-12c0-35-7-78-47-89-61-16-131-9-203-30-78-24-120-82-151-151 90-103 246-164 384-164 146 0 323 75 431 180l0-25c12 39 18 79 18 120l0 556c0 184-148 333-333 333l-1468 0c-141 0-211-70-211-209l0-514c0-96 46-139 141-139l130 0c12 0 20-6 23-19l17-65c49-192 249-347 469-347 41 0 81-16 111-46l178-178c42-42 98-63 152-63 z" fill="#966661"/>
	</g></svg>
