<svg version="1.1" xmlns="http://www.w3.org/2000/svg"><g transform="scale(1,-1)">
		<path d="M1406-287c616 0 1006 391 1006 1006 0 613-388 1006-1006 1006-616 0-1006-391-1006-1006 0-613 388-1006 1006-1006 z" fill="#FFB02E"/>
		<path d="M1806 338c168 0 305 136 305 305 0 168-136 305-305 305-168 0-305-136-305-305 0-168 136-305 305-305 z M1005 343c169 0 302 137 302 303 0 168-133 302-302 302-168 0-302-133-302-302 0-168 134-303 302-303 z" fill="#FFFFFF"/>
		<path d="M1765 431c121 0 216 99 216 216 0 121-99 216-216 216-119 0-215-97-215-216 0-121 97-216 215-216 z M1047 431c119 0 215 97 215 216 0 121-97 216-215 216-121 0-216-99-216-216 0-121 99-216 216-216 z M1621-72c38 0 72 33 72 72 0 12-3 24-9 35-71 126-200 210-351 210-28 0-57-3-86-8-61-12-128-33-128-93 0-39 30-72 71-72 8 0 17 2 27 5 39 15 75 24 116 24 103 0 177-54 226-136 15-23 35-37 62-37 z M2089 863c19 0 36 15 36 36 0 18-17 36-36 36-126 0-218 58-252 185-5 19-17 30-36 30-24 0-35-18-35-42 27-159 175-245 323-245 z" fill="#402A32"/>
		<path d="M485 861c585 0 1220 226 1686 558-201 225-482 306-765 306-546 0-938-310-999-863l39-1 39 0 z" fill="#F4F4F4"/>
		<path d="M591 1109c447 0 988 176 1327 504l-70 32c-108-100-228-180-359-245-198 121-490 149-704 149-33-24-64-49-92-75 33 2 66 3 100 3 185 0 441-25 617-115-262-117-552-180-817-180-34 0-68 1-102 3-6-14-16-34-21-54-2-7-2-12-2-17 42-3 82-5 123-5 z" fill="#D3D3D3"/>
	</g></svg>
