<svg version="1.1" xmlns="http://www.w3.org/2000/svg"><g transform="scale(1,-1)">
		<path d="M1406-287c616 0 1006 391 1006 1006 0 613-388 1006-1006 1006-616 0-1006-391-1006-1006 0-613 388-1006 1006-1006 z" fill="#FFB02E"/>
		<path d="M1940-279c34 0 66 6 97 19 31 12 60 27 88 45 48 32 96 64 143 97 47 32 93 65 139 99 11 7 19 17 25 29 5 11 8 23 8 36 0 23-8 42-23 58-16 15-35 23-57 23-9 0-16-1-23-4l-21-9 142 118c17 15 26 34 26 55 0 21-7 38-21 52-14 14-31 21-51 21l-10-1c13 11 24 21 33 31 9 10 13 24 13 42 0 19-7 36-21 50-15 14-32 21-51 21-13 0-25-3-36-10l0 8c0 19-6 35-17 50-13 17-31 25-54 25-18 0-34-6-48-19l-270-236-6 3c0 23 2 45 5 67 3 22 4 44 4 67 0 23-7 44-20 63-13 18-33 27-58 27-15 0-28-5-40-16-12-11-23-25-32-42-9-17-18-36-25-57-7-21-13-42-18-63-5-21-10-40-13-57l-9-43c-5-24-12-45-21-63l-27-54c-9-18-17-37-24-58-7-21-10-46-10-75 0-39 7-77 22-113 14-36 34-68 59-95 25-28 55-50 90-66 34-17 71-25 112-25 z M872-279c41 0 78 8 113 25 34 16 64 38 89 66 25 27 45 59 60 95 14 36 21 74 21 113 0 29-3 55-10 76-7 21-15 40-24 58l-27 54c-9 17-16 38-21 62l-8 43c-3 17-8 36-13 57-5 21-12 42-19 63-7 21-16 40-25 57-9 17-20 31-32 42-12 11-25 16-40 16-25 0-45-9-58-27-13-19-20-40-20-63 0-23 2-45 5-67 3-22 4-44 4-67l-6-3-270 236c-14 13-30 19-48 19-23 0-41-8-54-25-11-15-17-31-17-50l0-8c-11 7-23 10-36 10-19 0-36-7-50-21-15-14-22-31-22-50 0-18 5-32 14-42 9-10 19-20 32-31l-10 1c-20 0-37-7-51-21-14-14-21-31-21-52 0-11 2-21 7-30 5-9 11-18 19-25l142-118-21 9c-7 3-14 4-23 4-22 0-41-8-56-23-16-16-24-35-24-58 0-13 3-25 9-36 5-12 13-22 24-29 46-34 93-67 140-99 47-33 94-65 142-97 28-18 57-33 88-45 31-13 63-19 97-19 z" fill="#FF822D"/>
		<path d="M2197 647c93 0 143 100 143 180 0 79-50 179-143 179-93 0-144-98-144-179 0-83 51-180 144-180 z M615 647c94 0 144 97 144 180 0 82-53 179-144 179-93 0-143-97-143-179 0-80 50-180 143-180 z" fill="#FF6723"/>
		<path d="M1406 467c-171 0-361 37-497 146-32 25-78 62-78 106 0 38 33 72 72 72 26 0 39-10 57-29 111-122 301-151 446-151 152 0 339 33 446 151 16 19 31 29 56 29 39 0 73-31 73-72 0-44-46-81-78-106-141-113-335-146-497-146 z M1980 1007c39 0 73 30 73 72l-1 12c-22 130-133 203-251 203-128 0-226-74-250-202l-1-14c0-41 34-71 72-71 104 0 37 143 179 143 143 0 79-143 179-143 z M1190 1007c39 0 72 30 72 71l-1 13c-22 129-128 203-250 203-128 0-227-73-251-202l-1-6c0-52 32-79 72-79 103 0 37 143 180 143 46 0 71-16 87-37 29-42 24-106 92-106 z" fill="#402A32"/>
	</g></svg>
