<svg version="1.1" xmlns="http://www.w3.org/2000/svg" viewBox="0 0 2300 2300"><g transform="scale(1,-1) translate(-256, -1869)">
		<path d="M1443-286c45 0 82 13 111 39 29 25 49 59 59 101 11-9 25-16 42-20 16-5 31-7 44-7 23 0 45 4 67 13 21 9 40 21 56 36 16 15 29 33 38 54 8 18 13 38 13 60l0 6c9-5 19-8 31-9 11-2 22-3 31-3 23 0 44 4 65 12 21 8 39 19 55 34 15 14 28 31 37 51 9 20 14 42 14 65 0 13-1 28-4 44-3 15-7 29-12 42 3-1 6-1 9-1l9 0c23 0 44 4 63 13 19 9 36 21 51 36 14 15 25 32 34 52 8 19 12 40 12 62 0 46-17 85-51 118 28 26 54 56 78 89 23 33 44 67 61 104 17 37 31 75 41 114 9 39 14 77 14 116 0 57-10 110-30 161-21 51-49 97-86 140-27 32-55 60-84 85-29 25-60 46-92 63-33 17-67 31-103 40-37 9-76 13-119 13-38 0-78-2-119-5-41-4-83-9-124-15-41-6-82-13-123-20-41-8-80-16-117-25l-338 54c-19 3-37 5-56 6-19 1-38 1-57 1-52 0-100-4-143-13-44-9-85-23-122-42-37-19-72-44-104-73-33-30-64-65-95-106-32-42-56-90-72-143-16-54-24-107-24-159 0-61 10-120 30-179 19-59 47-114 83-163-15-15-27-33-34-54-8-21-12-42-12-63 0-21 4-40 13-59 8-19 19-36 33-50 14-15 30-26 49-34 19-9 38-13 59-13 7 0 13 0 20 1 6 1 12 2 18 4-11-23-16-49-16-78 0-19 3-38 10-55 6-17 17-33 32-46 17-15 37-27 59-38 22-11 44-16 67-16 13 0 26 2 38 6-1-3-1-6-1-9l0-10c0-21 5-40 14-59 9-19 22-35 37-49 15-14 32-25 51-33 19-9 39-13 59-13 13 0 24 1 35 4-1-3-1-7-1-11-1-4-1-8-1-11 0-19 5-38 14-57 9-19 22-35 37-49 15-15 31-26 50-35 19-9 38-13 57-13 21 0 42 5 62 14 20 9 39 20 56 33 33-32 73-48 122-48 z" fill="#FFD7C2"/>
		<path d="M2215 510c28 27 53 55 76 86-195 182-429 384-624 544-20 16-41 36-65 36-49 0-108-43-158-57-58-15-131-37-192-37-63 0-143 47-143 118 0 44 31 79 63 102-5 0-44-18-49-21-47-23-77-69-77-119 0-81 69-164 156-164 45 0 266 96 303 96 25 0 50-5 75-27 67-57 128-114 194-171l441-386 z M516 555c37 37 79 67 118 101-56 83-83 175-83 274 0 152 67 329 163 449l-3 5c-179-84-308-282-308-487 0-126 44-247 113-342 z M1443-286c62 0 103 20 136 67-22-6-45-9-68-9-48 0-98 15-138 46-17-19-32-40-52-56 33-32 73-48 122-48 z M1699-173c13 0 25 1 36 4l-130 138c-7 7-16 11-26 11-19 0-36-15-36-36 0-9 3-17 10-25 49-52 73-92 146-92 z M1936-17c15 0 29 2 43 6l-166 185c-8 8-17 12-27 12-19 0-35-19-35-37 0-9 3-17 9-23l119-133c19-7 38-10 57-10 z M2091 228l-1 4c6-1 12-1 19-1 8 0 16 0 25 2 16 3 30 7 42 12l-160 162c-7 7-16 11-26 11-10 0-18-4-25-11-7-7-11-16-11-25 0-9 3-17 10-25l127-129 z M1424-114c48 50 104 125 104 196 0 69-73 145-141 150 11 20 15 49 15 71 0 25-5 47-15 68-33 69-95 99-176 99l-11-1c15 15 21 40 21 60 0 74-91 150-166 150-19 0-42-3-59-13 5 8 7 19 7 28 0 58-65 114-122 114-75 0-154-68-202-116 26 17 54 25 85 25 56 0 116-30 141-87l-339-336c19-8 38-12 59-12 13 0 25 1 35 4l247 245c25 15 52 24 81 24 63 0 127-56 148-111l-380-378c19-7 38-12 58-12 13 0 26 2 38 6l274 272-1 0c10 3 21 4 33 4 66 0 127-56 145-113l-353-323c18-9 38-13 61-13 13 0 25 1 36 4l252 231-1-2c74 0 155-67 155-142 0-33-13-64-29-92 z M1177 1305c77 28 157 50 237 67l-338 54c-37 7-75 8-112 8-28 0-55-2-82-5 99-21 214-54 295-124 z" fill="#F1B99B"/>
	</g></svg>
