<svg version="1.1" xmlns="http://www.w3.org/2000/svg" viewBox="0 0 2300 2300"><g transform="scale(1,-1) translate(-256, -1869)">
		<path d="M1406-287c616 0 1006 391 1006 1006 0 613-388 1006-1006 1006-616 0-1006-391-1006-1006 0-613 388-1006 1006-1006 z" fill="#FFB02E"/>
		<path d="M1406-72c276 0 503 223 503 503l-289 0c0 0-198-67-214-71-16 4-214 71-214 71l-289 0c0-276 221-503 503-503 z" fill="#BB1D80"/>
		<path d="M1621 324l1 1 0 106-432 0 0-106 1-1 430 0 z" fill="#FFFFFF"/>
		<path d="M1873 539c194 0 360 156 360 360 0 200-163 359-360 359-196 0-359-159-359-359 0-191 153-360 359-360 z M939 539c200 0 359 163 359 360 0 191-155 359-359 359-191 0-360-153-360-359 0-194 156-360 360-360 z" fill="#FFFFFF"/>
		<path d="M1873 503c202 0 375 153 394 360l139 0c39 0 78 28 78 72 0 44-39 71-78 71l-152 0c-49 175-209 288-381 288-174 0-331-114-380-288l-174 0c-48 171-203 288-380 288-176 0-333-116-381-288l-158 0c-38 0-72-30-72-71 0-39 31-72 72-72l145 0c19-205 189-360 394-360 201 0 374 153 393 360l147 0c19-202 186-360 394-360 z M1873 576c-179 0-323 147-323 323 0 179 147 323 323 323 179 0 323-147 323-323 0-179-147-323-323-323 z M939 575c-177 0-324 143-324 324 0 178 145 323 324 323 179 0 323-147 323-323 0-179-145-324-323-324 z M1801 719c98 0 180 77 180 180 0 98-79 179-180 179-97 0-179-79-179-179 0-98 79-180 179-180 z M1011 719c98 0 179 79 179 180 0 97-79 179-179 179-98 0-180-79-180-179 0-102 81-180 180-180 z" fill="#402A32"/>
	</g></svg>
