<svg version="1.1" xmlns="http://www.w3.org/2000/svg"><g transform="scale(1,-1)">
		<path d="M1370-287c594 0 970 376 970 970 0 591-373 970-970 970-594 0-970-376-970-970 0-591 373-970 970-970 z" fill="#FFB02E"/>
		<path d="M759 360c80 0 144 64 144 143 0 81-67 144-144 144-81 0-144-67-144-144 0-80 65-143 144-143 z" fill="#F8312F"/>
		<path d="M1658 647c135 0 251 111 251 252 0 140-116 251-251 251-138 0-252-110-252-251 0-139 113-252 252-252 z M1011 647c138 0 251 111 251 252 0 138-108 251-251 251-138 0-252-110-252-251 0-139 113-252 252-252 z" fill="#FFFFFF"/>
		<path d="M1622 719c98 0 179 79 179 180 0 97-79 179-179 179-98 0-180-79-180-179 0-102 81-180 180-180 z M1047 719c98 0 179 79 179 180 0 97-79 179-179 179-98 0-180-79-180-179 0-102 81-180 180-180 z" fill="#402A32"/>
		<path d="M1765 188l586 414c40 28 61 72 61 117 0 80-64 144-143 144-30 0-58-9-83-27l-611-431c-17-12-31-27-42-45l89 0c80 0 143-65 143-144l0-28 z" fill="#D3D3D3"/>
		<path d="M1755 269l555 391c19 14 30 37 30 59 0 38-33 72-72 72-15 0-28-4-41-13l-593-419c51-5 102-37 121-90 z" fill="#F70A8D"/>
		<path d="M1765 180c-24 0-40 10-56 27-100 108-242 153-375 153-134 0-275-46-375-153-16-17-32-27-56-27-39 0-72 31-72 72 0 33 22 57 48 80 138 124 296 171 455 171 145 0 296-43 419-140 34-28 84-65 84-111 0-39-31-72-72-72 z M1873 1078c-147 0-251 107-251 252 0 19 15 36 36 36 18 0 35-17 35-36 0-99 71-180 180-180 19 0 36-15 36-36 0-19-15-36-36-36 z M867 1078c147 0 251 107 251 252 0 19-17 36-35 36-19 0-36-15-36-36 0-99-71-180-180-180-19 0-36-15-36-36 0-19 15-36 36-36 z" fill="#402A32"/>
		<path d="M1837 449c-11 0-21 5-28 14l-55 69 59 41c14-17 60-63 60-88 0-19-15-36-36-36 z M2035 593c-11 0-21 5-29 15l-48 67 58 42c11-16 55-65 55-88 0-21-18-36-36-36 z M2232 719c19 0 36 15 36 36 0 24-50 77-61 94-21-12-40-25-60-40l57-76c7-9 17-14 28-14 z" fill="#212121"/>
	</g></svg>
