<svg version="1.1" xmlns="http://www.w3.org/2000/svg" viewBox="0 0 2300 2300"><g transform="scale(1,-1) translate(-256, -1869)">
		<path d="M1406-287c615 0 1006 388 1006 1006 0 615-388 1006-1006 1006-615 0-1006-388-1006-1006 0-615 388-1006 1006-1006 z" fill="#FFB02E"/>
		<path d="M1173-359c50 0 89 39 89 89 0 49-31 71-72 91 80 0 128 6 128 87 0 31-26 56-56 56 40 19 72 42 72 90 0 48-32 71-72 90l126 0c51 0 90 39 90 90 0 50-40 90-90 90l-413 0 0 220c0 57-46 103-104 103-63 0-106-53-109-112-5-64-1-214-75-247-128-55-209-164-209-315 0-85 31-168 101-224 110-86 217-108 360-108l234 0 z" fill="#FFB02E"/>
		<path d="M1806 697c168 0 305 136 305 305 0 167-133 305-305 305-168 0-305-136-305-305 0-168 136-305 305-305 z M1005 703c168 0 302 133 302 302 0 168-133 302-302 302-168 0-302-133-302-302 0-168 133-302 302-302 z" fill="#FFFFFF"/>
		<path d="M1173-359c50 0 89 39 89 89 0 49-31 71-72 91 80 0 128 6 128 87 0 31-26 56-56 56 40 19 72 42 72 90 0 48-32 71-72 90l126 0c51 0 90 39 90 90 0 50-40 90-90 90l-413 0 0 220c0 57-46 103-104 103-63 0-106-53-109-112-5-64-1-214-75-247-128-55-209-164-209-315 0-85 31-168 101-224 110-86 217-108 360-108l234 0 z" fill="#FF822D"/>
		<path d="M1622 360c41 0 71 33 71 72 0 10-2 20-6 30-47 118-182 189-311 189-62 0-131-19-186-56-35-23-72-51-72-92 0-39 34-72 72-72 49 0 85 76 186 76 59 0 96-16 125-38 52-41 62-109 121-109 z M1765 827c121 0 216 97 216 215 0 121-99 216-216 216-119 0-215-97-215-216 0-120 97-215 215-215 z M975 827c120 0 215 97 215 215 0 121-97 216-215 216-121 0-216-99-216-216 0-119 97-215 216-215 z M2017 1222c18 0 36 17 36 36 0 68-202 108-252 108-67 0-188-30-238-80-8-8-14-17-14-28 0-19 16-36 37-36 8 0 16 3 23 8 65 40 119 64 192 64 73 0 130-24 193-64 7-5 15-8 23-8 z M1154 1509c18 0 36 17 36 36 0 64-166 108-215 108-64 0-164-33-205-82-7-8-11-15-11-26 0-18 17-36 36-36 18 0 92 72 180 72 60 0 109-24 154-61 8-7 14-11 25-11 z" fill="#402A32"/>
	</g></svg>
