<svg version="1.1" xmlns="http://www.w3.org/2000/svg" viewBox="0 0 2300 2300"><g transform="scale(1,-1) translate(-256, -1869)">
		<path d="M1406-287c616 0 1006 391 1006 1006 0 613-388 1006-1006 1006-616 0-1006-391-1006-1006 0-613 388-1006 1006-1006 z" fill="#FFB02E"/>
		<path d="M1801 719c179 0 324 145 324 323 0 177-143 324-324 324-178 0-323-145-323-324 0-179 147-323 323-323 z M1011 719c179 0 323 147 323 323 0 179-145 324-323 324-177 0-324-143-324-324 0-178 145-323 324-323 z" fill="#FFFFFF"/>
		<path d="M1801 899c80 0 144 64 144 143 0 81-67 144-144 144-80 0-143-65-143-144 0-80 62-143 143-143 z M1011 899c80 0 143 62 143 143 0 80-64 144-143 144-79 0-144-63-144-144 0-80 65-143 144-143 z" fill="#402A32"/>
		<path d="M2234-144c85 0 178 87 178 179 0 42-18 84-52 114l-201 174c-26 22-62 37-98 37-15 0-29-3-44-7l0 132c0 51-39 90-90 90-51 0-90-39-90-90l0-54-179 0 0 54c0 50-40 90-90 90-51 0-90-39-90-90l0-54-180 0 0 54c0 51-39 90-90 90-50 0-90-40-90-90l0-54-179 0 0 54c0 51-39 90-90 90-51 0-90-39-90-90l0-197 180 0 0-54c0-51 39-90 90-90 50 0 89 41 89 90l0 54 180 0 0-54c0-51 39-90 90-90 51 0 90 39 90 90l0 54 180 0 0-54c0-49 39-90 89-90 51 0 90 39 90 90l0 54 95 0c-15-25-23-51-23-80 0-36 13-73 37-99l174-200c29-34 69-53 114-53 z M2038 162c-38 0-66 30-66 67 0 38 29 66 66 66 37 0 68-28 68-66 0-38-31-67-68-67 z" fill="#7167A4"/>
	</g></svg>
