<svg version="1.1" xmlns="http://www.w3.org/2000/svg"><g transform="scale(1,-1)">
		<path d="M1406-287c616 0 1006 391 1006 1006 0 613-388 1006-1006 1006-616 0-1006-391-1006-1006 0-613 388-1006 1006-1006 z" fill="#FFB02E"/>
		<path d="M1406 0c230 0 404 104 476 344 16 49 27 106 27 159l-1006 0c0-26 3-53 8-80 52-284 234-423 495-423 z" fill="#BB1D80"/>
		<path d="M1407-359c222 0 312 169 343 360 9 54 9 104 16 161l1 9 0 9c0 45-24 72-61 95-56 34-229 40-299 40-49 0-157-3-237-19-61-12-88-36-106-59-14-18-17-45-17-66l1-9c7-57 7-107 16-161 32-196 125-360 343-360 z" fill="#00D26A"/>
		<path d="M1899 401c7 35 10 67 10 102l-1006 0c0-35 3-69 10-102l986 0 z" fill="#FFFFFF"/>
		<path d="M1406-251c-11 0-18 3-23 8-5 5-9 12-11 20-1 5-2 11-2 18l0 31c-21 7-39 20-52 39-13 19-20 40-20 63 0 10 4 19 11 26 7 7 15 10 25 10 13 0 22-4 27-11 4-8 7-16 9-25 2-9 5-18 10-25 4-7 13-11 26-11 9 0 18 3 25 8 7 5 11 12 11 23 0 13-7 24-22 31l-50 24c-18 9-34 20-49 35-15 15-23 36-23 64 0 23 7 43 20 61 13 18 31 30 52 37l0 32c0 6 1 12 2 18 2 7 6 14 11 19 5 5 12 8 23 8 10 0 19-3 26-10 7-7 10-16 10-26l0-34c0-4 0-7-1-8 21-7 39-20 53-39 13-19 20-40 20-63 0-10-3-18-10-25-7-7-16-11-26-11-13 0-22 4-26 11-5 7-8 16-10 25-2 9-5 17-9 25-5 7-14 11-27 11-9 0-18-2-25-7-7-5-11-13-11-24 0-9 4-16 11-21 7-6 15-12 26-17 11-5 22-11 35-16 13-6 24-13 35-22 11-9 20-19 27-31 7-13 10-28 10-47 0-22-7-42-20-60-13-19-31-31-52-38 0-7 0-15 1-24 0-9-1-17-3-24-2-8-5-15-10-20-5-5-13-8-24-8 z M1783 575c48 0 55 40 55 79l-1 33c83 16 144 91 144 176 0 96-56 180-157 193-53 5-131 5-131 79 0 43 18 87 72 87 71 0 108-9 108-90 0-30 22-54 54-54 30 0 54 22 54 54 0 93-45 175-144 194l1 33c0 38-6 79-55 79-48 0-55-40-55-79l1-33c-86-16-143-94-143-176 0-101 57-180 157-193 53-8 130-3 130-80 0-45-18-86-72-86-71 0-108 11-108 90 0 29-23 54-53 54-30 0-54-25-54-54 0-93 45-175 143-194l-1-33c0-37 6-79 55-79 z M1029 575c48 0 55 40 55 79l-1 33c82 16 143 89 143 176 0 101-57 180-157 193-53 5-130 6-130 79 0 45 16 87 72 87 73 0 107-12 107-90 0-29 24-54 54-54 30 0 54 22 54 54 0 93-45 175-143 194l1 33c0 38-6 79-55 79-48 0-55-40-55-79l1-33c-83-16-144-91-144-176 0-101 57-180 157-193 53-8 130-3 130-80 0-44-18-86-71-86-71 0-108 9-108 90 0 29-24 54-54 54-29 0-54-24-54-54 0-93 45-175 144-194l-1-33c0-37 6-79 55-79 z" fill="#402A32"/>
	</g></svg>
