<svg version="1.1" xmlns="http://www.w3.org/2000/svg"><g transform="scale(1,-1)">
		<path d="M2161 1006c16 0 77 25 91 32 132 64 232 173 232 328 0 211-104 359-323 359-98 0-180-79-180-179l0-36-144 0 0 69c0 120-100 218-222 218-115 0-141-74-209-74-69 0-97 74-209 74-120 0-222-95-222-218l0-69-144 0 0 36c0 98-79 179-180 179-220 0-323-147-323-359 0-153 98-267 231-328 16-8 76-32 92-32 26 0 53 2 80 5 182 19 376 29 525 53 3 0 30 5 30 8 0 3-8 4-23 4-11 1-23 2-37 2l361 0c-15 0-27-1-38-2-15 0-23-1-23-4 0-3 28-8 30-8 21-3 41-6 62-8 128-15 244-25 383-37 51-5 107-13 160-13 z" fill="#6D4534"/>
		<path d="M1406-287c527 0 862 334 862 862 0 231-69 462-235 631-198-94-417-128-627-128-210 0-429 34-627 128-163-166-236-389-236-631 0-524 331-862 863-862 z" fill="#FFB02E"/>
		<path d="M1729 647c139 0 252 113 252 252 0 138-111 251-252 251-138 0-251-108-251-251 0-138 110-252 251-252 z M1083 647c135 0 251 111 251 252 0 140-116 251-251 251-138 0-252-110-252-251 0-139 113-252 252-252 z" fill="#FFFFFF"/>
		<path d="M1693 683c98 0 180 77 180 180 0 98-79 179-180 179-97 0-179-79-179-179 0-98 79-180 179-180 z M1118 683c98 0 180 77 180 180 0 98-79 179-180 179-97 0-179-79-179-179 0-98 79-180 179-180 z" fill="#402A32"/>
		<path d="M1406 1078c133 0 267 14 396 46 5 0 40 9 42 11 10 7 36 27 45 37 67 64 93 153 93 236l-1 102-1150 0-1-102c0-43 8-86 23-127 21-59 70-118 115-146 3 0 37-11 42-11 129-32 263-46 396-46 z" fill="#8C5543"/>
		<path d="M1837 1510l0 71-862 0 0-71 862 0 z" fill="#A56953"/>
		<path d="M1406-72c263 0 462 122 545 393 17 56 30 120 30 182l-1150 0c0-30 3-61 9-92 59-328 273-483 566-483 z" fill="#BB1D80"/>
		<path d="M1837 396c38 0 72 31 72 71l0 36-1006 0 0-36c0-40 34-71 72-71l862 0 z" fill="#FFFFFF"/>
	</g></svg>
