<svg version="1.1" xmlns="http://www.w3.org/2000/svg" viewBox="0 0 2300 2300"><g transform="scale(1,-1) translate(-256, -1869)">
		<path d="M1406-287c616 0 1006 391 1006 1006 0 613-388 1006-1006 1006-616 0-1006-391-1006-1006 0-613 388-1006 1006-1006 z" fill="#FFB02E"/>
		<path d="M2053 647c80 0 215 41 215 144 0 103-135 144-215 144-81 0-216-43-216-144 0-104 135-144 216-144 z M759 647c80 0 216 41 216 144 0 102-136 144-216 144-81 0-216-43-216-144 0-104 135-144 216-144 z" fill="#FF6723"/>
		<path d="M1980 1007c39 0 73 30 73 72l-1 12c-22 130-133 203-251 203-128 0-226-74-250-202l-1-14c0-41 34-71 72-71 104 0 37 143 179 143 143 0 79-143 179-143 z M1190 1007c39 0 72 30 72 71l-1 13c-22 129-128 203-250 203-128 0-227-73-251-202l-1-6c0-52 32-79 72-79 103 0 37 143 180 143 46 0 71-16 87-37 29-42 24-106 92-106 z" fill="#402A32"/>
		<path d="M1055-279c174 0 326 127 440 241l190 190c17 17 26 38 26 63 0 51-42 91-92 91 31 26 56 47 56 90 0 50-39 89-89 89-19 0-35-5-50-15l77 78c17 17 26 38 26 63 0 51-39 90-90 90-25 0-46-9-63-26l-77-77c10 14 15 30 15 49 0 51-39 90-90 90-25 0-46-9-63-26l-224-224 0 70c0 50-40 90-90 90-53 0-89-41-93-90-8-93-15-254-69-341-34-52-47-113-47-174 0-176 127-321 307-321 z" fill="#FF822D"/>
	</g></svg>
