<svg version="1.1" xmlns="http://www.w3.org/2000/svg"><g transform="scale(1,-1)">
		<path d="M1410-318c207 0 395 76 555 194 269 199 478 504 478 838 0 510-507 1042-1042 1042-206 0-394-76-554-194-270-200-479-505-479-839 0-515 512-1041 1042-1041 z" fill="#FFB02E"/>
		<path d="M897 444c-38 0-71 32-71 71 0 8 1 15 4 23l56 169-169-56c-6-3-15-4-23-4-38 0-71 32-71 71 0 32 19 58 49 69l305 102c7 2 14 3 22 3 41 0 72-34 72-72 0-8-1-15-3-22l-102-305c-11-30-39-49-69-49 z M1304 1054c8 0 16 1 23 3l305 102c29 11 49 36 49 67 0 39-30 73-71 73-8 0-15-1-23-4l-169-56 56 169c3 7 4 15 4 23 0 38-32 71-71 71-32 0-58-19-69-49l-102-305c-2-7-3-15-3-23 0-38 32-71 71-71 z" fill="#402A32"/>
		<path d="M1423 58c318 0 644 323 644 644 0 168-88 358-204 474l-914-914c120-123 319-204 474-204 z" fill="#BB1D80"/>
		<path d="M1075 266c20 0 37 7 51 21l712 711c13 13 21 32 21 51 0 36-23 53-46 77l-814-814c24-23 42-46 76-46 z" fill="#FFFFFF"/>
		<path d="M897-233c81 0 153 65 153 152l0 343c0 82-67 152-152 152-86 0-153-70-153-152l0-343c0-82 67-152 152-152 z" fill="#3F5FFF"/>
		<path d="M2219 1087c82 0 152 67 152 154 0 83-69 151-152 151l-343 0c-86 0-152-70-152-152 0-86 69-153 152-153l343 0 z" fill="#3F5FFF"/>
	</g></svg>
