<svg version="1.1" xmlns="http://www.w3.org/2000/svg"><g transform="scale(1,-1)">
		<path d="M1406-287c616 0 1006 391 1006 1006 0 613-388 1006-1006 1006-616 0-1006-391-1006-1006 0-613 388-1006 1006-1006 z" fill="#00D26A"/>
		<path d="M1801 503c177 0 324 143 324 324 0 178-145 323-324 323-179 0-323-147-323-323 0-179 145-324 323-324 z M1011 503c178 0 323 145 323 324 0 179-147 323-323 323-179 0-324-145-324-323 0-177 143-324 324-324 z" fill="#FFFFFF"/>
		<path d="M1693 647c79 0 144 63 144 144 0 81-67 144-144 144-80 0-143-65-143-144 0-80 64-144 143-144 z M1118 647c79 0 144 63 144 144 0 81-67 144-144 144-80 0-143-65-143-144 0-80 64-144 143-144 z M1837 0c39 0 72 31 72 72 0 39-31 72-72 72-91 0-144 50-144 144 0 95 54 143 144 143 38 0 72 33 72 72 0 39-31 72-72 72-137 0-254-80-280-216-50 2-100 3-151 3-52 0-102-1-151-3-27 140-147 216-280 216-39 0-72-31-72-72 0-39 34-72 72-72 90 0 143-48 143-143 0-90-48-144-143-144-39 0-72-31-72-72 0-39 31-72 72-72 135 0 253 78 280 216l302 0c26-135 141-216 280-216 z M2089 1222c19 0 36 15 36 36 0 19-15 36-36 36-122 0-218 55-253 187-5 17-16 29-35 29-19 0-36-16-36-37l1-7c35-162 169-244 323-244 z M723 1222c157 0 285 83 323 244l1 7c0 21-18 37-36 37-19 0-30-12-35-29-9-32-21-60-36-85-39-64-126-102-217-102-19 0-36-15-36-36 0-19 15-36 36-36 z" fill="#402A32"/>
	</g></svg>
