<svg version="1.1" xmlns="http://www.w3.org/2000/svg" viewBox="0 0 2300 2300"><g transform="scale(1,-1) translate(-256, -1869)">
		<path d="M1406-287c616 0 1006 391 1006 1006 0 613-388 1006-1006 1006-616 0-1006-391-1006-1006 0-613 388-1006 1006-1006 z" fill="#FFB02E"/>
		<path d="M1801 719c179 0 324 145 324 323 0 177-143 324-324 324-178 0-323-145-323-324 0-179 147-323 323-323 z M1011 719c179 0 323 147 323 323 0 179-145 324-323 324-177 0-324-143-324-324 0-178 145-323 324-323 z" fill="#FFFFFF"/>
		<path d="M1693 72c-28 0-49 13-64 40-43 76-148 104-223 104-81 0-182-32-223-104-15-27-36-40-64-40-39 0-73 31-73 72 0 11 3 21 8 32 59 129 236 184 352 184 110 0 225-36 308-123 22-24 51-57 51-93 0-39-31-72-72-72 z M1693 791c79 0 144 63 144 144 0 80-65 143-144 143-80 0-143-62-143-143 0-80 64-144 143-144 z M1118 791c79 0 144 63 144 144 0 80-65 143-144 143-80 0-143-62-143-143 0-80 64-144 143-144 z" fill="#402A32"/>
		<path d="M2376 431c98 0 180 78 180 180 0 98-78 180-180 180l-1006 0c-98 0-180-78-180-180 0-98 78-180 180-180l1006 0 z" fill="#FF822D"/>
	</g></svg>
