<svg version="1.1" xmlns="http://www.w3.org/2000/svg"><g transform="scale(1,-1)">
		<path d="M1406-287c616 0 1006 391 1006 1006 0 613-388 1006-1006 1006-616 0-1006-391-1006-1006 0-613 388-1006 1006-1006 z" fill="#FFB02E"/>
		<path d="M1858 280c61 0 191 43 191 123 0 38-31 72-71 72-52 0-62-51-117-51-19 0-39 6-52 19-53 53-103 80-175 80-132 0-159-95-229-95-67 0-102 95-230 95-132 0-159-95-229-95-59 0-65 47-115 47-38 0-71-31-71-72 0-74 121-119 186-119 130 0 163 95 229 95 65 0 104-95 230-95 132 0 159 95 229 95 73 0 91-99 224-99 z M902 725c12 0 23 2 32 7l288 144c24 12 40 37 40 64 0 29-13 51-39 64l-288 144c-11 5-22 8-33 8-41 0-70-34-70-72 0-26 14-52 38-64l159-80-159-79c-25-12-39-39-39-65 0-41 33-71 71-71 z M1909 725c41 0 72 34 72 73 0 27-16 51-40 63l-158 79 158 80c24 12 40 37 40 65 0 41-33 71-72 71-12 0-23-2-32-7l-287-144c-25-13-40-37-40-65 0-26 15-52 39-64l288-143c11-5 21-8 32-8 z" fill="#402A32"/>
		<path d="M1277-215c76 0 129 67 129 143l0 687c0 55-41 104-101 104l-11-1c-421-56-737-354-820-774-1-5-2-9-2-13 0-82 40-146 122-146 80 0 92 71 171 71 83 0 93-71 172-71 80 0 93 73 174 73 84 0 89-73 166-73 z" fill="#FFFFFF"/>
		<path d="M887-75c22 0 44 3 66 8 43 11 72 51 108 61 37 10 80 7 112 30 31 22 34 70 40 113 15 113 33 216 47 332l1 10c0 26-17 53-47 53-13 0-24-4-34-13-141-119-277-391-334-551l-2-13c0-27 22-30 43-30 z M546-206c47 165 131 362 224 494 111 156 332 322 476 423-397-69-694-372-772-767-1-5-2-9-2-13l0-13c0-53 25-99 74-124 z" fill="#F4F4F4"/>
	</g></svg>
