<svg version="1.1" xmlns="http://www.w3.org/2000/svg"><g transform="scale(1,-1)">
		<path d="M1406-287c616 0 1006 391 1006 1006 0 613-388 1006-1006 1006-616 0-1006-391-1006-1006 0-613 388-1006 1006-1006 z" fill="#FFB02E"/>
		<path d="M2089 1078c19 0 36 16 36 37 0 4-1 7-2 11-41 132-174 240-322 240-19 0-36-15-36-36 0-19 15-36 36-36 120 0 209-79 254-191 7-17 18-25 34-25 z M1980 863c-17 0-30 4-39 11-43 35-27 132-140 132-144 0-78-143-179-143-38 0-72 30-72 71l1 14c24 129 123 202 250 202 126 0 230-78 251-203l1-12c0-41-34-72-73-72 z M1190 863c-104 0-37 143-179 143-25 0-44-3-57-10-68-36-42-133-123-133-43 0-72 30-72 79l1 6c24 127 121 202 251 202 125 0 229-78 250-203l1-13c0-38-31-71-72-71 z M723 1078c16 0 27 8 34 25 43 107 129 191 254 191 18 0 36 17 36 36 0 18-17 36-36 36-143 0-278-101-322-240-1-4-2-7-2-11 0-21 17-37 36-37 z" fill="#402A32"/>
		<path d="M1821 280c49 77 88 196 88 295l-1006 0c0-94 36-213 88-295l830 0 z" fill="#BB1D80"/>
		<path d="M1604-144c50 0 89 41 89 90l0 202c55 37 100 83 133 140l-840 0c93-155 245-216 420-216 0-116 108-38 108-120 0-50 32-96 90-96 z" fill="#5092FF"/>
	</g></svg>
