<svg version="1.1" xmlns="http://www.w3.org/2000/svg" viewBox="0 0 2300 2300"><g transform="scale(1,-1) translate(-256, -1869)">
		<path d="M1406-359c652 0 1078 422 1078 1078 0 652-422 1078-1078 1078-655 0-1078-424-1078-1078 0-654 422-1078 1078-1078 z" fill="#F7A7B8"/>
		<path d="M2268 863c121 0 216 97 216 215 0 57-22 112-64 154 42 59 64 131 64 206 0 191-155 359-359 359-75 0-147-22-206-64-42 42-97 64-154 64-119 0-215-97-215-216 0-125 98-215 222-215 29-141 139-252 281-281 0-122 89-222 215-222 z M543 863c124 0 216 97 216 222 141 29 250 138 280 281 122 0 223 89 223 215 0 121-97 216-215 216-57 0-112-22-154-64-63 42-134 64-206 64-196 0-359-159-359-359 0-75 22-147 64-206-42-42-64-97-64-154 0-120 97-215 215-215 z" fill="#F8312F"/>
		<path d="M1406-287c616 0 1006 391 1006 1006 0 613-388 1006-1006 1006-616 0-1006-391-1006-1006 0-613 388-1006 1006-1006 z" fill="#FFFFFF"/>
		<path d="M1406-72c331 0 647 201 647 575 0 51-39 90-90 90-44 0-66-31-109-53-135-68-298-90-448-90-163 0-341 33-477 110-8 4-18 13-28 16l0 1c-16 11-33 16-52 16-50 0-90-40-90-90 0-362 298-575 647-575 z M1406 108c-170 0-361 69-435 236 140-51 286-73 435-73 147 0 293 16 432 67-74-155-249-230-432-230 z" fill="#F70A8D"/>
		<path d="M1406 575c69 0 126 56 126 126 0 69-56 126-126 126-69 0-126-56-126-126 0-69 56-126 126-126 z" fill="#F8312F"/>
		<path d="M1837 647c191 0 360 153 360 359 0 194-156 360-360 360-200 0-359-163-359-360 0-196 157-359 359-359 z M975 647c190 0 359 152 359 359 0 191-153 360-359 360-194 0-360-156-360-360 0-200 163-359 360-359 z" fill="#0074BA"/>
		<path d="M1747 719c142 0 270 114 270 269 0 149-119 270-270 270-149 0-269-120-269-270 0-151 123-269 269-269 z M1065 719c147 0 269 120 269 269 0 151-123 270-269 270-149 0-270-119-270-270 0-150 123-269 270-269 z" fill="#FFFFFF"/>
		<path d="M1675 827c87 0 162 69 162 161 0 91-71 162-162 162-91 0-161-75-161-162 0-87 69-161 161-161 z M1136 827c87 0 162 69 162 161 0 91-71 162-162 162-91 0-161-75-161-162 0-87 69-161 161-161 z" fill="#402A32"/>
	</g></svg>
