<svg version="1.1" xmlns="http://www.w3.org/2000/svg" viewBox="0 0 2300 2300"><g transform="scale(1,-1) translate(-256, -1869)">
		<path d="M1406-287c616 0 1006 391 1006 1006 0 613-388 1006-1006 1006-616 0-1006-391-1006-1006 0-613 388-1006 1006-1006 z" fill="#FFB02E"/>
		<path d="M2162 754c14 0 29 11 29 26 0 84-23 171-23 254 0 168 245 161 245 252 0 23-15 42-34 50l-182 73c-157 64-63 316-172 316-81 0-112-209-254-209-88 0-189 24-270 24-15 0-26-15-26-28 0-23 115-167 134-189 19-25 29-54 29-87 0-19-3-37-10-53-12-24-103-254-103-261 0-12 8-17 21-17l263 53c9 2 18 3 28 3 33 0 62-10 88-31 28-24 216-176 237-176 z M650 754c21 0 207 150 237 176 26 21 55 31 88 31 9 0 19-1 28-3l263-53c13 0 21 5 21 17 0 8-92 238-103 261-7 16-10 34-10 53 0 33 10 62 29 87 18 26 134 166 134 188 0 14-11 29-26 29-89 0-180-24-270-24-142 0-177 209-254 209-19 0-32-6-40-19-42-63-11-250-132-297l-182-73c-19-8-34-27-34-50 0-91 245-88 245-252 0-87-23-172-23-254 0-15 15-26 29-26 z" fill="#BB1D80"/>
		<path d="M1406 0c297 0 519 135 613 442 18 63 34 136 34 205l-1294 0c0-34 3-69 10-104 71-376 306-543 637-543 z" fill="#BB1D80"/>
		<path d="M1909 539c39 0 72 31 72 72l0 36-1150 0 0-36c0-39 31-72 72-72l1006 0 z" fill="#FFFFFF"/>
	</g></svg>
