<svg version="1.1" xmlns="http://www.w3.org/2000/svg" viewBox="0 0 2300 2300"><g transform="scale(1,-1) translate(-256, -1869)">
		<path d="M1406-287c616 0 1006 391 1006 1006 0 613-388 1006-1006 1006-616 0-1006-391-1006-1006 0-613 388-1006 1006-1006 z" fill="#F8312F"/>
		<path d="M1801 503c177 0 324 143 324 324 0 178-145 323-324 323-179 0-323-147-323-323 0-179 145-324 323-324 z M1011 503c178 0 323 145 323 324 0 179-147 323-323 323-179 0-324-145-324-323 0-177 143-324 324-324 z" fill="#FFFFFF"/>
		<path d="M1693 647c79 0 144 63 144 144 0 81-67 144-144 144-80 0-143-65-143-144 0-80 64-144 143-144 z M1118 647c79 0 144 63 144 144 0 81-67 144-144 144-80 0-143-65-143-144 0-80 64-144 143-144 z M1535 1007c159 0 286 98 335 252 2 6 3 12 3 18 0 30-25 53-54 53-25 0-43-16-51-37-22-55-44-101-93-135-44-31-94-40-146-44-33-3-51-26-51-57 0-32 28-50 57-50 z M1277 1007c28 0 57 18 57 50 0 31-18 54-51 57-52 4-103 13-147 44-48 33-72 82-92 135-8 21-26 37-51 37-29 0-54-23-54-53 0-6 1-12 3-18 48-152 174-252 335-252 z" fill="#402A32"/>
		<path d="M1945-215c57 0 108 45 108 107l0 432c0 58-47 107-108 107l-1078 0c-60 0-108-49-108-107l0-432c0-59 48-107 108-107l1078 0 z" fill="#533566"/>
		<path d="M1191-71c9 0 16 3 22 8 5 5 10 11 14 18l9 24 6 21 37-1c13 0 26 2 38 7 11 4 17 14 17 30 0 10-2 18-6 23-5 5-10 8-16 10-7 2-14 3-21 3l-22 0 27 72 30 0c6 0 12 1 18 2 7 2 14 6 19 11 5 5 7 12 7 23 0 15-5 24-14 29-10 5-21 7-33 7l7 17c3 6 4 12 4 18 0 10-3 19-10 26-7 7-16 10-26 10-9 0-17-2-22-7-5-5-10-12-13-19-4-7-7-15-9-23-3-9-5-16-8-22l-103 0 7 18c3 6 4 12 4 18 0 10-3 18-10 25-7 7-16 10-26 10-9 0-16-2-21-7-6-5-11-12-14-19-4-8-7-16-9-24l-7-21c-5 0-11 0-17 1l-20 0c-13 0-26-2-37-6-12-5-18-15-18-31 0-10 2-17 7-22 4-5 9-9 16-11 6-2 13-3 21-3l21 0-27-72c-7 0-15 0-23 1-9 0-17-1-24-3-8-2-14-5-19-10-5-5-8-13-8-24 0-15 5-24 15-29 9-5 20-7 32-7l-7-17c-3-7-4-13-4-19 0-10 4-18 11-25 7-7 15-10 25-10 9 0 16 3 22 8 5 5 10 11 14 19l9 23 6 21 103 0-6-17c-3-7-4-13-4-19 0-9 4-17 11-24 7-7 15-11 25-11 z M1801-72c19 0 36 15 36 36 0 19-15 36-36 36-19 0-36-15-36-36 0-19 15-36 36-36 z M1442 216c19 0 36 15 36 36 0 19-15 36-36 36-19 0-36-15-36-36 0-19 15-36 36-36 z M1801 72c19 0 36 15 36 36l0 144c0 19-15 36-36 36-19 0-36-15-36-36l0-144c0-19 15-36 36-36 z M1622-72c18 0 36 17 36 36 0 19-18 36-36 36-19 0-36-15-36-36 0-19 15-36 36-36 z M1478-71c17 0 28 8 33 23 12 35 110 275 110 300 0 19-17 35-36 35-14 0-28-8-33-23-16-35-110-282-110-299 0-21 18-36 36-36 z M1192 72l-103 0 27 72 103 0-27-72 z" fill="#FFFFFF"/>
	</g></svg>
