<svg version="1.1" xmlns="http://www.w3.org/2000/svg" viewBox="0 0 2300 2300"><g transform="scale(1,-1) translate(-256, -1869)">
		<path d="M1406-287c615 0 1006 388 1006 1006 0 615-388 1006-1006 1006-615 0-1006-388-1006-1006 0-615 388-1006 1006-1006 z" fill="#FFB02E"/>
		<path d="M1806 697c168 0 305 136 305 305 0 167-133 305-305 305-168 0-305-136-305-305 0-168 136-305 305-305 z M1005 703c168 0 302 133 302 302 0 168-133 302-302 302-168 0-302-133-302-302 0-168 133-302 302-302 z" fill="#FFFFFF"/>
		<path d="M1622 288l-432 0c-38 0-72 33-72 72 0 40 34 71 72 71l432 0c39 0 71-33 71-71 0-38-31-72-71-72 z M1765 791c121 0 216 97 216 215 0 121-99 216-216 216-119 0-215-97-215-216 0-120 97-215 215-215 z M1047 791c120 0 215 97 215 215 0 121-97 216-215 216-120 0-216-95-216-216 0-119 97-215 216-215 z" fill="#402A32"/>
		<path d="M1606-427c168 0 304 136 304 304l0 105c0 177-131 304-304 304-34 0-55 25-55 56l0 232c0 81-67 144-144 144-80 0-143-65-143-144l0-697c0-168 136-304 304-304l38 0 z" fill="#FF822D"/>
	</g></svg>
