<svg version="1.1" xmlns="http://www.w3.org/2000/svg"><g transform="scale(1,-1)">
		<path d="M1406-287c616 0 1006 391 1006 1006 0 613-388 1006-1006 1006-616 0-1006-391-1006-1006 0-613 388-1006 1006-1006 z" fill="#FFB02E"/>
		<path d="M1801 575c177 0 324 143 324 324 0 178-145 323-324 323-179 0-323-147-323-323 0-179 145-324 323-324 z M1011 575c178 0 323 145 323 324 0 179-147 323-323 323-179 0-324-145-324-323 0-177 143-324 324-324 z" fill="#FFFFFF"/>
		<path d="M1622 288c40 0 71 34 71 72 0 39-33 71-71 71l-432 0c-38 0-72-31-72-71 0-39 34-72 72-72l432 0 z M1011 1150c35 0 68 7 98 21 34 16 81 56 81 88 0 19-17 35-36 35-36 0-45-72-143-72-104 0-108 72-144 72-19 0-36-17-36-35 0-4 1-7 2-10 28-63 100-99 178-99 z M1765 647c121 0 216 99 216 216 0 119-97 215-216 215-120 0-215-97-215-215 0-121 97-216 215-216 z M1047 647c119 0 215 97 215 216 0 120-97 215-215 215-121 0-216-97-216-215 0-121 99-216 216-216 z M1945 1294c21 0 36 18 36 36 0 7-2 14-7 21-40 60-101 87-173 87-17 0-34-2-51-5-53-12-128-58-128-103 0-19 15-36 36-36 34 0 47 72 143 72 101 0 107-72 144-72 z" fill="#402A32"/>
	</g></svg>
