<svg version="1.1" xmlns="http://www.w3.org/2000/svg"><g transform="scale(1,-1)">
		<path d="M1406-287c616 0 1006 391 1006 1006 0 613-388 1006-1006 1006-616 0-1006-391-1006-1006 0-613 388-1006 1006-1006 z" fill="#FFB02E"/>
		<path d="M1909 575c41 0 72 34 72 72 0 28-15 52-40 64l-159 80 159 79c24 12 40 37 40 64 0 39-31 73-72 73-11 0-21-3-32-8l-288-144c-24-12-39-38-39-64 0-26 15-52 39-64l288-144c11-5 21-8 32-8 z M902 575c11 0 22 3 33 8l287 144c25 12 40 36 40 64 0 28-15 52-40 64l-287 144c-11 5-21 8-32 8-41 0-72-34-72-73 0-27 16-52 40-64l159-79-159-80c-25-12-40-36-40-64 0-38 31-72 71-72 z" fill="#402A32"/>
		<path d="M1765-144c121 0 216 99 216 216l0 144c0 119-97 215-216 215l-718 0c-121 0-216-97-216-215l0-144c0-121 99-216 216-216l718 0 z" fill="#BB1D80"/>
		<path d="M2161 144c58 0 107 47 107 108 0 58-47 108-107 108-58 0-108-49-108-108 0-63 50-108 108-108 z M2322-36c-30 0-54 25-54 54 0 30 25 54 54 54 32 0 54-24 54-54 0-30-22-54-54-54 z M651-72c58 0 108 49 108 108 0 57-46 108-108 108-58 0-108-49-108-108 0-58 49-108 108-108 z M2340-287c0 77-67 141-142 141-40 0-80 5-120 15-159 39-307 171-312 335l-1 114 0 113-718 0 0-209c0-231-235-368-433-368-78 0-142-60-142-141l1868 0 z" fill="#00D26A"/>
	</g></svg>
