<svg version="1.1" xmlns="http://www.w3.org/2000/svg" viewBox="0 0 2300 2300"><g transform="scale(1,-1) translate(-256, -1869)">
		<path d="M1406-287c612 0 1006 388 1006 1004 0 422-721 433-1006 433-182 0-335-4-526-28-248-31-480-125-480-405 0-613 388-1004 1006-1004 z" fill="#FFB02E"/>
		<path d="M1798 76c175 0 322 142 322 322 0 175-142 322-322 322-180 0-322-147-322-322 0-175 142-322 322-322 z M1007 76c175 0 322 142 322 322 0 180-147 322-322 322-180 0-322-147-322-322 0-175 142-322 322-322 z" fill="#FFFFFF"/>
		<path d="M1691 220c79 0 144 63 144 144 0 81-67 144-144 144-80 0-143-65-143-144 0-80 64-144 143-144 z M1116 220c79 0 144 63 144 144 0 81-67 144-144 144-80 0-143-65-143-144 0-80 64-144 143-144 z" fill="#402A32"/>
		<path d="M1404-209c99 0 177 81 177 178 0 95-78 177-177 177-96 0-178-78-178-177 0-98 79-178 178-178 z" fill="#BB1D80"/>
		<path d="M1547 795c70 0 576 28 576 142 0 35-42 59-100 78-183 60-563 65-616 65-80 0-718-11-718-143 0-112 496-141 571-141l149 59 138-60 z" fill="#FF6723"/>
		<path d="M1548 795c0 51 5 100 16 149 18-4 36-6 55-6 137 0 248 94 278 215l10-1c160 0 287 129 287 288 0 161-130 287-287 287-76 0-151-29-207-87-67 99-178 157-296 157-117 0-226-54-296-157-58 58-130 87-207 87-161 0-288-129-288-287 0-165 131-288 295-288 32-125 145-214 277-214 20 0 40 2 59 6 11-49 16-98 16-149l288 0 z" fill="#D3D3D3"/>
		<path d="M1886 1330c-43 111-150 182-267 182-82 0-161-34-217-100-56 66-135 100-217 100-119 0-226-76-267-182l41 0c53 68 136 110 226 110 82 0 161-33 217-99 55 61 131 99 217 99 86 0 170-38 226-110l41 0 z" fill="#FFFFFF"/>
		<path d="M2197 1078c40 0 71 34 71 72 0 38-31 72-71 72-39 0-72-31-72-72 0-38 33-72 72-72 z M543 1150c39 0 72 31 72 72 0 39-31 72-72 72-40 0-71-34-71-72 0-38 31-72 71-72 z M2008 1383c-56 0-99 43-99 99 0 56 43 99 99 99 56 0 99-43 99-99 0-56-43-99-99-99 z M651 1438c57 0 108 46 108 108 0 58-47 107-108 107-58 0-108-47-108-107 0-58 49-108 108-108 z" fill="#FFB02E"/>
	</g></svg>
