<svg version="1.1" xmlns="http://www.w3.org/2000/svg" viewBox="0 0 2300 2300"><g transform="scale(1,-1) translate(-256, -1869)">
		<path d="M2125-287l0 251c0 165-12 322-90 463-110 199-382 328-629 328-200 0-401-79-544-217-161-153-175-373-175-574l0-251 1438 0 z" fill="#533566"/>
		<path d="M2197-287l-1 252c0 235-106 461-287 610l0-862 288 0 z M903-287l0 862c-176-148-287-362-287-611l1-251 286 0 z M1407-287c51 24 97 53 138 88 41 35 76 73 107 116 30 43 56 89 77 139 21 49 38 101 50 154l15 77c5 26 7 52 7 77 0 15-4 24-13 27-9 3-18 4-28 4l-14-1-14 1c-9 1-13 6-13 16l0 211c0 23-7 44-20 61-14 17-32 29-53 36-37 13-77 23-118 29-42 5-83 8-123 8-39 0-80-3-121-8-41-6-81-16-118-29-21-7-39-19-52-36-14-17-21-38-21-61l0-211c0-10-4-15-13-16l-14-1-14 1c-10 0-19-1-28-4-9-3-13-12-13-27 0-25 2-51 7-77l15-77c12-53 29-105 50-154 21-50 47-96 78-139 30-43 65-81 106-116 40-35 86-64 137-88l3 0 z" fill="#321B41"/>
		<path d="M1406-287c134 178 198 390 198 597l0 375-396-4 0-375c0-221 72-426 198-593 z" fill="#D3D3D3"/>
		<path d="M1484 396c3 0 6 1 10 4 74 61 110 156 110 243l0 184-396 0 0-184c0-91 39-182 109-243 3-3 6-4 10-4 18 0 69 109 79 130 11-19 59-130 78-130 z" fill="#F4F4F4"/>
		<path d="M1406 503c72 0 144 54 144 133l0 165c0 77-68 134-144 134-75 0-144-55-144-133l0-165c0-77 68-134 144-134 z" fill="#BB806E"/>
		<path d="M1407-31c19 0 36 15 36 36 0 19-15 36-36 36-19 0-36-15-36-36 0-19 15-36 36-36 z M1407 196c19 0 36 15 36 36 0 18-17 36-36 36-19 0-36-18-36-36 0-19 15-36 36-36 z M1548 425c14 0 25 11 25 24l0 139c0 14-11 24-25 24-16 0-81-51-98-63-11 15-26 23-45 23-18 0-32-7-43-22-16 10-79 62-97 62-13 0-24-10-24-24l0-139c0-14 11-24 25-24 16 0 80 50 96 61 11-14 25-21 43-21 19 0 34 8 45 23 16-11 82-63 98-63 z" fill="#321B41"/>
		<path d="M1757 988c68 0 120 57 120 120 0 68-57 120-120 120-68 0-120-57-120-120 0-68 57-120 120-120 z M1054 988c68 0 120 57 120 120 0 68-57 120-120 120-68 0-120-57-120-120 0-68 57-120 120-120 z" fill="#BB806E"/>
		<path d="M1522 647c118 0 224 92 232 220 11 141 18 268 28 409l1 14 0 13c0 188-151 350-345 350l-64 0c-48 0-93-9-135-28-140-61-211-189-211-336l1-13c11-139 18-270 29-409 8-124 110-220 232-220l232 0 z" fill="#C68D7B"/>
		<path d="M1667 1090l-163 0c-7 0-16 6-16 13 0 52 54 88 100 88 39 0 99-35 99-82 0-10-9-19-20-19 z M1323 1090c7 0 16 6 16 13 0 52-54 88-100 88-39 0-99-35-99-82 0-10 9-19 20-19l163 0 z" fill="#FFFFFF"/>
		<path d="M1636 1089l-126 0c-1 7-2 10-2 17 0 35 28 66 65 66 37 0 65-31 65-66 0-7-1-10-2-17 z M1317 1089c1 7 2 11 2 18 0 35-28 65-65 65-37 0-65-31-65-66 0-7 1-10 2-17l126 0 z" fill="#7D4533"/>
		<path d="M1606 1090l-66 0c-3 5-5 11-5 17 0 21 16 37 38 37 21 0 37-15 37-37 0-7-1-12-4-17 z M1287 1090c3 5 5 11 5 17 0 21-16 37-38 37-21 0-37-15-37-37 0-7 1-12 4-17l66 0 z" fill="#000000"/>
		<path d="M1553 1121c7 0 11 4 11 11 0 7-4 12-11 12-6 0-12-5-12-12 0-7 5-11 12-11 z M1232 1121c7 0 12 4 12 11 0 7-5 12-12 12-7 0-11-5-11-12 0-7 4-11 11-11 z" fill="#FFFFFF"/>
		<path d="M1769 1135c22 1 40 18 44 40l40 224c1 5 2 9 2 13l0 13c0 89-57 118-110 146-78 41-120 149-228 149-41 0-70-20-111-20-43 0-78 25-118 25-77 0-117-63-167-113-66-66-164-71-164-188 0-8 1-17 2-25l40-224c4-22 22-39 45-40-3 37-7 74-7 111 0 58 63 58 63 127l0 63c0 20 10 33 29 38 89 27 187 32 277 32 88 0 189-5 277-32 17-5 28-19 28-38l0-63c0-70 65-73 65-128 0-36-4-74-7-110 z" fill="#593B39"/>
		<path d="M1164 1219c18 0 48 31 101 31l20-1c22 0 40 17 40 38 0 37-31 42-60 42-34 0-141-19-141-70 0-22 17-40 40-40 z M1663 1219c22 0 39 17 39 40 0 51-104 71-138 71-29 0-62-5-62-41 0-30 17-38 38-38l22-1c51 0 80-31 101-31 z" fill="#593B39"/>
		<path d="M1433 953c22 0 37 20 37 39 0 18-16 71-28 107-12 32-12 51-35 51-14 0-23-9-26-21-8-29-38-113-38-136 0-19 15-40 37-40l53 0 z" fill="#AB6A55"/>
		<path d="M1406 823c25 0 48 7 71 20 23 13 55 45 55 57 0 9-4 13-12 13l-6-2c-42-15-65-27-108-27-38 0-74 9-108 27l-6 2c-6 0-12-5-12-12 0-2 1-4 2-7 24-42 75-71 124-71 z" fill="#990839"/>
	</g></svg>
