<svg version="1.1" xmlns="http://www.w3.org/2000/svg" viewBox="0 0 2300 2300"><g transform="scale(1,-1) translate(-256, -1869)">
		<path d="M2181 638l0 117-126 44-111-44 0-117 237 0 z M849 638l-237 0 0 117 128 36 109-36 0-117 z" fill="#F95725"/>
		<path d="M1871-214l0 314c49-26 81-42 133-42 116 0 212 91 212 212l0 361c0 29-22 53-52 53l-206 0c-30 0-53-24-53-53l0-174c0-7-4-12-11-12-8 0-180 93-203 108-42 22-99 35-148 35l-291 0c-53 0-103-12-150-37-20-12-200-106-204-106-7 0-11 5-11 12l0 174c0 29-23 53-53 53l-205 0c-29 0-53-23-53-53l0-361c0-115 90-212 212-212 53 0 87 16 137 44l0-316 946 0 z" fill="#FF6723"/>
		<path d="M1396 407c76 0 141 60 141 140l0 66-141 28-140-42 0-52c0-77 62-140 140-140 z" fill="#F4C6AD"/>
		<path d="M2214 755c46 0 87 19 117 53 16 19 48 48 48 73 0 12-4 22-12 30 13 15 28 28 28 48 0 15-12 37-28 40 3 7 4 11 4 18 0 23-21 42-43 42-9 0-18-3-26-10-9 15-22 23-39 23-13 0-23-5-31-14l-66-77-61 0c-5 0-8 3-8 8 0 11 38 32 38 66 0 30-21 54-53 54-34 0-58-37-75-59-41-47-62-107-62-166l0-129 269 0 z M849 755l0 129c0 63-22 120-63 167-20 23-40 58-75 58-29 0-53-21-53-53 0-37 38-56 38-67 0-5-3-8-8-8l-61 0-66 77c-9 10-19 15-32 15-15 0-30-9-37-24-9 7-18 10-28 10-22 0-42-19-42-42 0-7 1-11 4-18-16-7-27-20-27-39 0-21 15-33 28-48-9-9-13-19-13-31 0-24 34-55 48-72 28-32 70-54 117-54l270 0 z" fill="#FFD7C2"/>
		<path d="M1112 714c-6 10-12 22-18 35-6 13-10 26-11 37l-47 308-3 34c-1 11-2 23-2 34 0 28 5 55 16 80 10 25 24 48 42 67 17 19 38 35 63 47 24 12 50 19 78 22l91 8c9 0 18-5 25-15 8-11 18-23 30-36 11-13 26-26 44-37 18-11 42-17 72-17 19 0 37 2 56 5 19 3 37 4 56 4 11 0 21-2 32-6 11-5 21-11 30-18 9-8 16-17 22-27 5-10 8-21 8-32l9-375c0-9-1-18-3-28-3-13-7-26-11-37 21 13 38 30 51 52 13 22 19 45 19 70 0 23-1 47-4 71l-8 71c-3 23-6 47-8 70-3 23-4 47-4 70 0 11 2 22 6 32 3 10 7 20 11 30l12 31c3 11 5 22 5 34 0 35-11 67-32 94-22 27-50 45-84 54-20 5-38 13-53 22-15 9-29 22-42 39-15 19-33 35-54 46-21 11-43 16-68 16-11 0-22-1-32-4-10-3-20-7-29-11-10-4-20-7-29-10-9-3-19-5-29-5-13 0-26 2-39 7-13 4-26 6-39 6-22 0-40-3-55-9-15-6-28-14-39-23-11-9-20-20-28-32-8-12-16-24-25-36-9-12-19-23-30-34-11-11-25-21-41-28-27-13-49-31-65-55-17-25-25-52-25-82 0-21 3-38 9-51 5-13 12-25 19-35l19-31c6-10 10-22 11-36l23-265c3-28 13-53 31-75 17-23 40-38 67-46 z" fill="#212121"/>
		<path d="M1703 934c53 8 90 55 90 106 0 58-43 100-96 106l-73-122 79-90 z M1069 879l41 107-73 103c-49-11-81-54-81-103 0-66 54-107 113-107 z" fill="#F4C6AD"/>
		<path d="M1331 588c23 0 47 1 72 4 24 3 48 5 71 7 30 3 59 11 87 25 27 13 52 31 74 53 21 21 38 46 51 74 13 28 19 58 19 89 0 61-1 123-3 184-3 61-5 122-6 183 0 13-3 24-9 34-6 10-14 19-23 26-10 7-21 13-32 17-11 4-23 6-34 6-17 0-35-1-53-4-18-3-36-5-53-5-30 0-54 6-72 17-18 11-33 24-44 37-12 13-22 25-30 36-7 10-16 15-25 15l-91-8c-28-3-54-10-78-22-25-12-46-28-63-47-18-19-32-42-42-67-11-25-16-52-16-80 0-11 1-23 2-34l3-34 47-308c5-29 15-55 31-79 16-24 36-45 59-62 23-18 48-32 75-42 27-10 55-15 83-15 z" fill="#FFD7C2"/>
		<path d="M1394 750c21 0 38 16 38 38 0 21-16 38-38 38-21 0-38-16-38-38 0-21 16-38 38-38 z" fill="#990839"/>
		<path d="M1360 874c9 0 17 1 26 2 27 3 58 7 58 37 0 16-20 63-35 95-15 30-15 41-34 41-14 0-23-9-26-21-5-29-25-91-25-118 0-19 15-36 36-36 z" fill="#F1B99B"/>
		<path d="M1146 991l148 13c9 1 13 6 13 14 0 10-3 19-8 28-6 8-13 15-22 22-9 6-18 11-28 15-11 3-20 5-29 5-11 0-21-2-32-6-11-5-20-11-29-18-9-7-16-16-21-25-5-10-8-21-8-32 0-5 2-9 6-12 3-2 7-4 10-4 z M1454 1017l148 13c11 1 16 7 16 18 0 9-3 18-9 27-6 8-13 15-22 21-9 6-19 11-29 14-11 3-20 5-28 5-11 0-21-2-32-6-11-5-20-11-28-18-9-7-16-16-21-26-5-10-8-21-8-32 0-5 1-9 4-12 2-2 6-4 9-4 z" fill="#FFFFFF"/>
		<path d="M1177 993l112 10 1 11c0 33-27 57-57 57-31 0-59-24-59-58 0-5 0-15 3-20 z M1462 1018l112 10 1 15c0 32-30 53-58 53-36 0-59-26-59-59 0-7 3-12 4-19 z" fill="#7D4533"/>
		<path d="M1204 995l58 5c2 5 3 9 3 14 0 17-13 32-32 32-18 0-34-11-34-32 0-7 1-14 5-19 z M1489 1021l59 5 2 15c0 16-17 30-32 30-18 0-35-12-35-31 0-8 2-14 6-19 z" fill="#000000"/>
		<path d="M1210 1024c7 0 11 4 11 11 0 7-4 11-11 11-7 0-10-4-10-11 0-7 3-11 10-11 z M1496 1049c7 0 11 4 11 11 0 7-4 11-11 11-7 0-10-4-10-11 0-7 3-11 10-11 z" fill="#FFFFFF"/>
		<path d="M1136 1163c13 0 39 34 105 34 12 0 18 9 18 20 0 15-14 16-25 16-21 0-115-20-115-53 0-11 6-17 17-17 z M1582 1202c11 0 18 7 18 18 0 27-76 38-96 38-16 0-50-1-50-21 0-11 6-18 17-18 11 0 22 3 33 3 19 0 49-6 67-17l1 0c2-2 5-3 10-3 z" fill="#212121"/>
	</g></svg>
