<svg version="1.1" xmlns="http://www.w3.org/2000/svg" viewBox="0 0 2300 2300"><g transform="scale(1,-1) translate(-256, -1869)">
		<path d="M1820 969l-136 135 112 112 135-136-111-111 z M984 969l136 135-112 112-136-136 112-111 z" fill="#E4B29A"/>
		<path d="M1624 1060c60 0 167 36 186 103l56 200c0 75-60 135-135 135l-89 0c-75 0-136-61-136-135l1-38c0-13-3-25-9-36-5-13-28-36-28-47 0-29 36-27 36-38 8-82 13-144 118-144 z M1179 1060c26 0 47 4 62 11 15 7 26 16 34 29 7 13 12 28 15 46 3 17 5 37 7 58 0 3 2 5 6 7 4 1 8 3 13 6 5 2 9 5 13 9 3 3 5 9 5 16 0 7-4 15-12 24-8 9-14 16-17 23-5 10-8 21-8 32l0 42c0 19-4 36-11 53-7 16-17 30-29 43-13 12-27 22-43 29-17 7-34 10-53 10l-88 0c-19 0-36-3-52-10-17-7-31-17-43-29-13-13-23-27-30-43-7-17-11-34-11-53l15-48c3-13 7-24 10-35l5-20c5-16 9-32 13-48 4-17 8-33 13-49 5-17 14-31 28-44 14-13 30-23 49-32 18-9 37-15 57-20 19-5 37-7 52-7 z" fill="#EEBFAA"/>
		<path d="M948 1150c-13 0-24 4-35 13-11 8-16 19-16 32 0 5 1 10 3 13l6 9 6 7c2 2 3 5 3 8 0 3-3 7-8 13-6 5-12 13-18 23-7 10-13 23-18 38-6 15-9 34-9 56 0 27 4 53 11 78 7 25 18 48 33 67 15 19 33 35 55 47 22 12 48 18 77 18 15 0 30-2 44-6 14-5 28-7 43-7 18 0 36 4 54 11 17 7 36 11 55 11 25 0 46-8 62-23 16-15 24-36 24-61 0-22-4-39-13-52-9-13-21-23-35-30-14-7-30-11-47-12-18-2-36-3-54-3-8 0-18-1-31-2-13-1-26-4-38-8-12-5-22-11-31-18-9-8-13-18-13-30l-6 0c-13 0-24-5-33-15-11-13-16-26-16-40 0-12 3-22 9-31l0-38c-1-13-3-24-6-34-4-10-10-18-19-24-9-7-22-10-39-10 z M1855 1151c13 0 25 4 36 12 11 8 16 19 16 32 0 5-1 10-3 13l-6 9-6 7c-2 2-3 5-3 8 0 2 3 6 8 12 5 6 11 14 18 25 7 10 13 23 18 38 5 15 8 32 8 53 0 27-3 53-10 79-7 25-18 48-33 68-15 19-33 35-54 47-22 12-48 18-78 18-15 0-30-2-44-6-14-5-28-7-43-7-18 0-36 4-54 11-18 7-37 11-56 11-25 0-46-8-62-23-16-15-24-36-24-61 0-22 5-39 14-52 9-13 20-23 34-30 14-7 30-11 48-12 17-2 35-3 53-3l32-2c13-2 25-5 38-9 12-4 22-10 31-17 9-8 13-18 13-30 3 1 6 1 9 1 4 0 7 0 11-2 6-3 12-8 17-14 5-6 10-12 13-19 3-7 5-14 5-20 0-5-1-10-2-15-2-5-4-11-7-16 0-13 0-25 1-38 0-13 2-24 6-34 3-10 9-18 18-24 9-7 21-10 38-10 z" fill="#FFF9BA"/>
		<path d="M1648 1037c5 0 8 1 11 4 74 67 110 165 110 256 0 87-40 183-67 267-2 8-7 12-16 12-8 0-15-8-15-16 0-3 1-4 1-5 24-74 65-179 65-257 0-92-33-161-100-234-3-3-5-7-5-12 0-9 8-15 16-15 z M1156 1038c8 0 15 8 15 16 0 5-1 8-4 11-67 71-100 142-100 233 0 83 41 188 64 257l1 5c0 8-7 16-16 16-8 0-13-4-15-12-24-79-66-179-66-266 0-91 36-189 110-256 3-3 6-4 11-4 z" fill="#321B41"/>
		<path d="M1769 1194c50 0 93 43 93 94 0 51-42 93-93 93-50 0-94-41-94-93 0-55 45-94 94-94 z M1035 1194c50 0 93 43 93 94 0 51-42 93-93 93-50 0-94-41-94-93 0-55 45-94 94-94 z" fill="#321B41"/>
		<path d="M1606 1286l-65 0c-7 0-9 6-9 11 0 22 18 40 41 40 22 0 42-16 42-39 0-5-2-12-9-12 z M1263 1286c7 0 9 6 9 11 0 25-19 40-42 40-23 0-41-17-41-39 0-5 2-12 9-12l65 0 z" fill="#FFFFFF"/>
		<path d="M1582 1286l-49 0-1 11c0 15 7 33 25 33 18 0 26-18 26-33l-1-11 z M1271 1286l1 11c0 15-8 33-26 33-18 0-26-18-26-33 0-4 1-7 2-11l49 0 z" fill="#7D4533"/>
		<path d="M1563 1286l-21 0c-3 3-4 6-4 11 0 8 5 19 14 19 9 0 15-11 15-19 0-3-1-7-4-11 z M1262 1286c3 4 4 8 4 11 0 8-6 19-15 19-9 0-14-11-14-19 0-5 1-8 3-11l22 0 z" fill="#000000"/>
		<path d="M1544 1304c3 0 5 2 5 6 0 5-2 7-5 7-3 0-5-2-5-7 0-4 2-6 5-6 z M1260 1304c3 0 5 2 5 6 0 5-2 7-5 7-3 0-5-2-5-7 0-4 2-6 5-6 z" fill="#FFFFFF"/>
		<path d="M1211 708c67 0 127 15 179 44 71 40 104 74 162 136 4 4 9 7 15 8l17 4c5 1 10 4 14 7 4 3 6 10 6 19 0 7-2 14-7 19-5 5-12 8-19 8-9 0-19-1-28-4-10-3-20-4-29-4l-7 0 10 13 26 0 15 1c7 1 12 4 17 8 5 3 7 9 7 18 0 15-7 24-22 27 5 2 9 5 13 10 3 4 5 9 5 14 0 9-3 16-8 20-5 4-12 7-19 8l-17 1-29-1c-9 0-17-2-26-5-9-4-17-10-22-17-7-9-13-18-19-27l-20-28c-13-19-27-35-44-49-17-15-36-27-56-37-20-10-41-17-63-22-22-5-44-8-66-8-33 0-63 9-89 26-26 17-48 38-67 65-5 6-9 12-12 19-3 8-6 15-12 21l-146-66c5-11 11-23 18-34 7-11 14-22 21-31 35-48 75-86 120-113 45-27 98-44 157-49 4-1 8-1 13-1l12 0 z M2231 695c37 0 65 22 76 57l65 198c5 13 7 28 7 44 0 73-59 139-139 139l-299 0c-47 0-80-39-80-82 0-44 35-81 80-81l268 0c-14-38-59-166-59-194 0-47 38-81 81-81 z" fill="#E4B29A"/>
		<path d="M2377-87c-12 39-101 306-101 330 0 23 28 89 36 115l-202 0c-14-42-25-71-25-115 0-16 3-58 12-75l134-255 146 0 z M581-87l133 255c8 15 12 60 12 75 0 44-11 73-25 115l-202 0c8-27 36-91 36-115 0-25-88-292-100-330l146 0 z" fill="#EEBFAA"/>
		<path d="M1855 2l-152 0 0 195c0 144 100 213 198 308l133-130-129-121c-15-14-23-39-26-57l-24-195 z M1108 2l0 195c0 144-102 216-197 308l-133-130 128-121c15-15 24-39 27-57l24-195 151 0 z" fill="#E4B29A"/>
		<path d="M1609 1354c7 0 10 3 10 9 0 7-3 10-10 10l-59 0c-6 0-9-3-9-10 0-6 3-9 9-9l59 0 z M1253 1354c7 0 10 3 10 9 0 7-3 10-10 10l-59 0c-6 0-9-3-9-10 0-6 3-9 9-9l59 0 z" fill="#A56953"/>
		<path d="M2372-68l-151 0-36 69 165 0 22-69 z M1851-71l4 72-152 0 0-72 148 0 z M1109-71l0 72-152 0 3-72 149 0 z M591-68l36 69-166 0-21-69 151 0 z" fill="#D3D3D3"/>
		<path d="M1595 1185c6 0 9 3 9 9 0 6-3 9-9 9l-51 0c-6 0-9-3-9-9 0-6 3-9 9-9l51 0 z M1260 1185c6 0 9 3 9 9 0 6-3 9-9 9l-52 0c-6 0-9-3-9-9 0-6 3-9 9-9l52 0 z" fill="#990839"/>
		<path d="M2017 360l-131 131 228 223c19 19 41 28 68 28 50 0 96-42 96-96 0-27-10-51-29-68l-232-218 z M795 359l131 131-229 224c-19 19-41 28-68 28-54 0-95-44-95-96 0-25 10-49 29-68l232-219 z" fill="#F95725"/>
		<path d="M1815-214c19 0 30 12 31 31l5 112-148 0-146-77c-11-7-18-16-18-28 0-21 12-38 35-38l241 0 z M1238-214c23 0 35 17 35 38 0 12-8 23-18 28l-146 77-149 0 5-112c1-19 12-31 31-31l242 0 z M2390-214c12 0 22 11 22 21 0 8-34 110-40 125l-151 0-134-89c-9-6-14-15-14-26 0-17 13-31 31-31l286 0 z M707-214c17 0 31 13 31 31 0 11-5 20-14 26l-133 89-151 0c-6-17-40-117-40-125 0-11 11-21 21-21l286 0 z" fill="#533566"/>
		<path d="M2306 342l-202 0 61 185-23-2c-19 0-38 4-57 11-26 9-49 24-68 43l-214 224c-18 19-32 40-41 62-10 22-15 46-15 73 0 27 5 52 15 75 10 23 24 43 41 60 17 17 38 31 61 41 23 10 47 15 74 15 25 0 50-5 73-14 23-9 44-23 62-41l256-256c22-22 40-45 53-69 13-24 19-52 19-85 0-15-1-30-4-43-3-14-7-28-12-42l-79-237 z M707 342l-61 185 24-2c20 0 39 4 57 10 26 9 49 24 68 44l214 224c18 19 32 40 42 62 9 22 14 46 14 73 0 27-5 52-15 75-10 23-24 43-41 60-17 17-38 31-61 41-23 10-48 15-75 15-25 0-50-5-73-14-24-9-45-23-62-41l-255-256c-22-22-39-45-52-69-13-24-20-52-20-85 0-15 2-30 5-43 3-14 6-28 11-42l78-237 202 0 z" fill="#FF6723"/>
		<path d="M1422 502c27 0 53 0 80 1 27 1 53 1 80 1 23 0 46 5 69 14 23 9 45 20 67 35 22 15 43 32 64 51 21 19 40 38 59 58 19 20 36 40 51 60l41 53c17-10 36-15 57-15 17 0 33 3 48 10 15 7 28 16 39 27 11 11 19 24 26 39 6 15 9 30 9 47 0 31-11 59-33 82-11 11-21 22-30 33-10 11-20 21-31 30-11 9-23 16-36 22-13 5-28 8-44 8-17 0-32-3-46-9-15-7-27-15-38-26-11-11-20-24-26-39-7-15-10-30-10-47 0-7 1-14 2-19 1-5 3-11 4-18-12-21-27-45-45-72-19-27-39-53-62-76-23-24-48-44-75-60-33-19-58-24-92-24-1 5-3 10-4 17l-6 19c-3 6-6 11-10 15-5 4-10 6-17 6-7 0-12-2-17-6-5-5-9-10-10-17-19 17-40 26-65 26l-16 0c-6 0-11-1-16-2-5-2-9-5-12-8-3-4-5-10-5-17 0-11 3-18 9-21 6-3 13-5 21-6l25-2c21-2 20-8 35-23l-39 3-15-1c-10-1-19-4-26-8-7-4-11-11-11-21 0-13 6-21 18-26-12-5-18-13-18-25 0-8 3-14 9-19 5-5 12-8 19-8-3-3-4-8-4-14 0-7 3-14 8-19 5-6 11-9 19-9 z M1268 340c5 0 11 2 18 7 6 5 9 10 9 16 4-2 8-3 12-3 7 0 12 2 17 7 5 4 8 9 9 15 3-1 6-1 8-1 6 0 11 2 16 5 7 5 10 13 10 22 0 5-1 9-3 13 5 1 10 5 13 10 3 5 4 10 4 15 0 6-2 12-6 17-5 5-10 9-16 13l-18 10c-7 3-12 5-16 8l2 0c4 0 10 3 14 10 5 7 7 13 7 18 0 7-3 13-8 18-5 5-12 7-19 7l-14-2-38-12c-7-4-11-5-17-5-67 35-125 81-175 137-51 56-90 119-117 190 11 11 19 24 25 39 6 14 9 29 9 44 0 16-3 31-9 46-7 15-15 28-26 39-11 11-24 19-38 26-15 6-30 9-46 9-17 0-33-3-48-10-15-7-29-16-40-27l-30-29c-10-10-19-20-27-30-8-10-14-21-19-33-5-12-8-26-8-41 0-16 3-31 10-45 6-15 14-27 25-38 10-11 22-20 37-27 14-7 29-10 45-11 34-79 78-149 133-210 55-61 119-113 194-155 12-7 24-13 36-19 12-6 24-12 36-19l10-6 15-8 14-7c5-2 8-3 10-3 z" fill="#EEBFAA"/>
	</g></svg>
