<svg version="1.1" xmlns="http://www.w3.org/2000/svg" viewBox="0 0 2300 2300"><g transform="scale(1,-1) translate(-256, -1869)">
		<path d="M1905-292c63 0 118 9 166 27 48 18 91 43 128 74 37 31 69 67 96 109 27 42 51 87 72 135 20 47 37 97 52 148 15 51 28 102 41 152l21 84c6 27 9 56 9 85 0 101-49 134-147 134 0 22 1 44 4 66 2 22 5 44 8 66l8 66c2 22 3 44 3 66 0 21-2 42-5 63-4 20-11 38-20 54-9 16-22 29-38 39-16 9-37 14-62 14-23 0-45-5-66-15-21-11-37-27-46-50 0 26-1 51-3 75-3 23-9 44-18 62-9 17-23 31-41 42-18 11-43 16-75 16-24 0-44-5-59-16-16-11-29-24-38-41-10-17-17-35-21-55-4-21-6-41-6-61-4 10-10 19-18 26-9 7-18 13-28 18-10 5-20 8-31 11-11 2-22 3-32 3-29 0-52-6-69-17-17-12-29-27-38-46-9-19-14-40-16-63-2-23-3-46-3-69-11 13-25 24-44 31-19 7-37 10-54 10-35 0-64-12-86-35-22-24-35-53-38-87 1 0 1 1 1 2 0 1 0 1-1 1l-1 0c0-1 1-2 1-8l-1-14-1-91-2 0-1 91c-1 14-1 7-1 21l0 1c-1 0-1 0-1-1 0-1 0-2 1-2-1 17-5 33-11 48-7 15-15 28-26 39-11 11-23 19-38 26-15 6-31 9-48 9-17 0-34-3-53-10-19-7-35-18-46-31 0 23-1 46-3 69-2 23-7 44-15 63-9 19-21 34-38 46-17 11-40 17-69 17-10 0-20-1-31-3-11-3-22-6-32-11-11-5-20-11-28-18-9-7-15-16-19-26 0 19-2 39-6 60-4 21-11 39-20 56-10 17-23 30-38 41-16 11-36 16-59 16-32 0-57-5-75-16-19-11-33-25-42-42-9-18-15-39-17-62-3-24-4-49-4-75-9 23-24 39-45 50-21 10-43 15-66 15-25 0-46-5-62-14-16-10-29-23-38-38-9-16-16-34-19-54-4-21-6-42-6-63 0-22 1-44 4-66 2-23 5-45 8-67l8-66c2-22 3-44 3-66l-13 0c-42 0-74-9-97-27-25-21-38-56-38-106 0-29 3-58 10-86 6-28 13-56 20-84 13-50 27-101 42-152 15-51 32-101 53-148 20-48 44-93 71-135 27-42 59-78 96-109 37-31 79-56 128-74 48-18 103-27 166-27 71 0 133 10 186 30 52 19 96 46 133 80 37 34 66 74 89 121 23 46 40 96 53 150 13 53 22 109 27 168 5 58 7 116 8 174 1-58 4-116 9-175 5-59 13-115 26-168 13-53 31-103 54-149 23-47 52-87 89-121 37-35 81-62 133-81 52-19 114-29 186-29 z" fill="#FDD641"/>
		<path d="M2224 322c18 0 32 11 35 30 11 61 20 122 39 182 11 36 49 55 83 55 56 0 80-42 109-79 0 97-35 146-134 146-2 0-4 0-6 1l-7-1c-49-8-97-52-114-102-13-43-21-86-30-129-4-22-11-45-11-68 0-19 15-35 36-35 z M2120 607c18 0 30 16 33 32 8 51 10 128 15 205 7 113 16 208 87 245l-2 1c-53 0-101-10-124-65l0 22c-26-67-30-140-34-211-4-65-14-138-14-190 0-24 14-39 39-39 z M1669 586c18 0 36 17 36 36l0 336c0 53 20 109 54 147-119 0-126-107-126-195l0-288c0-18 17-36 36-36 z M1870-291c-310 60-388 417-388 678l0 411c0 49 22 136 80 150-9 2-18 3-27 3-90 0-125-75-125-153l0-411c0-79 7-157 21-233 47-265 167-432 439-445 z M1193 586c10 0 19 4 26 11 7 7 10 15 10 25 0 24 0 51-1 81l-1 32c0 19 1 38 3 57 3 30 8 59 17 87 9 27 23 51 42 72-19 0-38-3-57-9-20-6-36-17-49-32l0 1c-8-21-14-42-19-63-5-22-7-44-7-67l0-159c0-10 4-18 11-25 7-7 15-11 25-11 z M977 655c11 0 19 4 26 11 6 7 9 15 9 25l1 47-1 46c-1 31-1 61-1 92l0 73c0 16 1 33 3 50 2 22 7 43 14 63 7 19 17 34 31 43l-1 0c-8 0-18-1-29-3-11-3-22-6-33-11-11-5-21-10-30-17-9-7-14-16-17-25-6-24-10-49-10-76l0-97c0-29 0-60-1-93l-1-36c0-20 1-39 3-57 1-10 5-18 12-25 7-7 15-10 25-10 z M662 344c10 0 18 4 25 12 8 8 5 3 11 29 0 1-1 2-2 3-7 35-13 67-22 100-30 121-68 227-204 240 3-24 4-48 4-72l-8 0c29-3 68-19 86-45 34-53 62-165 74-238 3-17 18-29 36-29 z M765 615c22 0 33 20 33 38 0 68-9 135-14 203-4 47-5 99-14 146-12 63-38 84-73 131-9-35-10-72-10-108 19-38 25-153 32-255 6-95-4-155 46-155 z M1905 643c18 0 36 17 36 36l0 412c0 49 10 100 47 129-82-3-119-83-119-154l0-387c0-19 15-36 36-36 z" fill="#FFB02C"/>
	</g></svg>
