<svg version="1.1" xmlns="http://www.w3.org/2000/svg" viewBox="0 0 2300 2300"><g transform="scale(1,-1) translate(-256, -1869)">
		<path d="M1228 575c90 0 170 70 178 161l-9 17c-33 28-52 61-71 100-21 41-38 116-98 116-47 0-71-39-85-77-21-56-43-101-86-135l-8-19c8-94 89-163 179-163 z" fill="#533566"/>
		<path d="M1567 755c180 0 342 143 342 341 0 184-148 342-342 342l-680 0c-182 0-344-142-344-342 0-189 153-341 342-341 86 0 152 49 185 123 33 77 57 155 156 155 57 0 104-33 126-83l0-1c10-25 20-48 31-71 32-73 96-123 184-123 z" fill="#83CBFF"/>
		<path d="M1567 683c225 0 414 181 414 413 0 228-186 414-415 414l-681 0c-230 0-413-185-413-414 0-222 178-413 413-413 118 0 209 69 251 167 23 48 33 111 90 111 55 0 66-58 91-111 44-99 133-167 250-167 z M1693-287c-161 0-305 49-415 163-89 92-160 257-160 411 0 60 47 109 108 109 43 0 82-26 100-66 11-27 6-53 12-88 35-220 168-314 355-314 137 0 249 47 313 174 26 50 47 128 47 186l0 1150 36 36 144 0 35-36 0-1159c0-44-8-92-20-140-75-300-305-426-555-426 z M1566 799c-112 0-135 80-173 166-30 66-90 111-167 111-79 0-138-45-167-111-38-86-66-166-174-166-167 0-297 135-297 297 0 163 132 298 297 298l681 0c162 0 297-132 297-298 0-166-134-297-297-297 z" fill="#F8312F"/>
		<path d="M1405 288c39 0 73 31 73 72 0 42-36 71-73 71l-357 0c-37 0-73-29-73-71 0-41 34-72 73-72l357 0 z M2268 1438l0 251c0 19-17 36-35 36l-144 0c-19 0-36-15-36-36l0-251 215 0 z" fill="#533566"/>
	</g></svg>
