<svg version="1.1" xmlns="http://www.w3.org/2000/svg" viewBox="0 0 2300 2300"><g transform="scale(1,-1) translate(-256, -1869)">
		<path d="M1149 503c16 0 31 1 44 4l668 117c121 21 210 126 210 247 0 90-57 153-57 171 0 20 11 52 11 83 0 149-114 180-137 306-25 129-132 213-256 213-19 0-36-5-53-5-12 0-22 4-31 12-58 48-108 74-181 74-107 0-191-56-237-146-8-15-16-20-32-23-126-27-215-127-215-254 0-31 8-59 8-90 0-72-42-131-42-202 0-92 57-154 57-175 0-21-12-49-12-81 0-141 117-251 255-251 z" fill="#593B39"/>
		<path d="M2069-287c69 0 127 57 127 128l1 121c0 40-3 80-9 119l-316 232c-86 64-144 109-221 157-151 93-92 57-321 201-171-35-310-121-429-267l-309-378 167-52-11-261 1321 0 z" fill="#8B62BF"/>
		<path d="M1763 60l426 23c-53 351-358 603-712 603-51 0-101-5-150-16l0-174c0-239 193-436 436-436 z" fill="#BB806E"/>
		<path d="M1120 895c70 0 126 57 126 125 0 69-56 127-125 127-69 0-127-55-127-126 0-69 56-126 126-126 z M1784 1022c69 0 126 56 126 126 0 69-56 126-126 126-70 0-126-57-126-125 0-69 55-127 126-127 z" fill="#BB806E"/>
		<path d="M1459 620c201 0 379 148 379 369 0 55-12 112-19 168-11 83-13 208-108 208l-11-1-238-43c-19-3-36-5-51-5-82 0-145 31-206 88-4 4-9 6-14 6-19 0-20-18-23-31-14-58-44-83-71-106-31-26-50-42-50-110 0-5 1-9 2-13l51-237c38-175 183-293 359-293 z" fill="#C68D7B"/>
		<path d="M1483 755c58 0 115 33 138 91l1 4c0 9-4 13-13 13l-3-1c-41-27-89-51-150-51-27 0-60 12-74 12-6 0-12-5-12-12 0-3 2-5 3-8 24-29 73-48 110-48 z" fill="#990839"/>
		<path d="M1448 881c23 0 46 6 67 10 19 3 35 19 35 39 0 12-14 40-29 66-32 54-42 83-67 83-14 0-28-11-31-26-6-40-17-93-17-132 0-22 19-40 42-40 z" fill="#AB6A55"/>
		<path d="M1157 1159c14 0 62 46 129 46 10 0 21 10 21 21 0 10-10 21-21 21-49 0-105-20-141-51l-1 0c-5-4-8-9-8-16 0-12 9-21 21-21 z M1552 1253c14 0 41 12 66 12 21 0 42-4 62-9l1-1c3 0 4-1 5-1 12 0 23 9 23 21 0 30-72 31-91 31-21 0-86-3-86-32 0-11 10-21 20-21 z" fill="#593B39"/>
		<path d="M1927-72c167 0 306 134 306 306 0 168-137 305-306 305-168 0-305-136-305-305 0-168 134-306 305-306 z" fill="#00F397"/>
		<path d="M1650-287c101 57 169 117 188 234 31-10 63-15 96-15 85 0 156 30 213 90-28-7-55-11-82-11-163 0-310 128-310 303 0 78 32 156 92 214-116-31-202-116-223-244-29 8-59 13-88 13-55 0-108-14-155-41-154-86-329-152-329-360 0-55 14-100 41-151 7-11 8-21 15-32l542 0 z" fill="#00D26A"/>
		<path d="M1622-287c38 0 71 30 71 70 0 40-33 70-71 70l-171 0c-5 0-7 2-7 6 0 11 40 27 40 71 0 40-34 70-72 70-19 0-37-7-50-20l-151-148c-14-14-21-31-21-50 0-35 29-69 67-69l365 0 z M1933-202c83 0 151 69 151 152 0 37-23 84-41 126-13 28-18 60-22 88-6 39-4 88-49 88-27 0-46-21-46-47 0-21 8-42 8-62 0-4-2-6-5-6-24 0-129 152-168 152-21 0-41-18-41-41 0-26 39-64 70-92 15-15 22-18 22-30l-4 0c-37 32-70 67-105 102-8 9-18 14-30 14-23 0-41-20-41-42 0-9 3-17 10-26 30-35 68-67 100-97l-2-2c-22 16-80 65-105 65-23 0-40-17-40-41 0-54 112-79 112-98 0-1-1-2-4-2-8 0-47 32-69 32-23 0-40-18-40-40 0-17 7-29 20-36 83-47 164-87 245-138l3 0c23-13 47-19 71-19 z" fill="#C68D7B"/>
		<path d="M1262-287l0 152c0 63-47 120-110 131l-429 76c-8 1-17 2-25 2-98 0-155-95-155-181 0-98 78-180 180-180l539 0 z" fill="#A17FD5"/>
		<path d="M1249 990c39 0 81 20 102 57 1 2 2 5 2 9 0 10-10 20-20 20-15 0-33-47-83-47-35 0-48 21-61 21-11 0-19-8-19-19 0-27 58-41 79-41 z M1610 1049c43 0 82 20 102 57 2 3 3 6 3 9 0 10-9 19-20 19-20 0-30-47-84-47-35 0-45 22-61 22-11 0-18-8-18-19 0-27 57-41 78-41 z" fill="#593B39"/>
	</g></svg>
