<svg version="1.1" xmlns="http://www.w3.org/2000/svg" viewBox="0 0 2300 2300"><g transform="scale(1,-1) translate(-256, -1869)">
		<path d="M1714 647c128 0 230 103 230 231 0 37-8 66-23 101-2 5-3 10-3 16 0 7 1 10 4 17 14 34 23 67 23 103 0 47-13 90-39 130-27 41-39 81-39 128 0 131-107 237-236 237-15 0-24 6-33 17-52 64-111 98-192 98-81 0-143-35-192-98-9-11-18-18-33-18-130 0-237-104-237-236 0-47-10-85-38-128-25-39-39-83-39-130 0-19 2-36 6-52 6-24 21-52 21-68 0-4-1-9-4-16-14-33-23-64-23-101 0-128 103-231 231-231l616 0 z" fill="#000000"/>
		<path d="M2125-287l0 251c0 165-12 322-90 463-110 199-382 328-629 328-200 0-401-79-544-217-161-153-175-373-175-574l0-251 1438 0 z" fill="#533566"/>
		<path d="M2197-287l-1 252c0 235-106 461-287 610l0-862 288 0 z M903-287l0 862c-176-148-287-362-287-611l1-251 286 0 z M1407-287c51 24 97 53 138 88 41 35 76 73 107 116 30 43 56 89 77 139 21 49 38 101 50 154l15 77c5 26 7 52 7 77 0 15-4 24-13 27-9 3-18 4-28 4l-14-1-14 1c-9 1-13 6-13 16l0 211c0 23-7 44-20 61-14 17-32 29-53 36-37 13-77 23-118 29-42 5-83 8-123 8-39 0-80-3-121-8-41-6-81-16-118-29-21-7-39-19-52-36-14-17-21-38-21-61l0-211c0-10-4-15-13-16l-14-1-14 1c-10 0-19-1-28-4-9-3-13-12-13-27 0-25 2-51 7-77l15-77c12-53 29-105 50-154 21-50 47-96 78-139 30-43 65-81 106-116 40-35 86-64 137-88l3 0 z" fill="#321B41"/>
		<path d="M1406-287c134 178 198 390 198 597l0 375-396-4 0-375c0-221 72-426 198-593 z" fill="#D3D3D3"/>
		<path d="M1484 396c3 0 6 1 10 4 74 61 110 156 110 243l0 184-396 0 0-184c0-91 39-182 109-243 3-3 6-4 10-4 18 0 69 109 79 130 11-19 59-130 78-130 z" fill="#F4F4F4"/>
		<path d="M1406 503c72 0 144 54 144 133l0 165c0 77-68 134-144 134-75 0-144-55-144-133l0-165c0-77 68-134 144-134 z" fill="#452829"/>
		<path d="M1407-31c19 0 36 15 36 36 0 19-15 36-36 36-19 0-36-15-36-36 0-19 15-36 36-36 z M1407 196c19 0 36 15 36 36 0 18-17 36-36 36-19 0-36-18-36-36 0-19 15-36 36-36 z M1548 425c14 0 25 11 25 24l0 139c0 14-11 24-25 24-16 0-81-51-98-63-11 15-26 23-45 23-18 0-32-7-43-22-16 10-79 62-97 62-13 0-24-10-24-24l0-139c0-14 11-24 25-24 16 0 80 50 96 61 11-14 25-21 43-21 19 0 34 8 45 23 16-11 82-63 98-63 z" fill="#321B41"/>
		<path d="M1406 685c188 0 344 134 352 336 3 72 9 145 9 217 0 48-24 102-80 102l-228 0c-96 0-164 42-226 119-4 5-9 8-15 8-9 0-14-3-16-9-39-117-157-88-157-209 0-76 6-152 9-228 8-195 156-336 352-336 z" fill="#573739"/>
		<path d="M1644 1105c-49 16-95 28-144 44 21 31 54 59 94 59 26 0 94-15 94-50 0-21-30-39-44-53 z M1168 1105c47 17 97 29 145 44-21 29-53 59-94 59-27 0-94-13-94-49 0-23 28-41 43-54 z" fill="#000000"/>
		<path d="M1659 1100c10 0 20 10 20 21 0 42-57 79-98 79-45 0-98-39-98-86 0-7 9-14 16-14l160 0 z M1313 1100c7 0 17 6 17 14 0 49-57 86-99 86-40 0-98-35-98-80 0-10 10-20 20-20l160 0 z" fill="#FFFFFF"/>
		<path d="M1628 1100l-123 0c-1 3-2 6-2 9l0 8c0 35 26 64 63 64 35 0 64-30 64-64 0-7-1-10-2-17 z M1307 1100c2 5 3 10 3 17 0 35-30 64-64 64-35 0-64-30-64-64 0-7 1-10 2-17l123 0 z" fill="#7D4533"/>
		<path d="M1599 1100l-64 0c-3 5-5 11-5 17 0 21 15 37 37 37 22 0 36-18 36-37 0-7-1-12-4-17 z M1277 1100c3 5 5 11 5 17 0 21-15 37-37 37-22 0-36-18-36-37 0-7 1-12 4-17l64 0 z" fill="#000000"/>
		<path d="M1545 1131c7 0 11 5 11 12 0 7-4 11-11 11-7 0-12-4-12-11 0-8 4-12 12-12 z M1224 1131c8 0 12 4 12 12 0 7-5 11-12 11-7 0-11-4-11-11 0-7 4-12 11-12 z" fill="#FFFFFF"/>
		<path d="M1433 953c22 0 37 20 37 39 0 18-16 71-28 107-12 32-12 51-35 51-14 0-23-9-26-21-8-29-38-113-38-136 0-19 15-40 37-40l53 0 z" fill="#3D2123"/>
		<path d="M1406 823c25 0 48 7 71 20 23 13 55 45 55 57 0 9-4 13-12 13l-6-2c-42-15-65-27-108-27-38 0-74 9-108 27l-6 2c-6 0-12-5-12-12 0-2 1-4 2-7 24-42 75-71 124-71 z" fill="#290118"/>
		<path d="M1152 1245c16 0 53 23 95 23 9 0 19-2 28-2 11 0 19 7 19 18 0 17-18 23-34 23-31 0-127-8-127-43 0-13 6-19 19-19 z M1660 1245c10 0 19 9 19 20 0 30-97 43-115 43l-13 0c-15 0-33-5-33-21 0-12 8-21 20-21 9 0 19 2 28 2 41 0 80-23 94-23 z" fill="#000000"/>
	</g></svg>
