<svg version="1.1" xmlns="http://www.w3.org/2000/svg" viewBox="0 0 2300 2300"><g transform="scale(1,-1) translate(-256, -1869)">
		<path d="M2053 288c120 0 215 97 215 215 0 121-97 216-215 216-121 0-216-99-216-216 0-119 97-215 216-215 z M759 288c121 0 216 97 216 215 0 121-99 216-216 216-121 0-216-99-216-216 0-119 97-215 216-215 z" fill="#E4B29A"/>
		<path d="M2125 1078l0 230c0 232-190 417-421 417l-596 0c-224 0-421-177-421-417l0-230 1438 0 z" fill="#F8312F"/>
		<path d="M1406-287c365 0 648 258 664 627l9 221c3 93 9 154 9 242 0 275-230 491-508 491l-348 0 0-1c-202 0-384-114-467-297-34-74-41-132-41-215l18-441c16-367 297-627 664-627 z" fill="#EEBFAA"/>
		<path d="M1406 19c83 0 165 40 212 113 3 4 4 8 4 11 0 10-10 19-21 19-3 0-6-1-10-2-63-29-119-44-185-44-65 0-124 14-186 44-3 2-7 3-10 3-10 0-20-10-20-20 0-3 1-7 4-11 47-73 129-113 212-113 z" fill="#990839"/>
		<path d="M762 298l-17 412c0 43 21 78 59 96l410 181c96 43 141 108 178 201 3 7 6 11 14 11 14 0 19-20 25-35 27-77 92-141 167-175l410-181c39-17 59-51 59-96l-18-411c91 44 148 123 166 214l64 319c5 25 8 50 8 74 0 21-2 43-5 64-9 47-30 86-30 130 0 18 4 32 4 50 0 106-83 197-193 197-15 0-26 8-31 23-28 81-89 140-185 140-17 0-33-4-49-4-43 0-82 76-188 76-117 0-146-89-204-89-59 0-86 87-202 87-107 0-144-77-189-77-18 0-31 5-49 5-98 0-154-59-185-141-5-15-16-23-32-23-112 0-193-92-193-196 0-17 4-34 4-51 0-23-5-44-13-67-15-40-22-83-22-126 0-24 3-49 8-74l63-320c18-92 78-172 166-214 z" fill="#E6E6E6"/>
		<path d="M1451 234c38 0 63 36 63 70 0 6-1 13-3 20l-61 216c-7 20-21 35-44 35-23 0-37-15-44-35l-61-216c-2-7-3-14-3-21 0-34 25-69 63-69l90 0 z" fill="#D19479"/>
		<path d="M903 449l0 54-153 0c-13 0-27-10-27-25 0-16 9-29 27-29l153 0 z M2078 449c17 0 27 14 27 29 0 15-14 25-27 25l-169 0 0-54 169 0 z M1532 467c-3 65-63 108-126 108-61 0-123-41-126-108l39 0c3 42 43 73 87 73 43 0 84-30 87-73l39 0 z" fill="#F4F4F4"/>
		<path d="M1875 493c-88 31-178 56-267 81 37 58 98 110 175 110 48 0 174-25 174-92 0-40-53-73-82-99 z M993 493c88 31 177 56 266 81-36 57-100 110-174 110-48 0-175-24-175-91 0-39 55-77 83-100 z" fill="#000000"/>
		<path d="M1903 485l-297 0c-16 0-31 11-31 29l1 7c18 85 90 151 183 151 85 0 158-58 180-141l1-9c0-19-16-37-37-37 z M1261 485c16 0 31 14 31 30l-1 6c-19 89-96 151-183 151-85 0-159-57-181-141l-1-9c0-19 16-37 37-37l298 0 z" fill="#FFFFFF"/>
		<path d="M1847 485l-230 0c-3 11-5 22-5 32 0 68 57 119 120 119 68 0 119-55 119-119 0-11-1-21-4-32 z M1250 485c3 9 4 19 4 32 0 63-52 119-118 119-65 0-120-53-120-119 0-10 2-21 5-32l229 0 z" fill="#7D4533"/>
		<path d="M1792 485l-121 0c-5 11-8 21-8 32 0 40 31 68 69 68 37 0 68-29 68-68 0-11-3-21-8-32 z M1195 485c5 11 8 21 8 32 0 39-31 68-68 68-37 0-68-29-68-68 0-11 3-21 8-32l120 0 z" fill="#000000"/>
		<path d="M1691 542c12 0 22 10 22 22 0 12-10 21-22 21-12 0-21-9-21-21 0-12 9-22 21-22 z M1095 542c12 0 21 10 21 22 0 12-9 21-21 21-12 0-22-9-22-21 0-12 10-22 22-22 z" fill="#FFFFFF"/>
		<path d="M1661 306l67 99-16 98-218 0c-11 0-16-6-16-17 0-96 96-175 183-180 z M1789 306c40 3 79 19 109 44 35 28 68 82 68 110 0 25-21 43-43 43l-81 0-61-98 8-99 z M1010 306l77 101-26 96-186 0c-23 0-44-18-44-43l2-12c24-79 95-137 177-142 z M1139 306c84 8 182 83 182 180 0 9-7 17-16 17l-113 0-53-102 0-95 z" fill="#00D1ED"/>
		<path d="M1789 306l53 197-130 0-51-197 128 0 z M1139 306l53 197-131 0-51-197 129 0 z" fill="#26EAFC"/>
		<path d="M939 730c-19 0-36 16-36 38 0 24 32 44 61 57 75 32 112 36 161 36 30 0 78 0 78-40 0-23-18-37-39-37-13 0-26 3-41 3-37 0-72-8-107-21-19-8-62-36-77-36 z M1870 730c19 0 37 16 37 37 0 10-4 19-13 28-62 56-103 68-213 68-36 0-74-9-74-42 0-22 19-37 38-37 23 0 43 4 66 4 104 0 130-58 159-58 z" fill="#9B9B9B"/>
	</g></svg>
