<svg version="1.1" xmlns="http://www.w3.org/2000/svg" viewBox="0 0 2300 2300"><g transform="scale(1,-1) translate(-256, -1869)">
		<path d="M1406-287c137 0 217 84 262 205 11 27 17 55 25 82 59 188 125 384 184 572 5 18 42 130 42 147 0 39-34 72-72 72l-390 0c-30 0-57-18-68-48l-146-408c-11-28-36-47-67-47l-704 0c-39 0-72-31-72-72l0-431c0-39 31-72 72-72l934 0 z" fill="#F92F60"/>
		<path d="M1855 791c0 30 8 126 54 126l54 0c38 0 72 31 72 71l0 9c-1 3 0 7-3 10-3 19-7 17-15 35-16 36-74 36-108 36l0 216-431 0c-32 0-102-53-126-72l0-176c0-79 47-110 108-147 12-7 13-17 13-30 0-27-6-51-13-78l395 0 z" fill="#EEBFAA"/>
		<path d="M1909 1006c38 0 72 33 72 72l0 575c0 39-31 72-72 72l-359 0c-39 0-72-31-72-72l0-575c0-38 33-72 72-72l359 0 z" fill="#433B6B"/>
		<path d="M1909 1078l0 575-431 0 0-575 431 0 z" fill="#00A6ED"/>
		<path d="M1557 1150l-129 0c-42 0-76 32-76 76 0 66 52 122 122 122l83 0c54 0 99-46 99-99 0-54-46-99-99-99 z M1981 953c38 0 72 31 72 71 0 39-31 72-72 72 48 0 90 17 90 72 0 39-31 72-72 72 39 0 72 31 72 72 0 39-31 72-72 72 39 0 72 31 72 72 0 38-33 72-72 72l-108 0c-38 0-72-33-72-72 0-39 31-72 72-72-39 0-72-31-72-72 0-39 31-72 72-72-39 0-72-31-72-72 0-39 31-72 72-72-39 0-72-31-72-72 0-40 34-71 72-71l90 0 z" fill="#EEBFAA"/>
	</g></svg>
