<svg version="1.1" xmlns="http://www.w3.org/2000/svg" viewBox="0 0 2300 2300"><g transform="scale(1,-1) translate(-256, -1869)">
		<path d="M2414-138l0 702c-21 5-42 8-61 8-165 0-205-158-336-158-136 0-172 159-336 159-148 0-192-126-309-126-121 0-165 126-308 126-165 0-205-159-336-159-136 0-168 154-328 158l0-710 2014 0 z" fill="#26C9FC"/>
		<path d="M1581 2c10 0 19 3 27 9 8 6 13 14 16 24l103 389c2 8 5 16 8 23 3 7 8 14 14 19 5 5 13 7 23 7 9 0 16-2 21-5 5-4 9-9 14-15l246-324c11-15 25-27 42-36 16-9 34-13 53-13 16 0 31 3 45 10 14 6 26 15 37 26 10 11 18 23 24 38 6 14 9 29 9 45l0 601c0 9-1 22-3 37-3 15-7 30-12 44-6 14-14 25-23 34-6 6-14 9-22 9-4 0-8-1-13-2l-10 19-15 19c-5 6-11 11-17 16-6 4-12 6-19 6-7 0-11-1-14-4-3-3-8-6-13-7-7 7-16 11-26 11-11 0-20-4-27-12-6-6-9-14-9-22l1-7c-5 3-10 4-17 4-10 0-19-3-26-10-7-7-11-15-11-25 0-7 2-14 7-20l16-21c5-9 10-19 15-31 5-13 7-29 7-49 0-5-2-7-7-7l-2 1c-1 1-2 1-3 1-7 5-13 11-18 16-6 5-14 7-23 7-11 0-21-4-28-12-8-8-12-18-12-29 0-11 4-21 13-30l61-55c11-10 17-23 17-38l0-129c-19 26-36 51-52 74-16 23-33 44-52 63-19 19-40 34-64 46-25 12-55 20-90 24l-920 96c-11 1-13 7-13 17l62 431-386 54 0-29c0-22 4-40 11-55 7-15 15-28 26-39 11-11 22-20 34-28l34-23c11-8 20-16 27-25 7-9 10-20 10-33l-1-9-39-275c-1-4-1-8-1-12-1-4-1-8-1-12 0-21 4-42 12-61 7-20 18-37 31-52 13-15 29-28 48-38 19-10 39-16 60-19l319-38c7-1 14-5 19-10 5-6 8-13 8-20 0-4 0-7-1-8l-14-52c-7-27-16-58-25-94l-31-113c-11-40-20-77-29-111-9-34-17-63-22-86-6-24-9-37-9-40 0-10 4-18 11-25 7-7 15-10 24-10l565 0 z" fill="#573739"/>
		<path d="M1546 697c63 0 123 29 162 83 28 38 33 80 44 125 21 13 31 30 38 55l30 118c7 23 10 45 10 70 0 110-78 211-195 233l-97 17c-15 3-28 4-43 4-134 0-221-102-234-224-6-44-15-90-15-133 0-22 7-41 22-58-3-25-7-51-7-76 0-95 70-180 165-196l84-15c12-2 24-3 36-3 z" fill="#00A6ED"/>
		<path d="M741 1186c149 0 270 119 270 270 0 149-120 269-270 269-149 0-269-119-269-269 0-149 118-270 269-270 z" fill="#F9C23C"/>
		<path d="M766 1188l28 4c9 1 18 3 27 6 19 23 33 50 43 80 9 30 14 60 14 90 0 28-4 55-11 82-8 26-19 51-32 74 9 5 20 10 31 14 11 3 22 6 33 7 13-28 24-57 33-87 8-30 12-61 12-92 0-38-7-74-21-108 19 17 36 37 49 60 2 16 3 32 3 48 0 31-3 62-10 93-7 30-18 59-31 87 24-2 46-8 67-18-3 7-5 14-7 21l-9 20c-21 6-42 9-63 9-40 0-76-10-108-29-32-19-58-45-79-78-12 0-24 2-36 6-13 3-25 8-36 13 13 23 30 44 50 64 20 19 42 36 66 50 24 13 49 24 76 31 20 5 41 8 61 8l20-1-17 16-19 15c-27-2-54-7-79-16-26-9-50-20-73-35-23-15-44-32-63-51-19-19-36-41-49-64-17 13-32 29-45 49 25 40 57 74 94 103 37 28 80 47 127 56-13 4-25 7-37 8-13 1-26 2-39 2-33-16-63-35-90-58-28-23-52-50-72-80-9 19-15 40-19 63-5-4-10-8-14-13l-12-15c6-24 15-47 27-68 12-22 27-41 44-57 17-17 37-30 60-40 22-11 46-17 72-18 3-10 5-20 6-30l4-32c-30 1-60 6-89 14-29 8-56 21-81 40-18 14-35 32-51 54-16 22-26 45-31 68-3-9-6-17-8-25-3-9-5-18-7-27 27-51 63-90 110-115 47-25 98-39 155-40-2-22-8-44-19-67-19 2-40 6-62 11-22 5-43 12-64 21-21 8-41 18-60 31-19 12-34 26-46 43-3 5-7 7-10 7 3-12 7-24 12-35 5-11 10-23 16-34 28-21 59-38 93-49 33-11 67-20 101-25-9-9-17-18-26-25-9-7-20-14-31-19 7-3 13-5 20-7 7-2 14-4 21-5 59 43 88 101 88 176 0 28-4 56-12 83 6 10 13 20 21 29 8 9 17 17 26 24 11-21 21-44 28-67 7-23 10-47 10-71 0-33-7-66-21-98-14-33-34-60-59-81 z" fill="#FFF478"/>
		<path d="M1581 2c21 0 38 14 43 33 60 231 119 447 178 682-43 9-88 10-131 14l-7-39c-16-87-91-155-183-155-104 0-188 84-188 186 0 16 2 31 5 47l-121 15-17-64c-50-195-179-673-179-684 0-19 16-35 35-35l565 0 z" fill="#FF6723"/>
		<path d="M1544 725c69 0 148 51 164 121 15 59 27 112 41 171 7 29 14 61 14 91 0 49-34 87-80 95l-250 45-8 1-9 0c-94 0-96-86-109-155l0 1c-5-51-20-133-20-181 0-86 62-159 143-172l82-14c10-2 21-3 32-3 z" fill="#573739"/>
		<path d="M1384 1126l6 3 1-1c5 3 11 6 18 7 7 1 13 1 18 1 6 0 12-1 18-3 5-2 11-3 16-3 3 0 6 2 9 5 3 3 4 6 4 9 0 4-2 7-5 10-4 2-8 4-13 5l-14 3-12 0c-3 0-8 0-15-1l-20-3c-7-2-12-4-17-7-5-3-7-7-7-12 0-9 4-13 13-13 z M1686 1073c7 0 13 7 13 14 0 22-65 43-83 43-8 0-13-7-13-14 0-7 5-12 12-13 35-5 68-30 71-30 z" fill="#000000"/>
		<path d="M1674 983c-29 0-72 13-101 18-6 1-9 5-9 10 0 24 38 43 59 43 30 0 63-25 63-58 0-7-5-13-12-13 z M1465 1020c5 0 9 6 9 10 0 36-29 62-62 62-21 0-59-19-59-42 0-7 4-12 11-13 30-5 69-17 101-17 z" fill="#FFFFFF"/>
		<path d="M1651 987l-76 14c0 22 17 43 40 43 22 0 40-18 40-41 0-6-1-11-4-16 z M1459 1020c3 5 4 10 4 16 0 21-16 41-39 41-26 0-41-18-41-43l76-14 z" fill="#7D4533"/>
		<path d="M1634 990l-40 7-1 8c0 12 11 22 23 22 14 0 22-12 22-24 0-3-1-8-4-13 z M1440 1024c4 4 6 9 6 15 0 14-12 22-24 22-12 0-22-10-22-22l1-8 39-7 z" fill="#000000"/>
		<path d="M1606 1014c5 0 7 3 7 8 0 5-2 7-7 7-5 0-7-2-7-7 0-5 2-8 7-8 z M1412 1048c5 0 7 2 7 7 0 5-2 8-7 8-5 0-7-3-7-8 0-5 2-7 7-7 z" fill="#FFFFFF"/>
		<path d="M1526 917c12 0 23 9 23 23 0 13-1 26-4 40-5 26 0 56-24 56-7 0-12-3-15-9-8-16-39-66-39-81 0-7 2-13 7-16 13-12 35-13 52-13 z" fill="#3D2123"/>
		<path d="M1504 842c14 0 66 17 66 33 0 5-2 7-7 7-15 0-30-6-45-6-31 0-60 9-85 28-1 1-3 2-5 2-5 0-7-2-7-7l1-3c11-34 49-54 82-54 z" fill="#990839"/>
		<path d="M1762 1126c-7 40-39 70-78 77l-151 27c28-39 54-75 105-83l124-21 z" fill="#000000"/>
		<path d="M2410-285l0 471c-18 5-37 7-57 7-172 0-199-158-336-158-138 0-166 158-336 158-145 0-191-125-309-125-118 0-168 126-309 126-164 0-205-159-335-159-133 0-168 150-328 158l0-478 2010 0 z" fill="#0084CE"/>
	</g></svg>
