<svg version="1.1" xmlns="http://www.w3.org/2000/svg" viewBox="0 0 2300 2300"><g transform="scale(1,-1) translate(-256, -1869)">
		<path d="M1352 1096l146 88-84 143-146-85 84-146 z" fill="#452829"/>
		<path d="M2059 79l-13 130-388 59 0-181 401-8 z M1047-146l-2 378c0 7 2 13 5 20l-177 0 30-398 144 0 z M1007 804c45 0 88 6 131 17 42 11 82 28 120 50 37 21 72 47 103 78 31 31 57 65 80 104l-142 83c-31-52-72-93-123-122-52-30-108-45-168-45-11 0-24 1-39 3-15 2-31 5-46 8-16 3-31 8-45 13-15 5-26 12-35 19l-29 24c-9 7-17 14-26 20-9 5-19 10-30 13-11 3-24 5-39 5l-99 0c-9 0-17-3-23-8-6-5-9-13-10-22-10 0-20-2-29-7-10-5-15-13-15-26 0-9 3-17 10-24 7-7 15-11 24-11l-1-11c0-11 4-19 12-24 7-5 17-9 28-10l17-1 16 1c11 1 20 1 27 1l43-38c7-7 15-12 22-16l24-12c41-19 80-34 117-45 37-11 79-17 125-17 z M1528 1052l248 46c39 7 74 23 105 48 30 25 52 56 66 94l100 273c5 13 8 26 8 40 0 13-4 24-12 33-8 9-18 16-29 22-11 6-23 10-36 13-13 3-25 4-35 4-13 0-24-2-33-6-8-4-11-13-11-25l0-5c-9-5-18-12-28-19-10-8-15-18-15-29 0-7 1-13 3-19 2-7 5-13 8-18l-75-207c-3-10-9-18-17-24-8-6-17-10-27-12l-251-47 31-162 z" fill="#573739"/>
		<path d="M1451 235l181 61c36 12 58 47 58 82 0 9-1 18-4 25l-81 256-269-141 115-283 z" fill="#636363"/>
		<path d="M1253 256c23 0 42 7 59 22l214 184c35 32 86 97 86 147 0 39-19 99-36 135l-361-146-171-87 132-212c16-27 47-43 77-43 z" fill="#9B9B9B"/>
		<path d="M1614 83c25 0 51 1 76 4l0 177-32 4-8 36-199-69c29-107 40-152 163-152 z M1044 245c22 32 84 53 123 70l-123 196-120-64c-50-26-68-47-68-106 0-31 7-66 18-96l170 0 z M809 842l97 141-80 44-100-141c28-15 54-32 83-44 z M1215 598l386 79c3 3 4 8 4 14 0 3-1 8-3 13l-18 34c-3 5-6 10-7 14-10 33-17 68-22 105-4 32-7 64-7 94l0 14c-2 3-4 5-7 7-3 2-7 3-10 3-2 0-4-1-6-2-3-1-5-3-6-5l-269 144c-12-14-23-34-32-61-9-27-17-55-23-85-7-30-12-59-15-87-3-29-5-52-5-70 0-36 3-72 10-107 7-35 17-70 30-104 z M1987 1346l33 90-163 59c-11-32-24-63-28-96l158-53 z" fill="#0092E7"/>
		<path d="M1495 915c54 0 56 60 61 98 31 5 106 7 106 55 0 41-17 133-22 173-170-25-121-20-266-38-57-8-123-53-138-126 51-51 185-162 259-162 z" fill="#00A6ED"/>
		<path d="M1873 1438c80 0 144 64 144 143 0 81-67 144-144 144-81 0-144-67-144-144 0-80 65-143 144-143 z" fill="#CDC4D6"/>
		<path d="M716-241l311 1c10 0 20 10 20 20l-1 105-150 43-197-118c-8-5-12-12-12-23 0-16 12-28 29-28 z M2203-82c15 0 28 14 28 28 0 11-42 123-75 210-29 74-31 100-52 100-8 0-92-33-105-38l-7-133 195-162c3-3 9-5 16-5 z" fill="#533566"/>
		<path d="M1211 1178c56 0 163 34 183 101l54 195c0 71-58 133-133 133l-87 0c-76 0-133-62-133-133l0-37c0-37-36-60-36-81 0-38 36-21 36-37 8-85 15-141 116-141 z" fill="#573739"/>
		<path d="M1416 1320c92 0 106 162 106 225 0 68-34 123-112 123-35 0-50 23-77 23-20 0-36-10-56-10-23 0-40 15-62 15-22 0-41-9-56-26-21-24-93-6-93-76 0-30 23-62 57-63l143-6c23-1 35-19 35-40 0-51 63-16 63-60 0-19-3-37-3-56 0-29 29-49 55-49 z" fill="#000000"/>
		<path d="M1211 1452c11 0 17 6 17 17 0 5-2 10-6 13l-1 0c-3 1-6 3-9 6-13 9-32 12-46 12-13 0-29 0-29-18 0-17 16-16 42-18 9-1 16-4 21-9 4 0 6-3 11-3 z" fill="#000000"/>
		<path d="M1192 1398c10 0 10 8 10 15 0 22-20 35-40 35-22 0-42-14-42-37 0-5 2-11 9-11l63-2 z" fill="#FFFFFF"/>
		<path d="M1169 1399l2 13c0 14-9 31-24 31-18 0-26-17-26-32l1-11 47-1 z" fill="#7D4533"/>
		<path d="M1152 1399c3 4 4 8 4 11 0 8-6 19-15 19-9 0-14-10-14-18 0-3 0-8 3-11l22-1 z" fill="#000000"/>
		<path d="M1133 1417c3 0 5 2 5 6 0 5-2 7-5 7-3-2-5-4-5-6 0-5 2-7 5-7 z" fill="#FFFFFF"/>
		<path d="M1139 1278c18 0 45 15 45 34 0 7-3 10-8 10-10 0-13-26-38-26-4 0-9 2-13 2-5 0-8-3-8-9 0-11 15-11 22-11 z" fill="#990839"/>
	</g></svg>
