<svg version="1.1" xmlns="http://www.w3.org/2000/svg" viewBox="0 0 2300 2300"><g transform="scale(1,-1) translate(-256, -1869)">
		<path d="M1747 683c69 0 126 56 126 126 0 69-56 126-126 126-70 0-125-58-125-126 0-69 54-126 125-126 z M1065 683c68 0 125 55 125 126 0 70-57 126-125 126-69 0-126-56-126-126 0-69 56-126 126-126 z" fill="#F4C6AD"/>
		<path d="M1981-287l-7 508c-156 143-369 210-574 210-199 0-403-63-569-205l0-513 1150 0 z" fill="#0092E7"/>
		<path d="M848-288l0 545c-167-154-236-341-269-545l269 0 z M2233-288c-36 209-102 394-271 547l0-547 271 0 z" fill="#3BC6F6"/>
		<path d="M1442-286l0 514-72 0 0-514 72 0 z M1981 72c22 0 36 19 36 38l0 178-359 0 0-178c0-19 13-36 35-36 18 0 36 13 36 34 0-18 17-36 36-36 19 0 36 15 36 36 0-19 15-36 36-36 22 0 36 18 36 37 0-18 17-35 36-35 18 0 36 15 36 34 0-19 15-36 36-36 z M1118 72c18 0 36 15 36 34l0 182-359 0 0-178c0-19 15-36 36-36 21 0 33 16 36 34 0-18 14-36 35-36 18 0 37 15 37 36 0-19 15-36 36-36 21 0 36 19 36 37 0-19 15-35 36-35 19 0 35 16 35 34 0-18 17-36 36-36 z" fill="#FFD7C2"/>
		<path d="M1514-215c19 0 36 15 36 36 0 18-17 35-36 35-19 0-36-17-36-35 0-19 15-36 36-36 z M1514 0c19 0 36 15 36 36 0 19-15 36-36 36-19 0-36-15-36-36 0-19 15-36 36-36 z M1406 144c91 0 179 42 235 120 9-8 22-12 34-12l324 0c30 0 54 22 54 54l0 72c0 32-25 53-54 53l-1186 0c-29 0-54-21-54-53l0-72c0-32 24-54 54-54l323 0c13 0 25 4 35 12 56-78 144-120 235-120 z" fill="#FFF478"/>
		<path d="M1406 252c71 0 144 50 144 130l0 85-288 0 0-85c0-76 69-130 144-130 z" fill="#F4C6AD"/>
		<path d="M1479 360c146 0 282 112 298 260 9 132 16 262 24 394l-790 0c8-132 16-262 25-394 11-151 157-260 298-260l145 0 z" fill="#FFD7C2"/>
		<path d="M1672 808l-170 0c-13 0-18 10-18 21 0 4 4 18 7 22 17 38 55 66 98 66 42 0 105-38 105-87 0-12-10-22-22-22 z M1310 808c13 0 18 10 18 21 0 47-59 88-105 88-42 0-105-38-105-87 0-12 10-22 22-22l170 0 z" fill="#FFFFFF"/>
		<path d="M1639 808l-132 0c-2 6-3 12-3 19 0 38 32 69 69 69 40 0 69-31 69-69 0-7-1-13-3-19 z M1306 808l1 9 0 9c0 38-28 70-68 70-40 0-68-31-68-69 0-7 1-13 3-19l132 0 z" fill="#7D4533"/>
		<path d="M1608 808l-69 0c-3 7-5 13-5 19 0 21 17 39 39 39 22 0 40-18 40-39 0-6-2-12-5-19 z M1273 808c3 7 5 13 5 19 0 21-17 39-39 39-21 0-39-17-39-39 0-7 1-14 4-19l69 0 z" fill="#000000"/>
		<path d="M1552 842c8 0 12 4 12 12 0 8-4 12-12 12-6 0-12-5-12-12 0-6 6-12 12-12 z M1216 842c7 0 12 6 12 12 0 7-5 12-12 12-8 0-12-4-12-12 0-8 4-12 12-12 z" fill="#FFFFFF"/>
		<path d="M1436 668c23 0 42 18 42 40 0 14-19 69-33 108-16 45-19 49-39 49-15 0-25-7-29-20-8-26-43-114-43-137 0-22 19-40 42-40l60 0 z" fill="#F1B99B"/>
		<path d="M1406 521c25 0 48 7 71 20 23 13 55 45 55 57 0 9-4 13-12 13l-2 0c-71-24-58-29-112-29-41 0-72 9-108 28l-5 1c-9 0-13-4-13-12 0-2 1-4 2-7 25-44 78-71 124-71 z" fill="#990839"/>
		<path d="M1837 1132c30 0 54 22 54 54 0 30-22 54-54 54-30 0-54-22-54-54 0-30 22-54 54-54 z M975 1132c29 0 54 24 54 54 0 30-25 54-54 54-30 0-54-22-54-54 0-32 24-54 54-54 z" fill="#37C9CD"/>
		<path d="M1769 866c32 1 45 19 45 52 0 33-5 68-14 104-28 104-36 175-51 267-83 36-126 151-226 151-40 0-73-24-117-24-44 0-77 25-119 25-101 0-140-113-224-152-7-56-8-111-19-165-13-69-46-142-46-210 0-26 19-48 46-48-3 36-7 72-7 108 0 56 63 56 63 124l0 61c0 18 14 32 29 37 88 26 189 30 277 30 62 0 137-2 213-15 45-8 92-14 92-53l0-61c0-70 65-68 65-124 0-36-4-71-7-107 z" fill="#212121"/>
		<path d="M1760 1301l-79 184c18 8 33 26 33 48 0 29-22 52-52 52-29 0-52-22-52-52 0-17 9-32 22-43l-118-161 246-28 z M1047 1301l246 28-118 161c13 11 22 26 22 43 0 29-22 52-52 52-29 0-52-22-52-52 0-22 15-40 33-48l-79-184 z" fill="#FFD7C2"/>
		<path d="M1805 1006l0 5c0 6 1 17 4 32 4 20 9 44 16 72l22 91 21 94c7 29 12 56 17 80 5 23 7 40 7 50 0 7-2 14-5 21l6 0c13 0 25 5 36 15 11 9 16 21 16 35 0 15-5 27-16 36-11 9-23 14-37 14-13 0-25-4-36-13-11-9-17-21-17-35 0-11 3-21 9-30-13 0-29-5-46-16-18-11-36-24-55-37-19-14-37-26-54-37-18-11-33-17-46-17-15 0-27 6-37 18-29 37-57 75-85 113-28 37-57 74-87 110 10 5 18 13 25 23 6 9 9 20 9 31 0 18-7 33-20 46-13 12-29 18-46 18-17 0-33-6-46-18-13-12-20-27-20-45 0-11 3-22 9-32 6-10 14-18 25-23-30-36-59-73-87-110-29-38-57-76-86-113-10-12-22-18-36-18-13 0-29 6-46 17-18 11-36 23-54 37-19 13-37 26-55 37-18 11-33 16-46 16 6 10 9 21 9 32 0 13-6 24-17 33-12 9-24 13-36 13-14 0-26-5-37-14-11-9-16-21-16-36 0-15 6-28 18-37 11-9 22-13 36-13l4 0c-3-5-5-12-5-19 0-10 2-27 7-50 5-24 10-51 17-81l22-94c7-33 14-64 21-92l15-72c3-17 5-28 5-34l0-3 798 0 z" fill="#FFF478"/>
		<path d="M1406 1105c48 0 90 35 90 88 0 48-42 88-90 88-48 0-90-41-90-88 0-53 42-88 90-88 z" fill="#00D1ED"/>
		<path d="M1640 1132c32 0 53 25 53 54 0 29-21 54-53 54-30 0-54-22-54-54 0-30 22-54 54-54 z M1172 1132c30 0 54 22 54 54 0 30-22 54-54 54-29 0-54-24-54-54 0-29 24-54 54-54 z" fill="#F92F60"/>
	</g></svg>
