<svg version="1.1" xmlns="http://www.w3.org/2000/svg" viewBox="0 0 2300 2300"><g transform="scale(1,-1) translate(-256, -1869)">
		<path d="M2087-87c7 0 13 3 18 9 5 5 7 11 7 18 0 4 0 7-1 9l3 0c5 0 9-2 12-5l11-12c3-5 7-9 11-12 4-4 9-6 15-6 6 0 11 2 15 7 5 5 6 10 6 17 1 0 1-1 1-2l11-10c4-4 9-6 14-6 5 0 10 2 15 6 5 4 6 9 6 17l2-1-1 0 1-2c4-5 10-7 17-7 6 0 11 2 15 6 4 4 6 9 6 15 0 5-2 10-5 15-310 329-149 158-475 502l-111 52-68-74 437-458 4-5 2-21c0-9 1-17 3-24 1-8 4-15 9-20 4-5 11-8 20-8 z M1340-287c34 0 66 37 66 72l0 741-78 49-50-216c-11-37-18-74-18-113 0-38 2-72 2-116l0-317-36-28c-19 0-36-17-36-35 0-18 15-37 36-37l114 0 z" fill="#573739"/>
		<path d="M1402 288l77 143 286 0 0 432-431 0 0-269c-38-93-75-209-75-306l143 0 z" fill="#8B62BF"/>
		<path d="M1769 859l621 837c3 4 4 8 4 11 0 11-7 18-18 18l-50 0c-38 0-121-76-146-101l-518-476c-11-11-24-19-38-25-66-30-158-36-218-45l-711-97c-47-8-87-5-120-49-8-11-32-40-32-50 0-11 10-21 20-21 251-1 517-2 768-2l438 0 z" fill="#573739"/>
		<path d="M1769 859l188 254-166 154-123-106c-38-32-137-56-188-64l-290-48 0-190 579 0 z" fill="#9B9B9B"/>
		<path d="M433 813c-18 0-33 31-33 47 0 3 1 6 3 9 32 36 74 67 111 99 32 27 62 59 96 82 8 5 11 8 22 8 29 0 65-57 81-78l-57-119-157-34c-19-4-47-14-66-14 z M2275 1550l140 78c9 5 19 11 30 16 10 5 20 11 29 17 5 3 9 8 10 15 1 7 1 13 1 18 0 11-2 20-5 25-4 5-9 8-16 9l-15 1-7 0c-9-1-18-1-27-1-15 0-33 0-52 1l-58 0c-20 0-39 0-58-1l-50-3c-9-1-19-5-30-12-10-6-16-15-16-25 0-55 1-32 2-86l122-52 z" fill="#533566"/>
		<path d="M1550 0c33 0 57 15 77 40 3 4 8 6 13 6 39 0 71 23 87 58 11 27 4 60 23 88 11 15 15 33 15 52 0 19-11 35-11 48 0 13 11 28 11 47 0 50-39 92-92 92l-247 0c-50 0-92-39-92-92 0-17 10-32 10-47 0-15-10-31-10-48 0-39 31-63 31-103 0-51 41-95 94-95 5 0 10-2 14-6 23-25 42-40 77-40 z" fill="#000000"/>
		<path d="M1575 360c32 0 50 6 50 40-11 24-55 120-79 120-7 0-13-3-17-8-11-11-61-101-61-112 0-33 15-40 47-40l60 0 z" fill="#452829"/>
		<path d="M1760 295l107 93c-21 61-58 138-102 190l-96-32-70-95 161-156 z" fill="#8B62BF"/>
		<path d="M1686 201c27 0 48 23 48 49 0 26-20 48-48 48-26 0-49-21-49-48 0-26 22-49 49-49 z M1402 201c26 0 49 22 49 49 0 27-23 48-49 48-26 0-48-20-48-48 0-26 21-49 48-49 z" fill="#452829"/>
		<path d="M1622 103c7 0 6 5 9 10 13 37 61 34 61 79 0 31-3 62-4 93-5 80-61 137-143 137-79 0-141-60-144-137-1-29-4-60-4-89 0-21 9-41 33-41l93 0c63 0 91-52 99-52 z" fill="#573739"/>
		<path d="M1588 323c3 0 4 2 4 5 0 16-38 28-48 28-13 0-48-13-48-28 0-3 1-5 4-5 7 0 28 11 44 11 16 0 36-11 44-11 z" fill="#290118"/>
		<path d="M1544 231c16 0 27 56 27 61 0 8-7 15-16 15l-22 0c-8 0-15-7-15-15 0-3 10-61 26-61 z" fill="#3D2123"/>
		<path d="M1620 209c11 0 38 5 38 19 0 9-11 17-18 23-19-7-39-11-58-18 9-13 22-24 38-24 z M1467 209c16 0 30 11 38 24-19 7-38 11-57 18-7-7-19-12-19-23 0-14 27-19 38-19 z" fill="#000000"/>
		<path d="M1615 212c18 0 40 13 40 32 0 5-3 8-8 8l-66 0c-4 0-6-2-6-5 0-20 22-35 40-35 z M1472 212c18 0 40 15 40 35 0 3-2 5-6 5l-66 0c-5 0-8-3-8-8 0-19 22-32 40-32 z" fill="#FFFFFF"/>
		<path d="M1609 219c14 0 26 11 26 26l0 7-51 0-1-7c0-15 12-26 26-26 z M1478 219c14 0 26 11 26 26l-1 7-50 0-1-7c0-15 12-26 26-26 z" fill="#7D4533"/>
		<path d="M1609 230c8 0 15 7 15 15l-1 7-27 0c-1-3-2-5-2-7 0-8 7-15 15-15 z M1478 230c8 0 15 7 15 15 0 2-1 4-2 7l-27 0-1-7c0-8 7-15 15-15 z" fill="#000000"/>
		<path d="M1618 231l4 4c0 2-1 4-4 5-3-1-4-3-4-5l4-4 z M1487 231c3 0 4 1 4 4 0 3-1 5-4 5-3-1-4-3-4-5l4-4 z" fill="#FFFFFF"/>
		<path d="M1610 168c8 0 46 4 46 18 0 4-5 8-9 8-9-5-17-7-24-8l-25-1c-5 0-8-3-8-8 0-5 3-8 8-8l12-1 z M1479 168c4 0 8 0 13 1 5 1 7 4 7 9 0 4-2 7-5 7l-2 0c-5-1-10-1-13-1-7 0-14 1-19 4-6 3-13 5-20 6-5-1-7-4-7-8 0-3 2-6 6-8 4-3 9-5 14-6l15-3c5-1 9-1 11-1 z" fill="#000000"/>
	</g></svg>
