<svg version="1.1" xmlns="http://www.w3.org/2000/svg" viewBox="0 0 2300 2300"><g transform="scale(1,-1) translate(-256, -1869)">
		<path d="M2179 683c68 0 125 55 125 126 0 70-57 126-125 126-69 0-126-56-126-126 0-69 56-126 126-126 z" fill="#966661"/>
		<path d="M669 827c69 0 126 56 126 126 0 68-55 125-126 125-70 0-126-57-126-125 0-69 56-126 126-126 z" fill="#0084CE"/>
		<path d="M2035 1402c69 0 126 56 126 126 0 70-58 125-126 125-69 0-126-54-126-125 0-69 56-126 126-126 z" fill="#86D72F"/>
		<path d="M885 1474c70 0 126 57 126 125 0 69-56 126-126 126-69 0-126-56-126-126 0-68 55-125 126-125 z" fill="#F92F60"/>
		<path d="M1947-287l0 531c-141 129-328 210-535 210-202 0-391-74-538-212l0-529 137 0 53 31 53-31 574 0 55 31 55-31 146 0 z" fill="#E1D8EC"/>
		<path d="M1118-287l0 684c-36-15-72-32-107-53l0-631 107 0 z M1801-287l0 637c-35 20-71 37-108 52l0-689 108 0 z" fill="#8D65C5"/>
		<path d="M1586 144l36 252-432 0 36-252 360 0 z" fill="#F3EEF8"/>
		<path d="M1564 39c34 0 58 29 58 61l0 88c0 32-25 60-59 60-10 0-20-3-29-8l-111-67c-11-7-17-17-17-29 0 13-6 22-17 29l-111 67c-9 5-19 8-29 8-34 0-59-28-59-60l0-88c0-32 24-61 58-61 11 0 21 4 30 9l111 66c11 7 17 17 17 30 0-14 6-24 17-30l111-66c9-5 19-9 30-9 z" fill="#F70A8D"/>
		<path d="M1435 82c18 0 35 16 35 35l0 64c0 19-17 35-35 35l-51 0c-18 0-35-16-35-35l0-64c0-18 16-35 35-35l51 0 z" fill="#F837A2"/>
		<path d="M1406-215c29 0 54 21 54 53 0 30-22 54-54 54-32 0-54-24-54-54 0-32 25-53 54-53 z M1406-72c32 0 54 24 54 54 0 30-22 54-54 54-30 0-54-22-54-54 0-30 22-54 54-54 z" fill="#F3EEF8"/>
		<path d="M2048 19c31 0 59 9 84 26 25 17 44 39 57 67 5 11 10 24 13 37l18 82c3 14 8 28 14 41l30 59 16 34c4 10 6 18 6 23 0 13-4 25-13 36-9 10-20 15-33 15-9 0-18-3-25-9-7-6-14-13-19-22-6-9-11-18-15-27-8-16-7-22-17-28-2 0-4 1-5 4-9 33-16 67-19 103-4 36-7 71-8 105-1 13-5 23-12 32-7 8-18 12-31 12-12 0-22-5-29-14-8-10-12-21-12-32 0-22 2-45 7-69 3-20 5-38 5-56l0-11-3-4-3 3c-5 27-10 53-14 80-4 26-8 53-11 80-1 11-6 20-13 29-7 8-17 12-28 12-12 0-22-4-30-13-9-9-13-19-13-31 0-23 3-49 9-78l14-79-3 0-32 106c-3 9-8 16-15 21-7 5-16 8-25 8-13 0-23-4-30-13-8-9-12-20-12-32 0-5 2-14 6-26 3-12 7-25 12-38 5-13 9-26 14-38l10-29 0-2c0-1-1-2-3-2-3 0-5 5-8 14l-10 29c-5 10-10 20-17 29-7 9-17 13-29 13-13 0-23-4-31-13-8-9-12-20-12-32 0-3 3-12 8-26l20-51 55-131 25-58c9-22 10-33 17-40 13-29 32-52 56-69 24-18 52-27 84-27 z M903 288l0 144c0 66-22 134-69 186-24 26-46 65-85 65-34 0-59-27-59-60 0-41 43-61 43-74 0-7-3-10-10-10l-68 1-73 86c-9 11-21 16-35 16-16 0-37-10-42-26-10 8-21 12-32 12-27 0-46-22-46-48 0-7 1-14 4-19-18-6-31-24-31-45 0-23 17-38 32-55-9-9-14-21-14-34 0-26 40-61 55-79 34-40 81-60 130-60l300 0 z" fill="#966661"/>
		<path d="M2197-287l0 404-288 0 0-404 288 0 z M903-287l0 575-288 0 0-575 288 0 z" fill="#CDC4D6"/>
		<path d="M1406 252c70 0 144 51 144 130l0 85-288 0 0-85c0-76 69-130 144-130 z" fill="#8B5C56"/>
		<path d="M1765 714c67 0 121 54 121 121 0 66-53 120-121 120-67 0-121-53-121-120 0-67 54-121 121-121 z M1056 714c66 0 120 53 120 121 0 68-57 120-120 120-67 0-121-53-121-120 0-67 54-121 121-121 z" fill="#8B5C56"/>
		<path d="M1527 360c122 0 236 91 244 220 11 139 18 270 29 409l1 13 0 13c0 197-164 351-361 351l-68 0c-145 0-273-84-332-213-23-51-29-105-29-151l1-13c11-139 18-270 29-409 8-130 122-220 244-220l242 0 z" fill="#966661"/>
		<path d="M1793 873c22 1 43 16 47 39l33 177-138 0c11-46 65-55 65-105 0-37-4-74-7-111 z M1020 873c-3 37-7 74-7 111 0 50 52 60 65 105l-139 0 33-177c4-23 26-39 48-39 z" fill="#372128"/>
		<path d="M1665 957c22 0 43 15 43 40 0 52-113 70-147 70-29 0-62-4-62-41 0-32 21-39 43-39 32 0 69-1 98-22l1 0c6-5 14-8 24-8 z M1147 957c11 0 19 3 25 9l1 0c16 11 32 17 49 19 16 1 33 2 51 2 23 0 41 18 41 40 0 35-35 41-63 41-34 0-145-19-145-70 0-23 19-41 41-41 z" fill="#372128"/>
		<path d="M1406 539c49 0 100 28 124 71 1 3 2 5 2 7 0 7-5 13-12 13l-5-2c-40-15-67-28-109-28-20 0-39 2-56 7-22 6-53 23-58 23-7 0-12-6-12-13 0-2 1-4 2-7 24-44 78-71 124-71 z" fill="#990839"/>
		<path d="M1433 665c23 0 37 19 37 40 0 21-16 70-28 107-10 33-12 51-35 51-14 0-23-9-26-21-8-29-37-113-37-138 0-19 15-39 37-39l52 0 z" fill="#75443E"/>
		<path d="M1669 832l-165 0c-7 0-17 6-17 14 0 51 54 89 101 89 42 0 102-38 102-83 0-10-10-20-21-20 z M1319 832c12 0 17 9 17 20 0 4-4 17-7 21-16 39-54 62-95 62-40 0-101-37-101-83 0-10 10-20 21-20l165 0 z" fill="#FFFFFF"/>
		<path d="M1637 832l-127 0c-1 3-2 6-2 9l0 8c0 37 25 66 65 66 37 0 66-28 66-66 0-7-1-10-2-17 z M1313 832c1 7 2 10 2 17 0 37-27 66-65 66-37 0-67-28-67-66 0-7 1-12 3-17l127 0 z" fill="#7D4533"/>
		<path d="M1608 832l-67 0c-3 4-5 10-5 17 0 21 16 38 38 38 21 0 38-16 38-38 0-5-1-10-4-17 z M1283 832c3 5 5 11 5 17 0 19-17 38-38 38-22 0-39-17-39-38 0-6 2-12 5-17l67 0 z" fill="#000000"/>
		<path d="M1553 864c7 0 11 5 11 12 0 7-4 11-11 11-7 0-12-4-12-11 0-6 6-12 12-12 z M1227 864c8 0 12 4 12 12 0 7-5 11-12 11-7 0-11-4-11-11 0-7 4-12 11-12 z" fill="#FFFFFF"/>
		<path d="M1665 984c5 0 10 2 14 6 4 4 6 9 6 14 0 9-5 16-15 23-11 6-23 11-37 16-14 4-28 7-41 9-13 2-23 3-29 3-9 0-18-1-27-2-9-2-14-9-14-20 0-6 1-10 4-13 3-3 6-4 10-5l6-1 7 1 12 0c12 0 24-2 36-5l32-10 24-11c6-3 10-5 12-5 z M1158 984c8 0 31 15 41 19 31 11 53 11 83 11 11 0 19 8 19 19 0 11-5 18-14 20-10 1-19 2-28 2-24 0-122-17-122-50 0-12 9-21 21-21 z" fill="#372128"/>
		<path d="M547 397c3 0 5 2 5 5l-1 2-47 57c-10 12-23 18-40 18-11 0-21-3-30-10l-20 21c-7 6-10 15-10 26 0 12 4 22 13 31 8 8 18 12 30 12 13 0 23-5 32-15l51-61c11-13 22-25 32-35 13-15 15-16 18-16 1 1 1 3 1 5l0 1-95 112c-6 7-14 13-23 16-5 2-10 2-15 2-5 0-9 0-14-2-2 5-3 10-3 15 0 12 4 22 13 30 8 8 18 12 30 12 10 0 19-3 27-9 1-2 0-2 2-2 5-8 13-18 24-30 10-13 21-25 33-38l34-39c15-18 19-30 33-32 1 1 1 2 1 4l0 3-25 31-67 80c-11 12-20 21-26 26 3 7 9 12 16 16 7 3 14 5 21 5 13 0 23-5 32-15l16-18c8-11 17-21 26-32l26-30c7-9 12-14 13-14l4 2c1 1 1 2 1 4l-1 2-78 92c-11 12-24 18-39 18-17 0-32-8-44-24-9 6-19 9-29 9-15 0-27-5-37-15-10-10-15-22-15-37 0-7 1-12 3-17-9-5-17-11-22-19-5-9-8-18-8-28 0-13 4-23 11-31l24-25 5-1c5 2 10 4 14 7 3 3 9 4 16 4 11 0 20-4 29-11 8-8 16-16 23-25l18-25c5-8 9-12 12-12 z" fill="#764C49"/>
		<path d="M1909 1078c15 0 28 5 39 16 10 10 15 23 15 38 0 17-4 29-13 37-9 8-20 13-33 16-10 1-20 2-30 2l-50-1c0 61-10 120-31 177-21 56-50 106-87 149-38 43-83 77-136 103-53 25-112 38-177 38-62 0-119-12-171-36-53-25-98-58-137-99-39-42-69-90-90-145-26-66-33-117-33-187-11 0-24 0-38 1l-12 0c-10 0-19-1-29-2-13-3-24-8-33-16-9-8-14-20-14-37 0-15 5-28 16-38 10-11 23-16 38-16l1006 0 z" fill="#321B41"/>
		<path d="M1837 1186l0 15c0 19-1 38-3 57l-856 0c-2-19-3-38-3-57l0-15 862 0 z" fill="#C790F1"/>
	</g></svg>
