<svg version="1.1" xmlns="http://www.w3.org/2000/svg" viewBox="0 0 2300 2300"><g transform="scale(1,-1) translate(-256, -1869)">
		<path d="M1802 791c110 0 200 91 200 200 0 46-23 84-23 101 0 19 24 61 24 104 0 43-12 78-35 113-21 33-33 72-33 111 0 111-89 205-205 205-11 0-21 5-28 14-48 58-94 86-167 86-72 0-119-29-167-86-8-9-17-14-28-14-111 0-205-89-205-205 0-41-11-78-32-111-23-35-35-70-35-113 0-47 23-85 23-104 0-16-23-58-23-101 0-110 91-200 200-200l534 0 z" fill="#FFB02F"/>
		<path d="M1711-287c69 0 126 54 126 125l0 880c0 127-123 217-246 217l-191 0-247-264c-25-27-38-60-38-97 0-59 38-94 38-102 0-7-3-11-10-12l-61-16c-173-48-323-226-323-438l0-41c0-139 114-252 253-252l699 0 z" fill="#8B62BF"/>
		<path d="M1837 1078c58 0 108 49 108 108 0 57-46 108-108 108-58 0-108-49-108-108 0-58 49-108 108-108 z M1262 1078c58 0 108 49 108 108 0 57-46 108-108 108-58 0-108-49-108-108 0-58 49-108 108-108 z" fill="#FECA46"/>
		<path d="M1550 827c43 0 82 7 119 22 37 15 69 35 96 61 27 26 48 57 64 93 16 36 25 75 27 118 1 31 3 63 5 94 2 31 3 63 3 94 0 11-1 21-4 32-3 11-7 20-13 29-6 9-13 16-22 21-9 5-19 8-31 8l-199 0c-43 0-80 9-111 28-31 18-60 43-85 76-3 4-8 6-13 6-7 0-11-2-13-6l-8-15c-9-18-20-33-35-45l-43-35c-15-11-27-24-37-37-10-12-15-28-15-47l8-203c2-43 11-82 27-118 16-36 38-67 65-93 27-26 59-46 96-61 37-15 76-22 119-22 z" fill="#FDD641"/>
		<path d="M1345 1186c42 15 83 23 125 38-18 26-46 51-82 51-24 0-81-10-81-42 0-20 24-36 38-47 z M1758 1186c12 11 38 28 38 47 0 31-58 43-82 43-36 0-64-25-82-52l126-38 z" fill="#000000"/>
		<path d="M1771 1183l-139 0c-9 0-14 5-14 16 0 40 52 71 86 71 34 0 85-33 85-71 0-9-9-16-18-16 z M1471 1183c6 0 14 4 14 11 0 39-44 76-85 76-35 0-86-34-86-71 0-9 8-16 17-16l140 0 z" fill="#FFFFFF"/>
		<path d="M1744 1183l-107 0c-1 3-2 8-2 15 0 32 26 55 56 55 30 0 55-23 55-55l-2-15 z M1466 1183l2 15c0 32-26 55-56 55-30 0-56-23-56-55 0-5 1-10 3-15l107 0 z" fill="#7D4533"/>
		<path d="M1719 1183l-56 0c-3 5-4 10-4 15 0 17 14 31 32 31 17 0 31-13 31-31 0-5-1-10-3-15 z M1441 1183c2 5 3 10 3 15 0 17-13 31-31 31-18 0-32-14-32-31 0-5 1-10 3-15l57 0 z" fill="#000000"/>
		<path d="M1672 1209c7 0 10 3 10 10 0 7-3 10-10 10-7 0-10-3-10-10 0-7 3-10 10-10 z M1393 1209c7 0 10 3 10 10 0 7-3 10-10 10-7 0-10-3-10-10 0-7 3-10 10-10 z" fill="#FFFFFF"/>
		<path d="M1551 961c38 0 80 19 101 55l1 5c0 7-3 10-10 10-5 0-56-22-92-22-41 0-90 23-93 23-7 0-10-4-10-11l1-5c14-33 69-55 102-55 z" fill="#990839"/>
		<path d="M1571 1066c19 0 31 16 31 33 0 12-6 34-13 56-15 44-18 73-41 73-11 0-19-6-22-17-8-24-31-91-31-112 0-17 12-33 31-33l45 0 z" fill="#FFB02C"/>
		<path d="M1330 1308c11 0 47 20 80 20 9 0 18-2 26-2 11 0 17 6 17 17 0 14-15 18-29 18-26 0-111-7-111-37 0-11 8-16 17-16 z M1771 1308c11 0 17 6 17 17 0 27-81 37-97 37-13 0-43 0-43-18 0-11 6-18 17-18 8 0 16 2 25 2 25 0 48-7 71-18l2 0c1-1 4-2 8-2 z" fill="#D37034"/>
		<path d="M878-289l17 1c14 1 26 1 36 1 51 0 105 7 162 22 57 14 113 33 169 56 56 23 109 50 160 80 50 30 93 61 130 93 70 61 127 131 171 212 44 81 76 166 96 255l-258 0c-20-64-47-120-80-169-33-49-72-92-117-128-45-37-95-67-150-92-55-25-115-46-178-61-3-1-5-1-7-1-2-1-4-1-7-1-13 0-24 4-33 11-9 7-18 15-26 24l-24 23c-8 7-18 11-30 11-13 0-24-4-33-13-9-9-14-20-14-33 0-12 4-22 12-31 8-9 16-17 24-24l-91 0c-11 0-22-4-32-12-11-9-16-19-16-31 0-11 3-21 9-30 6-9 15-16 26-19-11-9-16-21-16-36 0-10 3-19 9-27 5-9 13-14 23-17-1-3-2-8-2-15 0-16 5-27 14-34 9-7 20-11 33-13l23-2 z" fill="#FDD641"/>
		<path d="M1819 430c12 52 19 105 19 158l-1 33c-3 68-51 125-126 125-69 0-127-53-127-124 0-71-5-124-27-192l262 0 z" fill="#774AA6"/>
	</g></svg>
