<svg version="1.1" xmlns="http://www.w3.org/2000/svg" viewBox="0 0 2300 2300"><g transform="scale(1,-1) translate(-256, -1869)">
		<path d="M2087-87c7 0 13 3 18 9 5 5 7 11 7 18 0 4 0 7-1 9l3 0c5 0 9-2 12-5l11-12c3-5 7-9 11-12 4-4 9-6 15-6 6 0 11 2 15 7 5 5 6 10 6 17 1 0 1-1 1-2l11-10c4-4 9-6 14-6 5 0 10 2 15 6 5 4 6 9 6 17l2-1-1 0 1-2c4-5 10-7 17-7 6 0 11 2 15 6 4 4 6 9 6 15 0 5-2 10-5 15-310 329-149 158-475 502l-111 52-68-74 437-458 4-5 2-21c0-9 1-17 3-24 1-8 4-15 9-20 4-5 11-8 20-8 z M1340-287c34 0 66 37 66 72l0 741-78 49-50-216c-11-37-18-74-18-113 0-38 2-72 2-116l0-317-36-28c-19 0-36-17-36-35 0-18 15-37 36-37l114 0 z" fill="#573739"/>
		<path d="M1402 288l77 143 140 0 141-136 107 93c-19 57-62 149-102 189l0 286-431 0 0-269c-38-93-75-209-75-306l143 0 z" fill="#FF6723"/>
		<path d="M1769 859l621 837c3 4 4 8 4 11 0 11-7 18-18 18l-50 0c-38 0-121-76-146-101l-518-476c-11-11-24-19-38-25-66-30-158-36-218-45l-711-97c-47-8-87-5-120-49-8-11-32-40-32-50 0-11 10-21 20-21 251-1 517-2 768-2l438 0 z" fill="#573739"/>
		<path d="M1769 859l188 254-166 154-123-106c-38-32-137-56-188-64l-290-48 0-190 579 0 z" fill="#9B9B9B"/>
		<path d="M433 813c-18 0-33 31-33 47 0 3 1 6 3 9 32 36 74 67 111 99 32 27 62 59 96 82 8 5 11 8 22 8 29 0 65-57 81-78l-57-119-157-34c-19-4-47-14-66-14 z M2275 1550l140 78c9 5 19 11 30 16 10 5 20 11 29 17 5 3 9 8 10 15 1 7 1 13 1 18 0 11-2 20-5 25-4 5-9 8-16 9l-15 1-7 0c-9-1-18-1-27-1-15 0-33 0-52 1l-58 0c-20 0-39 0-58-1l-50-3c-9-1-19-5-30-12-10-6-16-15-16-25 0-55 1-32 2-86l122-52 z" fill="#533566"/>
		<path d="M1575 362c32 0 50 6 50 40-11 24-55 120-79 120-7 0-13-3-17-8-11-11-61-101-61-112 0-33 15-40 47-40l60 0 z" fill="#452829"/>
		<path d="M1689 201c27 0 48 23 48 49 0 26-20 48-48 48-26 0-48-20-48-48 0-26 21-49 48-49 z M1406 201c27 0 48 23 48 49 0 26-20 48-48 48-26 0-48-20-48-48 0-26 21-49 48-49 z" fill="#452829"/>
		<path d="M1579 37c67 0 120 54 120 120 0 61-7 123-11 184-5 57-59 99-114 99l-54 0c-52 0-111-42-114-99-4-61-12-124-12-185 0-68 57-119 120-119l65 0 z" fill="#573739"/>
		<path d="M1378 288c8 6 16 9 25 10 1 27 0 51 12 75-23-11-37-33-37-57l0-28 z M1593 1c25 0 44 11 58 32 7 11 15 19 25 24 10 5 20 11 29 17 9 5 17 12 24 20 6 8 9 20 9 37 0 8-1 15-3 21-2 5-4 11-7 16-3 5-5 11-7 18-2 6-3 14-3 25l-10-6c-4-2-7-3-10-3l-2 0 2-12 0-12c0-28-9-51-28-70-19-19-43-29-71-29l-37 0c-7 0-13 4-18 12-6 12-13 21-20 27-7 6-15 10-24 13-9 2-18 3-28 3l-34 0c-10 0-18 2-23 7-6 4-10 9-13 16-3 7-4 14-4 22l0 23-1 0c-2 0-4 1-8 3l-10 5c0-11-1-19-3-25-3-7-5-13-8-18-3-5-5-11-7-16-3-6-4-13-4-21 0-16 3-28 10-36 7-9 15-16 24-21l29-15c9-5 17-13 24-24 13-22 33-33 59-33 8 0 16 2 23 5 7 3 14 5 22 5 8 0 16-2 23-5 7-3 14-5 22-5 z M1717 289c0 45-3 69-39 86 11-25 10-50 13-77 8 0 17-3 26-9 z" fill="#000000"/>
		<path d="M1592 329c3 0 5 2 5 5 0 16-36 28-49 28-13 0-50-12-50-28 0-3 2-5 5-5 7 0 26 10 44 10 18 0 38-10 45-10 z" fill="#290118"/>
		<path d="M1547 234c6 0 10 3 11 8 3 11 16 46 16 54 0 8-7 15-16 15l-23 0c-8 0-16-7-16-16 0-5 13-45 16-53 1-5 5-8 12-8 z" fill="#3D2123"/>
		<path d="M1618 209c16 0 40 14 40 33 0 5-3 8-8 8l-66 0c-5 0-7-2-7-5 0-20 22-36 41-36 z M1476 209c19 0 41 16 41 36 0 3-2 5-7 5l-66 0c-5 0-8-3-8-8 0-19 22-33 40-33 z" fill="#FFFFFF"/>
		<path d="M1612 217c14 0 26 12 26 27l-1 7-51 0c0-22 6-34 26-34 z M1482 217c15 0 26 10 26 25l-1 9-51 0 0-7c0-15 12-27 26-27 z" fill="#7D4533"/>
		<path d="M1612 229c8 0 15 7 15 15 0 2-1 4-2 7l-26 0c-2-2-3-4-3-7 0-10 5-15 16-15 z M1482 229c10 0 15 5 15 15 0 3-1 6-2 7l-27 0-1-7c0-8 7-15 15-15 z" fill="#000000"/>
		<path d="M1621 229c3 0 5 2 5 5 0 3-2 5-5 5-3 0-5-2-5-5 0-3 2-5 5-5 z M1491 229c3 0 5 2 5 5 0 3-2 5-5 5-3 0-5-2-5-5 0-3 2-5 5-5 z" fill="#FFFFFF"/>
	</g></svg>
