<svg version="1.1" xmlns="http://www.w3.org/2000/svg" viewBox="0 0 2300 2300"><g transform="scale(1,-1) translate(-256, -1869)">
		<path d="M2125-287l0 251c0 165-12 322-90 463-110 199-382 328-629 328-200 0-401-79-544-217-161-153-175-373-175-574l0-251 1438 0 z" fill="#533566"/>
		<path d="M2197-287l-1 252c0 235-106 461-287 610l0-862 288 0 z M903-287l0 862c-176-148-287-362-287-611l1-251 286 0 z M1407-287c51 24 97 53 138 88 41 35 76 73 107 116 30 43 56 89 77 139 21 49 38 101 50 154l15 77c5 26 7 52 7 77 0 15-4 24-13 27-9 3-18 4-28 4l-14-1-14 1c-9 1-13 6-13 16l0 211c0 23-7 44-20 61-14 17-32 29-53 36-37 13-77 23-118 29-42 5-83 8-123 8-39 0-80-3-121-8-41-6-81-16-118-29-21-7-39-19-52-36-14-17-21-38-21-61l0-211c0-10-4-15-13-16l-14-1-14 1c-10 0-19-1-28-4-9-3-13-12-13-27 0-25 2-51 7-77l15-77c12-53 29-105 50-154 21-50 47-96 78-139 30-43 65-81 106-116 40-35 86-64 137-88l3 0 z" fill="#321B41"/>
		<path d="M1406-287c134 178 198 390 198 597l0 375-396-4 0-375c0-221 72-426 198-593 z" fill="#D3D3D3"/>
		<path d="M1484 396c3 0 6 1 10 4 74 61 110 156 110 243l0 184-396 0 0-184c0-91 39-182 109-243 3-3 6-4 10-4 18 0 69 109 79 130 11-19 59-130 78-130 z" fill="#F4F4F4"/>
		<path d="M1585 748l136 46c31 11 57 30 76 57 19 27 29 58 29 91l0 300c0 14 3 27 8 38 5 11 11 23 18 35 7 11 13 24 18 38 5 14 8 31 8 51 0 38-10 71-31 100-21 28-50 48-85 61-43 15-76 41-99 78-16 25-37 45-62 60-25 15-53 22-84 22-11 0-21-1-30-3l-27-8c-9-3-18-6-27-8-9-3-18-4-27-4-9 0-18 1-27 4-9 2-18 5-27 8l-28 8c-9 2-19 3-29 3-31 0-58-7-83-21-25-14-45-34-62-59-25-37-58-64-101-80-35-13-62-33-83-62-21-29-32-62-32-99 0-19 3-36 8-49 5-13 11-26 17-37l17-35c5-12 8-25 8-40l0-300c0-34 10-64 29-91 19-27 45-46 77-57l136-47 0 534c13 13 24 29 33 47 9 17 14 36 15 55 3-1 7-1 11-1 3-1 7-1 10-1 20 0 40 4 59 11 19 7 36 17 51 30 17-15 38-26 61-33 15-5 31-8 47-8 8 0 15 1 23 2 3-21 8-40 16-55 8-16 19-32 33-47l0-534 z" fill="#FFF9BA"/>
		<path d="M1757 988c68 0 120 57 120 120 0 68-57 120-120 120-68 0-120-57-120-120 0-68 57-120 120-120 z M1054 988c68 0 120 57 120 120 0 68-57 120-120 120-68 0-120-57-120-120 0-68 57-120 120-120 z" fill="#E4B29A"/>
		<path d="M1406 503c72 0 144 54 144 133l0 165c0 77-68 134-144 134-75 0-144-55-144-133l0-165c0-77 68-134 144-134 z" fill="#E4B29A"/>
		<path d="M1407-31c19 0 36 15 36 36 0 19-15 36-36 36-19 0-36-15-36-36 0-19 15-36 36-36 z M1407 196c19 0 36 15 36 36 0 18-17 36-36 36-19 0-36-18-36-36 0-19 15-36 36-36 z M1548 425c14 0 25 11 25 24l0 139c0 14-11 24-25 24-16 0-81-51-98-63-11 15-26 23-45 23-18 0-32-7-43-22-16 10-79 62-97 62-13 0-24-10-24-24l0-139c0-14 11-24 25-24 16 0 80 50 96 61 11-14 25-21 43-21 19 0 34 8 45 23 16-11 82-63 98-63 z" fill="#321B41"/>
		<path d="M1476 647c29 0 57 4 84 13 27 8 53 20 76 35 23 15 44 33 62 55 18 21 33 45 44 72l12 33c3 11 5 22 6 33l12 174 10 174c1 6 1 12 1 18l0 18c0 29-9 54-28 75-19 20-44 30-74 31-31 1-58 1-83 1l-10 0c-21 0-42 3-60 7-21 5-41 14-60 29-19 14-37 36-54 65-5 9-11 17-17 22-7 5-16 8-28 8l-94 0c-31 0-62-6-91-17-29-12-55-28-78-49-23-21-42-45-56-73-14-28-21-58-21-91 0-25 1-47 3-65l6-66 17-261c1-11 4-22 7-33 3-12 7-23 11-33 11-27 25-51 44-72 18-22 39-40 62-55 23-15 49-27 76-35 27-9 55-13 84-13l137 0 z" fill="#EEBFAA"/>
		<path d="M1406 823c25 0 48 7 71 20 23 13 55 45 55 57 0 9-4 13-12 13l-6-2c-42-15-65-27-108-27-38 0-74 9-108 27l-6 2c-6 0-12-5-12-12 0-2 1-4 2-7 24-42 75-71 124-71 z" fill="#990839"/>
		<path d="M1662 1105l-164 0c-7 0-17 6-17 14 0 47 52 89 101 89 39 0 100-36 100-83 0-10-10-20-20-20 z M1315 1105c7 0 16 6 16 14 0 48-51 89-100 89-39 0-101-35-101-82 0-10 10-21 21-21l164 0 z" fill="#FFFFFF"/>
		<path d="M1630 1105l-126 0c-1 3-2 6-2 9l0 8c0 35 28 66 65 66 18 0 33-6 46-19 16-17 19-40 19-55 0-3-1-6-2-9 z M1309 1105c1 7 2 10 2 17 0 35-27 66-65 66-36 0-66-29-66-66 0-7 1-10 2-17l127 0 z" fill="#7D4533"/>
		<path d="M1600 1105l-66 0c-3 5-4 10-4 17 0 22 16 38 37 38 21 0 37-16 37-38 0-7-1-12-4-17 z M1279 1105c3 5 4 10 4 17 0 22-16 38-37 38-21 0-38-16-38-38 0-6 2-12 5-17l66 0 z" fill="#000000"/>
		<path d="M1547 1137c7 0 11 5 11 12 0 7-4 11-11 11-7 0-12-4-12-11 0-8 4-12 12-12 z M1223 1137c8 0 12 4 12 12 0 7-5 11-12 11-7 0-11-4-11-11 0-7 4-12 11-12 z" fill="#FFFFFF"/>
		<path d="M1433 953c22 0 37 20 37 39 0 18-16 71-28 107-12 32-12 51-35 51-14 0-23-9-26-21-8-29-38-113-38-136 0-19 15-40 37-40l53 0 z" fill="#D19479"/>
		<path d="M1658 1260c5 0 10 2 14 6 4 3 6 8 6 13 0 8-5 15-15 22-10 6-22 11-35 16-13 4-27 7-40 10-13 2-23 3-30 3-9 0-18-1-27-2-9-2-14-9-14-22 0-5 2-9 5-11 3-3 7-4 12-5l6-1 7 1 12 0c12 0 24-1 35-4 11-3 20-7 29-11l22-10c6-3 10-5 13-5 z M1155 1260c5 0 8 1 12 4 19 13 36 20 52 22 16 2 35 3 56 3 9 0 12 3 19 10 1 4 2 7 2 10 0 16-15 21-30 21-38 0-131-16-131-51 0-12 9-19 20-19 z" fill="#A56953"/>
	</g></svg>
