<svg version="1.1" xmlns="http://www.w3.org/2000/svg"><g transform="scale(1,-1)">
		<path d="M2233-287c98 0 179 79 179 180l0 1644c0 24-19 44-44 44l-1924 0c-25 0-44-20-44-44l0-1644c0-102 81-180 180-180l1653 0 z" fill="#AEDDFF"/>
		<path d="M2228-72c62 0 112 51 112 112l0 464c0 39-30 71-71 71l-265-1c-14 0-22 0-23 1-76 16-117 36-192 60l-383 120-383-120c-74-24-124-46-192-60-1-1-9-1-22-1l-266 1c-39 0-71-30-71-71l0-464c0-61 44-112 107-112l1649 0 z" fill="#D3883E"/>
		<path d="M1550 575l0 288c0 37-28 72-69 72l-581 0c-41 0-69-35-69-72l0-288 719 0 z" fill="#B4F6FC"/>
		<path d="M1981 575l0 288c0 37-28 72-69 72l-437 0c-41 0-69-35-69-72l0-288 575 0 z" fill="#00A6ED"/>
		<path d="M2197 0c40 0 71 34 71 72l0 1294c0 38-31 72-71 72-39 0-72-31-72-72l0-1294c0-39 31-72 72-72 z" fill="#FFFFFF"/>
	</g></svg>
