<svg version="1.1" xmlns="http://www.w3.org/2000/svg" viewBox="0 0 2300 2300"><g transform="scale(1,-1) translate(-256, -1869)">
		<path d="M1909-287c276 0 503 223 503 503 0 75-16 147-48 215l-167 72-1654 0-95-72c-32-68-48-140-48-215 0-276 221-503 503-503l1006 0 z" fill="#B4ACBC"/>
		<path d="M1298 935l0 215c0 14 22 36 36 36l431 0c57 0 108 46 108 108 0 58-49 108-108 108l-431 0c-135 0-251-123-251-252l0-215 215 0 z" fill="#CA0B4A"/>
		<path d="M2364 431c-85 176-261 288-455 288l0 144c0 80-65 143-144 143l-718 0c-80 0-144-64-144-143l0-144c-196 0-374-116-455-288l1916 0 z" fill="#F8312F"/>
	</g></svg>
