<svg version="1.1" xmlns="http://www.w3.org/2000/svg"><g transform="scale(1,-1)">
		<path d="M1012-288c36 0 60 28 60 61 0 27-17 48-41 56l-182 60 176 541 12-1c119 0 223 60 266 185 21 69 248 752 248 771 0 19-13 38-32 45-43 16-416 139-434 139-20 0-39-14-46-32l-247-756c-9-26-13-54-13-83 0-92 48-181 130-230l-177-541c-33 11-177 62-201 62-34 0-59-28-59-61 0-28 17-48 41-56 52-16 471-160 499-160 z" fill="#83CBFF"/>
		<path d="M1835-132c24 0 443 140 500 160 24 8 41 28 41 56 0 34-23 61-59 61-29 0-163-50-201-62l-177 541c81 49 130 136 130 229 0 28-5 56-14 84l-246 756c-7 18-26 32-46 32-20 0-393-124-434-139-19-6-33-25-33-46 0-20 229-705 249-770 38-121 148-185 266-185l12 1 176-541-182-60c-24-8-41-29-41-56 0-33 25-61 59-61 z" fill="#AEDDFF"/>
		<path d="M1055 508c93 0 176 58 206 148 12 39 126 376 126 392 0 21-18 39-40 39l-373-7c-19 0-31-9-36-26l-87-264c-7-20-10-42-10-66 0-117 92-216 214-216 z" fill="#FFCE7C"/>
		<path d="M1792 664c-93 0-174 56-205 148-16 53-168 504-168 524 0 26 22 49 49 49 11 0 21-4 31-12 103-84 171-143 315-143 47 0 90-1 108-56l74-229c7-22 11-44 11-66 0-116-95-215-215-215 z M1684 1489c-14 0-24 10-24 23 0 13 10 24 24 24 13 0 23-10 23-24 0-13-9-23-23-23 z M1667 1318c22 0 40 17 40 40 0 22-17 40-40 40-22 0-40-17-40-40 0-22 17-40 40-40 z M1536 1453c33 0 59 25 59 59 0 33-25 60-59 60-33 0-60-26-60-60 0-34 27-59 60-59 z" fill="#FFDEA7"/>
	</g></svg>
