<svg version="1.1" xmlns="http://www.w3.org/2000/svg"><g transform="scale(1,-1)">
		<path d="M1790-243c343 0 622 276 622 622 0 343-274 623-621 623l-769 0c-344 0-622-279-622-623 0-343 276-622 622-622l768 0 z" fill="#D3D3D3"/>
		<path d="M1795 49c259 0 473 208 473 473l0 184-52 15c35 67 52 139 52 215l0 184c-32 8-473 137-473 137l-778 0c-4 0-442-129-473-137l0-184c0-76 17-148 52-215l-52-15 0-184c0-259 208-473 473-473l778 0 z" fill="#F9C23C"/>
		<path d="M1795 262l-778 0c-259 0-473 208-473 473 0 33 4 66 11 101 48-217 240-373 462-373l778 0c221 0 414 155 462 373 7-35 11-68 11-101 0-259-208-473-473-473 z M1795 677c259 0 473 208 473 473 0 259-208 473-473 473l-778 0c-259 0-473-208-473-473 0-259 208-473 473-473l778 0 z" fill="#D3883E"/>
		<path d="M1229 314c52 0 95 40 95 92l0 408c0 42 33 78 77 78 42 0 78-34 78-78l0-119c0-52 41-95 91-95 51 0 94 39 94 92l0 132c0 37 22 65 57 76 117 40 199 126 199 257 0 147-120 266-267 266l-494 0c-148 0-265-121-265-265 0-132 81-216 189-255 33-12 56-37 56-75l0-418c0-48 39-96 90-96 z" fill="#6D4534"/>
		<path d="M1406 1121c25 0 48 8 69 20l227 134c26 15 43 43 43 75l0 151-238 0c-36 22-61 39-101 39-42 0-65-17-100-39l-238 0 0-151c0-32 17-60 43-75l227-134c21-12 44-20 68-20 z" fill="#F9C23C"/>
		<path d="M1406 1267c24 0 47 6 69 19l227 134c28 17 43 46 43 76 0 30-15 59-43 76l-227 134c-22 13-45 19-69 19-23 0-46-6-68-19l-227-134c-27-16-44-44-44-76 0-31 18-60 44-76l227-134c22-13 45-19 68-19 z" fill="#FCD53F"/>
	</g></svg>
