<svg version="1.1" xmlns="http://www.w3.org/2000/svg"><g transform="scale(1,-1)">
		<path d="M997-144c126 0 238 51 320 133l819 818c82 82 133 195 133 321 0 250-202 454-454 454-132 0-244-54-332-144l0-150-149 0-174-174-6-143-143-6-175-174-5-144-144-6c-90-87-144-199-144-331 0-249 199-454 454-454 z" fill="#F3AD61"/>
		<path d="M1725 929c62 0 112 51 112 112 0 31-11 58-33 80l-319 319-158-159 319-319c22-22 48-33 79-33 z M1404 608c63 0 112 50 112 112 0 31-11 59-32 80l-319 319-159-159 319-319c22-22 48-33 79-33 z M1083 288c61 0 113 50 113 112 0 31-11 57-33 79l-319 319-159-158 319-319c22-22 48-33 79-33 z" fill="#FFF3D7"/>
	</g></svg>
