<svg version="1.1" xmlns="http://www.w3.org/2000/svg"><g transform="scale(1,-1)">
		<path d="M980-290c105 0 203 43 273 113l1050 1050c69 69 113 165 113 272 0 105-43 203-113 273l-130 129c-35 35-84 44-130 44-52 0-97-8-148-8-145 0-214 142-335 142-120 0-191-142-334-142-51 0-96 8-148 8-32 0-58-4-79-13-109-47-106-180-189-263-105-105-276-76-276-268 0-52 8-97 8-148 0-144-142-214-142-335 0-120 142-191 142-334 0-51-8-96-8-148 0-69 15-101 63-149 121-121 204-223 383-223 z" fill="#FFCE7C"/>
		<path d="M1343-87l904 904c-68 68-136 137-205 205-117 117-275 187-452 187-351 0-640-286-640-639 0-166 62-326 188-452l205-205 z" fill="#FFDEA7"/>
		<path d="M1822 1276c34 0 66 25 71 61l37 244c-9-1-20-3-29-3-41 0-76 9-114 25l-37-244-1-11c0-41 34-72 73-72 z M541 191l243 37c18 3 33 11 45 26 11 14 17 30 17 47 0 20-7 37-22 52-15 14-33 21-52 21l-9-1-245-38c11-24 19-47 22-70 2-13 2-26 2-39 0-11 0-23-1-35 z M759 693c38 0 72 32 72 73 0 30-21 58-52 68l-236 70c-1-56-12-92-41-138l236-70c7-2 14-3 21-3 z M976 1077c39 0 72 31 72 72 0 20-7 37-21 51l-174 174c-28-48-58-76-103-102l175-174c14-14 31-21 51-21 z M1356 1291c41 0 73 34 73 72 0 7-1 14-3 21l-70 236c-47-26-83-40-139-40l70-236c9-30 38-53 69-53 z" fill="#F3AD61"/>
	</g></svg>
