<svg version="1.1" xmlns="http://www.w3.org/2000/svg" viewBox="0 0 2300 2300"><g transform="scale(1,-1) translate(-256, -1869)">
		<path d="M629 83l595 62c-19 37-24 79-24 120 0 332 330 661 660 661 41 0 83-5 120-24l62 595c-162 97-400 154-601 154-253 0-434-70-644-202-71-44-112-105-151-169-113-181-172-380-172-595 0-186 54-437 155-602 z" fill="#FEEFC2"/>
		<path d="M1258-286l-28 0c-99 0-194 19-284 56-91 37-171 91-242 161l-124 124c-9 9-13 19-13 30 0 11 4 21 12 30 7 8 17 13 28 14l601 54c6 0 11-1 16-3 7-3 13-7 18-12l159-159c16-16 29-34 38-55 9-21 13-44 13-67 0-23-4-45-13-65-9-21-20-39-35-54-15-16-33-29-53-38-21-9-43-14-66-15-9-1-18-1-27-1 z M2237 673c23 0 45 4 66 13 21 9 39 21 54 36 15 15 28 32 37 53 9 20 15 42 16 65 1 9 1 19 1 28l0 27c0 99-19 194-56 285-37 90-91 170-161 241l-124 124c-9 9-19 13-30 13-11 0-21-4-29-11-9-8-14-18-15-29l-54-600c0-5 2-11 4-17 3-7 6-13 11-18l158-159c16-16 35-28 56-37 21-9 43-14 66-14 z" fill="#E19747"/>
		<path d="M546 192l655 40c17 1 30 7 41 19 11 11 19 25 25 41 6 16 10 33 12 50 2 17 3 33 3 46 0 9 0 20-1 31-1 11-2 23-5 34-3 11-8 21-13 30-5 9-13 17-22 22l-715 407c-9 5-20 8-33 8-15 0-29-5-41-14-13-10-21-23-24-38-7-40-14-79-19-117-6-39-9-78-9-119 0-36 2-71 6-104 4-34 10-67 17-99 7-33 16-65 27-97 10-32 22-65 35-98 5-13 14-24 27-32 11-7 22-10 34-10 z M1338 516c98 0 271 171 271 271 0 26-7 50-20 73l-457 749c-25 41-70 67-119 67-17 0-34-3-50-10-228-87-414-272-504-504-7-16-10-33-10-50 0-49 26-94 67-119l749-457c23-13 47-20 73-20 z M1735 843c50 0 153 13 158 80l39 650c0 30-12 55-41 67-135 50-247 85-398 85-79 0-154-11-236-29-30-7-53-31-53-64 0-12 3-23 9-33l407-716c22-38 79-40 115-40 z" fill="#F3AD61"/>
	</g></svg>
