<svg version="1.1" xmlns="http://www.w3.org/2000/svg"><g transform="scale(1,-1)">
		<path d="M1343-288c391 0 720 304 752 696 2 22 3 44 3 67-1 22-1 44-1 66 0 88 6 164 70 230l60 60c83 86 127 193 127 308 0 211-124 304-261 441l-96-96c-132-5-224-57-311-142-107-102-218-153-358-167-392-40-696-350-696-751 0-88 15-175 46-259l-49-49 183-183c137-136 321-221 531-221 z" fill="#44911B"/>
		<path d="M1180-113c104 0 203 20 298 60 274 114 445 354 482 661 12 108 48 182 119 257 105 108 159 217 159 364 0 265-211 496-497 496-145 0-258-56-364-159-71-70-152-107-256-119-96-11-185-35-266-71-259-114-455-390-455-709 0-432 351-780 780-780 z" fill="#008463"/>
		<path d="M1179-6c338 0 633 245 675 624 15 125 62 233 150 322 85 85 128 173 128 289 0 216-172 391-390 391-116 0-202-45-290-128-100-94-196-137-322-150-342-36-624-302-624-675 0-372 302-673 673-673 z" fill="#C3EF3C"/>
		<path d="M1211 382c173 0 314 139 314 313 0 173-140 314-314 314-173 0-313-140-313-314 0-173 139-313 313-313 z" fill="#6D4534"/>
	</g></svg>
