<svg version="1.1" xmlns="http://www.w3.org/2000/svg" viewBox="0 0 2300 2300"><g transform="scale(1,-1) translate(-256, -1869)">
		<path d="M1512-287c496 0 900 398 900 900 0 248-97 469-263 636-72 74-138 138-212 212l-1273-1272 212-213c171-171 394-263 636-263 z" fill="#6D4534"/>
		<path d="M1300-76c496 0 901 401 901 901 0 495-400 900-901 900-496 0-900-401-900-900 0-494 399-901 900-901 z" fill="#00D26A"/>
		<path d="M1300 421c217 0 404 174 404 404 0 217-174 404-404 404-225 0-403-182-403-404 0-217 173-404 403-404 z" fill="#E2FF92"/>
		<path d="M1902 811c40 0 70 32 70 70 0 38-30 71-70 71-40 0-70-33-70-71 0-38 30-70 70-70 z M691 705c40 0 70 33 70 71 0 38-30 70-70 70-38 0-70-30-70-70 0-38 30-71 70-71 z M1823 454c40 0 70 33 70 71 0 38-30 70-70 70-40 0-70-32-70-70 0-38 30-71 70-71 z M770 1063c38 0 70 30 70 70 0 40-32 70-70 70-38 0-70-30-70-70 0-40 32-70 70-70 z M1553 207c38 0 71 32 71 71 0 40-33 70-71 70-40 0-70-32-70-70 0-38 30-71 70-71 z M1040 1309c38 0 70 30 70 70 0 38-30 71-70 71-38 0-71-32-71-71 0-40 33-70 71-70 z M1190 159c38 0 71 30 71 70 0 39-33 71-71 71-40 0-70-33-70-71 0-40 32-70 70-70 z M866 328c38 0 71 30 71 70 0 39-33 71-71 71-40 0-70-33-70-71 0-40 32-70 70-70 z M1727 1188c40 0 70 33 70 71 0 38-30 70-70 70-38 0-71-30-71-70 0-38 32-71 71-71 z M1402 1357c40 0 70 33 70 71 0 38-30 70-70 70-38 0-71-30-71-70 0-38 32-71 71-71 z" fill="#1C1C1C"/>
	</g></svg>
