<svg version="1.1" xmlns="http://www.w3.org/2000/svg" viewBox="0 0 2300 2300"><g transform="scale(1,-1) translate(-256, -1869)">
		<path d="M1599-253c441 0 811 357 811 812l0 378-2010 0 0-378c0-448 363-812 810-812l389 0 z" fill="#B4ACBC"/>
		<path d="M1835 362c307 0 575 248 575 575 0 315-252 575-575 575l-860 0c-315 0-575-252-575-575 0-307 248-575 575-575l860 0 z" fill="#E1D8EC"/>
		<path d="M1796 538c271 0 490 220 490 491 0 188-145 329-332 348-119 11-200 54-274 144-72 83-161 132-274 132-113 0-202-49-274-132-76-92-158-134-274-144-183-19-332-157-332-348 0-263 211-491 491-491l779 0 z" fill="#44911B"/>
		<path d="M1758 860c204 0 373 164 373 372 0 82-28 172-85 236-11 13-25 20-42 20-17 0-31-6-42-19l-75-88-45-202-211-95-76-88c-9-11-13-22-13-35 0-76 163-101 216-101 z" fill="#F8312F"/>
		<path d="M1835 522c163 0 313 94 381 250-98 130-252 205-408 205-96 0-177-24-265-72-48-27-95-41-150-41-53 0-101 14-149 41-88 48-169 72-266 72-159 0-298-71-393-184 62-164 217-271 390-271l860 0 z" fill="#86D72F"/>
		<path d="M980 686c114 0 247 62 309 164 6 9 9 19 9 31 0 21-11 41-32 51l-106 47-211 5-148 153c-26 10-105 52-128 52-62 0-64-85-64-131 0-205 165-372 371-372 z" fill="#F92F60"/>
		<path d="M981 859c79 0 150 45 182 118l-364 162c-11-27-17-54-17-82 0-108 87-198 199-198 z M1759 1033c109 0 199 91 199 199 0 60-26 114-69 152l-260-302c35-30 81-49 130-49 z" fill="#CA0B4A"/>
		<path d="M1228 564c71 0 131 57 131 132 0 73-60 131-131 131-71 0-132-56-132-131 0-72 60-132 132-132 z M1992 715c71 0 131 57 131 132 0 73-60 131-131 131-71 0-132-56-132-131 0-72 60-132 132-132 z M1303 1115c72 0 132 60 132 132 0 71-57 131-132 131-73 0-131-60-131-131 0-71 56-132 131-132 z" fill="#F9C23C"/>
	</g></svg>
