<svg version="1.1" xmlns="http://www.w3.org/2000/svg"><g transform="scale(1,-1)">
		<path d="M1230-287c107 0 157 62 228 133l-24 22 153 156c10-6 19-13 27-21l110 110c15 15 22 32 22 52 0 21-7 38-21 51-77 74-198 36-261 99-29 29-33 52-37 90-11 95-42 166-106 229-64 64-133 93-228 105-41 5-61 8-91 38-29 29-34 49-37 90-8 61-31 192-113 192-20 0-37-7-52-22l-110-110c9-9 16-18 22-28l-150-160c-9 11-18 20-29 31-71-71-133-121-133-226 0-200 142-343 334-367 39-5 64-9 93-38 28-28 31-52 37-92 24-191 168-334 366-334 z M1894 380c110 0 156 61 228 133l-28 26 151 154c11-5 22-13 33-24l110 110c15 15 22 32 22 52 0 27-15 51-37 65-47 29-99 41-154 48-41 5-63 9-91 37-45 45-33 87-49 156-33 134-149 251-322 269-39 4-62 8-91 37-29 29-35 53-37 90-8 58-32 192-112 192-21 0-38-7-53-22l-110-110 19-22-151-160c-8 9-16 18-25 26-72-72-133-121-133-228 0-202 150-342 334-365 39-5 64-9 93-38 28-28 31-52 37-92 24-191 168-334 366-334 z" fill="#CA0B4A"/>
		<path d="M1451-160l169 168c-66 66-132 94-228 106-41 5-61 8-91 38-30 30-32 50-37 90 0 1 0 2-1 2-24 197-150 309-332 332l-27 4c-51 8-94 51-99 97-11 84-22 169-109 256l-169-169c28-28 32-51 37-90 14-100 41-164 106-229 111-111 211-93 283-119 49-19 67-60 73-115 11-93 41-163 106-228 136-136 251-79 319-143 z M2115 507l169 168c-64 65-133 95-228 106-38 5-62 9-91 38-30 30-32 50-37 90-11 95-42 165-106 229-64 64-132 93-227 105-87 11-120 47-129 128-1 0-1 1-1 2-12 95-41 163-105 227l-169-169c28-28 32-51 37-90 11-95 42-165 106-229 114-114 212-94 283-119 46-18 73-63 73-116l1 0c11-96 39-161 105-227 66-66 132-94 228-106 40-6 63-9 91-37 z" fill="#FFDEA7"/>
	</g></svg>
