<svg version="1.1" xmlns="http://www.w3.org/2000/svg"><g transform="scale(1,-1)">
		<path d="M1305-287c295 0 567 172 693 443l267 578c43 93 64 190 64 292 0 384-310 699-698 699-224 0-432-106-563-285-123-168-255-345-377-513-95-130-148-284-148-449 0-420 339-765 762-765 z" fill="#F3AD61"/>
		<path d="M2017 732c-47 0-84 37-84 84 0 48 38 83 84 83 46 0 83-35 83-83 0-46-35-84-83-84 z M1069 70c46 0 83 35 83 83 0 46-35 83-83 83-46 0-84-35-84-83 0-48 38-83 84-83 z M974 382c-66 0-120 53-120 121 0 67 53 121 120 121 67 0 121-54 121-121 0-67-54-121-121-121 z M1585 767c-71 0-131 57-131 132 0 73 60 131 131 131 71 0 132-56 132-131 0-72-60-132-132-132 z M1691 1298c55 0 101 45 101 100 0 56-45 101-101 101-57 0-101-48-101-101 0-56 47-100 101-100 z" fill="#D3883E"/>
	</g></svg>
