<svg version="1.1" xmlns="http://www.w3.org/2000/svg" viewBox="0 0 2300 2300"><g transform="scale(1,-1) translate(-256, -1869)">
		<path d="M983-287c61 0 121 8 180 25 206 59 375 267 395 474 8 94 15 165 75 235 69 81 161 116 264 123 286 17 515 268 515 583 0 310-244 572-593 572-230 0-441-149-524-359-55-138-16-275-123-394-79-87-158-99-273-107-156-11-326-114-400-251-57-108-99-187-99-310 0-152 65-377 218-479 123-83 242-112 365-112 z" fill="#F3AD61"/>
		<path d="M1426 585c-15 0-31 8-42 19-33 32-67 64-98 99-7 8-12 16-12 27 0 24 50 74 91 113 29 27 35 36 53 36 30 0 80-50 114-89 24-28 38-38 38-57 0-15-10-30-20-40l-97-97c-7-7-16-11-27-11 z M1301 100c26 0 119 121 119 163 0 12-4 22-13 31-21 18-89 105-114 105-11 0-17-8-22-16-23-33-45-72-71-102-13-15-26-31-26-50 0-9 3-17 9-23 27-28 55-54 82-83 9-10 21-25 36-25 z M1091-273c32 0 183 54 183 85 0 11-46 45-59 45-18 0-71-26-112-46-28-14-48-15-73-31-5-3-9-4-9-12 0-19 51-41 70-41 z M819-26c-13 0-29 7-39 16-23 20-57 53-82 81-16 17-34 32-34 51 0 14 21 40 45 65 41 43 65 68 86 68 12 0 23-6 31-14l112-112c6-6 9-13 9-21 0-24-42-66-78-100-24-23-33-34-50-34 z M449 353c12 0 19 35 24 55 8 30 24 54 36 82 8 21 22 39 22 55 0 11-24 46-36 46-22 0-78-161-78-193 0-18 11-45 32-45 z M930 485c-22 0-70 44-101 78-25 25-37 30-37 46 0 32 127 121 156 121 15 0 29-7 41-15 16-14 98-89 98-106 0-12-9-23-18-31-27-21-55-39-84-61-19-15-36-32-55-32 z M1557 1091c11 0 16 8 21 15 23 35 44 71 72 102 12 13 26 31 26 50 0 9-3 16-10 23-27 29-55 55-82 84-9 10-22 24-37 24-27 0-117-122-117-162 0-12 4-22 12-31 18-18 90-105 115-105 z M1928 755c-16 0-29 7-41 16-16 13-99 88-99 105 0 22 28 40 47 51 19 11 38 26 56 41 18 15 34 32 55 32 15 0 28-7 39-18 31-27 59-57 88-85 7-7 10-14 10-21 0-23-53-64-90-88-40-26-46-33-65-33 z M2325 880c21 0 78 157 78 193 0 16-12 45-31 45-3 0-5-1-6-2-17-44-43-122-72-171-3-5-5-11-5-18 0-13 24-47 36-47 z M2046 1206c-12 0-23 6-31 14-36 35-77 75-111 113-6 7-9 14-9 21 0 24 44 68 77 99 25 24 35 35 51 35 13 0 29-7 39-16 33-28 72-72 104-107 7-7 12-15 12-26 0-12-20-38-45-64-46-49-68-69-87-69 z M1637 1589c20 0 72 26 112 46 22 11 34 11 61 24 10 4 22 7 22 18 0 19-52 41-70 41-35 0-184-57-184-84 0-8 44-45 59-45 z" fill="#D3883E"/>
	</g></svg>
