<svg version="1.1" xmlns="http://www.w3.org/2000/svg"><g transform="scale(1,-1)">
		<path d="M1375-287c408 0 723 304 767 707 11 98 47 175 113 243 104 109 156 220 156 360 0 128-48 251-143 347l-226 227-190-190c-48 41-107 62-167 62-142 0-255-114-255-254 0-24 4-49 11-74l-17-2c-387-41-707-341-707-766 0-32 2-64 6-96l-115-114 226-226c144-144 334-224 541-224 z" fill="#FBB8AB"/>
		<path d="M1165-77c385 0 717 277 766 709 11 98 47 175 113 243 103 107 156 217 156 360 0 262-208 490-491 490-140 0-251-52-360-156-73-71-145-102-243-113-93-11-180-35-261-71-259-115-446-387-446-696 0-425 344-766 766-766 z M1684 1092c-71 0-123 57-123 123 0 66 53 123 123 123 69 0 124-54 124-123 0-70-56-123-124-123 z" fill="#F4F4F4"/>
		<path d="M1165 36c120 0 253 35 349 101 24 17 39 40 39 71 0 11-3 23-8 35l-205 430c-40 86-111 153-193 191l-432 202c-12 5-24 8-35 8-29 0-51-12-68-36-66-93-101-235-101-350 0-358 289-652 654-652 z M1650 303c22 0 47 10 62 29 61 76 100 221 107 309 11 121 60 226 146 313 85 85 124 173 124 286 0 203-172 371-377 371-109 0-200-40-283-122-87-87-192-133-313-145-93-8-227-46-308-107-20-15-31-42-31-65 0-34 18-61 47-75l354-167c1 0 2 0 2-1 25-11 52-18 79-18 62 0 103 27 140 66 35 36 79 73 79 132 0 36-15 65-15 101 0 123 98 225 223 225 122 0 224-97 224-223 0-123-100-225-223-225-38 0-66 16-102 16-35 0-68-15-93-39-56-56-104-95-104-178 0-29 6-56 18-81l169-354c14-29 41-48 75-48 z" fill="#F8312F"/>
	</g></svg>
