<svg version="1.1" xmlns="http://www.w3.org/2000/svg"><g transform="scale(1,-1)">
		<path d="M1586-218c416 0 753 338 753 753l0 352-1867 0 0-352c0-416 338-753 753-753l361 0 z" fill="#00A6ED"/>
		<path d="M1805 353c296 0 534 239 534 534 0 296-239 534-534 534l-799 0c-296 0-534-239-534-534 0-296 239-534 534-534l799 0 z" fill="#26EAFC"/>
		<path d="M1827 471c226 0 405 189 405 416 0 216-168 416-405 416l-836 0c-229 0-405-192-405-416 0-232 180-416 413-416l324 133 324-133 180 0 z" fill="#0074BA"/>
		<path d="M1648 471l1 24c0 45-7 87-22 127-8 21-12 42-12 65 0 31 8 59 23 86l515 877c9 15 14 32 14 50 0 53-42 96-97 96-34 0-64-17-82-47l-516-878c-28-48-71-74-126-83-164-27-293-166-349-317l651 0 z" fill="#D3D3D3"/>
		<path d="M1564 471c0 114-65 223-194 223-131 0-241-110-289-223l483 0 z" fill="#9B9B9B"/>
	</g></svg>
