<svg version="1.1" xmlns="http://www.w3.org/2000/svg" viewBox="0 0 2300 2300"><g transform="scale(1,-1) translate(-256, -1869)">
		<path d="M648 1294c51 0 100 12 145 35l361 181c-56 139-201 215-346 215-53 0-106-11-154-35l-326-165c54-134 177-231 320-231 z" fill="#00D26A"/>
		<path d="M1563-288c343 0 634 279 634 643 0 87-21 168-40 252-57 250-153 467-290 677-120 183-310 297-534 297-130 0-230-40-346-95-230-104-372-336-372-585 0-59 9-120 26-181 86-311 231-537 438-780 120-143 292-228 484-228 z" fill="#FFB02E"/>
	</g></svg>
