<svg version="1.1" xmlns="http://www.w3.org/2000/svg"><g transform="scale(1,-1)">
		<path d="M1491-286c507 0 918 411 918 919 0 251-96 476-269 650l-238 239-1300-1299 240-240c176-176 405-269 649-269 z" fill="#6D4534"/>
		<path d="M1223-46c49 0 98 17 135 53 95 89 204 144 323 144 69 0 137 46 182 91 128 128 67 212 134 342 69 138 107 277 107 427 0 409-300 714-714 714-90 0-184-13-274-43-79-25-133-76-172-148-53-101-163-192-264-225-77-26-135-75-173-147-65-124-107-275-107-427 0-347 212-649 616-709 27-4 51-10 71-19 39-19 83-53 136-53 z" fill="#A56953"/>
		<path d="M1243 68c126 0 142 92 236 139 45 23 80 35 129 36 131 5 268 144 273 272 3 44 8 73 27 112 57 119 90 237 90 366 0 361-263 626-625 626-84 0-181-15-263-46-41-16-65-45-80-86-23-70-73-125-126-170-53-45-114-87-187-96-43-6-77-28-100-65-71-121-111-268-111-404 0-342 233-590 566-624 75-8 101-60 171-60 z" fill="#D3D3D3"/>
		<path d="M1244 202c59 0 117 26 154 77 11 16 24 30 43 38l1 0c12 5 24 8 36 8 20 0 38-8 58-8 118 0 272 147 272 273 0 20-8 37-8 56 0 12 3 24 8 37 41 98 68 187 68 292 0 302-222 523-523 523-57 0-116-7-172-23-41-12-68-42-79-83-14-51-50-99-88-136-67-66-141-123-227-133-45-5-77-28-96-67-41-84-64-184-64-283 0-135 44-271 148-375 98-98 205-132 341-148 52-5 49-48 128-48 z" fill="#9B9B9B"/>
	</g></svg>
