<svg version="1.1" xmlns="http://www.w3.org/2000/svg" viewBox="0 0 2300 2300"><g transform="scale(1,-1) translate(-256, -1869)">
		<path d="M2097-287c23 0 44 13 55 33l197 374c5 9 7 18 7 29 0 17-5 31-16 43-240 254-565 408-857 468l-89 18-258-488 89-18c251-52 494-161 708-334 39-30 81-66 115-101 14-14 27-24 49-24 z" fill="#D3D3D3"/>
		<path d="M1671 149c86 0 152 45 191 115 78 141 114 312 114 464 0 550-445 997-997 997-152 0-323-36-464-114-70-39-115-105-115-191 0-59 24-113 63-152l1056-1056c39-39 93-63 152-63 z" fill="#D3883E"/>
		<path d="M999-287c547 0 997 444 997 998 0 257-97 502-280 693l-1233-1234c-39-39-63-93-63-152 0-86 45-152 115-191 128-74 309-114 464-114 z" fill="#F9C23C"/>
		<path d="M999-287c547 0 997 444 997 998 0 257-97 502-280 693l-1233-1234c-39-39-63-93-63-152 0-86 45-152 115-191 128-74 309-114 464-114 z" fill="#FFB02E"/>
	</g></svg>
