<svg version="1.1" xmlns="http://www.w3.org/2000/svg" viewBox="0 0 2300 2300"><g transform="scale(1,-1) translate(-256, -1869)">
		<path d="M1404-164c277 0 559 119 741 333l2 0c97 8 265 7 265 146 0 57-37 108-94 123 51 129 83 265 83 405 0 67-8 131-24 193-67 259-302 472-604 472-134 0-260-42-365-118-105 76-231 120-367 120-388 0-631-300-631-681 0-136 28-259 80-391-56-16-90-67-90-123 0-32 9-58 28-79 49-57 147-60 234-67l4 0-4 0c187-211 460-333 742-333 z M1404 88c-135 0-264 37-383 107 131 30 283 93 390 169 112-76 244-134 378-168-118-75-257-108-385-108 z M786 421l-1 1c-72 107-127 285-127 420 0 84 20 162 60 228 63 103 190 184 323 184 59 0 116-14 171-41l0-1c7-4 15-7 22-12-59-101-88-208-88-327 0-138 11-212 80-325-125-77-302-124-440-127 z M2021 420c-43 1-84 5-125 12-76 11-243 78-304 119 66 106 74 202 74 318 0 127-26 228-85 330 57 34 123 54 191 54 49 0 97-10 144-31 153-66 232-209 232-377 0-136-49-306-127-425 z" fill="#FFB02E"/>
		<path d="M1226 548c85 49 160 123 181 219-4 17-6 34-6 51-19-97-131-173-209-207 9-23 21-43 34-63 z M1412 883c23 96 98 223 202 252-11 23-21 44-34 65-93-57-154-150-174-252 5-21 6-42 6-65 z M2057 419c60 0 116 5 175 16 19 3 36 7 55 7 11 0 20-1 31-4 9 23 18 45 26 68-19 5-38 8-55 8-11 0-22-1-32-2-59-10-135-19-194-20-13-25-27-49-42-72l36-1 z M2072 93c27 24 51 49 74 76-33-3-65-4-98-4-88 0-175 8-260 31-31-19-62-34-95-49l20-5c121-36 208-49 359-49 z M780 92c116 0 228 25 340 53-35 15-67 31-99 50-84-21-170-30-257-30-35 0-67 1-102 4 23-27 47-51 74-75 15-1 29-2 44-2 z M785 421c-15 23-29 48-41 73-59 1-118 6-175 17-15 3-29 5-42 5-24 0-47-10-62-10 7-23 16-45 25-68 11 4 23 5 35 5 9 0 19-1 28-2 71-11 137-20 218-20l14 0 z M1476 324c58 44 118 151 145 210l-30 17c-45-75-108-135-180-186 22-15 44-29 65-41 z M1234 1200c44 76 103 139 174 190-21 15-42 29-65 41-53-40-107-153-131-218l22-13 z" fill="#D3883E"/>
		<path d="M692 613c-6 0-10 3-11 9-3 11-17 78-17 85 0 5 6 10 11 10 29 0 51-27 51-53 0-17-14-51-34-51 z M2273 1231c13 0 20 27 20 38 0 32-25 54-55 54-10 0-28-2-28-14 0-8 55-78 63-78 z M1163-162c-29 0-54 22-54 54l1 11c1 3 4 5 9 5l4-1 79-30c4-2 6-5 6-10 0-16-31-29-45-29 z M556 1043c-32 0-54 24-54 54 0 32 24 54 54 54 29 0 54-24 54-54 0-30-25-54-54-54 z M2274 562c17 0 30 13 30 31 0 16-14 30-30 30-16 0-30-14-30-30 0-18 13-31 30-31 z M1503 953c-17 0-30 13-30 31 0 16 14 30 30 30 16 0 30-14 30-30 0-18-13-31-30-31 z M1678-79c-25 0-45 19-45 45 0 25 18 46 45 46 25 0 46-20 46-46 0-26-21-45-46-45 z M980-21c35 0 64 30 64 64 0 35-30 64-64 64-35 0-64-30-64-64 0-34 29-64 64-64 z M1271 879c-35 0-63 30-63 64 0 34 28 64 63 64 34 0 64-29 64-64 0-35-27-64-64-64 z M2316 807c34 0 64 29 64 64 0 35-30 64-64 64-34 0-64-29-64-64 0-35 30-64 64-64 z M2018 1325c19 0 35 16 35 34 0 18-16 35-35 35-18 0-34-16-34-35 0-18 15-34 34-34 z M903 1349c16 0 30 14 30 30 0 16-14 30-30 30-17 0-30-12-30-30 0-18 13-30 30-30 z" fill="#FFDEA7"/>
	</g></svg>
