<svg version="1.1" xmlns="http://www.w3.org/2000/svg" viewBox="0 0 2300 2300"><g transform="scale(1,-1) translate(-256, -1869)">
		<path d="M1364-240c395 0 695 339 695 728 0 388-298 729-695 729-400 0-695-343-695-729 0-388 298-728 695-728 z" fill="#636363"/>
		<path d="M1559-74c100 0 178 52 228 128 37 57 85 95 156 117 124 39 199 149 199 270l0 29c0 156 120 206 120 355 0 157-120 198-120 355l0 29c0 126-77 233-199 271-68 20-114 53-156 117-49 77-128 128-228 128-69 0-126-37-192-37-69 0-126 37-192 37-100 0-178-51-228-128-37-58-86-96-156-117-122-37-200-146-200-273l0-30c0-155-119-198-119-352 0-154 119-200 119-352l0-29c0-128 79-235 200-273 71-22 119-60 156-117 50-75 128-128 228-128 67 0 124 37 192 37 67 0 124-37 192-37 z" fill="#E19747"/>
		<path d="M1364 47c433 0 754 374 754 791 0 413-316 790-754 790-433 0-755-372-755-790 0-413 315-791 755-791 z" fill="#F3C07B"/>
		<path d="M1011 560c10 0 19 4 26 11l200 196c7 7 11 16 11 26 0 20-15 35-36 35-10 0-18-3-25-10l-200-196c-7-7-11-16-11-26 0-19 16-36 35-36 z M1715 560c19 0 36 15 36 36 0 10-4 19-11 26l-200 196c-7 7-15 10-25 10-19 0-36-15-36-36 0-9 4-18 11-25l200-196c7-7 16-11 25-11 z M1515 991c9 0 18 4 25 11l200 196c7 7 11 16 11 26 0 19-15 35-36 35-10 0-18-3-25-10l-200-196c-7-7-11-16-11-26 0-18 15-36 36-36 z M1212 991c19 0 36 15 36 36 0 10-4 19-11 26l-200 196c-7 7-15 10-26 10-19 0-35-16-35-35 0-10 4-19 11-26l200-196c7-7 16-11 25-11 z" fill="#D3883E"/>
	</g></svg>
