<svg version="1.1" xmlns="http://www.w3.org/2000/svg"><g transform="scale(1,-1)">
		<path d="M1019-288c23 0 43 14 54 32l756 1349-3 8-148 64-7-3-708-1357c-5-9-7-19-7-30 0-34 27-63 63-63 z M821-287c27 0 54 17 61 46l387 1523-4 5-160 28-5-3-339-1523-2-15c0-33 26-61 62-61 z" fill="#CA0B4A"/>
		<path d="M1829 1093l177 318c8 14 12 29 12 45 0 51-41 91-91 91-35 0-63-18-79-48l-177-337 158-69 z M1269 1282l83 328c2 8 3 16 3 24 0 50-40 90-90 90-42 0-79-28-89-70l-76-342 169-30 z" fill="#321B41"/>
	</g></svg>
