<svg version="1.1" xmlns="http://www.w3.org/2000/svg"><g transform="scale(1,-1)">
		<path d="M1406-223c27 0 51 7 74 20l796 460c23 13 34 32 34 59l0 182-178 0-653 378c-23 13-47 19-74 19-25 0-50-6-73-19l-653-378-177 0 0-182c0-25 13-47 35-59l796-460c23-13 47-20 73-20 z" fill="#E19747"/>
		<path d="M1405-33c27 0 51 7 74 20l796 460c22 12 34 35 34 59 0 24-12 48-34 60l-796 460c-23 13-48 19-73 19-27 0-51-6-74-19l-796-460c-22-12-34-36-34-60 0-24 12-47 34-59l796-460c23-13 47-20 73-20 z" fill="#FEEFC2"/>
		<path d="M1753 82c224 0 433 159 433 408 0 239-199 408-433 408-125 0-267-55-347-160-78 101-217 160-347 160-224 0-434-160-434-408 0-239 198-408 434-408 132 0 263 56 347 159 85-107 223-159 347-159 z" fill="#F8312F"/>
		<path d="M1417 46c71 0 154 44 200 110 11 15 16 30 25 45 15 25 46 39 73 39 31 0 60-11 91-11 105 0 183 50 230 137 16 31 45 51 79 51 15 0 28-3 41-3 147 0 255 105 255 252 0 147-114 251-256 251-126 0-229-80-250-205-32 12-66 19-101 19-135 0-238-91-251-222-44 31-96 47-147 47-53 0-106-19-147-47-16 132-114 221-252 221-35 0-68-6-100-18-21 125-125 205-251 205-144 0-254-104-254-251 0-147 109-252 255-252 13 0 26 3 41 3 37 0 63-21 79-51 45-87 125-137 230-137 32 0 60 11 92 11 38 0 70-26 85-61 31-71 128-133 213-133l20 0 z" fill="#44911B"/>
		<path d="M1405 247c27 0 51 7 74 20l796 460c22 12 34 35 34 59 0 24-12 47-34 59l-796 460c-23 13-47 20-73 20-27 0-51-7-74-20l-796-460c-22-12-34-35-34-59 0-24 12-47 34-59l796-460c23-13 47-20 73-20 z" fill="#FCD53F"/>
		<path d="M1406 384c27 0 51 7 74 20l796 460c23 13 34 32 34 59l0 183-178 0-653 377c-23 13-47 20-73 20-27 0-51-7-74-20l-653-377-177 0 0-183c0-25 13-47 35-59l796-460c23-13 47-20 73-20 z" fill="#E19747"/>
		<path d="M1406 575c27 0 51 7 74 20l796 460c22 12 34 35 34 59 0 24-12 48-34 60l-796 460c-23 13-48 19-73 19-27 0-52-7-75-20l-795-459c-22-12-34-36-34-60 0-24 12-47 34-59l796-460c23-13 47-20 73-20 z" fill="#FEEFC2"/>
	</g></svg>
