<svg version="1.1" xmlns="http://www.w3.org/2000/svg"><g transform="scale(1,-1)">
		<path d="M939-287c19 0 36 15 36 36l0 179-575-72 0-107c0-19 15-36 36-36l503 0 z" fill="#0074BA"/>
		<path d="M2376-287c19 0 36 15 36 36 0 134-20 221-144 287-56 28-237 99-301 99-135 0-144-187-325-187-41 0-89 2-128 16l-899 288c-41 13-58 28-72 72l-35 33c-48-21-108-74-108-130l0-371 716 0c115 0 72-143 184-143l1076 0 z" fill="#00A6ED"/>
		<path d="M1642-88c15 0 30 1 45 3 93 12 162 120 206 198-43-25-83-56-128-77-26-13-108-27-134-27-23 0-46 4-69 11l-1008 336c-7 3-14 4-21 4-9 0-17-1-25-3 21-60 37-106 104-128l902-301c39-14 89-16 128-16 z" fill="#0074BA"/>
	</g></svg>
