<svg version="1.1" xmlns="http://www.w3.org/2000/svg" viewBox="0 0 2300 2300"><g transform="scale(1,-1) translate(-256, -1869)">
		<path d="M1654 112c195 0 340 36 454 195 150 208 295 566 295 813 0 320-225 606-578 606-207 0-365-96-503-217-116-100-343-75-565-103-206-26-350-123-350-328 0-79 19-156 43-229 163-497 427-732 956-732 86 0 162-5 248-5 z M1646 256c-80 0-161 5-241 5-463 0-677 203-819 633-19 59-36 120-36 182 0 36 6 70 26 101 61 90 269 92 377 101 152 8 348 18 468 127 109 98 246 177 405 177 275 0 432-220 432-466 0-216-135-541-267-725-88-125-207-135-345-135 z" fill="#5235A6"/>
		<path d="M977-287c37 0 72 3 105 11 37 8 72 23 104 45 31 22 59 56 83 102l23 47c7 15 16 29 26 42 9 12 21 22 35 30 14 7 32 11 53 11 21 0 38-4 52-11 14-8 26-18 36-30 10-13 19-27 26-42 7-16 15-32 23-47 25-49 60-87 105-115 45-28 94-42 149-42l183 0c60 0 116 11 169 34 52 23 98 54 137 93 39 39 69 84 92 137 23 52 34 108 34 168l0 364c0 50-9 97-28 141-19 43-45 81-77 114-33 32-71 58-114 77-44 19-91 28-141 28l-1292 0c-50 0-97-9-140-28-44-19-82-45-114-77-33-33-58-71-77-114-19-44-29-91-29-141l0-364c0-60 11-116 34-168 23-53 54-98 93-137 39-39 84-70 137-93 52-23 108-34 168-34 44 0 87 0 130-1l15 0 z" fill="#00A6ED"/>
		<path d="M2067-129c186 0 345 148 345 345l0 138c0 194-156 360-360 360l-1292 0c-194 0-360-156-360-360l0-138c0-186 148-345 345-345l270 0c82 0 158 36 209 91 36 39 52 82 78 131 23 43 57 64 104 64 23 0 44-6 62-17 36-23 55-70 75-113 48-96 147-156 254-156l270 0 z" fill="#83CBFF"/>
		<path d="M1730-34c20 0 37 7 51 21l466 466c14 14 21 31 21 51 0 38-31 72-72 72-19 0-36-7-50-21l-467-467c-14-14-21-31-21-51 0-40 34-71 72-71 z M652-34c20 0 37 7 51 21l466 466c14 14 21 31 21 51 0 38-31 72-72 72-19 0-36-7-50-21l-467-467c-14-14-21-31-21-51 0-40 34-71 72-71 z" fill="#AEDDFF"/>
	</g></svg>
