<svg version="1.1" xmlns="http://www.w3.org/2000/svg" viewBox="0 0 2300 2300"><g transform="scale(1,-1) translate(-256, -1869)">
		<path d="M1011-395l107 36 68 90c73-13 145-18 220-18 179 0 360 32 523 117l88-117 108 0c3 11 36 103 36 108 1 12 2 32 2 55 0 44-2 104-2 132 177 193 251 454 251 711 0 613-388 1006-1006 1006-616 0-1006-391-1006-1006 0-242 67-485 215-670l0-157 72-107 108 36 29 43c25-16 52-31 79-44l0-107 108-108 z" fill="#5092FF"/>
		<path d="M1801 575c177 0 324 143 324 324 0 178-145 323-324 323-179 0-323-147-323-323 0-179 145-324 323-324 z M1011 575c178 0 323 145 323 324 0 179-147 323-323 323-179 0-324-145-324-323 0-177 143-324 324-324 z" fill="#FFFFFF"/>
		<path d="M1693 719c79 0 144 63 144 144 0 80-65 143-144 143-80 0-143-62-143-143 0-80 64-144 143-144 z M1118 719c79 0 144 63 144 144 0 80-65 143-144 143-80 0-143-62-143-143 0-80 64-144 143-144 z M2089 1222c-148 0-296 86-323 244l-1 7c0 21 17 37 36 37 19 0 30-12 35-29 9-33 21-61 36-86 39-63 126-101 217-101 19 0 36-15 36-36 0-19-15-36-36-36 z M723 1222c148 0 293 85 323 244l1 7c0 21-18 37-36 37-19 0-30-12-35-29-9-32-21-60-36-85-39-64-126-102-217-102-19 0-36-15-36-36 0-19 15-36 36-36 z" fill="#402A32"/>
		<path d="M1790 95c76 36 119 111 119 193 0 42-11 81-34 117l-938 0c-23-36-34-75-34-117 0-82 43-157 119-193l768 0 z" fill="#433B6B"/>
		<path d="M1693 72c73 0 144 30 144 115 0 16-13 29-29 29l-805 0c-16 0-28-15-28-29 0-85 71-115 143-115l575 0 z M1759 288c76 0 95 52 117 115-39 61-106 100-183 100l-575 0c-73 0-143-37-182-100 18-59 41-115 116-115l707 0 z" fill="#FFFFFF"/>
	</g></svg>
