<svg version="1.1" xmlns="http://www.w3.org/2000/svg" viewBox="0 0 2300 2300"><g transform="scale(1,-1) translate(-256, -1869)">
		<path d="M2243-126c12 0 24 1 36 2 12 1 23 3 32 8 9 5 17 12 22 21 4 8 7 18 7 31l0 6 72 63c0 55-9 106-26 154-18 48-43 91-75 129-32 37-70 69-114 95-44 26-92 45-145 57-39 9-78 19-116 32-38 12-74 27-109 46-35 18-67 40-96 66-30 26-56 57-78 93l-9 17c-4 7-8 14-11 21-4 7-7 15-10 22l-6 16c-1 11-2 22-2 34l0 13c1 16 1 32 1 47 0 32 0 64 1 95l0 94c0 26-5 50-14 73-10 22-23 42-40 59-17 17-37 30-60 40-23 9-47 14-73 14l-844 0c-26 0-50-5-72-14-23-10-42-23-59-40-17-17-31-37-40-59-10-23-15-47-15-73l0-1031 675 0c23 0 47-1 72-3 24-3 46-8 65-17 19-9 35-22 48-39 12-18 18-42 18-72l965 0 z" fill="#FFB02E"/>
		<path d="M1422 699l172 3c29 0 49 23 49 50 0 27-24 49-50 49l-173-3c-27 0-49-24-49-50 0-28 25-49 51-49 z M2263-287c82 0 149 73 149 153l0 139-2012 0 0-146c0-79 65-146 146-146 61 0 112 37 134 90l75 0c22-53 73-90 134-90 59 0 112 35 135 90l74 0c23-55 76-90 135-90 61 0 112 37 134 90l75 0c22-53 73-90 134-90 59 0 112 35 135 90l74 0c23-55 76-90 135-90 61 0 112 37 134 90l75 0c22-52 74-90 134-90 z M1422 931c-26 0-51 21-51 49 0 26 22 50 49 50l173 2c27 0 50-20 50-49 0-27-20-50-49-50l-172-2 z M898 874c74 0 139 62 139 139l0 209-451 0c-106 0-186-86-186-186l0-162 498 0 z" fill="#7D4533"/>
	</g></svg>
