<svg version="1.1" xmlns="http://www.w3.org/2000/svg" viewBox="0 0 2300 2300"><g transform="scale(1,-1) translate(-256, -1869)">
		<path d="M1406-215c570 0 934 362 934 934 0 570-362 934-934 934-574 0-934-365-934-934 0-571 362-934 934-934 z" fill="#FFB02E"/>
		<path d="M472 719l1006 934-863 0c-80 0-143-62-143-143l0-791 z" fill="#BB1D80"/>
		<path d="M472 905l748 748-203 0-545-545 0-203 z M472 1264l389 389-204 0-185-186 0-203 z" fill="#5092FF"/>
		<path d="M741-179c142 0 270 114 270 269 0 32-24 54-54 54-30 0-54-22-54-54 0-87-73-162-162-162-30 0-54-22-54-54 0-32 25-53 54-53 z M2035 1186c146 0 269 120 269 270 0 30-25 54-54 54-30 0-53-25-53-54 0-87-73-162-162-162-30 0-54-22-54-54 0-30 22-54 54-54 z" fill="#F70A8D"/>
		<path d="M1980 791c39 0 73 31 73 72l-1 12c-21 128-126 203-251 203-128 0-226-74-250-202l-1-14c0-38 32-71 71-71 105 0 40 144 180 144 146 0 77-144 179-144 z M1261 791c39 0 73 30 73 71l-1 13c-21 128-126 203-250 203-128 0-227-73-251-202l-1-6c0-48 30-79 71-79 103 0 42 144 181 144 145 0 75-144 178-144 z" fill="#402A32"/>
		<path d="M2079 324l-457 0c-30 0-54 22-54 54 0 32 25 53 54 53l457 0c122 0 225 100 225 226l0 26c0 80-64 144-143 144-80 0-144-48-144-131 0-44 24-85 75-85 60 0 2 108 87 108 30 0 54-25 54-54l0-22c0-77-63-140-141-140-101 0-183 82-183 184 0 136 99 248 239 248 71 0 138-25 187-70 59-54 77-111 77-208 0-184-148-333-333-333 z M2125-215c-38 0-72 31-72 71 0 39 31 72 72 72 39 0 72-34 72-72 0-40-34-71-72-71 z M903 360c-38 0-72 31-72 71 0 39 31 72 72 72 39 0 72-31 72-72 0-40-34-71-72-71 z M1981 1581c39 0 72 34 72 72 0 39-31 72-72 72-39 0-72-31-72-72 0-38 33-72 72-72 z" fill="#00A6ED"/>
		<path d="M1526 72c99 0 181 79 181 181 0 41-12 77-37 109 25 33 37 69 37 110 0 98-78 181-181 181-39 0-72-31-72-72 0-39 31-72 72-72 19 0 37-16 37-37 0-22-16-38-37-38-39 0-72-31-72-72 0-40 34-71 72-71 21 0 37-16 37-38 0-19-16-37-37-37-39 0-72-31-72-72 0-39 31-72 72-72 z" fill="#402A32"/>
	</g></svg>
