<svg version="1.1" xmlns="http://www.w3.org/2000/svg" viewBox="0 0 2300 2300"><g transform="scale(1,-1) translate(-256, -1869)">
		<path d="M1894-359c89 0 160 73 160 159l0 407c28-46 78-77 136-77 26 0 51 6 74 18l164 85c55 29 86 83 86 142 0 26-6 51-18 74l-469 903c-50 94-156 158-270 158l-673 0c-101 0-194-50-251-129-14-20-24-40-34-61l-453-871c-12-23-18-48-18-74 0-59 31-113 86-142l165-85c23-12 47-18 74-18 38 0 77 15 107 42l0-373c0-86 69-158 160-158l974 0 z" fill="#9B9B9B"/>
		<path d="M1894-287c48 0 88 38 88 87l0 692 130-243c15-30 46-47 78-47 15 0 28 3 41 10l164 85c30 15 47 46 47 78 0 15-3 28-10 41l-468 902c-41 76-128 120-207 120l-673 0c-75 0-148-35-194-101-11-15-17-31-26-47l-454-874c-7-13-10-26-10-41 0-32 17-63 47-78l165-85c13-7 26-10 41-10 32 0 62 17 77 47l102 192 0-642c0-52 42-86 88-86l974 0 z" fill="#FFFFFF"/>
		<path d="M1811 399l-163 0c-57 0-98 48-98 101l0 219 359 0 0-219c0-53-42-101-98-101 z M1909 144l0 11c0 38-38 61-72 61l-216 0c-17 0-33-5-48-16-21-15-23-30-23-56l359 0 z M1262 144l-359 0 0 11c0 38 37 61 72 61l215 0c17 0 34-5 49-16 21-15 23-29 23-56 z M1421 704l355 344c5 5 7 10 7 15 0 7-5 15-14 24-9 9-19 18-30 27-11 9-21 17-30 26-9 9-14 17-14 24 0 9 3 14 9 17 6 3 14 4 23 5 9 0 19-1 30-2l21-1 8 0c9 0 17 2 23 5 6 3 9 8 9 17l-5 24c-4 13-8 28-12 45l-13 47c-5 15-7 24-8 28-7 26-21 47-42 64-21 17-45 25-73 25l-245-600-244 600c-27 0-51-8-73-25-22-17-36-38-43-64-1-5-4-14-7-29l-24-91c-3-14-5-22-5-25 0-8 3-13 9-16 6-3 14-5 23-5l29 1c11 1 21 1 30 1 9-1 16-2 22-5 6-3 9-9 9-17 0-7-4-15-13-24-9-9-19-17-30-26-11-9-21-17-30-26-9-9-14-17-14-24 0-5 2-10 7-15l355-344 z" fill="#D3D3D3"/>
		<path d="M1460-287l0 1222 205 503-489 0 212-521 0-1204 72 0 z" fill="#00A6ED"/>
	</g></svg>
