<svg version="1.1" xmlns="http://www.w3.org/2000/svg"><g transform="scale(1,-1)">
		<path d="M1406-287c616 0 1006 391 1006 1006 0 613-388 1006-1006 1006-616 0-1006-391-1006-1006 0-613 388-1006 1006-1006 z" fill="#FFB02E"/>
		<path d="M1806 482c167 0 305 133 305 305 0 168-136 305-305 305-168 0-305-136-305-305 0-168 136-305 305-305 z M1005 487c166 0 302 136 302 302 0 168-134 303-302 303-169 0-302-137-302-303 0-166 136-302 302-302 z" fill="#FFFFFF"/>
		<path d="M1765 575c121 0 216 99 216 216 0 119-97 215-216 215-120 0-215-97-215-215 0-121 97-216 215-216 z M1047 575c119 0 215 97 215 216 0 120-97 215-215 215-121 0-216-97-216-215 0-121 99-216 216-216 z" fill="#402A32"/>
		<path d="M1406 71c110 0 288 54 288 145 0 41-34 72-73 72-17 0-33-6-48-19-48-40-109-54-167-54-58 0-120 14-168 54-15 13-31 19-48 19-38 0-72-33-72-72 0-21 8-39 24-54 64-62 172-91 264-91 z" fill="#402A32"/>
		<path d="M2161-287c97 0 179 79 179 179l0 360c0 97-79 179-179 179-98 0-180-79-180-179l0-360c0-98 79-179 180-179 z" fill="#3F5FFF"/>
	</g></svg>
