<svg version="1.1" xmlns="http://www.w3.org/2000/svg" viewBox="0 0 2300 2300"><g transform="scale(1,-1) translate(-256, -1869)">
		<path d="M810 745l27 72-37 62-79-9-45-63 36-62 98 0 z M640 870l72 16 53 55-36 62-82-9-43-62 36-62 z M568 994l-35 62 52 62 72 10 36-62-53-62-72-10 z M497 1118l71 10 53 62-36 63-77-10-48-62 37-63 z M424 1243c-7 12-24 36-24 51 0 13 5 22 15 27 19 11 66 45 87 45 27 0 36-33 47-51l-52-62-73-10 z M2201-287l0 251c0 310-178 592-469 723 49 52 89 130 94 202l26 417c1 16 3 32 3 49 0 203-164 370-369 370l-161 0c-210 0-368-166-368-376 0-15 1-28 2-43l27-418c5-72 49-154 97-204-8-5-63-34-66-34l-155-31c-23-53-44-107-68-159l-15-21c-23-27-29-38-37-52-83-135-122-269-122-423l0-251 1581 0 z" fill="#321B41"/>
		<path d="M1803-287l-258 401 301 510c-36 24-74 45-114 63-41-43-89-74-144-93l-171-279-177 274c-61 19-113 50-157 95-23-11-45-22-65-33l-79 137c16 8 53 21 53 42 0 14-22 52-39 52-10 0-217-121-313-177-40-24-46-23-46-39 0-14 24-52 39-52 11 0 45 24 55 29l106-184c51 64 113 119 181 166l587-912 241 0 z M676 807l124 72-36 62-124-72 36-62 z M604 932l125 71-36 63-125-72 36-62 z M532 1056l125 72-36 62-125-72 36-62 z M460 1181l125 72-36 62-125-72 36-62 z" fill="#533566"/>
		<path d="M1636 983c59 0 108 47 113 105 3 38 7 80 7 118 0 112-90 206-204 206l-271 0c-111 0-205-89-205-204 0-40 5-80 8-120 3-60 55-105 113-105 80 0 116 90 219 90 105 0 141-90 220-90 z" fill="#573739"/>
		<path d="M1663 1258c12 0 22 10 22 22 0 7-3 12-9 17l-1 0c-24 27-87 35-125 35-14 0-30-4-30-22 0-10 8-22 20-22l42-1c13-1 27-4 40-9 9-4 18-11 27-14 4-4 9-6 14-6 z M1159 1258c4 0 8 2 13 5 1 0 2 0 2 1 4 1 8 4 13 7 19 13 39 15 55 16l41 1c10 0 20 10 20 21 0 17-15 23-30 23-45 0-106-12-126-35l-1 0c-5-5-8-11-8-18 0-12 9-21 21-21 z" fill="#000000"/>
		<path d="M1667 1109l-164 0c-7 0-17 6-17 14 0 47 52 89 101 89 39 0 100-36 100-83 0-10-10-20-20-20 z M1320 1109c7 0 16 7 16 14 0 51-54 89-101 89-39 0-100-36-100-83 0-10 10-20 21-20l164 0 z" fill="#FFFFFF"/>
		<path d="M1635 1109l-126 0c-2 5-3 10-3 17 0 36 29 66 66 66 18 0 33-6 46-19 16-17 19-40 19-55 0-3-1-6-2-9 z M1314 1109c1 7 2 10 2 17 0 35-27 66-65 66-36 0-66-29-66-66 0-7 1-10 2-17l127 0 z" fill="#7D4533"/>
		<path d="M1605 1109l-66 0c-3 5-5 11-5 17 0 21 16 38 38 38 21 0 37-16 37-38 0-7-1-12-4-17 z M1284 1109c3 5 4 10 4 17 0 21-18 38-37 38-21 0-38-16-38-38 0-6 2-12 5-17l66 0 z" fill="#000000"/>
		<path d="M1552 1141c7 0 11 4 11 11 0 7-4 12-11 12-8 0-12-4-12-12 0-7 5-11 12-11 z M1228 1141c7 0 12 4 12 11 0 8-4 12-12 12-7 0-11-5-11-12 0-7 4-11 11-11 z" fill="#FFFFFF"/>
	</g></svg>
