<svg version="1.1" xmlns="http://www.w3.org/2000/svg"><g transform="scale(1,-1)">
		<path d="M1406-287c616 0 1006 391 1006 1006 0 48-3 96-8 144l-998 266-999-266c-5-48-7-96-7-144 0-613 388-1006 1006-1006 z" fill="#FFB02E"/>
		<path d="M2404 863c-60 560-461 862-998 862-546 0-938-309-999-862l1997 0 z" fill="#F8312F"/>
		<path d="M651-72c98 0 180 78 180 180l0 144c0 98-79 179-180 179-97 0-179-79-179-179l0-144c0-98 79-180 179-180 z M2233 1078c98 0 179 79 179 180l0 144c0 97-79 179-179 179-98 0-180-79-180-179l0-144c0-98 78-180 180-180 z" fill="#3F5FFF"/>
		<path d="M1801 431c177 0 324 143 324 324 0 78-28 151-76 208-56-20-116-28-176-28-87 0-192 20-267 78-83-63-128-159-128-258 0-179 145-324 323-324 z M1011 431c178 0 323 145 323 324 0 99-45 195-128 258-73-57-175-78-267-78-60 0-120 8-176 28-48-57-76-130-76-208 0-177 143-324 324-324 z" fill="#FFFFFF"/>
		<path d="M1478-72c119 0 215 97 215 216 0 121-97 216-215 216l-144 0c-121 0-216-99-216-216 0-121 99-216 216-216l144 0 z M1693 575c81 0 144 67 144 144 0 81-67 144-144 144-80 0-143-65-143-144 0-80 64-144 143-144 z M1118 575c81 0 144 67 144 144 0 81-67 144-144 144-80 0-143-65-143-144 0-80 64-144 143-144 z M1873 1006c19 0 36 18 36 36 0 19-15 36-36 36-103 0-180 77-180 180 0 19-17 36-35 36-19 0-36-15-36-36 0-147 106-252 251-252 z M939 1006c147 0 251 107 251 252 0 19-15 36-36 36-18 0-36-17-36-36 0-25-4-50-13-73-24-67-91-107-166-107-19 0-36-15-36-36 0-18 17-36 36-36 z" fill="#402A32"/>
		<path d="M1445-144c118 0 217 100 217 217 0 80-65 143-144 143l-224 0c-80 0-144-64-144-143 0-118 100-217 217-217l78 0 z" fill="#F70A8D"/>
	</g></svg>
