<svg version="1.1" xmlns="http://www.w3.org/2000/svg"><g transform="scale(1,-1)">
		<path d="M1406-287c616 0 1006 391 1006 1006 0 613-388 1006-1006 1006-616 0-1006-391-1006-1006 0-613 388-1006 1006-1006 z" fill="#FFB02E"/>
		<path d="M1800 362c175 0 322 142 322 322 0 180-147 322-322 322-180 0-322-147-322-322 0-175 142-322 322-322 z M1011 360c179 0 323 147 323 323 0 179-147 323-323 323-179 0-324-144-324-323 0-178 144-323 324-323 z" fill="#FFFFFF"/>
		<path d="M1757 449c156 0 279 128 279 279 0 151-124 278-279 278-152 0-279-123-279-278 0-156 128-279 279-279 z M1038 449c156 0 279 128 279 279 0 151-124 278-279 278-152 0-279-123-279-278 0-156 128-279 279-279 z" fill="#402A32"/>
		<path d="M1891 719c53 0 90 40 90 90 0 68-63 125-126 125-50 0-90-38-90-89 0-63 58-126 126-126 z M1172 719c53 0 90 38 90 89 0 65-59 126-126 126-49 0-90-35-90-89 0-63 58-126 126-126 z" fill="#FFFFFF"/>
		<path d="M2089 1078c19 0 36 15 36 36 0 19-15 36-36 36-61 0-125 14-176 58-41 36-59 77-77 131-5 16-18 27-35 27-18 0-36-17-36-36 0-3 1-6 2-10 45-166 165-242 322-242 z M1549 0c41 0 73 34 73 72 0 11-3 21-8 32-37 75-127 112-208 112-20 0-40-2-61-7-71-16-155-75-155-137 0-38 32-72 73-72 26 0 52 15 63 40l1 0c15 23 52 32 79 32 95 0 77-72 143-72 z M723 1078c157 0 277 76 322 242 1 4 2 7 2 10 0 18-17 36-36 36-17 0-30-11-35-27-18-54-36-95-77-131-51-44-114-58-176-58-19 0-36-15-36-36 0-19 15-36 36-36 z" fill="#402A32"/>
	</g></svg>
