<svg version="1.1" xmlns="http://www.w3.org/2000/svg" viewBox="0 0 2300 2300"><g transform="scale(1,-1) translate(-256, -1869)">
		<path d="M1406-287c616 0 1006 391 1006 1006 0 613-388 1006-1006 1006-616 0-1006-391-1006-1006 0-613 388-1006 1006-1006 z" fill="#FFB02E"/>
		<path d="M1677-144c-132 0-159 95-271 95-110 0-145-93-273-93-126 0-230 101-230 226 0 79 40 145 97 186l266 190c41 29 86 43 137 43 49 0 94-14 135-42l265-183c63-44 106-117 106-197 0-125-107-225-232-225 z M2196 1150c-135 0-158 108-251 108-94 0-119-108-252-108-119 0-215 97-215 216 0 59 23 111 63 152 104 105 248 171 404 171 76 0 149-15 219-45 117-50 248-144 248-278 0-121-97-216-216-216 z M1118 1150c117 0 216 94 216 216 0 59-23 111-63 152-104 105-248 171-404 171-76 0-149-15-219-45-117-50-248-144-248-278 0-121 97-216 215-216 137 0 158 108 252 108 94 0 119-108 251-108 z" fill="#212121"/>
		<path d="M939 539c190 0 359 152 359 359 0 191-153 360-359 360-201 0-359-162-359-360 0-196 157-359 359-359 z M1873 539c194 0 360 156 360 360 0 200-163 359-360 359-196 0-359-159-359-359 0-191 153-360 359-360 z" fill="#FFFFFF"/>
		<path d="M1548 288c80 0 145 63 145 143 0 23-4 38-12 57-35 52-72 104-76 114-60 104-103 214-122 333l-152 0c-22-152-94-311-188-431-21-21-24-48-24-73 0-80 66-143 145-143l284 0 z" fill="#FF822D"/>
		<path d="M1873 503c202 0 375 153 394 360l139 0c39 0 78 28 78 72 0 44-39 71-78 71l-152 0c-49 175-209 288-381 288-174 0-331-114-380-288l-174 0c-48 171-203 288-380 288-176 0-333-116-381-288l-158 0c-38 0-72-30-72-71 0-39 31-72 72-72l145 0c19-205 189-360 394-360 201 0 374 153 393 360l147 0c19-202 186-360 394-360 z M1873 576c-179 0-323 147-323 323 0 179 147 323 323 323 179 0 323-147 323-323 0-179-147-323-323-323 z M939 575c-177 0-324 143-324 324 0 178 145 323 324 323 179 0 323-147 323-323 0-179-145-324-323-324 z M1801 719c98 0 180 77 180 180 0 98-79 179-180 179-97 0-179-79-179-179 0-98 79-180 179-180 z M1011 719c98 0 179 79 179 180 0 97-79 179-179 179-98 0-180-79-180-179 0-102 81-180 180-180 z" fill="#402A32"/>
	</g></svg>
