<svg version="1.1" xmlns="http://www.w3.org/2000/svg" viewBox="0 0 2300 2300"><g transform="scale(1,-1) translate(-256, -1869)">
		<path d="M472 539l71 36 0 200c0 10-6 15-17 15-70 0-126-78-126-143l0-72 72-36 z" fill="#D3D3D3"/>
		<path d="M1571-287c27 0 51 21 51 50l0 530-360 0 0-530c0-29 24-50 51-50l258 0 z M2174-287c12 0 23 10 23 22l0 696-647 0 340-340c13-13 19-28 19-47l0-309c0-12 10-22 22-22l243 0 z" fill="#636363"/>
		<path d="M2389-287c6 0 11 2 16 7 4 4 6 9 6 15l0 553 1 0 0 347c0 51-10 100-29 145-20 45-47 84-80 118-34 33-73 60-118 79-45 19-94 29-145 29l-346 0c-30 0-57 6-81 19-24 12-45 30-63 53-38 49-82 85-132 109-50 23-106 35-167 35-45 0-86-9-125-27-39-19-72-43-101-74-29-31-51-67-67-107-23-55-25-92-25-151l-102 0c0 11 1 25 2 42l0 13c0 12-1 23-2 34-3 15-8 27-16 38-8 11-21 16-39 16-15 0-28-5-39-15-11-11-16-24-16-39 0-6 2-13 5-21 3-8 6-16 11-25 4-9 8-17 13-24l10-20c-21-3-40-9-57-18-18-9-33-21-46-35-13-15-24-31-31-50-7-19-11-38-11-59l0-103c0-7-2-12-7-16-5-4-10-6-16-6l-192 0 0-179c0-25 5-49 14-70 9-22 22-41 38-57 16-17 35-30 57-39 21-9 45-14 70-14l422 0c-3-8-10-24-19-49-9-25-20-53-33-86l-40-103c-14-37-27-70-38-101-11-31-21-58-28-80-8-22-12-35-12-38 0-13 5-23 14-32 9-9 20-14 33-14l240 0c15 0 28 4 41 13 12 9 21 20 26 33l107 283c83-28 169-42 258-42 79 0 156 11 231 34 75 22 145 55 211 99l40-39c6-7 11-15 15-23 4-9 6-18 6-27l0-309c0-6 2-11 7-15 4-5 9-7 15-7l314 0 z" fill="#9B9B9B"/>
		<path d="M508 357c18 0 35 17 35 36l0 40c0 21-16 36-35 36-19 0-36-15-36-36l0-40c0-19 15-36 36-36 z" fill="#636363"/>
		<path d="M723 575c19 0 36 15 36 36 0 19-15 36-36 36-19 0-36-15-36-36 0-19 15-36 36-36 z" fill="#1C1C1C"/>
	</g></svg>
