<svg version="1.1" xmlns="http://www.w3.org/2000/svg"><g transform="scale(1,-1)">
		<path d="M1786-284c61 0 116 11 164 32 47 21 87 50 120 87 33 37 58 80 75 131 17 51 25 105 25 164 0 26-2 53-6 80-5 27-9 53-12 78-7 53-15 105-23 158l-26 157-24 153-26 153c-3 21-7 45-10 70-3 25-8 48-13 68-3 9-7 17-14 22-7 5-16 8-25 8-12 0-22-4-29-12-7-8-11-18-11-29l-10-854c0-22-2-44-5-65-3-22-10-42-19-59-9-17-22-31-39-42-17-11-38-16-65-16-35 0-63 8-83 25-20 16-35 36-45 61-10 25-16 52-19 81-3 29-4 57-4 84l-1 249c0 5 3 9 10 11 6 2 13 3 22 3 8 0 16 0 24-1 8-1 14-1 18-1 36 0 66 12 89 35 23 23 35 52 35 88l0 63c2 7 6 13 11 19l15 17c5 5 9 11 13 17 4 6 6 13 6 21 0 10-4 18-11 25-7 7-16 10-25 10-9 0-17-2-23-7-7-5-12-8-15-8-3 0-5 2-5 7l0 16c0 10-4 18-11 25-7 7-16 10-26 10-10 0-19-3-26-9-8-7-12-15-12-26l1-14c0-7-2-10-6-10-3 0-9 3-16 8-7 5-16 7-25 7-9 0-17-4-24-11-7-8-11-17-11-26 0-9 3-16 9-23 5-7 12-14 19-21 7-7 13-15 19-23 5-9 8-19 8-30l0-15c0-7-3-11-9-11-14 0-31 0-52 1l-11 0c-17 0-33-2-49-4-20-4-37-11-50-21-14-11-21-27-21-48-27 33-55 65-86 96-31 31-63 60-96 87l34 0c15 0 30 3 44 8 14 5 26 12 37 21 10 9 18 20 25 33 6 13 9 28 9 44l0 52c0 5 3 10 9 17l20 21c7 7 14 15 20 23 6 7 9 15 9 22 0 11-4 21-11 29-8 8-18 12-29 12-9 0-17-3-23-10l-12-6c-3 0-5 4-6 11-1 7-1 12-2 15-3 22-16 33-39 33-8 0-14-2-19-5-5-3-8-8-10-13-3-6-4-12-4-18-1-7-1-13-1-19l-5-4c-10 3-4 1-14 6-6 7-14 10-24 10-10 0-19-4-27-11-9-7-13-16-13-27 0-9 3-18 10-25 6-7 13-14 21-21 7-7 14-13 21-18 6-6 9-12 9-18l0-36c0-3-2-4-5-4l-122 0c-5 15-9 31-12 49-3 17-4 34-4 49 0 7 0 15-1 25l-1 14 1 14c1 9 2 18 5 27 3 8 7 15 14 20 39 30 69 65 92 104 22 39 33 84 33 134 0 36-4 69-13 100-9 31-22 60-37 87-16 27-34 53-55 78-21 25-43 50-66 75l-27 30-27 26c-10 7-21 13-32 18-12 4-26 6-41 6-17 0-32-3-45-9-13-7-24-15-34-24-10-10-19-21-28-33l-27-37-54-69c-18-24-34-49-49-74-15-26-28-53-37-81-9-28-14-57-14-87 0-50 12-95 35-135 23-40 53-75 91-106 5-4 8-9 9-14 1-5 1-11 1-16l0-86c0-28 2-57 7-86l-113 0c-3 0-5 1-6 4-1 3-2 6-2 10l-1 5 1 6 0 8c0 9 3 17 9 24 6 7 13 13 20 20l20 21c6 7 9 16 9 26 0 11-3 20-10 27-7 7-17 10-28 10-5 0-10-1-13-2l-10-6-7-7c-3-3-5-4-8-5-2 0-4 2-4 7l0 16c0 11-4 20-12 27-9 7-18 10-29 10-15 0-25-6-29-17-4-12-6-24-6-36l-4-3-2 0c-3 0-8 3-13 7-6 5-14 8-23 8-11 0-19-3-26-9-7-7-11-16-11-27 0-10 3-19 10-27 6-9 13-17 21-24l21-20c6-7 9-13 9-20l0-51c0-15 3-29 9-41 6-13 14-23 24-32 10-9 22-15 35-20 13-5 27-8 41-8l163 0c25-57 57-109 96-155 39-47 82-90 130-129l33-27 30-29-32 0c-15 0-29-3-42-8-13-5-25-13-35-22-11-10-19-21-25-34-6-13-9-27-9-42 0-4 0-11 1-21 1-10 1-20 1-31 0-11-1-21-2-29-2-9-5-13-10-13-6 0-12 3-19 10-7 6-15 13-22 21-8 8-16 15-25 22-9 6-18 9-28 9-11 0-20-3-27-10-7-7-11-16-11-27 0-7 1-12 4-17 3-5 6-9 9-12l9-9c3-3 4-5 4-7 0-3-3-5-9-6-7-1-14-2-21-4-8-2-15-5-21-10-7-5-10-13-10-24 0-9 3-17 9-24 5-7 13-10 23-10 6 0 12 0 19 1 6 0 12 0 18 1l3-4c0-3-1-5-4-8l-10-9c-3-3-6-7-9-12-3-5-5-11-5-18 0-11 4-20 11-27 7-7 16-11 27-11 9 0 17 2 24 5 7 3 13 6 19 11 5 5 11 10 16 16 5 6 10 12 16 17 8 7 16 12 25 14l27 3c13 1 25 5 37 12 11 7 21 16 30 27 8 11 15 23 20 36 5 13 7 25 7 37l-1 18c-1 9-1 18-1 27 0 9 1 18 2 25 1 7 4 11 8 11l90 0c9-24 13-50 13-79 0-67 9-130 27-190 17-61 44-114 80-159 36-45 81-81 135-108 54-27 117-41 190-41 z" fill="#00D26A"/>
		<path d="M1226 1366c19 0 36 15 36 36 0 19-15 36-36 36-19 0-36-15-36-36 0-19 15-36 36-36 z M939 1366c19 0 36 15 36 36 0 19-15 36-36 36-19 0-36-15-36-36 0-19 15-36 36-36 z" fill="#1C1C1C"/>
	</g></svg>
