<svg version="1.1" xmlns="http://www.w3.org/2000/svg" viewBox="0 0 2300 2300"><g transform="scale(1,-1) translate(-256, -1869)">
		<path d="M770 1375l87 27 16 79-166 118-57-8-6-58 126-158 z" fill="#00D26A"/>
		<path d="M882 1236l94 51 42 90-145 104-103-106 112-139 z" fill="#5092FF"/>
		<path d="M645 1532l63 66c-21 16-138 107-157 107-11 0-22-10-22-22 0-4 2-8 5-13l111-138 z" fill="#F9C23C"/>
		<path d="M1071 1034c74 0 155 29 155 118 0 30-9 63-21 92l-190 136-136-141 163-204 15-1 14 0 z" fill="#8D65C5"/>
		<path d="M962 990c47 0 96 11 137 28 158 69 128 218 243 333 21 24 66 65 66 100 0 36-45 38-68 38-58 0-145-25-207-63-51-32-76-78-101-120-16-26-35-76-64-113-24-30-52-33-78-33-38 0-66 18-102 18-19 0-28-9-28-27 0-10 2-20 5-30 30-90 121-131 197-131 z" fill="#5092FF"/>
		<path d="M2137-286c37 0 71 8 103 24 103 50 159 149 159 267l-1 12c-43 448-199 1291-779 1296-56 43-127 79-203 79-49 0-88-14-126-50-37-34-72-69-106-105-178-189-332-355-526-569-87-98-211-205-211-316 0-93 93-166 183-166 13 0 27 2 42 5l619 135c11 2 22 5 33 9-135-156-266-405-288-621l1101 0 z" fill="#EFD5FF"/>
		<path d="M2138-287c139 0 267 0 267 164l0 772c0 145-63 301-231 301 7-29 8-60 8-91 0-141-35-279-78-412-31-93-42-189-42-286 0-133 23-313 76-448 z" fill="#FF6DC6"/>
		<path d="M2193-287c-43 121-64 244-64 370 0 137 28 278 61 409 23 89 50 174 50 259 0 61-10 119-30 175-36 109-148 287-287 287 41-95 58-233 58-332 0-91-11-186-58-268-86-151-101-406-101-564 0-113 7-227 30-336l341 0 z" fill="#C790F1"/>
		<path d="M1327 339c142 57 335 165 443 281 23 66 28 141 28 206 0 185-65 558-316 558-93 0-185-51-258-108 202-41 412-196 412-429 0-210-167-389-309-508 z" fill="#BCA4EB"/>
		<path d="M1894-286c-25 109-41 221-41 334 0 134 22 241 59 359 48 153 135 328 135 480 0 319-282 613-607 613-69 0-136-12-204-31 38-55 72-119 99-185l20 0c31 0 73 5 73 26 0 14-12 24-12 39 0 15 20 22 32 25 15-4 31-10 47-18 176-90 224-270 224-415 0-363-322-643-322-1048 0-61 7-120 21-179l476 0 z" fill="#5092FF"/>
		<path d="M2193-287l-103 0c-34 78-67 193-67 282 0 145 52 327 102 471 39 112 77 200 77 299 0 92-27 167-41 262l4 0c49-85 75-181 75-276 0-45-6-88-18-131-48-176-93-353-93-537 0-126 21-249 64-370 z M1894-286c-25 111-41 221-41 334 0 187 42 319 110 502 39 104 84 221 84 337 0 178-87 341-216 459l-12 2c97-122 157-295 157-439 0-108-31-176-69-277-87-230-155-378-155-623 0-94 10-201 41-295l101 0 z" fill="#8D65C5"/>
		<path d="M1336 1218c57 0 147 19 147 93l-1 14c-12 61-184 205-246 254-7 6-9 8-19 8-27 0-27-22-27-41 0-25 1-50 2-75 6-120 2-253 144-253 z" fill="#EFD5FF"/>
		<path d="M746 207l134 29c15 29 22 60 22 91 0 27-4 65-39 65-21 0-37-15-37-37 0-11 2-18 2-29 0-51-31-100-82-119 z M569 393c30 0 56 25 56 56 0 15-5 28-16 40l-79-79c10-11 23-17 39-17 z M1118 791c39 0 72 31 72 72l0 72c0 40-34 71-72 71-39 0-71-33-71-71l0-72c0-38 31-72 71-72 z" fill="#1C1C1C"/>
	</g></svg>
