<svg version="1.1" xmlns="http://www.w3.org/2000/svg" viewBox="0 0 2300 2300"><g transform="scale(1,-1) translate(-256, -1869)">
		<path d="M1981-287c234 0 431 190 431 431 0 234-190 431-431 431l162 0c146 0 269 120 269 270l0 701c0 97-79 179-179 179-45 0-84-14-118-43l-709-604-709 604c-34 29-73 43-118 43-97 0-179-79-179-179l0-701c0-149 118-270 269-270l162 0c-234 0-431-190-431-431 0-234 190-431 431-431 165 0 312 91 387 240 8 18 13 32 20 50l168 400 177-425c66-165 231-265 398-265 z" fill="#533566"/>
		<path d="M1351 647l0 11-199 115c-10 6-22 9-35 9-19 0-36-7-50-21-15-15-67-55-67-80 0-19 16-34 34-34l317 0 z M1795 647c18 0 33 15 33 34 0 19-27 45-49 64-35 30-40 37-68 37-13 0-24-3-34-9l-199-115 0-11 317 0 z M2047 647c123 0 221 101 221 221l0 144c0 32-25 59-58 59-10 0-20-3-29-8l-342-197c-15-8-23-24-23-40 0-12 4-22 13-31l99-98c33-33 73-50 119-50 z M781 647c46 0 89 19 120 50l98 98c9 9 13 19 13 32 0 17-7 30-22 39l-342 197c-9 5-19 8-29 8-33 0-59-27-59-59l0-144c0-123 101-221 221-221 z" fill="#FF822D"/>
		<path d="M1982-179c179 0 325 137 325 323 0 120-72 240-181 290-14 7-24 10-39 10-25 0-46-9-64-27l-312-313c-17-17-26-38-26-63 0-15 3-27 8-38l1-2c62-111 155-180 288-180 z M832-179c63 0 120 16 171 48 51 32 90 76 118 132l1 2 1 0-1 1c5 11 8 23 8 38 0 25-9 46-26 63l-313 312c-18 18-39 27-63 27-7 0-14-1-20-2l-19-8c-27-13-52-29-74-50-23-21-42-44-57-69-16-25-28-53-37-82-9-29-13-59-13-89 0-45 8-88 25-127 17-39 40-73 69-102 29-29 64-52 103-69 39-17 82-25 127-25 z M2082-63c-64 0-118 54-118 118 0 64 54 118 118 118 63 0 117-52 117-118 0-66-54-118-117-118 z M1654 168c12 0 22 4 31 13l212 212c9 9 13 19 13 30 0 25-20 44-44 44l-239 0c-47 0-85-38-85-85 0-11 2-22 6-32l65-155c6-16 22-27 41-27 z M733-72c-66 0-118 54-118 117 0 64 54 118 118 118 64 0 118-54 118-118 0-63-52-117-118-117 z M1161 168c19 0 35 11 41 27l65 155c4 10 6 21 6 32 0 46-37 85-86 85l-238 0c-23 0-44-18-44-43 0-12 4-22 13-31l212-212c9-9 19-13 31-13 z M1478 741l719 415c43 25 71 73 71 124l0 159c0 37-29 68-68 68-16 0-30-5-42-15l-680-557 0-194 z M1351 741l0 194-681 557c-12 10-26 15-42 15-39 0-68-31-68-68l0-159c0-51 28-99 71-124l720-415 z" fill="#FF6723"/>
		<path d="M1441 1106c19 0 36 15 36 36 0 191 58 356 179 525 5 7 8 15 8 22 0 19-15 36-36 36-11 0-20-5-28-14-120-141-186-354-194-532-8 187-82 402-194 532-8 9-18 14-29 14-18 0-35-17-35-36 0-9 2-17 7-22l31-43c97-139 149-308 149-482 0-19 15-36 36-36 18 0 32 13 35 29 3-16 17-29 35-29 z" fill="#212121"/>
		<path d="M1410 144c55 0 104 44 104 104l0 763c0 34-16 63-42 83 47 25 78 72 78 128 0 81-67 144-144 144-81 0-144-67-144-144 0-53 31-103 78-127-28-19-43-52-43-84l0-763c0-63 49-104 113-104 z" fill="#321B41"/>
	</g></svg>
