<svg version="1.1" xmlns="http://www.w3.org/2000/svg"><g transform="scale(1,-1)">
		<path d="M1287-287c33 0 62 5 86 16 23 11 44 25 63 42 19 17 36 38 51 61l48 71c11 17 27 25 47 25 76 0 150 10 221 30 71 20 137 48 198 85 61 36 117 79 168 130 51 51 94 107 130 169 36 61 64 128 84 199 19 71 29 144 29 220 0 60-6 119-19 178-13 58-31 114-56 168-25 53-55 104-90 152-35 48-76 92-122 131l0 263c0 20-7 37-21 51-14 14-31 21-51 21-30 0-63-4-100-12-37-8-75-18-112-31-37-13-73-27-107-43-35-16-65-32-91-48-30 1-60 2-89 2l-90 0c-99 0-198-11-296-34-98-23-192-56-282-99-90-43-174-96-252-159-79-63-148-134-208-214-17-23-26-49-26-78 0-19 5-38 16-58 10-21 23-41 38-60 15-19 31-37 48-54 17-17 32-32 45-43l931 0 0-120c0-29 4-57 11-83 7-29 21-55 40-80 19-25 47-49 85-71 5-3 9-5 14-6 4-2 9-3 15-3 14 0 26 5 36 15 9 10 14 22 14 36l0 312 176 0c5 0 10-1 15-3 4-2 8-4 13-5l56-13c29-5 57-9 86-12 28-3 57-5 86-5l0 38 2 0 0-423-545-261-29 55c-9-2-17-4-26-7-9-3-18-4-27-4-19 0-35 7-46 22l-126 158c-43 53-95 95-156 125-62 29-127 44-196 44l-90 0c-7 0-14-3-19-8-5-5-8-12-8-19 0-6 2-11 6-16l376-501c7-9 10-19 10-32 0-13-6-28-17-45-11-17-24-35-37-53l-37-51c-11-16-17-29-17-38 0-7 3-14 8-19 5-5 12-8 19-8l117 0 z" fill="#9B9B9B"/>
		<path d="M1552 31c79 12 155 32 229 60 115 44 170 81 278 151 32 21 61 45 88 73 26 28 48 59 67 92 18 33 32 67 42 104 10 37 15 74 15 113 0 50-8 99-24 146-17 47-40 91-69 130-29 39-64 73-105 102-41 28-87 48-136 61-1 0-2 0-3 1l-2 0c-12 0-19-6-22-18-2-10-4-22-4-36l0-9c1-19 2-39 4-60l2-36-1-23c-2-19-7-34-14-46-8-12-21-18-39-18-9 0-18 2-25 7l-22 14c-37 25-65 57-86 96-21 38-32 79-32 124 0 13-6 19-19 19l-495 0c-99 0-193-17-284-50-91-33-173-82-248-147l-101-87c24-20 51-39 80-56 29-18 60-34 93-47 32-13 65-24 98-32 33-8 66-12 97-12l903 0c21 0 41-3 61-10 19-7 37-16 52-28 15-13 28-28 37-46 9-18 14-38 14-60 0-31-7-59-21-85-15-27-34-51-57-74-24-23-51-43-81-62-31-19-62-36-94-51-32-15-63-28-94-39-31-11-58-21-82-28l0-133 z" fill="#D3D3D3"/>
		<path d="M1514 971c19 0 36 17 36 35l0 145c0 19-15 36-36 36-19 0-36-15-36-36l0-145c0-19 15-35 36-35 z M1370 971c19 0 36 17 36 35l0 145c0 18-17 36-36 36-19 0-36-15-36-36l0-145c0-19 15-35 36-35 z" fill="#636363"/>
		<path d="M1011 1006c39 0 72 34 72 72 0 39-31 72-72 72-39 0-72-34-72-72 0-38 33-72 72-72 z" fill="#1C1C1C"/>
	</g></svg>
