<svg version="1.1" xmlns="http://www.w3.org/2000/svg"><g transform="scale(1,-1)">
		<path d="M1403-182c47 0 78 8 125 13l251 25-9 89c261 136 427 406 427 702 0 107-21 209-62 307 47 81 62 173 62 264 0 100-34 200-103 283 52 61 82 139 82 224l-411 0c-73 0-138-24-195-72l-323 0c-58 48-124 72-199 72l-406 0c0-85 30-163 82-224-69-83-103-183-103-283 0-89 13-179 59-258-43-99-65-205-65-313 0-296 165-566 427-702l-9-89 247-25c47-5 76-13 123-13 z" fill="#6D4534"/>
		<path d="M1406-144c350 0 620 436 620 764 0 67-11 133-32 197-156-87-375-98-559-98-190 0-448 1-616 101-22-64-33-131-33-200 0-315 262-764 620-764 z" fill="#FFDEA7"/>
		<path d="M1784-287c26 0 51 18 51 47 0 56-35 137-64 185-113-59-237-89-365-89-128 0-252 30-365 89-29-48-64-129-64-185 0-29 25-47 51-47l756 0 z M1516 935c0 59-49 107-107 107-58 0-108-47-108-107l215 0 z" fill="#FF822D"/>
		<path d="M1837 935c161 0 288 129 288 287 0 161-128 288-288 288-160 0-287-129-287-288 0-161 130-287 287-287 z M975 935c156 0 287 125 287 287 0 157-129 288-287 288-161 0-288-128-288-288 0-160 129-287 288-287 z" fill="#1C1C1C"/>
		<path d="M1804 948c130 0 237 105 237 237 0 126-101 238-237 238-131 0-238-108-238-238 0-129 105-237 238-237 z M1007 948c130 0 237 105 237 237 0 126-101 238-237 238-131 0-238-108-238-238 0-129 105-237 238-237 z" fill="#FCD53F"/>
		<path d="M1804 1039c79 0 146 63 146 146 0 79-63 146-146 146-79 0-146-63-146-146 0-79 63-146 146-146 z M1007 1039c79 0 146 65 146 146 0 79-65 146-146 146-79 0-147-62-147-146 0-82 67-146 147-146 z" fill="#533566"/>
	</g></svg>
