<svg version="1.1" xmlns="http://www.w3.org/2000/svg"><g transform="scale(1,-1)">
		<path d="M881 907c182 0 327 146 327 327 0 81-84 277-124 358-38 80-106 133-203 133-95 0-164-53-202-132-39-78-124-279-124-359 0-182 147-327 326-327 z" fill="#636363"/>
		<path d="M1242-287c0 85-68 151-152 151l-48 0 0-151 200 0 z M2326-287c41 0 71 33 71 72l0 79-283 0c-79 0-152-63-152-151l364 0 z M686 958c117 0 214 96 214 214 0 79-42 147-105 184 13 22 19 45 19 69 0 73-60 128-128 128-73 0-129-58-129-128 0-25 7-48 20-69-63-37-105-105-105-184 0-120 94-214 214-214 z" fill="#9B9B9B"/>
		<path d="M596 1150c19 0 36 15 36 36 0 19-15 36-36 36l-124 0c-19 0-36-15-36-36 0-19 15-36 36-36l124 0 z M1142-287l0 646 820-39 0-172c0-215 151-389 355-428l12-1c40 0 69 34 69 70l0 895c0 201-148 438-369 438-80 0-137-31-221-31-80 0-167 26-235 79-28 21-22 16-69 73-7 8-7 13-10 13-83 106-210 172-352 172-68 0-120-12-174-47-160-102-272-214-272-401l-1 0 0-901c0-197 159-366 366-366l81 0 z" fill="#636363"/>
		<path d="M1566 125c160 0 302 74 396 195l0 4c0 18-3 35-9 50-27 64-83 78-162 84-147 9-303 49-424 130-47 33-84 81-136 81-51 0-89-38-89-89l0-221c92-148 254-234 424-234 z" fill="#9B9B9B"/>
		<path d="M669 1386c25 0 43 19 43 43 0 25-21 42-43 42-22 0-42-19-42-42 0-22 17-43 42-43 z" fill="#212121"/>
	</g></svg>
