<svg version="1.1" xmlns="http://www.w3.org/2000/svg" viewBox="0 0 2300 2300"><g transform="scale(1,-1) translate(-256, -1869)">
		<path d="M1399-279c-3 0-7 3-11 8-64 78-143 129-246 129-102 0-188-45-262-110-5-5-11-8-18-8-19 0-22 26-27 46-26 112-132 176-244 176-51 0-101-11-145-36-7-3-12-7-20-7-10 0-20 7-20 18 0 11 12 19 19 26l531 524c10 10 22 15 37 15 16 0 29-8 41-17 81-63 179-126 286-126 41 0 93 11 125 47l454-454c-47 11-95 17-143 17-163 0-272-70-335-221-4-9-11-27-22-27 z M2185 237c-11 47-17 96-17 144 0 163 68 267 220 334 9 4 27 10 27 21 0 7-4 9-8 12-75 59-129 142-129 246 0 102 45 188 110 262 5 5 8 11 8 18 0 19-26 22-46 27-112 26-176 132-176 244 0 51 11 101 36 145 3 7 6 12 6 20 0 10-6 20-17 20-11 0-18-12-25-19l-525-531c-10-10-14-24-14-37 0-15 7-29 16-41 61-83 126-179 126-285 0-42-11-94-47-126l455-454 z" fill="#A56953"/>
		<path d="M1988-71c99 0 216 108 216 207 0 153-230 348-327 434-7 60-35 107-78 150l-287 288c-7 7-14 12-22 12-15 0-17-17-17-28 0-6 1-14 2-21l23-201c-44-36-92-78-128-128-70 6-158 17-223 17-12 0-35-1-35-19 0-5 1-8 4-11 7-11 17-21 28-31 86-82 184-183 266-267 37-37 96-66 153-73 60-69 124-134 189-198 60-60 147-131 236-131 z" fill="#6D4534"/>
		<path d="M1646 371c35 0 118 80 118 116 0 36-65 43-88 43-57 0-74-19-74-74 0-23 9-85 44-85 z" fill="#FF8687"/>
		<path d="M1514 431c19 0 36 18 36 36 0 19-15 36-36 36-19 0-36-15-36-36 0-18 17-36 36-36 z M1658 575c18 0 35 17 35 36 0 19-17 36-35 36-19 0-36-15-36-36 0-19 15-36 36-36 z" fill="#1C1C1C"/>
	</g></svg>
