<svg version="1.1" xmlns="http://www.w3.org/2000/svg"><g transform="scale(1,-1)">
		<path d="M2039 1l-196 0c-183 0-292 113-292 297l420 0 140-168c11-12 15-32 15-46 0-53-40-83-87-83 z M1006 719l0 359-257 0c-73 0-144-23-206-68l-71-219 71-72 463 0 z" fill="#D3D3D3"/>
		<path d="M1478 288l-575 0 212 359 363-359 z M1855 719c108 0 198 114 198 219 118 16 209 115 214 232 97 50 162 149 162 268l-807 0-208-195c-5-11-8-21-8-32 0-44 34-74 76-74-15-28-66-99-66-133 0-44 37-69 76-69-15-26-75-125-75-153 0-40 34-63 70-63l368 0 z" fill="#6D4534"/>
		<path d="M806 117c11 0 17 6 17 17 0 7-2 11-2 18 0 60 52 111 116 111 56 0 81-45 94-45 11 0 15 8 15 17 0 10-5 24-9 32-22 51-68 93-131 93-81 0-147-64-147-146 0-21 20-97 47-97 z M422 646c18 0 100 56 122 73l-1 291c-96-70-143-179-143-291l0-17c0-23 4-56 22-56 z" fill="#F9C23C"/>
		<path d="M1979 288l-357 431 0 719-136 0c-306 0-583-241-583-575 0-319 262-575 583-575l493 0 z" fill="#A56953"/>
		<path d="M651 862c19 0 36 15 36 36 0 18-17 35-36 35-19 0-36-17-36-35 0-19 15-36 36-36 z" fill="#1C1C1C"/>
	</g></svg>
