<svg version="1.1" xmlns="http://www.w3.org/2000/svg" viewBox="0 0 2300 2300"><g transform="scale(1,-1) translate(-256, -1869)">
		<path d="M1677-287c8 0 16 5 16 14l-1 4c-10 36-43 54-77 54l-111 0 47 310-118 0-43-310-172 0 46 310-117 0-44-310-197 0c-34 0-72-19-72-58 0-8 8-14 16-14l827 0 z" fill="#9B9B9B"/>
		<path d="M2294 72c64 0 118 54 118 118 0 69-53 118-122 118 66 0 122 52 122 122 0 51-31 99-84 117 53 17 84 65 84 116 0 55-36 105-94 119 58 14 94 64 94 119 0 48-28 94-75 113 48 19 75 65 75 113 0 66-52 122-122 122 66 0 122 52 122 122 0 50-31 98-82 116 51 18 82 66 82 116 0 66-52 122-122 122l-43 0 0-231-30 0 0-1186-220 0 0-236 297 0 z" fill="#F3AD61"/>
		<path d="M637 539l211 667c16 51 30 99 30 152 0 96-47 150-146 150-87 0-122-57-122-141 0-103 54-179 54-261 0-54-20-90-76-101-101-16-186-72-186-185l0-281 235 0 z" fill="#F70A8D"/>
		<path d="M579 1239l0 202-116-86c-5-3-8-8-8-14 0-5 3-10 8-14l116-88 z" fill="#F9C23C"/>
		<path d="M601 1150c19 0 36 15 36 36l0 246c0 19-15 36-36 36-19 0-36-15-36-36l0-246c0-19 15-36 36-36 z" fill="#FF6DC6"/>
		<path d="M725 1364c19 0 36 15 36 36 0 19-15 36-36 36-18 0-36-17-36-36 0-18 17-36 36-36 z" fill="#1C1C1C"/>
		<path d="M2039 72c197 0 229 264 229 412l0 1241c-114 0-299-2-398-65-68-42-150-111-171-188-71 25-143 38-218 38-298 0-558-167-673-443-19-43-33-50-73-71-170-94-335-205-335-426 0-218 91-394 302-469 39-14 92-29 136-29l1201 0 z" fill="#6D4534"/>
		<path d="M2061 72c80 0 162 84 162 163 0 52-28 95-62 130-108 108-221 210-334 313l-460-605 27-1 667 0 z" fill="#D3883E"/>
		<path d="M1367 73c21 0 44 3 67 8 258 60 403 269 403 494 0 36-3 70-10 103-151 140-334 328-559 328-195 0-328-105-398-266-22-48-39-110-39-161 0-63 7-121 22-174 57-212 251-332 514-332 z" fill="#A56953"/>
	</g></svg>
