<svg version="1.1" xmlns="http://www.w3.org/2000/svg"><g transform="scale(1,-1)">
		<path d="M796 1474c9 1 17 4 25 8 8 3 16 7 23 12 6-6 14-9 24-9 10 0 21 2 33 5 12 3 23 5 33 6 16 3 31 8 45 16 14 8 26 18 36 30 10 11 18 25 24 40 5 15 8 30 8 47l0 60c0 10-3 19-10 26-7 7-16 10-26 10-12 0-21-4-26-11-5-7-9-16-10-26l-2-18 1-13c1-11 1-21 1-28 0-13-2-23-6-30-5-8-11-14-18-19-8-5-17-8-26-11-9-3-19-5-29-7 2 7 4 15 5 22 1 7 2 15 2 22l0 83c0 10-3 19-10 26-7 7-16 10-26 10-10 0-18-3-25-10-7-7-11-16-11-26l0-83c0-13-2-24-7-31-5-8-11-14-19-19-8-5-17-9-27-11-10-3-20-5-30-7 9-9 19-18 28-29 9-11 16-22 20-35 z" fill="#7D4533"/>
		<path d="M1560-215l-155 574-215 0 61-255c22-91 107-120 115-149l47-170 147 0 z M1812-215l147 257c12 23 23 41 23 67l0 415-217 0 0-436c0-12-3-19-7-30l-105-273 159 0 z" fill="#D3883E"/>
		<path d="M1096-214c12 0 22 10 22 22l0 174c0 35 72 75 72 173l0 205 197 65c19 6 35 12 48 18 31 14 76 18 114 18l63-1 254 7c0-70 35-133 88-171l295-211c12-9 19-18 19-34l0-242c0-12 11-22 23-22l98 0c12 0 22 10 22 22l0 441c0 93-143 136-143 211l0 278c0 99-55 190-143 238l0 101c0 81-67 144-144 144l0-213-785 0c-49 0-91 27-113 69l-118 217c78 0 152 19 197 88 5 7 7 14 7 21 0 19-15 36-36 36l-395 0c-32 0-63-12-86-35l-230-230c-15-15-22-35-22-55 0-59 48-114 112-114l103 0 151-195-49-355c72-68 157-94 258-94l0-554c0-12 10-22 22-22l99 0 z" fill="#F3AD61"/>
		<path d="M2389-287c12 0 23 10 23 22l0 121-144 0 0-121c0-12 11-22 23-22l98 0 z M1732-287c19 0 42 9 53 27l67 116-171 0c-8-16-46-109-46-120 0-14 11-23 23-23l74 0 z M1556-287c11 0 17 8 17 19 0 21-24 96-32 124l-148 0 35-127c4-13 16-16 28-16l100 0 z M1096-287c12 0 22 10 22 22l0 121-143 0 0-121c0-12 10-22 22-22l99 0 z" fill="#6D4534"/>
		<path d="M476 1078c18 0 33 16 33 35 0 22-15 37-36 37l-66 0c-5-9-7-20-7-31 0-15 3-28 7-41l69 0 z M651 1150c19 0 36 15 36 36 0 19-15 36-36 36-19 0-36-15-36-36 0-19 15-36 36-36 z" fill="#212121"/>
		<path d="M1627 360c58 0 128 19 186 58 24 15 53 38 53 59 0 15-12 26-26 26l-650 0 0-143 437 0 z M718 456c73 40 113 113 113 190l0 360-216 0 0-306c0-94 39-182 103-244 z" fill="#FFDEA7"/>
		<path d="M795 1330c13 0 22 4 27 11 5 7 8 16 9 27l1 17-2 37 1 18c1 11 5 21 10 30 5 9 15 14 28 16l295 49c29 5 52 18 71 39 18 21 27 47 27 76l0 38c0 10-3 19-10 26-7 7-16 10-26 10-12 0-20-3-25-8-5-5-8-12-9-20-1-8-2-17-2-27 0-10-1-19-2-28-1-9-5-16-10-23-5-7-14-11-26-13l-294-49c-24-4-45-14-63-31-14 14-29 24-46 29l-47 13c-15 4-28 10-38 17-10 7-15 20-15 38l0-5c0 10-3 19-10 26-7 7-16 10-26 10-9 0-17-3-24-9-8-7-12-15-12-24 0-30 10-56 29-77 36-39 58-40 111-53 15-4 25-10 31-19 5-9 9-20 11-32l1-26-1-29 1-17c1-11 3-19 8-26 5-7 14-11 27-11 z" fill="#6D4534"/>
	</g></svg>
