<svg version="1.1" xmlns="http://www.w3.org/2000/svg" viewBox="0 0 2300 2300"><g transform="scale(1,-1) translate(-256, -1869)">
		<path d="M896 149c18 0 35 2 51 6l255 69c16 4 26 18 26 34 0 19-15 36-36 36l-9-1-255-69c-9-3-19-4-32-4-83 0-107 77-147 77-19 0-35-15-35-36 0-10 4-19 11-26 55-50 93-86 171-86 z M1157 295c19 0 36 15 36 36 0 18-17 36-36 36l-264 0c-121 0-117 131-173 131-19 0-35-17-35-36 0-19 36-67 47-83 35-55 99-84 161-84l264 0 z M1003 7c23 0 43 3 60 10 17 6 32 15 46 26 14 11 28 23 41 38 13 14 26 29 41 44 7 8 10 16 10 25 0 10-3 19-10 26-7 7-16 10-26 10-12 0-23-5-32-16l-33-37c-12-14-26-26-41-37-15-11-34-17-57-17l-28 2-10 0-24-1c-11-1-20-5-27-10-8-5-12-14-12-27 0-10 4-18 11-25 7-7 15-11 25-11l66 0 z M1912 142c58 0 97 22 131 52 19 16 51 36 51 60 0 19-17 36-35 36-40 0-67-77-147-77-13 0-23 1-32 4l-256 69-9 1c-18 0-35-17-35-36 0-16 11-30 26-34l255-69c16-4 33-6 51-6 z M1915 288c62 0 125 28 161 85 10 15 47 62 47 83 0 18-16 36-37 36-52 0-58-132-171-132l-265 0c-19 0-36-15-36-36 0-18 17-36 36-36l265 0 z M1871 0c9 0 18 4 26 12 7 7 11 16 11 25 0 13-4 22-12 27-8 5-17 9-28 10l-24 1-10 0-28-2c-23 0-42 6-57 17-15 11-29 23-41 37-12 13-23 26-32 37-10 11-21 16-33 16-11 0-19-4-26-11-7-7-10-16-10-25 0-9 3-17 10-25l41-45c13-15 26-27 40-38 14-11 30-20 47-26 17-7 37-10 60-10l66 0 z M1652-287c62 0 111 53 111 111 0 31-11 57-32 78l-148 149c-21 21-48 32-79 32-43 0-82-26-100-64-5 12-13 22-22 31l0 1c-21 20-49 32-79 32-31 0-57-11-78-32l-148-149c-21-21-32-47-32-78 0-31 11-57 32-78l0-1c21-20 49-32 79-32 31 0 57 11 78 32l148 148c9 9 17 19 22 31 5-12 12-22 21-31l148-148c21-21 50-32 79-32 z M1701 372c19 0 138 34 166 42 38 10 75 43 89 83 8 22 23 52 23 76 0 21-18 35-36 35-58 0-29-105-95-124l-157-42c-14-4-26-19-26-35 0-18 17-35 36-35 z M1107 378c21 0 35 18 35 36 0 16-10 31-26 35l-156 41c-68 19-37 125-96 125-19 0-36-16-36-37 0-20 18-56 24-75 15-42 47-71 88-82 28-8 144-43 167-43 z" fill="#CA0B4A"/>
		<path d="M2076 1274l-167 0 0 284c0 79 53 150 132 166l8 1c15 0 27-15 27-29l0-422 z M901 1275l0 283c0 81-57 150-133 166l-8 1c-15 0-26-14-26-28l0-422 167 0 z" fill="#CA0B4A"/>
		<path d="M1085 559l77 201-182 70c-45 18-79 60-79 113l0 332-1 0c-11 90-86 161-179 161l-26 0c-26 0-44 20-44 45l0 205c0 21-17 39-39 39l-7-1c-122-24-205-129-205-250l0-231c0-162 125-297 286-308 3-135 87-258 216-307l183-69 z" fill="#F8312F"/>
		<path d="M1725 559l183 69c125 48 213 168 216 307 160 11 286 145 286 308l0 231c0 123-86 226-206 250l-7 1c-22 0-38-20-38-39l0-205c0-25-18-45-44-45l-26 0c-92 0-169-67-180-161l-1 0 0-332c0-50-30-94-78-113l-183-70 78-201 z" fill="#F8312F"/>
		<path d="M1512 917c19 0 36 15 36 36l0 593c0 59 49 107 107 107 59 0 107-49 107-107 0-19 15-36 36-36 21 0 36 14 36 36 0 97-79 179-179 179-97 0-179-79-179-179l0-592c0-19 14-37 36-37 z M1295 917c19 0 36 16 36 37l0 592c0 97-79 179-179 179-97 0-179-79-179-179 0-19 15-36 36-36 19 0 36 15 36 36l-1 0c0 59 49 107 108 107 59 0 107-49 107-107l0-593c0-19 15-36 36-36 z" fill="#F8312F"/>
		<path d="M1403-287c83 0 164 54 188 138l182 585c20 67 31 134 31 203 0 167-58 312-162 439l-114 138c-29 36-74 59-124 59-46 0-93-20-125-59l-104-127c-115-140-172-283-172-452 0-68 11-136 31-201l182-582c27-84 101-141 187-141 z" fill="#F8312F"/>
		<path d="M1403-287c83 0 164 54 188 138l182 585c24 77 31 144 31 221l-1 20c-16-208-188-370-399-370-206 0-383 158-399 370l-1-18c0-68 6-143 30-223l182-582c27-84 101-141 187-141 z" fill="#CA0B4A"/>
		<path d="M1403-287c85 0 161 54 188 138l96 307c-73-72-172-117-283-117-104 0-204 38-283 117l95-304c27-84 101-141 187-141 z" fill="#F8312F"/>
		<path d="M1527 907c32 0 54 24 54 54 0 30-22 54-54 54-32 0-53-25-53-54 0-29 21-54 53-54 z M1280 907c32 0 54 24 54 54 0 30-22 54-54 54-32 0-54-24-54-54 0-30 22-54 54-54 z" fill="#1C1C1C"/>
	</g></svg>
