<svg version="1.1" xmlns="http://www.w3.org/2000/svg" viewBox="0 0 2300 2300"><g transform="scale(1,-1) translate(-256, -1869)">
		<path d="M1742-287c16 0 29 6 38 18l232 291c27 33 41 72 41 115l0 295-503 0 0-72 218-164c41-32 69-81 69-138 0-35-11-74-34-104-16-24-165-213-165-224 0-11 8-17 17-17l87 0 z M1172-287c11 0 18 8 18 19l0 772-215 0 0-144c0-99 13-201 41-298l98-335c3-8 10-14 18-14l40 0 z" fill="#9B9B9B"/>
		<path d="M2318 890c55 57 90 126 90 206 0 49-14 102-41 146-38 61-199 206-269 268-19-31-30-66-30-103 0-43 14-80 41-115 55-71 144-185 144-284 0-25-3-49-3-73l68-45 z M1335 978l0 216c0 139-57 276-168 375-88 77-209 137-328 137-64 0-141-18-208-56-31-17-70-41-70-70 0-10 4-19 11-26l196-189 29 4 29-28c17 15 38 22 61 22 47 0 89-50 89-94 0-31-6-59-9-90-7-70-14-131-25-201l393 0 z" fill="#636363"/>
		<path d="M2081-289c12 1 23 2 34 5 10 3 18 8 24 15l233 291c27 34 40 72 40 115l0 510c0 49-9 96-28 140-19 43-44 81-77 114-33 33-71 59-114 78-43 19-90 28-140 28l-863 0 0 215c0 53-9 103-27 150-18 47-43 90-74 128-32 38-70 70-113 96-44 25-92 42-144 51-5 3-13 8-25 17l-37 27-37 24c-12 7-20 10-23 10-6 0-11-2-16-6-5-4-7-9-7-16l0-98c-37-43-75-84-114-124-39-41-78-82-116-124l15-99 90-42 197 80 0-577c0-49 9-96 28-139 19-44 44-82 77-115 33-33 71-58 115-77 43-19 90-28 139-28 0-51 4-101 11-150 7-50 18-99 32-148l98-335c2-9 8-14 17-14l16 0 10-1 10 1c6 1 11 2 16 5 5 3 7 7 7 14l0 628 528 0c15 0 30-2 45-7 15-5 28-12 40-21l181-136c21-17 38-37 51-61 12-24 18-50 18-77 0-19-3-37-9-54-6-18-15-35-26-50l-50-66-39-50-37-50c-11-16-21-29-28-40-7-11-11-17-11-19 0-11 5-16 16-16 9 0 19 0 31-1l25-1 11 0 z" fill="#D3D3D3"/>
		<path d="M476 1188c31 0 60 18 87 29l-104 142c-25-28-59-51-59-92 0-43 31-79 76-79 z M2412 230l-331 0-95 72 426 0 0-72 z M1214 1372l-142 0c-16 0-31 3-45 9-14 6-26 14-36 25-11 10-19 22-25 36-6 14-9 29-9 45l0 126c0 9 4 18 11 25 7 7 16 11 25 11 14 0 24-5 29-15 5-10 7-23 8-38l0-14-1-35-2-30 1-20c1-15 4-28 11-38 6-10 17-15 33-15l142 0c10 0 19-3 26-10 7-7 10-16 10-26 0-10-3-18-10-25-7-7-16-11-26-11 z M883 501c72 0 128 58 128 128 0 17-3 33-8 46l-64 166c-13 35-48 58-85 58l-95 0 0-72 95 0c9 0 15-4 18-12 13-33 67-157 67-186 0-30-25-56-56-56l-93 0c11-27 26-49 42-72l51 0 z M2181-217l-148 0 54 72 151 0-57-72 z M2175-25l224 94c12 30 13 49 13 84l-216-91c0-31-6-60-21-87 z M2412 448l-180 0c-57 0-99 46-99 100 0 22 7 42 20 59l190 252c15-21 28-43 39-68-24-32-177-224-177-243 0-15 13-27 27-27l180 0 0-73 z M1813 360l448 579c-19 15-39 26-62 37l-476-616 90 0 z M1550 750c-74 0-136 59-136 136l0 121 72 0 0-122c0-35 30-64 64-64 20 0 36 8 49 24l132 162 92 0-168-207c-26-32-64-50-105-50 z M1598 588c87 0 169 37 227 110l246 308-9 1-83 0-210-265c-43-54-107-82-171-82l-322 0c-56 0-103 33-125 81l-92 208c-3 7-4 12-4 17 0 23 19 41 41 41l94 0c25 0 84 20 113 25l-48 6-33 41-126 0c-61 0-112-51-112-113 0-17 3-32 9-46l92-207c34-75 106-125 191-125l322 0 z M2041 72c10 26 12 45 12 72l-239 0c13-21 20-45 22-72l205 0 z M1816-224l45 57-86 85-43-58 84-84 z M1334-74l0 72-298 0 21-72 133 0 0 35 10-35 134 0 z M1334 144l-337 0c-5 24-9 48-12 72l349 0 0-72 z M759 1050l0 108c49 42 113 64 175 64l307 0 1-34 0-38-308 0c-78 0-130-37-175-100 z M841 1457c40 0 64 70 64 103l0 96c0 19-15 36-36 36-19 0-36-15-36-36l0-96c0-37-28-40-28-67 0-18 17-36 36-36 z" fill="#636363"/>
		<path d="M651 1366c21 0 36 16 36 35l0 38c0 18-17 35-36 35-19 0-36-17-36-35l0-38c0-19 15-35 36-35 z" fill="#212121"/>
	</g></svg>
