<svg version="1.1" xmlns="http://www.w3.org/2000/svg" viewBox="0 0 2300 2300"><g transform="scale(1,-1) translate(-256, -1869)">
		<path d="M1255-215c21 0 37 8 48 23 11 15 20 33 28 54l26 61c9 20 23 35 42 46l294 166c21 11 37 27 49 48 12 20 18 42 18 65 0 12-2 24-5 35-3 11-8 21-13 31l-84 147 151 87c21 13 41 28 58 46 17 17 31 37 42 60l0-257c0-34 7-66 20-97 13-31 30-58 53-81 22-24 48-43 78-56 30-14 62-21 97-21 35 0 68 6 99 19 31 13 58 30 81 53 23 23 42 49 55 80 13 31 20 64 20 99l0 510c0 9-3 16-9 23-6 6-13 9-22 9-15 0-30-3-43-9-14-6-26-14-36-24-11-11-19-23-25-36-6-14-9-29-9-44l0-312c0-19-7-36-21-50-14-15-31-22-50-22-20 0-37 7-51 21-14 14-21 31-21 51l0 372c0 81-15 157-45 229-31 71-72 134-125 188-53 54-115 97-186 128-71 31-148 47-229 47-66 0-127-10-182-31-56-21-107-49-153-85-46-36-87-78-123-126-37-49-69-101-97-157-4-8-9-15-15-22-6-7-14-11-24-11-12 0-22 5-30 14-9 9-13 19-13 30l0 352 215 143 0 50c0 6-2 11-6 16-5 4-10 6-16 6l-122 0c-19 0-38-3-55-9-17-7-32-16-45-27-13-11-24-25-31-41-8-17-12-35-12-55 0-3-1-6-3-8-3-2-6-3-9-3l-130 0c-17 0-30-3-41-8-11-6-19-14-26-23-7-9-12-20-16-32-4-12-8-25-11-38-3-11-7-20-13-26-6-6-13-10-20-12-8-3-16-4-25-4-9-1-18-1-27-1-31 0-57-10-78-31-21-21-32-48-32-79 0-15 3-28 9-41 6-13 14-24 24-33 10-10 22-18 35-23 13-6 26-9 40-9l104 0 0-272c0-32 6-62 19-90 12-28 29-52 50-73 21-21 45-38 73-50 28-12 58-18 90-18l13 1 19 0c7 0 13 0 18-1 5-1 8-3 8-6l-2-5-32-31c-11-10-20-20-28-31-8-11-14-23-19-36-5-13-7-27-7-44 0-18 4-35 12-51 7-17 18-31 31-43 13-13 27-22 44-29 16-7 33-11 51-11l41 0c15 0 28 5 39 16 10 10 15 23 15 38 0 15-6 28-17 38-11 10-24 15-39 15l-27 0-15 1c-7 1-13 4-18 8-5 4-8 10-8 19 0 8 3 15 8 20l32 31 24 25c7 8 14 17 21 27 7 9 14 21 22 35 6 9 13 14 22 14l147 0 0-15c0-35 7-67 21-98 13-31 32-58 56-81 23-23 51-42 82-55 29-12 58-18 91-18l7 0 58-99-196-110c-39-21-69-51-91-88-23-38-34-79-34-124l0-110c0-17 6-31 18-44 12-13 27-20 44-20 z" fill="#F3AD61"/>
		<path d="M436 1222c19 0 36 15 36 36 0 19-15 36-36 36l0-72 z M723 1294c19 0 36 15 36 36 0 19-15 36-36 36-19 0-36-15-36-36 0-19 15-36 36-36 z" fill="#1C1C1C"/>
		<path d="M975 1438c80 0 143 62 143 143l-72 0c-80 0-143-62-143-143l72 0 z" fill="#B97028"/>
	</g></svg>
