<svg version="1.1" xmlns="http://www.w3.org/2000/svg"><g transform="scale(1,-1)">
		<path d="M2211 72c73 80 202 257 202 370 0 53-17 99-51 139l-225 269c81 86 132 203 132 331l0 89c0 53-43 96-97 96l-88 0c-126 0-240-49-326-127-107 62-226 95-352 95-126 0-245-33-352-95-85 78-200 127-326 127l-88 0c-54 0-96-42-96-96l0-89c0-129 51-246 132-332l-226-269c-31-38-50-87-50-139 0-111 126-283 201-369l1610 0 z" fill="#9B9B9B"/>
		<path d="M751 939c65 79 127 163 206 231-67 52-147 80-229 80l-44 0c-14 0-25-11-25-24l0-45c0-93 34-178 92-242 z M2062 938c56 65 91 151 91 242l0 45c0 15-11 24-25 24l-44 0c-82 0-162-27-229-79 79-69 140-152 207-232 z" fill="#636363"/>
		<path d="M1406-287c312 0 600 129 810 363 3 23 5 46 5 69 0 113-43 219-112 300l-186 214c-56 64-127 96-212 96-148 0-265-130-265-273l0-151-78 0 0 151c0 149-121 273-271 273-80 0-151-33-206-96l-186-214c-73-86-113-189-113-298 0-25 2-48 6-71 206-233 499-363 808-363 z" fill="#D3D3D3"/>
		<path d="M1472-285c181 13 320 166 320 347 0 133-99 247-230 266l0 154c0 81 64 157 151 157 49 0 89-18 121-55l187-215c54-64 84-141 84-225 0-129-67-235-173-296-116-66-244-107-370-125l0 1c-30-4-60-7-90-9 z M1433-287l24 1-24-1-25 0 25 0 z M1404-287l-25 0-26 1 26-1 25 0 z M1342-285c-180 13-323 163-323 347 0 133 97 247 233 266l0 154c0 81-64 157-151 157-49 0-90-18-122-55l-187-215c-53-61-84-139-84-224 0-115 56-223 158-287l0-1c119-70 249-114 386-134l0 1c30-5 60-8 90-9 z" fill="#636363"/>
		<path d="M1406 101c19 0 36 7 49 20l90 91c14 14 21 30 21 49 0 40-32 70-70 70l-180 0c-40 0-69-33-69-71 0-19 7-35 20-48l90-91c13-13 30-20 49-20 z M1514-121c81 0 144 67 144 144 0 19-15 36-36 36-19 0-36-15-36-36 0-39-34-72-72-72-38 0-72 33-72 72 0 19-15 36-36 36-19 0-36-15-36-36 0-39-34-72-72-72-38 0-72 33-72 72 0 19-15 36-36 36-19 0-35-15-35-36 0-80 64-144 143-144 42 0 82 19 108 49 28-30 66-49 108-49 z M1693 360c38 0 72 31 72 71l0 72c0 39-31 72-72 72-40 0-71-34-71-72l0-72c0-39 33-71 71-71 z M1118 360c38 0 72 31 72 71l0 72c0 39-31 72-72 72-40 0-71-34-71-72l0-72c0-39 33-71 71-71 z" fill="#212121"/>
	</g></svg>
