<svg version="1.1" xmlns="http://www.w3.org/2000/svg" viewBox="0 0 2300 2300"><g transform="scale(1,-1) translate(-256, -1869)">
		<path d="M1421-119l53 48 567 0c31 0 60 6 87 18 27 11 51 27 72 48 20 20 36 44 48 71 11 27 17 56 17 87l0 157c0 13-5 25-14 34-9 8-20 12-31 12l-554-53 0-6-1 4-290 157 184 359-123 602c-9 45-25 86-47 123-22 37-49 70-82 97-33 27-69 48-110 63-41 15-84 23-130 23-52 0-101-10-146-29-45-19-85-46-118-79-34-34-61-74-80-119-19-45-29-94-29-146 0-23 2-44 6-65 3-21 8-42 15-63 6-18 9-36 9-54 0-19-3-35-8-50-5-15-13-29-24-44-48-67-85-135-110-204-26-69-39-145-39-228 0-85 14-165 43-242 29-77 69-146 120-207 51-62 111-114 181-157 69-43 145-74 228-92l40-49 63 34c19-2 38-3 56-3l19 0c25 1 50 1 75 1l53-48 z" fill="#F70A8D"/>
		<path d="M1277-287c30 0 54 22 54 54 0 29-24 54-54 54l-90 0 31 110c-35 2-69 7-103 15l-35-125-198 0c-29 0-54-24-54-54 0-32 24-54 54-54l395 0 z M767 1176c69 0 126 56 126 126 0 69-56 127-126 127-67 0-127-54-127-127 0-70 57-126 127-126 z" fill="#FF822D"/>
		<path d="M1565-287l-396 0c-32 0-53 24-53 54 0 29 23 54 53 54l198 0 0 108 108 0 0-108 90 0c30 0 54-25 54-54 0-29-24-54-54-54 z M1679 158l0 1 15 0-136 666c-27 130-145 226-279 226-136 0-252-97-278-226 72-481 198-604 678-667 z M636 1149c46 0 3 62 53 86l202 92c-16 79-84 138-171 138-94 0-170-80-170-172 0-54 25-109 73-140 3-3 8-4 13-4 z" fill="#FFB02E"/>
		<path d="M1679-71c29 0 51 25 51 51 0 32-28 140-36 179l-15 0 0-1c-349 48-627 319-678 668-7-36-8-74-8-111 0-329 202-623 506-740 42-16 137-46 180-46 z" fill="#00A6ED"/>
		<path d="M1070 1248c88 0 166 71 166 167 0 90-72 166-166 166-93 0-167-75-167-166 0-94 76-167 167-167 z" fill="#E6E6E6"/>
		<path d="M1070 1340c43 0 74 34 74 75 0 41-31 74-74 74-41 0-75-31-75-74 0-44 33-75 75-75 z" fill="#212121"/>
	</g></svg>
