<svg version="1.1" xmlns="http://www.w3.org/2000/svg"><g transform="scale(1,-1)">
		<path d="M1740-287c14 0 29 8 34 23l207 552-359 0c-21-52-200-520-200-539 0-19 15-36 36-36l282 0 z M950-287c17 0 28 8 33 23l207 552-359 0c-20-52-200-520-200-538 0-21 17-37 36-37l283 0 z" fill="#636363"/>
		<path d="M2119-108c162 0 294 131 294 294l0 268c0 82-21 161-59 229-105 192-284 252-491 252l-675 0c-158 0-285-128-285-286l0-546c138-29 313-85 399-211l817 0 z" fill="#636363"/>
		<path d="M2233-287c10 0 18 4 25 11 7 7 10 15 10 25l0 184c13 8 26 17 39 27 12 10 23 21 33 33 0-7 0-17-1-28l-1-14 2-19c1-11 5-20 10-27 5-8 14-12 26-12 10 0 19 4 26 11 7 7 10 15 10 25 0 43 0 86 1 129l0 396c0 39-5 78-15 118-11 40-25 77-44 111-27 48-57 88-92 120-35 32-73 58-114 78-42 19-87 33-134 42-48 8-98 12-151 12l-128 0c-33 0-69 0-109 1l-343 0c-30-1-54-1-73-1-19 0-30 0-31-1l0 5c0 19-6 35-19 48-13 13-28 19-47 19-17 0-29-3-38-10-9-7-16-15-20-26-4-11-6-22-7-35-1-13-1-26-1-38-31-17-58-41-82-70l-62 0 0 113c0 18-6 34-19 47-13 13-29 19-47 19-19 0-34-6-47-19-13-13-20-28-20-47 0-7 2-16 6-26 3-11 8-21 13-31 5-11 11-21 16-31 5-10 10-18 13-25l-45 0c-15 0-30-3-43-8-14-6-26-14-36-24-11-10-19-22-25-35-6-14-9-29-9-45l0-152c-37-5-72-17-103-34-32-18-60-40-83-67-23-27-41-58-54-92-13-34-20-70-20-107 0-42 8-81 24-118 16-37 38-70 65-97 27-27 60-49 97-65 37-16 76-24 118-24l414 0 0-40c0-22-3-42-8-60-6-19-12-35-19-49l-19-36c-6-11-9-19-9-25 0-10 3-18 10-25 7-7 15-11 25-11l344 0c10 0 19 4 26 11 7 7 10 15 10 25l0 143 215 108 215-107c-1-15-4-31-9-46-5-15-11-29-16-42l-16-35c-5-10-7-17-7-21 0-9 4-18 11-25 7-7 15-11 24-11l338 0 z" fill="#9B9B9B"/>
		<path d="M1225 132c96 0 174 77 174 174 0 96-77 174-174 174l-521 0c-96 0-174-77-174-174 0-96 77-174 174-174l521 0 z M1131 827c13 24 48 81 48 112 0 19-11 35-33 35-19 0-33-14-33-32l0-115 18 0 z M1909-107c0 90-4 111-72 179l-359 0 0-179 431 0 z M837 827l0 115c0 18-14 32-33 32-23 0-33-16-33-36 0-31 37-87 47-111l19 0 z" fill="#FF8687"/>
		<path d="M1157 258c15 0 28 8 40 20 21 21 44 39 44 64 0 25-20 44-44 44-22 0-42-21-57-38-16-19-28-28-28-47 0-22 20-43 45-43 z M791 258c24 0 44 17 44 43 0 21-19 42-37 57-19 15-28 28-48 28-22 0-44-19-44-44 0-12 6-23 14-31 19-19 40-53 71-53 z" fill="#A56953"/>
		<path d="M1083 503c19 0 35 15 35 36l0 46c0 20-15 35-35 35-21 0-36-16-36-35l0-46c0-19 15-36 36-36 z M867 503c19 0 36 15 36 36l0 46c0 19-15 35-36 35-21 0-36-16-36-35l0-46c0-19 15-36 36-36 z" fill="#1C1C1C"/>
	</g></svg>
