<svg version="1.1" xmlns="http://www.w3.org/2000/svg" viewBox="0 0 2300 2300"><g transform="scale(1,-1) translate(-256, -1869)">
		<path d="M1550-262c79 0 156 10 229 31 73 21 142 50 206 87 64 37 122 82 175 135 52 52 97 110 134 174 37 64 66 133 87 206 21 73 31 150 31 229 0 79-10 156-31 229-21 73-50 142-87 206-37 64-82 122-134 175-53 53-111 98-175 135-64 37-133 66-206 87-73 21-150 31-229 31l-349 0c-15 0-30 0-45-1l-45-4c69 41 142 71 219 92 77 21 155 31 235 31 40 0 80-3 119-8 39-5 77-13 116-23l75-21c25-7 50-14 75-20 25-6 50-11 76-15 25-4 51-6 77-6 25 0 50 2 76 6 26 3 52 9 77 16 25 7 50 16 74 27 23 11 45 23 65 37 11 7 17 17 17 30 0 11-4 19-11 26-7 7-16 10-26 10-6 0-12-2-19-5-41-23-82-42-121-55-40-14-84-21-132-21-24 0-48 2-72 6-25 4-49 9-72 15-24 6-48 13-71 20l-70 19c-42 11-84 20-125 26-42 5-85 8-128 8-56 0-107-4-154-11-47-8-92-19-134-32-43-14-83-30-122-49-39-19-78-40-117-63-39-23-80-48-121-74-42-27-86-54-133-81l-361-212c-15-9-23-22-23-41 0-12 5-24 14-35l30-36c11-13 21-26 30-40 9-15 13-31 13-49 0-17-4-34-13-50-9-16-19-31-30-44l-30-38c-9-11-14-21-14-29 0-7 2-13 7-18 5-5 11-8 18-8l334 0-17-25-29-38-33-46c-11-16-22-31-31-45-9-15-17-27-23-38-6-11-9-19-9-23 0-10 4-18 11-25 7-7 15-11 25-11 12 0 22 5 29 16l165 235 127 0-103-147c-13-18-23-38-29-59-7-22-10-44-10-66 0-7 0-16-1-25l0-8c0-7 1-13 2-20 1-9 5-17 10-23 5-7 13-10 24-10 11 0 20 3 25 9 5 6 9 14 11 23l1 19-1 35c0 30 9 58 27 83l132 189 128 0-103-147c-27-37-40-78-40-125 0-7 0-16-1-26l0-8c0-7 1-13 2-20 1-9 5-17 10-23 5-6 14-9 25-9 11 0 20 3 25 9 5 6 9 14 11 23l1 19-1 35c0 30 9 58 27 83l132 189 127 0-103-147c-13-18-23-38-29-59-7-22-10-44-10-66 0-7 0-16-1-26l0-8c0-7 1-13 2-20 1-9 5-17 10-23 5-6 14-9 25-9 11 0 20 3 25 9 5 6 9 14 11 23l1 19-1 35c0 31 9 58 26 83l133 189 75 0c23 0 46-2 68-6 21-4 42-11 63-20 20-10 40-25 60-45l-128 0c-25 0-48-7-69-22-21-15-35-34-44-58l-2-12c0-9 4-18 11-25 7-8 15-12 24-12 11 0 18 3 23 9 5 6 9 13 13 20 4 7 9 13 15 19 6 6 16 9 29 9l32 0-3-10c-1-3-2-7-2-10 0-9 4-18 11-25 7-8 16-12 25-12 10 0 17 3 22 9 5 6 9 13 13 20 4 7 9 13 15 19 6 6 16 9 29 9l38 0c7-17 13-35 18-53 4-18 6-36 6-55l0-18-2-18-202 0c-11 0-24-2-37-7-14-5-27-11-38-19-11-9-21-19-28-30-8-11-12-23-12-36 0-10 4-18 11-25 7-7 15-11 24-11 11 0 19 3 24 9 5 6 9 13 13 20 4 7 9 13 15 19 5 6 15 9 28 9l32 0-3-10c-1-4-2-8-2-11 0-10 4-18 11-25 7-7 15-11 25-11 11 0 18 3 23 9 5 6 9 13 13 20 4 7 9 13 15 19 5 6 15 9 28 9l38 0c-21-44-46-76-77-96-31-21-64-35-101-42-32-6-66-9-101-9l-15 0c-41 1-81 2-122 2-53 0-105-7-154-22-49-15-95-37-137-65-42-28-80-62-113-101-34-39-61-83-82-132-2-5-6-16-13-31-7-15-15-31-22-48-7-17-14-33-19-47-6-15-9-24-9-27 0-8 3-15 9-20 5-6 12-9 20-9l674 0 z" fill="#F8312F"/>
		<path d="M850 960c29 0 54 24 54 54l0 107c0 30-25 54-54 54-29 0-54-24-54-54l0-107c0-29 24-54 54-54 z" fill="#1C1C1C"/>
		<path d="M1550-262c166 0 325 47 460 133-23-7-46-12-69-12-52 0-118 30-144 78l-171 304 428 0c194 0 359 157 359 356 0 194-62 373-175 524 8-13 12-58 12-69 0-68-29-128-67-177l-365-480c-5-7-7-16-11-23-47-86-135-131-221-131l-208 0c-16 0-32-4-48-4l10-499 210 0 z M1766 672l187 257c41 57 62 125 62 191 0 146-93 272-238 313-99 26-195 30-299 30 104 0 187-82 187-187 0-39-11-75-34-107l-296-425 250 0c64 0 128-24 176-72l5 0 z" fill="#FF822D"/>
	</g></svg>
