<svg version="1.1" xmlns="http://www.w3.org/2000/svg"><g transform="scale(1,-1)">
		<path d="M1460-287c11 0 18 7 18 18l0 327c0 24-10 52-25 71l-207 251-111-91 189-230c7-9 10-18 10-29l0-299c0-11 7-18 18-18l108 0 z M2179-287c11 0 18 7 18 18l0 367c0 102-144 138-144 218l0 149-288 0 0-249 270-205c12-9 18-21 18-36l0-244c0-11 7-18 18-18l108 0 z M759 1554l0 106c0 19-15 36-36 36-18 0-36-17-36-36l0-106 72 0 z" fill="#FF822D"/>
		<path d="M1675-287c12 0 22 5 29 14l169 225c23 30 36 70 36 108l0 200c0 15 13 28 27 28 66 0 117 52 117 116l0 191c107-118 215-202 215-367l0-84 73 0 0 84c0 112-41 206-117 287l-238 257 0-1c-51 57-122 92-203 92l-671 0c-40 0-78 28-88 70l-120 541c60 0 112 5 137 74l1 8c0 15-11 25-26 25l-113 0 0 81c0 18-17 36-36 36-19 0-36-15-36-36l0-81-101 0c-74 0-123-46-142-110-7-23-22-33-45-33l-52-72 52-72 104 0 174-780c26-115 101-183 208-217 11-3 18-11 18-22l0-161c0-8-2-16-5-25-12-31-145-350-145-358 0-9 6-18 17-18l118 0c8 0 14 4 17 11l128 316c9 20 13 42 13 67l0 158c0 13 9 23 23 23l458 0c12 0 22-11 22-23l0-243c0-15-3-28-9-40-12-24-123-242-123-251 0-9 6-18 17-18l97 0 z" fill="#FFB02E"/>
		<path d="M903 1653l0 36c0 18-17 36-36 36-19 0-36-15-36-36l0-36 72 0 z M759 1653l0 36c0 19-15 36-36 36-18 0-36-17-36-36l0-36 72 0 z" fill="#636363"/>
		<path d="M723 1370c19 0 36 15 36 36l0 27c0 19-15 36-36 36-19 0-36-15-36-36l0-27c0-19 15-36 36-36 z" fill="#1C1C1C"/>
		<path d="M2279-1c48 0 88 41 88 89l0 24c0 36-29 66-66 66-37 0-66-30-66-66l0-84c0-14 12-29 28-29l16 0 z M1921 605c14 0 28 13 28 28 0 16-12 28-28 28-14 0-28-13-28-28 0-15 14-28 28-28 z M1808 259c29 0 54 21 54 53 0 32-24 53-54 53-30 0-53-24-53-53 0-29 23-53 53-53 z M1963 424c11 0 18 7 18 18l0 46c0 7-2 12-7 15-11 8-55 48-68 48-11 0-18-7-18-18l0-91c0-11 7-18 18-18l57 0 z M1249 360c7 0 14 5 14 13l0 45c0 8-7 13-14 13l-241 0c-7 0-14-6-14-14 0-3 2-7 6-12 22-25 42-45 57-45l192 0 z M961 827c9 0 14 5 14 14l0 41c0 7-7 14-14 14l-116 0c-7 0-14-7-14-14l0-41c0-9 5-14 14-14l116 0 z M1420 360c11 0 18 7 18 18l0 179c0 11-7 18-18 18l-68 0c-11 0-18-7-18-18l0-179c0-11 7-18 18-18l68 0 z M1172 766c5 0 10 2 13 5 3 3 5 8 5 13l0 79c-11 0-23 0-36-1l-19-1-20 1c-13 1-26 3-37 8-12 4-22 11-31 21l0-107c0-5 2-10 5-13 3-3 8-5 13-5l107 0 z M1419 647c11 0 18 7 18 18l0 108c0 11-7 18-18 18l-140 0c-11 0-17-9-17-18l0-47c0-4 3-9 9-16 23-30 57-63 70-63l78 0 z M1249 476c9 0 14 5 14 14l0 142c0 9-4 18-11 25-15 15-50 62-76 62l-163 0c-27 0-21 72-53 72l-76 0c-9 0-13-4-13-13 0-16 52-244 59-268 6-19 22-34 44-34l275 0 z M1497 357c41 0 159 65 199 65l124 0c11 0 18 7 18 18l0 68c0 11-8 19-19 19l-323 0c-11 0-18-7-18-18l0-134c0-11 8-18 19-18 z M1818 601c11 0 19 6 19 17l0 155c0 11-7 18-18 18l-154 0c-11 0-18-8-18-19 0-5 2-9 5-12l154-155c3-3 7-4 12-4 z M1675 575c11 0 18 7 18 18l0 47c0 5-2 10-5 13l-133 133c-3 3-7 5-12 5l-47 0c-11 0-18-7-18-18l0-180c0-11 7-18 18-18l179 0 z M941 933c11 0 17 7 17 18 0 12-52 230-56 257-3 9-8 14-17 14l-36 0c-11 0-18-7-18-18l0-253c0-11 7-18 18-18l92 0 z M788 1078c5 0 8 5 8 9l0 118c0 11-8 17-17 17l-39 0c-11 0-18-9-18-18 0-8 23-104 26-118 1-5 4-8 9-8l31 0 z M819 1270c17 0 30 13 30 29 0 16-13 29-30 29-16 0-29-13-29-29 0-16 13-29 29-29 z M543 1294l0 144c-40 0-71-34-71-72 0-38 31-72 71-72 z" fill="#D3883E"/>
	</g></svg>
