<svg version="1.1" xmlns="http://www.w3.org/2000/svg"><g transform="scale(1,-1)">
		<path d="M2180 86c94 0 168 77 168 169 0 68-41 126-99 152 91 3 163 80 163 168 0 89-68 165-163 168 61 26 100 86 100 153 0 90-73 168-167 168-21 0-42-4-62-12 31 31 47 74 47 116 0 90-70 168-168 168-43 0-85-17-115-46 7 20 11 40 11 59 0 87-70 168-168 168-66 0-126-38-153-98-5 91-76 162-168 162-90 0-164-70-167-163-27 62-89 100-154 100-92 0-168-76-168-167 0-22 4-42 12-61-30 29-73 46-116 46-93 0-168-74-168-168 0-43 17-85 46-115-20 7-40 11-59 11-92 0-168-75-168-168 0-67 39-127 98-153-91-3-162-78-162-168 0-90 70-164 163-167-61-27-100-87-100-154 0-94 78-168 168-168 35 0 65 11 94 30 139 94 116 84 233 154 64 38 109 108 167 172l245 277 292-281c55-55 90-95 146-141 31-26 56-37 90-59l181-118c31-21 62-34 101-34 z" fill="#00D26A"/>
		<path d="M1406 66c258 0 466 209 466 469 0 254-205 465-466 465-255 0-467-207-467-465 0-83 22-162 62-234l405 274 0-509 z" fill="#C3EF3C"/>
		<path d="M2181 172c47 0 82 39 82 83 0 48-39 82-83 82 9-9 14-19 14-30 0-29-36-111-71-111 16-16 35-24 58-24 z M1785 1292c16 16 24 35 24 58 0 44-35 83-82 83-48 0-83-38-83-84 9 9 20 14 33 14 34 0 108-30 108-71 z M2031 1092l-1 0c30 12 52 42 52 76 0 46-35 83-83 83-35 0-64-21-77-51 8 0 12 4 18 4 23 0 94-69 94-98 0-5-1-10-3-14 z M2180 813c46 0 83 35 83 83 0 44-35 82-82 82-22 0-41-8-58-23 32 0 31-34 38-56 8-19 28-49 28-66 0-7-3-14-9-20 z M2245 493c47 0 82 38 82 82 0 44-35 83-82 83-12 0-23-2-32-7 17-7 22-19 22-38 0-12-2-25-2-38l2-43c-1-14-7-28-23-33 10-4 21-6 33-6 z M631 172c23 0 42 8 58 24-38 0-71 84-71 111 0 12 6 22 14 30-46 0-84-34-84-82 0-46 35-83 83-83 z M567 493c11 0 22 2 32 6-17 7-22 21-22 38l0 76c0 19 5 31 22 38-9 5-20 7-32 7-47 0-82-39-82-83 0-44 35-82 82-82 z M632 813c-6 7-9 14-9 21 0 19 20 46 28 65 8 23 8 56 38 56-17 15-36 23-58 23-44 0-83-35-83-82 0-48 36-83 84-83 z M781 1092c-3 7-4 12-4 17 0 24 69 93 97 93 6 0 10-3 16-3-12 31-44 52-77 52-46 0-83-35-83-83 0-33 20-64 51-76 z M1026 1292c0 32 34 30 57 38 19 8 43 28 65 28 7 0 14-3 20-9 0 46-34 84-83 84-47 0-82-39-82-83 0-22 8-41 23-58 z M1482 1382c5 11 7 22 7 32 0 46-35 83-83 83-46 0-83-35-83-83 0-10 2-21 7-32 13 32 46 32 75 32 29 0 63-1 77-32 z" fill="#FFF478"/>
		<path d="M2122 196c47 0 82 38 82 82 0 23-8 43-24 59-47 0-82-38-82-82 0-23 8-43 24-59 z M1727 1267c23 0 42 8 58 24 0 44-35 82-82 82-22 0-42-8-59-24 0-44 35-82 83-82 z M2000 1086c11 0 21 2 31 6 4 10 6 20 6 31 0 46-35 83-83 83-11 0-21-2-31-6-4-10-6-21-6-32 0-48 37-82 83-82 z M2180 813c15 15 25 37 25 59 0 45-37 83-83 83-16-16-24-36-24-59 0-46 34-83 82-83 z M2212 499c31 12 51 43 51 76 0 33-18 64-51 76-31-12-51-43-51-76 0-33 20-64 51-76 z M690 196c16 16 24 35 24 58 0 48-38 83-82 83-14-14-25-36-25-58 0-48 39-83 83-83 z M600 499c31 12 51 43 51 76 0 33-20 64-51 76-33-12-52-43-52-76 0-34 22-64 52-76 z M632 813c47 0 82 39 82 83 0 22-8 42-24 59-47 0-82-39-82-83 0-22 8-42 24-59 z M813 1085c44 0 82 35 82 82 0 11-2 22-6 32-11 4-21 7-32 7-48 0-82-38-82-84 0-11 2-21 6-31 10-4 21-6 32-6 z M1085 1267c46 0 83 34 83 82-15 15-37 25-59 25-45 0-83-37-83-83 16-16 36-24 59-24 z M1406 1331c33 0 64 20 76 51-12 31-43 51-76 51-33 0-64-20-76-51 12-31 43-51 76-51 z" fill="#00A6ED"/>
		<path d="M1765-287c0 35-10 72-56 72l-145 0 58 287-36 36-36-36-58-287-72 0 58 287-36 36-36-36-58-287-174 0c-30 0-56-25-56-56l0-16 647 0 z" fill="#FCD53F"/>
		<path d="M1937 72c17 0 32 14 32 32 0 16-20 54-29 69l-485 274c-38 19-50 159-50 196l0 338c0 31-9 61-24 88l8 32-35 2c-41 37-80 47-138 47l-54-311 3 24c-7-43-14-86-20-129-20-133-44-271-59-399-1-12-3-23-3-35 0-128 104-228 230-228l624 0 z" fill="#00A6ED"/>
		<path d="M1300 1004c19 0 37 16 37 37 0 19-16 37-37 37-22 0-38-16-38-37 0-21 16-37 38-37 z M1162 839c3 16 5 31 5 47 0 116-162 196-162 240 0 15 11 24 24 24l187 0-54-311 z M1478 1069c9 0 18 8 18 17 0 60-70 125-126 125-9 0-17-9-17-18l0-90c11-11 20-22 28-34l97 0 z" fill="#1C1C1C"/>
		<path d="M1940 171c-26 46-61 83-104 112l-368 244c-38 26-63 68-63 116l0-293c0-99 79-179 178-179l357 0 z" fill="#0074BA"/>
	</g></svg>
