<svg version="1.1" xmlns="http://www.w3.org/2000/svg"><g transform="scale(1,-1)">
		<path d="M2273-287c37 0 67 28 67 67l0 436-503 0c86-40 144-93 144-192l0-244c0-38 31-67 68-67l224 0 z M1698-287c37 0 67 28 67 67l0 436-359 0 0-436c0-38 31-67 68-67l224 0 z" fill="#6D4534"/>
		<path d="M2344-287c37 0 67 28 67 67l0 957c0 348-281 629-628 629-63 0-115 32-148 78-65 90-158 137-265 137-111 0-199-49-264-137l-1-1c-23-28-50-44-87-44-20 0-38 5-55 15-28 16-205 124-222 124-23 0-28-18-28-37 0-70 45-123 45-126 0-6-3-9-9-9l-160 0c-13 0-25-11-25-25 0-40 47-81 81-98-63-68-102-159-102-259l0-840c0-121 99-216 216-216l36 0c57 0 108 46 108 108 0 55-31 87-74 101-28 9-70 1-70 31l0 236c0 14 12 27 27 27l99 0c120 0 233-112 233-232 0-37-10-70-30-100l-164-247c-10-15-15-32-15-50 0-49 39-89 90-89l172 0c55 0 107 28 136 79l223 390c12 22 35 34 59 34l279 0c107 0 184-93 184-192l0-244c0-38 31-67 68-67l224 0 z" fill="#A56953"/>
		<path d="M867 827c19 0 36 15 36 36l0 72c0 18-17 36-36 36-18 0-36-17-36-36l0-72c0-19 15-36 36-36 z" fill="#1C1C1C"/>
		<path d="M980 557l-142 0c-12 0-21 9-21 21l0 76c0 50 39 92 92 92 52 0 93-42 93-92l0-76c0-12-12-21-22-21 z M1188 654c19 0 31 6 45 18l189 154c80 65 128 166 128 270 0 145-129 270-278 270l-104 0c-26 0-50-23-50-50l0-593c0-40 32-69 70-69 z" fill="#6D4534"/>
		<path d="M690 266c160 0 290 130 290 291l-143 0c0-80-64-147-147-147-84 0-147 68-147 147l0 61c0 62-14 121-41 177-13 23-25 60-58 60-25 0-44-20-44-44l0-254c0-160 130-291 290-291 z" fill="#FFDEA7"/>
	</g></svg>
