<svg version="1.1" xmlns="http://www.w3.org/2000/svg"><g transform="scale(1,-1)">
		<path d="M587 935c14 0 28 13 28 28l0 141-143 0 0-141c0-15 14-28 28-28l87 0 z" fill="#D3D3D3"/>
		<path d="M1729 0c375 0 683 303 683 683 0 375-303 683-683 683l-277 0c-53 0-78 38-104 77 34 18 58 57 58 97 0 65-53 113-113 113-46 0-87-28-105-71-40 16-82 25-125 25-28 0-56-4-84-11l-513-140c-15-4-27-12-38-21l223-357 313-143c-20-45-64-72-111-72l-166 0 0-36c0-166 125-304 288-322l0-505 754 0 z" fill="#A56953"/>
		<path d="M1011 503c178 0 323 144 323 324l0 72c0 98-79 179-180 179l-85 0c-54 0-94-44-94-94 0-66-53-121-122-121l-166 0-72-72 91-72c46-133 173-216 305-216 z" fill="#7D4533"/>
		<path d="M964 935c7 16 11 32 11 49l0 65c0 24-5 47-14 68-9 21-22 39-37 55-16 15-34 28-55 37-21 9-44 13-68 13-22 0-44 0-66-1l-11 0c-18 0-35 2-51 6-19 4-37 12-52 24-16 12-29 30-40 55-7 15-13 31-19 46-6 15-12 31-19 46l-143-29 0-36c0-55 10-106 31-154 21-49 49-91 85-127 36-36 78-64 126-85 48-21 100-32 155-32l167 0 z" fill="#F3AD61"/>
		<path d="M706 719l-91 0c-38 0-72 33-72 72 0 38 33 72 72 72l72 0c0-55 1-95 19-144 z M795 1312c-19 0-36 15-36 36l0 54c0 19 15 36 36 36 19 0 36-15 36-36l0-54c0-19-15-36-36-36 z M414 1226c55 11 96 51 111 100 7 18 18 44 18 64 0 26-20 48-48 48l-64 0c-18-17-31-42-31-69l0-36c0-35 5-71 14-107 z" fill="#1C1C1C"/>
		<path d="M1796-215c220 0 401 176 401 400-82-52-178-81-279-81-59 0-118 10-177 31l-762 276c-35 13-69 20-108 20-169 0-328-135-328-317 0-182 141-329 324-329l929 0 z" fill="#533566"/>
		<path d="M1293 1487c29 0 54 21 54 53 0 30-22 54-54 54-30 0-54-22-54-54 0-32 25-53 54-53 z" fill="#6D4534"/>
	</g></svg>
