<svg version="1.1" xmlns="http://www.w3.org/2000/svg" viewBox="0 0 2300 2300"><g transform="scale(1,-1) translate(-256, -1869)">
		<path d="M712 1103l-7 0-234 22c-41 4-71 40-71 79 0 42 35 78 77 78l243-23c38-4 71-36 71-76 0-43-32-80-79-80 z M509 623c8 0 15 1 23 4l226 66c33 11 56 40 56 75 0 43-34 79-79 79-8 0-15-1-22-3l-226-67c-33-11-56-40-56-75 0-42 34-79 78-79 z M725 205c-42 0-78 34-78 79 0 23 9 43 27 59l177 154c15 13 32 19 52 19 42 0 78-34 78-78 0-23-9-43-27-59l-177-155c-15-13-32-19-52-19 z M1095-110c26 0 53 15 68 39l118 204c7 11 10 24 10 39 0 43-33 79-78 79-28 0-53-15-68-39l-118-204c-7-13-11-26-11-40 0-44 37-78 79-78 z M1649-221c-42 0-79 34-79 78l0 236c0 42 35 79 79 79 44 0 78-37 78-79l0-236c0-42-34-78-78-78 z M2204-12c44 0 78 37 78 79 0 22-8 41-23 56l-166 166c-15 15-34 23-56 23-42 0-79-34-79-78 0-22 8-41 23-56l167-167c15-15 34-23 56-23 z M2107 543c-45 0-79 37-79 79 0 36 24 65 57 75l226 66c7 2 14 3 23 3 42 0 78-33 78-78 0-35-23-65-56-76l-227-66c-7-2-15-3-22-3 z M1852 732c39 0 66 27 75 61l57 228c1 7 2 11 2 18 0 42-33 79-77 79-37 0-68-25-77-59l-57-229c-1-7-2-11-2-18 0-45 37-80 79-80 z M1330 825c-43 0-79 32-79 79 0 23 9 43 27 59l178 154c15 13 32 19 53 19 42 0 77-33 77-78 0-23-9-43-27-59l-178-155c-15-13-32-19-51-19 z M1179 1236c14 0 27 4 40 11l204 118c24 15 39 40 39 68 0 45-36 78-79 78-14 0-27-3-38-10l-205-118c-24-15-39-42-39-68 0-42 34-79 78-79 z M907 1337c42 0 79 33 79 78 0 7-1 10-2 17l-49 231c-7 36-42 62-76 62-43 0-80-34-80-79l2-16 50-231c8-34 38-62 76-62 z" fill="#00D26A"/>
		<path d="M1608-25c21 0 48 2 79 5 31 3 62 7 95 12 32 5 63 10 94 17 31 7 56 14 77 22 45 17 86 40 123 70 37 29 70 63 97 101 27 38 47 80 62 125 15 45 22 91 22 139 0 66-12 127-36 184-25 57-58 106-100 148-43 41-92 74-149 98-57 23-119 35-184 35-29 0-57-1-85-4-29-3-57-5-86-5-15 0-32 1-49 2-17 1-35 3-52 6-18 3-35 7-51 13-17 6-31 14-43 24-26 21-44 40-54 59-11 19-17 38-20 57-2 14-3 29-3 44l0 26c0 18-2 37-6 58-8 47-23 90-44 130-22 39-49 74-82 103-33 29-70 51-111 68-42 16-87 24-136 24-51 0-100-10-147-30-47-21-88-49-124-86l-1 1c-7-11-15-22-24-31-9-10-17-21-23-33-16-31-28-61-37-88-9-28-16-56-20-83-5-28-7-57-8-86-1-29-2-61-2-96 0-95 12-186 37-273 25-87 59-169 104-245 44-77 97-146 160-209 63-63 132-116 209-161 76-45 158-79 245-104 87-25 178-37 273-37 z" fill="#00F397"/>
		<path d="M1742 360c64 0 118 54 118 118 0 64-54 118-118 118-64 0-118-54-118-118 0-64 54-118 118-118 z M1515 576c-42 0-78 34-78 78 0 42 34 78 78 78 42 0 78-34 78-78 0-42-34-78-78-78 z M1419 321c42 0 79 34 79 78 0 45-36 79-79 79-44 0-78-37-78-79 0-42 34-78 78-78 z M997 1083c42 0 78 34 78 78 0 42-34 79-78 79-45 0-79-36-79-79 0-44 37-78 79-78 z" fill="#00A6ED"/>
	</g></svg>
