<svg version="1.1" xmlns="http://www.w3.org/2000/svg" viewBox="0 0 2300 2300"><g transform="scale(1,-1) translate(-256, -1869)">
		<path d="M2268 1078c19 0 36 6 51 19 73 63 93 230 93 305 0 80-14 190-60 263l-58-58c24-54 28-147 28-205 0-27-6-234-54-234-8 0-15 5-20 16-28 53-33 194-33 218 0 45 2 91 10 136l-99-99-1-18c0-90 24-343 143-343 z" fill="#321B41"/>
		<path d="M543-287c-80 0-143 62-143 143 0 74 55 139 134 144l23 23 153-23 0-130-23-23c-5-76-66-134-144-134 z M1087 247l904 904c34 34 68 106 68 159 0 41-21 62-62 62-51 0-123-32-159-68l-904-904-14-143 167-10 z" fill="#D3D3D3"/>
		<path d="M1985 1146l396 395c20 20 31 48 31 76 0 57-46 108-108 108-28 0-56-11-76-31l-395-396 152-152 z" fill="#533566"/>
		<path d="M710-130l377 377-153 153-377-377 153-153 z" fill="#CA0B4A"/>
	</g></svg>
