<svg version="1.1" xmlns="http://www.w3.org/2000/svg" viewBox="0 0 2300 2300"><g transform="scale(1,-1) translate(-256, -1869)">
		<path d="M1402-288c41 0 76 33 76 75l0 716c0 29-24 54-54 54-32 0-54-24-54-54l0-683-34 1c-13 0-24-1-35-4-22-6-39-20-39-51 0-29 24-54 54-54l86 0 z" fill="#D73B9A"/>
		<path d="M1065 108c43 0 53 36 53 72l596 0c67 0 124 53 124 122 0 28-9 53-26 74l-282 361-85-66c25-33 285-360 285-369 0-9-5-14-14-14l-606 0c-54 0-99-46-99-99 0-37 4-81 54-81 z" fill="#F837A2"/>
		<path d="M2113 503c51 0 81 37 81 89-4 38-10 75-17 110-71 319-380 592-742 592-112 0-215-41-297-123l-215-214c-11-11-23-16-38-16-30 0-54 22-54 54 0 15 5 27 16 38l358 358c37 37 57 90 57 139 0 106-86 195-195 195l-92 0-36-108 36-107 54 0-299-313c-77-79-115-178-115-283 0-226 184-411 411-411l1087 0 z" fill="#FF6DC6"/>
		<path d="M1989 618c30 0 47 23 47 50 0 23-3 47-9 72-72 287-293 440-538 440-153 0-281-124-281-281 0-159 127-281 281-281l500 0 z" fill="#FFB2FF"/>
		<path d="M713 1460c3 0 8 1 13 4l16 9 28 19c10 7 21 11 32 14 11 3 22 4 33 5l17 1 17-1c11-1 23-1 34-1l36 107-36 108-58 0c-22 0-42-4-61-12-19-9-36-20-50-34-15-14-26-30-34-49-9-19-13-40-13-62l0-83c0-7 3-13 8-18 5-5 11-7 18-7 z" fill="#636363"/>
		<path d="M1083 1581c18 0 35 17 35 36 0 19-17 36-35 36-19 0-36-15-36-36 0-18 17-36 36-36 z" fill="#1C1C1C"/>
		<path d="M975 1510l0 215-72 0 0-215 72 0 z" fill="#D3D3D3"/>
	</g></svg>
