<svg version="1.1" xmlns="http://www.w3.org/2000/svg"><g transform="scale(1,-1)">
		<path d="M1752-287l-108 0c-12 0-22 10-22 22l0 364 351-77-183-288c-9-14-21-21-38-21 z M1384-287c12 0 22 10 22 22l0 364-352-77 184-288c9-14 21-21 38-21l108 0 z" fill="#212121"/>
		<path d="M2224-287c12 0 22 4 31 13 9 9 13 19 13 31l0 157 72-13 0 459c0 41-6 82-19 121-13 39-32 76-55 110-23 33-51 63-83 90-32 27-67 48-104 64-34 15-68 26-103 32-35 6-72 10-109 13-3 1-7 1-11 1l-387 0c-39 0-72-6-99-19-27-13-51-28-70-44l-52-43c-15-13-31-20-46-20-14 0-24 3-31 9-7 5-13 13-16 22-3 9-5 18-5 29-1 11-1 21-1 31l-166 0 0 23c0 23-8 43-24 60-16 16-36 24-59 24-26 0-45-7-57-21-12-14-20-31-23-51-3-15-4-31-4-48l1-73 106 0 0-29c-20 0-39 0-56 1-18 0-35-1-51-4-17-3-32-9-47-17-15-9-29-21-43-38-19-23-38-45-57-66-19-22-38-45-55-68-5-7-7-13-7-20 0-13 5-21 14-24 9-3 19-4 29-4l0-72 167-276c9-15 14-32 14-49 0-14-4-28-11-43l-60-118-25-50-18-39c-5-11-8-17-8-19 0-7 2-12 7-16 5-4 10-6 16-6l159 0c21 0 39 8 52 23l196 231c9 10 19 18 31 24 12 5 25 8 38 8l586 0c15 0 30-4 43-11 13-7 24-18 33-31l143-224c4-7 10-12 17-15 7-3 14-5 21-5l173 0 z" fill="#636363"/>
		<path d="M2393-146c-29 0-100 43-125 59l0 456c0 232-185 419-417 422l260 0c31 0 73-12 102-25 141-61 199-195 199-344l0-551c0-11-8-17-19-17 z M1111 328c23 0 38 18 38 39 0 22-17 39-38 39l-451 0c-15 0-27 13-27 27 0 8 2 14 6 19 18 22 36 44 55 65 49 57 89 120 171 120l171 0c65 0 114 53 114 114l0 28c-1 45-35 84-83 84-40 0-78-29-83-72l-124 0c-80 0-155-41-197-106l-97-149c-59-91-166-23-166-92 0-65 53-116 116-116l595 0 z" fill="#D3D3D3"/>
		<path d="M443 401c24 0 43 18 43 43 0 23-20 43-43 43-23 0-43-20-43-43 0-24 18-43 43-43 z M867 503c19 0 36 15 36 36 0 19-15 36-36 36-19 0-36-15-36-36 0-19 15-36 36-36 z" fill="#1C1C1C"/>
	</g></svg>
