<svg version="1.1" xmlns="http://www.w3.org/2000/svg"><g transform="scale(1,-1)">
		<path d="M632-215c70 0 197 58 197 141l0 290-289 0 0-269c0-3-7-18-8-21-20-39-51-64-94-71-22-4-38-9-38-34 0-18 13-36 34-36l198 0 z" fill="#636363"/>
		<path d="M1568-215l227 95c33 14 56 21 85 33 49 22 91 61 144 98l230 166c113 188 158 407 158 622l0 270c0 35-28 66-66 66-11 0-20-2-29-7-72-37-120-105-120-193 0 84-47 156-120 193-9 5-19 7-30 7-35 0-66-28-66-66l0-166c0-116-61-226-166-287-19-11-61-24-69-29-43-27-83-56-124-84-37 35-72 72-111 107-8 8-46 27-62 40-66 55-105 126-116 213l-10 63c-37 203-229 368-460 368-259 0-463-217-463-473l0-334c0-387 313-702 703-702l51 36c21-4 182-36 189-36l225 0 z" fill="#9B9B9B"/>
		<path d="M1558-215c19 0 36 15 36 36 0 19-15 36-36 36-59 0-107 49-107 107l0 295c5-9 9-19 12-29 18-69 45-149 84-203 42-58 88-86 169-86 267 20 344 95 543 266l-3-25c-161-271-412-394-698-397 z M1379-215l-281 0c-245 0-445 202-445 449l0 113c0 118 94 219 223 219 121 0 214-106 214-223l0-270c0-161 131-288 289-288 z M975 613c71 0 125 60 125 125 0 69-54 125-124 125l-209 0c-71 0-125-60-125-125 0-71 60-125 125-125 42 0 81 21 104 56 23-36 64-56 104-56 z" fill="#D3D3D3"/>
		<path d="M872 734c21 0 48 23 67 42 20 20 31 27 31 46 0 23-18 41-40 41l-117 0c-22 0-40-18-40-41 0-13 5-23 14-30 19-16 57-58 85-58 z M1052 866c-29 0-54 21-54 53 0 30 22 54 54 54 30 0 54-25 54-54 0-30-25-53-54-53 z M692 866c29 0 53 23 53 53 0 29-21 54-53 54-30 0-54-22-54-54 0-32 25-53 54-53 z" fill="#1C1C1C"/>
		<path d="M1950 386c44 0 82 35 82 82 0 44-35 82-82 82-47 0-82-38-82-82 0-47 38-82 82-82 z M1624 406c75 0 133 61 133 134 0 17-3 33-9 48-27-8-55-13-82-13-57 0-108 10-157 35-13-21-20-45-20-70 0-75 63-134 135-134 z" fill="#636363"/>
	</g></svg>
