<svg version="1.1" xmlns="http://www.w3.org/2000/svg"><g transform="scale(1,-1)">
		<path d="M1742-287c11 0 19 6 22 17l141 630-215 0c-12-55-141-610-141-631 0-9 9-16 18-16l175 0 z M1460-287c13 0 18 9 18 21l-105 626-216 0 105-629c3-11 11-18 22-18l176 0 z" fill="#D3883E"/>
		<path d="M2318-290c6 0 11 2 16 7 4 4 6 9 6 15l0 424c0 19-3 35-10 49-7 13-16 25-27 35-11 10-22 19-34 27-13 7-24 14-35 21-11 6-19 12-26 18-7 5-11 11-11 18l0 249c6-6 13-12 22-19l23-22c7-8 14-16 19-25 5-9 7-18 7-27l0-45c0-42 10-82 29-120 19-38 47-69 82-92 5-3 9-4 12-4 6 0 11 2 15 7 4 4 6 9 6 14l0 260c0 24-4 48-13 71-9 23-21 44-37 62l-234 264-1 0c-29 35-63 62-104 81-41 19-84 29-129 29l-12 0c-4 0-8 0-12-1l-490-60c-3-1-6-1-9-1l-10 0c-23 0-42 5-58 16-17 11-31 26-42 45l1 36-34 36-89 225c-7 19-20 35-38 47-18 11-37 17-57 17l-140 0c-32 0-62-5-91-15-29-11-56-25-79-43-24-19-44-41-61-67-26-40-33-64-45-112-5-20-15-33-28-40-13-7-28-11-45-12l-14 0c-13 0-26 1-39 2l-26 2-24-2c-15-3-28-9-37-19-10-11-15-29-15-54 0-30 6-58 17-84 11-26 27-49 46-68 19-19 42-35 68-46 26-11 54-17 84-17l122 0c6 0 11-2 16-7 4-5 6-10 6-16l0-135c0-65 12-126 37-185 24-59 59-112 105-158l-94-419c-9-39-16-71-21-97-6-27-9-42-9-45 0-5 2-9 6-12 3-3 7-5 12-5l175 0c5 0 10 2 14 5 4 3 7 7 8 12l126 558 279 48c14 2 27 5 38 8l32 8 33 6c11 1 23 2 37 2 6 0 20-2 41-5l69-11 71-13c23-4 38-7 47-8 1-27 5-54 13-79 8-25 19-49 34-70 15-21 32-40 53-57 21-17 44-30 69-40l176-70c4-1 8-4 11-8 3-4 4-8 4-13l0-254c0-6 2-11 7-15 4-5 9-7 15-7l171 0 z" fill="#F3AD61"/>
		<path d="M1610 288c53 0 107 11 155 34 0 58-49 109-110 109l-457 0c-26 0-48-16-55-43l-25-100 492 0 z" fill="#FFDEA7"/>
		<path d="M490 972c32 0 53 25 53 54 0 29-23 54-53 54l-36 0c-29 0-54-24-54-54 0-30 22-54 54-54l36 0 z M795 1019c19 0 36 15 36 36l0 41c0 19-15 36-36 36-19 0-36-15-36-36l0-41c0-19 15-36 36-36 z" fill="#212121"/>
		<path d="M1083 1007c53 0 98 37 111 87 11 40 46 161 46 192 0 44-36 81-81 81l-256 0 68-273c14-54 60-87 112-87 z" fill="#D3883E"/>
		<path d="M1298 252c19 0 36 15 36 36l0 293c42 14 72 54 72 102 0 48-30 88-72 102l0 186c0 18-17 35-36 35-19 0-36-17-36-35l0-186c-30-10-55-34-66-66l-437 0c-19 0-36-15-36-36 0-19 15-36 36-36l437 0c10-30 34-55 66-66l0-293c0-19 15-36 36-36 z" fill="#6D4534"/>
		<path d="M741 647c7 0 12 1 17 4l557 289c12 7 19 19 19 32 0 18-17 36-36 36-6 0-11-1-16-4l-557-289c-13-7-20-17-20-32 0-22 17-36 36-36 z" fill="#00A6ED"/>
		<path d="M1298 641c11 0 21 4 28 13l547 697c8 10 12 21 12 33 0 29-22 54-54 54l-277 0c-29 0-52-12-70-35l-256-325c11-25 18-50 33-73l279 354c4 5 9 8 14 8l240 0-524-668c-5-5-7-13-7-22 0-21 16-36 35-36 z" fill="#9B9B9B"/>
	</g></svg>
