<svg version="1.1" xmlns="http://www.w3.org/2000/svg" viewBox="0 0 2300 2300"><g transform="scale(1,-1) translate(-256, -1869)">
		<path d="M1714 647c128 0 231 103 231 231 0 35-7 70-23 101-3 6-5 9-5 17 0 7 1 11 4 16 15 33 23 66 23 102 0 47-13 89-39 131-25 40-38 81-38 128 0 132-109 237-237 237-15 0-23 6-32 16-53 66-111 99-193 99-83 0-137-35-192-99-8-9-19-16-32-16-130 0-237-105-237-237 0-47-13-88-38-128-26-40-39-81-39-130 0-36 9-69 23-103 3-5 4-9 4-16 0-5-1-10-4-17-14-33-23-64-23-101 0-128 103-231 231-231l616 0 z" fill="#FFF9BA"/>
		<path d="M2412-287c0 267-62 541-196 794-27 51-56 101-91 146l-1438 0c-17-22-33-45-48-70-166-276-239-581-239-870l215 0c5 0 743 201 791 215 51-15 786-215 791-215l215 0 z" fill="#533566"/>
		<path d="M1926-288l0 852c-79 74-180 90-287 90-79 0-153-7-233-7-79 0-151 7-230 7-109 0-206-16-290-92l0-850 1040 0 z" fill="#6B438B"/>
		<path d="M1407 319c15 0 26 6 33 17l253 382-575 0 256-381c7-12 18-18 33-18 z" fill="#C3EF3C"/>
		<path d="M2196-287l1 148c0 269-77 533-288 714l0-862 287 0 z M903-287l0 862c-212-187-288-452-288-711l0-151 288 0 z M1406 521c91 0 144 74 144 156l0 114-288 0 0-114c0-85 54-156 144-156 z" fill="#8D65C5"/>
		<path d="M1840 324c-25 0-49 4-70 13-134 54-220 186-220 330l0 52 573 0c22 0 38-14 38-37 0-6-1-11-4-16l-148-245c-34-57-94-97-169-97 z M972 324c25 0 49 4 70 13 134 54 220 186 220 330l0 52-575 0c-21 0-36-12-36-35 0-7 1-13 4-18l147-245c35-59 98-97 170-97 z" fill="#F92F60"/>
		<path d="M1415 18c64 0 117 53 117 117 0 64-53 117-117 117-64 0-117-53-117-117 0-63 50-117 117-117 z" fill="#F92F60"/>
		<path d="M1457 125c22 0 35 16 35 37 0 26-21 54-50 54-23 0-36-17-36-38 0-26 22-53 51-53 z" fill="#F7A7B8"/>
		<path d="M1837 647c0 19-15 36-36 36-19 0-36-15-36-36l72 0 z M1981 647c0 19-15 36-36 36-19 0-36-15-36-36l72 0 z M2053 719c0 19-15 36-36 36-19 0-36-15-36-36l72 0 z M1909 719c0 19-15 36-36 36-19 0-36-15-36-36l72 0 z M903 647c0 19-15 36-36 36-19 0-36-15-36-36l72 0 z M1047 647c0 19-15 36-36 36-19 0-36-15-36-36l72 0 z M975 719c0 19-15 36-36 36-19 0-36-15-36-36l72 0 z M831 719c0 19-15 36-36 36-19 0-36-15-36-36l72 0 z" fill="#8D65C5"/>
		<path d="M1756 988c64 0 117 53 117 117 0 63-50 117-117 117-64 0-116-52-116-117 0-64 51-117 116-117 z M1056 988c64 0 116 53 116 117 0 66-52 117-116 117-63 0-117-50-117-117 0-64 53-117 117-117 z" fill="#E4B29A"/>
		<path d="M1406 665c197 0 342 145 350 340 3 72 9 146 9 218 0 48-24 104-80 104l-227 0c-96 0-162 41-224 120-5 6-10 9-16 9-15 0-18-15-23-26-47-111-148-71-148-196 0-76 6-153 9-229 8-188 146-340 350-340 z" fill="#EEBFAA"/>
		<path d="M1432 967c21 0 37 16 37 38 0 18-15 63-28 103-12 35-12 49-35 49-12 0-23-8-26-20-8-29-37-107-37-132 0-22 16-38 37-38l52 0 z" fill="#D19479"/>
		<path d="M1448 827c41 0 102 34 102 81 0 6-3 9-9 9-3 0-3-2-6-3-47-42-71-58-138-58-4 0-9-3-9-8 0-14 50-21 60-21 z" fill="#990839"/>
		<path d="M1617 918c40 0 61 46 78 73l246 369c3 5 5 10 5 15 0 15-12 27-26 27-12 0-355-103-390-115-34-10-54-20-75-51-10-16-28-29-49-29-44 0-43 56-122 80-36 8-381 115-390 115-15 0-27-13-27-27 0-5 2-10 5-15l246-369c18-29 40-73 78-73 17 0 31 6 42 19 21 23 73 82 110 129 32 41 34 69 58 69 18 0 29-21 36-36 10-22 61-82 104-128 37-42 44-53 71-53 z" fill="#533566"/>
		<path d="M1567 1108c-21 0-68 18-68 45 0 8 3 13 10 15l120 36c16 0 16-6 16-19 0-44-36-77-78-77 z M1238 1108c21 0 69 19 69 45 0 7-4 12-11 15l-119 36c-14 0-17-5-17-18 0-42 34-78 78-78 z" fill="#C3EF3C"/>
	</g></svg>
