<svg version="1.1" xmlns="http://www.w3.org/2000/svg" viewBox="0 0 2300 2300"><g transform="scale(1,-1) translate(-256, -1869)">
		<path d="M2304 719c19 0 36 15 36 36l0 287c0 19-15 36-36 36l-110 0 0-359 110 0 z" fill="#E1D8EC"/>
		<path d="M1175-287c67 0 126 12 176 37 50 25 94 57 133 97 39 39 73 84 104 135 30 50 59 101 88 152l168 301 65 32c32 36 61 77 86 122 25 45 47 93 64 142 17 49 31 100 40 151 9 51 14 100 14 147 0 65-8 130-24 193-17 69-46 131-86 186-41 55-88 103-143 143-55 40-116 72-181 95-66 23-133 38-201 43l-17-34-43 1c-79 0-153-11-225-35-85-29-160-71-224-126-65-55-116-123-153-202-38-80-57-169-57-266l0-837c0-39 4-78 13-117 9-39 21-77 38-112 17-35 37-68 62-98 24-30 51-56 82-78 31-23 65-40 102-53 37-13 76-19 119-19 z" fill="#FFD7C2"/>
		<path d="M1238-77c155 0 286 112 286 278 0 59-19 107-88 107-17 0-32-7-44-21-61-69-104-260-258-260-18 0-33 4-33 21l0 709c60-40 517-343 539-343 11 0 16 5 16 15 0 9-4 14-11 21-30 31-61 60-93 89-151 134-303 277-451 415l-1 166c0 15 13 40 21 52 60 90 204 138 305 138 164 0 304-185 304-346 0-42 29-69 70-69 39 0 69 27 69 69 0 25-3 52-10 80-51 214-202 404-410 404-195 0-395-110-419-324l-1-10 0-1066c0-97 132-125 209-125 z" fill="#F1B99B"/>
		<path d="M1102 214c26 1 49 6 69 16 20 9 37 22 51 39 13 17 23 36 30 58 7 22 10 45 10 70 0 23-4 43-13 62-9 19-20 35-35 50-15 15-31 27-50 37-19 9-39 16-60 21-9 35-23 62-43 80-21 17-44 32-69 43-25 11-52 21-79 31-27 10-52 25-75 45-23 19-41 47-56 82-15 35-22 82-22 143 0 71 11 141 32 211 21 69 53 133 94 190 33 47 71 86 113 119 41 33 86 59 134 80 48 21 98 36 151 46 53 9 107 14 163 14l0 72c-62 0-122-5-180-16-59-11-114-29-167-52-53-23-102-53-148-89-46-37-87-81-124-132-46-63-81-133-104-209-24-77-36-154-36-232 0-32 2-63 7-93 4-31 12-60 23-87 11-27 27-52 46-75 19-23 44-43 73-60l19-9c9-5 20-10 31-15 11-5 21-10 30-13 7-3 12-5 15-5l54-21c17-8 30-21 39-40-5-14-10-28-14-43-4-15-6-31-6-46 0-5 1-11 2-17 1-7 2-13 5-18 2-6 5-11 10-15 4-4 9-6 16-6 11 0 21 2 32 6 11 3 21 6 32 7l0-229 z" fill="#E1D8EC"/>
		<path d="M2053 434c19 0 48 8 64 15 82 32 153 101 153 196l0 238c0 94-31 197-63 277-126 312-388 563-761 563l0-72c122 0 246-38 353-110 183-125 270-301 281-531 0-189-137-421-238-576l211 0 z" fill="#00A6ED"/>
	</g></svg>
