<svg version="1.1" xmlns="http://www.w3.org/2000/svg" viewBox="0 0 2300 2300"><g transform="scale(1,-1) translate(-256, -1869)">
		<path d="M1714 647c128 0 230 103 230 231 0 37-8 66-23 101-2 5-3 10-3 16 0 7 1 10 4 17 14 34 23 67 23 103 0 47-13 90-39 130-27 41-39 81-39 128 0 131-107 237-236 237-15 0-24 6-33 17-52 64-111 98-192 98-81 0-143-35-192-98-9-11-18-18-33-18-130 0-237-104-237-236 0-47-10-85-38-128-25-39-39-83-39-130 0-19 2-36 6-52 6-24 21-52 21-68 0-4-1-9-4-16-14-33-23-64-23-101 0-128 103-231 231-231l616 0 z" fill="#000000"/>
		<path d="M1757 988c67 0 120 54 120 120 0 68-57 120-120 120-68 0-120-57-120-120 0-68 57-120 120-120 z M1054 988c68 0 120 57 120 120 0 68-57 120-120 120-68 0-120-57-120-120 0-67 54-120 120-120 z" fill="#452829"/>
		<path d="M2412-287c-3 79-12 159-26 239-14 79-35 156-64 230-29 73-67 143-112 208-45 65-101 123-166 173-31 23-64 45-99 64-35 19-71 34-108 46l0 5c0 11-3 20-11 28-9 9-20 13-33 13l-739 0c-11 0-20-3-28-10-9-7-14-15-15-26-16-4-32-9-49-16-17-7-34-15-51-24l-50-27c-16-10-31-19-44-28-72-50-134-108-185-173-51-66-93-137-126-212-33-76-58-155-75-238-17-83-27-167-31-252l143 0 863 215 862-215 144 0 z" fill="#F8312F"/>
		<path d="M1981-287l108 395-108 406c-49 49-103 91-163 128 0 0-383-230-412-246-43 28-383 242-390 260-67-39-129-86-185-142l-108-406 108-395 1150 0 z" fill="#007ACF"/>
		<path d="M1406-226c25 0 47 14 60 33l192 298c8 12 12 25 12 39 0 39-31 72-72 72l-384 0c-39 0-72-31-72-72 0-15 5-27 12-39l191-298c13-20 37-33 61-33 z M2268-287l0 72c0 263-99 539-287 729l0-801 287 0 z M831-287l0 801c-185-187-288-457-288-729l0-72 288 0 z" fill="#0092E7"/>
		<path d="M1404 365c38 0 72 31 72 71 0 39-34 72-72 72-39 0-72-31-72-72 0-40 34-71 72-71 z" fill="#573739"/>
		<path d="M1406 539c83 0 144 76 144 155l0 193c0 82-62 155-144 155-85 0-144-75-144-155l0-193c0-78 58-155 144-155 z" fill="#452829"/>
		<path d="M2268-287l0 72c0 263-99 539-287 729l0-801 287 0 z M831-287l0 801c-185-187-288-457-288-729l0-72 288 0 z" fill="#0092E7"/>
		<path d="M1406 685c145 0 264 77 321 202 26 58 30 98 32 168l-66 95 74 94c0 49-30 96-80 96l-228 0c-96 0-164 42-226 119-4 5-9 8-15 8-17 0-18-15-23-26-43-105-150-69-150-195l73-96-65-94 1-35c8-195 156-336 352-336 z" fill="#573739"/>
		<path d="M1406 823c25 0 48 7 71 20 23 13 55 45 55 57 0 9-4 13-12 13l-6-2c-42-15-65-27-108-27-38 0-74 9-108 27l-6 2c-6 0-12-5-12-12 0-2 1-4 2-7 24-42 75-71 124-71 z" fill="#990839"/>
		<path d="M1598 1017c53 0 92 37 137 37l24 0 8 191c-83 0-96 49-169 49-72 0-102-47-150-47l-87 0c-52 0-79 47-148 47-35 0-63-12-94-29l-2-3c-12-8-23-12-34-13-11-1-24-2-38-2l8-192 30 0c10-1 20-3 29-8 32-17 64-29 101-29 59 0 100 37 140 37l103 0c40 0 84-38 142-38 z" fill="#F8312F"/>
		<path d="M1433 953c22 0 37 20 37 39 0 18-16 71-28 107-12 32-12 51-35 51-14 0-23-9-26-21-8-29-38-113-38-136 0-19 15-40 37-40l53 0 z" fill="#3D2123"/>
		<path d="M1644 1105c-49 16-95 28-144 44 21 31 54 59 94 59 26 0 94-15 94-50 0-21-30-39-44-53 z M1168 1105c47 17 97 29 145 44-21 29-53 59-94 59-27 0-94-13-94-49 0-23 28-41 43-54 z" fill="#000000"/>
		<path d="M1659 1100c10 0 20 10 20 21 0 42-57 79-98 79-45 0-98-39-98-86 0-7 9-14 16-14l160 0 z M1313 1100c7 0 17 6 17 14 0 49-57 86-99 86-40 0-98-35-98-80 0-10 10-20 20-20l160 0 z" fill="#FFFFFF"/>
		<path d="M1628 1100l-123 0c-1 3-2 6-2 9l0 8c0 35 26 64 63 64 35 0 64-30 64-64 0-7-1-10-2-17 z M1307 1100c2 5 3 10 3 17 0 35-30 64-64 64-35 0-64-30-64-64 0-7 1-10 2-17l123 0 z" fill="#7D4533"/>
		<path d="M1599 1100l-64 0c-3 5-5 11-5 17 0 21 15 37 37 37 22 0 36-18 36-37 0-7-1-12-4-17 z M1277 1100c3 5 5 11 5 17 0 21-15 37-37 37-22 0-36-18-36-37 0-7 1-12 4-17l64 0 z" fill="#000000"/>
		<path d="M1547 1137c7 0 11 5 11 12 0 7-4 11-11 11-7 0-12-4-12-11 0-8 4-12 12-12 z M1223 1137c8 0 12 4 12 12 0 7-5 11-12 11-7 0-11-4-11-11 0-7 4-12 11-12 z" fill="#FFFFFF"/>
	</g></svg>
