<svg version="1.1" xmlns="http://www.w3.org/2000/svg" viewBox="0 0 2300 2300"><g transform="scale(1,-1) translate(-256, -1869)">
		<path d="M1716-221c49 0 91 17 129 51 153 137 246 338 259 543 4 63 2 134 26 173 19 30 61 50 97 74 155 104 258 296 258 497 0 325-262 608-609 608-129 0-235-37-349-111-37-24-76-38-121-38-44 0-83 14-120 38-112 74-222 111-350 111-336 0-608-274-608-608 0-201 97-384 258-497 5-5 51-34 54-34 36-20 57-56 60-97l7-116c14-208 111-409 261-544 37-33 80-50 128-50 97 0 178 76 188 171l33 346c3 30 20 73 39 96 8 11 30 39 49 39 19 0 43-29 50-39 19-23 37-66 40-96l33-345c11-99 89-172 188-172 z" fill="#9B9B9B"/>
		<path d="M1718-149c29 0 55 12 78 31 103 89 178 219 215 359 23 90 23 164 29 252 5 67 39 120 98 156 164 100 275 255 275 467 0 286-228 538-536 538-117 0-216-35-309-98-52-34-104-52-162-52-58 0-110 18-162 52-93 63-192 97-307 97-286 0-537-227-537-535 0-213 111-370 275-469 29-17 52-39 69-65 35-57 30-132 35-206 8-136 58-279 142-393 44-61 106-134 175-134 58 0 112 46 117 107l33 345c8 72 68 200 159 200 86 0 153-121 161-200l33-345c7-61 55-107 119-107 z" fill="#F4F4F4"/>
		<path d="M1405 1027c19 0 36 15 36 36 0 66 39 133 74 182 105 146 320 230 482 253-83 20-172 36-261 36l-41-1c-104-8-187-156-294-156-90 0-208 109-285 146-27 14-61 15-91 15-87 0-176-18-257-40 73-12 166-29 250-58 169-59 215-180 395-180l26 1c-36-56-70-127-70-198 0-18 17-36 36-36 z" fill="#D3D3D3"/>
	</g></svg>
