<svg version="1.1" xmlns="http://www.w3.org/2000/svg" viewBox="0 0 2300 2300"><g transform="scale(1,-1) translate(-256, -1869)">
		<path d="M2050-286c43 0 70 29 70 71 0 40-30 65-65 70-68 10-112 23-173 57-43 23-109 65-109 124 0 9 1 17 4 25 59 220 124 436 199 651 16 47 28 95 28 146 0 31-5 61-14 88-22 59-78 100-131 145-292 255-374 332-643 561-61 53-146 73-218 73-59 0-111-13-157-39-95-55-155-175-155-284 0-104 58-211 147-265 214-131 428-232 683-366 22-11 48-23 67-39 9-8 17-15 17-28 0-24-44-75-54-96-47-70-66-160-66-258 0-131 47-254 47-384 0-53-33-100-33-150 0-77 56-102 126-102l430 0 z" fill="#FFD7C2"/>
		<path d="M1658-286c-40 11-101 44-101 93 0 51 64 52 83 94-26 6-52 25-52 55 0 32 29 56 29 113 0 103-38 205-38 309 0 162 164 243 164 356 0 58-48 119-101 147-199 105-398 208-586 332-126 82-227 205-227 357 0 40 6 80 24 115-21-11-39-13-62-35-82-78-105-182-105-248 0-104 58-211 147-265 167-100 340-188 513-277 36-20 214-105 237-128 9-8 17-15 17-28 0-19-18-42-29-57-66-96-91-175-91-298 0-130 47-253 47-383 0-53-33-100-33-150 0-102 90-102 164-102 z" fill="#F1B99B"/>
	</g></svg>
