<svg version="1.1" xmlns="http://www.w3.org/2000/svg"><g transform="scale(1,-1)">
		<path d="M1403-215c86 0 171 22 248 68l622 375c81 50 135 144 135 247 0 49-10 94-31 137-66 136-198 214-346 214-195-5-403-8-598-8-214 0-442 3-657 8l-7 0c-186 0-369-151-369-352 0-94 48-195 134-246l622-375c73-44 158-68 247-68 z" fill="#D3883E"/>
		<path d="M1403 70c49 0 95 12 137 37l686 407c46 27 76 76 76 132 0 58-30 105-76 132l-686 407c-42 25-88 37-137 37-49 0-94-12-136-37l-686-407c-46-27-76-76-76-132 0-58 30-105 76-132l686-407c42-25 87-37 136-37 z" fill="#F3C07B"/>
		<path d="M1944 561c11 0 23 3 34 10l105 62c15 9 22 22 22 39 0 17-7 30-22 39l-105 62c-11 7-23 11-35 11-11 0-23-3-34-10l-105-62c-15-9-22-22-22-39 0-14 7-31 22-39l105-63c11-7 23-10 35-10 z M1673 395c-11 0-22 3-34 10l-105 62c-15 9-23 22-23 39 0 17 8 30 23 39l105 62c12 7 23 10 34 10 11 0 23-3 35-10l105-62c15-8 22-25 22-39 0-17-7-30-22-39l-105-62c-12-7-24-10-35-10 z M1403 228c-11 0-22 3-34 10l-105 62c-15 9-23 22-23 39 0 17 8 30 23 39l105 62c12 7 23 10 34 10 11 0 23-3 35-10l105-62c15-8 22-25 22-39 0-17-7-30-22-39l-105-62c-12-7-24-10-35-10 z M1134 384c-11 0-23 3-35 10l-105 62c-15 8-22 25-22 39 0 17 7 30 22 39l105 62c12 7 23 10 34 10 11 0 23-3 35-10l105-62c15-8 22-25 22-39 0-17-7-30-22-39l-105-62c-11-7-23-10-34-10 z M863 540c11 0 23 3 35 10l105 62c15 9 22 22 22 39 0 14-7 31-22 39l-105 62c-12 7-24 10-35 10-11 0-22-3-34-10l-105-62c-15-9-23-22-23-39 0-17 8-30 23-39l105-62c12-7 23-10 34-10 z M1403 551c11 0 23 3 35 10l105 62c15 9 22 22 22 39 0 14-7 31-22 39l-105 62c-12 7-24 10-35 10-11 0-22-3-34-10l-105-62c-15-9-23-22-23-39 0-17 8-30 23-39l105-62c12-7 23-10 34-10 z M1134 707c-11 0-23 3-35 10l-105 62c-15 8-22 25-22 39 0 17 7 30 22 39l105 62c12 7 23 10 34 10 11 0 23-3 35-10l105-62c15-8 22-25 22-39 0-17-7-30-22-39l-105-62c-11-7-23-10-34-10 z M1673 718c-11 0-22 3-34 10l-105 62c-15 9-23 22-23 39 0 17 8 30 23 39l105 62c12 7 23 10 34 10 11 0 23-3 35-10l105-62c15-8 22-25 22-39 0-17-7-30-22-39l-105-62c-12-7-24-10-35-10 z M1403 874c11 0 23 3 35 10l105 62c15 9 22 22 22 39 0 14-7 31-22 39l-105 62c-12 7-24 10-35 10-11 0-22-3-34-10l-105-62c-15-9-23-22-23-39 0-17 8-30 23-39l105-62c12-7 23-10 34-10 z" fill="#B97028"/>
		<path d="M1403 397c25 0 47 6 67 18l220 130c26 14 42 42 42 73l0 147-231 0c-36 22-57 37-98 37-40 0-62-15-98-37l-230 0 0-147c0-31 16-59 42-73l220-130c20-12 42-18 66-18 z" fill="#F9C23C"/>
		<path d="M1403 538c25 0 47 6 67 18l220 130c26 14 42 42 42 73 0 30-15 58-42 74l-220 131c-21 13-44 19-67 19-23 0-45-6-66-19l-220-131c-27-16-42-44-42-74 0-31 16-59 42-73l220-130c20-12 42-18 66-18 z" fill="#FCD53F"/>
	</g></svg>
