<svg version="1.1" xmlns="http://www.w3.org/2000/svg" viewBox="0 0 2300 2300"><g transform="scale(1,-1) translate(-256, -1869)">
		<path d="M1514 1260c56 0 100 44 100 100 0 21-12 40-12 51 0 15 11 32 11 51 0 41-34 73-34 111 0 56-45 102-102 102-5 0-9 2-14 7-25 29-46 43-83 43-36 0-60-15-83-42-4-5-9-7-14-7-56 0-102-45-102-102 0-44-33-67-33-112 0-19 11-36 11-52 0-15-11-31-11-50 0-56 44-100 100-100l266 0 z" fill="#000000"/>
		<path d="M1619 442c18 0 48 39 48 54 0 14-10 24-23 24-19 0-49-39-49-54 0-15 11-24 24-24 z M1131 442c14 0 24 10 24 23 0 16-30 55-49 55-13 0-23-10-23-24 0-16 30-54 48-54 z" fill="#341A1C"/>
		<path d="M1638 406c-15 0-23 7-23 22 0 26 14 51 14 77 0 11-3 23-15 23-21 0-9-51-41-51-7 0-19 2-19 12 0 11 1 23 2 34 7 62 12 116 12 182 0 80-17 285-90 347 5 57 9 114 13 171 24-14 46-23 69-35 124-66 143-280 143-429 0-52-2-353-65-353 z M1112 406c15 0 23 7 23 22 0 28-14 50-14 77 0 11 3 23 15 23 21 0 9-51 41-51 7 0 19 2 19 12 0 11-1 23-2 34-9 58-12 122-12 178 0 85 17 292 91 351-4 57-9 114-14 171-24-14-46-23-69-35-126-67-143-291-143-431 0-51 2-351 65-351 z" fill="#573739"/>
		<path d="M1339-289l-218 0-2 16c0 39 76 54 76 96l73 25 71-25 0-112 z M1627-289l2 16c0 38-78 60-78 92l2 4-73 27-67-27 0-112 214 0 z" fill="#321B41"/>
		<path d="M1553-177l38 897-210 60-220-61 34-896 145 0 19 746c0 11 5 20 16 20 11 0 17-9 17-20l21-746 140 0 z" fill="#9B9B9B"/>
		<path d="M1591 719l0 241 97 0c0 164-153 304-312 304-157 0-315-143-315-304l100 0 0-241 430 0 z" fill="#8B62BF"/>
		<path d="M1375 1193c35 0 65 28 65 65l0 43-130 0 0-43c0-35 28-65 65-65 z" fill="#452829"/>
		<path d="M1517 1409c29 0 52 22 52 52 0 30-25 51-52 51-27 0-51-22-51-51 0-27 21-52 51-52 z M1242 1409c29 0 52 22 52 52 0 30-25 51-52 51-27 0-52-21-52-51 0-29 22-52 52-52 z" fill="#452829"/>
		<path d="M1380 1277c82 0 147 58 152 145 1 32 4 66 4 98 0 19-12 39-34 39l-99 0c-65 0-100 55-105 55-8 0-11-17-26-34-7-8-15-8-23-16-14-6-25-25-25-42 0-33 3-67 4-100 3-86 71-145 152-145 z" fill="#573739"/>
		<path d="M1483 1458c-21 7-43 11-62 19 9 13 23 25 40 25 11 0 41-4 41-21 0-9-12-16-19-23 z M1279 1458c21 7 43 11 62 19-11 13-24 25-41 25-14 0-41-5-41-21 0-11 13-16 20-23 z" fill="#000000"/>
		<path d="M1490 1456l-69 0c-5 0-7 2-7 7 0 22 22 37 42 37 19 0 42-14 42-36 0-5-3-8-8-8 z M1341 1456c4 0 7 5 7 9 0 19-25 35-43 35-19 0-41-16-41-35 0-6 3-9 8-9l69 0 z" fill="#FFFFFF"/>
		<path d="M1476 1456l-53 0-1 8c0 14 13 27 28 27 14 0 27-12 27-27l0-5-1-3 z M1338 1456l1 8c0 14-12 27-27 27-15 0-28-13-28-27l1-8 53 0 z" fill="#7D4533"/>
		<path d="M1463 1456l-27 0c-1 3-2 5-2 8 0 9 8 15 16 15 8 0 16-7 16-15 0-3-1-6-3-8 z M1326 1456c1 3 2 5 2 8 0 8-8 15-16 15-8 0-16-6-16-15l2-8 28 0 z" fill="#000000"/>
		<path d="M1440 1469c1 0 3 2 5 5 0 3-2 5-5 5-3-2-5-4-5-5l5-5 z M1302 1469c1 0 3 2 5 5 0 3-2 5-5 5-3-2-5-4-5-5l5-5 z" fill="#FFFFFF"/>
		<path d="M1381 1346c13 0 51 14 51 30 0 3-2 5-5 5-7 0-29-11-47-11-18 0-38 11-46 11-3 0-5-2-5-5 0-16 37-30 52-30 z" fill="#990839"/>
		<path d="M1392 1399c9 0 16 8 16 17 0 5-13 46-16 54-3 6-7 9-12 9-5 0-8-3-11-9-3-11-17-46-17-55 0-9 8-16 17-16l23 0 z" fill="#3D2123"/>
		<path d="M1487 1515c7 0 7 2 8 9-3 13-36 21-50 21-7 0-12-1-15-2-3-1-4-3-4-9 0-3 1-4 6-7l15 1c16 0 25-8 40-13 z M1271 1515c10 3 18 7 25 10 4 2 9 3 15 3l11-1c7 2 5 0 9 7l0 6c-1 0-1 0-1 1l-8 4-10 0c-17 0-33-5-47-15l-2-4 0-5 3-5 5-1 z" fill="#000000"/>
	</g></svg>
