<svg version="1.1" xmlns="http://www.w3.org/2000/svg" viewBox="0 0 2300 2300"><g transform="scale(1,-1) translate(-256, -1869)">
		<path d="M2412 503l0 1222-806 0c0-85-19-156-63-225l0-1c-42-63-65-137-65-217 0-62 14-111 39-171 4-9 6-18 6-27 0-9-2-18-6-27-25-57-39-108-39-169 0-213 170-385 385-385l549 0 z" fill="#000000"/>
		<path d="M2412-287l0 946c-581 0-1089-388-1249-946l1249 0 z" fill="#8B62BF"/>
		<path d="M2412 288l0 718c-120 0-215-101-215-221l0-276c0-120 95-221 215-221 z" fill="#F9C136"/>
		<path d="M1819 1078c109 0 198 88 198 198 0 109-88 198-198 198-109 0-197-88-197-198 0-109 87-198 197-198 z" fill="#452829"/>
		<path d="M2410 539l0 254-48 44 48 51 0 120-22 61-15 44-9 23 5 19 8 36 30 123 3 14 0 397-556 0c-30-15-53-37-69-67-15-28-22-57-22-88l17-429c1-41 6-81 14-120 7-39 19-77 35-115 23-55 52-104 89-149 37-45 78-84 125-116 46-33 97-58 152-75 79-26 128-27 215-27 z" fill="#573739"/>
		<path d="M1281 693c33 0 56 27 56 58 0 14-5 27-15 38-109 126-149 218-167 371-4 29-23 52-55 52-30 0-57-22-57-55 0-144 87-339 197-446 12-11 25-18 41-18 z M1430 849c30 0 56 25 56 56 0 14-5 27-15 39-47 53-73 101-88 156-12 42-10 113-68 113-30 0-57-22-57-55 0-68 33-156 83-230 26-41 53-79 89-79 z" fill="#9B9B9B"/>
		<path d="M1982 1303c79 27 158 49 238 72-29 50-94 99-156 99-41 0-155-24-155-80 0-40 45-68 73-91 z" fill="#000000"/>
		<path d="M2263 1294c19 0 28 16 28 33 0 30-36 78-59 98-30 24-69 38-107 38-41 0-75-12-103-35-32-27-62-81-62-102 0-19 17-32 34-32l269 0 z" fill="#FFFFFF"/>
		<path d="M2250 1294c3 8 4 18 4 29 0 55-45 108-104 108-69 0-109-56-109-123l1-14 208 0 z" fill="#7D4533"/>
		<path d="M2204 1294c4 8 8 20 8 29 0 33-28 62-62 62-33 0-62-28-62-62 0-9 2-18 7-29l109 0 z" fill="#000000"/>
		<path d="M2113 1346c11 0 20 9 20 19 0 10-10 20-20 20-10 0-19-9-19-20 0-13 6-19 19-19 z" fill="#FFFFFF"/>
		<path d="M2412 1006l0 324c-19-3-35-16-40-33l-65-206c-2-6-3-12-3-19 0-37 31-66 67-66l41 0 z" fill="#3D2123"/>
		<path d="M2403 791l9 1 0 98-9-1c-41 0-96 6-148 29-11 4-20 11-31 15l-3 1c-19 0-24-8-24-22 0-3 1-5 2-8 39-78 136-113 204-113 z" fill="#290118"/>
		<path d="M1682 340c42 0 78 23 97 62l153 325c7 16 11 32 11 47 0 59-48 107-108 107-40 0-79-22-98-62l-153-325c-7-13-10-29-10-46 0-59 47-108 108-108 z" fill="#452829"/>
		<path d="M1586-72c29 58 75 134 139 158 83 32 146 54 184 140 16 35 65 128 65 165 0 51-42 93-94 93-20 0-37-7-54-16-13 87-95 151-183 151-11 0-21-1-32-3-19 8-40 12-61 12-46 0-87-18-122-41l-11 1c-112 0-168-77-191-157l-108-359 258-72 5 14 205-86 z" fill="#573739"/>
		<path d="M1538-193c15 0 25 7 32 21 10 21 48 93 48 115 0 15-7 26-22 33-48 20-416 192-442 192-15 0-25-7-32-21-10-21-48-93-48-114 0-15 7-26 22-33 47-19 417-193 442-193 z" fill="#774AA6"/>
		<path d="M1612-287c7 15 10 30 10 45 0 44-27 86-67 105l-446 199c-15 7-30 10-44 10-44 0-86-25-105-68l-126-291 778 0 z" fill="#A17FD5"/>
		<path d="M1963 1545c6 0 12 1 17 4 48 23 93 34 142 34 18 0 32-3 50-3 19 0 35 16 35 34 0 31-32 39-60 39l-26 0c-39 0-194-19-194-73 0-19 15-35 36-35 z" fill="#000000"/>
		<path d="M1587 195c25 0 47 7 68 20 8-3 19-4 27-4 12 0 24 2 36 6 89 27 120 104 120 194 0 144-96 210-236 210-11 0-23-6-23-18 0-8 4-14 11-17 75-40 107-100 107-189 0-68-22-166-111-166-25 0-46 10-64 29-7 7-9 14-14 21 28 35 37 89 37 129 0 53-16 113-58 150-15 12-44 27-55 27-11 0-19-6-19-17 0-8 6-15 13-18 63-24 83-76 83-140 0-26-4-61-18-86 0-2 0-3-1-3-11-36-55-59-89-59-24 0-46 12-63 29l-1 0c-10 10-15 21-15 34 0 33 36 76 36 97 0 11-9 18-18 18-16 0-29-30-37-55-12-37-17-38-17-59 0-58 62-99 115-99 28 0 57 8 80 26 18-37 68-60 106-60 z M1693 248c28 36 41 102 41 150 0 65-19 134-72 182 92-16 141-73 141-168 0-75-27-153-110-164 z" fill="#341A1C"/>
	</g></svg>
