<svg version="1.1" xmlns="http://www.w3.org/2000/svg" viewBox="0 0 2300 2300"><g transform="scale(1,-1) translate(-256, -1869)">
		<path d="M1619 442c18 0 48 39 48 54 0 14-10 24-23 24-19 0-49-39-49-54 0-15 11-24 24-24 z M1131 442c14 0 24 10 24 23 0 16-30 55-49 55-13 0-23-10-23-24 0-16 30-54 48-54 z" fill="#341A1C"/>
		<path d="M1638 406c-15 0-23 7-23 22 0 26 14 51 14 77 0 11-3 23-15 23-21 0-9-51-41-51-7 0-19 2-19 12 0 11 1 23 2 34 7 62 12 116 12 182 0 80-17 285-90 347 5 57 9 114 13 171 24-14 46-23 69-35 124-66 143-280 143-429 0-52-2-353-65-353 z M1112 406c15 0 23 7 23 22 0 28-14 50-14 77 0 11 3 23 15 23 21 0 9-51 41-51 7 0 19 2 19 12 0 11-1 23-2 34-9 58-12 122-12 178 0 85 17 292 91 351-4 57-9 114-14 171-24-14-46-23-69-35-126-67-143-291-143-431 0-51 2-351 65-351 z" fill="#573739"/>
		<path d="M1339-289l-218 0-2 16c0 39 76 54 76 96l73 25 71-25 0-112 z M1627-289l2 16c0 38-78 60-78 92l2 4-73 27-67-27 0-112 214 0 z" fill="#533566"/>
		<path d="M1553-177l38 897-210 60-220-61 34-896 145 0 19 746c0 11 5 20 16 20 11 0 17-9 17-20l21-746 140 0 z" fill="#9B9B9B"/>
		<path d="M1591 719l0 241 97 0c0 164-153 304-312 304-157 0-315-143-315-304l100 0 0-241 430 0 z" fill="#00A6ED"/>
		<path d="M1375 1193c35 0 65 28 65 65l0 43-130 0 0-43c0-35 28-65 65-65 z" fill="#452829"/>
		<path d="M1530 1402c27 0 51 22 51 51 0 27-22 51-51 51-27 0-51-22-51-51 0-27 22-51 51-51 z M1228 1402c27 0 51 22 51 51 0 27-22 51-51 51-27 0-51-22-51-51 0-27 22-51 51-51 z" fill="#4E3233"/>
		<path d="M1430 1252c54 0 97 40 101 94 4 61 12 125 12 186 0 83-69 150-150 150l-28 0c-83 0-150-67-150-149 0-63 8-127 12-187 4-54 47-94 101-94l102 0 z" fill="#573739"/>
		<path d="M1486 1507c8 0 18 9 18 17 0 22-44 31-60 31-12 0-27-1-27-18 0-9 3-14 9-15l18-1c23 0 35-14 42-14 z M1272 1508c11 0 21 12 52 12 11 0 17 7 17 18 0 15-15 17-26 17-16 0-60-10-60-29 0-11 6-18 17-18 z" fill="#000000"/>
		<path d="M1488 1451l-70 0c-5 0-7 2-7 7 0 20 24 37 43 37 19 0 43-15 43-35 0-6-3-9-9-9 z M1339 1451c5 0 7 2 7 7 0 22-22 37-42 37-19 0-43-16-43-36 0-5 3-8 8-8l70 0 z" fill="#FFFFFF"/>
		<path d="M1475 1451l-55 0c0 20 7 36 28 36 14 0 28-13 28-28l-1-8 z M1337 1451l1 8c0 14-13 28-28 28-14 0-28-13-28-28l1-8 54 0 z" fill="#7D4533"/>
		<path d="M1461 1451l-28 0-1 8c0 9 8 15 16 15 8 0 15-7 15-15 0-3-1-6-2-8 z M1325 1451l1 8c0 9-8 15-16 15-8 0-15-7-15-15 0-3 1-6 2-8l28 0 z" fill="#000000"/>
		<path d="M1439 1465c3 0 5 2 5 5 0 3-2 5-5 5-3 0-5-2-5-5 0-3 2-5 5-5 z M1301 1465c3 0 5 2 5 5 0 3-2 5-5 5-3 0-5-2-5-5 0-3 2-5 5-5 z" fill="#FFFFFF"/>
		<path d="M1391 1387c9 0 17 7 17 16 0 8-14 50-17 58-3 6-7 9-12 9-5 0-9-3-12-9-3-11-17-49-17-58 0-9 8-16 16-16l25 0 z" fill="#3D2123"/>
		<path d="M1540 1471c11 0 17 6 19 17 7 34 19 74 19 108 0 39-25 52-50 63-38 18-50 64-99 64-19 0-32-9-50-9-19 0-34 11-53 11-34 0-50-26-73-49-28-28-73-28-73-80 0-17 2-35 7-54 7-30 6-71 31-71-1 15-3 30-3 45 0 27 28 29 28 58l0 27c0 29 116 30 136 30 19 0 40-1 62-2 34-3 71-5 74-30l-1-25c0-29 29-30 29-58 0-15-2-30-3-45 z" fill="#000000"/>
		<path d="M1379 1335c14 0 53 16 53 32 0 3-1 4-4 4-10 0-30-11-49-11-19 0-39 11-49 11-3 0-5-2-5-5 0-16 41-31 54-31 z" fill="#290118"/>
	</g></svg>
