<svg version="1.1" xmlns="http://www.w3.org/2000/svg" viewBox="0 0 2300 2300"><g transform="scale(1,-1) translate(-256, -1869)">
		<path d="M2097 697l0 877 311-2 0 153-786 0c16-89 78-135 78-215l0-492c0-112 74-210 173-243l224-78 z" fill="#FFB02F"/>
		<path d="M2412-287l0 946c-581 0-1089-388-1249-946l1249 0 z" fill="#FF6723"/>
		<path d="M1819 1114c109 0 198 88 198 198 0 109-88 198-198 198-109 0-197-88-197-198 0-109 87-198 197-198 z" fill="#FECA46"/>
		<path d="M2412 288l0 718c-120 0-215-101-215-221l0-276c0-120 95-221 215-221 z" fill="#F9C136"/>
		<path d="M2412 528l0 302-44 47 44 46 0 122c0 0-40 147-44 159l44 158 0 363-615 0c-28-32-34-80-34-117 0-9 1-18 2-27l36-646c5-106 84-228 156-290 86-76 238-117 352-117l103 0 z" fill="#FDD641"/>
		<path d="M1281 693c33 0 56 27 56 58 0 14-5 27-15 38-109 126-149 218-167 371-4 29-23 52-55 52-30 0-57-22-57-55 0-144 87-339 197-446 12-11 25-18 41-18 z M1430 849c30 0 56 25 56 56 0 14-5 27-15 39-46 54-73 97-88 157-12 43-10 112-68 112-30 0-57-22-57-55 0-68 33-156 83-230 26-41 53-79 89-79 z" fill="#9B9B9B"/>
		<path d="M2263 1294c19 0 28 16 28 33 0 30-36 78-59 98-30 24-69 38-107 38-41 0-75-12-103-35-32-27-62-81-62-102 0-19 17-32 34-32l269 0 z" fill="#FFFFFF"/>
		<path d="M2251 1294c2 10 3 20 3 29 0 55-45 108-104 108-72 0-109-58-109-123l1-14 209 0 z" fill="#7D4533"/>
		<path d="M2204 1294c5 9 8 19 8 29 0 33-28 62-62 62-33 0-62-28-62-62 0-9 2-18 7-29l109 0 z" fill="#000000"/>
		<path d="M2113 1346c11 0 20 9 20 19 0 10-10 20-20 20-10 0-19-9-19-20 0-13 6-19 19-19 z" fill="#FFFFFF"/>
		<path d="M1981 1569c18 0 80 50 163 50 13 0 26-2 38-2 21 0 34 17 34 35 0 38-43 38-70 38-44 0-201-30-201-86 0-21 18-35 36-35 z" fill="#D37034"/>
		<path d="M2412 1042l0 323c-19-3-32-14-37-33l-61-205c-2-6-3-12-3-19 0-33 27-66 63-66l38 0 z" fill="#FFB02C"/>
		<path d="M2403 827l9 1 0 97c-60 0-100 4-157 29-11 4-20 11-31 15l-3 1c-19 0-24-8-24-22 0-3 1-5 2-8 39-78 136-113 204-113 z" fill="#990839"/>
		<path d="M1682 340c42 0 78 23 97 62l153 325c7 16 11 32 11 47 0 59-48 107-108 107-40 0-79-22-98-62l-153-325c-7-13-10-29-10-46 0-59 47-108 108-108 z" fill="#FECA46"/>
		<path d="M1586-72c29 58 75 134 139 158 83 32 146 54 184 140 16 35 65 128 65 165 0 51-42 93-94 93-20 0-37-7-54-16-13 87-95 151-183 151-11 0-21-1-32-3-19 8-40 12-61 12-46 0-87-18-122-41l-11 1c-112 0-168-77-191-157l-108-359 258-72 5 14 205-86 z" fill="#FDD641"/>
		<path d="M1538-193c15 0 25 7 32 21 10 21 48 93 48 115 0 15-7 26-22 33-48 20-416 192-442 192-15 0-25-7-32-21-10-21-48-93-48-114 0-15 7-26 22-33 47-19 417-193 442-193 z" fill="#F95725"/>
		<path d="M1613-287c6 14 9 29 9 45 0 42-24 86-67 105l-446 199c-15 7-30 10-44 10-44 0-86-25-105-68l-126-291 779 0 z" fill="#FF8101"/>
		<path d="M1587 195c25 0 47 7 68 20 8-3 19-4 27-4 12 0 24 2 36 6 89 27 120 104 120 194 0 144-96 210-236 210-11 0-23-6-23-18 0-8 4-14 11-17 75-40 107-100 107-189 0-68-22-166-111-166-25 0-46 10-64 29-7 7-9 14-14 21 28 35 37 89 37 129 0 53-16 113-58 150-15 12-44 27-55 27-11 0-19-6-19-17 0-8 6-15 13-18 63-24 83-76 83-140 0-26-4-61-18-86 0-2 0-3-1-3-11-36-55-59-89-59-24 0-46 12-63 29l-1 0c-10 10-15 21-15 34 0 33 36 76 36 97 0 11-9 18-18 18-16 0-29-30-37-55-12-37-17-38-17-59 0-58 62-99 115-99 28 0 57 8 80 26 18-37 68-60 106-60 z M1693 248c28 36 41 102 41 150 0 65-19 134-72 182 92-16 141-73 141-168 0-75-27-153-110-164 z" fill="#F59B31"/>
	</g></svg>
