<svg version="1.1" xmlns="http://www.w3.org/2000/svg" viewBox="0 0 2300 2300"><g transform="scale(1,-1) translate(-256, -1869)">
		<path d="M1315 816l173 47-44 169-173-43 44-173 z" fill="#F4C6AD"/>
		<path d="M1693 180c-16 157-33 704-262 704-166 0-176-231-176-340 0-123 17-243 29-364l409 0 z" fill="#FF6723"/>
		<path d="M1104-288l14 1 670 72-122 139-17 0c39 53 50 120 50 183 0 25-2 49-6 73l-394 0-301-297c-18-16-31-50-31-73 0-68 82-98 137-98 z" fill="#9B9B9B"/>
		<path d="M1656-87c11 0 17 10 17 19 0 8-5 13-14 16-31 9-64 14-98 15l-99 1-110 0c-11 0-18-7-18-18 0-11 7-18 18-18l54 0 123-1c40-1 81-5 122-13 1 0 2-1 5-1 z" fill="#636363"/>
		<path d="M1162-30c11 0 20 5 25 15 5-5 12-8 19-8 27 0 41 44 52 63 24 8 55 22 73 41l186 195c34 36 40 60 40 107 0 5-1 9-2 14l-69 356c-8 11-22 38-38 38-11 0-20-6-28-13-23-16-51-8-60-26-8-16-18-44-18-67 0-40 7-63 12-105l24-209 1-2c0-3-2-7-5-10l-132-149c-24-27-56-49-73-81l-39-73c-2-4-3-9-3-14 0-11 4-18 12-23-3-7-6-13-6-21 0-15 15-28 29-28 z" fill="#FFD7C2"/>
		<path d="M1974-291c19 0 32 15 32 32 0 9-3 16-10 23l-255 237c-4 4-9 6-16 6-6 0-11-2-16-7l-82-82 62-144c27-8 273-65 285-65 z" fill="#433B6B"/>
		<path d="M1346 482l68 8c22 2 44 4 66 7l29 3c10 0 20 1 29 3 3 1 7 3 10 6 2 2 3 5 3 7l-27 212c-2 13-6 25-12 36-6 11-13 20-22 28-9 8-20 14-31 19-12 5-24 7-37 7-14 0-27-3-40-8-13-5-25-13-34-22-9-9-17-20-22-32-6-13-9-26-9-41 0-6 0-11 1-14l28-219 z" fill="#FF8101"/>
		<path d="M1244 893c54 0 128 25 174 72 28 29 31 68 36 104 4 31 29 146 29 158 0 69-76 126-140 126-35 0-68-6-103-9-70-5-126-68-126-139 0-21 2-42 5-63-8-16-38-67-38-77 0-15 20-29 35-29 6 0 10 1 13 2 8-75 26-145 115-145 z" fill="#FFD7C2"/>
		<path d="M1155 1115l68 6c3 0 5 2 7 5 1 3 2 5 2 8 0 11-4 19-13 26-9 7-18 10-28 10-11 0-22-3-31-10-9-7-14-16-14-28 0-3 1-7 2-11 1-4 3-6 7-6 z" fill="#FFFFFF"/>
		<path d="M1149 1114l49 5 1 7c0 16-9 36-26 36-19 0-27-18-27-34 0-5 2-9 3-14 z" fill="#7D4533"/>
		<path d="M1158 1115l23 3c1 2 2 5 2 8 0 11-5 21-16 21-9 0-14-9-14-17 0-7 2-12 5-15 z" fill="#000000"/>
		<path d="M1158 1134c3 0 5 4 5 7 0 3-2 6-5 6-3 0-5-2-5-5 0-3 1-8 5-8 z" fill="#FFFFFF"/>
		<path d="M1174 989c22 0 50 17 50 40 0 7-3 10-8 10-14 0-12-32-41-32l-12 1c-5 0-7-3-7-8 0-11 11-11 18-11 z" fill="#990839"/>
		<path d="M1219 1192l6 2 3 5 0 6-4 5c-15 9-31 13-47 13l-13-1c-7-1-17-1-17-10l0-4c1-2 3-7 8-7l19 0c14 0 23-2 45-9 z" fill="#212121"/>
		<path d="M1470 1012c7 0 15 0 24 1 8 1 16 3 23 6 7 3 12 7 17 12 5 5 7 13 7 22 0 12-4 21-12 28-10 9-20 10-34 10 12 1 22 8 30 21 7 13 13 27 17 44 4 16 7 32 8 48l2 36c0 27-2 52-6 76-4 24-11 45-22 63-11 18-27 32-46 43-20 11-46 16-77 16-15 0-28-1-41-4l-37-10c-11-4-22-7-33-10-11-3-21-5-30-5-11 0-21 1-31 3-11 2-21 3-32 3-12 0-24-1-35-3-11-2-22-6-31-11-9-5-17-13-22-22-6-9-9-21-9-36 0-34 9-58 28-71 18-13 43-20 75-20 9 0 19 1 29 2 10 1 20 1 30 1 9 0 19-1 30-3 11-2 21-5 31-10 10-5 18-11 25-18 7-8 11-18 12-29 4 1 7 1 11 1 4 0 8 0 12-2 7-3 14-8 20-14 6-6 11-13 15-20 3-7 5-15 5-22 0-10-2-19-7-28l3-31c1-11 3-22 6-32 3-10 8-18 15-25 7-7 17-10 30-10 z" fill="#212121"/>
	</g></svg>
