<svg version="1.1" xmlns="http://www.w3.org/2000/svg" viewBox="0 0 2300 2300"><g transform="scale(1,-1) translate(-256, -1869)">
		<path d="M1619 442c18 0 48 39 48 54 0 14-10 24-23 24-19 0-49-39-49-54 0-15 11-24 24-24 z M1131 442c14 0 24 10 24 23 0 16-30 55-49 55-13 0-23-10-23-24 0-16 30-54 48-54 z" fill="#341A1C"/>
		<path d="M1638 406c-15 0-23 7-23 22 0 26 14 51 14 77 0 11-3 23-15 23-21 0-9-51-41-51-7 0-19 2-19 12 0 11 1 23 2 34 7 62 12 116 12 182 0 80-17 285-90 347 5 57 9 114 13 171 24-14 46-23 69-35 124-66 143-280 143-429 0-52-2-353-65-353 z M1112 406c15 0 23 7 23 22 0 28-14 50-14 77 0 11 3 23 15 23 21 0 9-51 41-51 7 0 19 2 19 12 0 11-1 23-2 34-9 58-12 122-12 178 0 85 17 292 91 351-4 57-9 114-14 171-24-14-46-23-69-35-126-67-143-291-143-431 0-51 2-351 65-351 z" fill="#573739"/>
		<path d="M1339-289l-218 0-2 16c0 39 76 54 76 96l73 25 71-25 0-112 z M1627-289l2 16c0 38-78 60-78 92l2 4-73 27-67-27 0-112 214 0 z" fill="#321B41"/>
		<path d="M1553-177l38 897-210 60-220-61 34-896 145 0 19 746c0 11 5 20 16 20 11 0 17-9 17-20l21-746 140 0 z" fill="#9B9B9B"/>
		<path d="M1591 719l0 241 97 0c0 164-153 304-312 304-157 0-315-143-315-304l100 0 0-241 430 0 z" fill="#FF6723"/>
		<path d="M1375 1193c35 0 65 28 65 65l0 43-130 0 0-43c0-35 28-65 65-65 z" fill="#452829"/>
		<path d="M1237 1327c-8 13-9 76-9 89-10 0-24 4-33 10l0-36c0-27 14-52 42-63 z M1516 1328c24 11 39 36 39 62l0 36c-8-7-22-9-32-9 0-3-4-78-7-89 z" fill="#000000"/>
		<path d="M1526 1409c29 0 52 22 52 52 0 30-25 51-52 51-27 0-52-21-52-51 0-29 22-52 52-52 z M1224 1409c29 0 52 22 52 52 0 30-25 51-52 51-28 0-52-22-52-51 0-28 23-52 52-52 z" fill="#452829"/>
		<path d="M1405 1258c59 0 116 45 121 106 4 65 12 132 12 196 0 73-60 128-128 128l-69 0c-71 0-128-56-128-129 0-65 8-130 13-195 3-61 63-106 120-106l59 0 z" fill="#573739"/>
		<path d="M1483 1524c6 0 9 6 9 10l-3 5c-15 10-31 15-48 15l-8 0c-5-1-10-1-10-10 0-5 2-6 9-8l11 1c17 0 26-8 40-13 z M1267 1524c24 8 24 13 53 13 3 0 5 2 8 7 0 5-2 7-4 8-3 1-8 2-15 2-18 0-50-6-50-24l3-4 5-2 z" fill="#000000"/>
		<path d="M1485 1459l-70 0c-5 0-8 5-8 9 0 19 26 35 44 35 19 0 42-16 42-36 0-5-3-8-8-8 z M1336 1459c5 0 7 2 7 7 0 20-24 37-43 37-19 0-43-15-43-35 0-6 3-9 9-9l70 0 z" fill="#FFFFFF"/>
		<path d="M1471 1459l-54 0-1 7c0 14 13 28 28 28 16 0 28-12 28-28l0-4-1-3 z M1333 1459l2 7c0 14-12 29-28 29-16 0-29-13-29-29l0-4 1-3 54 0 z" fill="#7D4533"/>
		<path d="M1458 1459l-29 0-1 7c0 11 5 16 16 16 11 0 16-5 16-16l-2-7 z M1322 1459l1 7c0 8-8 16-16 16-11 0-16-5-16-16l2-7 29 0 z" fill="#000000"/>
		<path d="M1435 1473c3 0 5 2 5 5 0 3-2 5-5 5-3-2-5-4-5-5 0-2 2-4 5-5 z M1297 1473c3 1 5 3 5 5 0 1-2 3-5 5-3 0-5-2-5-5 0-3 2-5 5-5 z" fill="#FFFFFF"/>
		<path d="M1388 1395c9 0 17 7 17 16 0 8-15 50-18 58-3 6-7 9-12 9-5 0-8-3-11-9-3-11-18-50-18-58 0-9 9-16 18-16l24 0 z" fill="#3D2123"/>
		<path d="M1375 1341c13 0 53 14 53 30 0 3-2 5-5 5-8 0-29-11-48-11-19 0-37 11-48 11-3 0-5-2-5-5 0-16 40-30 53-30 z" fill="#990839"/>
		<path d="M1555 1502c0 49 23 51 23 86 0 69-67 60-93 102-15 23-36 35-63 35-18 0-31-10-47-10-16 0-29 10-47 10-27 0-48-13-63-34-28-44-93-37-93-104 0-37 22-39 22-85 6 5 13 8 21 9l0 26c0 57 45 105 105 105l41 0c8 0 14-4 19-13 18-37 45-45 80-45l34 0c32 0 40-23 42-48l-1-25c7 0 14-3 20-9 z" fill="#000000"/>
	</g></svg>
