<svg version="1.1" xmlns="http://www.w3.org/2000/svg" viewBox="0 0 2300 2300"><g transform="scale(1,-1) translate(-256, -1869)">
		<path d="M1899-163c287 0 511 226 511 514 0 151-64 288-186 389l-304 251c-136 113-222 280-222 470l0 108c0 47-37 84-84 84l-418 0c-47 0-84-37-84-84l0-108c0-190-86-357-222-470l-304-251c-122-101-186-238-186-389 0-276 212-514 511-514l988 0 z" fill="#FFCE7C"/>
		<path d="M1433-164c332 0 593 266 593 596 0 122-32 217-81 295-144 228-441 326-441 683l0 243-201 0 0-245c0-174-72-294-164-388-162-163-355-293-355-588 0-251 148-459 359-549 101-44 167-47 290-47 z" fill="#FEEFC2"/>
	</g></svg>
