<svg version="1.1" xmlns="http://www.w3.org/2000/svg"><g transform="scale(1,-1)">
		<path d="M1736-286c136 0 245 113 245 245 0 13-1 27-3 40l-175 1053-397 143-396-143-176-1053c-2-13-3-27-3-41 0-134 111-244 245-244l660 0 z" fill="#AEDDFF"/>
		<path d="M1637-131c23 0 45 5 66 14 72 31 105 92 105 171 0 5-1 9-2 14l-78 471c-4 27-30 46-56 46l-532 0c-26 0-51-19-55-46l-79-471c-1-5-2-9-2-14l0-14c0-92 74-171 171-171l462 0 z" fill="#F4F4F4"/>
		<path d="M1406 1212l397 112c5 1 9 2 14 2l13 1c21 5 40 14 55 29 15 15 25 33 30 54 2 9 3 17 4 26 1 9 1 18 1 27 0 36-7 70-20 102-14 32-33 60-56 84-24 23-52 42-84 56-32 13-66 20-102 20l-504 0c-36 0-70-7-101-20-32-14-60-33-84-56-24-23-43-51-56-82-14-32-21-66-21-102 0-19 2-37 6-55 5-21 15-39 30-54 15-15 33-24 54-29l14-1c5 0 9-1 14-2l396-112 z" fill="#D3D3D3"/>
		<path d="M1803 1053l0 271-793 0 0-271 793 0 z M1408 1568c21 0 39 17 39 39 0 21-17 38-39 38-22 0-39-17-39-38 0-21 17-39 39-39 z M1511 1442c22 0 39 16 39 39 0 21-17 39-39 39-21 0-38-17-38-39 0-21 15-39 38-39 z M1304 1442c21 0 39 17 39 39 0 21-17 39-39 39-21 0-39-17-39-39 0-22 16-39 39-39 z M1626 1568c22 0 39 16 39 39 0 23-18 38-39 38-21 0-38-16-38-38 0-21 15-39 38-39 z M1189 1568c22 0 39 16 39 39 0 23-18 38-39 38-21 0-38-16-38-38 0-21 15-39 38-39 z" fill="#9B9B9B"/>
	</g></svg>
