<svg version="1.1" xmlns="http://www.w3.org/2000/svg"><g transform="scale(1,-1)">
		<path d="M2017 1060l21 18 15 144-15 18-1265 0-14-18 14-144 22-18 1222 0 z" fill="#83CBFF"/>
		<path d="M1406 1006l72 72 0 647-144 0 0-647 72-72 z" fill="#8D65C5"/>
		<path d="M2053 1222c39 0 72 31 72 72 0 39-31 72-72 72l-1294 0c-39 0-72-31-72-72 0-39 31-72 72-72l1294 0 z" fill="#AEDDFF"/>
		<path d="M1478 1222l0 144-144 0 0-144 144 0 z" fill="#BCA4EB"/>
		<path d="M1837-287c40 0 68 35 72 72l129 1293-1265 0 130-1293c4-37 32-72 72-72l862 0 z" fill="#F3AD61"/>
		<path d="M1069-210c50 0 94 40 94 94 0 49-39 95-94 95-54 0-94-45-94-95 0-55 45-94 94-94 z M1425-210c50 0 94 40 94 94 0 49-39 95-94 95-53 0-95-44-95-95 0-53 43-94 95-94 z M1780-210c50 0 95 40 95 94 0 49-40 95-95 95-54 0-94-45-94-95 0-55 45-94 94-94 z M1596 28c50 0 95 40 95 94 0 52-43 94-95 94-54 0-94-44-94-94 0-55 45-94 94-94 z M1215 28c50 0 95 40 95 94 0 52-43 94-95 94-54 0-94-44-94-94 0-55 45-94 94-94 z" fill="#8C5543"/>
		<path d="M1724-144c38 0 69 26 72 66l81 935c0 41-25 78-71 78-37 0-69-28-72-66l-81-935c0-41 25-78 71-78 z" fill="#FFF3D7"/>
	</g></svg>
