<svg version="1.1" xmlns="http://www.w3.org/2000/svg" viewBox="0 0 2300 2300"><g transform="scale(1,-1) translate(-256, -1869)">
		<path d="M1977-273c27 0 56 19 64 46l152 496c4 12 5 24 5 36 0 72-58 128-128 128l-663 327-664-327c-71 0-127-57-127-128 0-12 1-24 5-36l151-496c8-27 37-46 64-46l1141 0 z" fill="#FBB8AB"/>
		<path d="M1981-287c49 0 92 20 108 72 24 79 130 406 130 467 0 10-10 20-20 20-16 0-21-22-26-34-7 18-12 33-34 33-41 0-73-82-92-82-24 0-12 85-76 85-69 0-106-89-139-89-36 0-49 89-113 89-80 0-125-89-165-89-42 0-61 89-150 89-80 0-101-87-149-87-45 0-79 87-150 87-80 0-95-87-124-87-37 0-74 86-136 86-65 0-61-83-80-83-15 0-52 83-89 83-19 0-33-19-38-35-4 11-9 33-23 33-18 0-24-20-24-35 0-7 1-14 3-20l129-431c13-45 64-72 108-72l1150 0 z" fill="#5092FF"/>
		<path d="M1442-287l0 323c0 19-15 36-36 36-19 0-36-15-36-36l0-323 72 0 z M1773-287c8 44 64 295 64 324 0 21-18 35-36 35-18 0-32-13-35-29l-66-330 73 0 z M1112-287l-66 330c-3 16-17 29-35 29-20 0-36-16-36-37 0-24 57-285 64-322l73 0 z" fill="#3F5FFF"/>
		<path d="M2018 431c140 0 252 115 252 251 0 133-107 247-241 252 17 33 25 71 25 108 0 140-116 251-251 251l-54 0c11 25 17 50 17 76 0 59-25 103-68 142l-211 184c-23 20-50 30-81 30-30 0-57-10-80-30l-218-190c-40-36-61-87-61-136 0-26 6-51 17-76l-53 0c-138 0-252-110-252-251 0-38 8-74 24-108-133-5-240-117-240-252 0-135 111-251 252-251l1223 0 z" fill="#FF6DC6"/>
		<path d="M1730 556c22 0 36 18 36 37 0 10-3 18-10 25l-53 54c-7 7-15 10-26 10-18 0-36-17-36-36 0-10 4-19 11-26l53-53c7-7 16-11 25-11 z M1029 868c19 0 36 15 36 36 0 19-15 36-36 36l-76 0c-19 0-36-15-36-36 0-19 15-36 36-36l76 0 z M1596 1127c10 0 19 4 26 11l53 53c7 7 10 15 10 26 0 18-15 36-36 36-9 0-18-4-25-11l-53-53c-7-7-11-16-11-26 0-18 17-36 36-36 z" fill="#5092FF"/>
		<path d="M1134 556c9 0 18 4 25 11l54 53c7 7 10 15 10 26 0 19-15 36-36 36-10 0-18-3-25-10l-54-54c-7-7-11-16-11-25 0-21 16-37 37-37 z M1825 907c19 0 36 15 36 36 0 11-3 19-10 26l-53 53c-7 7-16 11-26 11-18 0-36-16-36-37 0-9 4-18 11-25l53-53c7-7 16-11 25-11 z M1431 1376c18 0 36 17 36 36 0 10-4 19-11 26l-53 54c-7 7-15 10-26 10-19 0-36-15-36-36 0-9 4-18 11-25l53-54c7-7 16-11 26-11 z" fill="#EFD5FF"/>
		<path d="M1431 840c18 0 36 16 36 37 0 9-4 18-11 25l-53 53c-7 7-16 11-26 11-18 0-36-17-36-36 0-10 4-19 11-26l53-53c7-7 16-11 26-11 z M1958 675c11 0 19 3 26 10l53 53c7 7 10 15 10 26 0 18-15 36-36 36-9 0-18-4-25-11l-53-53c-7-7-11-16-11-25 0-19 15-36 36-36 z M802 675c9 0 17 3 25 10l54 53c7 7 10 15 10 26 0 18-15 36-36 36-9 0-18-4-25-11l-54-53c-7-7-11-16-11-25 0-21 15-36 37-36 z M1177 1127c10 0 19 4 26 11l53 53c7 7 11 16 11 26 0 18-17 36-36 36-10 0-19-4-26-11l-53-53c-7-7-11-16-11-26 0-18 17-36 36-36 z" fill="#FFB02E"/>
	</g></svg>
