<svg version="1.1" xmlns="http://www.w3.org/2000/svg" viewBox="0 0 2300 2300"><g transform="scale(1,-1) translate(-256, -1869)">
		<path d="M1224-281c25 0 48 6 71 17l1093 532c15 7 23 22 23 38l0 88-2011-173 0-88c0-14 8-31 23-38l730-359c23-11 46-17 71-17 z" fill="#D3D3D3"/>
		<path d="M1224-195c25 0 48 6 71 17l1093 532c15 7 23 22 23 38 0 17-8 30-23 38l-782 385c-5 3-12 4-19 4-7 0-14-1-19-4l-1145-558c-15-7-23-24-23-38 0-16 8-31 23-38l730-359c23-11 46-17 71-17 z" fill="#F4F4F4"/>
		<path d="M1507 96c12 0 23 4 34 9 199 198 410 400 614 592 0 21-12 40-31 50l-509 250c-12 6-25 9-39 9-14 0-27-3-39-9l-578-277c-19-9-31-28-31-49 59-83 123-161 191-234 95-102 189-185 286-274 30-28 66-67 102-67 z" fill="#FCD53F"/>
		<path d="M1484 102c14 0 23 12 23 24l0 268c0 17-7 29-22 36l-528 260-9 2c-10 0-20-10-20-20l0-271c0-19 9-32 26-41l520-255c3-2 6-3 10-3 z" fill="#FFF478"/>
		<path d="M1484 102c14 0 23 12 23 24l0 268c0 17-7 29-22 36l-528 260-9 2c-10 0-20-10-20-20l0-271c0-19 9-32 26-41l520-255c3-2 6-3 10-3 z" fill="#FFF478"/>
		<path d="M1259-34c13 0 25 3 34 10 8 55 22 107 39 159 8 20 67 186 67 190 0 21-12 41-30 50l-509 250c-12 6-25 9-40 9-14 0-27-3-39-9-36-18-101-33-101-84 152-216 381-362 548-566 9-6 19-9 31-9 z" fill="#FCD53F"/>
		<path d="M1237-27c12 0 23 9 23 23l0 268c0 17-7 29-22 36l-529 261-9 2c-10 0-20-10-20-20l0-271c0-19 9-32 26-41l520-255c3-2 6-3 11-3 z" fill="#FFF478"/>
		<path d="M1282-27c16 0 76 34 92 42 17 8 25 21 25 40l0 271c0 10-10 20-20 20-10 0-82-37-97-46-15-7-23-19-23-36l0-268c0-14 11-23 23-23 z M1531 102c4 0 8 1 11 3l588 282c17 9 26 22 26 41l0 271c0 10-10 20-20 20l-9-2-597-287c-13-6-22-21-22-36l0-268c0-14 10-24 23-24 z" fill="#F9C23C"/>
	</g></svg>
