<svg version="1.1" xmlns="http://www.w3.org/2000/svg" viewBox="0 0 2300 2300"><g transform="scale(1,-1) translate(-256, -1869)">
		<path d="M1520-287c60 0 90 46 90 98 0 25-22 43-44 43l-248 0c-32 0-43-25-43-51 0-51 39-90 90-90l155 0 z" fill="#D3883E"/>
		<path d="M1441-212c76 0 149 10 219 30 70 19 136 47 197 83 61 35 116 78 167 129 50 50 93 106 129 167 35 61 63 126 83 196 19 70 29 143 29 219 0 66-8 131-23 195-16 63-39 124-68 181-29 57-65 111-107 161-43 49-91 93-144 132-26 19-52 35-78 50-27 14-54 28-83 41-36 17-63 37-80 60-18 23-30 48-37 75-6 24-9 49-9 75l0 12c1 31 1 64 1 98 0 9-3 17-10 24-7 6-15 9-24 9-12 0-25-8-38-24-14-16-28-33-43-52-15-19-29-37-43-53-14-16-27-24-39-24-12 0-25 8-39 24-15 16-29 34-43 53l-42 52c-14 16-27 24-39 24-9 0-17-3-23-9-7-7-10-15-10-24l0-132c0-43-11-81-34-113-23-32-54-57-92-75-29-13-56-27-83-41-27-15-53-31-78-50-53-39-101-83-143-132-43-50-79-104-108-161-29-57-52-118-67-181-16-63-24-128-24-194 0-75 10-147 30-216 20-70 48-135 85-196 36-61 79-117 130-168 51-51 107-94 168-130 61-37 127-65 197-85 69-20 141-30 216-30 z" fill="#F3AD61"/>
		<path d="M1440-207c47 0 91 7 133 20 320 99 491 481 491 839 0 256-85 537-277 715l-45-48c176-163 255-420 255-667 0-288-133-684-442-776 117 177 149 554 149 777 0 221-24 486-99 678l-54-20c72-190 94-456 94-658 0-184-14-399-67-576-15-56-59-192-122-218l-31 0c-65 27-104 161-122 218-56 181-67 386-67 576 0 211 24 474 94 658l-54 20c-76-193-99-459-99-678 0-218 32-602 149-777-314 94-443 493-443 776 0 237 77 501 256 667l-45 48c-191-178-277-456-277-715 0-52 4-105 11-158 44-340 266-701 612-701 z" fill="#E19747"/>
	</g></svg>
