<svg version="1.1" xmlns="http://www.w3.org/2000/svg" viewBox="0 0 2300 2300"><g transform="scale(1,-1) translate(-256, -1869)">
		<path d="M652-284c3 0 7 1 10 2l1601 353c44 10 77 48 77 96l0 618c-88 0-171 71-171 166 0 94 77 167 171 167l0 145c0 55-44 98-96 98-6 0-15-2-22-2l-787 52-815-405c-5-3-9-4-14-5-36-8-63-54-63-90l0-648c81 0 153-65 153-152 0-86-68-153-153-153l0-144c0-62 51-98 109-98 z" fill="#FCD53F"/>
		<path d="M1537 125c44 0 82 35 82 82 0 44-35 82-82 82-44 0-82-35-82-82 0-44 35-82 82-82 z M1162 289c81 0 153 65 153 152 0 81-66 153-153 153-85 0-152-69-152-153 0-87 71-152 152-152 z M1752 424c142 0 263 116 263 264 0 143-115 263-263 263-144 0-264-117-264-263 0-147 116-264 264-264 z M595 997l1678 359-702 352c-24 11-49 17-74 17-40 0-80-14-110-40l-792-688 z" fill="#FFB02E"/>
	</g></svg>
