<svg version="1.1" xmlns="http://www.w3.org/2000/svg" viewBox="0 0 2300 2300"><g transform="scale(1,-1) translate(-256, -1869)">
		<path d="M2198-287l-73 143 1 42c0 250-84 506-317 643l-806 0c-245-144-316-420-316-685l-72-143 469 0 321 129 322-129 471 0 z" fill="#D3D3D3"/>
		<path d="M760-287l-143 0-1 72 69 80-65 85c24 202 125 391 281 520l4-756-145-1 z M2197-287l-287 0 0 758c172-142 287-367 287-587l0-171 z M1407 286c159 0 341 53 470 155 29 23 46 51 46 90 0 62-49 117-115 117l-803 0c-64 0-115-51-115-116 0-39 16-67 47-91 128-101 307-155 470-155 z" fill="#E6E6E6"/>
		<path d="M1550 72c38 0 72 33 72 72 0 39-34 72-72 72-39 0-72-31-72-72 0-39 31-72 72-72 z" fill="#F92F60"/>
		<path d="M762-215c13 0 24 10 24 24l0 116c0 14-10 25-25 25l-141 0c-3-19-4-39-4-58l1-107 145 0 z M1262 72c39 0 72 31 72 72 0 39-31 72-72 72-38 0-72-33-72-72 0-39 34-72 72-72 z" fill="#5092FF"/>
		<path d="M1729-287l0 229c0 33-27 58-58 58l-530 0c-31 0-58-25-58-58l0-229 646 0 z M2062 863l-97 0c27 68 40 142 40 215 0 49-6 97-18 144l75 0c34 0 63-26 63-62l0-235c0-36-29-62-63-62 z M847 863c-27 68-40 142-40 215 0 49 6 97 18 144l-75 0c-34 0-63-26-63-62l0-235c0-36 29-62 63-62l97 0 z" fill="#9B9B9B"/>
		<path d="M1388 491c327 0 593 262 593 593 0 327-262 593-593 593-327 0-593-262-593-593 0-327 262-593 593-593 z" fill="#212121"/>
		<path d="M1476 647c29 0 57 4 84 13 27 8 53 20 76 35 23 15 44 33 62 55 18 21 33 45 44 72l12 33c3 11 5 22 6 33l12 174 10 174c1 6 1 12 1 18l0 18c0 29-9 54-28 75-19 20-44 30-74 31-31 1-58 1-83 1l-10 0c-21 0-42 3-60 7-21 5-41 14-60 29-19 14-37 36-54 65-5 9-11 17-17 22-7 5-16 8-28 8l-94 0c-31 0-62-6-91-17-29-12-55-28-78-49-23-21-42-45-56-73-14-28-21-58-21-91 0-25 1-47 3-65l6-66 17-261c1-11 4-22 7-33 3-12 7-23 11-33 11-27 25-51 44-72 18-22 39-40 62-55 23-15 49-27 76-35 27-9 55-13 84-13l137 0 z" fill="#573739"/>
		<path d="M1406 823c25 0 48 7 71 20 23 13 55 45 55 57 0 9-4 13-12 13l-6-2c-42-15-65-27-108-27-38 0-74 9-108 27l-6 2c-6 0-12-5-12-12 0-2 1-4 2-7 24-42 75-71 124-71 z" fill="#990839"/>
		<path d="M1662 1105l-164 0c-7 0-17 6-17 14 0 47 52 89 101 89 39 0 100-36 100-83 0-10-10-20-20-20 z M1315 1105c7 0 16 6 16 14 0 48-51 89-100 89-39 0-101-35-101-82 0-10 10-21 21-21l164 0 z" fill="#FFFFFF"/>
		<path d="M1630 1105l-126 0c-1 3-2 6-2 9l0 8c0 35 28 66 65 66 18 0 33-6 46-19 16-17 19-40 19-55 0-3-1-6-2-9 z M1309 1105c1 7 2 10 2 17 0 35-27 66-65 66-36 0-66-29-66-66 0-7 1-10 2-17l127 0 z" fill="#7D4533"/>
		<path d="M1600 1105l-66 0c-3 5-4 10-4 17 0 22 16 38 37 38 21 0 37-16 37-38 0-7-1-12-4-17 z M1279 1105c3 5 4 10 4 17 0 22-16 38-37 38-21 0-38-16-38-38 0-6 2-12 5-17l66 0 z" fill="#000000"/>
		<path d="M1547 1137c7 0 11 5 11 12 0 7-4 11-11 11-7 0-12-4-12-11 0-8 4-12 12-12 z M1223 1137c8 0 12 4 12 12 0 7-5 11-12 11-7 0-11-4-11-11 0-7 4-12 11-12 z" fill="#FFFFFF"/>
		<path d="M1433 953c22 0 37 20 37 39 0 18-16 71-28 107-12 32-12 51-35 51-14 0-23-9-26-21-8-29-38-113-38-136 0-19 15-40 37-40l53 0 z" fill="#3D2123"/>
		<path d="M1658 1260c5 0 10 2 14 6 4 3 6 8 6 13 0 8-5 15-15 22-10 6-22 11-35 16-13 4-27 7-40 10-13 2-23 3-30 3-9 0-18-1-27-2-9-2-14-9-14-22 0-5 2-9 5-11 3-3 7-4 12-5l6-1 7 1 12 0c12 0 24-1 35-4 11-3 20-7 29-11l22-10c6-3 10-5 13-5 z M1155 1260c5 0 8 1 12 4 19 13 36 20 52 22 16 2 35 3 56 3 9 0 12 3 19 10 1 4 2 7 2 10 0 16-15 21-30 21-38 0-131-16-131-51 0-12 9-19 20-19 z" fill="#000000"/>
		<path d="M1931 1203c0 338-225 471-524 471-244 0-527-156-527-437 0-10 1-24 2-34 149 114 331 177 525 177 188 0 371-60 524-177 z" fill="#636363"/>
		<path d="M1765 743c19 0 36 15 36 36 0 19-15 36-36 36l-213 0c-19 0-36-15-36-36 0-19 15-36 36-36l213 0 z" fill="#636363"/>
		<path d="M1587 505c5 0 60 22 68 27 146 66 264 192 319 352l-132 0c-32 0-53-14-72-39-85-114-142-153-281-191-32-9-55-31-55-66l0-83 153 0 z" fill="#9B9B9B"/>
		<path d="M1406 431c355 0 647 288 647 647 0 355-288 647-647 647-360 0-647-290-647-647 0-355 288-647 647-647 z M1406 539c-294 0-539 239-539 539 0 296 239 540 539 540 298 0 539-243 539-540 0-294-239-539-539-539 z" fill="#D3D3D3"/>
	</g></svg>
