<svg version="1.1" xmlns="http://www.w3.org/2000/svg" viewBox="0 0 2300 2300"><g transform="scale(1,-1) translate(-256, -1869)">
		<path d="M1447-287c280 0 486 219 486 496 0 158-47 314-169 432-25 24-54 48-85 64l-21-28c-11 4-22 6-33 7-62 4-180 21-252 21-9 0-32-10-41-14-75-38-124-127-124-209 0-103 80-161 160-206 87-49 180-120 180-211l0-9c0-144-110-206-243-206-71 0-155 7-188 79l-1 5c0 19 51 31 65 37 60 26 102 80 102 150l0 44c0 10-9 20-20 20l-8-2-122-48c-39-16-55-38-78-72-4-7-10-10-17-10-6 0-11 3-16 10-22 33-41 58-78 72l-122 48-8 2c-14 0-18-12-20-25-1-7-1-15-1-22 1-7 1-13 1-17 0-70 41-124 102-150l61-25c16-6 17-31 21-50 24-99 129-183 244-183l225 0 z" fill="#00D26A"/>
		<path d="M798 647c-29 0-39 42-39 66 0 26 11 55 34 73l53-39c-14-8-23-24-23-40 0-11 7-18 7-29 0-18-13-31-32-31 z M2078 1176c0 10-2 29-2 48 0 19 3 38 11 46 17 17 43 33 43 59 0 19-15 36-36 36-11 0-19-3-26-10-38-35-65-57-65-108l0-44c27-3 51-16 75-27 z" fill="#FECA46"/>
		<path d="M824 637c6 0 11 1 15 4l23 18c4 3 9 4 15 4 45 0 82 0 111 1 29 0 53 2 73 5 19 3 36 8 50 15 14 7 29 18 45 33 16 14 35 33 56 56 21 23 49 51 84 85l397 41c47-22 95-43 143-62l143-60c11-5 21-8 30-11 9-3 19-5 31-5 17 0 33 3 48 10 15 7 28 16 39 27 11 11 19 24 25 39 6 15 9 31 9 48l0 385c0 10-4 19-11 26-8 7-17 10-27 10-15 0-25-4-29-12-4-9-6-18-7-28-1-11-3-20-5-28-2-9-9-13-20-13-13 0-21 4-26 11-5 7-9 15-10 25l-1 15 1 16c1 11 1 20 1 28 0 9-3 18-10 27-7 8-15 12-25 12-11 0-21-3-28-10-7-7-11-17-11-28 0-11 0-22-1-33l0-10 1-23c1-11 3-22 6-32 3-11 8-20 15-29 1-2 4-5 7-8l10-11 9-12c2-4 3-7 3-10 0-4-1-13-4-28l-8-48-16-81-207 97c-25 11-51 19-78 24-27 4-55 6-82 6-32 0-64-1-95-3-32-3-64-5-96-6-27-1-49-3-68-6-19-3-36-7-51-13-15-7-30-16-45-27-15-12-31-27-50-46l-173-173c-7-7-14-10-23-11l-195-22c-21-3-40-8-57-17-17-9-32-24-44-43l-14-21c-6-9-9-17-9-24 0-9 3-17 10-23 7-7 15-10 24-10 10 0 18 4 24 11 6 7 12 15 18 24 5 8 12 16 19 23 7 7 17 11 30 11 5 0 8-2 11-5 3-3 4-7 4-10 0-5-2-9-6-13l-13-12-14-15c-4-6-6-13-6-21 0-10 3-18 10-24 6-7 14-10 25-10 z" fill="#FDD641"/>
		<path d="M1523 908c97 0 185 116 232 187-48 23-91 35-143 35l-151 0c-51 0-98-7-145-28 44-69 112-194 207-194 z" fill="#F9C136"/>
		<path d="M1411 1168l0 305c8 9 14 18 19 27 4 8 7 18 9 31 3-1 6-1 11-1 25 0 46 8 63 23 9-7 21-14 36-19 9-3 17-5 25-5l14 2c2-11 5-22 9-31 4-9 10-18 19-27l0-304 78 27c18 6 33 17 44 32 11 15 16 33 16 52l0 170c0 8 2 15 5 22l10 20c4 6 8 13 11 21 3 8 4 18 4 29 0 24-5 42-14 53-9 11-20 21-33 29l-41 22c-14 7-26 17-35 32-9 15-21 26-36 35-15 8-31 12-48 12-11 0-22-2-31-6-10-5-21-7-32-7-11 0-22 2-32 7-10 4-21 6-32 6-17 0-32-4-46-12-15-8-27-19-36-33-10-15-22-27-36-34-14-7-27-15-40-23-13-8-25-18-34-29-9-12-14-29-14-52 0-11 2-21 5-29 3-8 6-15 10-22 3-7 7-13 10-19 3-7 4-14 4-22l0-171c0-19 6-37 17-52 11-15 25-26 43-32l78-27 z" fill="#FFB02F"/>
		<path d="M1693 1294c40 0 71 34 71 72 0 38-31 72-71 72-39 0-72-31-72-72 0-39 31-72 72-72 z M1334 1294c39 0 72 31 72 72 0 39-31 72-72 72-39 0-72-31-72-72 0-39 31-72 72-72 z" fill="#FECA46"/>
		<path d="M1553 1101c19 0 38 4 57 11 19 7 35 17 50 30 15 13 27 28 37 45 9 17 15 36 16 56l12 198-1 13-3 17c-2 17-6 30-13 39-7 9-15 15-26 18-11 3-22 5-35 5l-41 0c-19 0-35 4-47 12-13 8-23 17-31 26-8 9-15 18-20 26-5 8-10 12-15 12l-58 0c-17 0-34-3-49-9-15-6-29-14-41-24-12-11-22-23-30-37-9-15-14-30-17-47 1-3 1-6 1-11l15-238c1-20 7-38 17-55 9-17 22-32 37-45 15-13 31-24 50-31 19-7 38-11 57-11l78 0 z" fill="#FDD641"/>
		<path d="M1659 1459c8 0 12 4 12 12 0 4-1 7-4 9-1 0-2 1-3 2l-3 2c-2 1-4 3-7 4l-9 4c-14 5-28 8-42 8-5 0-10 0-15-1-6-1-9-5-9-12 0-6 2-10 7-10l16 0c9 0 17-1 26-3 9-3 17-7 24-12l2 1-1-2 6-2 z M1374 1460c4 0 31 16 70 16 7 0 11 4 11 11 0 7-3 11-8 12l-16 1c-23 0-45-9-63-20l-1 0c-3-2-4-5-4-9 0-7 4-11 11-11 z" fill="#D37034"/>
		<path d="M1652 1365l-93 0c-7 0-9 7-9 12 0 24 35 46 58 46 24 0 56-20 56-47 0-7-5-11-12-11 z M1457 1365c7 0 9 7 9 12 0 24-34 46-57 46-24 0-57-21-57-47 0-7 5-11 12-11l93 0 z" fill="#FFFFFF"/>
		<path d="M1635 1365l-72 0-1 10c0 21 18 38 37 38 21 0 37-16 37-38l-1-10 z M1453 1365l1 5c1 2 1 4 1 5 0 11-4 20-11 27-7 7-16 11-27 11-11 0-19-4-26-11-7-7-11-16-11-27 0-1 0-3 1-5l0-5 72 0 z" fill="#7D4533"/>
		<path d="M1619 1365l-37 0c-3 3-4 6-4 10 0 12 10 22 22 22 12 0 21-12 21-22 0-5-1-8-2-10 z M1435 1365c3 3 4 6 4 10 0 12-10 22-22 22-12 0-21-12-21-22 0-5 1-8 2-10l37 0 z" fill="#000000"/>
		<path d="M1588 1383c4 0 6 2 6 7 0 4-2 6-6 6-5 0-7-2-7-6 0-5 2-7 7-7 z M1405 1383c4 0 6 2 6 7 0 4-2 6-6 6-4 0-6-2-6-6 0-5 2-7 6-7 z" fill="#FFFFFF"/>
		<path d="M1529 1276c12 0 21 10 21 22l-3 14c-11 38-17 72-33 72-8 0-13-4-15-12-6-17-21-61-21-74 0-12 9-22 21-22l30 0 z" fill="#FFB02C"/>
		<path d="M1514 1211c18 0 72 20 72 41 0 4-2 6-6 6-8 0-43-15-66-15-27 0-58 15-66 15-4 0-6-2-6-6 0-25 54-41 72-41 z" fill="#990839"/>
		<path d="M1524 500c78 0 241 9 241 125 0 38-17 76-17 125 0 40 8 80 8 120l0 228c-27 12-54 21-83 26l0-58c0-80-64-149-150-149-82 0-149 66-149 149l0 55c-31-7-59-17-84-30l0-234c0-37 7-75 7-112 0-48-17-85-17-120 0-118 163-125 244-125 z" fill="#FF6723"/>
	</g></svg>
