<svg version="1.1" xmlns="http://www.w3.org/2000/svg" viewBox="0 0 2300 2300"><g transform="scale(1,-1) translate(-256, -1869)">
		<path d="M903-287l144 431-144 431c-181-152-288-372-288-611l0-251 288 0 z M2197-287l0 251c0 235-103 455-289 611l-179 36-107-36 95-239c24-62 43-98 62-164 60-220 42-153 130-459l288 0 z" fill="#E6E6E6"/>
		<path d="M1909-287l0 574c0 129-87 239-203 275-38 11-48 7-84 13-124 23-236 47-360 72l-359-72 0-862 1006 0 z" fill="#F4F4F4"/>
		<path d="M1592 303l0 120c0 59-28 117-78 152l394 0c-145 122-322 182-503 182-184 0-360-63-502-181l0-1 395 0c-48-34-81-89-81-152l0-120c103 0 188 82 188 187 0-104 82-187 187-187 z" fill="#F92F60"/>
		<path d="M1584 751c100 33 241 56 241 194l0 194-13-1c4 68 13 137 13 205 0 29-3 58-6 87l-818 0c-3-30-7-64-7-94 0-72 9-144 14-216l-25 0 0-175c0-139 136-159 241-194l0 205 360 0 0-205 z" fill="#2D242D"/>
		<path d="M1765 1006c58 0 108 49 108 108 0 57-46 108-108 108-59 0-107-48-107-108 0-58 47-108 107-108 z M1047 1006c59 0 107 49 107 108 0 60-49 108-107 108-61 0-108-48-108-108 0-58 49-108 108-108 z" fill="#8B5C56"/>
		<path d="M1474 643c137 0 266 108 281 248l26 418c1 13 3 26 3 39 0 164-130 302-298 302l-160 0c-170 0-297-133-297-303 0-7 0-13 1-19 7-133 18-301 28-437 11-137 140-248 280-248l136 0 z" fill="#966661"/>
		<path d="M1406 827c25 0 48 6 71 19 23 13 55 45 55 57 0 9-4 13-13 13l-2 0c-69-23-59-28-111-28-37 0-73 9-108 27l-6 2c-7 0-12-6-12-13 0-2 1-4 2-7 24-43 75-70 124-70 z" fill="#990839"/>
		<path d="M1656 1239c10 0 20 10 20 20 0 7-3 12-8 15l0 1c-29 23-78 34-113 34-16 0-41 0-41-21 0-10 8-19 18-19 32 0 54-1 83-11 11-4 31-19 41-19 z M1154 1239c5 0 11 3 20 8 8 5 15 9 20 11 15 5 29 9 42 10 13 1 27 1 42 1 5 0 10 2 13 7 3 4 4 9 4 14 0 5-1 8-4 11-3 3-7 5-11 6-4 1-8 2-13 2l-12 0c-7 0-15-1-26-2-11-2-22-4-33-7-11-3-22-7-31-11-10-4-17-9-22-14l-1 1-1-1 1-1c-5-3-8-9-8-16 0-5 2-10 6-13 4-4 9-6 14-6 z" fill="#372128"/>
		<path d="M1660 1106l-163 0c-7 0-17 6-17 14 0 51 52 88 100 88 39 0 100-35 100-82 0-10-10-20-20-20 z M1313 1106c7 0 17 6 17 14 0 48-53 88-100 88-39 0-100-35-100-82 0-10 10-20 20-20l163 0 z" fill="#FFFFFF"/>
		<path d="M1628 1106l-126 0c-2 6-3 12-3 18 0 37 31 65 66 65 35 0 65-28 65-65 0-7-1-11-2-18 z M1308 1106c1 3 2 6 2 9l0 9c0 35-28 65-65 65-18 0-33-6-46-19-16-16-19-38-19-55 0-3 1-6 2-9l126 0 z" fill="#7D4533"/>
		<path d="M1598 1106l-66 0c-3 7-5 11-5 18 0 19 17 37 38 37 19 0 37-16 37-37 0-7-1-13-4-18 z M1278 1106c3 5 4 11 4 18 0 19-16 37-37 37-19 0-37-16-37-37 0-7 1-13 4-18l66 0 z" fill="#000000"/>
		<path d="M1545 1138c7 0 11 4 11 11 0 7-4 12-11 12-8 0-12-4-12-12 0-7 5-11 12-11 z M1223 1138c7 0 11 4 11 11 0 7-4 12-11 12-8 0-12-4-12-12 0-7 5-11 12-11 z" fill="#FFFFFF"/>
		<path d="M1436 953c22 0 42 16 42 39 0 11-9 40-18 68-22 60-23 90-54 90-13 0-25-6-29-20-8-25-43-117-43-138 0-23 20-39 42-39l60 0 z" fill="#75443E"/>
		<path d="M1808 1339c14 0 29 11 29 27l0 72c42 45 93 80 93 150 0 73-58 137-137 137l-777 0c-77 0-137-61-137-137 0-70 50-104 96-150l0-72c0-14 10-27 25-27l808 0 z" fill="#E6E6E6"/>
		<path d="M1716-207c-30 0-54 22-54 54 0 30 22 54 54 54 32 0 54-24 54-54 0-30-22-54-54-54 z M1716 55c-32 0-54 24-54 54 0 29 24 54 54 54 30 0 54-25 54-54 0-30-22-54-54-54 z M1716 316c-30 0-54 22-54 54 0 29 24 54 54 54 30 0 54-25 54-54 0-32-24-54-54-54 z M1655 1436l-65 0 64 184c5 13 14 20 29 20 17 0 32-12 32-31 0-17-52-149-60-173 z M1218 1436l-64 184c-5 13-14 20-29 20-17 0-32-12-32-31 0-17 52-149 60-173l65 0 z M1438 1436l0 172c0 18-14 33-33 33-19 0-34-15-34-33l0-172 67 0 z" fill="#D3D3D3"/>
		<path d="M2268 0l0 150c0 40-34 66-71 66-37 0-72-26-72-66l0-150 143 0 z" fill="#8B5C56"/>
		<path d="M2087-195c28 0 52 23 52 52l0 503c0 24 13 45 32 60 53 40 73 108 73 174 0 93-45 198-156 198-111 0-157-106-157-199 0-61 20-132 74-174 19-15 31-35 31-60l0-500c0-26 22-54 51-54 z" fill="#F3C07B"/>
		<path d="M2088 444c83 0 118 80 118 150 0 71-37 150-118 150-83 0-118-80-118-150 0-71 36-150 118-150 z" fill="#F3AD61"/>
		<path d="M2211-287c36 0 57 30 57 62l0 253c0 32-21 62-57 62l-215 0c-33 0-50-29-50-58 0-16 8-32 21-43-15-11-22-25-22-44 0-19 7-34 22-45-15-11-22-25-22-44 0-19 7-34 22-45-14-11-21-25-21-42 0-30 17-56 50-56l215 0 z" fill="#966661"/>
	</g></svg>
