<svg version="1.1" xmlns="http://www.w3.org/2000/svg" viewBox="0 0 2300 2300"><g transform="scale(1,-1) translate(-256, -1869)">
		<path d="M1909-287l48 287c8 53 24 88 24 144 0 58-17 93-24 143l-48 287c-28 23-59 45-92 66-137 3-274 7-411 7-139 0-277-7-416-10-31-19-60-40-87-63l-48-287c-8-54-24-86-24-143 0-58 17-93 24-144l48-287 1006 0 z" fill="#E6E6E6"/>
		<path d="M1442-287l0 407 287 491-97 111c-40 8-199 33-226 33-29 0-186-27-227-33l-96-111 287-481 0-417 72 0 z" fill="#FF6723"/>
		<path d="M903-287l0 861c-181-149-288-375-288-610l0-251 288 0 z M1356-11c9 0 14 5 14 14l0 260-1 7-194 450c-68-21-131-49-191-88-5-47-14-98-14-145 0-35 84-7 84-42 0-21-63-60-63-82 0-5 2-9 5-12l350-358c3-3 6-4 10-4 z M1456-12c4 0 7 1 10 4l350 358c3 3 5 7 5 12 0 24-63 57-63 82 0 34 84 6 84 42 0 47-9 98-13 146-60 39-124 67-192 88-4-11-20-44-38-87-54-126-157-360-157-372l0-259c0-9 5-14 14-14 z M2197-287l0 251c0 235-106 459-288 609l0-860 288 0 z" fill="#F4F4F4"/>
		<path d="M2268 0l0 150c0 40-34 66-71 66-37 0-72-26-72-66l0-150 143 0 z" fill="#FECA46"/>
		<path d="M2089 252l108 76 0 103c23 0 38 6 38 33 0 15-3 39-23 39l-247 0c-15 0-22-19-22-32 0-33 8-40 38-40l0-103 108-76 z" fill="#B4F6FC"/>
		<path d="M2197-126l0 454-216 0 0-454 216 0 z" fill="#C3EF3C"/>
		<path d="M2031 135c6 0 6 15 6 18 0 3-2 14-6 14l-30 0c-3 0-4-2-4-7l-1-10c0-3 1-15 5-15l30 0 z M2031 264c3 0 5 2 6 7l0 10c0 3 0 15-6 15l-30 0c-3 0-4-3-4-8l-1-10c0-3 1-14 5-14l30 0 z" fill="#008463"/>
		<path d="M2211-287c36 0 57 30 57 62l0 253c0 32-21 62-57 62l-215 0c-33 0-50-29-50-58 0-16 8-32 21-43-15-11-22-25-22-44 0-19 7-34 22-45-15-11-22-25-22-44 0-19 7-34 22-45-14-11-21-25-21-42 0-30 17-56 50-56l215 0 z" fill="#FDD641"/>
		<path d="M1406 539c83 0 144 76 144 155l0 193c0 82-62 155-144 155-85 0-144-75-144-155l0-193c0-78 58-155 144-155 z" fill="#F9C136"/>
		<path d="M1585 748l136 46c31 11 57 30 76 57 19 27 29 58 29 91l0 300c0 14 3 27 8 38 5 11 11 23 18 35 7 11 13 24 18 38 5 14 8 31 8 51 0 38-10 71-31 100-21 28-50 48-85 61-43 15-76 41-99 78-16 25-37 45-62 60-25 15-53 22-84 22-11 0-21-1-30-3l-27-8c-9-3-18-6-27-8-9-3-18-4-27-4-9 0-18 1-27 4-9 2-18 5-27 8l-28 8c-9 2-19 3-29 3-31 0-58-7-83-21-25-14-45-34-62-59-25-37-58-64-101-80-35-13-62-33-83-62-21-29-32-62-32-99 0-19 3-36 8-49 5-13 11-26 17-37l17-35c5-12 8-25 8-40l0-300c0-34 10-64 29-91 19-27 45-46 77-57l136-47 0 534c13 13 24 29 33 47 9 17 14 36 15 55 3-1 7-1 11-1 3-1 7-1 10-1 20 0 40 4 59 11 19 7 36 17 51 30 17-15 38-26 61-33 15-5 31-8 47-8 8 0 15 1 23 2 3-21 8-40 16-55 8-16 19-32 33-47l0-534 z" fill="#FFB02F"/>
		<path d="M1757 988c68 0 120 57 120 120 0 68-57 120-120 120-68 0-120-57-120-120 0-68 57-120 120-120 z M1054 988c68 0 120 57 120 120 0 68-57 120-120 120-68 0-120-57-120-120 0-68 57-120 120-120 z" fill="#FECA46"/>
		<path d="M1476 647c29 0 57 4 84 13 27 8 53 20 76 35 23 15 44 33 62 55 18 21 33 45 44 72l12 33c3 11 5 22 6 33l12 174 10 174c1 6 1 12 1 18l0 18c0 29-9 54-28 75-19 20-44 30-74 31-31 1-58 1-83 1l-10 0c-21 0-42 3-60 7-21 5-41 14-60 29-19 14-37 36-54 65-5 9-11 17-17 22-7 5-16 8-28 8l-94 0c-31 0-62-6-91-17-29-12-55-28-78-49-23-21-42-45-56-73-14-28-21-58-21-91 0-25 1-47 3-65l6-66 17-261c1-11 4-22 7-33 3-12 7-23 11-33 11-27 25-51 44-72 18-22 39-40 62-55 23-15 49-27 76-35 27-9 55-13 84-13l137 0 z" fill="#FDD641"/>
		<path d="M1433 953c22 0 37 20 37 39 0 18-16 71-28 107-12 32-12 51-35 51-14 0-23-9-26-21-8-29-38-113-38-136 0-19 15-40 37-40l53 0 z" fill="#FFB02C"/>
		<path d="M1406 823c25 0 48 7 71 20 23 13 55 45 55 57 0 9-4 13-12 13l-6-2c-42-15-65-27-108-27-38 0-74 9-108 27l-6 2c-6 0-12-5-12-12 0-2 1-4 2-7 24-42 75-71 124-71 z" fill="#990839"/>
		<path d="M1211 1006c72 0 119 31 166 89 8 11 16 16 29 16 13 0 21-5 29-16 47-58 95-88 167-88 103 0 199 89 199 195 0 114-90 200-199 200l-389 0c-109 0-202-88-202-198 0-109 90-198 200-198 z" fill="#FECA46"/>
		<path d="M1662 1105l-164 0c-7 0-17 6-17 14 0 47 52 89 101 89 39 0 100-36 100-83 0-10-10-20-20-20 z M1315 1105c7 0 16 6 16 14 0 48-51 89-100 89-39 0-101-35-101-82 0-10 10-21 21-21l164 0 z" fill="#FFFFFF"/>
		<path d="M1630 1105l-126 0c-1 3-2 6-2 9l0 8c0 35 28 66 65 66 18 0 33-6 46-19 16-17 19-40 19-55 0-3-1-6-2-9 z M1309 1105c1 7 2 10 2 17 0 35-27 66-65 66-36 0-66-29-66-66 0-7 1-10 2-17l127 0 z" fill="#7D4533"/>
		<path d="M1600 1105l-66 0c-3 5-4 10-4 17 0 22 16 38 37 38 21 0 37-16 37-38 0-7-1-12-4-17 z M1279 1105c3 5 4 10 4 17 0 22-16 38-37 38-21 0-38-16-38-38 0-6 2-12 5-17l66 0 z" fill="#000000"/>
		<path d="M1547 1137c7 0 11 5 11 12 0 7-4 11-11 11-7 0-12-4-12-11 0-8 4-12 12-12 z M1223 1137c8 0 12 4 12 12 0 7-5 11-12 11-7 0-11-4-11-11 0-7 4-12 11-12 z" fill="#FFFFFF"/>
		<path d="M1658 1260c5 0 10 2 14 6 4 3 6 8 6 13 0 8-5 15-15 22-10 6-22 11-35 16-13 4-27 7-40 10-13 2-23 3-30 3-9 0-18-1-27-2-9-2-14-9-14-22 0-5 2-9 5-11 3-3 7-4 12-5l6-1 7 1 12 0c12 0 24-1 35-4 11-3 20-7 29-11l22-10c6-3 10-5 13-5 z M1155 1260c5 0 8 1 12 4 19 13 36 20 52 22 16 2 35 3 56 3 9 0 12 3 19 10 1 4 2 7 2 10 0 16-15 21-30 21-38 0-131-16-131-51 0-12 9-19 20-19 z" fill="#D37034"/>
		<path d="M1211 987c79 0 135 36 182 98 3 5 8 7 13 7 18 0 65-104 197-104 115 0 217 100 217 214 0 120-95 219-218 219l-389 0c-116 0-221-92-221-216 0-119 97-218 219-218 z M1211 1025c-95 0-181 76-181 179 0 98 81 179 183 179l389 0c98 0 180-78 180-180 0-96-85-177-180-177-130 0-139 103-196 103-56 0-65-104-195-104 z" fill="#9B9B9B"/>
	</g></svg>
