<svg version="1.1" xmlns="http://www.w3.org/2000/svg" viewBox="0 0 2300 2300"><g transform="scale(1,-1) translate(-256, -1869)">
		<path d="M2016-202c11 0 19 7 19 18l0 172c0 11-8 19-19 19-11 0-19-8-19-19l0-172c0-11 8-18 19-18 z M1171-202c11 0 19 7 19 18l0 172c0 11-8 19-19 19-11 0-19-8-19-19l0-172c0-11 8-18 19-18 z" fill="#635994"/>
		<path d="M1077-14c14 0 23 10 23 23 0 13-9 23-23 23l-111 0c-25 3-91 83-111 103l-146 23c-8 1-13 9-22 9-13 0-23-9-23-23 0-10 4-17 13-21 32-16 270-137 284-137l116 0 z M1942 1173c11 0 20 8 23 19l47 288 0 4c0 12-9 23-23 23-11 0-20-8-23-19l-47-289c0-14 7-26 23-26 z" fill="#321B41"/>
		<path d="M2100-46l-223 0 0 243 251-141c17-9 28-28 28-47 0-32-26-55-56-55 z M1310-46l0 243-250-141c-17-11-29-27-29-47 0-32 26-55 56-55l223 0 z M1590 255l178 37 0 73-178 46-182-46 0-73 182-37 z" fill="#CA0B4A"/>
		<path d="M1816-110c34 0 62 28 67 59l35 248 1 13c0 47-39 82-84 82l-491 0c-47 0-84-37-84-84l1-15 44-247c7-33 37-56 68-56l443 0 z" fill="#F92F60"/>
		<path d="M1171-289c59 0 107 49 107 107 0 59-49 107-107 107-59 0-107-49-107-107 0-59 49-107 107-107 z M2016-289c59 0 107 49 107 107 0 59-49 107-107 107-59 0-107-49-107-107 0-59 49-107 107-107 z M1588-290c100 0 184 81 184 184 0 100-81 184-184 184-100 0-184-81-184-184 0-100 81-184 184-184 z" fill="#9B9B9B"/>
		<path d="M1171-245c36 0 63 29 63 63 0 34-27 63-63 63-36 0-63-29-63-63 0-36 29-63 63-63 z M2016-245c34 0 63 27 63 63 0 34-27 63-63 63-36 0-63-29-63-63 0-34 27-63 63-63 z M1588-214c58 0 108 49 108 108 0 58-49 108-108 108-58 0-108-49-108-108 0-63 50-108 108-108 z" fill="#D3D3D3"/>
		<path d="M1171-217c18 0 34 16 34 35 0 19-16 34-34 34-19 0-35-16-35-34 0-19 17-35 35-35 z M2016-217c18 0 35 16 35 35 0 18-16 34-35 34-18 0-34-15-34-34 0-19 16-35 34-35 z M1588-149c24 0 43 18 43 43 0 25-19 43-43 43-24 0-43-18-43-43 0-25 19-43 43-43 z" fill="#1C1C1C"/>
		<path d="M1629 1231l143 4-3 141-142-3 2-142 z" fill="#F9C136"/>
		<path d="M1001 130l171 409c7 15 21 24 37 24l533 1c40 0 45 53 45 84 0 42-7 87-18 131l-334 0c-44 0-66-7-106-10l-213-21c-64-6-97-41-109-107l-83-423 4-70 73-18 z" fill="#9B9B9B"/>
		<path d="M1735 563l117 505c1 4 2 9 2 14 0 117-78 178-165 178-92 0-146-62-164-138l-83-343 293-216 z" fill="#FF6723"/>
		<path d="M1364 708l0 79-38 0 0-79 38 0 z" fill="#321B41"/>
		<path d="M1345 769c25 0 43 21 43 44 0 23-20 43-43 43-23 0-43-20-43-43 0-23 18-44 43-44 z" fill="#433B6B"/>
		<path d="M1251 865l51 16 26 40-64-27c-9-4-14-11-14-22l1-7 z" fill="#F59B31"/>
		<path d="M1287 797c13 0 39 15 53 20 23-8 45-12 70-12l303 2c36 0 62 33 65 65 5 88 15 188 15 273 0 38-30 66-67 66-36 0-64-30-67-64l-12-198c0-5-2-7-7-7l-221-6c-16 0-80-7-91-15l-77-56c-11-7-20-10-20-25 0-13 11-24 25-24l8 2c1-12 13-21 23-21 z" fill="#FDD641"/>
		<path d="M1787 964c3 0 6 1 9 4 3 2 4 5 4 8 1 30 3 60 5 90 1 30 2 60 2 90 0 25-9 45-26 62-17 16-38 24-62 24-23 0-43-8-59-24-17-17-26-36-27-59l-8-170c0-9 6-14 16-15 23-3 48-5 73-7 25-2 50-3 73-3 z" fill="#FF8101"/>
		<path d="M948 42c6 0 11 3 14 9l39 79-76 88-206-16c-12-1-20-14-20-24 0-10 4-17 13-21l229-113c3-1 5-2 7-2 z" fill="#533566"/>
		<path d="M1631 1299c11 0 24 1 38 4 13 2 27 6 40 11 13 5 24 12 35 21 10 8 18 18 23 29l33 77c3 7 6 14 11 22l12 25 9 26c3 8 4 16 4 23 0 28-9 52-27 73-19 21-42 33-70 37-15 2-29 4-44 7-15 3-29 4-44 4-28 0-52-9-73-27-21-19-33-42-37-70l-6-43c-1-2-4-5-9-10l-29-32c-4-5-6-8-6-9 0-9 3-16 10-22 6-6 12-8 19-8l4 0c-2-14-3-28-3-42 0-36 10-61 30-75 19-14 46-21 80-21 z" fill="#FDD641"/>
		<path d="M1616 1487c7 0 7 7 7 13 0 19-17 32-35 32-17 0-34-11-34-30 0-13 54-15 62-15 z" fill="#FFFFFF"/>
		<path d="M1593 1489c2 4 3 9 3 14 0 11-7 25-19 25-15 0-24-16-24-29l1-4 39-6 z" fill="#7D4533"/>
		<path d="M1580 1491c3 4 4 8 4 11 0 7-3 16-10 16-9 0-14-9-14-17l1-7 19-3 z" fill="#000000"/>
		<path d="M1565 1508c3 1 5 3 5 5 0 3-1 5-4 5-1 0-5-3-5-4 0-3 1-5 4-6 z" fill="#FFFFFF"/>
		<path d="M1559 1390c12 0 38 10 38 25 0 6-3 9-8 9-8 0-10-19-29-19-5 0-10 4-15 4-5 0-7-3-7-8 0-10 14-11 21-11 z" fill="#990839"/>
		<path d="M1628 1542c3 3 4 5 4 8 0 18-45 26-57 26-4-3-2-1-5-5l0-6c6-9 28 1 51-23l7 0 z" fill="#D37034"/>
		<path d="M1822 1351c9 0 16 3 21 10 5 6 7 13 7 20 0 9-3 16-8 21-6 5-13 8-21 9l3 0c8 0 16 3 23 9 7 7 14 16 20 27 6 11 11 23 16 38 4 14 8 28 11 42 3 13 5 26 7 37l2 25c0 17-2 31-6 43-4 11-10 21-17 30-8 8-17 15-28 21-11 6-24 12-38 17-5 2-10 3-15 4l-15 2c-5 0-9 1-14 3-5 1-10 4-16 8-9 7-20 10-33 10-6 0-12-1-17-2-6-1-12-2-19-2-11 0-22 3-31 8-9 5-20 7-31 7-9 0-17-1-22-4-6-3-11-6-15-9l-11-10c-4-3-9-4-14-4-16 0-30-4-43-12-13-8-19-21-19-40 0-15 3-26 10-33 6-8 14-14 24-17 10-4 21-6 33-7l33-3 42-9c9-3 18-5 27-7l16-4c4-5 6-12 6-19 0-11 2-19 6-24 3-5 11-8 23-9 9-1 19-6 28-17 9-11 13-21 13-31 0-8-2-16-6-23-5-8-11-14-18-17 2-5 5-10 10-14 4-4 9-7 14-10l0-12 1-21c1-9 3-15 8-19 5-5 11-8 20-9 8-2 19-3 33-3 z" fill="#FFB02F"/>
		<path d="M1985 365l-777 0c-11 0-19 4-26 11-7 7-11 15-11 26l0 124c0 12 3 21 10 27 6 5 14 9 23 11l21 1 36-1 89 57 78-57 307 0 103 640c2 13 6 24 13 35 6 11 14 20 23 28 9 8 19 14 31 19 11 4 23 6 36 6 15 0 28-3 41-8 13-6 24-14 33-23 9-10 17-21 23-34 5-13 8-26 8-41l0-8c0-3 0-5-1-8l-59-365-51-60 31-63-19-118 24 0c9 0 17-1 25-3 7-2 14-6 19-11 5-5 7-13 7-24l0-124c0-10-4-19-11-26-7-7-16-11-26-11 z M1990 1361c51 0 95 38 103 88 7 41 18 83 18 124 0 59-45 104-104 104-52 0-96-37-104-88-7-41-18-83-18-124 0-59 46-104 105-104 z" fill="#433B6B"/>
		<path d="M1345 606c33 0 60 26 60 60 0 33-26 60-60 60-33 0-61-26-61-60 0-34 28-60 61-60 z" fill="#F92F60"/>
		<path d="M1429 564l0 76c0 13-11 25-25 25l-118 0c-14 0-25-10-25-25l0-76 168 0 z M1967 681l19 125-447 0c-34 0-63-26-63-62 0-36 29-63 63-63l428 0 z" fill="#635994"/>
		<path d="M1876 714c18 0 31 14 31 31 0 17-13 31-31 31-18 0-31-14-31-31 0-17 13-31 31-31 z" fill="#321B41"/>
	</g></svg>
