<svg version="1.1" xmlns="http://www.w3.org/2000/svg" viewBox="0 0 2300 2300"><g transform="scale(1,-1) translate(-256, -1869)">
		<path d="M1909-287l158 433-158 428c-139 114-313 181-503 181-190 0-364-67-503-181l-138-428 138-433 1006 0 z" fill="#E6E6E6"/>
		<path d="M1594 216l0 116c0 38-13 77-36 107 96 13 171 95 171 193 0 108-93 195-202 195l-243 0c-111 0-201-88-201-195 0-98 75-180 171-193-23-30-36-69-36-107l0-116c95 0 188 75 188 181 0-102 89-181 188-181 z" fill="#F92F60"/>
		<path d="M2197-287l0 252c0 234-106 460-288 610l0-862 288 0 z M617-287l286 1 0 861c-176-148-288-362-288-611 0-84 1-167 2-251 z" fill="#D3D3D3"/>
		<path d="M1300-287l-155 424c-42 117-165 221-296 221-177 0-331-160-331-337 0-39 8-78 21-115l70-193 691 0 z" fill="#FFCE7C"/>
		<path d="M644-287l-70 193c-13 37-21 76-21 116 0 173 132 320 306 336-11 1-20 2-31 2-185 0-339-148-339-338 0-39 8-79 21-116l70-193 64 0 z" fill="#E19747"/>
		<path d="M848 55c50 0 89 39 89 89 0 50-39 89-89 89-50 0-89-39-89-89 0-50 39-89 89-89 z" fill="#F92F60"/>
		<path d="M1064-161c50 0 89 39 89 89 0 50-39 89-89 89-50 0-89-39-89-89 0-50 39-89 89-89 z" fill="#5092FF"/>
		<path d="M776-225c50 0 89 39 89 89 0 51-38 89-89 89-50 0-89-39-89-89 0-50 39-89 89-89 z" fill="#86D72F"/>
		<path d="M2304-25l0 163c0 38-32 71-71 71-39 0-72-30-72-71l0-163 143 0 z" fill="#E4B29A"/>
		<path d="M2140-271c21 0 38 16 41 36l39 314c5 41 8 82 8 125 0 59-5 117-16 174l-73 28-71-28c-10-57-15-115-15-174 0-43 3-82 8-125l39-314c3-21 21-36 40-36 z" fill="#8C5543"/>
		<path d="M2213 378c-9 48-16 96-31 143l-86 0c-16-47-20-95-28-143l145 0 z" fill="#E6E6E6"/>
		<path d="M2124 503c66 0 107 52 107 116-3-27-27-29-49-29l-12 0c-31 1-40 5-40 37 0 20-28 53-49 53 0 0-48-15-51-15-10-19-14-33-14-54 0-63 50-108 108-108 z" fill="#F3AD61"/>
		<path d="M2173 567c30 0 58 24 58 56 0 19-6 34-6 53 0 40 26 81 26 93 0 15-7 22-22 22-82 0-164-53-199-126l48 0c61 0 18-98 95-98 z" fill="#5092FF"/>
		<path d="M2247-286c36 0 57 31 57 63l0 252c0 32-21 62-57 62l-216 0c-32 0-50-29-50-57 0-17 9-33 22-42-15-11-22-26-22-45 0-19 7-34 22-45-15-11-22-25-22-44 0-19 7-34 22-45-15-11-22-27-22-46 0-26 21-53 50-53l216 0 z" fill="#EEBFAA"/>
		<path d="M1406 539c81 0 144 69 144 145l0 142c0 81-67 145-144 145-81 0-144-69-144-145l0-142c0-79 62-145 144-145 z" fill="#E4B29A"/>
		<path d="M1583 748l134 46c31 11 57 31 76 58 19 27 29 57 29 90l0 300c0 15 3 28 8 39 5 11 11 23 18 35 6 11 12 24 17 38 5 14 8 31 8 50 0 37-10 70-31 99-21 29-49 49-83 62-21 7-39 17-56 30-17 13-31 29-42 48l-609-78c-8-1-17-5-26-10-10-6-19-13-28-21-9-9-16-17-23-26-7-9-13-17-17-24-7-12-11-25-14-38-3-14-5-28-5-42 0-19 3-35 8-48 5-14 10-27 17-38l17-35c5-12 7-25 7-40l0-300c0-34 10-64 29-91 19-27 44-46 76-57l134-47 0 534c13 11 24 27 33 47 9 19 15 38 16 55 8-1 16-2 24-2 15 0 30 2 45 7 23 7 43 19 60 34 15-13 33-23 52-30 19-7 38-11 58-11 3 0 7 0 10 1 3 0 7 0 10 1 1-20 6-38 15-55 9-17 20-32 33-47l0-534 z" fill="#FFF9BA"/>
		<path d="M1774 988c64 0 117 53 117 117 0 63-50 117-117 117-64 0-116-52-116-117 0-64 51-117 116-117 z M1056 988c64 0 116 53 116 117 0 66-52 117-116 117-63 0-117-50-117-117 0-64 53-117 117-117 z" fill="#E4B29A"/>
		<path d="M1478 647c138 0 277 100 294 248 11 142 18 276 27 418 1 12 2 24 2 37 0 172-138 303-311 303l-168 0c-44 0-85-8-123-23-123-50-188-154-188-301l1-16c9-140 17-278 28-418 3-23 13-56 23-77 50-108 160-171 272-171l143 0 z" fill="#EEBFAA"/>
		<path d="M1649 1105l-163 0c-7 0-17 6-17 14 0 51 54 89 101 89 39 0 100-36 100-83 0-10-10-20-21-20 z M1302 1105c7 0 17 6 17 14 0 51-54 89-101 89-39 0-100-36-100-83 0-10 10-20 20-20l164 0 z" fill="#FFFFFF"/>
		<path d="M1618 1105l-127 0c-1 7-2 10-2 17 0 36 29 66 66 66 38 0 65-33 65-66 0-7-1-10-2-17 z M1297 1105c1 7 2 10 2 17 0 36-29 66-66 66-37 0-65-31-65-66 0-7 1-10 2-17l127 0 z" fill="#7D4533"/>
		<path d="M1588 1105l-67 0c-3 7-4 12-4 17 0 21 16 38 38 38 19 0 37-17 37-38 0-5-1-10-4-17 z M1267 1105c3 7 4 12 4 17 0 22-16 38-37 38-21 0-37-16-37-38 0-7 1-12 4-17l66 0 z" fill="#000000"/>
		<path d="M1646 1254c6 0 11 2 15 7 4 4 6 9 6 15 0 9-5 16-15 23-11 7-23 12-36 17-14 4-28 7-41 9-14 2-24 3-30 3-9 0-19-1-28-2-10-2-15-9-15-21 0-7 2-11 5-14 3-3 6-4 11-5l10-1 17 0c19 0 39-4 59-11 4-1 8-3 12-5l14-8c1-1 2-2 3-2 5-3 9-5 13-5 z M1142 1254c5 0 11 3 20 9 30 19 43 19 61 20l41 1c10 0 22 9 22 21 0 23-25 23-43 23-24 0-123-16-123-52 0-11 10-22 22-22 z" fill="#A56953"/>
		<path d="M1534 1137c7 0 12 4 12 11 0 7-5 12-12 12-7 0-11-5-11-12 0-7 4-11 11-11 z M1211 1137c7 0 11 4 11 11 0 7-4 12-11 12-6 0-12-5-12-12 0-7 5-11 12-11 z" fill="#FFFFFF"/>
		<path d="M1432 951c22 0 37 20 37 39 0 20-16 72-28 108-13 36-13 50-35 50-12 0-23-8-26-20-8-29-37-113-37-138 0-19 15-39 37-39l52 0 z" fill="#D19479"/>
		<path d="M1406 823c25 0 48 7 71 20 23 13 55 45 55 57 0 9-4 13-12 13l-6-2c-40-16-65-27-108-27-38 0-74 9-108 27l-6 2c-6 0-12-5-12-12 0-2 1-4 2-7 24-42 75-71 124-71 z" fill="#990839"/>
		<path d="M1856 1366c28 0 53 23 53 52 0 166-134 307-307 307-222 0-443-58-636-177-37-21-64-45-64-90 0-50 39-92 92-92l862 0 z" fill="#212121"/>
	</g></svg>
