<svg version="1.1" xmlns="http://www.w3.org/2000/svg" viewBox="0 0 2300 2300"><g transform="scale(1,-1) translate(-256, -1869)">
		<path d="M1346 252c113 0 464 3 558 58 90 53 141 159 141 265 0 49-21 86-21 134 0 18 6 69 33 69 19 0 53-61 97-61 37 0 42 41 42 70 0 104-48 196-154 241-37 16-78 46-82 92-16 164-64 270-246 321-126 34-160 141-324 141-86 0-154-49-212-107-46 20-106 32-159 32-15 0-30-1-45-3-48-8-165-63-165-124 0-49 100-24 100-43-65-61-68-174-79-261-8-53-82-106-82-217 0-50 21-90 21-139 0-60-82-92-82-223 0-27 6-72 39-72 15 0 30 12 41 12l6 0c8-3 28-40 33-48 9-12 18-23 27-32 28-28 110-81 147-89 65-12 188-16 284-16l82 0 z" fill="#533566"/>
		<path d="M1837 707c80 0 144 64 144 143 0 81-67 144-144 144-81 0-144-67-144-144 0-80 65-143 144-143 z M975 707c80 0 143 62 143 143 0 80-64 144-143 144-79 0-144-63-144-144 0-80 65-143 144-143 z" fill="#00D1ED"/>
		<path d="M2034-281l0 438c-179 160-388 236-628 236-240 0-453-76-632-236l0-438 1260 0 z" fill="#433B6B"/>
		<path d="M1580 120c4 0 6 2 6 6l0 515c0 4-2 6-6 6l-348 0c-4 0-6-2-6-6l0-515c0-4 2-6 6-6l348 0 z" fill="#0074BA"/>
		<path d="M1407 318c179 0 400 162 419 354 7 71 8 141 8 213 0 43 0 84-3 127-5 72-44 108-116 108-62 0-114-4-176-4-165 0-248 22-341 140-5 7-11 15-22 15-5 0-8-3-11-10-47-115-140-112-178-191-11-24-13-57-13-92 0-106 1-198 14-306 24-196 223-354 419-354 z" fill="#37C9CD"/>
		<path d="M1100 1016c-15 0-26 7-26 23 0 38 109 50 130 50l20 0c22-1 49-7 49-28 0-14-10-24-23-24-15 0-30 5-45 5-31 0-62-7-93-22-4 0-6-4-12-4 z M1713 1015c13 0 25 8 25 23 0 37-103 51-130 51l-19 0c-24-2-50-6-50-27 0-14 10-24 23-24 15 0 27 4 42 4 35 0 66-7 95-22 7-3 6-5 14-5 z" fill="#321B41"/>
		<path d="M1443 662c29 0 50 26 50 52 0 20-22 89-38 140-18 51-23 63-49 63-19 0-31-9-36-26-10-31-50-153-50-177 0-27 21-52 50-52l73 0 z" fill="#00A6ED"/>
		<path d="M1114 477c11 0 18 7 18 18 0 105-26 235-148 259l3-37c94-27 109-141 109-222 0-11 7-18 18-18 z M1693 477c11 0 18 7 18 18 0 80 17 203 118 224 1 12 2 25 2 37-129-24-155-151-155-261 0-9 8-18 17-18 z" fill="#00A6ED"/>
		<path d="M2123-281l-245 0c-9 0-20 1-31 4-12 3-24 6-36 10-12 4-23 9-33 15-11 5-19 11-26 17-14 13-28 23-43 32-15 9-32 13-51 13l-40 0c-15 0-28 2-41 5-13 3-24 8-33 17-9 8-14 21-14 38 0 15 3 28 10 38 6 10 14 18 25 24 10 5 21 9 34 12 13 2 25 3 38 3 17 0 33-2 49-6 16-4 32-6 47-6 11 0 21 2 28 7 7 4 12 10 16 17 3 7 6 14 7 23 1 9 2 18 2 27l0 194 141 81 0-20-1-15 1-15c1-10 2-19 5-27 2-8 6-12 12-12 5 0 10 5 17 16 6 10 12 22 18 35 6 13 11 26 16 39l10 25 80-180 20-13 91 129 31-203 21-12 75 56 32-151-27-24-26-27c-13-15-25-32-36-51-11-19-22-37-35-54-13-17-28-32-45-43-17-12-38-18-63-18 z M933-281c35 0 99 22 126 46 29 26 55 45 94 45l39 0c43 0 88 10 88 59 0 62-56 78-106 78-35 0-66-12-97-12-45 0-53 36-53 74l0 194-140 81 1-20-1-30c-1-20-5-39-17-39-6 0-14 6-17 13l-45 102-80-180-20-13-91 129-30-203-21-12-75 56-32-151c19-16 36-32 52-51 52-59 83-166 179-166l246 0 z" fill="#00A6ED"/>
		<path d="M954 104c-40 0-70 33-70 71l0 121c0 38 30 71 70 71 38 0 71-32 71-71l0-121c0-39-33-71-71-71 z M483-87c37 0 69 30 69 68 0 14-4 27-12 38-24 34-41 80-90 80-37 0-68-28-68-68 0-15 4-27 12-38 24-35 40-80 89-80 z M621 24c-27 0-49 13-62 36l-60 103c-7 12-10 24-10 37 0 38 31 72 72 72 24 0 49-12 63-36l60-103c7-12 10-24 10-36 0-41-33-73-73-73 z M778 91c40 0 70 33 70 71 0 31-27 102-39 137-9 29-37 50-68 50-40 0-71-34-71-72 0-31 30-106 40-137 10-30 38-49 68-49 z M2327-87c-39 0-68 31-68 68 0 15 5 27 12 38 24 35 40 80 89 80 40 0 68-31 68-69 0-13-4-26-11-37-24-34-41-80-90-80 z M2190 24c26 0 49 14 62 36l60 103c7 12 10 24 10 36 0 39-31 73-72 73-26 0-49-13-63-36l-60-103c-7-12-10-24-10-37 0-41 34-72 73-72 z M2033 91c30 0 58 18 67 49 11 32 40 109 40 138 0 38-32 71-71 71-32 0-56-20-67-50-10-31-40-107-40-137 0-39 33-71 71-71 z M1856 104c38 0 71 32 71 71l0 121c0 39-33 71-71 71-39 0-71-33-71-71l0-121c0-39 33-71 71-71 z" fill="#37C9CD"/>
		<path d="M1733 911c-13 63-68 107-132 107-64 0-119-44-132-107l264 0 z" fill="#37C9CD"/>
		<path d="M1613 737c74 0 134 60 134 135 0 75-60 134-134 134-75 0-135-59-135-134 0-75 60-135 135-135 z M1217 748c75 0 135 60 135 135 0 75-60 135-135 135-74 0-134-60-134-135 0-75 59-135 134-135 z" fill="#321B41"/>
		<path d="M1595 777c64 0 116 53 116 117 0 66-52 117-116 117-63 0-117-50-117-117 0-64 53-117 117-117 z M1234 777c64 0 117 53 117 117 0 63-50 117-117 117-64 0-117-53-117-117 0-64 53-117 117-117 z" fill="#FFCE7C"/>
		<path d="M1583 854c26 0 44 21 44 45 0 24-18 45-44 45-25 0-45-19-45-45 0-25 19-45 45-45 z M1229 854c26 0 44 21 44 45 0 24-18 45-44 45-25 0-45-19-45-45 0-25 19-45 45-45 z" fill="#990838"/>
		<path d="M1742 911c-13 63-68 107-132 107-60 0-132-44-132-107l264 0 z" fill="#37C9CD"/>
		<path d="M1438 545c-42 54-119 62-176 62l0-26c0-19 15-36 36-36l140 0 z" fill="#FFCE7C"/>
		<path d="M1443 662c29 0 50 26 50 52 0 20-22 89-38 140-18 51-23 63-49 63-19 0-31-9-36-26-10-31-50-153-50-177 0-27 21-52 50-52l73 0 z" fill="#00A6ED"/>
		<path d="M1478 481c0 132-101 166-205 166-51 0-83-31-83-84 0-51 36-82 83-82l205 0 z" fill="#000000"/>
		<path d="M1445 585c-40 51-112 62-175 62l0-26c0-19 15-36 36-36l139 0 z" fill="#FFCE7C"/>
		<path d="M1444 665c27 0 52 21 52 50 0 20-23 87-40 138-18 51-22 63-51 63-16 0-32-10-37-26-11-32-52-149-52-175 0-29 25-50 52-50l76 0 z" fill="#00A6ED"/>
	</g></svg>
