<svg version="1.1" xmlns="http://www.w3.org/2000/svg" viewBox="0 0 2300 2300"><g transform="scale(1,-1) translate(-256, -1869)">
		<path d="M686 30c-113 43-184 155-184 273l0 126c35-26 79-41 124-42 8-126 6-244 60-357 z M1892 34c54 119 49 221 57 354 43 2 82 16 117 42l0-127c0-114-65-220-174-269 z M1730 559c-4 18-6 36-6 54 0 135 120 153 225 153 55 0 108-20 152-58l12 271c1 29 6 57 6 85 0 87-17 171-48 251-151-26-297-39-447-39-261 0-523 22-783 46-107 11-213 21-318 44-46-96-68-199-68-302 0-28 4-55 5-83l13-274c42 40 97 59 152 59 104 0 226-19 226-153 0-18-2-36-6-54l885 0 z" fill="#D3D3D3"/>
		<path d="M1954 378c123 0 225 98 225 224 0 121-98 225-225 225-125 0-225-101-225-225 0-127 102-224 225-224 z M624 378c123 0 225 98 225 224 0 121-98 225-225 225-126 0-224-102-224-225 0-127 102-224 224-224 z" fill="#452829"/>
		<path d="M1417-256c213 0 407 126 492 320 18 42 37 96 40 144 18 269 32 527 48 783 3 25 5 50 5 75 0 311-252 562-564 562l-304 0c-310 0-561-239-561-566 0-24 1-47 4-71 17-256 32-514 51-783 1-23 6-48 14-73 81-260 297-391 517-391l258 0 z" fill="#573739"/>
		<path d="M1341 324c40 0 73 32 73 73 0 7-1 14-3 21l-71 227c-7 23-29 38-52 38-24 0-44-16-51-38l-71-227c-2-7-3-14-3-21 0-40 32-73 73-73l105 0 z" fill="#3D2123"/>
		<path d="M1298 72c85 0 181 40 230 113 3 4 4 8 4 11 0 10-12 20-23 20-3 0-6-1-10-2-67-29-131-44-201-44-75 0-136 14-201 44-4 1-7 2-10 2-10 0-22-9-22-21 0-4 1-7 3-10 53-77 146-113 230-113 z" fill="#290118"/>
		<path d="M1768 605l-310 0c-17 0-32 12-32 31l1 7c19 91 94 156 190 156 86 0 167-57 189-146l1-8c0-21-16-40-39-40 z M1111 605c17 0 33 13 33 32l-1 6c-19 93-99 156-191 156-87 0-166-58-188-146l-1-9c0-22 17-39 38-39l310 0 z" fill="#FFFFFF"/>
		<path d="M1709 605l-240 0c-3 10-4 21-4 33 0 69 54 125 124 125 69 0 124-56 124-125 0-11-1-22-4-33 z M1100 605c3 12 5 23 5 33 0 69-56 125-124 125-69 0-124-56-124-125 0-12 1-23 4-33l239 0 z" fill="#7D4533"/>
		<path d="M1652 605l-126 0c-5 11-9 22-9 33 0 39 34 72 72 72 40 0 71-34 71-72 0-11-3-22-8-33 z M1044 605c5 11 8 22 8 33 0 38-31 72-71 72-40 0-71-34-71-72 0-11 3-22 8-33l126 0 z" fill="#000000"/>
		<path d="M1550 665c12 0 23 10 23 22 0 13-9 23-23 23-12 0-22-11-22-23 0-12 10-22 22-22 z M939 665c12 0 22 10 22 22 0 12-10 23-22 23-13 0-23-9-23-23 0-12 11-22 23-22 z" fill="#FFFFFF"/>
		<path d="M1657 421c19 0 36 15 36 36 0 19-15 36-36 36-86 0-124 59-150 59-21 0-36-18-36-36 0-20 20-37 40-50 55-36 99-45 146-45 z M939 421c31 0 63 6 95 18 31 11 58 28 80 51l1-1 1 1-1 1c7 7 10 15 10 25 0 9-3 18-10 25-7 7-16 11-26 11-7 0-14-3-22-9-9-6-19-13-31-20-12-8-26-15-41-21-16-6-35-9-56-9-10 0-18-3-25-10-7-7-11-16-11-26 0-10 4-18 11-25 7-7 15-11 25-11 z" fill="#341A1C"/>
		<path d="M1999 1008c3 16 5 33 5 49 0 75-49 95-105 97l-58 1-495 0c81-96 198-147 316-147l337 0 z" fill="#D3D3D3"/>
		<path d="M2327 45l0 1120c0 308-249 560-560 560l-655 0c-231 0-446-141-528-371 85-15 170-25 257-33 263-25 524-46 788-46 150 0 294 16 442 39 31-80 48-164 48-251 0-29-3-56-6-85l-12-209c47-43 74-93 74-157 0-75-47-149-108-193l0-87c0 0 93-270 100-287l160 0 z" fill="#F8312F"/>
		<path d="M2250-236c87 0 162 73 162 162 0 91-73 163-162 163-92 0-163-76-163-163 0-92 74-162 163-162 z M1979 1082c106 0 192 85 192 193 0 103-77 191-187 191-72 0-109-42-141-42-32 0-70 42-139 42-71 0-108-43-139-43-32 0-69 43-138 43-73 0-107-43-139-43-32 0-68 43-139 43-71 0-106-43-138-43-32 0-73 43-141 43-69 0-107-42-139-42-31 0-72 42-141 42-104 0-190-88-190-191 0-106 85-193 192-193 70 0 107 42 138 42 32 0 71-42 139-42 69 0 107 42 139 42 29 0 72-42 138-42 69 0 110 42 139 42 32 0 71-42 139-42 67 0 108 42 139 42 29 0 72-42 138-42 69 0 110 42 139 42 29 0 72-42 139-42 z" fill="#F4F4F4"/>
		<path d="M814 838c-19 0-37 16-37 37 0 26 32 45 61 58 67 30 111 36 161 36 32 0 78 0 78-42 0-19-19-35-37-35-13 0-27 2-40 2-37 0-74-7-110-20-18-8-60-36-76-36 z M1744 838c19 0 37 16 37 37 0 11-4 21-12 28-60 55-105 67-213 67-35 0-74-6-74-41 0-19 14-37 36-37 23 0 45 4 68 4 102 0 132-58 158-58 z" fill="#9B9B9B"/>
	</g></svg>
