<svg version="1.1" xmlns="http://www.w3.org/2000/svg" viewBox="0 0 2300 2300"><g transform="scale(1,-1) translate(-256, -1869)">
		<path d="M1999 18c108 45 180 150 180 271 0 179-3 357-3 544 0 113 93 154 93 297 0 135-82 251-212 300-83 32-137 74-182 144-57 91-148 151-266 151-85 0-134-42-202-42-69 0-121 42-203 42-115 0-207-58-265-147-50-78-104-120-185-149-124-47-211-157-211-298 0-144 92-188 92-298 0-178-2-357-2-544 0-117 68-225 180-271l1186 0 z" fill="#FFF9BA"/>
		<path d="M2053 360c120 0 215 97 215 215 0 121-97 216-215 216-121 0-216-99-216-216 0-119 97-215 216-215 z M759 360c121 0 216 97 216 215 0 121-99 216-216 216-121 0-216-99-216-216 0-119 97-215 216-215 z" fill="#8B5C56"/>
		<path d="M1533-215c106 0 208 31 295 91 116 78 217 225 226 365 14 179 25 367 38 546l-3 1c3 45 8 92 8 137 0 101-82 189-185 192l-93 1-94-1c-105 0-205 51-265 138-24 35-10 16-32 55-21 36-40 57-82 57l-171 0c-247 0-452-202-452-453l0-125-4-1c13-183 25-364 40-547 1-21 5-42 12-63 72-248 275-393 509-393l253 0 z" fill="#966661"/>
		<path d="M1533-287c105 0 209 31 297 92 112 77 214 221 224 364l35 562 1 29c-1 9-1 19-1 28l0 34c-46-141-169-507-235-604-10-14-18-23-36-23-62 0-91 132-205 132l-401 0c-115 0-141-124-204-124-18 0-27 9-37 23-38 57-67 140-94 205-56 138-102 264-150 405l-1-161c0-51 5-84 8-124 14-192 9-143 25-382 1-20 5-40 11-61 71-251 280-395 510-395l253 0 z M1514-115c-14 0-36 13-36 28 0 45-18 87-69 87-54 0-75-42-75-87 0-15-22-28-36-28-87 0-143 37-143 130l0 174c0 40 36 66 72 66l359 0c35 0 72-27 72-66l0-174c0-91-65-130-144-130 z" fill="#EA9129"/>
		<path d="M1459 288c37 0 73 31 73 71 0 8-1 15-4 22l-71 228c-6 22-25 38-51 38-24 0-44-16-51-38-12-40-75-214-75-249 0-41 34-72 73-72l106 0 z" fill="#75443E"/>
		<path d="M1406 54c83 0 166 39 212 113 3 4 4 8 4 11 0 10-10 20-20 20-4 0-7-1-10-3-63-31-121-44-186-44-65 0-124 14-186 44-3 2-7 3-10 3-10 0-20-10-20-20 0-3 1-7 4-11 47-73 129-113 212-113 z" fill="#990839"/>
		<path d="M1872 575l-299 0c-16 0-31 12-31 30l1 6c19 88 91 151 183 151 86 0 161-59 182-141l1-9c0-21-16-37-37-37 z M1239 575c16 0 31 12 31 30l-1 6c-19 89-96 151-183 151-86 0-161-59-182-141l-1-9c0-21 16-37 37-37l299 0 z" fill="#FFFFFF"/>
		<path d="M1814 575l-230 0c-3 11-5 22-5 32 0 68 57 120 120 120 68 0 120-57 120-120 0-10-2-21-5-32 z M1228 575c3 9 4 19 4 32 0 67-51 120-119 120-68 0-120-57-120-120 0-10 2-21 5-32l230 0 z" fill="#7D4533"/>
		<path d="M1758 575l-120 0c-5 11-8 21-8 32 0 38 28 68 68 68 40 0 68-30 68-68 0-11-3-21-8-32 z M1174 575c5 9 7 20 7 32 0 38-28 68-68 68-37 0-68-29-68-68 0-11 3-21 8-32l121 0 z" fill="#000000"/>
		<path d="M1661 631c12 0 21 10 21 22 0 12-9 21-21 21-12 0-21-9-21-21 0-12 9-22 21-22 z M1072 631c12 0 21 10 21 22 0 12-9 21-21 21-12 0-21-9-21-21 0-12 9-22 21-22 z" fill="#FFFFFF"/>
		<path d="M952 874c-21 0-37 16-37 36 0 25 32 46 60 59 67 30 111 36 162 36 30 0 77 0 77-40 0-19-14-37-36-37-13 0-27 2-40 2-39 0-75-8-111-21-19-8-62-35-75-35 z M1882 874c21 0 37 15 37 37 0 11-4 21-13 28-27 25-56 43-85 53-38 12-62 14-129 14-35 0-73-7-73-42 0-19 16-36 37-36 23 0 44 4 67 4 104 0 130-58 159-58 z" fill="#372128"/>
	</g></svg>
