<svg version="1.1" xmlns="http://www.w3.org/2000/svg" viewBox="0 0 2300 2300"><g transform="scale(1,-1) translate(-256, -1869)">
		<path d="M932 162l172 409c5 13 15 20 29 20l510 10c40 0 45 51 45 82 0 43-8 88-19 132-205-7-409-23-623-41-64-6-94-40-108-107l-83-401 77-104 z" fill="#9B9B9B"/>
		<path d="M887 84c6 0 10 3 13 9l35 75-79 98-222-21c-10-1-19-11-19-22 0-9 4-16 13-20l252-117 7-2 z" fill="#533566"/>
		<path d="M1666 422l0 177-572 0c-22 0-39-16-39-39l0-138 611 0 z M2004 989c25 0 46 20 46 46 0 27-20 46-46 46l-216 0c-25 0-46-20-46-46 0-25 20-46 46-46l216 0 z" fill="#212121"/>
		<path d="M1093-212c25 0 46 20 46 46l0 376c0 25-20 46-46 46-26 0-46-19-46-46l0-376c0-26 19-46 46-46 z" fill="#9B9B9B"/>
		<path d="M1694-36c13 0 24 5 33 14 9 9 13 19 13 32l0 412c8 8 12 18 12 31l0 249c0 9-2 17-6 24l11 34c5 17 10 36 17 58l21 69 34 121c4 15 6 24 6 27 0 13-4 24-13 33-9 9-20 14-33 14-11 0-20-3-27-9-8-7-14-15-17-25l-89-300-328 0c-24 0-46-4-67-13-21-9-40-22-56-38-16-16-28-34-37-55-9-21-14-44-14-68l0-75c-16 0-30 0-43 1l-7 0c-10 0-20-2-27-4-10-3-17-9-22-18-5-9-8-23-8-42-3-8-10-23-21-45-11-22-23-47-36-76l-85-182c-13-28-23-52-31-71-8-20-12-32-12-36 0-12 4-22 13-31 9-9 19-14 32-14 19 0 33 9 42 27l98 209 0-58c0-13 5-23 14-32 9-9 19-14 32-14 30 0 55-10 75-29 19-20 30-45 31-74 1-13 5-23 14-32 8-9 19-14 32-14l449 0 z M1648 56l-363 0c-18 70-72 126-146 144l0 207 509 0 0-351 z M1660 499l-414 0 0 75c0 44 35 82 82 82l332 0 0-157 z" fill="#F92F60"/>
		<path d="M1100-292c68 0 125 55 125 124 0 71-60 125-125 125-69 0-124-56-124-125 0-70 58-124 124-124 z M1744-296c249 0 454 201 454 455 0 249-200 455-454 455-254 0-455-203-455-455 0-250 203-455 455-455 z" fill="#321B41"/>
		<path d="M910-27c-28 0-214 95-252 112-18 9-27 23-27 42 0 26 20 47 47 47 8 0 15-1 20-4l232-107c18-9 27-23 27-43 0-26-20-47-47-47 z M1744-200c190 0 359 152 359 359 0 191-153 360-359 360-194 0-360-156-360-360 0-200 163-359 360-359 z" fill="#9B9B9B"/>
		<path d="M1744-138c163 0 297 131 297 297 0 162-131 298-297 298-167 0-298-136-298-298 0-161 130-297 298-297 z" fill="#D3D3D3"/>
		<path d="M1744 74c48 0 84 39 84 85 0 46-36 85-84 85-47 0-85-38-85-85 0-47 38-85 85-85 z" fill="#212121"/>
		<path d="M1345 1225l135 48-45 132-134-45 44-135 z" fill="#BB806E"/>
		<path d="M1717 663l-88 508c-14 74-88 126-159 126-94 0-165-76-165-165 0-14 1-23 4-37l48-295 360-137 z" fill="#FF6723"/>
		<path d="M1601 491c10 0 25 0 35 10 16 16 28 85 33 105l72 299 2 15c0 14-5 27-15 39l-214 250c-13 15-28 22-47 22-34 0-61-29-61-62 0-15 5-28 15-40l194-226-65-266c-18-7-46-20-46-42 0-9 9-27 12-38-5-6-7-12-7-18 0-30 67-48 92-48 z" fill="#C68D7B"/>
		<path d="M1529 980l110 99-132 146c-15 16-33 24-55 24-41 0-74-31-74-74 0-19 6-35 19-50l132-145 z" fill="#FF8101"/>
		<path d="M1275 1283c14 0 30 3 49 8 18 5 35 13 52 23 16 9 30 21 42 35 11 13 18 28 20 44l8 82c1 14 3 29 6 44 3 15 4 29 4 43 0 12-3 24-10 35-7 11-16 21-27 30-11 8-23 15-36 20-13 5-26 8-38 8-15 0-30-2-45-5l-45-9c-27-5-49-17-66-38-18-21-27-45-27-72 0-11 1-21 4-31l6-31c-1-1-2-4-4-9l-8-18-7-18-3-10c0-9 4-15 11-20 6-4 12-6 19-6l4 0 1 1c3-13 6-26 10-39 3-13 8-24 15-34 6-10 14-18 25-24 11-6 24-9 40-9 z" fill="#C68D7B"/>
		<path d="M1200 1454l36 5c7 1 13 2 18 5 5 2 7 5 7 8 0 9-3 17-10 22-7 5-14 7-22 7-9 0-18-3-25-8-8-6-12-14-12-24 0-3 1-6 2-10 1-3 3-5 6-5 z" fill="#FFFFFF"/>
		<path d="M1196 1453l39 7c0 17-5 33-23 33-14 0-19-14-19-25 0-6 1-11 3-15 z" fill="#7D4533"/>
		<path d="M1203 1455l19 3 0 7c0 7-4 16-12 16-7 0-11-7-11-14 0-5 1-9 4-12 z" fill="#000000"/>
		<path d="M1202 1470c3 1 4 3 4 6 0 1-4 4-5 4-3 0-4-2-4-5l5-5 z" fill="#FFFFFF"/>
		<path d="M1221 1355c18 0 40 15 40 34 0 5-3 8-8 8-11 0-5-27-33-27-5 0-11 0-11-7 0-7 6-8 12-8 z" fill="#990839"/>
		<path d="M1455 1389c5 0 11 1 18 2 7 1 13 2 19 5 5 3 10 6 14 11 4 4 6 9 6 16 0 9-3 17-9 23-6 6-14 9-23 9l-7-1c8 1 15 6 20 14 5 8 8 17 11 28 3 10 5 20 6 30 1 10 1 18 1 24 0 21-1 42-4 63-3 21-9 39-17 56-9 17-21 30-36 41-16 10-37 15-63 15-13 0-26-2-37-5-12-3-23-7-33-10l-30-11c-10-3-19-5-28-5-6 0-12 0-17 1-6 1-12 1-18 1-9 0-19-1-29-2-10-2-19-5-27-9-8-4-14-10-19-17-5-7-8-17-8-29 0-49 25-73 74-73 11 0 23 1 35 4 11 2 23 3 35 3 7 0 14-1 22-2 7-2 15-5 22-8 7-3 13-8 18-13 5-6 8-13 9-21l10 2 10-2c7-2 13-5 18-9 5-5 9-10 12-16 3-7 4-13 4-20 0-6-2-12-5-19 2-7 4-15 5-24 1-9 3-17 6-24 3-8 7-15 12-20 5-5 13-8 23-8 z" fill="#593B39"/>
		<path d="M1250 1517c4 0 5 5 5 8 0 3-2 6-6 10-11 4-19 7-31 7-7 0-29-2-29-10 0-6 3-9 8-9 7 0 13 3 20 3 14 0 26-9 33-9 z" fill="#593B39"/>
	</g></svg>
