<svg version="1.1" xmlns="http://www.w3.org/2000/svg" viewBox="0 0 2300 2300"><g transform="scale(1,-1) translate(-256, -1869)">
		<path d="M1985 18c27 11 52 25 74 44 22 18 41 39 56 63 15 23 27 49 36 76 8 27 12 56 12 85l0 348-16 62-17 68 31-18 0 67c0 13 1 24 2 36 1 15 5 31 10 46 5 15 13 31 24 48 18 28 32 57 42 86 9 29 14 60 14 93 0 34-5 66-15 97-10 31-24 59-42 85-19 25-41 48-67 68-26 19-55 35-87 46-39 14-74 33-103 56-29 23-55 52-77 87-29 47-67 84-112 111-45 27-96 40-152 40-21 0-39-2-56-6l-49-15-47-14c-15-5-32-7-49-7-17 0-33 2-48 7-15 4-31 9-46 14l-50 15c-17 4-36 6-57 6-55 0-105-13-150-39-45-26-82-62-112-108-23-36-50-66-79-89-30-23-65-43-105-58-31-12-60-28-85-47-26-20-48-43-66-68-19-25-33-53-43-84-10-31-15-63-15-96 0-34 5-65 15-94 9-29 23-58 40-86 11-17 19-33 24-48 5-15 9-31 11-46 1-16 2-32 2-48-1-17-1-35-1-55l18 11-4-16-6-30-10-42 0-383c0-29 4-58 13-85 8-27 20-53 36-76 15-24 34-45 56-63 22-19 47-33 74-44l1176 0 z" fill="#9B9B9B"/>
		<path d="M2039 357c117 0 213 94 213 214 0 117-94 214-213 214-117 0-214-96-214-214 0-120 94-214 214-214 z M755 357c117 0 214 96 214 214 0 117-96 214-214 214-117 0-214-96-214-214 0-117 96-214 214-214 z" fill="#452829"/>
		<path d="M1523-285c212 0 406 130 484 329 14 37 29 81 32 124 14 201 26 412 39 613l-4 0c3 45 8 92 8 137 0 97-78 187-183 190l-93 1c-31-1-62-1-93-1-104 0-203 51-263 137-26 36-6 14-31 55-20 35-41 56-82 56l-169 0c-240 0-449-195-449-450l0-124-4 0c14-212 25-402 40-614 1-20 5-41 12-62 72-249 274-391 505-391l251 0 z" fill="#573739"/>
		<path d="M1449 285c37 0 73 31 73 71 0 8-1 15-4 22l-70 226c-7 23-27 37-51 37-22 0-44-14-51-37-13-39-74-216-74-247 0-41 34-72 73-72l104 0 z" fill="#3D2123"/>
		<path d="M1397 54c83 0 164 41 210 112 3 4 4 8 4 11 0 10-10 19-21 19l-9-2c-61-30-118-44-184-44-67 0-122 15-184 44-4 1-7 2-10 2-11 0-20-9-20-19 0-5 1-8 3-11 46-72 130-112 211-112 z" fill="#990839"/>
		<path d="M1859 571l-296 0c-21 0-31 14-31 36 19 92 99 149 183 149 83 0 158-57 180-140l1-9c0-22-18-36-37-36 z M1231 571c16 0 31 12 31 30l-1 6c-19 88-95 149-182 149-86 0-159-59-180-140l-1-9c0-22 18-36 37-36l296 0 z" fill="#FFFFFF"/>
		<path d="M1802 571l-229 0c-3 11-4 20-4 31 0 67 52 119 118 119 68 0 119-55 119-119 0-11-1-20-4-31 z M1220 571c3 11 5 22 5 31 0 68-55 119-119 119-63 0-119-52-119-119 0-9 2-20 5-31l228 0 z" fill="#7D4533"/>
		<path d="M1746 571l-119 0c-5 9-8 20-8 31 0 39 31 68 68 68 38 0 67-31 67-68 0-11-3-22-8-31 z M1166 571c5 9 8 20 8 31 0 39-31 68-68 68-38 0-67-31-67-68 0-11 3-22 8-31l119 0 z" fill="#000000"/>
		<path d="M1650 626c12 0 21 10 21 22 0 10-10 21-21 21-11 0-21-11-21-21 0-12 9-22 21-22 z M1066 626c12 0 21 12 21 22 0 10-10 21-21 21-10 0-22-9-22-21 0-12 10-22 22-22 z" fill="#FFFFFF"/>
		<path d="M1040 405c53 0 106 12 161 58 3 1 13 11 13 12 7 7 10 15 10 24 0 19-16 36-35 36-24 0-68-58-149-58-18 0-35-17-35-36 0-19 17-36 35-36 z M1763 405c18 0 35 17 35 36 0 19-17 36-35 36-113 0-115 58-149 58-19 0-35-17-35-36 0-9 3-16 9-23 46-55 103-71 175-71 z M1718 1070c24 0 35 19 35 38-71 0-122 3-181 33l-496 0c-19 0-36-15-36-36 0-18 17-35 36-35l642 0 z M1476 1212c-19 23-36 45-49 72l-208 0c-19 0-36-15-36-36 0-19 15-36 36-36l257 0 z" fill="#3D2123"/>
		<path d="M947 867c-22 0-38 16-38 37 0 24 32 44 61 57 72 32 111 36 160 36 29 0 77 0 77-41 0-18-17-35-36-35-13 0-27 2-40 2-39 0-75-7-110-21-16-7-41-23-52-27l0-1c-5-5-13-7-22-7 z M1869 867c21 0 37 17 37 36 0 11-4 21-13 28-27 25-55 43-84 53-38 12-61 14-128 14-35 0-73-6-73-41 0-19 15-36 36-36 21 0 42 4 65 4 107 0 131-58 160-58 z" fill="#9B9B9B"/>
	</g></svg>
