<svg version="1.1" xmlns="http://www.w3.org/2000/svg" viewBox="0 0 2300 2300"><g transform="scale(1,-1) translate(-256, -1869)">
		<path d="M2197-287l0 72c0 289-157 555-417 696 31 61 47 125 47 194 0 232-187 421-420 421-230 0-421-186-421-421 0-45 7-89 21-131l46-55c-29-11-57-28-82-45l-55-325-290-207c-10-66-11-129-11-199l1582 0 z" fill="#635994"/>
		<path d="M1407 580c213 0 371 184 382 391 4 75 12 150 12 225 0 53-28 109-89 109l-248 225c-82 0-155-120-212-120-29 0-27 29-51 29-16 0-20-15-25-27-19-43-49-73-92-92-1-1-4-3-8-4-45-22-65-67-65-112 0-78 9-159 14-233 10-200 165-391 382-391 z" fill="#FDD641"/>
		<path d="M1655 1058c-49 19-100 32-151 45 22 33 55 63 99 63 28 0 99-14 99-52 0-22-33-42-47-56 z M1157 1058c50 19 97 28 150 45-21 33-54 63-98 63-28 0-99-14-99-52 0-21 29-41 47-56 z" fill="#000000"/>
		<path d="M1672 1053l-168 0c-12 0-17 9-17 20 0 47 59 86 103 86 41 0 103-36 103-86 0-10-10-20-21-20 z M1308 1053c9 0 18 7 18 16 0 49-58 90-103 90-41 0-103-36-103-86 0-10 10-20 21-20l167 0 z" fill="#FFFFFF"/>
		<path d="M1640 1053l-130 0c-1 7-2 11-2 18 0 38 26 68 66 68 38 0 68-28 68-68 0-7-1-11-2-18 z M1302 1053c2 6 3 12 3 18 0 37-29 68-67 68-38 0-68-28-68-68 0-7 1-11 2-18l130 0 z" fill="#7D4533"/>
		<path d="M1608 1053l-68 0c-3 5-4 11-4 18 0 21 16 38 38 38 21 0 38-16 38-38 0-7-1-13-4-18 z M1273 1053c1 7 4 11 4 18 0 23-18 38-39 38-21 0-38-16-38-38 0-5 2-11 5-18l68 0 z" fill="#000000"/>
		<path d="M1551 1086c8 0 12 4 12 12 0 8-4 12-12 12-8 0-12-4-12-12 0-8 4-12 12-12 z M1215 1086c8 0 12 4 12 12 0 8-4 12-12 12-8 0-12-4-12-12 0-8 4-12 12-12 z" fill="#FFFFFF"/>
		<path d="M1406 782c51 0 99 28 124 70 1 3 2 5 2 7 0 7-5 13-12 13l-5-2c-40-15-67-28-109-28-20 0-39 2-56 7-22 6-53 23-58 23-7 0-12-6-12-13 0-2 1-4 2-7 24-44 78-70 124-70 z" fill="#990839"/>
		<path d="M1432 911c23 0 37 19 37 40 0 21-16 70-28 107-10 33-12 51-35 51-14 0-23-9-26-21-8-29-37-113-37-138 0-19 15-39 37-39l52 0 z" fill="#FFB02C"/>
		<path d="M1139 1204c11 0 57 25 98 25 11 0 19-2 30-2 11 0 21 7 21 19 0 18-18 24-34 24-56 0-78-9-125-27l0-1c-7-5-11-10-11-17 0-12 9-21 21-21 z M1671 1204c12 0 20 12 20 22 0 32-99 44-118 44-18 0-51 0-51-23 0-12 10-20 21-20 9 0 18 2 29 2 31 0 60-8 88-21 1-3 8-4 11-4 z" fill="#D37034"/>
		<path d="M1407 474c281 0 505 204 519 490l19 361c0 263-298 400-538 400-232 0-540-131-540-403l1-26 19-333c4-69 19-133 46-192 77-177 261-297 474-297 z M1001-180c331 0 633 195 764 511-91-102-211-143-358-143-186 0-350 90-435 257-183-122-312-313-347-535 115-59 243-90 376-90 z M1407 255c189 0 350 126 402 299l0-1c-112-112-255-157-405-157-140 0-284 46-398 150 56-172 217-291 401-291 z M1407 618c-53 0-101 9-145 26-44 17-82 42-115 73-33 31-59 68-78 111-20 43-32 91-35 143l-13 209c0 8 2 17 6 24 4 9 10 17 18 23l274 204c13 9 26 16 41 21 15 5 30 7 45 7 32 0 61-9 87-28l275-204c16-12 24-28 24-47 0-35-1-69-4-104-3-35-5-70-7-105-3-52-14-100-33-143-20-43-46-80-79-111-33-31-72-56-116-73-45-17-93-26-145-26 z" fill="#8D65C5"/>
	</g></svg>
