<svg version="1.1" xmlns="http://www.w3.org/2000/svg" viewBox="0 0 2300 2300"><g transform="scale(1,-1) translate(-256, -1869)">
		<path d="M1831 1117c-65 132-119 266-194 393l161-1c28 0 48 24 48 50 0 36-41 54-76 74-114 65-230 92-366 92-30 0-59-12-88-35-151-121-278-453-340-573l855 0 z" fill="#0074BA"/>
		<path d="M1862 1112c-27 55-56 103-99 146l-719 0c-41-44-71-93-98-146l916 0 z" fill="#533566"/>
		<path d="M2179-287c-36 230-123 436-328 579l-158 104 32 143 224 0c175 0 319 144 319 323 0 176-140 323-319 323l-1087 1c-175 0-319-144-319-323 0-175 141-323 319-323l225 0 31-144-156-105c-208-140-294-364-329-578l557 0c0 0 201 68 215 72 16-4 253-72 253-72l521 0 z" fill="#00A6ED"/>
		<path d="M1904 575c138 0 293 94 293 251 0 162-157 252-293 252l-997 0c-137 0-292-92-292-251 0-160 155-252 292-252l997 0 z" fill="#0074BA"/>
		<path d="M1765 687c57 0 108 45 108 107 0 57-46 108-108 108-59 0-107-48-107-108 0-59 49-107 107-107 z M1047 687c59 0 107 49 107 107 0 60-49 108-107 108-61 0-108-48-108-108 0-59 48-107 108-107 z" fill="#FECA46"/>
		<path d="M1472 327c127 0 264 105 272 245l21 327 0 14c0 71-55 140-133 140l-451 0c-73 0-135-61-135-138 10-118 15-227 22-343 8-138 141-245 272-245l132 0 z" fill="#FDD641"/>
		<path d="M1682-287c114 114 121 451 121 609 0 205-13 410-38 613-1-22-5-44-10-66-46-193-159-343-352-343-88 0-158 31-212 81-85 77-137 221-144 328-4-29-7-57-10-86-17-180-29-342-29-535 0-149 7-489 119-601l555 0 z" fill="#E6E6E6"/>
		<path d="M1406 510c23 0 47 6 70 17 23 12 56 42 56 54 0 8-4 12-13 12l-2 0c-68-23-67-26-111-26-39 0-72 9-108 25l-5 1c-9 0-13-4-13-12l2-6c26-43 79-65 124-65 z" fill="#990839"/>
		<path d="M1621 450c30 0 54 21 54 53 0 19-10 39-29 49l-216 107c-8 4-16 6-24 6-8 0-16-2-24-6l-216-107c-19-10-29-30-29-49 0-32 24-53 54-53 9 0 17 2 23 5l192 96 191-96c7-4 16-5 24-5 z" fill="#D3D3D3"/>
		<path d="M1654 904c21 0 36 18 36 36 0 46-101 67-134 67-26 0-59-3-59-37 0-9 2-16 5-21 10-14 31-14 51-14 43 0 75-31 101-31 z M1156 905c9 0 17 2 22 7l-1 0 1 0c9 5 18 10 26 13 7 3 15 5 22 6l23 3 28 0c11 0 19 4 26 11 6 7 9 15 9 25 0 8-2 15-5 20-3 5-8 8-13 11-6 2-12 3-19 4-7 1-13 1-19 1-45 0-85-12-121-36l1-1-1-1-1 1c-9-7-14-17-14-29 0-9 4-17 11-24 7-7 16-11 25-11 z" fill="#9B9B9B"/>
		<path d="M1658 781l-162 0c-7 0-17 5-17 13 0 48 56 88 100 88 39 0 100-35 100-81 0-10-10-20-21-20 z M1314 781c8 0 17 6 17 15 0 48-57 86-100 86-39 0-100-35-100-81 0-10 10-20 21-20l162 0 z" fill="#FFFFFF"/>
		<path d="M1627 781l-125 0c-2 5-3 10-3 17 0 35 28 65 65 65 37 0 65-30 65-65 0-7-1-10-2-17 z M1308 781c1 3 2 6 2 9l0 8c0 35-26 65-64 65-37 0-65-30-65-65 0-7 1-10 2-17l125 0 z" fill="#7D4533"/>
		<path d="M1597 781l-65 0c-3 4-5 10-5 17 0 21 15 37 37 37 21 0 37-15 37-37 0-7-1-12-4-17 z M1278 781c3 4 5 10 5 17 0 21-15 37-37 37-22 0-38-16-38-37 0-6 2-12 5-17l65 0 z" fill="#000000"/>
		<path d="M1544 812c7 0 11 5 11 12 0 7-4 11-11 11-7 0-12-4-12-11 0-6 6-12 12-12 z M1223 812c7 0 12 6 12 12 0 7-5 11-12 11-7 0-11-4-11-11 0-7 4-12 11-12 z" fill="#FFFFFF"/>
		<path d="M1438 632c21 0 39 17 39 39 0 19-30 106-39 133-4 12-16 19-28 19-12 0-24-7-28-19-8-30-39-109-39-134 0-21 17-38 39-38l56 0 z" fill="#FFB02C"/>
		<path d="M2268 0l0 150c0 40-34 66-71 66-37 0-72-26-72-66l0-150 143 0 z" fill="#FECA46"/>
		<path d="M2128-80c21 0 38 7 51 22 12 15 18 32 18 52l0 1144c0 5 6 12 18 20 12 7 25 18 40 32 15 13 28 31 40 52 12 21 18 48 18 81 0 33-9 65-26 96-18 31-42 54-72 69-3 2-7 3-11 3-11 0-17-5-20-14-2-7-3-16-3-26l0-11c0-15 1-30 2-47l1-18c0-10-1-19-3-29-3-15-8-27-16-36-8-10-21-15-40-15-18 0-31 5-39 15-8 9-13 21-15 36-2 10-3 19-3 29l3 65c0 15-1 27-4 37-3 9-10 14-20 14-4 0-7-1-10-3-30-16-54-39-71-68-18-29-27-61-27-95 0-40 9-73 27-98 18-26 43-49 75-70l9-7c2-3 3-7 3-12l0-1144c0-21 7-38 22-52 15-15 32-22 53-22 z" fill="#F3AD61"/>
		<path d="M2212-287c36 0 56 33 56 65l0 265c0 32-20 65-56 65l-217 0c-33 0-50-32-50-61 0-17 9-33 22-44-15-11-22-28-22-47 0-17 7-35 22-46-15-13-22-28-22-47 0-19 7-36 22-47-15-11-22-25-22-44 0-29 17-59 50-59l217 0 z" fill="#FDD641"/>
		<path d="M2125 1224c109 0 197 88 197 198 0 109-87 198-197 198-109 0-198-88-198-198 0-109 88-198 198-198 z" fill="#00D1ED"/>
		<path d="M2210 1429c33 0 53 27 53 57 0 41-36 83-79 83-33 0-54-26-54-56 0-40 37-84 80-84 z" fill="#B4F6FC"/>
		<path d="M1203 676c36 0 75 14 101 41l1 0c4 4 6 9 6 14 0 12-10 22-22 22-10 0-26-18-54-29-18-8-53-2-53-27 0-10 10-21 21-21 z M1617 676c11 0 21 11 21 21 0 12-9 21-21 21-48 0-71 35-87 35-11 0-21-11-21-21 0-4 3-12 6-15 34-26 61-41 102-41 z" fill="#F59B31"/>
	</g></svg>
