<svg version="1.1" xmlns="http://www.w3.org/2000/svg" viewBox="0 0 2300 2300"><g transform="scale(1,-1) translate(-256, -1869)">
		<path d="M2197-215c-23 224-129 429-298 578l-277-223 0-355 575 0 z M1047-215l0 355-278 223c-171-148-276-354-297-578l575 0 z" fill="#433B6B"/>
		<path d="M1304 0c72 0 143 13 211 36l107 564c-104 32-213 47-322 47-111 0-219-16-325-47l106-558c72-28 147-42 223-42 z" fill="#E4B29A"/>
		<path d="M1444-215l70 355c-56-20-115-29-175-29-64 0-125 12-185 33l71-359 219 0 z" fill="#E6E6E6"/>
		<path d="M1622-215c31 62 420 870 420 880 0 11-7 18-18 18l-438 0-180-898 216 0 z M1262-215l-179 898-439 0c-11 0-18-7-18-18 0-11 388-815 421-880l215 0 z" fill="#FF6723"/>
		<path d="M1511 640l135 47c32 11 57 31 76 58 19 27 28 57 28 90l0 299c0 15 3 28 8 40 5 11 11 23 18 35 6 11 12 24 17 38 5 14 8 31 8 50 0 37-10 70-31 99-21 28-48 48-83 61-21 8-40 18-56 31-16 12-30 28-42 47-16 25-37 45-62 60-25 15-53 22-83 22-19 0-38-4-55-11-18-7-36-11-55-11-9 0-18 1-27 4-9 2-17 4-26 7l-27 8c-9 2-19 3-29 3-30 0-57-7-82-20-25-14-46-34-62-59-13-20-28-36-43-49-15-13-34-24-57-32-34-13-61-33-82-62-21-29-32-62-32-99 0-19 3-36 8-49 5-14 11-27 17-38l17-35c5-11 8-24 8-39l0-300c0-16 3-32 8-47 5-15 12-30 21-43 9-13 20-25 33-35 13-10 27-18 42-23l135-46 0 533c13 13 24 29 33 47 9 17 14 36 15 55 3-1 7-1 10-1l10 0c20 0 40 4 59 11 19 7 36 17 51 30 17-15 38-27 61-34 16-5 32-7 48-7 6 0 13 0 20 1 3-21 8-40 16-55 7-16 18-32 32-47l0-534 z" fill="#FFF9BA"/>
		<path d="M1682 880c68 0 119 57 119 120 0 65-53 120-119 120-65 0-119-55-119-120 0-63 52-120 119-120 z M986 880c66 0 118 54 118 120 0 63-49 120-118 120-68 0-119-57-119-120 0-65 53-120 119-120 z" fill="#E4B29A"/>
		<path d="M1404 539c29 0 57 4 84 13 27 8 52 20 75 35 23 15 43 34 61 55 18 21 32 45 43 72l12 33c3 11 5 22 6 33l12 174 10 174c1 6 1 12 1 18l0 18c0 14-3 27-8 40-5 13-12 24-21 34-9 10-20 18-32 24-13 6-26 9-40 9l-44 1-50-1c-21 0-40 3-58 7-21 5-40 14-58 28-18 14-36 36-54 66-5 9-11 17-18 22-7 5-16 8-27 8l-93 0c-31 0-61-6-90-17-29-12-55-28-78-49-23-21-42-45-55-73-14-28-21-58-21-90 0-25 1-47 3-65l6-66 17-262c1-11 4-22 7-33 3-12 7-23 11-33 11-27 25-51 43-72 18-21 39-40 62-55 23-15 48-27 75-35 27-9 54-13 83-13l136 0 z" fill="#EEBFAA"/>
		<path d="M1334 715c25 0 48 7 71 20 23 13 54 45 54 57 0 9-4 13-12 13l-2 0c-69-23-59-29-111-29-40 0-72 9-107 28l-6 2c-7 0-11-4-11-13 0-2 1-4 2-7 24-44 76-71 122-71 z" fill="#990839"/>
		<path d="M1104 755l261 371-136 0 88 272c-7 3-12 4-19 4l-93 0c-15 0-28-1-43-4l-153-448 131 0-36-195 z" fill="#F92F60"/>
		<path d="M1588 997l-163 0c-7 0-16 6-16 14 0 52 55 89 100 89 40 0 99-36 99-83 0-10-10-20-20-20 z M1244 997c7 0 16 6 16 14 0 50-51 89-99 89-42 0-99-37-99-83 0-10 10-20 20-20l162 0 z" fill="#FFFFFF"/>
		<path d="M1556 997l-125 0c-1 7-2 10-2 17 0 35 28 66 65 66 18 0 33-7 46-20 15-17 18-40 18-54 0-3-1-6-2-9 z M1238 997c1 3 2 6 2 9l0 8c0 35-26 66-64 66-37 0-65-31-65-66 0-7 1-10 2-17l125 0 z" fill="#7D4533"/>
		<path d="M1526 997l-65 0c-3 5-4 10-4 17 0 22 16 38 37 38 19 0 37-17 37-38 0-6-2-12-5-17 z M1208 997c3 5 5 11 5 17 0 21-18 38-37 38-21 0-37-16-37-38 0-7 1-12 4-17l65 0 z" fill="#000000"/>
		<path d="M1474 1029c7 0 11 5 11 12 0 7-4 11-11 11-7 0-12-4-12-11 0-6 6-12 12-12 z M1154 1029c7 0 11 5 11 12 0 7-4 11-11 11-7 0-12-4-12-11 0-6 6-12 12-12 z" fill="#FFFFFF"/>
		<path d="M1361 845c22 0 36 20 36 39 0 13-7 39-15 68-18 54-19 90-47 90-12 0-22-9-25-20-8-29-38-111-38-137 0-21 14-40 37-40l52 0 z" fill="#D19479"/>
		<path d="M1584 1152c5 0 10 2 14 6 4 3 6 8 6 13 0 8-5 15-14 22-10 6-21 11-34 16-13 4-26 7-39 10-13 2-23 3-29 3l-12 0c-5 0-10-1-15-2-5-1-8-3-11-6-3-3-5-6-5-11 0-7 1-11 4-14 3-3 6-5 10-6l10-1 17 0c12 0 23-1 34-4 11-3 20-7 29-11l22-10c6-3 10-5 13-5 z M1086 1152c5 0 8 1 12 4 38 25 67 26 109 26 10 0 19 6 19 17 0 18-15 23-29 23-34 0-131-15-131-51 0-12 9-19 20-19 z" fill="#A56953"/>
		<path d="M2268 144l0 150c0 40-34 66-71 66-37 0-72-26-72-66l0-150 143 0 z" fill="#E4B29A"/>
		<path d="M2102 455c95 0 177 78 177 177 0 95-78 177-177 177-100 0-177-82-177-177 0-100 82-177 177-177 z" fill="#321B41"/>
		<path d="M2099-15c-27 0-53 21-56 50l-47 455 211 0-52-455c-3-29-29-50-56-50 z M2275 597c22 0 41 18 41 41 0 23-19 41-41 41l-343 1c-22 0-41-18-41-41 0-23 19-41 41-41l343-1 z" fill="#D3D3D3"/>
		<path d="M2100 319c19 0 34 16 34 34 0 19-16 35-34 35-19 0-35-17-35-35 0-21 17-34 35-34 z" fill="#F4F4F4"/>
		<path d="M2205-215c40 0 63 35 63 71l0 288c0 36-23 72-63 72l-240 0 0-2c-36 0-56-32-56-64 0-18 10-37 25-48-16-11-25-32-25-51 0-21 8-39 25-52-18-11-25-31-25-51 0-21 8-38 25-51-15-11-25-30-25-48 0-33 20-64 56-64l240 0 z" fill="#EEBFAA"/>
	</g></svg>
