<svg version="1.1" xmlns="http://www.w3.org/2000/svg" viewBox="0 0 2300 2300"><g transform="scale(1,-1) translate(-256, -1869)">
		<path d="M1945-287c258 0 467 206 467 467 0 215-148 396-342 450 7 24 10 49 10 76 0 164-131 300-300 300-165 0-300-133-300-300 0-90 40-172 105-228-72-87-107-193-107-298 0-258 206-467 467-467 z M867-287c258 0 467 206 467 467 0 105-35 211-107 298 65 56 105 138 105 228 0 165-133 300-300 300-164 0-300-131-300-300 0-27 3-52 10-76-204-56-342-241-342-450 0-258 206-467 467-467 z" fill="#E6E6E6"/>
		<path d="M2197-287l0 72c0 436-354 790-791 790-435 0-791-352-791-790l0-72 1582 0 z" fill="#00A6ED"/>
		<path d="M1404-284l361 774c-56 30-111 46-174 65-22 6-39 24-39 50l0 141c0 78-63 148-147 148-79 0-148-64-148-148l0-141c0-26-17-44-39-50-62-19-116-35-171-64l357-775 z" fill="#F4C6AD"/>
		<path d="M1756 988c64 0 117 53 117 117 0 63-50 117-117 117-64 0-116-52-116-117 0-64 51-117 116-117 z M1056 988c64 0 116 53 116 117 0 66-52 117-116 117-63 0-117-50-117-117 0-64 53-117 117-117 z" fill="#F4C6AD"/>
		<path d="M1547-287l281 733c7 18 9 42 9 62 0 173-146 247-287 247l0-144c0-80 93-40 93-96 0-24-13-62-21-84l-216-539-216 539c-8 21-21 61-21 84 0 56 93 17 93 96l0 144c-153 0-287-84-287-247 0-20 2-44 9-62l281-733 282 0 z" fill="#3BC6F6"/>
		<path d="M1520 647c123 0 226 95 234 220l29 423c0 32-2 73-15 114-48 155-180 249-340 249l-54 0c-197 0-346-160-346-354l28-432c8-123 109-220 233-220l231 0 z" fill="#FFD7C2"/>
		<path d="M1406 809c25 0 48 6 71 19 23 13 55 45 55 57 0 9-4 13-13 13l-2 0c-73-25-56-28-111-28-37 0-73 9-108 27l-6 2c-7 0-12-6-12-13 0-2 1-4 2-7 24-43 75-70 124-70 z" fill="#990839"/>
		<path d="M1432 953c22 0 37 19 37 38 0 20-16 70-28 109-13 37-13 50-35 50-12 0-23-8-26-20-8-29-37-113-37-139 0-19 15-38 37-38l52 0 z" fill="#F1B99B"/>
		<path d="M1663 1102l-163 0c-7 0-17 6-17 14 0 48 50 93 100 93 43 0 100-38 100-86 0-11-10-21-20-21 z M1316 1102c9 0 17 7 17 16 0 51-53 91-100 91-43 0-101-38-101-86 0-10 10-21 21-21l163 0 z" fill="#FFFFFF"/>
		<path d="M1631 1102l-126 0c-1 3-2 6-2 9l0 9c0 37 25 69 65 69 39 0 66-34 66-69 0-6-1-12-3-18 z M1311 1102c1 7 2 11 2 18 0 37-25 69-65 69-39 0-66-34-66-69 0-7 1-11 2-18l127 0 z" fill="#7D4533"/>
		<path d="M1601 1102l-66 0c-3 5-4 11-4 18 0 21 14 39 37 39 23 0 38-18 38-39 0-7-2-13-5-18 z M1281 1102c3 5 4 11 4 18 0 22-16 39-37 39-23 0-38-18-38-39 0-7 2-13 5-18l66 0 z" fill="#000000"/>
		<path d="M1548 1135c7 0 12 6 12 12 0 7-5 12-12 12-7 0-11-5-11-12 0-7 4-12 11-12 z M1225 1135c8 0 12 4 12 12 0 8-4 12-12 12-7 0-11-5-11-12 0-7 4-12 11-12 z" fill="#FFFFFF"/>
		<path d="M1152 1218c9 0 17 3 24 8 17 11 33 18 48 19 14 1 31 2 50 2 22 0 40 18 40 40 0 38-33 42-61 42-36 0-141-20-141-70 0-23 18-41 40-41 z M1657 1218l0 1c22 0 39 18 39 41 0 49-100 70-139 70-29 0-63-6-63-42 0-32 21-39 42-39l22 0c51 0 75-31 99-31 z" fill="#212121"/>
		<path d="M1755 1132c11 1 20 6 28 14 8 7 13 16 14 26l40 239 0 13c0 31-5 55-16 72-11 17-24 31-39 42-16 11-33 22-52 32-19 10-36 24-52 41l-35 39c-12 13-24 24-37 35-13 11-26 19-41 26-15 6-33 9-52 9-19 0-37-3-54-10-17-7-35-10-54-10-10 0-20 1-29 4l-27 9-27 8c-9 3-19 4-29 4-19 0-35-3-49-10-15-7-28-16-40-27-13-11-24-23-35-36l-34-39c-16-17-33-31-52-41-19-10-36-21-52-32-16-11-29-25-40-42-11-17-16-42-16-74 0-5 0-9 1-13 0-4 0-8 1-13l38-226c2-11 7-20 15-27 8-7 18-12 29-13l-4 53c-2 18-3 36-3 53 0 13 2 24 7 32 4 8 9 15 15 21l19 19c7 7 12 15 16 25 4 10 6 21 7 32l0 34-1 16 1 16c0 10 2 18 7 25 4 6 13 11 27 16 13 5 29 9 48 12l59 9c21 2 41 4 61 5l53 3c16 1 28 1 36 1 8 0 20 0 36-1l54-3c19-1 40-3 61-5l60-9c18-3 34-7 48-11 13-5 22-10 26-16 5-7 7-15 8-25 1-10 1-21 1-32l-1-17 1-17c0-12 2-23 6-33 4-9 9-17 15-23l18-19 15-20c4-8 6-18 6-30 0-19-1-37-2-55l-4-56 z" fill="#212121"/>
		<path d="M2412-287l0 431-215 0c-229 0-432-180-432-431l647 0 z M1047-287c0 239-192 431-432 431l-215 0 0-431 647 0 z" fill="#F4F4F4"/>
	</g></svg>
