<svg version="1.1" xmlns="http://www.w3.org/2000/svg" viewBox="0 0 2300 2300"><g transform="scale(1,-1) translate(-256, -1869)">
		<path d="M1406 467c334 0 611 269 611 611l0 122-72 94-1067 0-83-69 0-147c0-334 269-611 611-611 z" fill="#290118"/>
		<path d="M1981-287l144 72 0 215c0 69-23 151-45 215-8 23-22 50-27 73-3 13-2 28-5 43-11 61-25 126-67 176-21 25-46 45-71 66-145 122-324 182-504 182-181 0-360-60-507-185-48-40-94-80-114-148-11-34-22-73-23-113-2-33-19-62-30-94-22-64-45-146-45-215l0-215 144-72 1150 0 z" fill="#F92F60"/>
		<path d="M1504 467c74 0 139 59 139 136l0 116-485 0 0-116c0-76 64-136 140-136l206 0 z" fill="#290118"/>
		<path d="M2197-287l0 251c0 235-106 461-288 611l0-862 288 0 z M903-287l0 862c-180-151-288-372-288-611l0-251 288 0 z M1442 0l0 467 74 0c73 0 142 56 142 136l0 116-342 0 0-182c0-33 24-60 54-67l0-470 72 0 z" fill="#CA0B4A"/>
		<path d="M1909-287l0 287-1006 0 0-287 1006 0 z" fill="#FCD53F"/>
		<path d="M1585 748l136 46c31 11 57 30 76 57 19 27 29 58 29 91l0 300c0 12 2 22 5 31 3 8 7 16 11 23 4 7 8 14 11 21 3 7 5 14 5 23 0 16-4 32-13 49-9 16-18 32-28 47l-28 43c-9 13-13 25-13 36 0 5 1 10 2 15 1 5 2 10 2 15 0 6-2 10-5 13-3 3-8 5-13 7-23 9-41 20-56 31-15 11-30 26-43 47-11 17-26 25-45 25-17 0-34-2-50-7-17-5-34-8-51-8-6 0-12 3-17 10l-16 20-15 21c-5 6-11 9-16 9-5 0-12-2-21-5-9-4-17-6-26-6-9 0-17 2-26 6-9 3-16 5-21 5-5 0-10-3-15-9l-16-21-16-20c-5-7-11-10-17-10-17 0-34 3-51 8-17 5-34 8-51 8-10 0-18-2-25-5-7-4-13-10-18-19-13-20-28-36-43-48-16-13-35-23-58-32-10-4-19-12-26-23-7-12-14-25-19-40l-15-43c-5-15-9-27-14-36l-19-33c-8-13-12-25-12-36 0-8 2-16 6-23 4-8 9-16 14-24l14-28c4-10 6-22 6-36l0-300c0-34 10-64 29-91 19-27 45-46 77-57l136-47 0 534c13 13 24 29 33 47 9 17 14 36 15 55 3-1 7-1 11-1 3-1 7-1 10-1 20 0 40 4 59 11 19 7 36 17 51 30 17-15 38-26 61-33 15-5 31-8 47-8 8 0 15 1 23 2 3-21 8-40 16-55 8-16 19-32 33-47l0-534 z" fill="#000000"/>
		<path d="M1757 988c68 0 120 57 120 120 0 68-57 120-120 120-68 0-120-57-120-120 0-68 57-120 120-120 z M1054 988c68 0 120 57 120 120 0 68-57 120-120 120-68 0-120-57-120-120 0-68 57-120 120-120 z" fill="#452829"/>
		<path d="M1476 647c29 0 57 4 84 13 27 8 53 20 76 35 23 15 44 33 62 55 18 21 33 45 44 72l12 33c3 11 5 22 6 33l12 174 10 174c1 6 1 12 1 18l0 18c0 29-9 54-28 75-19 20-44 30-74 31-31 1-58 1-83 1l-10 0c-21 0-42 3-60 7-21 5-41 14-60 29-19 14-37 36-54 65-5 9-11 17-17 22-7 5-16 8-28 8l-94 0c-31 0-62-6-91-17-29-12-55-28-78-49-23-21-42-45-56-73-14-28-21-58-21-91 0-25 1-47 3-65l6-66 17-261c1-11 4-22 7-33 3-12 7-23 11-33 11-27 25-51 44-72 18-22 39-40 62-55 23-15 49-27 76-35 27-9 55-13 84-13l137 0 z" fill="#573739"/>
		<path d="M1406 823c25 0 48 7 71 20 23 13 55 45 55 57 0 9-4 13-12 13l-6-2c-42-15-65-27-108-27-38 0-74 9-108 27l-6 2c-6 0-12-5-12-12 0-2 1-4 2-7 24-42 75-71 124-71 z" fill="#990839"/>
		<path d="M1662 1105l-164 0c-7 0-17 6-17 14 0 47 52 89 101 89 39 0 100-36 100-83 0-10-10-20-20-20 z M1315 1105c7 0 16 6 16 14 0 48-51 89-100 89-39 0-101-35-101-82 0-10 10-21 21-21l164 0 z" fill="#FFFFFF"/>
		<path d="M1630 1105l-126 0c-1 3-2 6-2 9l0 8c0 35 28 66 65 66 18 0 33-6 46-19 16-17 19-40 19-55 0-3-1-6-2-9 z M1309 1105c1 7 2 10 2 17 0 35-27 66-65 66-36 0-66-29-66-66 0-7 1-10 2-17l127 0 z" fill="#7D4533"/>
		<path d="M1600 1105l-66 0c-3 5-4 10-4 17 0 22 16 38 37 38 21 0 37-16 37-38 0-7-1-12-4-17 z M1279 1105c3 5 4 10 4 17 0 22-16 38-37 38-21 0-38-16-38-38 0-6 2-12 5-17l66 0 z" fill="#000000"/>
		<path d="M1547 1137c7 0 11 5 11 12 0 7-4 11-11 11-7 0-12-4-12-11 0-8 4-12 12-12 z M1223 1137c8 0 12 4 12 12 0 7-5 11-12 11-7 0-11-4-11-11 0-7 4-12 11-12 z" fill="#FFFFFF"/>
		<path d="M1433 953c22 0 37 20 37 39 0 18-16 71-28 107-12 32-12 51-35 51-14 0-23-9-26-21-8-29-38-113-38-136 0-19 15-40 37-40l53 0 z" fill="#3D2123"/>
		<path d="M1658 1260c5 0 10 2 14 6 4 3 6 8 6 13 0 8-5 15-15 22-10 6-22 11-35 16-13 4-27 7-40 10-13 2-23 3-30 3-9 0-18-1-27-2-9-2-14-9-14-22 0-5 2-9 5-11 3-3 7-4 12-5l6-1 7 1 12 0c12 0 24-1 35-4 11-3 20-7 29-11l22-10c6-3 10-5 13-5 z M1155 1260c5 0 8 1 12 4 19 13 36 20 52 22 16 2 35 3 56 3 9 0 12 3 19 10 1 4 2 7 2 10 0 16-15 21-30 21-38 0-131-16-131-51 0-12 9-19 20-19 z" fill="#000000"/>
		<path d="M2017 1101l0 121c0 81-67 144-144 144 0 194-154 359-359 359l-216 0c-194 0-359-154-359-359-81 0-144-67-144-144l0-121c0 107 87 193 192 193l837 0c106 0 193-85 193-193 z" fill="#F92F60"/>
		<path d="M1604 1366l0 94c0 109-93 193-198 193-105 0-198-82-198-193l0-94 396 0 z" fill="#321B41"/>
		<path d="M1404 1402c24 0 45 7 64 22 19 15 28 35 28 61 0 4 0 9 1 16 0 6-3 9-10 9-3 0-6-1-7-3-1-3-5-4-10-4-11 0-18 6-19 18l-1 15 2 24c1 14 2 27 2 39-1 12-6 18-15 18-3 0-7-1-12-4l-12-8c-13-8-23-17-28-26-6-10-10-19-12-27-3-8-5-15-6-20-1-6-5-9-11-9-6 0-11 3-14 8-3 5-8 7-14 7-9 0-14-4-14-13 0-13 2-26 6-40 3-15 9-28 16-40 7-13 17-23 28-31 11-8 23-12 38-12 z" fill="#F9C23C"/>
		<path d="M1756-287c21 74 252 924 252 943 0 17-11 32-27 36-27 8-82 27-106 27-16 0-31-11-35-27l-263-979 179 0 z" fill="#6D4534"/>
		<path d="M2158 80c20 0 38 8 55 24 16 16 30 35 42 58 12 22 22 45 31 68 8 23 14 43 18 58 3 9 6 20 11 32l14 37c5 12 9 24 12 36 3 12 5 22 5 31 0 7-1 15-2 22l-4 21-72 102 0-30-82 23c-9-1-18-1-27-1-21 0-42 2-63 8l-303 81c-2 1-5 1-9 1-15 0-24-7-28-20-1-6-5-18-10-37l-18-67c-7-25-15-52-22-80l-21-79c-7-25-12-45-16-62-5-17-7-26-7-28 0-7 2-14 7-19 5-5 11-9 18-11l303-81c15-4 30-9 43-16 13-7 27-16 40-25 7-5 12-8 17-8l14 0c4-1 9-3 16-7 6-5 15-14 28-29 4-1 7-2 10-2 z" fill="#9B9B9B"/>
		<path d="M2144 60l4 1c138 40 228 160 228 301 0 72-31 163-89 218-3 3-7 5-11 5-8 0-69-21-90-23 68-42 112-116 112-201 0-126-103-231-227-234 23-19 42-38 61-61 3-4 7-6 12-6 z" fill="#D3D3D3"/>
	</g></svg>
