<svg version="1.1" xmlns="http://www.w3.org/2000/svg" viewBox="0 0 2300 2300"><g transform="scale(1,-1) translate(-256, -1869)">
		<path d="M2034-281l0 438c-179 160-388 236-628 236-240 0-453-76-632-236l0-438 1260 0 z" fill="#433B6B"/>
		<path d="M1580 120c4 0 6 2 6 6l0 515c0 4-2 6-6 6l-348 0c-4 0-6-2-6-6l0-515c0-4 2-6 6-6l348 0 z" fill="#0074BA"/>
		<path d="M1208 470l36 1 63 0c115 0 230 2 346 6l32 0c12 0 25 0 38 1 13 0 26 0 38 1l29 3c3 1 8 3 15 7l14 9c29 19 51 45 66 77 15 32 24 65 25 99 1 41 2 82 2 123l0 85c0 42 1 84 3 126 1 19 4 36 10 52 6 16 12 32 19 48 6 16 12 33 17 51 5 18 8 39 8 62 0 11-1 22-2 35-1 12-5 23-10 33 8 0 18 0 29 1 11 1 21 3 31 6 10 3 19 7 26 13 7 6 10 15 10 26 0 5-1 10-2 14-2 4-4 8-7 12-9 15-21 30-36 45-16 15-33 29-52 42-19 12-39 22-59 31-20 8-39 13-56 15-5 1-12 1-22 2-10 0-20 0-31 1-11 0-22 1-31 2-10 1-17 2-20 4-11 5-22 12-32 19-11 7-21 15-30 22 6 13 15 25 27 36 12 11 24 22 37 32 13 10 24 20 33 29 9 9 14 18 14 27 0 12-4 22-13 29-9 7-19 12-30 16-12 3-24 6-37 7-13 1-23 1-31 1-27 0-52-2-75-6-24-4-46-11-66-21-20-11-38-25-53-42-16-18-29-40-39-67-13-5-29-9-47-10-19-2-35-3-49-3-17 0-33 1-49 4-16 2-32 3-49 3-18 0-35-3-52-9-17-6-33-14-48-23-15-10-30-21-44-33-14-12-27-24-39-36-12-11-22-20-31-25-9-5-18-9-27-11-9-3-19-5-29-6-10-1-22-3-37-6-35-7-63-19-86-36-23-17-42-37-56-61-14-24-24-51-30-80-6-29-9-60-9-93 0-7 1-16 2-26 1-10 3-20 6-29 3-9 7-17 13-24 6-7 14-10 24-10 7 0 14 2 20 5 6 3 12 7 17 11l13 11c3 3 7 5 10 5 5 0 10-3 13-10l6-16c3-8 5-22 7-43 2-21 4-45 5-72l3-87 4-168c1-24 1-42 2-55 1-19 5-38 12-57 7-19 16-35 27-50 11-15 25-28 41-39 16-11 34-19 54-24 17-4 38-7 61-8 23-2 47-3 72-3l36-1 z" fill="#533566"/>
		<path d="M1837 707c80 0 144 64 144 143 0 81-67 144-144 144-81 0-144-67-144-144 0-80 65-143 144-143 z M975 707c80 0 143 62 143 143 0 80-64 144-143 144-79 0-144-63-144-144 0-80 65-143 144-143 z" fill="#00D1ED"/>
		<path d="M1421 299c46 0 154 2 193 15 54 18 104 62 144 115 61 82 74 166 78 259 6 126 14 264 19 383 0 77-50 142-131 142l-68 0c-74 0-160 14-203 60-12 15-17 27-25 44-18 37-67 48-112 48l-41 0c-215 0-318-132-318-327 0-30 1-59 3-88 8-113 9-241 21-350 10-111 101-262 221-286 71-15 146-15 219-15 z" fill="#37C9CD"/>
		<path d="M1613 737c74 0 134 60 134 135 0 75-60 134-134 134-75 0-135-59-135-134 0-75 60-135 135-135 z M1217 748c75 0 135 60 135 135 0 75-60 135-135 135-74 0-134-60-134-135 0-75 59-135 134-135 z" fill="#321B41"/>
		<path d="M1595 777c64 0 116 53 116 117 0 66-52 117-116 117-63 0-117-50-117-117 0-64 53-117 117-117 z M1234 777c64 0 117 53 117 117 0 63-50 117-117 117-64 0-117-53-117-117 0-64 53-117 117-117 z" fill="#FFCE7C"/>
		<path d="M1583 854c26 0 44 21 44 45 0 24-18 45-44 45-25 0-45-19-45-45 0-25 19-45 45-45 z M1229 854c26 0 44 21 44 45 0 24-18 45-44 45-25 0-45-19-45-45 0-25 19-45 45-45 z" fill="#990838"/>
		<path d="M1470 440c0 132-104 167-204 167-51 0-84-32-84-85 0-51 37-82 84-82l204 0 z" fill="#000000"/>
		<path d="M1742 911c-13 63-68 107-132 107-60 0-132-44-132-107l264 0 z" fill="#37C9CD"/>
		<path d="M1438 545c-42 54-119 62-176 62l0-26c0-19 15-36 36-36l140 0 z" fill="#FFCE7C"/>
		<path d="M1103 1068c-15 0-25 7-25 23 0 7 3 13 9 19l1 0c39 28 95 40 138 40 15 0 48 0 48-24 0-14-10-24-23-24l-26 1c-59 0-111-35-122-35 z M1709 1068c15 0 24 8 24 23 0 7-3 13-9 19l-1 0c-42 30-92 40-152 40-17 0-34-5-34-24 0-14 10-24 23-24l26 1c59 0 110-35 123-35 z" fill="#321B41"/>
		<path d="M1114 457c11 0 18 7 18 18 0 110-29 242-160 261l2-37c106-16 122-144 122-224 0-11 7-18 18-18 z M1694 457c11 0 17 9 17 18 0 57 7 127 40 177 35 51 59 36 85 54l1 27c-3 3-7 5-12 5l-6-1c-121-24-143-160-143-262 0-11 7-18 18-18 z" fill="#00A6ED"/>
		<path d="M2123-281l-245 0c-9 0-20 1-31 4-12 3-24 6-36 10-12 4-23 9-33 15-11 5-19 11-26 17-14 13-28 23-43 32-15 9-32 13-51 13l-40 0c-15 0-28 2-41 5-13 3-24 8-33 17-9 8-14 21-14 38 0 15 3 28 10 38 6 10 14 18 25 24 10 5 21 9 34 12 13 2 25 3 38 3 17 0 33-2 49-6 16-4 32-6 47-6 11 0 21 2 28 7 7 4 12 10 16 17 3 7 6 14 7 23 1 9 2 18 2 27l0 194 141 81 0-20-1-15 1-15c1-10 2-19 5-27 2-8 6-12 12-12 5 0 10 5 17 16 6 10 12 22 18 35 6 13 11 26 16 39l10 25 80-180 20-13 91 129 31-203 21-12 75 56 32-151-27-24-26-27c-13-15-25-32-36-51-11-19-22-37-35-54-13-17-28-32-45-43-17-12-38-18-63-18 z M933-281c35 0 99 22 126 46 29 26 55 45 94 45l39 0c43 0 88 10 88 59 0 62-56 78-106 78-35 0-66-12-97-12-45 0-53 36-53 74l0 194-140 81 1-20-1-30c-1-20-5-39-17-39-6 0-14 6-17 13l-45 102-80-180-20-13-91 129-30-203-21-12-75 56-32-151c19-16 36-32 52-51 52-59 83-166 179-166l246 0 z" fill="#00A6ED"/>
		<path d="M954 104c-40 0-70 33-70 71l0 121c0 38 30 71 70 71 38 0 71-32 71-71l0-121c0-39-33-71-71-71 z M483-87c38 0 68 32 68 69 0 13-4 26-11 37-24 34-41 80-90 80-37 0-68-28-68-68 0-15 4-27 12-38 24-35 40-80 89-80 z M621 24c-27 0-49 13-62 36l-60 103c-7 12-10 24-10 37 0 38 31 72 72 72 24 0 49-12 63-36l60-103c7-12 10-24 10-36 0-41-33-73-73-73 z M778 91c40 0 70 33 70 71 0 31-27 102-39 137-9 29-37 50-68 50-38 0-71-32-71-71 0-32 31-110 40-138 10-30 38-49 68-49 z M2327-87c-39 0-68 31-68 68 0 15 5 27 12 38 24 35 40 80 89 80 40 0 68-31 68-69 0-13-4-26-11-37-24-34-41-80-90-80 z M2190 24c26 0 49 14 62 36l60 103c7 12 10 24 10 36 0 39-31 73-72 73-26 0-49-13-63-36l-60-103c-7-12-10-24-10-37 0-41 34-72 73-72 z M2033 91c30 0 58 18 67 49 11 32 40 109 40 138 0 38-32 71-71 71-32 0-56-20-67-50-10-31-40-107-40-137 0-39 33-71 71-71 z M1856 104c38 0 71 32 71 71l0 121c0 39-33 71-71 71-39 0-71-33-71-71l0-121c0-39 33-71 71-71 z" fill="#37C9CD"/>
		<path d="M1443 662c29 0 50 26 50 52 0 20-22 89-38 140-18 51-23 63-49 63-19 0-31-9-36-26-10-31-50-153-50-177 0-27 21-52 50-52l73 0 z" fill="#00A6ED"/>
		<path d="M1470 440c0 132-104 167-204 167-51 0-84-32-84-85 0-51 37-82 84-82l204 0 z" fill="#000000"/>
		<path d="M1438 545c-42 54-119 62-176 62l0-26c0-19 15-36 36-36l140 0 z" fill="#FFCE7C"/>
		<path d="M1444 665c27 0 52 21 52 50 0 20-23 87-40 138-18 51-22 63-51 63-16 0-32-10-37-26-11-32-52-149-52-175 0-29 25-50 52-50l76 0 z" fill="#00A6ED"/>
	</g></svg>
