<svg version="1.1" xmlns="http://www.w3.org/2000/svg" viewBox="0 0 2300 2300"><g transform="scale(1,-1) translate(-256, -1869)">
		<path d="M1260-287l-353 330c-11 9-16 21-16 35 0 59 144 100 144 240 0 19-1 40-8 56-5 10-79 48-82 56l-41 181c-3 10-6 14-6 25 0 34 28 61 57 73l386 155c45 18 82 62 90 113l119 748-53-18c-5 0-52 18-52 18l-241 0-114-32-114 32-576 0 0-925 67-234-45-166c-8-31-15-50-22-83l0-104 128-413 320-58c59-10 100-29 160-29l252 0 z" fill="#D3D3D3"/>
		<path d="M1015-287l-615 0 0 503 171-78c22-11 43-30 54-54l74-174c10-23 25-38 48-52 89-49 179-97 268-145 z M400 501c157 52 313 105 468 160 154 55 309 110 466 165 32 11 58 30 79 56 21 26 33 56 38 90l99 753-105 0-39-254c-3-17-7-35-12-54-5-19-11-37-17-56l-18-55c-7-19-13-36-18-53-1-5-4-10-9-16l-12-15-55-47c-5-3-9-5-13-5-7 0-12 2-16 7-3 4-4 8-4 12l0 4 30 219c1 3 1 5 1 8l0 15-58 290-228 0 123-320c9-23 13-48 13-75 0-30-2-60-7-91-5-31-10-61-13-91-3-23-9-44-18-65-9-21-21-39-36-56-15-17-31-32-50-45-19-13-40-22-62-28l-527-152 0-301 z" fill="#9B9B9B"/>
		<path d="M400 316l256 114c28 13 60 19 91 19 24 0 46-3 67-10l213-64-101 213c-4 8-6 17-6 26 0 24 12 49 19 72l-539-185 0-185 z" fill="#636363"/>
		<path d="M2074 339c40 0 68 31 68 69l0 52-137 52 0-104c0-38 29-69 69-69 z" fill="#635994"/>
		<path d="M2141 444c8 0 13 7 13 14 0 5-3 8-9 11l-121 42 0 55c0 9-4 13-12 13-9 0-13-4-13-13l0-64c0-5 3-9 9-12l133-46 z" fill="#433B6B"/>
		<path d="M2037 829l42 118c-43 15-85 35-125 58-41 23-78 49-112 80-35 31-65 65-92 103-27 37-47 78-62 123 5 9 10 18 14 28 3 9 5 19 5 29 0 4-1 9-2 14-1 5-3 10-6 15-3 4-7 7-11 10l-7 2-8-2 0 4c0 13-4 21-12 24-9 3-18 4-28 4-11 0-22-1-33-4-11-3-21-8-30-14-9-6-17-14-22-23-6-9-9-20-9-33 0-18 3-34 10-47l20-44-1 0c18-55 43-105 74-151 31-46 68-87 109-124 41-37 85-70 134-98 49-29 99-53 152-72 z" fill="#966661"/>
		<path d="M1818-80l-193 287c-12 18-18 38-18 61 0 48 34 84 61 124l137-90-45-50 133-267-75-65 z M1100 426l382 195 80-44 58 164-50 25c-19 5-35 8-54 8-37 0-72-10-103-31l-313-216-16-49 16-52 z" fill="#966661"/>
		<path d="M1618 1321l7 3c4 6 8 11 13 15 4 3 8 8 13 13 2 0 4 1 7 2l1 0c1 0 2 1 3 3l2 5c0 3-1 5-3 6-2 1-4 1-6 1-4 0-7-1-10-3l-24-4c-4 4-6 8-6 12 0 5 2 9 6 11 4 1 6 4 6 8 0 5-3 8-8 8l-4-1c-4-3-8-7-11-11-3-5-5-10-5-15 0-5 2-11 7-18 4-6 8-9 13-9l3 0-6-9c-3-4-5-7-5-9l3-7c1-1 2-1 4-1 z" fill="#764C49"/>
		<path d="M2051 977l8 126-128 8-8-128 128-6 z" fill="#8B5C56"/>
		<path d="M1998 536c54 92 96 221 96 337 0 22-3 44-9 65-16 51-75 91-131 91-77 0-106-87-114-150-5-49-72-157-101-193l259-150 z" fill="#8B62BF"/>
		<path d="M1792 283c21 0 41 11 53 28l116 167-209 96-116-200 120-80c11-7 23-11 36-11 z" fill="#636363"/>
		<path d="M1852 431c96 0 118 54 164 137l-256 144-20-26-128 60c-13-36-70-172-70-203 0-31 21-59 54-66l210-43c15-3 31-3 46-3 z" fill="#9B9B9B"/>
		<path d="M1975 1070c62 0 75 30 119 74 36 33 71 52 71 104 0 50-31 77-68 98-29 16-53 36-88 36-61 0-83-39-109-86-13-8-49-18-49-36 0-11 4-20 13-25-13-22-27-48-27-75 0-62 91-90 138-90 z" fill="#966661"/>
		<path d="M2082 974c50 0 89 39 89 89 0 23-6 38-21 56 35 27 83 99 83 143 0 71-63 93-114 112-48 17-69 62-110 62-32 0-53-32-53-61 0-61 108-71 108-136 0-13-9-15-16-25-23-34-22-28-47-55l1-4c-12-17-23-34-38-50 8-59 52-131 118-131 z" fill="#2D242D"/>
		<path d="M2043 1144c22 0 39 17 39 40 0 22-18 39-39 39-21 0-39-17-39-39 0-23 17-40 39-40 z" fill="#8B5C56"/>
		<path d="M1824-257c4 0 7 2 9 5l119 172c4 5 6 12 6 19 0 13-14 18-24 25l-1 0-43 28-85-54c-5-48-17-128-17-171 0-11 16-17 25-20 0-4 7-4 11-4 z M1031 393c4 0 38 15 70 33l-1 102c-21 13-138 104-146 104-12 0-36-19-36-32l85-179c5-11 16-28 28-28 z M1923 1055c6 0 11 2 14 7l144 182c3 4 4 8 4 11 0 9-8 18-17 18-6 0-11-2-14-7l-144-183c-3-4-4-7-4-10 0-11 8-18 17-18 z" fill="#635994"/>
		<path d="M1955 1251l8 1c10 0 23 1 23 11 0 19-19 32-36 32-9 0-15-2-20-5l25-39 z" fill="#000000"/>
		<path d="M1959 1245c6 0 11 11 11 19 0 19-17 30-34 30-17 0-21-6-26-19 0-8 44-30 49-30 z" fill="#FFFFFF"/>
		<path d="M1940 1255c7 7 10 14 10 21 0 11-6 18-17 18-15 0-20-10-24-22l31-17 z" fill="#7D4533"/>
		<path d="M1929 1261c5 3 8 8 8 14 0 7-3 10-9 10-8 0-14-8-14-16l15-8 z" fill="#7D4533"/>
		<path d="M1923 1280l5 1-1 6-5-2 1-5 z" fill="#FFFFFF"/>
		<path d="M1893 1181c14 0 20 3 26 15 0 3-2 5-7 6-3 0-8-7-19-7-12 0-12 6-22 10-3 0-6-2-7-7 0-11 19-17 29-17 z" fill="#990839"/>
		<path d="M2192 1147c9 0 15 3 20 10 32 39 65 73 65 126 0 61-43 100-87 131-41 29-73 60-123 60-51 0-82-26-108-60-11-16-34-34-34-54 0-8 3-15 10-20 32-24 234-193 257-193 z" fill="#00A6ED"/>
		<path d="M2132 1248c12 0 22 11 22 23 0 7-3 12-8 16-16 10-69 61-87 61-12 0-22-9-22-21 0-7 3-12 9-17 14-11 68-62 86-62 z" fill="#0074BA"/>
		<path d="M2025 562c11 0 18 6 18 17 0 7-3 12-9 15l-255 144-107 251c-13 31-19 61-19 91l0 645-34 0 0-645c0-37 7-71 21-104 12-28 106-258 118-266l259-146c3-1 5-2 8-2 z" fill="#44911B"/>
		<path d="M1628 1355c14 0 33 5 47 8l-7 39c-13-3-60-1-60-26 0-11 10-21 20-21 z" fill="#966661"/>
		<path d="M1667 802c15 0 31 2 46 6l185 50-32 120-185-50c-3-1-5-1-6-2-2-1-4-1-7-1-5 0-11 1-17 4-6 2-11 5-14 8l-138 136c-5 11-7 23-7 35-1 12-1 24-1 36 0 5-2 10-6 14-4 3-9 5-14 5-5 0-9-2-12-5-3-3-4-7-5-12l-1-14 0-13-3-1c-9 9-18 19-26 30-8 10-16 21-23 32-3 5-8 8-14 8-5 0-10-1-13-4-3-3-5-8-5-13 0-3 2-6 5-11 3-5 6-10 10-15 3-5 7-10 11-15 5-8 7-8 7-12l-1 0-25 30-16 17c-5 5-9 7-12 7-5 0-9-2-12-5-3-3-5-7-5-12 0-3 2-7 5-12 3-5 7-11 12-16 5-5 9-10 13-15l9-11-1 0c-5 5-12 11-19 19-8 8-16 12-23 12-5 0-9-2-12-5-3-3-5-7-5-12 0-4 2-8 5-12 3-4 7-8 12-11 5-4 9-8 14-11 5-3 8-6 11-8l-1-2c-3 2-8 5-14 10-7 5-12 7-15 7-5 0-9-2-12-5-4-3-6-7-6-12 0-4 5-10 14-17 9-8 19-16 31-24 11-9 23-17 34-24l24-18 143-139c15-15 33-27 54-35 20-8 41-12 63-12 z" fill="#966661"/>
		<path d="M1822 805c27 0 95 23 125 31 33 9 58 38 58 74 0 46-31 87-80 87-35 0-141-41-176-51l27-105c5-21 24-36 46-36 z" fill="#A17FD5"/>
	</g></svg>
