<svg version="1.1" xmlns="http://www.w3.org/2000/svg" viewBox="0 0 2300 2300"><g transform="scale(1,-1) translate(-256, -1869)">
		<path d="M1909-287l144 431-144 395-1006 0-144-395 144-431 1006 0 z M1736 683c-104 47-215 72-330 72-115 0-226-25-330-72l660 0 z" fill="#212121"/>
		<path d="M1729-287l-71 0 0 378c0 21 16 36 35 36 19 0 36-15 36-36l0-378 z M1442-287l-72 0 0 378c0 19 15 36 36 36 19 0 36-15 36-36l0-378 z M1154-287l-71 0 0 378c0 21 16 36 35 36 19 0 36-15 36-36l0-378 z M2197-287l0 251c0 235-106 461-288 611l0-1c-139 114-313 181-503 181-184 0-361-63-503-181l0 1c-180-151-288-372-288-611l0-251 288 0 0 819c101-184 297-296 503-296 210 0 401 112 503 297l0-820 288 0 z" fill="#000000"/>
		<path d="M2092 692c14 0 27 13 27 28 0 11-37 139-42 159-7 27-33 43-59 43-26 0-52-16-59-43-5-21-43-149-43-159 0-15 13-28 27-28l149 0 z" fill="#BB806E"/>
		<path d="M1405 505c8 0 15 3 20 8 51 46 87 70 112 138l-59 68-139 0-68-60c21-69 67-105 115-146 5-5 12-8 19-8 z" fill="#BB806E"/>
		<path d="M1594 748l136 46c31 11 57 30 77 57 19 27 29 58 29 91l0 300c0 15 3 28 8 40 5 11 11 23 18 35 6 11 12 24 17 38 5 13 8 30 8 49 0 38-10 71-31 100-21 28-49 48-84 61-22 8-41 18-56 31-16 12-30 28-43 47-16 25-37 45-63 60-26 15-54 22-84 22-11 0-21-1-30-3l-27-8c-9-3-18-6-27-8-9-3-18-4-27-4-9 0-18 1-27 4-9 2-17 5-26 8l-28 8c-9 2-19 3-30 3-30 0-57-7-82-21-25-14-46-34-63-59-13-19-28-35-44-48-16-13-35-24-57-32-35-13-62-33-83-61-21-29-32-62-32-100 0-19 3-36 8-50 5-14 11-27 17-38l17-35c5-11 8-24 8-39l0-300c0-33 10-64 29-91 19-27 45-46 76-57l136-46 0 534c13 13 25 29 34 47 9 17 14 36 16 55 3-1 7-1 10-1 3-1 7-1 10-1 20 0 40 4 59 11 19 7 37 17 52 30 17-15 38-26 61-33 15-5 31-8 46-8 8 0 15 1 23 2 3-20 8-38 17-54 8-17 19-33 32-48l0-534 z" fill="#593B39"/>
		<path d="M1487 647c29 0 57 4 84 13 28 9 53 21 76 37 23 15 43 34 61 56 18 22 33 47 43 74 5 10 9 21 12 33 4 11 6 23 6 34l12 179c4 59 7 118 10 178 1 5 1 11 1 18l0 17c0 14-2 28-7 41-5 13-12 24-21 34-9 10-20 18-32 25-12 6-26 9-41 9l-103 0c-20 0-40 4-60 11-19 7-37 16-53 29-20-2-40-3-61-3-48 0-97 5-145 14-48 9-96 17-144 24-12-11-23-23-34-37-10-14-19-29-27-45-7-16-13-32-17-49-3-14-5-28-5-42l0-9c5-66 9-132 13-197l13-197c3-35 13-68 30-98 17-30 39-56 65-78 26-22 56-39 88-52 33-13 66-19 99-19l137 0 z" fill="#C68D7B"/>
		<path d="M1777 988c60 5 110 56 110 120 0 54-37 106-95 117l-118-117 103-120 z M1063 988l47 120-62 119c-63-8-106-62-106-119 0-66 53-120 121-120 z" fill="#BB806E"/>
		<path d="M1487 647c29 0 57 4 84 13 28 9 53 21 76 37 23 15 43 34 61 56 18 22 33 47 43 74 5 10 9 21 12 33 4 11 6 23 6 34l12 179c4 59 7 118 10 178 1 5 1 11 1 18l0 17c0 14-2 28-7 41-5 13-12 24-21 34-9 10-20 18-32 25-12 6-26 9-41 9l-103 0c-20 0-40 4-60 11-19 7-37 16-53 29-20-2-40-3-61-3-48 0-97 5-145 14-48 9-96 17-144 24-12-11-23-23-34-37-10-14-19-29-27-45-7-16-13-32-17-49-3-14-5-28-5-42l0-9c5-66 9-132 13-197l13-197c3-35 13-68 30-98 17-30 39-56 65-78 26-22 56-39 88-52 33-13 66-19 99-19l137 0 z" fill="#C68D7B"/>
		<path d="M1415 828c23 0 46 6 69 18 24 12 55 42 55 54 0 7-5 12-12 12l-2 0c-71-24-65-27-110-27-39 0-71 8-106 26l-6 2c-7 0-11-5-11-12 0-2 1-4 2-7 25-42 76-66 121-66 z" fill="#990839"/>
		<path d="M1448 954c22 0 40 18 40 39 0 25-32 107-40 135-5 13-14 20-28 20-13 0-22-7-27-20-8-29-40-111-40-135 0-21 17-39 39-39l56 0 z" fill="#AB6A55"/>
		<path d="M1672 1105l-164 0c-7 0-17 6-17 14 0 48 51 89 100 89 42 0 101-36 101-83 0-10-10-20-20-20 z M1324 1105c7 0 17 6 17 14 0 47-52 89-101 89-40 0-101-37-101-83 0-10 10-20 21-20l164 0 z" fill="#FFFFFF"/>
		<path d="M1640 1105l-127 0c-1 7-2 10-2 17 0 35 27 66 65 66 36 0 66-29 66-66 0-7-1-10-2-17 z M1318 1105c1 3 2 5 2 8 0 38-20 75-65 75-18 0-33-6-46-19-16-17-19-40-19-55 0-3 1-6 2-9l126 0 z" fill="#7D4533"/>
		<path d="M1609 1105l-66 0c-3 5-4 10-4 17 0 22 16 38 37 38 21 0 38-16 38-38 0-6-2-12-5-17 z M1288 1105c3 5 4 10 4 17 0 22-16 38-37 38-21 0-37-16-37-38 0-7 1-12 4-17l66 0 z" fill="#000000"/>
		<path d="M1555 1137c7 0 12 4 12 11 0 7-5 12-12 12-7 0-11-5-11-12 0-7 4-11 11-11 z M1233 1137c7 0 11 4 11 11 0 7-4 12-11 12-6 0-12-5-12-12 0-7 5-11 12-11 z" fill="#FFFFFF"/>
		<path d="M2018 913c36 0 61 28 61 62 0 24-14 44-33 54l0 639c0 33-28 57-58 57l-1147 0c-31 0-57-27-57-57 0-31 24-58 57-58l199 0-70-115 335-54c36-7 73-8 110-8 37 0 74 1 110 8l335 55-70 114 199 0 0-581c-19-10-33-30-33-54 0-34 26-62 62-62 z" fill="#1C1C1C"/>
		<path d="M1667 1256c10 0 20 10 20 20 0 7-2 12-7 16l-1 0c-19 21-84 35-111 35-9 0-18-1-27-2-10-2-15-9-15-20 0-10 9-19 20-19 44 0 69 0 108-25l2 1-1-2c5-3 9-4 12-4 z M1162 1258c5 0 11 3 20 9 31 20 45 19 61 20l41 1c11 0 20 9 20 19 0 18-15 22-29 22-34 0-133-15-133-51 0-10 10-20 20-20 z" fill="#593B39"/>
	</g></svg>
