<svg version="1.1" xmlns="http://www.w3.org/2000/svg" viewBox="0 0 2300 2300"><g transform="scale(1,-1) translate(-256, -1869)">
		<path d="M2398 86c9 9 13 19 13 32l0 1419c0 26-21 44-45 44l-1922 0c-12 0-22-4-31-13 4-17 59-202 59-202l539-863 1222-359c56-16 110-39 165-58 z" fill="#FFCE7C"/>
		<path d="M2367 73c12 0 22 4 31 13-17 17-37 43-58 58l-1868 1366c-20 15-40 39-59 58-9-9-13-19-13-31l0-1420c0-24 19-44 44-44l1923 0 z" fill="#E19747"/>
		<path d="M2340 145l0 1365-1868 0 0-1365 1868 0 z" fill="#44911B"/>
		<path d="M1909-287l108 431-108 430c-139 114-313 181-503 181-190 0-364-67-503-181l-108-430 108-431 1006 0 z" fill="#8C5543"/>
		<path d="M1550-287l0 1006 100 0 31-65 46-98 17-38c4-11 6-17 6-19 0-13-6-20-18-21l-19-1-41 2-19-1c-12-1-18-8-18-20 0-9 7-19 20-30l42-36c15-13 30-27 43-42 13-15 19-32 19-49 0-9-1-17-4-23l-205-565 z M1262-287l0 1006-97 0-31-64-45-98c-7-15-13-28-17-39-5-11-7-17-7-19 0-9 3-14 9-17 5-3 12-5 21-5l28 1c10 1 19 1 28 1 9 0 16-1 22-4 5-3 8-8 8-16 0-5-2-9-6-13l-98-96c-13-13-20-30-20-49 0-9 1-17 4-23l201-565 z" fill="#6D4534"/>
		<path d="M2197-287l-1 252c0 235-106 461-287 610l0-862 288 0 z M903-287l0 862c-180-151-288-372-288-611l0-251 288 0 z" fill="#6D4534"/>
		<path d="M1553-287l0 947-295 0 0-947 295 0 z" fill="#E6E6E6"/>
		<path d="M1406 527c81 0 144 71 144 148l0 184c0 82-65 148-144 148-80 0-144-66-144-148l0-184c0-82 65-148 144-148 z" fill="#8B5C56"/>
		<path d="M1585 748l136 46c31 11 57 30 76 57 19 27 29 58 29 91l0 300c0 14 3 27 8 38 5 11 11 23 18 35 7 11 13 24 18 38 5 14 8 31 8 51 0 38-10 71-31 100-21 28-50 48-85 61-41 15-74 41-99 78-17 25-37 45-62 60-25 15-53 22-84 22-11 0-21-1-30-3l-27-8c-9-3-18-6-27-8-9-3-18-4-27-4-9 0-18 1-27 4-9 2-18 5-27 8l-28 8c-9 2-19 3-29 3-31 0-59-7-83-21-25-14-45-34-62-59-25-38-59-65-101-80-35-13-63-33-84-61-21-29-32-62-32-99 0-19 3-36 8-50 5-14 11-27 18-38l17-35c5-11 8-24 8-39l0-300c0-34 10-64 29-91 19-27 45-46 77-57l136-47 0 534c13 13 24 29 33 47 9 17 14 36 15 55 3-1 7-1 11-1 3-1 7-1 10-1 20 0 40 4 59 11 19 7 36 17 51 30 17-15 38-26 61-33 15-5 31-8 47-8 8 0 15 1 23 2 3-21 8-40 16-55 8-16 19-32 33-47l0-534 z" fill="#2D242D"/>
		<path d="M1757 988c68 0 120 57 120 120 0 68-57 120-120 120-68 0-120-57-120-120 0-68 57-120 120-120 z M1054 988c68 0 120 57 120 120 0 68-57 120-120 120-68 0-120-57-120-120 0-68 57-120 120-120 z" fill="#8B5C56"/>
		<path d="M1479 647c29 0 58 4 85 13 27 9 53 21 76 37 23 15 43 34 61 56 18 22 32 47 43 74l12 33c3 11 5 23 6 34l12 178 10 178c1 6 1 12 1 19l0 18c0 14-2 28-7 41-5 13-12 25-21 35-9 10-20 18-33 25-13 6-26 9-41 9-32 1-60 1-85 1l-10 0c-21 0-40 3-58 7-21 5-40 14-58 29-18 14-36 36-54 67-5 9-11 17-18 22-7 5-16 8-27 8l-94 0c-33 0-65-6-94-19-29-13-55-31-78-53-23-22-40-48-53-77-13-29-20-61-20-94 0-25 1-47 3-65l6-66 17-263c1-11 4-23 7-34 3-12 7-23 11-33 11-27 25-52 43-74 18-22 39-41 62-56 23-16 48-28 75-37 27-9 56-13 85-13l136 0 z" fill="#966661"/>
		<path d="M1658 1256c5 0 10 2 14 6 4 4 6 9 6 14 0 7-3 12-8 16l-1 0c-5 5-13 10-22 15-9 4-19 8-30 11-11 3-21 5-32 7-11 1-19 2-26 2-9 0-18-1-28-2-10-2-15-9-15-20 0-6 2-10 5-13 3-3 6-4 11-5l6-1 7 1 12 0c32 0 61-9 88-26l2 1-1-2c5-3 9-4 12-4 z M1155 1256c2 0 5 1 8 3 27 13 50 25 72 26l41 1c11 0 20 9 20 19 0 11-5 18-14 20-10 1-19 2-28 2-27 0-93-14-111-35l-1 0c-5-4-7-9-7-16 0-10 10-20 20-20 z" fill="#372128"/>
		<path d="M1662 1105l-164 0c-7 0-17 6-17 14 0 47 52 89 101 89 39 0 100-36 100-83 0-10-10-20-20-20 z M1315 1105c7 0 16 6 16 14 0 47-51 89-100 89-45 0-100-37-100-84 0-10 9-19 20-19l164 0 z" fill="#FFFFFF"/>
		<path d="M1630 1105l-126 0c-1 3-2 6-2 9l0 8c0 37 27 66 65 66 18 0 33-6 46-19 16-17 19-40 19-55 0-3-1-6-2-9 z M1309 1105c1 7 2 10 2 17 0 35-28 66-65 66-36 0-66-29-66-66 0-7 1-10 2-17l127 0 z" fill="#7D4533"/>
		<path d="M1600 1105l-66 0c-3 5-4 10-4 17 0 22 16 38 37 38 21 0 37-16 37-38 0-7-1-12-4-17 z M1279 1105c3 5 4 10 4 17 0 22-16 38-37 38-21 0-38-16-38-38 0-6 2-12 5-17l66 0 z" fill="#000000"/>
		<path d="M1546 1137c7 0 12 6 12 12 0 7-5 11-12 11-7 0-11-4-11-11 0-7 4-12 11-12 z M1223 1137c8 0 12 4 12 12 0 7-5 11-12 11-7 0-11-4-11-11 0-7 4-12 11-12 z" fill="#FFFFFF"/>
		<path d="M1439 954c22 0 39 17 39 39 0 12-7 37-17 66-19 58-22 89-50 89-13 0-22-7-27-20-8-27-40-111-40-135 0-22 17-39 39-39l56 0 z" fill="#75443E"/>
		<path d="M1406 829c24 0 47 6 69 18 22 11 54 42 54 54 0 7-5 12-12 12l-2 0c-66-22-63-27-109-27-39 0-71 8-106 26l-5 1c-9 0-13-4-13-12l2-6c15-39 83-66 122-66 z" fill="#990839"/>
		<path d="M1885-28l-143 0 0 165c0 38 31 72 71 72 38 0 72-33 72-72l0-165 z M1070-28l0 165c0 39-34 72-72 72-38 0-72-33-72-72l0-165 144 0 z" fill="#8B5C56"/>
		<path d="M1627 974c19 0 36 4 53 11 17 7 31 17 44 30 12 12 22 26 29 43 7 17 11 34 11 53l0 80c0 3 1 5 2 7l5 7c2 3 4 6 5 11 1 4 2 10 2 18 0 7-2 13-7 18-5 5-11 7-18 7l-249 0c-13 0-24-2-31-7-7-5-14-10-19-15l-18-15c-6-5-14-7-24-7-10 0-18 2-24 7-7 5-13 10-18 15l-20 15c-7 5-17 7-30 7l-250 0c-13 0-20-4-22-13-2-9-3-19-3-28 0-8 3-13 8-16 5-3 7-7 7-12l0-79c0-19 4-36 11-53 7-17 17-31 30-43 12-13 26-23 43-30 17-7 34-11 53-11l51 0c19 0 36 4 53 11 17 7 31 17 44 30 12 12 22 26 29 43 7 17 11 34 11 53l0 44c0 7 3 13 8 18 5 5 12 7 19 7 9 0 15-3 19-8 4-5 7-12 8-19l1-11-1-11c-1-8-1-15-1-20 0-19 4-37 11-53 7-17 17-31 30-44 12-13 26-22 43-29 17-7 35-11 54-11l51 0 z M1622 1000l-40 0c-63 0-119 52-119 119l0 51c0 35 27 64 64 64l150 0c35 0 63-30 63-64l0-51c0-62-48-119-118-119 z M1242 1000l-39 0c-68 0-119 55-119 119l0 51c0 34 28 64 63 64l150 0c52 0 63-38 63-77l0-38 1 0c0-63-52-119-119-119 z" fill="#433B6B"/>
		<path d="M1812-287l0 588c0 32-25 59-58 59l-549 0c-74 0-136-59-136-136l0-511 743 0 z" fill="#F92F60"/>
		<path d="M1118-287l0 615 694 0 0 35c0 36-12 68-58 68l-621 0c-78 0-136-60-136-135l0-583 121 0 z" fill="#433B6B"/>
		<path d="M1811 245l0 125-685 0c-36 0-63-29-63-63 0-36 29-62 63-62l685 0 z" fill="#E6E6E6"/>
		<path d="M1823-287c36 0 62 28 62 62l0 253c0 34-26 62-62 62l-237 0 0-1c-28 0-56-21-56-52 0-21 8-36 25-47-15-9-25-25-25-44 0-19 9-36 25-45-16-9-25-26-25-45 0-19 10-35 25-44-17-11-25-26-25-47 0-31 28-52 56-52l237 0 z M1226-287c27 0 55 21 55 52 0 21-8 36-25 47 16 9 25 25 25 44 0 19-9 36-25 45 16 9 25 26 25 45 0 19-10 35-25 44 15 9 25 25 25 42 0 31-22 57-55 57l0 1-238 0c-36 0-62-28-62-62l0-253c0-34 26-62 62-62l238 0 z" fill="#966661"/>
	</g></svg>
