<svg version="1.1" xmlns="http://www.w3.org/2000/svg" viewBox="0 0 2300 2300"><g transform="scale(1,-1) translate(-256, -1869)">
		<path d="M1585 560c22 0 43 4 63 13 19 8 36 19 51 34 14 15 25 32 34 51 8 19 12 40 12 62 0 17-2 32-5 45-4 13-9 25-16 36-7 11-15 21-24 31l-30 31 234 234c23 23 41 50 54 80 13 29 19 61 19 94 0 33-6 64-19 95-16 36-34 62-64 89l-8 5-28 13-8 3c-4 0-10-2-17-6-7-4-15-8-22-13l-23-13c-7-4-13-6-17-6-3 0-6 2-9 5-2 2-3 5-3 7l11 65c-13 2-26 3-39 3-33 0-65-6-95-18-30-13-57-31-80-54l-192-191-188 188c-23 23-50 41-80 54-31 13-62 19-95 19-34 0-66-6-96-19-30-13-56-31-78-54-22-23-39-49-52-78-13-30-20-62-20-96 0-33 6-64 19-94 12-30 30-57 53-80l243-243 1-2c-20-20-36-40-48-59-13-19-19-44-19-74 0-22 4-42 13-61 8-19 19-36 33-50 14-14 31-25 50-33 19-9 39-13 61-13 21 0 42 4 61 12 19 8 36 19 51 34l100 100 98-99c15-15 33-27 53-35 19-8 40-12 61-12 z" fill="#75E0FC"/>
		<path d="M1119 1004l16 19c-24 20-194 183-206 183-9 0-13-4-13-12 0-4 1-7 4-9l135-123-67-5c-7 0-11-6-11-12 0-9 4-13 11-13 31 0 61 4 92 7l39-35 z M1754 1031c7 0 14 5 14 12 0 7-4 12-12 13l-73 6 103 91c-4 8-9 14-14 21l-150-132 26-11 10 10c5-5 84-10 96-10 z M1508 1086l306 274c3 2 4 5 4 10 0 8-4 12-13 12-13 0-81-69-94-80 5 35 15 77 15 112 0 9-4 13-13 13-7 0-11-4-12-11l-19-140-196-176c-3-2-4-5-4-9 10-3 16-2 26-5 z M1227 1085c11 3 19 4 30 5-4 4-186 172-209 191l-17 139c-1 7-5 11-12 11-9 0-13-4-13-12 0-35 10-77 14-112-13 11-76 75-87 75-9 0-13-4-13-12 0-5 1-8 4-10l303-275 z" fill="#FFFFFF"/>
		<path d="M1195-281c2 0 8 2 18 7l32 14 53 26c3 1 6 4 8 8 2 3 3 7 4 10l56 757c1 11 8 17 19 17 7 0 13-4 16-11l29-67 20-49 20-48 14-39c4-11 6-19 6-22 0-6-3-18-10-35l-26-60-67-144-26-57c-7-16-11-25-11-28 0-2 2-8 7-19 4-11 9-22 15-34 5-13 11-24 16-35l10-23c3-7 9-11 16-11 7 0 12 3 15 9l226 362c11 17 16 36 16 57 0 11-1 21-4 30-7 24-14 50-23 79-9 28-18 57-26 86-9 29-17 59-24 88-7 29-13 57-16 82-5 33-7 67-7 101l0 118c0 3 0 6 1 9 1 3 2 4 3 4l17-6c10-4 22-9 37-14l137-57 22-9c10-4 21-6 32-6 23 0 43 8 58 24 15 15 24 34 25 57l3 127c0 91 4 114 11 202l0 3c0 6-2 12-6 16-5 5-11 7-18 7-11 0-18-4-20-11-2-7-3-15-3-23l-3-24c-2-7-8-11-19-11-7 0-12 3-15 8-3 5-5 12-5 20l-1 13 1 13c0 9-1 18-2 26-1 8-4 15-8 20-5 5-12 8-22 8-9 0-16-3-22-8-6-6-9-13-9-22l0-57c0-7 1-13 4-18 3-5 6-10 10-14l9-15c3-5 4-12 4-21 0-7-1-17-3-30-2-13-4-27-7-41l-9-42-8-33-194 80c-23 10-44 18-63 23-19 5-42 7-68 7l-131 0c-19 0-39-1-58-3-19-3-38-8-56-15-15-7-31-19-46-36l-50-56c-19-21-39-40-61-59-23-19-49-34-78-43-27-9-52-13-77-13-25 0-50-1-73-2-23-1-46-6-68-13-23-8-44-24-65-48-7-8-13-17-18-28-5-11-8-22-8-33 0-9 3-17 9-25 5-8 13-12 22-12 7 0 14 2 19 6 5 4 10 9 14 14 6-2 12-3 18-3 7 0 14 2 21 5 7 3 13 7 18 12 19-5 39-9 59-11 19-2 39-3 60-3 25 0 51 2 76 7 25 5 49 13 72 24 21 11 42 23 63 38 20 14 39 29 56 46l6 6c1 2 4 3 7 3 3 0 5-2 5-7l1-1107c0-5 2-10 5-13 3-3 8-5 13-5 z" fill="#452829"/>
		<path d="M1414-124c7 0 12 3 15 9l45 71-84 133c-5-10-40-83-40-91 0-5 10-28 22-53 21-47 26-69 42-69 z M1195-281c3 0 9 2 19 7 47 21 96 38 96 58l5 73-138-14 0-106c0-11 7-18 18-18 z" fill="#635994"/>
		<path d="M1480 1160c40 0 75 32 75 75l0 110c0 32 21 51 21 83 0 72-55 62-87 97-23 25-44 40-78 40-13 0-26-4-39-4-15 0-26 4-40 4-41 0-59-18-89-48-29-29-73-28-73-87 0-29 18-50 18-81l2-115c1-40 30-74 74-74l216 0 z" fill="#000000"/>
		<path d="M1300 935l144 1 0 214-144 0 0-215 z" fill="#452829"/>
		<path d="M1525 1244c26 0 50 23 50 50 0 26-23 50-50 50-27 0-51-21-51-50 0-29 24-50 51-50 z M1216 1244c27 0 51 21 51 50 0 29-24 50-51 50-26 0-50-23-50-50 0-26 23-50 50-50 z" fill="#452829"/>
		<path d="M1402 1093c54 0 118 41 123 104 4 62 9 120 9 182 0 24-19 45-44 45l-36 0c-30 0-56 7-77 45-5 8-9 14-20 14l-40 0c-67 0-100-47-106-105-1-6-3-16-3-23l11-158c3-62 70-104 123-104l60 0 z" fill="#573739"/>
		<path d="M1850 1174c12 0 26 8 26 22l0 290-51 0 0-290c0-14 13-22 25-22 z" fill="#75443E"/>
		<path d="M1930 1438c7 0 12 6 12 12 0 28-13 53-13 81 0 18 62 51 62 69 0 7-4 11-11 12l-76 11c-21 3-30 83-54 83-24 0-32-80-54-83l-75-11c-7-1-11-5-11-12 0-21 62-48 62-70 0-28-13-52-13-80 0-6 6-12 12-12 18 0 60 38 79 38 16 0 64-38 80-38 z" fill="#573739"/>
		<path d="M1347 287l19 254c1 11 8 17 19 17 7 0 13-4 16-11l80-195 170 38c-28 103-70 211-78 328l-397 0 0-431 171 0 z" fill="#FF6723"/>
		<path d="M1573 719l1 38-1 38c-1 25-2 51-2 76l0 80-2 79c0 15-4 28-12 40-19 8-38 14-55 17-18 3-37 5-58 6l-46-88c-5-11-14-16-26-16-11 0-20 5-25 15l-47 89c-18-1-36-2-53-4-18-2-35-7-52-14-7-7-12-14-15-23-3-9-5-18-5-27l0-176c0-21 0-43 1-65l0-65 397 0 z" fill="#FF6723"/>
		<path d="M1575 690c-2 20-3 40-3 60l-396 0 0-60 399 0 z" fill="#C3EF3C"/>
		<path d="M1384 1221c9 0 17 8 17 17 0 6-15 48-17 55-3 6-7 9-12 9-6 0-10-3-12-8-3-8-16-49-16-54 0-9 5-19 16-19l24 0 z" fill="#3D2123"/>
		<path d="M1372 1173c14 0 52 15 52 30 0 3-2 5-5 5-7 0-28-11-47-11-19 0-40 11-47 11-3 0-5-2-5-5 0-16 40-30 52-30 z" fill="#990839"/>
		<path d="M1479 1294l-69 0c-5 0-7 5-7 9 0 19 25 33 42 33 19 0 42-15 42-34 0-5-3-8-8-8 z M1333 1294c5 0 7 2 7 6 0 22-23 36-42 36-15 0-42-15-42-32 0-7 3-10 9-10l68 0 z" fill="#FFFFFF"/>
		<path d="M1465 1294l-52 0-1 10c0 15 14 24 27 24 14 0 27-12 27-27l-1-7 z M1330 1294l1 10c0 15-14 24-27 24-14 0-27-12-27-27l1-7 52 0 z" fill="#7D4533"/>
		<path d="M1454 1294l-28 0c-2 2-3 4-3 7 0 8 8 16 16 16 11 0 16-5 16-16l-1-7 z M1317 1294c2 1 3 4 3 7 0 11-5 16-16 16-9 0-15-8-15-16l1-7 27 0 z" fill="#000000"/>
		<path d="M1431 1307c3 1 5 3 5 5 0 1-2 3-5 5-3 0-5-2-5-5 0-3 2-5 5-5 z M1295 1307c3 0 5 2 5 5 0 3-2 5-5 5-3 0-5-2-5-5 0-3 2-5 5-5 z" fill="#FFFFFF"/>
		<path d="M1263 1364c2 0 4 1 6 3 5 3 10 5 13 6l10 2 23 0c6 0 9 3 9 9 0 5-2 7-7 8-5 1-9 1-12 1-8 0-16-1-24-3-9-2-16-5-23-10l1-1-2 0c0-2 1-2 4-5l-4 4c-1-1-2-3-2-6l2-5c2-2 4-3 6-3 z M1482 1364l6 3 2 5-3 7-1 0 0 2-1-1c-13 9-28 14-45 14-3 0-7 0-11-1-5-1-7-4-7-9 0-4 2-7 5-7l13 0c7 0 13-1 18-3 6-3 12-2 18-8 1 0 2 0 3-1 1-1 2-1 3-1 z" fill="#000000"/>
	</g></svg>
