<svg version="1.1" xmlns="http://www.w3.org/2000/svg" viewBox="0 0 2300 2300"><g transform="scale(1,-1) translate(-256, -1869)">
		<path d="M1631 560c90 0 160 72 160 160 0 68-30 95-75 143l234 234c48 48 73 109 73 174 0 136-111 247-247 247-64 0-126-24-174-72l-192-191-188 188c-45 45-108 73-175 73-132 0-246-107-246-247 0-64 24-126 72-174l245-245c-43-40-68-76-68-133 0-89 73-157 157-157 43 0 83 17 112 46l100 100 98-99c30-30 72-47 114-47 z" fill="#75E0FC"/>
		<path d="M1609 961c11 0 82 70 95 80 8-8 83-10 96-10 7 0 14 5 14 12 0 7-4 12-12 13l-73 6 136 120c3 2 4 5 4 9 0 9-4 13-12 13-4 0-7-1-9-3l-248-218c-3-2-4-5-4-10 0-8 4-12 13-12 z M1223 956c7 0 13 5 13 12 0 3-2 6-5 9l-248 226c-2 2-5 3-8 3-9 0-13-4-13-12 0-4 1-7 4-9l135-123-67-5c-7 0-11-6-11-12 0-9 4-13 12-13 29 0 60 4 91 7 13-13 83-83 97-83 z M1541 1078c3 0 6 1 8 3l311 279c3 2 4 5 4 10 0 8-4 12-13 12-13 0-81-69-94-80 5 35 15 77 15 112 0 7-5 13-13 13-7 0-11-4-12-11l-19-140-196-176c-3-2-4-5-4-10 0-8 4-12 13-12 z M1292 1072c8 0 12 4 12 13 0 4-1 7-4 9l-206 187-17 139c-1 7-5 11-12 11-7 0-13-5-13-12 0-35 10-77 14-112-13 11-76 75-87 75-9 0-13-4-13-12 0-5 1-8 4-10l313-284c4-3 7-4 9-4 z" fill="#FFFFFF"/>
		<path d="M1524 1077c61 0 131 49 131 112 0 18-8 32-8 50 0 20 9 39 9 59 0 38-23 50-28 85-12 78-17 101-62 120-25 11-55 15-76 36-19 19-43 29-70 29-27 0-51-9-71-28-47-44-118-24-133-111l-8-45c-7-31-26-56-26-88 0-20 9-38 9-57 0-19-9-33-9-52 0-61 70-110 130-110l212 0 z" fill="#FFB02F"/>
		<path d="M1241-281c2 0 8 2 18 7l32 14 53 26c3 1 6 4 8 8 2 3 3 7 4 10l56 757c1 11 8 17 19 17 7 0 13-4 16-11l29-67 20-49 20-48 14-39c4-11 6-19 6-22 0-6-3-18-10-35l-26-60-67-144-26-57c-7-16-11-25-11-28 0-2 2-8 7-19 4-11 9-22 15-34 5-13 11-24 16-35l10-23c3-7 9-11 16-11 7 0 12 3 15 9l226 362c11 17 16 36 16 57 0 11-1 21-4 30-7 24-14 50-23 79-9 28-18 57-26 86-9 29-17 59-24 88-7 29-13 57-16 82-5 33-7 67-7 101l0 118c0 3 0 6 1 9 1 3 2 4 3 4l17-6c10-4 22-9 37-14l137-57 22-9c10-4 21-6 32-6 23 0 43 8 58 24 15 15 24 34 25 57l3 127c0 91 4 114 11 202l0 3c0 6-2 12-6 16-5 5-11 7-18 7-11 0-18-4-20-11-2-7-3-15-3-23l-3-24c-2-7-8-11-19-11-8 0-13 3-16 8-3 5-4 12-4 20l-1 13 1 13c0 9-1 18-2 26-1 8-4 15-8 20-5 5-12 8-22 8-9 0-16-3-22-8-6-6-9-13-9-22l0-57c0-7 1-13 4-18 3-5 6-10 10-14l9-15c3-5 4-12 4-21 0-7-1-17-3-30-2-13-4-27-7-41l-9-42-8-33-194 80c-23 10-44 18-63 23-19 5-42 7-68 7l-131 0c-19 0-39-1-58-3-19-3-38-8-56-15-15-7-31-19-46-36l-50-56c-19-21-39-40-61-59-23-19-49-34-78-43-27-9-52-13-77-13-25 0-50-1-73-2-23-1-46-6-68-13-23-8-44-24-65-48-7-8-13-17-18-28-5-11-8-22-8-33 0-9 3-17 9-25 5-8 13-12 22-12 7 0 14 2 19 6 5 4 10 9 14 14 6-2 12-3 18-3 7 0 14 2 21 5 7 3 13 7 18 12 19-5 39-9 59-11 19-2 39-3 60-3 25 0 51 2 76 7 25 5 49 13 72 24 21 11 42 23 63 38 20 14 39 29 56 46l6 6c1 2 4 3 7 3 3 0 5-2 5-7l1-1107c0-5 2-10 5-13 3-3 8-5 13-5 z" fill="#FECA46"/>
		<path d="M1460-124c7 0 12 3 15 9l45 71-84 133c-5-10-40-83-40-91 0-5 10-28 22-53 21-47 26-69 42-69 z M1241-281c3 0 9 2 19 7 47 21 96 38 96 58l5 73-138-14 0-106c0-11 7-18 18-18 z" fill="#635994"/>
		<path d="M1346 935l144 1 0 214-144 0 0-215 z" fill="#F9C136"/>
		<path d="M1226 360c75 0 149 10 221 30 72 20 140 50 205 89l14 9c4 2 5 6 5 10l0 3-50 188-399 0-9-317c0-8 4-12 13-12 z" fill="#8B62BF"/>
		<path d="M1619 719l1 38-1 38c-1 25-2 51-2 76l0 80-2 79c0 15-4 28-12 40-19 8-38 14-55 17-18 3-37 5-58 6l-46-88c-5-11-14-16-26-16-11 0-20 5-25 15l-47 89c-18-1-36-2-53-4-18-2-35-7-52-14-7-7-12-14-15-23-3-9-5-18-5-27l0-176c0-21 0-43 1-65l0-65 397 0 z" fill="#8B62BF"/>
		<path d="M1621 690c-2 20-3 40-3 60l-396 0 0-60 399 0 z" fill="#C3EF3C"/>
		<path d="M1571 1244c26 0 50 23 50 50 0 26-23 50-50 50-27 0-51-21-51-50 0-29 24-50 51-50 z M1262 1244c27 0 51 21 51 50 0 29-24 50-51 50-26 0-50-23-50-50 0-26 23-50 50-50 z" fill="#F9C136"/>
		<path d="M1437 1112c72 0 136 58 139 133l3 125c0 16-20 28-35 28l-101 0c-39 0-71 15-97 44-3 3-10 13-14 13-3-1-5-3-6-5-21-53-70-54-70-88l3-117c3-73 63-133 140-133l38 0 z" fill="#FDD641"/>
		<path d="M1896 1174c12 0 26 8 26 22l0 290-51 0 0-290c0-14 13-22 25-22 z" fill="#75443E"/>
		<path d="M1976 1438c7 0 12 6 12 12 0 28-13 53-13 81 0 18 62 51 62 69 0 7-4 11-11 12l-76 11c-21 3-30 83-54 83-24 0-32-80-54-83l-75-11c-7-1-11-5-11-12 0-21 62-48 62-70 0-28-13-52-13-80 0-6 6-12 12-12 18 0 60 38 79 38 16 0 64-38 80-38 z" fill="#FCD53F"/>
		<path d="M1524 1297c-21 7-44 12-64 20 11 15 25 26 42 26 10 0 41-6 41-22 0-9-12-17-19-24 z M1313 1297l63 20c-9 15-24 26-41 26-13 0-42-7-42-22 0-11 13-17 20-24 z" fill="#000000"/>
		<path d="M1307 1356c4 0 9 2 16 5 6 3 13 5 20 5l20-2c5 0 7 2 7 8 0 5-4 8-11 9-7 1-13 1-17 1l-11 0-18-5-8-4c-1-1-2-2-3-2l-3-7c0-5 3-8 8-8 z M1529 1355l6 3 2 6-2 6-4-4 4 4-1 0 0 2-1-1c-7 5-13 8-19 10-6 1-13 2-21 2-3 0-8 0-15-1-7-1-10-3-10-8 0-6 2-9 7-9l2 0c5 1 10 1 14 1 8 0 16-2 23-5 7-4 12-6 15-6 z" fill="#D37034"/>
		<path d="M1525 1294l-69 0c-5 0-7 5-7 9 0 19 25 33 42 33 19 0 42-15 42-34 0-5-3-8-8-8 z M1379 1294c5 0 7 2 7 6 0 22-23 36-42 36-15 0-42-15-42-32 0-7 3-10 9-10l68 0 z" fill="#FFFFFF"/>
		<path d="M1511 1294l-52 0-1 10c0 15 14 24 27 24 14 0 27-12 27-27l-1-7 z M1376 1294l1 10c0 15-14 24-27 24-14 0-27-12-27-27l1-7 52 0 z" fill="#7D4533"/>
		<path d="M1500 1294l-28 0c-2 2-3 4-3 7 0 8 8 16 16 16 11 0 16-5 16-16l-1-7 z M1363 1294c2 1 3 4 3 7 0 11-5 16-16 16-9 0-15-8-15-16l1-7 27 0 z" fill="#000000"/>
		<path d="M1477 1307c3 1 5 3 5 5 0 1-2 3-5 5-3 0-5-2-5-5 0-3 2-5 5-5 z M1341 1307c3 0 5 2 5 5 0 3-2 5-5 5-3 0-5-2-5-5 0-3 2-5 5-5 z" fill="#FFFFFF"/>
		<path d="M1430 1221c9 0 17 8 17 17 0 6-15 48-17 55-3 6-7 9-12 9-6 0-10-3-12-8-3-8-16-49-16-54 0-9 5-19 16-19l24 0 z" fill="#FFB02C"/>
		<path d="M1418 1173c14 0 52 15 52 30 0 3-2 5-5 5-7 0-28-11-47-11-19 0-40 11-47 11-3 0-5-2-5-5 0-16 40-30 52-30 z" fill="#990839"/>
	</g></svg>
