<svg version="1.1" xmlns="http://www.w3.org/2000/svg" viewBox="0 0 2300 2300"><g transform="scale(1,-1) translate(-256, -1869)">
		<path d="M761 127c2 0 4 0 7 1 2 1 4 1 6 1l1274 26c2-5 5-9 9-12 3-3 8-5 13-5 8 0 15 4 20 11 5 7 8 14 8 21 0 7-2 13-6 19 4-1 8-1 13-1 5 0 10 0 16 2 9 3 14 10 14 22 0 5-1 11-3 16-2 5-5 9-8 14 5-4 11-6 18-6 9 0 17 4 24 11 6 7 9 15 9 24 0 8-3 16-8 23 9 1 17 5 25 10 7 5 11 13 11 22 0 7-2 14-6 19-4 5-9 9-14 12 15 7 23 18 23 34 0 7-1 15-4 22-3 7-7 13-12 18l0 3-1 2c0 7 2 17 7 29l15 38c6 13 13 27 21 41l36 72c4 9 6 16 6 20 0 7-1 15-4 22-3 7-7 13-12 18l4 0c10 0 19 3 27 9 8 7 12 16 12 29 0 7-2 14-6 21-4 6-9 12-14 17l3 0c6 0 10 2 13 5 4 4 7 9 8 15l5 0c11 0 20 3 28 11 9 9 13 19 13 32 0 5-2 11-5 18 11 2 21 7 29 15 8 8 12 18 12 30 0 9-2 18-7 26-5 8-12 15-19 20 7 3 13 9 18 16 4 7 6 14 6 22 0 11-4 20-12 27 3 5 5 11 5 16 0 6-2 12-5 18-3 5-8 9-14 10 3 3 4 7 4 12 0 6-2 12-5 17-4 5-9 9-15 10l2 10 0 10c0 8-2 15-5 20-3 5-8 10-14 15 6-4 13-6 21-6 7 0 15 2 23 7 7 5 11 12 11 21 0 5-2 11-5 16-4 5-8 9-12 12 3 9 5 18 5 27 0 5-1 11-3 17-3 5-7 9-12 12l1 7c0 10-4 18-11 24-9 8-19 12-31 12l11 8c4 3 7 7 10 10 3-1 7-2 10-2 5 0 9 1 14 4 7 4 11 11 11 20 0 7-2 12-6 17-5 4-10 7-16 8l0 3c0 14-6 25-16 33-12 9-25 13-39 13-1 7-4 12-9 15 7 0 14 2 19 7 5 5 8 11 8 18 0 7-2 13-6 18-5 5-10 8-17 9l0 4c0 12-4 23-13 32-14 12-24 14-42 14-3 9-9 17-18 24-9 6-19 9-30 9-9 0-16-2-23-6-5 5-10 9-17 12-7 3-14 4-21 4-8 0-15-1-20-4-12 13-23 17-39 17-1 10-5 18-11 25-7 6-15 9-25 9-3 0-7 0-10-1l-10-3c0 9-3 17-10 23-7 5-15 8-24 8-3 0-6 0-8-1-3 7-8 12-14 16-7 4-14 6-21 6-7 0-14-2-21-5-7-4-12-9-17-14-1 3-4 5-7 7-3 2-6 4-9 5 2 6 3 12 3 18 0 9-3 18-8 26-6 7-14 11-25 11-9 0-18-3-27-10 0 11-3 20-9 29-7 8-16 12-27 12-7 0-14-2-19-6-6-5-11-10-14-17-3 7-8 14-14 20-6 5-13 8-22 8-6 0-13-3-22-8-10-5-14-12-14-20-7 15-20 23-37 23-8 0-16-2-25-6-9-4-15-10-18-18-3 7-8 13-15 17-7 4-14 6-21 6-8 0-16-2-23-6-7-4-13-10-16-17 0 10-3 18-9 25-7 6-15 9-24 9-8 0-15-2-21-6-7-5-11-11-14-18-1 8-5 15-10 21-5 5-12 8-21 8-8 0-15-2-21-7-6-5-10-12-13-19-1 8-4 16-9 23-6 7-13 10-22 10-7 0-12-2-16-5-5-4-9-9-12-14-3 7-6 14-11 20-5 6-12 9-21 9-9 0-17-3-24-10-7-7-11-15-11-24l1-6c-2 7-6 13-11 18-5 5-12 7-19 7-8 0-15-3-20-8-5-6-9-13-11-20-1 7-5 13-11 18-7 5-14 7-21 7-11 0-20-4-26-12-6-8-9-17-9-28l-4 0c-8 0-15-3-21-8-7-7-11-15-11-25 0-7 2-14 7-21-8-3-14-7-18-14-5-7-7-15-7-23l-10 2-10-2c-7-2-14-5-19-8l1 9c0 6-2 12-5 18-5 8-13 12-24 12-5 0-9-1-13-2-4-2-8-4-11-7-1 9-4 16-9 22-5 5-12 8-21 8-12 0-21-5-28-16-1 7-5 13-10 16-6 3-12 5-19 5-6 0-12-1-17-4-5-3-9-8-12-13-3 6-8 11-13 15-6 4-13 6-20 6-6 0-11-1-16-4-5-3-10-7-13-12-6 6-14 9-23 9-12 0-22-5-29-14-7 7-14 10-23 10-8 0-16-3-23-8-7-6-11-13-11-22l2-8-5 0c-5 0-10-1-15-3-6-3-11-8-14-15-3 2-6 4-9 5-3 1-7 2-11 2-9 0-17-4-22-11-5-7-8-15-8-24 0-5 0-8 1-10l-9 9c-4 2-8 3-13 3-9 0-16-4-21-12-5-8-8-16-8-24 0-7 2-14 7-20 4-6 9-11 16-14-4-7-6-15-6-23 0-11 4-20 11-25-6-2-10-6-13-12-3-6-4-12-4-17 0-11 4-22 13-32-7 8-15 12-25 12-8 0-14-3-19-8-8-8-8-14-8-26-6 7-13 11-21 11-9 0-16-4-21-12-7-13-8-18-8-31-4 2-9 3-14 3-9 0-17-3-23-10-7-7-10-16-10-25 0-15 7-25 22-30l-5 0c-8 0-15-2-21-7-7-6-11-14-11-25 0-7 3-13 8-18 5-5 11-7 18-7-9-1-16-4-21-10-5-7-7-14-7-23l1-8c-9 0-16-3-23-8-7-5-11-13-11-22 0-5 1-9 3-13 1-5 3-9 6-12-5-3-10-7-14-12-4-5-6-11-6-18 0-11 5-18 15-23 15-7 23-8 36-8-7-1-15-5-22-10-8-6-12-14-12-23 0-7 3-13 10-18 6-5 12-8 18-11-7-2-12-5-17-10-5-5-7-12-7-19 0-9 3-16 10-21 6-5 13-8 22-8l0-4c0-8 2-15 6-23 5-10 12-15 22-15-7-2-14-5-19-10-6-5-9-11-9-20 0-6 2-11 5-15 3-4 8-7 13-9 5-3 10-4 16-5 5-1 10-1 15-1l5 0 0-2c0-6 3-13 9-21 6-10 11-17 16-20-1-4-2-8-2-13 0-5 1-10 3-16 3-11 8-20 13-27-13-3-24-10-33-19-10-9-15-21-15-34 0-16 6-28 18-35 12-8 25-12 39-12 0-13 1-27 3-42 1-15 5-30 11-44 5-14 13-26 22-36 9-11 22-17 37-20l11-97c-5-4-10-9-14-15-4-6-6-13-6-20 0-6 2-12 5-17 3-5 6-10 10-15-3-5-6-10-8-15-2-5-3-11-3-16 0-10 3-18 10-23 7-6 14-10 23-13-2-6-3-12-3-19 0-21 11-31 33-31 5 0 8 0 11 1-1-4-2-8-2-11 0-8 2-15 7-22 7-11 16-16 29-16 1 0 3 0 4 1l4 0-2-11c0-7 2-14 7-21 6-11 16-16 29-16 z" fill="#EA9129"/>
		<path d="M2072 716c11 0 21 3 31 8 9 5 18 11 25 19 7 8 13 17 17 28 4 10 6 20 6 31 0 16-5 29-16 38-7 6-15 9-24 9-5 0-11-1-16-3 7 2 13 7 16 14 3 7 4 14 4 20 0 21-11 32-32 32-8 0-15-1-22-4l-22-9c-9-4-18-8-27-13-9-5-16-11-23-17-7-7-13-14-17-23-5-9-7-19-7-30 0-13 3-26 10-38 6-12 14-22 25-31 10-9 21-17 34-22 13-6 25-9 38-9 z M558 642c15 0 45 5 45 25 0 22-33 27-50 30 16 6 35 17 35 38 0 33-42 53-69 53 0-15 5-30 15-43-25-7-48-25-48-53 0-33 29-47 57-47l0-2 15-1 z M2226 535l11 21c5 10 11 20 16 31l15 30c4 9 6 16 6 19 0 7-1 15-4 22-3 7-7 13-12 18l7-1c9 0 17 4 24 10 8 7 12 17 12 29 0 7-2 14-6 21-4 6-9 12-14 17l1 0c-5 5-12 10-21 15-9 4-18 6-25 6-6 0-11-2-16-5-5-3-8-9-8-16 0-5 2-10 5-14l9-11-24-9c-9-4-16-8-23-13-7-5-12-12-16-19-4-8-6-17-6-28 0-10 2-21 6-33 4-12 9-24 16-35 6-12 13-23 22-33 8-10 16-17 25-22 z M2070 138c8 0 15 4 20 11 5 7 8 14 8 21 0 7-2 13-6 19 4-1 8-1 13-1 5 0 10 0 16 2 9 3 14 10 14 22 0 5-1 11-3 16-2 5-5 9-8 14l4-2-4 6-5 4c5 5 10 11 15 18 4 7 6 14 6 21 0 8-3 15-8 21-5 5-12 9-19 11 7 3 13 11 16 22 3 11 4 19 4 26 0 17-6 29-17 35-12 5-26 8-41 8-19 0-36-4-49-13-13-9-24-20-33-33-9-14-15-29-19-46-4-17-6-33-6-50 0-20 3-40 8-60 5-21 13-39 24-56l48 1c2-5 5-9 9-12 3-3 8-5 13-5 z M761 127c15 0 31 1 47 2l46 2c4 13 7 27 9 41 1 13 2 27 2 41 0 14-1 31-4 52-3 20-8 39-15 58-7 18-17 34-29 47-13 13-28 20-47 20-7 0-14-1-21-3-8-2-15-5-22-9-7-4-13-9-18-14-5-6-7-13-7-20 0-7 2-13 5-19l9-18c-7-3-14-7-19-12-5-5-8-12-8-21 0-7 2-13 6-19 3-6 7-11 12-16l-3 1-4-2c-3-2-5-5-8-8-3-3-5-7-6-10-2-4-3-7-3-9 0-10 3-19 10-26 7-7 15-11 25-11 4 0 7 0 9 1l-2-11c0-7 2-14 7-21 6-11 16-16 29-16 z" fill="#000000"/>
		<path d="M2053 360c120 0 215 97 215 215 0 121-97 216-215 216-121 0-216-99-216-216 0-119 97-215 216-215 z M759 360c121 0 216 97 216 215 0 121-99 216-216 216-121 0-216-99-216-216 0-119 97-215 216-215 z" fill="#452829"/>
		<path d="M1533-287c54 0 106 8 157 24 51 16 97 39 140 68 43 29 81 65 114 106 33 41 60 86 79 137 7 19 14 39 20 60 6 21 10 42 11 61 9 129 17 257 25 384 7 127 15 255 23 384l3 27c-7 3-14 8-20 15-6 6-9 14-9 23 0 7 2 14 5 21-7 3-13 8-18 14-5 6-7 13-7 22 0 9 2 16 5 22-7 3-14 8-19 13-5 5-8 12-8 20 0 5 1 9 3 14 1 4 3 8 6 11l-11-2c-6 0-11 2-16 7-7 7-11 15-11 25 0 8 3 15 8 22-5-5-10-9-15-13-5-4-12-6-19-6-3 0-5 0-7 1l-7 2c6-6 11-13 16-20 5-8 7-17 7-26 0-11-4-21-13-30-9-9-19-14-30-14-10 0-17 3-21 10-5 7-7 15-7 24-4-4-9-8-14-11-5-3-11-5-17-5-9 0-16 4-20 11-4 7-6 14-6 21 0 4 0 8 1 12l3 10c-4-5-8-9-13-12-5-3-11-5-17-5-9 0-15 3-20 10-5 7-7 14-7 22 0 6 1 12 3 17-5-3-11-6-17-8-6-3-12-4-19-4-10 0-18 3-23 9-6 6-9 14-9 23 0 7 1 13 2 16-3-3-8-5-15-5-3 0-6 0-8 1 0-13-4-23-12-30-8-7-19-11-32-11l-16 2c5-7 8-15 8-23 0-6-1-12-4-17-3-5-7-10-12-14l17 9c5 3 11 4 17 4 8 0 14-2 19-7 4-5 6-12 6-19 0-5 0-9-1-11 4 6 9 11 15 16 6 5 13 7 20 7 9 0 16-3 21-9 5-7 9-14 10-21l10 4c3 1 6 2 9 2 9 0 15-3 18-9 3-6 5-13 5-20 0-11-3-22-10-31-7-9-17-14-29-14-10 0-17 3-21 9-5 6-10 12-17 17-10-14-23-21-39-21-11 0-21 4-28 11-8 7-13 15-16 26l-10-3c-4-1-8-1-12-1-15 0-27 6-35 17-11 13-13 25-13 42-11 1-20 5-27 12-7 7-10 16-10 27 0 7 1 14 4 19-4 1-9 2-14 5-5 3-10 5-13 8-2-5-5-8-9-11l-13-7c8-3 16-8 23-15 7-8 11-16 11-25 0-13-6-24-17-31-11-7-23-11-35-11-7 0-14 2-21 5-7 3-11 9-11 18 0 3 1 7 2 10l4 9c-13 8-20 19-20 34 0 7 2 14 5 21 3 6 7 12 12 17l-5 0c-7 0-13 2-19 5-7 4-11 11-11 21 0 1 0 2 1 3l0 3c-7 1-13 4-18 9-5 5-8 11-8 18 0 2 0 3 1 4-10-9-21-13-34-13-9 0-17 3-22 9-5 6-9 14-10 23l0-3c0-10-4-18-12-25-9-9-19-13-30-13-7 0-13 3-20 8-9-5-17-8-25-8-13 0-22 5-28 14-8 11-9 20-9 34-10 3-19 9-26 19-8 11-11 21-11 33-5-7-12-13-20-16-8-4-16-6-25-6-3 0-5 0-8 1-3 1-6 2-8 4-1-7-2-15-5-22-3-8-7-15-12-22-5-7-10-12-17-16-7-4-14-6-22-6-7 0-13 1-19 4-6 2-12 5-17 8l-16-1c-5 1-10 3-14 6-1-4-5-7-10-8-5-2-10-3-13-3-3-9-8-16-15-21 2-5 3-11 3-17 0-13-5-23-14-31 5-7 10-11 14-14 4-3 6-9 6-20 0-7-2-13-6-19-5-7-10-12-15-15 3-3 4-8 4-14 0-11-4-18-11-21-7-4-16-6-25-6-11 0-21 3-28 10-8 7-12 16-12 28 0 7 2 13 6 19 3 6 8 11 13 14l-4 0c-8 0-15 2-23 6-9 5-15 11-19 19-1-7-3-14-8-22-6-10-13-12-21-12l1-17c-1-5-5-9-10-13 7-5 11-13 11-22 0-5-1-9-4-12 16-11 19-23 19-40 7-1 14-4 20-9 5-5 8-12 8-21 0-7-2-14-7-20-5-6-12-9-19-9-5 0-10 1-13 4-4 2-8 5-11 8-3-7-7-12-10-15-4-4-10-7-17-10 9 0 17-1 23-3 6-3 11-8 15-17l14 6c5 1 10 2 15 2 9 0 17-3 23-9 6-7 9-15 9-24 0-8-2-15-7-22-5-7-11-10-20-10-3 0-7 1-10 2l-10 4c-3-5-7-9-13-11-7-3-13-4-18-4-9 0-17 3-22 8-6 6-8 13-8 25-5-5-11-10-16-13-6-4-13-6-20-6-9 0-17 3-26 10l24-376c8-125 16-250 25-376 1-20 5-40 11-61 6-21 13-41 20-60 19-51 46-96 79-137 33-41 71-77 114-106 43-29 89-52 140-68 51-16 103-24 157-24l253 0 z" fill="#EEBFAA"/>
		<path d="M1406 54c83 0 166 39 212 113 3 4 4 8 4 11 0 10-10 20-20 20-4 0-7-1-10-3-63-31-121-44-186-44-65 0-124 14-186 44-3 2-7 3-10 3-10 0-20-10-20-20 0-3 1-7 4-11 47-73 129-113 212-113 z" fill="#990839"/>
		<path d="M1459 288c37 0 73 31 73 71 0 8-1 15-4 22l-71 228c-6 22-25 38-51 38-24 0-44-16-51-38-12-40-75-214-75-249 0-41 34-72 73-72l106 0 z" fill="#3D2123"/>
		<path d="M1872 575l-299 0c-16 0-31 12-31 30l1 6c19 88 91 151 183 151 86 0 161-59 182-141l1-9c0-21-16-37-37-37 z M1239 575c16 0 31 12 31 30l-1 6c-19 89-96 151-183 151-86 0-161-59-182-141l-1-9c0-21 16-37 37-37l299 0 z" fill="#FFFFFF"/>
		<path d="M1814 575l-230 0c-3 11-5 22-5 32 0 68 57 120 120 120 68 0 120-57 120-120 0-10-2-21-5-32 z M1228 575c3 9 4 19 4 32 0 67-51 120-119 120-68 0-120-57-120-120 0-10 2-21 5-32l230 0 z" fill="#7D4533"/>
		<path d="M1758 575l-120 0c-5 11-8 21-8 32 0 38 28 68 68 68 40 0 68-30 68-68 0-11-3-21-8-32 z M1174 575c5 9 7 20 7 32 0 38-28 68-68 68-37 0-68-29-68-68 0-11 3-21 8-32l121 0 z" fill="#000000"/>
		<path d="M1661 631c12 0 21 10 21 22 0 12-9 21-21 21-12 0-21-9-21-21 0-12 9-22 21-22 z M1072 631c12 0 21 10 21 22 0 12-9 21-21 21-12 0-21-9-21-21 0-12 9-22 21-22 z" fill="#FFFFFF"/>
		<path d="M945 860c9 0 17 3 25 10l0-1 1 2c51 30 90 41 147 41 17 0 34-3 51-3 18 0 36 14 36 35 0 35-34 42-63 42-69 0-104-3-155-23-26-11-79-33-79-66 0-19 16-37 37-37 z M1873 858c21 0 37 16 37 38 0 32-54 55-83 67-53 20-89 24-157 24-29 0-60-10-60-41 0-19 14-37 36-37 19 0 34 4 53 4 35 0 70-6 101-19 19-8 57-36 73-36 z" fill="#000000"/>
		<path d="M1785 1589c-5 0-9 1-12 4l-10 8c-4-1-8-1-13-1l-4 0-11 1c-5 1-8 3-11 6-3 3-5 7-5 13 0 8 5 16 14 24 9 8 17 12 24 12 5 0 10-2 17-6 7-5 10-10 10-15l12 2 9-1c7-2 11-7 11-16 0-7-3-13-10-20-7-7-14-11-21-11 z M2076 1472c-7 5-16 9-25 9-8 0-14-3-19-9-11 15-38 23-54 23-17 0-31-6-41-18-8-3-18-4-29-4-29 0-48 14-48 45 0 22 14 42 39 42 15 0 27-7 38-18 10 10 26 21 42 21 19 0 33-15 42-29 9 5 20 10 31 10 25 0 38-23 38-45 0-11-3-23-14-27 z M723 1411c-10 0-17 4-22 13-5 9-7 17-7 26 0 9 3 17 8 23 6 8 14 9 26 9-1 4-1 8-1 11 0 9 2 16 6 22 5 8 15 12 29 12 4 0 9-1 14-2 0 10 2 19 6 27 4 7 12 11 23 11 4 0 8 0 12-1l11-3c1 9 5 17 12 23 6 5 14 8 24 8 10 0 19-3 26-9 4 5 9 10 14 14 5 4 12 6 19 6 11 0 21-5 29-14 5 5 10 10 15 13 5 3 12 5 19 5 14 0 24-6 31-18 9 7 17 10 26 10 9 0 16-3 22-9 5-6 8-13 8-21 0-9-3-16-10-22-7-7-15-10-23-10-5 0-10 2-17 7-7 5-15 7-25 7-6 0-12-1-18-4-6-3-10-8-12-14-11 7-23 10-34 10-7 0-15-2-22-6-7-4-13-10-16-17-7 2-14 3-21 3-9 0-19-3-29-8-11-5-17-14-18-25l-8 0c-8 0-18-1-27-5-12-5-18-14-18-29 0-1 0-2 1-3l0-3-14 2c-8 0-14-2-20-6-9-7-14-17-14-32l-5-1 z M641 1171c13 0 23 4 31 13 7 9 11 19 11 31 0 6-1 12-3 18 9 3 16 8 20 13 4 5 6 13 6 23l-1 11c7 0 14 3 19 10 5 6 8 13 8 20-9 4-16 10-21 19-5 8-8 17-8 26 0 9 3 18 8 25 5 7 11 13 18 18-8 5-16 7-24 7-10 0-19-3-26-8-7-6-11-14-11-25 0-4 1-8 2-12l4-11-13 2c-7 0-13-2-19-4-10-5-15-14-15-27 0-9 2-18 6-26-9 0-16-3-23-8-7-5-10-13-10-22 0-8 3-15 9-21 5-6 11-11 18-14-5-3-8-8-11-14-3-7-4-13-4-18 0-8 3-14 9-19 6-5 13-7 20-7 z M758 1320c-9 0-18 3-26 9-8 6-12 14-12 25 0 7 2 14 7 20 4 6 9 11 15 15l-3 10c-1 3-1 7-1 10 0 10 3 18 10 23 7 5 15 7 24 7 4 0 9-1 14-2l-1 9c0 8 3 15 7 20 6 7 15 10 27 10 7 0 13-1 19-3 1 10 5 18 11 25 5 6 13 9 24 9 10 0 19-3 28-8 3 7 8 14 14 19 6 5 13 8 22 8 11 0 22-4 31-11 3 5 7 9 12 12 5 3 10 4 16 4 7 0 13-2 19-5 5-3 10-8 14-13 5 5 10 9 16 12 5 3 11 5 18 5 8 0 16-2 23-7 7-5 12-12 13-20 8 6 17 9 26 9 11 0 21-4 29-13 8-9 12-20 12-31 0-13-5-24-16-31-3 7-7 13-13 16-7 3-14 5-21 5-9 0-17-3-23-9-3 7-8 12-14 16-7 4-14 6-21 6-5 0-11-1-16-3-6-2-10-6-13-11-7 12-17 18-30 18-6 0-13-2-20-5-7-4-11-10-11-17-8 10-19 15-32 15-9 0-17-2-26-7-9-5-14-13-14-22 0-3 0-5 1-6-5 7-12 11-23 11-9 0-18-3-27-9-9-6-13-14-13-24 0-3 1-8 4-15l-12 4c-4 1-8 2-13 2-11 0-20-4-27-12-7-9-11-19-11-30 0-12 4-23 11-32-9-5-18-8-28-8 z M609 761c9 0 17 3 22 10 5 6 8 14 8 23 0 7-1 13-3 19 9 0 16 3 21 8 5 5 8 12 8 21 0 9-2 17-7 24-5 7-12 12-19 16l3 0c8 0 15 3 20 9 5 7 8 15 8 24 0 9-3 16-8 23-5 7-12 12-20 15 15 7 22 19 22 36 0 9-2 18-6 26-5 8-11 14-19 17 15 5 27 13 34 25 7 11 11 25 11 40 0 11-4 23-12 34-8 11-18 17-31 17-10 0-18-4-23-11-5-7-8-16-8-25 0-3 0-5 1-7 0-2 0-4 1-7l-10 1c-8 0-15-2-23-5-11-5-16-15-16-28 0-5 1-10 2-14 1-5 3-9 5-14-8-1-14-5-19-11-5-6-8-13-8-21 0-11 5-22 14-31-11-5-17-14-17-27 0-15 7-26 22-31-6-1-10-5-13-11-3-6-5-12-5-17 0-6 1-12 4-18 3-6 7-10 14-11-3-3-6-7-7-12-2-5-3-10-3-15 0-16 8-26 24-30-1-3-1-7-1-10 0-7 2-13 7-19 7-9 16-13 27-13 z M1693 1181c11 0 18 3 23 9 4 6 6 14 6 24 0 11-4 20-12 27-8 7-17 10-27 10 2 4 3 9 3 14 0 10-4 19-11 26-7 7-16 11-26 11l2 11c0 7-2 14-7 21-7 10-17 15-29 15-3 0-7-1-11-2-1 10-5 18-10 25-6 6-14 9-25 9-9 0-17-2-24-6-4 5-9 10-15 14-6 3-13 5-20 5-9 0-17-3-24-9-7-7-10-15-10-24 0-7 2-14 7-21 5-7 11-12 19-13 11-1 16-5 17-10 0-6 1-13 4-21 3 5 9 9 17 11 7 2 14 3 19 3 16 0 29-4 38-11 9-8 13-20 13-37 24-2 36-15 36-40l0-8c0-3-1-5-2-8l6 0c7 0 12-1 16-4 5-5 10-11 13-19 3-1 7-2 14-2 z M1738 1439c8 0 15 3 21 10 5 6 8 13 8 21 0 7-2 13-6 18-5 4-10 7-17 8l0 8c0 8-1 16-5 21-5 7-15 11-28 11-7 0-12 0-15-1-2 11-7 21-15 28-9 7-19 10-30 10-9 0-18-2-28-5-5 7-11 13-18 18-8 4-16 6-25 6-7 0-14-1-21-4-7-3-13-6-18-10-10 9-21 13-33 13-15 0-27-6-36-19-11-16-13-29-13-46l29 0c7 0 15-5 25-14 3 4 8 7 13 9 5 2 11 3 16 3 7 0 14-2 21-5 6-3 11-8 14-14 3 2 7 3 12 4 4 1 8 1 12 1 11 0 21-3 30-9 8-6 15-14 20-24 9 3 17 5 26 5 11 0 19-2 24-6 5-5 8-10 11-15 3-6 6-11 9-15 3-5 9-7 17-7 z M1869 1354c-7 0-12 3-14 8-3 5-5 10-7 16-3 5-6 11-11 16-5 5-13 7-24 7l-11-1 0 5c0 7-2 15-6 22-5 8-13 13-23 14 7 9 10 18 10 28 0 8-2 16-6 23-5 7-11 12-20 13l0 5c0 12-3 22-9 30-8 9-19 13-34 13l-12-2c-3 12-9 21-18 28-9 6-20 9-32 9-4 0-8 0-12-1-4-1-8-2-11-4-4 6-10 10-19 13-9 3-18 4-25 5 10 6 21 11 33 14 12 3 24 4 35 4 6 0 12 0 19-1 6-1 12-3 18-6 5-3 10-6 15-10 4-5 7-10 8-17 9 4 18 6 28 6 13 0 25-4 34-13 9-9 13-21 13-34 0-5 0-8-1-11l11 1c10 0 20-2 28-7 10-6 15-18 15-35 0-6 0-11-1-14 11-2 21-7 28-15 7-8 11-18 11-29 0-8-1-15-4-20 5-4 10-9 14-14 4-5 6-12 6-19 0-7-2-14-7-19-5-5-12-8-19-8 z M2182 1122c15 0 36 6 36 25 0 19-18 33-36 33-20 0-34-15-34-35 0-18 19-23 34-23 z M2215 797c7 0 13 2 20 6 6 3 9 9 9 17 0 5-2 11-5 16-3 5-7 9-11 12 7 2 13 6 18 13 5 6 7 13 7 20 0 7-3 14-8 21-5 7-12 13-19 19-7 5-15 10-23 14-9 3-16 5-22 5-7 0-14-2-21-5-7-4-10-10-10-19 0-7 2-14 6-20 4-6 9-12 14-17l-4 0c-5 0-9-2-13-4-5-3-7-9-7-16 0-7 2-15 7-22 5-7 10-14 17-20 7-6 14-11 22-14 8-4 16-6 23-6 z M2271 926c-23 0-77 9-77 43 0 11 7 19 16 26-17 3-33 11-33 30 0 9 3 18 9 27-10 6-15 15-15 28 0 24 16 33 39 33 24 0 37-15 37-39 0-8-1-15-3-22 23-3 36-18 36-41 0-8-2-17-5-27 13-11 29-13 29-34 0-20-16-24-33-24 z M2071 1355c-7 0-13 2-18 7-5 5-10 10-13 16-5-6-12-9-21-9-7 0-14 2-20 7-7 4-11 10-13 17-8-11-18-17-31-17-13 0-22 6-29 17-3-1-6-1-9-1-7 0-13 2-18 8-7 7-11 16-11 25 0 11 4 19 12 26 7 6 16 9 26 9 5 0 10-1 14-3 5 7 12 13 20 17 8 4 16 6 25 6 7 0 15-2 22-5 7-4 13-9 18-14 9 3 17 5 24 5 9 0 17-2 24-7 6-5 11-12 16-19l7 0c7 0 14-1 20-5 7-5 11-14 11-25 0-7-2-13-6-18-5-5-11-9-18-10-1-7-5-14-11-19-7-5-14-8-21-8 z M2142 1176c9 0 18 4 27 11 8 7 12 16 12 26 0 11-5 20-14 27-9 6-19 11-28 14l1 10c0 10-2 19-7 27-7 11-18 16-33 16-7 0-11-1-14-2-3 11-7 20-14 28-7 7-17 11-28 11-9 0-18-2-29-7-5 7-10 12-16 17-7 5-14 7-22 7-12 0-23-6-32-17l-15 9c-5 3-11 4-17 4-8 0-16-3-23-8-8-6-12-13-12-22 0-7 4-11 12-11 13 0 22-2 27-7 5-5 8-11 11-17 2-6 4-11 7-16 3-5 8-8 17-8 5 0 9 1 14 3 5 1 9 3 12 6 2-6 6-11 11-16 5-5 11-7 18-7 8 0 15 3 20 10l0-4c0-6 2-12 6-18 5-7 11-11 20-11 7 0 12 3 16 8-2-5-3-10-3-15 0-9 3-15 10-20 6-5 13-7 21-7 7 0 13 2 16 5 2-7 5-13 10-18 5-5 11-8 19-8 z M1978 1173c-3 9-7 16-12 19-6 3-14 4-23 4l-7 0c-4 11-10 19-19 25-9 5-20 8-31 8-5 0-9 0-12-1-2 13-7 22-16 28-9 5-20 8-32 8 0 9-3 17-10 23-7 6-14 10-23 12 1 7 2 12 2 17 0 11-3 21-9 29-6 7-15 12-26 15 3 5 4 11 4 18 0 11-3 21-9 30-7 9-16 14-27 15 9 3 17 5 24 5 13 0 22-4 29-11 7-8 11-18 12-30l5 0c28 0 42-15 42-44 9 0 17-2 24-7 7-5 11-12 11-21 0-4 0-7-1-9 11 0 20-3 27-10 7-7 12-15 13-26 4 1 8 2 11 2 5 0 9-1 13-4 6-5 10-13 11-22 8 3 15 5 21 5 13 0 23-4 32-13 9-9 13-19 13-32 0-11-4-19-11-24-8-6-17-9-26-9 z M2330 1166c13 0 25 4 34 11 3 9 5 18 5 27 0 5-1 11-3 17-3 5-7 9-12 12l0 5c0 9-2 15-6 21-5 7-13 12-23 15-7-3-11-7-14-11-3-4-9-6-18-6-9 0-17 3-24 9-7 6-11 14-11 23 0 3 0 6 1 8-3-4-8-6-13-6-5 0-10 2-15 7-5 4-7 9-7 14 0 3 0 5 1 6-7-6-15-9-22-9-5 0-10 2-14 5-5 3-9 6-12 11-8-1-15-5-21-10-6-5-9-12-9-21 0-9 3-16 9-22 5-6 12-9 21-9 7 0 14 2 20 6-3-3-4-8-4-14 0-8 3-15 9-20 6-6 13-9 21-9 3 0 8 1 15 4-2-4-3-8-3-11 0-8 3-15 10-20 6-5 13-8 20-8 9 0 17 3 26 10l-1-8c0-8 3-14 11-18 9-6 19-9 29-9 z M2298 1273c7 0 13 1 19 3l-4 0 11 8c4 3 7 7 10 10 3-1 7-2 10-2 5 0 9 1 14 4 7 4 11 11 11 20 0 7-2 12-6 17-5 4-10 7-16 8l0 3c0 14-6 25-16 33-12 9-25 13-39 13-1 7-4 12-9 15l1 0c-5 5-11 8-17 10-7 2-13 3-20 3-8 0-16-2-24-5-11 12-23 18-37 18-17 0-30-7-40-21-11-14-16-29-16-44 0-9 3-17 9-22 5-6 13-9 22-9 9 0 17 3 24 8 3-5 6-8 10-11 4-3 9-5 14-5 9 0 17 3 23 9 1-19 11-29 30-29 3 0 6 0 8 1 0-9 2-17 6-24 4-7 11-11 22-11 z M2300 1411c7 5 10 12 10 20 0 7-2 12-6 17-5 5-10 8-17 9l0 4c0 12-4 23-13 32-14 12-24 14-42 14-3 9-9 17-18 24-9 6-19 9-30 9-9 0-16-2-23-6-5 5-10 9-17 12-7 3-14 4-21 4-8 0-15-1-20-4 9-9 12-20 12-37 13 0 24-4 34-11 9-7 14-18 14-31 0-5 0-9-1-12l16 2c8 0 15-1 22-3 12-4 21-13 26-26 8 4 17 6 26 6 9 0 18-2 27-6 8-4 15-10 21-17 z M2344 979c13 0 23 3 30 10 3 5 4 10 4 16 0 12-7 24-19 28l1 1c-9 5-20 8-31 10 7 7 12 16 16 27l-2 1c1 7 2 13 2 20 0 16-7 26-19 35l5-3c-16 13-39 22-60 22-16 0-30-6-30-24 0-25 27-50 53-50-9-9-14-21-14-34 0-32 31-59 64-59 z M2305 772c5 11 9 22 9 34 0 12-4 22-12 30 17 4 32 14 32 33 0 28-28 43-53 43-7 0-14-1-21-3 10-10 15-22 15-35 0-13-6-31-21-31 5-5 8-12 8-20 0-14-11-27-22-34 8 1 15 2 23 2 16 0 31-4 42-19 z M441 945c16 0 30 4 42 12 11 8 17 21 17 38l0 12-2 11c7 2 13 6 18 12 4 6 6 13 6 20 0 3-1 7-2 11l-4 10 8 0c8 0 14 1 18 4 5 4 9 9 12 15 3 5 7 10 11 15 4 5 11 7 21 7l7 0 7-2c-1 3-2 8-2 15 0 7 2 13 5 19 3 5 8 9 15 11-11 5-17 13-17 26 0 7 2 13 6 18l-6 1c-7 0-14-2-19-7-6-5-10-12-12-19-9 8-19 12-29 12-9 0-15-3-18-9-4-6-6-13-7-20-7 3-14 5-21 5-9 0-16-3-21-9-5-6-8-14-8-23 0-5 0-9 1-12l-4 0c-8 0-15-2-23-6-9-6-13-14-13-25 0-3 1-7 2-10l4-11-3-1c4 0 7 0 9 1-7-1-15-5-22-10-8-6-12-14-12-23 0-7 3-13 10-18 6-5 12-8 18-11-7-2-12-5-17-10-5-5-7-12-7-19 0-9 3-16 10-21 6-5 13-8 22-8l0-1 z M471 1221c35 0 56 17 62 50l4 0c8 0 14 2 20 8 6 6 9 14 9 23 7-7 14-10 22-10 12 0 21 6 27 17-1 5-1 9-1 13 0 10 2 18 7 26 7 11 19 16 34 16-6 7-9 14-9 21 0 7 2 13 7 19-9-7-20-11-33-11-5 0-10 1-15 3-5 1-10 4-13 7 3-3 5-5 6-7-7 8-15 12-25 12-8 0-14-3-19-8-8-8-8-14-8-26-6 7-13 11-21 11-9 0-16-4-21-12-7-13-8-18-8-31-4 2-9 3-14 3-9 0-17-3-23-10-7-7-10-16-10-25 0-15 7-25 22-30l-5 0c-8 0-15-2-21-7-7-6-11-14-11-25 0-7 3-13 8-18 5-5 11-7 18-7l-3-1c3-1 5-1 8-1l6 0 z M621 1406c23 0 37 21 37 43 0 12-4 22-7 34-5-3-10-4-17-4-15 0-30 6-41 17l-2-14c0-11 4-20 11-25-12-4-17-20-17-31 6-12 22-20 36-20 z M632 1495c-12 0-24 3-36 10l1 0c-7 3-12 8-16 14-5 6-7 13-7 20 0 8 3 16 8 24 5 8 12 12 21 12 5 0 9-1 13-3l9-9c-1 3-1 6-1 10 0 6 2 13 5 20 5 10 14 15 25 15 4 0 8-1 11-2 3-1 6-3 9-5 7 14 17 18 34 18l-1 3c12-2 22-7 29-15 7-8 11-18 11-31 0-15-5-29-15-41-11-13-24-19-40-19-5 0-9 0-12 1-7-7-14-12-22-16-8-4-17-6-26-6 z M798 1574c-13 0-24 3-32 10-8 7-12 17-12 30 0 6 1 12 3 18 1 5 3 11 6 16l0-1c7 9 17 14 29 14 9 0 17-3 23-9 3 5 8 9 13 12 5 3 10 4 16 4 7 0 14-2 20-6 5-4 10-9 13-15 3 5 7 10 12 13 5 3 11 4 17 4 7 0 13-2 19-5 5-3 9-9 10-16 7 11 16 16 28 16 9 0 16-3 21-8 5-6 8-13 9-22 3 3 7 5 11 7 4 1 8 2 13 2 9 0 16-3 21-9 5-6 8-13 8-21l-7 1c-6 0-13-3-20-8-11 10-23 15-36 15-13 0-23-4-31-12-10 6-21 9-32 9-7 0-13-1-20-4-7-3-12-7-15-12-5 2-9 4-13 5-5 1-10 2-15 2-9 0-17-2-24-7-7-5-13-12-16-21-3-1-6-1-9-1-3-1-7-1-10-1 z M909 1097c-11 0-21 3-28 10-8 7-12 16-12 28 0 7 2 13 6 19 3 6 8 11 13 14l-5 0c-11 0-20 3-28 10-2 6-3 12-3 19 0 9 2 18 7 25 5 7 11 13 18 18-7 0-14 3-19 9-6 6-9 13-9 20 0 10 3 16 8 19 5 3 11 5 18 7 7 1 13 4 20 8 7 4 11 12 14 24l10-1c6 0 12 1 19 3 11 3 18 8 22 17 2-3 5-4 9-5 3-1 7-1 10-1 10 0 20 3 29 8 2-3 6-6 11-7 5-1 10-2 14-2 3 0 7 0 10 1 3 1 6 2 9 4 2-4 6-7 11-8 5-2 9-3 13-3 7 0 13 2 16 5 3-7 9-13 18-18-3-13-9-24-18-35-9-11-21-16-35-16-7 0-13 1-19 4-6 2-12 5-17 8l-16-1c-5 1-10 3-14 6-1-3-5-6-10-8-5-2-10-3-13-3-3-9-8-16-15-21 2-5 3-11 3-17 0-13-5-23-14-31 5-7 10-11 14-14 4-3 6-9 6-20 0-7-2-13-6-19-5-7-10-12-15-15 3-3 4-8 4-14 0-11-4-18-11-21-7-4-16-6-25-6 z M788 995l13 2c2 2 4 6 7 11 3-3 7-6 11-8 3-3 8-4 13-4 7 0 14 3 19 9 5 6 7 13 7 20 0 9-3 16-8 21-6 5-13 8-20 9l0 5c0 6-1 12-4 17-4 7-9 13-15 18 3 3 4 7 4 12 0 9-4 17-11 22 7 5 10 12 10 20 0 5 0 8-1 10l4-1c3 0 5 1 7 3 3 2 6 5 9 9 3 4 5 8 7 12 1 4 2 8 2 11l-3 24c-2 9-5 17-8 25-4 7-9 14-15 19-6 5-14 8-23 8-9 0-17-2-23-7-6-5-9-13-9-22 0-5 1-9 2-13l4-12c-9 0-18-2-26-7-8-5-12-13-12-24 0-5 1-9 2-13l4-12c-7-2-12-6-15-11-4-5-6-11-6-18 0-7 2-13 5-18 3-6 8-11 13-15-7-6-11-14-11-23 0-9 3-18 10-25 7-8 15-11 26-11-2-4-2-8-2-12 0-7 2-12 6-18 7-9 16-13 27-13 z M802 897c5 0 11 1 18 4 6 2 10 6 13 11l10-4c3-1 7-2 10-2 9 0 15 3 20 10 5 7 7 14 7 22 0 9-3 17-9 24-6 6-14 9-23 9-5 0-10-1-15-2l-14-6c-4 9-9 15-15 17-6 2-14 3-23 3l1 1c-3-1-6-1-9-1-7 0-14 2-20 7-9 6-13 15-13 26 0 4 1 8 3 12l-9-1c-10 0-17 4-22 12-6 9-9 20-9 33-2-12-6-22-12-31-6-9-15-15-27-18 7-3 12-8 13-14l4-19c1-6 4-11 8-16 4-5 12-7 24-7 6 0 11 0 14 1-7-3-11-7-14-14-3-7-5-14-5-20 0-5 1-9 2-12 9-7 18-10 27-10 7 0 14 2 20 6 5 3 10 7 15 12l0-4c0-8 3-15 7-20 5-6 12-9 23-9 z M1945 1085c11 0 21 5 30 14 9 9 13 19 13 30 0 9-2 18-7 26-5 7-10 14-16 20l3-1c-7 6-16 9-26 9-3 0-7 0-10-1l-10-3c-1 11-6 20-15 27-9 7-19 10-30 10-5 0-10-1-15-3 0 11-3 20-9 28-7 7-16 11-27 11-6 0-10-1-13-2l0 4c0 9-3 17-8 24-6 7-15 11-26 11l-7-1c6 9 9 19 9 28 0 9-3 17-10 24-7 7-16 11-25 13 3 8 5 16 5 23 0 13-5 23-14 30-10 7-21 10-33 11-1 15-5 27-12 36-7 8-19 12-34 12-5 0-9 0-12-1-5 9-11 17-19 23-8 6-17 9-28 9-9 0-17-2-23-5-10 11-22 17-37 17-13 0-23-4-31-12-6 4-12 8-19 11-7 3-15 5-22 5-7 0-13-2-17-6-5-5-8-11-9-18-4 5-9 9-14 12-6 3-12 5-19 5-7 0-14-3-19-8-5-5-8-12-8-19 0-2 0-4 1-5 0-2 0-4 1-6-8 6-17 9-27 9-6 0-12-2-19-5-7-3-10-9-10-16 0-3 1-6 3-9 7 0 13-1 19-3 6-2 10-7 12-14 6 3 13 4 21 4 10 0 20-3 31-8 10-6 16-14 18-25 7-5 16-8 25-8 7 0 12 2 17 6 4 4 8 9 11 14 8-8 17-12 26-12 5 0 11 2 16 5 5 3 8 7 9 12 1-7 5-12 11-15 5-4 11-6 18-6 10 0 18 4 23 12l0-4c0-8 2-15 6-21 5-7 12-11 22-11 6 0 13 3 20 9l-2-11c0-6 2-11 5-16 4-9 12-13 23-13 5 0 11 1 16 3-5-8-7-16-7-24 0-9 4-16 11-19 7-4 15-6 24-6l7 0c-5-8-7-16-7-24 0-9 4-18 11-25 7-7 15-11 25-11 3 0 6 0 7 1-1-5-3-9-4-13-1-4-2-9-2-14 0-9 3-17 9-23 5-6 13-9 23-9 7 0 13 1 19 4 6 2 12 5 17 8-2-5-3-11-3-17 0-8 2-15 7-22 5-7 11-10 20-10 6 0 12 2 17 5 5 3 9 7 13 12l-3-10c-1-4-1-8-1-12 0-7 2-14 6-21 4-7 11-11 20-11 6 0 12 2 17 5 5 3 10 7 14 11 0-9 2-17 7-24 4-7 11-10 21-10 z M1780 1029c-10 0-17 3-21 9-5 6-10 12-17 17-10-14-23-21-39-21-11 0-21 4-28 11-8 7-13 15-16 26l-10-3c-4-1-8-1-12-1-16 0-28 6-36 17-10 13-12 25-12 42-11 1-20 5-27 12-7 7-10 16-10 27 0 7 1 14 4 19-4 1-9 2-14 5-5 3-10 5-13 8-1-4-4-8-9-11-5-3-10-6-13-7 8-3 16-8 23-15 7-8 11-16 11-25 0-13-6-24-17-31-11-7-23-11-35-11-7 0-14 2-21 5-7 3-11 9-11 18 0 3 1 7 2 10l4 9c-13 8-20 19-20 34 0 7 2 14 5 21 3 6 7 12 12 17l-5 0c-7 0-13 2-19 5-7 4-11 11-11 21 0 1 0 2 1 3l0 3c-6 1-13 5-20 11-5 4-7 8-7 13 0 2 1 5 2 7l-2-2 4 9c1 3 2 6 4 9-6-2-13-3-20-3-13 0-24 5-34 14-10 9-15 21-15 34 0 2 0 4 1 5-6-11-16-16-29-16-8 0-16 2-24 7-9 5-13 12-13 21-1-5-4-9-8-11-5-2-9-3-14-3-13 0-24 6-31 17-8 11-12 22-12 34 0 11 3 22 10 33 7 11 16 16 29 16 5 0 11-1 16-4l14-9c5 5 10 9 17 12 6 3 13 4 20 4 9 0 17-2 24-6 7-4 12-11 14-20l12 3c3 1 7 1 11 1 25 0 40-13 44-38 4 1 8 1 11 1 9 0 18-2 26-8 11-8 17-19 17-33 0-6-1-11-3-16 11-1 20-6 28-13 7-7 11-17 11-28 0-11-4-20-11-29 13 0 22-6 29-17 3 7 6 10 11 11-5 7-7 13-7 20 0 7 3 14 10 19 6 5 13 7 20 7 11 0 19-4 24-12 4-9 6-18 6-27l0-7 6 0c9 0 17-2 24-7 7-6 11-15 11-28 0-3 0-7-1-10-1-4-2-7-5-10l5 0c9 0 17-2 25-7 9-7 13-16 13-28 0-6-1-12-4-17-3-5-7-10-12-14l17 9c5 3 11 4 17 4 8 0 14-2 19-7 4-5 6-12 6-19 0-5 0-8-1-11 4 6 9 11 15 16 6 5 13 7 20 7 9 0 16-3 21-9 5-7 9-14 10-21l10 4c3 1 6 2 9 2 9 0 15-3 18-9 3-6 5-13 5-20 0-11-3-22-10-31-7-9-17-14-29-14 z M817 1269c-20 0-30 13-30 32 0 12 5 25 17 29-7 8-13 17-13 28 0 18 15 29 32 29 9 0 18-3 27-10-2 5-3 10-3 16 0 18 14 32 33 32 13 0 23-6 28-17-2 4-3 8-3 12 0 19 17 30 34 30 12 0 22-5 30-14 3 15 16 22 29 22 13 0 24-6 31-18 8 9 17 14 28 14 13 0 23-7 30-18 6 4 13 6 21 6 17 0 28-8 33-24 7 3 13 5 19 5 21 0 29-16 29-34 0-30-28-61-60-61-15 0-29 15-29 29-5-5-11-7-18-7-11 0-22 4-26 15-7-5-14-10-23-10-10 0-19 5-27 14-8-9-17-14-28-14-9 0-16 3-23 10-4-15-22-23-36-23-9 0-15 2-20 7 0-19-14-40-33-40-5 0-8 1-11 3-3-20-15-43-38-43 z M1202 1430c-11 14-16 29-16 46 0 11 3 23 10 34 7 14 18 16 34 16-2 5-3 10-3 17 0 11 4 20 12 26 7 5 16 8 26 8l7 0 7-2c3 11 8 20 16 27 7 7 17 10 28 10 9 0 17-2 24-6 3 8 8 15 13 20 5 5 13 8 22 8 9 0 18-2 29-7 8 9 17 14 27 14 9 0 16-4 21-11 4-7 6-15 6-23 0-6-1-13-2-21-1-8-3-15-6-22-3-7-8-13-13-18-5-5-12-7-19-7-4 0-8 1-12 2l-11 4c-1-7-4-13-8-18-4-5-10-8-17-8-6 0-12 2-18 7 0-8-2-15-7-21-5-7-12-10-21-10-4 0-8 1-12 3-1-11-4-19-9-22-5-4-12-6-23-6 2-3 3-6 3-9l-1-4c-2-5-5-8-10-11-7 8-17 12-29 12-9 0-19-2-28-7-10-5-17-12-20-21 z M1171 1500c5 3 9 6 12 11 3 5 4 10 4 15 0 5-1 10-4 15l-9 11 9 14c3 5 4 11 4 16 0 9-4 17-13 22 6 1 10 5 13 10 2 5 3 10 3 15 0 4 0 8-1 12l-3 11c9 1 15 6 19 14 3 8 5 16 5 23 0 5 0 9-1 13l-3 12-1-1c-1 7-5 13-11 18-7 5-14 7-21 7-11 0-20-4-26-12-6-8-9-17-9-28l-4 0c-8 0-15-3-21-8-7-7-11-15-11-25 0-7 2-14 7-21-8-3-14-7-18-14-5-7-7-15-7-23 0-5 1-10 3-15 2-5 5-9 8-13-7-7-10-15-10-26 0-7 2-14 6-19 3-6 8-11 13-16 3 3 6 6 11 7l12 2c9 0 18-2 26-7 7-5 13-12 18-20 z M2136 958c12 0 36 4 36 22 0 22-6 26-27 31 12 7 21 17 21 31 0 19-16 28-33 29 7 7 13 16 13 27 0 23-22 34-41 35 7 6 10 14 10 23 0 48-68 13-76 58-9-9-20-14-28-25l2 2c-5-7-8-14-8-22 0-16 10-32 28-32 3 0 6 1 10 2-5-7-9-16-9-25 0-16 12-26 27-33-3-6-5-13-5-22 0-17 10-29 25-36l-1-2 1 0-2-2c-2-5-3-11-3-17 0-30 33-44 60-44 z M2025 1553c12 5 26 9 39 10-3 19-15 34-36 34-7 0-13-1-20-4 0 19-16 31-34 31l-8-1c-7 14-21 22-35 22-15 0-29-9-38-19-4 7-16 7-16 14-32 0-57-10-57-45 0-16 8-37 27-37 17 0 29 22 55 22 13 0 24-6 35-14 12 8 27 14 42 14 18 0 38-9 46-27 z M1231 1584c12 0 20 3 25 9 5 5 9 12 13 19 4 7 9 13 15 19 6 6 16 9 30 9 10 0 19-1 26-4 2 7 7 13 14 17 7 4 15 6 22 6 9 0 18-3 27-10 9 9 20 14 32 14 11 0 19-3 24-8l15-17c4-6 9-12 14-17 5-5 12-8 21-8 7 0 15 2 24 6 9 4 15 10 18 17 5-5 10-9 17-12 7-3 14-5 21-5 10 0 19 3 28 9 9 5 16 12 21 20 11-14 25-21 44-21 9 0 18 2 26 7 8 4 15 10 22 17 6 7 11 15 15 24 3 9 5 17 6 26-3 7-8 14-14 20-6 5-13 8-22 8-6 0-13-3-22-8-11-6-14-12-14-20-7 15-20 23-37 23-8 0-16-2-25-6-9-4-15-10-18-18-3 7-8 13-15 17-7 4-14 6-21 6-8 0-16-2-23-6-7-4-13-10-16-17 0 10-3 18-9 25-7 6-15 9-24 9-8 0-15-2-21-6-7-5-11-11-14-18-1 8-5 15-10 21-5 5-12 8-21 8-8 0-15-2-21-7-6-5-10-12-13-19-1 8-4 16-9 23-6 7-13 10-22 10-7 0-12-2-16-5-5-4-9-9-12-14l0 1c-1-3-2-5-2-7-1-3-1-6-1-9-9 5-17 8-26 8-9 0-17-3-22-9-5-7-9-14-10-23l-4 0c-9 0-17-3-25-7-9-5-14-14-14-26 0-5 0-9 1-12-6-3-12-7-17-12-6-5-9-12-9-19 0-7 3-14 9-19 5-6 12-9 19-9 z" fill="#000000"/>
	</g></svg>
