<svg version="1.1" xmlns="http://www.w3.org/2000/svg" viewBox="0 0 2300 2300"><g transform="scale(1,-1) translate(-256, -1869)">
		<path d="M1400 294c389 0 710 276 779 657l1 8c0 51-32 76-71 108-209 169-472 196-709 196-244 0-506-32-709-196-35-28-71-60-71-101l1-15c70-382 392-657 779-657 z" fill="#321B41"/>
		<path d="M1401 365c387 0 703 304 719 693-199 180-459 277-719 277-276 0-526-103-719-277 12-388 335-693 719-693 z" fill="#F92F60"/>
		<path d="M1909-287l48 284c8 54 24 86 24 142 0 57-17 90-24 142l-48 283c-139 129-310 203-507 203-192 0-354-71-499-205l-48-283c-8-53-24-86-24-142 0-57 17-90 24-141l48-283 269 0c0 0 220 68 235 72 16-4 233-72 233-72l269 0 z" fill="#321B41"/>
		<path d="M903-287l0 849c-93-86-196-208-230-333-36-127-58-242-58-368l0-148 288 0 z M2195-287c1 51 2 95 2 146 0 125-17 252-56 373-43 133-133 241-232 332l0-851 286 0 z" fill="#533566"/>
		<path d="M1640-287l0 992-13-10-207-315c-3-5-8-8-14-8-6 0-11 3-14 8l-205 316-13 9-2-992 468 0 z" fill="#F8312F"/>
		<path d="M1406 3c67 0 74 56 139 56 12 0 23-5 35-5 14 0 23 10 23 23 0 13-5 28-8 41l-118 688-59 87-63 0c-9-26-25-60-29-87l-116-715 1 0c-1-7-2-13-2-18 0-11 10-21 20-21 12 0 25 7 40 7 65 0 75-56 137-56 z" fill="#D3D3D3"/>
		<path d="M1607 425c19 0 33 14 33 32l0 279c-76 29-154 43-234 43-80 0-158-14-234-43l0-279c0-18 14-32 33-32 43 0 155 149 201 149 47 0 158-149 201-149 z" fill="#E6E6E6"/>
		<path d="M1089 812c-29 59-29 123-32 188-23 1-44 8-64 22l0-67c0-63 37-119 96-143 z M1728 815c55 25 91 80 91 141l0 66c-19-14-39-21-61-22-3-68-1-126-30-185 z" fill="#212121"/>
		<path d="M1745 991c49 0 81 26 102 62 34 57 78 162 78 225 0 15-3 36-22 36-31 0-119-65-142-83l-16-240 z M1060 991l-16 240c-23 18-113 83-142 83-19 0-21-21-21-36 0-50 34-146 56-187 27-54 56-100 123-100 z" fill="#E4B29A"/>
		<path d="M1475 647c135 0 265 102 280 248 9 140 17 278 25 418 1 15 3 27 3 42 0 162-131 298-297 298l-160 0c-168 0-297-129-297-302 0-7 0-13 1-19 7-133 18-301 28-437 11-141 144-248 280-248l137 0 z" fill="#EEBFAA"/>
		<path d="M1650 1103l-161 0c-7 0-16 7-16 14 0 49 52 87 99 87 39 0 99-36 99-80 0-10-10-21-21-21 z M1309 1103c8 0 17 6 17 15 0 49-58 86-100 86-40 0-98-34-98-81 0-10 10-20 20-20l161 0 z" fill="#FFFFFF"/>
		<path d="M1152 1259c11 0 46 30 99 30l21-1c10 0 19 9 19 20 0 16-13 21-27 21-52 0-84-7-124-34l-1 0c-5-5-7-10-7-16 0-10 10-20 20-20 z M1647 1259c5 0 10 2 14 7 3 4 5 9 5 14 0 7-3 12-8 15-4 5-11 10-20 15-10 4-20 8-31 11-11 3-22 5-33 7l-25 2-13 0c-5 0-10-1-14-2-4-1-7-3-10-6-3-3-5-8-5-13 0-6 1-10 4-13 3-3 6-4 10-5l9-1 16 0c13 0 25-2 36-5 11-3 22-7 31-10l22-11c6-3 10-5 12-5 z" fill="#212121"/>
		<path d="M1619 1103l-124 0c-1 7-2 10-2 17 0 33 26 65 64 65 35 0 65-28 65-65 0-7-1-12-3-17 z M1303 1103c2 5 3 10 3 17 0 35-28 65-65 65-18 0-33-6-45-19-16-16-19-39-19-54 0-3 1-6 2-9l124 0 z" fill="#F92F60"/>
		<path d="M1589 1103l-65 0c-3 7-4 10-4 17 0 19 16 37 37 37 19 0 37-16 37-37 0-6-2-12-5-17 z M1274 1103c3 5 4 10 4 17 0 19-16 37-37 37-19 0-36-16-36-37 0-7 1-12 4-17l65 0 z" fill="#000000"/>
		<path d="M1537 1134c7 0 12 6 12 12 0 7-5 11-12 11-7 0-11-4-11-11 0-7 4-12 11-12 z M1219 1134c7 0 12 6 12 12 0 7-5 11-12 11-7 0-11-4-11-11 0-7 4-12 11-12 z" fill="#FFFFFF"/>
		<path d="M1432 960c21 0 37 16 37 38 0 18-15 63-28 103-12 35-12 49-35 49-12 0-23-8-26-20-8-29-37-107-37-132 0-22 16-38 37-38l52 0 z" fill="#D19479"/>
		<path d="M1765 1234l61 44c15 49 47 69 47 130 0 72-47 136-114 160-43 15-74 37-99 76-34 51-83 81-144 81-39 0-73-22-110-22-36 0-70 22-110 22-135 0-131-114-244-157-67-25-113-84-113-158 0-69 37-88 47-138l53-38 0 59c0 117 92 241 223 241l54 0c37 0 52-96 90-96 37 0 52 96 90 96l54 0c149 0 215-177 215-300 z" fill="#212121"/>
		<path d="M1514 135c6 0 9 3 9 9 0 14-41 210-64 323-7 34-7 45-17 45-6 0-9-3-9-8 0-13 41-214 64-324 7-34 7-45 17-45 z M1298 135c5 0 8 2 9 7 8 36 73 347 73 362 0 4-5 8-9 8-5 0-8-2-9-7-8-36-73-347-73-361 0-6 3-9 9-9 z" fill="#9B9B9B"/>
		<path d="M1406 816c25 0 50 6 74 19l12 28-23 17c-21-5-42-8-62-8-21 0-42 3-65 8l-22-17 11-27c23-13 48-20 75-20 z" fill="#990839"/>
		<path d="M1311 784c5 0 8 2 9 7l22 90c-5 0-46 17-54 17-5 0-11-4-11-11 0-8 4-27 11-46 9-31 10-57 23-57 z M1500 784c5 0 8 2 9 7l24 95-1 1 0 2c0 3-1 5-3 7-3 2-6 3-9 3-1 0-5-1-11-4l-13-6-27-9 21-89c1-5 5-7 10-7 z" fill="#FFFFFF"/>
	</g></svg>
