<svg version="1.1" xmlns="http://www.w3.org/2000/svg" viewBox="0 0 2300 2300"><g transform="scale(1,-1) translate(-256, -1869)">
		<path d="M2088 646c45 0 71 28 79 71l79 408c3 19 5 36 5 51 0 74-29 144-82 194-44 40-105 61-148 86-114 66-199 256-406 256-71 0-136-32-207-32-17 0-36 1-56 4-70 9-106 40-170 40-61 0-138-28-180-70l-129-136c-21-21-107-80-137-93-118-52-174-139-174-275 0-7 1-13 2-18l79-408c8-42 41-71 86-71 462 0 897-7 1359-7 z" fill="#FFB02F"/>
		<path d="M759 360c121 0 216 97 216 215 0 121-99 216-216 216-15 0-28-1-39-4l9-134c-68 0-81 47-92 100-57-39-94-103-94-178 0-119 97-215 216-215 z M2053 360c120 0 215 97 215 215 0 70-32 138-94 179-8-52-19-108-86-108 3 47 6 93 10 140-17 3-32 5-45 5-121 0-216-99-216-216 0-119 97-215 216-215 z" fill="#FECA46"/>
		<path d="M1624-215c178 0 287 105 336 273 8 28 13 56 18 84 3 15 2 30 5 45 35 153 71 306 107 459l-2 0c3 47 6 98 10 145 1 16 4 32 4 48 0 39-20 78-37 93-8 6-13 22-20 35-4 7-8 7-12 13-23 29-39 64-39 102l0 114c0 18-5 33-16 46-29 31-72 33-116 43-149 28-298 40-450 40-136 0-394-15-525-57-36-11-57-32-57-72l0-114c0-127-115-123-115-236 0-9 1-17 2-25 7-60 9-112 12-168l-7 0c40-160 76-305 114-466 3-15 2-30 5-45 28-195 123-357 353-357l430 0 z" fill="#FDD641"/>
		<path d="M1459 288c37 0 73 31 73 71 0 8-1 15-4 22l-71 228c-6 22-25 38-51 38-24 0-44-16-51-38-12-40-75-214-75-249 0-41 34-72 73-72l106 0 z" fill="#FFB02C"/>
		<path d="M1406 54c83 0 166 39 212 113 3 4 4 8 4 11 0 10-10 20-20 20-4 0-7-1-10-3-63-31-121-44-186-44-65 0-124 14-186 44-3 2-7 3-10 3-10 0-20-10-20-20 0-3 1-7 4-11 47-73 129-113 212-113 z" fill="#990839"/>
		<path d="M1872 575l-299 0c-16 0-31 12-31 30l1 6c19 88 91 151 183 151 86 0 161-59 182-141l1-9c0-21-16-37-37-37 z M1239 575c16 0 31 12 31 30l-1 6c-19 89-96 151-183 151-86 0-161-59-182-141l-1-9c0-21 16-37 37-37l299 0 z" fill="#FFFFFF"/>
		<path d="M1814 575l-230 0c-3 11-5 22-5 32 0 68 57 120 120 120 68 0 120-57 120-120 0-10-2-21-5-32 z M1228 575c3 9 4 19 4 32 0 67-51 120-119 120-68 0-120-57-120-120 0-10 2-21 5-32l230 0 z" fill="#7D4533"/>
		<path d="M1758 575l-120 0c-5 11-8 21-8 32 0 38 28 68 68 68 40 0 68-30 68-68 0-11-3-21-8-32 z M1174 575c5 9 7 20 7 32 0 38-28 68-68 68-37 0-68-29-68-68 0-11 3-21 8-32l121 0 z" fill="#000000"/>
		<path d="M1661 631c12 0 21 10 21 22 0 12-9 21-21 21-12 0-21-9-21-21 0-12 9-22 21-22 z M1072 631c12 0 21 10 21 22 0 12-9 21-21 21-12 0-21-9-21-21 0-12 9-22 21-22 z" fill="#FFFFFF"/>
		<path d="M1622-287c240 0 415 154 431 395 17 239 33 494 50 733l-223-640c-7-21-22-32-45-32-49 0-87 119-249 119l-360 0c-155 0-206-120-253-120-23 0-34 13-41 33l-216 640 43-733c16-239 191-395 431-395l432 0 z M1492-122c-11 0-21 11-21 22 0 38-21 71-65 71-86 0-49-93-86-93-65 0-130 53-130 122l0 108c0 43 35 65 72 65l288 0c39 0 72-21 72-65l0-108c0-68-60-122-130-122 z" fill="#EA9129"/>
		<path d="M1858 809c-36 0-84 54-170 54-19 0-34-4-52-4-38 0-72 33-72 72 0 70 69 76 121 76 71 0 136-18 196-55l11-7c5-4 9-4 11-9l2 0c17-15 25-33 25-55 0-39-31-72-72-72 z M947 809c39 0 81 54 170 54 17 0 35-4 52-4 42 0 71 36 71 73 0 67-69 75-120 75-71 0-136-18-196-55-3-2-20-16-24-16-17-15-25-33-25-55 0-39 31-72 72-72 z" fill="#D37034"/>
	</g></svg>
