<svg version="1.1" xmlns="http://www.w3.org/2000/svg" viewBox="0 0 2300 2300"><g transform="scale(1,-1) translate(-256, -1869)">
		<path d="M1088 817l-2 11c0 7 2 14 5 23 5 13 10 27 17 42l19 43c6 14 9 26 9 36l0 12-2 11c31-22 65-38 102-47 36-10 73-15 111-15 59 0 117 10 176 29 58 19 111 46 159 80l-2-36c-1-13-2-25-2-37 0-8 3-18 8-31 5-13 10-26 17-39l17-40c5-13 7-23 7-32 0-3 0-6-1-7 27 13 49 32 66 57 17 25 25 53 25 83l0 66-2-1-2 2-3 7c-1 3-2 6-2 9l-1 5c-4 21-6 43-6 66 0 17 2 35 7 52 5 17 8 33 9 50 1 11 1 20 1 28l-1 11 1 11c1 7 2 15 5 22 3 7 7 16 13 25 9 15 17 31 22 47 5 16 8 33 8 51 0 36-10 68-30 97-21 29-48 49-82 61-22 8-40 18-55 29-15 11-29 27-42 47-15 25-36 44-61 59-26 14-54 21-83 21-10 0-19-1-28-3l-27-8c-9-3-17-5-26-7-9-3-18-4-27-4-9 0-18 1-27 4-9 2-18 4-27 7l-26 8c-9 2-19 3-29 3-30 0-57-7-81-20-25-14-45-33-61-58-24-37-57-63-99-78-34-12-61-32-81-61-21-29-31-61-31-97 0-18 3-35 8-50 5-15 13-31 22-46 6-9 10-18 13-25 2-7 3-15 4-22 1-8 1-16 1-24 0-8 0-17 1-27 1-6 3-14 7-23 4-10 9-20 15-30 5-10 11-20 17-29 6-9 11-16 16-21-1-3-4-10-9-19l-16-30c-5-11-11-20-16-28-7-12-10-12-14-12 0-23 1-44 2-65 1-21 4-40 10-58 6-18 16-34 29-48 13-15 31-27 55-37 z" fill="#2D242D"/>
		<path d="M1909-287l48 287c8 53 24 88 24 144 0 63-16 95-24 155l-48 311c-22 19-47 37-74 54l-286 37c-55 8-91 18-143 18-56 0-88-10-143-18l-286-37c-27-17-52-35-74-54l-48-311c-8-58-24-93-24-155 0-58 17-93 24-144l48-287 467 0 36 36 36-36 467 0 z" fill="#D3D3D3"/>
		<path d="M1442-287l0 407 383 551c-127 81-271 120-419 120-132 0-259-31-375-95l339-566 0-417 72 0 z" fill="#FF6723"/>
		<path d="M903-287l-288 0 0 287c0 237 106 460 288 610l0-897 z M2197-287l-288 0 0 897c185-153 288-376 288-610l0-287 z M1456-9c-9 0-14 4-14 13l0 264 1 8 202 478c68-23 131-51 191-90 3-56 10-111 10-167 0-32-86-10-86-42 0-24 64-59 64-84 0-5-1-9-4-12l-354-364c-3-3-6-4-10-4 z M1356-9c9 0 14 4 14 13l0 264-1 8-202 478c-68-23-131-51-191-90-3-56-10-111-10-167 0-32 85-8 85-43 0-24-64-55-64-82 0-5 2-10 5-13l354-364c3-3 6-4 10-4 z" fill="#E6E6E6"/>
		<path d="M1406 539c80 0 144 69 144 152l0 100-288 0 0-100c0-81 64-152 144-152 z" fill="#8B5C56"/>
		<path d="M1238-50l-25 0c-19 0-36 17-36 35 0 19 15 35 36 35l25 0 18-35-18-35 z M1058-50l-31 0 1 1-28 34 28 35 30 0c20 0 35-15 35-35 0-18-16-35-35-35 z M1700 83l0 512c0 167-136 303-303 303-169 0-304-138-304-303l0-148c-87-18-154-95-154-189l0-83 36-31 35 31 0 83c0 64 51 122 123 122 66 0 123-54 123-122l0-84 42-30 28 30 0 84c0 91-67 176-162 190l0 147c0 128 106 232 233 232 129 0 232-107 232-232l0-512 71 0 z" fill="#635994"/>
		<path d="M1670-41c51 0 90 39 90 90 0 51-39 91-90 91-51 0-91-40-91-91 0-51 40-90 91-90 z M1279-50c26 0 47 20 47 47l0 177-70 0 0-154-18 0 0-70 41 0 z M1028-49l0 70-18 0 0 154-71 0 0-178c0-27 21-46 47-46l42 0 z" fill="#0084CE"/>
		<path d="M1670-2c29 0 51 24 51 51 0 27-22 51-51 51-29 0-51-24-51-51 0-27 22-51 51-51 z" fill="#1C5CD7"/>
		<path d="M1749 1004c64 0 117 53 117 117 0 65-54 118-117 118-63 0-117-52-117-118 0-64 53-117 117-117 z M1060 1004c64 0 117 53 117 117 0 65-54 118-117 118-64 0-118-54-118-118 0-62 52-117 118-117 z" fill="#8B5C56"/>
		<path d="M1473 659c33 0 65 6 97 19 32 12 61 29 87 51 25 22 46 48 63 77 17 29 26 61 29 95l12 168 10 167-1 0 4 32c1 11 1 21 1 32 0 13-3 26-8 39-5 12-12 23-21 32-9 9-20 17-32 23-13 5-26 8-39 8-31 1-58 1-82 1l-10 0c-21 0-40 3-58 7-21 5-40 15-57 29-18 14-35 36-52 66-5 9-11 17-17 22-7 5-16 8-27 8l-91 0c-33 0-64-6-93-19-29-13-55-30-76-51-21-22-38-48-51-77-13-29-19-60-19-93l0-58-1 0c3-57 7-113 11-168 3-55 7-111 11-168 1-11 4-23 7-34 3-11 6-22 10-32 11-27 25-51 43-72 17-22 37-41 60-56 22-15 46-27 73-35 27-9 54-13 83-13l134 0 z" fill="#966661"/>
		<path d="M1652 1266c5 0 10 2 14 6 3 4 5 9 5 14 0 8-5 15-15 22-10 6-21 11-34 16-13 4-26 7-39 9-13 2-22 3-28 3-9 0-18-1-27-2-10-2-15-9-15-20 0-6 2-10 5-13 3-3 6-4 11-5l6-1 7 1 13 0c15 0 30-2 44-7 14-5 28-11 41-18l0-1c3-3 7-4 12-4 z M1159 1266c3 0 7 1 12 4l-1 1 1 1 1-1c19 12 36 19 51 21 15 2 34 3 55 3 5 0 9 2 14 6 4 3 6 8 6 13 0 11-5 17-15 19-10 2-19 3-27 3-7 0-16-1-26-2-10-2-20-4-31-7-11-3-21-7-30-11-9-4-16-9-21-14l-1 0c-5-4-8-9-8-16 0-5 2-10 6-14 4-4 9-6 14-6 z" fill="#372128"/>
		<path d="M1655 1119l-160 0c-8 0-17 6-17 15 0 47 55 85 99 85 40 0 98-36 98-81 0-10-9-19-20-19 z M1315 1119c11 0 17 6 17 19 0 43-58 81-99 81-40 0-98-36-98-81 0-10 9-19 20-19l160 0 z" fill="#FFFFFF"/>
		<path d="M1624 1119l-124 0c-1 7-2 10-2 17 0 35 30 64 64 64 35 0 64-30 64-64 0-7-1-10-2-17 z M1310 1119c0 3 3 13 3 17 0 38-32 64-65 64-35 0-64-30-64-64 0-7 1-10 2-17l124 0 z" fill="#7D4533"/>
		<path d="M1594 1119l-64 0c-3 5-5 11-5 17 0 19 16 36 37 36 21 0 37-17 37-36 0-6-2-12-5-17 z M1280 1119c3 5 4 10 4 17 0 19-15 36-36 36-21 0-37-17-37-36 0-5 1-10 4-17l65 0 z" fill="#000000"/>
		<path d="M1542 1149c7 0 12 6 12 12 0 7-5 11-12 11-7 0-11-4-11-11 0-7 4-12 11-12 z M1226 1149c7 0 12 6 12 12 0 7-5 11-12 11-7 0-11-4-11-11 0-7 4-12 11-12 z" fill="#FFFFFF"/>
		<path d="M1433 971c22 0 39 17 39 38 0 18-17 68-29 104-13 36-14 47-38 47-12 0-23-7-27-19-8-26-39-109-39-132 0-21 17-38 39-38l55 0 z" fill="#75443E"/>
		<path d="M1405 848c47 0 93 26 118 65 1 3 2 5 2 7 0 7-4 11-11 11l-6-2c-39-16-59-25-103-25-38 0-69 9-104 25l-5 1c-7 0-12-4-12-11l2-6c19-41 79-65 119-65 z" fill="#990839"/>
	</g></svg>
