<svg version="1.1" xmlns="http://www.w3.org/2000/svg" viewBox="0 0 2300 2300"><g transform="scale(1,-1) translate(-256, -1869)">
		<path d="M1753 620c130 0 237 105 237 237 0 37-8 70-23 103-3 7-5 13-5 18 0 7 1 11 4 16 15 33 24 67 24 104 0 49-14 93-41 134-25 40-38 84-38 131 0 132-107 242-243 242-15 0-24 6-33 17-55 66-113 103-198 103-84 0-147-37-198-101-9-11-18-17-33-17-132 0-242-107-242-243 0-47-13-90-39-130-27-41-41-86-41-135 0-19 2-37 7-54 6-24 21-52 21-68 0-5-1-10-4-17-14-34-24-67-24-103 0-130 105-237 237-237l632 0 z" fill="#FFB02F"/>
		<path d="M1798 993c-59 0-105 47-105 105 0 29 10 54 31 75 40 43 207 150 270 150 19 0 29-10 29-29 0-47-58-148-107-218-48-67-76-83-118-83 z M1076 993c59 0 106 46 106 105 0 29-10 54-31 75-44 44-207 150-270 150-19 0-29-10-29-29 0-47 58-148 108-218 47-67 75-83 116-83 z" fill="#FECA46"/>
		<path d="M1445-287l-197 411-428 254c-95-149-133-360-133-523l0-142 758 0 z M2186-286l1 149c0 245-68 490-253 664l0-1c-135 126-309 195-496 195-60 0-118-7-177-22l300-603 625-382 z" fill="#8B62BF"/>
		<path d="M2187-287l-926 986c-189-47-344-167-441-321l625-665 742 0 z" fill="#7D4533"/>
		<path d="M1438 341c33 0 66 2 99 6 149 18 373 111 373 285 0 36-9 69-26 98-91 148-305 193-446 193-31 0-62-2-93-5-152-19-380-111-380-286 0-37 9-71 28-100 89-140 291-191 445-191 z" fill="#A56953"/>
		<path d="M1438 404c25 0 45 35 62 55 76 94 122 196 163 311l-451 0c42-107 83-207 154-297 16-21 45-69 72-69 z" fill="#F9C136"/>
		<path d="M1438 60c39 39 58 89 58 140 0 52-20 103-58 141-36-36-59-86-59-141 0-54 22-103 59-140 z" fill="#FFF9BA"/>
		<path d="M1436 659c201 0 353 146 361 345 3 73 9 148 9 221 0 51-27 106-82 106l-234 0c-98 0-166 42-231 122-4 5-9 8-16 8-15 0-19-15-24-26-24-54-44-66-94-94-39-23-59-58-59-105 0-77 6-155 9-232 8-201 163-345 361-345 z" fill="#FDD641"/>
		<path d="M1679 1089c-48 17-98 30-147 45 21 32 54 61 97 61 26 0 96-14 96-51 0-22-32-41-46-55 z M1193 1089c49 17 99 30 148 45-21 32-54 61-97 61-28 0-96-17-96-51 0-21 29-42 45-55 z" fill="#000000"/>
		<path d="M1696 1085l-164 0c-7 0-16 6-16 14 0 48 51 89 100 89 40 0 101-37 101-83 0-10-10-20-21-20 z M1341 1085c7 0 17 6 17 14 0 47-52 89-101 89-40 0-101-37-101-83 0-10 10-20 21-20l164 0 z" fill="#FFFFFF"/>
		<path d="M1664 1085l-127 0c-1 7-2 10-2 17 0 37 31 65 66 65 35 0 65-28 65-65 0-7-1-10-2-17 z M1336 1085c1 7 2 10 2 17 0 37-31 65-66 65-35 0-65-28-65-65 0-7 1-10 2-17l127 0 z" fill="#7D4533"/>
		<path d="M1634 1085l-66 0c-3 5-5 11-5 17 0 21 16 37 38 37 21 0 37-15 37-37 0-7-1-12-4-17 z M1305 1085c3 5 5 11 5 17 0 21-16 37-38 37-21 0-37-15-37-37 0-7 1-12 4-17l66 0 z" fill="#000000"/>
		<path d="M1578 1116c7 0 12 6 12 12 0 7-5 11-12 11-7 0-11-4-11-11 0-7 4-12 11-12 z M1250 1116c7 0 11 5 11 12 0 7-4 11-11 11-7 0-12-4-12-11 0-6 6-12 12-12 z" fill="#FFFFFF"/>
		<path d="M1436 825c48 0 94 26 119 65 1 3 2 5 2 7 0 7-4 11-11 11l-6-2c-39-14-64-25-104-25-37 0-71 8-104 25l-5 2c-6 0-12-5-12-12l2-6c18-40 78-65 119-65 z" fill="#990839"/>
		<path d="M1464 948c22 0 39 17 39 38 0 18-17 69-30 105-14 36-14 47-37 47-13 0-22-6-26-19-8-26-40-110-40-133 0-21 17-38 39-38l55 0 z" fill="#FFB02C"/>
		<path d="M1177 1232c5 0 8 1 10 4 27 12 54 20 85 20 11 0 19-2 30-2 11 0 20 7 20 19 0 17-18 23-34 23-35 0-131-10-131-44 0-12 9-20 20-20 z M1696 1232c10 0 20 10 20 20 0 32-94 44-116 44-16 0-50 0-50-23 0-10 10-19 21-19 9 0 18 2 29 2 31 0 58-8 85-20 1-3 8-4 11-4 z" fill="#D37034"/>
		<path d="M1911 1318c18 0 35 16 35 35 0 18-16 34-35 34l-941 0c-19 0-35-16-35-34 0-18 16-35 35-35l941 0 z" fill="#9B9B9B"/>
		<path d="M1438 1241c33 34 52 78 52 126 0 47-18 91-52 127-33-33-53-77-53-127 0-49 21-94 53-126 z" fill="#B4F6FC"/>
	</g></svg>
