<svg version="1.1" xmlns="http://www.w3.org/2000/svg" viewBox="0 0 2300 2300"><g transform="scale(1,-1) translate(-256, -1869)">
		<path d="M1049-287c83 0 126 143 199 143l643 0c127 0 234 103 234 234 0 127-103 234-234 234l-485 0 0-216-300 0c-23 0-48-11-55-36-12-43-76-253-76-287 0-41 35-72 74-72 z" fill="#D6A089"/>
		<path d="M1762-287c39 0 75 30 75 72 0 31-65 246-76 287-7 25-32 36-55 36l-300 0 0 216-485 0c-127 0-234-103-234-234 0-124 96-225 216-233l0-1 661 0c75 0 118-143 198-143 z" fill="#E4B29A"/>
		<path d="M2134 36c15 0 26 5 31 20 9-3 19-4 32-4 8 0 17 2 27 5 14 4 15 13 15 29 14 3 25 12 25 27 0 12-4 21-13 26 11 5 17 14 17 27 0 19-15 28-32 28-22 0-38 1-58 12-3 9-8 16-13 24 20 3 38 9 38 33 0 19-13 32-31 32-23 0-48-7-71-10-58 52-144 114-204 185-33 37-46 78-52 99-8 22-8 34-8 78 0 234-190 431-431 431-234 0-431-190-431-431l0-35c-2-25-4-34-18-73-32-94-168-185-246-254-23 3-48 10-71 10-18 0-31-13-31-32 0-24 18-30 38-33-5-8-10-15-13-24-16-9-32-13-48-13-19 0-42 0-42-27 0-13 6-22 17-27-9-5-14-15-14-28 0-14 14-24 26-25 0-29 16-34 42-34 13 0 23 1 32 4 5-15 16-20 31-20 28 0 60 17 81 33l195 150c74 59 200 149 200 250l72 0 0 106 360 0 0-106 72 0c0-78 85-162 141-204 88-66 163-126 253-196 21-16 55-33 82-33 z" fill="#EEBFAA"/>
		<path d="M1693 324l0 645c-23 19-45 37-72 52l-431 0c-25-15-51-31-72-52l0-645 575 0 z" fill="#00A6ED"/>
		<path d="M1416 791c110 0 206 87 206 197l0 33c-67 37-140 57-216 57-76 0-149-20-216-56l0-35c0-111 94-196 205-196l21 0 z" fill="#E4B29A"/>
		<path d="M2137 32c-3 0-8 0-14 1-7 0-10 2-10 7 2 2 4 3 6 3 3 0 6 0 9-1 3-1 6-1 9-1 6 0 12 2 17 7 5 4 8 9 8 16 0 7-3 13-8 17-5 3-12 6-20 9l-25 8c-9 3-16 7-23 12l-89 69-1 6 2 1 5 0c14-11 29-23 44-36 15-13 30-24 45-33 8-5 16-10 23-13 7-3 16-6 26-7 9-1 16-5 22-10 7-7 8-15 8-28 4-1 8-2 12-2l11 0c4 0 9 0 14 1 5 0 9 1 13 2 4 1 7 4 10 7 3 3 4 8 4 13 0 7-2 13-6 18-5 5-10 7-17 7-17 0-30 1-41 3-11 1-23 7-37 18l-89 68-2 4c0 3 2 5 5 5 5 0 12-5 22-14l35-30c13-11 28-22 44-31 15-9 32-14 49-14 9 0 18-1 27-2 8-2 14-9 17-20 5 1 10 4 13 8 3 3 5 8 5 13 0 7-2 13-6 18-4 5-10 7-17 7-18 0-33 2-44 5-12 3-23 7-32 13-10 6-20 14-31 23l-40 33-1 4 0 3 3 1c1 0 5-2 12-7 7-5 14-11 23-17l23-19c10-8 12-11 15-11 17-13 37-20 58-20 5 0 10 1 14 2l2 0c4 0 8-2 12-4 9 5 13 13 13 22 0 7-2 12-7 16-5 4-11 6-16 6-16 0-30 1-41 3-11 2-24 8-37 18l-1 6 4 2 2-1c11-6 20-11 28-14 7-3 18-5 31-5 5 0 11 0 17-1 5-1 10-2 15-4 4-2 7-5 10-9 3-5 4-11 4-18 0-11-5-20-14-27 7-6 10-14 10-23 0-7-2-14-7-20-5-7-11-11-18-12l0-6c0-5-1-9-3-12-3-5-7-8-12-11-5-3-11-4-17-5-7-1-13-1-19-1l-12 0c-5 0-9 1-14 2-3-5-7-10-12-13-6-3-12-5-18-5 z M2170 54l1 5-1 0-1-5 1 0 z M676 32c3 0 8 0 15 1 6 0 9 2 9 7-2 2-4 3-6 3-3 0-6 0-9-1-3-1-6-1-9-1-6 0-12 2-17 7-5 4-8 9-8 16 0 7 3 13 8 17 5 3 12 6 20 9l25 8c9 3 16 7 23 12l89 69 1 6-2 1-5 0c-14-11-28-23-43-36-15-13-31-24-46-33-8-5-16-10-23-13-7-3-16-6-26-7-9-1-16-5-21-10-8-7-9-15-9-26l0-2 1 0 1-5-1 0-1 5c-4-1-8-2-11-2l-12 0c-4 0-8 0-13 1-5 0-10 1-14 2-4 1-7 4-10 7-3 3-4 8-4 13 0 7 2 13 7 18 4 5 9 7 16 7 17 0 30 1 41 3 11 1 23 7 37 18l89 68 1 2c0 1 0 1 1 1l0 1c0 3-2 5-5 5-5 0-13-5-22-14l-35-30c-13-11-28-22-44-31-16-9-32-14-49-14-9 0-18-1-26-2-9-2-15-9-18-20-5 1-10 4-13 8-3 3-5 8-5 13 0 7 2 13 6 18 4 5 10 7 17 7 18 0 33 2 45 5 11 3 22 7 32 13 9 6 19 14 30 23l40 33 1 2 0 5-4 1c-1 0-4-2-11-7l-23-17-23-19c-10-8-12-11-15-11-17-13-37-20-58-20-5 0-10 1-14 2l-2 0c-4 0-8-2-12-4-9 5-13 13-13 22 0 7 3 12 8 16 5 4 10 6 15 6 16 0 30 1 41 3 11 2 24 8 37 18l1 2 0 4-4 2-2-1c-11-6-20-11-27-14-8-3-19-5-32-5-11 0-22-2-31-5-10-3-15-12-15-27 0-11 5-20 14-27-7-6-10-14-10-23 0-7 2-14 7-20 5-7 11-11 18-12l0-4c0-6 2-11 4-14 3-5 7-8 12-11 5-3 10-4 17-5 6-1 12-1 18-1l13 0c4 0 8 1 13 2 3-5 7-10 13-13 5-3 11-5 17-5 z" fill="#D6A089"/>
		<path d="M1572 108l121 216-575 0 118-216 336 0 z" fill="#9B9B9B"/>
		<path d="M1632 1366c14 1 24 11 27 24 8 41 25 118 25 153 0 52-35 71-69 89-51 27-72 90-140 90-25 0-44-12-69-12-28 0-46 15-73 15-49 0-74-39-104-69-40-40-101-42-101-113 0-29 10-74 19-117 7-35 8-60 34-60-3 23-4 45-4 68 0 32 39 38 39 77l0 38c0 12 6 20 18 23 56 15 115 19 172 19 51 0 120-3 172-19 12-4 17-14 18-26l1-18-1-17c0-40 40-46 40-77 0-23-1-45-4-68 z" fill="#FFF9BA"/>
		<path d="M1190 1273c39 0 72 31 72 72 0 39-31 72-72 72l-12-1 3-50c-24 0-26 21-30 39-19-13-33-35-33-60 0-38 33-72 72-72 z M1622 1273c40 0 71 34 71 72 0 25-13 47-32 60-3-18-6-36-29-39l3 50-13 1c-39 0-72-31-72-72 0-39 31-72 72-72 z" fill="#E4B29A"/>
		<path d="M1478 1042c76 0 138 57 143 134l14 190-3 0c3 23 4 47 4 70 0 27-40 36-40 75l0 38c0 11-7 19-18 23-39 16-135 19-172 19-54 0-118-3-172-19-12-3-18-11-18-23l0-38c0-40-39-49-39-75 0-23 1-47 4-70l-4 0 14-190c5-75 67-134 143-134l144 0 z" fill="#EEBFAA"/>
		<path d="M1406 1150c21 0 72 22 72 47 0 5-2 7-6 7-5 0-40-17-66-17-27 0-61 17-66 17-4 0-6-2-6-7 0-24 51-47 72-47 z" fill="#990839"/>
		<path d="M1421 1241c14 0 21 14 21 25 0 13-3 28-8 45-11 30-13 56-28 56-7 0-12-4-15-13-7-26-21-62-21-88 0-11 7-25 21-25l30 0 z" fill="#D19479"/>
		<path d="M1307 1333c16 0 56 13 56 32 0 7-3 12-10 12-10 0-19-22-46-22-26 0-37 22-45 22-5 0-10-5-10-11 0-19 40-33 55-33 z M1505 1333c16 0 55 15 55 33 0 7-3 11-10 11-8 0-20-22-45-22-29 0-35 22-46 22-1 0-3-2-6-2-3-3-4-6-4-9 0-3 2-4 2-7 13-17 31-26 54-26 z" fill="#A56953"/>
		<path d="M1263 1423c6 0 12 2 17 7 27 8 26 11 56 11 15 0 23 11 23 24 0 22-22 24-37 24-21 0-83-13-83-42 0-13 10-24 24-24 z M1562 1423c13 0 24 10 24 24 0 8-3 14-10 19l0 1c-28 11-43 22-73 22-15 0-37-2-37-24 0-12 4-19 11-20 7-2 15-3 24-3 17 0 29-7 44-12 2-2 1-2 3-2 5-3 9-5 14-5 z" fill="#A56953"/>
	</g></svg>
