<svg version="1.1" xmlns="http://www.w3.org/2000/svg" viewBox="0 0 2300 2300"><g transform="scale(1,-1) translate(-256, -1869)">
		<path d="M1447-287c280 0 486 219 486 496 0 158-47 314-169 432-25 24-54 48-85 64l-21-28c-11 4-22 6-33 7-62 4-180 21-252 21-9 0-32-10-41-14-75-38-124-127-124-209 0-103 80-161 160-206 87-49 180-120 180-211l0-9c0-144-110-206-243-206-71 0-155 7-188 79l-1 5c0 19 51 31 65 37 60 26 102 80 102 150l0 44c0 10-9 20-20 20l-8-2-122-48c-39-16-55-38-78-72-4-7-10-10-17-10-6 0-11 3-16 10-22 33-41 58-78 72l-122 48-8 2c-14 0-18-12-20-25-1-7-1-15-1-22 1-7 1-13 1-17 0-70 41-124 102-150l61-25c16-6 17-31 21-50 24-99 129-183 244-183l225 0 z" fill="#00D26A"/>
		<path d="M1201 629c108 0 203 46 271 118 23-4 46-7 69-7 192 0 350 155 350 349 0 58-13 105-37 158-3 7-9 16-9 25 0 15 17 42 17 75 0 29-8 56-24 81-16 26-24 49-24 79 0 80-64 147-147 147-8 0-15 3-20 10-36 40-70 61-121 61-49 0-87-21-120-61-11-13-24-9-39-12l-8 1c-128 0-237-92-237-228l-1 0 0-89c-11-19-28-32-51-37-150-32-239-146-239-296 0-204 163-374 370-374 z" fill="#000000"/>
		<path d="M798 647c-29 0-39 42-39 66 0 26 11 55 34 73l53-39c-14-8-23-24-23-40 0-11 7-18 7-29 0-18-13-31-32-31 z M2078 1176c0 10-2 29-2 48 0 19 3 38 11 46 17 17 43 33 43 59 0 19-15 36-36 36-11 0-19-3-26-10-38-35-65-57-65-108l0-44c27-3 51-16 75-27 z" fill="#452829"/>
		<path d="M1693 575c7 0 15 2 23 5 8 3 15 8 22 13 7 5 12 12 17 19 6 10 6 16 6 27l-5 37c-2 9-3 18-4 27-1 8-2 17-2 27-1 10-1 23-1 38 0 19-3 39-8 59-6 19-11 38-14 57 41-20 82-38 125-55 43-17 85-35 127-52 11-5 21-8 30-11 9-3 19-5 31-5 17 0 33 3 48 10 15 7 28 16 39 27 11 11 19 24 25 39 6 15 9 31 9 48l0 385c0 10-4 19-11 26-8 7-17 10-27 10-15 0-25-4-29-12-4-9-6-18-7-28-1-11-2-20-4-28-3-9-10-13-23-13-12 0-20 3-25 10-5 7-7 15-8 25l-1 16 1 26-1 22c-1 10-5 18-10 25-5 7-14 10-27 10-13 0-22-4-27-13-5-9-9-19-10-30l-1-17 1-17c1-12 1-21 1-28 0-15 3-27 8-38 5-11 11-20 17-27 6-8 12-15 17-20 5-6 8-11 8-16 0-4-1-13-4-28l-8-48-16-81-207 98c-8 4-16 8-24 11l-26 8c-31-5-62-9-95-10-33-2-67-3-101-3-34 0-68 0-101 1-34 1-67 1-98 1-23-9-45-21-64-34-20-13-39-29-56-46l-173-173c-7-7-14-10-23-11l-195-22c-21-3-40-8-57-17-17-9-32-24-44-43l-14-21c-6-9-9-17-9-24 0-10 3-18 10-24 7-6 15-9 24-9 10 0 18 4 24 11 6 7 12 15 18 24 5 8 12 16 19 23 7 7 17 11 30 11 5 0 8-2 11-5 3-3 4-7 4-10 0-5-2-9-6-13l-13-12-14-15c-4-6-6-13-6-21 0-10 3-18 10-24 6-7 14-10 25-10 6 0 11 1 15 4l23 18c4 3 9 4 15 4l107 0c27 0 51 1 70 4 19 2 35 6 49 13 13 6 28 15 43 28 15 13 32 29 52 50 19 21 45 47 76 78l3-37c1-13 1-25 1-37l0-115c0-8 1-16 4-25 2-9 6-16 11-23 5-7 10-13 17-17 7-5 15-7 24-7l359 0 z" fill="#573739"/>
		<path d="M1674 731c58 0 109 47 109 109l0 55c0 23-18 40-40 40l-128 0c-65 0-93-61-101-61-10 0-37 61-101 61l-129 0c-22 0-40-17-40-40l0-55c0-62 51-109 109-109l321 0 z" fill="#8B62BF"/>
		<path d="M1729 1294c39 0 72 31 72 72 0 39-31 72-72 72-40 0-71-34-71-72 0-38 31-72 71-72 z M1298 1294c39 0 72 31 72 72 0 39-31 72-72 72-39 0-72-31-72-72 0-39 31-72 72-72 z" fill="#452829"/>
		<path d="M1514 1025c81 0 154 31 207 87-35 12-73 17-110 17l-150 0c-48 0-95-9-142-28 54-51 124-76 195-76 z" fill="#452829"/>
		<path d="M1514 1097c103 0 194 66 208 184 6 52 7 104 7 146 0 30-12 61-48 61l-136 0c-92 0-137 76-145 76-10 0-24-47-67-69-24-12-34-34-35-61 0-25 0-47 2-71 2-47 1-90 19-135 32-86 111-131 195-131 z" fill="#573739"/>
		<path d="M1366 1424c3 0 4 2 8 2 13 7 25 10 35 11l35 0c7 0 13 5 13 12 0 9-4 15-12 16l-22 1c-19 0-42-5-57-12l-7-4c-5-3-7-7-7-12 0-7 6-14 14-14 z M1682 1424c4 0 7 2 10 5 3 3 4 6 4 9 0 5-3 10-9 14-6 3-13 6-20 8-8 2-16 4-24 5-8 1-14 1-18 1l-20-2c-9-1-13-5-13-12 0-5 1-9 4-11 2-3 5-4 8-4l5-1 6 1c3 1 7 1 10 1 17 0 33-4 49-12l8-2 z" fill="#000000"/>
		<path d="M1821 1402c5 0 10 2 14 5 3 3 5 8 5 13 0 9-2 19-7 28-5 9-8 18-8 27 0 6 3 11 8 16l16 12c6 4 12 8 17 13 5 5 7 10 7 16 0 7-2 12-7 15-5 3-11 4-18 5l-10 1-10-1c-7-1-12-1-16-1-8 0-13 4-16 11-3 7-5 14-7 23-2 8-4 16-7 23-3 7-9 10-16 10-7 0-13-4-16-11-3-7-6-15-8-23-2-9-5-17-8-24-3-7-9-11-16-11-4 0-9 0-16 1-7 1-13 1-19 1-7-1-12-2-17-5-5-3-8-8-8-15 0-6 3-11 8-15 5-5 10-9 16-13l17-12c5-5 7-10 7-16 0-9-2-18-7-27-5-9-7-19-7-28 0-5 2-9 5-12 3-4 8-6 13-6 5 0 9 2 14 5 5 3 10 7 15 12 5 4 9 8 14 11 5 3 9 5 13 5 4 0 8-2 13-5 5-3 9-7 14-11 5-5 9-9 14-12 5-3 9-5 14-5 z" fill="#50E2FF"/>
		<path d="M1642 1346l-6 1-6-1c-6 0-57 16-73 21 13 18 33 36 58 36 16 0 58-9 58-31 0-16-19-19-31-26 z M1385 1346c8 0 55 16 73 21-13 18-33 36-58 36-16 0-59-9-59-30 0-18 20-20 32-27l6 1 6-1 z" fill="#000000"/>
		<path d="M1652 1344l-93 0c-7 0-9 6-9 11 0 24 34 47 58 47 24 0 56-21 56-47 0-7-5-11-12-11 z M1457 1344c7 0 9 6 9 11 0 24-33 47-57 47-24 0-57-21-57-47 0-7 5-11 12-11l93 0 z" fill="#FFFFFF"/>
		<path d="M1635 1344l-72 0-1 10c0 19 16 37 37 37 19 0 37-16 37-37l-1-10 z M1453 1344c0 1 2 7 2 10 0 19-17 37-38 37-19 0-37-16-37-37l1-10 72 0 z" fill="#7D4533"/>
		<path d="M1619 1344l-37 0c-3 2-4 5-4 10 0 12 12 21 22 21 12 0 21-9 21-26 0-2-1-4-2-5 z M1435 1344c3 2 4 5 4 10 0 12-12 21-22 21-12 0-21-9-21-26 0-2 1-4 2-5l37 0 z" fill="#000000"/>
		<path d="M1588 1362c4 0 6 2 6 6 0 4-2 6-6 6-5 0-7-2-7-6 0-4 2-6 7-6 z M1405 1362c4 0 6 2 6 6 0 4-2 6-6 6-4 0-6-2-6-6 0-4 2-6 6-6 z" fill="#FFFFFF"/>
		<path d="M1529 1254c12 0 21 12 21 22 0 3-1 8-3 15-11 37-16 71-33 71-8 0-13-4-15-11-5-15-21-60-21-75 0-10 9-22 21-22l30 0 z" fill="#3D2123"/>
		<path d="M1514 1189c18 0 72 20 72 41 0 5-2 7-6 7-8 0-41-16-66-16-27 0-59 16-66 16-4 0-6-2-6-7 0-25 54-41 72-41 z" fill="#990839"/>
	</g></svg>
