<svg version="1.1" xmlns="http://www.w3.org/2000/svg" viewBox="0 0 2300 2300"><g transform="scale(1,-1) translate(-256, -1869)">
		<path d="M1406-287c616 0 1006 391 1006 1006 0 613-388 1006-1006 1006-616 0-1006-391-1006-1006 0-613 388-1006 1006-1006 z" fill="#FFB02E"/>
		<path d="M1011 647c178 0 323 145 323 324 0 179-147 323-323 323-179 0-324-145-324-323 0-177 143-324 324-324 z M1837 611c218 0 396 175 396 395 0 217-174 396-396 396-211 0-395-169-395-396 0-216 173-395 395-395 z" fill="#FFFFFF"/>
		<path d="M2233 0c18 0 35 17 35 36l0 970c0 229-180 432-431 432-239 0-431-192-431-432 0-234 190-431 431-431 145 0 280 73 360 193l0-732c0-19 15-36 36-36 z M1837 647c-196 0-359 157-359 359 0 191 153 360 359 360 194 0 360-156 360-360 0-196-159-359-360-359 z" fill="#9B9B9B"/>
		<path d="M975 827c120 0 215 97 215 215 0 121-97 216-215 216-121 0-216-99-216-216 0-119 97-215 216-215 z M1765 863c121 0 216 97 216 215 0 121-99 216-216 216-119 0-215-97-215-216 0-120 97-215 215-215 z M1622 288c39 0 72 31 72 72 0 11-3 21-8 32-61 125-219 201-352 201-68 0-144-23-194-75-15-15-22-30-22-51 0-39 34-72 72-72 51 0 59 54 144 54 89 0 181-46 223-122 15-24 37-39 65-39 z M1226 1366c18 0 36 15 36 36 0 7-2 14-6 20-46 76-159 124-245 124-82 0-198-45-246-124-4-6-6-13-6-20 0-19 15-36 36-36 15 0 22 6 30 16 46 61 116 92 186 92 70 0 139-31 185-92 9-11 19-16 30-16 z M2017 1510c19 0 36 17 36 35 0 26-46 52-82 67-91 38-120 41-170 41-48 0-95-12-139-29-30-11-112-44-112-78 0-19 15-36 36-36 16 0 124 71 215 71 98 0 198-71 216-71 z" fill="#402A32"/>
	</g></svg>
