<svg version="1.1" xmlns="http://www.w3.org/2000/svg" viewBox="0 0 2300 2300"><g transform="scale(1,-1) translate(-256, -1869)">
		<path d="M1837-287l108 431-108 430c-56 45-117 86-184 114-3 0-31 13-31 13l-192 12c-32 3-64 6-96 6-16 0-32-1-48-2-143-12-107-8-239-16 0 0-26-12-29-12-68-28-131-68-187-115l-108-430 108-431 1006 0 z" fill="#0084CE"/>
		<path d="M831-287l-288 0 0 251c0 237 106 460 288 610l0-861 z M2125-287l-288 0 0 861c185-153 288-376 288-610l0-251 z M1581 313c23 0 41 19 41 41l0 347c-92 36-189 54-288 54-99 0-195-18-287-54l0-347c0-23 18-41 40-41 24 0 212 141 247 165 33-24 225-165 247-165 z" fill="#0074BA"/>
		<path d="M1334 431c18 0 51 34 64 47 51 47 80 106 80 175l0 212c0 80-66 141-144 141-77 0-144-62-144-140l0-212c0-68 28-128 80-176 13-13 46-47 64-47 z" fill="#E6E6E6"/>
		<path d="M1334 575c85 0 144 80 144 155l0 193c0 82-62 155-144 155-83 0-144-75-144-154l0-193c0-81 60-156 144-156 z" fill="#BB806E"/>
		<path d="M1852 1150l0 143c15 0 27-2 42-2 27 0 56 6 56 38l0 73c0 19-17 36-35 36l-1162 0c-19 0-35-15-35-36l0-74c0-18 16-35 35-35l76 0 0-143 1023 0 z" fill="#321B41"/>
		<path d="M1513 748l136 46c15 5 30 13 43 23 13 10 24 22 33 35 9 13 17 27 22 43 5 15 8 31 8 47l0 300c0 14 3 27 8 39 5 11 11 23 18 35 6 12 12 25 17 39 5 14 8 30 8 49 0 38-10 71-31 99-21 28-49 49-84 62-23 9-42 19-57 30-15 11-29 27-43 48-17 25-38 45-62 60-24 15-52 22-84 22-10 0-19-1-28-3l-27-8c-9-3-19-6-28-8-9-3-19-4-28-4-9 0-19 1-28 4-9 2-18 5-27 8l-27 8c-9 2-19 3-29 3-32 0-60-7-83-21-24-14-45-34-62-59-13-20-28-36-43-48-16-12-35-23-58-32-34-13-62-34-83-61-21-28-32-61-32-99 0-18 3-34 8-48 5-14 11-27 17-39 6-12 12-24 17-36 5-12 8-25 8-39l0-300c0-34 10-64 29-91 19-27 45-46 77-57l136-47 0 534c13 13 24 29 33 47 8 17 13 36 16 55 3-1 7-1 10-1 3-1 7-1 10-1 20 0 40 4 59 11 19 7 36 17 51 30 18-15 39-26 62-33 15-5 31-8 46-8 8 0 15 1 23 2 3-19 8-37 17-54 8-17 19-33 32-48l0-534 z" fill="#593B39"/>
		<path d="M1686 988c68 0 120 57 120 120 0 68-57 120-120 120-68 0-120-57-120-120 0-67 54-120 120-120 z M982 988c68 0 120 57 120 120 0 68-57 120-120 120-68 0-120-57-120-120 0-68 57-120 120-120 z" fill="#BB806E"/>
		<path d="M1405 643c105 0 205 56 262 150 30 50 36 105 38 163 4 117 13 236 21 353 1 15 3 27 3 42 0 172-148 299-311 299l-168 0c-174 0-311-130-311-303 0-7 0-13 1-19 5-95 13-210 20-309 3-43 4-84 9-127 16-145 154-249 294-249l142 0 z" fill="#C68D7B"/>
		<path d="M1590 1105l-164 0c-8 0-17 6-17 15 0 48 55 88 101 88 43 0 100-37 100-83 0-10-10-20-20-20 z M1243 1105c7 0 16 6 16 14 0 52-55 89-100 89-43 0-100-37-100-83 0-10 10-20 20-20l164 0 z" fill="#FFFFFF"/>
		<path d="M1558 1105l-126 0c-1 3-2 6-2 9l0 8c0 35 28 66 65 66 18 0 33-6 46-19 16-17 19-40 19-55 0-3-1-6-2-9 z M1237 1105c1 7 2 10 2 17 0 35-28 66-65 66-36 0-66-29-66-66 0-7 1-12 3-17l126 0 z" fill="#7D4533"/>
		<path d="M1528 1105l-66 0c-3 5-4 10-4 17 0 22 16 38 37 38 21 0 37-16 37-38 0-7-1-12-4-17 z M1207 1105c3 5 4 10 4 17 0 22-16 38-37 38-21 0-38-16-38-38 0-6 2-12 5-17l66 0 z" fill="#000000"/>
		<path d="M1475 1137c7 0 11 5 11 12 0 7-4 11-11 11-7 0-12-4-12-11 0-6 6-12 12-12 z M1152 1137c7 0 11 5 11 12 0 7-4 11-11 11-7 0-12-4-12-11 0-8 4-12 12-12 z" fill="#FFFFFF"/>
		<path d="M1361 953c22 0 37 20 37 39 0 19-16 70-28 107-12 33-12 51-35 51-15 0-22-9-26-21-8-30-37-111-37-137 0-19 15-39 37-39l52 0 z" fill="#AB6A55"/>
		<path d="M1334 823c50 0 98 28 124 71 1 3 2 5 2 7 0 7-4 12-11 12-13 0-71-29-115-29-40 0-69 10-108 27l-6 2c-6 0-12-5-12-12l2-7c16-39 83-71 124-71 z" fill="#990839"/>
		<path d="M2197 0l0 150c0 40-36 66-72 66-36 0-72-26-72-66l0-150 144 0 z" fill="#BB806E"/>
		<path d="M2052 173l0 485c0 10 4 19 11 26l113 113-51 51-102-102c-27-27-43-65-43-103l0-470 72 0 z" fill="#D3D3D3"/>
		<path d="M2142 701c59 0 95 39 109 87 8 23 35 120 35 137 0 17-13 31-31 31-9 0-135-36-144-36-49-14-80-59-80-107 0-60 49-112 111-112 z" fill="#50E2FF"/>
		<path d="M2137 748c34 0 61 25 61 61 0 36-27 61-61 61-34 0-61-25-61-61 0-36 27-61 61-61 z" fill="#FFFFFF"/>
		<path d="M2090 5l0 215c0 14-10 25-25 25l-97 0c-14 0-25-10-25-25l0-215 147 0 z" fill="#533566"/>
		<path d="M2140-287c34 0 57 30 57 62l0 253c0 32-23 62-57 62l-216 0c-33 0-50-29-50-58 0-16 8-32 21-43-15-11-22-25-22-44 0-19 7-34 22-45-15-11-22-25-22-44 0-19 7-34 22-45-14-11-21-25-21-42 0-30 17-56 50-56l216 0 z" fill="#C68D7B"/>
		<path d="M1806 1343l0 190-882 0 0-190 882 0 z" fill="#321B41"/>
		<path d="M1587 1242c5 0 10 2 14 7 4 4 6 9 6 14 0 8-5 15-16 22-11 6-23 11-37 16-14 4-28 7-41 9-14 2-24 3-31 3-7 0-15-1-23-3-9-2-13-8-13-17 0-7 1-11 4-14 3-3 6-5 10-6l6-1 7 1 14 0c11 0 23-2 34-5 11-3 21-7 30-10l23-11c7-3 11-5 13-5 z M1083 1242c3 0 7 2 12 5 13 9 26 15 39 18 53 12 90 5 90 28 0 19-27 20-41 20-26 0-120-18-120-51 0-10 10-20 20-20 z" fill="#593B39"/>
		<path d="M1874 1150c18 0 34 16 34 35l0 233c0 109-57 209-152 264-11 5-53 28-63 28-31 0-61-3-92-3l-535 0c-31 0-60 4-91 4-8 0-52-22-63-27-92-53-153-153-153-266l0-233c0-31 25-35 50-35l20 0c85 191 297 292 505 292 43 0 85-3 127-10 161-28 329-139 379-282l34 0 z" fill="#533566"/>
		<path d="M1876 1150c-3 47-80 139-113 172-111 108-271 156-429 156-148 0-290-40-407-142-37-32-131-138-134-186l36 0c85 191 297 292 505 292 43 0 86-4 128-11 155-27 322-131 378-281l36 0 z" fill="#8D65C5"/>
		<path d="M1261 1555c3 0 158 53 181 62l-5 108-371 0c-31 0-60-5-91-13l0-117c0-22 17-40 40-40l246 0 z" fill="#B4F6FC"/>
		<path d="M1652 1555c23 0 41 18 41 40l0 117c-29 9-59 13-92 13l-164 0-176-170 391 0 z" fill="#26EAFC"/>
	</g></svg>
