<svg version="1.1" xmlns="http://www.w3.org/2000/svg"><g transform="scale(1,-1)">
		<path d="M2098-287c171 0 313 139 313 313 0 19-2 35-5 54l-90 551-1821-1-91-552c-3-17-4-35-4-52 0-174 141-313 312-313l1386 0 z" fill="#0074BA"/>
		<path d="M1547 1540l0 85c0 56-44 100-100 100l-85 0c-56 0-100-44-100-100l0-85 285 0 z" fill="#00A6ED"/>
		<path d="M2032 313c159 0 284 130 284 284l0 426c0 306-248 557-557 557l-143 0c-5 0-61-14-64-14l-147-32c-91 19-186 48-268 48-29 0-57-2-85-2-304 0-557-245-557-557l0-426c0-158 129-284 283-284l1254 0 z" fill="#00A6ED"/>
		<path d="M2036 313c28 0 56 5 83 13l0 757c0 274-220 497-497 497l-439 0c-274 0-497-220-497-497l0-755c32-12 75-15 110-15l1240 0 z" fill="#26EAFC"/>
	</g></svg>
