<svg version="1.1" xmlns="http://www.w3.org/2000/svg"><g transform="scale(1,-1)">
		<path d="M770 83l50 7 0 43-212 213c31 21 64 39 99 51l188-189 44 0 7 51-155 156 32 1c71 0 137-18 204-41l91-87 75 28c73-24 148-44 225-44 232 0 467 216 467 452 0 23-2 45-6 67l-114 144c16 21 35 64 35 88 0 7-1 14-4 20-42 83-81 186-81 287l151-151 51-4 0 55-188 187c15 44 38 84 66 120l214-215 51 5 0 46-218 219c19 18 31 35 31 61 0 39-31 72-72 72-19 0-36-7-51-21-100-95-179-231-179-377 0-115 37-216 83-322l84-26-24-121c11-31 20-64 24-97l-145 145-51 0 0-51 191-191c-15-54-46-99-83-138l-219 218-55 0 5-50 216-216c-39-29-81-51-128-59l-181 182-51 0 0-51 130-131c-80 12-153 44-229 69l-91 87-72-35c-49 12-98 20-149 20-163 0-298-75-405-186-14-15-21-32-21-51 0-38 32-71 71-71 38 0 57 28 81 49l218-218 z" fill="#F8312F"/>
		<path d="M975-287c19 0 36 7 51 21 113 110 191 253 191 410 0 27-2 52-5 79l-94 101-69-24c17-60 24-102 24-168l-127 127-51-51 164-163c-11-37-27-71-47-103l-192 191-50-50 198-199c-23-28-65-59-65-100 0-38 31-71 72-71 z M1139 488c-9 31-19 64-28 100-9 32-14 63-14 93l0 8 140-139 51 51-177 176c7 21 17 42 29 61 12 19 26 38 41 55l200-199 50 50-200 200c21 19 44 35 69 48 24 13 50 22 78 27l164-164 51 51-111 111c44-7 86-19 127-34 41-16 81-32 122-47 41-15 83-29 126-40 43-12 90-18 140-18 37 0 74 5 111 14 36 9 71 21 104 38 33 17 65 36 96 59 30 22 58 47 83 74 14 15 21 32 21 51 0 20-7 37-21 51-14 14-31 21-51 21-13 0-25-3-34-8-9-6-18-14-27-23l-219 218-51-51 215-215c-18-14-37-27-57-38-20-11-41-21-62-28l-188 189-51-51 156-156-14-1-14 0c-48 0-95 8-142 23-47 15-93 31-140 49-47 18-94 35-141 50-48 15-97 22-147 22-41 0-80-6-119-18-39-13-76-30-111-52-35-23-67-49-96-79-30-30-56-63-77-98-21-36-38-74-50-113-12-39-18-79-18-119 0-25 2-49 6-74 4-25 9-49 15-72 28-7 56-14 84-23 28-9 55-19 81-30 z" fill="#46A4FB"/>
		<path d="M1212 221c-4 32-11 64-18 95-57 19-113 40-169 60 9-26 17-52 24-78 49-35 103-64 163-77 z" fill="#0084CE"/>
		<path d="M1880 788c-6 37-15 73-27 108-58 14-121 33-177 60 13-33 27-65 38-98 53-13 123-35 166-70 z" fill="#CA0B4A"/>
	</g></svg>
