<svg version="1.1" xmlns="http://www.w3.org/2000/svg" viewBox="0 0 2300 2300"><g transform="scale(1,-1) translate(-256, -1869)">
		<path d="M836-221c100 0 189 41 254 106l1017 1016-378 177-588-126-102-102 0-73-75-2-230-230 0-82-76 6c-107-104-181-179-181-330 0-196 158-360 359-360 z" fill="#C3EF3C"/>
		<path d="M2107 901l101 102c33-33 55-58 102-58 58 0 107 47 107 109 0 28-11 56-31 76l-559 559c-20 20-48 31-76 31-58 0-108-47-108-107 0-47 24-69 57-102l-357-357 27-76-100 3-129-129 966-51 z" fill="#AEDDFF"/>
		<path d="M861 288c-15 0-27 5-38 16l-165 165 76 76 166-165c11-11 16-23 16-38 0-32-25-54-55-54 z M1166 593c30 0 55 22 55 54 0 15-5 27-16 38l-166 165-76-76 165-165c11-11 23-16 38-16 z M1471 898c30 0 54 25 54 54 0 15-5 27-16 38l-165 165-76-76 165-165c11-11 23-16 38-16 z" fill="#008463"/>
	</g></svg>
