<svg version="1.1" xmlns="http://www.w3.org/2000/svg" viewBox="0 0 2300 2300"><g transform="scale(1,-1) translate(-256, -1869)">
		<path d="M1589-287c19 0 39 6 52 21l223 224c19 19 29 43 29 70 0 60-56 97-94 135l-27-28 7-8c-122 0-220 97-220 220 0 120 96 220 219 220 114 0 205-84 219-198l-2 2-41-42 71-72c19-19 43-29 70-29 27 0 51 10 70 29l226 227c14 15 21 32 21 51 0 21-7 38-21 52l-419 419c-7 7-10 14-10 23 0 18 15 33 32 33 15 0 29-4 45-4 119 0 218 95 218 219 0 105-57 149-128 220l-28-9c-20 6-41 9-63 9-120 0-219-96-219-218 0-13 3-27 3-40 0-19-18-36-34-36-9 0-16 3-23 10l-419 419c-14 14-31 21-52 21-19 0-38-8-51-21l-224-224c-5-5-10-12-14-19l-15 15-53-53 82-82c26-26 50-31 87-31 121 0 220-100 220-220 0-118-94-220-220-220-62 0-116 25-154 64-50 51-65 98-65 175 0 61-66 104-101 142l-31-31 14-14c-18-3-35-12-50-27l-226-226c-15-15-22-32-22-52 0-19 7-36 22-51l420-420c7-7 10-14 10-23 0-18-14-33-33-33-15 0-28 4-43 4-123 0-219-96-219-219 0-120 96-220 219-220 120 0 220 98 220 219 0 13-3 26-3 39 0 15 8 16 11 27 6 6 14 9 23 9 9 0 17-3 23-9l417-418c14-14 31-21 51-21 z" fill="#9B9B9B"/>
		<path d="M1517-216c19 0 36 7 51 22l224 224c19 19 29 43 29 70 0 69-55 100-115 100-121 0-220 100-220 220 0 118 94 220 220 220 62 0 116-25 155-64 49-51 64-98 64-175 0-55 48-98 98-98 27 0 51 10 70 29l226 226c13 13 21 32 21 51 0 21-7 38-21 52l-419 420c-7 7-10 14-10 23 0 18 14 32 33 32 15 0 27-4 42-4 122 0 220 97 220 220 0 118-92 218-220 218-120 0-220-98-220-219 0-13 3-26 3-39 0-18-15-36-34-36-9 0-16 3-23 10l-418 418c-14 14-31 21-51 21-19 0-39-6-52-21l-223-224c-19-19-29-43-29-70 0-54 47-100 98-100l17 0c123 0 220-100 220-221 0-119-95-219-220-219-64 0-118 25-156 66-47 48-63 97-63 175 0 56-44 96-98 96-27 0-51-9-70-28l-225-226c-14-15-21-32-21-51 0-21 7-38 21-52l420-420c7-7 10-14 10-23 0-18-14-33-33-33-15 0-29 4-44 4-119 0-218-95-218-219 0-120 96-220 219-220 120 0 220 99 220 219 0 13-3 26-3 39 0 15 8 16 11 27 6 6 14 9 23 9 9 0 17-3 23-9l416-418c15-15 32-22 52-22 z" fill="#00F397"/>
	</g></svg>
