<svg version="1.1" xmlns="http://www.w3.org/2000/svg" viewBox="0 0 2300 2300"><g transform="scale(1,-1) translate(-256, -1869)">
		<path d="M1344-213c22 0 42 3 60 10l639 224c70 25 119 90 119 168 0 21-3 41-10 59l-118 333c3 19 4 35 5 54 11 131 93 305 147 427 7 17 11 34 11 52 0 62-49 117-115 117-40 0-83-22-102-62l-131-261-49 193-2 17-127 472c-13 50-57 88-111 88-61 0-113-51-113-113 0-11 1-21 4-29l113-421-29-10-160 535c-14 48-58 85-110 85-65 0-114-53-114-114 0-10 2-21 5-32l165-548-22-8-182 479c-17 44-59 78-110 78-61 0-111-53-111-113 0-15 2-28 7-40l181-476-32-11-138 324c-18 42-56 69-104 69-64 0-113-52-113-113 0-16 3-31 9-45 22-52 45-104 68-155 99-221 162-435 249-679l1 0 154-436c26-73 91-118 166-118 z" fill="#6B438B"/>
		<path d="M1271-284c23 0 46 5 69 14l624 265c66 28 108 93 108 164 0 23-5 46-14 69l-139 325 1 28 0 27c0 91 40 220 83 335 19 52 45 102 45 145 0 64-48 117-114 117-47 0-88-29-106-69l-115-268c-23 69-41 139-64 207l-156 462c-15 45-58 82-111 82-61 0-112-51-112-113 0-13 2-25 6-36l140-413-29-12-194 524c-17 45-59 78-110 78-62 0-112-53-112-114 0-14 2-27 7-38l199-537-21-9-210 465c-19 43-61 71-107 71-61 0-112-51-112-113 0-17 3-33 10-47l210-463-31-13-158 315c-19 39-59 62-101 62-61 0-113-50-113-113 0-18 4-35 12-51l77-150c108-211 188-424 291-663l2 0 181-425c28-66 91-108 164-108 z" fill="#B859D3"/>
		<path d="M1281-294l57 23-122 287 80 34 122-286 56 24-121 286 80 34 122-286 56 24-122 285 80 35 122-287 56 24-122 287 81 34 121-286 56 24-121 286 80 33 122-285 56 24-122 285 106 46-24 56-950-404 24-56 106 45 121-286 z" fill="#8C42B2"/>
	</g></svg>
