<svg version="1.1" xmlns="http://www.w3.org/2000/svg" viewBox="0 0 2300 2300"><g transform="scale(1,-1) translate(-256, -1869)">
		<path d="M2330-287c47 0 82 38 82 82l0 1848c0 44-33 82-81 82l-1849 0c-46 0-82-34-82-82l0-1848c0-46 34-82 82-82l1848 0 z" fill="#F8312F"/>
		<path d="M1406 288c234 0 431 190 431 431 0 55-10 108-30 159l604 363 0 85-636-384c-77 128-218 208-369 208-152 0-294-80-370-209l-636 385 0-85 605-364c-20-50-30-103-30-158 0-234 190-431 431-431 z" fill="#CA0B4A"/>
		<path d="M1255 454c7 0 13 3 18 8 5 5 7 10 7 17l0 177 77-28 6-112c1-7 3-12 8-17 5-5 10-7 17-7 47 0 93 1 140 3l140 4c7 0 13 2 18 7 4 4 6 10 6 17l3 93 1 1 3 96c0 7-3 14-8 20-5 4-11 7-17 7l-297-22c-7-1-12-3-17-7-5-5-7-10-7-17 0-2 0-4 1-5l0-5-74 27 0 29 74 88c4 4 6 9 6 16 0 8-3 14-8 19-6 5-13 7-20 7l-32-5c-19-3-39-7-60-12l-101-21c-7-1-12-4-15-9-3-5-5-11-5-17 0-7 3-13 8-18 5-5 10-8 17-8 7 0 16 1 27 3l35 7 35 9c11 3 21 5 28 6l-144-174c-4-5-6-11-6-16 0-7 3-13 8-18 5-5 11-8 18-8 7 0 14 3 19 10l66 80 0-200c0-7 3-12 8-17 5-5 10-8 17-8 z M1450 757c23 0 47 1 71 4 24 3 48 5 71 6 11 1 18 7 23 17 1 4 4 11 9 22l25 67c3 10 5 17 5 20 0 7-3 14-8 19-5 4-11 7-17 7l-218-19c-7-1-13-3-17-8-5-5-7-11-7-18 0-4 2-11 5-20 3-9 7-19 12-29 4-11 8-21 13-30l9-22c4-11 12-16 24-16 z M1546 546l-1 38 100 5-2-41-97-2 z M1413 543l-2 36 83 3 1-37-82-2 z M1408 630l-2 39 85 6 2-42-85-3 z M1544 636l-2 43 106 8-2-47-102-4 z M1467 809l-18 43 142 12-18-48-106-7 z M1318 882c-7 0-13 2-18 7l-68 66c-5 5-8 12-8 19 0 15 11 25 26 25 5 0 11-2 17-7l68-66c5-5 8-12 8-19 0-13-11-25-25-25 z M1398 937c42 0 102 8 161 14 35 4 73 0 73 30 0 13-10 25-25 25-35 0-105-8-160-14-35-4-72-1-72-30 0-12 9-25 23-25 z" fill="#FCD53F"/>
	</g></svg>
