<svg version="1.1" xmlns="http://www.w3.org/2000/svg" viewBox="0 0 2300 2300"><g transform="scale(1,-1) translate(-256, -1869)">
		<path d="M1839-287c76 0 142 60 142 142l0 1096c0 227-183 415-415 415l-177 0c-222 0-414-176-414-415l0-1096c0-76 60-142 142-142l722 0 z" fill="#F8312F"/>
		<path d="M1627 719c40 0 66 31 66 68l0 151c0 37-29 68-67 68l-296 0c-37 0-68-29-68-68l0-151c0-39 31-68 68-68l297 0 z M1874-72c18 0 35 17 35 36l0 940c0 216-181 390-396 390-19 0-35-15-35-36 0-21 16-36 35-36 174 0 325-142 325-318l0-940c0-19 15-36 36-36 z" fill="#F4F4F4"/>
		<path d="M1873 1366c18 0 36 13 36 34 0 14-9 25-21 30l-338 140 0 12 359-1c38 0 72 33 72 72 0 41-34 72-73 72l-430 0c-38 0-72-31-72-71 0-9 1-18 4-25-4-8-5-22-5-37l1-38c-20 19-45 27-72 27-58 0-108-47-108-107 0-58 49-108 108-108 27 0 52 8 72 27l0-27 144 0 0 131c36-16 305-131 323-131 z" fill="#D3D3D3"/>
		<path d="M1083-287c25 0 37 20 37 42 0 7-1 10-2 17-35 140-76 276-115 415-3 8-28 98-28 101l0 790c0 274 227 503 503 503l0 144c-355 0-647-289-647-647l0-527c0-49 3-92 4-131l1-62c-1-21-2-45-5-70-8-71-31-110-48-172l-96-344-2-16c0-22 12-43 38-43l360 0 z" fill="#321B41"/>
		<path d="M1334 1330c81 0 144 67 144 144 0 80-65 143-144 143-80 0-144-64-144-143 0-81 67-144 144-144 z M903 324l72 36 0 143-144 0 0-143 72-36 z M1334 1409c-39 0-72 31-72 72 0 39 31 72 72 72l0-73 49 55c15-15 23-34 23-54 0-38-33-72-72-72 z" fill="#E6E6E6"/>
		<path d="M1981 288l0 72-1150 0 0-72 1150 0 z" fill="#433B6B"/>
	</g></svg>
