<svg version="1.1" xmlns="http://www.w3.org/2000/svg"><g transform="scale(1,-1)">
		<path d="M651-215c19 0 36 15 36 36 0 18-17 35-36 35l-215 0c-19 0-36-17-36-35 0-19 15-36 36-36l215 0 z M651 72c19 0 36 15 36 36 0 19-15 36-36 36l-215 0c-19 0-36-15-36-36 0-19 15-36 36-36l215 0 z M651-72c19 0 36 15 36 36 0 19-15 36-36 36l-215 0c-19 0-36-15-36-36 0-19 15-36 36-36l215 0 z M651 216c19 0 36 15 36 36 0 19-15 36-36 36l-215 0c-19 0-36-15-36-36 0-19 15-36 36-36l215 0 z" fill="#990838"/>
		<path d="M615-291c526 0 1012 245 1339 666 118 153 229 334 229 555 0 368-335 723-706 723-122 0-228-28-319-85-159-100-252-300-255-492l143 0c0 16 2 32 7 49 44 165 187 240 351 240 201 0 288-188 288-356 0-71-17-136-50-195-177-312-681-453-956-453-96 0-140-49-140-148l0-428c0-45 18-76 69-76 z" fill="#CA0B4A"/>
		<path d="M2170 71c206 2 247-6 247 187l0 267c-3 163-35 191-149 191l-215-1c-324 0-971 51-971 485 0 239 165 381 399 381 192 0 381-78 515-217 56-59 118-134 149-214-15 77-56 153-98 214-148 209-377 337-641 337-421 0-720-257-720-693 0-475 275-744 718-861 244-64 528-76 766-76 z" fill="#F8312F"/>
	</g></svg>
