<svg version="1.1" xmlns="http://www.w3.org/2000/svg"><g transform="scale(1,-1)">
		<path d="M1406-144c641 0 862 392 862 971 0 482-373 898-862 898-491 0-863-418-863-898 0-577 242-971 863-971 z" fill="#AEDDFF"/>
		<path d="M1406-287c87 0 169 10 248 31 79 21 152 52 219 93 67 41 128 91 181 152 53 61 98 131 134 211 27 59 47 120 60 183 13 63 20 127 20 192l0 218c-3-78-15-153-36-226-22-73-52-142-89-206-37-64-82-123-133-176-51-53-108-99-171-137-63-38-131-67-204-88-73-21-150-32-229-32-79 0-155 11-228 32-73 21-141 50-204 88-63 38-121 84-172 137-51 53-96 112-133 176-37 64-67 133-88 206-22 73-34 148-37 226l-1-2 1-76 0-32c-1-36-1-72-1-108 0-65 7-129 20-192 13-63 33-124 60-183 36-80 81-150 135-211 53-61 114-111 181-152 67-41 140-72 219-93 79-21 161-31 248-31 z M2195 768c1 20 2 39 2 59 0 440-340 826-791 826-453 0-791-387-791-826 0-20 1-39 2-59 31 391 417 526 789 526 344 0 757-121 789-526 z" fill="#83CBFF"/>
		<path d="M1406 0c335 0 628 219 741 537 22 62 48 168 48 231 0 59-30 158-55 213-126 280-429 457-734 457-305 0-609-177-734-457-24-54-55-154-55-213 0-66 27-171 48-231 112-314 403-537 741-537 z" fill="#00A6ED"/>
		<path d="M1226 288c98 0 180 79 180 179 0 98-78 180-180 180-98 0-179-79-179-180 0-97 79-179 179-179 z M1658 647c98 0 179 79 179 180 0 97-79 179-179 179-98 0-180-79-180-179 0-98 78-180 180-180 z M1083 935c59 0 107 49 107 107 0 60-49 108-107 108-61 0-108-48-108-108 0-59 48-107 108-107 z" fill="#E2FF92"/>
	</g></svg>
