<svg version="1.1" xmlns="http://www.w3.org/2000/svg" viewBox="0 0 2300 2300"><g transform="scale(1,-1) translate(-256, -1869)">
		<path d="M1233 791c18 0 29 15 29 31 0 10-4 19-12 26l-604 504c-11 9-24 14-39 14-38 0-64-35-64-69 0-25 10-44 30-58l644-443c5-3 11-5 16-5 z M1305 863c18 0 29 14 29 30 0 6-1 10-2 13l-310 709c-11 23-31 38-56 38-35 0-63-30-63-64 0-11 3-21 8-32l369-679c5-10 14-15 25-15 z" fill="#F3C07B"/>
		<path d="M1442 144c334 0 611 269 611 611 0 334-269 611-611 611-334 0-611-269-611-611 0-337 271-611 611-611 z" fill="#00A6ED"/>
		<path d="M1622-287c19 0 36 18 36 36 0 19-18 36-36 36l-288 0c-38 0-72 31-72 71 0 39 31 72 72 72l601 0c161 0 310 132 310 309 0 65-20 127-54 177-46 68-94 94-177 126l0 1c-28 9-56 19-83 31 32 13 66 23 103 30 7 25 11 50 14 76-72-11-139-34-203-66-43 23-83 46-122 73 97 66 206 118 326 136-2 25-6 48-12 71-137-21-262-82-375-162-42 33-81 68-116 105 128 101 286 183 438 203-13 23-26 45-41 66-164-30-305-108-446-215-31 37-60 75-87 115 129 93 270 166 419 223-23 19-45 35-70 50-137-56-266-125-387-212-23 39-45 80-64 121 84 63 172 118 267 165-40 9-81 14-123 15-61-32-119-69-176-108-11 25-20 49-28 76-180-58-323-203-385-383 9-19 18-38 29-57l-58-80c-2-20-3-40-3-59 0-25 1-50 4-75 30 49 62 97 97 142 24-43 49-83 77-122-47-68-86-136-117-212 13-27 29-54 46-79 29 81 69 157 116 229 33-42 63-79 99-119-47-69-86-143-114-223 19-17 38-32 61-47 23 77 60 148 103 216 36-36 73-70 112-102-35-57-64-118-80-183 23-8 46-15 69-20 12 56 39 107 67 158 35-27 69-51 105-74-15-32-26-65-33-100 25 0 50 2 75 5 5 20 12 38 20 57 23-15 47-27 71-39 32 9 61 20 92 35-371 164-633 480-800 837 27 51 60 96 99 137 154-399 439-719 845-880 20 17 39 36 56 56-405 148-694 469-845 877 37 31 79 57 125 78 110-310 306-577 591-738 80-45 163-75 247-108 92-38 154-123 154-223 0-132-110-238-238-238l-601 0c-81 0-144-67-144-144 0-80 65-143 144-143l288 0 z" fill="#0074BA"/>
	</g></svg>
