<svg version="1.1" xmlns="http://www.w3.org/2000/svg" viewBox="0 0 2300 2300"><g transform="scale(1,-1) translate(-256, -1869)">
		<path d="M2053 144l0 719-719 0 0-719 719 0 z" fill="#9B9B9B"/>
		<path d="M2053 144c99 0 175 75 226 162 115 196 133 416 133 557 0 100-9 200-32 297-35 144-133 421-327 421l-360 0 0-718c0-95 9-188 28-280 32-154 139-439 332-439 z" fill="#F4F4F4"/>
		<path d="M1622-215c38 0 71 32 71 71l0 1007c0 95 9 188 28 280 32 151 136 438 332 438l-1294 0c-38 0-92-31-121-50-200-143-238-448-238-668l0-1007c0-41 34-71 72-71l1150 0 z" fill="#D3D3D3"/>
		<path d="M2053 575c114 0 144 216 144 288 0 78-33 287-144 287-115 0-144-211-144-287 0-78 32-288 144-288 z" fill="#7D4533"/>
	</g></svg>
