<svg version="1.1" xmlns="http://www.w3.org/2000/svg" viewBox="0 0 2300 2300"><g transform="scale(1,-1) translate(-256, -1869)">
		<path d="M1118-1c68 0 105 16 168 24l336 49 0 1006-336 49c-64 8-102 24-168 24-68 0-105-16-168-24l-335-49 0-1006 335-49c64-8 102-24 168-24 z" fill="#00A6ED"/>
		<path d="M1658-287c97 0 179 79 179 179 0 98-79 180-179 180l-1079 0c-98 0-179-79-179-180 0-97 79-179 179-179l1079 0 z M1658 1078c98 0 179 79 179 180 0 98-79 180-179 180l-1079 0c-98 0-179-79-179-180 0-98 79-180 179-180l1079 0 z" fill="#F3AD61"/>
		<path d="M1622 252l0 108-1007 0 0-108 1007 0 z M1622 611l0 108-1007 0 0-108 1007 0 z M1622 791c35 0 70 2 107 6 213 24 410 153 410 391 0 261-228 447-481 447-30 0-54-22-54-54 0-32 25-53 54-53 185 0 374-135 374-338 0-228-230-291-410-291l-1007 0 0-108 1007 0 z" fill="#3F5FFF"/>
		<path d="M857 220c9 0 18 3 26 9l1299 1008c21-9 45-15 68-15 91 0 162 71 162 162 0 87-73 162-162 162-85 0-161-70-161-162 0-18 2-34 7-49l-7-5-1258-1042c-10-7-13-20-13-30 0-22 16-38 39-38 z M2250 1330c-32 0-53 25-53 54 0 29 21 54 53 54 30 0 54-22 54-54 0-30-22-54-54-54 z" fill="#9B9B9B"/>
		<path d="M1622 431l0 108-1007 0 0-108 1007 0 z" fill="#3F5FFF"/>
	</g></svg>
