<svg version="1.1" xmlns="http://www.w3.org/2000/svg" viewBox="0 0 2300 2300"><g transform="scale(1,-1) translate(-256, -1869)">
		<path d="M2197-287c120 0 215 97 215 215l0 1582c0 120-97 215-215 215l-1582 0c-120 0-215-97-215-215l0-1582c0-120 97-215 215-215l1582 0 z" fill="#D3D3D3"/>
		<path d="M1837 216c39 0 72 31 72 72l0 287c0 39-31 72-72 72l-862 0c-39 0-72-31-72-72l0-287c0-39 31-72 72-72l862 0 z M687 1366c39 0 72 31 72 72l0 287-144 0c-120 0-215-97-215-215l0-144 287 0 z M1837 1366c39 0 72 31 72 72l0 287-1006 0 0-287c0-39 31-72 72-72l862 0 z M2412 1366l0 144c0 120-97 215-215 215l-144 0 0-287c0-39 31-72 72-72l287 0 z M2412 791l0 431-862 0c-39 0-72-31-72-72l0-287c0-39 31-72 72-72l862 0 z M2412 216l0 431-287 0c-39 0-72-31-72-72l0-287c0-39 31-72 72-72l287 0 z M2197-287c120 0 215 97 215 215l0 144-862 0c-39 0-72-31-72-72l0-287 719 0 z M1334-287l0 287c0 39-31 72-72 72l-862 0 0-144c0-120 97-215 215-215l719 0 z M687 216c39 0 72 31 72 72l0 287c0 39-31 72-72 72l-287 0 0-431 287 0 z M1262 791c39 0 72 31 72 72l0 287c0 39-31 72-72 72l-862 0 0-431 862 0 z" fill="#FF6723"/>
	</g></svg>
