<svg version="1.1" xmlns="http://www.w3.org/2000/svg" viewBox="0 0 2300 2300"><g transform="scale(1,-1) translate(-256, -1869)">
		<path d="M1406 1258l180 98c-22 7-36 25-36 46l0 179-288 0 0-179c0-21-14-39-36-46l180-98 z" fill="#F8312F"/>
		<path d="M1765-287c161 0 288 129 288 287l0 791c0 307-248 575-575 575l-144 0c-307 0-575-248-575-575l0-791c0-160 129-287 288-287l718 0 z" fill="#FBB8AB"/>
		<path d="M1406 72c160 0 287 84 287 252 0 183-128 391-215 539-16 26-42 64-75 64-36 0-53-39-69-64-88-145-216-362-216-539 0-167 124-252 288-252 z" fill="#F3EEF8"/>
		<path d="M1765 1510c37 0 68 29 68 67 0 43-34 63-68 76-22 8-52 10-75 15-82 15-155 30-237 42-40 7-79 15-119 15-64 0-150-38-150-114 0-49 40-83 78-101l503 0 z" fill="#FF8687"/>
	</g></svg>
