<svg version="1.1" xmlns="http://www.w3.org/2000/svg" viewBox="0 0 2300 2300"><g transform="scale(1,-1) translate(-256, -1869)">
		<path d="M1622 1438l0 215-72 0 0-143-288 0 0 143-72 0 0-215 432 0 z" fill="#636363"/>
		<path d="M1693-294c39 0 72 30 72 71l0 79-143 0 0-79c0-39 33-71 71-71 z M1118-294c39 0 72 30 72 71l0 79-143 0 0-79c0-39 33-71 71-71 z M1622 1617l0 58c0 12-2 23-7 34-5 10-11 19-18 27-8 7-17 13-27 18-11 5-22 7-34 7l-260 0c-12 0-23-2-33-7-11-5-20-11-27-18-8-8-14-17-19-27-5-11-7-22-7-34l0-58 72 0c0 3 0 9-1 17l-1 12 1 12c0 8 1 15 3 22 2 6 6 9 12 9l260 0c6 0 10-3 12-9 2-7 3-14 4-22 0-8 0-16-1-24-1-8-1-14-1-17l72 0 z" fill="#212121"/>
		<path d="M1817-177c130 0 236 105 236 235l0 1184c0 131-108 234-236 234l-822 0c-128 0-236-103-236-234l0-1185c0-131 108-234 236-234l822 0 z" fill="#00A6ED"/>
		<path d="M1765-72c-38 0-72 33-72 72l0 1222c0 38 33 72 72 72 39 0 72-31 72-72l0-1222c0-39-31-72-72-72 z M1406-72c38 0 72 33 72 72l0 1222c0 38-33 72-72 72-39 0-72-31-72-72l0-1222c0-38 33-72 72-72 z M1047-72c40 0 71 34 71 72l0 1222c0 38-31 72-71 72-39 0-72-31-72-72l0-1222c0-39 34-72 72-72 z" fill="#26EAFC"/>
		<path d="M1596 957c12 0 22 4 31 13l125 125c8 8 12 19 12 30 0 13-4 23-12 31l-250 249c-9 9-19 13-30 13-12 0-22-4-31-13l-125-125c-9-9-13-19-13-30 0-12 4-22 13-31l250-249c9-9 19-13 30-13 z" fill="#F4F4F4"/>
	</g></svg>
