<svg version="1.1" xmlns="http://www.w3.org/2000/svg" viewBox="0 0 2300 2300"><g transform="scale(1,-1) translate(-256, -1869)">
		<path d="M623 124c39 0 74 10 107 29l498 287c70 40 108 113 108 188 0 119-97 215-216 215-39 0-74-10-107-29l-498-288c-70-40-108-111-108-186 0-121 99-216 216-216 z M2193 123c117 0 216 94 216 215 0 78-41 147-104 185l-490 299c-35 21-72 32-113 32-121 0-216-97-216-215 0-78 42-147 104-185l491-299c35-21 72-32 112-32 z M1729 1361c98 0 180 79 180 179 0 98-78 180-180 180-98 0-179-79-179-180 0-97 79-179 179-179 z M1083 1361c97 0 179 79 179 179 0 98-79 180-179 180-101 0-180-81-180-180 0-98 79-179 180-179 z" fill="#D3883E"/>
		<path d="M1406 714c284 0 575 89 575 425 0 293-293 545-575 545-280 0-575-249-575-545 0-342 300-425 575-425 z" fill="#E19747"/>
		<path d="M1406 714c284 0 575 89 575 425 0 293-293 545-575 545-280 0-575-249-575-545 0-342 300-425 575-425 z" fill="#FF822D"/>
		<path d="M1406-220c315 0 575 252 575 575 0 172-75 328-199 435 142 74 199 200 199 349 0 293-293 545-575 545-280 0-575-249-575-545 0-149 57-275 199-349-124-107-199-263-199-435 0-315 252-575 575-575 z" fill="#E19747"/>
		<path d="M1800-290c-139 0-252 114-252 253 0 56 18 104 50 149 74 101 132 188 267 188 135 0 251-111 251-252 0-56-18-105-50-150-74-104-133-188-266-188 z M1013-290c138 0 251 111 251 252 0 55-17 102-50 150-74 103-131 188-266 188-139 0-252-113-252-252 0-56 18-105 50-150 75-103 136-188 267-188 z" fill="#D3883E"/>
		<path d="M1798-183c64 0 108 43 145 95 33 46 63 83 63 135 0 80-64 144-143 144-64 0-111-44-145-94-32-46-64-83-64-136 0-81 67-144 144-144 z M1015-183c80 0 143 65 143 144 0 31-9 59-28 86-45 64-92 144-180 144-80 0-143-65-143-144 0-31 9-59 28-86 45-64 92-144 180-144 z M1406-77c49 0 98 11 143 30 0 78 25 131 73 193 43 55 77 105 143 134 0 199-158 362-359 362-200 0-359-161-359-362 80-35 120-103 167-168 38-53 50-95 50-160 46-19 93-29 142-29 z M1406 827c109 0 252 91 252 215 0 127-155 180-252 180-101 0-252-56-252-180 0-126 144-215 252-215 z M985 1494c49 51 106 92 171 125-21 19-45 29-73 29-61 0-108-48-108-108 0-17 3-33 10-46 z M1827 1494c7 15 10 31 10 46 0 57-46 108-108 108-28 0-52-10-73-29 65-33 122-74 171-125 z" fill="#FFDEA7"/>
		<path d="M1406 1057c19 0 70 45 70 65 0 16-19 28-34 28l-72 0c-15 0-34-12-34-28 0-18 49-65 70-65 z M1586 1222c18 0 36 17 36 36 0 18-17 36-36 36-19 0-36-15-36-36 0-19 15-36 36-36 z M1226 1222c19 0 36 15 36 36 0 19-15 36-36 36-19 0-36-15-36-36 0-19 15-36 36-36 z" fill="#000000"/>
	</g></svg>
