<svg version="1.1" xmlns="http://www.w3.org/2000/svg" viewBox="0 0 2300 2300"><g transform="scale(1,-1) translate(-256, -1869)">
		<path d="M1406-287c547 0 1006 440 1006 1006 0 547-440 1006-1006 1006-547 0-1006-440-1006-1006 0-547 440-1006 1006-1006 z" fill="#1345B7"/>
		<path d="M1420 158c303 0 552 246 552 552 0 303-246 552-552 552-303 0-552-246-552-552 0-303 246-552 552-552 z" fill="#FFFFFF"/>
		<path d="M1420 158c303 0 552 246 552 552 0 303-246 552-552 552-303 0-552-246-552-552 0-303 246-552 552-552 z" fill="#FFFFFF"/>
		<path d="M1420 342c202 0 368 164 368 368 0 201-161 368-368 368-202 0-368-164-368-368 0-202 164-368 368-368 z" fill="#26C9FC"/>
		<path d="M1420 526c100 0 184 81 184 184 0 100-81 184-184 184-100 0-184-81-184-184 0-100 81-184 184-184 z" fill="#212121"/>
	</g></svg>
