<svg version="1.1" xmlns="http://www.w3.org/2000/svg"><g transform="scale(1,-1)">
		<path d="M2025-287c97 0 172 79 172 172l0 1815c0 11-7 18-18 18-30 0-69-80-104-80-37 0-74 87-123 87-46 0-84-87-122-87-37 0-73 87-122 87-46 0-87-87-122-87-35 0-77 87-122 87-48 0-88-87-123-87-36 0-75 87-123 87-46 0-84-87-122-87-35 0-76 81-103 81-11 0-18-8-18-19l0-1987 1050 0 z" fill="#D3D3D3"/>
		<path d="M2017-287c-98 0-180 78-180 180l0 112c0 39-30 67-67 67l-1015 0c-37 0-68-29-68-67l0-112c0-98 78-180 180-180l1150 0 z M2017 216c19 0 36 15 36 36 0 19-15 36-36 36l-144 0c-19 0-36-15-36-36 0-19 15-36 36-36l144 0 z M2017 431c19 0 36 18 36 36 0 19-15 36-36 36l-144 0c-19 0-36-15-36-36 0-18 17-36 36-36l144 0 z M2017 647c19 0 36 15 36 36 0 19-15 36-36 36l-144 0c-19 0-36-15-36-36 0-19 15-36 36-36l144 0 z M2017 863c19 0 36 15 36 36 0 19-18 36-36 36l-144 0c-18 0-36-17-36-36 0-19 15-36 36-36l144 0 z M2017 1078c19 0 36 15 36 36 0 19-15 36-36 36l-144 0c-19 0-36-15-36-36 0-19 15-36 36-36l144 0 z M1729 216c19 0 36 15 36 36 0 19-15 36-36 36l-575 0c-19 0-36-18-36-36 0-19 18-36 36-36l575 0 z M1729 431c19 0 36 18 36 36 0 19-15 36-36 36l-575 0c-19 0-36-18-36-36 0-18 17-36 36-36l575 0 z M1729 647c19 0 36 15 36 36 0 19-15 36-36 36l-575 0c-18 0-36-17-36-36 0-18 17-36 36-36l575 0 z M1729 863c19 0 36 15 36 36 0 18-17 36-36 36l-575 0c-18 0-36-17-36-36 0-18 17-36 36-36l575 0 z M1729 1078c19 0 36 15 36 36 0 19-15 36-36 36l-575 0c-18 0-36-17-36-36 0-18 17-36 36-36l575 0 z M2035 1294c11 0 18 7 18 18l0 108c0 11-7 18-18 18l-899 0c-11 0-18-7-18-18l0-108c0-11 7-18 18-18l899 0 z" fill="#9B9B9B"/>
	</g></svg>
