<svg version="1.1" xmlns="http://www.w3.org/2000/svg"><g transform="scale(1,-1)">
		<path d="M893-288c125 0 244 46 338 140l169 169 142 559 564 146 167 168c92 93 139 210 139 338 0 264-226 493-494 493-133 0-250-52-337-139l-168-168-145-588-561-118-168-168c-87-87-140-205-140-338 0-263 225-494 494-494 z" fill="#F3C07B"/>
		<path d="M1397 19l710 710-691 692-710-711 691-691 z M1083 72c18 0 35 17 35 36 0 19-17 36-35 36-19 0-36-15-36-36 0-19 15-36 36-36 z M939 216c19 0 36 15 36 36 0 19-15 36-36 36-19 0-36-15-36-36 0-19 15-36 36-36 z M795 360c19 0 36 15 36 36 0 18-17 35-36 35-19 0-36-17-36-35 0-19 15-36 36-36 z M939-72c19 0 36 15 36 36 0 19-15 36-36 36-19 0-36-15-36-36 0-19 15-36 36-36 z M795 72c19 0 36 15 36 36 0 19-15 36-36 36-19 0-36-15-36-36 0-19 15-36 36-36 z M651 216c19 0 36 15 36 36 0 19-15 36-36 36-19 0-36-15-36-36 0-19 15-36 36-36 z M2161 1150c19 0 36 18 36 36 0 18-17 36-36 36-19 0-36-15-36-36 0-19 15-36 36-36 z M2017 1294c19 0 36 15 36 36 0 19-15 36-36 36-19 0-36-15-36-36 0-19 15-36 36-36 z M2017 1006c19 0 36 18 36 36 0 19-15 36-36 36-19 0-36-15-36-36 0-19 18-36 36-36 z M1873 1150c19 0 36 15 36 36 0 19-15 36-36 36-19 0-36-15-36-36 0-19 15-36 36-36 z M1729 1294c19 0 36 15 36 36 0 19-15 36-36 36-18 0-36-17-36-36 0-18 17-36 36-36 z M1873 1438c19 0 36 15 36 36 0 18-17 36-36 36-18 0-36-17-36-36 0-19 15-36 36-36 z" fill="#E19747"/>
	</g></svg>
