<svg version="1.1" xmlns="http://www.w3.org/2000/svg"><g transform="scale(1,-1)">
		<path d="M1795-263c8 0 16 1 24 2l461 72c78 11 134 81 134 157 0 10-1 16-2 26l-205 1428c-8 54-47 96-107 96l-1388 0c-60 0-99-42-107-96l-205-1428c-1-8-2-17-2-25 0-73 57-144 132-155l461-72c8-1 16-2 24-2 72 0 144 54 157 126l113 565c7 30 32 54 65 54l112 0c33 0 58-24 65-54l111-568c14-76 87-126 157-126 z" fill="#6AFCAC"/>
		<path d="M515 795c199 88 331 282 342 499l1097 0c11-218 142-410 343-498l-13 84c-152 83-253 243-261 414l202 0c-10 80-8 224-125 224l-1388 0c-118 0-114-142-125-224l201 0c-8-175-113-335-261-415l-12-84 z" fill="#00D26A"/>
		<path d="M1661 781c22 0 40 18 40 39 0 10-134 520-144 539-8 17-18 30-39 30-22 0-40-17-40-40 0-12 135-522 145-539 8-17 18-29 38-29 z M1151 781c20 0 30 12 38 29 8 20 145 526 145 539 0 22-17 40-40 40-21 0-31-13-39-30-8-21-145-529-145-537 0-23 19-41 41-41 z" fill="#FFFFFF"/>
	</g></svg>
