<svg version="1.1" xmlns="http://www.w3.org/2000/svg" viewBox="0 0 2300 2300"><g transform="scale(1,-1) translate(-256, -1869)">
		<path d="M1478-287c54 0 107 9 158 26 216 72 345 260 345 496 0 340-40 805-175 1131-90 215-265 359-508 359-289 0-539-232-539-539 0-119 36-197 86-292 106-207 130-451 130-678 0-276 221-503 503-503 z" fill="#5092FF"/>
		<path d="M1109 252c12 0 25 2 38 5-36 145-117 359-117 510 0 106 74 205 135 298 57-25 109-47 165-74 199-93 263-220 301-432 3-11 2-20 5-31 19-92 47-131 116-187 36 67 46 151 46 223 0 326-227 575-536 670l-92 197c-67-36-95-112-95-181 0-11 1-22 2-33-97-113-181-267-181-413 0-15 1-29 4-42 20-84 43-164 56-248 13-82 36-262 153-262 z" fill="#3F5FFF"/>
		<path d="M1135 257c38 0 72 33 72 72 0 5-1 10-2 17l-72 289c-9 34-13 70-13 107 0 105 33 193 100 280 24 32 62 95 108 95 9 0 16-1 22-4 222-86 367-298 367-533l0-177c0-37 31-74 69-74 42 0 75 28 75 72l0 179c0 312-201 581-495 680-9 3-19 4-28 8-75 28-46 170-138 170-36 0-67-30-67-67 0-53 48-91 48-142 0-29-22-56-44-83-108-131-161-252-161-405 0-47 6-94 17-141l72-288c8-31 36-55 70-55 z" fill="#FFB02E"/>
	</g></svg>
