<svg version="1.1" xmlns="http://www.w3.org/2000/svg"><g transform="scale(1,-1)">
		<path d="M1906-290c49 0 94 7 135 21 171 56 291 239 291 441 0 28-3 56-8 83-27 127-56 264-56 388 0 202 144 374 144 575 0 225-198 426-428 426-352 0-491-335-543-600-43-8-52-81-52-114 0-28 7-56 23-80-11-104-11-206-11-310l0-52c-19-15-23-36-23-55l0-32c0-14 3-32 12-32 5 0 8 1 11 4l0-445c0-131 67-218 213-218l292 0 z M906-290c49 0 94 7 135 21 171 56 291 239 291 441 0 28-3 56-8 83-27 127-56 264-56 388 0 202 144 374 144 575 0 225-198 426-428 426-353 0-488-332-544-600-43-8-51-80-51-114 0-28 7-56 23-80-11-104-11-206-11-310l0-52c-19-15-23-36-23-55l0-32c0-14 3-32 12-32 5 0 8 1 11 4l0-445c0-131 67-218 213-218l292 0 z M1432 998l2 12c0-4-2-8-2-12 z" fill="#FF6DC6"/>
		<path d="M1472 556l0 92c0 44 1 89 5 133 40-40 75-74 115-111l-120-114 z M1665 739c127 119 249 239 372 362 8 8 17 16 24 25 27 40 55 117 55 169 0 138-130 215-248 215-272 0-355-401-379-607 55-60 115-112 176-164 z M2043 438c2 22 3 44 3 65 0 128-73 235-73 362 0 12 1 25 2 37-79-79-153-150-232-229 99-81 197-159 300-235 z M1756 218c99 0 206 20 257 116-123 80-236 171-345 267-66-61-126-115-196-172l0-70c0-90 61-141 144-141l140 0 z M472 556l0 92c0 43 1 90 4 133 39-37 77-75 116-111l-120-114 z M665 739c127 119 249 239 372 362 8 8 17 16 24 25 28 41 55 118 55 169 0 138-130 215-248 215-272 0-351-394-380-607 59-59 114-109 177-164 z M1043 438c2 22 3 44 3 65 0 128-73 237-73 362 0 12 1 25 2 37-78-78-155-149-232-229 99-81 197-159 300-235 z M756 218c96 0 205 20 256 116-121 80-235 171-344 267-66-61-126-115-196-172l0-70c0-90 61-141 144-141l140 0 z" fill="#BB1D80"/>
		<path d="M1722 555c-19 15-35 31-54 46 27 23 50 48 75 73l24-21c-18-15-52-56-52-82 0-7 2-12 7-16 z M1403 288l0 85 69 56 0-80c0 8-1 20-12 20-27 0-57-58-57-81 z M1472 693c0 28 3 57 7 85l-67 72 0-18c0-70 52-85 60-139 z M2012 333c17 32 25 69 30 105-11 12-26 20-39 31 3-3 5-8 5-15 0-20-20-80-48-80-3 0-7 1-11 4l63-45 z M1393 969c1 5 4 10 7 15 3 5 7 7 13 7 5 0 10-2 14-6 3-5 6-9 8-14l0 13c0 20 2 41 6 62-9-2-16-6-21-11-6-5-11-12-14-19-4-7-7-15-9-23l-4-24 z M1922 849c21 114 59 195 140 278-23-43-45-84-61-128-11-31-14-64-25-96-17-19-35-35-54-54 z M1012 333l-64 45c4-3 8-4 11-4 28 0 48 56 48 79l0 9c-1 3-2 5-5 7 13-11 29-19 40-31-5-36-13-73-30-105 z M722 555c-5 4-7 9-7 16 0 26 34 67 52 82l-24 21-75-73c19-15 35-31 54-46 z M402 288c0 24 31 81 58 81 11 0 12-12 12-20l0 80c-23-19-46-39-70-56l0-85 z M472 693c-8 56-61 71-61 135l1 22 67-72c-4-28-7-57-7-85 z M393 969c1 5 4 10 7 15 3 5 7 7 12 7 5 0 10-2 14-6 4-5 7-9 9-14l0 13c0 20 2 41 6 62-9-2-16-6-21-11-6-5-11-12-14-19-4-7-7-15-9-23l-4-24 z M922 849c19 19 37 35 54 54 5 16 10 32 13 49 11 62 41 114 73 175-82-85-119-164-140-278 z" fill="#D73B9A"/>
	</g></svg>
