<svg version="1.1" xmlns="http://www.w3.org/2000/svg"><g transform="scale(1,-1)">
		<path d="M1353-279c44 0 84 15 121 40l549 370c13 9 21 39 21 54 0 11-2 22-6 31l-191 412c-5 9-7 20-7 33 0 7 1 15 3 22l130 455c7 23 10 44 10 67l-1 456c0 35-31 64-65 64-39 0-78-15-78-64l0-162c0-37-29-68-68-68l-801 0c-62 0-68 55-68 102 0 31 3 62 3 93 0 49-8 101-67 101-40 0-78-16-78-65l-1-458c0-23 3-44 9-65l129-456c2-7 3-14 3-21 0-13-2-24-7-34l-187-412c-5-11-9-23-9-35 0-15 8-42 20-52l514-368c33-24 77-40 122-40 z" fill="#F70A8D"/>
		<path d="M1871 575c-13 26-31 55-31 86 0 20 8 39 13 58l-966 0c5-19 13-37 13-57 0-32-19-59-31-87l1002 0 z M1874 791l41 144-1089 0c15-48 28-96 41-144l1007 0 z" fill="#8D65C5"/>
	</g></svg>
