<svg version="1.1" xmlns="http://www.w3.org/2000/svg" viewBox="0 0 2300 2300"><g transform="scale(1,-1) translate(-256, -1869)">
		<path d="M1190 1510l72 71-72 72-73 0c-41 0-70-34-70-72 0-38 30-71 70-71l73 0 z M1262-287c63 0 121 12 174 37 53 25 98 58 136 100 38 42 68 91 89 146 21 55 32 114 32 175l0 260c0 75 17 130 52 165 34 34 89 51 164 51 41 0 75-4 102-13 26-9 47-22 63-39 16-17 28-36 35-58 7-23 12-47 15-74 1-20 2-40 2-61l0-24c-1-30-1-60-1-91l143 0 0 144c0 52-9 100-26 144-18 44-43 82-75 114-32 32-70 57-114 75-44 18-92 27-144 27-55 0-104-9-148-27-44-18-82-43-113-75-31-33-55-71-72-116-17-45-26-95-26-149l0-253c0-39-7-78-22-116-15-38-35-72-60-101-26-29-56-53-91-71-35-18-74-27-115-27-41 0-79 9-114 27-35 18-66 42-91 72-26 29-46 63-60 101-15 37-22 76-22 115l0 336c72 8 135 28 189 59 54 31 99 70 135 118 36 47 63 102 81 163 24 85 26 140 26 231l-72 72-34-38c-11-13-24-25-38-34 0-58-7-113-20-165-13-53-34-99-63-138-29-39-66-70-111-93-46-23-101-35-165-35-64 0-119 12-164 35-45 23-82 54-111 93-29 39-51 85-64 138-13 52-20 107-20 165-13 10-26 21-37 34-12 13-24 25-35 38l-72-72 0-29c0-70 9-136 26-198 17-62 44-117 79-165 35-48 80-88 134-119 54-31 118-51 192-60l0-336c0-61 11-120 32-175 21-55 51-104 89-146 38-42 83-75 136-100 53-25 111-37 174-37 z M689 1510c40 0 70 33 70 71 0 38-29 72-70 72l-74 0-72-72 72-71 74 0 z" fill="#635994"/>
		<path d="M1406 1078l0 388c0 26-5 50-14 73-10 23-23 43-40 60-17 17-37 30-60 40-23 9-47 14-73 14l-29 0 0-143c9 0 17 0 26 1l7 0 16-1c7-2 12-6 17-11 4-5 6-14 6-25l0-396 144 0 z M2197 72c-121 0-216 99-216 216 0 119 97 215 216 215 120 0 215-97 215-215 0-121-97-216-215-216 z M543 1078l0 396c0 11 2 20 7 25 4 5 10 9 17 11l16 1 7 0c8-1 16-1 25-1l0 143-29 0c-26 0-50-5-72-14-23-10-42-23-59-40-17-17-31-37-40-60-10-23-15-47-15-73l0-388 143 0 z" fill="#00A6ED"/>
		<path d="M2197 180c58 0 107 47 107 108 0 58-47 108-107 108-58 0-108-49-108-108 0-63 50-108 108-108 z" fill="#3F5FFF"/>
	</g></svg>
