<svg version="1.1" xmlns="http://www.w3.org/2000/svg" viewBox="0 0 2300 2300"><g transform="scale(1,-1) translate(-256, -1869)">
		<path d="M1555-287c30 0 62 4 97 11 356 72 545 377 545 672 0 140-42 278-123 395-110 158-311 287-519 287l-267 0 0-14c-316-68-529-351-529-668 0-319 216-603 529-669l0-14 267 0 z" fill="#8D65C5"/>
		<path d="M1478-287c371 0 647 321 647 683 0 354-268 682-647 682-372 0-647-320-647-682 0-360 274-683 647-683 z" fill="#433B6B"/>
		<path d="M1653 879c194 0 360 156 360 360 0 191-155 359-359 359-15 90-94 163-194 163-109 0-198-88-198-198 0-109 88-197 198-197 96 0 176 70 194 160 157 0 286-130 286-287 0-161-129-288-287-288l0-72 z M1460 1438c-71 0-125 60-125 125 0 69 54 126 125 126 68 0 125-55 125-126 0-71-60-125-125-125 z" fill="#FFB02E"/>
		<path d="M1392-287c32 0 65 4 100 11 345 70 561 351 561 672 0 141-44 281-128 398-113 158-320 284-533 284l-160 0 0-14c-319-64-545-345-545-668 0-327 230-603 545-669l0-14 160 0 z" fill="#BCA4EB"/>
		<path d="M1226-287c375 0 683 303 683 683 0 375-303 682-683 682-376 0-683-304-683-682 0-375 303-683 683-683 z M1226-72c-259 0-467 209-467 468 0 255 209 467 467 467 255 0 467-209 467-467 0-250-199-468-467-468 z M1226 15c211 0 381 171 381 381 0 210-171 380-381 380-208 0-381-168-381-380 0-211 170-381 381-381 z M1358 180c-43 0-89 54-132 54-43 0-89-54-132-54-19 0-34 18-34 36 0 37 34 71 34 108 0 47-83 67-83 114 0 17 10 32 28 35l92 13c48 8 44 125 95 125 51 0 48-117 96-125l91-13c17-3 29-17 29-35 0-46-83-70-83-113 0-40 33-70 33-110 0-19-16-35-34-35 z" fill="#8D65C5"/>
	</g></svg>
