<svg version="1.1" xmlns="http://www.w3.org/2000/svg" viewBox="0 0 2300 2300"><g transform="scale(1,-1) translate(-256, -1869)">
		<path d="M1513 113c25 0 46 20 46 46l0 154c0 25-20 46-46 46l-177 0c-15 0-28-13-28-27l0-78 133 0 0-141 72 0 z" fill="#433B6B"/>
		<path d="M1533-268c7 0 12 4 13 11 4 22 11 52 11 75 0 5-2 9-5 12l-80 76-36-50c10-10 40-32 57-50 22-24 19-74 40-74 z M1237-153l91 28c3 1 4 3 4 7 0 5-53 94-62 106l-46-26c3-8 32-54 32-57 0-16-32-32-32-50 4-7 7-8 13-8 z" fill="#635994"/>
		<path d="M1469-176c23 0 41 18 41 40 0 38-61 62-61 96 0 14 26 62 45 99 10 21 16 28 17 62l1 50-2 90 47 0c49 0 86 39 86 87l0 72-64 0 0-71c0-12-10-22-22-22l-274 0c-12 0-22 10-22 22l0 72-64 0 0-72c0-49 42-86 86-86l52 0 0-119-51 1c-19 0-37-2-54-6-34-8-58-28-58-74 0-15 3-25 10-37l37-80c7-14 23-21 36-21 23 0 40 17 40 39 0 21-35 81-42 98l154 0c-16-33-38-65-38-104 0-41 20-70 45-95 15-16 30-41 55-41 z" fill="#FF6723"/>
		<path d="M1510 216l0 112-28 14 0-99c0-14 13-27 28-27 z M1335 216l0 126-27-14 0-85c0-15 13-27 27-27 z" fill="#433B6B"/>
		<path d="M1409 290c27 0 48 7 64 20 16 13 24 34 24 62l0 57c0 15-5 29-16 40-11 11-25 17-40 17l-51 0c-15 0-28-5-39-16-11-11-16-25-16-40 0-9 1-16 4-19 2-3 6-5 11-6l18 1c7 1 15 1 25 1l0-10-45 0 0-46c0-17 6-31 18-43 12-12 26-18 43-18 z" fill="#00A6ED"/>
		<path d="M1510 144l0 32-175 0 0-32 175 0 z M1497 371l0 18-57 0 0-18 57 0 z" fill="#433B6B"/>
		<path d="M1477 398c7 0 10 3 10 10 0 7-3 10-10 10-7 0-10-3-10-10 0-7 3-10 10-10 z" fill="#5092FF"/>
		<path d="M1597 325c23 0 42 8 59 24 17 16 25 35 26 58l522 447c7 5 10 13 10 23 0 8-3 15-8 21-6 5-13 8-22 8-8 0-14-2-19-7l-504-431c-9 11-20 19-34 24l0 550c0 9-3 16-8 22-6 5-13 8-22 8-8 0-15-3-20-9-6-6-9-13-9-21l0-290-323 0 0 290c0 9-3 16-8 22-6 5-13 8-22 8-8 0-15-3-20-9-6-6-9-13-9-21l0-550c-11-4-20-9-27-16l-495 423c-5 5-11 7-19 7-9 0-16-3-21-8-6-6-9-13-9-21 0-10 3-18 10-23l506-432c-1-6-2-11-2-17 0-6 1-12 3-18 4-12 10-22 19-31 9-9 19-17 30-22 11-6 23-9 34-9 23 0 43 8 60 25 17 17 25 37 25 60 0 19-5 35-14 50-10 15-24 25-41 32l0 201 323 0 0-201c-17-6-30-16-40-31-10-15-15-32-15-49 0-12 2-23 7-33 4-11 10-20 17-28 7-8 16-14 27-19 10-5 21-7 33-7 z M1597 384c-15 0-25 11-25 26 0 14 8 28 25 28 14 0 26-11 26-26 0-14-9-28-26-28 z" fill="#D3D3D3"/>
		<path d="M1426 353c18 0 27 14 27 30 0 15-13 25-26 25l-70 0c-15 0-28-13-28-27 0-15 14-28 28-28 19 0 13 21 26 21 12 0 11-21 26-21l17 0 z" fill="#26EAFC"/>
		<path d="M1426 347c21 0 33 18 33 36 0 18-13 32-32 32l-70 0c-19 0-34-16-34-34 0-18 15-34 34-34 20 0 20 15 26 21l3-2c3-11 12-19 23-19l17 0 z M1426 360l-17 0c-14 0-7 21-26 21-19 0-10-21-26-21-12 0-21 9-21 21 0 10 10 21 21 21l70 0c11 0 19-7 19-18 0-12-5-24-20-24 z" fill="#D3D3D3"/>
		<path d="M1597 378c14 0 29 13 29 28l0 15-57 0 0-15c0-15 14-28 28-28 z M1214 380c14 0 28 11 28 27l0 15-56 0c0-27 4-42 28-42 z" fill="#FF6723"/>
		<path d="M1181 1005c75 15 150 23 225 23 76 0 150-7 223-22l208 252-129 317 1 1c-4 2-2 1-4 4-71 90-175 145-298 145-124 0-225-54-299-145-1-3-3-2-4-5l-165-317 244-252-2-1 z" fill="#00D26A"/>
		<path d="M2142 828c48 0 93 12 135 36 95 54 136 145 136 260 0 138-95 255-234 285l-22 34-386-474c42-13 83-29 122-46 86-39 159-95 249-95 z M670 828c48 0 91 11 135 36 89 50 177 88 272 116l-309 568c-52-33-107-85-134-140-136-27-234-144-234-283 0-30 2-58 7-84 20-113 130-213 263-213 z" fill="#F9C23C"/>
		<path d="M1820 952l359 456c-73 127-189 190-326 190-47 0-103-7-145-23l-79-570c64-12 128-30 191-53 z" fill="#5092FF"/>
		<path d="M992 953c63 23 126 40 191 53l-79 569c-42 16-98 23-144 23-140 0-254-64-326-189l358-456 z" fill="#F8312F"/>
	</g></svg>
