<svg version="1.1" xmlns="http://www.w3.org/2000/svg" viewBox="0 0 2300 2300"><g transform="scale(1,-1) translate(-256, -1869)">
		<path d="M1894-300c33 0 65 5 97 14 179 51 278 147 278 338 0 239-262 506-262 657 0 29 7 57 20 83 50 102 133 160 223 219 11 7 19 17 19 32 0 18-16 35-37 35-7 0-12-1-17-4-120-59-280-215-280-364 0-169 262-461 262-638 0-92-10-146-58-199-52-56-161-101-244-101-166 0-286 160-352 284-11 20-24 41-31 64l-1 1c-5 13-17 23-32 23-21 0-37-17-37-36 0-6 1-10 2-13l25 10-25-10c1 0 1-1 1-2 13-23 22-48 34-71 80-151 224-322 415-322 z" fill="#D3D3D3"/>
		<path d="M925 1004l521 369c-6 9-15 16-27 21l-835 328c-5 2-10 3-15 3-7 0-14-2-20-6l376-715 z" fill="#86D72F"/>
		<path d="M1948 431c55 0 52 115 115 119l101 5c16 1 33 12 33 31 0 13-38 64-63 96-29 34-29 37-48 37-56 0-53-116-115-119l-101-4c-16-1-33-13-33-31 0-15 37-65 64-96 28-35 28-38 47-38 z M1509 78c13 7 20 17 20 32l-70 1230c-1 13-5 24-12 34l-522-297 95-549 489-450 z" fill="#F9C23C"/>
		<path d="M2073 216c51 0 65 110 123 110 37 0 74-9 110-9 19 0 34 14 34 32 0 10-12 37-26 67-31 61-38 87-66 87-53 0-65-110-124-110-36 0-73 9-109 9-19 0-34-14-34-32 0-15 28-71 47-107 22-41 22-47 45-47 z M1490 72c7 0 14 2 20 6l-584 998-266 0-256-297c5-10 13-19 24-27l1039-673c8-5 16-7 23-7 z" fill="#00A6ED"/>
		<path d="M2091-72c45 0 94 64 141 64 48 0 99-63 142-63 19 0 38 16 38 36l0 144c0 21-19 35-38 35-43 0-94-64-142-64-48 0-95 63-141 63-19 0-38-14-38-36l0-143c0-22 19-36 38-36 z M405 779l521 297-376 643c-11-5-18-15-20-28l-130-878 0-8c0-11 2-19 5-26 z" fill="#F8312F"/>
	</g></svg>
