<svg version="1.1" xmlns="http://www.w3.org/2000/svg" viewBox="0 0 2300 2300"><g transform="scale(1,-1) translate(-256, -1869)">
		<path d="M2053 431c0 165-57 252-144 396-62 97-108 285-108 395 0 270-98 503-395 503-311 0-395-251-395-503 0-117-48-297-108-395-86-137-144-236-144-396l1294 0 z" fill="#F70A8D"/>
		<path d="M1765 431c-151 41-326 446-359 575-36-143-213-536-359-575l718 0 z" fill="#F4F4F4"/>
		<path d="M1550-287c297 0 548 202 624 475 20 74 22 130 24 218 0 16-2 31-6 46-8 30-26 51-67 51l-216 0-503-201-503 201-216 0c-38 0-72-33-72-72l0-71c0-355 288-647 647-647l288 0 z" fill="#CA0B4A"/>
		<path d="M1478 0c234 0 431 190 431 431l0 72-1006 0 0-72c0-234 190-431 431-431l144 0 z" fill="#FFFFFF"/>
		<path d="M1644 863c7 0 14 5 14 13 0 69-56 130-131 130l-242 0c-73 0-131-59-131-130 0-9 4-13 13-13l95 0c98 0 123 85 144 85 18 0 48-85 144-85l94 0 z" fill="#CA0B4A"/>
		<path d="M1406 1006c160 0 287 129 287 288 0 161-130 287-287 287-161 0-288-129-288-287 0-161 128-288 288-288 z" fill="#F3C07B"/>
		<path d="M1514 1186c19 0 36 15 36 36l0 36c0 19-15 36-36 36-19 0-36-15-36-36l0-36c0-19 15-36 36-36 z M1298 1186c19 0 36 15 36 36l0 36c0 19-15 36-36 36-19 0-36-15-36-36l0-36c0-19 15-36 36-36 z" fill="#000000"/>
		<path d="M1693 1294c0 161-130 287-287 287 0-156 125-287 287-287 z M1118 1294c153 0 288 123 288 287-161 0-288-129-288-287 z" fill="#A56953"/>
	</g></svg>
