<svg version="1.1" xmlns="http://www.w3.org/2000/svg" viewBox="0 0 2300 2300"><g transform="scale(1,-1) translate(-256, -1869)">
		<path d="M2125-287c156 0 287 125 287 287l0 1438c0 156-125 287-287 287l-1438 0c-156 0-287-125-287-287l0-1438c0-161 130-287 287-287l1438 0 z" fill="#D3D3D3"/>
		<path d="M2161 791c19 0 36 18 36 36l0 575c0 29-11 55-32 76l-543-184-134-493c8-7 17-10 26-10l647 0 z M2089-72c58 0 108 49 108 108l0 575c0 18-17 36-36 36l-647 0c-19 0-36-15-36-36l0-647c0-19 15-36 36-36l575 0 z M1298-72c19 0 36 15 36 36l0 647c0 9-3 18-10 26l-493-206-184-471c20-22 48-32 76-32l575 0 z" fill="#83CBFF"/>
		<path d="M1488 801c-7 8-10 17-10 26l0 647c0 18 17 36 36 36l575 0c29 0 56-12 76-32l-677-677 z M647-40l677 677c-8 7-17 10-26 10l-647 0c-19 0-36-15-36-36l0-575c0-28 10-56 32-76 z M1298 791c19 0 36 15 36 36l0 647c0 18-17 36-36 36l-575 0c-58 0-108-49-108-108l0-575c0-19 15-36 36-36l647 0 z" fill="#00A6ED"/>
	</g></svg>
