<svg version="1.1" xmlns="http://www.w3.org/2000/svg" viewBox="0 0 2300 2300"><g transform="scale(1,-1) translate(-256, -1869)">
		<path d="M1108-287c39 0 72 31 72 72 0 40-34 71-72 71-38 0-71-32-71-71 0-38 31-72 71-72 z M471 351c-39 0-71 33-71 71 0 39 33 71 71 71 38 0 71-32 71-71 0-39-33-71-71-71 z M1614 219c40 0 71 34 71 72 0 39-33 71-71 71-39 0-71-33-71-71 0-39 30-72 71-72 z M1451-113c-38 0-71 32-71 71 0 39 33 71 71 71 38 0 71-32 71-71 0-39-30-71-71-71 z M648 690c38 0 72 31 72 71 0 39-31 72-72 72-40 0-71-34-71-72 0-38 32-71 71-71 z M977 856c38 0 71 32 71 71 0 38-31 72-71 72-40 0-71-34-71-72 0-38 32-71 71-71 z" fill="#FCD53F"/>
		<path d="M2196 1170c33 0 58 27 58 58 0 33-27 57-58 57-30 0-57-26-57-57 0-30 24-58 57-58 z M2321 1261c-30 0-58 24-58 57 0 31 25 58 58 58 33 0 57-28 57-58 0-30-26-57-57-57 z M1905 1461c33 0 57 27 57 58 0 30-26 57-57 57-30 0-58-24-58-57 0-31 25-58 58-58 z M1995 1585c33 0 58 27 58 58 0 33-27 57-58 57-30 0-57-26-57-57 0-30 24-58 57-58 z" fill="#D3D3D3"/>
		<path d="M1047-144c277 0 503 226 503 504 0 276-223 503-503 503-268 0-504-216-504-503 0-275 221-504 504-504 z" fill="#F3EEF8"/>
		<path d="M1049-209c304 0 570 244 570 571 0 305-246 569-570 569-312 0-570-253-570-570 0-312 253-570 570-570 z M1048-90c-247 0-451 199-451 451 0 247 199 451 451 451 243 0 451-193 451-451 0-247-199-451-451-451 z" fill="#8C5543"/>
		<path d="M1343 448c17 0 32 6 43 19l690 779-153 150-763-708c-13-11-19-26-19-43 0-16 6-30 18-42l142-138c11-11 25-17 42-17 z" fill="#321B41"/>
		<path d="M2106 1218c11 0 21 1 29 8l148 102c32 22 48 58 48 93 0 31-11 59-34 80l-124 121c-21 20-49 32-79 32-39 0-74-20-93-50l-98-150c-6-9-9-19-9-29 0-13 5-25 16-36l160-157c9-9 21-14 36-14 z" fill="#8C5543"/>
		<path d="M655-144c7 0 14 2 19 6l217 169c8 6 12 14 12 23 0 8-3 15-9 21l-132 132c-5 5-12 8-20 8-11 0-19-4-24-11l-169-218c-4-5-6-11-6-17 0-9 3-16 9-22l83-83c5-5 12-8 20-8 z M1057 147c33 0 59 25 59 59 0 17-6 31-17 42l-167 166c-11 11-25 17-42 17-33 0-59-25-59-59 0-17 6-31 17-42l167-166c11-11 25-17 42-17 z" fill="#CDC4D6"/>
	</g></svg>
