<svg version="1.1" xmlns="http://www.w3.org/2000/svg"><g transform="scale(1,-1)">
		<path d="M1297 698l129 129-563 564c-13 13-19 27-20 42l-1 23 1 23c0 15-1 30-4 44-3 14-13 26-30 36l-269 162c-3 3-8 4-14 4-9 0-16-3-21-8l-97-97c-5-5-8-12-8-21 0-6 1-11 4-14l161-269c7-11 14-19 23-24 9-5 18-8 28-9l21-1 40 1c10-1 20-2 30-5 9-3 18-8 26-16l564-564 z" fill="#B4ACBC"/>
		<path d="M1958-287c35 0 68 14 92 38l324 324c25 25 38 56 38 92 0 35-14 68-38 92l-584 584c-24 24-57 39-92 39-30 0-60-12-84-31 25 20 39 51 39 84 0 57-45 108-107 108-28 0-56-11-76-31l-356-356c-20-20-32-47-32-77 0-58 49-108 108-108 35 0 59 14 84 40-21-25-31-53-31-84 0-35 13-66 39-92l584-584c24-24 57-38 92-38 z" fill="#F70A8D"/>
		<path d="M1976-150c44 0 80 37 80 80 0 23-8 42-23 57l-514 515c-16 16-35 24-57 24-45 0-80-37-80-81 0-23 8-42 23-57l515-514c16-16 35-24 56-24 z M2194 68c44 0 81 38 81 80 0 22-8 41-24 57l-514 515c-15 15-34 23-57 23-44 0-81-35-81-80 0-22 8-41 24-57l515-514c16-16 35-24 56-24 z" fill="#CA0B4A"/>
	</g></svg>
