<svg version="1.1" xmlns="http://www.w3.org/2000/svg"><g transform="scale(1,-1)">
		<path d="M1833-287c38 0 74 25 85 65l492 1870c1 5 2 9 2 16 0 33-25 61-61 61l-222 0c-83 0-89-83-105-144l-122-103 66-109-77-292-121-104 65-109-77-290-121-104 65-110-76-288-121-105 64-111c-7-26-19-55-19-82 0-36 27-61 61-61l222 0 z M683-287c40 0 73 27 84 65l493 1870 2 16c0 36-27 61-61 61l-222 0c-38 0-73-25-84-65l-493-1870-2-16c0-34 25-61 61-61l222 0 z" fill="#7D4533"/>
		<path d="M1834 863l57 215-970 0c-22 0-41-14-47-33-8-27-43-120-43-142 0-22 19-40 42-40l961 0 z M1967 1366l57 215-960 0c-21 0-40-11-47-33-8-27-42-117-42-142 0-22 19-40 42-40l950 0 z M1702 360l57 215-946 0c-22 0-40-14-46-33-8-26-44-120-44-142 0-22 19-40 42-40l937 0 z M1569-144l57 216-926 0c-21 0-37-13-44-33-8-29-41-114-41-142 0-23 18-41 40-41l914 0 z" fill="#A56953"/>
	</g></svg>
