<svg version="1.1" xmlns="http://www.w3.org/2000/svg"><g transform="scale(1,-1)">
		<path d="M1406-287c547 0 1006 440 1006 1006 0 547-440 1006-1006 1006-547 0-1006-440-1006-1006 0-547 440-1006 1006-1006 z" fill="#F9C23C"/>
		<path d="M1406-72c436 0 791 351 791 791 0 436-351 791-791 791-436 0-791-351-791-791 0-436 351-791 791-791 z M1854 298l-895 0c-21 0-38 17-38 39 0 21 19 78 26 100 7 23 24 28 45 28l0 559c-14 10-25 28-25 47 0 19 9 34 26 45l389 234c9 5 18 8 28 8 9 0 19-3 28-8l387-234c17-11 26-26 26-46 0-19-9-35-25-46l0-558-2 0c18 0 31-13 36-27 8-24 32-80 32-101 0-19-16-40-38-40 z M1706 466l-116 0 0 549 116 0 0-549 z M1471 466l-122 0 0 549 122 0 0-549 z M1231 466l-120 0 0 549 120 0 0-549 z" fill="#D3883E"/>
	</g></svg>
