<svg version="1.1" xmlns="http://www.w3.org/2000/svg"><g transform="scale(1,-1)">
		<path d="M1634-287c24 0 45 19 45 44 0 24-51 189-62 229-68 241-140 481-211 733l-359 0 276-967c7-22 26-39 51-39l260 0 z" fill="#7D4533"/>
		<path d="M508 216c200 0 303 45 485 127l913 411c152 67 229 109 398 109 67 0 108 49 108 110 0 63-58 105-113 105-23 0-40 6-52 17-55 50-77 148-130 231-166 252-450 399-747 399-493 0-898-410-898-898l0-184c0-99-29-185-63-278-5-15-9-28-9-43 0-59 49-106 108-106 z" fill="#008463"/>
		<path d="M435 433c197 3 296 28 470 107l913 411c174 77 252 126 470 126l-1 3c-21 2-36 8-46 19-12 13-30 34-36 59-9 30-26 61-40 88-155 285-445 479-795 479-493 0-898-410-898-898l1-114c0-97-8-189-38-280 z" fill="#44911B"/>
		<path d="M1612-72c40 0 72 35 72 73 0 33-36 134-47 170-11 30-34 52-69 52l-359 0c-38 0-72-31-72-71 0-32 45-144 57-176 10-27 37-48 68-48l350 0 z M1610 0l-348 0-53 151 358 0 43-151 z" fill="#9B9B9B"/>
		<path d="M1356 0c-51 3-90 76-90 122 0 19 9 29 27 29l-84 0 53-151 94 0 z M1610 0l-43 151-104 0c47 0 65-12 79-60 4-15 9-28 9-43 0-36-26-48-57-48l116 0 z M1181 248c-4 13-7 25-7 40 0 39 29 64 61 81 88 45 155 61 242 103l-23 79-319-144 46-159 z" fill="#5C2614"/>
	</g></svg>
