<svg version="1.1" xmlns="http://www.w3.org/2000/svg" viewBox="0 0 2300 2300"><g transform="scale(1,-1) translate(-256, -1869)">
		<path d="M1154-215c220 0 401 87 548 235l656 657-461 0c-66 356-377 617-743 617-321 0-605-204-711-503l-43 0 0-286c0-63 14-123 31-183 93-318 392-537 723-537 z" fill="#7D4533"/>
		<path d="M1118 72c135 0 251 34 374 105l851 491c42 25 71 71 71 123 0 49-24 96-70 122l-841 485c-128 74-245 112-385 112-396 0-718-324-718-719 0-397 321-719 718-719 z" fill="#FF822D"/>
		<path d="M1337 163c19 0 36 15 36 36 0 19-17 36-35 36-21 0-37-17-37-36 0-19 15-36 36-36 z M879 163c18 0 36 17 36 36 0 22-15 37-36 37-22 0-36-18-36-37 0-19 18-36 36-36 z M1747 391c19 0 36 18 36 36 0 18-17 36-36 36-19 0-36-15-36-36 0-18 17-36 36-36 z M541 474c19 0 36 15 36 36 0 18-17 36-36 36-22 0-36-18-36-37 0-18 17-35 36-35 z M2154 626c19 0 36 18 36 36 0 18-17 36-36 36-19 0-36-18-36-36 0-18 17-36 36-36 z M500 932c19 0 36 17 36 35 0 21-17 37-36 37-21 0-36-19-36-37 0-19 15-35 36-35 z M2062 936c19 0 36 15 36 36 0 18-17 36-36 36-19 0-36-18-36-36 0-18 17-36 36-36 z M1654 1172c18 0 36 17 36 36 0 18-17 36-36 36-19 0-36-15-36-36 0-19 15-36 36-36 z M780 1297c18 0 35 17 35 36 0 19-17 36-35 36-18 0-36-17-36-36 0-19 15-36 36-36 z M1232 1377c21 0 36 15 36 37 0 18-17 35-36 35-21 0-36-16-36-38 0-20 15-34 36-34 z" fill="#00D26A"/>
		<path d="M1109 121c19 0 36 15 36 36 0 19-15 36-36 36-19 0-36-15-36-36 0-19 15-36 36-36 z M1543 274c19 0 36 15 36 36 0 19-15 36-36 36-19 0-36-15-36-36 0-18 17-36 36-36 z M681 288c19 0 36 15 36 36 0 18-17 36-36 36-18 0-37-15-37-36 0-21 15-36 37-36 z M1951 509c19 0 36 15 36 36 0 18-17 36-36 36-18 0-36-17-36-36 0-18 17-36 36-36 z M477 700c18 0 36 13 36 34 0 18-14 37-35 37-18 0-37-16-37-35 0-19 15-36 36-36 z M2256 805c19 0 36 18 36 36 0 21-17 37-36 37-19 0-36-18-36-36 0-21 17-37 36-37 z M1858 1054c18 0 36 17 36 36 0 18-17 36-36 36-18 0-36-17-36-36 0-18 17-36 36-36 z M605 1140c19 0 36 16 36 37 0 20-15 35-35 35-19 0-36-17-36-35 0-18 16-37 35-37 z M1449 1290c21 0 37 17 37 36 0 19-19 36-37 36-21 0-36-19-36-37 0-19 15-35 36-35 z M998 1379c19 0 36 16 36 37 0 21-19 35-37 35-19 0-34-19-34-37 0-18 16-35 35-35 z" fill="#FCD53F"/>
		<path d="M1118 252c102 0 188 25 284 81l745 430c11 7 16 16 16 28 0 13-5 22-16 29l-732 421c-100 58-182 89-297 89-295 0-539-241-539-539 0-294 239-539 539-539 z" fill="#FFB02E"/>
		<path d="M1093 431c200 0 359 163 359 360 0 191-155 359-359 359-191 0-360-153-360-359 0-194 156-360 360-360 z" fill="#FFF478"/>
		<path d="M1952 746c144 0 261 116 261 260 0 25-19 45-45 45-26 0-45-20-45-45 0-93-77-170-171-170l-115 0c-25 0-45-19-45-45 0-25 19-45 45-45l115 0 z" fill="#321B41"/>
		<path d="M2176 947c126 0 239 96 239 235 0 44-13 85-36 124l-143 243c-12 20-35 32-57 32-25 0-43-11-56-32l-143-244c-5-5-7-9-12-16-13-26-24-80-24-111 0-128 111-231 232-231 z" fill="#F8312F"/>
		<path d="M2179 1039c73 0 128 60 128 128 0 69-56 128-128 128-69 0-128-56-128-128 0-69 56-128 128-128 z" fill="#FCD53F"/>
	</g></svg>
