<svg version="1.1" xmlns="http://www.w3.org/2000/svg" viewBox="0 0 2300 2300"><g transform="scale(1,-1) translate(-256, -1869)">
		<path d="M1415-287c148 0 267 86 324 224 27 65 75 106 144 124 153 39 288 160 288 334 0 154-94 197-94 313 0 121 94 161 94 313 0 169-132 281-268 326-71 23-113 67-142 141-54 137-181 237-330 237-150 0-263-108-318-234-30-67-74-110-145-127-157-37-281-171-281-339 0-153 94-201 94-313 0-118-94-163-94-314 0-164 109-301 264-340 71-19 113-59 140-121 59-137 175-224 324-224 z" fill="#F9C23C"/>
		<path d="M1003 322l580 206 244 619c-67 156-203 333-398 333-39 0-75-6-109-19-280-108-377-512-377-762 0-129 19-256 60-377 z" fill="#26EAFC"/>
		<path d="M1429-82c40 0 78 7 113 21 281 109 373 522 373 760 0 156-27 308-88 448l-824-824c62-179 204-405 426-405 z" fill="#B4F6FC"/>
	</g></svg>
