<svg version="1.1" xmlns="http://www.w3.org/2000/svg" viewBox="0 0 2300 2300"><g transform="scale(1,-1) translate(-256, -1869)">
		<path d="M1568 18l399 626-1064 1063c-5 5-11 10-18 14-7 4-15 6-23 6-13 0-26-4-37-12-11-9-21-17-30-26l-287-287-12-14c-5-6-7-12-7-18 0-5 2-10 6-14 4-5 9-9 15-12 6-3 12-6 18-8 6-3 11-5 15-6 21-7 37-17 47-29 10-13 17-27 21-42 3-16 5-33 5-51l-1-29 1-29c0-11 4-19 13-26 8-7 18-13 30-18 12-5 25-11 39-16 13-5 26-12 38-19 11-7 21-16 29-26 8-11 12-24 12-39l0-89c0-11 5-22 16-33 10-11 22-22 36-32 14-10 28-19 42-26 14-8 25-14 32-17 10-5 19-12 26-22 7-10 10-21 10-32 0-7 0-18 1-34 1-17 2-34 5-51 3-17 6-33 11-48 5-15 11-25 19-29l108-54c6-3 13-8 22-15 9-7 13-14 13-21 0-11 0-25-1-42l0-14c0-14 1-27 2-40 1-18 5-35 10-50 5-16 14-27 25-33 7-4 18-9 34-15l49-22c16-8 30-17 43-26 12-9 18-18 18-27l0-162c0-9 2-17 7-24 4-7 10-13 17-17 7-5 14-8 23-10 9-2 17-3 25-3l198 0 z" fill="#B4ACBC"/>
		<path d="M1878-289c27 0 50 21 67 38l395 395c19 19 32 40 32 65 0 26-13 42-32 61l-377 377c-22 22-51 47-86 47-14 0-27-4-40-11-26-16-94-84-149-145-66-72-120-118-120-160l0-378 269-269c11-11 25-20 41-20 z M1882-54c-58 0-108 49-108 108 0 30 12 57 32 77l153 152c20 20 48 31 76 31 59 0 107-49 107-107 0-28-11-56-31-76l-152-153c-20-20-47-32-77-32 z" fill="#7D4533"/>
	</g></svg>
