<svg version="1.1" xmlns="http://www.w3.org/2000/svg"><g transform="scale(1,-1)">
		<path d="M620-283c41 0 81 16 110 45l966 967-74 170-210 114-966-966c-31-31-47-68-47-111 0-43 16-79 47-110 52-52 92-109 174-109 z" fill="#3F5FFF"/>
		<path d="M2074 414c41 0 80 16 108 44l182 182c30 30 45 66 45 107 0 42-15 78-45 108l-825 825c-30 30-66 45-108 45-41 0-77-15-107-45l-182-181c-30-28-45-69-45-108 0-40 16-79 45-108l824-824c29-29 68-45 108-45 z" fill="#5092FF"/>
		<path d="M2050 583c32 0 62 32 62 62 0 15-5 28-16 39l-729 728c-11 11-23 16-38 16-31 0-63-31-63-62 0-15 5-27 16-38l730-729c11-11 23-16 38-16 z M2176 711c31 0 63 31 63 62 0 15-5 27-16 38l-729 729c-11 11-23 16-38 16-33 0-62-31-62-63 0-15 5-28 15-38l729-728c11-11 23-16 38-16 z" fill="#E6E6E6"/>
		<path d="M639-164c33 0 62 12 85 35l87 87c23 23 35 52 35 85 0 65-52 120-120 120-30 0-62-12-85-35l-87-87c-23-23-35-55-35-85 0-65 53-120 120-120 z" fill="#83CBFF"/>
	</g></svg>
