<svg version="1.1" xmlns="http://www.w3.org/2000/svg" viewBox="0 0 2300 2300"><g transform="scale(1,-1) translate(-256, -1869)">
		<path d="M1941-294c15 0 29 1 44 5 19 5 37 12 54 21 17 9 34 20 49 33 15 13 27 26 38 40l229 309c15 21 27 44 35 69 8 25 12 50 12 75 0 8 0 16-1 24l-4 24-36 184-84 60-24 195 50 39c-5 35-16 64-32 88-16 24-37 47-62 70l-273 242-171 317-22 1-86 4-83 5c-10 0-16 0-17 1-12 3-23 6-33 10-10 3-19 7-28 11l-28 11c-9 4-20 8-32 12l-243 88-319-337c-15-17-30-31-43-44l-39-38-37-39c-13-14-26-30-40-48-1-1-4-7-9-19l-95-214-12-26-9-21-10-21-119-220-3-13c-1-7-1-13-1-20-1-7-1-14-1-21l0-14c0-13 0-27 1-42l2-48c1-17 1-33 1-48 0-15-1-29-2-40l160-188c38-44 78-90 120-137 41-47 80-91 117-131 37-40 69-73 96-98 27-26 44-39 51-40l927-71 12 0 z" fill="#9B9B9B"/>
		<path d="M2100 148l261 343-58 292-610 360-291-801 698-194 z" fill="#E6E6E6"/>
		<path d="M615 280l57 225c11 40 35 74 70 96l305 182-220 479-99-108c-9-10-17-22-22-35-43-95-81-190-126-282-36-76-80-148-119-221-11-20-22-46-25-69l-36-267 215 0 z" fill="#636363"/>
		<path d="M1406 65l694 83-537 244c-38 18-61 55-61 96 0 11 1 21 4 30l125 417c38 125 60 177 86 327l48 239c-62 98-82 118-192 157-61 21-169 67-233 67-41 0-73-14-107-40l-124-601c-23-114-62-185-62-301l0-307c0-31 13-66 36-89l323-322 z" fill="#D3D3D3"/>
		<path d="M1100-295l306 1 0 359c-51 15-786 215-791 215l-215 0c42-132 68-212 160-304l67-67c41-41 87-74 137-99 122-62 206-105 336-105 z" fill="#636363"/>
		<path d="M1960-295c43 0 97 25 129 59l285 325c32 36 39 77 39 120 0 4-1 8-2 13l-51 269-260-343-694-83 0-360 554 0 z" fill="#9B9B9B"/>
		<path d="M1047 783l332 303c41 38 69 83 84 134l68 233c3 9 4 19 4 32 0 23-7 45-21 65l-79 113c-26 37-68 57-111 57-36 0-71-14-97-41l-486-506c-20-21-30-46-30-75 0-40 17-67 48-91l288-224 z" fill="#9B9B9B"/>
	</g></svg>
