<svg version="1.1" xmlns="http://www.w3.org/2000/svg" viewBox="0 0 2300 2300"><g transform="scale(1,-1) translate(-256, -1869)">
		<path d="M453-287c15 0 28 5 38 15l1562 1518c35-15 71-24 108-24 138 0 251 111 251 252 0 138-108 251-251 251-138 0-252-110-252-251 0-35 8-69 21-101l-1515-1570c-10-10-15-22-15-37 0-30 21-53 53-53 z M2161 1366c-63 0-108 50-108 108 0 58 47 107 108 107 59 0 107-49 107-107 0-60-49-108-107-108 z" fill="#9B9B9B"/>
		<path d="M525 180c30 0 54 22 54 54 0 174 116 377 306 377l934 0c299 0 557 244 557 551 0 51-12 97-24 149-25-31-57-53-92-69 7-27 8-54 8-82 0-242-206-441-449-441l-934 0c-259 0-413-258-413-485 0-29 21-54 53-54 z M1352 1258c42 0 55 40 73 77 67 138 232 210 384 210 143 0 298-54 389-172 38 14 64 48 69 86-112 131-286 194-456 194-221 0-420-110-509-321-3-6-4-13-4-20 0-29 24-54 54-54 z" fill="#5092FF"/>
	</g></svg>
