<svg version="1.1" xmlns="http://www.w3.org/2000/svg" viewBox="0 0 2300 2300"><g transform="scale(1,-1) translate(-256, -1869)">
		<path d="M1262 575l239 36 869 869c27 27 42 64 42 101 0 81-67 144-144 144-37 0-74-15-101-42l-869-869-36-239 z" fill="#FBB8AB"/>
		<path d="M1118-287c80 0 144 64 144 143 0 45-18 79-50 110 107 107 205 179 205 339 0 62-19 123-50 172l141 140-204 204-140-141c-49 31-110 50-172 50-161 0-233-99-339-205-31 32-65 50-110 50-80 0-143-65-143-144 0-37 15-74 42-101l575-575c27-27 64-42 101-42 z" fill="#F8312F"/>
	</g></svg>
