<svg version="1.1" xmlns="http://www.w3.org/2000/svg"><g transform="scale(1,-1)">
		<path d="M2125-108l0 108c0 42-22 60-51 68-15 3-30 5-47 5l-46-1 0 1222c0 81-67 144-144 144l-125 0c-42 0-44 55-66 86-54 82-145 129-240 129-95 0-186-47-240-129-23-32-28-86-66-86l-125 0c-81 0-144-67-144-144l0-1222-72 0c-39 0-72-31-72-72l0-108 1438 0 z" fill="#9B9B9B"/>
		<path d="M1658 575c18 0 35 17 35 36 0 19-17 36-35 36l-216 0c-19 0-36-15-36-36 0-19 15-36 36-36l216 0 z M1298 575l-144 0c-18 0-36 17-36 36 0 18 17 36 36 36l144 0c19 0 36-15 36-36 0-19-15-36-36-36 z M1550 719c19 0 36 15 36 36 0 19-15 36-36 36l-288 0c-19 0-36-15-36-36 0-19 15-36 36-36l288 0 z M1586 935c18 0 36 17 36 36 0 18-17 35-36 35l-360 0c-19 0-36-17-36-35 0-19 15-36 36-36l360 0 z M1909 72l0 1186c0 57-46 108-108 108l-179 0c0 119-97 215-216 215-121 0-216-97-216-215l-179 0c-61 0-108-48-108-108l0-1186 72 0 0 1186c0 19 15 36 36 36l184 0c43 0 67 34 67 72 0 81 67 144 144 144 81 0 144-67 144-144 0-37 23-72 66-72l185 0c19 0 36-15 36-36l0-1186 72 0 z" fill="#636363"/>
		<path d="M2412-287l0 213-2 2-2008 0-2-2 0-213 2012 0 z" fill="#86D72F"/>
	</g></svg>
