<svg version="1.1" xmlns="http://www.w3.org/2000/svg" viewBox="0 0 2300 2300"><g transform="scale(1,-1) translate(-256, -1869)">
		<path d="M1133 1058l231 231c15 15 22 32 22 53 0 40-32 75-75 75-21 0-38-7-53-22l-232-231 18-85 89-21 z M928 1263l231 232c15 15 22 32 22 52 0 40-32 75-75 75-21 0-39-7-54-22l-230-231 26-67 80-39 z" fill="#83CBFF"/>
		<path d="M1236 955l231 231c15 15 22 32 22 53 0 41-34 76-76 76-21 0-38-7-53-22l-231-232 20-73 87-33 z M1030 1160l231 231c15 15 22 32 22 53 0 42-31 76-75 76-21 0-38-7-53-22l-231-231 27-69 79-38 z M825 1366l232 231c15 15 22 32 22 53 0 42-35 75-76 75-21 0-38-7-53-22l-231-231 33-71 73-35 z" fill="#AEDDFF"/>
		<path d="M2124-288c116 0 216 96 216 219 0 60-23 114-63 154l-532 539c-81 83-174 143-278 189-104 47-198 109-279 190l-457 461c-29 29-67 46-108 46-86 0-151-73-151-154 0-41 15-77 44-108 61-66 123-125 188-190l985-996c96-97 185-191 282-285 43-41 93-65 153-65 z" fill="#F8312F"/>
	</g></svg>
