<svg version="1.1" xmlns="http://www.w3.org/2000/svg" viewBox="0 0 2300 2300"><g transform="scale(1,-1) translate(-256, -1869)">
		<path d="M853 68c32 0 67 2 105 6 37 4 75 10 113 18 37 8 74 18 110 30 35 12 67 26 95 42 7 4 11 10 11 18 0 9-4 15-11 18l-36 17c-18 7-36 15-54 24l-49 24c-15 7-22 12-22 15 0 5 3 8 8 8l326 0c8 0 15 1 22 4 6 2 12 6 19 11 22 17 44 37 67 61 23 24 44 49 65 76 21 27 40 54 58 82 17 28 32 54 45 79l51 97c11 20 20 39 28 57 8 17 12 29 12 34 0 13-6 29-17 48-11 19-24 38-37 58l-37 55c-11 17-17 30-17 38 0 5 2 10 5 13 3 3 7 5 12 5l27 17c10 6 20 12 30 19l29 18c9 6 18 12 25 18 26 21 50 45 73 72 23 26 47 50 73 71 30 25 63 49 99 73 35 24 69 48 100 71l49 68 29 37c15 20 31 40 47 60 16 19 32 39 49 58 7 9 15 17 23 26l22 26c5 6 8 12 11 18 2 5 3 12 3 19 0 13-4 25-13 34-9 9-21 14-34 14l-300 0c-75 0-150-5-224-15-75-11-148-27-221-48l-143-227-216 75c-110-64-209-139-297-224-89-85-164-179-226-282-63-103-111-213-144-331-34-118-51-242-51-372l0-233c5 10 11 20 17 30l18 28-6-29c-2-7-3-14-3-22l0-7 282 0 z" fill="#F3AD61"/>
		<path d="M1917 1006c19 0 34 9 46 26 25 34 43 72 66 108 51 79 98 149 153 226l-560 0 0 296c-126-36-246-87-360-154l0-502 655 0 z" fill="#A56953"/>
		<path d="M435-287c33 0 41 38 51 74 22 76 50 141 79 210 258 608 702 1089 1247 1402 81 46 160 81 243 123 13 7 22 16 22 32 0 18-14 37-35 37-5 0-10-1-15-3-686-307-1241-878-1529-1563-16-40-99-244-99-275 0-21 17-37 36-37 z" fill="#D3883E"/>
	</g></svg>
