<svg version="1.1" xmlns="http://www.w3.org/2000/svg"><g transform="scale(1,-1)">
		<path d="M454 618c-32 0-54 24-54 54 0 13 4 24 11 33 66 85 109 161 222 161l262 0c29 0 54-24 54-54 0-30-22-54-54-54l-262 0c-95 0-109-140-179-140 z M2358 618c32 0 54 24 54 54 0 13-4 24-11 33-66 86-111 161-222 161l-262 0c-30 0-54-25-54-54 0-29 24-54 54-54l262 0c97 0 110-140 179-140 z M2215-285c30 0 54 25 54 54l0 219c0 56-22 112-64 154l-167 167c-11 11-23 16-38 16-30 0-54-22-54-54 0-15 5-27 16-38l167-167c21-21 32-47 32-78l0-219c0-30 22-54 54-54 z M600-285c32 0 53 24 53 54l0 219c0 31 11 57 32 78l168 167c10 10 15 23 15 38 0 32-24 54-54 54-15 0-27-5-38-16l-167-167c-42-42-63-98-63-154l0-219c0-32 24-54 54-54 z M1810 829c5 0 11 1 18 3 7 2 12 5 16 8l187 154c29 24 51 50 65 77 13 27 22 56 27 86 3 25 5 50 5 77l0 17c-1 32-2 66-2 101 0 8 4 16 11 23 7 7 16 14 25 22 9 8 17 17 24 26 7 9 11 20 11 33 0 15-5 28-15 39-11 10-24 15-39 15-9 0-18-2-26-6-8-5-15-10-22-17l-20-21-18-20c-26-26-39-57-39-94l0-159c0-23-5-44-14-63-10-20-24-37-41-52l-187-154c-6-5-11-12-14-19-4-7-6-15-6-23 0-15 5-28 16-38 10-10 23-15 38-15 z M1005 829c-6 0-12 1-18 3-6 2-11 5-16 9l-187 154c-29 24-51 50-64 77-14 27-23 56-28 86-4 22-5 46-5 71l0 22c1 32 2 66 2 101 0 9-4 17-11 24l-24 22c-9 8-18 17-25 26-7 9-11 20-11 33 0 15 5 28 15 39 10 10 23 15 38 15 15 0 28-5 39-16 11-11 21-22 32-31 11-10 20-20 28-31 8-11 15-23 20-36 5-13 7-27 7-44l0-158c0-23 5-44 15-65 9-21 23-38 40-52l188-154c13-11 19-24 19-41 0-15-5-28-15-38-11-11-24-16-39-16 z M1694 1147c0 33-4 64-11 94-8 30-20 58-35 83-16 25-36 47-59 66-24 19-52 35-84 46l23 37c11 17 22 36 34 56 12 19 23 38 32 55 9 17 13 28 13 33 0 10-4 19-11 26-7 7-16 10-25 10-14 0-24-6-31-17l-109-183-18 1-7 0c-9-1-17-2-27-2l-105 183c-7 12-17 18-31 18-9 0-18-3-25-10-7-7-11-16-11-26 0-5 5-16 14-33 9-17 19-36 30-55 11-20 23-39 34-56l22-37c-28-11-53-25-76-43-23-18-43-39-59-62-17-24-29-50-38-77-13-40-14-63-14-107l574 0 z" fill="#14A085"/>
		<path d="M1550-212l0 996 147 0 0 187 141 0 0 110-288 46c-53 8-89 23-144 23-55 0-86-15-143-23l-287-46 0-110 216 0 0-187 70 0 0-996 288 0 z" fill="#533566"/>
		<path d="M1546-285c362 45 651 323 651 719l0 169c0 224-181 404-405 404l-223 0c-49 0-90-39-90-89l0-1136c0-39 30-67 67-67 z M1268-285c37 0 67 28 67 67l0 1136c0 51-38 89-89 89l-224 0c-225 0-405-182-405-404l0-169c0-385 279-673 651-719 z M1837 1078l0 72c0 87-69 159-159 159l-543 0c-87 0-159-69-159-159l0-72 861 0 z" fill="#00D26A"/>
		<path d="M1123 470c38 0 72 31 72 71l0 218c0 40-34 71-72 71-38 0-72-31-72-71l0-218c0-40 34-71 72-71 z M830 361c38 0 72 33 72 72l0 217c0 38-33 72-72 72-39 0-72-31-72-72l0-217c0-39 31-72 72-72 z M1981 361c39 0 72 34 72 72l0 217c0 38-33 72-72 72-38 0-72-33-72-72l0-217c0-39 31-72 72-72 z M1693 470c38 0 72 31 72 71l0 218c0 40-34 71-72 71-39 0-71-33-71-71l0-218c0-39 33-71 71-71 z" fill="#F9C23C"/>
	</g></svg>
