<svg version="1.1" xmlns="http://www.w3.org/2000/svg"><g transform="scale(1,-1)">
		<path d="M895 1207l124 124c47 47 71 104 71 171l0 115c0 58-49 108-108 108-58 0-108-49-108-108 0-12 2-40 2-69 0-30-2-57-9-64l-125-125 1 0 61-98 91-54 z M592 966l116 40c24 50 96 110 136 150l-45 92-107 60 0 1c-99-99-179-164-211-303l111-40 z M804 512l24 114-24 111c-39 18-69 45-90 80-18 30-27 63-27 98l1 20-96 26-120-26 0-18c0-49 8-96 25-141 16-45 39-85 69-121 29-36 64-66 105-91 41-25 85-42 133-52 z M884 505c53 0 103 10 152 29 49 19 92 46 130 82l-49 99-103 54c-19-17-41-30-64-38-21-8-43-11-65-11l-9 0-38-94 38-121 8 0 z M1217 666l178 179-52 97-101 55-177-178 52-92 100-61 z M1445 895l178 177-50 98-102 55-178-177 63-97 89-56 z M1674 1123c42 42 78 87 136 108l27 100-27 122c-129-21-197-83-289-178l0 1c79-117 37-75 153-153 z M2176 1123l98 27c-47 174-203 305-392 308l-30-127 30-90c65-3 121-34 158-91l136-27 z M2176 763c81 87 111 183 111 299l-1 16-110 29-108-29c2-11 3-22 3-33 0-78-37-120-87-170l77-79 115-32 0-1 z M2018 504c23 76 58 146 109 206l-1 0-74 68-114 41c-59-77-103-165-130-258l103-49 106-7 1-1 z M1911 182l93 34c-8 39-11 78-11 118 0 34 2 67 8 101l-90 51-120 5c-10-52-15-105-15-158 0-39 3-78 8-117l127-34 z M1944-160l98 62 56 92 4-5c-35 47-59 99-78 155l-113 25-113-25c27-111 76-213 146-304 z M2106-287c58 0 108 45 108 107 0 62-42 82-77 125l6-7-94-47-59-106-1 2c32-37 63-74 117-74 z" fill="#FF8687"/>
		<path d="M1623 1072l-152 153 50 51 153-153-51-51 z M876 505c-24 0-48 3-72 7l0 225c24-11 48-16 72-17l0-215 z M1395 845l50 50-152 153-51-51 153-152 z M1166 616l-152 153c19 14 35 34 51 50l152-153-51-50 z M688 935c2 25 9 48 20 71l-226 0c-7-23-9-47-10-71l216 0 z M1990-215l153 153c-16 17-30 37-45 56l-154-154c15-19 30-36 46-55 z M2023 144l-225 0c-5 24-10 48-13 72l219 0c4-25 11-48 19-72 z M2000 435c5 23 10 47 17 70l-209 56c-7-23-12-46-17-70l209-56 z M2126 710c15 19 33 37 50 54l-192 111-46-56 188-109 z M2285 1078l-217 0c-4 27-13 51-27 72l232 0c7-24 11-48 12-72 z M845 1156l50 51-152 152-51-51 153-152 z M1810 1231c23 9 47 11 72 11l0 216c-27 0-44-2-72-5l0-222 z" fill="#E39D89"/>
		<path d="M982 1545c19 0 36 15 36 36 0 19-15 36-36 36-19 0-36-15-36-36 0-19 15-36 36-36 z" fill="#212121"/>
	</g></svg>
