<svg version="1.1" xmlns="http://www.w3.org/2000/svg"><g transform="scale(1,-1)">
		<path d="M1408-288c40 0 72 13 103 37 112 86 201 156 240 295l-273 962-72 72-72-72-270-962c39-137 120-205 241-295 31-24 63-37 103-37 z M2163 935c19 0 35 17 35 35l1 359c0 217-174 396-396 396-212 0-396-170-396-395 0 212-171 395-395 395-217 0-396-174-396-396l1-359c0-18 16-35 35-35 18 0 35 16 35 35l0 355c0 180 141 328 327 328 176 0 322-148 322-323 0-19 13-37 35-37 19 0 36 17 36 35 1-19 19-35 37-35 21 0 35 19 35 37 0 176 146 323 322 323 180 0 327-143 327-328l0-355c0-20 15-35 35-35 z" fill="#A56953"/>
		<path d="M1974-180c10 0 20 1 29 2 9 1 18 3 26 7 7 3 13 9 18 16 5 7 7 17 7 29 0 22-7 36-20 43-13 7-29 10-48 10l-27 0c-6 0-11 1-13 2 1 15 5 31 12 50l15 50 39 131c13 43 26 87 37 131 3 9 4 18 4 29 0 15-3 30-8 44-6 13-14 25-24 35-10 10-22 18-35 24-14 5-29 8-44 8l-175 0 0 172c9 5 21 14 34 29l41 44c13 15 26 28 39 40 12 11 22 17 30 17 3 0 8-4 17-11l28-30 97-116 17-22c17-19 36-33 56-40 20-7 43-11 68-11 10 0 20 1 30 2 9 1 18 3 26 6 8 3 15 9 20 16 5 7 7 17 7 30 0 15-5 28-15 39-11 10-24 15-39 15l-40 0c-13 0-23 5-30 13l-143 170c-27 31-60 46-101 46-17 0-31-3-44-8-13-5-25-12-36-20-11-9-22-18-31-28l-31-32 0 119c0 19-3 36-10 53-7 16-17 30-29 43-13 12-27 22-43 29-17 7-34 10-53 10l41 0c14 0 27 2 39 5 12 3 22 9 31 18 9 9 14 22 15 39 27 7 49 17 66 31 17 13 30 29 39 48 9 19 15 39 18 62 3 22 4 45 4 70 0 15 0 31-1 46-1 15-1 30-1 45 0 17 5 29 16 38 10 8 21 15 33 22 12 6 23 13 34 21 10 8 15 20 15 37 0 15-5 28-15 39-11 11-24 16-39 16-11 0-22-3-34-10l-33-19c-35-19-58-43-69-71-11-28-17-61-17-99 0-13 1-27 2-41 1-14 1-28 1-41 0-10 0-20-1-29-1-10-4-19-7-27-4-8-9-15-16-21-7-6-16-10-27-13-14 27-31 51-51 74-20 23-43 42-68 59-17 41-43 73-79 97-36 24-76 36-120 36-44 0-84-12-119-36-36-25-63-57-80-97-25-17-48-36-68-59-20-23-37-48-52-75-15 5-27 11-36 20-10 9-15 21-15 38l0 142c0 31-7 58-22 83-15 25-36 45-63 60l-32 19c-12 7-23 10-34 10-15 0-28-5-39-15-11-11-16-24-16-39 0-17 5-30 16-38 10-8 21-15 34-21 12-7 23-14 34-22 10-8 15-21 15-38 0-33-1-64-2-95l0-15c0-25 2-48 7-70 6-27 18-50 36-71 18-21 46-38 85-51 1-14 5-25 11-33 5-9 13-15 22-19 9-4 19-7 30-8 11-1 22-2 33-2l30 0c-19 0-36-3-52-10-17-7-31-17-43-29-13-13-22-27-29-43-7-17-11-34-11-53l0-113-29 30c-10 9-20 18-30 26-11 8-22 14-34 19-13 5-27 7-43 7-20 0-39-4-56-11-17-8-33-20-46-35l-143-170c-5-6-12-10-19-11-8-2-16-3-23-3-5 0-9 0-14 1l-14 0c-15 0-27-5-38-16-11-11-16-23-16-38 0-15 5-27 16-38 11-11 23-16 38-16 15 0 30 0 44 1 13 1 26 3 39 6 13 3 25 8 36 15 11 7 23 16 34 29l47 58 34 41 34 39 28 30c8 7 14 11 17 11 7 0 12-2 17-7 21-19 42-39 62-59 19-21 39-41 59-61l0-175-175 0c-31 0-58-10-79-31-21-21-32-47-32-79 0-11 1-21 4-30l103-359-1-3c-2-1-4-2-7-2l-39 0c-11 0-21-1-30-4-9-3-17-9-22-16-6-7-9-18-9-33 0-15 5-27 15-38 10-11 23-16 38-16l51 0c32 0 59 11 80 32 21 21 32 48 32 80 0 11-1 21-4 30l-103 359 0 2 2 1 176 0c0-24 0-48-1-71l-1-36 1-36c0-24 1-48 4-71 3-24 7-47 14-70 41 18 78 41 111 70 33 28 62 60 85 96 23 36 41 75 54 117 13 41 19 84 19 129l0 554 144 0 0-554c0-45 7-88 20-129 13-42 31-81 55-117 24-36 53-68 86-96 33-29 70-52 111-70 7 27 12 55 15 83 3 28 4 56 4 84 0 19 0 39-1 59-1 19-1 39-1 58l175 0c3-1 2 0 3-3l-103-359c-3-9-4-19-4-31 0-15 3-30 9-43 6-13 14-25 24-35 10-10 22-18 35-24 13-6 28-9 43-9l25 0 z" fill="#6D4534"/>
	</g></svg>
