<svg version="1.1" xmlns="http://www.w3.org/2000/svg" viewBox="0 0 2300 2300"><g transform="scale(1,-1) translate(-256, -1869)">
		<path d="M1183 1042c15 0 28 5 39 16 10 10 15 23 15 38 0 17-6 30-19 41l-188 154c-17 15-31 32-40 53-10 20-15 41-15 64l0 158c0 17-2 32-7 45-5 13-12 24-20 35-8 11-17 21-27 31l-33 32c-11 11-23 16-38 16-15 0-28-5-38-16-11-11-16-23-16-38 0-12 4-23 11-32 7-10 16-19 25-27l24-23c7-7 11-15 11-23 0-35-1-68-2-101l0-22c0-25 1-49 5-72 5-30 14-58 27-85 13-27 35-53 64-77l188-155c10-8 21-12 34-12 z M1442 479c15 0 27 5 38 16l499 499c37 37 76 47 118 48l46 0c30 0 54 22 54 54 0 30-25 54-54 54-98 0-166-6-240-80l-498-498-499 498c-53 53-117 80-191 80l-33 0c-35 0-70-11-70-54 0-32 24-54 54-54l47 0c42-1 81-12 117-48l499-499c11-11 23-16 38-16 14 0 27 5 38 15 10-10 22-15 37-15 z M1630 1042c13 0 25 4 35 12l187 155c29 24 50 50 64 77 13 27 22 56 27 86 3 25 5 50 5 77l0 17c-1 33-2 66-2 101 0 8 4 16 11 23l25 23c9 7 17 16 25 25 7 9 11 20 11 33 0 15-5 28-15 39-11 10-24 15-39 15-15 0-28-5-38-15l-32-31c-11-10-20-20-28-31-9-11-15-23-20-36-5-13-8-28-8-45l0-159c0-23-5-45-14-64-9-20-23-37-41-52l-187-155c-13-11-19-24-19-41 0-15 5-28 15-38 10-11 23-16 38-16 z" fill="#533566"/>
		<path d="M1407-144c98 0 186 41 250 106 131 132 209 304 209 506 0 131-35 258-101 367l0 243-6 5c4 22 6 44 6 67 0 79-25 155-71 216 34 3 63 32 63 69 0 18-13 57-21 75l-257 207c-25 5-49 8-72 8-23 0-48-3-73-8l-256-207c-8-18-22-53-22-74 0-37 28-66 62-70-46-61-71-137-71-216 0-23 2-45 6-67l-6-5 0-246c-67-113-100-239-100-364 0-201 79-373 210-506 69-70 157-106 250-106 z" fill="#6B438B"/>
		<path d="M1737 1509c-48 107-143 184-258 208l0-34c0-96 77-174 173-174l85 0 z M1162 1509c97 0 174 82 174 174l0 34-1 0c-113-24-210-95-258-208l85 0 z" fill="#F8312F"/>
		<path d="M2143-288c-101 0-161 52-234 109l-36 71-34-19-166 125c-129 97-194 239-194 388l0 411c144 29 258 148 282 293l77-70 35-85 36 22 118-106c248-223 387-542 387-870l-1-13-37-4 20-78c-40-104-140-174-253-174 z M670-288c100 0 156 48 234 109l35 71 36-19 166 125c120 91 194 231 194 388l0 411c-145 30-259 149-283 293l-76-69-37-86-35 21-118-105c-266-238-386-560-386-882l36-5-19-78c40-104 140-174 253-174 z" fill="#AEDDFF"/>
		<path d="M1910-180l-72 54 0 1147 72-65 0-483 504-504c-3-29-7-57-18-84l-486 486 0-551 z M904-180l71 54 0 1147-71-65 0-483-504-504c1-29 7-57 18-84l486 486 0-551 z" fill="#00A6ED"/>
	</g></svg>
