<svg version="1.1" xmlns="http://www.w3.org/2000/svg" viewBox="0 0 2300 2300"><g transform="scale(1,-1) translate(-256, -1869)">
		<path d="M1406-215c76 0 149 5 224 20 105 19 351 87 351 231l0 1366-1150 0 0-1366c0-119 170-188 288-217 123-30 200-34 287-34 z" fill="#6D4534"/>
		<path d="M1154 431c19 0 36 18 36 36l0 288c0 19-15 36-36 36-18 0-36-17-36-36l0-288c0-18 17-36 36-36 z M1047-160l0 382c0 49-18 92-53 127l-288 288c-14 14-31 21-51 21-31 0-57-24-79-49-26-28-43-45-43-74 0-20 7-37 21-51l277-277 0-171c0-102 139-170 216-196 z M1837-130c65 32 144 87 144 166l0 818 241 241c14 14 21 31 21 51 0 35-24 59-48 80-25 20-44 43-75 43-19 0-35-9-50-22l-252-251c-36-35-53-82-53-127l0-689c1 18 15 36 36 36 19 0 36-15 36-36l0-310 z M939 791c19 0 36 15 36 36l0 408 1 0-1 0c132-66 289-85 431-85 77 0 155 7 232 21 102 20 343 91 343 231 0 93-104 156-207 193-159 56-272 58-368 58-79 0-155-6-232-21-107-20-343-91-343-230 0-53 32-91 72-122l-1 0 1 0 0-453c0-19 15-36 36-36 z" fill="#A56953"/>
		<path d="M1406 1222c67 0 133 5 196 16 82 12 307 69 307 182 0 91-146 147-245 169-124 26-180 28-258 28-84 0-143-4-258-28-99-22-245-80-245-169 0-115 227-171 307-182 63-11 129-16 196-16 z" fill="#F3AD61"/>
		<path d="M1406 1294c70 0 359 22 359 135 0 113-288 134-359 134-69 0-359-22-359-134 0-113 289-135 359-135 z M1406 1366c-39 0-216 12-216 72 0 10 5 19 14 26 46 38 165 46 202 46 36 0 216-12 216-72 0-61-180-72-216-72 z" fill="#6D4534"/>
	</g></svg>
