<svg version="1.1" xmlns="http://www.w3.org/2000/svg" viewBox="0 0 2300 2300"><g transform="scale(1,-1) translate(-256, -1869)">
		<path d="M1742 535l102 102-355 356c-7 7-11 16-11 26l0 684c0 12-10 22-22 22l-100 0c-12 0-22-10-22-22l0-684c0-9-4-18-11-25l-355-357 101-102 324 324c3 3 8 5 13 5 5 0 9-2 12-5l324-324 z" fill="#FFCE7C"/>
		<path d="M1478 1152c19 0 36 15 36 36 0 19-15 36-36 36l-144 0c-19 0-36-15-36-36 0-19 15-36 36-36l144 0 z M1478 1295c18 0 36 17 36 36 0 19-15 36-36 36l-144 0c-19 0-36-15-36-36 0-19 15-36 36-36l144 0 z M1478 1439c18 0 36 17 36 36 0 19-15 36-36 36l-144 0c-19 0-36-15-36-36 0-19 15-36 36-36l144 0 z M1478 1584c19 0 36 15 36 36 0 19-15 35-36 35l-144 0c-21 0-36-16-36-35 0-19 15-36 36-36l144 0 z" fill="#F3AD61"/>
		<path d="M2247-287c93 0 165 75 165 166l0 812c0 202-76 404-209 555-51 56-98 113-149 169-57 63-137 97-216 97-161 0-288-128-288-288l0-1250c0-144 116-261 261-261l419 0 0 1 9-1 8 0 z M566-288l435 1c144 0 261 116 261 261l0 926-1 0 0 324c0 161-129 288-287 288-79 0-159-34-216-97-51-56-99-113-148-170-142-162-210-352-210-554l0-812c0-94 75-167 166-167 z" fill="#F99EA3"/>
		<path d="M544-286c41 0 80 18 115 37l462 246c48 26 99 59 141 93l0 276-2 0c0-125-114-191-209-244-160-86-314-166-466-247-22-11-34-18-60-18-52 0-124 36-124 94l-1 0 0-72c0-35 10-66 29-94 22-33 75-71 115-71 z M1034 505c84 0 164 30 228 77l0 260-2 0c0-113-127-193-226-193l-524 0c-36 0-110 24-110 68l0-190c34-15 71-22 110-22l524 0 z" fill="#FF8687"/>
		<path d="M2267-286c9 0 29 6 38 9 66 26 107 86 107 156l0 72-1 0c0-59-72-94-124-94-26 0-38 7-60 18-152 81-306 161-466 247-12 7-24 14-35 22-91 59-174 108-174 222l-2 0 0-276c42-34 91-66 140-93l463-246c34-19 73-37 114-37 z M2302 505c39 0 76 7 110 22l0 190-1 0c0-46-73-68-109-68l-524 0c-98 0-226 80-226 193l-2 0 0-260c64-47 144-77 228-77l524 0 z" fill="#FF8687"/>
	</g></svg>
