<svg version="1.1" xmlns="http://www.w3.org/2000/svg" viewBox="0 0 2300 2300"><g transform="scale(1,-1) translate(-256, -1869)">
		<path d="M1616-287l0 1017-758 0 0-1017 758 0 z" fill="#533566"/>
		<path d="M1766 875c147 0 275 107 313 247l54 198c9 31 14 63 14 95 0 177-139 319-315 319-102 0-198-45-261-133-26-37-39-73-51-117l-54-198c-8-28-11-57-11-85 0-173 132-326 311-326 z" fill="#7167A4"/>
		<path d="M2268-287l0 790c0 276-223 503-503 503l-266 0c9 23 15 47 15 72 0 98-78 180-180 180l-564 0c-122 0-216-95-216-218 0-139 115-190 215-256l107-169 170-16 216-144 0-742 1006 0 z" fill="#635994"/>
		<path d="M1530-61c85 0 158 70 158 156 0 91-71 162-162 162l-388-1c-99 0-166 0-168 2-5 4-3 1-6 7 0 4 74 307 82 335l-277 185-116-456c-7-25-10-51-10-80 0-171 142-310 312-310l575 0 z M1722 551c21 0 39 4 58 11l422 162c60 24 95 86 95 144 0 87-67 160-158 160-17 0-38-1-52-8l-422-162c-61-23-101-84-101-147 0-88 70-160 158-160 z M1304 875c179 0 312 151 312 324 0 30-4 59-12 87l-54 198c-6 22-12 43-19 62-37 108-162 199-293 199-176 0-319-142-319-318 0-38 8-69 19-107l53-198c37-138 167-247 313-247 z" fill="#6B438B"/>
	</g></svg>
