<svg version="1.1" xmlns="http://www.w3.org/2000/svg" viewBox="0 0 2300 2300"><g transform="scale(1,-1) translate(-256, -1869)">
		<path d="M831 935l144 107 0 360c0 98-79 179-180 179-98 0-180-79-180-179l0-79c-22 23-38 43-72 43-40 0-71-34-71-72 0-18 6-39 21-51l338-308 z" fill="#00A6ED"/>
		<path d="M2268 791l-143 0c-39 0-72 31-72 72 0 38 33 72 72 72l143 0c39 0 72-34 72-72 0-39-31-72-72-72 z M2053 924c20 0 37 7 51 21l154 154c14 14 21 31 21 51 0 39-31 72-72 72-20 0-37-7-51-21l-154-154c-14-14-21-31-21-51 0-39 31-72 72-72 z" fill="#CA0B4A"/>
		<path d="M1729-359c250 0 468 199 468 467l0 669c0 245-198 445-445 445l-705 0 0-216-417 0c-3-124-10-247-10-371 0-135 61-258 159-340l620-517 25-22c74-68 181-115 305-115 z" fill="#F70A8D"/>
		<path d="M1995 117c40 0 71 34 71 72l0 598c0 136-92 252-217 289-6 2-12 3-18 3-50 0-66-39-66-80 0-33 23-53 50-63 62-24 108-75 108-150l0-597c0-39 31-72 72-72 z" fill="#FF6DC6"/>
		<path d="M867 360c176 0 323 136 323 314l0 692-39 0c-329 0-608-258-608-591l0-101c0-179 148-314 324-314 z" fill="#FF6DC6"/>
		<path d="M1406 935c179 0 431 104 431 323 0 91-44 156-109 215-15 14-23 30-23 48 0 24 14 36 14 60 0 38-30 72-70 72-72 0-54-82-130-82-39 0-78 31-78 74 0 41-21 80-70 80-19 0-36-7-49-21-23-24-20-49-21-82-1-33-14-62-55-62-69 0-72 129-153 129-41 0-71-34-71-72 0-40 57-102 77-132-71-54-124-130-124-227 0-223 256-323 431-323 z" fill="#CA0B4A"/>
		<path d="M1621 719c121 0 216 99 216 216l0 107c0 98 78 180 180 180 58 0 108 49 108 108 0 58-49 108-108 108l-180 0c-239 0-431-192-431-432l0-59c0-117 89-228 215-228 z" fill="#00A6ED"/>
	</g></svg>
