<svg version="1.1" xmlns="http://www.w3.org/2000/svg" viewBox="0 0 2300 2300"><g transform="scale(1,-1) translate(-256, -1869)">
		<path d="M1531-287c487 0 881 361 881 882 0 589-515 1130-1130 1130-504 0-882-377-882-881 0-590 519-1131 1131-1131 z" fill="#44911B"/>
		<path d="M1541 1114c102 0 234 46 234 169 0 32-8 62-24 91-79 141-263 211-396 211-102 0-234-45-234-168 0-32 8-62 24-91 78-140 263-212 396-212 z" fill="#86D72F"/>
		<path d="M974 832c176 0 319 142 319 319 0 177-145 318-319 318-176 0-318-143-318-318 0-176 142-319 318-319 z" fill="#F8312F"/>
	</g></svg>
