<svg version="1.1" xmlns="http://www.w3.org/2000/svg" viewBox="0 0 2300 2300"><g transform="scale(1,-1) translate(-256, -1869)">
		<path d="M1260-216c70 0 127 54 127 124 0 24-6 46-19 67l-76 129c-6 11-16 17-30 17-12 0-23-6-30-17-27-45-52-91-79-135l-1 0c-10-18-15-38-15-59 0-67 55-126 123-126 z" fill="#FF6723"/>
		<path d="M1262-167c40 0 68 31 68 69 0 39-31 68-68 68-37 0-68-29-68-68 0-38 28-69 68-69 z" fill="#FFB02E"/>
		<path d="M1655-287c32 0 54 25 54 55 0 24-109 337-123 376l-3 0c73 0 182 61 182 146l0 111-1006 0 0-111c0-79 63-146 146-146l34 0c-16-44-123-355-123-378 0-30 25-53 54-53l785 0 z M1536-139l-548 0 95 283 359 0 94-283 z" fill="#636363"/>
		<path d="M1658 288c140 0 251 116 251 251l0 87 226-32 8 0c71 0 125 60 125 125 0 53-33 96-76 115-20 9-43 10-57 10l-226-33 0 231c0 140-115 252-251 252l-791 0c-139 0-252-113-252-252l0-503c0-135 111-251 252-251l791 0 z" fill="#F8312F"/>
		<path d="M1836 1023l1 10 0 9c0 98-79 180-179 180l-791 0c-98 0-180-78-180-180l1-19 1148 0 z" fill="#CA0B4A"/>
		<path d="M1658 863c72 0 140 43 168 115 4 11 11 34 11 46 0 72-78 127-143 127l-864 0c-63 0-143-56-143-127 0-12 7-35 11-46 28-72 96-115 168-115l792 0 z" fill="#FFF478"/>
		<path d="M1514 1006l0 504-72 0 0-504 72 0 z M1687 1006l132 491-70 18-136-509 74 0 z" fill="#D3D3D3"/>
		<path d="M1766 1364c34 0 60 24 68 54l59 217c1 3 2 6 2 9l0 9c0 38-32 71-71 71-33 0-61-23-69-53l-59-217c-1-3-2-6-2-9l0-9c0-41 34-72 72-72 z M1478 1367c38 0 72 31 72 71l0 215c0 38-33 72-72 72-39 0-72-31-72-72l0-215c0-40 34-71 72-71 z" fill="#A56953"/>
		<path d="M1225 937c0 77-62 140-140 140-77 0-140-62-140-140l280 0 z M1571 990c0 58-46 105-104 105-54 0-105-45-105-105l209 0 z" fill="#FFB02E"/>
	</g></svg>
