<svg version="1.1" xmlns="http://www.w3.org/2000/svg"><g transform="scale(1,-1)">
		<path d="M1478-287c517 0 934 419 934 934l0 144c0 517-419 934-934 934l-144 0c-517 0-934-419-934-934l0-144c0-517 419-934 934-934l144 0 z" fill="#F3AD61"/>
		<path d="M1360 36c-27 0-57 30-57 57 0 13 4 23 13 32l684 684c9 9 19 13 31 13 27 0 58-32 58-58 0-12-4-22-13-31l-684-684c-9-9-19-13-32-13 z M876 135c15 0 27 5 38 16l1060 1060c11 11 16 23 16 38 0 30-22 54-54 54-15 0-27-5-38-16l-1060-1060c-11-11-16-23-16-38 0-32 24-54 54-54 z M781 615c12 0 24 6 32 14l684 684c9 9 13 19 13 31 0 28-32 58-58 58-13 0-23-4-32-13l-683-684c-9-9-13-19-13-32 0-27 31-58 57-58 z" fill="#D3883E"/>
	</g></svg>
