<svg version="1.1" xmlns="http://www.w3.org/2000/svg"><g transform="scale(1,-1)">
		<path d="M1962 216c247 0 450 201 450 450 0 145-117 269-268 269-106 0-193-61-238-146l-297-573 353 0 z M882-30l-303 288c-120 113-179 265-179 419l0 363c0 21 16 38 38 38l164 0c21 0 38-16 38-38l0-151c0-35 21-68 51-84l191-100 0-735 z M883-31l-1 1 0-1 1 0 z M1724-287l-712 0c-25 0-45 19-45 45 0 12 6 23 14 31l70 67 319 75 316-75 69-67c9-9 13-19 13-32 0-24-18-44-44-44 z M1962 360l-117 0 188 364c21 41 64 67 111 67 69 0 124-56 124-125 0-168-137-306-306-306 z M1371 1295c59 0 107 49 107 107 0 60-49 108-107 108-59 0-107-48-107-108 0-59 49-107 107-107 z" fill="#CA0B4A"/>
		<path d="M1681-144c251 123 409 376 409 653 0 100-20 196-59 288l-118 281-365 32c-70 5-107 16-182 16-74 0-113-11-183-16l-365-32-117-281c-39-94-60-189-60-289 0-278 159-532 410-652l630 0 z M1842 1150c-117 135-287 216-471 216-189 0-356-83-472-216l943 0 z" fill="#F8312F"/>
		<path d="M1928 1078c29 0 54 24 54 54 0 29-24 54-54 54l-1115 0c-29 0-54-24-54-54 0-30 25-54 54-54l1115 0 z" fill="#FF822D"/>
	</g></svg>
