<svg version="1.1" xmlns="http://www.w3.org/2000/svg" viewBox="0 0 2300 2300"><g transform="scale(1,-1) translate(-256, -1869)">
		<path d="M1658 216c97 0 179 79 179 179l0 1151c0 97-79 179-179 179-98 0-180-79-180-179l0-1151c0-98 79-179 180-179 z M1662-287c100 0 184 81 184 184 0 100-81 184-184 184-100 0-184-81-184-184 0-100 81-184 184-184 z M1159-287c100 0 184 81 184 184 0 100-81 184-184 184-100 0-184-81-184-184 0-100 81-184 184-184 z M1154 216c98 0 180 79 180 179l0 1151c0 98-79 179-180 179-97 0-179-79-179-179l0-1151c0-97 79-179 179-179 z" fill="#F8312F"/>
	</g></svg>
