<svg version="1.1" xmlns="http://www.w3.org/2000/svg"><g transform="scale(1,-1)">
		<path d="M795-287c98 0 180 79 180 179 0 98-78 180-180 180-98 0-180-78-180-180 0-98 79-179 180-179 z M1690-287c97 0 179 79 179 179 0 98-79 180-179 180-98 0-180-78-180-180 0-98 79-179 180-179 z M1690 200c90 0 176 71 176 170l0 123c0 8 4 14 12 17 45 21 85 33 125 59 162 101 265 275 265 469l0 90c0 315-267 565-581 565-299 0-576-232-576-558 0-96 83-170 177-170 93 0 176 73 176 169 0 123 102 219 224 219 118 0 229-95 229-226l0-89c0-120-82-187-185-215-129-36-218-118-218-253l0-201c0-96 83-169 176-169 z M795 216c95 0 180 72 180 172l0 1166c0 101-88 171-180 171-94 0-180-73-180-171l0-1167c0-101 88-171 180-171 z" fill="#F8312F"/>
	</g></svg>
