<svg version="1.1" xmlns="http://www.w3.org/2000/svg" viewBox="0 0 2300 2300"><g transform="scale(1,-1) translate(-256, -1869)">
		<path d="M1961 1006c48 0 92 34 92 85l0 550c0 51-47 84-94 84-31 0-61-1-85-24l-263-237-262 237c-18 16-40 24-66 24-48 0-93-34-93-85l0-549c0-51 47-84 94-84 49 0 93 35 93 84l0 347 165-148c23-20 42-24 71-24 29 0 50 6 71 24l184 166 0-365c0-50 44-85 93-85 z M727 1006c48 0 92 37 92 85l0 466 207 0c48 0 92 35 92 84 0 47-43 84-92 84l-605 0c-49 0-93-35-93-84 0-50 45-84 93-84l213 0 0-466c0-50 44-85 93-85 z" fill="#635994"/>
	</g></svg>
