<svg version="1.1" xmlns="http://www.w3.org/2000/svg"><g transform="scale(1,-1)">
		<path d="M2125-287c156 0 287 125 287 287l0 1438c0 156-125 287-287 287l-1438 0c-156 0-287-125-287-287l0-1438c0-161 130-287 287-287l1438 0 z" fill="#00A6ED"/>
		<path d="M1406-8c20 0 37 7 50 20l382 368c15 13 22 30 22 51 0 39-31 72-72 72l-220 0c-11 0-18 7-18 18l0 396c0 11 7 18 18 18l220 0c39 0 72 31 72 72 0 21-7 38-22 51l-382 368c-13 13-31 19-50 19-19 0-37-6-50-19l-382-368c-15-13-22-30-22-51 0-39 31-72 72-72l220 0c11 0 18-7 18-18l0-396c0-11-7-18-18-18l-220 0c-39 0-72-31-72-72 0-21 7-38 22-51l382-368c13-13 30-20 50-20 z" fill="#FFFFFF"/>
	</g></svg>
