<svg version="1.1" xmlns="http://www.w3.org/2000/svg" viewBox="0 0 2300 2300"><g transform="scale(1,-1) translate(-256, -1869)">
		<path d="M2125-287c156 0 287 125 287 287l0 1438c0 156-125 287-287 287l-1438 0c-156 0-287-125-287-287l0-1438c0-161 130-287 287-287l1438 0 z" fill="#00A6ED"/>
		<path d="M1766 172c19 0 36 7 51 22l114 114c14 14 21 31 21 50 0 20-7 37-21 51l-546 547c-6 5-9 11-9 20 0 6 2 11 5 14l138 137c11 11 16 23 16 38 0 30-22 54-54 54l-524 3c-30 0-54-22-54-54l3-524c0-30 22-54 54-54 15 0 27 5 38 16 20 20 130 143 150 143 8 0 15-3 22-10l546-545c15-13 31-22 50-22 z" fill="#FFFFFF"/>
	</g></svg>
