<svg version="1.1" xmlns="http://www.w3.org/2000/svg" viewBox="0 0 2300 2300"><g transform="scale(1,-1) translate(-256, -1869)">
		<path d="M2125-287c156 0 287 125 287 287l0 1438c0 156-125 287-287 287l-1438 0c-156 0-287-125-287-287l0-1438c0-161 130-287 287-287l1438 0 z" fill="#00A6ED"/>
		<path d="M1046 173c20 0 37 7 51 21l546 545c7 7 14 10 21 10 19 0 106-98 121-113 14-14 31-21 50-21 39 0 73 31 73 72l2 463c0 39-31 72-72 72l-463-2c-41 0-72-34-72-72 0-19 7-36 22-51 16-16 112-103 112-121 0-7-3-14-10-21l-545-546c-14-14-21-31-21-51 0-19 7-36 21-50l114-114c14-14 31-21 50-21 z" fill="#FFFFFF"/>
	</g></svg>
