<svg version="1.1" xmlns="http://www.w3.org/2000/svg"><g transform="scale(1,-1)">
		<path d="M2125-287c156 0 287 125 287 287l0 1438c0 156-125 287-287 287l-1438 0c-156 0-287-125-287-287l0-1438c0-161 130-287 287-287l1438 0 z" fill="#00A6ED"/>
		<path d="M1838 215c39 0 72 31 72 72l-2 463c0 39-31 72-72 72-19 0-36-7-51-22-16-16-103-112-121-112-7 0-14 3-21 10l-546 545c-14 14-31 21-51 21-19 0-36-7-50-21l-114-114c-14-14-21-31-21-51 0-19 7-36 21-50l545-546c7-7 10-14 10-21 0-19-97-106-112-121-15-15-22-32-22-51 0-39 31-72 72-72l463-2 z" fill="#FFFFFF"/>
	</g></svg>
