<svg version="1.1" xmlns="http://www.w3.org/2000/svg" viewBox="0 0 2300 2300"><g transform="scale(1,-1) translate(-256, -1869)">
		<path d="M2125-287c156 0 287 125 287 287l0 1438c0 156-125 287-287 287l-1438 0c-156 0-287-125-287-287l0-1438c0-161 130-287 287-287l1438 0 z" fill="#00A6ED"/>
		<path d="M885 216l524 2c32 0 54 26 54 55 0 15-5 27-16 38-21 18-143 133-143 150 0 8 3 15 10 22l545 546c13 15 22 31 22 50 0 19-7 36-22 51l-114 114c-14 14-31 21-51 21-19 0-36-7-50-21l-547-546c-5-6-12-9-20-9-6 0-11 2-14 5l-137 138c-11 11-23 16-38 16-30 0-54-22-54-54l-3-524c0-32 24-54 54-54 z" fill="#FFFFFF"/>
	</g></svg>
