<svg version="1.1" xmlns="http://www.w3.org/2000/svg" viewBox="0 0 2300 2300"><g transform="scale(1,-1) translate(-256, -1869)">
		<path d="M2125-287c156 0 287 125 287 287l0 1438c0 156-125 287-287 287l-1438 0c-156 0-287-125-287-287l0-1438c0-161 130-287 287-287l1438 0 z" fill="#00A6ED"/>
		<path d="M1774 42c15 0 28 6 39 18l304 329c9 11 14 23 14 36 0 14-5 26-14 37l-304 329c-11 12-24 18-39 18-30 0-55-22-55-54l0-162c0-11-7-18-18-18l-485 0c-140 0-215 141-215 252 0 117 79 251 215 251l432 0c40 0 71 34 71 72l0 144c0 38-31 72-71 72l-432 0c-293 0-503-256-503-539 0-274 201-539 503-539l485 0c11 0 18-7 18-18l0-173c0-30 23-55 55-55 z" fill="#FFFFFF"/>
	</g></svg>
