<svg version="1.1" xmlns="http://www.w3.org/2000/svg" viewBox="0 0 2300 2300"><g transform="scale(1,-1) translate(-256, -1869)">
		<path d="M1406-215c21 0 41 1 58 3 17 1 34 3 51 6 16 2 33 4 50 7 17 3 36 5 57 8l431 47 0 195c0 55-7 108-21 160-15 52-35 101-62 146-27 45-60 87-98 125-39 37-82 70-130 97-33 18-67 33-102 45-9 3-18 6-27 8-9 2-18 5-27 8-11 3-19 8-26 15-7 7-10 16-10 28l0 86c0 14 3 24 9 30 6 5 15 10 27 13 23 7 46 15 67 23 21 7 43 17 64 28 51 27 97 59 139 98 41 39 77 82 106 129 29 47 51 97 67 151 16 54 24 110 24 168l0 180-488 22-51 3-51 2c-17 1-36 1-57 1-21 0-40 0-57-1l-51-2-108-6-431-19 0-180c0-55 7-109 22-160 14-52 35-101 62-146 27-46 59-88 98-125 38-38 81-70 129-97 33-18 67-33 102-45 9-3 19-6 28-8 9-2 17-5 26-8 13-5 22-13 27-24 5-11 9-22 10-35l1-28-2-50c0-14-3-24-9-29-6-6-15-11-27-14l-67-21c-21-7-43-16-64-27-51-26-98-58-139-96-41-38-77-80-106-127-29-47-52-97-67-151-16-54-24-110-24-167l0-195 431-47c21-3 40-5 57-8 17-3 34-5 51-7 16-3 33-5 50-6 17-2 37-3 58-3 z" fill="#83CBFF"/>
		<path d="M2053-287c42 0 72 29 72 72 0 43-30 71-72 71l-1294 0c-42 0-72-28-72-71 0-42 29-72 72-72l1294 0 z M2053 1581c42 0 72 29 72 72 0 43-30 72-72 72l-1294 0c-42 0-72-29-72-72 0-42 29-72 72-72l1294 0 z" fill="#9B9B9B"/>
		<path d="M1981-144l0 80c0 257-211 436-460 488-27 7-43 21-43 51l0 309c0 24 8 45 23 63 26 29 59 39 94 48 94 26 216 109 271 183 14 18 22 33 22 57 0 46-38 87-87 87l-790 0c-48 0-87-41-87-87 0-12 2-22 6-30 31-72 150-151 240-188 83-36 164-44 164-133l0-281c0-29-8-69-43-79-51-15-97-24-145-45-179-80-315-242-315-443l0-80 1150 0 z" fill="#FFB02E"/>
		<path d="M1866-57c-39 0-61 27-65 64-13 131-73 272-182 349-52 35-118 42-118 98 0 37 25 69 65 69 8 0 17-2 27-5 109-38 184-112 244-209 64-104 80-179 94-302l1-9c0-32-34-55-66-55 z M1565 936c5 0 10 1 15 2 107 33 188 100 257 212 65 106 80 176 94 302l1 9c0 30-40 56-66 56-40 0-61-30-65-65-14-134-76-271-182-348-52-35-118-42-118-98 0-35 25-70 64-70 z" fill="#FFFFFF"/>
	</g></svg>
