<svg version="1.1" xmlns="http://www.w3.org/2000/svg"><g transform="scale(1,-1)">
		<path d="M1404-287c21 0 39 6 54 19 15 13 23 30 25 51 3 23 4 47 4 72l0 22 1 51 81 0c38 0 73 7 106 21 32 14 60 33 83 58 23 25 42 53 55 86 13 33 19 68 19 106 0 37-7 71-20 104-14 33-33 61-57 86-24 25-52 44-84 59-33 15-67 22-104 22l-59 0 4 103 134 0c38 0 73 7 106 21 32 14 60 33 83 58 23 25 42 53 55 86 13 33 19 68 19 106 0 37-7 72-20 105-14 33-33 61-57 86-24 25-52 44-84 59-33 14-68 21-105 21l-111 0 4 104 263 0c25 0 49 5 72 15 22 9 41 22 58 39 16 17 29 36 38 59 9 22 14 46 14 71 0 9-3 18-10 25-7 7-15 10-24 10l-403 0 4 72c1 23 2 47 2 71 0 20-4 39-11 57-7 17-17 33-30 46-13 13-29 23-46 30-18 7-37 11-57 11-19 0-38-3-55-10-17-7-33-17-46-30-13-13-24-27-31-44-8-17-12-35-12-55 0-25 1-49 2-74l4-74-173 0c-39 0-74-7-106-21-33-14-61-33-84-57-23-25-41-53-54-86-13-33-20-69-20-107 0-37 7-72 21-105 13-33 32-61 56-86 24-25 52-44 85-58 32-15 67-22 104-22l191 0 4-103-52 0c-38 0-73-7-105-21-33-14-61-33-84-58-24-25-42-53-55-86-13-33-20-68-20-106 0-37 7-71 21-104 13-33 32-62 56-87 24-25 52-44 85-58 32-15 67-22 104-22l70 0 4-104c-24 0-46-4-67-12-21-9-40-20-55-35-16-15-28-33-37-53-9-21-14-43-14-68 0-12 2-23 6-34 3-11 13-17 28-17l147 0c1-24 2-48 2-73l0-19c0-18 1-36 3-53 3-20 11-37 24-50 13-13 30-20 51-20 z M1567 147l-71 0 4 104 67 0c29 0 51-24 51-52 0-26-22-52-51-52 z M1643 793l-123 0 4 103 119 0c30 0 51-25 51-52 0-29-24-51-51-51 z M1280 1115l-183 0c-29 0-51 26-51 52 0 26 22 52 51 52l179 0 4-104 z M1304 470l-62 0c-29 0-51 24-51 52 0 29 24 51 51 51l58 0 4-103 z" fill="#00A6ED"/>
		<path d="M1837 1309c18 0 36 17 36 36 0 19-15 36-36 36-18 0-36-17-36-36 0-19 15-36 36-36 z" fill="#FFFFFF"/>
	</g></svg>
