<svg version="1.1" xmlns="http://www.w3.org/2000/svg"><g transform="scale(1,-1)">
		<path d="M2125-287c156 0 287 125 287 287l0 1438c0 156-125 287-287 287l-1438 0c-156 0-287-125-287-287l0-1438c0-161 130-287 287-287l1438 0 z" fill="#00A6ED"/>
		<path d="M1945 216c19 0 36 15 36 36l0 144c0 18-17 35-36 35l-1078 0c-19 0-36-17-36-35l0-144c0-19 15-36 36-36l1078 0 z M1910 575c39 0 72 31 72 72 0 21-8 38-23 52l-504 476c-13 13-30 20-49 20-19 0-36-7-49-20l-504-476c-15-14-23-31-23-52 0-39 31-72 72-72l1008 0 z" fill="#FFFFFF"/>
	</g></svg>
