<svg version="1.1" xmlns="http://www.w3.org/2000/svg"><g transform="scale(1,-1)">
		<path d="M2125-287c156 0 287 125 287 287l0 1438c0 156-125 287-287 287l-1438 0c-156 0-287-125-287-287l0-1438c0-161 130-287 287-287l1438 0 z" fill="#00A6ED"/>
		<path d="M1859 216c39 0 72 31 72 72 0 20-7 37-20 50l-436 453 384 0c39 0 72 31 72 72 0 19-7 35-20 50l-453 471c-13 14-33 22-52 22-20 0-37-7-52-22l-453-471c-13-15-20-31-20-50 0-39 30-72 71-72l385 0-436-453c-13-13-20-30-20-50 0-39 30-72 71-72l907 0 z" fill="#FFFFFF"/>
	</g></svg>
