<svg version="1.1" xmlns="http://www.w3.org/2000/svg"><g transform="scale(1,-1)">
		<path d="M2125-287c156 0 287 125 287 287l0 1438c0 156-125 287-287 287l-1438 0c-156 0-287-125-287-287l0-1438c0-161 130-287 287-287l1438 0 z" fill="#00A6ED"/>
		<path d="M1406 32c19 0 39 8 52 22l453 471c13 15 20 31 20 50 0 39-31 72-72 72l-384 0 436 453c13 13 20 30 20 50 0 39-31 72-72 72l-907 0c-41 0-71-33-71-72 0-20 7-37 20-50l436-453-385 0c-41 0-71-33-71-72 0-19 7-35 20-50l453-471c15-15 32-22 52-22 z" fill="#FFFFFF"/>
	</g></svg>
