<svg version="1.1" xmlns="http://www.w3.org/2000/svg"><g transform="scale(1,-1)">
		<path d="M2125-287c156 0 287 125 287 287l0 1438c0 156-125 287-287 287l-1438 0c-156 0-287-125-287-287l0-1438c0-161 130-287 287-287l1438 0 z" fill="#00A6ED"/>
		<path d="M1981 194c39 0 72 30 72 71l0 907c0 39-31 72-72 72-20 0-37-7-50-20l-453-436 0 384c0 39-31 72-72 72-20 0-37-7-50-20l-453-436 0 398c0 19-15 36-36 36l-72 0c-19 0-36-15-36-36l0-934c0-19 15-36 36-36l72 0c19 0 36 15 36 36l0 398 453-436c13-13 30-20 50-20 39 0 72 30 72 71l0 385 453-436c13-13 30-20 50-20 z" fill="#FFFFFF"/>
	</g></svg>
