<svg version="1.1" xmlns="http://www.w3.org/2000/svg"><g transform="scale(1,-1)">
		<path d="M2408-287l4 4 0 2004-4 4-2004 0-4-4 0-2004c0-3 1-4 4-4l2004 0 z" fill="#00A6ED"/>
		<path d="M1945 216l-144 0c-19 0-36 15-36 36l0 934c0 19 15 36 36 36l144 0c19 0 36-15 36-36l0-934c0-19-15-36-36-36 z M1658 216c18 0 35 17 35 36l0 934c0 19-17 36-35 36l-144 0c-19 0-36-15-36-36l0-934c0-19 15-36 36-36l144 0 z M885 204c21 0 38 8 52 23l422 442c13 13 19 31 19 50 0 19-6 37-19 50l-422 442c-14 15-31 23-52 23-39 0-72-31-72-72l0-886c0-39 31-72 72-72 z" fill="#FFFFFF"/>
	</g></svg>
