<svg version="1.1" xmlns="http://www.w3.org/2000/svg" viewBox="0 0 2300 2300"><g transform="scale(1,-1) translate(-256, -1869)">
		<path d="M1987-287c81 0 138 68 138 147 0 44-19 84-52 113l-149 129c-166-71-313-102-482-102-212 0-343 45-518 134l-186-161c-34-28-51-71-51-113 0-77 55-147 137-147l1163 0 z" fill="#D3D3D3"/>
		<path d="M1442-72c415 0 755 336 755 755 0 415-336 755-755 755-415 0-755-336-755-755 0-415 336-755 755-755 z" fill="#F8312F"/>
		<path d="M1442 144c289 0 539 232 539 539 0 289-232 539-539 539-289 0-539-232-539-539 0-289 232-539 539-539 z" fill="#FFFFFF"/>
		<path d="M2246 1150c-16 0-31 5-44 14l-474 335c-22 16-35 42-35 69 0 23 9 44 27 62 65 64 162 96 245 96 216 0 376-185 376-395 0-61-11-181-95-181 z M638 1150c15 0 30 5 43 14l475 335c23 15 34 42 34 68 0 24-9 45-27 63-65 64-162 96-245 96-213 0-375-185-375-395 0-60 10-181 95-181 z" fill="#F9C23C"/>
		<path d="M1622 431c40 0 71 34 71 72 0 25-13 47-32 60l-215 144c-12 8-25 12-40 12-38 0-72-31-72-72 0-25 13-47 32-60l216-143c13-9 26-13 40-13 z" fill="#F8312F"/>
		<path d="M1406 575c39 0 72 31 72 72l0 359c0 39-31 72-72 72-39 0-72-31-72-72l0-359c0-39 31-72 72-72 z" fill="#212121"/>
	</g></svg>
