<svg version="1.1" xmlns="http://www.w3.org/2000/svg" viewBox="0 0 2300 2300"><g transform="scale(1,-1) translate(-256, -1869)">
		<path d="M2116-287c122 0 224 98 224 224l0 854c0 517-419 934-934 934-527 0-934-442-934-961l0-827c0-127 102-224 224-224l1420 0 z" fill="#00A6ED"/>
		<path d="M1406 1c435 0 791 352 791 790 0 436-351 791-791 791-436 0-791-351-791-791 0-436 354-790 791-790 z" fill="#636363"/>
		<path d="M1406 144c355 0 647 288 647 647 0 355-288 647-647 647-355 0-647-288-647-647 0-355 288-647 647-647 z M1761 363c-38 0-72 33-72 72 0 39 31 72 72 72 38 0 72-31 72-71 0-39-31-73-72-73 z M902 719c-38 0-72 33-72 72 0 38 33 72 72 72 39 0 72-31 72-72 0-39-31-72-72-72 z M1909 719c-38 0-72 33-72 72 0 39 31 72 72 72 39 0 72-31 72-72 0-39-34-72-72-72 z M1050 364c-38 0-72 31-72 71 0 39 31 72 72 72 39 0 72-31 72-72 0-40-34-71-72-71 z M1406 216c-39 0-72 31-72 72 0 39 31 72 72 72 39 0 72-31 72-72 0-39-31-72-72-72 z M1762 1074c-38 0-72 33-72 72 0 39 31 72 72 72 38 0 72-33 72-72 0-38-33-72-72-72 z M1050 1075c-38 0-72 31-72 71 0 41 34 72 73 72 38 0 71-32 71-71 0-39-31-72-72-72 z" fill="#D3D3D3"/>
		<path d="M1406 504c39 0 72 31 72 72l0 431c0 38-33 72-72 72-38 0-72-33-72-72l0-431c0-39 31-72 72-72 z" fill="#9B9B9B"/>
		<path d="M1406 1222c38 0 72 33 72 72 0 39-31 72-72 72-39 0-72-31-72-72 0-38 33-72 72-72 z" fill="#F8312F"/>
	</g></svg>
