<svg version="1.1" xmlns="http://www.w3.org/2000/svg" viewBox="0 0 2300 2300"><g transform="scale(1,-1) translate(-256, -1869)">
		<path d="M1406-215c84 0 130 13 216 24l431 47 0 252c0 24-3 49-10 76-70 279-259 416-493 452l0 166c224 35 394 164 471 378 16 45 32 102 32 150l0 251-431 48c-82 8-131 24-216 24-87 0-138-16-216-24l-431-48 0-251c0-24 3-49 10-76 71-285 264-417 493-452l0-166c-226-35-398-168-471-378-16-45-32-102-32-150l0-252 431-47c82-11 141-24 216-24 z" fill="#83CBFF"/>
		<path d="M1801-144c41 0 82 32 82 77 0 19-6 31-17 46-32 44-70 82-114 115-51 37-115 75-180 89-50 11-94 39-94 90l0 532c0 39 21 63 57 72 38 11 72 19 107 35 182 79 300 242 332 439l1 11c0 39-33 76-73 76l-992 0c-39 0-73-36-73-76l1-11c32-195 148-359 332-439 71-33 164-30 164-107l0-532c0-57-46-69-95-81-80-20-176-79-242-145-32-32-68-69-68-111 0-47 39-80 82-80l790 0 z" fill="#FFB02E"/>
		<path d="M2053-287c39 0 72 31 72 72 0 40-34 71-72 71l-1294 0c-38 0-72-31-72-71 0-39 31-72 72-72l1294 0 z M2053 1581c39 0 72 34 72 72 0 39-31 72-72 72l-1294 0c-39 0-72-31-72-72 0-38 33-72 72-72l1294 0 z" fill="#9B9B9B"/>
		<path d="M1909-72c39 0 72 31 72 72 0 238-143 413-369 498-10 3-16 5-27 5-40 0-71-34-71-72 0-31 17-54 45-66 38-17 74-35 109-56 106-64 169-175 169-309 0-39 31-72 72-72 z M1693 971c9 0 17 1 24 4 178 58 268 210 268 395 0 54 0 140-75 140-39 0-73-31-73-72 0-23 4-44 4-67 0-134-55-217-171-261-30-11-48-35-48-67 0-38 30-72 71-72 z" fill="#FFFFFF"/>
	</g></svg>
