<svg version="1.1" xmlns="http://www.w3.org/2000/svg"><g transform="scale(1,-1)">
		<path d="M1406-287c547 0 1006 440 1006 1006 0 547-440 1006-1006 1006-547 0-1006-440-1006-1006 0-547 440-1006 1006-1006 z" fill="#5092FF"/>
		<path d="M1827 219c54 0 99 46 99 99l0 774c0 55-44 99-98 99-24 0-46-8-65-24-32-24-351-305-359-305-8 0-329 261-357 285-18 15-39 22-62 22-54 0-99-46-99-99l0-752c0-54 46-99 99-99 53 0 98 44 98 99l0 526c0 6 3 9 9 9 8 0 229-185 252-200 18-15 39-22 62-22 23 0 45 8 64 24l244 209 6 2c6 0 9-3 9-9l0-539c0-55 44-99 98-99 z" fill="#FFFFFF"/>
	</g></svg>
