<svg version="1.1" xmlns="http://www.w3.org/2000/svg" viewBox="0 0 2300 2300"><g transform="scale(1,-1) translate(-256, -1869)">
		<path d="M1785 3c388 0 695 335 695 717 0 396-319 718-717 718-189 0-368-73-503-206-39 14-80 21-123 21-125 0-240-65-307-170-283-16-502-254-502-535 0-298 244-545 545-545l912 0 z" fill="#B4ACBC"/>
		<path d="M1785 75c348 0 623 297 623 646 0 356-288 645-645 645-181 0-332-70-461-195-9-8-17-15-24-26-44 25-91 37-141 37-114 0-215-66-264-169-260 0-473-197-473-465 0-258 213-473 473-473l912 0 z" fill="#F3EEF8"/>
	</g></svg>
