<svg version="1.1" xmlns="http://www.w3.org/2000/svg" viewBox="0 0 2300 2300"><g transform="scale(1,-1) translate(-256, -1869)">
		<path d="M2299 719c61 0 113 50 113 112 0 39-16 90-26 130-53 234-259 405-504 405l-952 0c-246 0-448-169-504-405-10-40-27-90-27-129 0-61 51-113 113-113l404 0c55 0 98 43 98 98 0 51 0 118 68 118l647 0c54 0 67-39 68-78l0-40c0-55 43-98 98-98l404 0 z" fill="#CA0B4A"/>
		<path d="M2340 719c39 0 72 31 72 72 0 39-31 72-72 72l-431 0c-39 0-72-31-72-72 0-39 31-72 72-72l431 0 z M903 719c39 0 72 31 72 72 0 39-31 72-72 72l-431 0c-39 0-72-31-72-72 0-39 31-72 72-72l431 0 z" fill="#990838"/>
		<path d="M2300-287c15 0 30 3 44 9 13 6 25 14 35 24 10 10 18 22 24 36 6 13 9 28 9 43l0 238c0 74-11 145-34 213-23 68-57 132-101 191l-263 351c-10 13-21 23-33 30-12 6-24 10-37 13-13 2-27 3-41 3-14-1-29-1-44-1-6 0-11 2-15 7-5 4-7 9-7 15l0 171c0 6-2 11-6 16-5 4-10 6-16 6l-99 0c-6 0-11-2-16-6-5-5-7-10-7-16l0-171c0-6-2-11-6-15-5-5-10-7-16-7l-530 0c-6 0-11 2-16 7-5 4-7 9-7 15l0 171c0 6-2 11-6 16-5 4-10 6-16 6l-99 0c-6 0-11-2-15-6-5-5-7-10-7-16l0-171c0-13-6-20-18-21l-21-1-25 1c-19 0-38-2-59-7-21-5-39-19-55-40l-262-350c-44-59-77-123-100-191-23-68-35-139-35-213l0-238c0-15 3-30 9-43 6-14 14-26 24-36 10-10 22-18 36-24 13-6 28-9 43-9l1788 0 z" fill="#F92F60"/>
		<path d="M2300-287c62 0 112 51 112 112l0 211c0-61-49-108-112-108l-1788 0c-64 0-112 48-112 108l0-211c0-62 51-112 112-112l1788 0 z" fill="#990838"/>
		<path d="M1672 72l-99 0c-12 0-23 10-23 22l0 99c0 12 10 23 22 23l99 0c12 0 22-11 22-23l0-101c0-10-10-20-21-20 z M1456 72c10 0 22 8 22 20l0 101c0 13-9 23-23 23l-99 0c-12 0-22-11-22-23l0-99c0-12 11-22 23-22l99 0 z M1240 72l-98 0c-12 0-24 8-24 22l0 99c0 12 11 23 23 23l99 0c12 0 22-11 22-23l0-101c0-12-12-20-22-20 z M1672 288c11 0 21 10 21 20l0 101c0 12-10 22-22 22l-99 0c-12 0-22-10-22-22l0-99c0-12 11-22 23-22l99 0 z M1456 288l-99 0c-12 0-23 10-23 22l0 99c0 12 10 22 22 22l99 0c12 0 23-10 23-22l0-101c0-10-11-20-22-20 z M1240 288c10 0 22 8 22 20l0 101c0 12-10 22-22 22l-99 0c-12 0-23-10-23-22l0-99c0-14 12-22 24-22l98 0 z M1672 503l-99 0c-14 0-23 10-23 23l0 99c0 12 10 22 22 22l99 0c12 0 22-10 22-22l0-101c0-12-11-21-21-21 z M1456 503c10 0 22 9 22 21l0 101c0 12-11 22-23 22l-99 0c-12 0-22-10-22-22l0-99c0-13 9-23 23-23l99 0 z M1240 503c10 0 22 9 22 21l0 101c0 12-10 22-22 22l-99 0c-12 0-23-10-23-22l0-99c0-13 10-23 24-23l98 0 z" fill="#E6E6E6"/>
	</g></svg>
