<svg version="1.1" xmlns="http://www.w3.org/2000/svg" viewBox="0 0 2300 2300"><g transform="scale(1,-1) translate(-256, -1869)">
		<path d="M2188-287c122 0 224 98 224 224l0 1564c0 122-98 224-224 224l-1564 0c-125 0-224-101-224-224l0-1564c0-127 102-224 224-224l1564 0 z" fill="#636363"/>
		<path d="M2188-215c82 0 152 67 152 152l0 1564c0 82-67 152-152 152l-1564 0c-86 0-152-70-152-152l0-1564c0-87 71-152 152-152l1564 0 z" fill="#000000"/>
		<path d="M1208 216c28 0 56 11 76 31l809 795c21 21 31 45 31 74 0 57-47 106-107 106-28 0-56-11-76-31l-733-720-337 331c-20 20-48 31-76 31-57 0-108-46-108-106 0-29 11-54 32-75l413-405c22-21 47-31 76-31 z" fill="#F4F4F4"/>
	</g></svg>
