<svg version="1.1" xmlns="http://www.w3.org/2000/svg" viewBox="0 0 2300 2300"><g transform="scale(1,-1) translate(-256, -1869)">
		<path d="M1476 218l0 1435c0 38-31 72-71 72-39 0-72-31-72-72l0-1435 143 0 z" fill="#433B6B"/>
		<path d="M2391 649c8 0 16 6 16 15 0 539-451 989-1003 989-531 0-1004-432-1004-988 0-11 5-16 16-16 5 0 10 3 13 9 50 82 121 134 222 134 96 0 159-44 216-124 11-15 19-19 37-19 16 0 24 7 33 19 56 80 120 124 216 124 96 0 160-44 216-124 11-15 19-19 37-19 16 0 24 7 33 19 56 80 120 124 216 124 70 0 137-28 185-83 25-28 31-60 68-60 24 0 36 22 48 40 45 64 115 103 200 103 101 0 169-49 222-135 3-5 8-8 13-8 z" fill="#8D65C5"/>
		<path d="M1227-285c139 0 249 112 249 249l0 255c0 38-31 72-71 72-38 0-72-33-72-72l0-255c0-61-46-105-106-105-59 0-106 47-106 105 0 39-31 72-72 72-40 0-71-34-71-72 0-135 109-249 249-249 z" fill="#8C5543"/>
		<path d="M1022 1108c28 0 55 13 73 31l123 123c20 20 30 44 30 73 0 55-44 103-103 103-29 0-53-10-73-30l-123-124c-20-20-30-44-30-73 0-57 46-103 103-103 z M1668 1396c29 0 53 10 73 30l124 124c20 20 30 44 30 72 0 55-43 103-103 103-29 0-53-10-73-30l-123-124c-21-21-31-45-31-72 0-55 46-103 103-103 z M2171 1108c28 0 53 12 73 31l124 123c20 20 30 44 30 73 0 55-44 103-103 103-29 0-53-10-73-30l-123-124c-20-20-30-44-30-73 0-56 45-103 102-103 z M560 1396c29 0 53 10 73 30l123 124c20 20 30 44 30 72 0 54-42 103-102 103-29 0-53-10-73-30l-124-124c-20-20-30-44-30-72 0-55 43-103 103-103 z" fill="#00A6ED"/>
	</g></svg>
