<svg version="1.1" xmlns="http://www.w3.org/2000/svg"><g transform="scale(1,-1)">
		<path d="M1298-287c456 0 827 370 827 826 0 456-369 827-827 827-456 0-826-371-826-827 0-456 370-826 826-826 z" fill="#D3D3D3"/>
		<path d="M1292-108c376 0 675 342 675 710l-1349 0c0-363 294-710 674-710 z" fill="#9B9B9B"/>
		<path d="M1292-72c306 0 576 206 654 509l76 74c-15 13-56 51-56 72l1 19 0 377-173 0c-127 141-305 225-502 225-197 0-375-84-502-225l-172 0 0-377c0-372 302-674 674-674 z" fill="#E6E6E6"/>
		<path d="M1292 305c372 0 674 302 674 674 0 57-7 113-22 169 144-16 253-139 253-284 0-135-97-253-231-280-1-49-7-99-20-148 225 19 394 204 394 428 0 251-203 430-440 430l-12-1c-117 221-345 360-596 360-372 0-675-301-675-674 0-361 289-674 675-674 z" fill="#F4F4F4"/>
		<path d="M1292 383c327 0 596 266 596 596 0 305-331 524-596 524-32 0-64-4-97-11-246-58-499-253-499-513 0-327 266-596 596-596 z" fill="#7D4533"/>
		<path d="M1886 937c1 15 2 27 2 42 0 327-266 596-596 596-247 0-456-149-549-364-37-86-47-171-47-253l1-21c3 33 11 66 23 97 87 227 328 397 572 397 53 0 106-8 157-23 213-63 416-263 437-471 z" fill="#9B9B9B"/>
	</g></svg>
