<svg version="1.1" xmlns="http://www.w3.org/2000/svg"><g transform="scale(1,-1)">
		<path d="M1837-288c32 0 55 25 55 54 0 49-58 66-97 91-202 125-335 369-335 622l0 198c0 29-24 54-54 54-30 0-54-25-54-54l0-198c0-320 179-614 460-760 9-5 18-7 25-7 z" fill="#44911B"/>
		<path d="M2136 216c155 0 276 120 276 275 0 93-46 178-122 228 74 50 122 132 122 227 0 143-115 276-266 276-61 0-115-16-164-48-28-20-268-183-282-183-12 0-22 11-22 22 0 18 180 275 187 289 26 19 44 117 44 150 0 149-123 273-272 273-92 0-179-43-231-123-53 81-139 123-231 123-144 0-272-124-272-267 0-49 10-110 42-154l2-2c20-48 187-263 187-289 0-12-10-22-22-22-15 0-256 164-282 183-48 31-103 48-158 48-149 0-272-124-272-273 0-92 45-179 123-230-81-53-123-140-123-231 0-152 125-272 277-272 57 0 106 17 153 48l539 358c11 7 24 11 37 11 14 0 27-4 38-11l539-358c47-31 96-48 153-48 z" fill="#86D72F"/>
	</g></svg>
