<svg version="1.1" xmlns="http://www.w3.org/2000/svg" viewBox="0 0 2300 2300"><g transform="scale(1,-1) translate(-256, -1869)">
		<path d="M2079-287c88 0 166 71 166 167 88 0 168 70 168 166 0 90-72 167-167 167-36 0-72-12-100-35l-165 173c159 61 216 190 216 368 0 155-46 309-135 441l85 84c27-15 55-22 86-22 98 0 179 79 179 180 0 84-59 160-147 176-16 86-90 147-176 147-98 0-180-79-180-179 0-31 7-59 22-86l-84-85c-132 89-286 135-441 135-155 0-309-46-441-135l-84 85c15 27 22 55 22 86 0 98-79 179-180 179-88 0-161-61-177-147-86-16-146-91-146-176 0-98 79-180 179-180 31 0 59 7 86 22l85-84c-89-132-135-286-135-441 0-161 50-305 216-369l-166-166c-28 20-61 29-96 29-94 0-169-75-169-167 0-94 79-166 169-166 0-93 76-167 169-167 90 0 169 72 169 167 0 36-12 72-35 100l121 121 0-29c0-80 64-144 143-144 62 0 114 40 135 94 21-54 73-94 135-94 62 0 114 40 135 94 19-54 72-94 134-94 81 0 144 67 144 144l0 31 122-128c-19-29-29-60-29-95 0-94 76-167 167-167 z" fill="#9B9B9B"/>
		<path d="M1675 0c38 0 72 33 72 72l0 307c246 22 378 79 378 340 0 395-319 719-719 719-395 0-719-319-719-719 0-278 155-320 378-340l0-307c0-38 31-72 71-72 38 0 72 33 72 72l0 135c0 36 29 63 63 63 34 0 63-27 63-63l0-135c0-38 33-72 72-72 38 0 72 33 72 72l0 135c0 34 27 63 63 63 34 0 63-27 63-63l0-135c0-38 31-72 71-72 z" fill="#FFFFFF"/>
		<path d="M1447 431l-82 0c-19 0-31 18-31 35 0 11 2 22 6 33 14 41 25 76 66 76 27 0 47-21 54-45 6-18 18-44 18-63 0-17-12-36-31-36 z M1101 503c116 0 233 24 233 160 0 127-99 236-233 236-131 0-234-108-234-236 0-141 125-160 234-160 z M1707 503c109 0 229 22 229 160 0 125-96 236-229 236-128 0-229-107-229-236 0-141 124-160 229-160 z" fill="#212121"/>
	</g></svg>
