<svg version="1.1" xmlns="http://www.w3.org/2000/svg" viewBox="0 0 2300 2300"><g transform="scale(1,-1) translate(-256, -1869)">
		<path d="M1406-287c547 0 1006 440 1006 1006 0 547-440 1006-1006 1006-547 0-1006-440-1006-1006 0-547 440-1006 1006-1006 z" fill="#FFB02E"/>
		<path d="M1406-144c124 0 264 27 381 89 19 9 30 26 30 47 0 9-3 19-8 28l-264 459c-6 9-14 14-24 14-3 0-7-1-11-3-33-15-68-23-104-23-36 0-71 8-104 23-4 2-8 3-11 3-10 0-18-5-24-14l-265-459c-5-7-7-16-7-27 0-21 13-38 30-48 109-61 262-89 381-89 z M1406 575c81 0 144 67 144 144 0 81-67 144-144 144-81 0-144-67-144-144 0-81 67-144 144-144 z M1129 719c32 0 29 44 34 66 16 64 51 95 97 138 7 7 11 12 11 23 0 12-241 430-268 472-11 18-27 27-47 27-11 0-21-3-30-9-186-113-324-332-368-555-7-35-13-69-13-104 0-31 20-58 54-58l530 0 z M2213 719c34 0 54 27 54 58 0 17-1 35-4 52-41 236-156 469-377 607-9 6-19 9-30 9-20 0-36-9-47-27-28-44-268-459-268-472 0-11 4-16 11-23 44-42 81-73 97-138 5-21 3-66 34-66l530 0 z" fill="#000000"/>
	</g></svg>
