<svg version="1.1" xmlns="http://www.w3.org/2000/svg" viewBox="0 0 2300 2300"><g transform="scale(1,-1) translate(-256, -1869)">
		<path d="M1406-287c547 0 1006 440 1006 1006 0 547-440 1006-1006 1006-547 0-1006-440-1006-1006 0-547 440-1006 1006-1006 z" fill="#FFB02E"/>
		<path d="M1811 36c16 0 56 1 56 22 0 21-24 16-45 22-157 27-292 166-292 349 0 188 152 351 353 351 63 0 123-16 176-47 46-26 75-63 112-102 5-5 9-7 14-7 11 0 18 7 18 18l0 4c-8 29-12 30-19 43-88 156-233 236-394 236 40 68 60 143 60 222 0 67-18 146-53 215-14 26-34 65-54 65-11 0-18-7-18-18 0-3 1-5 2-8 20-51 32-97 32-150 0-191-157-351-353-351-193 0-352 155-352 352 0 53 13 97 32 148 1 3 2 5 2 8 0 10-9 19-20 19-5 0-10-2-13-7-60-67-93-181-93-273 0-77 21-154 59-222-181 0-348-111-411-276l-1-4c0-12 5-22 18-22 6 0 11 3 15 8l55 59c53 54 142 90 232 90 188 0 354-149 354-352 0-170-120-314-292-348-22-6-45-1-45-22 0-5 2-9 7-12 13-10 38-10 48-10 168 0 320 72 405 222 84-148 231-222 405-222 z M1647 327c7 0 14 2 20 6 94 57 166 168 193 279 4 17 10 33 10 52 0 22-14 41-37 41-20 0-31-13-35-32-31-140-55-186-171-281-11-9-16-19-16-30 0-19 15-35 36-35 z M1169 322c-7 0-14 2-20 6-113 66-210 231-210 364 0 21 12 38 35 38 21 0 34-14 37-34 11-65 19-119 52-175 32-55 75-92 126-133 10-8 16-15 16-30 0-18-17-36-36-36 z M1600 1068c19 0 36 16 36 37 0 59-184 81-230 81-44 0-230-23-230-81 0-18 15-37 36-37 7 0 11 1 16 4 62 28 114 42 178 42 64 0 113-16 177-42 7-3 12-4 17-4 z M1406 611c-63 0-108 50-108 108 0 57 46 108 108 108 57 0 108-46 108-108 0-61-48-108-108-108 z" fill="#000000"/>
	</g></svg>
