<svg version="1.1" xmlns="http://www.w3.org/2000/svg"><g transform="scale(1,-1)">
		<path d="M2125-287c156 0 287 125 287 287l0 1438c0 156-125 287-287 287l-1438 0c-156 0-287-125-287-287l0-1438c0-161 130-287 287-287l1438 0 z" fill="#8D65C5"/>
		<path d="M1406 0c20 0 37 7 51 21 14 14 21 31 21 51l0 171 138-80c12-7 24-10 36-10 20 0 37 7 51 22 14 14 21 31 21 50 0 13-3 26-9 37-7 11-16 19-27 26l-210 121 0 454 359 0c20 0 37 7 51 21 14 14 21 31 21 51 0 19-7 36-21 50-15 14-32 21-51 21l-359 0 0 144 144 0c19 0 36 7 50 22 14 14 21 31 21 50 0 19-7 36-21 51-14 14-31 21-50 21l-144 0c0 14 0 29 1 46 0 17-2 32-6 47-4 15-11 27-21 37-10 9-25 14-46 14-21 0-36-5-46-14-10-10-17-22-21-37-3-12-5-25-5-38l0-55-144 0c-19 0-36-7-50-21-15-15-22-32-22-51 0-19 7-36 22-50 14-15 31-22 50-22l144 0 0-144-359 0c-19 0-36-7-50-21-15-14-22-31-22-50 0-20 7-37 21-51 14-14 31-21 51-21l359 0 0-371c-7 4-16 9-26 16-10 7-20 13-30 19l-32 16c-11 4-20 6-29 6-20 0-37-7-51-21-14-14-21-31-21-50 0-13 3-25 10-36 6-11 15-20 26-27l153-89 0-254c0-20 7-37 21-51 14-14 31-21 51-21 z" fill="#FFFFFF"/>
	</g></svg>
