<svg version="1.1" xmlns="http://www.w3.org/2000/svg"><g transform="scale(1,-1)">
		<path d="M2125-287c156 0 287 125 287 287l0 1438c0 156-125 287-287 287l-1438 0c-156 0-287-125-287-287l0-1438c0-161 130-287 287-287l1438 0 z" fill="#8D65C5"/>
		<path d="M1406 0c395 0 719 319 719 719 0 395-319 719-719 719-395 0-719-319-719-719 0-395 319-719 719-719 z M1478 148l0 368 264-264c-79-56-168-91-264-104 z M1847 350l-369 369 0 571c288-37 503-282 503-571 0-141-49-268-134-369 z M965 350c-85 101-134 228-134 369 0 291 214 534 503 571l0-571-369-369 z M1334 148c-96 13-185 48-264 104l264 264 0-368 z" fill="#FFFFFF"/>
	</g></svg>
