<svg version="1.1" xmlns="http://www.w3.org/2000/svg"><g transform="scale(1,-1)">
		<path d="M2125-287c156 0 287 125 287 287l0 1438c0 156-125 287-287 287l-1438 0c-156 0-287-125-287-287l0-1438c0-161 130-287 287-287l1438 0 z" fill="#8D65C5"/>
		<path d="M1406 0c397 0 719 320 719 720 0 390-319 718-718 718-397 0-720-319-720-719 0-384 308-719 719-719 z M1404 108c167 0 305 133 305 305 0 177-139 301-305 306-171 5-308 129-308 303 0 173 135 308 310 308 334 0 611-269 611-611 0-341-277-611-613-611 z M1406 863c80 0 144 64 144 143 0 80-66 144-145 144-80 0-143-65-143-144 0-80 65-143 144-143 z M1404 261c-86 0-153 69-153 152 0 81 65 153 152 153 82 0 153-65 153-151 0-84-64-154-152-154 z" fill="#FFFFFF"/>
	</g></svg>
