<svg version="1.1" xmlns="http://www.w3.org/2000/svg" viewBox="0 0 2300 2300"><g transform="scale(1,-1) translate(-256, -1869)">
		<path d="M2125-287c156 0 287 125 287 287l0 1438c0 156-125 287-287 287l-1438 0c-156 0-287-125-287-287l0-1438c0-161 130-287 287-287l1438 0 z" fill="#8D65C5"/>
		<path d="M1406-76c48 0 54 39 54 78 157 12 301 74 413 171 16-17 30-33 55-33 30 0 55 22 55 54 0 25-16 39-33 55 99 116 160 259 173 414 37 0 76 7 76 54 0 48-40 54-76 54-11 151-69 296-171 415 16 15 31 29 31 53 0 32-25 54-55 54-23 0-37-14-52-30-122 104-268 161-416 173 0 34-8 74-54 74-46 0-54-39-54-74-148-12-294-69-416-173-15 16-29 30-53 30-29 0-54-22-54-54 0-24 15-38 31-53-102-119-160-264-171-415-37 0-76-7-76-54 0-48 40-54 76-54 13-155 74-298 173-414-17-16-33-30-33-55 0-32 25-54 54-54 25 0 40 14 55 33 116-99 259-159 414-171 0-36 5-78 54-78 z M1406 611c-63 0-108 50-108 108 0 58 49 108 108 108 58 0 108-49 108-108 0-58-49-108-108-108 z M1295 904l-282 282c95 80 212 130 339 142l0-400c-20-5-38-13-57-24 z M1197 771l-400 0c11 124 58 242 139 339l283-283c-11-19-18-37-22-56 z M939 326c-82 96-130 213-141 337l400 0c5-19 13-38 23-55l-282-282 z M1352 110c-127 12-243 61-337 139l283 283c17-9 35-17 54-22l0-400 z M1460 110l0 400c19 5 37 13 54 22l283-283c-94-78-210-127-337-139 z M1873 326l-282 282c10 17 18 36 23 55l400 0c-11-124-59-241-141-337 z M2015 771l-400 0c-5 21-13 40-22 56l282 283c82-98 130-216 140-339 z M1517 904c-19 11-37 19-57 24l0 400c127-12 244-62 339-142l-282-282 z" fill="#FFFFFF"/>
	</g></svg>
