<svg version="1.1" xmlns="http://www.w3.org/2000/svg"><g transform="scale(1,-1)">
		<path d="M1406-287c616 0 1006 391 1006 1006 0 613-388 1006-1006 1006-616 0-1006-391-1006-1006 0-613 388-1006 1006-1006 z" fill="#FFB02E"/>
		<path d="M1806 697c168 0 305 136 305 305 0 167-133 305-305 305-168 0-305-136-305-305 0-168 136-305 305-305 z M1005 703c168 0 302 133 302 302 0 168-133 302-302 302-168 0-302-133-302-302 0-168 133-302 302-302 z" fill="#FFFFFF"/>
		<path d="M1838 216c-31 0-50 15-65 40-76 124-219 175-367 175-142 0-293-50-367-175-15-25-34-40-65-40-40 0-71 34-71 72 0 47 40 85 65 113 113 124 276 174 438 174 163 0 325-51 437-174 27-29 66-73 66-114 0-39-33-71-71-71 z M1765 791c121 0 216 97 216 215 0 121-99 216-216 216-119 0-215-97-215-216 0-120 97-215 215-215 z M1047 791c120 0 215 97 215 215 0 121-97 216-215 216-120 0-216-95-216-216 0-119 97-215 216-215 z" fill="#402A32"/>
	</g></svg>
