<svg version="1.1" xmlns="http://www.w3.org/2000/svg"><g transform="scale(1,-1)">
		<path d="M1406-287c616 0 1006 391 1006 1006 0 613-388 1006-1006 1006-616 0-1006-391-1006-1006 0-613 388-1006 1006-1006 z" fill="#FFB02E"/>
		<path d="M1981 575c81 0 216 43 216 144 0 102-136 144-216 144-81 0-216-43-216-144 0-102 136-144 216-144 z M831 575c81 0 216 43 216 144 0 102-136 144-216 144-81 0-216-43-216-144 0-102 136-144 216-144 z" fill="#F8312F"/>
		<path d="M1980 863c39 0 73 31 73 72l-1 12c-21 126-126 203-251 203-128 0-226-74-250-202l-1-14c0-41 34-71 72-71 105 0 35 143 179 143 143 0 79-143 179-143 z M1190 863c41 0 72 33 72 71l-1 13c-22 129-128 203-250 203-128 0-227-73-251-202l-1-6c0-49 29-79 72-79 103 0 37 143 180 143 47 0 72-15 88-37 29-42 22-106 91-106 z M2089 1150c19 0 36 16 36 37 0 4-1 7-2 11-41 132-174 240-322 240-19 0-36-15-36-36 0-19 15-36 36-36 122 0 210-81 254-191 7-17 18-25 34-25 z M723 1150c16 0 27 8 34 25 45 112 134 191 254 191 18 0 36 17 36 36 0 18-17 36-36 36-139 0-278-98-322-240-1-4-2-7-2-11 0-21 17-37 36-37 z" fill="#402A32"/>
		<path d="M1406 252c148 0 304 43 429 147 32 27 74 60 74 104 0 38-31 72-71 72-25 0-42-10-58-29-97-108-244-150-374-150-136 0-284 47-374 150-16 19-33 29-58 29-40 0-71-34-71-72 0-29 17-53 42-75 150-138 308-176 461-176 z" fill="#402A32"/>
	</g></svg>
