<svg version="1.1" xmlns="http://www.w3.org/2000/svg" viewBox="0 0 2300 2300"><g transform="scale(1,-1) translate(-256, -1869)">
		<path d="M2125-287c156 0 287 125 287 287l0 1438c0 156-125 287-287 287l-1438 0c-156 0-287-125-287-287l0-1438c0-161 130-287 287-287l1438 0 z" fill="#F70A8D"/>
		<path d="M1406-72c39 0 72 31 72 72l0 166 167 0c38 0 72 30 72 71 0 39-31 72-72 72l-167 0 0 103c277 35 479 274 479 546 0 303-245 552-551 552-303 0-551-245-551-552 0-270 199-511 479-546l0-103-167 0c-39 0-72-31-72-72 0-41 34-71 72-71l167 0 0-166c0-39 31-72 72-72 z M1406 551c-223 0-408 179-408 407 0 223 180 408 408 408 222 0 407-179 407-408 0-222-179-407-407-407 z" fill="#FFFFFF"/>
	</g></svg>
