<svg version="1.1" xmlns="http://www.w3.org/2000/svg" viewBox="0 0 2300 2300"><g transform="scale(1,-1) translate(-256, -1869)">
		<path d="M2125-287c156 0 287 125 287 287l0 1438c0 156-125 287-287 287l-1438 0c-156 0-287-125-287-287l0-1438c0-161 130-287 287-287l1438 0 z" fill="#00A6ED"/>
		<path d="M1277 6c307 0 575 248 575 575 0 131-44 254-120 351l249 252 0-127c0-39 31-72 72-72 39 0 72 31 72 72l0 309c0 39-31 72-72 72l-303 0c-39 0-72-31-72-72 0-39 31-72 72-72l137 0-257-260c-97 78-221 122-353 122-307 0-575-248-575-575 0-315 252-575 575-575 z M1277 150c-234 0-431 190-431 431 0 234 190 431 431 431 234 0 431-190 431-431 0-234-190-431-431-431 z" fill="#FFFFFF"/>
	</g></svg>
