<svg version="1.1" xmlns="http://www.w3.org/2000/svg" viewBox="0 0 2300 2300"><g transform="scale(1,-1) translate(-256, -1869)">
		<path d="M2125-287c156 0 287 125 287 287l0 1438c0 156-125 287-287 287l-1438 0c-156 0-287-125-287-287l0-1438c0-161 130-287 287-287l1438 0 z" fill="#8D65C5"/>
		<path d="M1406-36c77 0 141 54 154 132l173 1098c11 80 81 136 159 136 87 0 161-69 161-161 0-39 31-72 72-72 39 0 72 34 72 72 0 168-136 305-305 305-148 0-276-107-301-258l-173-1098c-1-7-5-10-12-10-7 0-11 3-12 10l-173 1099c-24 147-151 257-301 257-168 0-305-136-305-305 0-38 33-72 72-72 39 0 72 31 72 72 0 87 69 161 161 161 78 0 145-52 159-136l173-1098c11-78 80-132 154-132 z" fill="#FFFFFF"/>
	</g></svg>
