<svg version="1.1" xmlns="http://www.w3.org/2000/svg"><g transform="scale(1,-1)">
		<path d="M2125-287c156 0 287 125 287 287l0 1438c0 156-125 287-287 287l-1438 0c-156 0-287-125-287-287l0-1438c0-161 130-287 287-287l1438 0 z" fill="#8D65C5"/>
		<path d="M1406 36c307 0 575 248 575 575 0 231-138 432-336 523 95 84 218 124 336 124 39 0 72 34 72 72 0 38-33 72-72 72-172 0-287-53-432-162-44-34-88-54-143-54-55 0-97 18-143 54-137 105-259 162-432 162-39 0-72-34-72-72 0-39 31-72 72-72 118 0 241-40 336-124-207-94-336-302-336-523 0-307 248-575 575-575 z M1406 180c-234 0-431 190-431 431 0 234 190 431 431 431 234 0 431-190 431-431 0-234-190-431-431-431 z" fill="#FFFFFF"/>
	</g></svg>
