<svg version="1.1" xmlns="http://www.w3.org/2000/svg" viewBox="0 0 2300 2300"><g transform="scale(1,-1) translate(-256, -1869)">
		<path d="M2125-287c156 0 287 125 287 287l0 1438c0 156-125 287-287 287l-1438 0c-156 0-287-125-287-287l0-1438c0-161 130-287 287-287l1438 0 z" fill="#8D65C5"/>
		<path d="M2053-3c38 0 72 33 72 72 0 31-16 50-41 65-87 52-206 88-319 115l0 940c102 24 229 61 319 115 25 15 41 34 41 65 0 38-33 72-72 72-12 0-21-3-32-8-200-88-386-142-615-142-222 0-407 50-615 142-11 5-20 8-32 8-39 0-72-34-72-72 0-31 16-50 40-65 79-50 222-90 320-115l0-940c-73-18-165-43-248-78-55-24-112-48-112-102 0-38 33-72 72-72 12 0 21 3 32 8 200 88 386 142 615 142 223 0 417-52 615-142 12-5 19-8 32-8 z M1190 275l0 887c72-10 144-15 216-15 72 0 144 5 216 15l0-886c-72 10-144 15-216 15-72 0-144-5-216-16 z" fill="#FFFFFF"/>
	</g></svg>
