<svg version="1.1" xmlns="http://www.w3.org/2000/svg" viewBox="0 0 2300 2300"><g transform="scale(1,-1) translate(-256, -1869)">
		<path d="M2125-287c156 0 287 125 287 287l0 1438c0 156-125 287-287 287l-1438 0c-156 0-287-125-287-287l0-1438c0-161 130-287 287-287l1438 0 z" fill="#8D65C5"/>
		<path d="M1837-108c161 0 288 128 288 288 0 38-33 72-72 72-39 0-72-31-72-72 0-82-66-144-148-144-77 0-139 70-139 149 0 34 8 67 25 98l294 565c30 57 40 132 40 194 0 268-210 504-501 504-268 0-505-214-505-504 0-51 7-99 21-146-10 1-16 2-26 2-194 0-355-158-355-355 0-195 154-354 354-354 194 0 355 158 355 355 0 78-23 135-53 184-59 92-153 155-153 314 0 194 156 360 360 360 200 0 359-163 359-360 0-35-9-102-24-130l-294-563c-27-52-41-110-41-169 0-161 129-288 287-288 z M1042 332c-120 0-211 98-211 211 0 120 99 210 211 210 113 0 210-91 210-210 0-116-93-211-210-211 z" fill="#FFFFFF"/>
	</g></svg>
