<svg version="1.1" xmlns="http://www.w3.org/2000/svg"><g transform="scale(1,-1)">
		<path d="M2125-287c156 0 287 125 287 287l0 1438c0 156-125 287-287 287l-1438 0c-156 0-287-125-287-287l0-1438c0-161 130-287 287-287l1438 0 z" fill="#8D65C5"/>
		<path d="M2209 30c38 0 72 33 72 72 0 23-11 45-29 58l-153 113c130 77 214 219 214 375l0 239c0 183-148 336-336 336-70 0-137-22-192-61 0 165-118 299-287 299-85 0-161-37-216-97-57 64-137 97-215 97-85 0-161-37-216-97-54 60-131 97-216 97-38 0-71-32-71-71 0-38 31-72 71-72 81 0 144-67 144-144l0-863c0-40 34-71 72-71 38 0 72 31 72 71l0 863c0 81 67 144 144 144 80 0 143-65 143-144l0-863c0-40 34-71 72-71 38 0 72 31 72 71l0 863c0 81 67 144 144 144 81 0 144-67 144-144l0-526c0-152 82-299 214-375l-153-113c-18-13-29-35-29-58 0-39 34-72 72-72 15 0 29 5 42 14l189 139 189-139c13-9 27-14 43-14 z M1977 369c-112 64-192 141-192 279l0 239c0 103 84 192 192 192 105 0 192-84 192-192l0-239c0-138-76-214-192-279 z" fill="#FFFFFF"/>
	</g></svg>
