<svg version="1.1" xmlns="http://www.w3.org/2000/svg"><g transform="scale(1,-1)">
		<path d="M2125-287c156 0 287 125 287 287l0 1438c0 156-125 287-287 287l-1438 0c-156 0-287-125-287-287l0-1438c0-161 130-287 287-287l1438 0 z" fill="#8D65C5"/>
		<path d="M2053 72c39 0 72 34 72 72 0 38-33 72-72 72l-1294 0c-38 0-72-33-72-72 0-39 34-72 72-72l1294 0 z M2053 360c38 0 72 31 72 71 0 38-33 72-72 72l-149 0c52 90 77 189 77 288 0 307-248 575-575 575-307 0-575-248-575-575 0-99 25-198 77-288l-149 0c-38 0-72-33-72-72 0-40 34-71 72-71l295 0c38 0 72 30 72 70 0 30-18 50-40 73-73 72-111 189-111 288 0 234 190 431 431 431 234 0 431-190 431-431 0-93-30-191-92-268-26-32-59-53-59-93 0-40 34-70 72-70l295 0 z" fill="#FFFFFF"/>
	</g></svg>
