<svg version="1.1" xmlns="http://www.w3.org/2000/svg"><g transform="scale(1,-1)">
		<path d="M2125-287c156 0 287 125 287 287l0 1438c0 156-125 287-287 287l-1438 0c-156 0-287-125-287-287l0-1438c0-161 130-287 287-287l1438 0 z" fill="#8D65C5"/>
		<path d="M1154-54c155 0 296 91 360 232 77-82 182-124 287-124 213 0 396 173 396 395 0 217-174 396-396 396-95 0-183-33-251-91l0 378c0 194-156 360-360 360-105 0-202-46-268-122-55 73-139 122-235 122-39 0-72-34-72-72 0-38 33-72 72-72 81 0 144-67 144-144l0-862c0-39 31-72 72-72 38 0 72 33 72 72l0 790c0 117 94 216 215 216 121 0 216-99 216-216l0-790c0-139-113-252-252-252-40 0-71-34-71-72 0-38 31-72 71-72 z M1801 198c-140 0-251 116-251 251 0 140 115 252 251 252 139 0 252-113 252-252 0-135-111-251-252-251 z" fill="#FFFFFF"/>
	</g></svg>
