<svg version="1.1" xmlns="http://www.w3.org/2000/svg" viewBox="0 0 2300 2300"><g transform="scale(1,-1) translate(-256, -1869)">
		<path d="M1829-287c64 0 118 51 118 116 0 71-55 113-123 116-158 8-273 126-273 276l0 228 46-101c72-157 225-249 389-249 227 0 426 179 426 426 0 103-37 194-99 268l-699 835c-53 64-129 97-208 97-79 0-156-33-209-97l-698-835c-62-74-99-165-99-268 0-238 190-426 427-426 122 0 237 51 322 146 52 58 80 130 113 204l0-228c0-154-120-268-273-276-68-3-123-45-123-116 0-64 53-116 117-116l846 0 z" fill="#635994"/>
	</g></svg>
