<svg version="1.1" xmlns="http://www.w3.org/2000/svg"><g transform="scale(1,-1)">
		<path d="M1834-287c68 0 119 52 119 117 0 72-58 113-125 116-151 5-277 120-277 277l0 90c0 11 8 19 19 19 5 0 10-2 14-6 103-92 211-142 345-142 252 0 483 199 483 475 0 258-211 475-483 475-24 0-45 16-45 42 0 24 6 48 6 73 0 267-221 476-484 476-264 0-484-209-484-474 0-25 5-50 5-74 0-26-22-42-44-42-264 0-483-210-483-475 0-266 221-474 486-474 131 0 234 46 340 140 4 4 9 6 14 6 11 0 19-8 19-19l0-90c0-158-127-272-277-277-64-3-125-47-125-115 0-66 50-118 119-118l858 0 z" fill="#635994"/>
	</g></svg>
