<svg version="1.1" xmlns="http://www.w3.org/2000/svg"><g transform="scale(1,-1)">
		<path d="M1903 209c271 0 506 218 506 506 0 270-216 507-508 507-110 0-216-34-308-105-55-42-96-96-135-147l-311-411c-62-80-138-129-242-129-161 0-285 128-285 286 0 158 128 285 286 285 147 0 195-102 269-102 60 0 109 49 109 108 0 17-3 31-8 43-45 93-230 164-375 164-292 0-501-208-501-498 0-271 218-506 506-506 109 0 216 34 310 105 54 40 95 95 135 148 105 137 207 276 313 412 66 83 138 127 239 127 159 0 285-125 285-287 0-158-127-286-285-286-146 0-192 103-267 103-61 0-110-47-110-109 0-17 3-32 10-44 51-94 222-170 367-170 z" fill="#00A6ED"/>
	</g></svg>
