<svg version="1.1" xmlns="http://www.w3.org/2000/svg"><g transform="scale(1,-1)">
		<path d="M1230-51l50 54c388 32 701 360 701 752 0 114-4 185-71 278l430-170 72 143-902 443c-83 39-196 61-293 61-414 0-745-340-745-755 0-396 303-729 701-753l57-53 z" fill="#AEDDFF"/>
		<path d="M1227 72c393 0 682 340 682 719l-1366 0c0-384 294-719 684-719 z" fill="#00D26A"/>
		<path d="M1047 144c40 0 71 34 71 72 0 38-31 72-71 72-39 0-72-31-72-72 0-39 31-72 72-72 z M1190 503c39 0 72 31 72 72 0 39-31 72-72 72-38 0-72-33-72-72 0-38 33-72 72-72 z M903 575c39 0 72 31 72 72 0 39-31 72-72 72-39 0-72-31-72-72 0-39 31-72 72-72 z" fill="#D3F093"/>
		<path d="M1657 395c28 0 51 16 65 40 42 78 58 190 58 284 0 28-2 58-5 89-12 113-71 270-154 270-38 0-71-31-71-72 0-20 8-35 21-50 51-57 65-159 65-237 0-76-12-150-43-219-5-11-8-21-8-32 0-41 34-73 72-73 z" fill="#FFFFFF"/>
		<path d="M1226-287c30 0 54 22 54 54l0 236c-21-2-42-3-63-3-15 0-30 1-45 2l0-235c0-32 24-54 54-54 z M1999-287c30 0 54 21 54 53 0 12-4 23-11 32l-435 598 320 0c29 0 54 21 54 53 0 32-24 54-54 54l-1402 0c-32 0-53-25-53-54 0-29 23-53 53-53l321 0-436-598c-7-9-10-19-10-31 0-30 22-54 54-54 18 0 32 7 43 22l482 661 494 0 482-661c11-15 25-22 44-22 z" fill="#635994"/>
	</g></svg>
