<svg version="1.1" xmlns="http://www.w3.org/2000/svg"><g transform="scale(1,-1)">
		<path d="M2125-287c156 0 287 125 287 287l0 1438c0 156-125 287-287 287l-1438 0c-156 0-287-125-287-287l0-1438c0-161 130-287 287-287l1438 0 z" fill="#8D65C5"/>
		<path d="M1406-144c156 0 254 208 300 343 60-13 121-21 184-21 128 0 286 41 286 202 0 123-94 252-170 339 77 85 170 218 170 338 0 162-158 202-286 202-63 0-124-8-184-21-44 123-138 343-300 343-159 0-260-219-300-343-60 13-121 21-184 21-128 0-286-41-286-202 0-122 93-253 170-338-77-88-170-218-170-339 0-162 158-202 286-202 63 0 124 8 184 21 40-124 142-343 300-343 z M1406 417c-91 44-179 94-262 151-4 50-6 100-6 151 0 51 2 101 6 151 84 56 170 107 262 151 92-43 177-95 261-151 4-51 7-100 7-151 0-51-2-101-6-151-83-57-171-107-262-151 z M1162 1010c5 33 12 65 19 98 32-9 64-20 95-32-40-22-74-43-114-66 z M1181 330c-7 32-14 64-19 97l114-66c-31-12-63-22-95-31 z M1032 653c-26 21-51 43-75 66 24 23 49 45 75 66-1-22-1-44-1-66 0-22 0-44 1-66 z M920 286c-59 0-177 8-177 93 0 90 86 204 139 262 51-48 104-92 160-133 8-69 19-137 35-205-52-11-104-17-157-17 z M882 796c-56 62-139 177-139 262 0 84 119 93 177 93 53 0 105-6 157-17-17-68-27-136-35-205-56-41-109-85-160-133 z M1406 1139c-64 28-127 53-195 72 24 72 103 262 195 262 92 0 172-194 195-262-68-19-131-44-195-72 z M1650 1010c-40 23-74 44-114 66 31 12 63 21 94 32 8-32 15-65 20-98 z M1780 653l2 66-2 66c26-21 51-43 75-66-24-23-49-45-75-66 z M1930 796c-51 47-104 92-160 133-8 69-19 137-35 205 52 11 104 17 157 17 61 0 177-10 177-93 0-88-82-197-139-262 z M1892 286c-53 0-105 6-157 17 16 68 27 136 35 205 56 41 109 85 160 133 53-61 139-171 139-262 0-87-120-93-177-93 z M1631 330c-32 9-64 19-95 31l114 66c-5-33-12-65-19-97 z M1406-36c-92 0-171 191-195 262 66 20 131 44 195 72 64-28 129-52 195-72-24-71-104-262-195-262 z M1406 593c69 0 126 56 126 126 0 69-56 126-126 126-69 0-126-56-126-126 0-69 56-126 126-126 z" fill="#FFFFFF"/>
	</g></svg>
