<svg version="1.1" xmlns="http://www.w3.org/2000/svg"><g transform="scale(1,-1)">
		<path d="M1896-291c28 0 57 11 77 31l253 254c26 26 42 63 42 102l0 215-359-167-623 575c-121 113-196 193-311 287-56 45-100 61-160 97l-321 194-21-278c0-13 2-26 6-38l85-295c19-66 59-121 112-157l1159-801c19-13 39-19 61-19 z" fill="#6D4534"/>
		<path d="M1446 67c19 0 35 17 35 36 0 11-5 21-15 29l-183 132c-7 5-14 7-21 7-18 0-36-15-36-36 0-11 5-21 15-29l183-132c5-5 13-7 22-7 z M1014 363c19 0 36 18 36 36 0 11-5 21-15 29l-182 133c-7 5-14 7-21 7-21 0-37-17-37-36 0-11 5-21 15-29l183-133c7-5 14-7 21-7 z" fill="#D3883E"/>
		<path d="M1897-41c29 0 54 10 75 30l261 249c23 23 35 52 35 83 0 25-7 47-20 66l-805 1152c-27 39-65 67-112 82l-322 102c-20 7-42 10-65 10-57 0-109-21-148-59l-233-219c-45-42-68-97-68-156 0-23 4-46 11-69l115-347c21-61 59-113 110-147l1106-758c19-13 39-19 60-19 z" fill="#8C5543"/>
		<path d="M1227 843c14 0 26 11 26 26 0 16-18 71-23 89 19-5 79-23 95-23 15 0 25 13 25 27 0 10-9 22-20 25l-115 29-7 26c44 8 66 50 66 91-26-9-62-23-77-50l-37 135c-3 12-14 20-26 20-15 0-25-11-25-26 0-13 42-159 48-182-21 5-145 39-156 39-15 0-27-12-27-26 0-12 8-23 20-26l121-30c-33-15-47-53-47-85 31 10 85 36 85 75l19-4 30-111c3-10 14-19 25-19 z" fill="#86D72F"/>
		<path d="M1008 957c15 0 28 5 38 15 10 10 15 23 15 38 0 6-1 12-3 18 10 4 18 11 23 20 5 9 8 18 8 29 0 10-3 20-10 30 8-3 16-5 23-5 11 0 20 3 29 8 9 5 16 13 21 22l10-3c3-1 6-1 9-1 15 0 27 5 38 15 11 10 16 23 16 38 0 12-4 23-11 32 3 6 5 13 5 21 0 15-5 28-15 39-11 10-24 15-39 15l-12-2c-3-1-6-1-9-1-5 8-12 14-20 19-8 4-17 6-26 6-17 0-31-6-42-19-8-10-13-21-13-33l2-13c-9-5-15-11-20-19-5-8-8-17-8-26 0-10 3-19 9-28 5-9 13-16 22-20l4-14c1-4 3-9 6-14l-7 4c-3 0-5 0-7 1-4 11-11 19-20 26-9 7-20 10-31 10-11 0-20-3-28-9-9-7-15-15-19-24-3 1-7 1-12 1-15 0-27-5-37-15-11-11-16-23-16-37 0-9 2-18 7-26 5-8 11-15 18-20-1-3-2-9-2-16 0-14 5-26 14-36 9-11 21-16 36-16 7 0 14 1 19 4 5-5 11-8 16-10 5-3 12-4 19-4 z" fill="#E39D89"/>
		<path d="M988 1026c18 0 34 15 34 34 0 18-13 35-34 35-18 0-35-16-35-35 0-18 16-34 35-34 z M1123 1170c18 0 34 15 34 34 0 19-16 35-34 35-18 0-35-16-35-35 0-18 16-34 35-34 z" fill="#FFE5D9"/>
	</g></svg>
