<svg version="1.1" xmlns="http://www.w3.org/2000/svg" viewBox="0 0 2300 2300"><g transform="scale(1,-1) translate(-256, -1869)">
		<path d="M1406-253c535 0 972 430 972 972 0 535-430 972-972 972-535 0-972-430-972-972 0-535 430-972 972-972 z" fill="#F4F4F4"/>
		<path d="M1473-249c20 0 42 2 65 5 38 4 92 11 92 44 0 23-11 36-33 39-142 18-261 54-374 132-7 4-13 8-21 8-25 0-58-42-58-65 0-12 5-22 14-29 73-60 172-96 257-121 17-5 39-13 58-13 z M921-116c9 0 18 4 25 11 15 15 41 32 41 56 0 24-38 62-61 62-9 0-18-4-25-11-16-16-47-35-47-61 0-27 44-57 67-57 z M1905-107c18 0 57 25 60 47l34 269c0 39-38 45-71 45-18 0-33-13-36-32l-36-287-1-6c0-27 26-36 50-36 z M1270 20c5 0 10 1 15 3l467 216c14 7 21 17 21 32 0 9-2 17-7 25-14 24-20 44-45 44-5 0-10-1-14-3l-467-216c-14-6-21-17-21-33 0-8 2-16 7-24 12-24 19-44 44-44 z M818 96c24 0 62 36 62 61 0 9-3 17-9 23l-323 359c-7 8-17 12-28 12-21 0-57-32-57-55 0-11 5-29 12-37l316-351c7-8 16-12 27-12 z M2096 415c7 0 12 1 17 4l216 108c12 7 19 18 19 33 0 5-1 10-3 15-10 21-20 52-49 52-6 0-11-1-16-4l-215-107c-13-7-20-17-20-32 0-7 1-12 4-17 10-21 18-52 47-52 z M993 250c8 0 16 3 22 9 7 7 12 15 13 24l36 434c0 10-2 18-7 23-5 5-10 8-17 11-7 3-15 4-23 5l-24 0c-9 0-17-3-24-9-7-7-11-15-12-24l-36-434c0-10 2-17 7-22 5-5 10-9 17-11 7-3 14-4 22-4l26-2 z M1685 524c13 0 23 6 30 18 9 15 24 30 24 49 0 12-7 24-18 31l-432 251c-7 3-13 5-18 5-14 0-24-6-30-17-11-19-24-37-24-50 0-12 7-24 18-31l431-251c7-3 13-5 19-5 z M479 739c7 0 12 1 17 4l431 215c13 7 20 17 20 32 0 7-1 11-4 16-11 22-19 53-49 53-3 0-8-1-15-4l-419-210c-21-11-22-37-22-56 0-24 16-50 41-50 z M1966 635c30 0 69 2 69 42l-36 477c-1 18-17 33-36 33-31 0-72 0-72-41l36-478c3-21 21-33 39-33 z M1306 1098c4 0 9 1 16 4l360 180c13 7 20 17 20 31 0 7-1 12-4 17-10 21-19 52-48 52-7 0-12-1-17-4l-359-180c-13-7-20-17-20-31 0-7 1-12 4-17 11-21 19-52 48-52 z M993 1184c31 0 71 3 71 46l-36 251c-3 18-17 31-36 31-32 0-71-5-71-46l36-252c3-17 17-30 36-30 z" fill="#BEBEBE"/>
		<path d="M1910 153c26 0 49 14 62 35l164 275c7 11 11 24 11 37 0 15-5 29-14 42l-119 167c-13 19-37 30-59 30-9 0-17-2-26-5l-262-105c-29-11-45-37-45-67l0-289c0-33 23-63 56-70l216-48 16-2 z M1193-136c38 0 73 28 80 68 5 40 20 101 20 141 0 25-14 47-33 60l-251 167c-13 9-27 13-40 13-11 0-21-3-32-8l-129-65c-22-11-38-32-38-58 0-7 1-13 3-19 23-77 76-147 130-199 67-67 192-100 290-100 z M999 662c9 0 18 2 27 6l263 105c26 11 45 36 45 66l0 288c0 36-25 64-58 71l-260 52c-30 0-52-8-68-32l-161-241c-8-12-12-25-12-39 0-17 5-31 15-44l152-203c14-19 33-29 57-29 z M1969 1097c21 0 38 7 52 21l63 64c14 14 21 31 21 50 0 13-4 26-11 39l-117 188c-25 19-53 38-82 56-52 5-150 22-201 22-39 0-72-31-72-72l0-130c0-26 13-49 34-62l277-166c11-7 23-10 36-10 z M2280 389c40 105 60 217 60 330 0 85-11 169-34 252l-2 0c6-51 9-103 9-155 0-60-3-125-21-186-15-52-48-82-48-134 0-38 13-77 36-107 z M1563-202c166 27 318 100 444 205-33-13-66-24-98-39-108-47-215-95-323-143l-23-23 z M508 460l35 7 0 367c0 32-19 145-24 179-32-96-47-194-47-294 0-88 11-175 36-259 z M765 1386c4 0 8 1 12 2l189 47c29 8 248 137 280 153 22 11 34 35 37 57-204-27-387-119-531-259l13 0 z" fill="#3F5FFF"/>
		<path d="M1406-287c547 0 1006 440 1006 1006 0 547-440 1006-1006 1006-547 0-1006-440-1006-1006 0-547 440-1006 1006-1006 z M1406-215c-517 0-934 419-934 934 0 517 419 934 934 934 517 0 934-419 934-934 0-517-419-934-934-934 z" fill="#1C5CD7"/>
	</g></svg>
