<svg version="1.1" xmlns="http://www.w3.org/2000/svg" viewBox="0 0 2300 2300"><g transform="scale(1,-1) translate(-256, -1869)">
		<path d="M1406-359c586 0 1078 472 1078 1078 0 586-472 1078-1078 1078-586 0-1078-472-1078-1078 0-586 472-1078 1078-1078 z" fill="#9B9B9B"/>
		<path d="M1406-287c547 0 1006 440 1006 1006 0 547-440 1006-1006 1006-547 0-1006-440-1006-1006 0-547 440-1006 1006-1006 z" fill="#F4F4F4"/>
		<path d="M1469-285c24 1 48 3 72 7-11 99-34 194-67 285-166 452-563 786-1065 847-4-24-6-48-7-72 553-68 997-498 1067-1067 z M2403 584l7 72c-553 67-1002 503-1067 1067l-72-7c67-583 536-1064 1132-1132 z" fill="#636363"/>
		<path d="M2275 495c21 0 36 18 36 36 0 22-32 87-40 112l76 73c7 7 11 16 11 26 0 19-15 36-36 36-9 0-17-3-25-10l-93-90c-7-7-11-16-11-26 0-12 9-40 21-66 24-59 31-91 61-91 z M1916 629c18 0 36 15 36 36 0 34-4 72-7 108l95 47c13 7 20 17 20 31 0 21-17 37-36 37-16 0-69-28-104-47-42-22-48-23-48-47 0-44 5-89 8-131 1-19 18-34 36-34 z M1599 866c19 0 34 12 37 29l20 103 104 21c16 3 29 17 29 35 0 18-15 36-36 36-15 0-40-5-65-10-54-13-90-14-97-44-5-32-27-107-27-134 0-19 17-36 35-36 z M1379 1142c15 0 25 7 32 20l47 95c34-3 72-7 108-7 18 0 36 14 36 36 0 18-15 34-34 35-42 3-87 9-131 9-15 0-26-7-33-20-13-24-61-109-61-133 0-18 17-35 36-35 z M1246 1476c11 0 20 4 27 13l69 81c26-8 88-34 111-34 21 0 37 17 37 36 0 14-11 29-26 34-25 8-112 41-134 41-11 0-21-4-28-13l-83-98c-6-7-9-15-9-24 0-18 17-36 36-36 z" fill="#F8312F"/>
		<path d="M1384-231c11 0 20 4 27 12l71 78c25-8 90-37 111-37 21 0 36 18 36 36 0 15-10 29-24 34-26 8-111 45-134 45-11 0-20-4-27-12l-87-96c-6-7-9-15-9-24 0-19 15-36 36-36 z M1279 64c16 0 27 7 33 20l47 94c36-3 73-6 108-6 19 0 36 15 36 36 0 18-15 34-34 35-42 3-87 9-131 9-15 0-26-7-33-20-13-24-61-109-61-133 0-19 16-35 35-35 z M1096 309c19 0 34 12 37 29l20 103 104 21c16 3 29 17 29 35 0 18-15 36-36 36-15 0-40-5-65-10-54-13-90-14-97-44-5-32-27-107-27-134 0-19 17-36 35-36 z M857 515c19 0 36 16 36 35 0 36-4 74-7 108l95 47c13 7 20 17 20 32 0 19-16 36-37 36-16 0-68-26-103-46-42-24-48-24-48-47 0-21 1-43 3-66 4-44-2-99 41-99 z M561 645c21 0 35 18 35 36 0 24-35 88-45 111l73 77c7 8 10 16 10 25 0 19-15 36-36 36-9 0-18-4-26-12l-90-93c-7-8-10-16-10-25 0-12 10-37 24-65 28-61 34-90 65-90 z" fill="#F8312F"/>
	</g></svg>
