<svg version="1.1" xmlns="http://www.w3.org/2000/svg" viewBox="0 0 2300 2300"><g transform="scale(1,-1) translate(-256, -1869)">
		<path d="M1373-362c394 0 805 83 805 561 0 233-100 453-272 603 35 59 48 125 48 193 0 319-259 581-582 581-319 0-581-256-581-581 0-68 12-135 47-194-169-153-270-366-270-602 0-482 416-561 805-561 z" fill="#B4ACBC"/>
		<path d="M1821 459c9 0 17 3 24 9l119 104 162 0c19 0 36 15 36 36 0 19-15 36-36 36l-80 0 170 148c8 7 12 16 12 27 0 19-17 36-35 36-9 0-17-3-24-9l-79-68 0 115c0 19-15 36-36 36-19 0-36-15-36-36l0-174 1-4-221-193c-9-7-13-17-13-28 0-19 17-35 36-35 z M920 459c19 0 36 15 36 36 0 11-4 20-12 27l-221 193 0 178c0 19-15 36-36 36-19 0-36-15-36-36l0-115-78 68c-7 6-15 9-24 9-19 0-36-16-36-35 0-11 4-21 13-28l168-147-82 0c-18 0-36-17-36-36 0-19 15-36 36-36l164 0 120-105c7-6 15-9 24-9 z" fill="#433B6B"/>
		<path d="M1373-290c354 0 733 59 733 489 0 235-111 453-302 593 62 52 78 128 78 203 0 278-225 509-510 509-279 0-509-225-509-509 0-75 15-152 77-204-191-140-300-361-300-592 0-445 408-489 733-489 z" fill="#FFFFFF"/>
		<path d="M1766 70c9 0 18 4 25 11 7 7 11 15 11 24 0 14 0 28 1 42l0 426-361 0 0-385c0-7 1-11 2-14 0-7 0-16-1-27l-1-17 1-17c1-11 5-21 10-29 5-9 13-13 26-13 10 0 18 2 23 7 5 5 8 11 10 18 1 7 2 14 2 23l0 22 74 0 0-29c0-6 1-11 2-16 2-7 6-13 11-18 5-5 12-8 22-8 10 0 18 2 23 7 5 5 8 11 10 18 2 7 3 15 3 23l0 23 72 0 0-29c0-6 1-11 2-16 2-7 6-13 11-18 5-5 12-8 22-8 z" fill="#0074BA"/>
		<path d="M1373 425c39 0 79 1 120 3 40 1 79 5 117 12 38 6 74 16 107 29 33 13 63 32 88 55 25 23 44 53 59 88 14 35 21 78 21 129 0 19-2 39-5 62-3 22-12 40-25 55-13-27-30-48-52-65-22-17-47-31-75-41-28-11-58-18-89-23-32-5-64-8-95-9l-66-1-109 0c-24 0-51 0-80-1l-24 0c-23 0-45 1-68 2-31 1-63 4-94 9-31 4-61 11-88 22-27 10-52 24-74 41-22 17-39 38-51 65-13-15-21-33-24-55-3-22-5-42-5-61 0-51 7-94 22-129 14-35 34-65 59-88 25-24 54-42 87-55 33-13 69-23 107-30 38-7 77-11 118-12 40-1 80-2 119-2 z" fill="#0084CE"/>
		<path d="M942 1305c27 0 402 167 455 191 19 8 32 27 32 48 0 29-25 50-52 50-15 0-26-5-38-12l-65 25 29 60c-23 55-75 89-134 89-20 0-39-4-57-12l-130-56c-56-24-88-77-88-134 0-21 4-40 12-58l57-23-21-61c-27-11-50-21-50-55 0-27 21-52 50-52 z" fill="#321B41"/>
		<path d="M942 1412l397 170-36 85-397-171 36-84 z" fill="#0074BA"/>
		<path d="M1376 982l295 31c8 1 15 4 21 9 5 4 8 10 8 19 0 9-3 16-8 20-6 4-13 7-21 8l-296 30c-13 0-26-5-36-17-12-13-18-26-18-41 0-15 6-28 17-41 10-12 23-18 38-18 z" fill="#FF6723"/>
		<path d="M1514 1150c19 0 36 15 36 36l0 72c0 19-15 36-36 36-19 0-36-15-36-36l0-72c0-19 15-36 36-36 z M1298 1150c19 0 36 15 36 36l0 72c0 19-15 36-36 36-19 0-36-15-36-36l0-72c0-19 15-36 36-36 z" fill="#433B6B"/>
	</g></svg>
