<svg version="1.1" xmlns="http://www.w3.org/2000/svg" viewBox="0 0 2300 2300"><g transform="scale(1,-1) translate(-256, -1869)">
		<path d="M1787-359c65 0 128 9 188 27 59 17 115 42 167 74 51 32 98 70 140 115 42 44 78 93 108 146 30 53 53 109 70 170 16 61 24 123 24 187 0 66-8 130-25 191-17 61-42 119-73 172-31 53-69 102-112 146-44 43-93 81-146 112-53 31-111 55-172 72-61 17-125 25-191 25-95 0-185-18-272-53-87-35-164-86-231-153l-73-26c-25-9-49-18-74-25-12-4-20-6-25-7l-11-1 0 1c0 1-1 1-2 2l-10-2c-5-1-13-4-25-8l-30-11c-2-1-3-2-3-3l0-2c0-1-1-2-3-3-3-2-12-6-29-13l-73-27c-25-9-50-17-74-24-11-3-23-5-34-5-12 0-24-1-35-4-33-6-65-16-97-29-51-21-97-48-138-81-41-34-77-73-106-116-29-44-52-91-68-142-16-51-24-104-24-159 0-75 15-145 44-211 29-67 68-125 118-174 49-49 107-88 173-117 66-29 136-44 211-44l913 0 z" fill="#B4ACBC"/>
		<path d="M1116 144c143 0 125 136 220 136 49 0 73-43 136-43 77 0 142 64 142 140 0 25-9 46-9 70 0 67 54 82 106 90 70 10 125 64 125 140 0 104-94 107-94 183 0 75 95 82 95 184 0 55-31 101-74 124-59 31-154 11-154 105 0 27 10 46 10 73 0 77-65 139-142 139-64 0-88-41-136-41-101 0-72 138-219 138-145 0-127-137-220-137-48 0-75 43-138 43-78 0-142-64-142-139 0-25 9-47 9-72 0-67-53-80-105-88-70-10-125-64-125-140 0-106 93-106 93-184 0-77-94-81-94-184 0-53 27-99 74-124 56-30 154-11 154-103 0-26-10-49-10-75 0-77 65-139 143-139 62 0 90 42 135 42 96 0 78-138 220-138 z" fill="#FF822D"/>
		<path d="M1118 288c315 0 575 252 575 575 0 307-248 575-575 575-307 0-575-248-575-575 0-307 248-575 575-575 z" fill="#F9C23C"/>
		<path d="M1787-287c360 0 625 312 625 647 0 358-291 646-646 646-199 0-367-85-487-221-43 25-91 37-142 37-113 0-215-64-264-170l-8 1c-254 0-465-205-465-466 0-253 205-474 474-474l913 0 z" fill="#F3EEF8"/>
	</g></svg>
