<svg version="1.1" xmlns="http://www.w3.org/2000/svg" viewBox="0 0 2300 2300"><g transform="scale(1,-1) translate(-256, -1869)">
		<path d="M2125-287c156 0 287 125 287 287l0 1438c0 156-125 287-287 287l-1438 0c-156 0-287-125-287-287l0-1438c0-161 130-287 287-287l1438 0 z" fill="#8D65C5"/>
		<path d="M1406 72c209 0 385 126 464 308 34 81 39 138 39 227 118 21 278 102 345 212 9 14 14 25 14 43 0 39-31 72-72 72-26 0-39-10-57-29-72-77-123-127-230-151l0 540c0 39-31 72-72 72-39 0-72-31-72-72l0-549c-33 4-64 12-95 23l-477 179c-47 18-95 29-146 33l0 314c0 38-33 72-72 72-39 0-72-31-72-72l0-320c-121-21-278-104-345-212-9-15-15-28-15-44 0-41 33-71 72-71 26 0 40 10 58 29 72 78 125 125 230 151l0-252c0-276 223-503 503-503 z M1406 216c-196 0-359 157-359 359l0 261c33-4 64-12 95-23l477-179c47-18 95-29 146-33l0-26c0-196-159-359-359-359 z" fill="#FFFFFF"/>
	</g></svg>
