<svg version="1.1" xmlns="http://www.w3.org/2000/svg"><g transform="scale(1,-1)">
		<path d="M903 216c190 0 359 152 359 359l0 288c0 191-155 359-359 359-191 0-360-153-360-359l0-288c0-200 162-359 360-359 z M1909-287c190 0 359 152 359 359l0 288c0 191-155 359-359 359 190 0 359 152 359 359l0 288c0 191-155 359-359 359-197 0-359-159-359-359l0-288c0-196 157-359 359-359-197 0-359-159-359-359l0-288c0-196 157-359 359-359 z M903 431c-82 0-144 67-144 144l0 288c0 80 65 143 144 143 80 0 144-64 144-143l0-288c0-81-68-144-144-144 z M1223-286c24 0 34 14 37 32 2 9 2 18 2 29l0 27c0 200-164 342-358 342-146 0-274-85-333-219-26-60-28-100-28-172 0-21 17-39 39-39l138 0c23 0 39 16 39 38l0 48c0 74 70 128 144 128 80 0 144-64 144-143l0-32c0-21 14-39 38-39l138 0 z M902 1295c149 0 275 89 331 219 27 60 29 99 29 172 0 23-19 38-39 38l-138 0c-21 0-38-16-38-38l0-48c0-78-75-128-144-128-81 0-144 64-144 143l0 33c0 23-19 38-39 38l-138 0c-25 0-35-14-38-31-2-9-2-19-2-29l1-27c0-198 162-342 359-342 z M1909-72c-82 0-144 67-144 144l0 288c0 80 65 143 144 143 80 0 144-64 144-143l0-288c0-81-68-144-144-144 z M1909 935c-81 0-144 64-144 143l0 288c0 81 67 144 144 144 81 0 144-67 144-144l0-288c0-80-65-143-144-143 z" fill="#9B9B9B"/>
		<path d="M1985-289c19 0 32 16 32 33l0 218c0 61-49 110-110 110-59 0-106-49-106-108l0-220c0-18 14-33 33-33l151 0 z M1909 360c57 0 108 45 108 107l0 504c0 58-47 107-108 107-60 0-108-49-108-107l0-504c0-59 48-107 108-107 z M903-144c58 0 108 49 108 108l0 503c0 58-49 108-108 108-61 0-108-48-108-108l0-503c0-58 49-108 108-108 z M903 863c58 0 108 49 108 108l0 503c0 59-49 107-108 107-60 0-108-49-108-107l0-503c0-63 50-108 108-108 z M1911 1364c59 0 106 53 106 109l0 220c0 18-13 32-32 32l-152 0c-17 0-32-14-32-32l0-219c0-61 49-110 110-110 z" fill="#BEBEBE"/>
	</g></svg>
