<svg version="1.1" xmlns="http://www.w3.org/2000/svg" viewBox="0 0 2300 2300"><g transform="scale(1,-1) translate(-256, -1869)">
		<path d="M2053 1151l0 215-216 0 0-215 216 0 z M2053-143l-216 0 0 1150 216 0 0-1150 z M975-143l0 1150-216 0 0-1150 216 0 z M975 1151l0 215-216 0 0-215 216 0 z" fill="#FF6723"/>
		<path d="M2053 791l0 216-216 0 0-216 216 0 z M2131-287l0 83c0 33-27 61-61 61l-238 0c-33 0-61-27-61-61l0-83 360 0 z M1047-287l-360 0 0 83c0 33 27 61 61 61l238 0c33 0 61-27 61-61l0-83 z M975 791l0 216-216 0 0-216 216 0 z M1550 1151l-288 0 0 215 288 0 0-215 z M2269 1510l0 52 24 3c70 2 120 46 120 115 0 27-6 45-37 45l-140-17c-270-35-575-49-830-49-293 0-581 15-879 54-31 4-60 12-91 12-30 0-36-18-36-45 0-90 73-115 144-118l0-52 1725 0 z" fill="#212121"/>
		<path d="M2341 1007c41 0 71 33 71 72 0 38-31 72-71 72l-1869 0c-39 0-72-34-72-72 0-39 31-72 72-72l1869 0 z M2156 1366c60 0 113 51 113 114l0 30-1725 0 0-30c0-61 49-114 113-114l1499 0 z" fill="#F8312F"/>
	</g></svg>
