<svg version="1.1" xmlns="http://www.w3.org/2000/svg" viewBox="0 0 2300 2300"><g transform="scale(1,-1) translate(-256, -1869)">
		<path d="M2196-215c121 0 216 99 216 216l0 503c0 81-67 144-144 144l-1725 0c-80 0-143-65-143-144l0-503c0-121 99-216 216-216l1580 0 z" fill="#F9C23C"/>
		<path d="M796 73c10 0 19 4 26 11l1231 1232c7 7 10 15 10 25 0 21-17 37-36 37-10 0-19-4-26-11l-1231-1231c-7-7-11-16-11-26 0-19 16-37 37-37 z" fill="#9D5044"/>
		<path d="M1998 32c73 0 107 67 139 124 88 147 132 308 132 479 0 519-423 946-947 946-171 0-335-46-479-132-53-32-123-66-123-138 0-67 53-112 98-155l804-221 221-804c42-44 87-99 155-99 z" fill="#F8312F"/>
		<path d="M1842 131c190 190 324 450 324 721 0 366-255 628-628 628-273 0-535-136-720-324l1024-1025 z" fill="#E6E6E6"/>
		<path d="M1586 388c175 175 452 522 452 780 0 114-61 185-184 185-254 0-596-270-780-454l512-511 z" fill="#F8312F"/>
	</g></svg>
