<svg version="1.1" xmlns="http://www.w3.org/2000/svg" viewBox="0 0 2300 2300"><g transform="scale(1,-1) translate(-256, -1869)">
		<path d="M1406-287c132 0 263 11 392 34 181 31 614 153 614 397 0 241-424 364-614 397-129 23-260 34-392 34-132 0-263-11-392-34-181-31-614-153-614-397 0-241 424-364 614-397 129-23 260-34 392-34 z" fill="#44911B"/>
		<path d="M1047 72c56 0 287 19 287 108 0 89-233 108-287 108-59 0-288-20-288-108 0-88 225-108 288-108 z" fill="#212121"/>
		<path d="M1118 180l0 1473c0 38-31 72-71 72-39 0-72-31-72-72l0-1473 143 0 z" fill="#FFDEA7"/>
		<path d="M1801 54c69 0 126 56 126 126 0 69-56 126-126 126-69 0-126-56-126-126 0-69 56-126 126-126 z" fill="#FFFFFF"/>
		<path d="M1118 1150l540 216c17 7 25 19 25 36 0 14-10 29-25 36l-540 215 0-503 z" fill="#F8312F"/>
	</g></svg>
