<svg version="1.1" xmlns="http://www.w3.org/2000/svg" viewBox="0 0 2300 2300"><g transform="scale(1,-1) translate(-256, -1869)">
		<path d="M1512 721c106 0 198 88 198 198 0 66-33 124-84 162l-348 255 0-1c-39 19-67 32-108 32-43 0-83-13-118-39-32 24-65 60-108 60-47 0-81-38-81-81 0-27 11-49 33-65l77-57-1-15c0-68 33-124 84-162l336-246c36-27 73-41 120-41 z" fill="#F8312F"/>
		<path d="M1406 144c58 0 108 49 108 108 0 15-3 30-10 45l-152 332c155 69 135 57 265 120 50 25 95 95 95 167 0 61-24 106-68 150l-328-138c0-29 1-48 10-74l-162-73c-38-17-64-55-64-98 0-15 3-30 10-45l198-431c18-39 57-63 98-63 z" fill="#9B9B9B"/>
		<path d="M857 592c18 0 827 343 1085 454 61 26 75 29 75 56 0 21-18 36-36 36-18 0-802-333-1064-445-78-34-96-36-96-65 0-21 18-36 36-36 z" fill="#00A6ED"/>
		<path d="M870 525c9 0 20 3 34 8 14 5 28 10 43 17l40 21c13 7 22 12 29 15l-68 159c-9 7-20 13-33 18-13 5-26 7-37 7-9 0-16-2-21-5-6-4-11-9-15-14-4-6-8-12-11-19-3-7-7-13-11-19l-4 0c-13 0-22-4-26-11-6-8-9-19-9-32 0-11 2-24 7-40 4-17 10-33 18-48 7-16 17-29 28-40 11-11 23-17 36-17 z M801 1154c27 0 45 9 70 23 67 37 110 110 110 188 0 33-7 64-21 93-37 78-77 142-176 142-97 0-172-79-172-172 0-41 13-66 32-103-3-16-5-34-5-50 0-32 28-35 51-35 26-46 51-86 111-86 z" fill="#966661"/>
		<path d="M983 1342c24 0 63 36 63 59 0 21-17 37-35 37l-7-1c4 12 7 24 7 37 0 59-49 107-108 107-49 0-96-34-106-87 66-23 110-67 146-128 8-15 24-24 40-24 z" fill="#2D242D"/>
		<path d="M732 1222c29 0 45 20 45 47 0 6-3 9-9 9-10 0-9-9-11-20-4-23-34-12-34-27 0-6 3-9 9-9 z" fill="#990839"/>
		<path d="M596 1401c40 0 108 60 153 60 48 0 43-48 69-48 8 0 146 61 168 70 14 7 25 24 25 40 0 20-31 80-39 101-26 59-77 101-147 101-22 0-42-4-61-12-102-46-220-73-220-205 0-31 15-107 52-107 z" fill="#00A6ED"/>
		<path d="M831 1474c19 0 36 15 36 36 0 18-17 36-36 36-18 0-36-17-36-36 0-19 15-36 36-36 z" fill="#0074BA"/>
		<path d="M715 1275c50 21 114 36 114 100 0 43-33 80-80 80-36 0-112-42-144-55 5-33 17-54 34-84 10 0 62-34 76-41 z" fill="#26EAFC"/>
		<path d="M723 1274c23 0 41 12 61 21 33 14 54 43 54 81 0 49-38 88-88 88-38 0-118-41-146-54 1-13 4-25 7-36 26 10 112 55 139 55 28 0 52-23 52-53 0-33-23-47-50-57-12-4-25-12-33-12-13 0-35 26-58 26-11 0-18-4-27-8l6-12c16-16 58-39 83-39 z" fill="#9B9B9B"/>
		<path d="M975 575c13 0 25 2 35 7l241 102c74 30 121 101 121 182 0 25-5 51-16 78l-119 278c-15 34-49 54-83 54-49 0-90-39-90-89 0-12 3-24 8-36 12-24 120-278 120-285 0-8-4-14-11-17l-241-101c-33-14-55-47-55-83 0-51 39-90 90-90 z" fill="#FF822D"/>
		<path d="M1147-71l392 166c18 7 38 12 38 35 0 16-129 325-142 364-5 12-14 18-27 18-32 0-67-38-99-38-21 0-17 25-41 25-11 0-20-5-31-8-30-9-52-36-52-69 0-12 2-23 7-32l68-142-134-178c-9-13-15-28-15-43 0-35 24-68 36-98 z" fill="#00A6ED"/>
		<path d="M1356 191c15 0 28 2 39 7l137 54-97 242c-5 12-14 18-27 18-29 0-72-38-99-38-21 0-17 25-41 25-11 0-20-5-31-8-30-9-52-36-52-69 0-12 2-23 7-32l67-138c19-39 55-61 97-61 z" fill="#26EAFC"/>
		<path d="M1166-61c-32 0-42 37-50 62 21 8 87 44 111 44 32 0 38-38 49-62-25-11-90-44-110-44 z M1426 47c-7 16-19 35-19 54 0 16 7 27 22 34l128 54c7-16 20-40 20-59 0-13-6-21-17-26l-134-57 z M1226 72c19 0 36 15 36 36 0 10-3 18-10 25-11 11-40 48-56 48-14 0-40-37-40-47 0-3 2-7 6-12 26-33 49-50 64-50 z M1247 259c5 0 18 6 33 14 43 22 54 26 54 50 0 21-17 37-36 37-17 0-42-14-59-25-17-10-27-12-27-26 0-11 17-50 35-50 z M1189 395c-3 9-5 17-5 26 0 33 23 61 53 70 11 3 20 8 31 8 24 0 20-25 41-25 32 0 67 38 99 38 27 0 33-35 40-52l-259-65 z M1940 961c18 0 41 2 41 25 0 8-29 82-53 137-24 53-25 72-44 72-3 0-7-1-11-4-34-23-54-65-54-104 0-65 52-126 121-126 z" fill="#0074BA"/>
		<path d="M829-287c19 0 35 3 49 10l1297 553c15 7 22 18 22 34 0 5-1 9-3 13-11 24-16 55-48 55-5 0-9-1-13-3l-496-212c-361-156-805-343-809-343-30 0-26 87-87 87-32 0-54-24-54-54 0-26 19-49 30-71 23-44 66-69 112-69 z" fill="#FF822D"/>
	</g></svg>
