<svg version="1.1" xmlns="http://www.w3.org/2000/svg" viewBox="0 0 2300 2300"><g transform="scale(1,-1) translate(-256, -1869)">
		<path d="M2077-291c185 0 335 149 335 336l0 49c0 55-45 101-100 101-52 0-100-44-100-100l0-50c0-75-60-135-135-135l-65 0c-46 0-80 37-80 80l0 119-200 0 0-119c0-43-34-80-80-80l-710 0c-43 0-79 38-79 80l0 119-201 0 0-119c0-43-34-80-80-80l-82 0c-56 0-100-44-100-100 0-55 45-101 100-101l1577 0 z M2080 396l27 17 0-1c-2 144-98 218-211 266-310 130-195 81-520 215-54 22-104 68-104 126l0 440c0 27-22 51-51 51l-590 0c-29 0-51-24-51-51l0-849 35-35 432-179 1033 0 z" fill="#BEBEBE"/>
		<path d="M2070 102c11 0 20 4 27 11 7 7 11 16 11 27-1 46-1 92-1 137l0 136-1072 7c-11 0-19 5-26 14-7 9-14 21-21 35l-22 46c-8 17-18 32-30 46-12 14-27 26-45 35-18 9-40 14-67 14l-244 0 0-470c0-11 4-20 11-27 7-7 16-11 27-11l342 0c13 0 23 4 28 11 5 7 9 16 10 27l1 17-1 29 1 24c1 11 4 20 9 27 5 7 14 11 27 11l227 0c13 0 23-4 28-11 5-7 9-16 10-27l1-24-1-29 1-17c1-11 4-20 9-27 5-7 15-11 28-11l732 0 z" fill="#635994"/>
		<path d="M1284 1078c19 0 36 15 36 36 0 19-15 36-36 36l-270 0c-19 0-36-15-36-36 0-19 15-36 36-36l270 0 z M1284 1294c19 0 36 15 36 36 0 19-15 36-36 36l-270 0c-19 0-36-15-36-36 0-19 15-36 36-36l270 0 z" fill="#636363"/>
	</g></svg>
