<svg version="1.1" xmlns="http://www.w3.org/2000/svg" viewBox="0 0 2300 2300"><g transform="scale(1,-1) translate(-256, -1869)">
		<path d="M1440 1206c58 0 105 46 105 104 0 23-13 42-13 55 0 14 12 32 12 53 0 21-6 41-18 59-11 17-17 36-17 58 0 59-49 107-107 107-5 0-10 2-15 7-25 29-50 45-87 45-37 0-62-16-87-45-4-5-9-7-15-7-58 0-108-47-108-107 0-22-6-41-17-58-12-19-18-39-18-59 0-21 12-39 12-54 0-16-12-34-12-54 0-59 46-104 105-104l280 0 z" fill="#000000"/>
		<path d="M1029-287c45 0 64 59 79 97 46 116 88 214 135 332 15 37 39 67 72 88l233 148 0-1c42-63 108-170 197-170 20 0 37 6 56 15l327 174c15 8 42 14 58 14 69 0 125-144 199-144 12 0 26 4 26 19l-1 6-120 302c-9 23-22 40-49 40-51 0-381-211-415-211-10 0-18 4-25 12l-96 108c3 13 4 26 4 41 0 20-2 40-3 60-67-8-132-20-200-20-62 0-120 10-184 20 1-15 3-27 3-42 0-40-17-80-43-110l-123-135c-32-36-58-78-73-125l-75-227c-13-38-42-77-88-77-48 0-97 21-151 21-21 0-71-2-71-33 0-7 3-12 8-15l283-174c12-7 22-13 37-13 z" fill="#452829"/>
		<path d="M1143-106c25 60 48 114 71 175l-157 73c-16-48-37-136-66-176l152-72 z" fill="#D3D3D3"/>
		<path d="M2013 335c43 23 85 48 129 67l-71 149-128-70 70-146 z" fill="#D3D3D3"/>
		<path d="M1036-316c12 0 36 17 41 29l82 180c4 8 7 15 7 24 0 21-16 45-39 45-11 0-20-5-27-14 0-7-8-9-15-9-22 0-49 74-70 74-8 0-10-4-17-9-11-41-87-63-123-63-47 0-101 34-125 34-9 0-15-3-20-9-11-13-38-38-38-57 0-11 4-18 12-23l325-200 7-2 z M2353 247c18 0 39 10 56 15 12 3 19 15 19 27 0 16-134 328-145 362-4 11-21 11-30 11-6 0-19-1-25-4l-171-97c-18-11-29-21-29-43 0-18 11-38 33-38 6 0 14 4 19 4 9 0 17-9 17-18 0-14-2-42-2-63 0-21 3-28 16-28 6 0 6 0 8 2 15 3 24 11 42 11 19 0 36-6 53-13 92-30 102-128 139-128 z" fill="#8B62BF"/>
		<path d="M1043-318c19 0 25 16 34 31l-368 227c-8-11-17-18-17-31 0-11 4-18 12-23l325-200c3-3 8-4 14-4 z" fill="#D3D3D3"/>
		<path d="M2392 257c19 5 37 9 37 31 0 16-129 327-145 363-5 11-13 17-26 17-11 0-21-6-30-10l164-401 z" fill="#D3D3D3"/>
		<path d="M723 288c98 0 180 79 180 179 0 98-78 180-180 180-98 0-180-78-180-180 0-98 79-179 180-179 z" fill="#FF6723"/>
		<path d="M729 288c-3 46-20 90-50 122l45 44 120-120 12 13-120 120 45 44c33-30 76-48 122-49l0 5-1 12c-41 1-78 16-109 44l64 64-12 13-65-65c-28 30-43 71-46 112l-17 0c2-47 19-89 51-124l-44-44-122 121-12-12 122-121-45-45c-34 30-77 48-123 51l-1-6 1-11c41-3 80-18 111-46l-64-64 12-12 63 63c28-31 43-69 46-109l17 0 z" fill="#000000"/>
		<path d="M1526 575l180 69c-7 25-14 51-20 78-8 29-1 15-34 106-27 76-88 227-88 237 0 11 4 17 12 19 7 1 15 2 22 2 68 0 131-10 195-34 13-5 21-14 22-28 5-60 15-126 15-187 0-26-23-32-23-61l0-24c0-55 44-65 89-65 37 0 65 30 65 65 0 111-3 210-6 321 0 67-60 85-110 111-132 65-277 100-418 100-27 0-54-1-81-4-99-11-144-114-144-198 0-29 6-59 11-88 19-127 61-223 110-350l203-69 z" fill="#452829"/>
		<path d="M1817 988c19 0 77 3 118 6 21 1 32-1 32 8l0 68c0 75-65 94-123 125-6 4-8 6-14 6-3 0-4-1-5-3-5-13-57-135-57-141 0-8 38-9 41-40 0-5 0-29 8-29 z" fill="#D3D3D3"/>
		<path d="M1719 188c9 0 15 3 19 9 41 63 80 154 80 232 0 7-4 17-8 23-40 55-77 110-114 166l-153-248c35-69 73-115 132-156 11-8 30-26 44-26 z" fill="#636363"/>
		<path d="M1355 235c7 0 13 2 18 5l233 144c16 10 31 22 44 36 13 14 24 29 33 46 9 16 17 33 22 52 5 19 8 37 8 56l0 15-3 23c-1 7-3 14-5 20-3 6-6 9-10 9-13 0-27-2-42-5-15-4-30-7-43-9-32-6-65-9-98-9-31 0-62 3-92 9l-93 16c-3 0-4-2-6-5-3-5-5-10-7-15l-5-17-3-11c-6-18-13-33-20-46-7-13-16-26-25-37-9-11-20-22-31-33l-36-36c-6-6-9-14-9-23 0-7 3-17 10-28 7-12 15-25 26-38 10-14 22-28 35-42 13-14 25-27 38-38 12-11 24-21 35-28 11-7 19-11 26-11 z" fill="#9B9B9B"/>
		<path d="M789 667c29 0 50 56 83 59l96 7c56 4 104 25 143 62l129 122-22 251-185-256c-16-22-37-37-64-44-109-29-218-49-310-112-16-11-43-23-43-44 0-16 10-30 28-30 24 0 78 40 96 40 6 0 12-1 17-3 10-4 6-25 10-40 2-8 9-12 22-12 z" fill="#573739"/>
		<path d="M1510 611c32 0 64 2 95 5 31 3 63 7 95 12 7 1 12 5 16 10 4 5 6 10 6 17 0 3-3 14-8 31l-22 64-30 81-32 83-44 116c-3 9-9 13-17 13-7 0-14-2-21-5-7-3-15-5-23-5-19 0-36 7-49 22-13 14-20 30-20 49 0 13 2 27 7 43 4 15 9 31 15 46 6 15 12 30 19 44l15 37 1 3-2 5c-2 2-4 3-7 3l-66 0c-3 0-5-1-8-4l-18-42c-6-15-13-28-22-40-9-12-19-22-31-29-12-7-27-11-46-11-17 0-32 4-45 11-13 7-25 16-37 28-10-19-16-38-18-57-3-19-4-40-4-62 0-20 1-42 2-65 1-23 3-47 6-71 3-24 6-47 10-70 4-23 9-45 14-64 7-27 15-53 23-80 8-27 16-53 23-80 1-5 4-9 8-12 4-3 8-5 13-6 32-9 66-14 101-16 35-3 68-4 101-4 z" fill="#8B62BF"/>
		<path d="M1299 1224c87 0 153 61 159 153 3 32 5 65 5 97 0 22-9 46-37 46l-103 0c-71 0-105 58-110 58-7 0-7-6-10-11-19-42-68-41-68-88 0-35 3-67 4-102 3-88 71-153 160-153 z" fill="#573739"/>
		<path d="M1300 1296c13 0 53 15 53 31 0 3-2 5-5 5-11 0-30-11-48-11-19 0-38 11-49 11-3 0-5-2-5-5 0-16 41-31 54-31 z" fill="#990839"/>
		<path d="M1312 1351c11 0 17 9 17 18 0 12-12 66-30 66-6 0-10-3-12-8-5-13-17-49-17-58 0-11 8-18 17-18l25 0 z" fill="#3D2123"/>
		<path d="M1407 1413c-23 9-44 15-65 20 9 15 23 27 42 27 11 0 43-6 43-23 0-8-15-19-20-24 z M1192 1413c23 9 44 15 65 20-9 15-23 27-42 27-13 0-43-7-43-23 0-8 15-19 20-24 z" fill="#000000"/>
		<path d="M1415 1412l-73 0c-5 0-7 2-7 6 0 23 24 39 44 39 19 0 44-15 44-37 0-5-3-8-8-8 z M1258 1412c5 0 7 2 7 6 0 22-24 39-44 39-19 0-44-15-44-37 0-5 3-8 8-8l73 0 z" fill="#FFFFFF"/>
		<path d="M1400 1412l-56 0-1 8c0 16 12 28 29 28 17 0 29-12 29-28l0-4-1-4 z M1256 1412l1 10c0 15-15 26-29 26-14 0-28-13-28-28l0-8 56 0 z" fill="#7D4533"/>
		<path d="M1387 1412l-30 0-1 8c0 9 7 17 16 17 9 0 17-8 17-17 0-3-1-5-2-8 z M1242 1412c1 3 2 5 2 8 0 9-8 17-17 17-9 0-17-8-17-17 0-3 1-6 3-8l29 0 z" fill="#000000"/>
		<path d="M1363 1425c3 0 5 2 5 6-2 3-4 5-5 5-2 0-4-2-5-5 0-4 2-6 5-6 z M1217 1425c3 0 5 2 5 6-2 3-4 5-5 5-2 0-4-2-5-5 0-4 2-6 5-6 z" fill="#FFFFFF"/>
		<path d="M1415 1477c5 3 8 5 8 8 0 3-2 6-7 9-5 3-10 5-16 7l-17 3-12 1-13 0c-5-1-8-4-8-9 0-6 2-9 6-9l2 0c5 1 10 1 14 1 15 0 27-3 38-10l5-1 z M1184 1477c5 0 25 11 43 11l12-1c6 0 9 3 9 8 0 5-2 8-7 9l-14 1c-8 0-52-5-52-20 0-5 4-8 9-8 z" fill="#000000"/>
		<path d="M1281 1528c-29 11-49 30-65 55l-70 0c-9 0-17-8-17-17l0-21c0-11 6-17 17-17l135 0 z" fill="#D3D3D3"/>
	</g></svg>
