<svg version="1.1" xmlns="http://www.w3.org/2000/svg" viewBox="0 0 2300 2300"><g transform="scale(1,-1) translate(-256, -1869)">
		<path d="M2267 531c31 31 73 60 73 107 0 44-34 81-81 81-11 0-21-2-31-6l-31-102 70-80 z M1334 1474l116 36c19 17 28 38 28 62 0 44-34 81-81 81-23 0-42-8-57-23l-76-76 70-80 z" fill="#9B9B9B"/>
		<path d="M1213-287c34 0 60 33 60 65l-2 16-97 399c125 73 242 159 347 259l164 156c31 30 47 53 82 78 12 8 224 102 248 112l93 171c19 32 22 52 46 85 8 12 146 137 165 156 62 57 93 137 93 217 0 161-129 298-296 298-79 0-158-31-215-91l-182-189-294-124-75-260c-177-182-351-355-475-567-52 12-381 103-413 103-30 0-62-23-62-56 0-27 17-50 34-67l715-725c17-17 37-36 64-36 z" fill="#CDC4D6"/>
		<path d="M2216 1366c29 0 53 22 53 52 0 14-5 26-15 36l-111 112c-11 11-23 16-37 16-28 0-53-25-53-53 0-13 5-25 15-36l111-112c10-10 22-15 37-15 z" fill="#00A6ED"/>
		<path d="M693-71c20 0 40 7 55 22l203 203c16 16 24 35 24 56 0 44-36 77-78 77-22 0-40-7-55-22l-203-203c-15-15-23-34-23-55 0-44 34-78 77-78 z M2207 21c74 0 137 58 137 136 0 11-1 19-4 30l-184 868-390-370 320-591c24-43 67-73 121-73 z M1350 1061l371 386-865 203c-11 3-20 4-31 4-79 0-138-64-138-137 0-52 28-95 70-120l593-336 z" fill="#0084CE"/>
	</g></svg>
