<svg version="1.1" xmlns="http://www.w3.org/2000/svg" viewBox="0 0 2300 2300"><g transform="scale(1,-1) translate(-256, -1869)">
		<path d="M2322-287c50 0 89 39 89 89l0 629-578 0 0-287-499 0 0 605c0 98-78 180-180 180-98 0-180-78-180-180l0-857c0-98 79-179 180-179 98 0 180 79 180 179l0 145c0-177 143-324 324-324l664 0 z" fill="#341A1C"/>
		<path d="M2412-144l0 705c0 51-30 98-79 120l-1139 494c-41 18-84 27-128 27-102 0-209-51-268-147l-374-624c-16-27-24-57-24-89 0-96 77-181 180-181 65 0 124 35 156 90l95 1 0-252 79 0c40-68 111-107 187-107 127 0 307 175 400 175 40 0 68-17 93-47 93-111 196-165 332-165l490 0 z M1136 382l0 49-296 0 126 148c31 34 58 140 117 140 130 0 236-96 250-228-11-4-23-9-34-15l-163-94 z" fill="#573739"/>
		<path d="M610-288c8 0 14 2 19 6l198 150c12 9 21 18 29 27 8 9 15 19 22 29l18 31c6 11 13 22 19 34-12 17-22 36-28 57-6 21-9 42-9 63 0 38 10 74 29 108 20 33 46 60 79 79l159 92 675 1171c4 7 6 14 6 23 0 16-7 29-22 38l-39 25-59 35c-21 12-41 23-59 32-18 9-30 13-37 13-8 0-15-2-22-6-6-4-12-9-16-16l-946-1638c-6-11-11-22-14-33-4-12-6-24-8-36l-27-251c0-8 3-16 9-22 7-7 15-11 24-11 z" fill="#F95725"/>
		<path d="M693-235l136 103c16 12 30 26 42 42l-247 148c-10-19-16-39-18-62l-19-173 106-58 z" fill="#FBB8AB"/>
		<path d="M612-288c25 0 97 67 120 83l-139 81c-5-44-14-87-14-131 0-18 14-33 33-33 z" fill="#000000"/>
		<path d="M1683 1317l75 130-249 144-75-130 249-144 z" fill="#D3D3D3"/>
	</g></svg>
