<svg version="1.1" xmlns="http://www.w3.org/2000/svg" viewBox="0 0 2300 2300"><g transform="scale(1,-1) translate(-256, -1869)">
		<path d="M929-215l1031 1031-184 326-324 182-1031-1031 159-323 349-185 z" fill="#FF822D"/>
		<path d="M488-280l440 66-506 506-66-440 42-95 90-37 z" fill="#FFCE7C"/>
		<path d="M332-304l156 24-132 132-24-156 z" fill="#402A32"/>
		<path d="M2111 967l254 254c27 27 42 64 42 101 0 39-16 76-42 102l-305 305c-26 26-63 42-102 42-37 0-74-15-101-42l-254-254 183-345 325-163 z" fill="#F92F60"/>
		<path d="M1959 814l152 153-508 508-153-152 509-509 z" fill="#D3D3D3"/>
	</g></svg>
