<svg version="1.1" xmlns="http://www.w3.org/2000/svg"><g transform="scale(1,-1)">
		<path d="M496-277c8 0 16 1 24 4l835 237c98 27 179 97 223 185l234 468-153 354-355 155-468-234c-93-46-159-130-185-224l-237-835c-3-8-4-16-4-24 0-47 39-86 86-86 z" fill="#D3D3D3"/>
		<path d="M2117 617l255 254c26 26 42 64 42 102 0 39-16 76-42 102l-610 610c-26 26-63 42-102 42-38 0-76-16-102-42l-254-255 317-490 496-323 z" fill="#433B6B"/>
		<path d="M1965 554c59 0 113 24 152 63l-813 813c-39-39-63-93-63-152 0-59 24-113 63-152l509-509c39-39 93-63 152-63 z" fill="#FFB02E"/>
		<path d="M482-277c20 0 37 7 51 21l526 526c29-14 60-21 93-21 121 0 216 99 216 216 0 116-95 216-216 216-121 0-216-99-216-216 0-33 7-64 21-93l-526-526c-14-14-21-31-21-51 0-39 31-72 72-72 z" fill="#635994"/>
	</g></svg>
