<svg version="1.1" xmlns="http://www.w3.org/2000/svg"><g transform="scale(1,-1)">
		<path d="M723-144c18 0 34 10 40 26l88 214c40 95 196 85 196 156 0 72-156 60-196 156l-88 214c-7 16-23 25-40 25-16 0-33-11-40-25l-88-214c-41-98-196-84-196-156 0-70 157-62 196-156l88-214c7-15 24-26 40-26 z M1657-216c38 0 78 22 93 59l206 486c26 61 74 113 138 142l260 118c37 16 58 56 58 94 0 38-21 78-58 94l-260 118c-63 27-111 76-138 142l-206 486c-15 37-55 58-93 58-37 0-77-21-92-58l-206-486c-26-61-74-113-138-142l-260-118c-37-16-58-56-58-94 0-38 21-78 58-94l260-118c63-27 111-76 138-142l206-486c15-37 55-59 92-59 z M867 1006c13 0 26 7 31 19l68 156c33 71 152 60 152 113 0 55-120 39-152 114l-68 155c-6 12-19 19-31 19-13 0-26-7-31-19l-68-155c-32-70-153-64-153-114 0-53 121-41 153-113l68-156c6-12 19-19 31-19 z" fill="#F9C23C"/>
	</g></svg>
