<svg version="1.1" xmlns="http://www.w3.org/2000/svg" viewBox="0 0 2300 2300"><g transform="scale(1,-1) translate(-256, -1869)">
		<path d="M2125-287c156 0 287 125 287 287l0 1438c0 156-125 287-287 287l-1438 0c-156 0-287-125-287-287l0-1438c0-161 130-287 287-287l1438 0 z" fill="#00D26A"/>
		<path d="M1406 0c39 0 72 31 72 72l0 473 335-334c14-14 31-21 50-21 38 0 72 31 72 71 0 20-7 37-21 51l-335 335 474 0c39 0 72 31 72 72 0 39-31 72-72 72l-474 0 335 335c14 14 21 31 21 50 0 39-31 72-72 72-19 0-36-7-50-21l-335-335 0 474c0 39-31 72-72 72-39 0-72-31-72-72l0-474-335 335c-14 14-31 21-51 21-40 0-71-34-71-72 0-19 7-36 21-50l334-335-473 0c-39 0-72-31-72-72 0-39 31-72 72-72l473 0-334-335c-14-14-21-31-21-51 0-39 33-71 71-71 20 0 37 7 51 21l335 334 0-473c0-39 31-72 72-72 z" fill="#FFFFFF"/>
	</g></svg>
