<svg version="1.1" xmlns="http://www.w3.org/2000/svg"><g transform="scale(1,-1)">
		<path d="M2125-287c156 0 287 125 287 287l0 1438c0 156-125 287-287 287l-1438 0c-156 0-287-125-287-287l0-1438c0-161 130-287 287-287l1438 0 z" fill="#FF9F2E"/>
		<path d="M1406 58c9 0 14 5 17 14l87 357c3 8 10 14 18 14 33 0 299-197 332-197 11 0 18 8 18 19 0 35-196 297-196 332 0 8 5 15 13 18l358 86c8 3 13 10 13 18 0 9-4 15-13 17l-358 87c-8 3-13 10-13 18 0 32 196 300 196 332 0 11-7 18-18 18-36 0-297-196-332-196-8 0-15 5-18 13l-87 358c-2 9-8 13-17 13-8 0-15-5-18-13l-86-358c-3-8-10-13-18-13-36 0-297 196-332 196-11 0-19-7-19-18 0-33 197-299 197-332 0-8-6-15-14-18l-357-87c-9-3-14-8-14-17 0-8 6-15 14-18l357-86c9-3 14-9 14-18 0-32-197-301-197-332 0-11 8-19 19-19 32 0 301 197 332 197 9 0 15-5 18-14l86-357c3-8 10-14 18-14 z" fill="#FFFFFF"/>
	</g></svg>
