<svg version="1.1" xmlns="http://www.w3.org/2000/svg" viewBox="0 0 2300 2300"><g transform="scale(1,-1) translate(-256, -1869)">
		<path d="M1442-287c39 0 72 31 72 72l0 183 164-163c14-14 31-21 52-21 42 0 75 30 75 74 0 20-7 37-22 52l-269 268 0 189c74 16 145 55 198 114l166-96 98-365c9-31 38-55 72-55 40 0 76 31 76 74 0 40-50 193-63 242l160-91c12-7 24-10 36-10 38 0 73 32 73 72 0 26-15 50-37 63l-160 91 224 60c31 9 55 38 55 72 0 41-34 73-74 73-7 0-14-1-21-3l-367-97-167 95c13 36 21 74 21 113 0 39-8 77-21 113l167 95 367-97c7-2 13-3 20-3 40 0 75 34 75 75 0 36-25 62-56 71l-223 60 159 91c23 12 36 37 36 62 0 41-34 72-73 72-13 0-25-3-36-9l-159-92c14 51 62 203 62 241 0 41-33 76-75 76-34 0-64-25-72-56l-98-365-167-95c-53 59-123 99-197 113l0 189 270 268c14 14 21 31 21 52 0 41-31 74-74 74-21 0-38-7-53-22l-164-162 0 183c0 39-31 72-72 72-39 0-72-31-72-72l0-183-164 162c-15 15-32 22-53 22-40 0-74-33-74-74 0-20 7-37 22-52l269-268 0-189c-74-16-145-55-198-114l-165 95-99 365c-9 30-37 55-71 55-43 0-75-35-75-75 0-39 50-193 63-240l-161 92c-11 6-23 9-36 9-39 0-72-34-72-72 0-26 14-49 36-62l159-92-223-60c-30-8-56-37-56-71 0-41 33-76 75-76 6 0 13 1 20 3l367 98 167-96c-13-36-20-73-20-111 0-39 8-77 20-113l-167-95-367 97c-7 2-14 3-20 3-40 0-75-34-75-75 0-36 25-62 56-71l223-60-159-92c-24-12-36-37-36-61 0-42 36-72 73-72 13 0 25 3 36 9l160 92c-13-48-63-200-63-240 0-41 33-76 75-76 34 0 63 24 72 55l98 365 166 95c51-56 120-99 198-114l0-189-269-267c-15-15-22-32-22-53 0-40 33-74 74-74 21 0 38 7 53 22l164 162 0-182c0-39 31-72 72-72 z M1441 503c-120 0-217 97-217 216 0 120 97 216 217 216 120 0 217-97 217-216 0-120-97-216-217-216 z" fill="#00A6ED"/>
	</g></svg>
