<svg version="1.1" xmlns="http://www.w3.org/2000/svg" viewBox="0 0 2300 2300"><g transform="scale(1,-1) translate(-256, -1869)">
		<path d="M2125-287c156 0 287 125 287 287l0 1438c0 156-125 287-287 287l-1438 0c-156 0-287-125-287-287l0-1438c0-161 130-287 287-287l1438 0 z" fill="#00D26A"/>
		<path d="M1407-48c16 0 31 12 35 26l51 172c69 235 255 419 486 487l172 50c15 4 26 18 26 34 0 18-9 30-26 35l-172 51c-236 70-418 256-486 486l-51 172c-5 17-17 26-35 26-16 0-30-11-34-26l-50-172c-70-237-258-418-487-486l-172-51c-14-4-26-19-26-35 0-16 11-30 26-34l172-50c230-69 416-250 487-487l50-172c4-15 18-26 34-26 z" fill="#FFFFFF"/>
	</g></svg>
