<svg version="1.1" xmlns="http://www.w3.org/2000/svg" viewBox="0 0 2300 2300"><g transform="scale(1,-1) translate(-256, -1869)">
		<path d="M2125-287c156 0 287 125 287 287l0 1438c0 156-125 287-287 287l-1438 0c-156 0-287-125-287-287l0-1438c0-161 130-287 287-287l1438 0 z" fill="#00D26A"/>
		<path d="M1882 135c59 0 107 49 107 108 0 28-11 56-31 76l-400 400 400 400c20 20 31 48 31 76 0 59-49 107-107 107-28 0-56-11-76-31l-400-400-400 400c-20 20-48 31-76 31-58 0-108-47-108-107 0-29 11-55 32-76l399-400-399-400c-20-20-32-48-32-76 0-58 49-108 108-108 28 0 56 12 76 32l400 399 400-399c21-21 47-32 76-32 z" fill="#FFFFFF"/>
	</g></svg>
