<svg version="1.1" xmlns="http://www.w3.org/2000/svg"><g transform="scale(1,-1)">
		<path d="M1370-287c98 0 180 79 180 179 0 98-78 180-180 180-98 0-180-78-180-180 0-98 79-179 180-179 z M1377 200c95 0 183 69 183 170l0 122c0 8 6 15 13 18 46 21 88 33 131 59 165 99 277 274 277 469l0 90c0 327-289 565-607 565-301 0-602-222-602-558 0-102 92-170 185-170 93 0 183 67 183 169 0 125 112 219 234 219 121 0 240-91 240-226l0-89c0-122-88-189-193-215-126-32-228-114-228-253l0-201c0-100 90-169 184-169 z" fill="#F8312F"/>
	</g></svg>
