<svg version="1.1" xmlns="http://www.w3.org/2000/svg" viewBox="0 0 2300 2300"><g transform="scale(1,-1) translate(-256, -1869)">
		<path d="M1406-144c334 0 611 269 611 611 0 292-161 605-394 794 210 78 460 104 681 104 57 0 108 46 108 108 0 58-49 108-108 108-296 0-632-44-897-179-269 136-606 179-899 179-58 0-108-47-108-107 0-63 50-108 108-108 220 0 475-27 683-104-229-187-396-496-396-796 0-335 272-610 611-610 z M1406 72c-221 0-395 177-395 397 0 272 179 544 396 684 228-148 394-425 394-683 0-221-173-398-395-398 z" fill="#635994"/>
	</g></svg>
