<svg version="1.1" xmlns="http://www.w3.org/2000/svg"><g transform="scale(1,-1)">
		<path d="M2125-287c156 0 287 125 287 287l0 1438c0 156-125 287-287 287l-1438 0c-156 0-287-125-287-287l0-1438c0-161 130-287 287-287l1438 0 z" fill="#00A6ED"/>
		<path d="M1154 29c71 0 139 13 204 38 65 25 122 60 172 105 49 45 89 98 119 159 29 61 44 129 44 202l0 413c0 9 5 15 16 18 8 1 17 2 28 2l12 0 52-3c8-1 16-1 24-1 9 0 18 0 27 2 16 2 29 7 40 15 11 8 16 21 16 39 0 15-5 27-16 38l-304 302c-10 10-23 15-38 15-15 0-28-5-38-15l-305-302c-11-11-16-23-16-38 0-18 5-31 16-39 11-8 24-13 40-15 9-2 18-2 28-2 7 0 15 0 24 1l51 3 12 0c11 0 20-1 28-2 11-3 16-9 16-18l0-413c0-37-9-70-26-98-17-28-40-51-67-69-28-19-59-32-93-40-24-6-48-8-71-8-10 0-19 0-29 1-1 0-2-1-3-2l-142 0c-20 0-37-7-51-21-14-14-21-31-21-51l0-144c0-19 7-36 22-50 14-15 31-22 50-22l143 0c0 1 0 2 1 2 6-1 12-1 18-1 5-1 11-1 17-1 z" fill="#FFFFFF"/>
	</g></svg>
