<svg version="1.1" xmlns="http://www.w3.org/2000/svg"><g transform="scale(1,-1)">
		<path d="M2125-287c156 0 287 125 287 287l0 1438c0 156-125 287-287 287l-1438 0c-156 0-287-125-287-287l0-1438c0-161 130-287 287-287l1438 0 z" fill="#00A6ED"/>
		<path d="M1685 126c69 0 126 56 126 126 0 69-56 126-126 126l-295 0c58 60 113 116 175 181 108 114 214 219 214 394 0 189-147 359-345 359-122 0-227-63-296-149-19-24-30-50-30-81 0-69 56-126 126-126 99 0 114 104 193 104 58 0 101-47 101-108 0-52-30-94-61-128-131-144-284-291-406-430-27-31-43-64-43-107 0-85 70-161 162-161l505 0 z" fill="#FFFFFF"/>
	</g></svg>
