<svg version="1.1" xmlns="http://www.w3.org/2000/svg" viewBox="0 0 2300 2300"><g transform="scale(1,-1) translate(-256, -1869)">
		<path d="M1406-287c547 0 1006 440 1006 1006 0 547-440 1006-1006 1006-547 0-1006-440-1006-1006 0-547 440-1006 1006-1006 z" fill="#F92F60"/>
		<path d="M1271 32c22 0 40 8 55 25 172 191 273 394 298 671 3 27 1 54 4 81 0 8 12 10 24 11l18-1c17-2 23 0 23-10l0-527c0-78 66-136 140-136l152 0c75 0 140 59 140 136l0 73c0 38-33 72-72 72-38 0-72-33-72-72l2-36c-1-16-3-29-11-29l-126 0c-6 0-9 3-9 9l0 510c0 8 14 10 32 11l40-2c39 0 72 31 72 72l0 332c0 39-31 72-72 72l-470 0c-39 0-72-31-72-72l0-332c0-39 31-72 72-72l26 1c9 0 19-2 19-10 0-107-20-224-60-332-47-124-124-226-207-327-12-14-18-30-18-47 0-38 31-71 72-71 z M1828 962l-308 0c-6 0-9 3-9 9l0 170c0 6 3 9 9 9l308 0c6 0 9-3 9-9l0-170c0-6-3-9-9-9 z M1016 35c38 0 72 33 72 72l0 471c0 6 3 9 9 9l5-2 75-58c12-10 26-15 43-15 41 0 73 34 73 72 0 23-10 43-29 58-16 11-135 99-135 107 0 3 2 4 3 7 104 112 160 220 160 374 0 38-31 72-71 72l-124 0c-6 0-9 3-9 9l0 192c0 38-33 72-72 72-39 0-72-31-72-72l0-192c0-6-3-9-9-9l-124 0c-39 0-72-31-72-72 0-39 31-72 72-72l320 0c5 0 8-3 8-10 0-3-7-25-8-30-21-68-60-124-113-171-90-79-173-149-265-227-17-15-25-33-25-55 0-39 30-72 71-72 60 0 112 90 136 90 6 0 9-3 9-9l0-467c0-39 31-72 72-72 z" fill="#FFFFFF"/>
	</g></svg>
