<svg version="1.1" xmlns="http://www.w3.org/2000/svg"><g transform="scale(1,-1)">
		<path d="M2125-287c156 0 287 125 287 287l0 1438c0 156-125 287-287 287l-1438 0c-156 0-287-125-287-287l0-1438c0-161 130-287 287-287l1438 0 z" fill="#00A6ED"/>
		<path d="M1384 119c198 0 363 159 363 364 0 86-29 167-81 229 53 67 81 148 81 230 0 199-159 363-363 363-136 0-272-81-327-205-8-19-13-35-13-55 0-69 56-126 126-126 125 0 99 135 214 135 62 0 112-51 112-112 0-40-28-90-68-103-8-3-17-2-25-5-55-17-89-64-89-120 0-65 41-105 96-122 48-14 86-52 86-109 0-62-51-112-112-112-137 0-82 165-226 165-70 0-126-57-126-125 0-13 2-26 6-39 45-149 191-253 346-253 z" fill="#FFFFFF"/>
	</g></svg>
