<svg version="1.1" xmlns="http://www.w3.org/2000/svg"><g transform="scale(1,-1)">
		<path d="M2125-287c156 0 287 125 287 287l0 1438c0 156-125 287-287 287l-1438 0c-156 0-287-125-287-287l0-1438c0-161 130-287 287-287l1438 0 z" fill="#00A6ED"/>
		<path d="M1373 126c217 0 404 174 404 404 0 224-183 403-404 403l-69 0 0 109 265 0c69 0 126 56 126 126 0 69-56 126-126 126l-391 0c-69 0-126-56-126-126l0-361c0-69 56-126 126-126l195 0c79 0 152-63 152-151 0-86-70-152-152-152-111 0-116 93-208 93-71 0-125-60-125-125 0-31 10-58 31-83 72-88 189-137 302-137 z" fill="#FFFFFF"/>
	</g></svg>
