<svg version="1.1" xmlns="http://www.w3.org/2000/svg"><g transform="scale(1,-1)">
		<path d="M2125-287c156 0 287 125 287 287l0 1438c0 156-125 287-287 287l-1438 0c-156 0-287-125-287-287l0-1438c0-161 130-287 287-287l1438 0 z" fill="#00A6ED"/>
		<path d="M1417 137c207 0 378 165 378 378 0 177-124 331-301 369l136 222c12 20 18 42 18 65 0 70-57 126-125 126-45 0-84-21-107-60l-326-531c-35-57-50-129-50-191 0-201 160-378 377-378 z M1417 389c-69 0-126 56-126 126 0 70 58 125 126 125 69 0 126-54 126-125 0-69-56-126-126-126 z" fill="#FFFFFF"/>
	</g></svg>
