<svg version="1.1" xmlns="http://www.w3.org/2000/svg" viewBox="0 0 2300 2300"><g transform="scale(1,-1) translate(-256, -1869)">
		<path d="M2125-287c156 0 287 125 287 287l0 1438c0 156-125 287-287 287l-1438 0c-156 0-287-125-287-287l0-1438c0-161 130-287 287-287l1438 0 z" fill="#00A6ED"/>
		<path d="M1191 132c46 0 87 25 109 63l522 913c11 19 16 39 16 62 0 69-56 126-126 126l-537 0c-69 0-126-56-126-126 0-69 56-126 126-126l321 0-414-724c-11-19-17-40-17-62 0-69 56-126 126-126 z" fill="#FFFFFF"/>
	</g></svg>
