<svg version="1.1" xmlns="http://www.w3.org/2000/svg" viewBox="0 0 2300 2300"><g transform="scale(1,-1) translate(-256, -1869)">
		<path d="M2125-287c156 0 287 125 287 287l0 1438c0 156-125 287-287 287l-1438 0c-156 0-287-125-287-287l0-1438c0-161 130-287 287-287l1438 0 z" fill="#00A6ED"/>
		<path d="M1406 117c201 0 376 160 376 377 0 103-41 204-122 278 44 56 69 126 69 200 0 179-145 324-325 324-178 0-325-144-325-324 0-72 24-143 71-203-80-75-120-175-120-275 0-208 167-377 376-377 z M1406 369c-71 0-125 60-125 125 0 70 57 124 125 124 68 0 125-55 125-124 0-71-60-125-125-125 z M1404 881c-51 0-91 40-91 91 0 51 40 91 91 91 51 0 91-40 91-91 0-51-40-91-91-91 z" fill="#FFFFFF"/>
	</g></svg>
