<svg version="1.1" xmlns="http://www.w3.org/2000/svg" viewBox="0 0 2300 2300"><g transform="scale(1,-1) translate(-256, -1869)">
		<path d="M2125-287c156 0 287 125 287 287l0 1438c0 156-125 287-287 287l-1438 0c-156 0-287-125-287-287l0-1438c0-161 130-287 287-287l1438 0 z" fill="#00A6ED"/>
		<path d="M1312 137c42 0 84 22 107 60l326 531c5 9 8 19 12 28 23 56 38 105 38 164 0 207-168 377-378 377-208 0-377-167-377-377 0-180 127-333 300-370l-136-221c-12-19-18-41-18-65 0-69 56-127 126-127 z M1417 794c-69 0-126 56-126 126 0 69 56 126 126 126 69 0 126-56 126-126 0-69-56-126-126-126 z" fill="#FFFFFF"/>
	</g></svg>
