<svg version="1.1" xmlns="http://www.w3.org/2000/svg" viewBox="0 0 2300 2300"><g transform="scale(1,-1) translate(-256, -1869)">
		<path d="M1406-287c556 0 1006 452 1006 1006 0 556-452 1006-1006 1006-556 0-1006-452-1006-1006 0-556 452-1006 1006-1006 z M1406-72c-436 0-791 356-791 791 0 436 356 791 791 791 436 0 791-356 791-791 0-436-356-791-791-791 z M1440 232c85 0 304 43 304 152 0 53-41 96-95 96-19 0-35-6-52-15-54-29-96-44-155-44-169 0-326 121-326 306 0 168 136 305 305 305 64 0 97-7 159-34 15-7 28-12 45-12 56 0 95 42 95 96 0 39-19 64-51 83-66 39-153 56-228 56-268 0-515-202-515-495 0-205 124-378 302-455 73-32 131-39 212-39 z" fill="#635994"/>
	</g></svg>
