<svg version="1.1" xmlns="http://www.w3.org/2000/svg" viewBox="0 0 2300 2300"><g transform="scale(1,-1) translate(-256, -1869)">
		<path d="M1406-287c556 0 1006 452 1006 1006 0 556-452 1006-1006 1006-556 0-1006-452-1006-1006 0-556 452-1006 1006-1006 z M1406-72c-436 0-791 356-791 791 0 436 356 791 791 791 436 0 791-356 791-791 0-436-356-791-791-791 z M1692 204c44 0 83 33 83 80 0 18-5 29-14 44-72 117-141 262-264 337l0 3c139 35 230 133 230 278 0 204-170 276-338 276l-280 0c-38 0-62-23-62-62l0-869c0-46 35-87 86-87 49 0 86 39 86 87l0 326 70 0c100 0 151-65 195-141l137-231c14-25 40-41 71-41 z M1364 753l-144 0 0 331 144 0c96 0 183-42 183-155 0-110-78-176-183-176 z" fill="#635994"/>
	</g></svg>
