<svg version="1.1" xmlns="http://www.w3.org/2000/svg"><g transform="scale(1,-1)">
		<path d="M1406-287c616 0 1006 391 1006 1006 0 613-388 1006-1006 1006-616 0-1006-391-1006-1006 0-613 388-1006 1006-1006 z" fill="#FFB02E"/>
		<path d="M1806 697c168 0 305 136 305 305 0 167-133 305-305 305-168 0-305-136-305-305 0-168 136-305 305-305 z M1005 703c168 0 302 133 302 302 0 168-133 302-302 302-168 0-302-133-302-302 0-168 133-302 302-302 z" fill="#FFFFFF"/>
		<path d="M1765 791c121 0 216 97 216 215 0 121-99 216-216 216-119 0-215-97-215-216 0-120 97-215 215-215 z M1047 791c120 0 215 97 215 215 0 121-97 216-215 216-120 0-216-95-216-216 0-119 97-215 216-215 z" fill="#402A32"/>
		<path d="M1406 0c230 0 404 104 476 344 16 49 27 106 27 159l-1006 0c0-26 3-53 8-80 52-284 234-423 495-423 z" fill="#BB1D80"/>
		<path d="M1407-215c231 0 336 181 359 377l1 9 0 9c0 45-24 72-61 95-56 35-230 40-299 40-52 0-157-3-237-19-59-12-87-34-106-59-14-18-17-45-17-66l1-9c23-198 130-377 359-377 z" fill="#F70A8D"/>
		<path d="M1899 401c7 35 10 67 10 102l-1006 0c0-35 3-69 10-102l986 0 z" fill="#FFFFFF"/>
	</g></svg>
