<svg version="1.1" xmlns="http://www.w3.org/2000/svg" viewBox="0 0 2300 2300"><g transform="scale(1,-1) translate(-256, -1869)">
		<path d="M2125-287c156 0 287 125 287 287l0 1438c0 156-125 287-287 287l-1438 0c-156 0-287-125-287-287l0-1438c0-161 130-287 287-287l1438 0 z" fill="#8D65C5"/>
		<path d="M1527 135c315 0 595 248 595 587 0 328-269 587-595 587l-237 0c-56 0-99-43-99-99l0-976c0-56 43-99 99-99l237 0 z M932 142c53 0 98 44 98 99l-1 962c0 55-44 99-98 99-56 0-99-43-99-99l1-962c0-56 43-99 99-99 z M1527 333l-139 0 0 778 1 1 138 0c216 0 397-172 397-390 0-219-180-389-397-389 z" fill="#FFFFFF"/>
	</g></svg>
