<svg version="1.1" xmlns="http://www.w3.org/2000/svg" viewBox="0 0 2300 2300"><g transform="scale(1,-1) translate(-256, -1869)">
		<path d="M2125-287c156 0 287 125 287 287l0 1438c0 156-125 287-287 287l-1438 0c-156 0-287-125-287-287l0-1438c0-161 130-287 287-287l1438 0 z" fill="#00A6ED"/>
		<path d="M1406 288c39 0 72 31 72 72l0 289 179 0c147 0 255 101 255 250 0 146-108 251-255 251l-251 0c-39 0-72-31-72-72l0-718c0-39 31-72 72-72 z M2126 307c45 0 80 37 80 81 0 44-35 81-80 81-47 0-81-37-81-81 0-45 37-81 81-81 z M2126 510c40 0 71 34 71 72l0 496c0 38-31 72-71 72-39 0-72-31-72-72l0-496c0-39 31-72 72-72 z M903 288c161 0 288 133 288 291l0 494c0 38-31 72-71 72-38 0-72-33-72-72l0-494c0-79-64-148-145-148-80 0-144 66-144 148l0 494c0 38-33 72-72 72-39 0-72-34-72-72l0-494c0-161 129-291 288-291 z M1657 792l-179 0 0 214 179 0c63 0 112-36 112-107 0-70-51-107-112-107 z" fill="#FFFFFF"/>
	</g></svg>
