<svg version="1.1" xmlns="http://www.w3.org/2000/svg" viewBox="0 0 2300 2300"><g transform="scale(1,-1) translate(-256, -1869)">
		<path d="M2125-287c156 0 287 125 287 287l0 1438c0 156-125 287-287 287l-1438 0c-156 0-287-125-287-287l0-1438c0-161 130-287 287-287l1438 0 z" fill="#FF822D"/>
		<path d="M1073 288c29 0 53 20 63 45l291 717c3 9 5 18 5 27 0 38-33 72-72 72-30 0-57-19-67-45l-223-550-212 549c-10 26-37 46-67 46-39 0-72-34-72-72 0-9 2-17 5-26l278-717c12-31 39-46 71-46 z M1835 282c138 0 255 111 255 251 0 37-9 72-26 103-95 175-375 139-375 273 0 57 70 97 122 97 95 0 158-95 209-95 39 0 72 34 72 72 0 39-42 75-86 102-78 49-132 65-195 65-127 0-266-100-266-242 0-168 155-229 281-267 50-16 120-46 120-109 0-61-51-106-112-106-102 0-176 96-227 96-39 0-72-31-72-72 0-24 10-41 27-57 66-61 186-111 273-111 z" fill="#FFFFFF"/>
	</g></svg>
