<svg version="1.1" xmlns="http://www.w3.org/2000/svg" viewBox="0 0 2300 2300"><g transform="scale(1,-1) translate(-256, -1869)">
		<path d="M2125-287c156 0 287 125 287 287l0 1438c0 156-125 287-287 287l-1438 0c-156 0-287-125-287-287l0-1438c0-161 130-287 287-287l1438 0 z" fill="#FF822D"/>
		<path d="M1406 0c20 0 37 7 51 21 14 14 21 31 21 51l0 350c0 6 3 9 9 9l413 0c4 0 7-4 10-11 2-7 6-15 11-24 5-9 12-18 21-25 9-7 22-11 39-11 19 0 36 7 51 21 14 14 21 31 21 50l0 791c0 20-7 37-21 51-14 14-31 21-51 21l-494 0c-4 0-7 3-8 10-1 6-2 13-2 22l-1 12 1 12c1 7 1 13 1 16 0 20-7 37-21 51-14 14-31 21-51 21-20 0-37-7-51-21-14-14-21-31-21-51 0-3 0-9 1-16 1-8 1-16 1-24l-3-22c-1-7-4-10-8-10l-494 0c-20 0-37-7-51-21-14-14-21-31-21-51l0-791c0-19 7-36 22-50 14-14 31-21 50-21 17 0 31 4 40 11 9 7 16 16 21 25 5 9 8 17 11 24 2 7 5 11 9 11l413 0c6 0 9-3 9-9l0-350c0-20 7-37 21-51 14-14 31-21 51-21 z M1325 935l-413 0c-6 0-9 3-9 9l0 197c0 6 3 9 9 9l413 0c6 0 9-3 9-9l0-197c0-6-3-9-9-9 z M1325 575l-413 0c-6 0-9 3-9 9l0 198c0 6 3 9 9 9l413 0c6 0 9-3 9-9l0-198c0-6-3-9-9-9 z M1900 575l-413 0c-6 0-9 3-9 9l0 198c0 6 3 9 9 9l413 0c6 0 9-3 9-9l0-198c0-6-3-9-9-9 z M1900 935l-413 0c-6 0-9 3-9 9l0 197c0 6 3 9 9 9l413 0c6 0 9-3 9-9l0-197c0-6-3-9-9-9 z" fill="#FFFFFF"/>
	</g></svg>
