<svg version="1.1" xmlns="http://www.w3.org/2000/svg" viewBox="0 0 2300 2300"><g transform="scale(1,-1) translate(-256, -1869)">
		<path d="M2125-287c156 0 287 125 287 287l0 1438c0 156-125 287-287 287l-1438 0c-156 0-287-125-287-287l0-1438c0-161 130-287 287-287l1438 0 z" fill="#FF822D"/>
		<path d="M797 62c21 0 40 9 56 27 36 40 69 82 98 127 29 44 53 91 73 141 10 25 19 51 27 76 7 25 14 51 20 77 3 9 5 19 6 29 1 10 3 20 6 29 1 5 4 7 9 7l734 0c6 0 9-3 9-9l0-276c0-25-7-43-21-53-14-10-31-16-52-18-12-2-23-2-36-2-10 0-20 0-31 1l-35 2-33-2c-21-3-38-9-52-19-14-10-21-28-21-53 0-20 7-37 21-51 14-14 31-21 51-21l137 0c30 0 58 6 84 17 26 11 49 27 69 47 19 19 35 42 46 68 11 26 17 54 17 84l0 1076c0 20-7 37-21 51-14 14-31 21-51 21l-860 0c-20 0-37-7-51-21-14-14-21-31-21-51l0-360c0-47-1-96-3-147-3-51-7-103-13-154-6-52-14-103-25-153-11-50-26-97-43-141-9-24-20-46-31-65-11-20-23-39-35-57-13-18-26-36-40-53l-44-57c-11-14-16-29-16-45 0-19 7-36 21-50 14-15 31-22 51-22 z M1826 1078l-699 0c-6 0-9 3-9 9l0 198c0 6 3 9 9 9l699 0c6 0 9-3 9-9l0-198c0-6-3-9-9-9 z M1826 719l-711 0c-6 0-9 3-9 10 0 13 1 27 3 42 6 58 6 107 9 155 0 6 3 9 9 9l699 0c6 0 9-3 9-9l0-198c0-6-3-9-9-9 z" fill="#FFFFFF"/>
	</g></svg>
