<svg version="1.1" xmlns="http://www.w3.org/2000/svg" viewBox="0 0 2300 2300"><g transform="scale(1,-1) translate(-256, -1869)">
		<path d="M2125-287c156 0 287 125 287 287l0 1438c0 156-125 287-287 287l-1438 0c-156 0-287-125-287-287l0-1438c0-161 130-287 287-287l1438 0 z" fill="#FF822D"/>
		<path d="M1118-72c20 0 37 7 51 21 14 14 21 31 21 51l0 360 647 0 0-216-144 0c-19 0-36-7-50-21-14-15-21-32-21-51 0-19 7-36 21-50 14-15 31-22 50-22l144 0c20 0 39 4 56 12 17 7 33 18 46 31 13 13 23 28 31 45 7 17 11 36 11 56l0 862c0 20-7 37-21 51-14 14-31 21-51 21l-753 0 0 1c16 23 30 46 42 69 12 23 23 47 33 74l822 0c20 0 37 7 51 21 14 14 21 31 21 51 0 20-7 37-21 51-14 14-31 21-51 21l-791 0c0 14 0 29 1 46 0 17-2 32-6 47-4 15-11 27-21 37-10 9-25 14-46 14-21 0-36-5-46-15-10-10-17-22-21-36-3-12-5-25-5-38l0-55-359 0c-20 0-37-7-51-21-14-14-21-31-21-51 0-20 7-37 21-51 14-14 31-21 51-21l317 0c-18-34-42-71-72-112-31-41-63-82-98-123-35-41-69-81-104-118-35-38-66-71-93-99-7-7-13-15-16-23-4-8-6-17-6-28 0-20 7-37 21-51 14-14 31-21 51-21 19 0 36 7 51 21 18 17 38 36 59 59 21 23 43 46 64 70 21 24 42 48 62 72l51 65 1 0 0-934c0-19 7-36 21-50 14-15 31-22 50-22 z M1837 791l-647 0 0 144 647 0 0-144 z M1837 503l-647 0 0 144 647 0 0-144 z" fill="#FFFFFF"/>
	</g></svg>
