<svg version="1.1" xmlns="http://www.w3.org/2000/svg" viewBox="0 0 2300 2300"><g transform="scale(1,-1) translate(-256, -1869)">
		<path d="M2412 431l0 1007c0 156-125 287-287 287l-1438 0c-156 0-287-125-287-287l0-647 2012-360 z" fill="#9F70B8"/>
		<path d="M1909-287l359 110 0 806c0 49-39 90-89 90l-539 0c-51 0-90-39-90-90l0-844c16-4 215-72 215-72l144 0 z M902-287c4 0 267 68 288 72l0 1563c0 50-40 90-90 90l-107 0c-50 0-90-40-90-90l0-54-270 0c-50 0-90-40-90-90l0-1381 214-110 145 0 z" fill="#433B6B"/>
		<path d="M2125-287c156 0 287 125 287 287l0 503-413 0c-51 0-90-39-90-90l0-700 216 0 z M1765-287l0 413c0 51-39 90-90 90l-53 0 0 772c0 50-40 90-90 90l-539 0c-51 0-90-39-90-90l0-1275 862 0 z M759-287l0 1060c0 50-40 90-90 90l-269 0 0-863c0-161 130-287 287-287l72 0 z" fill="#635994"/>
		<path d="M2412-72l0 144-359 0c-39 0-72-31-72-72 0-39 31-72 72-72l359 0 z M2412 216l0 144-359 0c-38 0-72-33-72-72 0-39 31-72 72-72l359 0 z M1442 216c19 0 36 15 36 36l0 72c0 18-17 36-36 36l-72 0c-19 0-36-18-36-36l0-72c0-19 15-36 36-36l72 0 z M1442 503c19 0 36 15 36 36l0 72c0 19-15 36-36 36l-72 0c-19 0-36-15-36-36l0-72c0-19 15-36 36-36l72 0 z M1154-72c19 0 36 15 36 36l0 72c0 19-15 36-36 36l-71 0c-19 0-36-15-36-36l0-72c0-19 15-36 36-36l71 0 z M1154 503c19 0 36 15 36 36l0 72c0 19-15 36-36 36l-71 0c-19 0-36-15-36-36l0-72c0-19 15-36 36-36l71 0 z M579 288c19 0 36 15 36 36l0 72c0 18-17 35-36 35l-71 0c-19 0-36-17-36-35l0-72c0-19 15-36 36-36l71 0 z M1154 791c19 0 36 15 36 36l0 72c0 18-17 36-36 36l-71 0c-18 0-36-17-36-36l0-72c0-19 15-36 36-36l71 0 z" fill="#FFF478"/>
		<path d="M2412 36l0 36-359 0c-26 0-50-12-62-36l421 0 z M2412 324l0 36-359 0c-26 0-49-14-62-36l421 0 z M1442 216c19 0 36 15 36 36l0 72c0 18-17 36-36 36l-72 0c-19 0-36-18-36-36l67 0c29-1 40-11 41-41l0-67 z M1442 503c19 0 36 15 36 36l0 72c0 19-15 36-36 36l-72 0c-19 0-36-15-36-36l67 0c29-1 40-11 41-41l0-67 z M1154-72c19 0 36 15 36 36l0 72c0 19-15 36-36 36l-71 0c-19 0-36-15-36-36l66 0c28-1 40-11 41-41l0-67 z M1154 503c19 0 36 15 36 36l0 72c0 19-15 36-36 36l-71 0c-19 0-36-15-36-36l66 0c28-1 40-11 41-41l0-67 z M579 288c19 0 36 15 36 36l0 72c0 18-17 35-36 35l-71 0c-19 0-36-17-36-35l66 0c28-1 40-12 41-42l0-66 z M1154 791c19 0 36 15 36 36l0 72c0 18-17 36-36 36l-71 0c-18 0-36-17-36-36l66 0c28-1 40-11 41-41l0-67 z" fill="#FCD53F"/>
		<path d="M1442-72l-72 0c-19 0-36 15-36 36l0 72c0 19 15 36 36 36l72 0c19 0 36-15 36-36l0-72c0-19-15-36-36-36 z M1154 216l-71 0c-19 0-36 15-36 36l0 72c0 18 17 36 36 36l71 0c19 0 36-18 36-36l0-72c0-19-15-36-36-36 z M579 0c19 0 36 15 36 36l0 72c0 19-15 36-36 36l-71 0c-19 0-36-15-36-36l0-72c0-19 15-36 36-36l71 0 z M579 575c19 0 36 15 36 36l0 72c0 19-15 36-36 36l-71 0c-19 0-36-15-36-36l0-72c0-19 15-36 36-36l71 0 z M1442 791c19 0 36 15 36 36l0 72c0 18-17 36-36 36l-72 0c-18 0-36-17-36-36l0-72c0-19 15-36 36-36l72 0 z" fill="#321B41"/>
		<path d="M1765-287l0 431c0 21-5 36-14 46-10 10-22 17-36 21-15 4-30 6-47 6-17-1-32-1-46-1l0 790c0 19-7 36-21 51-15 14-32 21-51 21l-216 0 216-36c10-1 19-5 26-10 7-6 10-15 10-26l0-808c0-8 4-13 11-15 7-3 15-4 26-4 11 0 22 1 35 2l10 0 24-1c11-1 20-5 27-10 7-5 10-14 10-26l0-431 36 0 z" fill="#7167A4"/>
	</g></svg>
