<svg version="1.1" xmlns="http://www.w3.org/2000/svg" viewBox="0 0 2300 2300"><g transform="scale(1,-1) translate(-256, -1869)">
		<path d="M2412 431l0 1007c0 156-125 287-287 287l-1438 0c-156 0-287-125-287-287l0-647 2012-360 z" fill="#FF5E59"/>
		<path d="M1729 343c109 0 122 104 194 104 31 0 60-10 91-10 68 0 128 50 141 118l10 60c4 21 18 40 37 51 70 38 130 67 130 156 0 65-49 104-49 148 0 45 49 86 49 149 0 68-34 102-80 129-35 19-79 36-87 78l-10 60c-14 68-71 118-141 118-31 0-60-10-91-10-72 0-86 103-194 103-110 0-122-103-193-103-31 0-60 10-91 10-66 0-130-48-141-118l-10-60c-4-22-19-40-38-51-69-37-130-67-130-155 0-64 49-104 49-150 0-45-49-86-49-149 0-67 35-101 81-127 36-21 79-35 87-79l10-60c11-70 76-118 141-118 31 0 60 10 91 10 72 0 86-104 193-104 z" fill="#FF9F2E"/>
		<path d="M1729 503c251 0 468 202 468 468 0 259-209 467-468 467-258 0-467-206-467-467 0-250 199-468 467-468 z" fill="#FCD53F"/>
		<path d="M1908-287c121 0 255 48 360 110l0 806c0 49-39 90-89 90l-539 0c-51 0-90-39-90-90l0-844c16-4 216-72 216-72l142 0 z M903-287c4 0 267 68 287 72l0 1563c0 50-40 90-90 90l-107 0c-50 0-90-40-90-90l0-54-270 0c-50 0-90-40-90-90l0-1381c51-22 181-74 214-110l146 0 z" fill="#321B41"/>
		<path d="M2125-287c156 0 287 125 287 287l0 503-413 0c-51 0-90-39-90-90l0-700 216 0 z M1765-287l0 413c0 51-39 90-90 90l-53 0 0 772c0 50-40 90-90 90l-539 0c-51 0-90-39-90-90l0-1275 862 0 z M759-287l0 1060c0 50-40 90-90 90l-269 0 0-863c0-161 130-287 287-287l72 0 z" fill="#635994"/>
		<path d="M2412-72l0 144-359 0c-39 0-72-31-72-72 0-39 31-72 72-72l359 0 z M2412 216l0 144-359 0c-38 0-72-33-72-72 0-39 31-72 72-72l359 0 z M1442 216c19 0 36 15 36 36l0 72c0 18-17 36-36 36l-72 0c-19 0-36-18-36-36l0-72c0-19 15-36 36-36l72 0 z M1442 503c19 0 36 15 36 36l0 72c0 19-15 36-36 36l-72 0c-19 0-36-15-36-36l0-72c0-19 15-36 36-36l72 0 z M1154-72c19 0 36 15 36 36l0 72c0 19-15 36-36 36l-71 0c-19 0-36-15-36-36l0-72c0-19 15-36 36-36l71 0 z M1154 503c19 0 36 15 36 36l0 72c0 19-15 36-36 36l-71 0c-19 0-36-15-36-36l0-72c0-19 15-36 36-36l71 0 z M579 288c19 0 36 15 36 36l0 72c0 18-17 35-36 35l-71 0c-19 0-36-17-36-35l0-72c0-19 15-36 36-36l71 0 z M1154 791c19 0 36 15 36 36l0 72c0 18-17 36-36 36l-71 0c-18 0-36-17-36-36l0-72c0-19 15-36 36-36l71 0 z" fill="#FFF478"/>
		<path d="M2412 36l0 36-359 0c-26 0-50-12-62-36l421 0 z M2412 324l0 36-359 0c-26 0-49-14-62-36l421 0 z M1442 216c19 0 36 15 36 36l0 72c0 18-17 36-36 36l-72 0c-19 0-36-18-36-36l67 0c29-1 40-11 41-41l0-67 z M1442 503c19 0 36 15 36 36l0 72c0 19-15 36-36 36l-72 0c-19 0-36-15-36-36l67 0c29-1 40-11 41-41l0-67 z M1154-72c19 0 36 15 36 36l0 72c0 19-15 36-36 36l-71 0c-19 0-36-15-36-36l66 0c28-1 40-11 41-41l0-67 z M1154 503c19 0 36 15 36 36l0 72c0 19-15 36-36 36l-71 0c-19 0-36-15-36-36l66 0c28-1 40-11 41-41l0-67 z M579 288c19 0 36 15 36 36l0 72c0 18-17 35-36 35l-71 0c-19 0-36-17-36-35l66 0c28-1 40-12 41-42l0-66 z M1154 791c19 0 36 15 36 36l0 72c0 18-17 36-36 36l-71 0c-18 0-36-17-36-36l66 0c28-1 40-11 41-41l0-67 z" fill="#FCD53F"/>
		<path d="M1442-72l-72 0c-19 0-36 15-36 36l0 72c0 19 15 36 36 36l72 0c19 0 36-15 36-36l0-72c0-19-15-36-36-36 z M1154 216l-71 0c-19 0-36 15-36 36l0 72c0 18 17 36 36 36l71 0c19 0 36-18 36-36l0-72c0-19-15-36-36-36 z M579 0c19 0 36 15 36 36l0 72c0 19-15 36-36 36l-71 0c-19 0-36-15-36-36l0-72c0-19 15-36 36-36l71 0 z M579 575c19 0 36 15 36 36l0 72c0 19-15 36-36 36l-71 0c-19 0-36-15-36-36l0-72c0-19 15-36 36-36l71 0 z M1442 791c19 0 36 15 36 36l0 72c0 18-17 36-36 36l-72 0c-18 0-36-17-36-36l0-72c0-19 15-36 36-36l72 0 z" fill="#321B41"/>
		<path d="M1765-287l0 431c0 21-5 36-14 46-10 10-22 17-36 21-15 4-30 6-47 6-17-1-32-1-46-1l0 790c0 19-7 36-21 51-15 14-32 21-51 21l-216 0 216-36c10-1 19-5 26-10 7-6 10-15 10-26l0-808c0-8 4-13 11-16 5-2 11-3 18-3l8 0c11 0 22 1 35 2l10 0 24-1c11-1 20-5 27-10 7-5 10-14 10-26l0-431 36 0 z" fill="#7167A4"/>
	</g></svg>
