<svg version="1.1" xmlns="http://www.w3.org/2000/svg" viewBox="0 0 2300 2300"><g transform="scale(1,-1) translate(-256, -1869)">
		<path d="M2125-287c156 0 287 125 287 287l0 1438c0 156-125 287-287 287l-1438 0c-156 0-287-125-287-287l0-1438c0-161 130-287 287-287l1438 0 z" fill="#D3D3D3"/>
		<path d="M2412 787l0 651c0 33-6 65-17 97-37-16-74-29-114-29-96 0-163 70-258 70-91 0-157-70-247-70-93 0-158 70-253 70-96 0-164-70-259-70-96 0-143 70-246 70-98 0-149-70-257-70-88 0-154 70-242 70-35 0-64-7-95-22-16-36-24-75-24-116l0-651 2012 0 z" fill="#E6E6E6"/>
		<path d="M2412 354l0 593c-69 24-107 59-183 59-91 0-157-70-247-70-93 0-158 70-253 70-96 0-164-70-259-70-96 0-143 70-246 70-93 0-162-70-257-70-89 0-155 70-242 70l-52 0 0-652 1739 0 z" fill="#F4F4F4"/>
		<path d="M1909-287l359 110 0 806c0 49-39 90-89 90l-539 0c-51 0-90-39-90-90l0-844c16-4 215-72 215-72l144 0 z M902-287c4 0 267 68 288 72l0 1563c0 50-40 90-90 90l-107 0c-50 0-90-40-90-90l0-54-270 0c-50 0-90-40-90-90l0-1381 214-110 145 0 z" fill="#9B9B9B"/>
		<path d="M2125-144c161 0 171 70 287 144l0 503-413 0c-51 0-90-39-90-90l0-557 216 0 z M1765-144l0 270c0 51-39 90-90 90l-53 0 0 772c0 50-40 90-90 90l-539 0c-51 0-90-39-90-90l0-1132 862 0 z M759-144l0 917c0 50-40 90-90 90l-269 0 0-863c82-143 128-144 287-144l72 0 z" fill="#5A93CB"/>
		<path d="M2366-72c16 0 30 14 34 28 0 3 12 48 12 48l0 68-359 0c-39 0-72-31-72-72 0-39 31-72 72-72l313 0 z M2412 216l0 144-359 0c-38 0-72-33-72-72 0-39 31-72 72-72l359 0 z M1442 216c19 0 36 15 36 36l0 72c0 18-17 36-36 36l-72 0c-19 0-36-18-36-36l0-72c0-19 15-36 36-36l72 0 z M1442 503c19 0 36 15 36 36l0 72c0 19-15 36-36 36l-72 0c-19 0-36-15-36-36l0-72c0-19 15-36 36-36l72 0 z M1154-72c19 0 36 15 36 36l0 72c0 19-15 36-36 36l-71 0c-19 0-36-15-36-36l0-72c0-19 15-36 36-36l71 0 z M1154 503c19 0 36 15 36 36l0 72c0 19-15 36-36 36l-71 0c-19 0-36-15-36-36l0-72c0-19 15-36 36-36l71 0 z M579 288c19 0 36 15 36 36l0 72c0 18-17 35-36 35l-71 0c-19 0-36-17-36-35l0-72c0-19 15-36 36-36l71 0 z M1154 791c19 0 36 15 36 36l0 72c0 18-17 36-36 36l-71 0c-18 0-36-17-36-36l0-72c0-19 15-36 36-36l71 0 z" fill="#FFF478"/>
		<path d="M2412 36l0 36-359 0c-26 0-50-12-62-36l421 0 z M2412 324l0 36-359 0c-26 0-49-14-62-36l421 0 z M1442 216c19 0 36 15 36 36l0 72c0 18-17 36-36 36l-72 0c-19 0-36-18-36-36l67 0c29-1 40-11 41-41l0-67 z M1442 503c19 0 36 15 36 36l0 72c0 19-15 36-36 36l-72 0c-19 0-36-15-36-36l67 0c29-1 40-11 41-41l0-67 z M1154-72c19 0 36 15 36 36l0 72c0 19-15 36-36 36l-71 0c-19 0-36-15-36-36l66 0c28-1 40-11 41-41l0-67 z M1154 503c19 0 36 15 36 36l0 72c0 19-15 36-36 36l-71 0c-19 0-36-15-36-36l66 0c28-1 40-11 41-41l0-67 z M579 288c19 0 36 15 36 36l0 72c0 18-17 35-36 35l-71 0c-19 0-36-17-36-35l66 0c28-1 40-12 41-42l0-66 z M1154 791c19 0 36 15 36 36l0 72c0 18-17 36-36 36l-71 0c-18 0-36-17-36-36l66 0c28-1 40-11 41-41l0-67 z" fill="#FCD53F"/>
		<path d="M1442-72l-72 0c-19 0-36 15-36 36l0 72c0 19 15 36 36 36l72 0c19 0 36-15 36-36l0-72c0-19-15-36-36-36 z M1154 216l-71 0c-19 0-36 15-36 36l0 72c0 18 17 36 36 36l71 0c19 0 36-18 36-36l0-72c0-19-15-36-36-36 z M579 0c19 0 36 15 36 36l0 72c0 19-15 36-36 36l-71 0c-19 0-36-15-36-36l0-72c0-19 15-36 36-36l71 0 z M579 575c19 0 36 15 36 36l0 72c0 19-15 36-36 36l-71 0c-19 0-36-15-36-36l0-72c0-19 15-36 36-36l71 0 z M1442 791c19 0 36 15 36 36l0 72c0 18-17 36-36 36l-72 0c-18 0-36-17-36-36l0-72c0-19 15-36 36-36l72 0 z" fill="#212121"/>
		<path d="M2125-287c160 0 287 128 287 291-85 0-153-71-246-71-101 0-161 71-258 71-91 0-158-71-247-71-94 0-159 71-253 71-96 0-164-71-259-71-99 0-143 71-246 71-93 0-162-71-257-71-91 0-151 71-246 71 0-160 124-291 287-291l1438 0 z" fill="#D3D3D3"/>
	</g></svg>
