<svg version="1.1" xmlns="http://www.w3.org/2000/svg" viewBox="0 0 2300 2300"><g transform="scale(1,-1) translate(-256, -1869)">
		<path d="M2322-156c41 0 72 34 72 72 0 20-7 37-21 51l-1370 1364-101-102 1370-1364c14-14 31-21 50-21 z" fill="#433B6B"/>
		<path d="M524 1134c41 0 72 34 72 72 0 51-53 61-53 127 0 59 48 104 107 104 26 0 55-11 74-30l180-180c14-14 31-21 50-21 41 0 72 34 72 72 0 20-7 37-21 51l-180 180c-48 48-112 72-176 72-136 0-249-109-249-248 0-62 44-199 124-199 z" fill="#8C5543"/>
		<path d="M2247-103c70 0 94 23 94 89 0 302-471 1238-697 1453-11 11-26 17-43 17-85 0-180-116-183-197l2 0-2-2 0 2c-125 0-226-101-226-225-125 0-226-101-226-224-80 0-190-101-190-181 0-16 5-29 15-39 217-227 1148-693 1456-693 z" fill="#8D65C5"/>
	</g></svg>
