<svg version="1.1" xmlns="http://www.w3.org/2000/svg" viewBox="0 0 2300 2300"><g transform="scale(1,-1) translate(-256, -1869)">
		<path d="M1406-287c547 0 1006 440 1006 1006 0 547-440 1006-1006 1006-547 0-1006-440-1006-1006 0-547 440-1006 1006-1006 z" fill="#0074BA"/>
		<path d="M1719-1c29 0 51 16 66 41 16 32 51 85 51 120l0 81c0 28-15 53-40 66l-87 44c-11 5-22 8-34 8l-114 0c-31 0-143-42-177-55-29-11-50-37-50-69l0-89c0-41 31-74 74-74l110 0c64 0 72-73 133-73l68 0 z M1888-72c15 0 24 6 35 15l115 114c10 10 15 22 15 36 0 29-24 51-51 51-14 0-26-5-36-15l-114-114c-9-9-16-21-16-36 0-30 25-51 52-51 z M1528 862c14 0 26 5 36 15l114 114c10 10 15 22 15 36 0 27-22 51-51 51-14 0-26-5-36-15l-114-114c-10-10-15-22-15-36 0-29 24-51 51-51 z M1154 431c19 0 36 15 36 36l0 72c0 19-15 36-36 36-19 0-36-15-36-36l0-72c0-19 15-36 36-36 z M1368 431c21 0 38 16 38 38l0 68c0 21-16 38-38 38l-68 0c-22 0-39-17-39-38l0-68c0-21 17-38 39-38l68 0 z M1705 432c31 0 61 14 61 51 0 14-5 26-15 36l-114 114c-9 9-21 16-36 16-29 0-51-27-51-53l0-67c0-21 10-37 30-46 26-13 100-51 125-51 z M541 205c25 27 43 50 54 67 11 17 18 34 21 51 2 10 3 21 3 33l-1 22c-2 21-3 48-3 83 0 11 2 20 6 25 3 5 8 8 13 11 5 2 11 3 17 4 6 1 12 2 17 5 5 3 10 7 14 13 3 6 5 15 5 28 0 12-1 24-3 36-2 12-5 23-10 32-5 9-13 17-22 23-10 6-22 9-37 9-20 0-37 7-51 21-14 14-21 31-21 51l0 37c0 9 4 18 11 25 7 7 15 10 24 10 10 0 17-2 22-5 4-4 7-9 9-14 2-5 4-11 5-17 1-7 3-13 6-18 3-5 7-10 14-13 6-4 16-6 29-6 19 0 34 1 47 4 12 3 22 8 29 15 7 7 11 16 14 28 3 12 4 27 4 46 0 13 2 25 7 36 4 11 14 16 30 16 13 0 22-4 27-12 5-8 9-18 10-29l1-24-2-40c0-9 2-16 6-21 3-5 8-9 13-11 5-3 11-5 17-6 6-1 12-3 17-5 5-2 10-5 14-9 3-5 5-11 5-19l-1-44c0-8 1-16 2-24 1-8 3-15 6-22 3-7 8-12 14-16 6-4 14-6 24-6 18 0 31 8 40 25l116 233c5 9 12 17 21 22 9 5 18 8 28 8 15 0 28-5 37-16 9-11 17-24 23-40 6-16 11-33 15-52 4-19 9-36 14-52 5-16 12-29 20-40 7-11 18-16 31-16 11 0 21 4 30 13 8 8 12 18 12 29l0 138c0 13 4 22 11 26 7 4 16 7 25 10 9 3 17 6 25 10 7 4 11 13 11 26 0 11 0 22-1 33-1 11-1 22-1 33 0 14 1 28 3 41 1 13 5 25 11 36 5 11 13 19 23 26 10 7 24 10 41 10 23 0 40 8 51 23 11 15 16 33 16 54 0 19-7 35-20 48-13 13-29 19-48 19l-23 0c-13 0-25 2-36 6-11 4-17 14-17 30 0 10 4 19 11 26 7 7 15 10 25 10l117 0c17 0 32-6 45-18 12-13 18-28 18-45l-1-29c0-13 2-25 7-36 4-11 14-16 30-16 10 0 19 4 26 11 7 7 10 15 10 25l0 42c0 19 4 37 11 54 7 17 17 31 30 44 12 12 26 22 43 29 17 7 35 11 54 11l113 0c10 0 19 4 26 11 7 7 10 15 10 25 0 10-3 19-10 26-7 7-16 10-26 10l-208 0c-15 0-25 4-30 11-5 7-9 16-11 25l-9 25c-3 7-11 11-22 11l-326 0c-51 0-97 14-139 43l-156 105c-97-37-185-88-264-151-79-64-147-137-203-219-56-82-99-171-130-268-31-97-46-197-46-301 0-91 12-179 36-266 23-87 58-170 105-248 z" fill="#00D26A"/>
	</g></svg>
