<svg version="1.1" xmlns="http://www.w3.org/2000/svg" viewBox="0 0 2300 2300"><g transform="scale(1,-1) translate(-256, -1869)">
		<path d="M2125-69l0 473c-139-139-329-185-526-185-285 0-515 230-515 515 0 278 221 516 518 516l0 183-841 0 0-1502 1364 0 z" fill="#26C9FC"/>
		<path d="M2340-287c39 0 72 31 72 72l0 801c-123-46-215-116-300-190-166-144-313-304-634-304-326 0-661 292-661 635 0 127 33 242 97 341 99 153 299 276 481 276 42 0 93-3 131-26l87-119 301 0 0 69c0 16-47 93-58 109-138 204-392 299-635 299-61 0-120-8-178-25-375-110-643-488-643-871l0-995c0-39 31-72 72-72l1868 0 z" fill="#00A6ED"/>
		<path d="M2054 921c-42 0-78 31-81 75-11-3-24-4-39-4-66 0-124 33-159 84-34-51-92-84-158-84-58 0-109 25-144 66-36-40-88-66-145-66-104 0-191 83-191 191 0 108 87 191 191 191 57 0 109-26 145-66 37 44 89 66 144 66 62 0 123-30 158-83 35 50 93 83 159 83 104 0 191-83 191-191 0-39-11-75-34-108 28-13 45-43 45-73 0-47-38-81-82-81 z M1553 771c44 0 82 35 82 82 0 44-35 82-82 82-44 0-82-35-82-82 0-44 35-82 82-82 z M2263 711c-47 0-82 38-82 82 0 47 38 81 82 81 44 0 82-34 82-81 0-44-35-82-82-82 z M2263 1130c-44 0-82 35-82 82 0 44 35 82 82 82 44 0 82-35 82-82 0-44-35-82-82-82 z M1769 1366c46 0 82 34 82 82 0 47-38 81-82 81-44 0-81-34-81-81 0-44 34-82 81-82 z" fill="#B4F6FC"/>
	</g></svg>
