<svg version="1.1" xmlns="http://www.w3.org/2000/svg" viewBox="0 0 2300 2300"><g transform="scale(1,-1) translate(-256, -1869)">
		<path d="M2148-287c36 0 70 7 102 21 32 13 60 32 84 56 24 24 43 52 57 84 14 32 21 66 21 102l0 1098-108 105 108 246c0 23-1 45-2 66-1 21-6 42-15 65l-299 10c-15 1-28 1-40 1-12-1-24-1-35-1l-18-1-17 1c-12 1-25 2-40 5-11 2-31 7-58 16-28 8-60 18-95 29-36 11-73 24-112 37l-109 35c-33 11-62 20-86 27-24 7-38 10-43 10l-780 0c-36 0-70-7-102-21-32-14-60-33-84-57-24-24-43-52-56-84-14-32-21-66-21-102l0-910 66-359c3-17 7-33 11-47 3-15 7-29 10-42l9-42c2-15 3-31 3-49 0-15-1-27-3-37-2-10-4-22-5-36l-17-146c25-25 53-45 86-59 33-14 67-21 103-21l621 0 76 27c13 4 26 8 38 13l46 16 133-56 571 0 z" fill="#321B41"/>
		<path d="M579 1078c19 0 36 15 36 36 0 19-15 36-36 36-19 0-36-15-36-36 0-19 15-36 36-36 z M2232 72c19 0 36 15 36 36 0 19-15 36-36 36-19 0-36-15-36-36 0-19 15-36 36-36 z M1872 0c19 0 36 15 36 36 0 19-15 36-36 36-18 0-36-17-36-36 0-19 18-36 36-36 z M2088 431c19 0 36 18 36 36 0 19-15 36-36 36-19 0-36-15-36-36 0-18 17-36 36-36 z M794 1438c19 0 36 15 36 36 0 18-17 36-36 36-18 0-36-17-36-36 0-19 15-36 36-36 z M1578-287c131 549 380 1014 834 1361l0 352c-631-412-970-989-1129-1713l295 0 z M474-208c503 204 741 462 1064 919 258 367 457 603 856 845-39 100-133 169-246 169l-706 0c-187-182-339-384-491-599-165-232-297-425-551-574l0-576c0-70 29-135 74-184 z" fill="#0074BA"/>
		<path d="M1765 504c7 0 12 3 15 9l13 27c8 17 44 15 44 36 0 16-25 22-36 27-17 11-16 45-37 45-21 0-17-35-34-43l-28-13c-6-3-9-9-9-16 0-12 14-19 25-23 33-11 25-49 47-49 z M937 361c24 0 34 36 43 54 11 24 66 21 66 53 0 24-39 34-55 42-25 14-20 65-53 65-25 0-31-35-39-52-11-21-68-24-68-55 0-25 36-32 52-40 24-10 27-67 54-67 z M1333 1151c11 0 11 1 23 28 14 30 50 21 50 43 0 21-37 20-45 36l-13 27c-3 7-8 10-15 10-16 0-21-24-26-35-10-15-45-18-45-37 0-18 23-22 35-27 17-9 15-45 36-45 z" fill="#FCD53F"/>
		<path d="M1261 576c12 0 12 1 24 28 15 33 49 21 49 43 0 15-19 18-34 26-18 8-15 47-39 47-21 0-18-35-34-43l-28-13c-6-3-9-9-9-16 0-18 23-22 35-27 11-5 17-26 21-36 3-7 10-9 15-9 z M1836 1295c17 0 22 20 28 35 8 20 45 12 45 36 0 17-27 23-37 28-16 8-13 44-36 44-21 0-18-34-34-42l-28-14c-6-3-9-8-9-15 0-18 23-22 35-27 11-5 17-26 21-36 3-7 10-9 15-9 z" fill="#26EAFC"/>
		<path d="M1585 144c19 0 36 15 36 36 0 19-15 36-36 36-19 0-36-15-36-36 0-19 15-36 36-36 z M1010 863c19 0 36 15 36 36 0 18-17 36-36 36-18 0-36-17-36-36 0-19 15-36 36-36 z M1585 1006c19 0 36 18 36 36 0 19-15 36-36 36-19 0-36-15-36-36 0-18 17-36 36-36 z" fill="#26EAFC"/>
		<path d="M651 144c18 0 35 17 35 36 0 19-17 36-35 36-19 0-36-15-36-36 0-19 15-36 36-36 z M2160 1006c-18 0-36 17-36 36 0 19 15 36 36 36 19 0 36-15 36-36 0-18-17-36-36-36 z M1801 1581c18 0 35 17 35 36 0 19-17 36-35 36-19 0-36-15-36-36 0-18 17-36 36-36 z" fill="#F4F4F4"/>
	</g></svg>
