<svg version="1.1" xmlns="http://www.w3.org/2000/svg" viewBox="0 0 2300 2300"><g transform="scale(1,-1) translate(-256, -1869)">
		<path d="M1514-282c66 0 189 36 252 61 389 149 646 521 646 940 0 417-257 794-654 943-64 24-187 59-254 59-35 0-66-140-98-140-567 0-791-317-791-862 0-524 211-934 791-934 37 0 68-67 108-67 z" fill="#8D65C5"/>
		<path d="M2044-59c131 107 230 245 293 396-33 15-68 23-104 23-139 0-252-113-252-252 0-63 23-121 63-167 z M1873 863c98 0 180 79 180 179 0 98-78 180-180 180-98 0-180-78-180-180 0-98 79-179 180-179 z" fill="#6B438B"/>
		<path d="M1406-287c34 0 67 1 101 5 302 246 474 613 474 1001 0 53-3 107-10 160-77 31-134 109-134 199 0 49 17 96 47 134-85 204-215 376-377 508-34 4-67 5-101 5-547 0-1006-440-1006-1006 0-547 440-1006 1006-1006 z" fill="#FCD53F"/>
		<path d="M988-197c-153 71-288 178-391 317 46 57 117 96 198 96 139 0 252-113 252-252 0-60-20-116-59-161 z M1873 863c-98 0-180 79-180 179 0 104 81 180 187 180l4-10c-31-39-47-85-47-134 0-84 48-159 122-194-27-13-55-21-86-21 z M939 719c-139 0-252 113-252 252 0 135 111 251 252 251 140 0 251-116 251-251 0-138-110-252-251-252 z M1442 144c98 0 180 78 180 180 0 98-79 179-180 179-98 0-180-79-180-179 0-98 78-180 180-180 z M1370 1366c57 0 108 46 108 108 0 58-47 107-108 107-60 0-108-49-108-107 0-63 50-108 108-108 z" fill="#F9C23C"/>
	</g></svg>
