<svg version="1.1" xmlns="http://www.w3.org/2000/svg" viewBox="0 0 2300 2300"><g transform="scale(1,-1) translate(-256, -1869)">
		<path d="M1194-286c555 0 1002 448 1002 1006 0 546-433 1005-1002 1005l-48-1c-93-3-197-8-197-64 0-38 61-66 84-84 194-152 363-448 363-712 0-102-122-119-122-194 0-46 65-97 96-125-70-269-255-529-524-649-33-14-71-27-71-63 0-21 10-30 27-40 95-53 290-79 392-79 z" fill="#FCD53F"/>
		<path d="M1665 1283c61 0 113 51 113 113 0 61-51 113-113 113-61 0-113-51-113-113 0-61 51-113 113-113 z M1374-221c102 0 183 82 183 183 0 101-82 182-183 182-101 0-182-82-182-182 0-98 77-183 182-183 z M2137 375c40 112 59 228 59 347 0 51-3 103-11 154l-12 1c-154 0-265-106-265-251 0-131 100-240 229-251 z M1343 1503c100 0 191 61 229 148-121 49-248 74-379 74-33 0-66-2-99-5 16-127 127-217 249-217 z" fill="#F9C23C"/>
		<path d="M1581 865c-30 0-55 22-55 54 0 5 1 11 3 17 28 86 112 142 197 142 21 0 41-3 61-9 62-20 135-81 135-142 0-29-24-54-54-54-65 0-50 97-142 97-101 0-79-105-145-105 z M1501 355c83 0 179 71 179 163 0 29-21 54-53 54-76 0-36-110-126-110-29 0-54-21-54-53 0-32 24-54 54-54 z M2006 1005c19 0 36 15 36 36 0 139-111 250-250 250-19 0-36-15-36-36 0-19 15-36 36-36 98 0 178-79 178-178 0-19 15-36 36-36 z" fill="#321B41"/>
	</g></svg>
