<svg version="1.1" xmlns="http://www.w3.org/2000/svg" viewBox="0 0 2300 2300"><g transform="scale(1,-1) translate(-256, -1869)">
		<path d="M1427-287c30 0 72 1 81 5 70 22 197 89 258 122 361 195 574 458 574 879 0 422-233 705-588 893-66 34-169 85-247 108-14 3-84 5-99 5-547 0-1006-440-1006-1006 0-547 440-1006 1006-1006l21 0 z" fill="#533566"/>
		<path d="M988-197c-153 71-288 178-391 317 46 57 117 96 198 96 139 0 252-113 252-252 0-60-20-116-59-161 z M1442 144c98 0 180 78 180 180 0 98-79 179-180 179-98 0-180-79-180-179 0-98 78-180 180-180 z M1873 863c-98 0-180 79-180 179 0 98 78 180 180 180 98 0 180-78 180-180 0-98-79-179-180-179 z M939 719c138 0 251 111 251 252 0 140-116 251-251 251-140 0-252-115-252-251 0-139 113-252 252-252 z M1370 1366c57 0 108 46 108 108 0 58-47 107-108 107-60 0-108-49-108-107 0-63 50-108 108-108 z" fill="#321B41"/>
		<path d="M1507-282c511 52 905 480 905 1001 0 547-440 1006-1006 1006l30 0-30 0c34 0 67-1 101-5 162-132 292-304 377-508-31-39-47-85-47-134 0-87 54-167 134-199 7-53 10-107 10-160 0-389-173-756-474-1001 z" fill="#FCD53F"/>
		<path d="M2044-59c131 107 230 245 293 396-33 15-68 23-104 23-139 0-252-113-252-252 0-63 23-121 63-167 z M1959 884c55 31 94 89 94 158 0 90-68 171-162 179-36-40-54-92-54-143 0-84 48-159 122-194 z" fill="#F9C23C"/>
	</g></svg>
