<svg version="1.1" xmlns="http://www.w3.org/2000/svg" viewBox="0 0 2300 2300"><g transform="scale(1,-1) translate(-256, -1869)">
		<path d="M1393-287c551 0 1005 449 1005 1005 0 299-143 618-386 794-8 6-17 9-27 9-25 0-47-20-47-46l1-11c17-79 29-156 29-236 0-551-447-1006-1003-1006-140 0-267 33-399 83-7 3-11 4-18 4-27 0-45-24-45-47 0-9 2-16 6-23 176-325 514-526 884-526 z" fill="#FCD53F"/>
		<path d="M1823 73c119 0 215 97 215 216 0 121-97 216-215 216-121 0-216-99-216-216 0-121 99-216 216-216 z M2182 505c-39 0-71 33-71 71 0 38 31 72 71 72 41 0 71-33 71-72 0-38-32-71-71-71 z M1218-73c61 0 113 51 113 113 0 61-51 113-113 113-65 0-113-53-113-113 0-61 51-113 113-113 z M2146 853c61 0 113 51 113 113 0 61-51 113-113 113-61 0-113-51-113-113 0-61 51-113 113-113 z" fill="#F9C23C"/>
	</g></svg>
