<svg version="1.1" xmlns="http://www.w3.org/2000/svg" viewBox="0 0 2300 2300"><g transform="scale(1,-1) translate(-256, -1869)">
		<path d="M1616-287c100 0 306 29 392 79 17 10 27 19 27 40 0 11-2 19-7 25-21 25-77 42-119 66-238 134-405 362-468 621 29 26 96 80 96 124 0 75-122 92-122 194 0 264 165 561 366 715 24 19 80 46 80 82 0 12-3 21-9 28-32 34-170 37-235 37-556 0-1003-448-1003-1005 0-557 445-1006 1002-1006 z" fill="#FCD53F"/>
		<path d="M1145 1282c61 0 113 51 113 113 0 61-51 113-113 113-61 0-113-51-113-113 0-61 51-113 113-113 z M1436-222c102 0 183 82 183 183 0 101-82 182-183 182-101 0-182-82-182-182 0-98 77-183 182-183 z M673 374c131 11 230 122 230 251 0 104-64 193-154 232-38 16-77 19-111 19l-13-1c-8-51-11-102-11-154 0-119 20-235 59-347 z M1468 1502c122 0 233 91 249 217-33 3-67 5-100 5-129 0-258-25-379-74 41-89 128-148 230-148 z" fill="#F9C23C"/>
		<path d="M1229 864c-64 0-44 105-144 105-96 0-80-96-143-96-30 0-54 22-54 54l1 10c17 75 110 140 196 140 22 0 43-3 64-10 64-22 135-90 135-149 0-32-25-54-55-54 z M1310 354c30 0 54 22 54 54 0 29-24 54-54 54-92 0-51 109-126 109-32 0-53-25-53-54 0-91 95-163 179-163 z M805 1004c19 0 36 15 36 36 0 98 79 178 178 178 19 0 36 15 36 36 0 19-15 36-36 36-139 0-250-111-250-250 0-19 15-36 36-36 z" fill="#321B41"/>
	</g></svg>
