<svg version="1.1" xmlns="http://www.w3.org/2000/svg" viewBox="0 0 2300 2300"><g transform="scale(1,-1) translate(-256, -1869)">
		<path d="M1993-359c314 0 563 266 563 576 0 320-261 574-580 574-145 0-290-53-402-161-32 11-64 17-96 17-96 0-187-47-242-133-218-15-405-195-405-432 0-243 203-441 444-441l718 0 z" fill="#B4ACBC"/>
		<path d="M1295-238c83 0 142 44 177 111 20 39 55 61 97 61 62 0 91-54 172-54 96 0 177 79 177 176 0 31-12 59-12 90 0 28 9 52 27 72 33 37 56 34 106 41 92 11 156 87 156 177 0 128-117 140-117 232 0 100 118 101 118 233 0 69-38 128-92 158-38 20-54 19-100 25-53 7-93 50-93 106 0 32 12 60 12 93 0 95-78 177-177 177-80 0-111-53-169-53-45 0-80 24-98 62-35 68-94 113-177 113-82 0-143-44-178-112-20-39-54-61-97-61-62 0-91 54-172 54-96 0-177-79-177-176 0-31 12-59 12-90 0-29-9-52-26-71-32-35-56-34-107-42-91-13-156-85-156-177 0-130 117-138 117-232 0-100-118-101-118-233 0-69 38-127 93-158 39-22 54-19 99-25 53-7 93-50 93-106 0-32-12-60-12-93 0-95 78-177 177-177 78 0 111 53 169 53 45 0 80-24 98-62 35-70 97-112 178-112 z" fill="#FF822D"/>
		<path d="M1295-34c388 0 706 312 706 706 0 388-312 706-706 706-387 0-705-316-705-706 0-387 314-706 705-706 z" fill="#F9C23C"/>
		<path d="M1993-287c271 0 491 231 491 502 0 279-226 504-507 504-141 0-304-68-386-176-35 21-72 32-113 32-88 0-165-52-199-131-198 0-376-144-376-362 0-201 166-369 372-369l718 0 z" fill="#F3EEF8"/>
	</g></svg>
