<svg version="1.1" xmlns="http://www.w3.org/2000/svg" viewBox="0 0 2300 2300"><g transform="scale(1,-1) translate(-256, -1869)">
		<path d="M1907-285c276 0 503 223 503 503 0 277-224 503-502 503-29 0-58-3-89-8l-928 928c-56 56-130 84-204 84-156 0-287-125-287-287 0-74 28-148 84-204l928-928c-5-31-8-60-8-89 0-276 222-502 503-502 z" fill="#F4F4F4"/>
		<path d="M1907-141c190 0 359 152 359 359 0 191-155 359-359 359-45 0-88-7-131-24l-987 986c-26 26-63 42-102 42-80 0-143-65-143-144 0-38 16-74 42-101l986-987c-17-43-24-86-24-131 0-196 157-359 359-359 z" fill="#F8312F"/>
		<path d="M1499 653c20 0 37 7 51 21l152 153-101 101-153-152c-14-14-21-31-21-51 0-39 31-72 72-72 z M1194 958c20 0 37 7 51 21l152 153-101 101-152-153c-14-14-21-31-21-51 0-38 32-71 71-71 z M889 1264c20 0 37 7 51 21l153 152-102 101-152-152c-14-14-21-31-21-51 0-39 33-71 71-71 z" fill="#000000"/>
		<path d="M2051 146c80 0 143 65 143 144 0 80-64 144-143 144-81 0-144-67-144-144 0-79 60-144 144-144 z" fill="#FF8687"/>
	</g></svg>
