<svg version="1.1" xmlns="http://www.w3.org/2000/svg" viewBox="0 0 2300 2300"><g transform="scale(1,-1) translate(-256, -1869)">
		<path d="M1765 431c346 0 647 294 647 647 0 23-1 45-4 67-44 320-300 580-645 580-179 0-345-72-468-201-50 37-110 57-174 57-131 0-247-89-281-216-255-16-440-220-440-477 0-254 210-457 467-457l898 0 z" fill="#1345B7"/>
		<path d="M1291-142c18 0 22 8 48 51 78 125 296 479 296 494 0 28-27 29-46 29-21 0-42-3-63-3-22 0-48 2-48 31l0 380c0 16-12 28-29 28-11 0-19-4-24-12l-349-524c-3-5-5-11-5-16 0-29 32-31 52-31 30 0 56 5 86 5 21 0 53-2 53-31l0-372c0-16 13-29 29-29 z" fill="#FF6723"/>
	</g></svg>
