<svg version="1.1" xmlns="http://www.w3.org/2000/svg" viewBox="0 0 2300 2300"><g transform="scale(1,-1) translate(-256, -1869)">
		<path d="M1356 184c325 0 587 265 587 588 0 152-57 299-173 415l-462 463-830-831 462-462c107-107 253-173 416-173 z" fill="#F3AD61"/>
		<path d="M1948-269c269 59 462 295 462 574 0 286-173 416-359 602-60-396-74-786-103-1176 z" fill="#9B9B9B"/>
		<path d="M1823-282c43 0 84 4 125 13 149 183 237 412 237 663 0 163-37 319-106 459 0 3-25 51-28 54-133 137-270 270-411 411 115-115 172-263 172-415 0-324-264-588-588-588-163 0-308 66-415 173l598-598c108-108 253-172 416-172 z" fill="#D3D3D3"/>
		<path d="M670 744l710 709c-7 57-34 111-73 150-273-277-520-531-787-786 39-39 93-66 150-73 z" fill="#F9C23C"/>
		<path d="M555 782l788 783c-25 35-56 65-95 85-287-240-510-486-787-752 18-45 52-86 94-116 z" fill="#F8312F"/>
		<path d="M749 735c60 0 162 59 201 100l380 384c19 19 39 74 55 101 11 21 17 42 17 65 0 26-10 61-43 61-13 0-27-4-41-11-46-26-67-61-72-104-4-27-35-29-72-42-37-14-64-54-70-100-4-29-34-29-72-42-38-14-61-51-70-100-6-30-36-27-72-42-25-10-47-33-58-59-12-26-9-63-39-70-64-12-107-44-115-112 19-20 44-29 71-29 z" fill="#6D4534"/>
		<path d="M724 696c84 0 166 32 229 95l381 381c63 63 95 145 95 229 0 177-143 324-324 324-84 0-166-32-229-95l-381-381c-63-63-95-141-95-229 0-177 143-324 324-324 z M724 764c-141 0-256 114-256 256 0 70 28 134 75 181l381 381c50 50 110 75 181 75 141 0 256-114 256-256 0-70-28-134-75-181l-381-381c-47-47-111-75-181-75 z" fill="#FFDEA7"/>
		<path d="M483 915l725 725c-33 19-68 29-106 29-126 0-153-108-286-108-18 0-32 2-50 2-115 0-206-91-206-206 0-19 3-34 3-52 0-133-108-158-108-284 0-37 9-74 28-106 z" fill="#44911B"/>
		<path d="M516 860l748 747c-22 24-55 37-89 37-74 0-116-50-126-114-3-17-13-26-28-28-65-9-106-52-115-115-2-15-11-25-28-28-65-11-105-47-114-114-2-17-11-26-28-28-67-9-103-49-114-114-3-17-12-26-27-28-64-9-116-53-116-126 0-35 12-64 37-89 z" fill="#FFF478"/>
	</g></svg>
