<svg version="1.1" xmlns="http://www.w3.org/2000/svg" viewBox="0 0 2300 2300"><g transform="scale(1,-1) translate(-256, -1869)">
		<path d="M1541-311l82 1c191 0 362 164 362 346 0 11-8 20-18 20l-207-1c-140 0-260-102-294-230l0 595-144 0 0-593c-55 134-185 229-337 229l-148 0c-14 0-18-8-20-19-1-6-1-12-1-17l1-15c0-168 136-314 306-314l103-1c77 0 164 2 240 2 5-3 39-3 75-3 z" fill="#86D72F"/>
		<path d="M1753 485l0 427c0 111-18 218-53 323-47 136-106 233-199 342-31 37-63 76-110 76-49 0-80-39-110-76-167-200-248-414-248-660l0-432 720 0 z" fill="#F70A8D"/>
		<path d="M1394 320c488 0 634 408 634 790l-1 464c0 31-20 78-60 78-38 0-74-8-108-23-205-95-344-399-399-592-13-43-20-109-66-109-39 0-51 44-59 77-13 52-34 111-54 161-71 177-233 486-460 486-40 0-61-44-61-78l0-447-1 1c0-98 20-289 48-375 88-272 298-433 587-433 z" fill="#FF6DC6"/>
	</g></svg>
