<svg version="1.1" xmlns="http://www.w3.org/2000/svg" viewBox="0 0 2300 2300"><g transform="scale(1,-1) translate(-256, -1869)">
		<path d="M1624-287l0 1519-391 0 0-1519 391 0 z" fill="#6D4534"/>
		<path d="M2313 1282l-884 0c0 238 191 443 443 443 242 0 442-198 442-442l-1-1 z M1429 1282c0 238-191 443-443 443-245 0-443-200-443-442l1-1 885 0 z" fill="#86D72F"/>
		<path d="M2029 635c80 81 129 190 129 312 0 242-197 443-442 443-101 0-203-34-286-105l-2 0c-77 66-177 104-285 104-245 0-443-199-443-442 0-122 48-231 129-312l1 0 598 598 2 0 598-598 1 0 z" fill="#44911B"/>
		<path d="M1640 729c86 0 155 72 155 155 0 84-68 156-155 156-86 0-156-71-156-156 0-85 69-155 156-155 z M1218 856c84 0 156 68 156 155 0 86-71 156-156 156-85 0-155-69-155-156 0-86 72-155 155-155 z" fill="#D3883E"/>
	</g></svg>
