<svg version="1.1" xmlns="http://www.w3.org/2000/svg" viewBox="0 0 2300 2300"><g transform="scale(1,-1) translate(-256, -1869)">
		<path d="M1714-248c348 0 599 234 675 523l-983 372-983-372c75-285 324-523 675-523l616 0 z" fill="#F3AD61"/>
		<path d="M2388 275c15 57 22 115 23 175l0 10c0 56-8 111-22 167-15 58-39 115-71 170-32 55-73 107-123 155l-689 661c-14 13-30 23-47 30-18 7-36 10-54 10-19 0-37-3-54-10-17-7-33-17-47-30l-689-661c-50-48-91-100-123-155-32-55-56-112-71-170-14-56-22-111-22-167l0-10c1-60 8-118 23-175l1966 0 z" fill="#6D4534"/>
	</g></svg>
