<svg version="1.1" xmlns="http://www.w3.org/2000/svg" viewBox="0 0 2300 2300"><g transform="scale(1,-1) translate(-256, -1869)">
		<path d="M1624-287c161 0 287 130 287 287l0 338c0 20-14 29-34 29-144-21-253-134-253-285l0-297-146 0 0 934-72 0 0-983c0-13 10-23 24-23l194 0 z M1220-288l9 1 15 0c5 0 10 2 13 5 3 3 5 8 5 13l0 1347-72 0 0-1006-143 0 0 504c0 30-4 59-13 87-9 28-22 54-38 77-17 23-37 44-60 63-23 18-49 32-77 42l-32 11c-12 3-23 5-34 5-9 0-17-2-24-7-7-5-10-12-10-22l0-543c0-40 8-77 23-112 15-35 35-65 61-91 26-26 57-46 92-61 35-15 72-23 112-23l143 0 0-271c0-6 2-10 6-13 4-3 9-4 15-5l9-1 z" fill="#44911B"/>
		<path d="M1442 288c21 0 35 6 43 19 7 12 12 27 13 46l1 29-1 32c-1 11-1 22-1 32 0 10 0 20 1 29 2 19 8 34 17 47 9 12 26 18 49 18l220 0c15 0 28 5 39 16 10 11 15 24 15 39 0 15-6 27-18 37-12 10-25 15-38 15l-158 0c-15 0-27 5-38 15-11 10-17 23-17 38 0 15 5 28 16 39 10 11 23 16 38 16l303 0c15 0 28 5 39 15 11 10 16 23 16 38 0 15-5 28-15 39-11 11-24 16-39 16l-231 0c-15 0-27 5-38 15-11 10-17 23-17 38 0 15 5 28 16 39 10 11 23 16 38 16l302 0c15 0 28 5 39 15 11 10 17 23 17 38 0 15-5 28-15 39-11 10-24 15-39 15l-318 0c-40 0-78-8-113-23-36-15-67-36-93-62-27-27-48-58-63-93-15-35-23-73-23-113l0-443c0-15 5-28 15-39 10-11 23-17 38-17 z M1226 935c20 0 34 6 42 19 7 12 12 27 13 46l0 17-2 72c0 11 0 22 2 32 2 19 8 34 18 47 9 12 26 18 49 18l220 0c15 0 28 5 39 16 10 11 15 24 15 39 0 20-7 34-21 42-14 7-31 12-52 13l-17 0c-16 0-33-1-51-2l-41-2-27 1c-21 1-38 5-52 12-14 7-21 21-21 42 0 15 5 28 16 39 10 11 23 16 38 16l316 0c15 0 28 5 39 15 11 10 16 23 16 38 0 15-5 28-15 39-11 11-24 16-39 16l-244 0c-15 0-27 5-38 15-11 10-17 23-17 38 0 15 5 28 16 39 10 10 23 15 38 15l316 0c15 0 28 5 39 16 11 10 16 23 16 38 0 15-5 28-15 39-11 10-24 15-39 15l-319 0c-40 0-78-8-113-23-36-15-67-36-93-62-27-27-48-58-63-93-15-36-23-74-23-114l0-442c0-15 5-28 16-39 10-11 23-17 38-17 z" fill="#F9C23C"/>
	</g></svg>
