<svg version="1.1" xmlns="http://www.w3.org/2000/svg" viewBox="0 0 2300 2300"><g transform="scale(1,-1) translate(-256, -1869)">
		<path d="M1497-282c94 0 187 12 278 36 91 23 178 59 263 107 84 47 162 107 233 178l100 99c12 13 21 27 27 42 6 15 9 31 9 47 0 16-3 32-9 48-7 15-16 29-28 41l-42 41c-51-51-109-90-173-117-64-27-131-46-201-55-47-6-95-9-143-9-23 0-47 0-70 2-73 5-143 13-211 26-159 30-322 81-491 153-72 169-123 333-153 492-13 68-21 138-26 211-2 25-3 50-3 75 0 46 3 92 10 138 9 70 28 137 55 201 27 64 66 122 117 173l-42 42c-12 12-26 21-41 27-16 6-32 9-48 9-16 0-32-3-47-9-15-6-29-15-41-27l-99-100c-71-71-131-149-178-233-48-85-84-173-107-264-24-91-36-184-36-278 0-94 12-187 36-278 23-91 59-179 107-263 47-85 107-163 178-234 71-71 149-131 234-178 85-48 173-84 264-107 91-24 183-36 278-36 z" fill="#008463"/>
		<path d="M1490-107c79 0 156 10 233 30 76 19 149 49 220 89 71 39 136 89 195 148l190 192 0 5-85 86c-45-45-95-80-149-104-55-25-111-41-169-50-37-6-75-9-112-9-21 0-42 1-63 3-59 4-115 12-170 23-128 27-258 72-390 137-77 144-133 285-170 423-15 59-27 119-35 182-5 38-8 76-8 114 0 24 1 48 3 72 5 61 19 120 42 177 22 56 56 107 101 152l-84 84-7 0-191-191c-59-59-109-124-148-195-40-71-70-144-89-220-20-77-30-154-30-233 0-79 10-157 30-233 19-77 49-150 89-221 39-71 89-136 148-195 59-59 124-109 195-148 71-39 144-69 221-88 76-20 154-30 233-30 z" fill="#FFF3D7"/>
		<path d="M1477 2c206 0 410 78 563 231l203 204 0 6-1120 1120-9-2-201-201c-105-105-173-230-206-360-17-67-25-134-25-203 0-69 9-136 26-202 86-338 396-593 769-593 z" fill="#F8312F"/>
		<path d="M1775 421c43 0 79 34 79 79 0 42-34 78-79 78-42 0-78-34-78-78 0-45 36-79 78-79 z M1474 723c-42 0-78 34-78 79 0 42 34 78 78 78 45 0 79-36 79-78 0-45-36-79-79-79 z M1377 325c-44 0-78 36-78 78 0 45 36 79 78 79 42 0 79-34 79-79 0-44-37-78-79-78 z M1084 618c-42 0-78 34-78 79 0 42 34 78 78 78 42 0 78-34 78-78 0-45-36-79-78-79 z M1180 1017c43 0 79 34 79 79 0 42-34 78-79 78-42 0-78-34-78-78 0-45 36-79 78-79 z" fill="#1C1C1C"/>
	</g></svg>
