<svg version="1.1" xmlns="http://www.w3.org/2000/svg" viewBox="0 0 2300 2300"><g transform="scale(1,-1) translate(-256, -1869)">
		<path d="M1658-287c380 0 754 132 754 575 0 30-3 59-10 88-53 227-237 389-487 389-89 0-165-22-254-22-322 0-419 208-507 479l-718 0c0-142 8-278 23-408 77-653 405-1101 1199-1101 z" fill="#8C42B2"/>
		<path d="M831 1078c103 0 114 144 216 144 84 0 103-101 142-101 24 0 37 25 37 47 0 192-132 361-323 404l0 45c0 57-46 108-108 108-61 0-108-48-108-108l0-55c-184-59-287-222-287-412 0-25 15-57 44-57 51 0 77 129 171 129 103 0 114-144 216-144 z" fill="#00D26A"/>
		<path d="M2053 360c80 0 144 64 144 143 0 81-67 144-144 144-79 0-144-63-144-144 0-80 65-143 144-143 z" fill="#BCA4EB"/>
	</g></svg>
