<svg version="1.1" xmlns="http://www.w3.org/2000/svg" viewBox="0 0 2300 2300"><g transform="scale(1,-1) translate(-256, -1869)">
		<path d="M878 870c48 0 95 9 142 26l394 145c-20 54-49 101-87 142-39 40-82 71-131 94-49 23-101 36-156 39l-21 1c-48 0-96-10-143-27l-394-145c20-54 49-101 88-141 38-41 81-72 130-95 49-23 101-35 156-38l22-1 z" fill="#608842"/>
		<path d="M1550 785c12 0 24 3 35 10 17 9 29 24 34 43 2 6 2 12 2 18 0 13-3 25-10 37-28 49-50 98-66 147-16 49-27 97-34 144-6 42-10 84-10 123l0 14c0 43 2 84 7 122 5 37 11 71 19 101 8 30 16 55 24 74 4 10 6 19 6 29 0 9-2 18-5 27-8 18-21 31-40 38-9 4-18 5-27 5-9 0-18-1-27-5-19-7-32-20-39-39-10-24-20-54-29-89-10-36-18-76-23-120-6-45-9-92-10-143l0-15c0-47 4-94 12-144 8-55 22-112 41-169 19-58 44-115 77-172 9-17 24-28 43-33 7-2 13-3 20-3 z" fill="#96C34A"/>
		<path d="M1906-282c162 0 295 129 295 295 0 162-129 294-295 294-162 0-295-130-295-294 0-162 129-295 295-295 z" fill="#6B438B"/>
		<path d="M1988 173c162 0 295 130 295 294 0 162-129 295-295 295-162 0-295-129-295-295 0-162 129-294 295-294 z" fill="#533566"/>
		<path d="M1545-42c162 0 295 130 295 294 0 162-129 295-295 295-162 0-295-129-295-295 0-162 129-294 295-294 z M1988 626c162 0 295 129 295 295 0 162-129 295-295 295-162 0-295-129-295-295 0-162 129-295 295-295 z" fill="#433B6B"/>
		<path d="M1172 254c162 0 295 130 295 294 0 162-129 295-295 295-162 0-294-129-294-295 0-162 131-294 294-294 z" fill="#533566"/>
		<path d="M1574 467c162 0 295 129 295 295 0 162-129 294-295 294-162 0-294-131-294-294 0-162 130-295 294-295 z" fill="#6B438B"/>
	</g></svg>
