<svg version="1.1" xmlns="http://www.w3.org/2000/svg" viewBox="0 0 2300 2300"><g transform="scale(1,-1) translate(-256, -1869)">
		<path d="M1404 1264c38 0 72 33 72 72l0 317c0 39-31 72-72 72-40 0-71-34-71-72l0-317c0-38 31-72 71-72 z" fill="#008463"/>
		<path d="M1404-287c58 0 118 24 159 71l378 429c114 129 181 286 181 469 0 401-321 720-718 720-402 0-717-323-717-720 0-183 67-340 181-469l378-429c42-47 101-71 158-71 z" fill="#F8312F"/>
		<path d="M1864 717c37 0 67 31 67 67l0 66c0 39-30 67-67 67-37 0-67-28-67-67l0-66c0-39 30-67 67-67 z M1405 38c35 0 67 28 67 66l0 67c0 39-30 67-67 67-37 0-67-31-67-67l0-67c0-37 31-66 67-66 z M1405 717c37 0 67 28 67 67l0 66c0 39-30 67-67 67-37 0-67-31-67-67l0-66c0-36 30-67 67-67 z M1634 365c36 0 67 29 67 66l0 67c0 39-30 67-67 67-37 0-67-28-67-67l0-67c0-38 32-66 67-66 z M1176 365c35 0 67 28 67 66l0 67c0 39-30 67-67 67-37 0-67-28-67-67l0-67c0-38 32-66 67-66 z M947 717c39 0 67 30 67 67l0 66c0 37-28 67-67 67-38 0-66-32-66-67l0-66c0-35 28-67 66-67 z" fill="#1C1C1C"/>
		<path d="M2111 1047c0 210-170 391-391 391l-632 0c-210 0-391-170-391-391l398 0c118 0 232 52 309 151 77-99 191-151 309-151l398 0 z" fill="#00D26A"/>
	</g></svg>
