<svg version="1.1" xmlns="http://www.w3.org/2000/svg" viewBox="0 0 2300 2300"><g transform="scale(1,-1) translate(-256, -1869)">
		<path d="M2053-273c120 0 215 97 215 215l0 1388-215 216-1366-827 125-310 1133-653c33-19 69-29 108-29 z" fill="#FCD53F"/>
		<path d="M828 400c290 528 834 868 1440 892l0 247c0 107-79 200-187 200-11 0-22-1-32-3-124-21-247-51-368-90-454-147-897-445-1159-816-25-35-38-71-38-114 0-78 43-141 106-179 79-47 158-90 238-137 z" fill="#F3AD61"/>
		<path d="M1909 72c-81 0-144 67-144 144 0 81 67 144 144 144 81 0 144-67 144-144 0-81-67-144-144-144 z M1370 216c98 0 180 78 180 180 0 98-79 179-180 179-98 0-180-79-180-179 0-98 78-180 180-180 z M1873 575c139 0 252 113 252 252 0 138-111 251-252 251-138 0-251-108-251-251 0-138 110-252 251-252 z" fill="#F8312F"/>
	</g></svg>
