<svg version="1.1" xmlns="http://www.w3.org/2000/svg" viewBox="0 0 2300 2300"><g transform="scale(1,-1) translate(-256, -1869)">
		<path d="M1538-104c125 0 252 47 348 143 67 66 134 133 200 200 89 89 143 210 143 346 0 83-20 163-61 238-95 178-241 342-403 464-125 93-255 170-407 170-136 0-260-56-348-144l-199-5 0-194c-96-96-143-221-143-347 0-83 20-162 61-237 95-178 239-340 403-464 122-93 253-170 406-170 z" fill="#6D4534"/>
		<path d="M1590 11c73 0 135 26 187 78l259 258c52 51 78 119 78 188 0 148-121 265-265 265-72 0-137-26-188-77l-259-259c-49-49-77-116-77-188 0-145 114-265 265-265 z" fill="#F8312F"/>
		<path d="M1974-287c117 0 194 89 202 198 1 23 15 36 38 39 113 8 198 84 198 199 0 109-88 201-199 201-87 0-142-60-158-60-9 0-16 3-23 10l-229 229c-15 15-33 22-54 22-21 0-39-7-54-22l-99-100c-15-15-23-33-23-53 0-20 8-39 23-54l229-229c7-7 10-14 10-23 0-18-60-75-60-158 0-108 86-199 199-199 z M600 1088c86 0 135 58 156 58 23 0 37-21 52-36 4 8 188 189 206 207-15 15-35 29-35 52 0 21 58 72 58 155 0 112-91 201-201 201-117 0-189-83-200-197-2-24-15-37-39-39-112-8-197-85-197-200 0-112 87-201 200-201 z" fill="#D3D3D3"/>
	</g></svg>
