<svg version="1.1" xmlns="http://www.w3.org/2000/svg" viewBox="0 0 2300 2300"><g transform="scale(1,-1) translate(-256, -1869)">
		<path d="M1596-288c448 0 809 364 809 809l0 378-2005 0 0-378c0-449 365-809 809-809l387 0 z" fill="#F8312F"/>
		<path d="M1831 325c307 0 573 245 573 574 0 317-254 573-573 573l-858 0c-317 0-573-254-573-573 0-317 254-574 573-574l858 0 z M1831 484l-858 0c-229 0-414 186-414 415 0 219 176 415 414 415l858 0c225 0 415-184 415-415 0-227-183-415-415-415 z" fill="#CA0B4A"/>
		<path d="M1802 575c246 0 426 172 450 412 5 51 16 93 16 142 0 49-11 102-41 146l1 0c-64 81-76 195-149 265-85 81-182 76-272 152-65 53-125 105-230 105-62 0-113-18-175-18-63 0-113 18-176 18-130 0-181-75-282-141-73-46-155-52-219-116-70-70-77-168-141-258-24-32-40-112-40-151 0-45 11-89 15-133 20-240 194-423 450-423l793 0 z" fill="#BEBEBE"/>
		<path d="M1831 484c227 0 415 183 415 415l1 0c5 48 17 95 17 143 0 17-2 34-6 50-19 75-86 126-125 193-38 64-49 149-105 205-56 56-138 64-204 104-84 49-135 131-243 131-63 0-116-18-179-18-64 0-116 18-180 18-17 0-34-2-50-6-75-19-125-86-192-125-63-37-149-50-204-105-55-55-67-138-104-205-51-84-131-133-131-244 0-47 11-94 16-141l2 0c0-222 177-415 414-415l858 0 z" fill="#F4F4F4"/>
		<path d="M1687 952c30 0 55 23 55 55 0 23-13 39-33 50-26 13-121 58-146 58-29 0-55-24-55-54 0-23 13-40 33-51 27-14 120-58 146-58 z M1936 598c-21 0-36 9-47 27l-68 118c-5 7-7 16-7 27 0 29 21 55 53 55 20 0 38-11 49-28l68-117c5-9 7-18 7-28 0-32-25-54-55-54 z M2076 955c-17 0-30 6-41 19l-89 104c-8 10-12 22-12 35 0 30 22 54 54 54 17 0 31-6 42-19l88-103c9-11 13-23 13-36 0-32-25-54-55-54 z M1373 591c19 0 33 7 44 22l81 110c7 9 11 20 11 32 0 32-25 54-55 54-19 0-33-7-44-22l-81-109c-7-9-11-20-11-32 0-29 25-55 55-55 z M868 1215c-32 0-54 25-54 55 0 13 3 23 10 32l82 109c12 15 27 23 44 23 32 0 54-25 54-55 0-12-4-23-11-32l-81-110c-11-15-25-22-44-22 z M722 879c-30 0-54 26-54 55 0 21 10 37 29 48 29 16 118 69 147 69 29 0 54-24 54-54 0-21-11-37-30-48-28-15-118-70-146-70 z M973 582c27 0 47 19 54 45 11 47 26 98 26 145 0 32-26 54-56 54-29 0-45-19-52-45-11-47-27-96-27-143 0-30 23-56 55-56 z M1234 928c30 0 55 26 55 55 0 20-25 75-45 116-26 49-33 63-65 63-30 0-55-23-55-55 0-15 11-43 25-73 31-68 46-106 85-106 z M1705 1234c28 0 47 20 53 45 11 47 26 98 26 145 0 29-24 54-54 54-27 0-48-19-55-45-11-47-26-96-26-143 0-30 25-56 56-56 z M1359 1347c32 0 54 25 54 55 0 11-2 20-7 27l-68 118c-11 18-26 27-47 27-30 0-55-22-55-54 0-10 2-19 7-28l68-117c11-19 27-28 48-28 z" fill="#BEBEBE"/>
	</g></svg>
