<svg version="1.1" xmlns="http://www.w3.org/2000/svg" viewBox="0 0 2300 2300"><g transform="scale(1,-1) translate(-256, -1869)">
		<path d="M1981-287c51 0 93 42 93 93l0 1758c0 87-69 161-161 161-127 0-231-100-231-231l0-550c0-123 71-234 183-285l0-853c0-51 42-93 93-93l23 0 z M1044-287c50 0 92 39 92 92l0 993c0 57 12 149 60 187 71 56 109 133 109 219l0 454c0 38-27 67-67 67-37 0-68-29-68-67l0-266c0-19-17-36-35-36-18 0-35 17-35 36l0 263c0 35-27 70-66 70-38 0-69-26-69-67l0-266c0-19-15-36-36-36-18 0-35 17-35 36l0 263c0 35-28 70-65 70-38 0-70-26-70-67l0-455c0-89 39-162 108-218 49-38 61-128 61-188l0-992c0-52 42-92 93-92l23 0 z" fill="#998EA4"/>
	</g></svg>
