<svg version="1.1" xmlns="http://www.w3.org/2000/svg" viewBox="0 0 2300 2300"><g transform="scale(1,-1) translate(-256, -1869)">
		<path d="M2340-287c19 0 36 7 51 21 14 14 21 31 21 50 0 20-7 37-21 51-14 14-31 21-51 21l-364 0c-18 0-34 0-48-1l-64-4-22 1c-15 0-31 1-48 4-3 0-13 3-31 10-19 6-41 14-67 24-27 9-55 20-86 31l-87 31-72 27-40 14c-7-3-22-8-43-15-21-8-46-17-74-26l-90-32-88-30-70-23c-19-7-31-10-34-11-17-3-33-4-47-4l-22-1-63 4c-15 1-31 1-48 1l-360 0c-20 0-37-7-51-21-14-14-21-31-21-51 0-19 7-36 22-50 14-14 31-21 50-21l1868 0 z" fill="#7D4533"/>
		<path d="M1797-144c250 0 471 200 471 472l0 683c0 37-28 67-67 67l-1590 0c-37 0-68-29-68-67l0-683c0-253 203-472 472-472l782 0 z" fill="#A7A8B7"/>
		<path d="M1817 1187c11 0 15 9 15 18 0 25-7 50-7 77 0 113 83 166 83 291 0 33-9 77-26 115-8 16-18 37-32 37-16 0-18-18-20-33-9-57-46-114-75-158-28-42-62-89-62-143 0-82 39-160 116-202 3-1 5-2 8-2 z M1422 1187c11 0 15 9 15 18 0 25-7 50-7 77 0 109 83 172 83 291 0 33-9 77-26 115-8 16-18 37-32 37-16 0-18-18-20-33-9-57-46-113-76-158-28-42-61-90-61-143 0-82 39-160 116-202 3-1 5-2 8-2 z M1026 1187c11 0 16 7 16 18 0 27-7 52-7 79 0 104 82 169 82 288 0 32-8 78-25 116-8 16-18 37-32 37-16 0-18-18-20-33-9-57-47-112-76-158-28-42-61-89-61-143 0-84 39-158 116-202 3-1 5-2 7-2 z" fill="#D3D3D3"/>
		<path d="M1146 360c26 0 44 20 44 45l0 347c0 24-10 43-30 57l-185 126-186-126c-19-12-30-35-30-57l0-347c0-26 20-45 45-45l342 0 z" fill="#86D72F"/>
		<path d="M975 719c30 0 54 25 54 54l0 323c0 30-25 54-54 54-30 0-54-22-54-54l0-323c0-30 22-54 54-54 z" fill="#E6E6E6"/>
	</g></svg>
