<svg version="1.1" xmlns="http://www.w3.org/2000/svg" viewBox="0 0 2300 2300"><g transform="scale(1,-1) translate(-256, -1869)">
		<path d="M1757-287c19 0 38 11 46 30l72 162c8 19 27 30 46 30 53 0 152-82 205-82 27 0 50 25 50 51 0 24-188 494-207 548 60-31 99-56 173-56 149 0 269 120 269 270l0 574c0 149-119 270-270 270-43 0-83-11-122-30l-613-313-614 313c-39 19-79 30-122 30-149 0-270-119-270-270l0-574c0-149 118-270 269-270 72 0 112 23 173 55-21-53-208-527-208-548 0-27 25-50 51-50 51 0 151 82 204 82 21 0 39-12 47-30l71-162c8-18 26-30 47-30 23 0 38 11 47 32l304 789 304-789c8-19 27-32 48-32 z" fill="#F8312F"/>
		<path d="M2142 395c55 0 109 16 154 49 57 40 114 124 114 191 0 17-9 49-15 64-41 107-145 174-254 174-42 0-82-10-121-29l-327-167 0 602c0 88-74 159-162 159l-251 0c-88 0-162-71-162-159l0-602-327 167c-39 19-79 30-122 30-56 0-109-17-153-48-57-40-115-123-115-191 0-16 8-49 15-64 40-103 138-176 253-176 43 0 83 11 122 30l341 174c25-58 83-96 148-96l251 0c67 0 123 39 149 96l340-174c39-19 79-30 122-30 z" fill="#CA0B4A"/>
	</g></svg>
