<svg version="1.1" xmlns="http://www.w3.org/2000/svg" viewBox="0 0 2300 2300"><g transform="scale(1,-1) translate(-256, -1869)">
		<path d="M2188 318l-676 676 87 88c94 94 216 140 338 140 263 0 479-211 479-478 0-126-47-244-140-338l-88-88 z M628 318l676 676-88 88c-94 93-212 140-338 140-263 0-478-212-478-478 0-126 47-244 140-338l88-88 z" fill="#F9C23C"/>
		<path d="M2118 294c-224 0-629 405-629 630 0 64 34 98 98 98 224 0 630-405 630-629 0-62-33-99-99-99 z M697 295c224 0 630 404 630 629 0 63-34 98-98 98-224 0-630-405-630-629 0-63 34-98 98-98 z" fill="#6D4534"/>
		<path d="M1909-215c-38 0-72 31-72 71 0 39 31 72 72 72 39 0 72-31 72-72 0-40-34-71-72-71 z M868-156c-29 0-51 24-51 51 0 27 22 51 51 51 29 0 51-24 51-51 0-27-22-51-51-51 z M1084 275c29 0 51 24 51 51 0 27-22 51-51 51-29 0-51-24-51-51 0-27 22-51 51-51 z" fill="#F9C23C"/>
		<path d="M1601 308c13 0 25 6 36 17 11 11 20 24 29 40 8 15 15 31 21 48 5 16 10 29 13 40 19 13 36 26 51 41 15 14 30 30 45 47l37 45c15 19 31 40 46 62 15 22 28 43 39 64 11 20 16 36 16 49 0 14-5 26-15 37-10 10-22 15-36 15-11 0-21-3-30-9-9-6-15-14-19-24-12-29-29-59-51-89-23-31-44-58-65-82l1-1-1-1-1 1c-3-3-5-6-7-9l-8-8c-10 27-28 50-53 68-26 17-53 26-82 26-19 0-36-3-53-10-17-7-31-17-43-29-13-13-23-27-30-43-7-17-11-34-11-53 0-19 4-37 12-54 7-17 17-31 30-44 13-13 28-24 45-32 17-8 34-12 53-13-5-7-10-14-14-21-4-7-6-16-6-25 0-15 5-27 14-37 9-11 22-16 37-16 z M615-144c17 0 27 6 40 16 155 123 243 332 243 530 0 122-32 245-99 356-31-32-60-65-85-102 39-80 60-166 60-254 0-140-52-273-138-374-33-39-84-65-84-110 0-36 29-62 63-62 z M1406-287c-39 0-72 31-72 72 0 40 34 71 72 71 37 0 73-29 73-71 0-41-34-72-73-72 z M1577 511c-21 0-43 17-43 40 0 19 16 32 33 32 27 0 43-27 43-51l-1-13c-11-5-21-8-32-8 z" fill="#00A6ED"/>
		<path d="M1658 44c-36 0-61 27-61 61 0 36 27 61 61 61 34 0 61-25 61-61 0-34-25-61-61-61 z M1023-289c-32 0-55 26-55 56 0 12 3 23 10 32 45 67 68 129 68 207 0 47-9 90-27 135-3 6-4 13-4 22 0 29 22 55 54 55 23 0 43-14 52-34 26-53 36-122 36-179 0-99-32-195-89-271-11-15-26-23-45-23 z M2138-105c34 0 63 26 63 62 0 18-7 29-17 42-66 82-104 158-104 266 0 92 33 187 99 262-19 40-41 78-66 114-97-95-158-227-158-374 0-121 46-260 138-352 13-12 26-20 45-20 z M1373 67c17 0 32 6 44 18 12 12 18 27 18 44 0 17-4 29-13 38-9 8-19 16-30 24-11 7-20 16-29 27-9 11-14 27-14 48 0 29 3 58 10 87 6 29 9 58 9 87 0 29-5 57-16 83-11 26-27 49-46 68-19 19-42 35-67 46-26 11-54 17-83 17l-46 0c-9 0-17 1-25 2-11 2-21 6-30 13-9 6-18 16-25 30l-100 182c-17-13-33-27-48-40-16-14-32-29-47-44l87-159c19-34 45-61 79-80 33-20 69-30 107-30 7 0 15 0 22 1l22 0c13 0 25-2 36-6 11-5 21-11 30-18 8-8 14-17 19-28 5-11 7-23 7-36 0-30-3-59-10-88-7-29-10-59-10-89 0-42 11-80 33-113 22-34 52-60 89-78 9-4 18-6 27-6 z" fill="#F70A8D"/>
	</g></svg>
