<svg version="1.1" xmlns="http://www.w3.org/2000/svg" viewBox="0 0 2300 2300"><g transform="scale(1,-1) translate(-256, -1869)">
		<path d="M1496 1294c25 0 54 16 54 44l0 199c0 29-29 44-54 44-15 0-27-4-37-12l-252-200c-11-8-17-18-17-31 0-29 29-44 54-44l252 0 z" fill="#86D72F"/>
		<path d="M1797-215c340 0 616 279 616 622 0 58-8 115-24 171-31 115-62 217-93 332-77 266-308 456-592 456l-592 0c-208 0-390-104-504-267-72-104-99-225-135-347-33-115-73-223-73-344 0-341 272-623 615-623l782 0 z" fill="#FF8257"/>
		<path d="M1550 144c229 54 431 242 431 503l-188 0c-33-49-83-82-148-82-60 0-109 40-143 82l-193 0c-33-49-83-82-148-82-60 0-109 40-143 82l-187 0c0-247 186-440 422-500 33 50 84 85 150 85 62 0 114-45 147-88 z M1879 791c17 0 30 13 30 31 0 9-2 15-7 20l-80 82c-7 7-11 11-22 11-11 0-17-5-24-12l-76-81c-4-4-6-13-6-20 0-16 11-31 29-31l156 0 z M1089 791c18 0 29 15 29 31 0 9-2 15-7 20l-80 82c-7 7-11 11-22 11-9 0-17-4-24-12l-76-81c-4-4-6-12-6-19 0-18 13-32 30-32l156 0 z" fill="#321B41"/>
	</g></svg>
