<svg version="1.1" xmlns="http://www.w3.org/2000/svg" viewBox="0 0 2300 2300"><g transform="scale(1,-1) translate(-256, -1869)">
		<path d="M1769 1438c-18 0-35 16-35 35 0 25 26 67 34 87 6 14 19 21 32 21 21 0 37-18 37-36 0-10-6-27-14-43-21-41-27-64-54-64 z M1730-144c21 0 35 18 35 36 0 22-298 688-320 744 11 27 67 140 67 162 0 21-18 36-36 36-15 0-26-7-33-22l-37-86-38 86c-7 15-18 22-33 22-18 0-35-16-35-35 0-24 54-137 67-163-26-62-321-718-321-743 0-21 16-37 35-37 16 0 27 7 34 22l291 668 290-668c7-13 19-22 34-22 z M1042 1438c18 0 36 15 36 36 0 22-26 65-34 86-7 14-18 21-33 21-19 0-36-16-36-35 0-25 26-65 34-86 7-15 18-22 33-22 z" fill="#9B9B9B"/>
		<path d="M2002 399l172 668c14 49 68 104 68 155 0 29-16 54-43 66l-462 203-295-680 431-200 129-212 z M825 448l114 163 431 200-295 680-462-203c-27-12-43-37-43-66 0-52 51-98 64-146l191-628 z" fill="#E1D8EC"/>
		<path d="M758 274c10 0 20 2 29 6l225 100c15 7 22 18 22 33 0 22-83 171-95 198-15-7-37-23-55-23-15 0-26 7-33 21l-214 458 1-7c0-15-7-26-22-33l-148-63c-27-11-43-39-43-66 0-11 2-22 7-31l261-552c12-26 39-41 65-41 z" fill="#CDC4D6"/>
		<path d="M2054 274c26 0 53 15 65 41l261 552c5 9 7 20 7 31 0 27-16 55-43 66l-148 63c-18 8-22 22-22 40l-213-458c-7-14-18-21-33-21-18 0-40 16-55 23-13-29-95-176-95-198 0-15 7-26 22-33l225-100c9-4 18-6 29-6 z" fill="#F3EEF8"/>
		<path d="M1891 755c87 0 162 73 162 162 0 85-70 161-162 161-88 0-162-72-162-161 0-87 73-162 162-162 z M921 755c87 0 162 73 162 162 0 85-70 161-162 161-88 0-162-71-162-161 0-91 71-162 162-162 z" fill="#F8312F"/>
	</g></svg>
