<svg version="1.1" xmlns="http://www.w3.org/2000/svg" viewBox="0 0 2300 2300"><g transform="scale(1,-1) translate(-256, -1869)">
		<path d="M1548-288c14 0 26 10 29 25l236 1342 312 0 0-1c176 0 286 164 286 321l0 326c-170 0-286-156-286-320l0-254-299 0 56 324c0 20-9 35-29 35l-471 0c-15 0-27-11-30-25l-154-874-511 0 0 255c0 157-110 322-287 322l0-328c0-159 111-322 287-322l0 1 499 0-139-792c0-21 8-35 29-35l472 0 z" fill="#44911B"/>
		<path d="M723-19c19 0 36 15 36 36l0 609c0 18-17 35-36 35-19 0-36-17-36-35l0-609c0-19 15-36 36-36 z M2089 513c19 0 36 15 36 36l0 608c0 19-15 36-36 36-19 0-36-15-36-36l0-608c0-19 15-36 36-36 z" fill="#635994"/>
		<path d="M2269 0c18 0 40 13 40 35l0 545-431 0 0-545c0-22 20-35 40-35 52 0 122 107 175 107 52 0 124-107 176-107 z" fill="#F70A8D"/>
		<path d="M1658-34c58 0 107 47 107 106 0 60-51 106-107 106l-551 0c-60 0-106-46-106-106 0-60 46-106 106-106l551 0 z M1794 792c59 0 109 46 109 107 0 56-45 106-109 106l-567 0c-60 0-109-46-109-106 0-59 48-107 109-107l567 0 z" fill="#86D72F"/>
		<path d="M898-287c19 0 40 13 40 36l0 541-432 0 0-541c0-23 21-36 40-36 50 0 126 111 176 111 50 0 125-111 176-111 z" fill="#00A6ED"/>
		<path d="M937 216c39 0 72 31 72 72 0 39-34 72-72 72l-430 0c-39 0-72-34-72-72 0-39 31-72 72-72l430 0 z M2309 506c38 0 72 31 72 71 0 40-34 70-72 70l-431 0c-38 0-72-30-72-70 0-40 34-71 72-71l431 0 z" fill="#F9C23C"/>
	</g></svg>
