<svg version="1.1" xmlns="http://www.w3.org/2000/svg" viewBox="0 0 2300 2300"><g transform="scale(1,-1) translate(-256, -1869)">
		<path d="M1440 40l576 104 0 640-384 0 0 690-383 0 0-475-384 0 0-855 575-104 z" fill="#44911B"/>
		<path d="M2119-287c23 0 41 19 41 41l0 115-1440 0 0-115c0-22 18-41 41-41l1358 0 z M845 28c21 0 36 18 36 36 0 25-26 58-37 77 4 4 6 14 6 21 0 26-18 32-40 39l-34 61c8 5 65 89 65 111 0 18-15 36-36 36-13 0-24-6-31-18l-37-60-33 61 79 128c3 7 5 13 5 19 0 18-15 36-36 36-12 0-24-7-31-18l-57-94-32 58c-7 12-17 18-32 18-19 0-36-16-36-35 0-7 2-13 5-18l137-246-97 36-30 112c-4 13-17 23-30 23-16 0-30-14-30-30 0-23 13-56 20-79-18 6-43 21-65 21-19 0-35-17-35-36 0-37 56-46 80-54l-65-47c-9-7-13-15-13-25 0-17 13-30 31-30 22 0 95 60 116 76l47-18c-15-15-56-40-56-68 0-21 15-36 35-36 9 0 17 3 25 10l72 66 49-18 54-96c7-13 17-19 31-19 z M1948-44c13 0 23 5 30 15l174 247 148-1c18 0 34 16 34 35 0 19-15 36-36 36l-95 1 50 71 148-1c22 0 36 18 36 37 0 18-16 35-35 35l-99 1c13 19 65 77 65 102 0 21-17 37-36 37-13 0-22-5-29-15l-58-83-34 92c-5 14-19 24-35 24-18 0-35-16-35-37 0-19 44-124 53-150l-52-74-34 95c-5 15-16 23-33 23-21 0-36-16-36-35 0-21 43-129 53-154l-173-245c-4-6-6-13-6-20 0-21 16-36 35-36 z" fill="#86D72F"/>
		<path d="M2160-187l0 301c0 16-14 30-30 30l-1380 0c-16 0-30-14-30-30l0-301 1440 0 z" fill="#F3AD61"/>
		<path d="M1440 1206c102 0 192 82 192 191l0 136c0 105-84 192-192 192-103 0-191-84-191-192l0-136c0-104 83-191 191-191 z" fill="#FFDEA7"/>
		<path d="M1633 253l-386 0 0 92 386 0 0-92 z M2016 436l0 92-381 0 0-92 381 0 z M1249 567l0 92-384 0 0-92 384 0 z M1633 798l0 92-386 0 0-92 386 0 z" fill="#86D72F"/>
		<path d="M1824 613c102 0 192 82 192 191l0 136c0 105-84 192-192 192-103 0-192-84-192-192l0-136c0-103 84-191 192-191 z" fill="#FFDEA7"/>
		<path d="M1057 828c103 0 192 84 192 192l0 136c0 103-84 192-192 192-105 0-192-84-192-192l0-136c0-105 84-192 192-192 z" fill="#FFDEA7"/>
		<path d="M1824 687c-78 0-137 62-137 137l0 97c0 75 62 137 137 137 75 0 138-62 138-137l0-97c0-77-63-137-138-137 z M1057 902c-79 0-138 64-138 138l0 97c0 74 60 137 138 137 76 0 137-65 137-137l0-97c0-79-64-138-137-138 z M1440 1280c75 0 138 60 138 137l0 97c0 75-63 137-138 137-75 0-137-62-137-137l0-97c0-78 62-137 137-137 z" fill="#533566"/>
	</g></svg>
