<svg version="1.1" xmlns="http://www.w3.org/2000/svg" viewBox="0 0 2300 2300"><g transform="scale(1,-1) translate(-256, -1869)">
		<path d="M2283 216l0 1006c0 276-223 503-503 503l-590 0c-267 0-503-213-503-503l1219 0 0-297c12 2 24 3 37 3 112 0 203-91 203-203 0-81-46-148-115-182l108-327 144 0 z" fill="#F8312F"/>
		<path d="M1981 503c121 0 216 99 216 216 0 121-99 216-216 216-121 0-216-99-216-216 0-121 99-216 216-216 z M687 503c121 0 216 99 216 216 0 121-99 216-216 216-119 0-215-97-215-216 0-121 97-216 215-216 z" fill="#8B5C56"/>
		<path d="M1531-144c210 0 384 163 400 378l48 701c1 15 2 30 2 45 0 135-44 261-122 364l-1064-17c-74-105-108-226-108-348 0-15 1-29 2-44l43-701c13-207 186-378 400-378l399 0 z" fill="#EEBFAA"/>
		<path d="M1750 941c40 0 68 30 68 68 0 89-182 120-237 120-47 0-105-9-105-70 0-37 27-69 67-69 14 0 24 3 38 3 92 0 132-52 169-52 z M899 942c16 0 30 4 41 13l0 1c36 25 80 37 125 37 15 0 25-2 39-2 37 0 69 29 69 67 0 65-58 71-105 71-59 0-237-32-237-119 0-38 28-68 68-68 z" fill="#E6E6E6"/>
		<path d="M1773 721l-276 0c-20 0-29 14-29 34 16 80 89 139 170 139 75 0 148-50 168-130l1-8c0-19-16-35-34-35 z M1142 721c19 0 28 14 28 34-16 79-84 139-170 139-75 0-148-50-168-130l-1-8c0-19 16-35 34-35l277 0 z" fill="#FFFFFF"/>
		<path d="M1719 721l-214 0c-3 9-4 19-4 30 0 59 51 110 111 110 61 0 111-50 111-110 0-11-1-19-4-30 z M1132 721c3 11 5 21 5 30 0 61-52 110-112 110-61 0-110-49-110-110 0-11 1-21 4-30l213 0 z" fill="#7D4533"/>
		<path d="M1668 721l-112 0c-5 11-7 21-7 30 0 36 29 63 63 63 34 0 63-27 63-63 0-11-2-21-7-30 z M1081 721c5 9 8 19 8 30 0 36-29 63-63 63-34 0-63-27-63-63 0-9 2-19 7-30l111 0 z" fill="#000000"/>
		<path d="M1578 774c10 0 19 9 19 20 0 11-8 19-19 19-11 0-20-9-20-19 0-10 10-20 20-20 z M988 774c10 0 19 9 19 20 0 11-8 19-19 19-11 0-20-9-20-19 0-10 10-20 20-20 z" fill="#FFFFFF"/>
		<path d="M1334-359c126 0 262 22 391 65 175 59 292 216 292 399 0 95-29 200-29 301l0 888-108-72-8-778c0-84-68-149-154-149-124 0-123 99-223 99l-329 0c-106 0-106-99-216-99-80 0-152 65-152 149l-8 778-108 0 0-759c0-49-3-99-8-149-8-66-22-141-22-208 0-184 114-340 291-400 129-43 265-65 391-65 z" fill="#D3D3D3"/>
		<path d="M1341 201c129 0 223 104 223 228l-446 0c0-126 95-228 223-228 z" fill="#990839"/>
		<path d="M1683 216c54 0 154 34 154 101 0 41-35 69-73 69-45 0-51-31-80-31-41 0-103 112-235 112l-230 0c-137 0-193-112-235-112-29 0-37 31-80 31-38 0-73-28-73-69 0-65 96-101 154-101 129 0 158 112 233 112l231 0c75 0 109-112 234-112 z" fill="#E6E6E6"/>
		<path d="M1379 467c38 0 63 33 63 66 0 16-13 63-27 109-30 95-36 149-81 149-22 0-38-15-44-34-12-40-64-192-64-224 0-33 25-66 63-66l90 0 z" fill="#75443E"/>
		<path d="M2197-40c80 0 145 66 145 146 0 80-65 146-145 146-79 0-146-65-146-146 0-79 63-146 146-146 z M1847 1160c88 0 158 74 158 160 0 89-77 158-161 158-59 0-88-34-115-34-28 0-56 34-115 34-56 0-90-35-116-35-28 0-57 35-115 35-56 0-88-35-115-35-29 0-55 36-114 36-59 0-89-35-115-35-26 0-58 35-115 35-58 0-89-35-116-35-25 0-57 34-113 34-87 0-159-69-159-159 0-88 70-159 158-159 58 0 89 35 116 35 26 0 57-35 114-35 58 0 89 35 116 35 26 0 57-35 114-35 58 0 89 35 116 35 26 0 58-35 115-35 56 0 91 35 115 35 26 0 59-35 116-35 59 0 89 35 115 35 26 0 58-35 116-35 z" fill="#E6E6E6"/>
		<path d="M1663 565c14 0 27 12 27 27 0 15-13 27-27 27-76 0-117 53-135 53-15 0-27-12-27-26 0-16 18-31 35-41 61-38 88-40 127-40 z M1019 565c20 0 40 3 59 9 19 5 37 13 54 22 7 4 15 9 22 16 7 6 13 11 19 14l-1 1 1 1 1-1c5 5 7 11 7 19 0 7-3 14-8 19-5 5-12 7-19 7-5 0-11-3-18-8-7-6-16-12-27-18-11-7-24-13-39-18-15-6-32-9-51-9-7 0-14-3-19-8-5-5-8-12-8-19 0-7 3-14 8-19 5-5 12-8 19-8 z" fill="#764C49"/>
	</g></svg>
