<svg version="1.1" xmlns="http://www.w3.org/2000/svg" viewBox="0 0 2300 2300"><g transform="scale(1,-1) translate(-256, -1869)">
		<path d="M2146-285c145 0 264 120 264 264l0 1482c0 147-116 264-264 264l-1482 0c-147 0-264-116-264-264l0-1482c0-147 116-264 264-264l1482 0 z" fill="#533566"/>
		<path d="M546-258l761 761-86 85-768-768c24-33 57-59 93-78 z" fill="#D3D3D3"/>
		<path d="M1614 148c13 0 26 9 26 23 0 56-68 262-68 317 0 14 12 24 24 24 59 0 258-67 318-67 14 0 23 13 23 26 0 8-4 15-11 20l-262 169c-7 5-11 12-11 21 0 8 4 15 11 20l262 170c7 4 11 11 11 20 0 13-9 25-23 25-22 0-291-67-318-67-14 0-23 12-23 25 0 56 67 261 67 316 0 15-12 24-26 24-9 0-16-4-20-11l-169-262c-6-8-13-12-21-12-7 0-14 4-20 12l-170 262c-4 7-11 11-20 11-14 0-25-10-25-25 0-56 67-261 67-316 0-13-10-24-24-24-40 7-295 67-317 67-13 0-24-11-24-25 0-9 4-16 11-20l262-170c7-5 11-12 11-20 0-9-4-16-11-21l-262-169c-7-4-11-11-11-20 0-14 9-26 24-26 22 0 289 67 317 67 14 0 23-12 23-25 0-57-66-258-66-315 0-15 11-24 25-24 9 0 16 4 20 11l170 262c5 7 12 11 20 11 9 0 16-4 21-11l169-262c5-7 12-11 20-11 z M2212 650c19 0 32 14 32 32 0 17-14 32-32 32l-243 0c-18 0-32-15-32-32 0-17 14-32 32-32l243 0 z M840 650c18 0 32 13 32 32 0 17-14 32-32 32l-243 0c-17 0-32-14-32-32 0-17 14-32 32-32l243 0 z M1976 78c19 0 32 15 32 32 0 9-3 17-9 23l-172 172c-6 6-14 9-23 9-19 0-32-14-32-32 0-9 3-16 9-22l172-172c7-7 14-10 23-10 z M1005 1049c19 0 33 14 33 32 0 8-3 15-10 22l-172 172c-7 7-14 10-22 10-18 0-32-14-32-33 0-9 3-16 9-22l172-172c6-6 13-9 22-9 z M1405-158c18 0 32 13 32 32l0 243c0 18-13 32-32 32-17 0-32-14-32-32l0-243c0-17 14-32 32-32 z M1804 1049c9 0 17 3 23 9l172 172c6 6 9 13 9 22 0 19-14 33-32 33-9 0-16-3-23-10l-172-172c-6-6-9-13-9-22 0-18 13-32 32-32 z M1729 1294c19 0 36 15 36 36 0 19-15 36-36 36-18 0-36-17-36-36 0-18 17-36 36-36 z M1153 0c19 0 36 15 36 36 0 19-15 36-36 36-19 0-36-15-36-36 0-19 15-36 36-36 z M2091 935c19 0 36 15 36 36 0 18-17 35-36 35-19 0-36-17-36-35 0-19 15-36 36-36 z M723 360c19 0 36 15 36 36 0 18-17 35-36 35-19 0-36-17-36-35 0-19 15-36 36-36 z M2089 360c19 0 36 15 36 36 0 18-17 35-36 35-19 0-36-17-36-35 0-19 15-36 36-36 z M723 935c19 0 36 15 36 36 0 18-17 35-36 35-19 0-36-17-36-35 0-19 15-36 36-36 z M1658 0c18 0 35 17 35 36 0 19-17 36-35 36-19 0-36-15-36-36 0-19 15-36 36-36 z M1083 1294c18 0 35 17 35 36 0 19-17 36-35 36-19 0-36-15-36-36 0-19 15-36 36-36 z M1405 1214c18 0 32 13 32 32l0 243c0 18-13 32-32 32-17 0-32-14-32-32l0-243c0-17 14-32 32-32 z" fill="#FCD53F"/>
	</g></svg>
