<svg version="1.1" xmlns="http://www.w3.org/2000/svg" viewBox="0 0 2300 2300"><g transform="scale(1,-1) translate(-256, -1869)">
		<path d="M2148-287c147 0 264 116 264 264l0 1484c0 147-116 264-264 264l-1484 0c-147 0-264-116-264-264l0-1484c0-147 116-264 264-264l95 0 35 50 36-50 76 0 35 50 35-50 358 0 390 143 405-143 19 0 z" fill="#321B41"/>
		<path d="M1730 791c218 0 397 174 397 396 0 217-174 397-397 397-219 0-396-178-396-397 0-217 174-396 396-396 z" fill="#FFDEA7"/>
		<path d="M2130-287l0 537-796 0 0-537 796 0 z" fill="#E19747"/>
		<path d="M1918 293c64 0 118 54 118 118 0 66-52 119-121 119 13 20 19 42 19 65 0 54-36 105-94 116 8 16 12 34 12 53 0 64-54 118-118 118-62 0-119-48-119-118 0-17 4-34 11-51-59-8-103-58-103-118 0-24 7-46 20-65-66-6-112-56-112-119 0-66 53-118 119-118 36 0 70 17 92 43 22-26 56-43 92-43 36 0 70 17 92 43 22-26 56-43 92-43 z" fill="#F4F4F4"/>
		<path d="M1734 293c17 0 34 4 51 12 16 7 30 18 41 31-18 22-27 47-27 75 0 29 9 54 27 75-13 16-30 28-49 36-13 6-27 8-42 8-6 0-12 0-18-1-6 10-11 21-14 32-4 11-6 23-6 34 0 31 11 58 32 81-24 25-53 38-87 38-17 0-32-3-46-9-15-7-27-15-38-26-11-11-19-23-25-37-7-15-10-30-10-47 0-24 7-46 20-65 20 0 38-3 55-10 16-7 31-18 44-34-18-21-27-46-27-75 0-17 3-32 10-46 6-15 14-27 25-38 11-11 23-19 38-25 15-6 30-9 46-9 z" fill="#D3D3D3"/>
		<path d="M2116 144c54 0 81 61 81 108 0 43-26 108-81 108l-773 0c-54 0-81-63-81-108 0-44 26-108 81-108l773 0 z" fill="#7D4533"/>
		<path d="M1734-96c44 0 82 35 82 82 0 44-35 82-82 82-44 0-82-35-82-82 0-44 35-82 82-82 z" fill="#D3883E"/>
		<path d="M663-103l0 839c0 68-57 120-120 120l0-840c0-68 57-119 120-119 z" fill="#44911B"/>
		<path d="M976-287l0 537-72 0 0-537 72 0 z M830-287l0 1172-72 0 0-1172 72 0 z" fill="#86D72F"/>
		<path d="M944 68c13 0 23 5 32 15 9 9 13 20 13 32l0 180c0 19 5 33 16 41 11 8 24 13 41 15l25 1 55-2 26 1c16 1 29 5 40 12 11 6 16 18 16 35 0 17-5 29-16 36-11 7-24 11-40 12l-15 0-38-1-23-1-30 2c-17 1-30 6-41 15-11 8-16 22-16 42 0 21 7 36 21 45 14 8 32 13 53 14l17 0c16 0 33-1 51-2 18-1 36-2 52-2l17 0c21 0 38 4 52 11 14 7 21 20 21 39 0 17-5 28-14 35-9 6-21 10-35 11l-23 1-43-2-26 2c-15 2-27 7-36 16-9 8-14 22-14 41 0 15 5 29 15 40 9 11 22 16 37 16l184 0c11 0 22 4 33 12 11 8 16 18 16 30 0 14-4 26-12 36-9 10-20 15-35 15l-145 0c-39 0-75-7-109-22-34-15-64-35-89-60-25-25-45-55-60-89-15-34-22-70-22-109l0-464c0-14 5-26 15-35 9-9 21-14 34-14 z M794 789c13 0 24 5 33 14 9 9 13 19 13 32l0 180c0 20 6 34 17 42 11 7 26 12 43 14l26 1 58-2 27 1c17 1 31 4 42 11 11 7 17 19 17 37 0 17-6 29-17 36-11 7-25 10-42 11l-56-1-24-1-31 2c-17 1-32 6-43 14-11 8-17 22-17 43 0 16 6 30 18 41 11 11 25 16 40 16l275 0c13 0 25 5 35 14 9 9 14 21 14 34 0 13-4 24-13 33-9 9-21 13-34 13l-185 0c-17 0-31 6-41 17-11 11-16 24-16 41 0 15 5 29 15 40 9 11 22 16 37 16l326 0c11 0 22 4 33 12 11 8 16 18 16 30 0 14-4 26-12 36-9 10-20 15-35 15l-286 0c-39 0-75-7-109-22-34-15-64-35-89-60-26-25-46-55-61-89-15-34-22-70-22-109l0-463c0-13 5-25 14-34 9-10 21-15 34-15 z" fill="#FCD53F"/>
	</g></svg>
