<svg version="1.1" xmlns="http://www.w3.org/2000/svg" viewBox="0 0 2300 2300"><g transform="scale(1,-1) translate(-256, -1869)">
		<path d="M2143 72c22 0 37 14 41 33 22 109 88 173 198 193 17 3 30 14 30 33l0 112c0 31-26 35-49 35-43 0-82 33-82 80 0 47 38 81 82 81 23 0 50 4 50 35l0 90c0 30-26 34-48 34-42 0-84 32-84 79 0 46 34 83 82 83 24 0 50 4 50 34l0 111c0 19-13 30-30 33-111 20-178 85-201 194-4 19-18 34-40 34l-1473 0c-22 0-36-15-40-34-22-106-86-170-199-193-17-3-30-15-30-34l0-111c0-30 25-34 47-34 43 0 85-34 85-80 0-46-34-82-82-82-24 0-50-4-50-34l0-90c0-33 26-35 50-35 44 0 82-34 82-81 0-47-39-80-82-80-24 0-50-2-50-35l0-112c0-19 13-30 30-33 110-20 176-84 199-193 4-19 19-33 40-33l1474 0 z" fill="#F8312F"/>
		<path d="M1942 286c87 0 164 68 164 158l0 548c0 92-79 157-164 157l-1072 0c-88 0-164-67-164-157l0-548c0-90 73-158 164-158l1072 0 z M1074 327l-204 0c-62 0-123 48-123 117l0 548c0 65 54 116 123 116l204 0 0-781 z M1698 327l-584 0 0 781 584 0 0-781 z M1942 327l-203 0 0 781 203 0c63 0 123-46 123-116l0-548c0-66-57-117-123-117 z M904 431c38 0 72 33 72 72l0 432c0 40-34 71-72 71-37 0-73-29-73-71l0-432c0-42 36-72 73-72 z M1406 575c81 0 144 67 144 144 0 81-67 144-144 144-80 0-143-65-143-144 0-80 64-144 143-144 z M1909 431c38 0 72 33 72 72l0 432c0 40-34 71-72 71-38 0-72-31-72-71l0-432c0-39 34-72 72-72 z" fill="#CA0B4A"/>
	</g></svg>
