<svg version="1.1" xmlns="http://www.w3.org/2000/svg" viewBox="0 0 2300 2300"><g transform="scale(1,-1) translate(-256, -1869)">
		<path d="M2340-315c41 0 72 34 72 72l0 846c0 38-31 72-72 72-11 0-21-3-32-8l-215-108c-31-16-33-34-40-64l-72-315 72-315c7-30 9-48 40-64l215-108c11-5 21-8 32-8 z M436 72c9 0 18 4 25 11 7 7 11 16 11 25l-1 55c-1 10-1 20-1 29 0 9 1 17 2 24 1 7 3 15 6 25l11 29c3 10 7 20 11 29l8 25-19 54c-7 18-12 36-17 53l-1 15 0 7c0 8 0 16-1 23-1 7-4 14-9 19-5 5-13 8-25 8-10 0-18-3-25-10-7-7-11-16-11-26l0-359c0-10 4-18 11-25 7-7 15-11 25-11 z M1765-287c30 0 57 9 82 26 25 17 42 39 53 67l7 19 0 6c-1 1-1 2-1 5l3 20 72 324-72 323c-2 8-3 14-3 17l0 3c0 3 0 5 1 6l0 5-7 19c-11 29-28 52-53 69-25 17-52 25-82 25l-72 0 0 72c49 0 96 9 140 28 43 19 81 44 114 77 33 33 59 71 78 114 19 43 28 90 28 140 0 50-9 97-28 141-19 43-45 81-77 114-33 32-71 58-114 77-44 19-91 28-141 28-50 0-97-9-140-28-43-19-81-45-114-78-33-33-58-71-77-114-19-44-28-91-28-140 0-39 6-76 19-113 12-37 30-71 53-102l-216 0c23 31 41 65 54 102 12 37 18 74 18 113 0 49-9 96-28 140-19 43-44 81-77 114-33 33-71 59-114 78-43 19-90 28-140 28-50 0-97-9-140-28-44-19-82-45-114-77-33-33-58-71-77-114-19-44-29-91-29-141 0-43 7-83 22-122 14-39 34-74 60-105 25-31 56-58 91-79 35-22 73-37 115-46l0-79-72 0c-20 0-39-4-56-11-17-8-32-18-45-31-13-13-24-29-31-46-8-17-12-36-12-56l0-72c-3-17-9-35-16-54-8-19-15-36-20-53l20-56 16-52c1-17 2-32 2-46l0-14c-1-17-2-37-2-60l0-240c0-20 4-39 12-56 7-17 18-32 31-45 13-13 28-24 45-31 17-7 36-11 56-11l1006 0 z" fill="#635994"/>
		<path d="M1622-144c40 0 71 34 71 72l0 144c0 38-31 72-71 72l-719 0c-39 0-72-31-72-72l0-144c0-39 34-72 72-72l719 0 z" fill="#D3D3D3"/>
		<path d="M1047-72c40 0 71 34 71 72 0 38-31 72-71 72-39 0-72-31-72-72 0-39 31-72 72-72 z" fill="#CA0B4A"/>
		<path d="M1478-72c39 0 72 31 72 72 0 39-31 72-72 72l-72 0c-39 0-72-31-72-72 0-39 31-72 72-72l72 0 z" fill="#433B6B"/>
		<path d="M1693 1006c-40 0-71 34-71 72 0 38 31 72 71 72 39 0 72-31 72-72 0-39-34-72-72-72 z M615 216l-143 0 0 215 143 0 0-215 z M2053-144l-144 0 0 647 144 0 0-647 z M903 1006c38 0 72 33 72 72 0 39-31 72-72 72-39 0-72-31-72-72 0-38 33-72 72-72 z" fill="#9B9B9B"/>
	</g></svg>
