<svg version="1.1" xmlns="http://www.w3.org/2000/svg" viewBox="0 0 2300 2300"><g transform="scale(1,-1) translate(-256, -1869)">
		<path d="M903-247l0 575-72 0 0-575 72 0 z M687-247l0 575-72 0 0-575 72 0 z M472-247l0 638-72 0 0-638 72 0 z M1118-247l0 658-71 0 0-658 71 0 z M1334-247l0 791-72 0 0-791 72 0 z M1550-247l0 1009-72 0 0-1009 72 0 z M1765-247l0 1225-72 0 0-1225 72 0 z M1981-247l0 1448-72 0 0-1448 72 0 z M2197-247l0 1660-72 0 0-1660 72 0 z M2412-247l0 1797-72 0 0-1797 72 0 z" fill="#9B9B9B"/>
		<path d="M707 211c222 0 447 91 607 251l816 817c75 75 171 131 282 154l0 146c-148-27-278-94-383-199l-816-816c-135-135-314-209-505-209-105 0-211 23-308 70l0-155c99-39 202-59 307-59 z" fill="#F8312F"/>
		<path d="M1155 613c26 0 48 9 67 28l180 180c19 19 28 41 28 66 0 24-8 45-23 62 17-15 39-23 62-23 25 0 48 10 67 29l180 179c19 19 28 41 28 68 0 51-43 95-96 95-25 0-50-9-67-28l-179-180c-19-19-28-41-28-67 0-24 8-45 23-62-17 15-38 23-63 23-25 0-47-9-66-28l-180-180c-19-19-28-41-28-67 0-54 45-95 95-95 z M1785 1241c25 0 48 10 67 29l180 179c19 19 28 41 28 68 0 49-40 95-95 95-26 0-48-9-67-28l-180-180c-19-19-28-41-28-67 0-52 42-96 95-96 z" fill="#FF6723"/>
		<path d="M1875 1245c26 0 48 20 48 48 0 27-22 47-48 47-26 0-47-20-47-47 0-26 20-48 47-48 z M1559 930c26 0 48 20 48 48 0 27-22 47-48 47-26 0-47-20-47-47 0-26 20-48 47-48 z M1245 616c26 0 48 20 48 48 0 27-22 47-48 47-26 0-47-20-47-47 0-26 20-48 47-48 z M1380 751c26 0 47 20 47 47 0 26-20 48-47 48-26 0-48-20-48-48 0-27 22-47 48-47 z M1693 1065c26 0 48 20 48 47 0 27-22 47-48 47-26 0-47-20-47-47 0-26 20-47 47-47 z M2010 1380c26 0 47 20 47 47 0 26-20 48-47 48-26 0-48-20-48-48 0-27 22-47 48-47 z" fill="#321B41"/>
		<path d="M1114 622c-21 9-34 25-45 45l306 307c7-3 12-6 17-10-4 7-7 11-10 18l306 306c18-8 37-24 45-44l-306-307c-7 2-12 5-17 9 4-5 8-9 11-16l-307-308 z M1743 1252l307 307c-8 20-25 36-45 44l-306-306c9-21 24-36 44-45 z" fill="#F9C23C"/>
	</g></svg>
