<svg version="1.1" xmlns="http://www.w3.org/2000/svg" viewBox="0 0 2300 2300"><g transform="scale(1,-1) translate(-256, -1869)">
		<path d="M2199 743l0 52c-63 42-126 82-191 119-195 111-369 234-546 382l-82 0-230-553 1049 0 z" fill="#F3EEF8"/>
		<path d="M545-288l268 1 234 178 0 883-160 0c-86 0-203-19-284-52-13-59-19-118-28-178-42-302-41-298-82-597-7-56-17-107-21-164 0-51 26-71 73-71 z" fill="#CA0B4A"/>
		<path d="M2279-287c41 0 61 19 61 58 0 21-2 43-5 65-18 119-32 237-44 345-21 179-46 355-78 531-5 27-12 62-47 62l-1119 0 0-917 365 63 38-13c137-45 572-194 572-194l257 0 z" fill="#FF5E59"/>
		<path d="M1769 743l0 8 1 18c1 9 2 17 2 26-27 36-52 73-77 111-25 37-50 74-76 111-28 40-56 80-83 121-27 41-54 82-79 124l-21 34-56 0-230-553 619 0 z" fill="#E1D8EC"/>
		<path d="M1082 743l302 553-31 0c-185-177-498-359-734-501l0-52 463 0 z" fill="#CDC4D6"/>
		<path d="M2022-287c27 0 38 17 38 43l-1 11c-37 324-78 634-116 942l-231 41c-45 8-70 20-116 20l-373 0c-44 0-71-9-114-17l-229-34c-41-335-89-678-122-963 0-32 12-43 43-43l246 0 359 131 359-131 257 0 z" fill="#E1D8EC"/>
		<path d="M684 577c99 0 166 100 196 174 3 9 7 18 7 27 0 16-17 16-29 16l-209 0c-13 0-23-1-30-3-20-7-40-56-40-95 0-62 42-119 105-119 z" fill="#E1D8EC"/>
		<path d="M2131 577c63 0 104 55 104 118 0 24-6 51-18 73-14 25-25 26-51 26l-209 0c-11 0-28 0-28-15 0-11 4-19 7-28 29-79 103-174 195-174 z" fill="#E1D8EC"/>
		<path d="M1618 254l-26 496-365 0-25-496 416 0 z" fill="#F8312F"/>
		<path d="M1765-287l0 373c0 190-163 348-355 348-184 0-363-147-363-348l0-373 718 0 z" fill="#533566"/>
		<path d="M1176 765c19 0 42 3 49 12 24 32 147 436 170 519l-27 0c-115-165-256-305-403-434-14-13-32-25-47-40-9-9-22-21-24-36 0-2 1-4 4-5 8-5 24-8 28-8 20-3 39-5 59-5 66-2 95-3 191-3 z" fill="#F837A2"/>
		<path d="M1776 767c22 0 45 0 70 1 25 0 48 3 69 9 1 1 4 2 8 3 2 1 4 2 4 5l0 1c-1 7-4 14-9 20l-16 16-23 21c-8 6-16 12-24 19l-48 42c-16 14-32 28-47 43-57 54-111 110-163 167-52 57-101 118-146 182l-28 0c17-59 35-116 53-173 17-57 36-115 55-172l28-82c5-15 10-29 16-42 5-14 11-26 16-36 3-6 14-11 31-14 17-3 35-6 56-7 21-2 40-3 59-3l39 0 z" fill="#FF5E59"/>
		<path d="M1801 577c78 0 149 49 149 136 0 32-10 80-50 80l-285 0c-16 0-24-7-24-22 0-107 108-194 210-194 z M1425 1512c27 0 232 64 254 79 7 5 13 8 13 19 0 7-4 13-13 18-39 21-215 86-254 86 0-34 0-68 1-101l-1-101 z" fill="#F8312F"/>
		<path d="M1448 1292c18 0 25 9 28 23 1 6 2 13 2 20l-1 20c0 44-29 56-29 93l0 222c0 27-9 50-41 50-32 0-42-23-42-50l0-222c0-43-31-44-31-93l0-36c0-14 7-27 24-27l90 0 z" fill="#FFB02E"/>
		<path d="M1016 577c95 0 182 66 206 161 3 11 6 21 6 32 0 15-8 23-24 23l-288 0c-41 0-50-50-50-80 0-85 70-136 150-136 z" fill="#E5336D"/>
		<path d="M1406 577c97 0 192 62 192 168 0 19-1 46-27 46l-308 0c-36 0-41-8-41-46 0-98 89-168 184-168 z" fill="#E1D8EC"/>
	</g></svg>
