<svg version="1.1" xmlns="http://www.w3.org/2000/svg" viewBox="0 0 2300 2300"><g transform="scale(1,-1) translate(-256, -1869)">
		<path d="M2206 806c0 25-3 51-8 78-56 281-241 410-510 410l-138-152 656-336 z M575 806l656 336-139 152c-179 0-323-60-415-185-54-72-102-192-102-303 z" fill="#000000"/>
		<path d="M611-287c15 0 27 2 36 6 34 15 73 52 112 87l180 152c62 51 111 114 190 114l553 0c30 0 67-11 92-31l361-305c19-15 48-21 70-21 61 0 134 58 171 111 33 49 36 105 36 166 0 240-90 576-153 808-16 57-35 113-50 170-43 157-168 252-329 252l-951 0c-122 0-221-54-282-147-38-57-50-123-71-189-57-184-109-399-143-588-19-100-33-201-33-302 0-102 23-176 89-228 29-24 81-55 122-55 z" fill="#533566"/>
		<path d="M1888 892c39 0 72 31 72 72 0 39-31 72-72 72-40 0-71-34-71-72 0-38 31-72 71-72 z" fill="#FCD53F"/>
		<path d="M1888 567c39 0 72 31 72 72 0 39-31 72-72 72-40 0-71-34-71-72 0-38 31-72 71-72 z" fill="#86D72F"/>
		<path d="M1726 730c39 0 72 31 72 72 0 40-34 71-72 71-38 0-72-31-72-71 0-39 31-72 72-72 z" fill="#00A6ED"/>
		<path d="M2051 730c39 0 72 31 72 72 0 40-34 71-72 71-38 0-72-31-72-71 0-39 31-72 72-72 z" fill="#F8312F"/>
		<path d="M1406 901c50 0 94 40 94 94 0 49-40 94-94 94-54 0-94-44-94-94 0-55 45-94 94-94 z" fill="#D3D3D3"/>
		<path d="M1200 231c13 0 22 3 27 9 22 23 6 73 29 96 19 19 99-7 99 49 0 64-74 26-104 57-20 19 8 100-51 100-13 0-22-3-27-8-22-24-6-75-28-97-19-19-101 6-101-51 0-13 3-22 9-27 23-22 74-7 97-28 20-19-11-100 50-100 z M1670 226c84 0 155 68 155 154 0 86-72 155-155 155-86 0-155-72-155-155 0-85 70-154 155-154 z M951 644c85 0 155 67 155 155 0 85-70 154-155 154-85 0-154-68-154-154 0-84 68-155 154-155 z" fill="#A4AEEB"/>
	</g></svg>
