<svg version="1.1" xmlns="http://www.w3.org/2000/svg" viewBox="0 0 2300 2300"><g transform="scale(1,-1) translate(-256, -1869)">
		<path d="M759 1293l0 288c0 80-65 143-144 143l0-431 144 0 z" fill="#FFCE7C"/>
		<path d="M1478-288l0 719-72 72-72-72 0-719 144 0 z M1406 1006l72 72 0 646-144 0 0-646 72-72 z" fill="#FCD53F"/>
		<path d="M1721-216c38 0 75 22 90 58l133 301 37 0 0 288-216 72-215-72 0-95c0-102 79-184 179-192l-97-219c-6-14-9-28-9-43 0-56 42-98 98-98 z M839-216c38 0 75 22 90 58l261 589-107 72-108-72-226-508c-6-13-9-27-9-40 0-54 46-99 99-99 z" fill="#D3883E"/>
		<path d="M2268 359c79 0 144 63 144 144 0 50-27 98-72 125l0 234c0 114-93 216-212 216-80 0-147-61-147-144 0-50 27-98 72-125l0-160 71 0 0-146 1 0c0-80 64-144 143-144 z M1190 933c80 0 146 65 146 145 0 79-63 146-146 146l-15-1c12 21 18 46 18 70 0 61-37 111-88 134-23 9-47 11-66 11l-9-1c11 23 18 46 18 71 0 80-65 145-145 145l-324 0c-59 0-107-49-107-107 0-57 45-108 107-108 33 0 60 12 81 35l99 108 14-7c-10-20-15-42-15-66 0-61 37-111 89-133 22-10 46-12 65-12l9 1c-11-23-18-46-18-71 0-80 65-145 145-145l15 1c-11-23-18-46-18-71 0-80 65-145 145-145 z" fill="#6D4534"/>
		<path d="M2003-216c38 0 75 22 90 58l142 319c8 18 12 37 12 57 0 69-53 132-123 140l0 73 1 0 0 238c0 227-184 409-410 409l-597 0-156 370-275-9 0-599c0-68 16-133 49-194l-193 0c-77 0-139-62-139-140 0-20 4-39 12-57l141-319c14-34 50-58 89-58 56 0 99 43 99 99 0 43-84 210-106 260l1054 0 0-95c0-106 85-193 192-193l126 0c-21-48-106-217-106-260 0-56 42-99 98-99 z" fill="#F3AD61"/>
		<path d="M541 937c35 0 65 11 90 32 18 34 52 67 52 109 0 76-60 142-142 142-38 0-82-43-113-48-16-34-28-56-28-94 0-76 60-141 141-141 z" fill="#D3883E"/>
		<path d="M632 969c98 84 190 166 291 247l-1 0c35 39 57 91 57 147 0 67-31 125-76 165l0 53c0 81-67 144-144 144l0-144c-85 0-162-53-194-123l-137-286 204-203 z" fill="#FFCE7C"/>
		<path d="M615 1259c19 0 35 16 35 34 0 18-16 35-35 35-18 0-34-16-34-35 0-18 15-34 34-34 z" fill="#D3883E"/>
		<path d="M1615 718c44 0 78 37 78 79l0 281-575 0 0-281c0-42 35-79 79-79l418 0 z" fill="#F8312F"/>
	</g></svg>
