<svg version="1.1" xmlns="http://www.w3.org/2000/svg" viewBox="0 0 2300 2300"><g transform="scale(1,-1) translate(-256, -1869)">
		<path d="M1057-260c170 0 308 136 308 308l-1 754c0 20 15 37 35 40l249 33c19 3 33 17 33 38l0 210c0 21-16 38-38 38l-5 0-441-58c-23-3-40-24-40-46l0-719c-33 11-66 17-101 17-168 0-307-137-307-307 0-170 136-308 308-308 z M1788 62c166 0 307 135 307 308l0 753c0 21 16 38 35 41l248 32c19 3 34 20 34 38l0 211c0 26-18 38-43 38l-441-58c-23-3-40-23-40-45l0-720c-32 12-66 18-101 18-172 0-307-140-307-310 0-172 142-306 308-306 z M707 404c166 0 307 134 307 307l0 583c0 20 15 37 35 40l248 32c18 3 33 19 33 38l0 211c0 25-14 38-42 38l-441-57c-23-3-40-24-40-46l0-548c-33 11-66 17-101 17-171 0-307-139-307-309 0-172 142-306 308-306 z" fill="#635994"/>
	</g></svg>
