<svg version="1.1" xmlns="http://www.w3.org/2000/svg" viewBox="0 0 2300 2300"><g transform="scale(1,-1) translate(-256, -1869)">
		<path d="M1202 208l409 249 295 393-104 170-21-3-293-167c-50-28-95-45-151-45-97 0-174 53-220 129l-21 0-195-358c-40-72-91-150-91-234 0-53 20-86 49-133l343-1 z" fill="#00A6ED"/>
		<path d="M917 1238l542 333 0 8 1 0c-16 24-31 74-64 74-40 0-249-161-277-161-21 0-21 49-54 49-19 0-79-44-97-54-52-31-86-89-86-153 0-33 9-64 27-93l8-3 z" fill="#0074BA"/>
		<path d="M1344 791c52 0 102 14 149 43l309 186-342 559-551-338c63-104 125-201 187-306l0-1c61-91 138-143 248-143 z" fill="#26EAFC"/>
		<path d="M1101 526c42 0 78 33 78 77 0 28-14 55-40 68-22 11-141 81-155 81-8 0-14-3-17-10-8-16-58-100-58-111 0-8 4-14 11-17l145-79c11-6 23-9 36-9 z M972 75c7 0 15 2 23 5 4 8 185 115 207 128l-75 123c-7 11-18 17-30 17-6 0-12-2-19-5l-219-134 37-60c19-32 35-74 76-74 z M1611 457l294 180c32 19 74 36 74 78 0 11-3 21-8 30l-65 105-358-222c-11-7-17-17-17-30 0-24 65-118 80-141 z M1043 995c13 0 129 75 151 89 23 15 37 40 37 66 0 42-33 77-77 77-15 0-28-4-41-11l-140-86c-6-3-9-9-9-18 0-10 29-58 49-86 17-27 15-31 30-31 z" fill="#0074BA"/>
		<path d="M749-288c57 0 113 15 158 44l1481 907c15 9 24 25 24 44 0 30-61 112-76 139-9 15-25 25-44 25-9 0-17-3-26-8l-1481-906c-11-7-23-10-36-10-104 0-92 207-232 207-63 0-117-52-117-118 0-21 6-42 17-61l72-118c56-91 153-145 260-145 z" fill="#FF6723"/>
	</g></svg>
