<svg version="1.1" xmlns="http://www.w3.org/2000/svg" viewBox="0 0 2300 2300"><g transform="scale(1,-1) translate(-256, -1869)">
		<path d="M1264 58l861 158 0 191c0 9 0 18-1 26-1 7-1 15-1 22l-1 11 1 12c0 7 1 16 2 25 3 17 7 32 13 43 6 11 12 25 17 42l61 171-91 247 0 216-574 57-76 9-67 9c-22 3-44 5-67 7-23 2-49 3-77 3-28 0-53-1-76-3-23-2-46-4-68-7l-67-9-77-9-576-57 0-1006 864-158 z" fill="#E1D8EC"/>
		<path d="M2017-287c59 0 108 51 108 111l0 392-1725 0 0-392c0-62 49-111 108-111l1509 0 z M2178 503c15 0 20 14 21 30l-2 42 169 0c22 0 46 16 46 41l0 277c0 32-24 41-48 42l-24 0 0 396c0 18-17 35-36 35-19 0-36-17-36-35l0-396-71 0 2 42c-1 14-6 29-21 29l-53 0 0-503 53 0 z M2125 1222l0 120c0 102-92 168-185 168l-1355 0c-90 0-185-64-185-168l0-120 1725 0 z" fill="#D3D3D3"/>
		<path d="M1640-144c107 0 197 84 197 193l0 55c0 22-18 40-41 40l-1068 0c-23 0-41-18-41-40l0-55c0-110 91-193 197-193l756 0 z M1950 324c54 0 103 42 103 102l0 586c0 57-46 102-103 102l-1376 0c-57 0-102-44-102-102l0-586c0-58 45-102 102-102l1376 0 z" fill="#433B6B"/>
		<path d="M909 396c40 0 66 31 66 68l0 510c0 35-27 68-66 68l-300 0c-38 0-66-31-66-68l0-510c0-37 28-68 66-68l300 0 z" fill="#F4F4F4"/>
		<path d="M1412 396c40 0 66 31 66 68l0 510c0 35-27 68-66 68l-300 0c-38 0-65-32-65-68l0-510c0-36 27-68 65-68l300 0 z" fill="#F4F4F4"/>
		<path d="M1915 396c40 0 66 31 66 68l0 510c0 35-27 68-66 68l-299 0c-38 0-66-31-66-68l0-510c0-37 26-68 66-68l299 0 z" fill="#F4F4F4"/>
		<path d="M1765 953c50 0 90 38 90 89l-180 0c0-50 41-89 90-89 z M1262 953c50 0 90 38 90 89l-180 0c0-50 41-89 90-89 z M759 953c50 0 90 38 90 89l-180 0c0-51 40-89 90-89 z" fill="#00A6ED"/>
		<path d="M1855 396c0 50-41 89-90 89-49 0-90-39-90-89l180 0 z M1352 396c0 50-41 89-90 89-49 0-90-39-90-89l180 0 z M849 396c0 50-41 89-90 89-49 0-90-39-90-89l180 0 z" fill="#F9C23C"/>
		<path d="M1761 577c-18 0-34 15-34 34 0 22 76 152 90 182l-107 0c0-23-8-43-35-43-18 0-34 15-34 34l0 33c0 26 21 44 45 44l187 0c18 0 34-16 34-35 0-13-44-98-79-162-37-69-40-87-67-87 z M1258 577c13 0 23 6 30 18 16 31 116 211 116 231 0 19-16 35-34 35l-187 0c-24 0-45-18-45-44l0-33c0-18 15-34 34-34 27 0 34 20 34 43l108 0c-13-29-90-160-90-182 0-18 15-34 34-34 z M755 577c-18 0-35 16-35 35 0 21 73 149 91 181l-108 0c0-23-7-43-34-43-18 0-34 15-34 34l0 33c0 26 21 44 45 44l187 0c18 0 34-16 34-35 0-13-44-98-79-162-37-69-40-87-67-87 z M2304 1294c57 0 108 46 108 108 0 58-49 108-108 108-59 0-107-49-107-108 0-57 45-108 107-108 z" fill="#F8312F"/>
	</g></svg>
