<svg version="1.1" xmlns="http://www.w3.org/2000/svg" viewBox="0 0 2300 2300"><g transform="scale(1,-1) translate(-256, -1869)">
		<path d="M1406-288c40 0 99 11 133 29l668 363c89 47 133 53 133 172l0 937c0 74-29 156-100 188l-682 292c-50 21-101 32-152 32-53 0-103-11-152-32l-675-292c-73-33-107-113-107-188l0-937c0-102 35-202 133-244l667-291c43-19 87-29 134-29 z" fill="#F3EEF8"/>
		<path d="M1406-288c40 0 99 11 133 29l668 358c87 46 133 58 133 177l-1868 0c0-102 35-202 133-244l667-291c43-19 87-29 134-29 z" fill="#B4ACBC"/>
		<path d="M1298-260c59 0 108 49 108 108l0 963c0 84-49 161-127 196l-655 296c-15 7-30 10-45 10-59 0-107-48-107-108l0-1018c0-55 32-108 86-132l697-306c14-6 28-9 43-9 z" fill="#B4ACBC"/>
		<path d="M1514-261c15 0 29 3 43 9l697 306c52 22 86 70 86 131l0 1019c0 58-49 108-108 108-14 0-29-3-44-10l-655-296c-77-34-127-113-127-196l0-963c0-59 47-108 108-108 z" fill="#E1D8EC"/>
		<path d="M1652 1c75 0 113 89 113 153 0 59-33 133-101 133-75 0-114-89-114-153 0-58 32-133 102-133 z M1867 360c75 0 114 89 114 153 0 59-33 134-102 134-74 0-114-89-114-152 0-56 31-135 102-135 z M1162 0c68 0 100 77 100 134 0 63-38 153-113 153-69 0-103-70-103-135 0-62 40-152 116-152 z M2082 719c77 0 115 90 115 152 0 56-31 135-102 135-75 0-114-89-114-153 0-57 32-134 101-134 z M729 719c65 0 102 69 102 134 0 62-39 153-114 153-70 0-102-76-102-135 0-62 41-152 114-152 z" fill="#433B6B"/>
		<path d="M1406 1330c36 0 216 12 216 72 0 61-180 72-216 72-39 0-216-12-216-72 0-10 5-19 14-26 46-38 165-46 202-46 z" fill="#F8312F"/>
	</g></svg>
