<svg version="1.1" xmlns="http://www.w3.org/2000/svg" viewBox="0 0 2300 2300"><g transform="scale(1,-1) translate(-256, -1869)">
		<path d="M942-287c113 0 191 53 262 124l227 227c10 10 15 22 15 36 0 52-100 76-100 181 0 74 57 140 136 140 70 0 97-49 118-49 8 0 15 3 20 8l160 160c12 12 21 26 33 38 51 51 78 101 78 170 0 58-20 116-64 160l-241 239c-40 39-94 64-153 64-52 0-108-21-144-57l-222-222c-5-5-8-12-8-20 0-16 47-52 47-115 0-78-67-135-141-135-102 0-130 95-180 95-14 0-26-5-36-15l-157-157c-94-94-192-184-192-330 0-93 39-176 99-236l212-211c63-63 147-95 231-95 z" fill="#8C5543"/>
		<path d="M996 112c30 0 51 25 51 52 0 14-5 26-15 36l-144 143c-11 10-23 15-36 15-29 0-51-24-51-51 0-15 5-27 15-37l144-143c11-10 23-15 36-15 z" fill="#F3C07B"/>
		<path d="M1273 97c24 0 44 18 44 44 0 24-18 45-44 45-13 0-23-4-31-12-3 6-4 13-4 22 0 51 69 104 69 167 0 39-34 97-80 97-25 0-44-22-44-44 0-26 21-45 46-45 10 0 19 4 28 11 2-6 3-12 3-19 0-48-69-104-69-167 0-38 36-99 82-99 z M1100 497c24 0 45 18 45 44 0 41-53 78-97 78-64 0-124-72-169-72-8 0-15 1-21 4 8 8 12 18 12 30 0 26-20 44-45 44-26 0-44-20-44-44 0-46 58-80 98-80 66 0 117 72 169 72 6 0 12-1 18-3-7-7-10-16-10-28 0-22 19-45 44-45 z M638-170c7 0 13 2 18 6l225 176c7 5 11 13 11 24 0 8-3 15-9 21l-138 136c-7 6-14 9-21 9-9 0-17-4-24-12l-172-226c-4-5-6-11-6-18 0-9 3-16 9-22l86-86c5-5 12-8 21-8 z M1535 689c15 0 27 5 36 16l565 629-123 122-625-570c-11-9-16-21-16-35 0-13 5-24 15-34l115-114c9-9 20-14 33-14 z M2262 1230c25 0 46 20 46 46 0 25-20 46-46 46-6 0-11-1-16-3l-35 36-26-25 35-36c-3-5-4-11-4-18 0-25 20-46 46-46 z M2351 1289c25 0 46 20 46 46 0 25-20 46-46 46-6 0-11-1-16-3l-35 36-26-25 35-36c-3-5-4-11-4-18 0-25 20-46 46-46 z M2008 1514l26 25-35 35c3 5 4 11 4 18 0 26-19 46-46 46-25 0-46-20-46-46 0-25 20-46 46-46 6 0 12 1 17 3l34-35 z M2071 1601l26 25-35 36c2 5 3 10 3 17 0 25-20 46-46 46-25 0-46-20-46-46 0-25 20-46 46-46 6 0 12 1 17 3l35-35 z" fill="#321B41"/>
		<path d="M2161 1312c9 0 17 2 23 6l120 82c25 17 40 45 40 76 0 25-9 47-26 64l-101 100c-17 17-38 26-63 26-30 0-58-15-76-41l-81-121c-5-7-7-14-7-23 0-12 4-22 12-30l129-128c7-6 19-11 30-11 z" fill="#8C5543"/>
	</g></svg>
