<svg version="1.1" xmlns="http://www.w3.org/2000/svg" viewBox="0 0 2300 2300"><g transform="scale(1,-1) translate(-256, -1869)">
		<path d="M2053-287c80 0 144 64 144 143l0 1725c0 81-67 144-144 144l-1294 0c-81 0-144-67-144-144l0-1725c0-80 65-143 144-143l1294 0 z" fill="#F70A8D"/>
		<path d="M1406 791c179 0 323 147 323 323 0 179-144 324-323 324-178 0-323-144-323-324 0-179 147-323 323-323 z" fill="#FFFFFF"/>
		<path d="M1909-144c81 0 144 67 144 144l0 1438c0 80-65 143-144 143l-1006 0c-80 0-144-64-144-143l0-1438c0-81 67-144 144-144l1006 0 z M1578 453c-98 215-331 338-567 338-61 0-121-8-180-24l0 599c0 81 67 144 144 144l862 0c81 0 144-67 144-144l0-871c-39 7-78 8-117 8-99 0-194-17-286-50 z" fill="#533566"/>
	</g></svg>
