<svg version="1.1" xmlns="http://www.w3.org/2000/svg" viewBox="0 0 2300 2300"><g transform="scale(1,-1) translate(-256, -1869)">
		<path d="M1250 1267c-93 0-124 73-167 143-7 11-12 21-12 34 0 27 22 34 22 68l-1 13c0 4 2 9 7 9 11 0 33-12 55-12 63 0 120 65 155 65 14 0 28-10 35-24l40-81c11-23 17-46 17-69 0-80-70-146-151-146 z M1174 1198c24 0 105 34 105 53 0 3-22 43-25 51l105 57c8-13 19-48 37-48 3 0 7 1 11 3 44 21 88 51 88 105 0 33-18 63-42 81-8 6-12 42-19 54-22 38-65 29-96 47l-120 70c-3-2-6-3-9-3-11 0-29 11-48 11-50 0-94-36-99-88-3-18-39-21-39-52 0-20 16-46 26-62l0-44c2-3 3-7 3-11 0-18-18-33-18-61 0-27 16-44 36-60 10-10 10-103 104-103 z" fill="#593B39"/>
		<path d="M1566 1083c9 0 18 2 29 7 160 72 266 195 266 375 0 29-3 58-7 87l-136-54 0 1c1-5 2-10 2-15l0-16c0-126-75-197-183-248-26-12-42-35-42-65 0-38 31-72 71-72 z" fill="#A9715F"/>
		<path d="M798 679c37 0 69 29 69 69 0 51-49 119-49 165 0 15 6 27 19 34l856 505 0 82-906-535c-55-33-100-52-100-122 0-40 30-113 44-151 9-28 36-47 67-47 z" fill="#9B9B9B"/>
		<path d="M1724 1470l326 189c10 7 17 19 17 31 0 20-15 35-35 35-5 0-11-2-18-5l-320-185 30-65 z" fill="#321B41"/>
		<path d="M1458 678l213 72c0 120-20 326-84 427-43 68-144 168-238 168-96 0-162-112-162-200 0-88 57-123 57-192l0-203 214-72 z" fill="#8B62BF"/>
		<path d="M1749 1474c7 0 15 3 23 8l20 12c9 5 14 13 14 22 0 10-4 17-13 22 4 5 6 10 6 14 3-2 6-3 9-3 4 0 7 1 11 4 7 4 11 10 11 17l6-1 10 2 3 0c7 5 11 12 11 20 0 7-3 16-10 26-7 9-14 14-23 14-5 0-9-1-12-4-4-3-7-6-8-11-3 3-8 4-13 4-13 0-20-6-22-19l-9 2c-5 0-10-2-14-5-4-4-7-9-8-14l-9 2c-4 0-8-1-12-3-7-4-10-10-10-19 0-3 1-6 3-10l7-14c2-5 4-9 7-13 3-4 5-7 7-8-7-5-11-12-11-21 0-7 3-13 8-17 5-5 11-7 18-7 z" fill="#A9715F"/>
		<path d="M1458 678l213 72c0 120-20 326-84 427-43 68-144 168-238 168-96 0-162-112-162-200 0-88 57-123 57-192l0-203 214-72 z" fill="#8B62BF"/>
		<path d="M1651-220l19 969-426 0 0-520c0-16-2-35-8-43l-221-235c39-34 84-61 123-96l238 209c27 23 52 58 53 98l11 378c0 11 3 35 20 35 4 0 8-1 11-4 6-6 9 1 13-120 6-194 17-572 17-633l150-38 z" fill="#9B9B9B"/>
		<path d="M1779-293c10 0 20 10 20 20 0 7-2 14-9 17l-136 75-153 0 5-111 273-1 z M1172-293c14 0 23 12 23 24 0 21-41 40-57 50l0 74-123 95c-17-19-25-41-25-68l0-134c0-22 18-41 41-41l141 0 z" fill="#321B41"/>
		<path d="M1343 1094l10 1c36 6 71 14 105 23 150 41 292 161 292 332 0 29-8 60-23 85 5 3 7 7 7 13 0 12-13 28-27 28-11 0-20-6-23-17-5 3-10 5-15 5-12 0-20-9-23-21-4 1-7 2-10 2-12 0-20-10-23-20-4 1-7 2-10 2-15 0-23-12-23-25 0-19 24-36 24-65 0-23-14-55-25-74-55-88-160-111-247-126-36-5-61-39-61-73 0-40 34-70 72-70 z" fill="#C68D7B"/>
		<path d="M1279 1076c50 0 114 14 165 33-14 49-24 94-36 143-45-10-89-17-137-22-43-6-67-40-67-79 0-43 30-75 75-75 z" fill="#B8A1E6"/>
		<path d="M1178 1258c24 0 48 8 71 12l-97 169c-5-5-10-9-15-16l-26 47-63-36 37-63-7-7 42-74c11-19 37-32 58-32 z M1380 1346c22 27 55 52 55 89 0 32-37 83-50 106l-9-3-37 64-62-36 26-45-21-6 98-169 z" fill="#593B39"/>
		<path d="M1112 1315c27 0 50 21 50 50 0 27-21 51-50 51-29 0-50-24-50-51 0-27 21-50 50-50 z M1367 1462c29 0 50 24 50 51 0 26-23 50-50 50-26 0-50-23-50-50 0-27 21-51 50-51 z" fill="#BB806E"/>
		<path d="M1250 1267c79 0 151 64 151 146 0 25-6 48-17 69-31 65-55 148-143 148-21 0-39-5-56-15-59-32-125-58-125-136 0-21 5-40 16-57 42-71 79-155 174-155 z" fill="#C68D7B"/>
		<path d="M1049 1433c11 19 23 36 35 51 11 15 24 28 38 40 14 12 29 23 46 32 16 9 34 18 55 26 7 3 15 5 26 8 10 3 21 5 32 7 11 2 21 4 32 5l8 0c6 0 12-1 17-2l2 1c-5 13-12 26-19 39-7 12-16 23-26 32-10 9-21 17-34 23-13 5-28 8-43 8-21 0-40-4-56-12-17-8-34-17-52-28-12-7-24-15-36-23-12-8-23-17-33-27-10-10-18-21-24-34-7-13-10-27-10-42 0-19 4-38 13-55 8-18 18-34 29-49 z" fill="#8B62BF"/>
		<path d="M1078 1424c11 0 20 5 27 15 51 75 111 112 203 118 27 3 31 23 32 45-17 3-34 6-51 6-108 0-212-74-240-175 9-4 18-9 29-9 z" fill="#B8A1E6"/>
		<path d="M1268 1329c30 0 60 24 60 58 0 3-2 5-5 6l-3-3c-7-12-21-25-33-32-10-5-49-15-49-18l3-4c9-5 18-7 27-7 z" fill="#990838"/>
		<path d="M1256 1376c11 0 36 15 36 28 0 14-45 53-53 53-7 0-11-4-11-13 0-6 2-15 5-27 8-27 7-41 23-41 z" fill="#AB6A55"/>
		<path d="M1144 1384c3 0 67 30 67 42 0 11-25 19-35 19-22 0-42-18-42-43 0-7 0-18 10-18 z M1270 1456c3 0 67 32 67 43l-2 6c-10 9-21 13-32 13-22 0-42-19-42-42 0-7 2-20 9-20 z" fill="#FFFFFF"/>
		<path d="M1159 1391l46 27c-3 10-15 20-26 20-16 0-28-12-28-27 0-8 3-15 8-20 z M1276 1459l46 26c-5 12-12 21-27 21-16 0-27-14-27-28 0-7 3-14 8-19 z" fill="#7D4533"/>
		<path d="M1170 1397l24 13c0 8-6 16-15 16-11 0-16-5-16-16 0-5 2-10 7-13 z M1287 1464l24 15c-2 10-8 15-17 15-9 0-15-9-15-17 0-5 3-9 8-13 z" fill="#000000"/>
		<path d="M1165 1410c3 0 5 2 5 6-2 3-4 5-5 5-2 0-4-2-5-5 0-4 2-6 5-6 z M1282 1478c3 0 5 2 5 5 0 3-2 5-5 5-3 0-5-2-5-5 0-3 2-5 5-5 z" fill="#FFFFFF"/>
		<path d="M1121 1428c3 0 5 2 6 6 8 22 39 34 39 39 0 5-5 7-9 7-16 0-45-28-45-43 0-6 3-9 9-9 z M1252 1519c2 0 7 3 16 8 12 6 28 6 39 8 2 0 3 3 3 8 0 5-3 7-8 7-11 0-20-1-29-3-12-4-22-6-29-20 0-5 3-8 8-8 z" fill="#593B39"/>
	</g></svg>
