<svg version="1.1" xmlns="http://www.w3.org/2000/svg" viewBox="0 0 2300 2300"><g transform="scale(1,-1) translate(-256, -1869)">
		<path d="M1213-288c44 0 82 24 103 60l544 942c17 29 25 60 25 92 0 16-3 33-7 49l-43 159-106 100-137 41-160-42c-48-12-88-44-113-86l-544-942c-11-19-16-39-16-59 0-74 50-98 106-130l244-141c37-22 62-43 104-43 z" fill="#F3AD61"/>
		<path d="M1835 1014l289 500c13 22 19 45 19 70 0 76-60 141-140 141-52 0-98-29-122-70l-289-500 243-141 z" fill="#533566"/>
		<path d="M1873-72c98 0 180 78 180 180 0 98-78 180-180 180-98 0-180-78-180-180 0-98 78-180 180-180 z" fill="#F8312F"/>
		<path d="M1995-24c27 25 45 58 54 93l-297 171c-28-25-46-56-54-93l297-171 z" fill="#D3D3D3"/>
	</g></svg>
