<svg version="1.1" xmlns="http://www.w3.org/2000/svg" viewBox="0 0 2300 2300"><g transform="scale(1,-1) translate(-256, -1869)">
		<path d="M1578 837l0 147c0 9 3 17 9 23l150 150c36 36 56 72 56 121 0 87-69 160-159 160l-99 0 0-302c-49-49-85-79-85-152l0-147 128 0 z" fill="#9B9B9B"/>
		<path d="M2125 719l0 333c0 7 3 14 8 19 5 5 11 7 18 7l84 0c25 0 48 5 70 15 21 9 40 22 56 39 16 16 29 35 38 57 9 21 13 44 13 69l0 144c0 15-3 29-8 42-5 13-13 24-22 34-10 10-21 18-34 24-13 5-27 8-42 8-13 0-23-3-28-10-5-7-9-16-10-27l-1-17 1-18c1-13 1-24 1-35 0-11-2-19-5-26-3-7-10-11-19-11l-84 0c-25 0-48-5-70-14-22-9-41-22-57-38-17-17-30-36-39-58-9-22-14-45-14-70l0-467 144 0 z M1177 1022c33 0 63 6 91 19 28 12 53 29 74 50 21 21 37 45 49 74 16 37 18 63 18 105 0 9-3 15-9 19-6 3-13 5-21 6l-13 1-13-1c-9-1-17-1-22-1 16 12 29 25 39 39 10 13 18 28 24 43 5 15 9 31 11 48 1 17 2 35 2 54 0 9-3 16-9 23-6 6-13 9-22 9l-192 0c19 12 35 28 46 48 11 20 16 41 16 64 0 9-3 17-8 23-6 5-14 8-23 8l-413 0 0-164 101 0 0-232 144 0 0-235 130 0 z M649 1510c80 0 144 64 144 143l-127 0c-30 0-57-9-82-26-29-20-61-63-61-97 0-11 5-20 17-20l109 0 z" fill="#212121"/>
		<path d="M578 178c-18 0-35 24-47 36-40 40-60 88-60 144l0 170c0 103 84 191 192 191l527 0 0-144-527 0c-26 0-48-20-48-47l0-170c0-48 53-58 53-90 0-21-71-90-90-90 z M1599-144c12 0 19 5 21 15 1 7 2 16 2 25l0 24 1 31c1 15 6 27 17 38l280 280 0 505-299-11 0-560c0-13-3-24-10-35-7-11-16-21-27-32l-34-33c-13-12-24-25-35-40-11-15-19-31-26-50-7-19-11-42-11-67l0-67c0-6 2-11 7-16 5-5 10-7 16-7l98 0 z" fill="#6D4534"/>
		<path d="M1958-287c15 0 27 6 37 18l233 291c27 34 40 72 40 115l0 516c0 49-9 95-27 138-19 43-44 80-76 112-32 32-69 57-112 76-43 18-89 27-138 27l-507 0c-45 0-87 12-126 35-39 23-69 54-91 93l-219 394c-9 17-21 33-35 48-14 14-29 27-44 38-5 3-15 11-30 23l-50 38-49 35c-15 10-24 15-27 15-9 0-15-4-17-11-1-6-2-12-2-19l0-8c0-11 0-21 1-31 0-11-2-19-7-24l-292-316c-13-15-20-32-20-52 0-21 7-39 22-54 14-15 32-23 54-23 14 0 31 4 51 12 20 8 40 17 61 27l57 26c18 8 32 12 42 12 5 0 10-2 15-5 4-3 6-8 7-13l79-578c5-33 13-63 26-91 13-29 29-56 48-82 3-3 4-7 4-12 0-6-5-14-16-24-11-10-24-23-37-38-14-15-26-34-37-55-11-22-17-48-17-78 0-25 5-50 16-74 10-25 24-46 42-64 26-26 48-48 66-67 17-19 35-35 53-47 17-12 37-21 60-27 23-6 52-9 88-9 10 0 18 4 25 11 6 7 9 15 9 24l0 74c0 9-3 18-9 25-7 7-15 10-25 10-13 0-27 0-40 1-13 0-25 5-36 16l-90 91c-6 6-10 12-12 19-2 6-3 13-3 21 0 7 4 16 12 27 8 11 17 21 28 32 10 11 20 20 30 28 10 7 17 11 20 11l4 0c1-1 2-1 3-1l37-11c11-4 21-7 32-9 11-3 22-5 34-6 11-2 24-3 39-3l576 0c15 0 30-2 45-7 15-5 28-12 40-21l181-136c21-16 38-36 51-61 12-25 18-50 18-77 0-39-12-73-35-104l-88-116-37-50c-11-15-21-28-28-39-7-11-11-17-11-19 0-5 2-9 5-12 3-3 6-5 11-5l88 0 z" fill="#7D4533"/>
		<path d="M476 1187c31 0 60 18 87 29l-92 156c-26-29-71-63-71-105 0-42 31-80 76-80 z" fill="#E19747"/>
		<path d="M708 1384c19 0 36 15 36 36l0 39c0 19-15 36-36 36-19 0-36-15-36-36l0-39c0-19 15-36 36-36 z" fill="#212121"/>
		<path d="M1902 575c42 0 79 35 79 79l-1 346 1 0c-22 4-44 6-66 6l-507 0c-51 0-102 17-146 48l0-400c0-42 34-79 78-79l562 0 z M1107 1039l0 71-204 0 0 496-72 54 0-546c-23 7-36 24-48 43l-205 329-51-55 195-311c33-52 89-81 148-81l237 0 z" fill="#00D26A"/>
		<path d="M1325 1293l111 58-55 108-111-56 55-110 z" fill="#8B5C56"/>
		<path d="M1675 719c5 0 10 2 13 5 3 3 5 8 5 13l0 246c0 9 3 16 10 23l161 150c19 17 33 36 43 55 9 19 14 41 14 67 0 22-4 43-13 63-9 19-20 36-35 51-15 14-32 25-52 34-20 8-41 12-63 12l-96 0 0-302-50-38c-15-12-26-28-33-49-7-21-11-42-13-65l-2-40 1-27c1-23 1-41 1-56 0-12-2-24-5-37-4-13-8-26-13-37l-12-31c-4-9-6-15-6-19 0-5 2-10 5-13 3-3 8-5 13-5l127 0 z" fill="#D3D3D3"/>
		<path d="M1675 719c11 0 18 7 18 18l0 185-127 0 0-68c-1-21-6-42-15-65-5-11-21-44-21-52 0-11 7-18 18-18l127 0 z" fill="#212121"/>
		<path d="M1238 1355c41 0 119 24 133 73l40 143c0 53-45 97-98 97l-63 0c-54 0-97-44-97-97l0-28c0-27-26-43-26-59 0-13 7-21 22-22l5-4c0-61 15-103 84-103 z" fill="#966661"/>
		<path d="M1395 1422c20 0 44 0 44 27 0 18-13 26-29 26 27 18 39 54 39 84 0 11-1 21-4 32l-13 0c-5 0-107 52-120 60-44-11-87-21-130-34 36-18 141 1 141-60 31 0 34-75 34-93 0-27 10-42 38-42 z" fill="#2D242D"/>
		<path d="M1324 1477c21 0 39 18 39 40 0 21-17 39-39 39l0-79 z" fill="#8B5C56"/>
		<path d="M1185 1427c7 0 14 3 22 8 7 5 11 11 11 18 0 4-2 6-7 6-1 0-3-1-4-3l-4-6c-2-3-4-5-7-7-3-2-6-3-11-3-3 0-6 1-9 2l-1 0c-3 0-5-3-5-7 0-3 2-5 6-6 3-1 6-2 9-2 z" fill="#990839"/>
		<path d="M1223 1515c5 0 7 3 7 8 0 17-12 29-30 29-16 0-30-10-30-28 0-3 3-9 7-9l46 0 z" fill="#FFFFFF"/>
		<path d="M1207 1515l1 9c0 11-6 24-18 24-12 0-19-13-19-24l1-9 35 0 z" fill="#7D4533"/>
		<path d="M1195 1515c1 2 2 5 2 9 0 7-3 14-10 14-7 0-11-7-11-14l2-9 17 0 z" fill="#000000"/>
		<path d="M1180 1529l4 4c0 2-1 4-4 5-2-1-3-3-3-5l3-4 z" fill="#FFFFFF"/>
		<path d="M1226 1565c5 0 7 3 7 6 0 11-33 18-41 18-4 0-15 0-15-7 0-5 2-7 6-7 23 0 37-10 43-10 z" fill="#372128"/>
		<path d="M1249 1022c109 0 115 128 151 128l262 0 0 288-238 0c-26 0-47-14-58-36l-120-252-183 0c-40 0-66-30-66-67 0-36 30-61 63-61l189 0 z M1309 1355c10 0 21 10 21 21l0 205 111 0c11 0 18 7 18 18l-1 5c-16 71-85 121-156 121-56 0-98-25-131-68-21-29-65-12-65-48 0-14 13-28 28-28l154 0 0-205c0-12 9-21 21-21 z" fill="#635994"/>
		<path d="M1118 1022l0 128-58 0c-35 0-64-30-64-64 0-34 29-64 64-64l58 0 z" fill="#966661"/>
	</g></svg>
