<svg version="1.1" xmlns="http://www.w3.org/2000/svg" viewBox="0 0 2300 2300"><g transform="scale(1,-1) translate(-256, -1869)">
		<path d="M1167 1139l151 79-75 148-151-76 75-151 z" fill="#B87A66"/>
		<path d="M1053 1240c35 0 69 8 100 24 21 11 71 52 76 75l13 46c5 24 41 135 41 142 0 72-63 126-132 126l-86 0c-74 0-133-54-133-128l0-51c-8-14-36-51-36-62 0-18 21-29 36-29 3-91 18-143 121-143 z" fill="#C68D7B"/>
		<path d="M853-188l256 448 270 207 145-203c26-36 69-60 117-60 10 0 20 1 30 3l446 100-44 124-392-34-147 289c0 19-3 37-10 56l20 8-32 21c5-9 9-18 12-29l-307-258-192 1c-16-13-32-25-47-40-29-24-62-126-75-162l-151-404 101-67 z M909 855c180 0 357 85 470 233l178 70c6 3 13 4 22 4 13 0 25-4 34-11l174-136c4-39 14-50 41-51 9-1 19-1 31-1 5-10 15-20 27-20 40 0 96 72 96 113 0 31-81 84-102 99l-165 126c-39 31-85 47-136 47-28 0-56-6-85-17l-236-93 21-53-31 24c-81-109-208-168-339-168-86 0-169 26-238 73-5 21-25 64-52 64-11 0-17-2-25-10-5 11-16 18-26 18-5 0-9-1-11-2-38-18-72-55-72-101 0-65 60-80 107-113 86-63 212-95 317-95 z" fill="#C68D7B"/>
		<path d="M783-281c15 0 25 6 31 18l39 72-80 109-230 0c-16 0-23-35-23-46 0-3 0-5 1-8 0-3 1-6 4-8 20-16 245-137 258-137 z M2232 147c13 0 45 17 45 33 0 12-81 240-91 264-7 15-17 23-32 23-18 0-77-23-95-31l-6-134c20-20 166-155 179-155 z" fill="#533566"/>
		<path d="M1488 313l161 102c24 15 39 43 39 72 0 15-4 30-13 45l-138 229-229-201 180-247 z" fill="#636363"/>
		<path d="M1270 283c30 0 57 16 73 38l164 229c25 36 52 94 52 137 0 34-19 77-39 103l-348-178-146-125 179-178c17-17 41-26 65-26 z" fill="#9B9B9B"/>
		<path d="M599 1026c6 0 9 3 9 9l0 26c0 5 2 10 4 16 1 3 3 5 5 7 2 2 3 4 3 7 0 6-3 9-9 9-1 0-3-1-6-4l-10-9-9-11c-3-4-6-7-8-8-5 0-9 1-12 4-3 3-5 6-5 11 0 5 2 10 7 16 4 6 9 12 14 17l15 15c4 5 6 8 6 10 0 2-1 4-3 6-2 2-4 3-6 3-3 0-6-2-11-6l-14-15-14-17c-4-6-8-9-8-13-2-5-3-10-3-15 0-10 3-18 10-25 7-7 15-10 24-10 5 0 9 2 12 5l-1-7 1-10c0-7 3-11 9-11 z" fill="#AB6A55"/>
		<path d="M1172 610l372 140c-36 66-138 258-140 330-2 37-22 100-59 143-25 29-59 31-88 31-82 0-155-60-173-136l-1 0c-13-51-19-103-19-155 0-128 37-251 108-353 z" fill="#00A6ED"/>
		<path d="M975 1322c4 0 9 1 14 3 5 2 10 5 15 8 5 3 9 6 12 11 3 4 5 8 5 13 0 7-3 10-10 10-2 0-4-1-5-4l-6-9c-3-4-6-7-10-10-4-3-10-4-17-4l-14 2c-4 0-6-3-6-9 0-5 3-8 9-9l13-2 z" fill="#990838"/>
		<path d="M1029 1444c7 0 9 8 9 11 0 23-20 38-41 38-21 0-41-15-41-38 0-3 2-11 9-11l64 0 z" fill="#FFFFFF"/>
		<path d="M1006 1444c1 4 2 7 2 10 0 15-8 33-26 33-18 0-26-18-26-33l1-10 49 0 z" fill="#7D4533"/>
		<path d="M993 1444l2 9c0 10-4 21-15 21-11 0-14-13-14-21l1-9 26 0 z" fill="#1C1C1C"/>
		<path d="M968 1461c3 0 5 2 5 7 0 4-2 6-5 6-3 0-5-2-5-6 0-5 2-7 5-7 z" fill="#FFFFFF"/>
		<path d="M1258 1056c9 0 19 1 28 4l243 65-55 208-243-65c-47-13-81-53-81-104 0-58 49-108 108-108 z" fill="#0092E7"/>
		<path d="M1027 1497c9 0 17 9 17 17 0 5-2 10-6 13-1 0-5 3-6 4-14 9-33 14-53 14-11 0-25-1-25-16 0-17 18-16 41-18 16-2 24-14 32-14 z" fill="#593B39"/>
		<path d="M1243 1352c22 0 40 9 54 27 14 17 25 38 33 63 8 25 14 50 17 75 3 25 4 46 4 62 0 16-3 31-8 45-5 14-13 26-22 37-9 11-21 19-34 26-14 6-29 9-45 9-8 0-15 1-21 4-7 2-13 4-18 7-6 3-12 5-17 8-6 2-12 3-19 3-9 0-18-1-26-4-9-3-18-4-27-4-13 0-24 3-35 8-11 5-22 7-35 7-11 0-19-2-25-5-7-4-12-8-17-13-5-5-10-9-15-12-5-4-10-6-16-6-20 0-36-6-49-17-13-11-19-27-19-48 0-17 5-30 15-39 12-11 23-13 39-21l141-8c9-1 17-5 24-12 7-7 10-16 10-25 0-8 2-15 5-21 3-6 8-10 17-13l0 1 5 0c14 0 26-4 38-13 12-10 18-23 18-40 0-7-2-16-7-25-5-10-11-17-18-20 3-10 10-18 21-25 11-7 21-11 32-11 z" fill="#593B39"/>
	</g></svg>
