<svg version="1.1" xmlns="http://www.w3.org/2000/svg" viewBox="0 0 2300 2300"><g transform="scale(1,-1) translate(-256, -1869)">
		<path d="M1711 898c11 0 21 3 30 8l357 198c68 37 112 105 112 190 0 126-101 214-222 214-113 0-208-76-237-180-2-6-3-12-3-18 0-33 26-61 62-61 29 0 51 18 60 45 17 50 58 89 117 89 52 0 98-30 98-90 0-35-18-64-47-80l-358-198c-21-12-32-30-32-55 0-36 29-62 63-62 z M1052 898c34 0 62 25 62 61 0 22-12 45-32 56l-357 198c-29 16-47 45-47 80 0 60 46 90 98 90 60 0 99-38 116-89 9-26 32-45 60-45 34 0 63 26 63 62 0 5-1 11-3 17-30 107-127 180-237 180-124 0-222-91-222-214 0-77 39-150 112-190l357-198c9-5 19-8 30-8 z" fill="#D3883E"/>
		<path d="M1704 357l-138 115c-38 33-65 82-65 138l0 304-240 0 0-304c0-52-22-102-64-138l-138-115 645 0 z" fill="#D3883E"/>
		<path d="M1381 680c277 0 502 221 502 501l0 493c0 27-22 51-51 51l-901 0c-29 0-51-24-51-51l0-493c0-277 224-501 501-501 z" fill="#FFB02E"/>
		<path d="M2084-286c21 0 41 15 41 38 0 24-106 471-117 518-12 54-62 87-114 87l-1049 0c-51 0-100-31-113-87-12-56-117-495-117-518 0-23 20-38 41-38l1428 0 z" fill="#6D4534"/>
		<path d="M1577-75c26 0 44 21 44 46l0 130c0 25-18 46-44 46l-414 0c-26 0-44-21-44-46l0-130c0-25 18-46 44-46l414 0 z" fill="#FFB02E"/>
	</g></svg>
