<svg version="1.1" xmlns="http://www.w3.org/2000/svg" viewBox="0 0 2300 2300"><g transform="scale(1,-1) translate(-256, -1869)">
		<path d="M2112 706c-51 0-90 39-90 90 0 50 40 90 90 90 50 0 90-40 90-90 0-50-40-90-90-90 z M1790-287c59 0 118 10 177 31 261 90 445 317 445 597 0 158-111 305-286 305-52 0-96-12-131-35-65-44-104-122-154-190-227-312-876-595-1231-708l1180 0 z M2328 865c38 0 71 30 71 70 0 38-32 71-71 71-40 0-70-33-70-71 0-38 30-70 70-70 z M2183 1023c34 0 62 26 62 62 0 36-28 62-62 62-34 0-62-26-62-62 0-34 26-62 62-62 z" fill="#26C9FC"/>
		<path d="M844 794c124 14 267 89 341 173 36 42 49 116 49 168 0 32-7 101-50 101-68-160-174-270-359-298-15-19-21-41-21-64 0-32 13-61 40-80 z" fill="#F24827"/>
		<path d="M766-132l217 77 7 75 369 550c7 10 16 15 28 15 15 0 25-6 30-19 62-147 157-277 268-375l129 45c-73 112-199 275-199 416l0 104c0 121-58 222-95 332-4 10-10 25-10 37 0 22 27 25 44 25 114 0 209-60 209-184 0-14-1-24-4-38l-11 1c-25 0-36-29-36-51 0-4 3-15 10-20 3-1 12-2 12-5 0-8-7-16-7-27 0-21 22-18 35-23 26-13 7-13 39-13 10 0 14-8 26-9 7 0 15 2 21 2 8 0 14-5 25-5 28 0 37 62 38 103 1 55 4 61 4 84 0 15-1 28-4 41-48 299-308 306-547 306-23 0-46 0-69-3-108-14-131-116-131-205 0-84 24-166 51-246 2-6 3-12 3-17 0-10-4-26-9-36l-443-937 z" fill="#FF6723"/>
		<path d="M766-132l91 192 133-40-7-75-217-77 z M1685 191l129 45c-19 29-39 58-59 87l-140-62c23-24 45-47 70-70 z M715 744c-8 0-15 3-20 8-5 5-8 11-8 19 0 8 3 15 9 22 5 7 11 12 17 17l-3 0c-13 0-23-2-30-6-7-5-13-10-18-15l-15-14c-5-5-12-7-20-7-5 0-10 2-15 6-5 4-8 9-8 14l-3 0c-6 0-11 2-15 8-6 6-9 12-9 18 0 5 2 11 5 16 3 5 6 9 9 12l-2 11c0 6 2 11 5 17 4 9 11 15 20 19-1 3-1 5-1 8 0 6 2 11 7 16 7 7 15 13 26 18 11 5 22 8 33 11 11 3 20 4 26 4 17 0 35-1 52-4 17-3 35-5 52-5 3 0 5 0 8 1l8 0c-2-5-3-11-3-17-1-6-1-12-1-17 0-17 2-36 6-56 4-21 10-39 17-54-9-2-19-3-30-3-11-1-21-1-31-1l-30-28c-6-5-12-10-18-13-7-3-13-5-20-5 z M1873 778c11 0 19 8 24 23 5 15 9 33 11 53 2 20 3 40 4 60l3 43-152 8c-1-6-1-12-1-18l-3-19-9 1c-11 0-20-4-26-13-8-11-12-24-12-38 0-6 1-10 3-13 1-3 3-4 6-5l7-3c2-1 4-2 6-4 0-4-1-8-3-13-2-5-3-9-3-14 0-5 1-9 4-12 2-3 5-5 8-6 3-1 7-2 11-2l11-3c3-1 5-3 7-4l4-4c1-2 3-3 6-4 2-1 5-2 10-2 7 0 13 0 17-1l8-3 6-3c1-1 4-1 7-1 3 0 7 0 11 1 3 1 7 1 10 1 4 0 8-1 12-2 4-2 8-3 13-3 z" fill="#FFD7C2"/>
		<path d="M625-287c105 0 206 18 306 53l848 292c18-11 123-63 135-63 14 0 27 12 27 27 0 11-22 70-27 83l175 60c36 12 59 50 59 85 0 42-38 86-83 86-12 0-24-1-35-5l-1616-556c-14-4-22-19-22-32 0-19 15-30 32-30l201 0 z" fill="#D73B9A"/>
		<path d="M1123 1292c93 0 187 3 280 3 27 11 43 30 43 61l-1 128c0 25 20 42 20 70 0 69-67 59-93 101-15 23-35 36-62 36-19 0-30-10-48-10-16 0-29 10-47 10-25 0-48-12-63-34-32-47-93-34-93-109 0-24 22-40 22-64l0-130c0-26 16-51 42-62 z" fill="#212121"/>
		<path d="M1413 1373c29 0 52 22 52 52 0 28-23 52-52 52-28 0-52-23-52-52 0-28 23-52 52-52 z M1111 1373c29 0 52 22 52 52 0 28-23 52-52 52-29 0-51-24-51-52 0-27 21-52 51-52 z" fill="#F4C6AD"/>
		<path d="M1292 1222c58 0 117 46 122 106 3 28 4 56 5 84 0 35 5 72 5 97 0 22-18 41-41 41l-44 0c-64 0-67 58-91 58l-40 0c-58 0-105-48-105-106 0-55 3-116 7-171 5-61 57-109 119-109l63 0 z" fill="#FFD7C2"/>
		<path d="M1263 1305c22 0 39 9 52 28 0 5-1 8-4 8-8 0-30-12-49-12-15 0-30 4-45 11-5 0-7-1-7-4 0-18 38-31 53-31 z" fill="#990839"/>
		<path d="M1275 1359c3 0 6 1 8 2 4 4 5 4 8 12 0 20-10 41-17 60-1 7-5 10-11 10-6 0-10-3-12-10-7-17-17-38-17-57 0-9 8-17 16-17l25 0 z" fill="#F1B99B"/>
		<path d="M1227 1423l-72 0c-5 0-8 5-9 7 0 5 1 9 3 14 8 14 27 24 40 24 20 0 45-16 45-36 0-7-3-9-7-9 z M1371 1423c1 0 2 0 2 1l2 0c3 3 5 5 5 6l0 4c0 3-1 6-3 10-2 5-6 9-11 13-4 3-9 6-14 8-5 2-10 3-15 3-9 0-19-3-29-10-13-8-16-17-16-29l4-5 2 0c0-1 1-1 1-1l72 0 z" fill="#FFFFFF"/>
		<path d="M1362 1423l-55 0c0 21 7 36 27 36 16 0 28-12 28-28l0-8 z M1219 1423c0 18-5 36-25 36-14 0-29-12-29-28l0-8 54 0 z" fill="#7D4533"/>
		<path d="M1351 1423c0 11-4 23-17 23-15 0-15-13-15-23l32 0 z M1210 1423c0 11-4 23-17 23-15 0-16-13-16-23l33 0 z" fill="#000000"/>
		<path d="M1323 1437c3 1 5 3 5 5 0 1-2 3-5 5-3 0-5-2-5-5 0-3 2-5 5-5 z M1184 1437c3 0 5 2 5 5 0 3-2 5-5 5-3 0-5-2-5-5 0-3 2-5 5-5 z" fill="#FFFFFF"/>
		<path d="M1371 1487c4 0 9 6 9 10 0 16-44 22-54 22l-11-1c-4-1-6-4-6-9 0-5 2-8 7-8 39 0 51-14 55-14 z M1154 1487c3 0 5 2 6 2 16 12 28 12 47 12 4 0 9 3 9 7 0 6-2 9-6 10l-14 1c-11 0-51-9-51-22 0-4 5-10 9-10 z" fill="#212121"/>
	</g></svg>
