<svg version="1.1" xmlns="http://www.w3.org/2000/svg" viewBox="0 0 2300 2300"><g transform="scale(1,-1) translate(-256, -1869)">
		<path d="M2412-215l0 867c0 23-4 45-11 67l-1 4c-34 85-104 140-203 140l0 215-72 0 0-215-216 0 0 215-72 0 0-215-144 0 0 143-71 0 0-143-432 0 0 143-72 0 0-143-287 0 0 215-72 0 0-215c-32 0-69 2-108 2-39 0-76-4-108-13l0 226-71 0 0-268c-48-41-72-97-72-158l0-867 2012 0 z" fill="#9B9B9B"/>
		<path d="M2268-215l0 287c0 117-95 216-215 216-121 0-216-99-216-216l0-287 431 0 z M975-215l0 288c0 117-96 215-216 215-121 0-216-97-216-215l0-288 432 0 z M1622-215l0 431c0 119-97 215-216 215-121 0-216-97-216-215l0-431 432 0 z M1696 1006c40 0 69 31 69 69l0 294c0 38-29 69-69 69l-580 0c-38 0-69-29-69-69l0-294c0-40 31-69 69-69l580 0 z" fill="#212121"/>
		<path d="M2412 646c0 24-3 49-11 72l-1991 0c-8-23-10-48-10-72l2012 0 z" fill="#F8312F"/>
		<path d="M2228 1579c19 0 36 15 36 36 0 19-15 36-36 36-19 0-36-15-36-36 0-19 15-36 36-36 z M1944 1221c-19 0-36 15-36 36 0 18 17 36 36 36 18 0 36-17 36-36 0-19-15-36-36-36 z M1658 1078c-19 0-36 15-36 36 0 19 15 36 36 36 18 0 35-17 35-36 0-19-17-36-35-36 z M2164 1006c-18 0-39 11-39 32l0 83c0 19 20 29 36 29 20 0 83-22 126-37 35-13 53-16 53-36 0-12-10-21-20-24-30-8-130-47-156-47 z M1877 1006c20 0 76 19 122 36 34 12 54 14 54 35 0 13-10 20-21 24-29 11-136 49-158 49-18 0-37-10-37-29l0-82c0-21 22-33 40-33 z M798 1006c-18 0-39 11-39 32l0 83c0 19 22 29 39 29 19 0 78-20 123-36 34-12 54-16 54-36 0-13-10-20-21-24-29-11-128-48-156-48 z M511 1006c-18 0-39 11-39 32l0 83c0 20 21 29 39 29 20 0 78-20 123-36 35-13 53-16 53-36 0-12-10-21-20-24-33-11-128-48-156-48 z M1658 1294c18 0 35 17 35 36 0 19-17 36-35 36l-73 0c-18 0-35-17-35-36 0-19 17-36 35-36l73 0 z M649 1580c19 0 36 15 36 36 0 19-15 36-36 36-19 0-36-15-36-36 0-19 15-36 36-36 z" fill="#F8312F"/>
		<path d="M1868 1436c19 0 36 16 36 37 0 11-3 19-10 26l-69 69c-7 7-15 10-26 10-21 0-37-17-37-36 0-10 4-19 11-26l69-69c7-7 16-11 26-11 z M648 1223c19 0 36 16 36 37 0 11-3 19-10 26l-69 69c-7 7-15 10-26 10-21 0-37-17-37-36 0-10 4-19 11-26l69-69c7-7 16-11 26-11 z M1080 1508c19 0 36 15 36 36 0 19-15 36-36 36-18 0-36-17-36-36 0-18 17-36 36-36 z" fill="#8D65C5"/>
		<path d="M2302 1222c-19 0-36 15-36 36 0 19 15 36 36 36 19 0 36-15 36-36 0-19-15-36-36-36 z M1232 1078l-83 0c-17 0-31 13-31 31l0 83c0 18 15 30 31 30l83 0c16 0 30-14 30-30l0-86c0-16-16-28-30-28 z M1154 1294c-18 0-36 17-36 36 0 18 17 36 36 36 19 0 36-15 36-36 0-19-14-36-36-36 z M868 1511c10 0 19 4 26 11l69 69c7 7 11 16 11 26 0 19-16 36-37 36-11 0-19-3-26-10l-69-69c-7-7-11-16-11-26 0-19 16-37 37-37 z" fill="#FFB02E"/>
		<path d="M794 1293c-19 0-36 17-36 35 0 19 15 36 36 36 19 0 36-15 36-36 0-18-17-35-36-35 z M1447 1078l-82 0c-16 0-31 12-31 30l0 82c0 18 15 30 31 30l82 0c16 0 31-12 31-30l0-85c0-16-17-27-31-27 z M1370 1294c-19 0-36 15-36 36 0 19 15 36 36 36 19 0 36-15 36-36 0-21-14-36-36-36 z M2085 1295c10 0 19 4 26 11l69 69c7 7 10 15 10 26 0 19-15 36-36 36-11 0-19-3-26-10l-69-69c-7-7-10-15-10-26 0-22 15-37 36-37 z" fill="#00D26A"/>
	</g></svg>
