<svg version="1.1" xmlns="http://www.w3.org/2000/svg" viewBox="0 0 2300 2300"><g transform="scale(1,-1) translate(-256, -1869)">
		<path d="M2268-215l0 1080-824 645-469-365 0 254c0 11-4 20-11 28-8 7-17 11-28 11l-104 0c0 21-1 37-4 48-3 10-9 17-17 21-7 2-15 4-25 4l-7 0c-14-1-32-1-53-1-11 0-20-4-27-11-8-8-12-17-12-28l0-498c0-7 2-14 6-20 4-7 9-12 16-15l-94-73 0-1080 1653 0 z" fill="#F3C07B"/>
		<path d="M2053 216l0 251c0 98-78 180-180 180-98 0-180-78-180-180l0-251 360 0 z M1306-215c16 0 28 12 28 28l0 580c0 138-108 254-251 254-142 0-252-115-252-254l0-580c0-16 12-28 28-28l447 0 z" fill="#212121"/>
		<path d="M1370 0c19 0 36 15 36 36 0 19-15 35-36 35l-575 1c-19 0-36-15-36-36 0-18 17-35 36-35l575-1 z M1370 144c19 0 36 15 36 36l0 72c0 19-15 36-36 36l-575 0c-19 0-36-15-36-36l0-72c0-19 15-36 36-36l575 0 z M1604 287l7 1 554 119c19 4 32 20 32 38 0 23-10 51-15 74-4 18-20 31-39 31l-8-1-554-118c-19-4-32-21-32-39 0-23 11-50 16-73 4-19 21-32 39-32 z" fill="#7D4533"/>
		<path d="M2340 719c19 0 36 7 50 21 14 13 21 30 21 49 0 21-9 39-26 53l-447 359c-9 8-21 12-34 12-5 0-9-1-13-2-5-1-9-2-14-2-7 0-12 1-15 4l-110 89c-6 4-9 10-9 16l0 3c1 7 1 13 1 20 0 10-4 18-11 24l-244 196c-8 6-16 11-23 15-8 4-17 6-27 6-13 0-23-2-30-7l-912-730c-17-13-25-31-25-54 0-19 7-36 20-49 13-13 30-20 49-20 17 0 31 5 43 15l184 147c9 7 13 14 14 21l0 23c0 12 5 22 14 29l150 119c3 3 8 5 15 5 5 0 11-1 16-2 5-2 11-3 16-3 10 0 19 3 27 9l420 336 857-687c12-10 26-15 43-15 z" fill="#F8312F"/>
	</g></svg>
