<svg version="1.1" xmlns="http://www.w3.org/2000/svg" viewBox="0 0 2300 2300"><g transform="scale(1,-1) translate(-256, -1869)">
		<path d="M1983-142l0 1149-1152 0 0-1149 1152 0 z" fill="#212121"/>
		<path d="M2123-4l0 870-215 0 0-870 215 0 z M1716-4l-215 0 0 870 215 0 0-870 z M903 0l0 863-216 0 0-863 216 0 z M1309-4l0 870-215 0 0-870 215 0 z M2338-285l-1865 0 0 170c0 25 19 45 45 45l1775 0c26 0 45-20 45-45l0-170 z M2223 935c13 0 23 5 32 14 9 9 13 19 13 32l0 97 26 0c5 0 10 1 14 2 6 1 11 4 16 8 4 4 6 11 6 20 0 11-5 20-15 25l-860 484c-15 9-31 13-49 13-18 0-34-4-49-13l-859-484c-10-5-15-14-15-25 0-9 2-16 7-20 4-4 9-7 16-8 4-1 9-2 14-2l26 0 0-97c0-13 4-23 13-32 9-9 19-14 32-14l1632 0 z" fill="#9B9B9B"/>
		<path d="M974-70l-358 0 0 13c0 33 24 59 58 59l242 0c33 0 58-27 58-59l0-13 z M1381-70l0 13c0 32-25 59-58 59l-242 0c-34 0-59-26-59-59l0-13 359 0 z M1789-70l-359 0 0 13c0 32 25 59 58 59l242 0c34 0 59-26 59-59l0-13 z M2195-70l0 13c0 33-25 59-59 59l-242 0c-33 0-58-27-58-59l0-13 359 0 z M2137 863l-242 0c-33 0-58 27-58 59l0 13 358 0 0-13c0-32-25-59-58-59 z M1730 863c33 0 59 25 59 59l0 13-359 0 0-13c0-32 25-59 58-59l242 0 z M1323 863l-242 0c-33 0-59 25-59 59l0 13 359 0 0-13c0-32-25-59-58-59 z M917 863l-243 0c-33 0-58 27-58 59l0 13 359 0 0-13c0-32-25-59-58-59 z M2307 1078c19 0 34 14 34 32 0 12-6 21-17 28l-900 511c-5 3-11 4-18 4-7 0-13-1-18-4l-900-511c-11-7-16-16-16-28 0-18 14-32 33-32 7 0 12 1 17 4l868 492c5 3 10 4 16 4 7 0 12-1 17-4l867-492c5-3 10-4 17-4 z" fill="#D3D3D3"/>
	</g></svg>
