<svg version="1.1" xmlns="http://www.w3.org/2000/svg" viewBox="0 0 2300 2300"><g transform="scale(1,-1) translate(-256, -1869)">
		<path d="M2411-215l0 799c0 36-29 63-63 63l-1885 0c-34 0-63-27-63-63l0-799 2011 0 z" fill="#00F397"/>
		<path d="M2053 144l0 467 286 0 0 533-387 362-189-157 0 141c0 11-9 20-19 20l-103 0c-10 0-19-9-19-20l0-221-180 169-247-233-326 301-184-152 0 136c0 11-9 20-19 20l-103 0c-10 0-20-10-20-20l0-252-71-59 0-568 359 0 0-467 1222 0 z" fill="#F3C07B"/>
		<path d="M760 748c18 0 33 6 46 19l635 625 632-623c13-13 28-19 45-19 34 0 66 28 66 64 0 17-6 31-19 44l-422 416 207 204 422-415c8-8 18-12 30-12 23 0 43 17 43 42 0 12-4 22-12 30l-453 446c-9 9-19 13-30 13-12 0-22-4-31-13l0-1-237-233-195 192c-13 13-28 19-46 19-18 0-33-6-46-19l0-1-231-227-273 270c-9 9-19 13-31 13-12 0-22-6-31-14l-453-446c-8-8-12-18-12-30 0-25 20-43 42-43 12 0 22 4 31 13l424 416 242-239-388-382c-13-13-19-28-19-45 0-37 30-64 64-64 z" fill="#F8312F"/>
		<path d="M1796 503c22 0 41 18 41 41l0 206c0 23-19 41-41 41l-205 0c-22 0-41-18-41-41l0-206c0-23 19-41 41-41l205 0 z" fill="#83CBFF"/>
		<path d="M1406 189l0 529c0 40-32 73-73 73l-285 0c-40 0-73-32-73-73l0-529 431 0 z" fill="#8C5543"/>
		<path d="M1294 440c17 0 31 14 31 32 0 18-14 31-31 31-18 0-32-14-32-31 0-18 13-32 32-32 z" fill="#402A32"/>
		<path d="M1478 144c0 47-51 72-93 72l-389 0c-39 0-93-24-93-72l575 0 z" fill="#D3D3D3"/>
		<path d="M987 72c18 11 33 26 44 45 11 19 16 39 16 60 0 5-1 9-2 12l0 6c0 10-2 20-6 29-5 11-12 22-21 32-9 9-19 18-30 25-11 7-22 12-32 15-8 3-15 6-20 10-5 4-10 10-14 17-19 35-44 61-74 80-30 19-65 28-106 28-27 0-52-5-76-14-24-10-45-23-63-40-19-17-33-38-44-61-11-23-16-48-16-75 0-36 10-69 29-99 19-31 45-54 77-70l338 0 z M2163 72c63 32 105 93 105 169 0 110-92 190-198 190-81 0-141-39-180-108-24-39-113-36-123-130 0-6-2-6-2-16 0-44 25-83 60-105l338 0 z M2352 503l0 1c39 21 60 60 60 101 0 65-53 114-114 114-45 0-83-27-103-65-13-24-70-26-70-81 0-31 8-53 34-70l193 0 z M653 503c22 15 34 38 34 63 0 67-57 64-70 88-20 38-58 65-103 65-65 0-114-53-114-114 0-43 22-81 60-101l0-1 193 0 z" fill="#00D26A"/>
	</g></svg>
