<svg version="1.1" xmlns="http://www.w3.org/2000/svg" viewBox="0 0 2300 2300"><g transform="scale(1,-1) translate(-256, -1869)">
		<path d="M2196-218c121 0 216 99 216 216l0 432c0 80-65 143-144 143l-1725 0c-80 0-143-62-143-143l0-432c0-121 99-216 216-216l1580 0 z" fill="#FFB02E"/>
		<path d="M2411 357l0 144c0 80-64 144-143 144l-1725 0c-80 0-143-65-143-144l0-144 2011 0 z" fill="#26EAFC"/>
		<path d="M793 74c10 0 19 4 26 11l1232 1231c7 7 10 15 10 26 0 19-15 36-36 36-11 0-19-3-26-10l-1231-1232c-7-7-11-16-11-26 0-18 17-36 36-36 z" fill="#7D4533"/>
		<path d="M1996 32c52 0 83 32 111 78 112 180 161 333 161 525 0 518-424 947-947 947-168 0-337-46-484-135-56-34-119-66-119-135 0-69 53-113 98-156l803-221 222-804c42-45 89-99 155-99 z" fill="#F8312F"/>
		<path d="M1840 131c186 189 324 447 324 721 0 367-256 628-628 628-266 0-527-131-720-324l1024-1025 z" fill="#F4F4F4"/>
		<path d="M1583 389c171 171 453 519 453 779 0 114-61 185-184 185-256 0-600-273-780-453l511-511 z" fill="#F8312F"/>
	</g></svg>
