<svg version="1.1" xmlns="http://www.w3.org/2000/svg" viewBox="0 0 2300 2300"><g transform="scale(1,-1) translate(-256, -1869)">
		<path d="M2125-287c156 0 287 125 287 287l0 1438c0 156-125 287-287 287l-1438 0c-156 0-287-125-287-287l0-1438c0-161 130-287 287-287l1438 0 z" fill="#00A6ED"/>
		<path d="M1031 484c29 0 54 23 54 53 0 7-2 15-5 23l-175 383c-12 28-41 41-69 41-28 0-56-13-68-41l-176-383c-3-8-5-15-5-22 0-32 25-54 55-54 49 0 61 61 77 95l234 0c16-34 29-95 78-95 z M904 687l-135 0 67 147 68-147 z M2153 484c30 0 54 25 54 54l0 397c0 30-25 53-54 53-15 0-28-5-38-15l-175-175-173 175c-10 10-23 15-38 15-30 0-54-21-54-53l0-397c0-30 22-54 54-54 30 0 54 25 54 54l0 266 119-120c10-10 23-15 38-15 15 0 28 4 39 15l120 120 0-266c0-30 22-54 54-54 z M1333 484c30 0 54 25 54 54l0 343 142 0c32 0 54 24 54 54 0 32-25 53-54 53l-393 0c-29 0-54-21-54-53 0-30 22-54 54-54l143 0 0-343c0-30 22-54 54-54 z" fill="#FFFFFF"/>
	</g></svg>
