<svg version="1.1" xmlns="http://www.w3.org/2000/svg" viewBox="0 0 2300 2300"><g transform="scale(1,-1) translate(-256, -1869)">
		<path d="M2340-287l0 936c0 40-34 71-72 71l-624 0 0-924 49-83 647 0 z" fill="#D3D3D3"/>
		<path d="M1801 287c21 0 36 19 36 37l0 143c0 19-15 36-36 36l-145 0c-19 0-36-15-36-36l0-144c0-18 17-36 36-36l145 0 z M1801-72l-145 0c-19 0-36 15-36 36l0 144c0 19 18 36 36 36l145 0c19 0 36-18 36-36l0-144c0-19-15-36-36-36 z M2161-72c19 0 36 15 36 36l0 144c0 18-17 36-36 36l-146 0c-18 0-35-17-35-36l0-144c0-21 16-36 35-36l146 0 z M2161 287c21 0 36 19 36 37l0 143c0 19-15 36-36 36l-146 0c-19 0-35-15-35-36l0-144c0-19 17-36 35-36l146 0 z" fill="#50E2FF"/>
		<path d="M1693-286l0 1945c0 37-28 66-66 66l-1089 0c-38 0-66-29-66-66l0-1945 145 0 466 198 465-198 145 0 z" fill="#9B9B9B"/>
		<path d="M1550-287l0 357c0 43-33 74-74 74l-788 0c-43 0-74-33-74-74l0-357 74 0 107 60 105-60 74 0 119 60 95-60 76 0 114 60 98-60 74 0 z" fill="#3F5FFF"/>
		<path d="M1479-287l0 334c0 15-11 25-26 25l-163 0c-15 0-26-10-26-25l0-334 215 0 z M1190-287l0 334c0 15-11 25-25 25l-164 0c-13 0-25-11-25-25l0-334 214 0 z M901-287l0 334c0 15-11 25-25 25l-164 0c-15 0-25-11-25-25l0-334 214 0 z" fill="#321B41"/>
		<path d="M1837 1006l0 72-144 0 0-72 144 0 z M1837 1366l0 72-144 0 0-72 144 0 z" fill="#1C1C1C"/>
		<path d="M2138 863c31 0 59 24 59 57l0 603c0 31-25 58-58 58l-244 0c-31 0-58-25-58-58l0-602c0-31 25-58 58-58l243 0 z" fill="#3F5FFF"/>
		<path d="M796 1366c19 0 36 15 36 36l0 144c0 18-17 35-36 35l-145 0c-21 0-36-16-36-35l0-144c0-19 15-36 36-36l145 0 z M796 1006l-145 0c-19 0-36 15-36 36l0 144c0 19 15 36 36 36l145 0c19 0 36-15 36-36l0-144c0-19-15-36-36-36 z M796 646c21 0 36 19 36 37l0 144c0 18-17 36-36 36l-145 0c-19 0-36-15-36-36l0-145c0-19 15-36 36-36l145 0 z M796 287l-145 0c-19 0-36 15-36 36l0 144c0 19 15 36 36 36l145 0c19 0 36-15 36-36l0-143c0-18-15-37-36-37 z M1515 1366c19 0 36 15 36 36l0 144c0 18-17 35-36 35l-145 0c-21 0-36-16-36-35l0-144c0-19 15-36 36-36l145 0 z M1515 1006l-145 0c-18 0-36 17-36 36l0 144c0 19 15 36 36 36l145 0c19 0 36-15 36-36l0-144c0-19-15-36-36-36 z M1515 646c21 0 36 19 36 37l0 144c0 18-17 36-36 36l-145 0c-18 0-36-17-36-36l0-145c0-18 17-36 36-36l145 0 z M1515 287l-145 0c-19 0-36 18-36 36l0 144c0 19 15 36 36 36l145 0c19 0 36-15 36-36l0-143c0-18-15-37-36-37 z M1155 287c21 0 36 19 36 37l0 143c0 19-15 36-36 36l-145 0c-19 0-36-15-36-36l0-144c0-18 17-36 36-36l145 0 z M1155 646c21 0 36 19 36 37l0 144c0 18-17 36-36 36l-145 0c-18 0-36-17-36-36l0-145c0-18 17-36 36-36l145 0 z M1155 1006l-145 0c-18 0-36 17-36 36l0 144c0 18 17 36 36 36l145 0c19 0 36-15 36-36l0-144c0-19-15-36-36-36 z M1155 1366c19 0 36 15 36 36l0 144c0 18-17 35-36 35l-145 0c-19 0-36-17-36-35l0-144c0-19 15-36 36-36l145 0 z" fill="#50E2FF"/>
	</g></svg>
