<svg version="1.1" xmlns="http://www.w3.org/2000/svg" viewBox="0 0 2300 2300"><g transform="scale(1,-1) translate(-256, -1869)">
		<path d="M2340-288l0 1366-1868 0 0-1366 286 0 72 43 73-43 288 0 215 87 216-87 718 0 z" fill="#9B9B9B"/>
		<path d="M2340 1006c39 0 72 31 72 72 0 40-34 71-72 71l-1868 0c-38 0-72-31-72-71 0-39 31-72 72-72l1868 0 z" fill="#F8312F"/>
		<path d="M1981-288l0 1854c0 94-82 101-158 101l-834 0c-73 0-158-7-158-101l0-1423c0-58 13-85 21-144l42-287 296 0c4 0 200 48 216 52 16-4 214-52 217-52l358 0 z" fill="#D3D3D3"/>
		<path d="M903-288c0 38-2 100-2 147 0 81 24 165 38 233l-216 0c13-61 38-161 38-233 0-50-2-107-2-147l144 0 z M1622-288l0 332c0 56-43 99-99 99l-234 0c-55 0-99-44-99-98l0-333 432 0 z" fill="#1C1C1C"/>
		<path d="M2225 359c25 0 43 21 43 44l0 343c0 23-18 44-43 44l-128 0c-26 0-44-19-44-44l0-343c0-25 18-44 44-44l128 0 z M715 359c26 0 44 19 44 44l0 343c0 25-18 44-44 44l-128 0c-24 0-44-19-44-44l0-343c0-25 20-44 44-44l128 0 z M1729 287c19 0 36 15 36 36l0 144c0 19-15 36-36 36l-216 0c-19 0-36-15-36-36l0-144c0-18 17-36 36-36l216 0 z M1298 287c19 0 36 15 36 36l0 144c0 19-15 36-36 36l-216 0c-19 0-36-15-36-36l0-144c0-18 17-36 36-36l216 0 z M1729 574c19 0 36 15 36 36l0 145c0 19-15 36-36 36l-216 0c-18 0-36-17-36-36l0-145c0-18 17-36 36-36l216 0 z M1299 574c18 0 36 17 36 36l0 145c0 18-17 36-36 36l-216 0c-19 0-36-15-36-36l0-145c0-19 15-36 36-36l216 0 z" fill="#83CBFF"/>
		<path d="M1445 934c12 0 20 4 25 11 5 7 8 15 9 26l0 10-2 43 1 17c1 11 3 20 8 27 5 7 13 10 25 10l149 0c9 0 17 3 24 10 6 6 9 14 9 23l0 77c0 9-3 17-9 24-7 6-15 9-24 9l-508 0c-9 0-17-3-24-9-7-7-10-15-10-24l0-77c0-9 3-17 10-23 7-7 15-10 24-10l149 0c12 0 20-3 25-10 5-7 7-16 8-27l1-17-2-36 1-17c1-11 3-19 8-26 5-7 13-11 25-11l78 0 z M1660 1293c18 0 34 15 34 34l0 78c0 18-14 33-33 33l-509 0c-19 0-34-15-34-33l0-79c0-18 15-33 34-33l508 0 z M1981 1581c39 0 72 34 72 72 0 38-33 72-72 72l-1150 0c-39 0-72-31-72-72 0-39 31-72 72-72l1150 0 z" fill="#F8312F"/>
		<path d="M911-144c35 0 64 30 64 64l0 159c0 33-26 65-64 65l-159 0c-35 0-65-31-65-65l0-159c0-38 32-64 65-64l159 0 z M867-1l-72 0c-19 0-36 15-36 36 0 19 15 36 36 36l72 0c19 0 36-15 36-36 0-19-18-36-36-36 z" fill="#F8312F"/>
	</g></svg>
