<svg version="1.1" xmlns="http://www.w3.org/2000/svg" viewBox="0 0 2300 2300"><g transform="scale(1,-1) translate(-256, -1869)">
		<path d="M2197-287l-575 0-216 105-217-105-574 0 0 575 1582 0 0-575 z M2053 360l-1294 0 0 431 1294 0 0-431 z M1837 935l0 431-862 0 0-431 862 0 z" fill="#E1D8EC"/>
		<path d="M2142 144c34 0 71 12 100 30l144 96c17 12 26 28 26 49 0 33-25 61-59 61-32 0-73-41-133-41-115 0-128 92-223 92l-1181 0c-100 0-112-92-223-92-61 0-101 41-133 41-36 0-60-27-60-61 0-21 9-37 26-49l144-96c29-18 66-30 100-30l1472 0 z M2033 719c34 0 71 12 100 30l145 96c17 12 26 28 26 49 0 34-24 61-60 61-31 0-71-41-133-41-115 0-130 92-224 92l-961 0c-100 0-113-92-224-92-62 0-102 41-134 41-36 0-60-27-60-61 0-21 9-37 26-49l145-96c29-18 66-30 100-30l1254 0 z M1781 1294c34 0 70 11 99 30l146 96c17 11 27 30 27 50 0 33-26 60-60 60-32 0-74-41-134-41-66 0-105 26-134 61-56 67-69 175-148 175l-336 0c-118 0-98-236-288-236-61 0-104 41-133 41-33 0-61-24-61-60 0-20 10-39 27-50l144-96c29-20 67-30 102-30l749 0 z" fill="#F8312F"/>
		<path d="M2000-144l-180 0c-30 0-54 25-54 54l0 108c0 30 22 54 54 54l180 0c29 0 54-24 54-54l0-108c0-29-24-54-54-54 z M1878 503c14 0 31 12 31 28l0 85c0 17-13 31-31 31l-82 0c-18 0-31-14-31-31l0-82c0-17 13-31 31-31l82 0 z M1663 1078l-82 0c-17 0-31 13-31 31l0 82c0 17 13 31 31 31l82 0c17 0 30-13 30-31l0-85c0-16-16-28-30-28 z M1447 503l-82 0c-18 0-31 14-31 31l0 82c0 17 13 31 31 31l82 0c18 0 31-14 31-31l0-85c0-16-17-28-31-28 z M1622-287l-432 0 0 286c0 40 32 73 73 73l286 0c40 0 73-32 73-73l0-286 z M993-144l-179 0c-29 0-54 24-54 54l0 108c0 30 22 54 54 54l179 0c32 0 54-24 54-54l0-108c0-30-22-54-54-54 z M1016 503c18 0 31 14 31 31l0 82c0 17-13 31-31 31l-82 0c-17 0-31-13-31-31l0-82c0-18 14-31 31-31l82 0 z M1231 1078c14 0 31 12 31 28l0 85c0 17-13 31-31 31l-82 0c-17 0-31-13-31-31l0-82c0-17 13-31 31-31l82 0 z" fill="#321B41"/>
	</g></svg>
