<svg version="1.1" xmlns="http://www.w3.org/2000/svg" viewBox="0 0 2300 2300"><g transform="scale(1,-1) translate(-256, -1869)">
		<path d="M2412-287l0 1488c0 90-73 165-165 165l-1682 0c-90 0-165-73-165-165l0-1488 289 0c5 0 674 190 715 199 47-11 709-199 715-199l293 0 z" fill="#9B9B9B"/>
		<path d="M2197 144l-72 0c-39 0-72 31-72 72l0 72c0 38 33 72 72 72l72 0c40 0 71-34 71-72l0-72c0-38-31-72-71-72 z M2197 503l-72 0c-38 0-72 33-72 72l0 72c0 39 31 72 72 72l72 0c40 0 71-34 71-72l0-72c0-38-31-72-71-72 z M2197 863c41 0 71 33 71 72l0 71c0 38-31 72-71 72l-72 0c-39 0-72-31-72-72l0-71c0-39 31-72 72-72l72 0 z" fill="#83CBFF"/>
		<path d="M687 503c38 0 72 33 72 72l0 72c0 39-31 72-72 72l-72 0c-38 0-72-33-72-72l0-72c0-38 33-72 72-72l72 0 z M687 863c39 0 72 31 72 72l0 71c0 39-31 72-72 72l-72 0c-39 0-72-34-72-72l0-71c0-38 33-72 72-72l72 0 z M687 144c39 0 72 31 72 72l0 72c0 39-34 72-72 72l-72 0c-38 0-72-33-72-72l0-72c0-39 34-72 72-72l72 0 z" fill="#83CBFF"/>
		<path d="M2125-287l0 1835c0 100-82 177-177 177l-1084 0c-100 0-177-82-177-177l0-1835 500 0 217 124 217-124 504 0 z" fill="#D3D3D3"/>
		<path d="M1622-287l0 269c0 50-40 90-90 90l-252 0c-50 0-90-40-90-90l0-269 432 0 z" fill="#1C1C1C"/>
		<path d="M1730 934c21 0 35 18 35 36l0 144c0 19-15 36-36 36l-215 0c-19 0-36-15-36-36l0-144c0-19 15-36 36-36l216 0 z M1299 934c18 0 35 17 35 36l0 144c0 19-15 36-36 36l-215 0c-19 0-36-15-36-36l0-144c0-19 15-36 36-36l216 0 z M1730 1293c18 0 35 17 35 36l0 145c0 19-15 36-36 36l-215 0c-19 0-36-15-36-36l0-145c0-18 17-36 36-36l216 0 z M1299 1293c18 0 35 17 35 36l0 145c0 18-17 36-36 36l-215 0c-19 0-36-15-36-36l0-145c0-19 15-36 36-36l216 0 z M1730 215c18 0 35 17 35 36l0 145c0 19-15 35-36 35l-215 0c-21 0-36-16-36-35l0-145c0-19 18-36 36-36l216 0 z M1299 215c18 0 35 17 35 36l0 145c0 18-17 35-36 35l-215 0c-21 0-36-16-36-35l0-145c0-19 15-36 36-36l216 0 z M1730 574c18 0 35 17 35 36l0 145c0 19-15 36-36 36l-215 0c-19 0-36-15-36-36l0-145c0-18 17-36 36-36l216 0 z M1298 575c18 0 37 15 37 36l0 145c0 18-17 36-36 36l-216 0c-19 0-36-15-36-36l0-145c0-19 15-36 36-36l215 0 z" fill="#83CBFF"/>
	</g></svg>
