<svg version="1.1" xmlns="http://www.w3.org/2000/svg" viewBox="0 0 2300 2300"><g transform="scale(1,-1) translate(-256, -1869)">
		<path d="M2125-74l0 1222-1438 0 0-1222 1438 0 z" fill="#636363"/>
		<path d="M1981-74l0 959 72 0 0-957 215 0 0 1152 72 0 0 70-934 575-934-575 0-70 71 0 0-1133 216 0 0 938 72 0 0-938 216 0 0 938 718 0 0-959 216 0 z" fill="#D3D3D3"/>
		<path d="M2282 1076l0 136-775 485c-31 19-65 28-100 28-35 0-68-9-99-28l-775-485 0-136 827 514c13 9 29 13 48 13 16 0 33-4 48-13l826-514 z" fill="#E6E6E6"/>
		<path d="M2411-217l-2011 0 0 66c0 44 35 77 77 77l-8 0 0 67c0 44 35 77 77 77l1717 0c44 0 77-35 77-77l0-67-5 0c44 0 76-35 76-77l0-66 z M2340 789c39 0 72 31 72 72 0 38-33 72-72 72l-1868 0c-39 0-72-34-72-72 0-39 31-72 72-72l1868 0 z M1405 933c111 0 217 50 287 143l648 0c39 0 72 34 72 72 0 39-31 72-72 72l-583 0c5 25 8 50 8 73 0 197-161 360-360 360-201 0-361-162-361-360 0-23 3-48 8-73l-580 0c-39 0-72-31-72-72 0-38 33-72 72-72l645 0c70-94 177-143 288-143 z" fill="#9B9B9B"/>
		<path d="M1622 70l0 457c0 25-20 46-46 46l-340 0c-25 0-46-18-46-45l0-458 432 0 z M1407 1076c10 0 18 3 23 8 5 5 8 12 9 20 1 7 2 15 2 24-1 8-1 15-1 22 9 0 18 3 27 8 8 5 15 12 22 20 6 8 11 17 15 26 3 9 5 18 5 27 0 22-5 39-14 50-9 11-21 19-35 25-14 6-29 11-45 15-16 4-31 10-44 18l-1 3c-2 3-3 6-3 10 0 9 3 14 10 16 7 1 13 2 20 2 11 0 20-1 27-4 6-3 11-7 16-11 4-4 8-7 13-10 4-3 10-5 17-5 9 0 17 3 24 9 6 6 9 14 9 23 0 6-2 13-6 20-5 7-10 13-17 18-7 5-13 10-20 14-7 3-14 5-20 5 0 9 0 18 1 27l0 7c0 7-1 13-2 19-2 7-6 14-11 19-5 5-14 7-26 7-10 0-17-3-22-8-5-6-8-13-9-21-1-6-2-12-2-18l1-29c-20-3-38-13-53-28-15-16-23-34-23-55 0-17 4-31 11-42 7-11 16-20 27-27 11-7 22-12 35-15l35-10c11-3 20-7 27-10 7-4 11-9 11-16 0-9-3-14-10-17-7-3-14-5-21-5-2 0-5 0-8 1-4 0-8 0-12 1l-12 3c-4 1-6 3-7 4-9 4-18 10-25 19-7 8-16 12-27 12-9 0-17-3-24-10-7-7-10-15-10-24 0-9 3-17 9-24 6-8 14-15 23-21 9-6 18-11 28-14 9-4 18-6 26-7l0-32c0-6 1-11 2-16 1-7 5-12 10-16 5-5 14-7 25-7 z" fill="#321B41"/>
	</g></svg>
