<svg version="1.1" xmlns="http://www.w3.org/2000/svg" viewBox="0 0 2300 2300"><g transform="scale(1,-1) translate(-256, -1869)">
		<path d="M2340-287l0 1581-575 0 0-1c0 191-153 360-359 360-200 0-359-163-359-360l0 1-575 0 0-1581 1868 0 z" fill="#FFDEA7"/>
		<path d="M1837-287l-72 0 0 1581 72 0 0-1581 z M1047-287l0 1581-72 0 0-1581 72 0 z" fill="#F3AD61"/>
		<path d="M1693-144l0 575-575 0 0-575 575 0 z" fill="#F3C07B"/>
		<path d="M1595-72l-127 0c-14 0-26 12-26 27l0 450c0 15 12 26 26 26l127 0c15 0 27-12 27-26l0-450c0-14-12-27-27-27 z M1344-72c14 0 26 12 26 27l0 450c0 15-12 26-26 26l-128 0c-14 0-26-11-26-26l0-450c0-15 12-27 26-27l128 0 z M1599 719c12 0 23 10 23 22l0 171c0 12-11 23-23 23l-99 0c-12 0-22-11-22-23l0-171c0-12 10-22 22-22l99 0 z M1312 719l-99 0c-12 0-23 10-23 22l0 171c0 13 9 23 23 23l99 0c12 0 22-11 22-23l0-171c0-12-10-22-22-22 z M2246 862c12 0 22 11 22 23l0 171c0 12-10 22-22 22l-99 0c-12 0-22-10-22-22l0-171c0-12 10-23 22-23l99 0 z M2030 862c12 0 22 11 22 23l0 171c0 12-10 22-22 22l-99 0c-12 0-22-10-22-22l0-171c0-12 10-23 22-23l99 0 z M2246 504c12 0 22 10 22 22l0 172c0 12-10 22-22 22l-99 0c-12 0-22-10-22-22l0-172c0-12 10-22 22-22l99 0 z M2030 504c12 0 22 10 22 22l0 172c0 12-10 22-22 22l-99 0c-12 0-22-10-22-22l0-172c0-12 10-22 22-22l99 0 z M2246 144c12 0 22 10 22 22l0 172c0 12-10 22-22 22l-99 0c-12 0-22-10-22-22l0-172c0-12 10-22 22-22l99 0 z M2030 144c12 0 22 10 22 22l0 172c0 12-10 22-22 22l-99 0c-12 0-22-10-22-22l0-172c0-12 10-22 22-22l99 0 z M880 862c13 0 23 9 23 23l0 171c0 12-10 22-22 22l-100 0c-12 0-22-10-22-22l0-171c0-12 10-23 22-23l99 0 z M664 862c13 0 23 9 23 23l0 171c0 12-10 22-22 22l-99 0c-12 0-23-10-23-22l0-171c0-12 11-23 23-23l98 0 z M880 504c12 0 23 10 23 22l0 172c0 12-10 22-22 22l-100 0c-12 0-22-10-22-22l0-172c0-12 10-22 22-22l99 0 z M664 504c12 0 23 10 23 22l0 172c0 12-10 22-22 22l-99 0c-12 0-23-10-23-22l0-172c0-12 11-22 23-22l98 0 z M880 144c12 0 23 10 23 22l0 172c0 12-10 22-22 22l-100 0c-12 0-22-10-22-22l0-172c0-12 10-22 22-22l99 0 z M664 144c12 0 23 10 23 22l0 172c0 12-10 22-22 22l-99 0c-12 0-23-10-23-22l0-172c0-12 11-22 23-22l98 0 z" fill="#83CBFF"/>
		<path d="M1697 360l-582 0c-19 0-32 14-32 32 0 5 2 11 5 16 72 112 177 182 319 182 138 0 254-73 319-182 0-5 3-7 3-16 0-18-13-32-32-32 z M1837-287l0 27c0 44-41 45-72 45l0 24c0 24-9 47-40 47l-638 0c-32 0-40-23-40-47l0-24c-32 0-72-1-72-45l0-27 862 0 z M1515 1078c-22 0-37 15-37 36l0 107-144 0 0-107c0-19-17-36-35-36-22 0-37 15-37 36l0 288c0 19 17 36 35 36 22 0 37-15 37-36l0-108 144 0 0 108c0 19 17 36 35 36 22 0 37-15 37-36l0-288c0-19-17-36-35-36 z M2346 1293c17 0 32 6 45 18 12 11 18 26 18 43 0 19-4 38-13 57-9 19-20 35-34 50-14 14-30 25-48 34-19 9-38 13-57 13l-481 0c-19 33-41 64-68 91-27 27-56 49-88 68-32 19-66 33-103 43-37 10-74 15-112 15-39 0-76-5-112-15-37-10-71-24-103-43-33-19-62-41-89-68-27-27-49-58-68-91l-481 0c-19 0-38-4-56-13-19-9-35-20-49-34-14-15-25-31-33-49-9-19-13-38-13-57 0-18 6-33 19-44 12-12 27-18 44-18l584 0 1 2c0 49 9 95 28 138 19 43 44 81 77 114 32 33 70 59 113 78 43 19 89 28 138 28 43 0 83-7 122-22 39-15 74-35 105-60 31-26 57-57 79-92 21-35 36-74 44-115l3-15 4-43 1-8-1-5 584 0 z" fill="#F8312F"/>
	</g></svg>
