<svg version="1.1" xmlns="http://www.w3.org/2000/svg" viewBox="0 0 2300 2300"><g transform="scale(1,-1) translate(-256, -1869)">
		<path d="M2340 0c39 0 72 31 72 72l0 216-144 72-1725 0-143-72 0-216c0-39 31-72 72-72l1868 0 z M2268 1078l144 72 0 216c0 39-31 72-72 72l-1868 0c-39 0-72-31-72-72l0-216 143-72 1725 0 z" fill="#83CBFF"/>
		<path d="M2412 288l0 287-144 72-1725 0-143-72 0-287 2012 0 z M2268 791l144 72 0 287-2012 0 0-287 143-72 1725 0 z" fill="#FFB2FF"/>
		<path d="M2412 575l0 288-2012 0 0-288 2012 0 z" fill="#F3EEF8"/>
	</g></svg>
