<svg version="1.1" xmlns="http://www.w3.org/2000/svg" viewBox="0 0 2300 2300"><g transform="scale(1,-1) translate(-256, -1869)">
		<path d="M1823 914c11 0 22 4 32 13 81 78 207 179 207 309 0 118-109 233-239 233-94 0-166-47-230-111l-91-93c-9-9-13-19-13-31 0-24 20-45 45-45 61 0 144 191 289 191 73 0 149-66 149-145 0-121-193-220-193-276 0-25 18-45 44-45 z M988 914c26 0 45 21 45 46 0 56-193 152-193 276 0 75 75 144 149 144 25 0 47-5 68-14 107-49 170-177 220-177 25 0 45 19 45 45 0 12-4 22-13 31l-91 93c-64 66-136 111-230 111-122 0-238-108-238-233 0-132 121-228 207-309 9-9 19-13 31-13 z" fill="#7D4533"/>
		<path d="M1580-112l6 4c65 135 138 264 214 393 37 63 73 124 104 191l-2 4 20 48 3 2c15 41 19 83 20 126l-3 3 0 48 2 3-6 54-3 2-10 48 2 4c-49 176-161 251-298 343-45 32-61 52-61 107 0 23 2 46 7 69 17 81 33 156 47 244l-7 6-422 0-3-6c10-61 21-116 33-176 9-45 21-90 21-137 0-47-13-73-54-102-142-102-252-160-305-348l2-3-11-49-3-2-5-54 2-4 0-47-3-3c1-43 5-85 20-126l3-2 19-48-1-4c15-33 32-66 50-97 89-159 180-306 268-487l5-4 349 0 z" fill="#B97028"/>
		<path d="M1622-287c21 0 50 7 50 33 0 33-72 124-86 146l-360 0c-13-20-87-114-87-146 0-27 30-33 51-33l432 0 z M1640 1581c40 0 71 34 71 72 0 38-31 72-71 72l-468 0c-38 0-72-33-72-72 0-38 33-72 72-72l468 0 z" fill="#8C5543"/>
		<path d="M1011 476c15 0 27 13 27 27l0 180c0 14-12 27-27 27l-143 0c-2-9-2-18-2-27l1-27 117 0 0-126-97 0c5-19 13-35 21-54l103 0 z M1904 476c8 19 15 35 21 54l-241 0 0 261c0 15-12 27-26 27l-396 0c-15 0-27-12-27-27l0-108c0-15 12-27 27-27l225 0 0-126-306 0 0 261c0 15-13 27-27 27l-269 0c-6-18-10-36-12-54l254 0 0-261c0-15 12-27 27-27l360 0c14 0 27 12 27 27l0 180c0 15-13 27-27 27l-225 0 0 54 342 0 0-261c0-14 11-27 27-27l246 0 z M1945 656l-1 54-152 0 0 54 146 0c-3 19-6 35-11 54l-162 0c-16 0-27-13-27-27l0-108c0-14 11-27 27-27l180 0 z" fill="#6D4534"/>
	</g></svg>
