<svg version="1.1" xmlns="http://www.w3.org/2000/svg" viewBox="0 0 2300 2300"><g transform="scale(1,-1) translate(-256, -1869)">
		<path d="M2293 431l-625 0c-22 0-46 13-46 38 0 22 294 610 317 660 7 15 27 21 42 21 15 0 35-6 42-21 26-58 317-636 317-660 0-25-25-38-47-38 z M1143 431c22 0 47 13 47 38 0 22-294 610-317 660-7 15-27 21-42 21-15 0-35-6-42-21-26-58-317-636-317-660 0-25 24-38 46-38l625 0 z M1602 1277c16 0 29 13 29 29 0 16-123 259-176 361-28 54-29 58-48 58-11 0-20-5-25-16-20-41-198-384-198-403 0-16 13-29 29-29l389 0 z" fill="#F8312F"/>
		<path d="M1693 144l0 791c0 29-5 48-15 57-11 9-29 14-56 14l26 0c9 0 16 1 23 3 7 2 12 6 16 12 4 6 6 15 6 27l0 274c0 12-2 21-7 27-5 6-11 10-18 13-7 2-15 3-24 4l-26 0c-13 0-24-4-31-12-8-9-12-19-13-32-1-20-8-32-21-37-13-5-27-7-43-7-11 0-20 2-25 7-6 4-10 9-13 16-3 7-5 14-6 21-1 7-3 14-6 21-3 7-8 12-13 17-5 4-14 6-25 6l-32 0c-13 0-24-4-31-12-8-9-12-19-13-32 0-10-2-18-5-24-4-6-9-10-15-13-6-3-13-5-20-6-8-1-16-1-24-1-11 0-20 2-25 7-6 4-10 9-13 16-3 7-5 14-6 21-1 7-3 14-6 21-3 7-7 12-12 17-6 4-15 6-26 6l-32 0c-12 0-22-4-31-13-9-9-13-19-13-31l0-274c0-12 2-21 6-27 4-6 10-10 17-12 5-2 11-3 17-3l32 0c-27 0-45-5-56-14-11-9-16-28-16-57l0-791 575 0 z" fill="#998EA4"/>
		<path d="M2411-287l1 776 1 28c0 10-1 19-4 28-5 17-17 30-42 30l-33 0c-68 0-23-86-91-86-28 0-66 2-66 43 0 26-21 43-45 43l-33 0c-68 0-23-86-91-86-106 0-38 86-112 86l-33 0c-66 0-24-86-90-86-28 0-66 2-66 43 0 26-22 43-46 43l-33 0c-66 0-24-86-90-86-28 0-66 2-66 43 0 26-22 43-46 43l-35 0c-70 0-26-86-91-86-28 0-66 2-66 43 0 26-21 43-45 43l-33 0c-70 0-26-86-91-86-28 0-68 3-68 43 0 26-21 43-45 43l-33 0c-70 0-26-86-91-86-29 0-67 1-67 43 0 26-21 43-45 43l-33 0c-68 0-23-86-91-86-28 0-66 2-66 43 0 26-21 43-45 43l-26 0c-28-1-55-10-55-43l0-819 789 0 215 122 215-122 792 0 z" fill="#B4ACBC"/>
		<path d="M1621-287l0 232c0 125-93 199-215 199-119 0-216-69-216-199l0-232 431 0 z M1478 863l0 72c0 40-34 71-72 71-38 0-72-31-72-71l0-72 144 0 z" fill="#5235A6"/>
		<path d="M1968 1186c11 0 156 72 176 82 3 1 4 3 4 8 0 10-7 9-23 18-46 24-148 72-157 72-12 0-23-10-23-22l0-136c0-12 10-22 23-22 z M818 1186c11 0 156 72 176 82 3 1 4 3 4 8 0 10-7 9-23 18-46 24-148 72-157 72-12 0-23-10-23-22l0-136c0-12 10-22 23-22 z" fill="#26C9FC"/>
	</g></svg>
