<svg version="1.1" xmlns="http://www.w3.org/2000/svg" viewBox="0 0 2300 2300"><g transform="scale(1,-1) translate(-256, -1869)">
		<path d="M1750-287c14 0 31 12 35 27l137 576-216 0-9-39c-34-131-127-521-127-539 0-15 11-25 26-25l154 0 z M1480-287c15 0 27 12 27 26 0 15-128 534-137 577l-216 0 138-576c4-16 19-27 35-27l153 0 z" fill="#533566"/>
		<path d="M2035-287c11 0 19 5 24 16l181 423c19 43 28 86 28 133l0 326c0 54-9 107-28 160 107 94 172 230 172 379 0 283-228 503-508 503-55 0-164-2-164-82 0-15 4-27 12-38l0-2c14-20 36-33 62-33 28 0 58 12 95 12 197 0 360-161 360-359 0-88-34-179-102-250-87 111-221 177-366 177-71 0-143-16-204-46l-343-167c-7-3-13-5-19-5-24 0-44 19-44 44l0 96c0 84-30 168-89 234l-291 324c-7 7-14 10-22 10-17 0-30-13-30-29l0-195c-125-30-227-150-256-267-7-26-12-58-32-65-32-11-71-11-71-60 0-168 114-305 289-305l0-114c0-163 123-300 286-316l0-478c0-14 12-26 27-26l162 0c14 0 27 12 27 27l0 476 529 0c17 0 32-6 44-18l173-173c10-10 15-22 15-37 0-48-100-208-100-249 0-15 12-26 26-26l157 0 z" fill="#635994"/>
		<path d="M418 836c14 19 106 135 106 149 0 12-11 21-21 21l-49 0c-32 0-54-24-54-54 0-41 4-78 18-116 z M723 935c23 0 36 21 36 41l0 61c0 20-13 41-36 41-23 0-36-21-36-41l0-61c0-20 13-41 36-41 z" fill="#212121"/>
	</g></svg>
