<svg version="1.1" xmlns="http://www.w3.org/2000/svg" viewBox="0 0 2300 2300"><g transform="scale(1,-1) translate(-256, -1869)">
		<path d="M998 1104c171 0 310 140 310 311 0 170-139 310-310 310-171 0-311-139-311-310 0-173 139-311 311-311 z" fill="#212121"/>
		<path d="M2259 214c33 0 60 7 80 20 20 13 36 31 47 53 11 21 18 45 21 72 3 27 5 53 5 80l0 345c0 58-7 115-22 170-15 55-37 106-64 155-27 48-60 92-98 133-39 40-82 75-129 104-47 29-98 51-152 67-55 16-111 24-170 24-44 0-86-5-127-14-41-9-83-20-125-31 1 3 1 7 1 11l0 11c0 43-8 83-24 121-17 38-39 71-67 99-28 28-61 50-99 67-38 16-78 24-121 24-43 0-84-8-121-24-38-17-71-39-99-67-29-28-51-61-67-99-17-38-25-78-25-121 0-6 0-12 1-17 0-6 0-12 1-18l-440-309c-21-15-37-33-48-54-11-22-17-46-17-71 0-21 4-41 12-60 8-19 19-35 33-49 14-14 30-25 49-33 19-8 39-12 60-12l275 0c29-77 72-146 128-206l-58-225 112-36 122 36 20 78c33-16 63-29 90-39 27-11 53-19 78-24 25-6 49-10 73-12 24-3 49-4 76-5l41-1 43 1c30 1 64 1 102 1 15-47 40-83 73-108 33-25 74-37 124-37l406 0 z" fill="#636363"/>
		<path d="M1047 216l-156 0c-12 0-22 10-22 22 0 11 24 102 30 122l233 0-23-91c-8-33-27-53-62-53 z M1896 216c-95 10-176 65-222 144l-188 0c-41 0-80-28-80-72 0-44 39-72 80-72l410 0 z M1909-287c39 0 73 31 73 72 0 40-34 71-72 71l-289 1c-38 0-71 32-71 71 0 41 32 71 71 71l405 0c207 0 386 166 386 386l0 54c0-120-95-219-213-224-45-45-106-72-173-72l-405 0c-120 0-215-97-215-215 0-116 94-215 214-215l289 0 z M1214 1180c127 0 234 103 234 234 0 127-103 234-234 234-127 0-234-103-234-234 0-127 103-234 234-234 z" fill="#FF8687"/>
		<path d="M418 873c36 8 59 41 59 75 0 34-20 65-56 75-14-23-21-49-21-77 0-25 5-50 18-73 z M745 962c32 0 59 25 59 58 0 33-27 58-59 58-31 0-58-25-58-58 0-31 25-58 58-58 z" fill="#1C1C1C"/>
	</g></svg>
