<svg version="1.1" xmlns="http://www.w3.org/2000/svg" viewBox="0 0 2300 2300"><g transform="scale(1,-1) translate(-256, -1869)">
		<path d="M1233-287c13 0 29 9 29 24l0 188 1 19c1 5 4 10 9 15 40 43 63 94 63 153l0 143-224 0 0-518c0-15 9-24 24-24l98 0 z M1660-288c25 0 40 13 58 29l186 170c21 19 24 46 24 73l0 346-233 2 0-371c0-8-3-25-8-32-16-24-132-177-132-193 0-13 10-24 24-24l81 0 z" fill="#D3883E"/>
		<path d="M2388-288c13 0 24 10 24 24l0 363-215 153-155-153 204-140c14-10 22-26 22-40l0-183c0-13 8-24 23-24l97 0 z M1169-287c15 0 21 11 21 24l0 188c0 29 81 81 81 187l0 143-224 0 0-518c0-15 9-24 24-24l98 0 z" fill="#F3AD61"/>
		<path d="M1936 104l-241 0c-41 0-73 33-73 73l0 183 386 0 0-183c0-39-30-73-72-73 z M1334 99c41 0 73 34 73 74l0 81-181 106-179-106 0-81c0-40 32-74 73-74l214 0 z" fill="#B4ACBC"/>
		<path d="M2412 99l0 27c0 26-7 49-22 70-15 21-32 40-50 59-18 18-34 36-49 53-15 17-23 34-23 53l0 358c0-23 8-40 23-53 15-13 33-19 54-19 19 0 33 5 43 15 9 10 16 22 19 37 3 14 5 29 5 45l0 43c0 55-10 106-31 155-21 48-49 90-85 126-36 35-78 63-126 84-49 21-100 31-155 31-22 0-44-1-67-4-23-3-45-8-66-14l-434-125c-6-2-12-3-18-4-7-1-13-1-20-1-27 0-51 7-72 20-21 13-38 31-49 54l-139 277c-11 20-23 37-38 52l6 0 0 126c0 22-4 43-12 63-9 19-20 36-35 51-15 14-32 25-51 34-19 9-40 13-62 13-29 0-51-4-68-11-17-8-32-17-44-26l-32-25c-10-8-22-12-35-12-21 0-44 1-69 2l-17 0c-19 0-37-1-55-5-23-5-43-14-60-27-17-13-28-34-33-63-1-3-1-5-1-8l0-8c0-17 3-31 9-44 6-13 14-23 25-32 11-9 23-16 37-21 13-5 28-7 43-7l-77-273-11-36-18-63-9-37 0-121c0-16 3-31 10-45 6-15 14-27 25-38 11-11 23-19 38-25 14-6 29-9 45-9l26 0 0-321c0-30 6-58 17-84 11-26 27-49 47-68 19-20 42-36 68-47 26-11 54-17 84-17l72 0c0-14 0-30-1-48l0-9c0-15 2-29 5-42 3-16 10-29 21-40 10-11 26-16 48-16l214 0c22 0 38 5 49 16 10 11 17 24 21 40 3 12 5 26 5 41l0 9c-1 18-1 34-1 49l532 0c0-14 0-30-1-48l0-9c0-15 2-29 5-42 3-16 10-29 21-40 10-11 26-16 48-16l471 0 z" fill="#CDC4D6"/>
		<path d="M795 1006c98 0 179 81 179 183l0 249-317 0-232-238c-17-18-25-39-25-63 0-72 58-131 128-131l267 0 z" fill="#F3AD61"/>
		<path d="M1246 1046c33 0 63 6 92 19 28 12 52 29 73 50 21 21 37 46 49 75 12 29 18 59 18 92 0 32-6 62-19 90-13 27-31 51-52 72-22 20-47 36-76 48-29 12-58 18-89 18l-304 0c-22 0-41-8-56-23-15-15-23-34-23-56 0-21 8-39 23-54 15-15 33-22 54-22l308 0c10 0 20-2 29-6 9-4 18-9 26-16 7-7 13-14 18-23 4-9 6-19 6-30 0-27-7-46-22-57-15-11-33-19-54-22-13-2-26-3-40-3l-31 2c-26 2-50 3-71 4l-11 0c-17 0-32-2-44-4-15-4-22-13-22-28 0-5 1-10 3-14 11-19 24-36 40-50 16-14 33-26 52-35 19-9 39-16 60-20 21-5 42-7 63-7 z" fill="#E19747"/>
		<path d="M472 1078c18 0 36 17 36 36 0 19-18 36-36 36l-71 0-1-6c0-25 3-41 13-66l59 0 z M722 1183c22 0 36 20 36 39l0 58c0 19-14 39-36 39-22 0-36-20-36-39l0-58c0-19 14-39 36-39 z" fill="#1C1C1C"/>
	</g></svg>
