<svg version="1.1" xmlns="http://www.w3.org/2000/svg" viewBox="0 0 2300 2300"><g transform="scale(1,-1) translate(-256, -1869)">
		<path d="M1835-359c41 0 80 6 117 19 139 46 215 151 259 295 46 150 129 310 129 476 0 57-9 114-24 170 104 48 168 149 168 262 0 156-125 287-287 287-114 0-218-68-262-169-68 21-135 25-199 25l-70 0c132 0 243 109 243 245 0 137-112 245-245 245-51 0-100-7-151-11 9 23 14 45 14 68 0 96-76 172-173 172-37 0-69-10-98-30l-378-259c-140-16-264-71-357-176-36-41-61-88-82-130-2-5-6-8-6-14l-75-181c-20-51-30-98-30-150 0-193 155-354 353-354l152 0 0-515c-89-33-144-114-144-203l0-71 1-1 1145 0 z" fill="#9B9B9B"/>
		<path d="M1835-287c131 0 245 83 288 206l64 184c35 101 81 218 81 328 0 62-15 162-49 217 109 11 193 103 193 215 0 120-97 215-215 215-108 0-204-81-215-192-69 33-142 49-217 49l-431 0c0 49-9 96-24 143l355 0c96 0 172 77 172 173 0 97-78 173-172 173l-762-58c-182-14-328-99-403-278l-76-181c-16-38-24-79-24-122 0-149 120-282 281-282l224 0 0-647c-80 0-144-64-144-143l365 0c41 0 74 26 87 63l51 152 215 0 0-49c0-12-11-23-23-23l-50 0c-80 0-144-64-144-143l573 0 z" fill="#FFFFFF"/>
		<path d="M436 648c37 4 63 36 63 71 0 38-33 72-72 72-10 0-19-2-27-6 0-49 13-97 36-137 z M1661 1150c50 0 104 41 104 97 0 55-37 105-100 105l-8 0-379-29c-76-5-140-65-155-132l-1-8c0-18 14-33 33-33l506 0 z" fill="#FF8687"/>
		<path d="M745 818c32 0 59 25 59 58 0 33-25 59-59 59-33 0-58-27-58-59 0-31 25-58 58-58 z" fill="#1C1C1C"/>
	</g></svg>
