<svg version="1.1" xmlns="http://www.w3.org/2000/svg" viewBox="0 0 2300 2300"><g transform="scale(1,-1) translate(-256, -1869)">
		<path d="M1624-287c19 0 30 9 35 26l137 511-215 0-105-394c-31 0-58-13-65-49-4-23-12-49-12-72 0-12 9-22 21-22l204 0 z M1341-287c12 0 22 9 22 21 0 12-124 470-137 516l-215 0 105-396c-23-5-40-25-44-47-4-22-13-52-13-75 0-10 10-19 21-19l261 0 z M2197 611l59 36c-8 21-19 41-32 59-13 17-29 32-47 45-18 13-37 23-58 30-21 7-43 10-66 10l-59 0c-19 0-36-7-50-21-15-15-22-32-22-51 0-20 7-37 21-51 14-14 31-21 51-21 9 0 19 0 30 1l9 0 20-1c24-4 48-9 73-16l71-20 z M2197 324l71 36 0 143-71 36-72-36 0-143 72-36 z M2277-62l27 98c-36 99-36 75-36 180l-71 36-72-36 0-72c0-90 58-178 152-206 z" fill="#FF6723"/>
		<path d="M1956-287c7 0 14 2 21 7 6 4 10 10 13 17l107 324c9 28 16 56 21 84 5 28 7 57 7 87l0 418c0 19-4 38-11 55-7 17-17 32-30 45-13 13-28 23-45 30-17 7-36 11-55 11l-75 0-72-36-72 36-143 0-72-36-72 36-144 0-72-36c-11 17-23 36-34 55-12 19-25 37-38 52-17 21-36 41-57 60-21 19-41 38-60 57-9 9-15 19-20 31-5 11-7 23-7 35l0 141c0 15-3 29-8 42-6 13-14 25-23 35-10 9-22 17-35 23-13 5-27 8-42 8-15 0-29-3-42-8-13-6-25-14-34-23-10-10-18-22-23-35-6-13-9-27-9-42l0-36c-33 0-62-4-87-11-26-8-50-25-73-51l-63-76-64-77-37-199 253-86 0-220c0-20 0-43-1-68l0-18c0-20 1-39 4-57 3-25 10-47 20-68 10-21 26-37 48-48l0-171 37-36-37-36 0-72c-19 0-36-7-50-20-14-14-21-31-21-50l0-30 1-16c1-7 4-14 9-19 4-5 11-8 20-8l234 0c6 0 11 2 16 7 4 4 6 9 6 15l0 409 617 0 67-36 5-36 35-37c12-14 24-26 37-35 9-7 20-14 33-19l34-17-50-36-20-72c-21 0-39-4-55-11-17-7-28-22-33-45-2-9-5-20-9-32-4-12-6-23-6-32 0-7 2-12 7-16 5-5 10-7 17-7l232 0 z" fill="#FF822D"/>
		<path d="M975 1150l0 36c0 19-15 36-36 36-19 0-36-15-36-36l0-36 72 0 z" fill="#FF6723"/>
		<path d="M1663 144c0 81-67 144-144 144l-473 0 0-144 617 0 z M830 171l0 356c0 23 4 43 13 61 9 18 18 35 29 50 11 15 20 29 29 42 9 13 13 27 13 41 0 19-7 36-20 50-14 13-31 20-50 20l-165 0c-21 0-38 5-52 14-14 9-26 21-36 36-10 14-19 29-26 46-7 17-15 33-22 48l-92 0c-15 0-27-5-36-15-10-11-15-23-15-37l0-111c0-27 5-53 16-76 10-24 24-45 42-63 18-18 39-32 63-42 23-11 49-16 76-16l90 0c0-40 0-80-1-119l0-15c0-33 3-66 9-97 7-35 21-68 42-97 20-30 51-55 93-76 z" fill="#FFDEA7"/>
		<path d="M951 782c-18 0-36 17-36 36 0 10 4 19 11 26 13 13 34 43 58 43 18 0 36-17 36-36 0-6-2-12-5-17-16-26-44-52-64-52 z M1945-72l-122 0 11 43-29 30 140 0c19 0 36-15 36-36 0-19-14-37-36-37 z M939-71c19 0 36 15 36 36 0 19-15 36-36 36l-109 0 0-72 109 0 z M939 72l-109 0 0 72 109 0c19 0 36-15 36-36 0-19-15-36-36-36 z M1945 72c19 0 36 15 36 36 0 19-15 36-36 36l-283 0 72-72 211 0 z M400 791l0 92c0 27 21 52 51 52l70 0-121-144 z M1837 503c39 0 72 34 72 72l0 216-144 0 0-216c0-38 33-72 72-72 z M1550 503c-38 0-72 33-72 72l0 216 144 0 0-216c0-39-34-72-72-72 z M1262 503c38 0 72 33 72 72l0 216c-89 0-79 7-144 72l0-288c0-39 34-72 72-72 z M2340-72c-21 0-43 3-63 10l0 171c13-22 36-37 63-37 39 0 72-31 72-72 0-39-34-72-72-72 z M2268 216l0 144-143 0 0-144 143 0 z M2268 503l-143 0 0 144 131 0c8-23 12-47 12-72l0-72 z M651 863c-19 0-36 15-36 36l0 36c0 19 15 36 36 36 19 0 36-15 36-36l0-36c0-19-15-36-36-36 z M831 841c9 0 18 4 25 11l94 93c7 7 10 15 10 25 0 19-15 36-36 36-10 0-18-3-25-10l-93-93c-7-7-11-16-11-26 0-18 17-36 36-36 z" fill="#212121"/>
	</g></svg>
