<svg version="1.1" xmlns="http://www.w3.org/2000/svg" viewBox="0 0 2300 2300"><g transform="scale(1,-1) translate(-256, -1869)">
		<path d="M2273-215c37 0 67 28 67 67l0 436-503 0c86-40 144-93 144-192l0-244c0-38 31-67 68-67l224 0 z M1532-215c46 0 90 34 90 86l0 798-522-403c90 0 162-70 162-163l0-232c0-52 44-86 90-86l180 0 z" fill="#636363"/>
		<path d="M2323-215c48 0 88 38 88 87l0 806c0 418-340 760-764 760l-886 0c-194 0-361-154-361-359l0-827c0-150 100-252 251-252 57 0 108 46 108 108 0 15-3 29-8 42-20 46-53 63-115 67-6 0-11 2-14 5-5 6-7 22-7 30l0 262c33-5 67-11 100-19 125-32 249-121 249-269 0-162-188-281-188-363 0-36 27-78 68-78l206 0c115 0 260 294 307 374 32 58 86 129 157 129l374 0c98 0 165-98 165-181l0-235c0-52 43-87 89-87l181 0 z" fill="#9B9B9B"/>
		<path d="M651 827c19 0 36 15 36 36l0 72c0 18-17 36-36 36-18 0-36-17-36-36l0-72c0-19 15-36 36-36 z" fill="#1C1C1C"/>
		<path d="M569 388c-37 0-64 30-64 65 0 35 27 65 64 65 71 0 132 55 132 129l129 0c0-144-116-259-261-259 z M1521 791c57 0 101 45 101 99 0 7-1 11-2 18-61 309-325 530-645 530l0-548c0-57 44-99 100-99l446 0 z" fill="#D3D3D3"/>
	</g></svg>
