<svg version="1.1" xmlns="http://www.w3.org/2000/svg" viewBox="0 0 2300 2300"><g transform="scale(1,-1) translate(-256, -1869)">
		<path d="M2157 381c19 33 69 129 69 164 0 11-4 31-19 31-53 0-99-20-152-20-12 0-28 1-28 18 0 13 5 26 8 38l-21 9-116-176 259-64 z M657 381l258 64-115 176-22-9c3-12 9-25 9-38 0-17-16-18-28-18-54 0-99 20-153 20-15 0-18-20-18-31 0-37 49-134 69-164 z" fill="#F8312F"/>
		<path d="M2009 34c128 0 348 133 393 259 4 10 10 25 10 37 0 23-26 31-44 35l-331 75c-21 5-67 16-67 46 0 10 6 24 11 32l-19 15-280-230 299-267c9-1 19-2 28-2 z M814 34c9 0 19 1 28 2l299 267-280 230-19-15c5-8 11-22 11-32 0-30-46-41-67-46l-331-75c-18-4-44-12-44-35 0-12 6-27 10-37 48-124 260-259 393-259 z" fill="#FF5E59"/>
		<path d="M919 53c-31 0-64 3-98 8-103 16-221 83-221 192 0 19 6 25 24 28l441 58 76-38c0-137-79-248-222-248 z M1906 62c126 0 268 24 308 165 3 8 4 16 4 24 0 18-6 24-22 28l-433 100-80-34c-1-11-2-21-2-32 0-141 77-251 225-251 z" fill="#FF8687"/>
		<path d="M1842-279c113 0 252 48 320 137 7 11 19 23 19 37 0 9-5 14-12 21-124 118-271 230-376 330-16 15-31 31-31 55 0 13 4 24 12 33l-80 27-286-92-286 92-79-27c8-9 12-20 12-33 0-24-15-40-31-55-117-112-253-213-376-330-7-7-12-12-12-21 0-14 12-26 19-37 73-96 217-137 320-137 274 0 397 238 431 242l0-1 2 1 3-1 0 1c28-4 158-242 431-242 z" fill="#FF5E59"/>
		<path d="M1478 243c355 0 647 288 647 647l0 116c0 355-288 647-647 647l-117 0c-355 0-647-288-647-647l0-116c0-355 288-647 647-647l117 0 z" fill="#FF8257"/>
		<path d="M2093 773c66 0 124 53 124 123 0 65-54 124-124 124-68 0-123-55-123-124 0-71 57-123 123-123 z M714 773c66 0 124 53 124 123 0 65-54 124-124 124-68 0-123-55-123-124 0-71 57-123 123-123 z" fill="#1C1C1C"/>
	</g></svg>
