<svg version="1.1" xmlns="http://www.w3.org/2000/svg" viewBox="0 0 2300 2300"><g transform="scale(1,-1) translate(-256, -1869)">
		<path d="M2146-281l40 1c71 68 125 147 164 236 39 89 58 183 58 281 0 91-17 179-50 264-34 85-82 160-145 225l-131 136c-5 70-23 135-53 196-31 61-70 113-118 158-49 44-104 79-167 104-63 25-129 38-199 38-19 0-37-1-55-3l-116 122c-24 25-51 45-82 59-31 13-65 20-100 20-30 0-59-5-87-15-28-11-53-26-76-45l21 22-42 46c-14 16-29 31-44 44-15 13-32 24-50 33-18 8-38 12-61 12-15 0-29-2-41-5-13-3-24-8-35-14-11-7-21-14-31-23l-30-28c-17 17-36 31-58 40-22 9-45 13-68 13l-11 0-12-2-94-54 0-295 720-1451 932-114 21-1 z" fill="#D3D3D3"/>
		<path d="M2085-172c119 112 178 263 178 416 0 186-73 304-197 436-26-100-73-176-150-253-59-59-90-128-90-212 0-61 23-137 67-186 66-70 126-131 192-201 z" fill="#212121"/>
		<path d="M1372-281l768 1c-302 40-761 167-966 452-78 107-99 227-99 357 0 443 347 700 727 764-79 43-164 64-255 64-29 0-59-2-88-7l-681-590c-45 49-73 116-73 187 0 152 409 518 512 607-9 1-18 2-27 2-64 0-123-25-171-70l-401-381c-24 29-49 93-49 133 0 120 193 329 279 415-41-1-76-16-105-44l-201-191c-19 23-29 50-29 81 0 51 27 100 57 136-90-11-155-87-155-175 0-41 15-85 46-118-38-42-61-73-61-128 0-87 70-135 129-200-31-44-48-96-48-148 0-67 26-128 69-174l128-135c-8-44-12-88-12-133 0-393 317-705 706-705 z" fill="#9B9B9B"/>
	</g></svg>
