<svg version="1.1" xmlns="http://www.w3.org/2000/svg" viewBox="0 0 2300 2300"><g transform="scale(1,-1) translate(-256, -1869)">
		<path d="M2268 600l128 27c11 3 16 9 16 19 0 11-5 17-16 20l-128 27-71-46 71-47 z M1634-214c-15 0-27 5-38 16-71 69-119 117-119 220l0 136c0 29 24 54 54 54 30 0 54-25 54-54l0-136c0-105 103-123 103-182 0-29-24-54-54-54 z M960-214c15 0 27 5 38 16 69 67 119 118 119 220l0 136c0 30-22 54-54 54-30 0-54-25-54-54l0-136c0-105-103-123-103-182 0-30 25-54 54-54 z M2003-72c15 0 28 6 38 17 10 11 15 23 15 38 0 17-4 30-13 38-9 7-21 12-34 15-10 1-21 2-32 2l-57-2c-14 0-25 2-34 5-9 3-14 9-14 20l0 241c0 15-5 27-15 38-11 11-23 16-38 16-15 0-27-5-38-16-11-11-16-23-16-38l0-242c0-18 4-35 11-51 7-16 16-30 28-42 12-12 26-21 42-28 16-7 33-11 51-11l106 0 z M646 909c10 0 19 4 26 11 7 7 10 15 10 25l0 61c0 41-10 78-30 109-20 31-48 57-84 76l-32 19c-13 8-25 12-34 12-10 0-18-4-25-11-7-7-10-16-10-26 0-9 4-16 11-22 7-7 15-13 26-19l35-20c12-7 23-16 34-26 11-11 20-23 27-38 7-15 10-33 10-54 0-7 0-16-1-27l-1-14 2-18c1-11 5-20 10-27 5-7 14-11 26-11 z" fill="#212121"/>
		<path d="M2125 403l143 198 0 91-143 198-108-243 108-244 z M1118 81l180 566-180 565c-132-24-256-96-346-208 3-8 23-103 23-105l0-503c0-5-19-98-22-109 83-104 204-180 345-206 z M1629 72c47 0 92 6 136 19l180 556-180 555c-44 12-89 19-136 19l-151 0-144-574 144-575 151 0 z" fill="#FFB02E"/>
		<path d="M1764 91c190 54 245 157 359 312l0 488c-110 151-172 260-359 312l0-1112 z M761 286c54 0 97 47 97 99l0 522c0 58-46 98-103 98-197 0-355-163-355-359 0-202 159-360 361-360 z M1476 72l0 1149-271 0c-29 0-59-5-88-10l0-1130c29-5 59-9 88-9l271 0 z" fill="#533566"/>
		<path d="M1585 1008c179 0 323 147 323 323 0 176-146 322-323 322-111 0-200-53-261-133l-323-435c-6-8-9-18-9-29 0-26 20-48 47-48l546 0 z" fill="#AEDDFF"/>
		<path d="M647 575c39 0 72 31 72 72 0 39-31 72-72 72-39 0-72-31-72-72 0-39 31-72 72-72 z" fill="#212121"/>
	</g></svg>
