<svg version="1.1" xmlns="http://www.w3.org/2000/svg" viewBox="0 0 2300 2300"><g transform="scale(1,-1) translate(-256, -1869)">
		<path d="M2175-359c152 0 270 121 270 271l-1 2c0 18-2 36-6 54l-190 852c-29 134-83 247-165 343-151 176-351 261-582 261l-17-1c-446-27-726-776-726-1135l0-374c0-148 118-273 268-273 75 0 141 27 193 79 49-49 117-79 191-79 74 0 142 30 191 79 52-52 121-79 192-79 74 0 142 30 191 79 49-49 117-79 191-79 z" fill="#9B9B9B"/>
		<path d="M1054 360l0 163c0 23-4 42-11 57-7 15-16 27-27 38-11 10-23 18-36 25l-36 19c-11 6-21 12-28 18-7 6-11 13-11 22 0 11 0 23 1 38l0 11c0 10-1 19-2 29-3 13-8 24-15 33-10 11-23 13-44 13-79-12-150-42-211-89-61-47-107-108-138-183l-16-37c-7-14-10-27-10-39 0-4 0-8 1-11l3-11 99-27 220-62c16-5 24-7 25-7l236 0 z" fill="#F9C23C"/>
		<path d="M1054 288l0 90-36 79-544 0c3-7 6-12 10-17 57-79 213-152 334-152l236 0 z" fill="#FFB02E"/>
		<path d="M715-72c65 0 115 54 115 115l73 137-73 108-64 0c-44 0-84-25-102-68l-55-132c-6-14-9-29-9-44 0-64 50-116 115-116 z M1037 769c151 0 278 123 278 278 0 15-1 30-4 45 69 9 135 44 180 101 59-82 149-137 254-145l0-31 224 223c52 52 84 122 84 200 0 147-115 285-274 285-86 0-155-23-226-79-31-24-62-37-102-37-58 0-99 37-176 37-155 0-278-124-278-279 0-42-37-51-72-65-93-37-166-142-166-255 0-152 125-278 278-278 z" fill="#F8312F"/>
		<path d="M2175-287c109 0 198 87 198 197 0 13-2 27-5 42l-191 854c-7 30-14 59-23 87-84 260-334 459-637 459-383 0-687-315-687-695l0-743c0-107 84-201 196-201 131 0 156 100 193 100 13 0 21-6 29-15 47-55 91-85 162-85 70 0 116 28 163 85 8 9 16 15 29 15 13 0 20-5 28-15 47-57 93-85 163-85 71 0 115 30 162 85 8 10 18 15 29 15 11 0 21-5 29-15 47-57 91-85 162-85 z" fill="#FFFFFF"/>
		<path d="M1226 575c57 0 108 46 108 108 0 57-46 108-108 108-58 0-108-49-108-108 0-58 49-108 108-108 z" fill="#212121"/>
	</g></svg>
