<svg version="1.1" xmlns="http://www.w3.org/2000/svg" viewBox="0 0 2300 2300"><g transform="scale(1,-1) translate(-256, -1869)">
		<path d="M2071-241c54 0 95 43 95 96 0 53-41 96-95 96-54 0-96-42-96-96 0-54 42-96 96-96 z M1740-241c54 0 96 42 96 96 0 54-42 96-96 96-54 0-95-43-95-96 0-53 41-96 95-96 z M1422-155c-54 0-96 42-96 96 0 49 41 95 96 95 49 0 95-40 95-95 0-53-41-96-95-96 z M1231 80c49 0 95 41 95 96 0 49-40 95-95 95-53 0-96-44-96-95 0-54 42-96 96-96 z M1135 367c-52 0-96 42-96 95 0 54 42 96 96 96 54 0 96-42 96-96 0-53-44-95-96-95 z M895 1174c18 0 30 5 36 16 6 11 10 25 11 42l1 28-1 42c0 18 2 37 6 56 5 23 14 45 28 66 13 21 35 39 65 55l115 61c17 9 25 22 25 41 0 13-4 25-13 34-9 9-21 14-34 14-6 0-15-3-28-8l-40-20c-14-7-27-15-40-22l-29-16c-23-12-44-27-62-44-19-18-34-38-47-59-13-21-22-44-29-68-7-25-11-50-11-76l0-95c0-13 5-24 14-33 9-9 20-14 33-14 z M726 1174c13 0 25 5 34 14 9 9 13 20 13 33l0 95c0 26-3 51-10 76-7 24-17 47-30 68-13 21-28 41-47 59-19 17-39 32-62 44l-28 16-41 22-40 20c-13 5-22 8-28 8-13 0-24-5-33-14-9-9-14-21-14-34 0-19 8-32 25-41l115-61c29-16 51-34 65-55 14-21 23-43 28-66 4-19 6-38 6-56l0-30 1-40c1-17 4-31 10-42 6-11 18-16 36-16 z" fill="#008463"/>
		<path d="M2143-145c37 0 71 7 104 21 32 14 60 33 84 57 24 24 43 52 57 85 14 32 21 66 21 103 0 35-7 69-21 100-14 31-33 58-57 81-24 23-52 42-83 55-32 13-65 20-100 20l-319 0c-17 0-34 3-50 8-16 5-30 13-43 23-13 10-25 22-34 36-9 14-16 29-21 46l-114 415c-16 58-40 111-73 159-33 47-72 88-117 123-45 34-95 61-150 80-55 19-112 28-172 28l-334 0c-45 0-88-11-127-32-40-21-72-51-97-89-5-7-8-12-9-15l-8-16-7-16-24-49-26-49 26-43 24-45 10-20 2-7c1-2 4-8 11-19 24-38 56-68 95-89 39-21 80-32 125-32l230 0c35 0 66-10 93-31 27-21 45-48 54-82l115-416c16-57 40-110 73-158 33-48 72-89 117-123 45-35 94-61 149-80 55-19 112-29 172-29l424 0 z" fill="#00D26A"/>
		<path d="M630 938c34 0 60 28 60 61l0 70c0 33-26 60-60 60-34 0-61-24-61-60l0-70c0-33 27-61 61-61 z M460 938l13 2c-12 30-18 62-18 96 0 31 7 63 18 92l-6 1c-41 0-67-23-67-60l0-70c0-33 26-61 60-61 z" fill="#212121"/>
	</g></svg>
