<svg version="1.1" xmlns="http://www.w3.org/2000/svg" viewBox="0 0 2300 2300"><g transform="scale(1,-1) translate(-256, -1869)">
		<path d="M476 360c40 0 75 32 75 75 0 31-20 61-51 72 31 11 51 41 51 72 0 41-33 76-75 76-42 0-76-32-76-76 0-31 20-61 51-72-31-11-51-41-51-72 0-42 35-75 76-75 z" fill="#635994"/>
		<path d="M1909-287c121 0 216 97 216 215l0 579c0-111 65-298 191-298 38 0 94 25 94 74l0 382c0 47-1 119-63 119-131 0-211-125-222-242l0 608c0 121-99 216-216 216l-620 0 0-1653 620 0 z" fill="#F9C23C"/>
		<path d="M1298-287c456 0 827 370 827 826 0 456-369 827-827 827-210 0-407-77-561-219l-5-1210c153-145 355-224 566-224 z" fill="#00A6ED"/>
		<path d="M732-63c183 146 292 367 292 607 0 235-106 454-287 603-166-156-265-372-265-608 0-231 97-447 260-602 z" fill="#8D65C5"/>
		<path d="M1499 277c27 0 51 21 51 50l0 422c0 29-24 51-51 51-13 0-25-5-34-14l-215-198c-15-14-23-32-23-53 0-21 8-38 24-53l215-192c10-9 21-13 33-13 z" fill="#F9C23C"/>
		<path d="M798 637c25 0 45 19 45 45 0 25-19 45-45 45-24 0-45-20-45-45 0-24 20-45 45-45 z" fill="#1C1C1C"/>
	</g></svg>
