<svg version="1.1" xmlns="http://www.w3.org/2000/svg" viewBox="0 0 2300 2300"><g transform="scale(1,-1) translate(-256, -1869)">
		<path d="M2075-72c137 0 259 84 311 207l-82 117 92 172-56 115 48 182c-47 173-145 269-265 408 86 49 145 138 145 245 0 154-124 279-279 279-108 0-201-60-249-154-64 33-129 57-200 70l-134-62-134 62c-71-13-136-37-200-70-50 96-145 154-249 154-153 0-280-127-280-276 0-105 56-198 146-248-120-139-217-236-264-407l126-182-138-114 161-210-148-81c52-128 182-207 311-207l1338 0 z" fill="#FF822D"/>
		<path d="M2050 1215c69 25 110 90 110 159 0 93-76 171-171 171-66 0-131-38-158-104 86-63 150-144 219-226 z M761 1214c69 80 130 165 218 226-27 65-88 105-157 105-95 0-171-78-171-171 0-73 44-134 110-160 z" fill="#FF6723"/>
		<path d="M1406-287c276 0 503 223 503 503l0 143-1006 0 0-143c0-276 221-503 503-503 z" fill="#E1D8EC"/>
		<path d="M1693 144c121 0 216 97 216 215 0 120-95 216-216 216l-575 0c-119 0-215-97-215-216 0-120 97-215 215-215l108 0c70 0 139 35 180 96 41-61 110-96 180-96l107 0 z" fill="#F3EEF8"/>
		<path d="M1994 108c19 0 36 17 36 35 0 15-6 25-18 32l-249 143c-7 3-12 6-19 6-18 0-35-17-35-36 0-14 6-24 18-31l249-144c5-3 11-5 18-5 z M1744 395c7 0 13 2 18 5l249 144c11 7 18 19 18 31 0 21-18 36-36 36-7 0-13-2-18-5l-248-144c-12-7-18-17-18-30 0-21 17-37 35-37 z M818 108c-19 0-36 17-36 35 0 15 6 25 18 32l249 143c7 3 12 6 19 6 18 0 35-17 35-36 0-14-6-24-18-31l-249-144c-5-3-11-5-18-5 z M1067 395c19 0 36 16 36 37 0 13-6 23-18 30l-248 144c-5 3-11 5-18 5-21 0-36-18-36-36 0-12 7-24 18-31l248-144c5-3 11-5 18-5 z" fill="#CDC4D6"/>
		<path d="M1406 323c20 0 40 8 55 23l99 99c15 15 22 32 22 53 0 42-32 77-76 77l-198 0c-42 0-77-32-77-76 0-21 8-39 23-54l99-99c15-15 33-23 53-23 z M1693 647c39 0 72 31 72 72l0 72c0 39-31 72-72 72-40 0-71-34-71-72l0-72c0-38 31-72 71-72 z M1118 647c39 0 72 31 72 72l0 72c0 39-31 72-72 72-40 0-71-34-71-72l0-72c0-38 31-72 71-72 z M2386 134c17 42 26 86 26 131l0 277c0 61-8 121-24 180l-314-210c-13-9-22-24-22-40 0-29 23-50 50-50l269 0-297-198c-13-9-22-23-22-40 0-26 21-50 50-50l284 0 z M710 134c29 0 49 24 49 50 0 17-7 30-21 40l-297 197 269 0c29 0 49 24 49 50 0 17-7 30-21 40l-313 211c-17-59-25-119-25-180l0-277c0-45 9-89 26-131l284 0 z M1406 1113c11 0 20 3 29 10l194 156c7 5 11 13 11 22 0 16-13 29-29 29l-410 0c-16 0-29-13-29-29 0-9 4-17 11-22l194-156c9-7 18-10 29-10 z M1405 1456c21 0 36 8 51 23l86 89c-43 9-89 13-136 13-47 0-93-4-136-13l84-89c14-15 31-23 51-23 z" fill="#212121"/>
	</g></svg>
