<svg version="1.1" xmlns="http://www.w3.org/2000/svg" viewBox="0 0 2300 2300"><g transform="scale(1,-1) translate(-256, -1869)">
		<path d="M1678-287c9 0 18 6 18 17l-1 4c-10 52-55 87-105 87l-128 0 86 431-108 0-86-431-251 0 86 431-108 0-86-431-130 0c-59 0-93-38-106-91 0-11 9-17 18-17l901 0 z M673 987l42 363-221-116c-15-7-22-22-22-38 0-12 4-22 13-31l188-178 z" fill="#F9C23C"/>
		<path d="M1969 72l0 1 380 0c30 0 52 23 52 52l0 657c0 30-25 52-52 52-27 0-494-223-550-251l-165 495-1 0-114 344c-11 29-22 58-38 85l45 0c91 0 167 72 167 168 0 26-23 50-50 50l-536 0c-178 0-340-110-404-279-16-41-22-81-27-124l-92-804c-2-16-3-32-3-47 0-214 172-399 400-399l988 0 z" fill="#CA0B4A"/>
		<path d="M975 1150c38 0 72 33 72 72 0 38-33 72-72 72-39 0-72-31-72-72 0-39 31-72 72-72 z" fill="#212121"/>
	</g></svg>
