<svg version="1.1" xmlns="http://www.w3.org/2000/svg" viewBox="0 0 2300 2300"><g transform="scale(1,-1) translate(-256, -1869)">
		<path d="M2277 360c14 0 25 2 34 5 8 3 14 8 18 15 4 6 7 14 8 23 1 9 2 19 2 31l0 357c0 9 0 21 1 37l0 13c0 12-1 23-2 35-2 16-6 30-12 42-7 11-17 17-31 17-36 0-69-8-98-24-29-17-55-38-76-64-21-27-38-56-49-89-12-33-18-67-18-100 0-27 3-53 8-79 5-27 13-52 24-76 11-24 25-46 42-66 17-20 38-37 62-51 13-7 27-13 42-18 15-5 30-8 45-8 z M1432 268c357 0 512 293 610 581-23 101-66 194-128 277 11 40 68 199 68 232 0 40-34 71-72 71-33 0-197-78-233-92-61 35-125 61-193 78l-122 268c-12 26-37 42-65 42-27 0-53-15-65-41l-129-271c-29-8-59-18-88-30-43 19-218 121-254 121-38 0-72-31-72-72 0-32 43-192 53-234-90-97-154-213-184-336l-11 1c-42 0-75-35-75-76 0-34 21-61 51-72-30-11-51-38-51-72 0-41 33-76 75-76 42 0 76 32 76 76 0 34-21 61-51 72 30 11 51 38 51 72 0 33-20 62-53 72l5 0c86 0 287-219 349-281 99-100 198-197 302-290 68-13 137-20 206-20 z" fill="#F3AD61"/>
		<path d="M1297-296c28 0 53 16 65 42l81 178c112 23 215 66 307 134 33-14 127-62 161-62 40 0 71 34 71 72 0 32-40 140-51 178 86 128 131 277 131 428 0 58-7 116-20 175-88-258-269-451-555-451-115 0-336 51-396 173-80 163-202 312-394 312-48 0-96-10-141-27-15-60-22-121-22-182 0-151 45-294 125-418-8-38-44-163-44-197 0-39 33-71 71-71 32 0 130 56 159 71 89-67 192-111 301-134l86-180c12-26 38-41 65-41 z" fill="#FBB8AB"/>
		<path d="M1526 1046c-45 0-90 34-90 82 0 13 2 29 11 40 20 28 122 112 157 112 19 0 21-23 21-38 0-33-23-137-38-163-13-20-38-33-61-33 z M1427 408c-18 0-35 1-51 3-67 8-251 79-280 148-14 29-14 110-14 141 0 29 1 117 14 140 24 44 258 157 314 157 59 0 140-22 140-98l0-387c0-81-52-104-123-104 z M1087 1055c43 0 90 31 90 79 0 37-93 173-127 173-28 0-36-69-37-119l-1-57c0-7 0-15 2-22 5-29 41-54 73-54 z" fill="#D3883E"/>
		<path d="M874 709c25 0 45 19 45 45 0 25-19 45-45 45-25 0-45-19-45-45 0-25 19-45 45-45 z" fill="#1C1C1C"/>
	</g></svg>
