<svg version="1.1" xmlns="http://www.w3.org/2000/svg" viewBox="0 0 2300 2300"><g transform="scale(1,-1) translate(-256, -1869)">
		<path d="M1766-144c280 0 502 223 502 503 0 60-12 105-27 150l-91 258c155 75 262 235 262 419 0 255-209 467-467 467-142 0-271-64-358-167-60 15-119 24-180 24-61 0-122-9-182-25-87 104-216 168-358 168-255 0-467-209-467-467 0-182 104-343 263-420-25-70-46-133-72-203-28-74-48-122-48-210 0-262 210-490 493-496l0-1 730 0 z" fill="#9B9B9B"/>
		<path d="M2118 858l-76 217-1-2c-64 169-189 297-340 370 62 44 135 67 208 67 191 0 359-155 359-360 0-120-58-226-150-292 z M695 858l76 217 1-2c63 166 185 296 339 370-61 44-135 67-208 67-197 0-360-161-360-360 0-120 58-226 152-292 z" fill="#636363"/>
		<path d="M1406 0c-161 0-288 128-288 288l0 143c0 161 128 288 288 288 160 0 287-129 287-288l0-143c0-161-129-288-287-288 z M1837 506c38 0 72 31 72 71l0 72c0 39-31 72-72 72-39 0-72-31-72-72l0-72c0-40 34-71 72-71 z M975 506c38 0 72 31 72 71l0 72c0 38-33 72-72 72-39 0-72-31-72-72l0-72c0-40 34-71 72-71 z" fill="#1C1C1C"/>
	</g></svg>
