<svg version="1.1" xmlns="http://www.w3.org/2000/svg" viewBox="0 0 2300 2300"><g transform="scale(1,-1) translate(-256, -1869)">
		<path d="M1819-287c9 0 18 6 18 17-13 52-35 75-77 86-18 4-37 6-58 6l-62-1-2 431-108 0 2-431-252 0-1 431-108 0 1-431-92 0c-48 0-98-35-106-87 0-13 5-21 18-21l827 0 z" fill="#FF822D"/>
		<path d="M2210 348c25 0 51 2 78 7 61 9 123 28 123 87 0 19-7 36-22 51l-585 585c-46-73-73-161-73-254 0-264 214-476 479-476 z M601 349c263 0 479 209 479 476 0 92-26 179-73 253l-585-585c-14-14-21-31-21-51 0-86 142-93 200-93 z" fill="#F9C23C"/>
		<path d="M1405-72c355 0 647 288 647 647 0 150-46 265-129 388-9 14-15 26-15 43 0 275-221 504-503 504-276 0-503-226-503-504 0-29-20-53-36-76-70-100-108-224-108-355 0-355 288-647 647-647 z" fill="#FCD53F"/>
		<path d="M1658 1078c18 0 35 17 35 36 0 19-17 36-35 36-19 0-36-15-36-36 0-19 15-36 36-36 z M1154 1078c19 0 36 15 36 36 0 19-15 36-36 36-18 0-36-17-36-36 0-18 17-36 36-36 z" fill="#212121"/>
		<path d="M1549 1006c0 81-67 144-144 144-81 0-144-67-144-144l288 0 z" fill="#FF822D"/>
	</g></svg>
