<svg version="1.1" xmlns="http://www.w3.org/2000/svg" viewBox="0 0 2300 2300"><g transform="scale(1,-1) translate(-256, -1869)">
		<path d="M763-215c92 0 176 31 246 83l269 204-505 0-276-218c-11-9-16-19-16-31 0-21 17-38 39-38l243 0 z M2020-218l77 1 93 0c26 0 71 6 71 42 0 54-106 116-142 144 181 189 221 458 221 716 0 285-109 530-353 710l-7 11c0 7 7 13 7 21 34 39 51 88 51 142 0 39-17 156-71 156-39 0-89-44-121-84-45-55-59-82-59-130 0-21 2-40 6-58 3-11 7-14 7-26 0-1-1-1-3-1-15 0-32 9-49 9-63 0-119-33-159-76-29-31-90-92-90-135 0-40 120-51 151-51 113 0 164 87 190 87l15-2c113-144 170-328 170-497 0-88-7-229-130-229-86 0-155 73-155 156 0 256-192 463-450 463l-471 0c-134 0-294-89-374-217-43-69-43-110-43-189l1-30c215-11 429-17 644-32 131-10 239-82 292-199 53-118 23-254 62-385 30-99 98-155 177-194 87-44 171-75 269-111l13 5c52-14 102-17 160-17 z" fill="#00A6ED"/>
		<path d="M1347-296c165 0 368 36 513 95-14 3-27 8-39 13-57 25-126 46-182 76-195 104-186 278-196 472 0 77-30 147-92 209-120 120-263 154-430 154-176 0-331 0-518-4l2-41c41-502 427-974 942-974 z" fill="#AEDDFF"/>
		<path d="M1371 791c23 0 44 18 44 43l0 55c0 23-22 43-44 43-23 0-43-20-43-43l0-55c0-23 20-43 43-43 z" fill="#1C1C1C"/>
		<path d="M1047 1222c22 0 38 15 41 36l31 221c3 18 17 31 36 31 18 0 36-17 36-36 0-57 47-108 105-108 63 0 110 47 110 110l0 34c0 120-97 215-215 215-53 0-104-21-144-59-40 38-91 59-144 59-121 0-216-97-216-215l0-34c0-63 47-110 110-110 59 0 106 49 106 108 0 18 17 36 36 36 19 0 33-13 36-31l31-221c3-21 19-36 41-36 z M544 1222c39 0 72 34 72 72 0 38-33 72-72 72-39 0-72-31-72-72 0-39 31-72 72-72 z M1557 1572c49 0 87 40 87 88 0 48-39 87-87 87-48 0-88-38-88-87 0-48 40-88 88-88 z" fill="#26EAFC"/>
	</g></svg>
