<svg version="1.1" xmlns="http://www.w3.org/2000/svg" viewBox="0 0 2300 2300"><g transform="scale(1,-1) translate(-256, -1869)">
		<path d="M1393 15l845 287 20 13 87 61 24 16 6-1 5 1c2 1 6 1 11 1 3 0 5 0 7-1 5 24 8 48 11 73 2 25 3 49 3 74 0 71-9 140-28 208-19 67-48 131-86 192-9 14-19 28-29 41-10 13-20 26-29 39-10 13-15 27-15 43 0 9 2 19 6 28 11 28 20 55 27 81 7 26 10 54 10 84 0 55-10 106-31 155-21 48-49 90-84 126-36 36-78 65-126 86-49 21-100 31-155 31-39 0-77-5-113-16-37-11-71-27-102-47-31-21-59-45-84-74-25-29-45-62-61-97-8-17-14-35-18-52l-13-54c-3-13-11-19-22-19l-107 0c-11 0-19 6-22 19-5 19-9 37-12 54-4 17-10 34-18 52-16 35-36 68-61 97-25 29-53 53-84 74-31 20-65 36-102 47-37 11-74 16-113 16-53 0-104-10-152-30-48-21-90-49-126-84-37-35-66-77-87-124-21-47-32-98-32-152 0-31 3-61 10-88 7-28 16-56 28-85 4-9 6-18 6-27 0-9-1-17-4-23-3-7-7-14-12-21-9-13-19-26-29-39-10-13-19-27-28-41-37-61-66-125-85-192-19-68-29-137-29-208 0-24 1-48 3-72 2-25 6-49 11-72l16-5 120-75c13-9 21-13 22-13l821-287 z" fill="#00D26A"/>
		<path d="M1873 1006c139 0 252 113 252 252 0 139-113 252-252 252-138 0-251-111-251-252 0-138 110-252 251-252 z M939 1006c138 0 251 111 251 252 0 138-110 252-251 252-139 0-252-113-252-252 0-139 113-252 252-252 z" fill="#FFF478"/>
		<path d="M1298 863c19 0 36 15 36 36 0 18-17 35-36 35-19 0-36-17-36-35 0-19 15-36 36-36 z M1514 863c-19 0-36 15-36 36 0 18 17 35 36 35 19 0 36-17 36-35 0-19-15-36-36-36 z M1873 1078c98 0 180 78 180 180 0 98-78 180-180 180-98 0-180-78-180-180 0-98 78-180 180-180 z M939 1078c98 0 179 79 179 180 0 98-79 180-179 180-98 0-180-78-180-180 0-98 78-180 180-180 z" fill="#1C1C1C"/>
		<path d="M1658-216c91 0 177 16 260 47 83 31 157 74 223 129 66 55 122 120 167 196 45 75 76 158 92 247l-162 0c-43 0-82 7-119 20-37 13-73 32-108 57l-48 35-50 34c-77 47-158 82-244 107-86 24-174 36-264 36-112 0-220-18-323-55-104-37-200-90-287-161l0 1c-31-23-61-39-91-50-31-11-62-18-93-21-26-2-52-4-79-4l-17 0c-33 1-68 1-103 1 16-89 47-172 92-247 45-76 101-141 167-196 66-55 140-98 223-129 82-31 169-47 260-47l504 0 z" fill="#FCD53F"/>
	</g></svg>
