<svg version="1.1" xmlns="http://www.w3.org/2000/svg" viewBox="0 0 2300 2300"><g transform="scale(1,-1) translate(-256, -1869)">
		<path d="M1195-290c211 0 335 131 424 280 98 165 190 339 283 505 112 201 223 335 223 577 0 38-4 76-13 115-81 345-348 536-672 536-372 0-672-275-672-651l0-867c0-236 161-495 427-495 z" fill="#FFD7C2"/>
		<path d="M1260-72c100 0 200 51 254 135 29 45 40 102 40 152 0 62-18 112-91 112-103 0-113-291-310-291-18 0-35 1-35 21l0 447c119 0 159-5 254-93 7-7 16-11 26-11 19 0 36 15 36 36 0 9-3 17-10 25-84 97-183 115-306 115l0 216c63-42 532-356 554-356 11 0 17 5 17 16 0 7-4 15-11 22-17 19-36 34-55 51-228 211-285 266-505 472l0 166c0 19 11 44 22 59 60 92 211 143 313 143 171 0 312-196 312-359 0-42 29-72 72-72 43 0 71 30 71 72 0 27-3 54-10 83-53 214-201 418-421 418-117 0-235-36-322-118-59-55-109-147-109-225l0-1107c0-102 140-129 214-129 z" fill="#F1B99B"/>
	</g></svg>
