<svg version="1.1" xmlns="http://www.w3.org/2000/svg" viewBox="0 0 2300 2300"><g transform="scale(1,-1) translate(-256, -1869)">
		<path d="M1921-288c28 0 54 4 79 12 25 7 46 19 65 34 18 15 33 33 44 56 11 22 16 48 16 78 0 23-3 46-9 69-6 23-17 43-34 60 37 17 66 41 86 74 19 32 29 68 29 108 0 35-9 68-27 97-18 29-42 52-71 71 32 18 56 42 73 73 17 31 25 64 25 101 0 41-12 78-36 110-25 32-55 56-91 73 19 19 33 42 42 68 9 25 13 52 13 79 0 28-5 54-16 79-11 25-25 46-44 65-19 18-40 32-65 43-25 11-51 16-79 16l-277 0c-6 0-12 0-18-1l-19-3 0 3c3 52 7 104 11 155 3 51 5 102 5 154 0 42-3 83-10 124-7 41-19 77-38 109-19 32-44 58-76 78-33 20-74 30-125 30-37 0-70-7-99-20-29-13-54-31-73-54-20-23-35-50-45-81-11-31-16-65-16-101 0-22 0-49 1-81l0-28-1-70c-1-34-5-66-10-97-6-31-15-56-27-75-23-35-49-65-80-88-31-23-63-46-97-69l-73-50c-25-17-48-36-69-57-33-32-61-66-83-102-22-37-39-75-52-114-13-40-22-81-27-124-5-43-8-87-8-132 0-119 18-221 55-306 37-85 89-154 156-208 67-54 147-94 241-119 94-25 198-38 313-38l264-1 277 0 z" fill="#966661"/>
		<path d="M1610-285c-85 16-133 90-133 177 0 37 14 73 33 104l399 0c19 0 36 15 36 36 0 19-15 36-36 36l-389 0c-30 39-43 88-43 135 0 43 17 88 39 121l393 0c19 0 36 15 36 36 0 18-17 36-36 36l-377 0c-38 41-55 96-55 149 0 35 12 71 28 102l404 0c19 0 36 15 36 36 0 19-15 36-36 36l-372 0c-37 39-60 98-60 156 0 86 48 189 145 202l0 1c-119-3-288-65-288-213 0-66 17-128 74-169-56-24-76-115-76-167 0-60 35-122 76-159-40-39-76-103-76-163 0-63 26-115 76-150-53-32-76-95-76-149 0-144 167-188 278-193 z" fill="#75443E"/>
	</g></svg>
