<svg version="1.1" xmlns="http://www.w3.org/2000/svg" viewBox="0 0 2300 2300"><g transform="scale(1,-1) translate(-256, -1869)">
		<path d="M2017-287c19 0 36 15 36 36l0 336c89 69 180 161 258 264 55 73 103 144 103 226 0 84-48 152-101 223-228 302-536 496-907 496-373 0-678-193-906-496-53-70-103-143-103-223 0-84 51-155 103-223 227-302 535-496 906-496 88 0 174 11 258 33 36-20 333-176 353-176 z" fill="#635994"/>
		<path d="M1406 72c276 0 503 223 503 503 0 276-223 503-503 503-267 0-503-213-503-503 0-276 221-503 503-503 z M1406 288c-161 0-288 129-288 287 0 161 128 288 288 288 160 0 287-129 287-288 0-161-130-287-287-287 z" fill="#FFFFFF"/>
	</g></svg>
