<svg version="1.1" xmlns="http://www.w3.org/2000/svg" viewBox="0 0 2300 2300"><g transform="scale(1,-1) translate(-256, -1869)">
		<path d="M2169 66c65 0 114 53 114 114 0 64-53 113-114 113-61 0-113-51-113-113 0-61 49-114 113-114 z M641 66c65 0 114 53 114 114 0 64-53 113-114 113-65 0-113-53-113-113 0-62 49-114 113-114 z" fill="#00A6ED"/>
		<path d="M2062 554l-152 351c38 15 62 53 62 92 0 56-43 99-99 99-54 0-99-46-99-99 0-33 16-63 43-82l-228-307 473-54 z M748 554l473 54-228 307c27 19 43 49 43 82 0 54-46 99-99 99-56 0-100-42-100-99 0-41 24-77 63-92l-152-351 z" fill="#E19747"/>
		<path d="M1982-274c35 0 65 11 91 33 26 21 43 49 50 82l187 932c1 7 2 12 2 17 0 13-3 27-10 40l10-1c13 0 26 3 38 8 12 5 23 13 32 22 9 9 16 19 21 31 5 12 8 25 8 38 0 13-3 26-8 38-5 12-12 23-21 32-9 9-20 16-32 21-12 5-25 8-38 8-28 0-52-9-71-28-19-19-29-43-29-71 0-10 2-20 5-29 3-9 7-18 12-26-18 0-34-4-47-13l-282-183c-7-5-14-8-22-10-8-2-16-3-24-3-13 0-26 3-37 9-12 6-22 14-30 25l-318 432-4 4c19 11 35 27 47 46 11 19 17 39 17 62 0 17-3 33-10 48-7 15-15 29-26 40-11 11-25 19-40 26-15 7-31 10-48 10-17 0-33-3-48-10-15-7-28-15-39-26-11-11-20-25-26-40-7-15-10-31-10-48 0-23 6-43 17-62 11-19 27-35 47-46l-4-4-318-432c-8-11-18-19-29-25-12-6-25-9-38-9-8 0-16 1-24 3-8 2-15 5-22 10l-283 183c-13 9-29 13-46 13 11 17 16 36 16 55 0 28-9 52-28 71-19 19-43 28-71 28-28 0-51-9-70-28-19-19-29-43-29-71 0-14 3-28 10-41 7-13 15-25 26-34 10-10 22-17 35-22 7-3 13-4 20-4 6 0 12 1 18 3-7-13-11-27-11-41l2-16 187-932c3-17 9-32 18-46 9-14 19-26 32-36 13-11 27-19 43-24 15-6 31-9 48-9l1154 0 z" fill="#FFB02E"/>
		<path d="M1405 0c98 0 180 78 180 180 0 98-78 180-180 180-98 0-179-79-179-180 0-98 79-180 179-180 z" fill="#00A6ED"/>
		<path d="M1873 72c57 0 108 46 108 108 0 58-49 108-108 108-58 0-108-49-108-108 0-58 49-108 108-108 z M939 72c58 0 108 49 108 108 0 58-49 108-108 108-58 0-108-49-108-108 0-63 50-108 108-108 z" fill="#F8312F"/>
	</g></svg>
