<svg version="1.1" xmlns="http://www.w3.org/2000/svg" viewBox="0 0 2300 2300"><g transform="scale(1,-1) translate(-256, -1869)">
		<path d="M1784-290c50 0 98 9 144 28 45 19 86 46 122 82l334 334c19 19 28 41 28 68 0 13-2 25-7 36-5 11-11 20-19 29-9 9-19 16-30 21-11 5-23 7-36 7-13 0-25-2-36-7-11-5-21-12-30-21l110 110c9 9 16 20 21 32 4 11 6 23 6 36 0 13-2 25-7 36-5 11-11 21-19 30-9 8-19 15-30 20-11 5-23 7-36 7-13 0-25-2-36-7-11-5-21-12-30-21 18 19 27 41 27 66 0 13-2 25-7 36-5 11-11 21-19 30-9 8-19 14-30 19-11 5-23 7-36 7-13 0-25-2-36-6-12-5-23-12-32-21l-91-92c18 19 27 41 27 66 0 26-9 48-27 66-18 18-40 27-66 27-26 0-48-9-67-28l-25-26-47-47-111-112c-17-17-32-30-44-41-12-11-19-17-20-17-4 0-7 2-9 5-2 3-3 7-3 12l-1 6 1 7 0 11c0 15-3 28-8 41-5 13-13 24-22 34-10 9-21 17-34 23-13 5-26 8-41 8-28 0-52-9-72-28-21-19-32-43-34-71-1 14-4 27-10 39-6 12-14 23-23 32-9 9-20 16-32 21-13 5-26 7-40 7-15 0-28-3-41-8-13-6-24-14-33-23-10-10-18-21-23-34-6-13-9-26-9-41 0-3 0-6 1-11l0-13-3-12c-2-3-5-5-9-5-1 0-8 6-20 17-12 11-26 24-43 41l-113 112-47 47c-13 13-22 22-25 26-19 19-41 28-67 28-26 0-48-9-66-27-18-18-27-40-27-66 0-25 9-47 27-66l-91 92c-9 9-20 16-31 21-12 4-24 6-37 6-13 0-25-2-36-7-11-5-21-11-29-19-9-9-15-19-20-30-5-11-8-23-8-36 0-12 3-24 8-35 5-11 11-22 20-31-9 9-19 16-30 21-11 5-23 7-36 7-13 0-25-2-36-7-11-5-21-12-29-20-9-9-15-19-20-30-5-11-7-23-7-36 0-13 2-25 7-36 4-12 11-23 20-32l110-110c-9 9-19 16-30 21-11 5-23 7-36 7-13 0-25-2-36-7-11-5-21-12-29-20-9-9-15-19-20-30-5-11-7-23-7-36 0-13 2-25 7-36 4-12 11-23 20-32l335-334c36-35 77-62 123-81 45-19 93-29 143-29 50 0 98 10 143 29 45 19 84 45 119 78 34 33 61 71 82 115 21 44 32 91 34 141 2-50 14-97 35-141 21-45 48-83 82-116 34-33 74-58 119-77 45-19 92-29 142-29 z" fill="#EEBFAA"/>
		<path d="M1784-290c12 0 24 1 36 2-191 19-342 181-342 376l0 410c0 43 26 84 70 99-12 4-24 7-36 7-60 0-106-51-106-106l0-410c0-201 164-378 378-378 z M2064 106c-10 0-20 10-20 20 0 5 2 9 6 13l340 340 1-8c0-23-4-51-23-70l-291-290c-3-3-8-5-13-5 z M1933 237c5 0 10 2 13 5l287 288c17 17 26 41 26 65l-1 15-340-340c-3-3-5-8-5-13 0-12 9-20 20-20 z M1801 369c-10 0-20 10-20 21 0 5 2 10 5 13l248 248 1-8c0-20-5-53-26-74l-195-194c-4-4-8-6-13-6 z M748 106c-5 0-10 2-13 5l-291 290c-18 18-23 47-23 70l1 8 340-340c4-4 6-8 6-13 0-10-10-20-20-20 z M879 237c10 0 20 10 20 20 0 5-2 10-5 13l-340 340-1-15c0-24 9-48 26-65l287-288c3-3 8-5 13-5 z M1011 369c10 0 20 10 20 21 0 5-2 10-5 13l-248 248-1-8c0-20 5-53 26-74l195-194c4-4 8-6 13-6 z" fill="#75443E"/>
	</g></svg>
