<svg version="1.1" xmlns="http://www.w3.org/2000/svg" viewBox="0 0 2300 2300"><g transform="scale(1,-1) translate(-256, -1869)">
		<path d="M1392-287c52 0 88 2 126 40l668 665c92-24 156-110 156-204 0-18 17-36 36-36 19 0 36 18 36 36 0 104-54 197-147 248 75 10 146 55 146 141 0 75-60 134-134 134-110 0-150-113-150-204l1-30-1449 0c0 102-25 232-149 232-71 0-134-57-134-135 0-82 70-130 139-140-87-51-139-143-139-243 0-19 15-36 36-36 19 0 36 15 36 36 0 98 67 180 160 204l665-667c27-27 60-41 97-41 z M2201 528c0 49 12 138 79 138 34 0 62-26 62-62 0-68-95-76-141-76 z M1809 647c191 0 388 149 388 360l0 682c0 19-15 36-36 36-19 0-36-18-36-36l0-261c-289 0-663-159-711-482l-16 0c-53 328-421 482-712 482l0 261c0 21-16 36-35 36-19 0-36-15-36-36l0-682c0-206 188-360 390-360l804 0 z" fill="#CA0B4A"/>
		<path d="M1657 35c41 0 72 34 72 73 0 39-31 73-72 73-40 0-73-32-73-73 0-41 33-73 73-73 z M1908 287c40 0 73 32 73 73 0 41-34 72-73 72-39 0-72-31-72-72 0-39 31-73 72-73 z M1657 287c41 0 72 34 72 73 0 39-31 72-72 72-39 0-73-31-73-72 0-40 32-73 73-73 z M1155 35c40 0 73 32 73 73 0 40-32 73-73 73-41 0-72-34-72-73 0-39 31-73 72-73 z M1407-216c39 0 72 31 72 72 0 39-31 73-72 73-40 0-73-32-73-73 0-41 34-72 73-72 z M1407 35c41 0 72 34 72 73 0 39-31 73-72 73-40 0-73-32-73-73 0-41 33-73 73-73 z M1405 287c40 0 73 32 73 73 0 41-34 72-73 72-39 0-72-31-72-72 0-39 31-73 72-73 z M1155 287c40 0 73 32 73 73 0 41-34 72-73 72-39 0-72-31-72-72 0-39 31-73 72-73 z M904 287c41 0 72 34 72 73 0 39-31 72-72 72-39 0-73-31-73-72 0-41 30-73 73-73 z M2051 1149c40 0 73 32 73 73 0 40-32 73-73 73-41 0-72-34-72-73 0-39 31-73 72-73 z M1620 862c40 0 73 32 73 73 0 41-34 72-73 72-39 0-72-31-72-72 0-39 31-73 72-73 z M1836 1006c39 0 72 31 72 72 0 39-31 73-72 73-40 0-73-32-73-73 0-41 34-72 73-72 z M2051 862c40 0 73 32 73 73 0 41-34 72-73 72-39 0-72-31-72-72 0-39 31-73 72-73 z M1836 718c41 0 72 34 72 73 0 39-31 72-72 72-39 0-73-31-73-72 0-40 32-73 73-73 z M1405 718c40 0 73 32 73 73 0 41-34 72-73 72-39 0-72-31-72-72 0-39 31-73 72-73 z M1191 862c40 0 73 32 73 73 0 41-34 72-73 72-39 0-73-31-73-72 0-40 32-73 73-73 z M975 718c41 0 73 33 73 73 0 41-34 72-73 72-39 0-72-31-72-72 0-39 31-73 72-73 z M760 862c41 0 72 34 72 73 0 39-31 72-72 72-39 0-73-31-73-72 0-40 32-73 73-73 z M975 1006c39 0 73 31 73 72 0 40-32 73-73 73-41 0-72-34-72-73 0-39 31-72 72-72 z M760 1149c41 0 72 34 72 73 0 39-31 73-72 73-40 0-73-32-73-73 0-40 32-73 73-73 z" fill="#FF6DC6"/>
	</g></svg>
