<svg version="1.1" xmlns="http://www.w3.org/2000/svg" viewBox="0 0 2300 2300"><g transform="scale(1,-1) translate(-256, -1869)">
		<path d="M1310 1233c56 0 102 45 102 102 0 56-45 103-102 103-56 0-101-47-101-103 0-55 44-102 101-102 z" fill="#FFB02E"/>
		<path d="M1406-287c472 0 1006 49 1006 648 0 81-22 158-47 229-29 81-51 163-86 240-166 355-452 373-802 373l-142 0c-361 0-641-28-802-373-25-55-42-107-61-166-32-100-72-192-72-304 0-602 535-647 1006-647 z" fill="#F70A8D"/>
		<path d="M2346 664c0 312-249 572-566 572l-245 0c48 11 79 53 79 99 0 56-45 103-102 103-56 0-101-47-101-103 0-47 32-88 78-99l-445 0c-314 0-567-258-567-572 30 0 55 9 75 26 50 43 44 119 82 187 78 156 241 253 410 253l736 0c172 0 330-99 410-253 20-40 30-79 42-120 14-54 52-93 114-93 z" fill="#F9C23C"/>
	</g></svg>
