<svg version="1.1" xmlns="http://www.w3.org/2000/svg" viewBox="0 0 2300 2300"><g transform="scale(1,-1) translate(-256, -1869)">
		<path d="M1416 141c327 0 647 50 964 125l-71 671c-11 107-106 187-209 187l-1387 0c-104 0-198-80-209-187l-70-671c321-70 649-125 982-125 z" fill="#F3AD61"/>
		<path d="M2203-273c124 0 209 98 209 221l-37 358-1937 0-38-358c0-140 100-221 209-221l1594 0 z" fill="#6D4534"/>
		<path d="M2047 662c22 0 41 8 56 23 15 15 23 34 23 56l0 130c0 26-9 46-27 59-19 13-40 20-64 20l0 143c0 58-7 114-22 168-15 53-37 104-64 151-27 47-60 89-99 128-39 38-81 71-128 99-47 27-97 49-150 64-54 15-110 22-168 22-87 0-169-16-246-49-77-33-144-79-201-136-57-57-102-124-135-201-33-77-50-159-50-246l0-143-5 0c-23 0-42-7-58-19-18-13-27-33-27-60l0-130c0-22 8-41 23-56 15-15 34-23 56-23l130 0c22 0 41 8 56 23 15 15 23 34 23 56l0 130c0 27-9 47-26 60-17 12-36 19-59 19l-5 0 0 143c0 72 14 140 41 204 27 63 65 119 113 167 47 47 103 85 167 112 63 27 131 41 203 41 72 0 140-14 204-41 63-27 119-65 167-112 47-48 85-104 112-167 27-64 41-132 41-204l0-143-5 0c-23 0-42-7-58-19-18-13-27-33-27-60l0-130c0-22 8-41 23-56 15-15 34-23 56-23l130 0 z" fill="#6D4534"/>
	</g></svg>
