<svg version="1.1" xmlns="http://www.w3.org/2000/svg" viewBox="0 0 2300 2300"><g transform="scale(1,-1) translate(-256, -1869)">
		<path d="M1659 1001l0 508-508 0 0-508 508 0 z" fill="#433B6B"/>
		<path d="M1911-302l0 616c268 0 502 217 502 504l0 390c0 29-22 46-47 60-222 115-121 63-329 173-85 45-175 69-272 69l-215 0-145-239-143 239-205 0c-102 0-199-24-290-71l-295-152c-29-16-72-30-72-71l0-396c0-271 216-504 504-504l0 644 1005 0 0-385-1005 0 0-877 1007 0 z" fill="#00A6ED"/>
		<path d="M1910 575l0 431-1008 0 0-431 1008 0 z" fill="#433B6B"/>
		<path d="M1154-187c-20 0-25 21-33 36-8 13-46 15-46 41 0 19 19 25 34 33 22 11 19 48 46 48 19 0 24-19 31-34 9-21 47-18 47-46 0-19-21-26-35-32-23-11-15-46-44-46 z M1658-187c20 0 27 22 33 36 8 16 46 16 46 42 0 20-21 26-36 34-21 10-17 46-43 46-19 0-26-22-33-37-8-16-46-16-46-43 0-19 21-25 36-33 19-11 17-45 43-45 z M1154 245c-19 0-25 21-33 36-8 16-46 16-46 42 0 19 20 26 35 33 20 9 18 47 45 47 19 0 22-19 31-34 11-20 47-20 47-45 0-19-20-26-35-33-22-11-16-46-44-46 z M1405 2c20 0 26 21 34 36 11 19 46 17 46 43 0 22-22 26-37 33-16 8-16 47-43 47-27 0-24-38-42-47-16-8-36-12-36-33 0-20 21-25 36-33 16-8 16-46 42-46 z M1658 241c-20 0-24 19-32 34-11 21-47 18-47 44 0 20 19 24 34 32 19 10 18 49 44 49 19 0 25-20 33-36 12-23 46-17 46-44 0-19-20-25-34-33-22-12-17-46-44-46 z M2088 460c-19 0-25 22-33 37-10 18-45 16-45 42 0 20 19 24 34 32 20 11 18 48 45 48 19 0 26-22 33-37 8-16 46-17 46-43 0-27-38-25-46-42-8-15-14-37-34-37 z M2232 675c20 0 24 19 32 34 10 19 48 18 48 44 0 19-19 25-34 33-22 11-18 47-46 47-19 0-24-19-32-35-12-23-46-17-46-44 0-20 19-24 34-32 21-11 18-47 44-47 z M2088 891c-19 0-24 20-32 35-11 21-47 17-47 45 0 19 22 27 36 33 18 11 18 46 43 46 19 0 25-19 33-34 11-22 47-18 47-46 0-20-19-24-36-32-21-11-15-47-44-47 z M724 460c19 0 24 19 32 35 11 21 47 18 47 44 0 19-20 26-34 33-20 9-20 47-45 47-19 0-26-22-34-37-10-18-45-16-45-43 0-20 21-25 36-33 16-8 16-46 43-46 z M580 675c-21 0-25 19-33 34-11 21-47 18-47 44 0 20 21 26 36 34 19 11 17 46 43 46 21 0 26-21 33-36 8-16 47-16 47-43 0-19-19-24-34-32-22-11-18-47-45-47 z M723 892c19 0 25 18 33 33 11 20 47 19 47 45 0 20-21 26-36 34-18 10-18 46-44 46-19 0-25-20-31-35-10-23-48-15-48-45 0-19 22-26 37-34 18-10 15-44 42-44 z M579 1108c19 0 25 18 33 34 11 21 47 17 47 45 0 19-22 27-36 33-18 10-17 46-44 46-19 0-24-20-32-34-11-22-47-18-47-46 0-19 21-25 36-33 19-11 17-45 43-45 z M2232 1107c19 0 24 17 32 34 10 20 48 19 48 45 0 19-17 24-34 32-21 10-18 48-46 48-19 0-24-19-32-34-11-21-47-19-47-45 0-20 17-23 34-32 21-13 19-48 45-48 z" fill="#FF6DC6"/>
		<path d="M1353 1007l306 503-109 0-145-238-143 238-110 0 198-330-106-173 109 0 z" fill="#D3D3D3"/>
		<path d="M1909 316l36 1c13 0 25 1 36 4l0 757c0 21-13 38-36 38-23 0-36-17-36-38l0-762 z M904 316l0 762c0 21-13 38-36 38-23 0-37-16-37-38l0-757c11-3 23-4 36-4l37-1 z" fill="#0074BA"/>
	</g></svg>
