<svg version="1.1" xmlns="http://www.w3.org/2000/svg" viewBox="0 0 2300 2300"><g transform="scale(1,-1) translate(-256, -1869)">
		<path d="M2412-231l0 202c0 55-9 106-26 154-66 176-210 263-409 295-205 33-414 109-571 228-62 47-118 71-191 71l-621 0c-107 0-194-88-194-194l0-633 575 80c11 1 21 2 32 2 23 0 45-2 68-2 112 0 203-91 203-203l1134 0 z" fill="#A56953"/>
		<path d="M973-231l0 202-573 0 0-202 573 0 z M1532 343c13 0 25 5 35 15l118 117c9 9 14 21 14 35 0 27-20 50-49 50-14 0-26-5-35-14l-118-118c-10-10-15-22-15-35 0-26 23-50 50-50 z M1317 457c15 0 27 5 36 14l117 118c10 10 15 22 15 35 0 26-23 50-50 50-13 0-25-5-35-15l-118-118c-9-9-14-21-14-35 0-26 22-49 49-49 z" fill="#6D4534"/>
	</g></svg>
