<svg version="1.1" xmlns="http://www.w3.org/2000/svg" viewBox="0 0 2300 2300"><g transform="scale(1,-1) translate(-256, -1869)">
		<path d="M2412-287l0 272c0 66-33 126-83 164-127 94-305 143-455 143-158 0-346-55-467-153-128 100-311 153-467 153-159 0-331-53-455-143-50-38-85-101-85-166l0-270 2012 0 z" fill="#533566"/>
		<path d="M1872 83c72 0 131 59 131 130l0 66c116 24 220 130 230 247l6 108c65 3 116 58 116 123 0 60-42 110-101 121 3 39 8 75 8 114 0 167-133 307-305 307l-165 0c-168 0-307-134-307-305 0-39 5-77 8-116-37-7-69-27-88-61-17 32-49 54-85 61 3 39 8 75 8 114 0 167-135 307-305 307l-165 0c-166 0-307-130-307-304 0-39 4-78 7-117-57-8-103-60-103-121 0-66 53-120 119-123l8-108c8-124 116-221 226-246l0-67c0-72 58-130 130-130 72 0 130 58 130 130l0 66c111 23 222 124 230 247l7 108c42 3 80 26 100 63 21-38 59-62 104-63l7-108c8-123 115-220 226-246l0-67c0-72 58-130 130-130 z" fill="#6B438B"/>
	</g></svg>
