<svg version="1.1" xmlns="http://www.w3.org/2000/svg" viewBox="0 0 2300 2300"><g transform="scale(1,-1) translate(-256, -1869)">
		<path d="M1699 659c125 0 229 101 229 228 0 36-8 68-23 100-3 5-4 9-4 16 0 7 1 11 4 16 15 33 23 66 23 102 0 47-14 89-39 129-25 39-37 81-37 127 0 127-104 234-235 234-15 0-23 6-32 16-52 64-109 98-191 98-81 0-138-35-190-98-9-10-17-16-32-16-127 0-235-103-235-234 0-46-12-88-37-127-25-40-39-82-39-129 0-36 8-69 23-102 3-5 4-9 4-16 0-7-1-11-4-16-15-32-23-64-23-100 0-124 100-228 229-228l609 0 z" fill="#000000"/>
		<path d="M1909-287l48 287c8 53 24 88 24 144 0 63-16 95-24 155l-48 311c-22 19-47 37-74 54l-286 37c-55 8-91 18-143 18-56 0-88-10-143-18l-286-37c-27-17-52-35-74-54l-48-311c-8-58-24-93-24-155 0-58 17-93 24-144l48-287 467 0 36 36 36-36 467 0 z" fill="#D3D3D3"/>
		<path d="M1442-287l0 407 383 551c-127 81-271 120-419 120-132 0-259-31-375-95l339-566 0-417 72 0 z" fill="#8B62BF"/>
		<path d="M903-287l-288 0 0 287c0 237 106 460 288 610l0-897 z M2197-287l-288 0 0 897c185-153 288-376 288-610l0-287 z M1456-9c-9 0-14 4-14 13l0 264 1 8 202 478c68-23 131-51 191-90 3-56 10-111 10-167 0-32-86-10-86-42 0-24 64-59 64-84 0-5-1-9-4-12l-354-364c-3-3-6-4-10-4 z M1356-9c9 0 14 4 14 13l0 264-1 8-202 478c-68-23-131-51-191-90-3-56-10-111-10-167 0-32 85-8 85-43 0-24-64-55-64-82 0-5 2-10 5-13l354-364c3-3 6-4 10-4 z" fill="#E6E6E6"/>
		<path d="M1238-50l-25 0c-19 0-36 17-36 35 0 19 15 35 36 35l25 0 18-35-18-35 z M1058-50l-31 0 1 1-28 34 28 35 30 0c20 0 35-15 35-35 0-18-16-35-35-35 z M1700 83l0 512c0 167-136 303-303 303-169 0-304-138-304-303l0-148c-87-18-154-95-154-189l0-83 36-31 35 31 0 83c0 64 51 122 123 122 66 0 123-54 123-122l0-84 42-30 28 30 0 84c0 91-67 176-162 190l0 147c0 128 106 232 233 232 129 0 232-107 232-232l0-512 71 0 z" fill="#635994"/>
		<path d="M1670-41c51 0 90 39 90 90 0 51-39 91-90 91-51 0-91-40-91-91 0-51 40-90 91-90 z M1279-50c26 0 47 20 47 47l0 177-70 0 0-154-18 0 0-70 41 0 z M1028-49l0 70-18 0 0 154-71 0 0-178c0-27 21-46 47-46l42 0 z" fill="#0084CE"/>
		<path d="M1670-2c29 0 51 24 51 51 0 27-22 51-51 51-29 0-51-24-51-51 0-27 22-51 51-51 z" fill="#1C5CD7"/>
		<path d="M1721 1004c64 0 117 53 117 117 0 65-54 118-117 118-63 0-117-52-117-118 0-64 53-117 117-117 z M1073 1004c64 0 117 53 117 117 0 66-54 118-117 118-63 0-117-52-117-118 0-64 53-117 117-117 z" fill="#452829"/>
		<path d="M1406 539c80 0 144 69 144 152l0 100-288 0 0-100c0-81 64-152 144-152 z" fill="#452829"/>
		<path d="M1394 697c192 0 341 138 349 332 3 72 9 144 9 216 0 50-27 99-80 99l-226 0c-96 0-161 40-223 118-4 5-9 8-16 8-16 0-17-14-22-25-44-103-148-77-148-191 0-75 6-150 9-225 8-189 150-332 348-332 z" fill="#573739"/>
		<path d="M1629 1111c-48 18-93 28-141 44 21 30 53 58 93 58 26 0 92-13 92-49 0-21-30-39-44-53 z M1161 1111c47 17 95 28 142 44-21 30-53 58-93 58-26 0-93-13-93-48 0-24 29-41 44-54 z" fill="#000000"/>
		<path d="M1645 1107l-158 0c-7 0-16 6-16 13 0 48 52 86 97 86 40 0 98-34 98-79 0-10-10-20-21-20 z M1304 1107c7 0 16 6 16 13 0 48-52 86-97 86-40 0-98-34-98-79 0-10 10-20 21-20l158 0 z" fill="#FFFFFF"/>
		<path d="M1615 1107l-122 0c-1 3-2 5-2 8l0 9c0 36 29 63 63 63 17 0 32-6 45-18 15-16 18-37 18-54 0-3-1-5-2-8 z M1298 1107c1 3 2 5 2 8l0 9c0 36-29 63-63 63-36 0-63-29-63-63 0-7 1-10 2-17l122 0 z" fill="#7D4533"/>
		<path d="M1586 1108l-64 0c-3 5-4 9-4 16 0 18 17 36 36 36 19 0 36-15 36-36 0-6-1-11-4-16 z M1269 1108c3 5 4 10 4 16 0 18-17 36-36 36-19 0-36-15-36-36 0-4 1-9 4-16l64 0 z" fill="#000000"/>
		<path d="M1532 1137c8 0 12 4 12 12 0 7-5 11-12 11-7 0-11-4-11-11 0-7 4-12 11-12 z M1215 1137c8 0 12 4 12 12 0 7-5 11-12 11-7 0-11-4-11-11 0-7 4-12 11-12 z" fill="#FFFFFF"/>
		<path d="M1394 856c23 0 45 6 66 17 21 12 51 41 51 52 0 7-4 11-11 11l-2 0c-63-21-59-26-104-26-38 0-68 9-100 25l-5 1c-7 0-12-4-12-11l2-6c16-38 75-63 115-63 z" fill="#290118"/>
		<path d="M1421 976c21 0 37 17 37 36 0 6-2 15-5 27-17 58-30 120-59 120-12 0-20-6-25-19-8-28-38-105-38-128 0-19 16-36 37-36l53 0 z" fill="#3D2123"/>
		<path d="M1646 1250c5 0 10 2 14 6 3 3 5 8 5 13 0 7-3 13-9 16l-1-1 0 1-1 0 1 1c-2 1-4 1-5 2l-6 3c-13 7-28 12-43 15-16 3-32 5-47 5l-14 0c-6 0-11-1-16-2-5-1-10-3-13-6-4-3-6-8-6-13 0-5 2-10 5-13 3-4 8-6 13-6 5 0 11 0 16 1 5 1 10 1 15 1 10 0 20-1 30-3l28-8 21-8c6-3 10-4 13-4 z M1144 1250c10 0 52 23 92 23 11 0 19-2 30-2 9 0 19 6 19 17 0 17-18 23-34 23-35 0-126-8-126-43 0-11 8-18 19-18 z" fill="#000000"/>
	</g></svg>
