<svg version="1.1" xmlns="http://www.w3.org/2000/svg" viewBox="0 0 2300 2300"><g transform="scale(1,-1) translate(-256, -1869)">
		<path d="M2346 1068c-34 0-63 27-63 63 0 43 21 94 69 94 34 0 65-26 65-63 0-43-22-94-71-94 z M2197 1127c65 0 78 64 78 112 0 43-34 74-75 74-64 0-77-62-77-112 0-44 33-74 74-74 z M2018 1147c-45 0-81 38-81 82l0 41c0 44 36 81 81 81 44 0 82-36 82-81l0-41c0-44-35-82-82-82 z M2045-239c179 0 323 147 323 323l0 800c0 228-227 237-395 237-180 0-395-14-395-245 0-124 49-218 145-307 54-50 82-120 82-188 0-123-84-161-84-297 0-178 145-323 324-323 z M1583 1060c-63 0-108 44-120 100-5 27-14 55-14 84 0 65 51 123 123 123 61 0 109-42 121-100 5-27 14-55 14-84 0-70-56-123-124-123 z M1822 1149c51 0 88 43 88 91 0 63-19 133-96 133-48 0-89-41-89-89 0-64 18-135 97-135 z M469 1420c-49 0-70 51-70 94 0 36 29 63 63 63 49 0 71-52 71-95 0-36-30-62-64-62 z M618 1478c41 0 75 31 75 74 0 50-15 112-78 112-44 0-74-34-74-75 0-50 15-111 77-111 z M798 1500c-45 0-81 37-81 81l0 41c0 44 34 82 81 82 47 0 81-38 81-82l0-41c0-44-36-81-81-81 z M770 113c-179 0-322 148-322 324l0 799c0 230 226 238 394 238 182 0 396-15 396-246 0-123-49-219-144-306-50-46-83-115-83-190 0-120 84-159 84-297 0-177-144-322-325-322 z M1233 1412c-70 0-124 55-124 122l1 13c7 48 5 30 13 73 10 58 64 100 121 100 68 0 123-54 123-123 0-8-1-16-2-24l-11-61c-10-55-62-100-121-100 z M996 1500c75 0 94 71 94 136 0 48-41 89-89 89-79 0-96-71-96-135 0-51 40-90 91-90 z" fill="#635994"/>
	</g></svg>
