<svg version="1.1" xmlns="http://www.w3.org/2000/svg" viewBox="0 0 2300 2300"><g transform="scale(1,-1) translate(-256, -1869)">
		<path d="M2198-287l-73 143 1 42c0 250-84 506-317 643l-806 0c-245-144-316-420-316-685l-72-143 469 0 321 129 322-129 471 0 z" fill="#D3D3D3"/>
		<path d="M760-287l-143 0-1 72 69 80-65 85c24 202 125 391 281 520l4-756-145-1 z M2197-287l-287 0 0 758c172-142 287-367 287-587l0-171 z M1407 286c159 0 341 53 470 155 29 23 46 51 46 90 0 62-49 117-115 117l-803 0c-64 0-115-51-115-116 0-39 16-67 47-91 128-101 307-155 470-155 z" fill="#E6E6E6"/>
		<path d="M1550 72c38 0 72 33 72 72 0 39-34 72-72 72-39 0-72-31-72-72 0-39 31-72 72-72 z" fill="#F92F60"/>
		<path d="M762-215c13 0 24 10 24 24l0 116c0 14-10 25-25 25l-141 0c-3-19-4-39-4-58l1-107 145 0 z M1262 72c39 0 72 31 72 72 0 39-31 72-72 72-38 0-72-33-72-72 0-39 34-72 72-72 z" fill="#5092FF"/>
		<path d="M1729-287l0 229c0 33-27 58-58 58l-530 0c-31 0-58-25-58-58l0-229 646 0 z M2062 863l-97 0c27 68 40 142 40 215 0 49-6 97-18 144l75 0c34 0 63-26 63-62l0-235c0-36-29-62-63-62 z M847 863c-27 68-40 142-40 215 0 49 6 97 18 144l-75 0c-34 0-63-26-63-62l0-235c0-36 29-62 63-62l97 0 z" fill="#9B9B9B"/>
		<path d="M1388 491c327 0 593 262 593 593 0 327-262 593-593 593-327 0-593-262-593-593 0-327 262-593 593-593 z" fill="#212121"/>
		<path d="M1522 647c118 0 224 92 232 220 11 141 18 268 28 409l1 14 0 13c0 188-151 350-345 350l-64 0c-48 0-93-9-135-28-140-61-211-189-211-336l1-13c11-139 18-270 29-409 8-124 110-220 232-220l232 0 z" fill="#C68D7B"/>
		<path d="M1667 1090l-163 0c-7 0-16 6-16 13 0 52 54 88 100 88 39 0 99-35 99-82 0-10-9-19-20-19 z M1323 1090c7 0 16 6 16 13 0 52-54 88-100 88-39 0-99-35-99-82 0-10 9-19 20-19l163 0 z" fill="#FFFFFF"/>
		<path d="M1636 1089l-126 0c-1 7-2 10-2 17 0 35 28 66 65 66 37 0 65-31 65-66 0-7-1-10-2-17 z M1317 1089c1 7 2 11 2 18 0 35-28 65-65 65-37 0-65-31-65-66 0-7 1-10 2-17l126 0 z" fill="#7D4533"/>
		<path d="M1606 1090l-66 0c-3 5-5 11-5 17 0 21 16 37 38 37 21 0 37-15 37-37 0-7-1-12-4-17 z M1287 1090c3 5 5 11 5 17 0 21-16 37-38 37-21 0-37-15-37-37 0-7 1-12 4-17l66 0 z" fill="#000000"/>
		<path d="M1553 1121c7 0 11 4 11 11 0 7-4 12-11 12-6 0-12-5-12-12 0-7 5-11 12-11 z M1232 1121c7 0 12 4 12 11 0 7-5 12-12 12-7 0-11-5-11-12 0-7 4-11 11-11 z" fill="#FFFFFF"/>
		<path d="M1769 1135c22 1 40 18 44 40l40 224c1 5 2 9 2 13l0 13c0 121-98 120-164 186l-59 6c-30 30-71 49-114 49-41 0-71-20-112-20-44 0-76 26-118 26-36 0-70-16-95-41l-72-19c-64-70-164-67-164-188 0-8 1-17 2-25l40-224c4-22 22-39 45-40-3 37-7 74-7 111 0 58 63 58 63 127l0 63c0 20 10 33 29 38 89 27 187 32 277 32 88 0 189-5 277-32 17-5 28-19 28-38l0-63c0-70 65-73 65-128 0-36-4-74-7-110 z" fill="#593B39"/>
		<path d="M1164 1219c18 0 48 31 101 31l20-1c22 0 40 17 40 38 0 37-31 42-60 42-34 0-141-19-141-70 0-22 17-40 40-40 z M1663 1219c22 0 39 17 39 40 0 51-104 71-138 71-29 0-62-5-62-41 0-30 17-38 38-38l22-1c51 0 80-31 101-31 z" fill="#593B39"/>
		<path d="M1433 953c22 0 37 20 37 39 0 18-16 71-28 107-12 32-12 51-35 51-14 0-23-9-26-21-8-29-38-113-38-136 0-19 15-40 37-40l53 0 z" fill="#AB6A55"/>
		<path d="M1406 823c25 0 48 7 71 20 23 13 55 45 55 57 0 9-4 13-12 13l-6-2c-42-15-65-27-108-27-38 0-74 9-108 27l-6 2c-6 0-12-5-12-12 0-2 1-4 2-7 24-42 75-71 124-71 z" fill="#990839"/>
		<path d="M1931 1203c0 338-225 471-524 471-244 0-527-156-527-437 0-10 1-24 2-34 149 114 331 177 525 177 188 0 371-60 524-177 z" fill="#636363"/>
		<path d="M1765 743c19 0 36 15 36 36 0 19-15 36-36 36l-213 0c-19 0-36-15-36-36 0-19 15-36 36-36l213 0 z" fill="#636363"/>
		<path d="M1587 505c5 0 60 22 68 27 146 66 264 192 319 352l-132 0c-32 0-53-14-72-39-85-114-142-153-281-191-32-9-55-31-55-66l0-83 153 0 z" fill="#9B9B9B"/>
		<path d="M1406 431c355 0 647 288 647 647 0 355-288 647-647 647-360 0-647-290-647-647 0-355 288-647 647-647 z M1406 539c-294 0-539 239-539 539 0 296 239 540 539 540 298 0 539-243 539-540 0-294-239-539-539-539 z" fill="#D3D3D3"/>
	</g></svg>
