<?xml version="1.0" encoding="UTF-8" standalone="no"?>
<svg version="1.1" xmlns="http://www.w3.org/2000/svg" viewBox="0 0 2300 2300"><g transform="scale(1,-1) translate(-256, -1869)">
    <path
       d="M2110 570l71 1c3 92 4 174 8 266 4 132 126 150 126 324 0 118-69 222-181 271-41 18-69 43-88 85-53 112-150 195-290 195-65 0-119-17-176-53-16-11-32-16-52-16-17 0-35 5-52 16-58 36-109 53-174 53-91 0-164-35-228-99-28-28-58-42-97-53-81-19-140-55-194-110l0-1c-109-114-170-265-170-432l0-446 1497-1 z"
       fill="#F1B99B"
       id="path2"
       style="fill:#212121;fill-opacity:1" />
    <path
       d="M702 357c128 0 231 103 231 231 0 66-27 123-67 164-51 50-102 68-182 68l0-249c-36 0-71 31-71 71l0 81 1 80c-90-37-144-122-144-215 0-127 101-231 232-231 z M2093 357c32 0 62 6 90 18 28 12 53 29 74 50 21 21 37 45 50 73 12 28 18 58 18 90 0 46-12 88-37 127-25 38-58 66-100 85l0-26-3-50 1-28c0-21-2-40-6-59-4-19-11-34-21-47-11-13-27-20-49-20l9 249c-5 1-9 1-13 1l-13 0c-32 0-62-6-90-18-28-13-52-29-73-50-21-21-38-46-50-74-12-28-18-58-18-90 0-32 6-62 18-90 12-28 29-52 50-73 21-21 45-38 73-50 28-12 58-18 90-18 z"
       fill="#F4C6AD"
       id="path4" />
    <path
       d="M1397-285c397 0 700 302 711 698l3 157-1 0c3 89 9 180 9 269 0 83-66 159-156 159l-362 0c-159 0-285 72-379 191-1 3-5 6-8 6-11 0-20 0-20-15l0-124c0-31-25-58-58-58-97 0-183 49-236 123-14 21-25 43-35 65-3 3-5 8-9 8-11 0-13-1-16-11-14-70-37-118-88-174-41-45-68-86-68-147l0-291-3 0c3-55 2-103 5-158 16-397 310-698 711-698 z"
       fill="#FFD7C2"
       id="path6" />
    <path
       d="M1397 86c99 0 196 53 246 134 2 4 3 8 3 12 0 13-9 25-23 25-5 0-8-1-11-3-75-36-138-52-215-52-77 0-143 16-215 52-3 2-7 3-11 3-13 0-24-10-24-24 0-3 1-8 4-13 49-82 146-134 246-134 z"
       fill="#990839"
       id="path8" />
    <path
       d="M1396 285c44 0 125 38 125 91 0 27-21 52-50 52l-148 0c-29 0-51-24-51-51 0-54 79-92 124-92 z"
       fill="#F1B99B"
       id="path10" />
    <path
       d="M1912 526l-352 0c-18 0-37 15-37 36l1 7c22 108 114 178 217 178 101 0 190-70 214-167l1-11c0-25-21-43-44-43 z M1235 526c18 0 37 15 37 36l-1 7c-22 105-113 178-216 178-101 0-191-69-215-167l-1-11c0-25 21-43 44-43l352 0 z"
       fill="#FFFFFF"
       id="path12" />
    <path
       d="M1844 526l-272 0c-4 12-5 25-5 38 0 76 62 141 141 141 76 0 141-62 141-141 0-12-2-25-5-38 z M1224 526c3 13 5 26 5 38 0 77-65 141-142 141-76 0-141-62-141-141 0-12 2-25 5-38l273 0 z"
       fill="#7D4533"
       id="path14" />
    <path
       d="M1779 526l-143 0c-5 12-9 25-9 38 0 45 37 80 81 80 43 0 80-34 80-80 0-13-3-26-9-38 z M1159 526c5 12 9 25 9 38 0 45-37 80-81 80-43 0-80-34-80-80 0-13 3-26 9-38l143 0 z"
       fill="#000000"
       id="path16" />
    <path
       d="M1664 594c14 0 25 10 25 25 0 15-11 25-25 25-14 0-25-10-25-25 0-15 11-25 25-25 z M1039 594c14 0 25 10 25 25 0 15-11 25-25 25-14 0-25-10-25-25 0-15 11-25 25-25 z"
       fill="#FFFFFF"
       id="path18" />
    <path
       d="M1825 814c19 0 36 16 36 35 0 51-127 57-162 57l-25 0c-30 0-60-7-60-38 0-19 17-36 35-36 16 0 33 2 49 2 39 0 77-6 115-18l12-2 z M929 814l12 2c38 12 76 18 115 18 18 0 32-2 50-2 18 0 35 17 35 36 0 32-30 38-59 38l-26 0c-36 0-163-4-163-58 0-19 18-34 36-34 z"
       fill="#212121"
       id="path20" />
  </g>
</svg>
