<svg version="1.1" xmlns="http://www.w3.org/2000/svg" viewBox="0 0 2300 2300"><g transform="scale(1,-1) translate(-256, -1869)">
		<path d="M903-287l144 431-144 431c-181-152-288-372-288-611l0-251 288 0 z M2197-287l0 251c0 235-103 455-289 611l-179 36-107-36 95-239c24-62 43-98 62-164 60-220 42-153 130-459l288 0 z" fill="#E6E6E6"/>
		<path d="M1909-287l0 574c0 129-87 239-203 275-38 11-48 7-84 13-124 23-236 47-360 72l-359-72 0-862 1006 0 z" fill="#F4F4F4"/>
		<path d="M1592 303l0 120c0 59-28 117-78 152l394 0c-145 122-322 182-503 182-184 0-360-63-502-181l0-1 395 0c-48-34-81-89-81-152l0-120c103 0 188 82 188 187 0-104 82-187 187-187 z" fill="#F92F60"/>
		<path d="M1729 1006c58 0 108 49 108 108 0 57-46 108-108 108-59 0-107-48-107-108 0-58 47-108 107-108 z M1083 1006c59 0 107 49 107 108 0 60-49 108-107 108-61 0-108-48-108-108 0-58 49-108 108-108 z" fill="#8B5C56"/>
		<path d="M1516 672c112 0 214 84 222 204 10 131 16 249 26 380l1 12 0 12c0 180-148 326-329 326l-60 0c-201 0-330-163-330-338l28-392c8-120 110-204 222-204l220 0 z" fill="#966661"/>
		<path d="M1632 1100l-153 0c-7 0-16 6-16 13 0 47 53 83 95 83 37 0 94-35 94-77 0-10-9-19-20-19 z M1307 1101c7 0 16 5 16 12 0 47-53 83-95 83-37 0-94-35-94-77 0-11 9-18 20-18l153 0 z" fill="#FFFFFF"/>
		<path d="M1603 1100l-119 0-2 16c0 34 25 62 61 62 36 0 62-28 62-62l-2-16 z M1302 1100l2 16c0 34-25 62-61 62-36 0-62-28-62-62l2-16 119 0 z" fill="#7D4533"/>
		<path d="M1575 1100l-62 0c-3 5-4 10-4 16 0 19 17 36 35 36 18 0 35-17 35-36 0-6-1-11-4-16 z M1274 1100c3 5 4 10 4 16 0 19-17 36-35 36-19 0-35-15-35-36 0-6 1-11 4-16l62 0 z" fill="#000000"/>
		<path d="M1525 1130c7 0 10 6 10 11 0 5-3 11-10 11-7 0-11-4-11-11 0-7 4-11 11-11 z M1222 1130c7 0 11 4 11 11 0 7-4 11-11 11-7 0-11-4-11-11 0-7 4-11 11-11 z" fill="#FFFFFF"/>
		<path d="M1059 1150l-4 49c-2 16-3 32-3 47 0 13 4 23 11 30l22 21c8 7 16 14 23 23 9 12 10 25 10 46l-51-1-20 0c-24 1-48 1-72 1l38-181c3-11 8-20 17-25 9-6 18-9 29-10 z M1754 1150c10 1 20 4 29 10 9 6 15 14 17 25l37 181c-7 0-13 0-20 1l-20 0c-17 0-35 0-52-1l-26-1-26 1c0-18 4-32 11-41 7-10 14-18 23-25 9-7 17-15 24-22 7-7 10-18 10-31 0-16-1-32-2-48-2-17-4-33-5-49 z" fill="#FFF9BA"/>
		<path d="M1157 1223c8 0 16 3 23 8l1 0c29 19 55 20 91 20 21 0 37 17 37 36 0 35-29 40-56 40-33 0-133-18-133-67 0-21 15-37 37-37 z M1629 1223c21 0 37 15 37 37 0 49-97 68-131 68-27 0-58-4-58-41 0-26 18-34 37-34l19-1c51 0 75-29 96-29 z" fill="#372128"/>
		<path d="M1436 953c23 0 42 18 42 40 0 9-8 36-18 66-22 62-24 91-54 91-15 0-24-7-29-20-8-24-43-119-43-138 0-23 20-39 42-39l60 0 z" fill="#75443E"/>
		<path d="M1406 827c25 0 48 6 71 19 23 13 55 45 55 57 0 9-4 13-13 13l-2 0c-69-23-59-28-111-28-37 0-73 9-108 27l-6 2c-7 0-12-6-12-13 0-2 1-4 2-7 24-43 75-70 124-70 z" fill="#990839"/>
		<path d="M1808 1339c14 0 29 11 29 27l0 72c42 45 93 80 93 150 0 73-58 137-137 137l-777 0c-77 0-137-61-137-137 0-70 50-104 96-150l0-72c0-14 10-27 25-27l808 0 z" fill="#E6E6E6"/>
		<path d="M1716-207c-30 0-54 22-54 54 0 30 22 54 54 54 32 0 54-24 54-54 0-30-22-54-54-54 z M1716 55c-32 0-54 24-54 54 0 29 24 54 54 54 30 0 54-25 54-54 0-30-22-54-54-54 z M1716 316c-30 0-54 22-54 54 0 29 24 54 54 54 30 0 54-25 54-54 0-32-24-54-54-54 z M1655 1436l-65 0 64 184c5 13 14 20 29 20 17 0 32-12 32-31 0-17-52-149-60-173 z M1218 1436l-64 184c-5 13-14 20-29 20-17 0-32-12-32-31 0-17 52-149 60-173l65 0 z M1438 1436l0 172c0 18-14 33-33 33-19 0-34-15-34-33l0-172 67 0 z" fill="#D3D3D3"/>
		<path d="M2268 0l0 150c0 40-34 66-71 66-37 0-72-26-72-66l0-150 143 0 z" fill="#8B5C56"/>
		<path d="M2087-195c28 0 52 23 52 52l0 503c0 24 13 45 32 60 53 40 73 108 73 174 0 93-45 198-156 198-111 0-157-106-157-199 0-61 20-132 74-174 19-15 31-35 31-60l0-500c0-26 22-54 51-54 z" fill="#F3C07B"/>
		<path d="M2088 444c83 0 118 80 118 150 0 71-37 150-118 150-83 0-118-80-118-150 0-71 36-150 118-150 z" fill="#F3AD61"/>
		<path d="M2211-287c36 0 57 30 57 62l0 253c0 32-21 62-57 62l-215 0c-33 0-50-29-50-58 0-16 8-32 21-43-15-11-22-25-22-44 0-19 7-34 22-45-15-11-22-25-22-44 0-19 7-34 22-45-14-11-21-25-21-42 0-30 17-56 50-56l215 0 z" fill="#966661"/>
	</g></svg>
