<svg version="1.1" xmlns="http://www.w3.org/2000/svg" viewBox="0 0 2300 2300"><g transform="scale(1,-1) translate(-256, -1869)">
		<path d="M1517 1222l146 25-23 142-145-22 22-145 z" fill="#BB806E"/>
		<path d="M2096-74l98 63-289 391c-16 20-63 256-74 291l-185-179c13-48 25-96 40-144 11-36 85-101 114-130l296-292 z" fill="#636363"/>
		<path d="M1684-181l-19 510 150 254c12 20 18 42 18 65 0 23-7 48-10 71l-163 38-179-38-17-315c0-62 9-107 23-170l81-360 51-55 65 0 z" fill="#9B9B9B"/>
		<path d="M1667-288c11 0 17 9 17 18l0 89c-14 8-108 54-116 54l-192-115c-6-4-11-13-11-20 0-15 12-26 26-26l276 0 z M2040-286c7 0 13 3 18 8l188 202c3 3 5 7 5 12 0 16-61 64-75 78l-115-52c-8-29-47-213-47-223 0-15 11-25 26-25 z" fill="#321B41"/>
		<path d="M1236 574c21 0 31 18 48 27l0 14 21 39c131 102 236 238 279 406 4 14 9 33 9 47l1 1c0 42-22 73-67 73-34 0-62-23-66-59-19-145-144-295-254-376l-14 7c-21-13-52-20-52-48 0-11 3-22 3-33-9-6-14-14-14-23 0-36 71-75 106-75 z" fill="#C68D7B"/>
		<path d="M1518 896c24 0 86 200 86 234 0 42-35 75-76 75-36 0-63-27-70-61-11-63-34-118-61-174l-1-5c0-11 114-69 122-69 z" fill="#0092E7"/>
		<path d="M1823 719l-43 398c-8 85-83 152-170 152-101 0-170-83-170-178l41-372 342 0 z" fill="#00A6ED"/>
		<path d="M602-273c32 0 59 26 59 59 0 7-1 13-3 19l104 140 3 26-8 24-50-11-103-139c-33 0-61-23-61-59 0-32 26-59 59-59 z M877 156l50 14 291 395-55 39-290-394 4-54 z" fill="#D3D3D3"/>
		<path d="M761-56l166 226-54 40-166-226 54-40 z" fill="#F92F60"/>
		<path d="M1194 519c-3 0-8 2-13 6-26 16-54 35-54 48 0 13 38 57 46 67 5-5 12-8 20-8 14 0 26 12 26 27 0 11-6 22-9 31 5 8 20 35 33 35 3 0 7-2 13-5 27-17 54-36 54-48 0-12-47-75-81-117-22-29-25-36-35-36 z M1267 589c55 3 97 50 97 102 0 56-45 102-102 102-36 0-71-19-89-53 10 4 21 6 33 6 15 16 33 24 56 24 43 0 79-34 79-79 0-36-24-66-57-76-5-9-10-17-17-26 z" fill="#635994"/>
		<path d="M1947 593c7 0 16 2 28 5 11 3 23 7 35 12 11 5 21 11 30 18 8 7 12 14 12 23 0 11-2 22-5 32-4 9-8 19-11 29-29 77-62 149-99 216-38 67-86 131-143 190-9 9-20 20-35 33-15 13-31 25-48 37-17 12-33 22-50 31-17 9-32 13-45 13-12 0-22-3-31-9-9-7-16-15-21-26l28-90c19-11 38-24 57-38 18-15 35-30 51-46 63-63 114-134 152-213 7-14 12-28 17-43 5-15 10-29 17-42l4-6c-5-7-10-15-14-24-4-9-6-17-6-26 0-6 1-11 4-15 3-5 6-9 10-12l25-18 0-5c0-10 3-17 10-20 8-4 17-6 28-6 z" fill="#C68D7B"/>
		<path d="M1729 991l7 3c11 11 97 81 97 92 0 3-1 5-4 8-47 55-108 107-174 144-13 7-26 11-39 11-31 0-59-21-71-48 0-3-4-18-4-25 0-26 14-50 37-64 55-36 90-68 142-117 3-3 6-4 9-4 z" fill="#3BC6F6"/>
		<path d="M1486 1277c51 0 143 30 159 87 8 36 46 169 46 169 0 63-52 116-115 116l-76 0c-65 0-115-54-115-115l0-32c0-32-31-53-31-71 0-29 27-20 32-31 3-71 15-123 100-123 z" fill="#C68D7B"/>
		<path d="M1470 1468c5 0 8 5 8 9 0 20-15 34-36 34-18 0-36-12-36-33 0-7 3-10 8-10l56 0 z" fill="#FFFFFF"/>
		<path d="M1448 1468l1 10c0 12-6 28-21 28-15 0-22-16-22-28l1-10 41 0 z" fill="#7D4533"/>
		<path d="M1433 1468c2 3 3 6 3 10 0 7-4 16-12 16-8 0-12-9-12-16 0-4 1-7 3-10l18 0 z" fill="#000000"/>
		<path d="M1416 1483c4 1 6 3 6 6 0 1-1 3-3 5-3 0-6-1-6-4 0-3 2-4 3-7 z" fill="#FFFFFF"/>
		<path d="M1422 1362c8 0 17 3 26 9 9 6 14 14 14 23 0 2-1 4-3 5-2 1-4 2-6 2-2 0-3-1-4-4-1-3-3-5-5-8-2-3-4-6-7-8-3-3-8-4-14-4l-14 2c-3 0-5-3-5-7 0-5 2-7 7-8 4-1 8-2 11-2 z" fill="#990839"/>
		<path d="M1472 1514c5 0 9 2 12 5 2 3 3 6 3 11-1 4-4 8-8 11l-15 9c-6 2-12 4-18 5-6 1-11 1-15 1-4 0-8 0-11-1-3-1-7-2-10-5-1-1-1-3-2-5-1-2-1-4-1-6l2-6c2-3 5-6 9-7l7 0c2 0 4 0 6 1l4 0c8 0 15-2 21-6 7-5 12-7 16-7 z" fill="#593B39"/>
		<path d="M1650 1401c20 0 36 8 49 23 12 15 21 34 28 55 6 21 10 43 12 66 2 23 3 41 3 55 0 29-9 53-27 72-18 19-41 29-70 29-7 0-13 1-18 3l-32 12c-5 2-11 3-17 3-9 0-17-1-24-4-7-3-15-4-24-4-11 0-20 2-29 7-9 4-18 6-29 6-10 0-18-2-24-5-6-3-11-7-15-11-5-5-9-9-13-12-4-3-9-5-16-5-15 0-29-5-40-14-11-10-17-23-17-40 0-18 5-31 15-39 10-8 23-13 38-16 10-2 20-3 30-3l44 2 24-1c15-1 28-3 38-8 10-5 15-13 15-26 0-11 3-19 8-24 5-5 13-7 24-7 11 0 21-6 29-17 8-11 12-22 12-33 0-7-2-14-6-20-4-6-9-11-14-15 3-8 10-15 19-20 9-6 18-9 27-9 z" fill="#593B39"/>
	</g></svg>
