<svg version="1.1" xmlns="http://www.w3.org/2000/svg" viewBox="0 0 2300 2300"><g transform="scale(1,-1) translate(-256, -1869)">
		<path d="M2413-100c0 132-57 266-132 335-152 140-381 113-561 231-117 77-170 195-170 322l0 787c0 84-71 150-150 150l-850 0c-83 0-150-68-150-150l0-1280 637 0 185-395 1191 0 z" fill="#CA0B4A"/>
		<path d="M2356-288c26 0 57 23 57 52l0 136-982 0c-141 0-188 50-210 187-29 183-129 246-310 246l-511 0 0-238 1 0 0-349c0-18 15-33 34-33l296 0c19 0 33 15 33 33l0 403 94 0c11 0 23-1 34-4 100-24 144-94 154-205 11-126 92-227 224-227l1086-1 z" fill="#F3C07B"/>
		<path d="M758 791c38 0 71 32 71 71l0 863-142 0 0-863c0-38 32-71 71-71 z" fill="#F3C07B"/>
	</g></svg>
