<svg version="1.1" xmlns="http://www.w3.org/2000/svg" viewBox="0 0 2300 2300"><g transform="scale(1,-1) translate(-256, -1869)">
		<path d="M2295-162l-147 0-257 522 18 143-144 0 36-143-75-522-140 0 0 522 72 180 359-1c87-174 56-92 153-353l125-348 z M1361-162l-126 348c-24 68-39 115-63 174l-89 179-360 1-72-180 0-522 141 0 75 522-36 143 144 0-19-143 258-522 147 0 z M633 629c-29 0-54 24-54 54l1 6-105 84c-27 22-39 63-39 94 0 93 84 121 156 163l54-95-84-48c-7-3-13-10-13-18 0-3 1-11 4-14l135-113c13-11 19-24 19-40 0-19-10-41-29-49-11-16-26-24-45-24 z M1100 629c-18 0-35 10-44 24-19 8-29 30-29 49 0 16 6 29 19 40l135 113c3 3 4 11 4 14 0 8-6 15-13 18l-84 48 54 95c65-39 156-68 156-163 0-30-12-73-39-94l-105-84c0-32-18-60-54-60 z M1568 629c19 0 34 9 45 24 19 10 28 30 28 49 0 16-6 29-19 40l-135 113c-3 3-3 10-3 13 0 5 1 10 4 13 28 21 61 37 92 54l-54 95c-68-39-156-70-156-164 0-30 13-72 39-93l105-84c0-32 18-60 54-60 z M2035 629c32 0 54 24 54 54l-1 6 105 84c26 21 40 62 40 92 0 97-87 125-156 165l-54-95 83-48c9-5 13-11 13-19 0-4-1-10-4-13l-135-113c-12-11-19-27-19-43 0-19 12-40 29-46 11-16 26-24 45-24 z" fill="#FCD53F"/>
		<path d="M2053 917l-225 131c-18 11-27 30-27 48 0 32 26 54 56 54 9 0 18-2 26-7l225-131-55-95 z M1550 917l224 131c18 10 27 26 27 48 0 32-25 54-55 54-10 0-19-2-27-7l-224-131 55-95 z M1118 917l-224 131c-18 11-27 30-27 48 0 32 26 54 56 54 8 0 17-2 26-7l224-131-55-95 z M615 917l225 131c18 11 27 30 27 48 0 32-26 54-56 54-9 0-18-2-26-7l-225-131 55-95 z" fill="#321B41"/>
		<path d="M1406-287l-52 143-149 0c40-87 101-143 201-143 z M653-287c87 0 131 62 142 143l-144 0 0-143 2 0 z M2340-287l-52 143-149 0c41-83 97-143 201-143 z M1587-287c69 0 128 49 138 115l4 28-143 0 0-143 1 0 z M2107 360l-90 287 0 288c0 119-97 215-216 215-120 0-215-97-215-215l0-575 215 0 16 119c4 7 2 5 9 7l6-2c5-5 53-110 59-124l216 0 z M1172 360l-89 287 0 288c0 119-97 215-216 215-121 0-216-97-216-215l0-575 216 0 15 119c6 7 2 4 10 7l6-2c5-5 53-111 58-124l216 0 z" fill="#533566"/>
		<path d="M1801 1023c7 0 12 3 15 8l75 119-180 0 75-119c3-5 8-8 15-8 z M867 1023c7 0 12 3 15 8l75 119-180 0 75-119c3-5 8-8 15-8 z" fill="#F9C23C"/>
		<path d="M1937 1184c26 11 41 37 41 63l0 29c-5-4-10-6-15-7 3 23 5 45 9 68 1 3 3 19 6 19 0 48 21 55 21 88 0 70-64 58-90 102-13 22-36 35-61 35-18 0-31-10-47-10-15 0-28 10-46 10-27 0-46-13-61-34-28-44-90-36-90-103 0-37 21-40 21-89l1 0c0-7 1-3 3-10 6-32 7-45 11-77l-16 8c0-37 1-76 41-92-5 11-7 24-10 36l293 0c-2-13-6-25-11-36 z M1003 1184c11 4 19 9 24 16 5 7 9 14 12 22 3 8 4 17 5 26l0 28c-3-1-5-3-7-4l-8-3 4 30 3 29 3 11c0 4 0 8 1 11l2 4 0 2 1 0c0 12 1 22 4 29 2 7 4 14 7 20 2 5 4 11 7 16 2 5 3 13 3 22 0 18-3 32-10 41-7 9-15 16-24 21l-30 16c-11 5-19 14-26 25-15 23-35 35-61 35-9 0-17-2-24-5-7-3-15-5-22-5-7 0-15 2-22 5-7 3-15 5-24 5-13 0-25-3-35-9-10-6-19-14-26-25-7-11-16-20-26-25l-30-17c-10-6-18-13-25-22-7-9-10-22-10-40 0-9 1-17 4-22 2-5 4-11 7-16 2-6 4-13 7-20 2-7 3-17 3-30 1 0 3-3 4-9l8-44 4-34-16 8 0-29c0-13 4-26 11-37 7-12 17-21 30-26-5 11-9 23-11 36l293 0-4-18c-1-7-3-13-6-18 z" fill="#FFB02F"/>
		<path d="M1950 1266c27 0 50 21 50 50 0 26-23 50-50 50-26 0-50-23-50-50 0-27 21-50 50-50 z M1654 1266c26 0 50 23 50 50 0 26-23 50-50 50-26 0-50-23-50-50 0-27 21-50 50-50 z M1016 1265c26 0 50 23 50 50 0 26-23 51-50 51-29 0-50-24-50-51 0-27 21-50 50-50 z M719 1265c29 0 50 23 50 50 0 27-21 51-50 51-27 0-50-25-50-51 0-26 23-50 50-50 z" fill="#FECA46"/>
		<path d="M1830 1116c56 0 115 43 120 106 3 60 10 122 10 174 0 22-20 44-43 44l-35 0c-30 0-55 6-76 45-5 8-8 13-19 13l-39 0c-56 0-102-49-102-105l0-29-2 0 9-142c3-58 63-106 119-106l58 0 z M896 1116c55 0 113 44 119 106 4 59 10 115 10 174 0 22-18 44-42 44l-36 0c-31 0-55 8-75 45-5 8-8 13-19 13l-39 0c-58 0-103-48-103-105l0-29-1 0 9-142c3-58 63-106 119-106l58 0 z" fill="#FCD53F"/>
		<path d="M1801 1186c13 0 50 14 50 31 0 3-2 5-5 5-3 0-26-12-45-12-18 0-41 12-44 12-3 0-5-2-5-5 0-17 36-31 49-31 z M867 1186c14 0 50 15 50 31 0 3-2 5-5 5-4 0-26-12-45-12-19 0-42 12-45 12-3 0-5-2-5-5 0-16 37-31 50-31 z" fill="#990838"/>
		<path d="M1908 1304c6 0 9 3 9 9 0 19-23 35-42 35-20 0-42-15-42-38 0-4 2-6 7-6l68 0 z M1763 1304c5 0 7 2 7 6 0 22-22 38-42 38-18 0-42-16-42-35 0-6 3-9 9-9l68 0 z M974 1304c5 0 8 3 8 8 0 20-23 36-42 36-20 0-42-16-42-38 0-4 2-6 7-6l69 0 z M829 1304c5 0 7 5 7 9 0 19-25 35-43 35-19 0-41-16-41-36 0-5 3-8 8-8l69 0 z" fill="#FFFFFF"/>
		<path d="M1895 1304l1 8c0 14-13 28-28 28-14 0-27-13-27-28l1-8 53 0 z M1761 1304l1 8c0 14-13 28-28 28-14 0-27-13-27-28l1-8 53 0 z M960 1304l1 8c0 15-13 28-27 28-15 0-27-12-27-26l1-10 52 0 z M826 1304l1 8c0 15-13 28-27 28-15 0-28-14-28-28l1-8 53 0 z" fill="#7D4533"/>
		<path d="M1882 1304l2 8c0 11-5 16-16 16-9 0-15-8-15-16l1-8 28 0 z M1748 1304l2 8c0 11-5 16-16 16-9 0-15-8-15-16l1-8 28 0 z M948 1304l1 8c0 8-6 16-15 16-11 0-16-5-16-16l2-8 28 0 z M814 1304l1 8c0 8-6 16-15 16-11 0-16-5-16-16l2-8 28 0 z" fill="#000000"/>
		<path d="M1860 1318c-3 0-5 2-5 5 1 3 3 5 5 5l5-5c0-2-2-4-5-5 z M1725 1318c-3 0-5 2-5 5 1 3 3 5 5 5l5-5c0-2-2-4-5-5 z M925 1318c-3 1-5 3-5 5l5 5c1 0 3-2 5-5 0-3-2-5-5-5 z M790 1318c3 0 5 2 5 5-2 3-4 5-5 5l-4-5c0-2 1-4 4-5 z" fill="#FFFFFF"/>
		<path d="M1813 1230c9 0 17 7 17 16 0 7-2 16-7 29-9 26-10 38-22 38-5 0-8-3-11-9-3-8-18-49-18-57 0-9 8-17 17-17l24 0 z M879 1230c9 0 17 8 17 17 0 17-16 66-29 66-5 0-9-3-12-9-3-11-17-48-17-57 0-9 8-17 17-17l24 0 z" fill="#FFB02E"/>
		<path d="M1696 1371c1 0 3 0 4 1 1 1 2 1 3 1 3 3 9 6 17 8 8 2 14 3 19 3l13 0c3 0 5 3 5 9 0 5-2 7-5 8-4 1-8 1-11 1-3 0-7 0-12-1-6-1-12-3-18-5-6-2-11-4-15-7-5-3-7-6-7-10 0-5 2-8 7-8 z M1911 1371c5 0 8 3 8 8l-3 7c-6 6-13 10-20 13-7 2-15 3-23 3-4 0-9 0-14-1-6-1-9-4-9-10 0-4 2-7 6-7l14 0c11 0 20-2 27-6 7-5 11-7 14-7 z M762 1371c2 0 3 2 7 2 10 10 33 11 48 11 4 0 6 3 6 9 0 5-2 7-6 8l-11 1c-11 0-52-8-52-23 0-5 3-8 8-8 z M976 1371c5 0 8 5 8 9l-2 6c-15 12-25 16-43 16l-14 0c-6-1-9-4-9-9 0-6 2-9 7-9l13 0c26 0 33-13 40-13 z" fill="#D37034"/>
		<path d="M1899 1518c27 37 44 109 44 155 0 11-3 52-22 52-45 0-74-136-77-176l55-31 z M965 1518c27 42 44 106 44 154 0 11-3 53-22 53-45 0-77-136-77-176l55-31 z" fill="#321B41"/>
		<path d="M1944 1448c10 1 13 0 13 10l-1 4c-16 71-82 121-153 121-17 0-33-2-47-7-5 28-33 149-74 149-21 0-22-38-22-52 0-43 13-97 32-136-16-16-42-57-42-78 0-5 3-11 10-11 3 0 6 1 9 3 36 34 81 71 135 71 34 0 77-22 107-45 15-12 19-22 33-29 z M1010 1448c7 0 7 1 12 6l0 8c-16 70-81 121-153 121-17 0-33-2-47-7-5 28-34 149-74 149-22 0-23-37-23-52 0-48 15-96 33-136-16-16-43-58-43-79l1-2c3-8 3-8 12-8 3 0 73 74 141 74 67 0 138-74 141-74 z" fill="#533566"/>
	</g></svg>
