<svg version="1.1" xmlns="http://www.w3.org/2000/svg" viewBox="0 0 2300 2300"><g transform="scale(1,-1) translate(-256, -1869)">
		<path d="M1935 1114c56 0 100 44 100 100 0 19-12 36-12 51 0 15 12 33 12 52 0 15-3 28-9 40l1 0c-12 24-26 45-26 72 0 56-45 102-102 102-13 0-39 50-98 50-35 0-62-15-83-42-5-7-9-8-17-8-41-2-77-25-92-62-12-29-5-63-24-96-10-18-17-33-17-56 0-21 11-39 11-52 0-13-11-30-11-51 0-56 44-100 100-100l267 0 z M1000 1114c56 0 100 44 100 100 0 21-12 38-12 51 0 13 12 31 12 52 0 19-5 38-16 56l-1 0c-11 18-16 37-16 56 0 58-48 102-103 102-13 0-39 50-97 50-33 0-64-15-84-42-5-6-8-8-16-8-54-3-100-42-100-102 0-42-34-72-34-112 0-19 12-39 12-52 0-11-12-32-12-51 0-56 44-100 100-100l267 0 z" fill="#FFB02F"/>
		<path d="M2295-162l-147 0-257 522 18 143-144 0 36-143-75-522-140 0 0 522 72 180 359-1c87-174 56-92 153-353l125-348 z M1361-162l-126 348c-24 68-39 115-63 174l-89 179-360 1-72-180 0-522 141 0 75 522-36 143 144 0-19-143 258-522 147 0 z M633 629c-29 0-54 24-54 54l1 6-105 84c-27 22-39 63-39 94 0 93 84 121 156 163l54-95-84-48c-7-3-13-10-13-18 0-3 1-11 4-14l135-113c13-11 19-24 19-40 0-19-10-41-29-49-11-16-26-24-45-24 z M1100 629c-18 0-35 10-44 24-19 8-29 30-29 49 0 16 6 29 19 40l135 113c3 3 4 11 4 14 0 8-6 15-13 18l-84 48 54 95c65-39 156-68 156-163 0-30-12-73-39-94l-105-84c0-32-18-60-54-60 z M1568 629c19 0 34 9 45 24 19 10 28 30 28 49 0 16-6 29-19 40l-135 113c-3 3-3 10-3 13 0 5 1 10 4 13 28 21 61 37 92 54l-54 95c-68-39-156-70-156-164 0-30 13-72 39-93l105-84c0-32 18-60 54-60 z M2035 629c32 0 54 24 54 54l-1 6 105 84c26 21 40 62 40 92 0 97-87 125-156 165l-54-95 83-48c9-5 13-11 13-19 0-4-1-10-4-13l-135-113c-12-11-19-27-19-43 0-19 12-40 29-46 11-16 26-24 45-24 z" fill="#FCD53F"/>
		<path d="M2053 917l-225 131c-18 11-27 30-27 48 0 32 26 54 56 54 9 0 18-2 26-7l225-131-55-95 z M1550 917l224 131c18 10 27 26 27 48 0 32-25 54-55 54-10 0-19-2-27-7l-224-131 55-95 z M1118 917l-224 131c-18 11-27 30-27 48 0 32 26 54 56 54 8 0 17-2 26-7l224-131-55-95 z M615 917l225 131c18 11 27 30 27 48 0 32-26 54-56 54-9 0-18-2-26-7l-225-131 55-95 z" fill="#321B41"/>
		<path d="M1406-287l-52 143-149 0c40-87 101-143 201-143 z M653-287c87 0 131 62 142 143l-144 0 0-143 2 0 z M2340-287l-52 143-149 0c41-83 97-143 201-143 z M1587-287c69 0 128 49 138 115l4 28-143 0 0-143 1 0 z M2107 360l-90 287 0 288c0 119-97 215-216 215-120 0-215-97-215-215l0-575 215 0 16 119c4 7 2 5 9 7l6-2c5-5 53-110 59-124l216 0 z M1172 360l-89 287 0 288c0 119-97 215-216 215-121 0-216-97-216-215l0-575 216 0 15 119c6 7 2 4 10 7l6-2c5-5 53-111 58-124l216 0 z" fill="#533566"/>
		<path d="M1801 1023c7 0 12 3 15 8l75 119-180 0 75-119c3-5 8-8 15-8 z M867 1023c7 0 12 3 15 8l75 119-180 0 75-119c3-5 8-8 15-8 z" fill="#F9C23C"/>
		<path d="M1950 1266c27 0 50 21 50 50 0 26-23 50-50 50-26 0-50-23-50-50 0-27 21-50 50-50 z M1654 1266c26 0 50 23 50 50 0 26-23 50-50 50-26 0-50-23-50-50 0-27 21-50 50-50 z M1016 1265c26 0 50 23 50 50 0 26-23 51-50 51-29 0-50-24-50-51 0-27 21-50 50-50 z M719 1265c29 0 50 23 50 50 0 27-21 51-50 51-27 0-50-25-50-51 0-26 23-50 50-50 z" fill="#FECA46"/>
		<path d="M1804 1114c88 0 153 61 158 149 1 31 4 62 4 93 0 22-11 43-36 43l-102 0c-65 0-103 57-108 57-8 0-19-37-50-52l-2 0c-23-12-25-33-25-56 0-28 2-57 3-85 3-85 70-149 158-149 z M870 1114c22 0 42 4 61 11 19 7 35 18 49 31 14 13 25 29 34 47 8 18 13 38 14 60l3 47c1 15 1 31 1 46 0 11-3 21-9 30-7 9-16 13-27 13l-102 0c-17 0-31 3-44 9-13 6-24 13-33 20-9 7-17 13-22 19-5 6-9 9-10 9-2 0-3-1-4-2l-3-4-8-16-8-10-10-9-15-10-2-1-1 0c-17-10-26-25-26-46 0-15 1-31 2-47l2-48c1-22 5-42 14-60 9-18 20-34 34-47 14-13 31-24 50-31 19-7 39-11 60-11 z" fill="#FCD53F"/>
		<path d="M1801 1186c13 0 50 14 50 31 0 3-2 5-5 5-3 0-26-12-45-12-18 0-41 12-44 12-3 0-5-2-5-5 0-17 36-31 49-31 z M867 1186c14 0 50 15 50 31 0 3-2 5-5 5-4 0-26-12-45-12-19 0-42 12-45 12-3 0-5-2-5-5 0-16 37-31 50-31 z" fill="#990838"/>
		<path d="M1906 1304c7 5 22 11 22 22 0 14-29 22-40 22-17 0-34-12-42-27 20-7 40-10 60-17 z M1700 1304c20 7 40 10 60 17-8 15-25 27-42 27-10 0-40-8-40-22 0-11 15-17 22-22 z M972 1304c7 4 22 12 22 22 0 14-29 22-40 22-17 0-34-12-42-27 20-7 41-10 60-17 z M766 1304c19 8 40 10 60 17-9 14-24 27-43 27-10 0-39-9-39-23 0-10 15-17 22-21 z" fill="#000000"/>
		<path d="M1908 1304c6 0 9 3 9 9 0 19-23 35-42 35-20 0-42-15-42-38 0-4 2-6 7-6l68 0 z M1763 1304c5 0 7 2 7 6 0 22-22 38-42 38-18 0-42-16-42-35 0-6 3-9 9-9l68 0 z M974 1304c5 0 8 3 8 8 0 20-23 36-42 36-20 0-42-16-42-38 0-4 2-6 7-6l69 0 z M829 1304c5 0 7 5 7 9 0 19-25 35-43 35-19 0-41-16-41-36 0-5 3-8 8-8l69 0 z" fill="#FFFFFF"/>
		<path d="M1895 1304l1 8c0 14-13 28-28 28-14 0-27-13-27-28l1-8 53 0 z M1761 1304l1 8c0 14-13 28-28 28-14 0-27-13-27-28l1-8 53 0 z M960 1304l1 8c0 15-13 28-27 28-15 0-27-12-27-26l1-10 52 0 z M826 1304l1 8c0 15-13 28-27 28-15 0-28-14-28-28l1-8 53 0 z" fill="#7D4533"/>
		<path d="M1882 1304l2 8c0 11-5 16-16 16-9 0-15-8-15-16l1-8 28 0 z M1748 1304l2 8c0 11-5 16-16 16-9 0-15-8-15-16l1-8 28 0 z M948 1304l1 8c0 8-6 16-15 16-11 0-16-5-16-16l2-8 28 0 z M814 1304l1 8c0 8-6 16-15 16-11 0-16-5-16-16l2-8 28 0 z" fill="#000000"/>
		<path d="M1860 1318c-3 0-5 2-5 5 1 3 3 5 5 5l5-5c0-2-2-4-5-5 z M1725 1318c-3 0-5 2-5 5 1 3 3 5 5 5l5-5c0-2-2-4-5-5 z M925 1318c-3 1-5 3-5 5l5 5c1 0 3-2 5-5 0-3-2-5-5-5 z M790 1318c3 0 5 2 5 5-2 3-4 5-5 5l-4-5c0-2 1-4 4-5 z" fill="#FFFFFF"/>
		<path d="M1813 1230c9 0 17 7 17 16 0 7-2 16-7 29-9 26-10 38-22 38-5 0-8-3-11-9-3-8-18-49-18-57 0-9 8-17 17-17l24 0 z M879 1230c9 0 17 8 17 17 0 17-16 66-29 66-5 0-9-3-12-9-3-11-17-48-17-57 0-9 8-17 17-17l24 0 z" fill="#FFB02E"/>
		<path d="M1696 1371c1 0 3 0 4 1 1 1 2 1 3 1 3 3 9 6 17 8 8 2 14 3 19 3l13 0c3 0 5 3 5 9 0 5-2 7-5 8-4 1-8 1-11 1-3 0-7 0-12-1-6-1-12-3-18-5-6-2-11-4-15-7-5-3-7-6-7-10 0-5 2-8 7-8 z M1911 1371c5 0 8 3 8 8l-3 7c-6 6-13 10-20 13-7 2-15 3-23 3-4 0-9 0-14-1-6-1-9-4-9-10 0-4 2-7 6-7l14 0c11 0 20-2 27-6 7-5 11-7 14-7 z M762 1371c2 0 3 2 7 2 10 10 33 11 48 11 4 0 6 3 6 9 0 5-2 7-6 8l-11 1c-11 0-52-8-52-23 0-5 3-8 8-8 z M976 1371c5 0 8 5 8 9l-2 6c-15 12-25 16-43 16l-14 0c-6-1-9-4-9-9 0-6 2-9 7-9l13 0c26 0 33-13 40-13 z" fill="#D37034"/>
		<path d="M1899 1518c27 37 44 109 44 155 0 11-3 52-22 52-45 0-74-136-77-176l55-31 z M965 1518c27 42 44 106 44 154 0 11-3 53-22 53-45 0-77-136-77-176l55-31 z" fill="#321B41"/>
		<path d="M1944 1448c10 1 13 0 13 10l-1 4c-16 71-82 121-153 121-17 0-33-2-47-7-5 28-33 149-74 149-21 0-22-38-22-52 0-43 13-97 32-136-16-16-42-57-42-78 0-5 3-11 10-11 3 0 6 1 9 3 36 34 81 71 135 71 34 0 77-22 107-45 15-12 19-22 33-29 z M1010 1448c7 0 7 1 12 6l0 8c-16 70-81 121-153 121-17 0-33-2-47-7-5 28-34 149-74 149-22 0-23-37-23-52 0-48 15-96 33-136-16-16-43-58-43-79l1-2c3-8 3-8 12-8 3 0 73 74 141 74 67 0 138-74 141-74 z" fill="#533566"/>
	</g></svg>
