<svg version="1.1" xmlns="http://www.w3.org/2000/svg" viewBox="0 0 2300 2300"><g transform="scale(1,-1) translate(-256, -1869)">
		<path d="M1728 863c178 0 323 145 323 324 0 179-147 323-323 323l-70 36 13 35c-86 90-207 144-338 144-134 0-253-55-339-144l17-35-74-36c-176 0-321-147-321-323 0-179 145-324 323-324l789 0 z" fill="#7D4533"/>
		<path d="M1728 1510c-17 25-35 49-57 71l-677 0c-21-21-40-45-56-71l790 0 z" fill="#533566"/>
		<path d="M1652 607c128 0 243 105 243 236 0 39-8 72-24 108-3 7-4 10-4 17 0 7 1 11 4 18 15 35 23 68 23 105 0 165-164 289-324 289l-543 0c-109 0-149-78-208-154-31-40-41-86-41-135 0-35 8-70 23-105 3-5 4-11 4-18 0-6-1-12-4-17-15-33-23-66-23-102 0-137 110-242 243-242l631 0 z" fill="#593B39"/>
		<path d="M1334 144l359 72 72 215-72 238c-114 58-236 87-360 87-128 0-249-30-358-86l-72-239 72-215 359-72 z M2125-287l-288 0-48 287c-8 53-24 88-24 144 0 58 17 93 24 143l48 287c181-149 288-375 288-610l0-251 z M831-287c-149 0-147 1-285 1l0 1-3 0 0 249c0 233 100 456 286 612l0-2 2 2 48-288c8-53 24-88 24-144 0-58-17-93-24-144l-48-287 z" fill="#00D26A"/>
		<path d="M1837-287l0 861c-44 37-93 68-144 95l0-417c0-19-17-36-35-36l-647 0c-19 0-36 15-36 36l0 418c-51-26-99-57-144-94l0-863 1006 0 z" fill="#0084CE"/>
		<path d="M1622-287l0 215c0 39-34 72-72 72l-432 0c-40 0-71-34-71-72l0-215 575 0 z" fill="#46A4FB"/>
		<path d="M1581 314c22 0 40 18 40 41l0 347c-92 35-189 54-288 54-99 0-195-19-287-54l0-348c0-22 18-40 41-40 25 0 215 142 246 165 31-23 223-165 248-165 z" fill="#008463"/>
		<path d="M1333 405c18 0 52 35 66 49 54 49 82 118 82 184l0 222c0 83-65 148-148 148-83 0-148-65-148-148l0-222c0-66 28-135 82-184 13-13 47-49 66-49 z" fill="#FFFFFF"/>
		<path d="M1333 528c83 0 148 65 148 148l0 184c0 83-65 148-148 148-83 0-148-65-148-148l0-184c0-83 65-148 148-148 z" fill="#BB806E"/>
		<path d="M2268 0l0 150c0 40-34 66-71 66-37 0-72-26-72-66l0-150 143 0 z" fill="#BB806E"/>
		<path d="M2125 17l0 288-72 0 0-288 72 0 z" fill="#7D4533"/>
		<path d="M2127 289c11 0 16 5 16 16l0 126 96 0c56 0 101 48 101 103l0 509c0 21-16 36-38 36-19 0-34-19-34-37l0-320c0-41-30-74-74-74-40 0-70 34-70 72l0 322c0 18-14 37-33 37-21 0-38-13-38-36l0-321c0-44-33-74-75-74-41 0-69 35-69 72l0 322c0 18-15 37-34 37-21 0-38-13-38-36l0-509c0-56 46-103 101-103l97 0 0-126c0-8 6-16 15-16l77 0 z" fill="#D3D3D3"/>
		<path d="M2212-287c34 0 56 32 56 62l0 253c0 30-22 62-56 62l-216 0 0-1c-32 0-50-26-50-56 0-17 7-31 21-42-15-11-22-28-22-45 0-19 7-33 22-44-15-11-22-26-22-45 0-19 7-33 22-44-13-11-21-27-21-43 0-29 17-57 50-57l216 0 z" fill="#C68D7B"/>
		<path d="M1686 986c63 0 117 50 117 117 0 64-53 117-117 117-64 0-117-53-117-117 0-64 53-117 117-117 z M988 986c64 0 117 53 117 117 0 64-53 117-117 117-65 0-118-54-118-117 0-63 52-117 118-117 z" fill="#BB806E"/>
		<path d="M1336 647c204 0 357 149 365 349 3 75 9 148 9 223 0 50-26 106-83 106l-237 0c-62 0-121 21-168 55l-137 0c-52-55-123-44-123-149 0-79 7-156 10-235 8-205 164-349 364-349 z" fill="#C68D7B"/>
		<path d="M1583 1081c-48 17-98 32-149 45 22 33 54 62 97 62 29 0 98-15 98-52 0-22-32-41-46-55 z M1091 1081c48 19 100 32 149 45-21 32-54 62-97 62-29 0-98-15-98-51 0-22 31-41 46-56 z" fill="#000000"/>
		<path d="M1599 1077l-166 0c-12 0-17 9-17 20 0 4 4 17 7 21 16 37 53 62 95 62 42 0 102-38 102-83 0-10-10-20-21-20 z M1241 1077c12 0 17 9 17 20 0 46-61 83-102 83-42 0-102-38-102-83 0-10 10-20 21-20l166 0 z" fill="#FFFFFF"/>
		<path d="M1567 1077l-128 0c-1 7-2 10-2 17 0 36 29 66 66 66 37 0 66-28 66-66 0-7-1-10-2-17 z M1235 1077c1 7 2 10 2 17 0 37-28 66-66 66-37 0-66-28-66-66 0-7 1-10 2-17l128 0 z" fill="#7D4533"/>
		<path d="M1537 1077l-67 0c-3 4-5 10-5 17 0 21 16 38 38 38 21 0 38-16 38-38 0-7-1-12-4-17 z M1205 1077c3 5 4 10 4 17 0 21-16 38-38 38-21 0-38-16-38-38 0-7 1-12 4-17l68 0 z" fill="#000000"/>
		<path d="M1481 1109c7 0 11 5 11 12 0 7-4 11-11 11-7 0-12-4-12-11 0-8 4-12 12-12 z M1149 1109c7 0 11 5 11 12 0 7-4 11-11 11-7 0-12-4-12-11 0-8 4-12 12-12 z" fill="#FFFFFF"/>
		<path d="M1336 814c23 0 46 6 69 17 23 12 54 42 54 54 0 7-5 12-12 12l-2 0c-63-21-71-26-109-26-37 0-72 8-105 25l-5 2c-7 0-13-6-13-13l2-6c16-39 81-65 121-65 z" fill="#990839"/>
		<path d="M1365 940c22 0 39 17 39 38 0 18-17 68-29 104-13 36-15 49-39 49-13 0-22-7-27-20-8-30-39-109-39-133 0-23 18-38 39-38l56 0 z" fill="#AB6A55"/>
		<path d="M1599 1226c13 0 19 6 19 19 0 32-95 45-118 45-18 0-49 0-49-23 0-12 9-19 20-19 11 0 19 2 30 2 26 0 63-6 86-21l2 0c2-2 5-3 10-3 z M1073 1226c11 0 59 24 97 24 11 0 21-2 30-2 11 0 21 9 21 19 0 17-19 23-36 23-57 0-90-10-121-27l-1 0c-7-5-10-11-10-18 0-10 9-19 20-19 z" fill="#593B39"/>
	</g></svg>
