<svg version="1.1" xmlns="http://www.w3.org/2000/svg" viewBox="0 0 2300 2300"><g transform="scale(1,-1) translate(-256, -1869)">
		<path d="M1967-210l50 210-50 221c-174 162-397 249-633 249-236 0-459-87-633-249l-50-221 50-210 1266 0 z" fill="#533566"/>
		<path d="M1967-210l258 3c-1 8-6 14-6 23 0 25-12 44-22 68-51 129-129 243-230 338l0-432 z M701-210l0 432c-118-111-178-213-242-367-10-23-11-41-16-62l258-3 z M1331 223c81 0 153 65 153 152l0 78c59 12 112 38 158 78 56 48 108 135 113 212l8 126c73 5 135 67 135 144 0 68-50 128-117 141 3 45 8 91 8 136 0 196-159 358-359 358l-193 0c-200 0-359-161-359-360 0-44 6-89 9-133-69-11-121-70-121-142 0-75 57-141 139-144l9-126c11-146 138-258 265-289l0-79c0-87 71-152 152-152 z" fill="#6B438B"/>
	</g></svg>
