<svg version="1.1" xmlns="http://www.w3.org/2000/svg" viewBox="0 0 2300 2300"><g transform="scale(1,-1) translate(-256, -1869)">
		<path d="M2124-287l0 246c0 237-105 460-287 613l-72 3-72 92c-112 59-235 88-359 88-125 0-247-29-359-86l-72-94-72-1c-185-153-288-376-288-610l0-251 1581 0 z" fill="#D3D3D3"/>
		<path d="M1837-287l0 859c-45 38-93 70-144 95l0-379c0-38-31-72-71-72l-575 0c-39 0-72 31-72 72l0 381c-51-27-100-58-144-95l0-861 1006 0 z" fill="#0084CE"/>
		<path d="M1581 313c23 0 41 19 41 41l0 348c-92 35-189 54-288 54-99 0-195-19-287-54l0-348c0-23 18-41 40-41 9 0 16 3 23 8l195 168c8 7 18 10 29 10 13 0 23-3 30-10l194-168c7-5 14-8 23-8 z" fill="#E6E6E6"/>
		<path d="M1136-113c73 0 128 60 128 128 0 73-58 129-128 129l-105 0c-72 0-128-58-128-129 0-73 60-128 128-128l105 0 z" fill="#F8312F"/>
		<path d="M1136-77c50 0 92 39 92 92 0 52-42 93-92 93l-105 0c-52 0-92-42-92-93 0-50 39-92 92-92l105 0 z" fill="#E6E6E6"/>
		<path d="M1334 527c80 0 144 69 144 147l0 184c0 82-65 148-144 148-80 0-144-67-144-147l0-184c0-82 65-148 144-148 z" fill="#F4C6AD"/>
		<path d="M2197 0l0 150c0 40-36 66-72 66-36 0-72-26-72-66l0-150 144 0 z" fill="#F4C6AD"/>
		<path d="M2018-215c19 0 36 7 51 21 14 14 21 31 21 50l0 455c0 7 4 13 11 18l16 10c5 3 10 6 15 11 21 17 37 37 48 61 11 24 17 49 17 76 0 32-9 63-26 92-18 29-41 50-70 65-2 1-5 2-10 2-10 0-16-5-19-14-2-7-3-15-3-24l0-10c0-14 1-29 2-45l0-13c0-11-1-21-2-31-3-14-8-26-15-35-8-9-21-14-39-14-17 0-30 5-37 14-7 9-12 21-14 35l-2 25 1 20c1 16 1 31 1 45 0 13-1 25-4 34-3 9-9 14-19 14l-9-2c-29-15-52-36-69-65-17-29-26-59-26-91 0-20 2-38 7-53 4-15 10-29 19-42 9-13 19-24 31-34 12-11 26-21 41-32 7-5 11-11 11-18l0-454c0-19 7-36 22-50 14-14 31-21 50-21 z" fill="#9B9B9B"/>
		<path d="M2140-287c34 0 57 30 57 62l0 253c0 32-23 62-57 62l-216 0c-33 0-50-29-50-58 0-16 8-32 21-43-15-11-22-25-22-44 0-19 7-34 22-45-15-11-22-25-22-44 0-19 7-34 22-45-14-11-21-25-21-42 0-30 17-56 50-56l216 0 z" fill="#FFD7C2"/>
		<path d="M1678 989c64 0 118 54 118 118 0 64-54 118-118 118-64 0-118-54-118-118 0-64 54-118 118-118 z M989 989c64 0 118 54 118 118 0 64-54 118-118 118-64 0-118-54-118-118 0-64 54-118 118-118 z" fill="#F4C6AD"/>
		<path d="M1449 647c122 0 224 94 232 216 11 138 18 263 28 401l1 13 0 13c0 191-152 343-345 343l-63 0c-205 0-346-164-346-357l1-12c10-138 17-263 28-401 8-120 112-216 233-216l231 0 z" fill="#FFD7C2"/>
		<path d="M1088 1229c23 0 48 29 98 29l22-1c23 0 38 18 38 39 0 36-33 41-60 41-38 0-89-13-122-38l-1 0c-10-8-15-18-15-31 0-22 17-39 40-39 z M1581 1228c21 0 39 17 39 39 0 51-104 70-137 70-30 0-61-6-61-41 0-20 8-30 20-34 11-4 25-4 40-4 52 0 78-30 99-30 z" fill="#212121"/>
		<path d="M1584 1104l-160 0c-12 0-17 9-17 20 0 43 58 81 99 81 41 0 98-37 98-82 0-10-9-19-20-19 z M1244 1104c7 0 16 7 16 14 0 47-52 87-98 87-39 0-99-37-99-81 0-10 10-20 20-20l161 0 z" fill="#FFFFFF"/>
		<path d="M1553 1104l-124 0c-1 7-2 10-2 17 0 35 30 64 64 64 35 0 64-30 64-64 0-7-1-10-2-17 z M1238 1104c2 5 3 10 3 17 0 35-30 64-64 64-18 0-33-6-45-18-16-16-19-39-19-54 0-3 1-6 2-9l123 0 z" fill="#7D4533"/>
		<path d="M1523 1104l-65 0c-3 7-4 12-4 17 0 19 16 37 37 37 22 0 36-18 36-37 0-7-1-12-4-17 z M1209 1104c3 5 4 10 4 17 0 19-14 37-36 37-19 0-37-16-37-37 0-7 1-12 4-17l65 0 z" fill="#000000"/>
		<path d="M1471 1135c8 0 12 4 12 12 0 7-5 11-12 11-7 0-11-4-11-11 0-7 4-12 11-12 z M1154 1135c8 0 12 4 12 12 0 7-5 11-12 11-7 0-11-4-11-11 0-7 4-12 11-12 z" fill="#FFFFFF"/>
		<path d="M1361 957c22 0 39 17 39 38 0 12-8 36-16 65-18 55-23 87-50 87-13 0-22-7-27-20-8-26-40-109-40-132 0-21 17-38 39-38l55 0 z" fill="#F1B99B"/>
		<path d="M1334 828c23 0 46 6 69 18 24 12 55 42 55 54 0 8-4 12-13 12l-2 0c-66-22-67-26-109-26-37 0-73 8-106 25l-6 2c-7 0-11-5-11-12 0-2 1-4 2-7 25-43 76-66 121-66 z" fill="#990839"/>
		<path d="M1705 1151c21 0 39 16 40 38 3 55 8 108 8 163 0 93-45 133-105 199-77 82-178 122-282 122l-64 0c-105 0-204-41-281-122-60-66-105-108-105-199 0-55 6-108 10-163 1-23 18-38 40-38-3 48-9 90-9 138 0 188 151 344 345 344l64 0c191 0 346-152 346-346 0-45-6-91-9-136l2 0 z" fill="#212121"/>
		<path d="M1751 1325c5 25 7 52 7 81 0 213-140 319-346 319l-156 0c-204 0-346-105-346-319 0-29 2-56 7-81l5 1c104 70 275 111 412 111 136 0 286-33 412-111l5-1 z" fill="#0084CE"/>
		<path d="M1661 1261c43 0 66 32 90 64-119 108-272 152-417 152-147 0-299-43-417-152 24-31 46-64 90-64 14 0 24 2 36 9 102 47 187 71 291 71 104 0 189-24 291-71 12-7 22-9 36-9 z" fill="#00A6ED"/>
	</g></svg>
