<svg version="1.1" xmlns="http://www.w3.org/2000/svg" viewBox="0 0 2300 2300"><g transform="scale(1,-1) translate(-256, -1869)">
		<path d="M1406 467c334 0 611 269 611 611l0 122-72 94-1067 0-83-69 0-147c0-334 269-611 611-611 z" fill="#990838"/>
		<path d="M1714 647c128 0 230 103 230 231 0 37-8 66-23 101-2 5-3 10-3 16 0 7 1 10 4 17 14 34 23 67 23 103 0 47-13 90-39 130-27 41-39 81-39 128 0 131-107 237-236 237-15 0-24 6-33 17-52 64-111 98-192 98-81 0-143-35-192-98-9-11-18-18-33-18-130 0-237-104-237-236 0-47-10-85-38-128-25-39-39-83-39-130 0-19 2-36 6-52 6-24 21-52 21-68 0-4-1-9-4-16-14-33-23-64-23-101 0-128 103-231 231-231l616 0 z" fill="#FFF9BA"/>
		<path d="M1981-287l144 72 0 215c0 69-23 151-45 215-8 23-22 50-27 73-3 13-2 28-5 43-11 61-25 126-67 176-21 25-46 45-71 66-145 122-324 182-504 182-181 0-360-60-507-185-48-40-94-80-114-148-11-34-22-73-23-113-2-33-19-62-30-94-22-64-45-146-45-215l0-215 144-72 1150 0 z" fill="#F92F60"/>
		<path d="M1504 467c74 0 139 59 139 136l0 112c-69 24-172 50-242 50-72 0-175-27-243-50l0-112c0-76 64-136 140-136l206 0 z" fill="#990838"/>
		<path d="M2197-287l0 251c0 235-106 461-288 611l0-862 288 0 z M903-287l0 862c-180-151-288-372-288-611l0-251 288 0 z M1442 0l0 467 74 0c73 0 142 56 142 136l0 112c-48 19-127 38-173 38-49 0-122-22-169-38l0-178c0-33 24-60 54-67l0-470 72 0 z" fill="#CA0B4A"/>
		<path d="M1909-287l0 287-1006 0 0-287 1006 0 z" fill="#FCD53F"/>
		<path d="M1406 683c191 0 343 138 351 340 3 73 8 146 8 219 0 48-22 103-79 103l-227 0c-96 0-163 42-225 121-4 5-9 8-15 8-7 0-12-3-15-9-23-51-42-80-93-105-46-23-64-51-64-107 0-76 6-154 9-230 8-188 146-340 350-340 z" fill="#966661"/>
		<path d="M1644 1105c-49 16-95 28-144 44 21 31 54 59 94 59 26 0 94-15 94-50 0-21-30-39-44-53 z M1168 1105c47 17 97 29 145 44-21 29-53 59-94 59-27 0-94-13-94-49 0-23 28-41 43-54 z" fill="#000000"/>
		<path d="M1659 1100c10 0 20 10 20 21 0 42-57 79-98 79-45 0-98-39-98-86 0-7 9-14 16-14l160 0 z M1313 1100c7 0 17 6 17 14 0 49-57 86-99 86-40 0-98-35-98-80 0-10 10-20 20-20l160 0 z" fill="#FFFFFF"/>
		<path d="M1628 1100l-123 0c-1 3-2 6-2 9l0 8c0 35 26 64 63 64 35 0 64-30 64-64 0-7-1-10-2-17 z M1307 1100c2 5 3 10 3 17 0 35-30 64-64 64-35 0-64-30-64-64 0-7 1-10 2-17l123 0 z" fill="#7D4533"/>
		<path d="M1599 1100l-64 0c-3 5-5 11-5 17 0 21 15 37 37 37 22 0 36-18 36-37 0-7-1-12-4-17 z M1277 1100c3 5 5 11 5 17 0 21-15 37-37 37-22 0-36-18-36-37 0-7 1-12 4-17l64 0 z" fill="#000000"/>
		<path d="M1545 1131c7 0 11 5 11 12 0 7-4 11-11 11-7 0-12-4-12-11 0-8 4-12 12-12 z M1224 1131c8 0 12 4 12 12 0 7-5 11-12 11-7 0-11-4-11-11 0-7 4-12 11-12 z" fill="#75443E"/>
		<path d="M1433 953c22 0 37 20 37 39 0 18-16 71-28 107-12 32-12 51-35 51-14 0-23-9-26-21-8-29-38-113-38-136 0-19 15-40 37-40l53 0 z" fill="#75443E"/>
		<path d="M1406 823c25 0 48 7 71 20 23 13 55 45 55 57 0 9-4 13-12 13l-6-2c-42-15-65-27-108-27-38 0-74 9-108 27l-6 2c-6 0-12-5-12-12 0-2 1-4 2-7 24-42 75-71 124-71 z" fill="#990839"/>
		<path d="M1152 1245c16 0 53 23 95 23 9 0 19-2 28-2 11 0 19 7 19 18 0 17-18 23-34 23-31 0-127-8-127-43 0-13 6-19 19-19 z M1660 1245c10 0 19 9 19 20 0 30-97 43-115 43l-13 0c-15 0-33-5-33-21 0-12 8-21 20-21 9 0 19 2 28 2 41 0 80-23 94-23 z" fill="#372128"/>
		<path d="M2017 1101l0 121c0 81-67 144-144 144 0 194-154 359-359 359l-216 0c-194 0-359-154-359-359-81 0-144-67-144-144l0-121c0 107 87 193 192 193l837 0c106 0 193-85 193-193 z" fill="#F92F60"/>
		<path d="M1604 1366l0 94c0 109-93 193-198 193-105 0-198-82-198-193l0-94 396 0 z" fill="#321B41"/>
		<path d="M1404 1402c24 0 45 7 64 22 19 15 28 35 28 61 0 4 0 9 1 16 0 6-3 9-10 9-3 0-6-1-7-3-1-3-5-4-10-4-11 0-18 6-19 18l-1 15 2 24c1 14 2 27 2 39-1 12-6 18-15 18-3 0-7-1-12-4l-12-8c-13-8-23-17-28-26-6-10-10-19-12-27-3-8-5-15-6-20-1-6-5-9-11-9-6 0-11 3-14 8-3 5-8 7-14 7-9 0-14-4-14-13 0-13 2-26 6-40 3-15 9-28 16-40 7-13 17-23 28-31 11-8 23-12 38-12 z" fill="#F9C23C"/>
		<path d="M1756-287c21 74 252 924 252 943 0 17-11 32-27 36-27 8-82 27-106 27-16 0-31-11-35-27l-263-979 179 0 z" fill="#6D4534"/>
		<path d="M2158 80c20 0 38 8 55 24 16 16 30 35 42 58 12 22 22 45 31 68 8 23 14 43 18 58 3 9 6 20 11 32l14 37c5 12 9 24 12 36 3 12 5 22 5 31 0 7-1 15-2 22l-4 21-72 102 0-30-82 23c-9-1-18-1-27-1-21 0-42 2-63 8l-303 81c-2 1-5 1-9 1-15 0-24-7-28-20-1-6-5-18-10-37l-18-67c-7-25-15-52-22-80l-21-79c-7-25-12-45-16-62-5-17-7-26-7-28 0-7 2-14 7-19 5-5 11-9 18-11l303-81c15-4 30-9 43-16 13-7 27-16 40-25 7-5 12-8 17-8l14 0c4-1 9-3 16-7 6-5 15-14 28-29 4-1 7-2 10-2 z" fill="#9B9B9B"/>
		<path d="M2144 60l4 1c138 40 228 160 228 301 0 72-31 163-89 218-3 3-7 5-11 5-8 0-69-21-90-23 68-42 112-116 112-201 0-126-103-231-227-234 23-19 42-38 61-61 3-4 7-6 12-6 z" fill="#D3D3D3"/>
	</g></svg>
