<svg version="1.1" xmlns="http://www.w3.org/2000/svg" viewBox="0 0 2300 2300"><g transform="scale(1,-1) translate(-256, -1869)">
		<path d="M1040 1146l731 1c15 7 41 20 44 38l41 221c2 9 3 17 3 26 0 85-59 114-113 142-84 44-115 146-227 146-42 0-72-20-113-20-42 0-78 25-120 25-75 0-120-64-168-112-65-63-166-67-166-183 0-8 1-17 2-25l40-220c3-19 31-32 46-39 z" fill="#2D242D"/>
		<path d="M1909-287l48 287c8 53 24 88 24 144 0 63-16 95-24 155l-48 311c-22 19-47 37-74 54l-286 37c-55 8-91 18-143 18-56 0-88-10-143-18l-286-37c-27-17-52-35-74-54l-48-311c-8-58-24-93-24-155 0-58 17-93 24-144l48-287 467 0 36 36 36-36 467 0 z" fill="#D3D3D3"/>
		<path d="M1442-287l0 407 383 551c-127 81-271 120-419 120-132 0-259-31-375-95l339-566 0-417 72 0 z" fill="#00A6ED"/>
		<path d="M903-287l-288 0 0 287c0 237 106 460 288 610l0-897 z M2197-287l-288 0 0 897c185-153 288-376 288-610l0-287 z M1456-9c-9 0-14 4-14 13l0 264 1 8 202 478c68-23 131-51 191-90 3-56 10-111 10-167 0-32-86-10-86-42 0-24 64-59 64-84 0-5-1-9-4-12l-354-364c-3-3-6-4-10-4 z M1356-9c9 0 14 4 14 13l0 264-1 8-202 478c-68-23-131-51-191-90-3-56-10-111-10-167 0-32 85-8 85-43 0-24-64-55-64-82 0-5 2-10 5-13l354-364c3-3 6-4 10-4 z" fill="#E6E6E6"/>
		<path d="M1237-63l14 1c11 1 21 1 28 1 13 0 25 5 34 14 9 9 13 20 13 33l0 261c0 23-4 46-12 67-8 21-19 40-33 57-14 17-31 31-50 43-19 11-40 19-63 23l0 112c0 32 6 62 19 91 12 28 29 53 50 74 21 21 45 37 74 50 28 12 58 18 90 18 32 0 62-6 91-18 28-13 53-29 74-50 21-21 37-46 50-74 12-29 18-59 18-91l0-511 70 0 0 511c0 42-8 81-24 118-16 37-38 69-65 97-27 27-59 49-96 65-37 16-76 24-118 24-42 0-81-8-118-24-37-16-69-38-96-65-28-27-50-59-65-96-16-37-24-77-24-119l0-112c-23-4-44-12-63-23-19-12-36-26-50-43-15-17-26-36-34-57-8-21-12-44-12-67l0-261c0-15 5-26 14-33 9-7 19-12 32-14 9-1 18-2 28-2l46 1c9 0 18 4 25 11 7 7 10 16 10 25 0 11-3 19-9 24-6 5-13 9-22 10-9 1-19 2-28 2-10-1-18-1-25-1l0 238c0 17 3 33 10 48 6 15 15 28 26 39 11 11 24 20 39 27 15 6 31 9 48 9 17 0 33-3 48-10 15-7 28-15 39-26 11-11 19-24 26-39 7-15 10-31 10-48l0-237c-7 0-15 0-24 1-9 0-18-1-26-2-8-2-15-6-20-11-5-5-8-13-8-24 0-12 4-20 12-25 7-5 16-9 27-10l20-2 z" fill="#635994"/>
		<path d="M1279-62c26 0 47 20 47 47l0 178-70 0 0-154-18 0 0-71 41 0 z M1028-61l0 71-18 0 0 153-71 0 0-177c0-26 20-47 47-47l42 0 z" fill="#0084CE"/>
		<path d="M1670-53c51 0 90 40 90 91 0 51-39 90-90 90-51 0-91-39-91-90 0-51 40-91 91-91 z" fill="#0084CE"/>
		<path d="M1670-13c29 0 51 24 51 51 0 27-22 51-51 51-29 0-51-24-51-51 0-27 22-51 51-51 z" fill="#1C5CD7"/>
		<path d="M1749 986c64 0 117 53 117 117 0 66-54 118-117 118-63 0-117-52-117-118 0-64 53-117 117-117 z M1063 986c64 0 117 53 117 117 0 65-54 118-117 118-63 0-117-52-117-118 0-64 53-117 117-117 z" fill="#FECA46"/>
		<path d="M1406 539c80 0 144 69 144 152l0 100-288 0 0-100c0-81 64-152 144-152 z" fill="#8B5C56"/>
		<path d="M1521 646c30 0 59 6 86 17 27 11 50 26 71 45 21 19 38 42 51 69 13 26 20 54 22 84l28 395c0 13-3 22-9 30-7 9-14 17-22 25-9 7-17 16-24 26-7 10-11 24-11 42 0 9 1 18 2 28l1 15-1 15c-1 9-4 18-8 26-5 7-12 13-23 16-18 6-39 11-63 15-25 4-50 7-75 10-26 2-51 4-76 5-25 1-46 1-65 1-17 0-38 0-63-1-25-1-51-3-78-6l-78-9c-25-4-45-9-61-15-19-7-28-19-28-38l0-62c0-17-3-30-10-39-7-10-14-19-22-26-8-8-15-16-22-25-7-9-10-20-10-34l0-12c0-5 0-9 1-13l26-369c2-30 10-58 23-84 13-27 30-50 51-69 21-19 45-34 72-45 27-11 55-17 85-17l230 0 z" fill="#966661"/>
		<path d="M1161 1229c21 0 46 29 97 29l22-1c19 0 39 16 39 37 0 38-31 42-60 42-30 0-137-18-137-68 0-22 16-39 39-39 z M1651 1229c22 0 39 16 39 39 0 51-104 69-137 69-27 0-60-6-60-40 0-30 19-38 40-38l22-1c51 0 73-29 96-29 z" fill="#372128"/>
		<path d="M1655 1101l-160 0c-7 0-16 7-16 14 0 48 53 86 98 86 40 0 98-35 98-80 0-10-10-20-20-20 z M1316 1101c12 0 17 9 17 20 0 41-56 80-98 80-43 0-98-36-98-81 0-11 10-19 20-19l159 0 z" fill="#FFFFFF"/>
		<path d="M1624 1101l-123 0c-1 7-2 10-2 17 0 34 26 64 63 64 17 0 32-6 45-19 16-16 19-37 19-54 0-3-1-5-2-8 z M1311 1101c1 7 2 10 2 17 0 34-26 64-63 64-17 0-32-6-45-19-16-16-19-37-19-54 0-3 1-5 2-8l123 0 z" fill="#7D4533"/>
		<path d="M1595 1101l-65 0c-3 5-4 10-4 17 0 21 17 37 36 37 19 0 37-16 37-37 0-5-1-10-4-17 z M1282 1101c3 5 4 10 4 17 0 21-17 37-36 37-19 0-37-16-37-37 0-7 1-12 4-17l65 0 z" fill="#000000"/>
		<path d="M1545 1132c7 0 11 4 11 11 0 7-4 12-11 12-6 0-12-5-12-12 0-7 5-11 12-11 z M1228 1132c7 0 11 4 11 11 0 7-4 12-11 12-6 0-12-5-12-12 0-7 5-11 12-11 z" fill="#FFFFFF"/>
		<path d="M1433 954c21 0 39 17 39 39 0 11-8 38-16 64-18 54-23 86-50 86-13 0-22-6-27-19-8-30-39-108-39-132 0-21 16-38 38-38l55 0 z" fill="#75443E"/>
		<path d="M1406 827c24 0 47 6 68 18 22 11 54 41 54 53 0 7-5 12-12 12l-2 0c-63-21-71-26-108-26-39 0-71 9-106 25l-5 1c-6 0-12-5-12-12l2-6c25-42 76-65 121-65 z" fill="#990839"/>
	</g></svg>
