<svg version="1.1" xmlns="http://www.w3.org/2000/svg" viewBox="0 0 2300 2300"><g transform="scale(1,-1) translate(-256, -1869)">
		<path d="M2295-177c41 0 63 28 63 65 0 18-3 33-9 46-26 51-74 105-126 161-127 139-263 264-381 403-205 239-400 473-605 717-80 97-154 191-236 285-45 52-103 82-170 82-13 0-26-1-38-4-179-38-321-231-321-429l0-475c72 7 143 15 215 15 166 0 288-83 288-256l0-408c0-109 87-198 197-198l1123-4 z" fill="#CA0B4A"/>
		<path d="M616-173l0 862-144 0 0-862 144 0 z" fill="#533566"/>
		<path d="M1901 322c23 0 57 10 75 28-11 11-16 22-27 33-247 269-481 552-714 833-81 99-160 197-243 294-17 21-38 35-61 42-19-21-28-45-28-73 0-26 8-49 25-69l891-1050c19-23 50-38 82-38 z" fill="#1C1C1C"/>
	</g></svg>
