<svg version="1.1" xmlns="http://www.w3.org/2000/svg" viewBox="0 0 2300 2300"><g transform="scale(1,-1) translate(-256, -1869)">
		<path d="M1736 603c134 0 241 108 241 240 0 38-9 71-25 105-3 7-5 13-5 18 0 4 1 9 4 16 15 35 25 67 25 106 0 49-14 92-41 136-27 42-40 87-40 134 0 137-110 246-246 246-15 0-25 7-34 18-55 67-116 102-200 102-84 0-149-37-201-102-9-11-18-18-33-18-136 0-247-110-247-246 0-48-13-92-39-133-27-44-41-87-41-136 0-39 9-71 24-106 3-7 4-11 4-18 0-7-1-10-4-17-14-34-24-67-24-105 0-134 109-240 241-240l641 0 z" fill="#FFF9BA"/>
		<path d="M1909-287l108 431-108 430-3 3-333 23c-61 3-98 11-167 11-155 0-308-3-463-6-15-10-28-20-40-31l-108-430 108-431 1006 0 z" fill="#212121"/>
		<path d="M1406 144c69 0 94 62 104 62 8 0 34-26 76-26 58 0 107 47 107 108 0 3 1 4 3 4 11 0 22-4 33-4 57 0 108 46 108 108 0 30-18 56-18 63 0 5 3 9 9 12 48 19 80 48 81 103-136 111-310 181-500 181-117 0-231-24-338-75l-1 0c-44-21-86-46-127-75-3-9-4-19-4-30 0-68 62-94 62-105 0-6-26-36-26-74 0-63 50-108 108-108 11 0 22 4 33 4 1 0 2-1 2-4 0-58 49-108 108-108 43 0 67 26 76 26 11 0 36-62 104-62 z" fill="#F3EEF8"/>
		<path d="M1729-287l0 378c0 19-15 36-36 36-19 0-35-15-35-36l0-378 71 0 z M1442-287l0 378c0 19-15 36-36 36-19 0-36-15-36-36l0-378 72 0 z M1154-287l0 378c0 19-15 36-36 36-19 0-35-15-35-36l0-378 71 0 z M2197-287l0 251c0 234-106 460-288 610l0-861 288 0 z M903-287l0 862c-180-151-288-372-288-611l0-251 288 0 z M1406 431c117 0 216 92 216 214l0 211c0 126-63 193-150 269l0 1c-19 16-41 24-66 24-48 0-80-36-112-65l-1 0c-64-57-103-139-103-229l0-211c0-119 96-214 216-214 z" fill="#000000"/>
		<path d="M1406 503c80 0 144 64 144 142l0 211c0 70-31 131-80 175-14 11-46 47-64 47-21 0-50-32-65-47-52-46-79-109-79-175l0-211c0-80 66-142 144-142 z" fill="#E4B29A"/>
		<path d="M2268 0l0 150c0 40-35 66-72 66-38 0-71-25-71-66l0-150 143 0 z" fill="#E4B29A"/>
		<path d="M2135-98l0 386c11 0 21 3 29 9 8 6 12 15 12 27 0 9-3 16-8 23-5 7-12 11-20 13l32 0c9 0 16 2 23 5 6 3 11 8 14 15 3 7 4 17 4 31 3-15 10-27 21-36 11-10 24-15 39-15 17 0 31 6 43 18 11 12 17 26 17 43l0 167c0 17-6 31-17 43-12 12-26 18-43 18-15 0-29-5-40-14-11-10-18-23-20-38l0 6c0 10-2 19-6 28-5 11-15 16-30 16l-207 0c-10 0-17-2-22-7-5-5-9-11-11-18-2-7-3-15-3-24l0-23c0 19-4 37-13 52-9 15-25 22-47 22-17 0-31-6-43-18-12-12-18-26-18-43l0-167c0-17 6-31 18-43 12-12 26-18 43-18 21 0 37 7 46 22 9 14 14 30 14 49 0-17 1-31 2-40 1-10 4-17 9-22 5-5 12-7 22-8 9-1 23-1 40-1-9-2-16-6-21-13-5-7-8-14-8-23 0-12 4-21 12-27 8-6 18-9 29-9l0-386 108 0 z" fill="#7D4533"/>
		<path d="M2211-287c36 0 57 33 57 65l0 264c0 33-21 66-57 66l-216 0 0-1c-33 0-50-31-50-60 0-16 8-33 22-44-15-11-22-29-22-46 0-19 7-36 22-47-15-11-22-28-22-47 0-17 7-35 22-46-15-12-22-30-22-49 0-26 21-55 50-55l216 0 z" fill="#EEBFAA"/>
		<path d="M1746 986c63 0 117 50 117 117 0 64-53 117-117 117-64 0-117-53-117-117 0-63 50-117 117-117 z M1085 986c64 0 117 53 117 117 0 64-53 117-117 117-64 0-117-53-117-117 0-63 50-117 117-117 z" fill="#E4B29A"/>
		<path d="M1415 643c205 0 355 144 366 350 4 79 11 157 11 236 0 128-111 93-156 201-5 12-8 27-24 27-7 0-12-3-17-9-65-80-135-124-235-124l-237 0c-59 0-84-57-84-106 0-75 6-150 9-225 8-203 164-350 367-350 z" fill="#EEBFAA"/>
		<path d="M1663 1079c-51 18-97 29-149 45 21 34 55 62 98 62 25 0 98-14 98-51 0-25-32-44-47-56 z M1169 1079c49 19 99 30 150 45-22 32-54 62-98 62-29 0-98-15-98-51 0-21 29-42 46-56 z" fill="#000000"/>
		<path d="M1679 1075l-166 0c-7 0-17 6-17 14 0 51 55 90 102 90 41 0 102-36 102-84 0-10-10-20-21-20 z M1319 1075c7 0 17 6 17 14 0 51-55 90-102 90-41 0-102-36-102-84 0-10 10-20 21-20l166 0 z" fill="#FFFFFF"/>
		<path d="M1647 1074l-128 0c-1 3-2 6-2 9l0 9c0 37 26 67 66 67 36 0 67-30 67-67 0-6-1-12-3-18 z M1313 1074c2 6 3 12 3 19 0 38-32 66-67 66-36 0-67-30-67-67 0-6 1-12 3-18l128 0 z" fill="#7D4533"/>
		<path d="M1617 1075l-68 0c-3 5-4 11-4 18 0 21 16 38 38 38 21 0 38-16 38-38 0-7-1-11-4-18 z M1283 1075c3 5 4 11 4 18 0 21-16 38-38 38-21 0-38-16-38-38 0-7 1-11 4-18l68 0 z" fill="#000000"/>
		<path d="M1560 1106c9 0 13 4 13 13 0 7-6 12-13 12-6 0-12-5-12-12 0-7 5-13 12-13 z M1226 1106c8 0 12 4 12 13 0 7-5 12-12 12-6 0-12-5-12-12 0-7 5-13 12-13 z" fill="#FFFFFF"/>
		<path d="M1415 810c24 0 47 6 69 18 22 11 54 42 54 54 0 7-5 11-12 11l-2 0c-61-21-70-26-109-26-37 0-72 8-105 25l-6 2c-7 0-11-4-11-11 0-2 1-4 2-7 24-43 75-66 120-66 z" fill="#990839"/>
		<path d="M1443 937c22 0 39 17 39 38 0 18-17 69-30 105-14 36-15 49-37 49-14 0-23-7-28-20-8-29-40-109-40-134 0-21 18-38 40-38l56 0 z" fill="#D19479"/>
		<path d="M1151 1224c3 0 10 1 11 4 28 13 58 21 89 21 11 0 19-3 30-3 12 0 17 11 17 22 0 16-18 21-35 21-35 0-132-10-132-44 0-11 10-21 20-21 z M1679 1224c10 0 20 10 20 20 0 7-3 13-10 18l-1 0c-31 18-72 27-107 27-19 0-50 0-50-23 0-12 9-19 20-19 11 0 19 2 30 2 31 0 59-9 87-21 3-3 8-4 11-4 z" fill="#A56953"/>
	</g></svg>
