<svg version="1.1" xmlns="http://www.w3.org/2000/svg" viewBox="0 0 2300 2300"><g transform="scale(1,-1) translate(-256, -1869)">
		<path d="M1012 506c17 0 32 1 45 4l659 116c115 20 207 121 207 246 0 89-55 151-55 172 0 24 10 50 10 82 0 151-113 183-135 305-24 122-124 213-254 213-19 0-34-5-53-5-11 0-20 4-29 12-56 48-109 74-179 74-106 0-188-59-232-146-6-14-15-21-31-24-122-27-214-122-214-253 0-31 8-58 8-89 0-72-42-131-42-202 0-92 56-155 56-173 0-24-11-49-11-79 0-139 110-253 250-253 z" fill="#FFB02F"/>
		<path d="M2165-287l-12 279 179 56-355 434-1 0c-146 173-362 272-592 272-415 0-768-329-768-752l-1-153c0-74 59-136 136-136l403 0 180 72 144-72 687 0 z" fill="#8B62BF"/>
		<path d="M1364 545c75 0 137 62 137 137l0 163c0 75-62 137-137 137-79 0-138-64-138-137l0-163c0-77 62-137 138-137 z" fill="#F9C136"/>
		<path d="M950 892c68 0 120 57 120 120 0 65-55 119-120 119-63 0-119-52-119-119 0-65 53-120 119-120 z M1641 1014c68 0 119 57 119 120 0 68-55 119-119 119-68 0-119-55-119-119 0-65 53-120 119-120 z" fill="#FECA46"/>
		<path d="M1306 603c209 0 390 150 390 376 0 56-11 111-19 173-12 84-13 211-110 211l-12-1-244-43c-19-3-36-5-52-5-84 0-147 30-212 90-4 4-9 6-14 6-19 0-21-18-24-32-34-128-125-93-125-220 0-5 1-9 2-14l53-242c40-178 181-299 367-299 z" fill="#FDD641"/>
		<path d="M998 1158c13 0 62 47 128 47 12 0 21 9 21 21 0 10-10 21-21 21-32 0-79-13-111-30-18-10-38-19-38-38 0-10 9-21 21-21 z M1405 1253c7 0 17 2 30 6 12 3 24 5 37 5 9 0 20-1 31-2 11-1 21-4 30-7l2 1 4-1 6-1c5 0 9 3 12 8 3 5 5 9 5 13 0 7-4 12-11 17-8 4-17 7-27 9-11 2-21 3-31 4-10 1-17 1-22 1-5 0-13 0-22-1-10-1-20-2-29-4-9-3-17-6-24-10-7-5-11-10-11-17 0-5 2-10 6-14 4-5 9-7 14-7 z" fill="#D37034"/>
		<path d="M1300 942c20 0 43 7 63 11 18 3 32 19 32 38 0 25-52 110-62 132-5 9-15 15-26 15-14 0-26-10-29-25-6-44-15-90-15-133 0-19 15-38 37-38 z" fill="#FFB02C"/>
		<path d="M1332 812c60 0 107 39 127 89l1 4c0 7-4 11-11 11-3 0-71-49-141-49-28 0-56 10-71 10-7 0-11-5-11-12 0-3 2-4 3-7 19-29 71-46 103-46 z" fill="#990839"/>
		<path d="M1146 1024c31 0 101 29 101 67 0 13-6 19-19 19-18 0-32-47-84-47-35 0-48 21-61 21-11 0-18-8-18-19 0-27 60-41 81-41 z M1469 1082c31 0 102 31 102 67 0 10-9 19-20 19-18 0-31-47-83-47-33 0-48 21-61 21-11 0-19-9-19-18 0-27 60-42 81-42 z" fill="#D37034"/>
		<path d="M1397 375c29 0 35 37 56 37 10 0 17-5 28-5 19 0 34 16 34 34 0 43-50 28-53 49-11 50-6 45-53 58l-44-166c11-3 21-7 32-7 z" fill="#F9C23C"/>
		<path d="M1274 331c13 0 26 4 38 12 11 7 20 18 25 31l24 9 46 168-17 21 1 13c0 12-3 24-10 35-9 15-23 24-40 28l-207 56c-7 2-14 3-21 3-17 0-33-5-47-16-14-11-23-25-28-42l-11-41c-5-17-11-35-16-54l-14-53c-4-17-6-29-6-37 0-17 5-33 16-47 10-15 24-24 41-29l207-55c3-1 7-2 10-2l9 0 z" fill="#26EAFC"/>
		<path d="M1359 368c8 0 13 4 15 12 5 16 46 164 46 172 0 16-19 17-30 20-8-45-40-165-53-199 7-3 16-5 22-5 z M1274 356c9 0 18 3 26 9 8 6 13 14 16 23l29 100 15 58c4 18 6 30 6 36 0 13-3 23-9 28-7 5-15 11-24 16-1 0-6 1-15 4l-35 9c-14 3-29 7-46 12l-47 12-38 11c-15 4-19 4-23 6l-8 1c-3 1-5 1-8 1-12 0-23-4-32-11-9-7-16-17-19-28-2-9-6-21-11-38-5-17-11-35-16-54l-14-52c-4-17-6-28-6-35 0-12 4-23 11-32 7-10 17-17 28-20l208-55c3-1 7-1 12-1 z" fill="#00D1ED"/>
		<path d="M1200 374c11 0 21 10 21 20l3 252c0 5-3 9-8 10l-85 23c-6 2-12 3-18 3-25 0-44-17-51-39-8-34-47-150-47-179 0-25 17-45 39-52 19-5 136-38 146-38 z" fill="#FFFFFF"/>
		<path d="M1922-83c169 0 309 134 309 309 0 169-134 309-309 309-169 0-309-134-309-309 0-169 134-309 309-309 z" fill="#00F397"/>
		<path d="M1262-287l0 72 432-59c75 43 108 112 108 196l-1 19c39-17 80-25 122-25 78 0 156 30 215 89-27-8-55-11-83-11-171 0-309 138-309 309 0 81 31 161 93 220-111-29-195-121-220-237-25 7-51 10-78 10-54 0-105-14-152-41-160-92-328-153-328-365 0-66 19-120 56-177l145 0 z" fill="#00D26A"/>
		<path d="M2201-287c106 0 193 85 193 192 0 71-35 142-96 177-26 14-55 17-83 17-5 0-9-1-14-2l-461-81c-73-14-82-79-82-141l0-162 543 0 z M858-287l156 504c7 21 10 41 10 64 0 121-97 216-215 216-98 0-177-64-206-152l-203-632 458 0 z" fill="#A17FD5"/>
		<path d="M1617-287c30 0 38 11 38 43l0 70c0 12-4 29-7 41l-139 140c-15 15-33 22-54 22-44 0-77-35-77-77 0-49 44-69 44-77 0-5-3-8-8-8l-183 0c-44 0-77-35-77-77 0-42 33-77 77-77l386 0 z M868 262c24 0 45 7 64 20 19 13 35 30 48 49 11-7 21-15 32-23 11-9 23-13 36-13 17 0 32 7 43 20 9 10 13 22 13 34l-1 11c6-2 12-3 19-3 15 0 28 5 39 16 10 11 15 24 15 39 0 19-7 33-20 43l-71 58 59-10c21-4 42-6 61-6 15 0 27 6 38 17 11 11 16 23 16 38 0 9-2 18-7 27-5 8-11 15-18 20l7 0c15 0 29 5 40 16 11 10 16 23 16 38 0 14-5 26-14 37-9 11-21 17-34 19l-119 16c-16 2-32 4-47 7-15 2-31 3-47 3-43 0-79-8-107-24-29-16-53-37-73-63-21-26-39-55-54-88-15-33-31-65-48-98-13-24-19-49-19-76 0-17 4-33 12-48 7-15 17-28 30-39 13-11 27-20 43-27 16-7 32-10 48-10 z" fill="#F9C136"/>
		<path d="M1675-287l-53 0 0 233c0 11 7 18 18 18l26 0c6 0 9-3 9-9l0-242 z M865 234c62 0 110 33 142 79l-32 34c-22-33-54-68-99-68-69 0-136 56-136 128 0 38 18 64 37 96-52-17-78-53-78-108 0-92 72-161 166-161 z" fill="#633589"/>
	</g></svg>
