<svg version="1.1" xmlns="http://www.w3.org/2000/svg" viewBox="0 0 2300 2300"><g transform="scale(1,-1) translate(-256, -1869)">
		<path d="M1852 1150l0 143c7 0 17 0 28-1l16-1 16 1c11 1 20 5 27 10 7 5 11 14 11 27l0 73c0 9-3 18-10 25-7 7-16 11-25 11l-1162 0c-11 0-19-3-25-10-7-7-10-16-10-26l0-74c0-9 4-17 11-24 7-7 15-11 24-11l76 0 0-143 1023 0 z" fill="#321B41"/>
		<path d="M1631 631c132 0 219 117 219 237 0 19-2 37-5 54-6 24-21 53-21 67 0 5 1 10 4 17 15 35 24 67 24 106 0 49-13 94-38 135-53 88-22 158-61 242l-828 0c-41-87-10-157-61-242-25-41-37-86-37-135 0-19 2-37 6-54 5-25 20-53 20-69 0-4-1-9-4-16-14-34-22-67-22-105 0-118 86-237 219-237l585 0 z" fill="#212121"/>
		<path d="M1837-287l108 431-108 430c-55 45-117 83-184 114l-31 13-192 12c-38 3-58 6-96 6-19 0-34-1-47-2-98-10-93-7-240-16l-29-12c-68-31-131-68-187-115l-108-430 108-431 1006 0 z" fill="#0084CE"/>
		<path d="M831-287l-288 0 0 251c0 237 106 460 288 610l0-861 z M2125-287l-288 0 0 861c185-153 288-376 288-610l0-251 z M1581 313c23 0 41 19 41 41l0 347c-92 36-189 54-288 54-99 0-195-18-287-54l0-347c0-23 18-41 40-41 25 0 208 139 247 165l224-157c7-5 15-8 23-8 z" fill="#0074BA"/>
		<path d="M1334 431c18 0 51 34 64 47 52 44 80 110 80 175l0 212c0 80-66 141-144 141-77 0-144-62-144-140l0-212c0-64 28-130 80-176 13-13 46-47 64-47 z" fill="#E6E6E6"/>
		<path d="M1334 575c86 0 144 80 144 155l0 193c0 82-62 155-144 155-83 0-144-75-144-154l0-193c0-81 60-156 144-156 z" fill="#F4C6AD"/>
		<path d="M2197 0l0 150c0 40-36 66-72 66-36 0-72-26-72-66l0-150 144 0 z" fill="#F4C6AD"/>
		<path d="M2052 173l0 485c0 10 4 19 11 26l113 113-51 51-102-102c-27-27-43-65-43-103l0-470 72 0 z" fill="#D3D3D3"/>
		<path d="M2142 701c57 0 96 38 109 87 5 21 35 120 35 137 0 17-13 31-31 31-9 0-138-36-144-36-50-12-80-61-80-107 0-60 49-112 111-112 z" fill="#50E2FF"/>
		<path d="M2137 748c34 0 61 25 61 61 0 36-27 61-61 61-34 0-61-25-61-61 0-36 27-61 61-61 z" fill="#FFFFFF"/>
		<path d="M2090 5l0 215c0 14-10 25-25 25l-97 0c-14 0-25-10-25-25l0-215 147 0 z" fill="#533566"/>
		<path d="M2140-287c34 0 57 30 57 62l0 253c0 32-23 62-57 62l-216 0c-33 0-50-29-50-58 0-16 8-32 21-43-15-11-22-25-22-44 0-19 7-34 22-45-15-11-22-25-22-44 0-19 7-34 22-45-14-11-21-25-21-42 0-30 17-56 50-56l216 0 z" fill="#FFD7C2"/>
		<path d="M1666 988c64 0 117 53 117 117 0 63-50 117-117 117-64 0-116-52-116-117 0-64 51-117 116-117 z M1002 988c64 0 116 53 116 117 0 66-52 117-116 117-63 0-117-50-117-117 0-64 53-117 117-117 z" fill="#F4C6AD"/>
		<path d="M1339 683c200 0 354 141 362 340 3 73 10 146 10 219 0 49-26 103-83 103l-235 0c-98 0-170 42-233 121-4 5-9 8-15 8-9 0-15-3-17-8-17-49-49-85-102-110-40-19-58-62-58-103 0-76 6-154 9-230 8-199 162-340 362-340 z" fill="#FFD7C2"/>
		<path d="M1585 1103c-49 16-99 29-148 44 21 32 54 61 97 61 27 0 97-15 97-50 0-24-30-42-46-55 z M1096 1103c49 16 99 29 148 44-21 32-54 61-97 61-29 0-97-15-97-50 0-24 30-42 46-55 z" fill="#000000"/>
		<path d="M1600 1098l-165 0c-7 0-16 6-16 14 0 51 54 89 101 89 40 0 101-37 101-83 0-10-10-20-21-20 z M1245 1098c9 0 17 6 17 15 0 46-57 88-102 88-40 0-101-37-101-83 0-10 10-20 21-20l165 0 z" fill="#FFFFFF"/>
		<path d="M1569 1098l-127 0c-1 3-2 5-2 8l0 9c0 37 25 66 65 66 19 0 34-6 47-19 16-16 19-38 19-56 0-3-1-5-2-8 z M1238 1098c3 5 3 10 3 17 0 37-28 66-66 66-36 0-66-29-66-66 0-7 1-10 2-17l127 0 z" fill="#7D4533"/>
		<path d="M1538 1098l-67 0c-2 5-3 10-3 17 0 21 15 37 37 37 22 0 38-16 38-37 0-6-2-12-5-17 z M1210 1098c2 5 3 10 3 17 0 21-15 37-37 37-21 0-37-15-37-37 0-7 1-12 4-17l67 0 z" fill="#000000"/>
		<path d="M1483 1129c7 0 11 5 11 12 0 7-4 11-11 11-7 0-12-4-12-11 0-6 6-12 12-12 z M1153 1129c7 0 11 5 11 12 0 7-4 11-11 11-7 0-12-4-12-11 0-6 6-12 12-12 z" fill="#FFFFFF"/>
		<path d="M1339 837c47 0 94 26 120 65 1 3 2 5 2 7 0 7-4 11-11 11l-6-2c-39-14-65-25-105-25-35 0-70 8-105 25l-6 2c-7 0-11-5-11-12l2-6c16-40 81-65 120-65 z" fill="#990839"/>
		<path d="M1360 959c19 0 37 17 37 38 0 12-7 37-15 66-18 55-20 87-48 87-12 0-23-8-26-20-8-29-37-108-37-133 0-22 16-38 37-38l52 0 z" fill="#F1B99B"/>
		<path d="M1078 1246c16 0 58 24 97 24 11 0 18-2 29-2 11 0 20 7 20 19 0 17-17 23-33 23-29 0-133-9-133-45 0-10 9-19 20-19 z M1600 1246c13 0 19 6 19 19 0 33-97 45-115 45l-15 0c-18 0-36-5-36-23 0-10 10-19 21-19 9 0 18 2 29 2 28 0 60-6 86-21l1 0c3-2 6-3 10-3 z" fill="#212121"/>
		<path d="M1806 1343l0 190-882 0 0-190 882 0 z" fill="#321B41"/>
		<path d="M1874 1150c9 0 17 4 24 11 7 7 10 15 10 24l0 233c0 55-13 106-40 153-27 47-65 84-112 111-3 1-7 4-13 7-6 3-12 7-19 10l-19 8-12 3c-15 0-31 0-46-1-15-1-31-2-46-2l-535 0c-15 0-30 1-45 2-15 1-31 2-46 2l-12-3-19-8-32-16c-24-14-45-30-64-49-19-19-35-40-48-63-13-23-23-48-30-74-7-26-11-53-11-80l0-233c0-10 2-17 7-22 5-5 11-9 18-11 5-1 10-2 16-2l29 0c21 49 50 91 87 128 36 36 77 66 122 91 45 24 93 42 144 55 51 12 101 18 152 18 43 0 85-3 127-10 41-7 81-19 119-34 38-16 74-36 108-60 34-25 65-54 92-88 11-14 23-30 34-47 11-18 20-36 26-53l34 0 z" fill="#533566"/>
		<path d="M1876 1150c0 45-85 141-113 172-111 108-271 156-429 156-146 0-291-39-407-142-31-29-134-137-134-186l36 0c86 196 305 292 505 292 172 0 338-56 448-195 23-27 46-62 58-97l36 0 z" fill="#8D65C5"/>
		<path d="M1261 1555l181 62-5 108-371 0c-31 0-60-5-91-13l0-117c0-22 17-40 40-40l246 0 z" fill="#B4F6FC"/>
		<path d="M1652 1555c23 0 41 18 41 40l0 117c-29 9-59 13-92 13l-164 0-176-170 391 0 z" fill="#26EAFC"/>
	</g></svg>
