<svg version="1.1" xmlns="http://www.w3.org/2000/svg" viewBox="0 0 2300 2300"><g transform="scale(1,-1) translate(-256, -1869)">
		<path d="M2197-215c-23 224-129 429-298 578l-277-223 0-355 575 0 z M1047-215l0 355-278 223c-171-148-276-354-297-578l575 0 z" fill="#433B6B"/>
		<path d="M1304 0c72 0 143 13 211 36l107 564c-104 32-213 47-322 47-111 0-219-16-325-47l106-558c72-28 147-42 223-42 z" fill="#E4B29A"/>
		<path d="M1444-215l70 355c-56-20-115-29-175-29-64 0-125 12-185 33l71-359 219 0 z" fill="#E6E6E6"/>
		<path d="M1622-215c31 62 420 870 420 880 0 11-7 18-18 18l-438 0-180-898 216 0 z M1262-215l-179 898-439 0c-11 0-18-7-18-18 0-11 388-815 421-880l215 0 z" fill="#00A6ED"/>
		<path d="M1714 866c69 0 123 57 123 125 0 64-50 124-123 124-68 0-123-55-123-124 0-70 56-125 123-125 z M990 866c69 0 123 57 123 125 0 64-50 124-123 124-68 0-123-55-123-124 0-70 56-125 123-125 z" fill="#E4B29A"/>
		<path d="M1456 503c130 0 235 103 243 228 11 141 18 283 29 424l1 14c0 213-154 377-362 377l-66 0c-50 0-97-10-141-29-143-63-221-192-221-348l1-14c11-141 18-283 29-424 8-128 115-228 244-228l243 0 z" fill="#EEBFAA"/>
		<path d="M1108 724l279 393-145 0 108 329-165 0-179-515 140 0-38-207 z" fill="#F92F60"/>
		<path d="M1614 988l-168 0c-12 0-17 9-17 20 0 4 4 18 7 22 16 38 53 65 96 65 43 0 104-37 104-86 0-10-10-21-22-21 z M1258 988c12 0 17 9 17 20 0 46-57 87-103 87-43 0-104-37-104-86 0-10 10-21 22-21l168 0 z" fill="#FFFFFF"/>
		<path d="M1581 988l-130 0c-1 7-3 11-3 18 0 39 34 68 69 68 38 0 67-31 67-68 0-7 0-11-3-18 z M1253 988c1 7 3 11 3 18 0 39-34 68-69 68-38 0-67-31-67-68 0-7 0-11 3-18l130 0 z" fill="#7D4533"/>
		<path d="M1551 988l-68 0c-3 7-5 13-5 18 0 21 17 39 39 39 21 0 39-17 39-39 0-5-2-11-5-18 z M1221 988c3 7 5 13 5 18 0 21-17 39-39 39-23 0-38-18-38-39 0-7 1-13 4-18l68 0 z" fill="#000000"/>
		<path d="M1496 1021c7 0 12 6 12 12 0 8-4 12-12 12-8 0-12-4-12-12 0-6 6-12 12-12 z M1164 1021c7 0 12 6 12 12 0 8-4 12-12 12-8 0-12-4-12-12 0-6 6-12 12-12 z" fill="#FFFFFF"/>
		<path d="M1093 1124c9 0 18 3 25 8l0 1c17 11 33 18 49 19 16 1 33 2 52 2 23 0 41 20 41 42 0 39-34 43-62 43-36 0-146-20-146-74 0-22 18-41 41-41 z M1611 1124c23 0 41 20 41 42 0 54-110 74-145 74-31 0-64-6-64-46 0-31 22-38 43-38 32-2 70-3 99-24l1 0c7-5 16-8 25-8 z" fill="#A56953"/>
		<path d="M1368 840c23 0 37 19 37 40 0 13-7 39-15 68-17 51-21 89-48 89-13 0-22-7-25-20-8-30-37-111-37-137 0-19 14-40 36-40l52 0 z" fill="#D19479"/>
		<path d="M1352 701c25 0 49 7 71 20 22 13 55 45 55 57 0 7-5 13-12 13l-6-2c-40-15-67-27-108-27-37 0-73 9-108 27l-6 2c-7 0-12-6-12-13l2-6c19-44 82-71 124-71 z" fill="#990839"/>
		<path d="M1712 1035c22 3 42 18 46 41l42 236c1 7 2 15 2 23 0 97-60 127-117 157-83 42-121 156-235 156-43 0-74-21-117-21-45 0-81 26-124 26-79 0-121-68-172-119-57-61-133-62-162-141-7-19-8-44-8-67 0-4 1-8 2-13l42-236c4-23 24-40 46-41-3 39-6 78-6 117 0 59 66 60 66 131l0 66c0 21 10 35 30 40 94 27 194 33 287 33 92 0 194-6 288-33 20-5 30-19 30-40l0-66c0-72 67-76 67-134 0-39-4-76-7-115 z" fill="#FFF9BA"/>
		<path d="M2268 144l0 150c0 40-34 66-71 66-37 0-72-26-72-66l0-150 143 0 z" fill="#E4B29A"/>
		<path d="M2102 455c95 0 177 78 177 177 0 95-78 177-177 177-100 0-177-82-177-177 0-100 82-177 177-177 z" fill="#321B41"/>
		<path d="M2099-15c-27 0-53 21-56 50l-47 455 211 0-52-455c-3-29-29-50-56-50 z M2275 597c22 0 41 18 41 41 0 23-19 41-41 41l-343 1c-22 0-41-18-41-41 0-23 19-41 41-41l343-1 z" fill="#D3D3D3"/>
		<path d="M2100 319c19 0 34 16 34 34 0 19-16 35-34 35-19 0-35-17-35-35 0-21 17-34 35-34 z" fill="#F4F4F4"/>
		<path d="M2205-215c40 0 63 35 63 71l0 288c0 36-23 72-63 72l-240 0 0-2c-36 0-56-32-56-64 0-18 10-37 25-48-16-11-25-32-25-51 0-21 8-39 25-52-18-11-25-31-25-51 0-21 8-38 25-51-15-11-25-30-25-48 0-33 20-64 56-64l240 0 z" fill="#EEBFAA"/>
	</g></svg>
