<svg version="1.1" xmlns="http://www.w3.org/2000/svg" viewBox="0 0 2300 2300"><g transform="scale(1,-1) translate(-256, -1869)">
		<path d="M1400-287c72 0 182 47 248 80 328 162 753 529 753 932 0 553-448 1000-1001 1000-551 0-1000-447-1000-1000 0-415 442-778 753-932 63-31 176-80 247-80 z" fill="#86D72F"/>
		<path d="M1406-73c39 0 76 9 111 28 47 24 104 68 104 117 0 41-33 72-71 72-61 0-68-73-144-73-78 0-84 73-144 73-41 0-72-34-72-72 0-16 5-31 16-45 47-59 119-100 200-100 z" fill="#212121"/>
		<path d="M1778 288c118 0 234 98 313 177 77 77 178 192 178 312 0 179-211 301-377 301-227 0-414-181-414-414 0-156 116-376 300-376 z M1034 288c181 0 300 215 300 376 0 225-182 414-415 414-155 0-376-115-376-301 0-90 57-180 117-246 102-116 238-243 374-243 z" fill="#533566"/>
		<path d="M2048 719c58 0 97 39 97 97 0 84-80 160-160 160-58 0-97-39-97-97 0-79 76-160 160-160 z M1093 719c59 0 97 42 97 98 0 78-75 159-160 159-56 0-97-39-97-96 0-83 81-161 160-161 z" fill="#FFFFFF"/>
	</g></svg>
