<svg version="1.1" xmlns="http://www.w3.org/2000/svg" viewBox="0 0 2300 2300"><g transform="scale(1,-1) translate(-256, -1869)">
		<path d="M2197-287l0 934c0 65-3 130-10 197-24 227-126 527-307 652l-474-467-474 467c-36-25-77-68-100-99-166-209-217-492-217-750l0-934 1582 0 z" fill="#E6E6E6"/>
		<path d="M1826 247l0 759-842 0 0-759 842 0 z" fill="#D3D3D3"/>
		<path d="M1394 216c175 0 374 56 503 188-72 56-168 112-261 136-35 9-82 17-82 57l0 210c0 82-66 151-151 151-80 0-145-69-145-148l0-213c0-41-44-47-81-57-102-26-202-85-276-147 127-122 315-177 493-177 z" fill="#452829"/>
		<path d="M2197-287l0 72c0 234-106 459-289 610-110-144-282-228-460-228l-83 0c-180 0-352 84-461 228-185-150-289-377-289-610l0-72 1582 0 z" fill="#F4F4F4"/>
		<path d="M1386 133c5 0 9 0 13 1l12 3c3-1 8-2 15-2 5 0 9 0 14 1 5 0 9 1 13 3 7-2 14-3 21-3 11 0 22 3 33 10 11 6 19 14 25 23 14-13 30-19 49-19 15 0 29 4 41 13 11 8 20 19 26 32 13-7 26-11 39-11 8 0 17 2 27 5l1 0c11 5 20 12 28 21 7 9 12 19 14 30 10-3 19-5 28-5 13 0 26 4 39 11l0 1c10 6 18 14 24 25 5 11 8 22 9 33l13-2c7 0 13 1 19 3 11 3 20 7 28 14 8 6 15 14 20 24 5 9 7 20 7 31 0 20-7 37-21 51-14 14-31 21-51 21-19 0-36-7-50-20-15-14-22-31-22-50l-16 2c-13 0-26-4-38-12-17-11-28-26-32-45-9 4-19 6-28 6-9 0-18-2-26-6l-1 0c-9-4-16-9-23-15-7-7-13-15-16-24-11 8-24 12-39 12l-15-2 0-1c-20-4-35-14-45-31-7 7-14 12-22 15-9 3-18 4-27 4-9 0-17-1-24-4l-7 2-23 0c-5-1-9-2-13-4-7 2-14 3-21 3-11 0-22-3-32-9-11-6-19-14-25-23-6 12-15 22-27 29-12 7-25 10-38 10-20 0-37-7-50-20-5 15-13 28-26 37-13 9-28 14-43 14-7 0-14-1-21-2-7-2-13-5-18-9-1 11-5 22-11 32-6 9-14 17-23 23l0 1c-13 7-26 11-39 11-8 0-16-2-25-5l0 4c0 20-6 37-18 53-14 16-32 24-54 24-21 0-38-7-51-21-14-14-21-31-21-51 0-21 7-38 22-51 14-14 31-21 51-21 9 0 18 1 25 4l0-8c0-8 1-15 3-22 3-10 8-19 15-26 7-8 15-14 24-18 9-5 19-7 30-7 14 0 27 4 39 12 1-13 6-25 15-36 8-11 18-20 31-25l1-1c9-3 17-5 25-5 19 0 36 7 50 21 5-15 14-28 27-37 13-10 27-15 43-15 11 0 22 3 33 9 11 5 19 13 26 22 7-11 16-20 27-27 11-7 24-11 37-11 z" fill="#D3D3D3"/>
		<path d="M1618-287l148 226c28-29 59-45 100-45 36 0 67 12 93 36 1 1 2 3 2 5l-2 5c-26 26-51 59-83 75 68 3 134 60 134 130 0 7-19 9-37 9-19 0-41-2-48-2-71 0-116-60-116-125l-14-3c-11 43-51 62-90 62l-604-7c-36 0-74-17-86-56l-12 2c0 66-48 125-116 125l-78 0c-5 0-7-2-7-7 0-70 67-130 134-130-22-11-85-74-85-81l2-5c25-23 57-35 92-35 37 0 70 14 98 42l154-221 421 0 z" fill="#44911B"/>
		<path d="M1761-32l-195 80c51 121 78 222 207 275 4 1 8 2 11 2 38 0 46-102 46-129 0-84-39-153-69-228 z M1072-25l195 80c-49 119-82 227-207 276-4 1-7 2-10 2-37 0-48-98-48-131 0-80 35-146 70-227 z" fill="#F70A8D"/>
		<path d="M1702-44c95 0 153 75 188 156 8 20 55 120 55 133 0 20-25 23-40 23-58 0-111-43-152-86-20-21-37-49-53-49-7 0-12 4-12 11 0 23 5 47 5 70 0 50-14 154-73 173-1 0-2 1-5 1-9 0-17-7-20-15l-51-119c-16-40-30-83-30-123 0-104 87-175 188-175 z M1110-37c95 0 188 68 188 175 0 43-15 86-31 124l-50 118c-3 8-12 15-21 15l-5-1c-59-16-72-126-72-173 0-21 5-43 5-64 0-8-2-17-13-17-5 0-10 2-13 7-46 52-116 128-191 128-15 0-40-3-40-23 0-13 47-114 55-133 35-80 92-156 188-156 z" fill="#FF6DC6"/>
		<path d="M1321-80c50 0 70 34 89 76 24-38 41-72 92-72 48 0 83 38 83 84 0 40-27 63-51 93 52 10 106 23 106 91 0 46-36 85-84 85-24 0-47-13-70-21 1 16 2 33 2 49 0 48-41 83-85 83-49 0-82-42-82-86 0-16 1-33 4-50-23 7-45 18-69 18-47 0-84-37-84-84 0-72 57-82 113-90-23-28-48-52-48-91 0-44 36-85 84-85 z" fill="#FFF478"/>
		<path d="M1410 72c39 0 72 31 72 72 0 39-31 72-72 72-38 0-72-33-72-72 0-39 34-72 72-72 z" fill="#3D2123"/>
		<path d="M1585 748l136 46c31 11 57 30 76 57 19 27 29 58 29 91l0 300c0 14 3 27 8 38 5 11 11 23 18 35 7 11 13 24 18 38 5 14 8 31 8 51 0 38-10 71-31 100-21 28-50 48-85 61-43 15-76 41-99 78-16 25-37 45-62 60-25 15-53 22-84 22-11 0-21-1-30-3l-27-8c-9-3-18-6-27-8-9-3-18-4-27-4-9 0-18 1-27 4-9 2-18 5-27 8l-28 8c-9 2-19 3-29 3-31 0-58-7-83-21-25-14-45-34-62-59-25-37-58-64-101-80-35-13-62-33-83-62-21-29-32-62-32-99 0-19 3-36 8-49 5-13 11-26 17-37l17-35c5-12 8-25 8-40l0-300c0-34 10-64 29-91 19-27 45-46 77-57l136-47 0 534c13 13 24 29 33 47 9 17 14 36 15 55 3-1 7-1 11-1 3-1 7-1 10-1 20 0 40 4 59 11 19 7 36 17 51 30 17-15 38-26 61-33 15-5 31-8 47-8 8 0 15 1 23 2 3-21 8-40 16-55 8-16 19-32 33-47l0-534 z" fill="#000000"/>
		<path d="M1757 988c68 0 120 57 120 120 0 68-57 120-120 120-68 0-120-57-120-120 0-68 57-120 120-120 z M1054 988c68 0 120 57 120 120 0 68-57 120-120 120-68 0-120-57-120-120 0-68 57-120 120-120 z" fill="#452829"/>
		<path d="M1476 647c29 0 57 4 84 13 27 8 53 20 76 35 23 15 44 33 62 55 18 21 33 45 44 72l12 33c3 11 5 22 6 33l12 174 10 174c1 6 1 12 1 18l0 18c0 29-9 54-28 75-19 20-44 30-74 31-31 1-58 1-83 1l-10 0c-21 0-42 3-60 7-21 5-41 14-60 29-19 14-37 36-54 65-5 9-11 17-17 22-7 5-16 8-28 8l-94 0c-31 0-62-6-91-17-29-12-55-28-78-49-23-21-42-45-56-73-14-28-21-58-21-91 0-25 1-47 3-65l6-66 17-261c1-11 4-22 7-33 3-12 7-23 11-33 11-27 25-51 44-72 18-22 39-40 62-55 23-15 49-27 76-35 27-9 55-13 84-13l137 0 z" fill="#573739"/>
		<path d="M1406 823c25 0 48 7 71 20 23 13 55 45 55 57 0 9-4 13-12 13l-6-2c-42-15-65-27-108-27-38 0-74 9-108 27l-6 2c-6 0-12-5-12-12 0-2 1-4 2-7 24-42 75-71 124-71 z" fill="#290118"/>
		<path d="M1662 1105l-164 0c-7 0-17 6-17 14 0 47 52 89 101 89 39 0 100-36 100-83 0-10-10-20-20-20 z M1315 1105c7 0 16 6 16 14 0 48-51 89-100 89-39 0-101-35-101-82 0-10 10-21 21-21l164 0 z" fill="#FFFFFF"/>
		<path d="M1630 1105l-126 0c-1 3-2 6-2 9l0 8c0 35 28 66 65 66 18 0 33-6 46-19 16-17 19-40 19-55 0-3-1-6-2-9 z M1309 1105c1 7 2 10 2 17 0 35-27 66-65 66-36 0-66-29-66-66 0-7 1-10 2-17l127 0 z" fill="#7D4533"/>
		<path d="M1600 1105l-66 0c-3 5-4 10-4 17 0 22 16 38 37 38 21 0 37-16 37-38 0-7-1-12-4-17 z M1279 1105c3 5 4 10 4 17 0 22-16 38-37 38-21 0-38-16-38-38 0-6 2-12 5-17l66 0 z" fill="#000000"/>
		<path d="M1547 1137c7 0 11 5 11 12 0 7-4 11-11 11-7 0-12-4-12-11 0-8 4-12 12-12 z M1223 1137c8 0 12 4 12 12 0 7-5 11-12 11-7 0-11-4-11-11 0-7 4-12 11-12 z" fill="#FFFFFF"/>
		<path d="M1433 953c22 0 37 20 37 39 0 18-16 71-28 107-12 32-12 51-35 51-14 0-23-9-26-21-8-29-38-113-38-136 0-19 15-40 37-40l53 0 z" fill="#3D2123"/>
		<path d="M1658 1260c5 0 10 2 14 6 4 3 6 8 6 13 0 8-5 15-15 22-10 6-22 11-35 16-13 4-27 7-40 10-13 2-23 3-30 3-9 0-18-1-27-2-9-2-14-9-14-22 0-5 2-9 5-11 3-3 7-4 12-5l6-1 7 1 12 0c12 0 24-1 35-4 11-3 20-7 29-11l22-10c6-3 10-5 13-5 z M1155 1260c5 0 8 1 12 4 19 13 36 20 52 22 16 2 35 3 56 3 9 0 12 3 19 10 1 4 2 7 2 10 0 16-15 21-30 21-38 0-131-16-131-51 0-12 9-19 20-19 z" fill="#000000"/>
		<path d="M1909 1344c29 0 54 23 54 53 0 14-4 22-12 34-14 19-51 52-70 68-140 112-311 154-475 154-164 0-335-42-475-154-29-21-82-63-82-101 0-29 21-54 53-54 18 0 29 7 42 20 126 130 286 182 462 182 177 0 336-54 461-182 13-13 24-20 42-20 z" fill="#D3D3D3"/>
	</g></svg>
