<svg version="1.1" xmlns="http://www.w3.org/2000/svg" viewBox="0 0 2300 2300"><g transform="scale(1,-1) translate(-256, -1869)">
		<path d="M2053 360c120 0 215 97 215 215 0 121-97 216-215 216-121 0-216-99-216-216 0-119 97-215 216-215 z M759 360c121 0 216 97 216 215 0 121-99 216-216 216-121 0-216-99-216-216 0-119 97-215 216-215 z" fill="#E4B29A"/>
		<path d="M1532-287c103 0 203 30 289 87 120 79 224 230 232 373 18 255 33 521 49 776 3 26 5 50 5 76 0 302-242 556-552 556l-298 0c-315 0-552-250-552-562 0-24 1-47 4-70 17-255 32-521 50-776 1-23 6-48 14-73 76-251 287-387 507-387l252 0 z" fill="#EEBFAA"/>
		<path d="M948 794c-9 0-18 4-25 11-7 7-11 16-11 25l2 8c1 3 2 7 4 10 1 3 3 6 5 9l4 2 1 0c30 21 63 36 98 47 35 11 71 16 107 16l24 0c9-1 17-2 25-4 7-3 14-7 19-12 5-5 8-13 8-24 0-9-4-17-11-24-8-7-17-10-26-10-6 0-12 0-18 1-7 1-13 1-20 1-39 0-76-7-111-21l-17-8-22-12-20-10c-7-3-12-5-16-5 z M1875 794c19 0 36 17 36 35 0 12-5 22-14 29l-21-28 21 28 0 1-2 0c-61 43-134 63-205 63l-23 0c-27-2-52-9-52-38 0-21 15-36 37-36 14 0 24 2 38 2 38 0 75-7 110-21 17-8 63-35 75-35 z" fill="#A56953"/>
		<path d="M1882 572l-301 0c-21 0-31 14-31 36 19 88 95 153 186 153 88 0 162-60 183-143l1-9c0-21-16-37-38-37 z M1244 572c16 0 31 12 31 30l-1 6c-18 87-92 153-185 153-88 0-162-60-183-143l-1-9c0-21 16-37 37-37l302 0 z" fill="#FFFFFF"/>
		<path d="M1824 571l-233 0c-3 11-4 21-4 32 0 67 54 121 121 121 67 0 121-54 121-121 0-10-2-21-5-32 z M1233 571c3 11 5 22 5 32 0 67-54 121-121 121-67 0-121-54-121-121 0-10 2-21 5-32l232 0 z" fill="#7D4533"/>
		<path d="M1769 571l-122 0c-5 11-8 21-8 32 0 38 29 69 69 69 40 0 69-31 69-69 0-11-3-21-8-32 z M1178 571c5 11 8 21 8 32 0 38-29 69-69 69-40 0-69-31-69-69 0-11 3-21 8-32l122 0 z" fill="#000000"/>
		<path d="M1670 629c12 0 22 10 22 22 0 12-10 21-22 21-11 0-21-11-21-21 0-10 9-22 21-22 z M1075 629c12 0 22 10 22 22 0 12-10 21-22 21-12 0-21-9-21-21 0-12 9-22 21-22 z" fill="#FFFFFF"/>
		<path d="M1406 54c83 0 165 40 212 113 3 4 4 8 4 11 0 10-11 20-22 20l-9-2c-63-30-119-44-185-44-65 0-123 13-186 44l-9 2c-10 0-20-10-20-20 0-5 1-8 3-11 46-74 129-113 212-113 z" fill="#990839"/>
		<path d="M1459 293c37 0 73 31 73 71 0 8-1 15-4 22l-71 224c-7 23-27 37-51 37-24 0-44-14-51-37l-71-224c-3-7-4-14-4-22 0-40 36-71 73-71l106 0 z" fill="#D19479"/>
		<path d="M2103 810c58 11 99 57 108 112l55 355c3 20 5 40 5 60 0 211-172 388-389 388l-178 0-336-639 535 0c87 0 156-48 187-129 14-38 13-74 15-115l-2-32 z" fill="#E6E6E6"/>
		<path d="M723 810l-1 23 0 41c0 10 1 21 2 32 1 11 2 22 5 31 5 22 14 42 27 60 13 18 28 34 45 47 17 13 37 24 58 31 21 7 42 11 64 11l445 0c36 0 71 6 105 18 33 11 64 27 92 48 28 21 52 46 73 75 20 29 35 61 45 96l30 100 41 142 15 57c4 16 6 27 6 32 0 19-7 36-21 50-14 14-31 21-50 21l-760 0c-53 0-103-10-150-30-47-21-89-48-124-83-35-35-63-76-84-123-21-47-31-98-31-151 0-11 1-21 2-31l3-30 55-355c5-28 17-52 37-73 19-21 43-34 71-39 z" fill="#F4F4F4"/>
		<path d="M2270 1315c-96 112-227 189-391 192-23 0-45 7-45 35 0 18 16 35 35 35 149 0 287-57 391-149 7-33 11-64 11-93l-1-20 z M2222 999c-88 144-257 234-425 237-22 0-45 7-45 36 0 18 17 35 36 35 179 0 339-80 450-210l-16-98 z M597 1038c84 159 281 193 426 193 222 0 477 34 581 263 11 27 43 110 43 138 0 18-17 35-36 35-14 0-22-6-30-17-65-86-189-112-285-112-35 0-70 3-103 9-130 22-274 49-399 49-52 0-105-5-156-20-25-33-45-68-59-105 65 43 141 54 217 54 172 0 340-58 502-58 65 0 128 8 185 32 21 8 36 17 57 24l-1 0c-90-205-331-222-516-222-149 0-298-32-415-135-11-8-19-16-26-27l15-101 z" fill="#D3D3D3"/>
	</g></svg>
