<svg version="1.1" xmlns="http://www.w3.org/2000/svg" viewBox="0 0 2300 2300"><g transform="scale(1,-1) translate(-256, -1869)">
		<path d="M2047 309c121 0 221 96 221 220 0 123-101 221-221 221-123 0-221-101-221-221 0-123 100-220 221-220 z M764 309c121 0 221 96 221 220 0 123-101 221-221 221-123 0-221-101-221-221 0-123 100-220 221-220 z" fill="#8B5C56"/>
		<path d="M1403-287c92 0 179 15 260 45 81 30 152 73 213 128 61 55 110 121 147 198 38 77 58 162 62 256 4 74 7 148 9 221l9 220 1 11 0 11c0 71-14 136-43 197-28 60-67 112-115 155-48 43-104 77-167 102-63 25-129 37-198 37l-356 0c-47 0-93-6-138-17-44-12-86-29-126-51-39-22-75-48-107-79-32-31-60-65-83-103-23-38-41-79-53-123-10-39-15-78-15-119l0-21c4-74 7-147 9-220l9-221c4-93 25-178 62-255 38-77 87-143 148-198 62-55 133-98 213-128 81-31 167-46 259-46 z" fill="#EEBFAA"/>
		<path d="M1861 534c-93 31-185 53-278 84 41 62 106 115 181 115 49 0 183-27 183-96 0-43-57-80-86-103 z M963 538c93 32 185 53 278 84-40 61-105 115-182 115-51 0-182-27-182-96 0-43 57-80 86-103 z" fill="#000000"/>
		<path d="M1891 525l-309 0c-21 0-32 15-32 37 13 92 104 157 190 157 94 0 165-64 188-147l1-9c0-21-16-38-38-38 z M1242 529c18 0 32 15 32 32l-1 6c-19 90-95 156-190 156-87 0-164-59-188-146l-1-9c0-22 17-39 38-39l310 0 z" fill="#FFFFFF"/>
		<path d="M1831 525l-239 0c-3 10-4 21-4 33 0 66 53 124 123 124 65 0 124-54 124-124 0-11-1-22-4-33 z M1231 529c3 12 5 23 5 33 0 65-54 124-124 124-68 0-123-55-123-124 0-12 1-23 4-33l238 0 z" fill="#7D4533"/>
		<path d="M1774 525l-125 0c-5 11-8 22-8 33 0 38 30 70 70 70 38 0 71-30 71-70 0-11-1-22-8-33 z M1174 529c6 10 9 21 9 33 0 38-32 71-71 71-39 0-71-33-71-71 0-11 3-22 8-33l125 0 z" fill="#000000"/>
		<path d="M1670 585c12 0 22 10 22 22 0 12-10 22-22 22-12 0-23-10-23-22 0-12 11-22 23-22 z M1070 589c12 0 22 10 22 22 0 12-10 22-22 22-12 0-23-10-23-22 0-12 11-22 23-22 z" fill="#FFFFFF"/>
		<path d="M948 794c-9 0-18 4-25 11-7 7-11 16-11 25l2 7c1 3 2 7 4 10 1 3 3 6 5 9 1 2 2 3 4 3l1 0c32 22 66 38 102 48 36 10 73 15 111 15 7 0 15 0 23-1 8-1 15-2 22-5 7-3 12-7 17-12 4-5 6-13 6-22 0-9-4-17-11-24-8-7-17-10-26-10-27 0-52 0-75-1-23-1-47-7-74-18l-17-8-22-12-20-10c-7-3-12-5-16-5 z M1875 794c19 0 36 17 36 35 0 12-5 22-14 29l-21-28 21 28 0 1-2 0c-64 45-137 63-213 63-26 0-67-2-67-38 0-21 15-36 37-36l75-1c22-1 46-7 73-18 16-8 61-35 75-35 z" fill="#372128"/>
		<path d="M1406 54c83 0 165 40 212 113 3 4 4 8 4 11 0 10-11 20-22 20l-9-2c-67-28-117-44-185-44-68 0-119 16-186 44l-9 2c-10 0-20-10-20-20 0-5 1-8 3-11 44-73 134-113 212-113 z" fill="#990839"/>
		<path d="M1459 293c37 0 73 31 73 71 0 30-66 211-75 246-7 23-27 37-51 37-24 0-44-14-51-37-13-40-75-219-75-246 0-40 36-71 73-71l106 0 z" fill="#75443E"/>
		<path d="M2103 810c58 11 99 57 108 112l55 355c3 20 5 40 5 60 0 206-167 388-389 388l-178 0-336-639 535 0c124 0 201-98 201-212l0-48-1-16 z" fill="#E6E6E6"/>
		<path d="M723 810l-1 16c0 21 0 43 1 64 2 105 87 196 200 196l445 0c147 0 272 96 315 237 16 56 92 285 92 331 0 38-32 71-71 71l-760 0c-213 0-389-173-389-387 0-20 2-41 5-61l55-355c9-55 50-101 108-112 z" fill="#F4F4F4"/>
		<path d="M2270 1315c-104 121-226 181-391 192-22 3-45 5-45 35 0 18 16 35 35 35 149 0 287-57 391-149 7-31 11-62 11-93l-1-20 z M2222 999c-76 124-202 201-335 227-31 7-59 7-90 10-23 3-45 6-45 36 0 18 17 35 36 35 179 0 341-81 450-210l-16-98 z M597 1038c84 159 281 193 426 193 221 0 470 30 581 263 11 27 43 110 43 138 0 18-17 35-36 35-16 0-21-7-30-17-73-87-179-112-285-112-35 0-69 3-103 9-134 22-274 49-399 49-53 0-105-5-156-20-25-33-45-68-59-105 64 43 141 54 217 54 170 0 339-58 502-58 43 0 86 3 129 14 44 11 76 30 113 42l-1 0c-90-205-331-222-516-222-159 0-295-34-415-135-11-8-19-16-26-27l15-101 z" fill="#D3D3D3"/>
	</g></svg>
