<svg version="1.1" xmlns="http://www.w3.org/2000/svg" viewBox="0 0 2300 2300"><g transform="scale(1,-1) translate(-256, -1869)">
		<path d="M2233-287c-4 184-26 369-124 531-133 217-429 348-703 348-206 0-410-67-575-207-210-177-250-438-252-672l1654 0 z" fill="#CA0B4A"/>
		<path d="M2307-287l-325 0 0 676c197-163 325-418 325-676 z M832-287l0 676c-197-165-324-415-324-676l324 0 z" fill="#990839"/>
		<path d="M1442-287l0 574c0 7 3 11 10 14 7 3 14 4 23 5l14 1 13-1c9-1 15-1 19-1 23 0 45 4 66 13 21 9 39 21 55 36 15 15 28 32 37 53 9 21 14 43 14 66l0 191-575 0 0-191c0-24 5-46 14-66 9-21 22-38 38-53 15-15 34-27 55-36 21-9 43-13 66-13 5 0 11 0 20 1 9 1 17 1 26 1 9-1 16-2 23-5 7-3 10-8 10-15l0-574 72 0 z" fill="#FFD7C2"/>
		<path d="M1459-287c19 0 37 14 37 36 0 22-18 36-37 36l-106 0c-19 0-37-14-37-36 0-22 18-36 37-36l106 0 z M1459-75c19 0 37 14 37 36 0 22-18 36-37 36l-106 0c-19 0-37-14-37-36 0-22 18-36 37-36l106 0 z M1459 144c19 0 37 14 37 36 0 22-18 36-37 36l-106 0c-19 0-37-14-37-36 0-22 18-36 37-36l106 0 z M1522 377c50 0 100 41 100 96l0 119-432 0 0-119c0-53 46-96 99-96l233 0 z" fill="#321B41"/>
		<path d="M1783 899c69 0 126 54 126 125 0 69-56 126-126 126-68 0-125-55-125-126 0-71 60-125 125-125 z M1029 899c71 0 125 60 125 125 0 69-54 126-125 126-69 0-126-56-126-126 0-68 55-125 126-125 z" fill="#F4C6AD"/>
		<path d="M1538 503c138 0 255 104 266 244l33 467 0 14c0 215-177 389-395 389l-72 0c-54 0-105-10-153-30-155-66-242-204-242-373l33-467c11-139 127-244 266-244l264 0 z" fill="#FFD7C2"/>
		<path d="M1127 1154c24 0 53 33 109 33l24-1c26 0 44 20 44 44 0 40-35 46-67 46-38 0-154-21-154-78 0-27 19-44 44-44 z M1678 1154c23 0 44 19 44 45 0 57-118 77-153 77-32 0-69-6-69-46 0-32 20-41 43-41 7-1 15-1 23-1 59 0 88-34 112-34 z" fill="#212121"/>
		<path d="M1701 1020l-179 0c-13 0-19 10-19 22 0 4 6 19 7 23 18 39 58 67 104 67 44 0 110-40 110-90 0-12-11-22-23-22 z M1320 1020c13 0 19 10 19 22 0 4-4 18-7 23-18 38-58 67-104 67-46 0-110-41-110-90 0-12 11-22 23-22l179 0 z" fill="#FFFFFF"/>
		<path d="M1666 1019l-139 0c-1 7-2 13-2 20 0 38 33 72 72 72 38 0 72-33 72-72 0-7-1-13-3-20 z M1315 1019c1 7 2 13 2 20 0 39-31 72-72 72-38 0-72-33-72-72 0-7 1-13 3-20l139 0 z" fill="#7D4533"/>
		<path d="M1633 1019l-73 0c-3 7-4 13-4 20 0 22 18 41 41 41 22 0 41-18 41-41 0-9-2-15-5-20 z M1282 1019c3 7 5 13 5 20 0 22-18 41-41 41-22 0-41-18-41-41 0-9 2-15 5-20l72 0 z" fill="#000000"/>
		<path d="M1575 1055c9 0 13 4 13 13 0 9-4 13-13 13-9 0-13-4-13-13 0-9 4-13 13-13 z M1220 1055c9 0 13 4 13 13 0 9-4 13-13 13-8 0-12-4-12-13 0-9 4-13 12-13 z" fill="#FFFFFF"/>
		<path d="M1436 881c23 0 42 18 42 40 0 9-8 36-18 66-22 62-24 91-54 91-15 0-24-7-29-20-8-25-43-118-43-137 0-22 19-40 42-40l60 0 z" fill="#F1B99B"/>
		<path d="M1406 701c26 0 51 6 76 19 24 12 59 45 59 58 0 9-4 13-13 13l-6-2c-44-15-70-27-116-27-41 0-79 9-116 27l-6 2c-7 0-13-6-13-13l2-6c18-44 88-71 133-71 z" fill="#990839"/>
		<path d="M1819 1073c23 1 45 18 49 43l38 248c3 15 3 23 3 38l-155 0 0-67c0-77 73-77 73-143 0-40-5-79-8-119 z M994 1072c-3 40-8 82-8 122 0 65 71 67 71 141l0 67-154 0c0-13 1-25 3-38l36-248c4-26 28-43 52-44 z" fill="#212121"/>
		<path d="M1909 1351c-69 202-223 343-440 370l-59-14c-5 0-65 14-68 14-24 0-84-17-110-26-143-50-256-156-315-306l-14-38 1006 0 z" fill="#CA0B4A"/>
		<path d="M1568 1371c0 138-19 236-98 350-21 3-43 4-64 4-21 0-43-1-64-4-79-114-98-212-98-350l324 0 z" fill="#008463"/>
		<path d="M1878 1294c26 0 49 21 49 48 0 18-2 39-6 63-10 53-11 105-60 105l-910 0c-26 0-44-17-48-42-6-36-18-89-18-126 0-26 20-48 48-48l945 0 z" fill="#321B41"/>
		<path d="M1406 1330c39 0 72 31 72 72 0 38-33 72-72 72-38 0-72-33-72-72 0-39 31-72 72-72 z" fill="#F4C6AD"/>
	</g></svg>
