<svg version="1.1" xmlns="http://www.w3.org/2000/svg" viewBox="0 0 2300 2300"><g transform="scale(1,-1) translate(-256, -1869)">
		<path d="M1397 998c190 0 356 152 356 357 0 197-158 357-356 357-195 0-357-156-357-357 0-195 156-357 357-357 z" fill="#636363"/>
		<path d="M1682 428c233 0 482 173 482 435 0 21-2 42-5 63-69 431-343 572-762 572-416 0-709-145-789-573-5-23-7-47-7-73 0-249 235-424 475-424l606 0 z" fill="#9B9B9B"/>
		<path d="M776 357c120 0 214 94 214 214 0 117-96 214-214 214-117 0-213-94-213-214 0-117 94-214 213-214 z M2039 364c117 0 213 94 213 214 0 117-94 214-213 214-117 0-214-96-214-214 0-117 96-214 214-214 z" fill="#FECA46"/>
		<path d="M1396-196c361 0 646 255 662 623l11 259c3 51 5 79 5 129 0 88-54 177-151 177l-428 0c-156 0-314 77-399 192-16 20-31 46-53 46-22 0-31-15-37-31-36-88-81-142-165-181-80-37-122-104-122-196 0-25 3-51 3-76l-1 0 12-319c16-362 297-623 663-623 z" fill="#FDD641"/>
		<path d="M1449 285c37 0 73 31 73 71 0 8-1 15-4 22l-70 226c-7 23-27 37-51 37-22 0-44-14-51-37-13-39-74-216-74-247 0-41 34-72 73-72l104 0 z" fill="#FFB02C"/>
		<path d="M1397 89c83 0 164 40 210 113 3 4 4 8 4 11 0 10-10 19-21 19l-9-2c-61-30-118-44-184-44-67 0-122 15-184 44l-9 2c-11 0-21-10-21-20 0-4 1-7 3-10 46-73 128-113 211-113 z" fill="#990839"/>
		<path d="M1844 571c-86 27-169 44-256 71 34 58 110 114 180 114 56 0 96-15 140-50 15-12 31-24 31-45 0-39-71-73-95-90 z M964 571c86 27 169 44 256 71-36 57-106 114-180 114-54 0-95-14-141-50-15-12-30-24-30-45 0-39 71-73 95-90 z" fill="#000000"/>
		<path d="M1859 571l-296 0c-21 0-31 14-31 36 19 92 99 149 183 149 83 0 158-57 180-140l1-9c0-22-18-36-37-36 z M1231 571c16 0 31 12 31 30l-1 6c-19 88-95 149-182 149-86 0-159-59-180-140l-1-9c0-22 18-36 37-36l296 0 z" fill="#FFFFFF"/>
		<path d="M1802 571l-229 0c-3 11-4 20-4 31 0 67 52 119 118 119 68 0 119-55 119-119 0-11-1-20-4-31 z M1220 571c3 11 5 22 5 31 0 68-55 119-119 119-63 0-119-52-119-119 0-9 2-20 5-31l228 0 z" fill="#7D4533"/>
		<path d="M1746 571l-119 0c-5 9-8 20-8 31 0 39 31 68 68 68 38 0 67-31 67-68 0-11-3-22-8-31 z M1166 571c5 9 8 20 8 31 0 39-31 68-68 68-38 0-67-31-67-68 0-11 3-22 8-31l119 0 z" fill="#000000"/>
		<path d="M1650 626c12 0 21 10 21 22 0 10-10 21-21 21-11 0-21-11-21-21 0-12 9-22 21-22 z M1066 626c12 0 21 12 21 22 0 10-10 21-21 21-10 0-22-9-22-21 0-12 10-22 22-22 z" fill="#FFFFFF"/>
		<path d="M1867 820c-7 0-13 2-18 5l0 1c-9 2-19 6-30 12-11 5-22 10-31 13-16 5-32 10-48 13-17 3-34 4-51 4-9 0-17-1-25-2-9-2-17-3-26-3-9 0-17 4-24 11-7 7-10 15-10 24 0 11 3 19 9 24 6 5 14 9 23 12 9 3 18 4 28 5l26 0c30 0 60-4 89-11 29-7 57-17 85-30l16-8 4-1c1-1 2-1 2-2l0-1c5-3 10-8 13-13 3-5 4-11 4-17 0-10-4-18-11-25-7-7-16-11-25-11 z M927 820c7 0 13 2 18 5l0 1c9 2 19 6 30 12 49 24 89 30 129 30 17 0 34-5 51-5 21 0 35 18 35 36 0 31-32 39-60 40l-26 0c-71 0-133-21-196-52l0-1c-11-7-17-18-17-30 0-21 18-36 36-36 z" fill="#9B9B9B"/>
		<path d="M1040 405c53 0 106 12 161 58 3 1 13 11 13 12 7 7 10 15 10 24 0 19-16 36-35 36-24 0-68-58-149-58-18 0-35-17-35-36 0-19 17-36 35-36 z M1763 405c18 0 35 17 35 36 0 19-17 36-35 36-113 0-115 58-149 58-19 0-35-17-35-36 0-9 3-16 9-23 46-55 103-71 175-71 z" fill="#FFB02C"/>
	</g></svg>
