<svg version="1.1" xmlns="http://www.w3.org/2000/svg" viewBox="0 0 2300 2300"><g transform="scale(1,-1) translate(-256, -1869)">
		<path d="M1406-216c72 0 85 61 156 61 36 0 61-20 97-20 109 0 93 118 202 118 9 0 18-2 27-2 58 0 101 40 113 93 11 49 41 79 90 90 53 12 93 55 93 113 0 9-2 18-2 27 0 109 118 93 118 202 0 34-21 62-21 96 0 72 62 89 62 157 0 70-62 89-62 156 0 36 21 61 21 97 0 109-118 93-118 202 0 9 2 18 2 27 0 58-40 101-93 113-49 11-79 41-90 90-12 53-55 93-113 93-9 0-18-2-27-2-109 0-93 118-202 118-36 0-61-21-97-21-70 0-89 62-156 62-71 0-86-62-157-62-34 0-61 21-96 21-109 0-93-118-202-118-9 0-18 2-27 2-58 0-101-40-113-93-11-49-41-79-90-90-53-12-93-55-93-113 0-9 2-18 2-27 0-109-118-93-118-202 0-36 20-61 20-97 0-72-61-86-61-156 0-73 61-85 61-157 0-36-20-60-20-96 0-109 118-93 118-202 0-9-2-18-2-27 0-58 40-101 93-113 49-11 79-41 90-90 12-53 55-93 113-93 9 0 18 2 27 2 109 0 93-118 202-118 36 0 60 20 96 20 74 0 86-61 157-61 z" fill="#533566"/>
		<path d="M1406 12c136 0 177 11 308 27 163 21 292 134 332 294 29 113 43 232 43 349 0 155-16 224-48 382-36 171-173 318-366 343-83 11-164 18-248 18-95 0-190-11-285-23-191-24-335-158-372-343-30-150-47-227-47-377 0-117 14-236 43-349 40-160 169-273 332-294 133-17 171-27 308-27 z" fill="#CA0B4A"/>
		<path d="M1406 467c115 0 144 81 144 180 0 67-54 252-144 252-92 0-144-185-144-252 0-102 32-180 144-180 z" fill="#990838"/>
		<path d="M1406 72c86 0 158 21 216 62 79 56 143 177 143 297l-718 0c0-19 2-38 6-57 37-202 166-302 353-302 z" fill="#6B438B"/>
		<path d="M1514 120c19 0 36 19 36 38l0 36c0 12-11 22-23 22-8 0-14-4-19-12-8-15-24-35-24-54 0-16 12-30 30-30 z M1298 120c16 0 30 14 30 30 0 9-3 19-9 29-13 20-17 37-35 37-12 0-22-10-22-22l0-36c0-19 17-38 36-38 z M1607 285c8 0 15 6 15 14l0 132-432 0 0-132c0-8 7-14 15-14 5 0 9 2 12 6l45 69 288 0 45-69c3-4 7-6 12-6 z" fill="#FFFFFF"/>
		<path d="M2024 1114c20 47 180 383 180 413 0 28-23 55-55 55-9 0-18-3-27-8l-349-208c0-141 108-252 251-252 z M795 1114c141 0 252 110 252 252l-350 208c-9 5-18 8-27 8-32 0-55-27-55-55 0-27 159-371 180-413 z" fill="#FCD53F"/>
		<path d="M1765 503c121 0 216 99 216 216 0 121-99 216-216 216-119 0-215-97-215-216 0-121 97-216 215-216 z M1047 503c119 0 215 97 215 216 0 121-97 216-215 216-121 0-216-99-216-216 0-121 99-216 216-216 z" fill="#FFFFFF"/>
		<path d="M1855 647c32 0 54 24 54 54 0 30-22 54-54 54-32 0-54-24-54-54 0-30 22-54 54-54 z M957 647c30 0 54 22 54 54 0 30-22 54-54 54-30 0-54-22-54-54 0-30 22-54 54-54 z" fill="#533566"/>
		<path d="M1981 935c19 0 36 16 36 35 0 8-3 15-8 22l0 1c-64 85-166 126-263 126-35 0-196-19-196-77 0-19 16-36 35-36 5 0 11 2 18 5 48 23 92 36 143 36 87 0 145-32 206-98 8-9 18-14 29-14 z M831 935c11 0 21 5 28 14l1 0c51 66 127 98 206 98 51 0 95-13 143-36 7-3 13-5 18-5 19 0 35 17 35 36 0 56-154 77-197 77-103 0-190-43-262-126-5-7-8-14-8-22 0-19 15-36 36-36 z" fill="#321B41"/>
	</g></svg>
