<svg version="1.1" xmlns="http://www.w3.org/2000/svg" viewBox="0 0 2300 2300"><g transform="scale(1,-1) translate(-256, -1869)">
		<path d="M2268 0c81 0 144 67 144 144l0 1150c0 81-67 144-144 144l-1725 0c-80 0-143-65-143-144l0-1150c0-80 64-144 143-144l1725 0 z" fill="#B4ACBC"/>
		<path d="M2250 72c39 0 76 26 87 66l-699 443 39 60 663-420 0 998-519-350-40 60 555 374c-11 40-48 63-86 63l-1689 0c-38 0-74-25-85-63l555-374-40-60-519 350 0-999 663 421 39-60-699-444c11-40 47-65 86-65l1689 0 z" fill="#E1D8EC"/>
		<path d="M1406 216c40 0 110 43 141 64 166 110 434 362 434 583 0 176-80 359-288 359-107 0-177-44-255-109-10-8-21-12-32-12-11 0-22 4-32 12-81 65-146 109-256 109-209 0-287-183-287-359 0-215 260-470 434-583 31-21 102-64 141-64 z" fill="#F92F60"/>
	</g></svg>
