<svg version="1.1" xmlns="http://www.w3.org/2000/svg" viewBox="0 0 2300 2300"><g transform="scale(1,-1) translate(-256, -1869)">
		<path d="M1665-49l0 1331-582 0 0-1331 582 0 z" fill="#F4F4F4"/>
		<path d="M1083-113l582 282 0 155-582-281 0-156 z M1083 445l582 282 0 156-582-283 0-155 z M1083 1004l582 281 0 156-582-282 0-155 z" fill="#00A6ED"/>
		<path d="M1083 166l582 282 0 155-582-282 0-155 z M1083 725l582 281 0 156-582-282 0-155 z" fill="#CA0B4A"/>
		<path d="M1665-289c95 0 175 78 175 176 0 95-75 175-175 175l-587 0c-95 0-175-75-175-175 0-95 77-176 175-176l587 0 z M1665 1170c95 0 175 78 175 176 0 95-75 175-175 175l-587 0c-95 0-175-75-175-175 0-95 77-176 175-176l587 0 z" fill="#9B9B9B"/>
		<path d="M1662 1523c0 109-88 202-203 202l-177 0c-111 0-203-89-203-202l583 0 z" fill="#D3D3D3"/>
	</g></svg>
