<svg version="1.1" xmlns="http://www.w3.org/2000/svg" viewBox="0 0 2300 2300"><g transform="scale(1,-1) translate(-256, -1869)">
		<path d="M1848 404l0 650c0 268-350 679-637 679-102 0-156-85-156-177l2-1152 791 0 z" fill="#F70A8D"/>
		<path d="M1690 900c108 0 160 70 160 169 0 260-355 664-631 664-108 0-160-70-160-168 0-260 358-665 631-665 z" fill="#FF6DC6"/>
		<path d="M1981 132l0 222c0 44-36 77-78 77l-923 0c-42 0-77-33-77-77l0-222 1078 0 z" fill="#FFB02E"/>
		<path d="M2125-287l0 325c0 60-51 106-107 106l-1153 0c-60 0-106-51-106-106l0-325 1366 0 z" fill="#321B41"/>
	</g></svg>
