<svg version="1.1" xmlns="http://www.w3.org/2000/svg" viewBox="0 0 2300 2300"><g transform="scale(1,-1) translate(-256, -1869)">
		<path d="M1975 1221l57 60 81 282c2 6 3 13 3 20 0 44-30 59-68 70l-101-348 11-76 17-8 z" fill="#D3D3D3"/>
		<path d="M2125-287c0 416-338 754-755 754l-144 0c-417 0-754-338-754-754l1653 0 z" fill="#00A6ED"/>
		<path d="M1292 252c87 0 161 70 161 160l0 106-321 0 0-106c0-88 71-160 160-160 z" fill="#8B5C56"/>
		<path d="M1659 747c71 0 125 60 125 125 0 71-60 125-125 125-71 0-125-60-125-125 0-71 60-125 125-125 z M927 747c71 0 125 60 125 125 0 71-60 125-125 125-69 0-126-54-126-125 0-68 55-125 126-125 z" fill="#8B5C56"/>
		<path d="M1416 384c127 0 239 99 247 229 11 146 19 279 30 425l1 14c0 217-160 378-366 378l-69 0c-155 0-282-96-338-223-23-53-29-108-29-156l32-438c11-126 112-229 246-229l246 0 z" fill="#966661"/>
		<path d="M1555 1004c24 0 41 19 41 43 0 52-108 73-146 73-29 0-64-6-64-45 0-31 22-39 44-39l21 0c54 0 80-32 104-32 z M1031 1005c8 0 16 3 25 8 19 12 35 19 50 20 27 3 94-6 94 38 0 43-29 49-66 49-38 0-145-21-145-73 0-25 20-42 42-42 z" fill="#372128"/>
		<path d="M1558 869l-170 0c-7 0-17 7-17 15 0 49 52 92 105 92 43 0 104-38 104-86 0-12-12-21-22-21 z M1198 869c12 0 17 10 17 21 0 4-4 18-7 22-17 38-55 64-98 64-42 0-104-40-104-85 0-12 11-22 21-22l171 0 z" fill="#FFFFFF"/>
		<path d="M1526 869l-132 0c-1 7-2 11-2 18 0 38 28 68 68 68 37 0 68-29 68-68 0-7-1-11-2-18 z M1191 869c1 7 2 11 2 18 0 38-27 68-67 68-38 0-69-28-69-68 0-6 1-12 3-18l131 0 z" fill="#7D4533"/>
		<path d="M1494 869l-69 0c-3 5-5 11-5 18 0 21 17 39 39 39 22 0 39-16 39-39 0-7-1-13-4-18 z M1160 869c3 5 4 11 4 18 0 21-15 39-38 39-22 0-39-16-39-39 0-7 1-13 4-18l69 0 z" fill="#000000"/>
		<path d="M1438 902c9 0 13 4 13 12 0 7-6 12-13 12-6 0-12-5-12-12 0-6 6-12 12-12 z M1103 902c7 0 12 6 12 12 0 7-5 12-12 12-7 0-13-5-13-12 0-8 4-12 13-12 z" fill="#FFFFFF"/>
		<path d="M1322 712c22 0 41 18 41 41 0 18-18 71-32 110-14 38-14 51-38 51-13 0-25-7-29-21-8-30-41-115-41-140 0-23 19-41 41-41l58 0 z" fill="#75443E"/>
		<path d="M1293 588c25 0 50 6 74 19 24 13 57 45 57 57 0 9-4 13-12 13l-6-2c-41-15-71-27-114-27-42 0-76 8-112 27l-6 2c-6 0-12-5-12-12 0-2 1-4 2-7 26-46 81-70 129-70 z" fill="#990839"/>
		<path d="M1683 917c12 1 23 6 32 13 9 7 14 17 16 29l43 236c1 5 2 9 2 14l0 14c20 9 43 23 70 42 26 19 51 40 74 64 23 23 43 48 60 74 16 26 24 51 24 75 0 7-2 14-7 19-5 5-12 8-20 8-8 0-15-4-21-11-17-17-36-34-57-50-21-17-44-31-68-43-24-13-49-22-74-29-25-7-50-11-75-11-15 7-30 15-43 23-14 8-27 18-40 31-15 15-28 29-41 43-13 13-27 25-41 36-14 11-29 19-46 26-17 6-36 9-58 9-11 0-21-1-30-3-10-3-20-5-30-7-10-3-20-5-30-7-10-3-20-4-31-4-12 0-23 1-33 4l-61 18c-11 3-22 4-33 4-20 0-38-4-54-11-17-8-32-18-46-29-15-11-28-24-41-38l-39-40c-18-17-37-31-57-42-21-11-40-22-57-34-18-12-33-27-44-44-12-18-18-43-18-75l0-13c0-5 1-9 2-14l43-236c2-11 8-21 17-29 9-8 19-12 31-12l-4 58c-2 19-3 39-3 58 0 15 4 28 11 37 7 9 14 17 23 25 9 8 17 17 24 28 7 10 10 24 10 42l0 66c0 21 10 35 31 40 47 13 96 22 148 27 52 4 102 6 150 6 49 0 99-2 151-6 51-5 101-14 148-27 11-3 19-9 24-17 5-8 8-17 9-27l1-15-1-16c-1-11-2-21-2-30 0-19 4-34 11-44 7-10 15-19 24-27 8-9 16-18 23-27 7-9 11-23 11-41 0-18-1-36-3-55-2-19-4-37-5-55 z" fill="#2D242D"/>
		<path d="M2032 1281c26 0 52 1 78 2l6 33-60 49-348 101c-3-12-8-24-8-37 0-32 22-59 51-67 20-4 281-81 281-81 z" fill="#D3D3D3"/>
		<path d="M2002 1314c12 0 21 10 21 22 0 12-9 21-21 21-12 0-22-9-22-21 0-12 10-22 22-22 z" fill="#9B9B9B"/>
		<path d="M1942 995c71 0 131 57 131 132 0 41-20 84-55 107l13 47-84 24-13-46c-70 0-125-63-125-130 0-71 57-134 133-134 z M2207 1143c71 0 133 58 133 132 0 75-61 133-133 133-43 0-82-21-106-55l-45 12-24-84 45-14c0-72 66-124 130-124 z M1942 1067c-36 0-62 28-62 62 0 33 26 61 62 61 33 0 62-26 62-62 0-33-26-61-62-61 z M2209 1214c-34 0-62 25-62 61 0 33 27 62 61 62 34 0 62-26 62-62 0-36-27-61-61-61 z" fill="#F8312F"/>
	</g></svg>
