<svg version="1.1" xmlns="http://www.w3.org/2000/svg" viewBox="0 0 2300 2300"><g transform="scale(1,-1) translate(-256, -1869)">
		<path d="M699-198l-209 208 153 153 208-209-152-152 z M1879 1114l426 473c3 3 5 7 5 12 0 11-9 18-19 18-5 0-9-1-12-4l-473-426 73-73 z" fill="#9B9B9B"/>
		<path d="M1107-42c20 0 37 7 51 21l844 844c14 14 21 31 21 51 0 19-8 38-21 51l-88 87 64 64c14 14 21 31 21 50 0 20-7 37-21 51l-102 102c-14 14-31 21-51 21-19 0-36-7-50-21l-64-64-99 100c-13 13-32 21-51 21-20 0-37-7-51-21l-97-97-9-65-66-9-70-71-10-66-67-10-65-66-10-65-65-10-385-385c-14-14-21-31-21-51 0-19 7-36 21-50l391-391c14-14 31-21 50-21 z" fill="#AEDDFF"/>
		<path d="M1174 753c32 0 54 25 54 54 0 15-5 28-16 39l-86 85-76-76 86-86c11-11 23-16 38-16 z M1313 897c32 0 54 24 54 54 0 15-5 27-16 38l-83 84-77-76 84-84c11-11 23-16 38-16 z M1461 1041c30 0 54 22 54 54 0 15-5 27-16 38l-85 86-77-76 86-86c11-11 23-16 38-16 z" fill="#0074BA"/>
		<path d="M699-267c32 0 54 24 54 54 0 15-5 27-16 38l-229 228c-11 11-23 16-38 16-29 0-54-24-54-54 0-15 5-27 16-38l229-228c11-11 23-16 38-16 z M1050-217c20 0 37 7 51 21 26 26 72 56 72 102 0 20-7 37-21 51l-508 508c-14 14-31 21-51 21-33 0-60-25-81-49-23-27-42-43-42-74 0-20 7-37 21-51l508-508c14-14 31-21 51-21 z" fill="#5092FF"/>
	</g></svg>
