<svg version="1.1" xmlns="http://www.w3.org/2000/svg" viewBox="0 0 2300 2300"><g transform="scale(1,-1) translate(-256, -1869)">
		<path d="M1619 392c134 0 240 109 240 241 0 38-10 71-24 105-3 7-4 11-4 18 0 5 1 10 4 17 15 35 24 68 24 107 0 47-14 95-40 137-27 43-40 83-40 133 0 136-111 247-247 247-13 0-24 6-33 17-56 67-115 103-201 103-62 0-124-23-170-68-23-21-34-52-66-52-129 0-247-110-247-247 0-47-13-92-39-133-27-44-41-88-41-137 0-39 9-72 24-107 3-5 4-11 4-18 0-7-1-12-3-17-15-37-25-67-25-105 0-134 108-241 241-241l643 0 z" fill="#593B39"/>
		<path d="M1975 1221l57 60 81 282c2 6 3 13 3 20 0 44-30 59-68 70l-101-348 11-76 17-8 z" fill="#D3D3D3"/>
		<path d="M2125-287c0 416-338 754-755 754l-144 0c-417 0-754-338-754-754l1653 0 z" fill="#8B62BF"/>
		<path d="M1292 252c87 0 161 70 161 160l0 106-321 0 0-106c0-88 71-160 160-160 z" fill="#BB806E"/>
		<path d="M1644 751c71 0 125 60 125 125 0 71-60 125-125 125-71 0-125-60-125-125 0-71 60-125 125-125 z M955 751c71 0 125 60 125 125 0 71-60 125-125 125-71 0-125-60-125-125 0-71 60-125 125-125 z" fill="#BB806E"/>
		<path d="M1297 433c196 0 360 140 368 351 3 75 9 149 9 224 0 49-26 106-84 106l-238 0c-100 0-171 43-236 125-4 5-9 8-16 8-15 0-19-14-24-26-17-41-47-72-88-91l-8-3c-43-21-60-65-60-108 0-79 6-156 9-235 8-202 164-351 368-351 z" fill="#C68D7B"/>
		<path d="M1297 600c45 0 95 23 121 66 1 3 2 5 2 7 0 7-5 11-12 11l-2 0c-61-21-70-26-109-26-39 0-74 8-107 25l-6 2c-7 0-11-4-11-13l2-6c24-42 78-66 122-66 z" fill="#990839"/>
		<path d="M1325 727c22 0 39 17 39 38 0 18-16 70-30 106-14 36-15 49-37 49-14 0-23-7-28-20-8-29-40-111-40-135 0-21 18-38 40-38l56 0 z" fill="#AB6A55"/>
		<path d="M1545 871c-51 16-97 30-149 45 22 32 55 62 98 62 25 0 98-15 98-51 0-25-32-44-47-56 z M1051 871c49 16 100 29 149 45-21 32-54 62-97 62-29 0-98-15-98-51 0-24 29-42 46-56 z" fill="#000000"/>
		<path d="M1562 866l-167 0c-7 0-17 6-17 14 0 51 56 90 103 90 41 0 102-36 102-84 0-10-10-20-21-20 z M1201 866c9 0 18 5 18 16 0 48-59 88-103 88-39 0-103-37-103-84 0-10 10-20 21-20l167 0 z" fill="#FFFFFF"/>
		<path d="M1530 866l-128 0c-2 6-3 12-3 18 0 38 30 66 67 66 18 0 34-6 47-19 16-17 19-39 19-56 0-3-1-6-2-9 z M1195 866c2 6 3 12 3 18 0 38-32 66-67 66-18 0-33-6-46-19-17-17-20-39-20-56 0-3 1-6 2-9l128 0 z" fill="#7D4533"/>
		<path d="M1499 866l-68 0c-3 7-4 11-4 18 0 19 17 38 38 38 19 0 38-17 38-38 0-7-1-13-4-18 z M1165 866c3 7 4 11 4 18 0 19-17 38-38 38-19 0-38-17-38-38 0-7 2-13 5-18l67 0 z" fill="#000000"/>
		<path d="M1443 897c7 0 12 6 12 12 0 7-5 13-12 13-9 0-13-4-13-13 0-7 6-12 13-12 z M1108 897c7 0 13 5 13 12 0 9-4 13-13 13-7 0-12-6-12-13 0-6 6-12 12-12 z" fill="#FFFFFF"/>
		<path d="M1032 1009c8 0 27 14 41 20 27 11 51 11 86 11 12 0 19 9 19 21 0 16-15 20-30 20-38 0-136-16-136-52 0-10 10-20 20-20 z M1555 1009c5 0 10 2 15 6 4 4 6 9 6 14 0 9-5 16-15 23-11 6-23 11-36 16-14 4-28 7-41 10-13 2-23 3-30 3l-22 0c-8-1-15-4-20-9l-3-7c-1-2-1-5-1-8 0-3 1-5 3-7 3-6 8-10 15-10l3 0c9 1 16 1 22 1 13 0 25-2 36-5 11-3 22-7 31-11l24-11c6-3 10-5 13-5 z" fill="#593B39"/>
		<path d="M1769 1220c80 34 235 161 235 258 0 14-10 27-27 27-8 0-15-4-21-11-66-68-173-133-273-133-21 0-42 3-61 10l147-151 z" fill="#593B39"/>
		<path d="M2032 1281c26 0 52 1 78 2l6 33-60 49-348 101c-3-12-8-24-8-37 0-32 22-59 51-67 20-4 281-81 281-81 z" fill="#D3D3D3"/>
		<path d="M2002 1314c12 0 21 10 21 22 0 12-9 21-21 21-12 0-22-9-22-21 0-12 10-22 22-22 z" fill="#9B9B9B"/>
		<path d="M1942 995c71 0 131 57 131 132 0 41-20 84-55 107l13 47-84 24-13-46c-70 0-125-63-125-130 0-71 57-134 133-134 z M2207 1143c71 0 133 58 133 132 0 75-61 133-133 133-43 0-82-21-106-55l-45 12-24-84 45-14c0-72 66-124 130-124 z M1942 1067c-36 0-62 28-62 62 0 33 26 61 62 61 33 0 62-26 62-62 0-33-26-61-62-61 z M2209 1214c-34 0-62 25-62 61 0 33 27 62 61 62 34 0 62-26 62-62 0-36-27-61-61-61 z" fill="#F8312F"/>
	</g></svg>
