<svg version="1.1" xmlns="http://www.w3.org/2000/svg" viewBox="0 0 2300 2300"><g transform="scale(1,-1) translate(-256, -1869)">
		<path d="M1029 701c68 0 125 55 125 126 0 70-57 126-125 126-69 0-126-56-126-126 0-69 56-126 126-126 z M1783 705c69 0 126 54 126 125 0 69-56 126-126 126-68 0-125-55-125-126 0-71 60-125 125-125 z" fill="#452829"/>
		<path d="M2161-287c-64 364-386 620-755 620-368 0-691-255-755-620l1510 0 z" fill="#FF6723"/>
		<path d="M1406 144c85 0 144 77 144 158l0 187c0 78-57 158-144 158-85 0-144-77-144-158l0-187c0-78 57-158 144-158 z" fill="#452829"/>
		<path d="M1599 421l145 53c35 13 62 34 82 64 20 30 30 63 30 100l0 333c0 17 3 32 9 45 5 13 11 26 18 39l18 42c5 15 8 33 8 54 0 41-11 77-33 110-22 33-52 56-90 70-24 9-44 21-61 34-17 13-32 30-45 52-17 28-39 50-66 67-27 16-57 24-90 24-11 0-21-1-30-4l-29-8-29-9c-10-3-20-4-30-4-11 0-21 1-30 4l-57 18c-10 3-20 4-31 4-33 0-63-8-89-23-26-16-48-38-65-66-16-26-33-45-52-57-19-12-38-23-57-32-19-10-38-21-55-33-18-13-33-32-46-58-14-28-21-58-21-89 0-21 3-39 9-54 5-15 11-29 18-42l18-39c5-13 8-28 8-44l0-334c0-36 10-69 31-99 20-31 47-52 81-65l145-53 0 595c15 15 28 33 37 52 9 19 15 40 16 61l22-1c21 0 42 4 63 12 21 8 39 19 55 33 22-19 44-32 66-37 18-4 40-7 63-7l11 0c1-20 7-40 16-61 9-21 22-38 37-52l0-595 z" fill="#000000"/>
		<path d="M1484 296c151 0 303 114 321 276 11 157 18 305 29 462 2 25 3 34 3 58-18 24-53 50-84 50l-61 1c-20-1-40-1-61-1-85 0-142 46-180 117-11 21-26 34-51 34l-348 0c-50-60-77-135-77-217 0-15 1-27 2-42l31-462c18-159 165-276 321-276l155 0 z" fill="#573739"/>
		<path d="M1701 927c7 0 12 2 16 7 4 4 6 9 6 16 0 9-6 18-17 25-12 7-25 12-40 17-15 5-30 8-45 11-15 2-26 3-32 3l-15 0c-5 0-10-1-15-2-5-2-9-5-12-8-3-3-5-8-5-14 0-7 2-12 5-15 3-3 7-5 12-6l11-1 4 0c5 1 10 1 15 1 15 0 32-2 50-7 18-5 34-13 47-22l1 0c5-3 9-5 14-5 z M1141 927c10 0 53 34 111 34l25-1c14 0 22 11 22 23 0 18-15 23-30 23-30 0-151-13-151-56 0-13 9-23 23-23 z" fill="#000000"/>
		<path d="M1436 647c25 0 42 22 42 44 0 20-18 77-32 118-16 44-17 54-40 54-15 0-25-10-29-23-8-28-43-127-43-150 0-22 17-43 42-43l60 0 z" fill="#3D2123"/>
		<path d="M1406 511c56 0 110 27 141 74 1 3 2 5 2 7 0 7-7 12-14 12l-6-1c-50-16-60-29-122-29-45 0-83 10-125 29l-6 1c-7 0-14-6-14-13l2-6c22-46 93-74 142-74 z" fill="#290118"/>
		<path d="M1865 807c42 0 79 39 79 84l1 834-242 0 0-241c0-47-20-92-51-123l-130-131c-17-17-25-37-25-61 0-43 34-81 81-81 71 0 86 89 144 89 34 0 59-27 59-58l0-230c0-48 38-82 84-82 z M953 807c43 0 78 39 78 82l0 229c0 31 25 58 59 58 58 0 72-88 144-88 44 0 81 36 81 81 0 24-8 44-25 61l-130 131c-33 34-51 78-51 123l0 241-242 0 1-834c0-51 39-84 85-84 z" fill="#341A1C"/>
		<path d="M1580 783c26 0 95 23 95 56 0 11-9 21-19 21-18 0-31-35-76-35-45 0-59 35-75 35-10 0-20-10-20-20 0-33 69-57 95-57 z M1231 783c25 0 96 24 96 57 0 10-10 20-20 20-16 0-32-35-76-35-45 0-59 35-75 35-10 0-20-10-20-20 0-33 69-57 95-57 z" fill="#000000"/>
	</g></svg>
