<svg version="1.1" xmlns="http://www.w3.org/2000/svg" viewBox="0 0 2300 2300"><g transform="scale(1,-1) translate(-256, -1869)">
		<path d="M1535 1137c21 0 39 12 47 30l145 322c3 6 4 13 4 21 0 12-3 25-11 34l-136 163c-11 12-24 18-41 18l-334 0c-16 0-29-6-39-18l-136-163c-8-9-12-20-12-33 0-7 2-14 5-22l145-322c8-18 26-30 47-30l316 0 z" fill="#00A6ED"/>
		<path d="M1730 1522c-2 9-6 16-11 22l-136 163c-9 10-26 18-40 18l-334 0c-16 0-29-6-39-18l-136-163c-7-7-10-15-11-22l707 0 z" fill="#26EAFC"/>
		<path d="M1377-287c420 0 761 342 761 762 0 293-158 537-414 678-12 5-20 8-30 14-55 34-57 60-57 120l-520 0c0-58-1-85-57-120-10-6-18-8-30-15-255-132-415-389-415-677 0-420 345-762 762-762 z M1377-67c-297 0-542 238-542 542 0 299 244 541 542 541 298 0 541-240 541-541 0-289-231-542-541-542 z" fill="#B4ACBC"/>
	</g></svg>
