<svg version="1.1" xmlns="http://www.w3.org/2000/svg" viewBox="0 0 2300 2300"><g transform="scale(1,-1) translate(-256, -1869)">
		<path d="M1029 701c68 0 125 55 125 126 0 70-57 126-125 126-69 0-126-56-126-126 0-69 56-126 126-126 z M1783 705c69 0 126 54 126 125 0 69-56 126-126 126-68 0-125-55-125-126 0-71 60-125 125-125 z" fill="#452829"/>
		<path d="M2161-287c-64 364-386 620-755 620-368 0-691-255-755-620l1510 0 z" fill="#00A6ED"/>
		<path d="M1406 144c85 0 144 77 144 158l0 187c0 78-57 158-144 158-85 0-144-77-144-158l0-187c0-78 57-158 144-158 z" fill="#452829"/>
		<path d="M1533 301c135 0 243 104 254 240l32 461 0 14c0 207-165 384-378 384l-70 0c-53 0-102-10-148-30-149-67-230-204-230-368l32-461c11-133 116-240 254-240l254 0 z" fill="#573739"/>
		<path d="M1676 921c24 0 44 18 44 44 0 57-116 78-154 78-32 0-67-7-67-46 0-34 20-43 45-43l24 0c58 0 84-33 108-33 z M1127 921c9 0 18 3 25 8l1 0c13 13 30 20 50 22 20 1 38 2 55 2 25 0 45 18 45 44 0 40-35 46-66 46-38 0-154-21-154-78 0-26 20-44 44-44 z" fill="#000000"/>
		<path d="M1436 647c25 0 42 22 42 44 0 20-18 77-32 118-16 44-17 54-40 54-15 0-25-10-29-23-8-28-43-127-43-150 0-22 17-43 42-43l60 0 z" fill="#3D2123"/>
		<path d="M1406 511c56 0 110 27 141 74 1 3 2 5 2 7 0 7-7 12-14 12l-6-1c-50-16-60-29-122-29-45 0-83 10-125 29l-6 1c-7 0-14-6-14-13l2-6c22-46 93-74 142-74 z" fill="#290118"/>
		<path d="M1580 783c26 0 95 23 95 56 0 11-9 21-19 21-18 0-31-35-76-35-45 0-59 35-75 35-10 0-20-10-20-20 0-33 69-57 95-57 z M1231 783c25 0 96 24 96 57 0 10-10 20-20 20-16 0-32-35-76-35-45 0-59 35-75 35-10 0-20-10-20-20 0-33 69-57 95-57 z" fill="#000000"/>
		<path d="M1812 860c23 1 45 18 49 43l45 247c2 10 3 20 3 31 0 99-64 129-125 161-93 48-126 162-253 162-45 0-79-21-125-21-48 0-87 27-132 27-85 0-130-68-187-125-52-52-126-66-165-126-16-24-19-62-19-93 0-5 1-9 2-14l45-248c4-25 27-42 50-43-3 47-10 98-10 147 0 38 34 33 34 64 0 19-9 37-9 56l48 63c0 21 14 36 32 42 91 27 214 34 311 34 74 0 151-3 236-16 44-8 106-16 106-60l101-72c0-24-19-38-19-55 0-5 2-9 7-14l-42-14c15-15 25-35 25-55 0-40-5-81-8-121 z" fill="#000000"/>
		<path d="M1865 807c42 0 79 39 79 84l1 834-242 0 0-241c0-47-20-92-51-123l-130-131c-17-17-25-37-25-61 0-43 34-81 81-81 71 0 86 89 144 89 34 0 59-27 59-58l0-230c0-48 38-82 84-82 z M953 807c43 0 78 39 78 82l0 229c0 31 25 58 59 58 58 0 72-88 144-88 44 0 81 36 81 81 0 24-8 44-25 61l-130 131c-33 34-51 78-51 123l0 241-242 0 1-834c0-51 39-84 85-84 z" fill="#341A1C"/>
	</g></svg>
