<svg version="1.1" xmlns="http://www.w3.org/2000/svg" viewBox="0 0 2300 2300"><g transform="scale(1,-1) translate(-256, -1869)">
		<path d="M1756-186c26 0 53 2 80 7 27 5 52 12 76 23 13 6 24 15 31 27 7 11 11 25 11 40 0 6 0 12-1 19l-3 19c9-5 19-9 29-13 9-5 19-7 30-7 21 0 38 8 52 23 32 35 56 76 73 123 17 47 25 93 25 140 0 13 0 25-1 38-1 13-3 25-6 38 38 27 68 62 89 104 21 42 32 86 32 133 0 13-1 25-2 38-2 13-5 25-8 37 37 38 65 81 84 130 19 48 29 98 29 150 0 19-1 34-4 46-3 11-7 21-14 28-7 7-16 13-27 17-11 4-26 8-44 12 10 11 19 22 28 33 9 11 13 24 13 40 0 7-1 13-2 18l-8 16c-14 25-31 47-51 68-20 21-42 39-66 56-24 16-49 30-76 41-27 11-55 19-82 24-8 32-21 62-40 89-19 27-41 50-67 69-26 19-54 34-85 45-28 9-58 14-89 14l-8 0c-13 23-29 45-47 66-19 21-39 40-62 57-23 17-47 31-72 43-25 12-51 21-77 26-2 1-4 1-7 1l-8 0c-11 0-20-2-27-5-8-4-15-9-20-15-6-6-11-13-16-20l-14-24c-9 17-18 32-29 45-11 13-26 19-47 19l-8 0c-3 0-5 0-8-1-53-11-103-34-148-69-46-35-82-76-109-123l-12 0c-33 0-64-5-94-16-31-11-58-27-83-46-25-19-47-42-65-69-18-27-31-56-39-87-27-5-54-13-80-24-26-11-51-25-74-41-24-16-46-34-65-55-20-21-37-43-51-67-7-12-10-24-10-35 0-16 4-29 13-39 8-11 17-21 27-32-17-3-32-7-43-11-12-5-21-11-28-18-7-8-11-18-14-29-3-12-4-27-4-45 0-52 9-102 28-149 19-48 46-91 82-128-7-27-11-54-11-79 0-47 11-92 33-135 22-43 52-79 91-106-4-23-6-47-6-71 0-47 8-93 25-140 17-47 41-88 73-123 15-16 32-24 52-24 11 0 21 2 31 7 9 5 19 9 28 13l-3-19c-1-7-1-13-1-19 0-21 7-38 22-51 15-13 33-22 54-29 21-7 42-12 65-14 22-3 41-4 57-4 33 0 66 4 98 13 32 8 63 20 92 35 23-15 49-27 76-35 27-8 55-12 83-12 29 0 57 4 85 12 27 8 53 20 76 36 60-33 124-49 193-49 z" fill="#FFFFFF"/>
		<path d="M1402-221c29 0 58 4 86 11 28 7 55 18 80 33 30-13 61-24 92-31 31-8 63-12 96-12 20 0 43 2 69 5 25 3 50 8 73 17 23 9 43 21 60 37 17 15 26 35 29 60l21-2c11 0 22 2 33 5 17 5 32 15 45 30 34 39 60 83 79 133 19 49 28 100 28 152 0 9 0 19-1 29l-3 28c19 13 35 29 50 49 15 20 27 42 38 65 10 23 18 47 23 72 5 24 8 47 8 69 0 25-2 47-7 68 35 40 62 85 81 135 18 49 27 100 27 153 0 26-4 50-11 71-7 21-24 38-51 50 9 17 14 34 14 53 0 18-5 35-14 52-14 25-31 48-51 69-21 21-43 41-67 58-24 17-49 31-76 44-27 12-54 21-81 28-2 5-4 9-5 14l-6 14c-12 28-28 54-48 78-20 24-43 45-68 62-26 17-54 31-83 41-30 10-60 15-91 15-32 50-70 90-115 120-45 30-95 53-152 68-8 2-16 3-23 3-15 0-29-3-42-9-13-6-25-14-35-25-9 11-21 19-34 25-13 6-27 9-42 9-7 0-15-1-23-3-57-15-107-38-152-68-45-30-84-70-116-120-34 0-67-6-99-17-32-11-61-27-88-47-27-20-51-44-71-71-21-28-36-58-46-90-27-7-54-16-80-28-27-12-52-26-75-43-23-17-45-37-65-58-20-21-37-44-51-68-9-17-14-34-14-53 0-18 5-35 14-52-27-13-44-30-51-50-8-21-12-45-12-72 0-52 9-102 28-151 18-49 44-94 78-133-1 0-2-3-3-10l-3-24-2-25-1-15c0-24 3-48 9-72 5-25 13-48 24-70 11-23 24-44 39-63 15-19 33-36 52-51-2-18-3-36-3-55 0-51 9-101 27-151 18-51 44-95 78-133 21-23 47-35 78-35 3 0 7 0 11 1 4 0 8 0 11 1 3-25 13-45 30-60 17-16 37-28 60-37 23-9 47-14 73-17 25-3 48-5 68-5 32 0 64 4 95 11 31 7 62 18 91 31 50-29 104-43 163-43 z M1755-152c-171 0-325 119-351 288-27-171-179-288-350-288-23 0-48 2-73 7-42 8-92 18-92 59 0 25 8 50 8 75 0 8-5 9-13 9-16-8-68-34-83-34-12 0-19 4-27 12-57 60-90 159-90 242 0 140 71 247 185 309-19-3-39-5-58-5-48 0-93 10-134 31-142 69-209 206-209 348l1 15c8 57 109 31 109 57 0 15-63 54-63 86 0 6 2 12 5 17 66 113 192 178 314 178 92 0 173-32 238-97-21 45-36 92-36 143 0 179 123 316 284 357l8 1c39 0 60-88 76-88 19 0 38 88 77 88 18 0 28-3 47-10 160-62 245-199 245-347 0-51-14-99-37-144 70 69 145 98 238 98 122 0 252-67 314-178 3-5 5-11 5-18 0-26-54-66-62-86 0-20 52-13 89-29 17-8 21-26 21-43l0-16c0-180-144-363-344-363-19 0-38 1-57 4 125-64 185-181 185-309 0-58-17-131-52-190-17-29-38-63-65-63-21 0-79 35-87 35-6 0-9-3-9-10 0-25 8-50 8-75 0-17-7-30-22-37-44-20-97-29-143-29 z M1769 655c7 0 13 4 13 11 0 8-4 13-12 14-20 1-40 4-59 13 11 4 39 35 39 43 0 9-4 13-12 13l-59 0c5 5 7 9 7 12 0 9-4 13-13 13-4 0-31-24-51-39-17-13-25-13-25-23 0-8 4-12 13-12 8 0 27 12 34 18 4-9 11-16 18-23-22-7-44-11-66-11-7 0-12-6-12-13 0-8 4-12 12-12 31 0 61 5 89 18 25-14 56-22 84-22 z M1174 321c26 0 48 20 48 47 0 26-20 48-48 48-26 0-48-20-48-48 0-27 22-47 48-47 z M1071 895c-26 0-48 14-48 43 0 37 34 50 71 50l6-1 0 18-61 0c-8 0-12 4-12 13 0 9 4 13 12 13l61 0 0 18-61 0c-8 0-12 4-12 13 0 9 4 13 12 13l61 0 1 19c0 7 4 10 12 10 7 0 11-4 12-11l0-18c5 0 22 2 38 2 15 0 28-3 28-15 0-12-13-15-28-15-16 0-33 2-38 2l0-18c5 0 22 2 38 2 15 0 28-3 28-15 0-12-13-15-28-15-16 0-33 2-38 2l0-26c16-5 71-43 71-59 0-9-4-13-12-13-5 0-49 39-59 44 0-34-19-56-54-56 z M1362 889c-26 0-49 18-49 45 0 43 46 48 70 48l8-1 0 111c0 9 4 13 13 13 9 0 13-12 14-24l-2-32 62 0c9 0 13-4 13-12 0-9-4-13-13-13l-62 0 0-49c18-5 70-35 70-56 0-8-4-12-12-12-4 0-7 1-10 4-15 16-28 28-48 37-1-37-15-59-54-59 z M2170 353c-15 43-34 82-61 117 0 1 0 2 1 2 47 15 89 37 128 66 0-73-21-132-68-185 z M1402-150c-29 0-59 5-90 16 36 27 67 58 92 93l1 0c27-36 57-67 91-92-31-11-62-17-94-17 z M638 350c-53 54-71 119-71 191 41-31 85-54 132-69l1-1-1-1c-26-34-46-76-61-120 z M969 1299l-1 1c-51 16-100 21-154 21 37 76 108 125 185 139-20-54-30-106-30-161 z M1840 1298l0 2c0 55-10 108-30 159 39-7 74-23 107-48 32-25 57-55 74-91l-14 0c-21 0-41-2-61-4-25-3-50-9-75-17l-1-1 z M1686 707c-5 7-11 10-16 17l40 0c-7-7-15-12-24-17 z M1594 764c-9 0-13 4-13 13 0 5 28 42 36 42 8 0 13-7 13-14 0-11-25-41-36-41 z M1785 761c7 0 12 6 12 13 0 8-28 42-38 42-9 0-13-4-13-13 0-8 31-42 39-42 z M1639 761c-8 0-12 4-12 11 0 1 2 4 5 8 3 3 6 8 10 13 4 5 8 11 12 18 3 6 6 12 8 18l-57 0c-9 0-13 4-13 12 0 9 4 13 13 13l69 0c0 5 0 10 1 16 0 5 4 8 11 8 7 0 11-3 12-8 1-5 1-11 1-16l76 0c9 0 13-4 13-13 0-5-2-9-7-10-5-2-10-3-16-3l-10-1-9 1-12 1c0-3 0-9 1-16 1-7 1-15 1-22 0-7-1-14-3-19-2-6-6-9-12-9l-26 0c-9 0-13 4-13 13 0 7 3 11 10 12l17 0 0 41-21 0c-1-5-3-12-6-19-3-8-7-15-11-22-4-7-9-14-14-19-6-5-12-8-18-8 z M1384 198c5 0 12 1 23 3 11 1 22 4 33 7 11 3 20 7 29 11 8 4 12 9 12 14 0 3-1 6-3 9-3 2-6 3-9 3-3 0-7-1-13-3l-22-8c-8-3-16-5-25-7-9-3-17-4-25-4-8 0-16 2-24 5-8 3-12 9-12 18 0 9 3 15 9 19 6 4 13 6 22 7l14 1 15-1c10-1 19-2 28-2 9 0 16 1 22 3 6 1 9 5 9 11 0 3-2 9-5 16-4 7-7 12-8 15l25 5c4 1 8 3 11 5 3 2 5 5 5 9 0 3-1 6-4 9-3 3-7 4-10 4-5 0-12-1-19-3l-20-5-8 17 14 3c6 1 12 2 18 4 6 1 11 3 16 6 5 2 7 5 7 9 0 9-4 13-12 13-6 0-15-1-26-4-11-3-21-6-28-7l-7 17c-3 7-7 10-14 10-8 0-12-4-12-13 0-3 1-5 2-8l4-8c-5-1-10-1-15-1l-35 0c-7 0-11-4-11-12 0-3 1-6 4-9 2-3 5-4 8-4l43 0c6 0 12 0 18 1l8-16c-24-2-48-3-71-3-9 0-13-4-13-12 0-5 2-9 5-10 3-2 7-3 11-3 27 0 53 1 79 3l7-15c-10 0-21 0-34 1-13 0-25-1-36-3-12-3-22-8-29-15-8-7-12-19-12-34 0-17 6-30 19-37 13-7 27-11 42-11 z M1502 530c-13 0-31 29-31 36 0 7 6 12 12 12 10 0 31-26 31-35 0-9-6-13-12-13 z M1468 510c9 0 13 4 13 13 0 8-21 34-31 34-6 0-12-5-12-12 0-8 21-35 30-35 z M1440 450c-43 0-77 23-77 71 0 27 12 47 32 63l-84 0c-9 0-13 4-13 13 0 8 4 12 13 12l148 0c7 0 13-4 13-11 0-24-84-15-84-77 0-34 23-45 53-45 9 0 20-1 20-13 0-12-12-13-21-13 z M1174 346c-12 0-23 10-23 22 0 13 9 23 23 23 12 0 22-11 22-23 0-12-10-22-22-22 z M1150 449c-24 0-57 10-57 39 0 10 2 27 16 27 7 0 13-4 13-11 0-6-4-9-4-16 0-13 24-14 32-14 17 0 35 7 51 7 7 0 12-6 12-11 0-5-3-9-8-12-17-8-45-9-55-9 z M1185 538c7 0 12 6 12 12 0 7-5 13-12 13l-72 0c-8 0-12-4-12-13 0-8 4-12 12-12l72 0 z M1030 436c-3 0-6 2-9 5-3 3-4 6-4 9l23 66c7 20 12 41 16 62-3 0-6 0-11-1l-7-1-8 1c-5 0-9 1-12 3-4 2-6 5-6 10 0 5 2 9 6 11 4 2 9 3 14 4 5 0 11 0 16-1 5-1 10-1 13-1 1 3 1 7 1 12 0 5 1 10 2 15 1 5 2 9 4 13 2 3 5 5 9 5 8 0 12-4 12-13 0-11-1-21-3-32 3 0 7 0 12 1l8 1 8-1c5-1 9-2 13-4 3-2 5-5 5-10 0-5-2-8-6-10-5-2-10-3-15-3l-9-1-8 1c-5 1-9 1-12 1l-7-32c-3-15-7-31-12-47-5-17-11-31-16-44-6-13-12-19-17-19 z M1106 670c13 0 24 3 34 8 10 5 19 11 27 20 7 8 14 17 19 28 5 10 10 21 13 32l1 3c0 9-4 13-13 13-5 0-9-4-12-12-3-8-7-17-12-27-5-10-12-19-21-27-9-8-21-12-36-12-11 0-19 4-24 13-5 8-7 18-8 31l-1 19 4 62 0 10-1 21c-2 8-7 12-14 12-8 0-12-4-12-13l0-119c0-17 5-31 15-43 10-13 24-19 41-19 z M1071 920c27 0 29 13 29 41l-15 2c-14 0-37-7-37-25 0-13 11-18 23-18 z M1593 893c3 0 7 1 12 4l15 9 15 10 9 7c19 15 33 34 44 57 3-6 9-14 16-23 7-9 16-18 25-27 9-9 18-16 27-22 9-7 17-10 24-10 9 0 13 4 13 13 0 4-2 7-7 10l-27 18c-10 7-19 15-28 24-9 9-16 18-21 28-7 11-9 20-9 32l66 0c9 0 13 4 13 12 0 9-4 13-13 13l-67 0c0 3 0 7 1 13l1 8-1 9c-1 5-2 10-4 15-2 4-5 6-10 6-5 0-8-2-10-6-2-5-3-10-3-15l-1-9 1-8c1-6 1-10 1-13l-70 0c-9 0-13-4-13-13 0-8 4-12 13-12l70 0c-4-26-14-47-30-63-16-17-35-31-57-42-5-2-8-6-8-12 0-9 4-13 13-13 z M1362 914c16 0 29 8 29 25l0 16c-7 1-11 2-18 2-17 0-34-2-34-24 0-13 11-19 23-19 z M1443 672c7 0 13 6 13 13 0 4-2 7-5 9l-87 70 81 73c3 2 4 5 4 9 0 9-4 13-12 13-8 0-29-17-50-38-30-29-55-47-55-56 0-5 1-8 4-11 13-11 97-82 107-82 z" fill="#FF6DC6"/>
	</g></svg>
