<svg version="1.1" xmlns="http://www.w3.org/2000/svg" viewBox="0 0 2300 2300"><g transform="scale(1,-1) translate(-256, -1869)">
		<path d="M795-144c17 0 34 4 49 12l313 160c81-19 164-28 249-28 356 0 656 165 888 432 91 105 192 229 192 359 0 101-51 180-115 265-246 320-563 525-965 525-402 0-725-208-964-525-62-83-117-165-117-265 0-61 18-112 49-165 78-132 187-256 313-360l0-302c0-58 49-108 108-108 z" fill="#9B9B9B"/>
		<path d="M795-72c20 0 310 156 353 177 84-22 170-33 258-33 373 0 678 193 907 496 55 73 101 142 101 223 0 84-48 152-101 223-228 302-536 496-907 496-373 0-678-193-906-496-53-70-103-143-103-223 0-47 13-84 38-127 79-139 209-274 324-364l0-336c0-19 15-36 36-36 z" fill="#FFFFFF"/>
	</g></svg>
