<svg version="1.1" xmlns="http://www.w3.org/2000/svg" viewBox="0 0 2300 2300"><g transform="scale(1,-1) translate(-256, -1869)">
		<path d="M2268 0c81 0 144 67 144 144l0 1006c0 81-67 144-144 144l-1725 0c-80 0-143-65-143-144l0-1006c0-80 64-144 143-144l1725 0 z" fill="#83CBFF"/>
		<path d="M2233 72c58 0 107 47 107 108l0 934c0 60-49 108-107 108l-1654 0c-59 0-107-48-107-108l0-934c0-57 45-108 107-108l1654 0 z M2233 144l-1654 0c-18 0-36 17-36 36l0 934c0 18 17 36 36 36l1654 0c18 0 35-17 35-36l0-934c0-19-17-36-35-36 z M1801 324c179 0 324 144 324 323 0 177-143 324-324 324-178 0-323-145-323-324 0-179 147-323 323-323 z M2268-287l-646 0-144 72-144-72-791 0c-80 0-143 62-143 143l0 288c0-80 64-144 143-144l1725 0c81 0 144 67 144 144l0-288c0-80-65-143-144-143 z" fill="#0074BA"/>
		<path d="M1622-72l0 1366-288 0 0-1366 288 0 z" fill="#FFF478"/>
		<path d="M1622-287l0 287-288 0 0-287 288 0 z" fill="#F3AD61"/>
		<path d="M1154 324c19 0 36 15 36 36 0 18-17 36-36 36l-92 0c-83 0-151 60-159 143l180 0c18 0 35 16 35 35 0 19-17 36-35 36l-180 0 0 73 180 0c18 0 35 17 35 36 0 19-17 36-35 36l-179 0c8 82 81 144 158 144l92 0c19 0 36 15 36 36 0 18-17 36-36 36l-92 0c-119 0-222-95-230-216l-109 0c-19 0-36-15-36-36 0-19 15-36 36-36l108 0 0-73-108 0c-19 0-36-15-36-36 0-18 17-35 36-35l108 0c8-118 103-215 231-215l92 0 z" fill="#FFFFFF"/>
	</g></svg>
