<svg version="1.1" xmlns="http://www.w3.org/2000/svg" viewBox="0 0 2300 2300"><g transform="scale(1,-1) translate(-256, -1869)">
		<path d="M2268-287c80 0 144 64 144 143l0 935-2012 0 0-935c0-80 62-143 143-143l1725 0 z" fill="#8C5543"/>
		<path d="M2125 503c156 0 287 128 287 288l0 287c0 81-67 144-144 144l-510 0c-35 168-182 288-352 288-173 0-318-123-352-288l-511 0c-80 0-143-65-143-144l0-287c0-161 129-288 287-288l1438 0 z M1609 1222l-406 0c31 86 110 144 203 144 93 0 172-58 203-144 z" fill="#6D4534"/>
		<path d="M1550 288c38 0 72 33 72 72l0 143-216 72-216-72 0-143c0-39 34-72 72-72l288 0 z" fill="#D3883E"/>
		<path d="M1622 503l0 72c0 39-34 72-72 72l-288 0c-38 0-72-33-72-72l0-72 432 0 z" fill="#E19747"/>
	</g></svg>
