<svg version="1.1" xmlns="http://www.w3.org/2000/svg" viewBox="0 0 2300 2300"><g transform="scale(1,-1) translate(-256, -1869)">
		<path d="M2135-287c152 0 277 123 277 276l0 1314c0 34-6 66-19 96-27 64-87 117-139 169-80 79-148 157-265 157l-1312 0c-152 0-277-123-277-276l0-1460c0-152 123-276 277-276l1458 0 z" fill="#635994"/>
		<path d="M2125-287l0 862-1438 0 0-862 1438 0 z" fill="#E6E6E6"/>
		<path d="M2125 503l0 108c0 58-49 108-108 108l-1222 0c-61 0-108-48-108-108l0-108 1438 0 z" fill="#F8312F"/>
		<path d="M1999 935c70 0 126 57 126 125l0 626c-41 25-88 39-136 39l-1302 0 0-665c0-68 55-125 126-125l1186 0 z" fill="#321B41"/>
		<path d="M1883 1006c55 0 98 43 98 98l0 621-843 0c-51 0-91-40-91-91l0-530c0-54 41-98 97-98l739 0 z" fill="#E6E6E6"/>
		<path d="M1839 1078c38 0 70 30 70 70l0 435c0 38-30 70-70 70l-148 0c-40 0-69-32-69-70l0-434c0-38 29-71 69-71l148 0 z" fill="#321B41"/>
	</g></svg>
