<svg version="1.1" xmlns="http://www.w3.org/2000/svg" viewBox="0 0 2300 2300"><g transform="scale(1,-1) translate(-256, -1869)">
		<path d="M2089-287c58 0 108 49 108 108l0 1725c0 59-49 107-108 107l-1366 0c-58 0-108-47-108-107l0-1725c0-58 49-108 108-108l1366 0 z" fill="#E19747"/>
		<path d="M1592-144c9 0 19 2 30 7l23 56 46 294 320 56c0 0 32 15 35 18 5 11 7 21 7 30l0 1121c0 38-33 72-72 72l-1150 0c-39 0-72-34-72-72l0-1510c0-39 34-72 72-72l761 0 z" fill="#F3EEF8"/>
		<path d="M1622-137c8 3 15 8 21 14l389 390c7 7 11 14 14 21l-353 0c-40 0-71-34-71-72l0-353 z" fill="#CDC4D6"/>
		<path d="M1729 1294c19 0 36 15 36 36l0 108c0 80-62 143-143 143l-72 0c0 81-67 144-144 144-81 0-144-67-144-144l-72 0c-80 0-143-62-143-143l0-108c0-19 15-36 36-36l646 0 z M1514 288c19 0 36 15 36 36 0 18-17 36-36 36l-575 0c-19 0-36-18-36-36 0-19 15-36 36-36l575 0 z M1873 503c19 0 36 15 36 36 0 19-15 36-36 36l-934 0c-19 0-36-15-36-36 0-19 15-36 36-36l934 0 z M1873 719c19 0 36 15 36 36 0 19-15 36-36 36l-934 0c-19 0-36-15-36-36 0-19 15-36 36-36l934 0 z M1873 935c19 0 36 15 36 36 0 18-17 35-36 35l-934 0c-19 0-36-17-36-35 0-19 15-36 36-36l934 0 z M1406 1510c-38 0-72 31-72 71 0 39 31 72 72 72 39 0 72-31 72-72 0-40-34-71-72-71 z" fill="#9B9B9B"/>
	</g></svg>
