<svg version="1.1" xmlns="http://www.w3.org/2000/svg" viewBox="0 0 2300 2300"><g transform="scale(1,-1) translate(-256, -1869)">
		<path d="M2089-287c16 0 47 9 63 15 113 40 188 154 188 272 0 39-31 72-72 72l-179 0 0 1581c0 39-31 72-72 72l-1438 0c-40 0-71-34-71-72l0-1581c0-165 139-359 323-359l1258 0 z" fill="#B4ACBC"/>
		<path d="M902-215c89 41 163 111 181 215 7 40 24 72 71 72l863 0 0 1545c0 19-15 36-36 36l-1366 0c-19 0-36-15-36-36l0-1509c0-179 147-323 323-323 z" fill="#F3EEF8"/>
		<path d="M1370 431c19 0 36 18 36 36 0 19-15 36-36 36l-503 0c-19 0-36-15-36-36 0-18 17-36 36-36l503 0 z M1729 647c19 0 36 15 36 36 0 19-15 36-36 36l-862 0c-19 0-36-15-36-36 0-19 15-36 36-36l862 0 z M1729 863c19 0 36 15 36 36 0 18-17 36-36 36l-862 0c-18 0-36-17-36-36 0-19 15-36 36-36l862 0 z M1729 1078c19 0 36 15 36 36 0 19-15 36-36 36l-862 0c-19 0-36-15-36-36 0-19 15-36 36-36l862 0 z" fill="#998EA4"/>
	</g></svg>
