<svg version="1.1" xmlns="http://www.w3.org/2000/svg" viewBox="0 0 2300 2300"><g transform="scale(1,-1) translate(-256, -1869)">
		<path d="M1948 791c99 0 177 82 177 179l0 648c0 99-80 179-177 179l-1084 0c-99 0-177-82-177-179l0-648c0-99 80-179 177-179l1084 0 z" fill="#CDC4D6"/>
		<path d="M2044-286c122 0 224 98 224 224l0 603 23 0c67 0 121 53 121 120l0 299c0 66-53 120-121 120l-1771 0c-68 0-120-57-120-120l0-299c0-68 57-120 120-120l23 0 0-603c0-122 100-224 225-224l1276 0 z" fill="#635994"/>
		<path d="M1948-72c58 0 105 49 105 108l0 648c0 60-47 107-105 107l-1084 0c-59 0-105-48-105-107l0-648c0-59 46-108 105-108l1084 0 z M1948 863c59 0 105 48 105 107l0 648c0 60-47 107-105 107l-1084 0c-59 0-105-48-105-107l0-648c0-60 47-107 105-107l1084 0 z" fill="#F3EEF8"/>
		<path d="M1801 629c19 0 36 15 36 36l0 290c0 19-15 36-36 36-19 0-36-15-36-36l0-290c0-19 15-36 36-36 z M1011 629c18 0 36 17 36 36l0 290c0 18-17 36-36 36-19 0-36-15-36-36l0-290c0-19 15-36 36-36 z" fill="#321B41"/>
		<path d="M1280 1078c29 0 54 23 54 53l0 397c0 32-24 53-54 53l-324 0c-29 0-53-23-53-53l0-397c0-30 24-53 53-53l324 0 z" fill="#00A6ED"/>
		<path d="M1866 1078c19 0 36 15 36 36 0 19-15 36-36 36l-348 0c-19 0-36-15-36-36 0-19 15-36 36-36l348 0 z M1866 1366c19 0 36 15 36 36 0 19-15 36-36 36l-348 0c-19 0-36-15-36-36 0-19 15-36 36-36l348 0 z M1866 1222c19 0 36 15 36 36 0 19-15 36-36 36l-348 0c-19 0-36-15-36-36 0-19 15-36 36-36l348 0 z M1866 1510c19 0 36 15 36 36 0 18-17 35-36 35l-348 0c-19 0-36-17-36-35 0-19 15-36 36-36l348 0 z" fill="#998EA4"/>
	</g></svg>
