<svg version="1.1" xmlns="http://www.w3.org/2000/svg" viewBox="0 0 2300 2300"><g transform="scale(1,-1) translate(-256, -1869)">
		<path d="M2161-144c100 0 179 83 179 180l-48 1064c0 43 2 75 2 115l-1 41c-1 16-3 29-8 38-24 46-78 72-124 72l-575 0c-66 0-132-25-180-76-48 51-114 76-180 76l-575 0c-25 0-49-6-72-19-40-22-61-51-61-113 0-75 2-83 2-134l-48-1064c0-101 81-180 179-180l1510 0 z" fill="#B4ACBC"/>
		<path d="M1406-359c50 0 98 27 124 72l774 0c57 0 108 46 108 108l0 76c0 48-43 175-108 175l-1796 0c-65 0-108-127-108-175l0-77c0-59 49-107 108-107l773 0c27-45 75-72 125-72 z" fill="#0074BA"/>
		<path d="M1406-287c50 0 98 27 124 72l774 0c57 0 108 46 108 108l0 1150c0 58-47 107-108 107l-754 0 0-72-288 0 0 72-754 0c-60 0-108-49-108-107l0-1151c0-59 48-107 108-107l773 0c27-45 75-72 125-72 z M1406-215c58 0 108 47 108 107 0 58-49 108-108 108-61 0-108-48-108-108 0-59 48-107 108-107 z" fill="#00A6ED"/>
		<path d="M2233-72c59 0 107 49 107 108l0 1042-111 168c-20 30-54 48-90 48l-517 0 0-216-432 0 0 216-517 0c-36 0-70-18-90-48l-111-168 0-1042c0-58 47-108 107-108l1654 0 z" fill="#B4ACBC"/>
		<path d="M1406-72l0 1186c0 98-78 180-180 180l-575 0c-39 0-72-34-72-72l0-1078c0-39 34-72 72-72l594 0c96 0 123-69 161-144 z" fill="#F3EEF8"/>
		<path d="M1442 0c24 43 72 72 125 72l594 0c39 0 72 34 72 72l0 1078c0 38-33 72-72 72l-575 0c-56 0-109-26-144-72l0-1222 z" fill="#F3EEF8"/>
	</g></svg>
