<svg version="1.1" xmlns="http://www.w3.org/2000/svg" viewBox="0 0 2300 2300"><g transform="scale(1,-1) translate(-256, -1869)">
		<path d="M2197-287c40 0 71 34 71 72l0 215-1653 0 0-215c0-38 33-72 72-72l1510 0 z" fill="#F9C23C"/>
		<path d="M2089-215c58 0 108 47 108 107l0 108-1510 0 0-108c0-59 48-107 108-107l1294 0 z" fill="#D3D3D3"/>
		<path d="M2197-72c40 0 71 34 71 72l0 1653c0 38-31 72-71 72l-1510 0c-39 0-72-34-72-72l0-1653c0-39 34-72 72-72l1510 0 z" fill="#FCD53F"/>
		<path d="M1693 1006c38 0 72 33 72 72l0 144c0 39-31 72-72 72l-575 0c-40 0-71-34-71-72l0-144c0-38 31-72 71-72l575 0 z" fill="#FFB02E"/>
		<path d="M615 60l0 114c-41 21-72 65-72 114 0 70 58 125 126 125 61 0 115-43 125-107l1 0c0-29 24-54 54-54 32 0 53 24 54 54l-1 0c-8 119-111 215-233 215-18 0-36-2-54-6l0 36c-42 22-72 65-72 114 0 69 56 126 126 126 65 0 116-46 125-108l1 0c0-29 24-54 54-54 32 0 53 24 54 54l-1 0c-8 124-114 216-233 216-19 0-35-3-54-7l0 37c-44 22-72 66-72 113 0 69 56 126 126 126 65 0 116-46 125-108l1 0c0-30 25-54 54-54 32 0 53 25 54 54l-1 0c-8 124-114 216-233 216-18 0-36-2-54-6l0 36c-41 21-72 65-72 114 0 69 56 126 126 126 65 0 116-46 125-108l1 0c0-30 25-54 54-54 32 0 53 24 54 54l-1 0c-8 119-111 215-233 215-127 0-233-104-233-233 0-72 33-143 95-189-62-46-95-117-95-189 0-71 33-144 95-188-62-46-95-117-95-189 0-72 33-143 95-189-62-44-95-117-95-188 0-109 73-201 179-228 z" fill="#9B9B9B"/>
	</g></svg>
