<svg version="1.1" xmlns="http://www.w3.org/2000/svg" viewBox="0 0 2300 2300"><g transform="scale(1,-1) translate(-256, -1869)">
		<path d="M2089-359c58 0 108 49 108 108l0 1653c0 58-49 108-108 108l-330 0-235 234c-34 34-78 53-127 53l-818 0c-98 0-179-79-179-180l0-1653c0-97 79-179 179-179l180 0 0-36c0-63 50-108 108-108l1222 0 z" fill="#B4ACBC"/>
		<path d="M1801-144c58 0 108 49 108 108l0 1249c0 30-12 57-32 77l-404 404c-20 20-48 31-76 31l-818 0c-59 0-107-48-107-108l0-1653c0-58 47-108 107-108l1222 0 z" fill="#F3EEF8"/>
		<path d="M1298 360c19 0 36 15 36 36 0 18-17 35-36 35l-575 0c-19 0-36-17-36-35 0-19 15-36 36-36l575 0 z M1658 575c18 0 35 17 35 36 0 19-17 36-35 36l-935 0c-19 0-36-15-36-36 0-19 15-36 36-36l935 0 z M1658 791c18 0 35 17 35 36 0 19-17 36-35 36l-935 0c-19 0-36-15-36-36 0-19 15-36 36-36l935 0 z M1658 1006c18 0 35 17 35 36 0 19-17 36-35 36l-935 0c-19 0-36-15-36-36 0-18 17-36 36-36l935 0 z" fill="#998EA4"/>
		<path d="M1909 1222c-3 27-13 49-32 68l-404 404c-19 19-41 29-67 31l0-395c0-63 50-108 108-108l395 0 z" fill="#CDC4D6"/>
		<path d="M2089 719c19 0 36 15 36 36l0 144c0 18-17 36-36 36l-203 0c-8 0-16-3-23-9l-85-72c-9-7-13-16-13-27 0-11 4-21 13-28l85-72c7-5 14-8 23-8l203 0 z" fill="#F70A8D"/>
		<path d="M2304 216c19 0 36 15 36 36l0 144c0 18-17 35-36 35l-202 0c-9 0-16-3-23-8l-86-72c-9-7-13-16-13-27 0-11 4-21 13-28l86-72c7-5 14-8 23-8l202 0 z" fill="#F9C23C"/>
	</g></svg>
