<svg version="1.1" xmlns="http://www.w3.org/2000/svg" viewBox="0 0 2300 2300"><g transform="scale(1,-1) translate(-256, -1869)">
		<path d="M2197 0l0 1581c0 81-67 144-144 144l-1222 0 0-1725 1366 0 z" fill="#533566"/>
		<path d="M2125-251l36 36 36 0 0 179-1546 0 0-215 1474 0 z" fill="#D3D3D3"/>
		<path d="M687-144c0 41 21 59 51 67 14 4 30 6 47 6l46-1 0 1797-108 0c-58 0-108-49-108-108l0-1761 72 0 z" fill="#321B41"/>
		<path d="M2089-287c46 0 86 29 101 72l-1431 0c-38 0-72 31-72 71 0 39 31 72 72 72l1438 0 0 72-1474 0c-58 0-108-49-108-108l0-71c0-58 49-108 108-108l1366 0 z" fill="#6B438B"/>
		<path d="M989 720c-9 0-18 4-25 11l-101 102c-7 7-11 16-11 25 0 24 36 61 61 61 11 0 19-3 26-10l101-101c7-7 10-15 10-26 0-23-36-62-61-62 z M2061 433c24 0 61 36 61 61 0 11-3 19-10 26l-101 102c-7 7-15 10-26 10-25 0-62-37-62-62 0-9 4-18 11-25l102-101c7-7 16-11 25-11 z M1841 720c-9 0-18 4-25 11l-102 102c-7 7-11 16-11 25 0 25 39 61 62 61 11 0 19-3 26-10l101-101c7-7 10-15 10-26 0-23-36-62-61-62 z M1482 1088c10 0 19 4 26 11l101 102c7 7 10 15 10 25 0 24-36 61-61 61-10 0-18-3-25-10l-102-101c-7-7-11-16-11-26 0-24 38-62 62-62 z M1200 1376c-24 0-61 39-61 61 0 10 4 19 11 26l102 102c7 7 15 10 25 10 24 0 61-39 61-61 0-10-3-18-10-25l-102-102c-7-7-16-11-26-11 z M1586 108l-144 0c-19 0-36 15-36 36l0 36c0 19 15 36 36 36l144 0c18 0 36-17 36-36l0-36c0-19-18-36-36-36 z M1298 467l-144 0c-19 0-36 18-36 36l0 36c0 18 17 36 36 36l144 0c19 0 36-15 36-36l0-36c0-19-15-36-36-36 z M2057 1366c19 0 36 15 36 36l0 144c0 18-17 35-36 35l-36 0c-19 0-36-17-36-35l0-144c0-19 15-36 36-36l36 0 z" fill="#FF6DC6"/>
		<path d="M1873 467c19 0 36 15 36 36l0 36c0 19-15 36-36 36l-144 0c-18 0-36-17-36-36l0-36c0-18 17-36 36-36l144 0 z M2057 72c19 0 36 15 36 36l0 144c0 19-15 36-36 36l-36 0c-19 0-36-15-36-36l0-144c0-19 15-36 36-36l36 0 z M969 431c19 0 36 18 36 36l0 144c0 19-15 36-36 36l-35 0c-19 0-36-15-36-36l0-144c0-18 17-36 36-36l35 0 z M1194 82c10 0 19 4 26 11l102 102c7 7 10 15 10 25 0 24-36 61-61 61-10 0-18-3-25-10l-102-102c-7-7-11-16-11-25 0-24 39-62 61-62 z M2066 1080c24 0 61 39 61 61 0 11-3 19-10 26l-102 102c-7 7-15 10-26 10-25 0-61-39-61-62 0-9 4-18 11-25l101-101c7-7 16-11 26-11 z M1841 1367c25 0 61 39 61 62 0 10-3 18-10 25l-101 102c-7 7-15 10-26 10-23 0-62-36-62-61 0-9 4-18 11-25l102-102c7-7 16-11 25-11 z M1586 755c18 0 36 17 36 36l0 36c0 18-17 36-36 36l-144 0c-19 0-36-15-36-36l0-36c0-19 15-36 36-36l144 0 z M1298 1114c19 0 36 15 36 36l0 36c0 19-15 36-36 36l-144 0c-18 0-36-17-36-36l0-36c0-18 17-36 36-36l144 0 z M989 1367c25 0 61 39 61 62 0 10-3 18-10 25l-101 102c-7 7-15 10-26 10-24 0-61-36-61-61 0-9 4-18 11-25l101-102c7-7 16-11 25-11 z" fill="#9B9B9B"/>
		<path d="M990 81c30 0 54 25 54 54 0 15-5 27-16 38l-77 77c-11 11-23 16-38 16-32 0-54-25-54-55 0-15 5-27 16-38l76-76c11-11 24-16 39-16 z M1841 81c30 0 55 22 55 54 0 15-5 27-16 38l-77 77c-11 11-23 16-38 16-32 0-54-25-54-55 0-15 5-27 16-38l76-76c11-11 23-16 38-16 z M1482 449c15 0 27 5 38 16l77 76c11 11 16 23 16 38 0 32-25 55-55 55-15 0-27-5-38-16l-76-77c-11-11-16-23-16-38 0-32 24-54 54-54 z M1195 737c15 0 27 5 38 16l76 76c11 11 16 23 16 38 0 30-22 54-54 54-15 0-27-5-38-16l-76-76c-11-11-16-23-16-38 0-30 22-54 54-54 z M1855 1114c30 0 54 22 54 54 0 30-22 54-54 54l-108 0c-29 0-54-24-54-54 0-29 24-54 54-54l108 0 z M2039 719c32 0 54 24 54 54l0 108c0 30-25 54-54 54-30 0-54-25-54-54l0-108c0-30 22-54 54-54 z M951 1078c30 0 54 22 54 54l0 108c0 32-24 54-54 54-32 0-53-25-53-54l0-108c0-29 21-54 53-54 z M1568 1402c29 0 54 24 54 54 0 29-24 54-54 54l-108 0c-29 0-54-24-54-54 0-30 22-54 54-54l108 0 z" fill="#5092FF"/>
	</g></svg>
