<svg version="1.1" xmlns="http://www.w3.org/2000/svg" viewBox="0 0 2300 2300"><g transform="scale(1,-1) translate(-256, -1869)">
		<path d="M1464-290l0 477-166 101-192-101 0-477 358 0 z" fill="#7D4533"/>
		<path d="M2230 172l2 1 0 773c0 231-187 420-420 420l-993 0 228-1194 1183 0 z" fill="#5092FF"/>
		<path d="M1237 172l1 1 0 773c0 232-186 420-419 420-224 0-419-178-419-420l0-773 1-1 836 0 z" fill="#3F5FFF"/>
		<path d="M922 291c38 0 71 30 71 70 0 40-33 70-71 70l-308 0c-38 0-71-30-71-70 0-40 33-70 71-70l308 0 z" fill="#1345B7"/>
		<path d="M1990 1438c32 0 63 22 63 58l0 171c0 36-31 58-63 58l-378 0c-31 0-62-23-62-58l0-171c0-35 31-58 62-58l378 0 z" fill="#F92F60"/>
		<path d="M1580 719c96 0 174 77 174 174 0 64-35 120-87 151l0 640c0 49-39 86-87 86-48 0-87-37-87-86l0-640c-52-31-87-87-87-151 0-96 77-174 174-174 z" fill="#D3D3D3"/>
	</g></svg>
