<svg version="1.1" xmlns="http://www.w3.org/2000/svg" viewBox="0 0 2300 2300"><g transform="scale(1,-1) translate(-256, -1869)">
		<path d="M2483-287l1 1 0 1578-1 2-2154 0-1-2 0-1578 1-1 2154 0 z" fill="#B4ACBC"/>
		<path d="M2411-144l1 1 0 1292-1 1-2010 0-1-1 0-1292 1-1 2010 0 z" fill="#CDC4D6"/>
		<path d="M2411-215l1 1 0 185-932 560c-23 13-47 20-74 20-27 0-51-7-74-20l-932-560 0-185 1-1 2010 0 z" fill="#E1D8EC"/>
		<path d="M1406 383c40 0 77 10 111 31l895 537 0 127-2012 0 0-127 895-537c34-21 71-31 111-31 z" fill="#998EA4"/>
		<path d="M1406 456c27 0 51 7 74 20l932 559 0 186-1 1-2010 0-1-1 0-186 932-559c23-13 47-20 74-20 z" fill="#F3EEF8"/>
		<path d="M1406 0c276 0 503 223 503 503 0 276-223 503-503 503-267 0-503-213-503-503 0-276 221-503 503-503 z" fill="#00A6ED"/>
		<path d="M1402 180c18 0 33 15 33 34 0 19-15 33-33 33-141 0-256 114-256 256 0 145 118 256 259 256 137 0 253-118 253-260l0-58c0-27-23-48-49-48-26 0-48 20-48 48l0 221c0 18-15 34-34 34-25 0-35-19-35-40-32 27-72 41-115 41-101 0-182-82-182-183 0-102 84-182 182-182 47 0 94 17 130 53 21-35 58-60 102-60 64 0 116 53 116 117l0 58c0 173-140 327-319 327-181 0-328-141-328-324 0-178 145-323 324-323 z M1378 398c-65 0-115 54-115 115 0 65 54 115 115 115 65 0 115-54 115-115 0-65-54-115-115-115 z" fill="#F4F4F4"/>
	</g></svg>
