<svg version="1.1" xmlns="http://www.w3.org/2000/svg" viewBox="0 0 2300 2300"><g transform="scale(1,-1) translate(-256, -1869)">
		<path d="M1401-135c471 0 858 381 858 858 0 471-381 858-858 858-471 0-858-381-858-858 0-471 381-858 858-858 z" fill="#FFFFFF"/>
		<path d="M1693 144c39 0 72 31 72 72l0 1006c0 39-31 72-72 72l-575 0c-40 0-71-34-71-72l0-1006c0-38 31-72 71-72l575 0 z M1675 288l-539 0c-11 0-18 7-18 18l0 754c0 11 7 18 18 18l539 0c11 0 18-7 18-18l0-754c0-11-7-18-18-18 z M1586 1150l-360 0c-19 0-36 15-36 36 0 19 15 36 36 36l360 0c18 0 36-17 36-36 0-18-17-36-36-36 z" fill="#000000"/>
		<path d="M1406-287c547 0 1006 440 1006 1006 0 547-440 1006-1006 1006-547 0-1006-440-1006-1006 0-547 440-1006 1006-1006 z M2036 241l-1108 1108c140 107 306 161 478 161 436 0 791-351 791-791 0-172-54-338-161-478 z M1406-72c-436 0-791 351-791 791 0 167 53 335 161 478l1108-1108c-143-108-311-161-478-161 z" fill="#F8312F"/>
	</g></svg>
