<svg version="1.1" xmlns="http://www.w3.org/2000/svg" viewBox="0 0 2300 2300"><g transform="scale(1,-1) translate(-256, -1869)">
		<path d="M2125-287c156 0 287 125 287 287l0 1438c0 156-125 287-287 287l-1438 0c-156 0-287-125-287-287l0-1438c0-161 130-287 287-287l1438 0 z" fill="#FF9F2E"/>
		<path d="M1298 502c-93 0-170 76-170 171l0 120c0 92 76 170 170 170 93 0 171-76 171-170l0-120c0-97-79-171-171-171 z M1943 502c-19 0-36 15-36 36l0 383c0 18 17 35 36 35l222 0c19 0 36-17 36-35 0-18-17-36-36-36l-186 0 0-115 177 0c19 0 36-15 36-36 0-19-15-36-36-36l-177 0 0-160c0-19-15-36-36-36 z M1582 501c19 0 36 15 36 36l0 161 177 0c19 0 36 15 36 36 0 19-15 36-36 36l-177 0 0 115 186 0c18 0 35 17 35 36 0 18-16 35-35 35l-222 0c-19 0-36-17-36-35l0-384c0-19 15-36 36-36 z M1298 574c56 0 99 43 99 99l0 120c0 53-44 98-99 98-55 0-98-43-98-98l0-120c0-55 44-99 98-99 z M1334 72c81 0 144 67 144 144l0 247c0 6-3 9-10 9l-3-1c-45-23-38-27-66-36-12-5-31-8-31-20l0-141c0-11-7-18-18-18l-602 0c-11 0-18 7-18 18l0 887c0 11 7 18 18 18l602 0c11 0 18-7 18-18l0-110c0-4 2-7 6-9 20-11 42-17 62-29 11-6 21-20 32-20 7 0 10 3 10 9l0 220c0 81-67 144-144 144l-575 0c-81 0-144-67-144-144l0-1006c0-81 67-144 144-144l575 0 z" fill="#FFFFFF"/>
	</g></svg>
