<svg version="1.1" xmlns="http://www.w3.org/2000/svg" viewBox="0 0 2300 2300"><g transform="scale(1,-1) translate(-256, -1869)">
		<path d="M796 431c214 0 395 174 395 395 0 217-174 396-396 396-218 0-396-175-396-395 0-219 178-396 397-396 z M1694 503c229 0 431 185 431 432 0 229-185 431-432 431-229 0-431-185-431-432 0-229 185-431 432-431 z M795 755c-38 0-72 33-72 72 0 38 33 72 72 72 38 0 72-33 72-72 0-38-33-72-72-72 z M508 729c-19 0-36 15-36 36l0 124c0 19 17 36 35 36 11 0 37-14 63-28 56-34 81-43 81-70 0-13-6-24-18-31-21-13-103-67-125-67 z M1082 729c-16 0-66 28-99 51-37 24-44 27-44 47 0 13 6 24 18 31 21 13 103 67 126 67 18 0 35-17 35-36l0-124c0-19-15-36-36-36 z M885 946c-18 0-36 17-36 36l0 125c0 19 15 36 36 36 11 0 37-14 63-28 56-34 81-43 81-70 0-13-6-24-18-31-21-13-104-68-126-68 z M705 511c-16 0-66 28-99 51-37 24-45 26-45 47 0 13 6 24 18 31 24 13 104 67 126 67 19 0 36-15 36-36l0-124c0-19-15-36-36-36 z M885 511c-19 0-36 15-36 36l0 124c0 19 15 36 36 36 11 0 37-14 63-28 54-33 81-44 81-70 0-13-6-24-18-31-23-13-104-67-126-67 z M705 946c-11 0-37 13-63 29-54 31-81 45-81 70 0 13 6 24 18 31 21 13 103 67 126 67 19 0 36-15 36-36l0-125c0-18-17-36-36-36 z M1694 856c-42 0-79 34-79 78 0 42 34 79 78 79 42 0 79-34 79-78 0-42-34-79-78-79 z M1557 1035c-19 0-78 16-126 31-54 16-59 21-59 45 0 10 3 18 10 25l110 110c7 7 15 10 25 10 18 0 30-9 35-26 8-29 41-133 41-159 0-19-15-36-36-36 z M1870 613c-18 0-30 9-35 26-8 26-41 132-41 159 0 19 15 36 36 36 19 0 78-16 126-31 50-16 59-18 59-45 0-10-3-18-10-25l-110-110c-7-7-15-10-25-10 z M2029 909c-19 0-78 16-126 31-54 16-59 21-59 45 0 10 3 18 10 25l110 109c7 7 16 11 25 11 19 0 30-11 35-27 8-30 41-133 41-158 0-19-15-36-36-36 z M1398 739c-19 0-30 11-35 27-8 29-41 133-41 159 0 19 17 36 35 36 18 0 79-18 125-32 49-15 61-18 61-45 0-10-3-18-10-25l-110-109c-7-7-16-11-25-11 z M1683 563c-18 0-81 18-124 31-49 15-61 18-61 45 0 9 4 18 11 25l109 110c7 7 15 10 25 10 18 0 30-9 35-26 8-29 41-133 41-159 0-19-15-36-36-36 z M1744 1085c-19 0-30 11-35 27-8 29-42 135-42 159 0 18 17 35 36 35 19 0 80-17 125-31 49-15 61-18 61-45 0-9-4-18-11-25l-109-110c-7-7-15-10-25-10 z" fill="#636363"/>
		<path d="M795 431c211 0 395 169 395 396 0 216-173 395-395 395-216 0-395-173-395-395 0-218 175-396 395-396 z M1693 503c233 0 432 186 432 432 0 239-192 431-432 431-234 0-431-190-431-431 0-229 180-432 431-432 z M795 503c-178 0-323 144-323 324 0 179 147 323 323 323 179 0 323-147 323-323 0-179-144-324-323-324 z M1693 575c-200 0-359 163-359 360 0 190 152 359 359 359 191 0 360-153 360-359 0-194-156-360-360-360 z" fill="#BEBEBE"/>
		<path d="M1765-287c80 0 144 64 144 143l0 144 216 0 0 360-216 0 0 143c0 81-67 144-144 144l-934 0c-81 0-144-67-144-144l0-647c0-80 65-143 144-143l934 0 z" fill="#9B9B9B"/>
		<path d="M1693-72c39 0 72 31 72 72 0 39-31 72-72 72-40 0-71-34-71-72 0-38 31-72 71-72 z" fill="#CA0B4A"/>
		<path d="M1693 288c39 0 72 31 72 72 0 40-34 71-72 71-39 0-71-33-71-71 0-38 31-72 71-72 z" fill="#F4F4F4"/>
		<path d="M1226-72c19 0 36 15 36 36 0 19-15 36-36 36l-359 0c-19 0-36-15-36-36 0-19 15-36 36-36l359 0 z M1226 72c19 0 36 15 36 36 0 19-15 36-36 36l-359 0c-19 0-36-15-36-36 0-19 15-36 36-36l359 0 z M1226 216c19 0 36 15 36 36 0 19-15 36-36 36l-359 0c-19 0-36-15-36-36 0-19 15-36 36-36l359 0 z" fill="#321B41"/>
		<path d="M2341-253c40 0 71 34 71 72l0 712c0 38-33 72-72 72-36 0-212-98-247-116-25-13-40-36-40-64l0-518c0-30 18-55 45-67 40-19 211-91 243-91 z" fill="#636363"/>
	</g></svg>
