<svg version="1.1" xmlns="http://www.w3.org/2000/svg" viewBox="0 0 2300 2300"><g transform="scale(1,-1) translate(-256, -1869)">
		<path d="M2161-287c120 0 215 97 215 215l0 144-1365 0 0-144c0-120 97-215 215-215l935 0 z M2376 1366l0 144c0 120-97 215-215 215l-935 0c-120 0-215-97-215-215l0-144 1365 0 z" fill="#7167A4"/>
		<path d="M2376 0l0 1438-1365 0 0-1438 1365 0 z" fill="#321B41"/>
		<path d="M1765 216l-143 0c-39 0-72 31-72 72l0 143c0 39 31 72 72 72l143 0c39 0 72-31 72-72l0-143c0-39-31-72-72-72 z M1406 575c39 0 72 31 72 72l0 144c0 39-31 72-72 72l-144 0c-38 0-72-33-72-72l0-144c0-39 34-72 72-72l144 0 z M1765 935c38 0 72 31 72 71l0 144c0 39-31 72-72 72l-143 0c-39 0-72-31-72-72l0-144c0-40 34-71 72-71l143 0 z" fill="#00A6ED"/>
		<path d="M2125 575l-144 0c-39 0-72 31-72 72l0 144c0 39 31 72 72 72l144 0c39 0 72-34 72-72l0-144c0-38-33-72-72-72 z M1406 216c39 0 72 31 72 72l0 143c0 39-31 72-72 72l-144 0c-38 0-72-33-72-72l0-143c0-39 34-72 72-72l144 0 z M1406 935c38 0 72 31 72 71l0 144c0 39-31 72-72 72l-144 0c-38 0-72-33-72-72l0-144c0-40 34-71 72-71l144 0 z" fill="#FF822D"/>
		<path d="M737 387c9 0 18 3 25 9l326 297c9 7 13 17 13 28 0 11-4 21-13 28l-326 297c-8 7-16 10-25 10-15 0-26-5-31-15-5-11-8-23-9-38l0-12c0-12 1-25 2-38 1-18 2-34 2-49-1-15-4-28-9-38-5-11-15-16-30-16l-136 0c-15 0-28-5-38-15-11-11-16-24-16-39l0-150c0-15 5-28 16-38 10-11 23-16 38-16l136 0c15 0 25-5 30-15 5-10 8-23 9-38l0-12c0-12-1-25-2-37-1-13-2-26-2-38l0-12c1-15 4-28 9-38 5-10 16-15 31-15 z" fill="#00A6ED"/>
		<path d="M2125 216l-144 0c-39 0-72 31-72 72l0 143c0 39 31 72 72 72l144 0c39 0 72-34 72-72l0-143c0-38-33-72-72-72 z M1765 575c39 0 72 31 72 72l0 144c0 39-31 72-72 72l-143 0c-39 0-72-31-72-72l0-144c0-39 31-72 72-72l143 0 z M2125 935c38 0 72 31 72 71l0 144c0 38-33 72-72 72l-144 0c-39 0-72-31-72-72l0-144c0-40 34-71 72-71l144 0 z" fill="#FCD53F"/>
	</g></svg>
