<svg version="1.1" xmlns="http://www.w3.org/2000/svg" viewBox="0 0 2300 2300"><g transform="scale(1,-1) translate(-256, -1869)">
		<path d="M1837-287c121 0 216 97 216 215l0 144-1366 0 0-144c0-119 97-215 216-215l934 0 z M2053 1366l0 144c0 119-97 215-216 215l-934 0c-121 0-216-97-216-215l0-144 1366 0 z" fill="#7167A4"/>
		<path d="M2053 0l0 1438-1366 0 0-1438 1366 0 z" fill="#321B41"/>
		<path d="M1442 216l-144 0c-39 0-72 31-72 72l0 143c0 39 31 72 72 72l144 0c39 0 72-31 72-72l0-143c0-39-31-72-72-72 z M1083 575c40 0 71 34 71 72l0 144c0 38-31 72-71 72l-144 0c-39 0-72-31-72-72l0-144c0-39 31-72 72-72l144 0 z M1442 935c38 0 72 31 72 71l0 144c0 39-31 72-72 72l-144 0c-39 0-72-31-72-72l0-144c0-40 34-71 72-71l144 0 z" fill="#00A6ED"/>
		<path d="M1801 575l-143 0c-39 0-72 31-72 72l0 144c0 39 31 72 72 72l143 0c39 0 72-31 72-72l0-144c0-39-31-72-72-72 z M1083 216c40 0 71 34 71 72l0 143c0 38-31 72-71 72l-144 0c-39 0-72-31-72-72l0-143c0-39 31-72 72-72l144 0 z M1083 935c39 0 71 33 71 71l0 144c0 38-31 72-71 72l-144 0c-39 0-72-31-72-72l0-144c0-40 34-71 72-71l144 0 z" fill="#FF822D"/>
		<path d="M1801 216l-143 0c-39 0-72 31-72 72l0 143c0 39 31 72 72 72l143 0c39 0 72-31 72-72l0-143c0-39-31-72-72-72 z M1442 575c39 0 72 31 72 72l0 144c0 39-31 72-72 72l-144 0c-39 0-72-31-72-72l0-144c0-39 31-72 72-72l144 0 z M1801 935c38 0 72 31 72 71l0 144c0 39-31 72-72 72l-143 0c-39 0-72-31-72-72l0-144c0-40 34-71 72-71l143 0 z" fill="#FCD53F"/>
	</g></svg>
