<svg version="1.1" xmlns="http://www.w3.org/2000/svg" viewBox="0 0 2300 2300"><g transform="scale(1,-1) translate(-256, -1869)">
		<path d="M1622 216c395 0 718 319 718 719 0 384-308 718-718 718-395 0-719-318-719-718 0-395 319-719 719-719 z" fill="#00A6ED"/>
		<path d="M1941 1124c57 0 90 47 90 102 0 74-64 169-147 169-58 0-89-48-89-103 0-78 66-168 146-168 z" fill="#FFFFFF"/>
		<path d="M685-277c74 0 142 30 191 79l228 229c52 53 79 120 79 192 0 19-2 39-6 58 128-89 283-137 445-137 436 0 790 354 790 791 0 435-351 790-790 790-435 0-791-352-791-790 0-159 48-316 141-451-19 4-39 6-58 6-70 0-139-26-191-78l-228-229c-52-52-80-120-80-191 0-150 123-269 270-269 z M1622 288c-361 0-647 291-647 647 0 357 288 646 647 646 357 0 646-286 646-646 0-345-274-647-646-647 z" fill="#635994"/>
	</g></svg>
