<svg version="1.1" xmlns="http://www.w3.org/2000/svg" viewBox="0 0 2300 2300"><g transform="scale(1,-1) translate(-256, -1869)">
		<path d="M2125-287c158 0 287 127 287 287l0 1438c0 156-125 287-287 287l-1438 0c-160 0-287-130-287-287l0-1438c0-161 130-287 287-287l1438 0 z" fill="#00A6ED"/>
		<path d="M1370 72c9 0 17 4 24 11 7 7 10 15 10 24l0 212c0 9-3 17-10 23-7 5-15 8-24 8-37 0-71 6-100 19-29 13-53 29-74 49-20 20-35 43-46 68-11 25-16 49-16 73l0 400c0 5 2 10 5 13 3 3 8 5 13 5l92 0c15 0 27 4 38 13 11 8 19 18 24 30 3 8 5 17 5 26l-1 13c-2 13-8 26-19 37l-245 250c-13 13-29 20-48 20-18 0-34-7-47-20l-246-250c-11-11-17-24-19-37l-1-13c0-9 2-18 5-26 5-12 13-22 24-30 11-9 24-13 39-13l92 0c5 0 10-2 13-5 3-3 5-8 5-13l0-400c0-67 13-130 40-189 27-59 63-111 108-155 46-44 100-79 161-104 62-26 128-39 198-39 z M1809 72c19 0 35 7 48 20l246 250c11 11 17 23 19 37l1 11c0 10-2 19-6 28-5 12-13 22-24 31-11 8-23 12-38 12l-92 0c-5 0-10 2-13 5-3 3-5 8-5 13l0 400c0 67-13 131-40 190-27 59-63 110-109 154-45 44-99 79-161 105-61 25-127 38-197 38-9 0-17-3-24-10-7-7-10-16-10-25l0-212c0-9 3-17 10-23 7-6 15-9 24-9 37 0 70-6 99-19 29-13 54-29 74-49 21-20 36-42 47-67 11-25 16-49 16-73l0-400c0-5-2-10-5-13-3-3-8-5-13-5l-92 0c-15 0-28-4-39-12-11-9-18-19-23-31-3-8-5-17-5-26l1-13c2-14 8-26 19-37l245-250c13-13 29-20 47-20 z" fill="#FFFFFF"/>
	</g></svg>
