<svg version="1.1" xmlns="http://www.w3.org/2000/svg" viewBox="0 0 2300 2300"><g transform="scale(1,-1) translate(-256, -1869)">
		<path d="M1630-287c118 0 226 95 226 225l0 207c0 126-100 226-226 226-121 0-225-98-225-226l0-207c0-126 102-225 225-225 z M1121-287c122 0 225 99 225 225l0 207c0 125-102 226-225 226-126 0-226-100-226-226l0-207c0-126 103-225 226-225 z M2336-287c39 0 72 31 72 72l0 515c0 38-33 72-72 72-39 0-72-34-72-72l0-275-206 314c-15 22-35 33-60 33-41 0-72-34-72-72l0-515c0-39 34-72 72-72 39 0 72 31 72 72l0 275 206-315c14-21 34-32 60-32 z M643-287c106 0 204 71 204 189 0 76-34 122-78 154-85 60-223 62-223 126 0 29 23 45 49 45 115 0 130-65 181-65 39 0 72 31 72 72 0 92-176 137-242 137-110 0-204-75-204-188 0-77 34-123 78-154 85-61 223-63 223-128 0-27-25-45-50-45-112 0-130 66-180 66-39 0-72-34-72-72 0-90 173-137 242-137 z M1630-144c-44 0-82 35-82 82l0 207c0 44 35 83 82 83 45 0 83-37 83-83l0-207c0-47-39-82-83-82 z M1121-144c-44 0-83 35-83 82l0 207c0 46 35 83 83 83 47 0 82-39 82-83l0-207c0-44-35-82-82-82 z M1743 498c17 0 32 6 45 18l598 544c15 13 22 32 22 51 0 21-8 38-23 52l-598 544c-14 12-29 18-46 18-38 0-69-29-69-69l0-261c0-25-20-46-46-46l-1141 0c-47 0-85-38-85-85l0-304c0-47 38-85 85-85l1142 0c25 0 46-20 46-46l0-262c0-40 32-69 70-69 z" fill="#635994"/>
	</g></svg>
