<svg version="1.1" xmlns="http://www.w3.org/2000/svg" viewBox="0 0 2300 2300"><g transform="scale(1,-1) translate(-256, -1869)">
		<path d="M1448-287c-126 0-226 100-226 226l0 207c0 122 100 225 226 225 122 0 227-97 227-225l0-207c0-125-101-226-227-226 z M1825-287c39 0 72 31 72 72l0 193 127 0c109 0 197 87 197 197 0 109-87 197-197 197l-199 0c-39 0-72-31-72-72l0-515c0-39 31-72 72-72 z M1448-144c46 0 83 35 83 83l0 207c0 48-37 82-83 82-44 0-82-35-82-82l0-207c0-44 35-83 82-83 z M2024 122l-127 0 0 106 127 0c30 0 53-24 53-53 0-29-23-53-53-53 z M919-286c-38 0-72 31-72 71l0 444-160 0c-39 0-72 34-72 72 0 39 34 72 72 72l463 0c39 0 72-31 72-72 0-39-31-72-72-72l-159 0 0-444c0-40-34-71-72-71 z M1557 505c45 0 86 34 86 84l0 373c0 26 21 45 46 45l261 0c37 0 69 27 69 67 0 17-6 32-18 45l-544 585c-13 15-32 21-51 21-21 0-38-7-51-22l-545-584c-12-13-18-28-18-45 0-40 31-68 69-68l262 0c25 0 46-19 46-45l0-373c0-48 39-83 85-83l303 0 z" fill="#635994"/>
	</g></svg>
