<svg version="1.1" xmlns="http://www.w3.org/2000/svg" viewBox="0 0 2300 2300"><g transform="scale(1,-1) translate(-256, -1869)">
		<path d="M1406-287c117 0 219 74 252 179l-504 0c35-112 141-179 252-179 z" fill="#FF822D"/>
		<path d="M1406 1398c51 0 90 39 90 90l0 147c0 51-39 90-90 90-51 0-90-39-90-90l0-147c0-51 39-90 90-90 z" fill="#FFB02E"/>
		<path d="M2272-144c21 0 37 6 47 17 9 11 16 25 19 42 2 14 4 28 4 43l-2 57c0 44-9 83-26 118-17 34-42 65-74 94-36 31-64 65-84 102-20 37-35 78-44 125l-125 639c-14 70-38 135-73 195-35 59-79 111-130 154-51 43-109 77-173 102-65 25-133 37-205 37-72 0-140-12-204-37-65-25-123-59-174-102-52-44-96-96-131-155-35-59-60-124-73-194l-62-319-62-320c-9-46-24-87-44-124-20-37-48-72-84-103-32-29-57-60-74-94-17-35-26-74-26-118l0-89c0-19 7-36 20-49 13-14 29-21 48-21l1732 0 z" fill="#F9C23C"/>
		<path d="M2309-287c56 0 103 57 103 109 0 27-10 52-29 71l-1807 1804c-17 17-45 28-69 28-66 0-107-45-107-107 0-24 11-52 28-69l1809-1805c21-21 45-31 72-31 z" fill="#F8312F"/>
	</g></svg>
