<svg version="1.1" xmlns="http://www.w3.org/2000/svg" viewBox="0 0 2300 2300"><g transform="scale(1,-1) translate(-256, -1869)">
		<path d="M1369-287c425 0 756 349 756 766 0 426-232 783-494 1047-39 35-196 199-246 199-20 0-33-9-44-25-31-43-52-92-79-137l-179-308c-27-44-49-90-81-130l-4-2c-32 35-43 199-67 202l-4-3c-15-19-30-39-44-60-154-221-268-480-268-745 0-424 315-804 754-804 z" fill="#FF6723"/>
		<path d="M1370-215c276 0 539 210 539 513 0 347-260 671-541 852-27-17-52-35-77-54-223-175-460-470-460-768 0-300 234-543 539-543 z" fill="#FFB02E"/>
	</g></svg>
