<svg version="1.1" xmlns="http://www.w3.org/2000/svg" viewBox="0 0 2300 2300"><g transform="scale(1,-1) translate(-256, -1869)">
		<path d="M1485-161l103 147-868 609c-15 11-32 17-51 17-51 0-90-39-90-90 0-29 14-56 38-74l868-609 z" fill="#5092FF"/>
		<path d="M1078 596c46 0 91 20 120 60l625 842c9 13 14 27 14 42 0 25-10 44-30 58l-120 86c-12 9-26 13-41 13-25 0-45-10-60-30l-625-842c-19-26-28-55-28-86 0-80 66-143 145-143 z" fill="#636363"/>
		<path d="M1514-288c382 35 682 297 682 710 0 303-175 586-466 688 51 69 96 118 96 208 0 26-13 101-36 118l-237 169c-8 5-47 8-56 8-74 0-149-38-192-97l-203-274 16-92-100-22c-47-61-71-116-71-188 0-159 133-288 293-288 108 0 191 52 249 134l-11 113 95 0 12 16c246-46 393-254 393-491 0-111-33-218-106-308-97-118-226-159-367-177-59-8-99-52-99-113 0-61 48-114 108-114 z" fill="#BEBEBE"/>
		<path d="M2355-287c30 0 57 26 57 57 0 129-105 230-230 230l-1552 0c-129 0-230-105-230-230 0-33 26-57 57-57l1898 0 z" fill="#9B9B9B"/>
		<path d="M1489 784l85 116-472 343-84-116 471-343 z" fill="#D3D3D3"/>
	</g></svg>
