<svg version="1.1" xmlns="http://www.w3.org/2000/svg" viewBox="0 0 2300 2300"><g transform="scale(1,-1) translate(-256, -1869)">
		<path d="M2017-287l37 1c42 2 92 13 92 55 0 13-5 24-14 33l-199 199c-9 9-14 20-14 32 0 13 5 24 14 33l126 126c9 9 19 13 32 13 13 0 24-4 33-13l199-199c9-9 20-14 33-14 14 0 25 5 33 15 23 29 23 84 23 113 0 218-175 396-395 396-45 0-87-7-128-21l-718 724c13 40 19 81 19 124 0 216-173 395-395 395l-37-1c-42-2-92-13-92-55 0-13 5-24 14-33l199-199c9-9 13-20 13-33 0-13-4-23-13-32l-126-126c-9-9-20-14-33-14-12 0-23 5-32 14l-199 199c-9 9-20 14-33 14-14 0-25-5-32-14-24-30-24-85-24-114 0-217 174-396 396-396 41 0 83 6 122 19l722-726c-12-39-18-79-18-120 0-216 173-395 395-395 z" fill="#B4ACBC"/>
	</g></svg>
