<svg version="1.1" xmlns="http://www.w3.org/2000/svg" viewBox="0 0 2300 2300"><g transform="scale(1,-1) translate(-256, -1869)">
		<path d="M2112-284c39 0 76 16 102 42l152 153c26 26 43 62 43 101 0 39-17 76-43 102l-1194 1195-356-356 1195-1195c27-27 64-42 101-42 z" fill="#CDC4D6"/>
		<path d="M1800 55l269 269-32 332-344 44-269-269 76-296 300-80 z M1010 845l269 269-68 276-308 99-269-268 117-276 259-100 z" fill="#B4ACBC"/>
		<path d="M1986-260c13 0 22 5 29 15l297 428c4 6 6 13 6 20 0 18-15 34-34 34-12 0-21-5-28-15l-297-428c-4-6-6-13-6-20 0-19 15-34 33-34 z M1864-138c13 0 22 5 29 15l297 428c4 6 6 12 6 19 0 18-13 35-34 35-12 0-21-5-28-15l-297-428c-4-6-6-13-6-20 0-19 15-34 33-34 z M1327 399c13 0 22 5 29 15l297 428c4 6 6 13 6 20 0 18-15 34-34 34-12 0-21-5-28-15l-297-428c-4-6-6-13-6-20 0-19 15-34 33-34 z M1206 521c12 0 21 5 28 15l297 427c4 6 6 13 6 20 0 19-15 34-33 34-13 0-22-5-29-15l-297-428c-4-6-6-12-6-19 0-18 15-34 34-34 z M1084 643c12 0 21 5 28 15l297 428c4 6 6 12 6 19 0 18-15 34-34 34-12 0-21-5-28-15l-297-427c-4-6-6-13-6-20 0-18 15-34 34-34 z M1532-180c23 0 42 8 57 23l212 212-376 376-212-212c-15-15-23-34-23-57 0-22 8-41 23-56l263-263c15-15 34-23 56-23 z M742 610c23 0 42 8 57 23l212 212-376 376-212-212c-15-15-23-34-23-57 0-22 8-41 23-56l263-263c15-15 34-23 56-23 z" fill="#998EA4"/>
		<path d="M2069 324l212 212c15 15 23 34 23 56 0 23-8 42-23 57l-263 263c-15 15-34 23-57 23-22 0-41-8-56-23l-212-212 376-376 z M1279 1114l212 212c15 15 23 34 23 56 0 22-8 41-23 56l-263 263c-16 16-35 24-57 24-21 0-40-8-56-24l-212-212 376-375 z" fill="#CDC4D6"/>
	</g></svg>
