<svg version="1.1" xmlns="http://www.w3.org/2000/svg" viewBox="0 0 2300 2300"><g transform="scale(1,-1) translate(-256, -1869)">
		<path d="M2196-287c120 0 216 96 216 215 0 59-24 114-63 153l-1078 1078-305-305 1078-1078c42-42 98-63 152-63 z" fill="#7D4533"/>
		<path d="M996 736c10 0 19 4 26 11l356 356c7 7 10 15 10 25 0 11-3 19-10 26l-140 140c-11 11-17 21-17 36 0 11 6 29 13 36l196 196c7 7 10 15 10 25 0 18-13 33-32 36l-230 24c-11 0-21-2-29-10l-508-509c-7-7-11-16-11-25 0-17 12-26 23-38l70-238 227-59c13-13 26-32 46-32 z" fill="#B4ACBC"/>
		<path d="M882 523c5 0 10 2 13 5 44 44 89 79 89 147 0 39-17 76-43 102l-279 280c-26 26-63 42-102 42-69 0-102-43-148-89-3-3-5-8-5-13 0-5 2-9 5-12l458-457c3-3 7-5 12-5 z" fill="#CDC4D6"/>
	</g></svg>
