<svg version="1.1" xmlns="http://www.w3.org/2000/svg" viewBox="0 0 2300 2300"><g transform="scale(1,-1) translate(-256, -1869)">
		<path d="M1051 880l182 70 77 172-489 524c-49 53-117 79-182 79-134 0-239-108-239-240 0-119 81-213 202-238 86-16 152-51 211-113l238-254 z" fill="#7167A4"/>
		<path d="M1151 771l168 86 91 157-100 108-260-242 1 0 100-109 z" fill="#CDC4D6"/>
		<path d="M2015-206c126 0 247 44 349 125l13 61-967 1035-384-358 0-76 592-612c108-112 241-175 397-175 z" fill="#B4ACBC"/>
		<path d="M1990-291c147 0 282 58 381 150 19 17 41 34 41 62 0 24-19 43-35 59-97-81-221-128-356-128-162 0-306 68-409 177l-586 628c-24-21-64-51-64-84 0-15 4-28 15-39l605-648c103-109 246-177 408-177 z" fill="#E6E6E6"/>
		<path d="M1030 1100c35 0 65 28 65 65 0 35-28 65-65 65-35 0-66-28-66-65 0-37 31-65 66-65 z M768 1379c37 0 65 31 65 66 0 37-30 65-65 65-35 0-65-28-65-65 0-35 28-66 65-66 z" fill="#F9C23C"/>
	</g></svg>
