<svg version="1.1" xmlns="http://www.w3.org/2000/svg" viewBox="0 0 2300 2300"><g transform="scale(1,-1) translate(-256, -1869)">
		<path d="M1534-187l0 111 261 0c357 0 653 287 653 649 0 199-80 361-225 494-97 89-156 191-164 322l144 0c19 0 35 17 35 35 0 11-4 20-13 27l-322 255c-7 5-15 8-24 8-22 0-40-17-40-40l0-284c0-212 93-356 241-489 97-88 150-196 150-329 0-233-197-427-434-427-144 0-261 117-261 262l0 982c17 0 34-2 51-2 31 0 72 6 72 45 0 10-3 19-9 27l-189 245c-11 14-25 21-42 21-18 0-32-7-43-21l-189-245c-6-8-9-17-9-26 0-23 18-44 43-44l96 0 0-983c0-143-116-262-262-262-233 0-433 188-433 427 0 132 53 240 149 328 149 136 240 283 240 490l1 285c0 22-18 40-41 40-9 0-17-3-24-8l-322-255c-9-7-13-15-13-26 0-21 16-36 35-36l144 0c-9-131-68-234-164-322-146-134-226-296-226-494 0-359 297-649 653-649l261 0 0-111 220 0 z" fill="#FFB02E"/>
		<path d="M1657-287c57 0 108 46 108 108 0 58-47 107-108 107l-502 0c-60 0-108-49-108-107 0-63 50-108 108-108l502 0 z" fill="#FF9F2E"/>
	</g></svg>
