<svg version="1.1" xmlns="http://www.w3.org/2000/svg" viewBox="0 0 2300 2300"><g transform="scale(1,-1) translate(-256, -1869)">
		<path d="M1725 862l-571 0c-80 0-145 69-145 149l0 166c0 85 69 151 139 194 120 72 182 96 262 194 8 9 14 16 27 16 7 0 13-1 16-4 15-12 35-41 55-60 120-115 364-169 364-356l0-75c0-25-1-50-2-75-3-78-58-149-145-149 z M2233 1153c136 0 251 107 251 245 0 64-45 132-81 179-26 34-130 148-170 148-18 0-39-17-53-28-79-60-199-196-199-299 0-140 117-245 252-245 z M651 1153c136 0 252 109 252 245 0 64-45 132-81 179-26 34-130 148-170 148-18 0-39-17-53-28-79-60-199-196-199-299 0-135 112-245 251-245 z" fill="#FFB02E"/>
		<path d="M2449-218l0 1436c0 19-7 36-21 50-14 13-31 20-50 20l-289 0c-20 0-37-7-50-20-14-13-21-30-21-50l0-503c0-16-3-29-9-38-6-9-14-16-24-21-10-5-21-9-33-10-13-1-25-2-38-2-7 0-14 0-20 1l-21 0c-22 0-38 6-48 17-10 11-17 25-20 42-2 13-4 27-4 42l0 10c1 18 1 34 1 49l-719 0c0-9 0-18 1-27l0-28c0-29-3-50-8-65-6-15-15-25-26-31-12-6-27-9-45-9-18-1-40-1-65-1-19 0-36 7-50 21-14 14-21 31-21 50l0 516c0 15-5 28-15 39-11 10-24 15-39 15l-325 0c-15 0-27-5-38-16-11-11-16-23-16-38l0-1449 72 0 179 74 180-74 359 0 216 110 216-110 359 3 180 71 179-74 73 0 z" fill="#9B9B9B"/>
		<path d="M1842 789c17 0 30 13 30 31 0 23-4 41-30 41l-801 0c-18 0-31-14-31-31 0-24 6-41 31-41l801 0 z M2445 1221c20 0 35 15 35 35 0 21-16 36-35 36l-423 0c-18 0-35-16-35-35 0-21 16-36 35-36l423 0 z M863 1221c22 0 35 15 35 36 0 18-16 35-35 35l-424 0c-18 0-35-17-35-36 0-19 17-35 35-35l424 0 z" fill="#6D4534"/>
		<path d="M2374-217c1 72 2 144 2 216 0 90-67 287-182 287-111 0-177-198-177-286l-1-217 358 0 z M866-217l-287 0 0 1-71 0 0 216c0 86 66 286 178 286 110 0 182-190 182-287 0-72-1-144-2-216 z M1655-217l0 431c0 79-130 287-217 287-85 0-212-210-212-285l0-433 429 0 z M2304 717l0 167c0 26-40 120-72 120-31 0-72-92-72-119l-1-168 145 0 z M722 717l1 167c0 26-40 120-72 120-31 0-72-92-72-119l-1-168 144 0 z" fill="#212121"/>
	</g></svg>
