<svg version="1.1" xmlns="http://www.w3.org/2000/svg" viewBox="0 0 2300 2300"><g transform="scale(1,-1) translate(-256, -1869)">
		<path d="M2125-287c156 0 287 125 287 287l0 1438c0 156-125 287-287 287l-1438 0c-156 0-287-125-287-287l0-1438c0-161 130-287 287-287l1438 0 z" fill="#8D65C5"/>
		<path d="M1604-72l-396 0c-11 0-17 7-17 18 0 89 77 169 161 191l0 282c-416 29-724 374-724 776 0 32 24 54 54 54 32 0 53-25 53-54 0-349 268-641 617-668l0 78c-294 26-539 273-539 590 0 32 24 54 54 54 30 0 54-22 54-54 0-239 176-454 431-482l0 72c-207 27-359 205-359 410 0 30 22 54 54 54 32 0 53-25 53-54 0-149 107-274 252-301l0 74c-103 24-180 118-180 227 0 30 22 54 54 54 86 0 20-120 126-167l0 113c0 30 22 54 54 54 30 0 54-22 54-54l0-113c107 47 41 167 126 167 29 0 54-24 54-54 0-111-78-203-180-227l0-74c143 26 251 152 251 301 0 29 24 54 54 54 30 0 54-22 54-54 0-202-150-383-359-410l0-72c238 26 431 227 431 482 0 30 22 54 54 54 30 0 54-22 54-54 0-307-235-563-539-590l0-78c347 28 616 317 616 668 0 30 25 54 54 54 30 0 54-22 54-54 0-407-313-748-724-776l0-282c83-21 161-103 161-191 0-11-6-18-17-18 z M1223 1355c-34 0-64 27-64 64 0 10 2 19 7 28l42 81c3 5 8 8 13 8 10 0 22-19 32-37 25-45 33-65 33-81 0-36-29-63-63-63 z M1762 1355c34 0 64 28 64 63 0 11-3 22-8 31-8 16-42 87-57 87-5 0-10-4-15-11-27-39-47-84-47-107 0-36 29-63 63-63 z M1405 1355c36 0 63 29 63 63 0 10-3 20-8 31-8 16-39 87-57 87-5 0-10-3-13-8l-42-81c-5-9-7-18-7-28 0-37 30-64 64-64 z M1944 1355c-36 0-63 29-63 63 0 11 2 20 7 29l41 81c3 5 8 8 14 8 4 0 9-4 15-11 29-40 50-86 50-107 0-35-30-63-64-63 z M2124 1355c-34 0-63 27-63 63 0 11 2 20 7 29l41 81c3 5 8 8 13 8 10 0 22-19 32-37 25-45 33-65 33-81 0-36-29-63-63-63 z M1584 1355c-36 0-63 29-63 63 0 11 2 20 7 29 8 16 36 89 55 89 4 0 9-4 15-11 29-40 50-86 50-107 0-35-30-63-64-63 z M1047 1355c36 0 63 29 63 63 0 10-3 20-8 31-8 16-40 87-56 87-9 0-22-18-31-38-22-42-31-60-31-80 0-34 27-63 63-63 z M867 1355c-36 0-63 29-63 63 0 11 2 20 7 29 8 16 36 89 55 89 4 0 9-4 15-11 29-40 50-86 50-107 0-35-30-63-64-63 z M686 1355c36 0 63 29 63 63 0 11-3 22-8 31-8 16-42 87-57 87-5 0-10-4-15-11-27-39-47-84-47-107 0-35 30-63 64-63 z" fill="#FFFFFF"/>
	</g></svg>
