<svg version="1.1" xmlns="http://www.w3.org/2000/svg" viewBox="0 0 2300 2300"><g transform="scale(1,-1) translate(-256, -1869)">
		<path d="M1406-215c517 0 934 419 934 934 0 517-419 934-934 934-517 0-934-419-934-934 0-517 419-934 934-934 z" fill="#E6E6E6"/>
		<path d="M1408 646c39 0 72 31 72 72l0 575c0 39-31 72-72 72-39 0-72-31-72-72l0-575c0-39 31-72 72-72 z" fill="#CA0B4A"/>
		<path d="M1406 646c12 0 24 3 36 10l371 214c23 14 36 37 36 63 0 39-30 72-72 72-12 0-24-3-36-10l-371-215c-23-13-36-35-36-62 0-39 34-72 72-72 z" fill="#000000"/>
		<path d="M1406-287c547 0 1006 440 1006 1006 0 547-440 1006-1006 1006-547 0-1006-440-1006-1006 0-547 440-1006 1006-1006 z M1406-72c-436 0-791 351-791 791 0 436 351 791 791 791 436 0 791-351 791-791 0-436-351-791-791-791 z" fill="#636363"/>
		<path d="M1408 575c80 0 143 62 143 143 0 80-62 143-143 143-80 0-143-62-143-143 0-80 62-143 143-143 z" fill="#9B9B9B"/>
	</g></svg>
