<svg version="1.1" xmlns="http://www.w3.org/2000/svg" viewBox="0 0 2300 2300"><g transform="scale(1,-1) translate(-256, -1869)">
		<path d="M1406-179c496 0 898 402 898 898 0 496-402 898-898 898-496 0-898-402-898-898 0-496 402-898 898-898 z" fill="#E6E6E6"/>
		<path d="M1408 72c38 0 72 31 72 71l0 575c0 39-31 72-72 72-39 0-72-31-72-72l0-575c0-40 34-71 72-71 z" fill="#CA0B4A"/>
		<path d="M1191 275c26 0 50 13 63 36l214 371c7 12 10 24 10 36 0 39-31 72-72 72-26 0-49-14-62-36l-215-371c-7-12-10-24-10-36 0-41 34-72 72-72 z" fill="#000000"/>
		<path d="M1406-287c547 0 1006 440 1006 1006 0 547-440 1006-1006 1006-547 0-1006-440-1006-1006 0-547 440-1006 1006-1006 z M1406-72c-436 0-791 351-791 791 0 436 351 791 791 791 436 0 791-351 791-791 0-436-351-791-791-791 z" fill="#636363"/>
		<path d="M1408 575c80 0 143 62 143 143 0 80-62 143-143 143-80 0-143-62-143-143 0-80 62-143 143-143 z" fill="#9B9B9B"/>
	</g></svg>
