<svg version="1.1" xmlns="http://www.w3.org/2000/svg" viewBox="0 0 2300 2300"><g transform="scale(1,-1) translate(-256, -1869)">
		<path d="M1406-287c32 0 63 7 94 20l638 282c80 35 130 111 130 197l0 291-862 372-863-372 0-291c0-86 54-163 131-197l638-282c31-13 62-20 94-20 z" fill="#533566"/>
		<path d="M1412 105c16 0 32 4 48 11l704 331c26 10 98 49 98 82 0 17-21 31-34 38l-757 353c-21 9-42 14-65 14-23 0-44-5-65-14l-757-353c-15-7-35-23-35-39 0-33 67-68 92-79l694-324c24-11 50-20 77-20 z M1406 359c-70 0-158 12-231 35-42 12-88 27-112 58-14 18-16 39-16 60 0 3 1 6 2 9 41 167 195 270 357 270 165 0 316-104 357-270 1-7 2-12 2-19 0-39-25-68-57-82-84-41-198-61-302-61 z" fill="#635994"/>
		<path d="M1406 72c23 0 44 5 65 14l757 354c25 12 40 36 40 64 0 12-3 24-9 35-8-12-18-21-31-27l-757-354c-21-9-42-14-65-14-23 0-44 5-65 14l-757 354c-13 6-23 15-31 27-6-11-9-23-9-35 0-28 15-52 40-64l757-354c21-9 42-14 65-14 z" fill="#6B438B"/>
		<path d="M1406 719c35 0 72 11 72 54l0 593c0 39-31 72-72 72-39 0-72-31-72-72l0-593c0-42 34-54 72-54 z" fill="#D3D3D3"/>
		<path d="M821 472c26 0 103 8 103 43 0 50-60 87-103 87-45 0-102-40-102-88 0-34 77-42 102-42 z M1406 1052c187 0 336 151 336 337 0 181-145 336-336 336-181 0-336-145-336-336 0-181 143-337 336-337 z" fill="#F8312F"/>
	</g></svg>
