<svg version="1.1" xmlns="http://www.w3.org/2000/svg" viewBox="0 0 2300 2300"><g transform="scale(1,-1) translate(-256, -1869)">
		<path d="M1406-144c29 0 56 1 80 3 24 1 47 3 70 6 23 2 46 5 70 8 23 3 50 5 79 7l599 48c8 1 16 1 25 1 8-1 16-1 24-1 19 0 33 6 42 18 9 11 14 25 17 42 1 12 2 24 2 37l-2 59c0 17-5 31-16 43-11 11-26 17-43 17-21 0-41 4-60 13-19 8-36 19-50 33-14 14-25 31-33 50-9 19-13 39-13 60l0 635c0 73-9 143-28 210-19 67-46 130-80 189-35 59-76 112-124 160-48 48-101 89-160 124-59 34-122 60-189 79-68 19-138 28-211 28-73 0-142-9-209-28-67-19-130-46-189-80-59-35-112-76-160-124-48-48-89-101-123-160-35-59-61-121-80-188-19-67-28-137-28-210l-1 0 0-635c0-21-4-41-12-60-9-19-20-36-34-50-14-14-30-25-49-33-19-9-40-13-61-13-17 0-31-6-42-17-11-12-17-26-17-43l0-96c0-17 4-30 11-38 7-8 16-13 27-16 11-3 22-5 35-5 12 0 24 0 35-1l599-48c29-2 55-4 79-7 24-3 47-6 70-8 23-3 46-5 70-6 24-2 51-3 80-3 z" fill="#6D4534"/>
		<path d="M1407 288c355 0 647 288 647 647 0 357-288 646-647 646-345 0-647-274-647-646 0-360 290-647 647-647 z" fill="#FFFFFF"/>
		<path d="M1730 899c19 0 36 15 36 36 0 19-15 35-36 35l-287 0 0 216c0 19-15 36-36 36-19 0-36-15-36-36l-1-251c0-19 15-36 36-36l324 0 z" fill="#212121"/>
		<path d="M1407 845c50 0 90 40 90 90 0 50-41 89-90 89-49 0-90-39-90-89 0-51 39-90 90-90 z M1075 1228c21 0 36 18 36 36 0 11-3 19-10 26l-51 51c-7 7-15 10-26 10-18 0-36-15-36-36 0-9 4-18 11-25l51-51c7-7 16-11 25-11 z M1788 515c19 0 36 15 36 36 0 11-3 19-10 26-16 16-48 61-76 61-21 0-36-18-36-36 0-10 3-18 10-25l51-51c7-7 16-11 25-11 z M1024 515c10 0 19 4 26 11l51 51c7 7 10 15 10 25 0 19-15 36-36 36-10 0-18-3-25-10l-51-51c-7-7-11-16-11-26 0-18 17-36 36-36 z M1738 1228c20 0 43 24 61 46 16 18 25 24 25 41 0 22-17 36-36 36-10 0-18-3-25-10l-51-51c-7-7-10-15-10-25 0-18 15-37 36-37 z M938 897c19 0 36 15 36 36 0 19-15 36-36 36l-72 0c-19 0-36-15-36-36 0-19 15-36 36-36l72 0 z M1946 897c19 0 36 15 36 36 0 19-15 36-36 36l-71 0c-19 0-36-15-36-36 0-19 15-36 36-36l71 0 z M1407 357c19 0 36 15 36 36l0 72c0 19-15 36-36 36-19 0-36-15-36-36l0-72c0-19 15-36 36-36 z M2305-287c57 0 108 45 108 107 0 57-46 108-108 108l-1797 0c-58 0-108-49-108-108 0-59 49-107 108-107l1797 0 z M1407 1366c19 0 36 15 36 36l0 72c0 18-17 36-36 36-18 0-36-17-36-36l0-72c0-19 15-36 36-36 z" fill="#F9C23C"/>
	</g></svg>
