<svg version="1.1" xmlns="http://www.w3.org/2000/svg" viewBox="0 0 2300 2300"><g transform="scale(1,-1) translate(-256, -1869)">
		<path d="M1585-287c21 0 36 16 36 35 0 19-15 36-36 36l-359 0c-22 0-36-15-36-36 0-19 15-35 36-35l359 0 z" fill="#CDC4D6"/>
		<path d="M1463-144c33 0 57 28 57 58l0 230-230 0 0-230c0-33 27-58 58-58 33 0 57 28 57 58 0-33 27-58 58-58 z" fill="#321B41"/>
		<path d="M1565 678l57 149 35 0 1 233c0 91-24 161-93 218l0 45c-48 32-104 48-163 48-57 0-111-20-156-50l0-45c-55-46-92-117-92-196l0-253 36 0 56-149 319 0 z" fill="#6B438B"/>
		<path d="M1406 993c21 11 41 26 59 43 17 17 32 37 45 58 12 21 22 43 29 67 6 21 9 42 9 63 0 9 0 9-6 15-2 1-5 2-8 2-4-1-7-1-10-1-6 3-3 0-6 6l0 77c0 9-2 17-7 23-5 5-12 9-20 12-26 9-54 13-85 13-14 0-28-1-43-3-15-2-30-5-43-10-8-3-14-8-19-14-5-6-8-13-8-22l0-76c-3-6 0-3-6-6-3 0-6 0-9 1-4 0-7-1-9-2l-5-6-1-5c0-24 4-48 11-71 7-23 16-45 29-65 13-21 28-39 45-56 17-17 37-32 58-43 z" fill="#321B41"/>
		<path d="M1343 834c11 0 17 9 17 18 0 9-8 17-17 17-9 0-18-6-18-17 0-11 7-18 18-18 z M1343 924c9 0 17 8 17 17 0 9-8 17-17 17-9 0-18-6-18-17 0-11 7-17 18-17 z" fill="#321B41"/>
		<path d="M1565 678l87 72 0 112-87 0 0-184 z M1246 678l0 185-87 0 0-113 87-72 z M1463-68c16 0 30 14 30 30l0 110-60 0 0-110c0-17 12-30 30-30 z M1348-68c16 0 30 14 30 30l0 110-60 0 0-110c0-17 12-30 30-30 z M1406 992c48 64 72 140 72 217l0 137-144-2 0-136c0-79 26-155 72-216 z" fill="#E6E6E6"/>
		<path d="M1565 625c25 11 46 25 62 40 22 21 24 43 24 85l-86 0 0-125 z M1246 625l0 125-87 0 0-17c0-61 36-84 86-108l1 0 z" fill="#FFD7C2"/>
		<path d="M1406 992c15 19 26 39 37 60l-21 236-33 0-20-236c11-21 22-41 37-60 z" fill="#6B438B"/>
		<path d="M1429 1207l-7 81-33 0-7-81 47 0 z" fill="#321B41"/>
		<path d="M1433 1222l4 1c25 22 41 54 41 89l0 68-144 0 0-68c0-30 14-71 40-89l3-1c8 0 23 40 28 47 3-8 24-47 28-47 z" fill="#F4F4F4"/>
		<path d="M1246 791l0 530c-78-52-128-139-128-238l0-273c0-12 9-19 20-19l108 0 z M1566 72l0 678-320 0 0-678 320 0 z M1673 791c11 0 20 8 20 20l0 273c0 99-50 186-128 238l0-531 108 0 z" fill="#533566"/>
		<path d="M1405 1271c30 0 54 22 54 54l0 66c0 30-22 54-54 54-30 0-54-22-54-54l0-66c0-30 22-54 54-54 z" fill="#F4C6AD"/>
		<path d="M1471 1351c36 13 87 20 87 71l0 168-306 0 0-168c0-51 49-58 88-71l0 82 131 0 0-82 z" fill="#212121"/>
		<path d="M1533 1438c23 0 44 18 44 43 0 24-19 44-44 44-24 0-44-19-44-44 0-25 21-43 44-43 z M1277 1438c23 0 44 18 44 43 0 25-18 44-44 44-24 0-44-19-44-44 0-25 21-43 44-43 z" fill="#F4C6AD"/>
		<path d="M1433 1315c49 0 100 38 103 89 4 55 10 109 10 164 0 60-50 110-109 110l-59 0c-61 0-109-48-109-110 0-55 7-109 11-164 3-51 56-89 103-89l50 0 z" fill="#FFD7C2"/>
		<path d="M1497 1524c3 0 6 3 8 8 0 3-1 6-7 8-3 3-9 6-17 8-9 2-15 3-20 3-3 0-6 0-10-1-4-1-6-3-6-7 0-5 2-8 7-8l12 0c3 0 5 0 8-1l9-3 11-5 0-1 5-1 z M1315 1524l4 1 0 1c9 5 15 7 20 8 4 1 11 1 21 1 2 0 4 1 5 3 1 2 1 4 1 6 0 3-2 5-6 6-4 1-7 1-10 1-9 0-16-1-21-4-5-3-12-6-19-8l1-1-1-1-1 1c-2-2-3-4-3-6l3-6c1-1 3-2 6-2 z" fill="#212121"/>
		<path d="M1417 1426c8 0 15 6 15 14 0 5-10 56-25 56-4 0-9-2-10-7-4-15-14-35-14-50 0-7 7-13 14-13l20 0 z" fill="#F1B99B"/>
		<path d="M1405 1380c11 0 45 12 45 26 0 3-1 4-4 4-8 0-26-9-41-9-15 0-31 10-41 10-3 0-4-2-4-5 0-13 30-26 45-26 z" fill="#990839"/>
		<path d="M1466 1430c63 0 67 22 67 77 3 4 4 7 4 10l-1 10c-1 3-3 4-8 4l-88 0c-18 0-22-16-33-16-14 0-14 16-32 16l-89 0c-6 0-9-3-9-9 0-10 1-7 6-15 0-34 2-77 49-77 24 0 49 4 61 24 5 9 6 13 6 40 0 7 3 10 9 10 16 0-4-74 58-74 z M1482 1440l-14 0c-22 0-42 18-42 41l0 19c0 12 10 22 22 22l54 0c12 0 22-10 22-22l0-19c0-23-20-41-42-41 z M1348 1440l-15 0c-22 0-41 18-41 41l0 19c0 12 10 22 22 22l53 0c12 0 22-10 22-22l0-19c0-22-18-41-41-41 z M1575 1552c11 0 19 8 19 19 0 12-8 18-19 19l-16 1-14-1-10 22 9 23c-5 39-4 90-58 90-28 0-50-24-79-24-30 0-55 24-82 24-53 0-55-51-58-90l10-23-12-22-14 1-15-1c-10-1-18-7-18-19 0-11 7-19 18-19l339 0 z" fill="#533566"/>
		<path d="M1549 1590l-5 45-277 0-6-45 288 0 z" fill="#6B438B"/>
		<path d="M1482 1440c22 0 42 18 42 41l0 19c0 12-10 22-22 22l-54 0c-12 0-22-10-22-22l0-19c0-23 20-41 42-41l14 0 z M1348 1440c22 0 41 18 41 41l0 19c0 12-10 22-22 22l-53 0c-12 0-22-10-22-22l0-19c0-22 18-41 41-41l15 0 z" fill="#321B41"/>
	</g></svg>
