<svg version="1.1" xmlns="http://www.w3.org/2000/svg" viewBox="0 0 2300 2300"><g transform="scale(1,-1) translate(-256, -1869)">
		<path d="M1691 401c146 0 254 128 254 273 0 43-9 80-25 119-3 7-5 13-5 19 0 7 2 13 5 20 16 39 25 77 25 120 0 124-85 179-85 305-44 38-92 78-132 125-38 43-56 154-128 154-43 0-37 51-92 51-53 0-103-32-156-32-53 0-105 32-155 32-13 0-24-3-32-8-19-12-32-43-60-43-89 0-85-142-125-198-24-35-97-68-136-81 0-126-85-181-85-305 0-43 10-81 26-120 3-7 4-13 4-20 0-7-1-12-4-19-16-40-26-76-26-119 0-137 101-273 254-273l678 0 z" fill="#FFB02F"/>
		<path d="M1909-287l137 264-137 311c-164 150-371 215-573 215-214 0-418-69-577-215l-109-311 109-264 1150 0 z" fill="#433B6B"/>
		<path d="M2197-287c-38 232-113 416-288 575l0-575 288 0 z M759-287l0 575c-171-157-252-348-287-575l287 0 z" fill="#635994"/>
		<path d="M1454-287l168 756c-95 23-191 34-288 34-96 0-192-12-287-35l170-755 237 0 z" fill="#F4F4F4"/>
		<path d="M1442-287l-69 412 87 178-252 0 87-178-69-412 216 0 z" fill="#F92F60"/>
		<path d="M1518 162c17 0 32 11 36 27l68 314-575 0 67-314c4-18 20-27 36-27 9 0 17 2 22 7l162 122 162-122c5-5 13-7 22-7 z" fill="#E6E6E6"/>
		<path d="M1334 306c58 26 144 89 144 161l0 126-288 0 0-126c0-73 86-135 144-161 z" fill="#F9C136"/>
		<path d="M1539-287l-97 0 194 934 345 0c19 0 36-15 36-36 0-11-4-19-12-26l-159-138c-7-5-10-12-10-20 0-40 76-33 76-84 0-8-2-15-6-21l-367-609 z M1226-287l-193 934-346 0c-19 0-36-15-36-36 0-11 4-19 12-26l159-138c7-5 10-12 10-20 0-40-76-33-76-84 0-8 2-15 6-21l367-609 97 0 z" fill="#8D65C5"/>
		<path d="M2304 72l0 150c0 40-34 66-71 66-37 0-72-26-72-66l0-150 143 0 z" fill="#FECA46"/>
		<path d="M2107 431c119 0 215 97 215 216 0 121-97 216-215 216-121 0-216-99-216-216 0-121 99-216 216-216 z" fill="#00D1ED"/>
		<path d="M2107 16c50 0 90 42 90 93l0 230c0 24-10 47-26 65 109 29 187 130 187 243 0 140-115 252-251 252-139 0-252-113-252-252 0-117 81-214 188-243-16-18-26-41-26-65l0-230c0-51 39-93 90-93 z M2107 449c-109 0-198 88-198 198 0 109 88 198 198 198 109 0 198-88 198-198 0-109-88-198-198-198 z" fill="#321B41"/>
		<path d="M2170 629c34 0 63 27 63 63 0 36-29 63-63 63-34 0-63-27-63-63 0-36 29-63 63-63 z" fill="#F4F4F4"/>
		<path d="M2235-287c40 0 69 33 69 71l0 289c0 38-29 71-69 71l-264 0 0-2c-37 0-62-30-62-64 0-19 13-38 27-48-18-11-27-32-27-51 0-21 9-38 27-51-18-13-27-30-27-52 0-19 9-40 27-51-14-10-27-29-27-48 0-35 23-64 62-64l264 0 z" fill="#FDD641"/>
		<path d="M1711 820c69 0 126 56 126 126 0 68-55 125-126 125-71 0-125-60-125-125 0-69 54-126 125-126 z M957 820c69 0 126 56 126 126 0 70-58 125-126 125-69 0-126-54-126-125 0-69 56-126 126-126 z" fill="#FECA46"/>
		<path d="M1334 467c218 0 377 160 385 371 3 82 10 156 10 238 0 52-24 114-88 114l-250 0c-103 0-179 45-247 131-5 6-10 9-17 9-17 0-20-16-25-28-51-122-163-79-163-213 0-84 7-167 10-251 8-214 172-371 385-371 z" fill="#FDD641"/>
		<path d="M1623 942c-57 19-112 32-169 51 23 36 61 69 110 69 30 0 111-15 111-58 0-27-32-45-52-62 z M1063 942c56 19 113 35 170 51-24 36-63 69-111 69-30 0-111-15-111-58 0-24 36-46 52-62 z" fill="#000000"/>
		<path d="M1641 937l-188 0c-15 0-20 10-20 23 0 4 5 19 8 24 18 42 60 70 108 70 50 0 104-35 115-89 0-15-6-28-23-28 z M1233 937c15 0 20 10 20 23 0 4-5 19-8 24-19 44-64 70-109 70-48 0-115-45-115-95 0-12 12-22 24-22l188 0 z" fill="#FFFFFF"/>
		<path d="M1605 937l-146 0c-1 7-3 13-3 20 0 42 35 75 76 75 41 0 76-33 76-75 0-7-1-14-3-20 z M1226 937c2 6 3 13 3 20 0 40-32 75-75 75-41 0-76-33-76-75 0-7 1-14 3-20l145 0 z" fill="#7D4533"/>
		<path d="M1570 937l-76 0c-3 5-5 11-5 20 0 23 20 43 43 43 23 0 43-20 43-43 0-7-2-13-5-20 z M1192 937c3 7 5 13 5 20 0 23-20 43-43 43-22 0-44-20-44-43 0-7 2-14 6-20l76 0 z" fill="#000000"/>
		<path d="M1506 972c9 0 14 5 14 14 0 7-7 14-14 14-7 0-14-7-14-14 0-7 7-14 14-14 z M1128 972c8 0 13 7 13 14 0 7-6 14-13 14-7 0-14-7-14-14 0-9 5-14 14-14 z" fill="#FFFFFF"/>
		<path d="M1364 771c25 0 42 21 42 43 0 20-19 77-32 117-13 40-15 55-40 55-15 0-25-10-29-23-8-28-43-121-43-149 0-22 17-43 42-43l60 0 z" fill="#FFB02C"/>
		<path d="M1334 629c54 0 109 23 141 71 1 3 2 5 2 7 0 8-4 12-13 12-2 0-4-1-7-2-40-17-78-27-122-27-43 0-85 9-125 27l-6 2c-7 0-14-6-14-13l2-6c21-45 99-71 142-71 z" fill="#990839"/>
		<path d="M1639 1024c143 0 303 62 396 165 11 12 18 25 18 42 0 36-29 63-63 63l-153 0-107 61 58 79c-21 55-39 110-58 166-26 74-103 125-183 125-83 0-132-65-214-65-83 0-131 65-213 65-80 0-156-51-183-125-19-56-41-110-57-166l57-70-106-70-152 0c-34 0-64-25-64-62 0-19 7-30 19-43 97-105 247-165 396-165l609 0 z" fill="#433B6B"/>
		<path d="M1837 1294l-50 144-906 0-50-144 1006 0 z" fill="#321B41"/>
	</g></svg>
