<svg version="1.1" xmlns="http://www.w3.org/2000/svg" viewBox="0 0 2300 2300"><g transform="scale(1,-1) translate(-256, -1869)">
		<path d="M1909-287l137 264-137 311c-164 150-371 215-573 215-214 0-418-69-577-215l-109-311 109-264 1150 0 z" fill="#433B6B"/>
		<path d="M2197-287c-38 232-113 416-288 575l0-575 288 0 z M759-287l0 575c-171-157-252-348-287-575l287 0 z" fill="#635994"/>
		<path d="M1454-287l168 756c-95 23-191 34-288 34-96 0-192-12-287-35l170-755 237 0 z" fill="#F4F4F4"/>
		<path d="M1442-287l-69 412 87 178-252 0 87-178-69-412 216 0 z" fill="#F92F60"/>
		<path d="M1518 162c17 0 32 11 36 27l68 314-575 0 67-314c4-18 20-27 36-27 9 0 17 2 22 7l162 122 162-122c5-5 13-7 22-7 z" fill="#E6E6E6"/>
		<path d="M1334 306c58 26 144 89 144 161l0 126-288 0 0-126c0-73 86-135 144-161 z" fill="#E4B29A"/>
		<path d="M1539-287l-97 0 194 934 345 0c19 0 36-15 36-36 0-11-4-19-12-26l-159-138c-7-5-10-12-10-20 0-40 76-33 76-84 0-8-2-15-6-21l-367-609 z M1226-287l-193 934-346 0c-19 0-36-15-36-36 0-11 4-19 12-26l159-138c7-5 10-12 10-20 0-40-76-33-76-84 0-8 2-15 6-21l367-609 97 0 z" fill="#8D65C5"/>
		<path d="M1537 539l149 52c35 13 64 34 85 65 21 30 32 64 32 101l0 335c0 13 2 25 6 35 3 9 7 18 11 26l12 24c3 7 5 16 5 25 0 18-5 36-14 54-9 18-19 35-30 52-11 17-22 33-31 48-9 15-14 28-14 40 0 5 1 11 2 17 1 6 2 12 2 17 0 7-2 12-6 15-4 3-9 5-14 8-25 10-45 21-62 34-17 12-32 29-47 52-7 10-14 17-21 22-7 4-17 6-29 6-19 0-37-3-55-8-18-5-37-8-56-8-6 0-12 4-18 11-7 7-13 14-18 23l-17 23c-6 7-12 10-17 10-5 0-13-2-23-6-10-4-20-6-30-6-9 0-19 2-29 6-10 4-18 6-23 6-5 0-11-3-16-10-6-7-12-15-17-23-6-9-12-16-18-23-6-7-12-11-18-11-19 0-38 3-56 9-19 6-38 9-57 9-11 0-20-2-27-6-7-4-14-11-20-20-15-23-31-42-48-55-17-13-39-25-64-35-11-4-20-13-28-26-8-13-15-28-21-44l-16-49c-5-17-11-30-16-40-5-11-12-23-21-38-9-15-13-28-13-39 0-9 2-18 7-26l15-27c5-9 10-20 15-31 5-11 7-25 7-40l0-335c0-37 11-70 32-101 21-31 49-53 84-65l150-52 0 596c15 14 28 32 37 53 9 21 14 41 17 61 3-1 7-1 11-1l11 0c23 0 44 4 65 11 21 7 40 19 57 34 19-17 42-29 68-37 18-6 36-8 54-8 7 0 15 0 22 1 3-23 9-44 18-61 9-18 21-36 36-53l0-597 z" fill="#FFF9BA"/>
		<path d="M1711 820c69 0 126 56 126 126 0 68-55 125-126 125-71 0-125-60-125-125 0-69 54-126 125-126 z M957 820c69 0 126 56 126 126 0 70-58 125-126 125-69 0-126-54-126-125 0-69 56-126 126-126 z" fill="#E4B29A"/>
		<path d="M1409 431c147 0 292 113 307 266 11 149 19 299 28 448 1 15 3 29 3 45 0 179-149 320-325 320l-176 0c-185 0-325-144-325-324 0-15 1-26 2-41 11-149 18-299 29-448 1-13 4-27 9-42 44-149 174-224 299-224l149 0 z" fill="#EEBFAA"/>
		<path d="M1616 940l-176 0c-13 0-18 10-18 21 0 4 6 18 7 23 18 38 56 66 101 66 44 0 107-40 107-88 0-12-11-22-21-22 z M1243 940c9 0 19 6 19 17 0 51-59 93-108 93-46 0-108-41-108-89 0-10 10-21 22-21l175 0 z" fill="#FFFFFF"/>
		<path d="M1582 940l-136 0c-1 7-3 12-3 19 0 40 35 70 71 70 38 0 71-30 71-70 0-7-1-13-3-19 z M1238 940c2 6 3 12 3 19 0 40-33 70-71 70-38 0-70-30-70-70 0-7 0-12 3-19l135 0 z" fill="#7D4533"/>
		<path d="M1550 940l-71 0c-3 7-5 13-5 19 0 23 18 40 40 40 23 0 41-18 41-40 0-6-2-12-5-19 z M1205 940c3 7 5 13 5 19 0 23-18 40-40 40-22 0-40-17-40-40 0-7 1-14 4-19l71 0 z" fill="#000000"/>
		<path d="M1492 974c8 0 12 4 12 13 0 7-5 12-12 12-6 0-12-5-12-12 0-9 4-13 12-13 z M1146 974c7 0 12 6 12 13 0 7-5 12-12 12-6 0-12-5-12-12 0-9 4-13 12-13 z" fill="#FFFFFF"/>
		<path d="M1364 771c25 0 42 21 42 43 0 20-19 77-32 117-13 40-15 55-40 55-15 0-25-10-29-23-8-28-43-121-43-149 0-22 17-43 42-43l60 0 z" fill="#D19479"/>
		<path d="M1334 629c54 0 109 23 141 71 1 3 2 5 2 7 0 8-4 12-13 12-2 0-4-1-7-2-40-17-78-27-122-27-43 0-85 9-125 27l-6 2c-7 0-14-6-14-13l2-6c21-45 99-71 142-71 z" fill="#990839"/>
		<path d="M2304 72l0 150c0 40-34 66-71 66-37 0-72-26-72-66l0-150 143 0 z" fill="#E4B29A"/>
		<path d="M2107 431c119 0 215 97 215 216 0 121-97 216-215 216-121 0-216-99-216-216 0-121 99-216 216-216 z" fill="#00D1ED"/>
		<path d="M2107 16c50 0 90 42 90 93l0 230c0 24-10 47-26 65 109 29 187 130 187 243 0 140-115 252-251 252-139 0-252-113-252-252 0-117 81-214 188-243-16-18-26-41-26-65l0-230c0-51 39-93 90-93 z M2107 449c-109 0-198 88-198 198 0 109 88 198 198 198 109 0 198-88 198-198 0-109-88-198-198-198 z" fill="#321B41"/>
		<path d="M2170 629c34 0 63 27 63 63 0 36-29 63-63 63-34 0-63-27-63-63 0-36 29-63 63-63 z" fill="#F4F4F4"/>
		<path d="M2235-287c40 0 69 33 69 71l0 289c0 38-29 71-69 71l-264 0 0-2c-37 0-62-30-62-64 0-19 13-38 27-48-18-11-27-32-27-51 0-21 9-38 27-51-18-13-27-30-27-52 0-19 9-40 27-51-14-10-27-29-27-48 0-35 23-64 62-64l264 0 z" fill="#EEBFAA"/>
		<path d="M1639 1024c143 0 303 62 396 165 11 12 18 25 18 42 0 36-29 63-63 63l-153 0-107 61 58 79c-21 55-39 110-58 166-26 74-103 125-183 125-83 0-132-65-214-65-83 0-131 65-213 65-80 0-156-51-183-125-19-56-41-110-57-166l57-70-106-70-152 0c-34 0-64-25-64-62 0-19 7-30 19-43 97-105 247-165 396-165l609 0 z" fill="#433B6B"/>
		<path d="M1837 1294l-50 144-906 0-50-144 1006 0 z" fill="#321B41"/>
	</g></svg>
