<svg version="1.1" xmlns="http://www.w3.org/2000/svg" viewBox="0 0 2300 2300"><g transform="scale(1,-1) translate(-256, -1869)">
		<path d="M1236-287c23 0 47 2 70 6 23 3 46 8 68 13 95 24 179 65 253 122 73 57 135 127 185 210 35 59 72 112 109 159 37 47 75 90 116 131 41 41 83 80 128 119l144 124c17 15 31 34 42 55 11 21 16 44 16 67 0 21-5 42-14 64-9 21-22 41-37 58-16 17-34 32-54 43-21 11-42 17-64 17-22 0-44-5-66-14-22-9-44-21-66-35-23-15-45-30-67-47-22-17-44-34-65-49-22-16-44-30-65-42-22-13-43-21-64-25 19 75 42 148 69 221 27 73 53 145 79 218 11 33 24 66 37 101 13 34 24 68 31 102 3 17 5 32 5 46 0 22-5 43-14 63-9 20-22 38-37 54-15 15-33 28-53 37-21 9-42 14-64 14-19 0-37-3-55-10-18-7-35-17-50-29-15-12-29-26-41-41-12-16-21-32-28-49-19-45-36-91-53-136l-51-138-24-62-4-8c-2-5-4-8-5-8l64 426c2 13 3 25 3 38 0 23-4 47-11 71-8 23-19 45-34 64-15 19-32 34-52 46-21 11-44 17-70 17-26 0-49-5-70-14-21-10-38-23-53-40-15-17-28-36-37-57-10-21-17-44-20-68-9-59-16-117-23-175-7-59-15-117-23-176-1-11-3-23-5-34-2-12-4-24-5-35-1-3-1-7-1-10l-4-14-30 297c-2 23-7 44-16 64-9 19-21 37-36 52-15 15-32 26-51 35-20 9-42 13-66 13-24 0-46-4-67-13-21-9-39-22-54-37-16-16-28-34-37-55-11-27-14-46-14-75 2-47 5-94 8-140 3-47 7-94 12-141 7-61 5-30 9-88l1-2-1-3c0 0 0-1 1-1l0 1c-7 29-14 57-20 86l-21 86c-5 21-13 40-24 58-11 17-23 33-38 46-15 13-32 24-51 32-19 7-40 11-62 11-23 0-45-4-65-13-21-9-39-22-54-37-15-16-27-34-36-55-9-21-13-43-13-66l0-11c0-4 0-8 1-11l86-438c5-24 7-49 8-75 1-26 2-51 4-76l10-103c4-37 9-75 15-112 6-37 14-74 23-109 9-36 19-69 31-98 42-101 99-186 171-255 72-69 163-115 272-140 21-5 44-9 67-12 23-3 45-5 67-5 z" fill="#FDD641"/>
		<path d="M1015 157c13 0 21 6 29 15 19 23 36 47 56 70 150 165 325 249 546 311 17 5 29 16 29 35 0 14-6 25-18 32-81 51-239 74-375 80-66 2-104 2-178 2-45 0-96-1-143-4-58-3-92-6-92-45 0-21 21-33 39-33 14 0 28 1 42 2 73 7 155 9 225 9 116 0 236-5 351-37-203-69-415-198-540-380-5-7-7-14-7-21 0-19 15-36 36-36 z M1548 916c14 0 28 8 33 23l170 454c18 55 66 145 133 145 10 0 19-1 27-4l1 1-2 0c-15 7-33 10-52 10-72 0-146-58-174-129-28-73-172-453-172-465 0-19 17-35 36-35 z M921 870c18 0 36 17 36 36 0 28-11 59-16 88-18 108-38 274-38 388 0 46 6 163 65 176l-1 2c-78-19-132-94-132-170l0-6 11-179c4-63 8-126 21-209 8-58 13-126 54-126 z M1234 978c9 0 16 3 23 9 7 6 11 13 12 22l66 540c2 16 5 34 10 54 4 20 10 39 19 57 9 17 20 32 34 45 13 13 30 20 51 21-26 0-49-5-70-14-21-9-40-22-55-39-15-17-28-36-37-57-10-22-17-45-20-69-11-89-23-177-35-264-12-88-24-176-35-265l0-4c0-9 3-18 9-24 7-8 17-12 28-12 z" fill="#FFB02C"/>
	</g></svg>
