<svg version="1.1" xmlns="http://www.w3.org/2000/svg" viewBox="0 0 2300 2300"><g transform="scale(1,-1) translate(-256, -1869)">
		<path d="M1396-287c98 0 184 16 258 49 383 170 468 676 468 1056 0 109-82 167-175 167-39 0-88-19-110-58-29 80-95 143-185 143-31 0-77-9-103-32l0 505c0 101-72 182-177 182-98 0-181-82-181-182l0-589c-31 36-85 55-128 55-150 0-162-133-162-249-14 4-33 4-47 4-119 0-168-74-168-181 0-435 221-870 710-870 z" fill="#FDD641"/>
		<path d="M1872 861c19 0 36 15 36 36l0 82c-26-8-56-27-71-52l-1 1 0-31c0-19 15-36 36-36 z M1585 878c18 0 35 17 35 36l0 154c-23-4-53-16-71-30l0-124c0-18 17-36 36-36 z M940 646c19 0 36 15 36 36l0 306c-47-30-72-104-72-154l0-152c0-19 15-36 36-36 z M1190 792c35 27 72 75 72 121l0 525c0 74 10 220 65 281-79-22-136-88-136-176 0-105 2-210 2-315 0-145-3-291-3-436 z" fill="#FFB02C"/>
	</g></svg>
