<svg version="1.1" xmlns="http://www.w3.org/2000/svg" viewBox="0 0 2300 2300"><g transform="scale(1,-1) translate(-256, -1869)">
		<path d="M1716-287c187 0 337 151 337 337l0 1338c0 181-146 337-337 337l-620 0c-181 0-337-144-337-337l0-1338c0-187 150-337 337-337l620 0 z" fill="#635994"/>
		<path d="M1406 485c19 0 36 15 36 36l0 125c224 19 397 208 397 432 0 223-169 413-397 432l0 215-72 0 0-215c-223-19-397-205-397-432 0-216 165-413 397-432l0-125c0-19 15-36 36-36 z" fill="#433B6B"/>
		<path d="M1406 717c194 0 361 156 361 361 0 199-160 362-361 362-198 0-362-159-362-362 0-194 156-361 362-361 z" fill="#CA0B4A"/>
		<path d="M1503 1078c64 0 114 53 114 115 0 65-53 114-114 114-65 0-114-53-114-114 0-64 51-115 114-115 z" fill="#FF8687"/>
	</g></svg>
