<svg version="1.1" xmlns="http://www.w3.org/2000/svg" viewBox="0 0 2300 2300"><g transform="scale(1,-1) translate(-256, -1869)">
		<path d="M1152-266l49 94 113 59-41 78 133 254 134-254-79-150 129-67 32 61 2-3 128 68-48 91 137 260 117-223-29-243 201-24 223 1851-201 23-75-622-24-46-134 254 163 310-128 68-116-222-181 343-128-67 8-16-130-247-179 340-129-68 13-25-137-260-154 294-129-68 201-382-133-254-31 58-73 610-202-23 223-1851 201 24-28 235 122 231 137-260-86-163 129-68 z M1188 948l-131 247 137 260 130-247-136-260 z M972 538l-130 247 133 254 130-248-133-253 z M1625 947l-136 261 130 247 137-260-131-248 z M1407 531l-137 260 137 261 136-261-136-260 z M1191 121l-137 260 134 254 136-260-133-254 z M1622 121l-134 254 137 261 134-254-137-261 z M1841 538l-134 254 130 247 134-254-130-247 z M820 248l-42 346 112-213-70-133 z M1989 256l-66 126 105 200-39-326 z" fill="#BEBEBE"/>
		<path d="M2053-287c80 0 144 64 144 143 0 81-67 144-144 144l-1294 0c-81 0-144-67-144-144 0-80 65-143 144-143l1294 0 z M2268 1438c80 0 144 64 144 143 0 81-67 144-144 144l-1725 0c-80 0-143-65-143-144 0-80 62-143 143-143l1725 0 z" fill="#9B9B9B"/>
	</g></svg>
