<svg version="1.1" xmlns="http://www.w3.org/2000/svg" viewBox="0 0 2300 2300"><g transform="scale(1,-1) translate(-256, -1869)">
		<path d="M1939-220c21 0 36 16 36 35 0 25-9 45-36 45l-491 0c-19 0-36-15-36-36 0-25 8-44 36-44l491 0 z" fill="#636363"/>
		<path d="M1694-287c68 0 120 57 120 120l0 956-240 0 0-956c0-68 57-120 120-120 z" fill="#9B9B9B"/>
		<path d="M1636 72c148 0 187 90 203 216l-545 0c-149 0-279 115-279 268l0 685c0 151 126 269 279 269l220 0 208-53 190 53c-19 141-144 215-275 215l-671 0c-149 0-279-115-279-268l0-1116c0-151 126-269 279-269l670 0 z" fill="#635994"/>
		<path d="M1842 1366c38 0 70 30 70 70l0 74-408 0 0-74c0-38 29-70 69-70l269 0 z" fill="#321B41"/>
		<path d="M1831-74c44 0 81 34 81 81l0 344c0 47-37 80-81 80l-247 0c-43 0-80-34-80-80l0-344c0-44 35-81 80-81l247 0 z" fill="#433B6B"/>
		<path d="M1975-261c47 0 81 37 81 81 0 45-37 80-81 80-43 0-80-34-80-80 0-44 35-81 80-81 z M1412-261c-44 0-81 34-81 81 0 45 37 80 81 80 43 0 80-34 80-80 0-44-35-81-80-81 z M1832 719c39 0 77 28 77 72 0 43-38 72-77 72l-277 0c-39 0-77-29-77-72 0-44 38-72 77-72l277 0 z" fill="#D3D3D3"/>
	</g></svg>
