<svg version="1.1" xmlns="http://www.w3.org/2000/svg" viewBox="0 0 2300 2300"><g transform="scale(1,-1) translate(-256, -1869)">
		<path d="M2038-287c205 0 374 164 374 373l0 1136-953 204c-18 4-36 6-53 6-17 0-35-2-53-6l-953-204 0-1136c0-205 167-373 373-373l1265 0 z" fill="#B4ACBC"/>
		<path d="M1945-215l395 407 0 893-623 91c-122 19-190 46-311 46-125 0-196-28-311-46l-623-91 0-977c0-179 144-323 323-323l1150 0 z" fill="#F3EEF8"/>
		<path d="M1967 0c8 0 14 7 14 15l0 186c0 8-6 15-14 15l-187 0c-8 0-15-7-15-15l0-186c0-8 7-15 15-15l187 0 z M1499 0c8 0 15 7 15 15l0 186c0 8-7 15-15 15l-186 0c-8 0-15-7-15-15l0-186c0-8 7-15 15-15l186 0 z M1032 0c8 0 15 7 15 15l0 186c0 8-7 15-15 15l-187 0c-8 0-14-7-14-15l0-186c0-8 6-15 14-15l187 0 z M1499 360c8 0 15 6 15 14l0 187c0 8-7 14-15 14l-186 0c-8 0-15-6-15-14l0-187c0-8 7-14 15-14l186 0 z M1032 360c8 0 15 6 15 14l0 187c0 8-7 14-15 14l-187 0c-9 0-14-5-14-14l0-187c0-9 5-14 14-14l187 0 z M1967 719c9 0 14 5 14 14l0 187c0 8-6 15-14 15l-187 0c-8 0-15-7-15-15l0-187c0-8 7-14 15-14l187 0 z M1499 719c8 0 15 6 15 14l0 187c0 8-7 15-15 15l-186 0c-8 0-15-7-15-15l0-187c0-8 7-14 15-14l186 0 z M1032 719c8 0 15 6 15 14l0 187c0 8-7 15-15 15l-187 0c-8 0-14-7-14-15l0-187c0-9 5-14 14-14l187 0 z" fill="#998EA4"/>
		<path d="M2143-287c149 0 270 119 270 270l0 233-324-180-179-323 233 0 z" fill="#998EA4"/>
		<path d="M1910-287l503 503-233 0c-148 0-270-121-270-270l0-233 z" fill="#E1D8EC"/>
		<path d="M1967 360l-187 0c-8 0-15 6-15 14l0 187c0 8 7 14 15 14l187 0c9 0 14-5 14-14l0-187c0-9-5-14-14-14 z M2412 1078l0 160c0 141-108 260-249 271l-55 42-53-41-1385 0c-149 0-270-121-270-272l0-160 2012 0 z" fill="#0084CE"/>
		<path d="M1879 1262c30 0 48 29 48 55 0 67-126 55-126 173 0 68 55 127 127 127 61 0 116-43 126-107l109 0c-11 123-114 215-235 215-66 0-133-27-179-83-46 56-114 83-180 83-71 0-136-32-180-83-46 56-113 83-179 83-66 0-134-27-180-83-46 56-114 83-180 83-128 0-235-104-235-235 0-54 18-102 48-142 30-41 95-86 138-86 30 0 48 29 48 55 0 65-126 53-126 173 0 68 55 127 127 127 25 0 49-7 71-21 24-17 55-56 55-84l-1-22c0-54 18-102 48-142 33-44 102-86 137-86 30 0 48 29 48 55 0 11-3 21-9 28-35 37-116 50-116 155l1 10 1 0-1 2c11 63 68 105 126 105 49 0 98-30 117-78 3-6 8-20 8-27l-1-22c0-54 18-102 48-142 33-44 102-86 137-86 30 0 49 29 49 55 0 67-126 44-126 183l1 10 1 0 0 2c11 62 62 105 125 105 49 0 98-30 117-78 3-6 8-20 8-27l-1-22c0-52 17-102 48-142 32-42 101-86 138-86 z" fill="#CDC4D6"/>
	</g></svg>
