<svg version="1.1" xmlns="http://www.w3.org/2000/svg" viewBox="0 0 2300 2300"><g transform="scale(1,-1) translate(-256, -1869)">
		<path d="M2227-30c7 0 14 3 21 10l99 99c7 7 8 13 8 24 0 8-9 18-15 21l-215 115c-5 3-11 3-18 3-15 0-24-18-24-30 0-8 26-60 54-110 49-88 61-132 90-132 z M2119 458c3 0 5 1 6 2l215 115c6 3 15 13 15 21 0 11-1 17-8 24l-99 99c-7 7-14 10-21 10-13 0-21-5-26-15-16-28-118-212-118-227 0-9 3-16 8-21 6-6 5-8 28-8 z M2416 252l-7 1-233 72c-11 3-19 16-19 27 0 11 8 24 19 28l233 72 7 1c18 0 30-12 30-29l0-143c0-17-12-29-30-29 z M1295-261l51 144c12 36 48 58 84 58 214 0 451 39 518 282l2 13c0 72-160 98-160 147 0 8 7 19 13 23l121 5c23 1 40 20 40 42 0 45-6 90-10 134 72 0 132 54 132 129l-1 14c-4 31-16 51-33 68-46 46-99 111-141 170l-28 216c-35 266-260 469-532 469-23 0-44-1-65-4l-346-43c-266-32-468-262-468-532 0-173 109-414 197-588 36-73 72-125 72-192 0-21-3-40-9-59l-156-496 719 0 z" fill="#635994"/>
	</g></svg>
