<svg version="1.1" xmlns="http://www.w3.org/2000/svg" viewBox="0 0 2300 2300"><g transform="scale(1,-1) translate(-256, -1869)">
		<path d="M2088-287c21 0 37 17 37 36 0 30-25 36-49 36l-23 0c-156 285-272 589-373 898l-555 0c-95-312-210-611-366-898l-22 0c-25 0-50-8-50-36 0-19 16-36 37-36l430 0c19 0 36 15 36 36 0 30-22 36-44 36l-22 0c27 134 148 229 282 229 135 0 253-93 283-229l-22 0c-24 0-45-8-45-36 0-19 15-36 36-36l430 0 z M1478 1581l0 73c0 40-34 71-72 71-38 0-72-31-72-71l0-73 144 0 z M1513 1294c-11 48-19 96-26 144l-160 0c-5-48-13-96-24-144l210 0 z M1046-108l-111 0c29 59 57 119 84 180l196 0c-73-39-132-102-169-180 z M1876-108l-111 0c-37 78-97 141-170 180l199 0c27-60 53-120 82-180 z M1662 180l-202 0 0 124 202-124 z M1352 504l-116 71 116 0 0-71 z M1460 504l0 71 116 0-116-71 z M1706 287l-190 116 120 73c23-66 45-123 70-189 z M1106 288c24 63 46 127 66 192l124-76-190-116 z M1352 180l-202 0 202 123 0-123 z M1613 897c-24 84-47 168-68 253l-276 0c-23-84-47-166-74-250l113-1 44 148 0-148 108-1 0 148c12-52 25-97 40-148l113-1 z" fill="#FF6723"/>
		<path d="M1545 1150c-11 48-22 96-31 144l-211 0c-9-48-22-96-34-144l276 0 z M1680 683l0 183c0 19-16 31-33 31l-488 3c-17 0-34-12-34-31l0-186 555 0 z M1487 1438c-6 48-9 96-9 143l-144 0c0-48-2-95-7-143l160 0 z" fill="#E6E6E6"/>
	</g></svg>
