<svg version="1.1" xmlns="http://www.w3.org/2000/svg" viewBox="0 0 2300 2300"><g transform="scale(1,-1) translate(-256, -1869)">
		<path d="M1673 718c32 0 93 61 93 93 0 29-24 51-51 51-32 0-93-60-93-93 0-29 24-51 51-51 z M933-145c27 0 34 16 40 35 5 19 7 38 30 46l159 53c17 7 28 21 28 40 0 22-18 42-41 42l-164 0c-6 0-12-2-19-5-58-26-135-55-135-130l0-39c0-23 20-42 42-42l60 0 z M524-289c93 0 172 43 198 145 8 32 32 104 32 133 0 9-3 17-10 24l-119 119c-7 7-16 11-25 11l-106 0c-14 0-25-7-32-21l-59-116c-2-3-3-7-3-11l0-32c0-54 71-21 71-72l0-144c0-32 27-36 53-36 z M1369-1c15 0 29 3 42 9 13 5 25 13 34 23 9 10 17 22 23 35 5 13 8 26 8 41 0 10 4 19 11 28 7 8 15 13 25 15l255 51c15 3 28 6 39 11 11 4 21 9 31 15 10 6 20 13 29 21 9 7 18 16 29 26 9 9 20 13 31 13 17 0 33 3 48 9 15 6 29 15 41 26 11 11 20 23 27 38 7 15 10 31 10 48l0 302c0 18 4 36 11 54 7 18 14 36 23 54 8 18 16 36 23 54 7 18 10 36 10 54 0 7-5 19-15 36-10 17-21 36-34 55-13 19-25 38-38 55-13 17-21 30-26 37-5 7-11 13-18 17-7 3-15 5-23 5-7 0-14-2-23-5-9-4-17-9-26-14-9-5-17-11-25-16l-21-15c-10-7-18-16-24-26-7-10-10-21-10-34l0-251c0-15-3-25-10-30-7-5-15-9-24-11l-28-8c-9-3-16-10-21-20l-48-102c-3-7-9-13-16-18-7-5-15-7-24-7-13 0-22 2-27 7-5 5-9 10-11 17-2 7-3 14-4 23-1 8-3 15-6 22-4 7-10 12-19 17-9 5-23 7-41 7l-35-1c-17 0-28-4-33-12-5-9-8-19-9-30l-1-26 0-11c0-13-3-23-9-31l-30-43c-17-24-36-45-58-64-23-19-47-36-73-49-26-13-53-23-81-30-29-7-58-11-87-11l-197 0c-36 0-69-8-100-25-31-17-56-40-76-69l-13-18-16-22c-5-8-10-16-13-23-4-8-6-15-6-20 0-11 4-20 12-27 7-8 16-12 27-12l458 0c13 0 24-4 32-13 8-9 12-20 12-33 0-31 11-55 32-72 21-17 46-26 76-26 z M1875 1221c53 0 20 72 72 72l91 0c40 0 60-70 97-70 23 0 54 0 67 23l56 100c11 19 34 21 52 21 19 0 34-2 53-2 26 0 48 5 48 36l0 93c0 9-3 18-10 25-13 16-55 62-76 62l-118 0c-145 0-195 144-242 144l-98 0c-19 0-36-15-36-36l0-72c0-59 77-17 77-71l0-72c0-27-19-36-43-36-56 0-100-47-100-101l0-42c0-39 31-74 72-74l38 0 z" fill="#00D26A"/>
	</g></svg>
