<svg version="1.1" xmlns="http://www.w3.org/2000/svg" viewBox="0 0 2300 2300"><g transform="scale(1,-1) translate(-256, -1869)">
		<path d="M1406-287c615 0 1006 388 1006 1006 0 615-388 1006-1006 1006-615 0-1006-388-1006-1006 0-615 388-1006 1006-1006 z" fill="#FFB02E"/>
		<path d="M2003 861c75 60 122 152 122 253 0 177-143 324-324 324-178 0-323-145-323-324 0-96 43-190 122-253 68 26 106 21 165 74 17-8 34-16 51-23 59-27 123-28 187-51 z M1212 861c79 63 122 157 122 253 0 179-145 324-323 324-177 0-324-143-324-324 0-101 47-193 122-253 44 16 88 22 134 33 37 8 69 25 104 41 58-56 96-47 165-74 z" fill="#FFFFFF"/>
		<path d="M1679 884c40 9 81 15 122 15 23 0 45-2 68-5 74 45 112 133 112 220 0 119-80 252-216 252-134 0-215-128-215-252 0-94 46-189 129-230 z M1133 884c84 44 129 138 129 230 0 119-79 252-215 252-133 0-216-128-216-252 0-85 37-175 112-220 23 3 45 5 68 5 41 0 82-6 122-15 z" fill="#402A32"/>
		<path d="M1406 72c294 0 519 136 613 442 20 67 34 136 34 205l-1294 0c0-35 3-69 10-103 62-341 279-544 637-544 z" fill="#BB1D80"/>
		<path d="M1909 611c39 0 72 31 72 72l0 36-1150 0 0-36c0-39 31-72 72-72l1006 0 z" fill="#FFFFFF"/>
	</g></svg>
