<svg version="1.1" xmlns="http://www.w3.org/2000/svg" viewBox="0 0 2300 2300"><g transform="scale(1,-1) translate(-256, -1869)">
		<path d="M1406-287c616 0 1006 391 1006 1006 0 613-388 1006-1006 1006-616 0-1006-391-1006-1006 0-613 388-1006 1006-1006 z" fill="#FFB02E"/>
		<path d="M1622 0c40 0 71 34 71 72 0 38-31 72-71 72l-432 0c-38 0-72-33-72-72 0-38 33-72 72-72l432 0 z M2089 1006c19 0 36 18 36 36 0 19-15 36-36 36-29 0-57 4-85 11-89 21-140 83-168 178-5 16-17 27-34 27-21 0-37-16-37-37l1-8c34-156 162-243 323-243 z M1837 503c100 0 288 51 288 144 0 39-31 72-72 72-21 0-36-8-51-21-39-37-114-51-165-51-38 0-89 9-129 28-35 15-49 44-87 44-40 0-71-34-71-72 0-94 190-144 287-144 z M975 503c101 0 287 51 287 144 0 38-31 72-72 72-20 0-35-8-50-21-39-37-114-51-165-51-41 0-90 9-129 28-35 15-49 44-87 44-39 0-72-31-72-72 0-95 193-144 288-144 z M723 1006c157 0 285 84 323 243l1 8c0 21-16 37-37 37-17 0-29-11-34-27-19-61-41-106-90-142-48-36-108-47-163-47-19 0-36-15-36-36 0-18 17-36 36-36 z" fill="#402A32"/>
	</g></svg>
