<svg version="1.1" xmlns="http://www.w3.org/2000/svg" viewBox="0 0 2300 2300"><g transform="scale(1,-1) translate(-256, -1869)">
		<path d="M1406-287c616 0 1006 391 1006 1006 0 613-388 1006-1006 1006-616 0-1006-391-1006-1006 0-613 388-1006 1006-1006 z" fill="#FFB02E"/>
		<path d="M1981 360c77 0 216 40 216 143 0 104-135 144-216 144-80 0-216-41-216-144 0-103 137-143 216-143 z M831 360c77 0 216 40 216 143 0 104-135 144-216 144-80 0-216-41-216-144 0-103 137-143 216-143 z" fill="#FF6723"/>
		<path d="M1526 72c99 0 181 79 181 181 0 41-12 77-37 109 25 33 37 69 37 110 0 98-78 181-181 181-39 0-72-31-72-72 0-39 31-72 72-72 19 0 37-16 37-37 0-22-16-38-37-38-39 0-72-31-72-72 0-40 34-71 72-71 21 0 37-16 37-38 0-19-16-37-37-37-39 0-72-31-72-72 0-39 31-72 72-72 z" fill="#402A32"/>
		<path d="M1980 791c39 0 73 31 73 72l-1 12c-21 128-126 203-251 203-128 0-226-74-250-202l-1-14c0-38 32-71 71-71 18 0 32 4 41 11 45 35 26 133 139 133 146 0 77-144 179-144 z M1190 791c41 0 72 33 72 71l-1 13c-21 128-126 203-250 203-128 0-227-73-251-202l-1-6c0-48 30-79 71-79 103 0 42 144 181 144 145 0 77-144 179-144 z M2089 1150c-16 0-27 8-34 25-44 111-133 191-254 191-19 0-36 15-36 36 0 19 15 36 36 36 141 0 279-102 322-240 1-4 2-7 2-11 0-21-17-37-36-37 z M723 1150c16 0 27 8 34 25 45 112 134 191 254 191 18 0 36 17 36 36 0 18-17 36-36 36-139 0-278-98-322-240-1-4-2-7-2-11 0-21 17-37 36-37 z" fill="#402A32"/>
	</g></svg>
