<svg version="1.1" xmlns="http://www.w3.org/2000/svg" viewBox="0 0 2300 2300"><g transform="scale(1,-1) translate(-256, -1869)">
		<path d="M1406-287c616 0 1006 391 1006 1006 0 613-388 1006-1006 1006-616 0-1006-391-1006-1006 0-613 388-1006 1006-1006 z" fill="#FFB02E"/>
		<path d="M1050 71c-38 0-72 31-72 71 0 19 7 36 21 51 106 111 261 170 408 170 151 0 303-62 405-167 15-15 22-32 22-51 0-41-34-72-72-72-19 0-36 7-51 21-92 82-186 125-304 125-121 0-215-44-306-127-15-13-30-21-51-21 z M1980 719c39 0 73 31 73 72l-1 12c-18 96-138 168-251 168-25 0-50-3-76-10-79-20-175-89-175-169 0-43 32-73 73-73 82 0 48 108 178 108 130 0 100-108 179-108 z M1189 719c41 0 73 30 73 73 0 7-1 15-3 22-32 102-146 157-248 157-25 0-51-3-76-10-79-20-176-90-176-170 0-41 34-72 73-72 83 0 48 108 179 108 130 0 101-108 178-108 z" fill="#402A32"/>
		<path d="M687 935c121 0 216 97 216 215l0 360c0 119-97 215-216 215-120 0-215-97-215-215l0-360c0-120 97-215 215-215 z" fill="#3F5FFF"/>
	</g></svg>
