<svg version="1.1" xmlns="http://www.w3.org/2000/svg" viewBox="0 0 2300 2300"><g transform="scale(1,-1) translate(-256, -1869)">
		<path d="M1406-287c616 0 1006 391 1006 1006 0 613-388 1006-1006 1006-616 0-1006-391-1006-1006 0-613 388-1006 1006-1006 z" fill="#FFB02E"/>
		<path d="M1806 482c167 0 305 133 305 305 0 168-136 305-305 305-168 0-305-136-305-305 0-168 136-305 305-305 z M1005 487c166 0 302 136 302 302 0 168-134 303-302 303-169 0-302-137-302-303 0-166 136-302 302-302 z" fill="#FFFFFF"/>
		<path d="M1765 575c121 0 216 99 216 216 0 119-97 215-216 215-120 0-215-97-215-215 0-121 97-216 215-216 z M1047 575c119 0 215 97 215 216 0 120-97 215-215 215-121 0-216-97-216-215 0-121 99-216 216-216 z M1621 144c41 0 72 34 72 72 0 19-7 36-21 51-65 67-180 93-266 93-23 0-46-2-70-5-93-13-218-67-218-139 0-39 34-72 72-72 21 0 36 8 51 21 44 40 110 51 165 51 54 0 121-11 165-51 15-13 30-21 50-21 z M2089 1150c19 0 36 15 36 36 0 19-15 36-36 36-61 0-125 14-176 58-41 36-59 77-77 131-5 14-16 27-34 27-18 0-37-15-37-36 0-3 1-6 2-10 45-166 165-242 322-242 z M723 1150c157 0 277 76 322 242 1 4 2 7 2 10 0 21-19 36-37 36-18 0-29-13-34-27-18-54-36-95-77-131-51-44-114-58-176-58-19 0-36-15-36-36 0-19 15-36 36-36 z" fill="#402A32"/>
		<path d="M508 0c98 0 179 79 179 180l0 287c0 98-79 180-179 180-101 0-180-81-180-180l0-287c0-98 78-180 180-180 z" fill="#3F5FFF"/>
	</g></svg>
