<svg version="1.1" xmlns="http://www.w3.org/2000/svg" viewBox="0 0 2300 2300"><g transform="scale(1,-1) translate(-256, -1869)">
		<path d="M1406-287c616 0 1006 391 1006 1006 0 613-388 1006-1006 1006-616 0-1006-391-1006-1006 0-613 388-1006 1006-1006 z" fill="#FFB02E"/>
		<path d="M2089 1222c19 0 36 15 36 36 0 19-15 36-36 36-63 0-127 14-176 57-42 37-59 81-77 132-5 14-16 27-34 27-18 0-37-15-37-36 0-3 1-6 2-10 43-163 158-242 322-242 z M1909 719c41 0 72 34 72 72 0 27-16 52-40 64l-159 80 159 79c24 12 40 37 40 64 0 41-34 72-73 72-11 0-22-2-31-7l-288-144c-24-12-39-38-39-64 0-26 14-53 39-65l288-143c11-5 21-8 32-8 z M902 719c-40 0-71 34-71 72 0 27 16 52 40 64l159 80-159 79c-24 12-40 37-40 64 0 39 31 72 72 72 12 0 23-2 32-7l287-144c25-12 40-36 40-64 0-27-14-53-40-65l-287-143c-11-5-22-8-33-8 z M723 1222c164 0 279 79 322 242 1 4 2 7 2 10 0 21-19 36-37 36-18 0-29-13-34-27-18-51-35-95-77-132-49-44-115-57-176-57-19 0-36-15-36-36 0-19 15-36 36-36 z" fill="#402A32"/>
		<path d="M1945 72c51 0 100 39 100 92l-1 15c-28 163-111 300-231 396l-407 72-407-72c-120-96-203-233-231-396l-1-15c0-54 50-92 100-92l1078 0 z" fill="#BB1D80"/>
		<path d="M1813 575c-119 94-260 144-407 144-147 0-289-49-407-144l814 0 z" fill="#FFFFFF"/>
	</g></svg>
