<svg version="1.1" xmlns="http://www.w3.org/2000/svg" viewBox="0 0 2300 2300"><g transform="scale(1,-1) translate(-256, -1869)">
		<path d="M1406-287c616 0 1006 391 1006 1006 0 613-388 1006-1006 1006-616 0-1006-391-1006-1006 0-613 388-1006 1006-1006 z" fill="#FFB02E"/>
		<path d="M1765-237c134 41 257 111 360 208l0 1215c0 58-49 108-108 108l-252 0 0-1531 z M1047-237l0 1531-252 0c-61 0-108-48-108-108l0-1215c103-97 226-167 360-208 z" fill="#5092FF"/>
		<path d="M2124 1150c41 0 72 34 72 73 0 7-1 15-3 22-32 102-146 157-248 157-25 0-50-3-76-10-79-20-175-89-175-169 0-39 31-73 72-73 83 0 50 108 179 108 130 0 100-108 179-108 z M1046 1150c41 0 72 34 72 73 0 7-1 15-3 22-32 102-146 157-248 157-25 0-51-3-76-10-79-20-176-90-176-170 0-41 34-72 72-72 83 0 50 108 180 108 132 0 96-108 179-108 z" fill="#402A32"/>
		<path d="M1406 360c161 0 287 130 287 287l0 144c0 161-130 287-287 287-161 0-288-129-288-287l0-144c0-160 129-287 288-287 z" fill="#BB1D80"/>
	</g></svg>
