<svg version="1.1" xmlns="http://www.w3.org/2000/svg" viewBox="0 0 2300 2300"><g transform="scale(1,-1) translate(-256, -1869)">
		<path d="M1406-287c616 0 1006 391 1006 1006 0 613-388 1006-1006 1006-616 0-1006-391-1006-1006 0-613 388-1006 1006-1006 z" fill="#FFB02E"/>
		<path d="M1981 719c39 0 72 31 72 72 0 20-7 37-21 51l-129 129 129 128c14 14 21 31 21 51 0 39-31 72-72 72-20 0-37-7-51-21l-129-129-129 129c-14 14-31 21-51 21-40 0-71-34-71-72 0-20 7-37 21-51l129-128-129-129c-14-14-21-31-21-51 0-38 31-72 71-72 20 0 37 7 51 21l129 129 129-129c14-14 31-21 51-21 z M1190 719c41 0 72 34 72 72 0 20-7 37-21 51l-129 129 129 128c14 14 21 31 21 51 0 38-31 72-72 72-19 0-36-7-50-21l-129-129-129 129c-14 14-31 21-51 21-39 0-72-31-72-72 0-20 7-37 21-51l129-128-129-129c-14-14-21-31-21-51 0-39 31-72 72-72 20 0 37 7 51 21l129 129 129-129c14-14 31-21 50-21 z" fill="#402A32"/>
		<path d="M1406-72c160 0 287 129 287 288 0 161-130 287-287 287-161 0-288-129-288-287 0-161 128-288 288-288 z" fill="#BB1D80"/>
	</g></svg>
