<svg version="1.1" xmlns="http://www.w3.org/2000/svg" viewBox="0 0 2300 2300"><g transform="scale(1,-1) translate(-256, -1869)">
		<path d="M1406-287c616 0 1006 391 1006 1006 0 613-388 1006-1006 1006-616 0-1006-391-1006-1006 0-613 388-1006 1006-1006 z" fill="#FFB02E"/>
		<path d="M1801 503c177 0 324 143 324 324 0 178-145 323-324 323-179 0-323-147-323-323 0-179 145-324 323-324 z M1011 503c178 0 323 145 323 324 0 179-147 323-323 323-179 0-324-145-324-323 0-177 143-324 324-324 z" fill="#FFFFFF"/>
		<path d="M1765 575c121 0 216 99 216 216 0 119-97 215-216 215-120 0-215-97-215-215 0-121 97-216 215-216 z M1047 575c119 0 215 97 215 216 0 120-97 215-215 215-121 0-216-97-216-215 0-121 99-216 216-216 z" fill="#402A32"/>
		<path d="M2556-431l0 2300-2300 0 0-2300 2300 0 z M1870 106c-63 23-128 36-195 38-45 126-164 216-305 216-102 0-192-48-253-122-113 130-271 193-431 193-11 120-74 221-164 286l-70-7-17 54c124 103 180 242 180 397l66 34c11-8 61-44 72-44 152 0 315 98 402 216l29 162 77 128c85-136 233-219 397-219 65 0 130 13 190 40l89-52-12-128c57-82 138-149 238-188l70 32 37-59c-1-15-2-26-2-41 0-97 24-191 66-275l-17-83-71-25c-33-59-49-124-49-192 0-19 1-37 3-55-151-45-273-156-330-306 z" fill="#F3EEF8"/>
		<path d="M739 1150l15 1c-29 190-161 348-348 408 127-92 206-242 209-398 42-8 83-11 124-11 z M2270 1083c7 111 45 220 112 314-102-73-178-172-220-286 35-13 71-23 108-28 z M1925 1297c86 90 128 205 128 320 0 12-1 25-2 37-51-79-121-138-203-176 14-65 40-126 77-181 z M1154 1366c63 82 100 184 107 291-29 47-50 97-61 152-55-79-82-171-82-263 0-63 12-123 36-180 z M2556 342l0 182c-92 59-170 141-222 243-37-32-67-68-88-109 62-147 176-254 310-316 z M2556-57l0 131c-104 10-205 61-275 149 36-142 149-245 275-280 z M2457-431c-55 174-181 319-361 389 107-109 163-248 171-389l190 0 z M1048-431c5 92 31 179 74 259-48 57-75 130-75 208 0 25 2 47 7 68-52-62-79-135-79-212 0-31 5-62 13-93-60-67-103-145-130-230l190 0 z M256-214c199 19 354 182 359 382-74-107-198-168-323-168-12 0-24 1-36 2l0-216 z M256 524c104 31 201 97 267 192-26 19-55 35-88 48-54-44-114-76-179-96l0-144 z" fill="#BCA4EB"/>
	</g></svg>
