<svg version="1.1" xmlns="http://www.w3.org/2000/svg" viewBox="0 0 2300 2300"><g transform="scale(1,-1) translate(-256, -1869)">
		<path d="M1504-285l535 296 338 1-202 474c-40 93-130 156-235 156l-1092 0c-102 0-194-60-235-156l-197-474 339 0 535-297 214 0 z" fill="#00A6ED"/>
		<path d="M2168-285c117 0 227 87 227 214 0 122-105 214-227 214-28 0-53-6-80-14l-333-100c-83-24-144-84-144-173 0-56 238-110 285-141l272 0 z M898-285c48 32 285 86 285 141 0 92-63 149-145 173l-332 100c-27 8-52 14-80 14-117 0-227-87-227-214 0-122 104-214 226-214l273 0 z" fill="#3BC6F6"/>
		<path d="M1780 1427c13 0 154 49 177 57 13 5 19 13 19 26 0 7-3 13-8 18l-113 113c-5 5-11 8-18 8-13 0-21-6-26-19-8-22-57-166-57-177 0-14 11-26 26-26 z M1015 1426c15 0 25 11 25 26 0 13-49 155-57 178-5 13-13 19-26 19-7 0-14-3-19-8l-112-113c-5-5-8-12-8-19 0-12 6-20 18-25 23-8 163-58 179-58 z M1397 1498c11 0 19 5 24 15 10 23 83 152 83 172 0 14-12 27-27 27l-160 0c-14 0-27-12-27-27 0-13 40-90 65-137 22-43 24-50 42-50 z" fill="#46A4FB"/>
		<path d="M1842 446c78 0 143 63 143 142 0 80-62 143-143 143-77 0-142-63-142-143 0-76 60-142 142-142 z M951 446c78 0 143 63 143 142 0 80-62 143-143 143-80 0-142-64-142-143 0-76 60-142 142-142 z" fill="#FECA46"/>
		<path d="M1399 0c118 0 233 27 321 108 46 43 99 125 105 199l42 518c1 17 3 33 3 50 0 199-162 372-372 372l-201 0c-210 0-371-167-371-376 0-16 1-31 2-46l41-518c3-32 21-74 36-104 77-143 223-203 394-203 z" fill="#FDD641"/>
		<path d="M1715 334l-203 0c-10 0-21 9-21 21 0 58 70 107 124 107 55 0 125-48 125-103 0-13-11-25-25-25 z M1282 334c10 0 21 9 21 21 0 58-70 107-124 107-55 0-125-48-125-104 0-13 11-24 25-24l203 0 z" fill="#FFFFFF"/>
		<path d="M1675 334l-157 0c-2 7-3 14-3 21 0 44 34 82 81 82 44 0 82-35 82-82 0-6-2-14-3-21 z M1276 334c1 3 2 7 2 11 0 52-27 92-81 92-47 0-81-38-81-82 0-7 1-14 3-21l157 0 z" fill="#7D4533"/>
		<path d="M1637 334l-83 0c-3 7-5 15-5 21 0 26 20 47 47 47 27 0 46-22 46-47 0-6-2-13-5-21 z M1239 334c3 8 5 15 5 21 0 26-20 47-47 47-27 0-46-22-46-47 0-6 2-13 5-21l83 0 z" fill="#000000"/>
		<path d="M1432 147c26 0 48 20 48 48 0 27-39 138-49 167-5 15-20 25-34 25-17 0-29-8-34-25-11-32-49-142-49-167 0-26 20-48 48-48l70 0 z" fill="#FFB02C"/>
		<path d="M1895-285l1 126c0 63-47 124-117 124-17 0-34-4-50-11l-264-126c-18-9-33-31-33-53 0-30 22-60 55-60l408 0 z M1306-285c33 0 55 30 55 60 0 21-11 43-32 53l-265 126c-16 7-32 11-49 11-71 0-117-62-117-124l0-126 408 0 z" fill="#FDD641"/>
		<path d="M1571 373c7 0 14 7 14 14 0 8-6 15-14 15-8 0-14-7-14-15 0-7 7-14 14-14 z M1169 373c7 0 15 6 15 14 0 8-7 15-15 15-8 0-14-7-14-15 0-7 7-14 14-14 z" fill="#FFFFFF"/>
		<path d="M1844 541c15 1 29 5 42 14 13 8 23 19 28 33l1 1 4 12 3 12 55 296 4 25c1 8 2 16 2 25 0 46-13 87-39 122-27 35-61 60-104 75-53 19-95 52-126 100-21 31-46 56-77 73-31 17-65 26-103 26-14 0-27-1-38-4-12-3-23-7-34-10-11-4-22-7-33-10-11-3-22-5-33-5-11 0-22 2-33 5-11 3-21 6-32 10l-34 10c-12 3-25 4-39 4-37 0-71-9-102-26-31-18-57-42-77-73-15-25-33-45-54-61-21-16-45-29-72-39-21-8-41-18-58-31-18-13-33-29-46-46-13-17-22-36-29-57-7-21-11-43-11-66 0-9 1-18 2-26l4-26 57-302c3-18 13-33 29-44 15-11 32-17 50-17l-7 85c13 15 24 30 34 43 10 13 15 31 15 52 0 5 0 11-1 19l-1 17 0 6c0 7 2 14 5 19 3 5 9 8 17 8 3 0 5 0 6-1 63-17 125-31 188-42 63-11 126-16 191-16 49 0 98 3 146 9 48 6 96 14 144 25 15 3 29 7 44 12 14 4 28 8 43 11 1 0 2 0 3 1l3 0c15 0 22-7 22-22l0-45c0-12 1-22 4-31 2-9 7-19 14-28 7-10 17-22 31-37l-8-85 z" fill="#FFB02F"/>
		<path d="M1710 499c9 0 15 4 19 11 4 7 6 15 6 22 0 13-6 24-18 35-12 10-26 18-42 25-17 7-33 12-50 16-17 3-30 5-39 5-13 0-25-1-36-4-11-3-17-13-17-30 0-10 2-17 5-21 3-5 7-8 12-9l11-1 24 0c17 0 32-2 47-7 14-5 26-11 37-17l26-17c7-5 12-8 15-8 z M1084 499c11 0 57 49 125 49 9 0 18-2 27-2 16 0 25 18 25 33 0 33-29 34-53 34-55 0-96-19-140-55l0-1c-7-7-10-15-10-25 0-15 10-33 26-33 z" fill="#D37034"/>
	</g></svg>
