<svg version="1.1" xmlns="http://www.w3.org/2000/svg" viewBox="0 0 2300 2300"><g transform="scale(1,-1) translate(-256, -1869)">
		<path d="M1504-285l535 296 338 1-202 474c-40 93-130 156-235 156l-1092 0c-102 0-194-60-235-156l-197-474 339 0 535-297 214 0 z" fill="#8B62BF"/>
		<path d="M1397 54c186 0 324 91 406 248 16 31 42 92 44 126l28 400c1 15 3 30 3 45 0 202-187 339-379 339l-205 0c-191 0-379-127-379-342 0-15 2-27 3-42l29-400c3-38 27-92 44-126 82-157 220-248 406-248 z" fill="#C68D7B"/>
		<path d="M2168-285c117 0 227 87 227 214 0 122-105 214-227 214-28 0-53-6-80-14l-333-100c-83-24-144-84-144-173 0-56 238-110 285-141l272 0 z M898-285c48 32 285 86 285 141 0 92-63 149-145 173l-332 100c-27 8-52 14-80 14-117 0-227-87-227-214 0-122 104-214 226-214l273 0 z" fill="#A17FD5"/>
		<path d="M1695 340c-60 21-123 35-183 55 26 39 66 75 119 75 33 0 120-17 120-62 0-27-38-53-56-68 z M1099 340c60 21 123 35 183 55-26 38-67 75-120 75-33 0-120-18-120-62 0-29 38-52 57-68 z" fill="#000000"/>
		<path d="M1715 334l-203 0c-10 0-21 9-21 21 0 58 70 107 124 107 55 0 125-48 125-103 0-13-11-25-25-25 z M1282 334c10 0 21 9 21 21 0 58-70 107-124 107-55 0-125-48-125-104 0-13 11-24 25-24l203 0 z" fill="#FFFFFF"/>
		<path d="M1675 334l-157 0c-2 7-3 14-3 21 0 44 34 82 81 82 44 0 82-35 82-82 0-6-2-14-3-21 z M1276 334c1 3 2 7 2 11 0 52-27 92-81 92-47 0-81-38-81-82 0-7 1-14 3-21l157 0 z" fill="#7D4533"/>
		<path d="M1637 334l-83 0c-3 7-5 15-5 21 0 26 20 47 47 47 27 0 46-22 46-47 0-6-2-13-5-21 z M1239 334c3 8 5 15 5 21 0 26-20 47-47 47-27 0-46-22-46-47 0-6 2-13 5-21l83 0 z" fill="#000000"/>
		<path d="M1432 147c26 0 48 20 48 48 0 27-39 138-49 167-5 15-20 25-34 25-17 0-29-8-34-25-11-32-49-142-49-167 0-26 20-48 48-48l70 0 z" fill="#AB6A55"/>
		<path d="M1571 373c7 0 14 7 14 14 0 8-6 15-14 15-8 0-14-7-14-15 0-7 7-14 14-14 z M1169 373c7 0 15 6 15 14 0 8-7 15-15 15-8 0-14-7-14-15 0-7 7-14 14-14 z" fill="#FFFFFF"/>
		<path d="M1896-285l0 126c0 63-47 124-117 124-17 0-34-4-50-11l-264-126c-18-9-33-31-33-53 0-30 22-60 55-60l409 0 z M1306-285c33 0 55 30 55 60 0 21-11 43-32 53l-265 126c-16 7-32 11-49 11-71 0-117-62-117-124l0-126 408 0 z" fill="#C68D7B"/>
		<path d="M552 340l61 146c12 29 29 54 50 77 21 23 46 41 74 54 1-29 7-55 19-80 11-25 27-47 46-66 19-19 42-33 67-44 25-11 52-17 81-17l-2 9c-1 3-1 6-1 9l-15 214 6 0c19 0 34 4 48 13 15 10 29 23 40 39 11 15 21 32 30 51l21 52 0 2 9 21 0 2c5 11 14 16 27 16 5 0 10-1 13-3 3-3 7-6 10-10 17-21 35-41 52-60 17-19 38-37 61-52 14-10 30-19 47-27 17-9 35-16 54-23 19-7 38-12 57-15 19-4 37-6 54-6l401 0 34-71-47-119c-1-1-1-4-1-7-1-3-1-7-1-12-1-5-1-9-1-13-1-5-1-8-2-10 28 0 55 5 80 16 25 11 48 25 67 44 19 19 34 40 46 65 11 25 18 51 19 79 27-13 50-31 71-53 20-22 36-47 48-75l62-145c27 22 48 48 64 77 16 29 24 62 24 97 0 21-3 43-9 64-7 21-16 41-28 60-12 19-27 35-44 49-17 13-37 23-58 29-35 9-68 25-99 46-32 21-57 47-76 79l0-1c-26 44-39 92-39 145 0 41-8 79-23 115-15 36-36 67-63 94-27 27-58 48-94 64-36 15-74 23-115 23-16 0-30 7-41 20-5 6-10 12-14 18l-15 18c-28 29-60 51-96 66-37 15-75 22-115 22-52 0-97-11-135-32-38-21-73-52-105-91-5-7-11-13-17-16-7-3-15-5-24-5-41 0-79-8-115-23-36-15-67-36-94-63-27-27-48-58-63-94-15-36-23-74-23-115 0-34-5-66-15-95-10-30-24-57-43-80-19-24-41-44-67-61-26-17-55-30-88-39-21-5-40-15-57-29-17-14-32-30-44-49-12-19-21-39-28-61-7-22-10-43-10-64 0-34 8-65 23-94 15-29 36-54 61-75 z" fill="#593B39"/>
		<path d="M1709 536c7 0 14 2 19 7 5 5 7 11 7 18 0 11-6 20-19 28-13 8-28 15-45 20-17 5-34 8-50 11-17 3-28 4-35 4l-17 0c-6 0-12-1-17-2-5-2-10-5-13-8-4-4-6-10-6-17 0-8 2-14 6-17 3-3 8-5 13-6l11-1 22 1c16 0 31-2 45-6 14-4 26-8 37-13l26-13c7-4 13-6 16-6 z M1083 536c13 0 62 38 124 38 11 0 18-2 28-2 14 0 25 10 25 25 0 21-19 27-36 27-46 0-166-18-166-63 0-15 12-25 25-25 z" fill="#593B39"/>
		<path d="M1848 446l14 196c43 0 26 74 42 74l4-1c46-24 77-70 77-127 0-78-62-139-137-142 z M946 446l-20 273c0 5-3 8-10 8-4 0-21-6-25-9-50-24-82-73-82-130 0-78 62-139 137-142 z" fill="#BB806E"/>
		<path d="M1780 1427c13 0 154 49 177 57 13 5 19 13 19 26 0 7-3 13-8 18l-113 113c-5 5-11 8-18 8-13 0-21-6-26-19-8-22-57-166-57-177 0-14 11-26 26-26 z M1015 1426c15 0 25 11 25 26 0 13-49 155-57 178-5 13-13 19-26 19-7 0-14-3-19-8l-112-113c-5-5-8-12-8-19 0-12 6-20 18-25 23-8 163-58 179-58 z M1397 1498c11 0 19 5 24 15 10 23 83 152 83 172 0 14-12 27-27 27l-160 0c-14 0-27-12-27-27 0-13 40-90 65-137 22-43 24-50 42-50 z" fill="#46A4FB"/>
	</g></svg>
