<svg version="1.1" xmlns="http://www.w3.org/2000/svg" viewBox="0 0 2300 2300"><g transform="scale(1,-1) translate(-256, -1869)">
		<path d="M2089 431c211 0 395 169 395 396 0 216-173 395-395 395-218 0-396-175-396-395 0-217 174-396 396-396 z M723 431c211 0 395 169 395 396 0 216-173 395-395 395-216 0-395-173-395-395 0-218 175-396 395-396 z" fill="#E39D89"/>
		<path d="M1478-72c436 0 790 354 790 791l0 144c0 435-351 790-790 790l-144 0c-435 0-791-352-791-790l0-144c0-436 351-791 791-791l144 0 z" fill="#7D4533"/>
		<path d="M1406 216c276 0 503 223 503 503 0 27-2 54-6 80 104 67 150 171 150 283 0 180-147 322-322 322l-650 0c-187 0-322-147-322-332 0-114 58-214 150-273-4-26-6-53-6-80 0-276 221-503 503-503 z" fill="#E39D89"/>
		<path d="M1496 647c50 0 90 40 90 90 0 50-40 90-90 90l-180 0c-51 0-90-39-90-90 0-51 39-90 90-90l180 0 z" fill="#FF8687"/>
		<path d="M1640 863c30 0 53 24 53 53l0 109c0 32-24 53-54 53-29 0-53-23-53-53l0-109c0-32 25-53 54-53 z M1173 863c30 0 53 24 53 53l0 109c0 32-25 53-54 53-29 0-54-21-54-53l0-109c0-32 25-53 55-53 z" fill="#1C1C1C"/>
		<path d="M1184 0l454 242c36 19 61 58 61 102 0 49-33 89-75 106l2 0c35 19 55 56 55 94 0 60-51 106-107 106-37 0-70-23-102-39 27 15 44 42 44 72 0 44-35 81-80 81-13 0-25-3-36-9l-197-99c-22 38-63 63-109 63-69 0-126-56-126-126l0-90 252 0 0 72c37-59 73-172 92-241l-92-46-36-288 z" fill="#FBB8AB"/>
		<path d="M697-287c59 0 108 22 160 52 101 58 196 106 291 163 137 81 185 261 185 394 0 124-40 257-143 325l-636-342c-109-59-166-166-166-283 0-171 140-309 309-309 z" fill="#8C5543"/>
		<path d="M1622 0l-36 288-93 46c19 69 52 173 93 241l0-72 251 0 0 90c0 69-56 126-126 126-46 0-86-25-108-63l-197 99c-11 6-23 9-36 9-44 0-81-36-81-81 0-32 19-58 45-72-32 16-64 39-103 39-59 0-107-49-107-106 0-38 21-75 56-94l1 0c-43-17-74-59-74-108 0-42 25-82 60-100l455-242 z" fill="#FBB8AB"/>
		<path d="M2108-287c169 0 309 134 309 309 0 118-55 224-165 283l-666 360c-96-62-130-187-130-303 0-150 62-350 202-434 77-46 151-85 228-128 73-40 139-87 222-87 z" fill="#8C5543"/>
	</g></svg>
