<svg version="1.1" xmlns="http://www.w3.org/2000/svg" viewBox="0 0 2300 2300"><g transform="scale(1,-1) translate(-256, -1869)">
		<path d="M751 963c79 0 146 43 180 110 29 58 68 110 116 156 28 27 64 49 64 82 0 34-27 58-58 58-46 0-90-71-103-71-5 0-7 2-7 7 0 11 1 23 3 35 10 71 17 135 25 209 0 35-12 65-52 65-24 0-44-16-52-38-3-11-14-112-17-135-1-7-2-27-9-28l-3 4c3 56 7 146 15 197l1 10c0 30-25 52-54 52-37 0-55-28-55-71 0-58-7-103-12-156l-3 0-3 129c-1 30-30 49-56 49-27 0-51-24-51-51 0-49 6-100 9-147 0-2-1-3-4-3l-3 3c-5 44-5 116-63 116-29 0-54-22-54-52l1-7c15-121 37-236 48-357l1-2c6-23 13-44 21-61 24-51 91-103 175-103 z" fill="#966661"/>
		<path d="M897 856l0 112c0 14-7 30-24 30l-237 0c-17 0-24-16-24-30l0-112 285 0 z" fill="#0092E7"/>
		<path d="M2324-285c0 60-8 119-25 176-17 57-41 110-71 161-31 50-67 96-110 138-43 41-90 77-142 106-27 16-57 30-90 43-33 12-65 18-97 18l-214 0c-11 0-20 0-29-1-9-1-17-1-25-1l-12-1-13 1c-9 0-18 1-28 2-14 2-27 4-38 7l-34 9c-11 3-22 6-33 10-11 3-24 7-38 10l-285 71c-25 6-43 19-54 40-11 21-17 43-17 67l0 284c0 19-6 35-19 50-13 15-29 22-48 22l-294 0c-19 0-35-7-48-22-13-15-19-31-19-50l0-377c0-30 4-60 11-89 7-30 18-59 32-86 13-28 30-54 49-78 19-25 40-46 63-64 15-11 31-21 46-30 15-9 32-17 49-24l220-98c19-9 29-23 29-44l0-250 1284 0 z" fill="#00A6ED"/>
		<path d="M1630 128c87 0 161 69 161 161l0 191c0 88-71 162-161 162-87 0-162-73-162-162l0-191c0-85 70-161 162-161 z" fill="#8B5C56"/>
		<path d="M2052 713c80 0 143 62 143 143 0 80-64 142-143 142-80 0-143-62-143-142 0-80 62-143 143-143 z M1236 713c80 0 143 62 143 143 0 80-64 142-143 142-76 0-142-60-142-142 0-78 63-143 142-143 z" fill="#8B5C56"/>
		<path d="M1783 322c142 0 264 108 275 250 12 160 22 305 33 465l1 15 0 14c0 223-184 400-409 400l-73 0c-166 0-312-97-376-243-26-58-33-121-33-171l34-480c11-145 135-250 274-250l274 0 z" fill="#966661"/>
		<path d="M2079 927c25 1 47 17 52 43l48 245c1 5 2 9 2 13l0 13c0 98-67 129-134 162-105 50-138 160-269 160-45 0-86-21-133-21-52 0-90 27-141 27-88 0-138-67-198-124-75-67-195-74-195-202 0-10 1-19 3-28l48-245c5-26 28-42 53-43-3 40-7 81-7 121 0 65 75 62 75 137l0 70c0 22 16 35 34 40 106 28 222 35 330 35 105 0 221-6 329-35 18-5 35-18 35-40l0-69c0-78 76-73 76-145 0-37-5-75-8-114 z" fill="#2D242D"/>
		<path d="M1932 1002c25 0 46 18 46 44 0 60-122 82-160 82-31 0-70-5-70-48 0-36 22-43 47-43l25-1c59 0 85-34 112-34 z M1361 1002c24 0 54 35 115 35l24-1c24 0 45 18 45 44 0 43-35 48-70 48-38 0-160-22-160-80 0-27 23-46 46-46 z" fill="#372128"/>
		<path d="M1681 695c26 0 43 23 43 47 0 27-36 127-44 161-4 15-17 24-31 24-15 0-26-9-30-24-8-32-44-133-44-161 0-25 18-47 44-47l62 0 z" fill="#75443E"/>
		<path d="M1636 507c56 0 99 28 131 72 1 1 2 4 2 7 0 8-6 16-14 16l-2 0c-69-23-74-28-117-28-52 0-115 32-120 32-8 0-12-4-12-13 0-3 1-6 3-8 35-45 70-78 129-78 z" fill="#990839"/>
		<path d="M1931 855c17 0 35 12 35 31 0 35-60 89-120 89-54 0-119-48-119-90 0-19 18-30 35-30l169 0 z M1529 855c17 0 35 11 35 30 0 3-1 7-2 11-19 47-66 79-117 79-54 0-119-48-119-90 0-19 18-30 35-30l168 0 z" fill="#FFFFFF"/>
		<path d="M1904 855c1 7 2 13 2 20 0 46-37 80-80 80-22 0-41-8-56-23-19-20-23-46-23-66 0-3 1-5 2-8 4-2 8-3 13-3l142 0 z M1529 855c5 0 10 1 14 3l1 9 0 8c0 43-34 80-79 80-43 0-80-34-80-80 0-7 1-13 3-20l141 0 z" fill="#7D4533"/>
		<path d="M1871 855c2 6 3 12 3 18 0 29-23 50-50 50-29 0-49-24-49-50 0-6 1-12 3-18l93 0 z M1513 857c3 7 4 12 4 17 0 27-24 49-50 49-26 0-50-20-50-49 0-7 1-12 3-17l93 0 z" fill="#000000"/>
		<path d="M1811 895c-10 0-20 10-20 20 0 10 10 20 20 20 10 0 20-10 20-20 0-10-10-20-20-20 z M1445 895c10 0 20 10 20 20 0 10-10 20-20 20-10 0-20-10-20-20 0-10 10-20 20-20 z" fill="#FFFFFF"/>
	</g></svg>
