<svg version="1.1" xmlns="http://www.w3.org/2000/svg" viewBox="0 0 2300 2300"><g transform="scale(1,-1) translate(-256, -1869)">
		<path d="M1771 636c71 0 125 60 125 125 0 71-60 125-125 125-71 0-125-60-125-125 0-71 60-125 125-125 z M1022 636c71 0 125 60 125 125 0 71-60 125-125 125-69 0-124-56-124-125 0-69 56-125 124-125 z" fill="#E4B29A"/>
		<path d="M1755 1369c13 0 25 2 35 6 9 4 19 9 30 16l178 107-65 66c-24 25-50 48-77 70-28 22-57 41-87 56-30 15-61 22-92 22-4 0-10 0-18-1-8-1-14-4-17-7l-134 8c-11 0-21-3-30-11-10-9-15-21-15-34-17 0-33-4-46-11-13-7-20-21-20-40 0-8 2-16 6-23 4-8 10-14 18-17-5-9-7-18-7-26 0-9 4-19 11-28 7-9 15-14 24-14 0-15 2-27 6-36 4-9 10-15 17-19 7-4 16-6 27-7 11-1 23-2 36-2 23 0 45-4 65-11 19-8 38-17 55-26 17-10 34-19 51-26 16-8 32-12 49-12 z M1034 1369c17 0 33 4 50 12 16 7 33 16 50 26 17 9 36 18 56 26 19 7 41 11 64 11 13 0 25 1 36 2 11 1 20 3 27 7 7 4 13 10 17 19 4 9 6 21 6 36 9 0 18 5 25 14 7 9 10 19 10 28 0 8-2 17-7 26 8 3 14 9 18 17 4 7 6 15 6 23 0 19-7 33-20 40-13 7-29 11-46 11 0 14-5 25-15 34-10 8-20 11-31 11l-133-8c-3 3-9 6-17 7-8 1-14 1-18 1-31 0-62-7-92-22-30-15-59-34-86-56-28-22-54-45-78-70l-65-66 178-107c11-7 21-12 31-16 9-4 21-6 34-6 z" fill="#EEBFAA"/>
		<path d="M1676 1636c3 0 5 1 5 3l-2 5c-47 16-129 33-180 33l-18 0c-10-1-16 0-18-10l11 1c45 0 94-4 146-17l39-10c7-3 10-5 17-5 z M1421 1576c0 7 16 16 21 19 7 3 14 5 21 5l143 0c3 1 4 3 4 5l-4 4-143 0c-19 0-40-10-47-31l5-2 z M1449 1508c0 17 43 28 57 28l100-7c3 0 4 1 4 4 0 3-1 5-4 5l-100 7c-18 0-61-10-61-36l4-1 z M1750 1672c2 0 3 1 3 3l-3 5c-33 11-68 17-101 28l-7-4 108-32 z M1113 1636c13 0 24 6 37 10 54 17 117 22 166 22l10-1c0 10-7 9-17 10l-18 0c-52 0-135-18-181-33l-2-5c0-2 2-3 5-3 z M1369 1576l4 2c-7 21-28 31-47 31l-143 0-4-4c0-2 1-4 4-5l143 0c7 0 14-2 21-5 5-3 22-12 22-19 z M1340 1508l4 1c0 24-40 36-61 36l-100-7c-3 0-4-2-4-5 0-3 1-4 4-4l100 7c13 0 57-11 57-28 z M1039 1672l108 32-7 4c-34-7-68-17-101-28l-3-5c0-2 1-3 3-3 z" fill="#D6A089"/>
		<path d="M961 1258l-239 148 63 102c4 7 10 11 18 11 3 0 8-1 13-4l202-125c7-4 10-10 10-19 0-19-57-96-67-113 z M1833 1258l239 149-63 102c-5 7-11 11-18 11-11 0-92-49-151-88-56-38-74-43-74-60 0-18 56-95 67-114 z" fill="#0092E7"/>
		<path d="M2038-285c0 56-13 123-35 178 0 43 42 109 64 151l255 482c48 92 73 193 73 297 0 120-32 231-95 332l-168 271c-14 22-39 36-66 36-13 0-26-4-39-11l-202-124c-23-15-36-39-36-65 0-13 4-26 11-39l168-271c25-40 37-83 37-130 0-38-10-80-28-114l-234-441c-7-13-16-22-27-28-100 56-210 82-319 82-109 0-219-26-319-82-13 6-22 15-28 28l-233 441c-19 36-28 74-28 113 0 47 12 91 37 131l168 271c7 13 11 26 11 39 0 26-13 50-36 65l-202 124c-13 7-26 11-40 11-26 0-50-13-65-36l-169-271c-62-99-95-214-95-333 0-105 26-207 73-295l258-486c22-41 62-105 62-148-22-55-36-122-36-178l1283 0 z" fill="#00A6ED"/>
		<path d="M1397 107c74 0 142 58 142 135l0 158c0 78-67 135-142 135-73 0-143-58-143-135l0-158c0-77 65-135 143-135 z" fill="#E4B29A"/>
		<path d="M1522 263c132 0 238 102 246 229 11 143 19 284 30 427l1 14c0 216-157 378-367 378l-67 0c-155 0-282-96-338-223-23-53-29-108-29-156l1-13c11-143 19-284 30-427 11-130 117-229 247-229l246 0 z" fill="#EEBFAA"/>
		<path d="M1790 797c22 3 44 19 48 42l43 236c1 4 2 8 2 13 0 106-52 132-119 167-88 45-130 156-247 156-39 0-77-21-120-21-45 0-84 26-128 26-81 0-124-65-178-119-68-68-178-72-178-194 0-11 1-20 3-29l43-236c4-23 23-41 49-41-3 39-8 78-8 117 0 56 69 64 69 132l0 67c0 19 12 32 31 39 87 26 203 33 298 33 97 0 201-6 299-33 21-5 31-18 31-39l0-67c0-75 70-76 70-133 0-39-5-77-8-116 z" fill="#FFF9BA"/>
		<path d="M1666 761l-172 0c-7 0-18 5-18 15 0 51 56 93 106 93 43 0 106-39 106-87 0-12-12-21-22-21 z M1300 761c13 0 18 10 18 21 0 4-4 18-7 22-18 40-58 65-100 65-43 0-106-39-106-87 0-10 10-21 22-21l173 0 z" fill="#FFFFFF"/>
		<path d="M1633 761l-133 0c-2 6-3 12-3 18 0 38 29 69 69 69 38 0 70-29 70-69 0-6-1-12-3-18 z M1294 761c1 3 2 6 2 9l0 9c0 38-29 69-69 69-40 0-69-31-69-69 0-7 1-11 2-18l134 0 z" fill="#7D4533"/>
		<path d="M1601 761l-70 0c-3 7-5 13-5 18 0 23 18 40 40 40 22 0 39-17 39-40 0-7-1-13-4-18 z M1262 761c3 7 5 13 5 18 0 23-18 40-40 40-21 0-39-18-39-40 0-5 2-11 5-18l69 0 z" fill="#000000"/>
		<path d="M1544 793c9 0 13 4 13 13 0 8-4 12-13 12-6 0-12-5-12-12 0-7 5-13 12-13 z M1204 793c7 0 12 6 12 13 0 7-5 12-12 12-9 0-13-4-13-12 0-9 4-13 13-13 z" fill="#FFFFFF"/>
		<path d="M1427 594c24 0 43 18 43 43 0 16-20 72-34 113-15 44-16 52-39 52-15 0-25-7-30-22-8-27-43-121-43-143 0-22 19-43 42-43l61 0 z" fill="#D19479"/>
		<path d="M1397 459c24 0 47 6 70 18 24 12 55 42 55 54 0 7-5 11-12 11l-3 0c-70-24-66-26-110-26-38 0-74 8-108 25l-5 1c-7 0-12-4-12-11l2-6c19-40 80-66 123-66 z" fill="#990839"/>
		<path d="M1661 885c22 0 42 18 42 41 0 52-112 74-145 74-32 0-66-6-66-45 0-29 21-38 44-38 36 0 71-3 99-23l1 0c7-6 15-9 25-9 z M1137 885c18 0 51 32 103 32l22-1c25 0 43 20 43 42 0 37-35 43-64 43-36 0-147-23-147-74 0-25 21-42 43-42 z" fill="#A56953"/>
	</g></svg>
