<svg version="1.1" xmlns="http://www.w3.org/2000/svg" viewBox="0 0 2300 2300"><g transform="scale(1,-1) translate(-256, -1869)">
		<path d="M751 963c79 0 146 43 180 110 29 58 68 110 116 156 28 27 64 49 64 82 0 34-27 58-58 58-46 0-90-71-103-71-5 0-7 2-7 7 0 11 1 23 3 35 10 71 17 135 25 209 0 35-12 65-52 65-24 0-44-16-52-38-3-11-14-112-17-135-1-7-2-27-9-28l-3 4c3 56 7 146 15 197l1 10c0 30-25 52-54 52-37 0-55-28-55-71 0-58-7-103-12-156l-3 0-3 129c-1 30-30 49-56 49-27 0-51-24-51-51 0-49 6-100 9-147 0-2-1-3-4-3l-3 3c-5 44-5 116-63 116-29 0-54-22-54-52l1-7c15-121 37-236 48-357l1-2c6-23 13-44 21-61 24-51 91-103 175-103 z" fill="#EEBFAA"/>
		<path d="M897 856l0 112c0 14-7 30-24 30l-237 0c-17 0-24-16-24-30l0-112 285 0 z" fill="#F95725"/>
		<path d="M2324-285c0 60-8 119-25 176-17 57-41 110-71 161-31 50-67 96-110 138-43 41-90 77-142 106-27 16-57 30-90 43-33 12-65 18-97 18l-214 0c-11 0-20 0-29-1-9-1-17-1-25-1l-12-1-13 1c-9 0-18 1-28 2-14 2-27 4-38 7l-34 9c-11 3-22 6-33 10-11 3-24 7-38 10l-285 71c-25 6-43 19-54 40-11 21-17 43-17 67l0 284c0 19-6 35-19 50-13 15-29 22-48 22l-294 0c-19 0-35-7-48-22-13-15-19-31-19-50l0-377c0-30 4-60 11-89 7-30 18-59 32-86 13-28 30-54 49-78 19-25 40-46 63-64 15-11 31-21 46-30 15-9 32-17 49-24l220-98c19-9 29-23 29-44l0-250 1284 0 z" fill="#FF6723"/>
		<path d="M1646 143c85 0 179 58 179 157l0 185c0 99-93 157-179 157-86 0-178-59-178-157l0-185c0-100 94-157 178-157 z" fill="#E4B29A"/>
		<path d="M1268 499c250 0 501 4 763 4 66 29 109 95 109 168l0 348c0 69 59 102 59 191 0 35-9 68-27 99-63 111-155 73-224 181-38 58-98 97-172 97-49 0-84-27-130-27-45 0-85 27-130 27-70 0-129-32-169-94-29-44-69-75-119-94-81-30-134-101-134-190 0-92 59-122 59-187l0-352c0-78 47-142 115-171 z" fill="#FFF9BA"/>
		<path d="M2039 713c77 0 142 63 142 143 0 76-60 142-142 142-80 0-143-62-143-142 0-80 62-143 143-143 z M1254 713c80 0 143 62 143 143 0 80-64 142-143 142-81 0-142-65-142-142 0-80 62-143 142-143 z" fill="#E4B29A"/>
		<path d="M1721 321c159 0 323 119 340 290 9 133 16 250 26 383 2 29 5 58 5 87 0 61-54 113-116 113l-61 1-61-1c-92 0-155 51-193 124-13 23-26 37-53 37l-111 0c-121 0-226-73-273-178-21-49-22-94-24-148 0-12 0-24 1-35 5-133 9-250 16-383 0-13 3-28 8-43 52-173 196-247 332-247l164 0 z" fill="#EEBFAA"/>
		<path d="M1681 695c26 0 43 23 43 47 0 27-36 127-44 161-4 15-17 24-31 24-15 0-26-9-30-24-8-32-44-133-44-161 0-25 18-47 44-47l62 0 z" fill="#D19479"/>
		<path d="M1646 507c56 0 98 28 131 72 2 2 3 5 3 8 0 7-6 15-14 15l-2 0c-68-23-76-28-118-28-51 0-116 32-121 32-8 0-12-4-12-13 0-3 1-6 3-8 35-44 71-78 130-78 z" fill="#990839"/>
		<path d="M1931 855c17 0 35 12 35 31 0 35-60 89-120 89-54 0-119-48-119-90 0-19 18-30 35-30l169 0 z M1529 855c17 0 35 11 35 30 0 3-1 7-2 11-19 47-66 79-117 79-54 0-119-48-119-90 0-19 18-30 35-30l168 0 z" fill="#FFFFFF"/>
		<path d="M1904 855c1 7 2 13 2 20 0 46-37 80-80 80-22 0-41-8-56-23-19-20-23-46-23-66 0-3 1-5 2-8 4-2 8-3 13-3l142 0 z M1529 855c5 0 10 1 14 3l1 9 0 8c0 43-34 80-79 80-43 0-80-34-80-80 0-7 1-13 3-20l141 0 z" fill="#7D4533"/>
		<path d="M1871 855c2 6 3 12 3 18 0 29-23 50-50 50-29 0-49-24-49-50 0-6 1-12 3-18l93 0 z M1513 857c3 7 4 12 4 17 0 27-24 49-50 49-26 0-50-20-50-49 0-7 1-12 3-17l93 0 z" fill="#000000"/>
		<path d="M1846 895c-10 0-20 10-20 20 0 10 10 20 20 20 10 0 20-10 20-20 0-10-10-20-20-20 z M1445 895c10 0 20 10 20 20 0 10-10 20-20 20-10 0-20-10-20-20 0-10 10-20 20-20 z" fill="#FFFFFF"/>
		<path d="M1921 1018c11 0 22 11 22 22 0 44-121 65-155 65-12 0-22-9-22-21 0-12 10-22 22-22 70 0 128-44 133-44 z M1356 1018c5 0 63 44 133 44 12 0 22 10 22 22 0 12-10 21-22 21-30 0-154-21-154-65 0-12 11-22 21-22 z" fill="#A56953"/>
	</g></svg>
