<svg version="1.1" xmlns="http://www.w3.org/2000/svg" viewBox="0 0 2300 2300"><g transform="scale(1,-1) translate(-256, -1869)">
		<path d="M1987-287c161 0 281 145 281 299l0 1395c0 61-48 102-105 102-29 0-53-10-73-30l-327-329-705 0-335 329c-21 20-46 30-74 30-57 0-106-39-106-102l0-1403c0-157 123-291 282-291l1162 0 z" fill="#FFB02E"/>
		<path d="M2153 881c-14 0-27 5-39 16l-201 187c-11 11-17 24-17 39 0 17 6 30 17 40l201 187c12 11 25 16 40 16 28 0 61-20 61-52l0-374c0-35-31-59-62-59 z M663 881c14 0 27 5 39 16l201 187c11 11 16 24 16 39 0 14-5 30-16 40l-201 187c-12 11-25 16-40 16-28 0-61-20-61-52l0-374c0-35 31-59 62-59 z" fill="#FF822D"/>
		<path d="M2377-72c19 0 35 16 35 37 0 14-7 24-20 31l-287 144c-5 3-10 4-17 4-18 0-35-17-35-36 0-15 7-25 20-32l287-144c5-3 10-4 17-4 z M2088 216c7 0 12 1 17 4l287 143c13 7 20 17 20 32 0 21-16 37-36 37-7 0-11-1-16-4l-287-144c-13-7-20-17-20-32 0-19 16-36 35-36 z M435-72c7 0 12 1 17 4l287 144c13 7 20 17 20 32 0 18-15 36-36 36-6 0-11-1-16-4l-287-144c-13-7-20-17-20-31 0-21 16-37 35-37 z M723 216c21 0 36 18 36 36 0 15-7 25-20 32l-287 144c-5 3-9 4-16 4-20 0-36-16-36-37 0-15 7-25 20-32l287-143c5-3 10-4 16-4 z" fill="#FF6723"/>
		<path d="M1987-287c161 0 281 145 281 299l0 419c-63 48-140 72-215 72-191 0-360-153-360-359l0-431 294 0 z M1118-287l0 431c0 191-155 359-359 359-78 0-154-25-216-72l0-427c0-157 123-291 282-291l293 0 z" fill="#FF822D"/>
		<path d="M1406 356c9 0 18 4 25 11l75 75c7 7 11 16 11 25 0 19-15 36-36 36l-150 0c-19 0-36-15-36-36 0-9 4-18 11-25l75-75c7-7 16-11 25-11 z" fill="#F70A8D"/>
		<path d="M2340-287l0 431c0 161-130 287-287 287-161 0-288-129-288-287l0-431 575 0 z M1047-287l0 431c0 160-129 287-288 287-161 0-287-130-287-287l0-431 575 0 z" fill="#FFB02E"/>
		<path d="M1406-72c81 0 144 67 144 144l0 72c0 81-67 144-144 144-81 0-144-67-144-144l0-72c0-81 67-144 144-144 z" fill="#BB1D80"/>
		<path d="M1729 503c139 0 252 113 252 252 0 138-111 251-252 251-138 0-251-108-251-251 0-138 110-252 251-252 z M1083 503c135 0 251 111 251 252 0 140-116 251-251 251-138 0-252-110-252-251 0-139 113-252 252-252 z" fill="#FFFFFF"/>
		<path d="M2161 144c19 0 36 18 36 36l0 213c-24 13-48 23-72 29l0-242c0-19 15-36 36-36 z M1945 144c19 0 36 15 36 36l0 242c-26-6-50-16-72-29l0-213c0-19 15-36 36-36 z M867 144c19 0 36 15 36 36l0 213c-22 13-46 23-72 29l0-242c0-19 15-36 36-36 z M651 144c19 0 36 15 36 36l0 242c-24-6-48-16-72-29l0-213c0-19 15-36 36-36 z" fill="#FF6723"/>
	</g></svg>
