<svg version="1.1" xmlns="http://www.w3.org/2000/svg" viewBox="0 0 2300 2300"><g transform="scale(1,-1) translate(-256, -1869)">
		<path d="M975-287c80 0 143 62 143 143 0 80-64 144-143 144-79 0-144-63-144-144 0-80 65-143 144-143 z M1838-288c81 0 144 67 144 144 0 81-67 145-144 145-80 0-145-65-145-145 0-80 64-144 145-144 z" fill="#321B41"/>
		<path d="M2161-144c19 0 36 18 36 36l0 219c0 18-17 36-36 36l-1510 0c-18 0-35-17-35-36l0-219c0-19 17-36 35-36l1510 0 z" fill="#533566"/>
		<path d="M1457 1206c7 0 12 1 17 4l367 195c13 7 19 17 19 32 0 12-5 22-16 29l-311 207c-6 4-13 6-20 6l-212 0c-7 0-14-2-20-6l-321-206c-9-7-16-17-16-29 0-15 6-27 19-34l380-195c4-2 9-3 16-3l98 0 z M1448 1277l-80 0-317 163 260 167 191 0 252-167-306-163 z" fill="#636363"/>
		<path d="M1693 1006c38 0 72 33 72 72l0 145c0 40-34 71-72 71l-575 0c-38 0-72-31-72-71l0-145c0-38 33-72 72-72l575 0 z M1478 1582c38 0 72 31 72 71 0 39-31 72-72 72l-144 0c-39 0-72-31-72-72 0-40 34-71 72-71l144 0 z" fill="#212121"/>
		<path d="M2341 0c40 0 71 34 71 72l0 79-671 43c-130 8-200 22-335 22-138 0-218-15-335-22l-671-43 0-79c0-39 31-72 72-72l1869 0 z M2176 677c131 0 236 105 236 236 0 131-107 237-236 237l-1540 0c-132 0-236-109-236-237 0-131 105-236 236-236l1540 0 z" fill="#00F397"/>
		<path d="M2412 144l0 793-2012 0 0-793 2012 0 z" fill="#FCD53F"/>
		<path d="M2268 144l0 665c0 29-21 54-53 54l-324 0c-32 0-54-24-54-54l0-665 431 0 z" fill="#FF6723"/>
		<path d="M2142 431l-179 0c-30 0-54 25-54 54l0 180c0 30 22 54 54 54l179 0c32 0 54-24 54-54l0-180c0-30-25-54-54-54 z M1495 431c30 0 54 25 54 54l0 180c0 30-22 54-54 54l-179 0c-32 0-54-24-54-54l0-180c0-29 24-54 54-54l179 0 z M849 431c29 0 54 24 54 54l0 180c0 30-22 54-54 54l-179 0c-30 0-54-22-54-54l0-180c0-30 25-54 54-54l179 0 z" fill="#5092FF"/>
	</g></svg>
