<svg version="1.1" xmlns="http://www.w3.org/2000/svg" viewBox="0 0 2300 2300"><g transform="scale(1,-1) translate(-256, -1869)">
		<path d="M2129-215c40 0 67 30 67 67l0 296c0 38-31 67-68 67l-151 0c-37 0-68-29-68-67l0-296c0-38 31-67 68-67l152 0 z M835-215c37 0 68 29 68 67l0 296c0 39-31 68-68 68l-152 0c-39 0-68-31-68-68l0-296c0-38 31-67 68-67l152 0 z" fill="#321B41"/>
		<path d="M2095 0c56 0 102 45 102 102l0 401c-250 46-536 102-791 102-37 0-75-6-112-9-71-7-140-15-211-24-144-16-340-37-468-69l0-401c0-56 45-102 102-102l1378 0 z" fill="#F9C23C"/>
		<path d="M2356 719c15 0 29 6 40 17 11 11 16 24 16 39l0 247c0 15-5 29-16 40-11 11-25 16-40 16l-31 0c-19 0-32-5-40-16-9-11-14-23-16-38-2-10-3-19-3-29l1-18c1-17 1-31 1-42l-143 0 0-144 143 0c0-19 4-35 12-50 8-15 23-22 45-22l31 0 z M487 719c22 0 37 7 45 22 7 15 11 31 11 50l144 0 0 144-144 0c0 11 1 25 2 42l0 13c0 12-1 23-2 34-3 15-8 27-16 38-8 11-21 16-40 16l-31 0c-15 0-28-5-39-16-11-11-17-25-17-40l0-247c0-15 6-28 17-39 11-11 24-17 39-17l31 0 z" fill="#321B41"/>
		<path d="M2197 503l0 914c0 136-115 236-246 236l-1091 0c-130 0-245-101-245-236l0-914 1582 0 z" fill="#BEBEBE"/>
		<path d="M1982 575c39 0 71 33 71 71l0 576-431 48c-82 8-131 24-216 24-87 0-138-16-216-24l-431-48 0-576c0-38 32-71 71-71l1152 0 z" fill="#00A6ED"/>
		<path d="M1658 216c19 0 35 15 35 36 0 21-16 36-35 36l-504 0c-19 0-36-15-36-36 0-19 15-36 36-36l504 0 z M1801 360c19 0 36 15 36 36 0 19-15 35-36 35l-790 0c-19 0-36-17-36-35 0-19 15-36 36-36l790 0 z" fill="#E6E6E6"/>
		<path d="M2197 144l0 287-144 0c-38 0-72-31-72-71l0-144c0-39 31-72 72-72l144 0 z M759 144c39 0 72 31 72 72l0 144c0 40-34 71-72 71l-144 0 0-287 144 0 z" fill="#FFFFFF"/>
		<path d="M2053 1222l0 145c0 38-32 71-71 71l-1152 0c-38 0-71-32-71-71l0-145 1294 0 z" fill="#433B6B"/>
	</g></svg>
