<svg version="1.1" xmlns="http://www.w3.org/2000/svg" viewBox="0 0 2300 2300"><g transform="scale(1,-1) translate(-256, -1869)">
		<path d="M725 431c58 0 108 49 108 108 0 57-46 108-108 108-58 0-108-49-108-108 0-58 49-108 108-108 z" fill="#FFB02E"/>
		<path d="M2342-144l0 288-1509 0 0-288 1509 0 z" fill="#1C1C1C"/>
		<path d="M1336 791l0 215 114 114c20 20 30 44 30 73l0 173-719 0 0-173c0-29 10-53 30-73l112-114 0-215 433 0 z" fill="#636363"/>
		<path d="M1947 144l0 719-1060 0c-109 0-198-88-198-198l0-393c0-69 56-128 128-128l1130 0 z M1118 1366l362 72 0 143c0 38-33 72-72 72l-575 0c-39 0-72-31-72-72l0-143 357-72 z" fill="#636363"/>
		<path d="M2342 144l0 1167c0 69-56 126-126 126l-467 0c-69 0-126-56-126-126l0-1167 719 0 z M833-215l0 359-72 72-346-342c-11-11-16-23-16-37 0-30 24-52 53-52l381 0 z M2134 863l-302 0c-35 0-65 27-65 64l0 302c0 35 28 65 65 65l302 0c37 0 64-30 64-65l0-302c0-35-30-64-64-64 z" fill="#F92F60"/>
		<path d="M2342 144l0 144-1653 0 0-144 1653 0 z" fill="#D3D3D3"/>
		<path d="M1480 1294l0 144-719 0 0-144 719 0 z" fill="#FFB02E"/>
		<path d="M1334-215c80 0 144 64 144 143 0 81-67 144-144 144-81 0-144-67-144-144 0-80 65-143 144-143 z M1047-215c80 0 143 62 143 143 0 80-64 144-143 144-79 0-144-63-144-144 0-80 65-143 144-143 z M2197-215c120 0 215 97 215 215 0 121-97 216-215 216-121 0-216-99-216-216 0 121-99 216-216 216-119 0-215-97-215-216 0-120 97-215 215-215 121 0 216 97 216 215 0-119 97-215 216-215 z" fill="#636363"/>
		<path d="M2197-144c80 0 143 65 143 144 0 80-64 144-143 144-79 0-144-63-144-144 0-81 67-144 144-144 z M1334-144c38 0 72 33 72 72 0 39-31 72-72 72l-287 0c-39 0-72-31-72-72 0-39 34-72 72-72l287 0 z M1765-144c81 0 144 67 144 144 0 81-67 144-144 144-80 0-143-65-143-144 0-80 64-144 143-144 z" fill="#D3D3D3"/>
	</g></svg>
