<svg version="1.1" xmlns="http://www.w3.org/2000/svg" viewBox="0 0 2300 2300"><g transform="scale(1,-1) translate(-256, -1869)">
		<path d="M1549 503c117 0 181 16 287 24l575 48 0 791-728 0c-194 0-371-83-496-216 0-76-76-182-104-251l-181-120c-34-22-57-34-90-60-11-8-111-128-125-144l575-48c111-8 178-24 287-24 z" fill="#D3D3D3"/>
		<path d="M2412-72l0 647-1725 0-169-299-9-14c-22-27-37-72-37-118 0-121 97-216 216-216l1724 0 z" fill="#E6E6E6"/>
		<path d="M687-72l0 647-241-298c-30-36-46-83-46-132 0-120 97-217 217-217l70 0 z" fill="#636363"/>
		<path d="M1822 719c128 0 257 61 340 172l89 121c11 15 17 32 17 51 0 47-36 87-85 87l-996 0c-75-77-146-168-221-254l-154-177 1010 0 z" fill="#26C9FC"/>
		<path d="M2412-72l0 288-777 0c-147 0-273-67-356-173l-89-115 1222 0 z M2268 1078c-7 40-38 72-82 72l-999 0c-23-23-42-48-63-72l1144 0 z" fill="#46A4FB"/>
		<path d="M1046 288c38 0 72 33 72 72 0 40-34 71-72 71l-144 0c-38 0-72-31-72-71 0-39 34-72 72-72l144 0 z" fill="#FF6723"/>
		<path d="M2412-287l0 215-2012 0 0-215 2012 0 z" fill="#321B41"/>
	</g></svg>
