<svg version="1.1" xmlns="http://www.w3.org/2000/svg" viewBox="0 0 2300 2300"><g transform="scale(1,-1) translate(-256, -1869)">
		<path d="M2412-72l0 1294c-20 4-283 72-287 72-230 0-673-208-802-360-9-11-14-24-25-35l-225-216c-42-42-71-58-112-108-8-12-121-213-132-235-31-54-46-112-46-175 0-31 4-61 11-92 15-65 25-145 93-145l1525 0 z" fill="#F4F4F4"/>
		<path d="M2412-287l0 215-2012 0 0-215 2012 0 z" fill="#433B6B"/>
		<path d="M2412-72l0 288-1625 0c-3-17-4-34-4-53 0-28 4-57 11-86l23-94c8-31 36-55 70-55l1525 0 z" fill="#F9C23C"/>
		<path d="M1285 575c124 0 233 62 300 160l217 327c67 100 179 160 299 160l311 0 0 144-670 0c-145 0-280-56-380-144 3-23 4-47 4-70 0-32-9-163-32-181l-195-168c-38-33-59-46-97-84 0 0-78-135-81-144l324 0 z" fill="#46A4FB"/>
		<path d="M2412 575l-471 0c-79 0-144 63-144 144 0 25 6 49 19 71 85 147 143 288 332 288l264 0 0-503 z M1149 719c113 0 223 53 293 150l170 239c9 13 14 27 14 42 0 38-31 72-72 72l-192 0c-48-42-88-92-121-149l-199-354 107 0 z" fill="#26C9FC"/>
		<path d="M1190 288c39 0 72 31 72 72 0 40-34 71-72 71l-143 0c-38 0-72-31-72-71 0-39 31-72 72-72l143 0 z" fill="#F92F60"/>
		<path d="M2412 288l0 143-575 0c-38 0-72-31-72-71 0-39 31-72 72-72l575 0 z" fill="#E6E6E6"/>
	</g></svg>
