<svg version="1.1" xmlns="http://www.w3.org/2000/svg" viewBox="0 0 2300 2300"><g transform="scale(1,-1) translate(-256, -1869)">
		<path d="M2376 863c10 0 19 4 26 11 7 7 10 15 10 25 0 9-4 18-11 25-7 7-16 11-25 11l-165 0c-9 0-14 5-14 14l0 187c0 9 5 14 14 14l165 0c10 0 19 4 26 11 7 7 10 15 10 25 0 10-3 19-10 26-7 7-16 10-26 10l-1150 0c-10 0-18-3-25-10-7-7-11-16-11-26 0-11 3-18 8-23 5-5 11-9 18-11 5-1 10-2 16-2l30 0 0-215-23 0c-9 0-16-1-23-3-7-2-13-5-18-10-5-5-8-13-8-23 0-10 4-18 11-25 7-7 15-11 25-11l1150 0 z M2110 935l-187 0c-7 0-14 7-14 14l0 187c0 7 7 14 14 14l187 0c8 0 15-6 15-14l0-187c0-8-7-14-15-14 z M1823 935l-187 0c-9 0-14 5-14 14l0 194c0 5 2 7 7 7l201 0c5 0 7-2 7-7l0-194c0-9-5-14-14-14 z M1535 935l-187 0c-7 0-14 7-14 14l0 187c0 7 7 14 14 14l187 0c8 0 15-6 15-14l0-187c0-8-7-14-15-14 z" fill="#D3D3D3"/>
		<path d="M2291-72c66 0 121 53 121 122l0 317-2012 0 0-311c0-69 56-128 128-128l1763 0 z M1412 431c33 0 62 1 89 3 26 1 52 3 78 6 25 2 51 5 78 8 26 3 55 5 88 7l667 48 0 238c0 17-3 33-9 48-7 15-15 28-26 39-11 11-24 19-39 26-15 6-30 9-47 9l-1029 0 0 376c0 17-3 34-10 50-7 15-16 29-27 41-12 11-26 20-41 27-16 7-33 10-50 10l-504 0c-22 0-40-4-53-13-13-9-24-20-31-34-7-14-13-30-16-47l-9-51c15 0 33 0 52 1l10 0c15 0 31-2 45-5 17-4 31-12 42-23 11-11 17-29 17-52l0-489c0-21-8-40-23-55-16-16-35-24-56-24l-186 0-11-72 667-48c33-2 62-4 89-7 27-3 53-6 78-8 25-3 51-5 78-6 27-2 56-3 89-3 z" fill="#F8312F"/>
		<path d="M2412 360l0 143-2002 0c-5-38-10-72-10-111l0-32 2012 0 z" fill="#F4F4F4"/>
		<path d="M1047 1366l0 29c0 24-18 43-43 43l-203 0c-25 0-42-21-42-43l0-29 288 0 z" fill="#9B9B9B"/>
		<path d="M975 1438l0 72c0 40-34 71-72 71-38 0-72-31-72-71l0-72 144 0 z" fill="#F92F60"/>
		<path d="M1945-287c138 0 252 110 252 251 0 139-113 252-252 252-139 0-252-113-252-252 0-138 111-251 252-251 z M867-287c138 0 251 108 251 251 0 138-110 252-251 252-139 0-252-113-252-252 0-138 111-251 252-251 z" fill="#321B41"/>
		<path d="M1945-144c58 0 108 49 108 108 0 57-46 108-108 108-61 0-108-48-108-108 0-58 49-108 108-108 z M867-144c58 0 108 49 108 108 0 58-49 108-108 108-61 0-108-48-108-108 0-58 49-108 108-108 z" fill="#F4F4F4"/>
		<path d="M1047 575l-216 0c-39 0-72 31-72 72l0 503c0 39 31 72 72 72l216 0c40 0 71-34 71-72l0-503c0-38-31-72-71-72 z M608 575c42 0 79 35 79 79l0 489c0 42-35 79-79 79l-87 0-99-647 186 0 z" fill="#26C9FC"/>
		<path d="M2412 144l0 144-72 0c-39 0-72-34-72-72 0-38 33-72 72-72l72 0 z M400 72c39 0 72 34 72 72l0 72c0 38-33 72-72 72l0-216 z" fill="#FCD53F"/>
	</g></svg>
