<svg version="1.1" xmlns="http://www.w3.org/2000/svg" viewBox="0 0 2300 2300"><g transform="scale(1,-1) translate(-256, -1869)">
		<path d="M2412 1294l-2012 0 0 72 2012 0 0-72 z M2291-287c71 0 121 61 121 129l0 1037c0 71-58 127-128 127l-519 0 0 25c-2 25-10 47-42 47l-634 0c-33 0-41-23-41-47l-1-25-517 0c-72 0-130-58-130-129l0-14 287-216 0-287-287-216 0-54 1-18c16-164 128-298 284-343 29-10 61-16 92-16l1514 0 z M2412 1510l0 71-2012 0 0-71 2012 0 z" fill="#D3D3D3"/>
		<path d="M2412 1366l0 144-2012 0 0-144 2012 0 z" fill="#636363"/>
		<path d="M2412 720l0 159c0 71-58 127-128 127l-1755 0c-83 0-129-66-129-143l72-143 1940 0 z" fill="#0074BA"/>
		<path d="M2412-72l0 144-2012 0c5-51 20-99 43-144l1969 0 z" fill="#F9C23C"/>
		<path d="M2189 288c43 0 79 34 79 79l0 417c0 42-35 79-79 79l-273 0c-42 0-79-35-79-79l0-417c0-45 36-79 79-79l273 0 z M1614 288c43 0 79 34 79 79l0 417c0 42-35 79-79 79l-273 0c-42 0-79-35-79-79l0-417c0-45 36-79 79-79l273 0 z M1039 144c43 0 79 34 79 79l0 561c0 42-35 79-79 79l-639 0 0-719 639 0 z" fill="#00A6ED"/>
		<path d="M1550 1078c0 50-27 98-72 125l0 163 144 0c80 0 143 65 143 144 0 80-62 143-143 143l-432 0c-80 0-143-62-143-143 0-80 64-144 143-144l144 0 0-163c-45-27-72-75-72-125l288 0 z" fill="#9B9B9B"/>
	</g></svg>
