<svg version="1.1" xmlns="http://www.w3.org/2000/svg" viewBox="0 0 2300 2300"><g transform="scale(1,-1) translate(-256, -1869)">
		<path d="M2125-215c38 0 72 31 72 71l0 288-288 0 0-288c0-40 34-71 72-71l144 0 z M831-215c38 0 72 31 72 71l0 288-288 0 0-288c0-40 34-71 72-71l144 0 z" fill="#321B41"/>
		<path d="M2039 503l-211 0c-13 0-23 10-23 24 0 104 83 192 190 192l45 0c46 0 85-37 85-86l0-44c0-49-42-86-86-86 z M985 503c14 0 24 11 24 24 0 105-84 192-192 192l-44 0c-48 0-86-38-86-86l0-44c0-49 42-86 86-86l212 0 z" fill="#212121"/>
		<path d="M2053 0c81 0 144 67 144 144l-1582 0c0-81 67-144 144-144l1294 0 z" fill="#9B9B9B"/>
		<path d="M1502-72c26 0 48 20 48 48l0 48c0 26-20 48-48 48l-48 0-144 0c-28 0-48-22-48-48l0-48c0-26 20-48 48-48l192 0 z" fill="#D3D3D3"/>
		<path d="M1404 515c82 0 136 13 215 20l430 40-146 393c-5 10-14 38-22 46l-955 0c-8-15-14-31-21-46l-146-393 430-40c81-8 134-20 215-20 z" fill="#26C9FC"/>
		<path d="M2197 144l0 196c0 99-57 190-147 235l-1288 0c-91-45-147-136-147-235l0-196 1582 0 z M1886 1006c-44 84-122 144-228 144l-504 0c-105 0-187-58-232-144l964 0 z" fill="#F8312F"/>
		<path d="M759 216c39 0 72 31 72 72l0 72c0 40-34 71-72 71l-127 0c-11-30-17-60-17-91l0-124 144 0 z M2197 216l0 124c0 31-6 61-17 91l-127 0c-38 0-72-31-72-71l0-72c0-39 31-72 72-72l144 0 z" fill="#D3D3D3"/>
		<path d="M2197 216l0 124c0 31-7 62-18 91l-126 0c-38 0-72-31-72-71l0-72c0-39 31-72 72-72l144 0 z M759 216c39 0 72 31 72 72l0 72c0 40-34 71-72 71l-126 0c-11-29-18-60-18-91l0-124 144 0 z" fill="#E6E6E6"/>
		<path d="M1550 216c38 0 72 33 72 72l0 72c0 40-34 71-72 71l-72 0-216 0c-38 0-72-31-72-71l0-72c0-39 34-72 72-72l288 0 z" fill="#636363"/>
		<path d="M1801 216c57 0 108 46 108 108 0 58-47 107-108 107-58 0-108-47-108-107 0-58 49-108 108-108 z M1011 216c58 0 107 47 107 108 0 59-49 107-107 107-60 0-108-49-108-107 0-63 50-108 108-108 z" fill="#FFB02E"/>
	</g></svg>
