<svg version="1.1" xmlns="http://www.w3.org/2000/svg" viewBox="0 0 2300 2300"><g transform="scale(1,-1) translate(-256, -1869)">
		<path d="M2268-72l0 432-1725 0 0-432 1725 0 z" fill="#000000"/>
		<path d="M2271-72c19 0 38 4 55 11 17 7 32 18 45 31 13 13 23 28 30 45 7 17 11 35 11 54 0 11 0 24 1 38l0 11-1 26c-3 17-7 36-12 55l-16 54 6 21 22 89c0 19-4 38-11 55-7 17-17 31-30 44-13 13-28 23-45 30-17 7-36 11-55 11l-75 0-99 144c-9 14-18 26-26 35-8 9-16 22-23 37-4 8-9 22-15 41-7 19-13 40-19 63-7 22-13 44-19 65-6 21-11 36-15 47-4 11-9 22-15 33l-17 32c-12 23-29 42-52 57-23 14-48 21-74 21l-688 0c-27 0-52-7-74-21-22-14-39-33-52-57l-18-32c-7-12-12-23-15-33-11-36-21-73-30-110l-28-113-158-209-218 0c-20 0-39-4-56-11-17-8-32-18-45-31-13-13-22-29-29-46-7-17-11-36-11-56l95-108-95-107 0-75c0-19 4-37 11-54 7-17 18-32 31-45 13-13 28-24 45-31 17-7 35-11 54-11l41 0c-2 12-3 24-3 36 0 40 8 78 23 113 15 35 35 65 61 91 26 26 57 47 92 62 35 15 72 22 112 22 40 0 77-7 112-22 35-15 65-36 91-62 26-26 47-56 62-91 15-35 22-73 22-113l0-18c0-6-1-12-2-18l508 0c-2 14-3 28-3 42 0 28 4 55 13 81 13 39 32 73 59 103 27 30 59 54 97 72 37 17 77 26 119 26 40 0 78-7 113-22 35-15 65-36 91-62 26-26 47-56 62-91 15-35 22-73 22-113 0-12-1-24-3-36l41 0 z" fill="#636363"/>
		<path d="M1945-287c138 0 252 110 252 251 0 139-113 252-252 252-139 0-252-113-252-252 0-138 111-251 252-251 z M867-287c138 0 251 108 251 251 0 138-110 252-251 252-139 0-252-113-252-252 0-138 111-251 252-251 z" fill="#321B41"/>
		<path d="M1945-144c58 0 108 49 108 108 0 57-46 108-108 108-61 0-108-48-108-108 0-58 49-108 108-108 z M867-144c58 0 108 49 108 108 0 58-49 108-108 108-61 0-108-48-108-108 0-58 49-108 108-108 z M1660-72c-2 14-3 28-3 42 0 28 4 55 13 81 13 39 32 73 59 103 27 30 59 54 97 72 37 17 77 26 119 26l18 0 18-2 0 253-1150 0 0-253c11 1 21 1 32 1 31 0 63-4 92-14 39-13 73-32 103-57 29-26 53-57 70-94 17-37 26-77 26-122l0-18c0-6-1-12-2-18l508 0 z M1550 1078l0 72-144 0 0-72 144 0 z" fill="#D3D3D3"/>
		<path d="M472 144c40 0 71 34 71 72l0 72c0 38-31 72-71 72l-72 0 0-216 72 0 z" fill="#FFF478"/>
		<path d="M2412 144l0 216-36 0c-63 0-108-51-108-113 0-60 60-103 112-103l32 0 z M1550 1150l0 72c0 38-33 72-72 72-39 0-72-31-72-72l0-72 144 0 z" fill="#F92F60"/>
		<path d="M2197 503l-577 0c-40 0-70 33-70 71l0 290c0 38 30 71 70 71l361 0 216-432 z M1336 503c40 0 70 33 70 71l0 290c0 38-30 71-70 71l-361 0-216-432 577 0 z" fill="#26C9FC"/>
		<path d="M1084 431c18 0 34 16 34 35l0 147c0 18-15 34-34 34l-28 0c-44 0-81-36-81-81l0-53c0-44 34-82 81-82l28 0 z" fill="#D3D3D3"/>
		<path d="M1084 431c18 0 34 16 34 35l0 147c0 18-15 34-34 34l-28 0c-44 0-81-36-81-81l0-53c0-44 34-82 81-82l28 0 z" fill="#9B9B9B"/>
	</g></svg>
