<svg version="1.1" xmlns="http://www.w3.org/2000/svg" viewBox="0 0 2300 2300"><g transform="scale(1,-1) translate(-256, -1869)">
		<path d="M1334 360l-72 646-502 0c-44 0-85-23-107-64l-242-460c-8-15-11-34-11-51l934-71 z" fill="#E6E6E6"/>
		<path d="M896 503c42 0 79 35 79 79l0 273c0 42-35 79-79 79l-246 0-228-431 474 0 z" fill="#26C9FC"/>
		<path d="M2283-72c18 0 35 3 51 10 15 7 29 16 41 28 11 11 20 25 27 41 7 15 10 32 10 50l0 374-539 216-407-144c-20-7-38-14-54-21l-47-21c-15-7-31-13-47-18-17-5-35-9-56-12-28-4-53-6-76-7l-20 0-47 1c-22 1-44 2-67 4-23 1-49 2-77 2l-575 0 0-375c0-18 3-35 10-50 7-15 16-29 28-40 11-12 25-21 40-28 15-7 32-10 50-10l1755 0 z" fill="#FF822D"/>
		<path d="M1945-287c138 0 252 110 252 251 0 139-113 252-252 252-139 0-252-113-252-252 0-138 111-251 252-251 z M867-287c138 0 251 108 251 251 0 138-110 252-251 252-139 0-252-113-252-252 0-138 111-251 252-251 z" fill="#321B41"/>
		<path d="M1945-144c58 0 108 49 108 108 0 57-46 108-108 108-61 0-108-48-108-108 0-58 49-108 108-108 z M867-144c58 0 108 49 108 108 0 58-49 108-108 108-61 0-108-48-108-108 0-58 49-108 108-108 z" fill="#F4F4F4"/>
		<path d="M2412 72l0 216-36 0c-63 0-108-51-108-113 0-60 60-103 112-103l32 0 z" fill="#CA0B4A"/>
		<path d="M465 72l-65 0 0 288 65 0c44 0 78-37 78-79l0-131c0-44-36-78-78-78 z M2412 431l0 719c0 121-97 216-215 216l-719 0c-121 0-216-99-216-216l0-719 1150 0 z" fill="#FCD53F"/>
	</g></svg>
