<svg version="1.1" xmlns="http://www.w3.org/2000/svg" viewBox="0 0 2300 2300"><g transform="scale(1,-1) translate(-256, -1869)">
		<path d="M1405 72c33 0 63 1 90 3 27 1 53 3 78 6 25 2 51 5 78 8 27 3 56 5 89 7l671 48 0 346-2 33-4 32c-1 10-3 17-4 20l-94 201c-2 5-4 10-5 17-1 7-3 13-4 18l-34 138-6 28c-2 10-5 19-8 27-10 22-23 42-38 60-15 18-33 33-52 46-20 13-41 23-64 30-23 7-46 10-70 10l-694 0c-38 0-74-10-107-30-33-21-61-46-82-77l-13-18c-5-7-10-13-13-19l-51-111c-7-16-14-31-21-44-7-14-14-26-19-37-5-11-9-18-12-22-11-15-21-28-30-37-9-9-20-21-32-35l-123-145-223 0c-23 0-44-3-65-10-21-7-40-17-57-30-17-13-33-28-46-45-13-18-23-38-30-59l19-107c-4-11-8-25-12-40-5-16-8-32-11-48-3-17-5-33-6-49l-1-19 2-24 671-48c33-2 62-4 89-7 27-3 53-6 78-8 25-3 52-5 79-6 27-2 56-3 89-3 z" fill="#F8312F"/>
		<path d="M2312 0c56 0 100 44 100 100l0 44-2012 0 0-44c0-56 44-100 100-100l1812 0 z" fill="#9B9B9B"/>
		<path d="M2401 575c-5 35-15 69-27 102l-118 314c-3 5-3 10-6 15l-52 0c-41 0-75-31-75-74l0-288c0-38 29-69 69-69l209 0 z M1910 575c40 0 69 31 69 69l0 293c0 38-29 69-69 69l-291 0c-40 0-69-31-69-69l0-293c0-38 29-69 69-69l291 0 z M1336 575c40 0 69 31 69 69l0 293c0 38-29 69-69 69l-218 0-288-431 506 0 z" fill="#26C9FC"/>
		<path d="M471 216c38 0 72 33 72 72l0 72c0 40-34 71-72 71l-61 0c-5-15-8-30-9-45l-1-46 0-124 71 0 z" fill="#E6E6E6"/>
		<path d="M1945-215c138 0 252 110 252 251 0 139-113 252-252 252-139 0-252-113-252-252 0-138 111-251 252-251 z M868-215c138 0 252 110 252 251 0 139-113 252-252 252-138 0-251-111-251-252 0-138 108-251 251-251 z" fill="#321B41"/>
		<path d="M1945-72c58 0 108 49 108 108 0 57-46 108-108 108-61 0-108-48-108-108 0-58 49-108 108-108 z M867-72c58 0 108 49 108 108 0 58-49 108-108 108-61 0-108-48-108-108 0-58 49-108 108-108 z" fill="#E6E6E6"/>
		<path d="M2411 216l0 215-35 0c-60 0-108-49-108-107 0-62 53-108 111-108l32 0 z" fill="#CA0B4A"/>
		<path d="M1084 503c18 0 34 16 34 35l0 146c0 18-13 35-34 35l-28 0c-44 0-81-36-81-81l0-53c0-44 34-82 81-82l28 0 z" fill="#321B41"/>
	</g></svg>
