<svg version="1.1" xmlns="http://www.w3.org/2000/svg" viewBox="0 0 2300 2300"><g transform="scale(1,-1) translate(-256, -1869)">
		<path d="M1323 1213l86 93-94 87-86-92 94-88 z" fill="#F4C6AD"/>
		<path d="M1232 876c8 46 40 166 71 205 31 36 55 76 55 125 0 68-70 105-128 105-134 0-257-255-284-351l123-84 163 0 z" fill="#00A6ED"/>
		<path d="M1218 615c27 0 49 15 61 39l84 170-135 53-282 83c-11-28-17-64-17-94 0-46 42-92 75-115l175-123c13-9 26-13 39-13 z" fill="#9B9B9B"/>
		<path d="M1460 1243c52 0 63 44 79 84 1 2 2 3 5 3 16 0 29 3 29 22 0 15-12 30-12 46 0 24 14 43 14 68 0 61-40 86-87 100-23 7-45 18-76 18-40 0-73-23-90-57-1-3-6-13-6-16l1-78c0-25-2-49-2-74 0-60 91-116 145-116 z" fill="#FFD7C2"/>
		<path d="M1532 1391l5 2c2 1 3 3 4 4 0 1 0 3 1 5l0 4c0 8-3 15-10 21-7 5-14 8-22 8-2 0-5 0-8-1-4-1-7-3-10-5-3-2-6-4-8-7-1-2-2-4-2-6l-1-4c0-3 2-6 7-8 4-3 9-5 15-6 5-2 11-3 17-4l12-3 z" fill="#FFFFFF"/>
		<path d="M1537 1390c3 3 5 8 5 15 0 11-6 22-17 22-15 0-22-16-22-28l34-9 z" fill="#7D4533"/>
		<path d="M1531 1391c4 4 6 8 6 12 0 7-3 13-10 13-10 0-12-9-12-19l16-6 z" fill="#000000"/>
		<path d="M1533 1405c3 0 5 2 5 5-2 3-4 5-5 5l-4-5c0-2 1-4 4-5 z" fill="#FFFFFF"/>
		<path d="M1509 1304c5 0 8 2 8 7 0 5-2 7-7 7-30 0-18 28-31 28-3 0-6-4-6-7 0-18 17-35 36-35 z" fill="#990839"/>
		<path d="M1542 1441c7 0 10 5 13 10 0 19-23 21-38 21-11 0-32-1-32-16 0-9 4-13 13-13 7 0 12 3 19 3 9 0 17-5 25-5 z" fill="#212121"/>
		<path d="M1328 1390c7 0 14 1 21 4 7 2 12 6 15 12-5 7-8 15-8 24 0 9 4 19 11 28 7 9 15 13 26 13l7 0c2-1 4-1 6-1 3-1 5-2 7-2 7 0 13 2 16 7 3 4 5 9 8 14 2 5 5 9 8 14 3 4 9 6 18 6 10 0 20-1 30-4l59-18c10-3 20-4 30-4 13 0 24 5 34 14 9 9 14 19 14 32 0 12-3 22-10 30-7 8-16 14-27 17-5 1-9 4-12 9l-9 14c-3 5-7 9-11 14-5 4-11 7-19 8l-14 1c-5-1-9-2-14-2-8 0-15 1-21 4-6 2-11 4-16 7l-15 8c-5 2-10 3-16 3-5 0-11-1-16-2-5-1-11-2-16-2-7 0-15 1-22 3-7 2-15 3-23 3-20 0-36-6-48-17-12-12-21-27-28-44-7-17-12-36-14-55-3-19-4-36-4-51 0-9 1-18 2-28 1-10 4-19 8-28 3-9 9-16 16-22 7-6 16-9 27-9 z" fill="#212121"/>
		<path d="M2195 99l-3 577-504 48c-98 8-156 24-252 24-104 0-157-16-259-24l-519-48 348-577 1189 0 z" fill="#86D72F"/>
		<path d="M2184 676c42 0 77 33 77 77 0 44-36 77-78 77l-1566 0c-42 0-77-33-77-77 0-42 33-77 77-77l1567 0 z" fill="#44911B"/>
		<path d="M1710 982l53 22c9 3 14 10 14 21 0 12-10 22-22 22-16 0-47-17-62-24l17-41 z" fill="#F1B99B"/>
		<path d="M2410-213l2 682c-107 0-147-74-251-74-108 0-150 74-252 74-107 0-147-74-251-74-108 0-150 74-252 74-108 0-150-74-252-74-107 0-147 74-251 74-108 0-150-74-252-74-107 0-147 74-251 74l0-682 2010 0 z" fill="#0084CE"/>
		<path d="M994 78c36 0 70 13 96 39l175 176c26 26 39 61 39 95 0 22-4 42-13 60l559 559c9 9 13 19 13 31 0 23-20 43-43 43-12 0-22-4-31-13l-560-559c-19 9-39 13-59 13-36 0-68-13-95-39l-176-175c-26-26-39-60-39-96 0-75 60-134 134-134 z" fill="#F3C07B"/>
		<path d="M2410-214l2 424c-108 0-147-75-251-75-108 0-148 75-252 75-108 0-147-75-251-75-108 0-148 75-252 75-108 0-148-75-252-75-108 0-147 75-251 75-108 0-148-75-252-75-108 0-147 75-251 75l0-424 2010 0 z" fill="#26C9FC"/>
		<path d="M1486 898l276 1c34 0 63 27 63 63 0 36-29 62-63 62l-273-1c-17 0-29 7-38 21l0 1-102 163-106-66 100-162c30-48 81-82 143-82 z" fill="#FFD7C2"/>
		<path d="M1297 1039c29 0 95 49 118 64l-79 140c-15 24-40 39-68 39-46 0-83-40-83-82 0-15 3-29 11-41l60-97c10-15 24-23 41-23 z" fill="#3BC6F6"/>
	</g></svg>
