<svg version="1.1" xmlns="http://www.w3.org/2000/svg" viewBox="0 0 2300 2300"><g transform="scale(1,-1) translate(-256, -1869)">
		<path d="M1406-287c234 0 431 190 431 431l0 1149c0 229-180 432-431 432-239 0-431-192-431-432l0-1149c0-234 190-431 431-431 z" fill="#636363"/>
		<path d="M1406-72c121 0 216 99 216 216 0 121-99 216-216 216-121 0-216-99-216-216 0-121 99-216 216-216 z" fill="#00D26A"/>
		<path d="M1478 144c39 0 72 31 72 72 0 39-31 72-72 72-39 0-72-31-72-72 0-39 31-72 72-72 z" fill="#00F397"/>
		<path d="M1406 1078c121 0 216 99 216 216 0 121-99 216-216 216-121 0-216-99-216-216 0-121 99-216 216-216 z" fill="#F8312F"/>
		<path d="M1406 503c121 0 216 99 216 216 0 121-99 216-216 216-121 0-216-99-216-216 0-121 99-216 216-216 z" fill="#FFB02E"/>
		<path d="M1478 1294c39 0 72 31 72 72 0 39-31 72-72 72-39 0-72-31-72-72 0-39 31-72 72-72 z" fill="#FF8687"/>
		<path d="M1478 719c39 0 72 31 72 72 0 39-31 72-72 72-39 0-72-31-72-72 0-39 31-72 72-72 z" fill="#FCD53F"/>
		<path d="M1636 216c-17 0-29 9-37 24-42 72-104 120-193 120-89 0-151-46-193-120-8-15-20-24-37-24-18 0-36 14-36 33 0 5 1 9 3 13 45 104 152 169 263 169 112 0 217-66 262-169 2-4 3-8 3-13 0-18-16-33-35-33 z M1636 791c-17 0-29 9-37 24-42 74-104 120-193 120-89 0-151-46-193-120-8-15-20-24-37-24-18 0-35 13-35 32 0 5 1 10 3 14 46 106 152 169 262 169 112 0 217-66 262-169 2-4 3-8 3-13 0-18-16-33-35-33 z M1636 1366c19 0 35 15 35 33 0 5-1 9-3 13-45 104-150 169-262 169-112 0-217-65-262-169-2-4-3-9-3-14 0-19 17-32 35-32 17 0 29 9 37 24 42 74 104 120 193 120 89 0 151-46 193-120 8-15 20-24 37-24 z" fill="#636363"/>
	</g></svg>
