<svg version="1.1" xmlns="http://www.w3.org/2000/svg" viewBox="0 0 2300 2300"><g transform="scale(1,-1) translate(-256, -1869)">
		<path d="M1980 360c229 0 432 180 432 431 0 239-192 431-432 431l-1149 0c-234 0-431-190-431-431 0-234 190-431 431-431l1149 0 z" fill="#636363"/>
		<path d="M1981 575c121 0 216 99 216 216 0 121-99 216-216 216-121 0-216-99-216-216 0-121 99-216 216-216 z" fill="#F8312F"/>
		<path d="M1406 575c121 0 216 99 216 216 0 121-99 216-216 216-121 0-216-99-216-216 0-121 99-216 216-216 z" fill="#FFB02E"/>
		<path d="M831 575c121 0 216 99 216 216 0 121-99 216-216 216-121 0-216-99-216-216 0-121 99-216 216-216 z" fill="#00D26A"/>
		<path d="M2053 791c39 0 72 31 72 72 0 38-33 72-72 72-38 0-72-33-72-72 0-39 31-72 72-72 z" fill="#FF8687"/>
		<path d="M1478 791c39 0 72 31 72 72 0 39-34 72-72 72-38 0-72-33-72-72 0-39 31-72 72-72 z" fill="#FCD53F"/>
		<path d="M903 791c39 0 72 31 72 72 0 38-33 72-72 72-38 0-72-33-72-72 0-39 31-72 72-72 z" fill="#00F397"/>
		<path d="M2211 863c18 0 35 13 35 32 0 5-1 9-3 13-45 104-150 170-262 170-114 0-216-66-262-170-2-4-3-8-3-13 0-19 18-32 35-32 17 0 29 9 37 24 42 74 104 120 193 120 89 0 151-46 193-120 8-15 20-24 37-24 z M1636 863c18 0 35 13 35 32 0 5-1 9-3 13-45 104-150 170-262 170-114 0-216-66-262-170-2-4-3-8-3-13 0-19 18-32 35-32 17 0 29 9 37 24 42 74 104 120 193 120 89 0 151-46 193-120 8-15 20-24 37-24 z M1061 863c18 0 35 13 35 32 0 5-1 9-3 13-45 104-150 170-262 170-114 0-216-66-262-170-2-4-3-8-3-13 0-19 18-32 35-32 17 0 29 9 37 24 42 74 104 120 193 120 89 0 151-46 193-120 8-15 20-24 37-24 z" fill="#636363"/>
	</g></svg>
