<svg version="1.1" xmlns="http://www.w3.org/2000/svg" viewBox="0 0 2300 2300"><g transform="scale(1,-1) translate(-256, -1869)">
		<path d="M1401-135c471 0 858 381 858 858 0 471-381 858-858 858-471 0-858-381-858-858 0-471 381-858 858-858 z" fill="#FFFFFF"/>
		<path d="M1402-280c551 0 1003 450 1003 1003 0 552-449 1002-1003 1002-543 0-1002-440-1002-1002 0-552 450-1003 1002-1003 z M1402-64c-431 0-786 349-786 787 0 165 52 330 160 473l1 0 1099-1099 0-1c-142-105-309-160-474-160 z M2029 250l-1099 1098 0 1c131 100 295 159 472 159 432 0 787-348 787-785 0-177-60-342-160-473 z" fill="#F8312F"/>
	</g></svg>
