<svg version="1.1" xmlns="http://www.w3.org/2000/svg" viewBox="0 0 2300 2300"><g transform="scale(1,-1) translate(-256, -1869)">
		<path d="M1323 1213l86 93-94 87-86-92 94-88 z" fill="#8B5C56"/>
		<path d="M1232 876c8 46 40 166 71 205 31 36 55 76 55 125 0 68-70 105-128 105-134 0-257-255-284-351l127-84 159 0 z" fill="#8B62BF"/>
		<path d="M1218 615c27 0 49 15 61 39l84 170-135 53-282 83c-11-28-17-64-17-94 0-46 42-92 75-115l175-123c13-9 26-13 39-13 z" fill="#9B9B9B"/>
		<path d="M1460 1254c11 0 21 3 30 8 8 5 15 11 21 19 6 7 11 16 15 25 6 14 4 24 16 31l8-1c4 0 9 1 13 3 6 3 9 9 9 18 0 7-2 14-5 21-3 7-5 14-5 22 0 13 3 25 8 37 5 11 8 24 8 37 0 21-6 41-18 58-13 17-29 28-49 35-14 5-29 10-44 16-16 6-32 9-47 9-18 0-35-5-51-14-16-10-28-23-36-39-1-1-3-4-4-7l-3-8-3-78-3-36c-1-12-2-24-2-36 0-15 5-30 15-44 9-15 21-27 35-38 14-11 29-20 46-27 17-7 32-11 46-11 z" fill="#966661"/>
		<path d="M1509 1312c5 0 7 2 7 7 0 4-2 6-7 6-27 0-18 29-29 29-5 0-7-2-7-7 0-18 17-35 36-35 z" fill="#990839"/>
		<path d="M1548 1456c4 0 6 2 6 7 0 10-30 13-38 13-5 0-8-2-13-2-1-3-6-1-6-8 0-5 4-5 10-5 19 0 34-5 41-5 z" fill="#372128"/>
		<path d="M1498 1411l44 10c-4 18-20 27-36 27-8 0-23-4-23-14 1-5 12-19 15-23 z" fill="#000000"/>
		<path d="M1535 1397c3 0 6 2 7 6 1 4 2 7 2 10 0 9-3 16-10 21-7 5-14 7-22 7-2 0-5 0-8-1l-9-4-8-6c-1-2-2-4-2-6l-1-6c0-2 3-4 8-7 5-3 10-5 16-7l17-5 10-2 z" fill="#FFFFFF"/>
		<path d="M1538 1395c3 5 5 11 5 17 0 11-5 20-16 20-12 0-22-14-22-26l33-11 z" fill="#7D4533"/>
		<path d="M1532 1398c4 1 6 9 6 13 0 5-3 11-10 11-4 0-11-4-11-10l0-9 15-5 z" fill="#000000"/>
		<path d="M1535 1411c2 0 4 1 5 3l-2 5-5-3 2-5 z" fill="#FFFFFF"/>
		<path d="M1279 1303c152 0 98 212 188 212 29 0 39-34 82-34 38 0 73 21 73 65 0 32-22 71-57 71l-32-1c-48 0-81 52-149 52-84 0-107-91-115-159-5-54-82-41-82-119 0-54 43-87 92-87 z" fill="#2D242D"/>
		<path d="M2195 99l-3 577-507 33c-96 5-153 16-253 16-106 0-161-11-258-16l-516-33 348-577 1189 0 z" fill="#86D72F"/>
		<path d="M2184 676c42 0 77 33 77 77 0 44-36 77-78 77l-1566 0c-42 0-77-33-77-77 0-42 33-77 77-77l1567 0 z" fill="#44911B"/>
		<path d="M1710 982l53 22c9 3 14 10 14 21 0 12-10 22-22 22-16 0-47-17-62-24l17-41 z" fill="#764C49"/>
		<path d="M2410-213l2 682c-107 0-147-74-251-74-108 0-150 74-252 74-107 0-147-74-251-74-108 0-150 74-252 74-108 0-150-74-252-74-107 0-147 74-251 74-108 0-150-74-252-74-107 0-147 74-251 74l0-682 2010 0 z" fill="#0084CE"/>
		<path d="M994 78c36 0 70 13 96 39l175 176c26 26 39 61 39 95 0 22-4 42-13 60l559 559c9 9 13 19 13 31 0 23-20 43-43 43-12 0-22-4-31-13l-560-559c-19 9-39 13-59 13-36 0-68-13-95-39l-176-175c-26-26-39-60-39-96 0-75 60-134 134-134 z" fill="#F3C07B"/>
		<path d="M2410-214l2 424c-108 0-147-75-251-75-108 0-148 75-252 75-108 0-147-75-251-75-108 0-148 75-252 75-108 0-148-75-252-75-108 0-147 75-251 75-108 0-148-75-252-75-108 0-147 75-251 75l0-424 2010 0 z" fill="#26C9FC"/>
		<path d="M1486 898l276 1c34 0 63 27 63 63 0 36-29 62-63 62l-273-1c-17 0-29 7-38 21l0 1-102 163-106-66 100-162c30-48 81-82 143-82 z" fill="#966661"/>
		<path d="M1297 1039c29 0 95 49 118 64l-79 140c-15 24-40 39-68 39-46 0-83-40-83-82 0-15 3-29 11-41l60-97c10-15 24-23 41-23 z" fill="#A17FD5"/>
	</g></svg>
