<svg version="1.1" xmlns="http://www.w3.org/2000/svg" viewBox="0 0 2300 2300"><g transform="scale(1,-1) translate(-256, -1869)">
		<path d="M2125-287l0 718-144 0 0-718 144 0 z M831-287l0 718-144 0 0-718 144 0 z" fill="#D3D3D3"/>
		<path d="M2268 360c38 0 72 31 72 71l0 253-36 143c4 29 36 199 36 214l0 181c0 39-31 72-72 72l-37 0-250-72-106 72-364 0-213-72-142 72-397 0-287-288 0-397 71-70 36-179 361 0c0 0 198 67 214 71l143-71 362 0c8 0 161 33 178 36 16-3 170-36 178-36l253 0 z" fill="#FCD53F"/>
		<path d="M2015 360l325 325 0 356-681-681 356 0 z M1296 360l935 934-356 0-934-934 355 0 z M578 360l934 934-356 0-684-685 0-178c0-38 32-71 71-71l35 0 z M472 972l321 322-250 0c-40 0-71-34-71-72l0-250 z" fill="#533566"/>
		<path d="M2125 1294l0 36c0 58-49 108-108 108-58 0-108-49-108-108l0-36 216 0 z M903 1294l0 36c0 58-49 108-108 108-58 0-108-49-108-108l0-36 216 0 z" fill="#F8312F"/>
	</g></svg>
