<svg version="1.1" xmlns="http://www.w3.org/2000/svg" viewBox="0 0 2300 2300"><g transform="scale(1,-1) translate(-256, -1869)">
		<path d="M1849-83l99 62c-31 43-295 386-299 411l-91 381c-4 19-6 33-13 52-31 80-100 110-184 115l-69 5c11-49 21-99 30-148 30-161 73-292 117-456 8-32 91-109 114-130l296-292 z" fill="#636363"/>
		<path d="M1161-201l146 489 228 259c30 34 44 79 44 122 0 11-1 23-3 35l-161 54-182-54-91-280c-18-54-27-109-34-169l-40-373 93-83 z" fill="#9B9B9B"/>
		<path d="M1116-297c9 0 14 4 16 12l31 90-94 83-219-47c-11-3-19-14-19-24 0-11 6-19 17-24 25-8 260-90 268-90 z M1793-296c7 0 13 3 18 8l189 202c3 3 4 7 4 12 0 19-62 66-75 79l-114-53c-4-25-48-209-48-222 0-15 12-26 26-26 z" fill="#321B41"/>
		<path d="M949 551c-9 0-19 4-29 11-11 7-21 15-30 25-9 10-17 21-23 32-6 11-9 21-9 30 0 15 7 25 22 29 3 8 5 16 6 23 1 7 4 13 7 18 3 5 7 8 12 11 5 3 13 4 24 4 10 0 21-2 33-5 27 21 53 45 78 70 25 25 47 51 68 80 21 29 39 59 54 90 15 31 27 64 36 98l5 15 1 14 1 1c2 17 9 31 22 42 12 11 27 17 44 17 18 0 34-6 47-19 13-13 19-29 19-47 0-12-2-25-5-40-3-15-7-30-12-45-5-16-11-31-17-45l-16-38c-22-47-48-90-79-131-31-41-65-80-103-115-9-9-19-17-29-24-10-8-20-16-29-25l-17-17-28-26c-10-9-20-16-29-23-10-7-18-10-24-10 z M1770 544c8 0 18 1 30 4 12 3 24 7 35 12 11 5 21 12 29 20 8 7 12 16 12 26 0 10-2 20-5 29-4 9-7 18-10 27l0 1c-6 15-12 30-17 45-6 15-12 30-17 45-30 81-67 155-112 224-45 69-102 130-170 184l-39 30c-14 10-28 19-43 26-9 5-20 7-31 7-19 0-34-6-47-19-13-13-20-29-20-48 0-13 4-25 11-35 7-11 16-19 27-26 35-20 67-45 98-74 30-29 58-61 83-95 25-35 48-71 67-108 19-38 36-75 49-111l11-36c-5-7-10-15-14-24-5-9-7-18-7-27 0-6 1-11 4-15 3-4 6-8 10-11l25-18-1-7c0-10 5-17 12-20 9-4 19-6 30-6 z" fill="#966661"/>
		<path d="M1276 1215l145 25-23 142-144-23 22-144 z" fill="#8B5C56"/>
		<path d="M1271 883c24 0 86 199 86 233 0 41-34 77-76 77-17 0-31-4-40-13-19-18-21-52-33-81-20-48-33-93-59-141l-1-4c0-14 117-71 123-71 z" fill="#F95725"/>
		<path d="M1576 704l-44 405c-8 75-64 144-142 144-12 0-23-1-33-4-139-33-165-128-165-257 0-94 15-194 41-288l343 0 z" fill="#FF6723"/>
		<path d="M1544 966c8 0 106 88 106 98 0 13-39 49-79 81-76 59-110 84-141 84-39 0-77-31-77-74 0-28 16-50 38-65 55-33 97-71 144-119 3-3 6-5 9-5 z" fill="#FF8101"/>
		<path d="M1231 1256c54 0 153 32 169 94 11 40 51 170 51 181 0 65-54 124-124 124l-81 0c-69 0-123-57-123-124l0-49c-5-13-33-50-33-60 0-18 18-29 33-29 3-82 15-137 108-137 z" fill="#966661"/>
		<path d="M1213 1461c7 0 8 6 8 11 0 22-19 35-38 35-21 0-38-13-38-36 0-7 3-10 9-10l59 0 z" fill="#FFFFFF"/>
		<path d="M1191 1461l1 11c0 14-8 30-23 30-15 0-24-16-24-30l1-11 45 0 z" fill="#7D4533"/>
		<path d="M1176 1461c1 4 3 7 3 11 0 8-5 17-14 17-9 0-13-9-13-17l2-11 22 0 z" fill="#000000"/>
		<path d="M1157 1478c3 1 4 3 4 6 0 2-1 4-4 5-3 0-5-2-5-5 0-4 2-6 5-6 z" fill="#FFFFFF"/>
		<path d="M1164 1348c8 0 17 3 27 10 10 6 15 14 15 23 0 5-3 8-9 8-2 0-4-1-5-4l-6-8c-2-3-5-6-8-8-4-3-9-4-15-4-3 0-7 0-12 1l-2 0c-4 0-6-3-6-8 0-5 3-7 8-8l13-2 z" fill="#990839"/>
		<path d="M1430 1342c6 0 13 0 20 1 7 0 13 1 19 3 5 2 10 5 14 10 3 5 5 11 5 20 0 11-4 20-11 26-7 5-16 8-26 8 14 0 25 8 34 24 9 16 15 35 20 56 5 21 8 41 9 61l2 42c0 44-13 77-38 100-25 22-59 33-101 33-17 0-34-2-50-7-17-5-33-8-50-8-14 0-28 2-42 7-15 4-30 6-47 6-19 0-35-6-47-18-12-12-18-28-18-47 0-18 3-32 9-43 6-11 14-19 25-24 10-6 22-10 36-12 13-2 28-3 43-3 10 0 21-1 33-2 11-2 22-5 33-10 10-5 19-11 26-19 7-8 11-18 12-30 13-1 25-6 35-15 10-9 15-21 15-35 0-10-3-19-8-28 1-10 1-21 1-32l0-8c0-8 1-16 3-23 2-9 6-17 13-23 7-7 17-10 31-10 z" fill="#2D242D"/>
		<path d="M1216 1524l6 1 3 5c0 19-33 25-51 25l-8 0c-5-1-12-1-12-11 0-3 2-7 6-7l26-1c10-1 16-9 30-12 z" fill="#372128"/>
	</g></svg>
