<svg version="1.1" xmlns="http://www.w3.org/2000/svg" viewBox="0 0 2300 2300"><g transform="scale(1,-1) translate(-256, -1869)">
		<path d="M2412-284l0 1150-312 469c0 3-25 20-27 20-68 48-146 74-230 74-90 0-178-29-247-74-5-5-33-24-36-27l-543-783-164 124c-43 31-91 49-144 49-65 0-127-28-169-70l-140-141 0-791 2012 0 z" fill="#00D26A"/>
		<path d="M1838 1280c56 0 82 117 131 117 19 0 109-51 131-62l-106 159c-36 53-94 85-159 85-67 0-124-33-158-83l-117-168c24 11 127 69 147 69 50 0 73-117 131-117 z" fill="#D3D3D3"/>
		<path d="M2412-287l-252 154c-33 19-68 29-106 29-39 0-76-10-108-30l-2 0c-32-19-68-30-107-30-81 0-137 61-216 61-82 0-134-61-216-61-37 0-75 10-107 30l-1 0c-32 20-69 30-108 30-82 0-134-61-216-61-85 0-132 60-217 60-36 0-75-11-107-29l-249-153 2012 0 z" fill="#A56953"/>
		<path d="M1373 1157l83 126-131 89-75-130 123-85 z" fill="#F9C136"/>
		<path d="M1525 357l87 42-230 214 96 56-107 131c-69-40-159-74-159-167 0-12 1-22 4-31l1-1c4-19 14-30 29-41l279-203 z" fill="#F9C136"/>
		<path d="M1479 658c6 0 19 2 25 5l230 133-151 137-236-146 82-103c15-19 26-26 50-26 z" fill="#636363"/>
		<path d="M1526 168c3 0 5 1 8 4l129 152c4 5 8 12 8 19 0 11-14 18-21 25l-1 0-38 30-86-41c-8-33-32-140-32-164 0-6 4-11 12-14 10-4 15-11 21-11 z" fill="#533566"/>
		<path d="M1020 539c14 0 25 9 30 21 16 39 177 426 177 440 0 21-16 34-34 34l-253 0c-83 0-150-68-150-150 0-84 71-150 150-150 18 0 34 15 34 34 0 18-15 34-34 34-44 0-83 35-83 82 0 45 37 83 83 83l203 0c-16-41-158-378-158-394 0-18 16-34 35-34 z" fill="#D3D3D3"/>
		<path d="M940 734c18 0 34 15 34 34 0 18-15 34-34 34-44 0-83 35-83 82 0 19-15 34-33 34-18 0-34-15-34-34 0-84 71-150 150-150 z" fill="#433B6B"/>
		<path d="M1970-251c168 0 306 134 306 305 0 167-134 306-306 306-167 0-305-135-305-306 0-167 133-305 305-305 z M813-251c167 0 305 133 305 305 0 168-134 306-305 306-167 0-305-135-305-306 0-167 133-305 305-305 z M1970-144c-109 0-197 88-197 198 0 109 87 198 197 198 109 0 198-88 198-198 0-109-88-198-198-198 z M813-144c-109 0-198 88-198 198 0 109 88 198 198 198 109 0 198-88 198-198 0-109-88-198-198-198 z" fill="#F3EEF8"/>
		<path d="M1973-287c188 0 345 150 345 344 0 188-150 345-345 345-191 0-344-154-344-345 0-188 150-344 344-344 z M816-287c188 0 344 150 344 344 0 189-151 345-344 345-188 0-345-150-345-345 0-188 151-344 345-344 z M1973-213c-144 0-271 115-271 270 0 149 121 271 271 271 149 0 271-121 271-271 0-152-123-270-271-270 z M816-213c-144 0-271 115-271 270 0 149 119 271 271 271 149 0 271-121 271-271 0-152-123-270-271-270 z" fill="#433B6B"/>
		<path d="M1546 38c19 0 32 12 36 29l103 466 301-471c8-11 18-17 31-17 21 0 37 18 37 37 0 7-2 14-6 20l-349 546c-7 12-18 18-31 18-17 0-33-12-37-30l-109-497-490 367c11 24 47 101 47 122 0 19-16 37-37 37-17 0-28-8-35-23-23-54-227-545-227-567 0-21 16-37 37-37 17 0 28 8 35 23l151 374 521-390c7-5 15-7 22-7 z" fill="#F8312F"/>
		<path d="M1564-37l15 1 429 56c31 4 56 34 56 64 0 30-25 60-56 64l-437 57-9 0c-68 0-119-57-119-121 0-67 54-121 121-121 z" fill="#F9C136"/>
		<path d="M1559 12c40 0 71 34 71 72 0 39-33 71-71 71-38 0-71-32-71-71 0-38 31-72 71-72 z" fill="#FFFFFF"/>
		<path d="M1574 831c20 0 235 127 274 149-60 99-233 315-370 315-58 0-147-57-147-122 0-66 47-116 94-151 28-22 66-82 93-129 22-39 27-62 56-62 z" fill="#0092E7"/>
		<path d="M1500 140l-3 398 284 195c54 37 85 75 85 139 0 43-18 85-30 127l-109-69c-119-74-223-155-328-234-35-27-57-96-57-139 0-10 1-16 2-26l56-344 100-47 z" fill="#FDD641"/>
		<path d="M1463 40c11 0 39 2 39 19l0 81-101 46c-56-28-113-55-168-87-5-3-6-11-6-16 0-8 5-40 16-40 73-1 147-3 220-3 z" fill="#533566"/>
		<path d="M1636 551c23 0 42 9 59 28l121 139c37 42 67 92 67 152 0 68-52 141-90 193l-279-172c11-16 34-45 34-63 0-11-4-20-13-27l-95-74 141-152c15-16 33-24 55-24 z" fill="#9B9B9B"/>
		<path d="M1181 1156c69 0 153 85 153 154 0 31-14 64-21 95l-18 87c0 3-8 11-9 14-23 28-57 46-93 46-19 0-36-5-53-14-60-31-126-56-126-135 0-51 35-74 35-106 0-15-3-26-3-41 0-13 8-25 23-25 5 0 10 1 15 3l6-2c18-34 48-76 91-76 z" fill="#FDD641"/>
		<path d="M1081 1304c3 0 54 23 54 33l-1 6c-6 11-15 17-28 17-18 0-38-14-38-35 0-9 3-21 13-21 z" fill="#FFFFFF"/>
		<path d="M1077 1302l36 19c-4 13-11 25-27 25-12 0-18-9-18-20 0-7 4-19 9-24 z" fill="#7D4533"/>
		<path d="M1084 1305l16 9c0 9-5 19-16 19-7 0-9-5-9-12 0-7 2-13 9-16 z" fill="#000000"/>
		<path d="M1078 1319c2 2 3 4 3 6 0 3-1 5-4 5-4 0-5-3-5-6 0-3 3-4 6-5 z" fill="#FFFFFF"/>
		<path d="M1127 1212c20 0 36 22 36 41 0 5-1 13-9 13-5 0-7-2-7-7 0-38-28-24-28-40 0-5 3-7 8-7 z" fill="#990839"/>
		<path d="M1296 1349c37 0 59 34 59 67 0 31-9 66-20 94-23 8-45 19-68 19-39 0-106-14-106-62 0-22 5-49 32-49 11 0 16 8 27 8 35 0 21-77 76-77 z" fill="#FFB02F"/>
		<path d="M1250 1343c14 0 22 26 22 37 0 26-20 47-47 47-7 0-14-1-19-4 5-13 31-80 44-80 z" fill="#FDD641"/>
		<path d="M1290 1185c5 0 17 5 17 18 0 3-8 29-20 60-35 93-58 186-81 186-11 0-17-8-17-19 0-4 18-54 40-111 34-92 42-134 61-134 z" fill="#433B6B"/>
		<path d="M1008 1332c16 0 278 128 312 145 11 5 17 14 17 25 0 13-24 60-32 73-22 47-68 78-124 78-21 0-41-4-58-13-81-39-183-65-183-174 0-43 23-79 42-118 5-11 13-16 26-16 z" fill="#00A6ED"/>
		<path d="M1093 1425c8 0 30 9 51 20 42 22 65 28 65 47 0 12-11 23-23 23-8 0-30-9-50-20-43-22-66-28-66-46 0-14 11-24 23-24 z" fill="#007ACF"/>
		<path d="M891 731c29 0 17 39 40 43 45 8 88 16 138 26 164 34 293 133 384 264 21 30 50 63 50 102 0 43-34 73-74 73-31 0-51-16-66-41-55-95-134-180-240-226-60-27-127-35-191-47-10-2-20-6-31-11-40-20-85-81-85-117 0-29 46-66 75-66 z" fill="#FDD641"/>
	</g></svg>
