<svg version="1.1" xmlns="http://www.w3.org/2000/svg" viewBox="0 0 2300 2300"><g transform="scale(1,-1) translate(-256, -1869)">
		<path d="M1964 1023l144 144-91 163-163 91-144-144 254-254 z" fill="#636363"/>
		<path d="M1934 335c104 122 155 271 155 420 0 355-288 647-647 647-149 0-298-51-420-155l348-564 564-348 z" fill="#9B9B9B"/>
		<path d="M1783-71c-64 0-122 25-165 68l-898 898c-43 43-69 101-69 165 0 127 103 234 234 234 59 0 120-22 165-68l898-899c43-43 69-101 69-165 0-128-106-233-234-233 z M2108 1167l252 251c36 35 52 82 52 127 0 98-78 180-180 180-45 0-92-16-127-52l-251-252 254-254 z" fill="#BEBEBE"/>
		<path d="M1011-288c-60 0-109 46-109 108 0 30 12 57 32 77l252 251c20 20 48 31 76 31 58 0 108-47 108-107 0-29-11-55-32-76l-251-252c-20-20-48-32-76-32 z M759-36c28 0 56 12 76 32l252 251c20 20 31 49 31 77 0 59-49 107-107 107-28 0-57-11-77-31l-251-252c-20-20-32-48-32-76 0-58 49-108 108-108 z M507 215c30 0 57 12 77 32l251 252c20 20 31 48 31 76 0 58-47 108-107 108-29 0-55-11-76-32l-252-251c-20-20-32-48-32-76 0-60 46-109 108-109 z" fill="#3F5FFF"/>
	</g></svg>
