<svg version="1.1" xmlns="http://www.w3.org/2000/svg" viewBox="0 0 2300 2300"><g transform="scale(1,-1) translate(-256, -1869)">
		<path d="M2017-251c190 0 359 152 359 359 0 191-155 359-359 359-196 0-359-159-359-359 0-196 157-359 359-359 z M795-251c190 0 359 152 359 359 0 191-155 359-359 359-196 0-359-159-359-359 0-196 157-359 359-359 z M2017-144c-139 0-252 113-252 252 0 139 113 252 252 252 138 0 251-111 251-252 0-138-110-252-251-252 z M795-144c-139 0-252 113-252 252 0 139 113 252 252 252 139 0 252-113 252-252 0-139-113-252-252-252 z" fill="#F3EEF8"/>
		<path d="M2017-287c216 0 395 173 395 395 0 216-173 395-395 395-216 0-395-173-395-395 0-216 173-395 395-395 z M795-287c216 0 395 173 395 395 0 216-173 395-395 395-216 0-395-173-395-395 0-216 173-395 395-395 z M2017-215c-179 0-324 144-324 323 0 178 144 323 324 323 179 0 323-144 323-323 0-179-144-323-323-323 z M795-215c-179 0-323 144-323 323 0 179 144 323 323 323 179 0 323-144 323-323 0-179-144-323-323-323 z" fill="#321B41"/>
		<path d="M1658 645c19 0 33 13 37 31 8 36 37 160 37 186 0 22-17 39-39 39-19 0-33-13-37-31-8-34-37-162-37-187 0-21 17-38 39-38 z M1083 717c15 0 26 7 33 21l63 125 33 0c7 0 13 1 20 2 8 1 15 5 21 10 6 5 9 13 9 24 0 9-4 18-11 25-7 7-16 11-25 11l-143 0c-15 0-28 3-41 9-13 5-25 13-35 22-10 9-18 21-23 34-6 13-9 27-9 42 0 15 3 29 9 42 5 13 13 25 23 35 9 9 21 17 34 23 13 5 27 8 42 8l143 0c10 0 19 4 26 11 7 7 10 15 10 25 0 10-3 19-10 26-7 7-16 10-26 10l-143 0c-25 0-49-5-70-14-22-9-41-22-57-38-17-17-30-36-39-58-9-22-14-45-14-70 0-27 5-52 15-74 10-22 24-41 41-56 17-16 38-28 61-36 23-9 48-13 74-13l-12-23c-5-10-11-20-16-31-6-11-11-22-15-32-4-10-6-17-6-22 0-11 4-20 11-27 7-7 16-11 27-11 z" fill="#D3D3D3"/>
		<path d="M795 67c16 0 32 10 38 24l188 423 503-403c7-6 15-9 25-9 20 0 38 15 42 35l88 497 307-538c7-13 22-21 37-21 22 0 41 18 41 41 0 8-2 15-6 21l-364 639c-7 13-22 21-37 21-18 0-38-14-41-35l-95-542-465 372c11 27 68 139 68 163 0 23-20 41-42 41-16 0-32-10-38-24l-287-647c-2-5-3-11-3-17 0-22 18-41 41-41 z" fill="#F92F60"/>
		<path d="M1548 0l512 36c39 3 65 41 65 76 0 40-28 68-65 75l-494 99-10 1-10 0c-77 0-140-65-140-143 0-74 59-144 142-144 z" fill="#F9C23C"/>
		<path d="M1765 863c39 0 72 31 72 72 0 40-34 71-72 71l-143 0c-38 0-72-31-72-71 0-39 31-72 72-72l143 0 z" fill="#9D5044"/>
		<path d="M1298 1150c19 0 36 15 36 36 0 19-15 36-36 36l-144 0c-18 0-36-17-36-36 0-18 17-36 36-36l144 0 z" fill="#533566"/>
		<path d="M1550 72c38 0 72 33 72 72 0 39-34 72-72 72-39 0-72-31-72-72 0-39 31-72 72-72 z" fill="#F4F4F4"/>
	</g></svg>
