<svg version="1.1" xmlns="http://www.w3.org/2000/svg" viewBox="0 0 2300 2300"><g transform="scale(1,-1) translate(-256, -1869)">
		<path d="M2125-287c156 0 287 125 287 287l0 1438c0 156-125 287-287 287l-1438 0c-156 0-287-125-287-287l0-1438c0-161 130-287 287-287l1438 0 z" fill="#00A6ED"/>
		<path d="M1520 288c20 0 37 7 51 21l112 112c7 7 10 14 10 22l0 24c0 19-17 36-35 36l-504 0c-36 0-36-32-36-57 0-9 4-18 11-25l112-112c14-14 31-21 51-21l228 0 z M1586 575c18 0 36 17 36 36l0 118 95-96c14-14 31-21 51-21 20 0 37 7 51 21 55 55 110 107 163 163l-1 1c8 12 12 25 12 40 0 39-31 72-72 72-15 0-28-4-40-12l-1 1-112-112-149 148 0 1-426 0 0-1-149-148-112 112-1-1c-12 8-25 12-40 12-39 0-72-31-72-72 0-15 4-28 12-40l-1-1c56-56 107-106 163-163 14-14 31-21 51-21 20 0 37 7 51 21l95 96 0-118c0-19 15-36 36-36l360 0 z M1406 1006c139 0 252 113 252 252 0 139-113 252-252 252-139 0-252-113-252-252 0-139 113-252 252-252 z M1592-87c27 0 49 10 66 29l123 134c27 31 43 69 43 110 0 54-23 88-54 121-16 16-35 46-59 46-9 0-17-3-25-10l-78-75c-7-7-11-16-11-26 0-30 33-37 33-57 0-37-128-103-128-183 0-51 40-89 90-89 z M1217-87c50 0 90 38 90 89 0 81-128 146-128 183 0 18 34 28 34 57 0 10-4 19-11 26l-78 75c-8 7-16 10-25 10-11 0-20-4-26-11-48-51-87-86-87-157 0-41 14-78 42-109l123-134c17-19 39-29 66-29 z" fill="#FFFFFF"/>
	</g></svg>
