<svg version="1.1" xmlns="http://www.w3.org/2000/svg" viewBox="0 0 2300 2300"><g transform="scale(1,-1) translate(-256, -1869)">
		<path d="M1550 0l0 288-288 0 0-288 288 0 z M1406 1222c36 0 72 28 72 68l0 223c0 40-34 68-72 68-38 0-72-28-72-68l0-223c0-40 34-68 72-68 z" fill="#FF822D"/>
		<path d="M2412-215c0 80-65 143-144 143 0 80-64 144-143 144l-1438 0c-81 0-144-67-144-144l1 0c-80 0-144-64-144-143l2012 0 z" fill="#5C2614"/>
		<path d="M2340 216c39 0 72 31 72 72 0 25-7 43-22 53-44 27-124 14-124 86l0 48c0 476-375 891-860 891-476 0-862-389-862-862l0-72c0-109-144-36-144-144 0-39 31-72 72-72l1868 0 z M1549 1438c39 0 73 31 73 72 0 42-36 71-73 71l-287 0c-38 0-72-31-72-71 0-38 33-72 72-72l287 0 z" fill="#FFB02E"/>
		<path d="M1692 935c80 0 144 64 144 143 0 81-67 144-144 144-81 0-144-67-144-144 0-80 65-143 144-143 z" fill="#FFFFFF"/>
	</g></svg>
