<svg version="1.1" xmlns="http://www.w3.org/2000/svg" viewBox="0 0 2300 2300"><g transform="scale(1,-1) translate(-256, -1869)">
		<path d="M2125-287c156 0 287 125 287 287l0 1438c0 156-125 287-287 287l-1438 0c-156 0-287-125-287-287l0-1438c0-161 130-287 287-287l1438 0 z" fill="#00A6ED"/>
		<path d="M1262 0c39 0 72 31 72 72l0 63c0 6-3 9-9 9l-485 0c-6 0-9-3-9-9l0-63c0-39 31-72 72-72l359 0 z M831 144l0 494c0 6-3 9-9 9l-63 0c-39 0-72-31-72-72l0-359c0-39 31-72 72-72l72 0 z M2089 0c19 0 36 15 36 36l0 563c0 19-15 36-36 36-9 0-17-3-25-10l-575-550c-7-7-11-16-11-26 0-23 5-49 36-49l575 0 z M1500 214c6 0 11 2 15 6l542 509c8 8 12 17 12 26 0 19-16 36-37 36l-522 0c-22 0-48-6-67-21l-447-332c-28-20-44-52-44-87 0-59 49-107 108-107 25 0 46 7 64 21l354 262 0-291c0-12 10-22 22-22 z M1801 863c117 0 252 79 252 215l0 36c0 19-15 36-36 36l-431 0c-19 0-36-15-36-36l0-36c0-136 131-215 251-215 z M2017 1222c19 0 36 15 36 36l0 148c0 18-17 36-36 36l-482 0c-18 0-36-17-36-36 0-20 40-93 51-112l-108 0c-19 0-36-15-36-36 0-19 15-36 36-36l575 0 z" fill="#FFFFFF"/>
	</g></svg>
