<svg version="1.1" xmlns="http://www.w3.org/2000/svg" viewBox="0 0 2300 2300"><g transform="scale(1,-1) translate(-256, -1869)">
		<path d="M1909-215c38 0 72 31 72 71l0 216c0 39-31 72-72 72l-1366 0c-40 0-71-34-71-72l0-216c0-38 32-71 71-71l1366 0 z" fill="#3F5FFF"/>
		<path d="M1963-287c11 0 18 7 18 18l0 54-72 71-72-71 0-54c0-11 7-18 18-18l108 0 z M597-287c11 0 18 7 18 18l0 54-72 71-71-71 0-54c0-11 7-18 18-18l107 0 z M1837 108c39 0 72 31 72 72l0 395c0 39-31 72-72 72l-539 0c-39 0-72-31-72-72 0 39-31 72-72 72l-539 0c-38 0-72-33-72-72l0-395c0-39 34-72 72-72l1222 0 z" fill="#1345B7"/>
		<path d="M1981-215c38 0 72 31 72 71l0 450c0 68-55 125-126 125-70 0-126-57-126-125l0-450c0-40 34-71 72-71l108 0 z M579-215c38 0 72 31 72 71l0 450c0 68-55 125-126 125-71 0-125-60-125-125l0-450c0-40 34-71 72-71l107 0 z" fill="#5092FF"/>
		<path d="M2268-179l0 1702-3 47c-4 36-13 66-26 91-14 25-32 44-53 59-22 15-47 25-75 32-29 6-60 9-94 9-51 0-93-6-126-18-33-13-58-31-77-55-19-24-31-54-38-89-7-36-11-77-11-124l0-73 72 0c0 41 0 79-1 114l0 9c0 31 5 58 13 82 9 25 27 45 52 60 25 15 64 22 116 22 41 0 74-4 98-13 24-9 42-22 54-39 12-18 20-40 23-67 3-27 5-59 5-96l0-1653 71 0 z" fill="#9B9B9B"/>
		<path d="M2376-287l-287 0c-15 0-23 8-23 25 0 8 2 16 5 25 23 73 75 129 162 129 86 0 138-56 161-129 3-7 4-16 4-25 0-17-7-25-22-25 z M2017 935c19 0 36 15 36 36l0 215c0 139-113 252-252 252-138 0-251-111-251-252l0-215c0-19 15-36 36-36l431 0 z" fill="#FFB02E"/>
	</g></svg>
