<svg version="1.1" xmlns="http://www.w3.org/2000/svg" viewBox="0 0 2300 2300"><g transform="scale(1,-1) translate(-256, -1869)">
		<path d="M2125-287c156 0 287 125 287 287l0 1438c0 156-125 287-287 287l-1438 0c-156 0-287-125-287-287l0-1438c0-161 130-287 287-287l1438 0 z" fill="#00A6ED"/>
		<path d="M1747 360c11 0 18 7 18 18l0 826c0 11-7 18-18 18l-144 0 1 18c0 109-88 198-198 198-109 0-198-88-198-198l1-18-144 0c-11 0-18-7-18-18l0-826c0-11 7-18 18-18l682 0 z M1837 72c-38 0-72 33-72 72l-143 0c0-39-34-72-72-72-39 0-72 31-72 72l-144 0c0-39-31-72-72-72-38 0-72 33-72 72l-143 0c0-39-34-72-72-72-39 0-72 31-72 72l-180 0c-19 0-36 15-36 36 0 19 15 36 36 36l1366 0c19 0 36-15 36-36 0-19-15-36-36-36l-180 0c0-39-31-72-72-72 z M1981 360l-126 0c-11 0-18 7-18 18l0 826c0 11 7 18 18 18l126 0c39 0 72-31 72-72l0-719c0-40-34-71-72-71 z M957 360l-126 0c-38 0-72 31-72 71l0 719c0 39 31 72 72 72l126 0c11 0 18-7 18-18l0-826c0-11-7-18-18-18 z M1530 1222l-249 0-1 18c0 69 56 126 126 126 69 0 126-56 126-126 0-7-1-11-2-18 z" fill="#FFFFFF"/>
	</g></svg>
