<svg version="1.1" xmlns="http://www.w3.org/2000/svg" viewBox="0 0 2300 2300"><g transform="scale(1,-1) translate(-256, -1869)">
		<path d="M2125-287c156 0 287 125 287 287l0 1438c0 156-125 287-287 287l-1438 0c-156 0-287-125-287-287l0-1438c0-161 130-287 287-287l1438 0 z" fill="#8D65C5"/>
		<path d="M1691 5l-382 0c-57 0-99 44-99 100 0 34 17 63 45 81l192 125-94 186c-34-21-74-55-118-55-31 0-62 15-80 41l-98 137c-10 14-15 29-15 46 0 44 34 82 81 82 26 0 51-12 66-34l63-89 137 85c15 11 33 15 52 15 36 0 71-20 89-54l150-296c7-13 10-28 10-44 0-35-17-66-45-84l-124-81 170 0c44 0 81-35 81-80 0-44-34-81-81-81 z M1406 791c81 0 144 67 144 144 0 80-65 143-144 143-80 0-144-64-144-143 0-81 67-144 144-144 z M2055 896c38 0 72 32 72 73 0 25-14 47-33 60l-605 393c-15 9-31 14-49 14-17 0-34-5-49-14l-615-393c-20-13-33-38-33-60 0-41 34-73 72-73 15 0 27 5 39 12l585 375 577-375c12-8 25-12 39-12 z" fill="#FFFFFF"/>
	</g></svg>
