<svg version="1.1" xmlns="http://www.w3.org/2000/svg" viewBox="0 0 2300 2300"><g transform="scale(1,-1) translate(-256, -1869)">
		<path d="M2412 576l0 898c0 138-108 251-251 251l-1510 0c-138 0-251-108-251-251l0-898 2012 0 z" fill="#50E2FF"/>
		<path d="M2266-231c19 0 36 3 50 8 53 19 96 107 96 187l0 1042c-206 0-319-43-502-156-175-110-297-157-502-157-206 0-326 46-505 157-179 110-297 156-503 156l0-1042c0-55 19-115 57-159 27-30 51-36 89-36 35 0 70 6 105 6l1510 0c35 0 70-6 105-6 z" fill="#00D26A"/>
		<path d="M2260-144l-707 850c-54-6-152-10-233-10-27 0-48 1-64 3l-708-843 1712 0 z" fill="#1C1C1C"/>
		<path d="M2046 72c19 0 36 18 36 36 0 19-9 49-23 64l-77 88c-15 18-37 28-59 28l-1025 0c-22 0-47-13-61-27l-85-91c-15-15-25-42-25-62 0-18 17-36 36-36l1283 0 z M1744 431c15 0 36 6 36 24 0 16-12 40-23 52-23 31-49 68-93 68l-508 0c-35 0-59-22-79-46-18-20-46-47-46-74 0-16 22-24 36-24l677 0 z M1565 648c5 0 36 2 36 12 0 32-48 59-75 59l-234 0c-26 0-79-29-79-59 0-10 28-12 36-12l316 0 z M2161-287c74 0 149 34 197 95l-82 93c-13 14-38 27-59 27l-1611 0c-22 0-47-12-61-26l-90-96c49-62 122-93 196-93l1510 0 z" fill="#8C5543"/>
		<path d="M2053 72l-1294 0c-18 0-36 17-36 36 0 19 18 36 36 36l1294 0c19 0 36-18 36-36 0-18-17-36-36-36 z M1744 431l-677 0c-15 0-36 7-36 25 0 16 22 24 36 24l677 0c15 0 36-6 36-24 0-18-21-25-36-25 z M1565 648c8 0 36 2 36 12 0 8-30 12-36 12l-316 0c-8 0-36-2-36-12 0-10 28-12 36-12l316 0 z" fill="#6D4534"/>
		<path d="M2164-287l-694 1006-45 0 667-1006 72 0 z M723-287l669 1006-44 0-697-1006 72 0 z" fill="#9B9B9B"/>
		<path d="M2199-287l-718 1006-45 0 692-1006 71 0 z M687-287l694 1006-44 0-722-1006 72 0 z" fill="#D3D3D3"/>
	</g></svg>
