<svg version="1.1" xmlns="http://www.w3.org/2000/svg" viewBox="0 0 2300 2300"><g transform="scale(1,-1) translate(-256, -1869)">
		<path d="M2344 72c38 0 68 28 68 68l0 152c0 39-31 68-68 68l-147 0 0-288 147 0 z" fill="#998EA4"/>
		<path d="M2193-72c39 0 75 30 75 72l0 503-1868 0c0-46 23-121 42-169 105-255 363-406 628-406l1123 0 z M1478 575c88 0 132 16 216 24l431 48 0 354c0 2 0 3-2 5l-335 12c-61 3-99 6-167 6-31 0-58-1-83-2-199-10-162-7-420-16l-359-359 479-48c92-8 148-24 240-24 z M1981 1078l0 144-216 0-72-144 288 0 z" fill="#CDC4D6"/>
		<path d="M1911 719c40 0 69 31 69 69l0 77c0 38-29 70-69 70l-149 0c-40 0-69-32-69-70l0-77c0-38 29-69 69-69l149 0 z" fill="#26EAFC"/>
		<path d="M1478 719c40 0 72 35 72 73l0 71c0 39-34 72-72 72l-431 0-216-216 647 0 z" fill="#26EAFC"/>
		<path d="M1911 719c40 0 69 31 69 69l0 77c0 38-29 70-69 70l-149 0c-40 0-69-32-69-70l0-77c0-38 29-69 69-69l149 0 z M1478 719c40 0 72 35 72 73l0 71c0 39-34 72-72 72l-431 0-216-216 647 0 z" fill="#00A6ED"/>
		<path d="M1334 431c126 0 197 16 311 24l623 48 0 69c0 41-31 75-74 75l-1719 0c-40 0-75-32-75-75l0-69 623-48c117-8 192-24 311-24 z M2125 1006l-1007 0c29 29 58 72 105 72l825 0c39 0 74-31 77-72 z M1981 1222c0 39-31 72-72 72l-36 0c-47 0-89-33-108-72l216 0 z" fill="#F8312F"/>
		<path d="M2411-287l1 503c-124 0-134-94-252-94-124 0-134 94-252 94-124 0-134-94-252-94-124 0-133 94-251 94-124 0-134-94-252-94-124 0-133 94-251 94-123 0-133-94-251-94-123 0-133 94-251 94l0-503 2011 0 z" fill="#00A6ED"/>
	</g></svg>
