<svg version="1.1" xmlns="http://www.w3.org/2000/svg" viewBox="0 0 2300 2300"><g transform="scale(1,-1) translate(-256, -1869)">
		<path d="M1765 0c300 0 612 203 642 533l-2002 0c30-338 347-533 642-533l718 0 z" fill="#FF822D"/>
		<path d="M1405 480c326 0 660 16 1001 54 1 16 4 31 4 47 0 43-40 64-80 64-37 0-74-7-111-10-268-24-537-36-815-36-204 0-398 7-592 19-113 7-220 18-333 27-40 0-79-20-79-64 0-16 1-31 4-47 341-38 676-54 1001-54 z" fill="#000000"/>
		<path d="M820-285c19 0 36 7 51 22l353 358c28 28 42 61 42 100 0 27-8 52-21 75l801 814c8-3 17-4 28-4 24 0 61 11 61 38 0 21-20 34-35 47-3 13-11 21-24 24-13 13-26 33-46 33-29 0-39-36-39-60 0-9 2-19 5-29l-801-813c-23 13-47 20-73 20-38 0-76-16-103-43l-353-358c-14-14-21-31-21-51 0-21 7-38 22-51l102-100c15-15 32-22 51-22 z" fill="#F3AD61"/>
		<path d="M2411-287l1 503c-122 0-137-94-252-94-122 0-137 94-252 94-122 0-137-94-252-94-121 0-136 94-251 94-122 0-137-94-252-94-121 0-136 94-251 94-121 0-136-94-251-94-121 0-136 94-251 94l0-503 2011 0 z" fill="#00A6ED"/>
	</g></svg>
