<svg version="1.1" xmlns="http://www.w3.org/2000/svg" viewBox="0 0 2300 2300"><g transform="scale(1,-1) translate(-256, -1869)">
		<path d="M1765 863c21 0 41 1 58 3 17 1 34 3 51 6 16 2 33 5 50 8 17 3 36 5 57 7l431 48 0 215c-30 1-60 3-89 5-30 1-60 2-90 2-30 0-60-1-90-3-30-3-60-4-90-4-11 0-23 0-36-1l-11 0-25 1-168 24c-17 3-31 5-42 8-11 3-25 4-42 4-17 0-31-1-42-4-11-3-25-5-42-8l-167-24-34-2-26 1c-21 1-41 1-60 1-7 0-14-1-21-4-7-3-14-8-19-13l-200-198 431-48c21-2 40-4 57-7 17-3 34-6 51-8 16-3 33-5 50-6 17-2 37-3 58-3 z" fill="#CDC4D6"/>
		<path d="M1693 647c97 0 152 16 240 24l479 48 0 216-1312 0c-30 0-62-12-84-34l-185-182 575-48c111-8 178-24 287-24 z M1981 1150l0 14c0 30-24 58-57 58l-388 0c-33 0-57-27-57-58l0-14 502 0 z" fill="#E1D8EC"/>
		<path d="M2412-287l0 1006-1826 0c-68 0-114-51-114-120l43-304c19-125 86-275 172-367 41-44 106-65 160-84 125-43 201-131 349-131l1216 0 z" fill="#CDC4D6"/>
		<path d="M1765 1222l0 86c12 11 18 24 18 40 0 29-24 54-54 54-29 0-54-24-54-54 0-16 6-29 18-40l0-86 72 0 z" fill="#533566"/>
		<path d="M2412-287l0 215-1725 0c131-136 317-215 506-215l1219 0 z M2412 144l0 72-1549 0c-19 0-32-18-32-36 0-18 13-36 32-36l1549 0 z M2412 1150l0 314c0 25-19 46-45 46l-39 0c-79 0-153-48-183-125l-92-235 359 0 z" fill="#533566"/>
		<path d="M723 503c19 0 36 15 36 36 0 19-15 36-36 36-19 0-36-15-36-36 0-19 15-36 36-36 z M2412 791l-1509 0 73 72 1436 0 0-72 z M2245 431l-24 0c-15 0-24 11-24 25l0 95c0 13 10 24 24 24l24 0c13 0 24-10 24-24l0-95c0-14-11-25-24-25 z M2101 431l-24 0c-13 0-24 11-24 25l0 95c0 13 10 24 24 24l24 0c13 0 24-10 24-24l0-95c0-14-9-25-24-25 z M1957 431c14 0 25 10 25 25l0 95c0 13-11 24-25 24l-23 0c-14 0-25-11-25-24l0-95c0-15 11-25 25-25l23 0 z M1813 431l-23 0c-14 0-25 10-25 25l0 95c0 13 11 24 25 24l23 0c14 0 25-11 25-24l0-95c0-15-11-25-25-25 z M1454 431c14 0 25 10 25 25l0 95c0 13-11 24-25 24l-24 0c-13 0-24-10-24-24l0-95c0-14 11-25 24-25l24 0 z M1311 431l-24 0c-13 0-24 11-24 25l0 95c0 13 10 24 24 24l24 0c14 0 25-11 25-24l0-95c0-15-11-25-25-25 z M1167 431c13 0 24 11 24 25l0 95c0 13-10 24-24 24l-24 0c-14 0-25-11-25-24l0-95c0-15 11-25 25-25l24 0 z M1023 431l-24 0c-15 0-24 11-24 25l0 95c0 13 10 24 24 24l24 0c13 0 24-10 24-24l0-95c0-14-9-25-24-25 z M2413 1006l0 72-1151 0-72-72 1223 0 z" fill="#00A6ED"/>
		<path d="M2413-297l0 167c-122 0-137-80-252-80-122 0-138 80-253 80-121 0-136-80-251-80-121 0-137 80-252 80-121 0-136-80-251-80-121 0-137 80-252 80-121 0-136-80-251-80-121 0-136 80-251 80l0-167 2013 0 z" fill="#00A6ED"/>
	</g></svg>
