<svg version="1.1" xmlns="http://www.w3.org/2000/svg" viewBox="0 0 2300 2300"><g transform="scale(1,-1) translate(-256, -1869)">
		<path d="M1757-194c22 0 39 9 51 26l552 794c7 11 11 23 11 36 0 20-10 40-27 52l-266 185c-11 7-23 11-36 11-20 0-40-10-52-27l-551-793c-7-11-11-23-11-36 0-22 9-39 27-52l266-185c11-7 23-11 36-11 z M701 538c20 0 40 10 52 27l551 794c7 11 11 23 11 36 0 23-9 40-26 52l-267 185c-11 7-22 11-35 11-20 0-40-10-52-27l-552-794c-7-11-11-22-11-35 0-22 9-39 27-52l266-186c11-7 23-11 36-11 z" fill="#635994"/>
		<path d="M1727 829l73 106-152 170-227 94-74-106 168-175 212-89 z" fill="#998EA4"/>
		<path d="M867-59l110 158-53 37-110-158 53-37 z M1122 310l110 158-52 37-110-158 52-37 z M1697 459l36 53-105 73-37-52 106-74 z M1116 863l37 53-106 73-36-53 105-73 z" fill="#1C1C1C"/>
		<path d="M1741-40l110 158-159 110-110-158 159-110 z M1924 223l110 159-158 110-110-159 158-110 z M2107 487l110 158-158 110-110-158 158-110 z M685 693l110 158-158 110-110-158 158-110 z M868 957l110 158-158 110-110-158 158-110 z M1052 1220l110 159-159 110-110-159 159-110 z" fill="#BCA4EB"/>
		<path d="M1432 342c17 0 31 8 42 23l270 389c6 9 9 18 9 29 0 18-7 32-22 43l-389 270c-9 6-19 9-30 9-17 0-31-7-42-22l-270-389c-7-10-10-20-10-30 0-17 8-31 23-42l389-270c10-7 20-10 30-10 z M1186-30c75 0 86 90 86 148 0 176-145 321-321 321-67 0-226-38-226-126 0-26 11-46 32-61l387-269c13-9 27-13 42-13 z M823-164c53 0 96 43 96 97 0 53-40 96-96 96-53 0-97-42-97-96 0-54 44-97 97-97 z M1835 923c17 0 31 7 42 22l50 72c7 10 10 20 10 30 0 18-8 32-23 43l-389 270c-9 6-19 9-29 9-18 0-32-7-43-22l-50-73c-7-10-10-20-10-30 0-17 8-31 23-42l389-270c9-6 19-9 30-9 z" fill="#B4ACBC"/>
	</g></svg>
