<svg version="1.1" xmlns="http://www.w3.org/2000/svg" viewBox="0 0 2300 2300"><g transform="scale(1,-1) translate(-256, -1869)">
		<path d="M1409-292c38 0 67 10 98 33 42 30 83 63 122 98 184 163 334 308 520 494 164 164 296 411 296 648 0 110-26 207-78 290-95 152-294 266-495 266-176 0-351-88-466-222-116 130-283 222-466 222-94 0-186-25-269-67-195-98-304-266-304-489 0-242 126-475 295-647 168-169 394-382 581-539 55-47 101-87 166-87 z" fill="#9B9B9B"/>
		<path d="M1409-221c21 0 38 7 55 19 41 29 81 61 120 96 184 166 334 308 515 491 147 150 274 370 274 595 0 96-22 180-67 253-81 132-258 232-435 232-86 0-170-24-244-64-103-57-150-110-221-203l-29 38c-101 133-265 229-436 229-41 0-82-5-122-15-214-56-380-216-380-468 0-228 127-447 274-597 126-127 254-246 387-368 56-50 123-114 189-168 39-33 75-70 120-70 z" fill="#FFFFFF"/>
	</g></svg>
