<svg version="1.1" xmlns="http://www.w3.org/2000/svg" viewBox="0 0 2300 2300"><g transform="scale(1,-1) translate(-256, -1869)">
		<path d="M1148-283c116 0 218 22 314 65 245 109 426 351 652 546 85 72 227 189 227 316 0 114-109 219-222 219-128 0-187-117-226-117-14 0-20 17-23 35-3 18-3 38-3 46 0 66 1 124 2 190 1 55 29 83 85 83 42 0 79-17 121-17 111 0 188 114 188 215 0 37-8 70-25 100-51 87-203 118-305 118-206 0-345-130-437-287-29 83-107 137-192 137-74 0-143-41-177-104-34 61-98 102-172 102-85 0-164-58-188-141-40 47-99 71-157 71-106 0-202-80-202-192l0-263c0-15 4-28 4-41l6-291c3-89 9-173 30-257 85-344 348-533 700-533 z" fill="#C68D7B"/>
		<path d="M913 106c23 0 39 27 57 50 118 159 330 275 512 330 40 13 91 12 91 52 0 35-73 57-99 65 28 62 31 138 31 204l-3 0c-21-94-105-157-198-157-69 0-147 41-176 102-11 24-16 63-16 89 0 123 4 233 4 356 0 23 1 45 10 65-12 23-28 42-49 59-27-35-33-82-33-124 0-123-4-233-4-356 0-52 12-104 37-151-47-39-89-41-146-41-56 0-118 49-145 95l0 1c-17 35-27 71-27 110l0 309c0 20 8 42 8 58-16 19-36 35-59 47-15-32-21-69-21-105l0-309c0-55 16-117 48-167-37-27-78-41-125-41-93 0-180 63-199 157 5-120 65-303 213-303 72 0 128 33 169 92 27-60 106-92 167-92 53 0 123 28 154 79l12 0c36-66 131-79 182-79l8 1c-164-72-334-192-433-339-5-7-7-14-7-21 0-19 16-36 37-36 z M1515 1014c36 173 153 414 331 489l-21 0c-5 0-40-11-46-14-127-48-218-147-282-258 12-35 18-70 18-107l0-110 z" fill="#AB6A55"/>
	</g></svg>
