<svg version="1.1" xmlns="http://www.w3.org/2000/svg" viewBox="0 0 2300 2300"><g transform="scale(1,-1) translate(-256, -1869)">
		<path d="M1547-286c53 0 104 7 155 20 51 13 99 31 144 55 45 24 88 53 127 87 39 34 73 72 102 114 29 42 53 88 71 137 17 49 28 100 31 153l27 436c8 144 16 289 25 435l0 9c0 23-4 45-12 68-9 22-20 42-34 60-15 17-32 32-52 43-21 11-43 16-67 16-12 0-25-1-38-4-13-3-26-7-39-12-13-5-24-12-35-19-11-8-20-17-28-27l0 138c0 19-4 37-12 54-9 17-20 33-33 46-14 13-30 23-47 31-17 7-35 11-54 11-14 0-29-1-46-4-17-3-34-8-50-14-16-7-30-15-43-26-13-11-21-24-25-40l-3 61c-2 21-5 41-9 61-3 17-10 33-20 48-11 15-23 28-38 39-15 11-30 20-47 27-17 7-34 10-51 10-34 0-63-6-87-18-25-13-44-30-59-51-15-21-26-46-31-74-4-21-7-43-7-65l1-23c-15 24-37 43-64 56-28 13-56 20-84 20-25 0-47-5-68-16-21-11-38-25-53-42-15-17-26-37-34-59-9-23-13-46-13-69 0-4 0-8 1-11l0-11 26-543c-13 21-28 41-44 62-16 21-33 39-52 56-19 17-40 30-63 41-23 10-47 15-74 15-25 0-48-5-69-15-21-10-38-23-53-40-15-17-26-36-34-58-8-23-12-46-12-70 0-33 9-63 27-91 15-23 34-49 55-78l137-190 66-99c21-33 39-64 56-94 16-30 28-57 36-82 9-28 20-55 31-80 11-25 24-50 39-75 28-45 61-87 100-124 38-38 80-71 125-98 45-27 94-49 145-64 51-15 104-23 157-23 z" fill="#C68D7B"/>
		<path d="M1015 679c11 0 20 4 27 11 6 6 9 13 9 22l-34 671 0 15c-1 4-1 9-1 14 0 12 1 25 2 40 1 15 4 29 8 44 3 14 9 27 16 40 7 12 16 21 27 28-39-13-69-36-90-69-21-33-32-69-32-109 0-3 0-7 1-11l0-11 26-543c-9 15-20 30-31 45-11 15-23 30-36 45-13 14-27 27-41 39-15 11-30 21-46 29 30-46 58-93 83-140 25-48 51-95 80-142 7-12 18-18 32-18 z M1933 846c-9 0-17 4-24 12-6 6-10 14-10 22l12 299c1 19 2 37 5 56 3 18 7 36 12 54 17 18 38 32 61 42 23 10 46 15 71 16l0-1c-15 0-28-7-37-21-10-14-18-30-23-49-6-19-10-37-12-56-3-19-4-34-5-44l-12-296c-1-11-5-19-12-25-7-6-16-9-26-9 z M1624 951c-9 0-17 4-24 12-6 7-10 15-10 23l20 457 2 21c0 6 1 12 2 19l0-2c3 13 10 24 20 34 9 9 20 17 33 24 12 7 25 12 39 16 13 4 26 7 37 8-11-5-21-12-28-21-8-9-14-20-19-31-5-11-8-23-10-35-2-13-3-24-4-35l-20-455c-1-10-5-18-12-25-8-7-17-10-26-10 z M1418 1725l0 1-6-1 6 0 z M1321 914c-10 0-18 3-25 10-7 7-11 15-12 25l-23 549 2-2-1 25c0 15 1 30 3 45 3 23 10 45 19 65 9 20 22 38 39 54 16 15 36 27 61 34-12-7-21-17-28-28-7-12-13-25-16-38-4-14-6-28-7-42-1-15-1-28-1-41l0-31c0-11 0-21 1-31l22-559c0-8-3-16-9-23-7-8-15-12-25-12 z" fill="#AB6A55"/>
	</g></svg>
