<svg version="1.1" xmlns="http://www.w3.org/2000/svg" viewBox="0 0 2300 2300"><g transform="scale(1,-1) translate(-256, -1869)">
		<path d="M1349-287c191 0 399 84 551 231 173 169 208 389 208 622 0 274-53 477-178 712 55 76 143 134 143 237 0 45-33 152-85 171l0 1c-35 23-73 41-115 41-69 0-132-47-178-91-46 46-105 89-176 89-96 0-194-89-194-192 0-85 54-169 113-236-26-43-51-87-73-132-30 77-102 135-188 135-87 0-159-57-188-135-40 38-91 56-143 56-104 0-200-76-200-185l-1-147c0-49 0-99 2-148 2-127 7-241 13-368 16-389 298-661 689-661 z" fill="#573739"/>
		<path d="M1789 269c13 0 26 3 39 9 13 5 25 13 36 22 11 9 19 20 26 33 7 12 10 25 10 38 0 33-6 61-19 85-13 23-30 43-51 59-21 16-46 28-73 37-27 9-55 15-84 19-25 3-52 10-82 19-31 9-59 22-85 38-27 16-49 36-67 59-18 23-27 49-27 79 0 29 9 54 27 77 17 22 37 41 59 56-25-4-49-10-72-19-23-9-43-21-60-35-18-15-33-32-44-53-11-21-19-45-22-72-17-14-36-25-57-33-21-8-43-12-66-12-29 0-56 6-81 18-25 12-46 28-64 49-18 20-32 43-42 70-11 26-16 53-16 81l0 60c0 26 1 53 2 81 1 28 2 54 5 79 2 25 5 42 9 53-9 9-19 16-29 23-10 6-21 12-32 17-9-17-15-34-18-53-3-19-5-37-5-55 0-34-1-68-2-102-1-35-2-69-2-103 0-30 6-61 17-93 11-33 25-62 40-87 0-1 0-1-1-1l-4 0-41-15c-8-3-16-5-24-7-8-3-16-5-23-6-7-2-14-3-20-3-26 0-51 5-74 14-24 9-45 21-64 37-19 16-33 35-44 58-11 22-17 46-18 73 0-21 1-45 2-71 1-26 4-52 9-79 5-27 11-52 20-77 8-25 19-48 34-67 14-20 31-36 52-48 20-12 44-18 73-18 39 0 72 6 97 19 25 13 48 35 69 68 17-32 41-54 73-67 31-13 64-20 98-20 34 0 63 8 88 23 25 15 46 37 63 66 11-23 26-44 45-63 19-19 40-33 65-42-20-5-42-12-67-21-25-10-50-21-75-34-25-13-49-27-70-42-22-15-40-31-53-46-7-8-10-16-10-25 0-10 4-19 11-26 7-7 16-11 25-11 5 0 10 1 14 3 4 2 8 5 12 8 18 16 35 30 52 42 17 11 34 22 51 32 17 9 35 18 54 25 19 7 40 15 63 22 33 10 67 18 101 23 34 5 68 8 102 8l19 0c6 0 12 0 18-1l6-8c2-3 4-5 5-8l9-24 9-26c13-33 29-68 48-103 10-4 20-6 31-6 z M1866 813c-70 157-170 315-296 445-75 78-196 257-196 369 0 11 1 23 5 34-35-35-54-78-54-127 0-85 55-169 113-236-25-43-50-87-73-132 11-31 15-62 16-94l-2-96c38 46 96 96 157 96 68 0 127-146 145-196l-2 26 1-1c66-10 134-39 186-88 z M1771 1543c36 49 117 156 178 166-25 13-51 19-76 19-69 0-134-47-178-91 29-29 54-60 76-94 z" fill="#3D2123"/>
	</g></svg>
