<svg version="1.1" xmlns="http://www.w3.org/2000/svg" viewBox="0 0 2300 2300"><g transform="scale(1,-1) translate(-256, -1869)">
		<path d="M2120-290c121 0 219 104 219 221 0 86-97 200-190 200l-138 0c32 40 42 89 42 135 0 75-27 137-100 171 75 40 100 110 100 186 0 72-26 134-95 169 69 39 95 106 95 181 0 157-118 200-248 200l-243 0 0 4c5 27 23 55 45 84 70 95 120 147 120 249 0 120-88 214-209 214-117 0-194-108-242-192-134-227-301-303-515-427-240-141-361-426-361-696 0-534 423-699 880-699l840 0 z" fill="#966661"/>
		<path d="M2329-16c-27 66-101 147-180 147l-138 0c-49-62-129-79-206-79l-241 0c-138 0-229 63-229 214 0 34 8 66 24 95l674 0c-16 31-40 55-71 72l-529 0c-75 39-98 113-98 190 0 32 7 65 23 93l676 0c-15 31-38 54-68 71l-537 0 3 2c-69 40-97 112-97 184 0 66 29 127 91 164-104-21-236-77-236-205 0-23 2-45 2-68 0-224-77-467-241-621-19-18-48-36-48-60 0-21 18-37 36-37 9 0 16 4 23 9 109 88 194 223 242 357 9-29 27-64 60-75-57-22-74-150-74-199 0-186 152-239 302-239l410 0c59 0 116 24 156 72 85 0 204-18 271-87 z" fill="#75443E"/>
	</g></svg>
