<svg version="1.1" xmlns="http://www.w3.org/2000/svg" viewBox="0 0 2300 2300"><g transform="scale(1,-1) translate(-256, -1869)">
		<path d="M1804 285c167 0 306 134 306 306 0 48-12 87-31 134-3 8-5 15-5 21 0 7 2 14 5 22 19 47 31 87 31 135 0 63-17 117-52 173-33 52-51 106-51 169 0 169-136 313-312 313-19 0-31 7-43 22-70 85-148 132-255 132-114 0-186-50-255-132-24-27-55-22-91-25-141-15-265-154-265-309 0-63-17-117-50-169-35-56-52-110-52-173 0-48 12-88 31-135 3-6 4-13 4-22 0-9-1-16-4-22-19-47-31-86-31-134 0-168 136-306 305-306l815 0 z" fill="#FFF9BA"/>
		<path d="M1706-285l119 576c-121 86-269 137-428 137-384 0-713-297-713-686l0-27 1022 0 z" fill="#8B62BF"/>
		<path d="M1361 107c108 0 178 96 178 191l0 225c0 95-69 190-178 190-105 0-178-93-178-190l0-225c0-97 71-191 178-191 z" fill="#E4B29A"/>
		<path d="M1789 747c80 0 143 62 143 143 0 80-64 144-143 144-80 0-143-65-143-144 0-80 62-143 143-143 z M933 749c80 0 143 62 143 143 0 77-63 142-143 142-76 0-142-60-142-142 0-78 63-143 142-143 z" fill="#E4B29A"/>
		<path d="M1361 357c248 0 440 179 451 429 4 106 12 212 12 318 0 30-4 60-12 89l-384 0c-107 0-211 51-268 125-11 14-23 37-41 37-18 0-22-15-29-33-31-75-101-122-179-129-9-28-13-58-13-89 0-107 8-213 12-318 11-248 201-429 451-429 z" fill="#EEBFAA"/>
		<path d="M1219 847c49 0 100 22 128 64 3 5 5 11 5 16 0 15-12 27-26 27-24 0-44-54-107-54-64 0-84 54-108 54-14 0-26-12-26-27 0-5 2-11 5-16 29-43 82-64 129-64 z" fill="#7D4533"/>
		<path d="M1529 571c7 0 10 8 10 14 0 3-1 5-2 8-26 49-80 85-140 85-58 0-112-33-141-85-1-3-2-5-2-7 0-8 7-15 15-15l260 0 z" fill="#990839"/>
		<path d="M1728 1069c13 0 25 8 25 23 0 8-4 14-12 19l-2 0c-21 9-43 17-66 22-25 5-36 7-86 7-22 0-47-6-47-23 0-15 13-23 26-23 14 0 25 3 40 3 17 0 36-2 57-6 29-7 55-22 65-22 z M1066 1070c4 0 8 1 12 3 35 15 72 24 109 24 13 0 27-3 39-3 12 0 27 7 27 21 0 20-24 26-46 26l-18 0c-24 0-148-14-148-49 0-15 12-22 25-22 z" fill="#A56953"/>
		<path d="M1712 333c22 0 43 3 64 10 21 7 40 16 58 28 18 12 34 26 48 43 13 17 24 35 32 55 9 23 14 45 16 68 3 26 7 52 12 77 5 25 12 49 21 74l15 33c7 15 14 30 21 47l20 46c5 15 8 25 8 31 0 17-6 33-18 46-13 13-28 20-46 20-18 0-32-6-43-19-11-13-21-26-28-41-7-15-13-29-18-42-5-13-9-19-14-19-3 0-6 2-7 5-16 44-27 90-34 137-7 47-14 93-19 139-1 15-7 28-18 39-11 10-24 15-39 15-17 0-31-6-42-17-12-11-18-25-18-42 0-25 2-52 7-79 5-27 9-54 14-79l4-14c1-5 2-10 2-14 0-3-1-5-4-6l-5 4c-10 35-18 71-25 106l-22 106c-3 14-10 26-19 36-10 10-23 15-38 15-17 0-31-6-42-17-12-12-18-27-18-44 0-9 2-23 6-42 3-19 8-40 13-61l15-61c5-20 8-35 11-45l-4-1-53 139c-4 11-11 19-22 26-11 7-23 10-34 10-17 0-30-6-41-17-11-12-16-26-16-43 0-8 3-20 9-36 5-16 12-33 20-51 7-18 15-35 23-52 7-17 13-29 16-38l0-2c0-2-1-3-3-3-4 0-8 6-12 17-5 11-10 24-17 37-7 13-15 26-25 37-10 11-23 17-39 17-17 0-31-6-42-18-11-12-17-26-17-42 0-5 1-10 2-14 1-5 3-9 5-14 20-41 41-82 62-122l62-122 31-65c6-13 12-24 18-35 5-11 10-20 15-27 12-18 25-34 38-49 13-15 27-27 42-37 15-11 31-19 50-24 18-6 39-9 62-9 z" fill="#E4B29A"/>
		<path d="M1618 223l322 89-20 78c-4 15-15 24-30 24-20 0-243-65-270-72-15-4-23-17-23-31 0-25 14-62 21-88 z" fill="#774AA6"/>
		<path d="M2181-285l-156 600c-7 22-26 40-51 40-28 0-347-94-390-105-25-7-40-30-40-53 0-4 1-9 2-14l121-468 514 0 z" fill="#A17FD5"/>
	</g></svg>
