<svg version="1.1" xmlns="http://www.w3.org/2000/svg" viewBox="0 0 2300 2300"><g transform="scale(1,-1) translate(-256, -1869)">
		<path d="M1628-285l197 576c-121 86-269 137-428 137-384 0-713-297-713-686l0-27 944 0 z" fill="#FF6723"/>
		<path d="M1361 107c108 0 178 96 178 191l0 225c0 95-69 190-178 190-105 0-178-93-178-190l0-225c0-97 71-191 178-191 z" fill="#F9C136"/>
		<path d="M991 562l815 2c71 33 115 102 115 177l0 372c0 75 64 105 64 199 0 97-62 172-145 201-55 19-94 50-124 97-39 63-104 102-182 102-54 0-90-29-138-29-49 0-88 29-137 29-74 0-137-35-180-99-33-51-73-81-127-100-82-29-144-102-144-200 0-96 63-129 63-200l0-372c0-78 47-148 120-179 z" fill="#FFB02F"/>
		<path d="M1832 795c83 0 150 67 150 149 0 80-64 149-150 149-83 0-149-67-149-149 0-82 66-149 149-149 z M957 795c81 0 149 65 149 149 0 84-70 149-149 149-83 0-149-67-149-149 0-82 66-149 149-149 z" fill="#FECA46"/>
		<path d="M1484 357c167 0 333 128 351 307l26 423-2 0c1 27 2 55 2 82 0 69-56 130-131 130l-102 0c-97 0-167 28-222 130-9 17-24 38-47 38l-126 0c-160 0-304-130-304-295 0-51 5-84 8-124 14-194 8-122 25-384 17-165 172-307 351-307l171 0 z" fill="#FDD641"/>
		<path d="M1514 554c7 0 11 8 11 14 0 3-1 5-2 8-27 50-85 84-141 84-61 0-112-35-140-84-1-3-2-5-2-8 0-9 5-14 15-14l259 0 z" fill="#990839"/>
		<path d="M1204 891c25 0 48 6 71 17 26 13 61 39 61 62 0 15-11 25-25 25-21 0-44-54-107-54-64 0-86 54-107 54-14 0-25-10-25-25 0-5 2-10 5-15 29-40 80-64 127-64 z" fill="#7D4533"/>
		<path d="M1083 1109c14 0 58 46 125 46 9 0 18-2 27-2 17 0 25 17 25 31 0 16-7 24-17 28-10 3-24 3-36 3-33 0-149-27-149-75 0-14 8-31 25-31 z M1710 1109c7 0 13 3 18 10 5 6 7 13 7 20 0 13-6 24-18 33-13 9-27 17-44 24-17 7-33 12-50 15-17 3-30 5-39 5l-18 0c-6-1-11-2-16-4-5-2-9-5-12-9-3-5-5-11-5-19 0-9 2-16 5-20 3-5 8-8 13-9l11-1 24 1c17 0 32-2 46-7 14-5 26-10 37-16 10-6 19-11 26-16 7-5 12-7 15-7 z" fill="#D37034"/>
		<path d="M1674 364c48 0 91 13 130 39 39 25 68 60 87 104 10 23 16 46 18 71 3 27 7 54 13 81 5 27 13 53 23 78l39 83c8 17 15 34 21 49 6 15 9 26 9 32 0 19-7 36-20 50-14 13-31 20-50 20-19 0-35-7-47-20-12-13-22-28-29-44-8-16-14-31-19-44-5-13-11-20-16-20-4 0-7 2-8 6-17 45-30 93-37 143-8 49-15 98-20 146-2 17-9 31-20 42-12 11-27 16-44 16-17 0-32-6-44-19-13-13-19-28-19-45 0-27 3-54 8-83 5-29 11-56 16-82l4-16c1-5 1-11 1-16 0-2-1-3-4-3l-5 4c-11 37-21 74-28 111-8 37-16 74-23 112-3 15-11 28-22 39-11 10-25 15-42 15-17 0-32-6-44-19-13-13-19-29-19-46 0-9 2-24 6-44 4-21 9-42 15-64 5-23 11-44 16-65l12-46-4-2-58 146c-5 11-13 21-24 28-12 7-24 11-36 11-18 0-33-6-44-19-12-13-18-28-18-45 0-8 3-20 10-37 6-17 13-35 22-54 8-19 16-38 24-55l19-41-1-2c-1-1-2-2-3-2-5 0-9 6-14 18-5 12-10 25-17 39-7 14-17 27-28 39-11 12-26 18-43 18-18 0-33-6-45-18-12-13-18-28-18-46 0-11 2-20 7-29 19-38 39-76 60-113 20-38 40-76 59-114 15-27 29-54 42-81 13-28 28-55 43-81 23-39 52-69 87-91 35-23 76-34 122-34 z" fill="#F9C136"/>
		<path d="M1572 249l348 93-22 82c-4 14-18 25-33 25-21 0-254-68-292-76-15-4-25-18-25-32 0-23 16-69 24-92 z" fill="#F95725"/>
		<path d="M2181-285l-169 630c-7 26-31 42-56 42l-15-2-407-108c-25-7-43-29-43-56l2-14 132-492 556 0 z" fill="#FF8101"/>
	</g></svg>
