<svg version="1.1" xmlns="http://www.w3.org/2000/svg" viewBox="0 0 2300 2300"><g transform="scale(1,-1) translate(-256, -1869)">
		<path d="M1855 984c13 1 25 6 36 15 10 9 16 20 19 33l51 278c2 11 3 22 3 33 0 37-7 67-21 88-15 21-32 38-53 53-21 14-44 27-68 40-25 12-47 28-66 47l-48 50c-15 16-31 30-48 43-17 13-35 23-54 30-20 7-43 11-69 11-12 0-24-1-35-4l-35-8c-12-3-24-6-35-8-12-3-24-4-37-4-14 0-27 2-39 5-13 3-25 6-37 10-12 4-24 8-36 11-12 3-24 4-37 4-23 0-45-4-66-13-21-9-39-21-56-37l-91-90c-20-20-42-36-66-48-25-13-47-26-68-40-21-15-39-32-53-53-14-21-21-51-21-88 0-11 1-22 3-32l50-277c3-14 9-25 20-34 11-9 23-14 37-14-1 5-1 11-1 16l0 15c0 63 13 118 39 165 26 47 60 87 103 118 43 31 91 54 146 70 55 15 110 23 167 23 60 0 119-9 177-26 57-17 108-43 153-77 44-34 79-76 104-127 22-44 33-95 33-151l-1-27 z" fill="#212121"/>
		<path d="M1634-285l150 612c-114 72-247 112-388 112-389 0-712-310-712-697l0-27 950 0 z" fill="#00A6ED"/>
		<path d="M1395 89c104 0 189 83 189 188l0 223c0 104-86 188-189 188-104 0-188-84-188-188l0-223c0-103 81-188 188-188 z" fill="#F4C6AD"/>
		<path d="M965 784c80 0 147 64 147 147 0 80-64 147-147 147-80 0-147-64-147-147 0-80 64-147 147-147 z M1826 784c80 0 147 64 147 147 0 80-64 147-147 147-80 0-147-64-147-147 0-80 64-147 147-147 z" fill="#F4C6AD"/>
		<path d="M1540 356c151 0 279 117 290 270 9 120 17 238 25 358 3 44 8 90 8 135 0 73-81 76-81 158l0 78c0 24-15 39-36 46-90 30-265 39-351 39-70 0-181-6-273-20-58-10-115-18-115-65l0-78c0-89-80-84-80-163 0-21 1-43 3-64 13-146 18-268 30-424 10-147 133-270 291-270l289 0 z" fill="#FFD7C2"/>
		<path d="M1087 1087c26 0 59 37 123 37 9 0 19-2 28-2 28 0 48 24 48 50 0 43-37 51-73 51-41 0-175-22-175-87 0-26 22-49 49-49 z M1703 1087c26 0 49 22 49 49 0 65-131 87-172 87-36 0-76-9-76-53 0-34 25-44 50-44l24-1c64 0 99-38 125-38 z" fill="#212121"/>
		<path d="M1199 893c45 0 95 22 123 62 3 5 5 9 5 14 0 15-10 26-25 26-24 0-42-52-103-52-61 0-81 52-102 52-14 0-25-10-25-25 0-5 2-10 5-15 27-39 75-62 122-62 z" fill="#7D4533"/>
		<path d="M1539 555c7 0 12 7 12 14 0 3-1 5-2 8-29 50-91 83-154 83-58 0-120-30-153-83-1-3-2-5-2-8 0-9 5-14 16-14l283 0 z" fill="#990839"/>
		<path d="M1679 355c47 0 89 13 128 39 38 25 66 59 85 102 5 11 9 23 12 35 3 12 5 24 6 36 3 27 8 54 13 80 5 25 12 51 22 76l15 34 23 49c8 17 15 33 21 48 6 15 9 26 9 32 0 19-7 35-20 48-13 13-30 20-49 20-19 0-34-6-46-19-12-13-22-28-29-44l-18-43c-5-13-10-20-15-20-4 0-7 2-8 6-17 45-29 92-37 141-8 49-15 97-20 144-2 17-9 30-20 41-11 11-25 16-42 16-17 0-32-6-44-18-12-12-18-27-18-44 0-27 3-54 8-82l15-82c1-4 2-9 4-14l2-14c0-4-2-6-5-6l-5 4c-11 36-20 72-27 109-8 36-16 73-23 110-3 15-10 28-20 38-11 10-24 15-40 15-17 0-32-6-45-18-13-12-19-27-19-44 0-5 0-8 1-10 4-25 9-50 15-75 6-25 12-50 17-75 1-1 2-5 3-11 1-6 3-12 5-19 1-7 3-13 4-18l2-9c0-2-1-2-3-2l-57 144c-5 11-12 21-23 28-11 7-23 11-36 11-17 0-32-6-43-19-12-13-18-28-18-45 0-7 3-19 10-36 6-17 13-34 21-53l24-54 18-39 0-2c0-3-1-4-4-4-4 0-8 6-12 18l-18 38c-7 14-16 27-27 39-11 11-25 17-42 17-17 0-32-6-44-18-12-13-18-28-18-45 0-10 2-19 7-28l63-119 62-120c13-24 25-48 37-73 12-25 25-49 38-72 22-38 50-68 85-90 35-23 75-34 120-34 z" fill="#F4C6AD"/>
		<path d="M1579 242l342 92-22 81c-4 14-17 24-32 24-20 0-258-68-287-75-15-4-24-17-24-31 0-25 16-65 23-91 z" fill="#0092E7"/>
		<path d="M2177-285l-166 621c-7 24-28 42-55 42l-14-2-400-107c-25-7-42-27-42-54l2-15 129-485 546 0 z" fill="#3BC6F6"/>
	</g></svg>
