<svg version="1.1" xmlns="http://www.w3.org/2000/svg" viewBox="0 0 2300 2300"><g transform="scale(1,-1) translate(-256, -1869)">
		<path d="M1343-298c55 0 109 4 163 12 513 76 915 403 915 948 0 54-4 107-11 160-69 497-404 914-942 914-55 0-109-4-163-12-513-76-915-402-915-948 0-54 4-107 12-160 72-496 399-914 941-914 z" fill="#FFB02E"/>
		<path d="M1367-7c76 0 152 12 225 32 329 90 531 310 531 678 0 65-5 136-23 202l-1388-372c16-63 47-123 77-178 124-223 323-362 578-362 z" fill="#BB1D80"/>
		<path d="M886 471c9 0 18 1 27 4l1042 279c48 12 80 58 80 105 0 9-1 18-4 27l-1250-334c13-45 54-81 105-81 z" fill="#FFFFFF"/>
		<path d="M1564-194c271 0 381 291 381 527 0 144-99 173-220 173-84 0-170-15-251-38-108-31-374-117-374-263 0-37 18-71 37-100 101-158 251-299 427-299 z" fill="#F70A8D"/>
		<path d="M1685 880c179 0 324 144 324 323 0 177-143 324-324 324-178 0-323-145-323-324 0-179 145-323 323-323 z M921 675c179 0 324 145 324 323 0 179-144 324-323 324-177 0-324-143-324-324 0-178 145-323 323-323 z" fill="#FFFFFF"/>
		<path d="M915 741c80 0 144 67 144 144 0 80-67 144-144 144-79 0-144-63-144-144 0-81 67-144 144-144 z M1692 1173c80 0 144 64 144 143 0 80-64 144-143 144-80 0-145-65-145-144 0-80 65-143 144-143 z" fill="#402A32"/>
	</g></svg>
