<svg version="1.1" xmlns="http://www.w3.org/2000/svg" viewBox="0 0 2300 2300"><g transform="scale(1,-1) translate(-256, -1869)">
		<path d="M2087-87c7 0 13 3 18 9 5 5 7 11 7 18 0 4 0 7-1 9l3 0c5 0 9-2 12-5l11-12c3-5 7-9 11-12 4-4 9-6 15-6 6 0 11 2 15 7 5 5 6 10 6 17 1 0 1-1 1-2l11-10c4-4 9-6 14-6 5 0 10 2 15 6 5 4 6 9 6 17l2-1-1 0 1-2c4-5 10-7 17-7 6 0 11 2 15 6 4 4 6 9 6 15 0 5-2 10-5 15-310 329-149 158-475 502l-111 52-68-74 437-458 4-5 2-21c0-9 1-17 3-24 1-8 4-15 9-20 4-5 11-8 20-8 z M1340-287c34 0 66 37 66 72l0 741-78 49-50-216c-11-37-18-74-18-113 0-38 2-72 2-116l0-317-36-28c-19 0-36-17-36-35 0-18 15-37 36-37l114 0 z" fill="#FDD641"/>
		<path d="M1402 288l77 143 140 0 141-136 107 93c-19 57-62 149-102 189l0 286-431 0 0-269c-38-93-75-209-75-306l143 0 z" fill="#00A6ED"/>
		<path d="M1769 859l621 837c3 4 4 8 4 11 0 11-7 18-18 18l-50 0c-38 0-121-76-146-101l-518-476c-11-11-24-19-38-25-66-30-158-36-218-45l-711-97c-47-8-87-5-120-49-8-11-32-40-32-50 0-11 10-21 20-21 251-1 517-2 768-2l438 0 z" fill="#FDD641"/>
		<path d="M1769 859l188 254-166 154-123-106c-38-32-137-56-188-64l-290-48 0-190 579 0 z" fill="#9B9B9B"/>
		<path d="M433 813c-18 0-33 31-33 47 0 3 1 6 3 9 32 36 74 67 111 99 32 27 62 59 96 82 8 5 11 8 22 8 29 0 65-57 81-78l-57-119-157-34c-19-4-47-14-66-14 z M2275 1550l140 78c9 5 19 11 30 16 10 5 20 11 29 17 5 3 9 8 10 15 1 7 1 13 1 18 0 11-2 20-5 25-4 5-9 8-16 9l-15 1-7 0c-9-1-18-1-27-1-15 0-33 0-52 1l-58 0c-20 0-39 0-58-1l-50-3c-9-1-19-5-30-12-10-6-16-15-16-25 0-55 1-32 2-86l122-52 z" fill="#533566"/>
		<path d="M1575 362c32 0 50 6 50 40-11 24-55 120-79 120-7 0-13-3-17-8-11-11-61-101-61-112 0-33 15-40 47-40l60 0 z" fill="#F9C136"/>
		<path d="M1688 202c26 0 49 21 49 48 0 27-23 48-49 48-26 0-48-20-48-48 0-26 20-48 48-48 z M1407 202c26 0 49 21 49 48 0 27-23 48-49 48-26 0-48-20-48-48 0-26 20-48 48-48 z" fill="#FECA46"/>
		<path d="M1560 36c76 0 141 60 141 141 0 57-8 116-12 173-4 50-44 87-94 87l-94 0c-50 0-90-37-94-87-4-58-12-116-12-174 0-77 62-140 140-140l25 0 z" fill="#FDD641"/>
		<path d="M1608 155c9 0 17 1 23 4 8 3 16 2 25 11l1 0c2 0 3 1 5 5l2 8c0 5-2 9-5 12-3 3-7 5-11 5-5 0-11-2-17-6-7-4-15-6-24-6-6 0-11-1-16-2-5-1-8-6-8-14 0-7 3-12 9-14 5-2 11-3 16-3 z M1487 155c5 0 11 1 17 3 5 1 8 6 8 13 0 8-2 13-7 15-5 1-10 2-16 2-7 0-12 1-16 2l-14 5c0 1-1 1-2 1-4 3-7 4-9 4-5 0-8-2-11-5-3-3-5-7-5-12 0-5 2-9 6-12l-1-1 1 0 0-1 1 1c7-5 14-9 23-11 9-3 17-4 25-4 z" fill="#D37034"/>
		<path d="M1618 211c18 0 40 14 40 33 0 5-3 8-8 8l-66 0c-4 0-6-2-6-6 0-20 22-35 40-35 z M1478 211c19 0 40 16 40 35 0 4-2 6-6 6l-66 0c-5 0-8-3-8-8 0-19 22-33 40-33 z" fill="#FFFFFF"/>
		<path d="M1612 219c15 0 25 11 25 26l0 7-51 0c0-19 6-33 26-33 z M1484 219c13 0 25 9 25 23l0 10-51 0 0-7c0-15 12-26 26-26 z" fill="#7D4533"/>
		<path d="M1612 229c9 0 15 8 15 16l-1 7-27 0-2-7c0-8 7-16 15-16 z M1484 229c8 0 15 8 15 16l-2 7-27 0-2-7c0-8 8-16 16-16 z" fill="#000000"/>
		<path d="M1621 230c3 1 4 3 4 5l-4 4c-3 0-4-1-4-4 0-3 1-5 4-5 z M1492 230c3 0 5 2 5 5-1 3-3 4-5 4l-4-4c0-2 1-4 4-5 z" fill="#FFFFFF"/>
		<path d="M1548 234c4 0 10 3 11 8 3 11 16 46 16 54 0 8-7 15-16 15l-22 0c-9 0-16-7-16-15 0-8 14-47 16-54 1-5 5-8 11-8 z" fill="#FFB02C"/>
		<path d="M1598-4c15 0 28 5 38 15l29 30c7 7 14 12 22 16 7 4 15 8 22 13 7 5 12 11 17 18 5 7 7 16 7 28 0 16-2 33-6 51-4 17-8 34-11 50-3 11-9 16-19 16l2-22c1-8 1-16 1-23 0-6-1-11-4-14l-9-9-9-11c-3-4-4-10-4-17l0-25c0-7-6-12-17-15-11-4-24-7-39-9-15-2-29-3-42-3l-28-1c-18 0-37 1-57 3-21 1-40 5-57 10-8 3-12 8-12 15l0 25c0 7-1 13-4 17l-9 11-9 9c-3 3-4 8-4 14 0 7 0 15 1 22l2 22c-10 0-16-5-18-15l-11-51c-5-18-7-35-7-51 0-12 2-21 7-28 5-7 10-12 17-16 7-5 14-9 22-13 7-4 14-9 21-16 11-11 22-21 32-30 9-9 22-14 39-14 8 0 16 1 24 4 7 3 15 4 23 4 9 0 18-2 25-5 7-3 16-5 25-5 z" fill="#FFB02F"/>
		<path d="M1593 326c3 0 5 2 5 5 0 16-37 29-50 29-13 0-51-14-51-29 0-3 2-5 5-5 8 0 28 11 46 11 16 0 37-11 45-11 z" fill="#990839"/>
	</g></svg>
