<svg version="1.1" xmlns="http://www.w3.org/2000/svg" viewBox="0 0 2300 2300"><g transform="scale(1,-1) translate(-256, -1869)">
		<path d="M1133 607l584 52c115 11 198 107 198 216 0 60-36 113-36 129 0 19 16 54 16 90 0 49-17 98-48 138-28 35-41 70-46 116-13 114-103 203-222 203l-18-1c-14 0-21 1-32 12-50 51-98 78-167 78-85 0-147-40-192-109-8-12-15-15-29-18-115-16-203-101-203-220 0-15 2-26 2-41 0-77-53-133-53-207 0-62 36-114 36-131 0-19-16-54-16-90 0-92 56-168 132-200 32-14 67-17 94-17 z" fill="#212121"/>
		<path d="M2182 696l0 117-120 63-118-63 0-117 238 0 z M849 696l0 117-114 63-123-63 0-117 237 0 z" fill="#774AA6"/>
		<path d="M2215 812c47 0 86 19 117 54 13 16 47 48 47 72 0 12-4 22-12 30 13 15 28 28 28 49 0 19-11 32-28 39 3 5 4 11 4 18 0 23-20 41-42 41-11 0-20-3-27-10-9 17-21 25-38 25-13 0-23-5-32-15l-66-76-60-1c-6 0-9 3-9 9 0 11 39 29 39 65 0 29-23 54-53 54-37 0-54-34-76-59-41-48-62-106-62-166l0-129 270 0 z M849 813l0 129c0 60-21 118-62 166-20 23-41 59-76 59-30 0-53-25-53-54 0-35 38-55 38-66 0-6-3-9-8-9l-61 1-65 76c-9 10-19 15-32 15-15 0-31-10-38-24-7 7-17 10-28 10-22 0-41-18-41-41 0-7 1-13 4-18-17-7-28-20-28-39 0-21 15-34 28-49-9-9-13-19-13-30 0-12 9-27 19-39 55-66 90-87 147-87l269 0 z" fill="#FFD7C2"/>
		<path d="M1825-156l0 356c64-48 97-84 179-84 117 0 212 93 212 211l0 362c0 29-20 53-52 53l-205 0c-30 0-53-24-53-53l0-174c0-8-4-12-13-12-12 0-180 94-202 107-46 23-95 35-147 35l-292 0c-52 0-103-12-150-36-21-12-199-106-203-106-6 0-12 6-12 12l0 174c0 29-23 53-53 53l-204 0c-29 0-53-23-53-53l0-362c0-117 93-211 212-211 72 0 118 34 180 72l0-344 856 0 z" fill="#8B62BF"/>
		<path d="M1397 464c77 0 140 62 140 140l0 166c0 76-60 141-140 141-76 0-141-60-141-141l0-165c0-76 60-141 141-141 z" fill="#F4C6AD"/>
		<path d="M1716 992c53 8 90 55 90 106 0 56-41 99-95 106l5-212 z M1082 937l-32 210c-49-11-81-54-81-103 0-63 49-107 113-107 z" fill="#F4C6AD"/>
		<path d="M1395 668c181 0 332 132 332 327 0 40-1 80-3 119-5 67 0 134-23 195l-290-26-12 0c-83 0-137 32-198 94-4 4-9 6-14 6-8 0-14-4-17-12-20-53-31-78-84-107-32-18-43-55-43-87l0-10 27-213c21-169 155-286 325-286 z" fill="#FFD7C2"/>
		<path d="M1171 1041c42 18 89 35 131 53-22 28-54 48-88 48-27 0-89-21-89-52 0-23 31-39 46-49 z M1615 1080c12 14 36 31 36 50 0 32-59 42-82 42-44 0-74-28-92-63 48-11 90-17 138-29 z" fill="#000000"/>
		<path d="M1155 1036l152 13c3 1 7 2 10 5 3 3 4 6 4 10 0 10-3 19-9 28-6 9-14 16-23 23-9 7-19 12-30 16-11 3-20 5-29 5-11 0-21-2-32-6-11-5-20-11-29-18-9-7-17-16-22-26-6-10-9-21-9-32 0-5 2-10 6-13 3-3 7-5 11-5 z M1477 1065l152 12c5 1 10 3 13 7 3 3 4 7 4 12 0 9-3 18-9 27-7 8-14 15-23 21-9 6-19 11-29 15-11 3-20 5-28 5-11 0-22-2-33-6-11-5-21-11-30-18-9-7-17-16-22-26-6-10-9-21-9-33 0-5 2-9 5-12 2-2 6-4 9-4 z" fill="#FFFFFF"/>
		<path d="M1186 1038l115 10 1 11c0 36-29 61-62 61-34 0-57-30-57-60 0-6 0-15 3-22 z M1485 1065l115 10 1 8 0 8c0 32-31 54-59 54-33 0-60-25-60-59 0-7 0-14 3-21 z" fill="#7D4533"/>
		<path d="M1213 1041l60 5c2 3 3 7 3 12 0 19-13 36-35 36-18 0-33-16-33-35 0-7 2-13 5-18 z M1512 1068l61 5c1 4 2 7 2 11 0 18-13 36-32 36-21 0-36-13-36-35 0-6 2-12 5-17 z" fill="#000000"/>
		<path d="M1220 1070c7 0 11 4 11 11 0 7-4 11-11 11-7 0-11-4-11-11 0-7 4-11 11-11 z M1519 1097c7 0 10 3 10 10 0 7-3 11-10 11-7 0-11-4-11-11 0-7 6-10 11-10 z" fill="#FFFFFF"/>
		<path d="M1399 931c29 0 61 8 61 39 0 14-20 60-36 94-15 31-15 42-34 42-12 0-22-9-25-21-5-28-26-93-26-119 0-18 16-35 35-35l25 0 z" fill="#F1B99B"/>
		<path d="M1142 1170c11 0 49 30 98 30l13-1c13 0 20 6 20 19 0 19-18 19-31 19-22 0-118-17-118-49 0-11 7-18 18-18 z M1616 1212c11 0 18 7 18 18 0 27-76 32-92 32-16 0-61-1-61-22 0-11 6-19 17-19 13 0 26 5 41 5 12 0 24-1 35-3 14-3 28-11 42-11 z" fill="#212121"/>
		<path d="M1415 800c24 0 43 18 43 43 0 25-19 43-43 43-25 0-42-21-42-43 0-22 17-43 42-43 z" fill="#990839"/>
	</g></svg>
