<svg version="1.1" xmlns="http://www.w3.org/2000/svg" viewBox="0 0 2300 2300"><g transform="scale(1,-1) translate(-256, -1869)">
		<path d="M915 988c7 0 13 5 13 14 0 5-2 9-6 12-42 23-496 296-508 296-8 0-14-7-14-15 0-5 2-8 7-11 41-26 498-296 508-296 z" fill="#636363"/>
		<path d="M1269-131l-164 0-108 483-2 15c0 24 12 44 31 59l394 286 203-162-425-250 71-431 z M2059-123l175 40-392 796-219-163 436-673 z M1244 768c-60 0-119 16-171 47l-101 59c-22 13-37 37-37 65 0 40 32 75 75 75 61 0 133-95 235-95 192 0 179 227 285 227 43 0 74-34 74-75 0-37-48-104-66-135-61-103-172-168-294-168 z M1827 1020c180 0 340 143 340 340 0 52-1 103-2 155 0 27-13 50-33 67-9 8-30 28-42 28-8 0-14-3-18-8-8 7-17 16-29 16-11 0-19-6-22-17-2 1-5 2-10 2-13 0-25-10-25-25 0-6 2-11 6-15-7-5-13-14-13-23 0-21 41-45 55-56l-1 0 1-10c0-5-2-8-5-8-7 0-17 22-38 22-17 0-31-12-31-31 0-21 37-51 56-59l0-39c0-104-84-189-189-189l-113 0 0-150 113 0 z" fill="#9B9B9B"/>
		<path d="M970 829c9 0 16 4 21 13 12 20 105 173 105 185 0 9-4 16-13 21-36 21-66 44-110 44-71 0-124-58-124-124 0-47 24-86 62-108 10-8 47-31 59-31 z" fill="#E6E6E6"/>
		<path d="M1269-131l-164 0-55 243 178 0 41-243 z M2255-123l-196 0-132 204 179 96 149-300 z M1630 549c30 0 55 10 76 31l135 132 1-1 0 270c0 111-89 212-211 212-113 0-211-92-211-212l0-270 135-131c21-21 46-31 75-31 z" fill="#D3D3D3"/>
		<path d="M1618 1035c64 0 111 49 111 111l0 123-222-48 0-75c0-62 53-111 111-111 z" fill="#E6E6E6"/>
		<path d="M1563 1165c99 0 187 80 187 186l0 116c0 104-83 186-187 186-101 0-186-81-186-186l0-116c0-101 81-186 186-186 z" fill="#D3D3D3"/>
		<path d="M1555 1167c35 25 58 66 58 111l0 144 137 0 0 38-137 0c0 19 0 37 1 55 0 18-1 35-4 52-6 32-20 62-55 86-105-6-168-86-168-179l0-128c0-100 69-176 168-179 z" fill="#E6E6E6"/>
		<path d="M1506 1175c45 18 78 62 78 115l0 239c0 53-33 97-78 115-79-24-128-102-128-177l0-116c0-78 51-152 128-176 z" fill="#321B41"/>
		<path d="M2381-247c15 0 27 12 27 28 0 9-4 17-12 22l-162 113-175-39 0-105c0-10 9-19 20-19l302 0 z M1249-247c11 0 20 9 20 19l0 105-175 39-162-113c-8-5-12-13-12-22 0-16 12-28 27-28l302 0 z" fill="#433B6B"/>
	</g></svg>
