<svg version="1.1" xmlns="http://www.w3.org/2000/svg" viewBox="0 0 2300 2300"><g transform="scale(1,-1) translate(-256, -1869)">
		<path d="M1211 707c67 0 127 15 179 44 71 40 104 74 162 136 4 4 9 7 15 8l17 4c5 1 10 4 14 7 4 3 6 10 6 19 0 9-3 16-9 21-6 4-13 6-22 6-9 0-17-1-26-4-9-3-17-4-26-4l-7 0 10 13 26 0 15 1c7 1 12 4 17 8 5 3 7 9 7 18 0 15-7 24-22 27 5 2 9 5 13 10 3 4 5 9 5 14 0 9-3 16-8 20-5 4-12 7-19 8l-17 1-29-1c-9 0-17-2-26-5-9-4-17-10-22-17-7-9-13-19-19-28-6-9-13-18-20-27-31-37-64-66-99-86-35-20-79-30-130-30-33 0-63 9-89 26-26 17-48 38-67 65-5 6-9 12-12 19-3 8-6 15-12 21l-146-66c5-11 11-23 18-34 7-11 14-22 21-31 35-48 75-86 120-113 45-27 98-44 157-49 4-1 8-1 13-1l12 0 z M2231 693c37 0 65 22 76 57l65 198c5 13 7 28 7 44 0 79-65 139-139 139l-299 0c-44 0-81-34-81-81 0-44 34-82 81-82l268 0c-14-38-59-166-59-194 0-47 38-81 81-81 z" fill="#452829"/>
		<path d="M2026 367l-132 131 220 215c19 19 41 28 68 28 50 0 96-42 96-96 0-27-10-51-29-68l-223-210 z M780 372l133 130-216 211c-19 19-41 28-68 28-54 0-95-44-95-96 0-25 10-49 29-68l217-205 z" fill="#007ACF"/>
		<path d="M1820 967l-136 136 112 111 135-135-111-112 z M984 967l136 136-112 111-136-135 112-112 z" fill="#452829"/>
		<path d="M1624 1077c60 0 167 36 186 103l57 200c0 76-64 136-136 136l-89 0c-76 0-136-64-136-136l1-37c0-14-3-26-8-37-7-14-29-32-29-47 0-26 36-27 36-38 8-89 17-144 118-144 z M1179 1077c26 0 47 4 62 11 15 7 26 16 34 29 7 13 12 28 15 46 3 17 5 37 7 58 0 3 2 5 6 7l13 6c5 2 9 5 13 9 3 3 5 9 5 16 0 7-4 15-12 24-8 9-14 16-17 23-5 10-8 21-8 32l0 42c0 19-3 36-10 53-7 17-17 31-29 44-13 12-27 22-44 29-17 7-34 10-53 10l-88 0c-19 0-36-3-53-10-17-7-31-17-43-29-13-13-22-27-29-44-7-17-11-34-11-53l15-48c3-13 7-24 10-35l31-117c5-17 14-31 28-44 14-13 30-23 49-32 18-9 37-15 57-20 19-5 37-7 52-7 z" fill="#573739"/>
		<path d="M1837 1278c19 43 52 95 52 146 0 78-62 139-138 139l-74 0c-40 0-75 18-115 18-38 0-68-34-68-68 0-25 13-47 35-59l153 0c27 0 13-49 45-81 32-32 67-76 110-95 z M967 1278c44 16 77 62 110 95 32 32 21 81 45 81l153 0c22 12 35 34 35 59 0 34-31 68-68 68-40 0-74-18-114-18l-74 0c-78 0-140-62-140-139 0-51 33-103 53-146 z" fill="#000000"/>
		<path d="M1855 1l24 195c3 18 11 43 26 57l129 121-133 130c-97-94-198-169-198-308l0-195 152 0 z M1108 1l0 195c0 144-102 216-197 308l-133-130 128-121c15-15 24-39 27-57l24-195 151 0 z" fill="#452829"/>
		<path d="M2377-88c-12 40-101 308-101 331 0 24 28 90 36 114l-202 0c-14-42-25-71-25-115 0-16 3-58 12-75l134-255 146 0 z M581-88l133 255c8 15 12 60 12 75 0 44-11 73-25 115l-202 0c8-24 36-90 36-114 0-24-87-288-100-331l146 0 z" fill="#573739"/>
		<path d="M1815-215l-241 0c-23 0-35 17-35 38 0 12 7 21 18 28l146 77 148 0-5-113c-1-19-12-30-31-30 z M1238-215c23 0 35 17 35 38 0 12-8 23-18 28l-146 77-149 0 5-113c1-17 12-30 31-30l242 0 z M2390-215c12 0 22 11 22 21 0 8-35 109-40 125l-151 0-134-89c-9-6-14-15-14-26 0-17 13-31 31-31l286 0 z M707-215c17 0 31 13 31 31 0 11-5 20-14 26l-133 89-151 0c-5-13-40-117-40-125 0-11 11-21 21-21l286 0 z" fill="#533566"/>
		<path d="M1606 1284l-65 0c-7 0-9 6-9 11 0 22 18 40 41 40 22 0 42-16 42-39 0-5-2-12-9-12 z M1263 1284c7 0 9 6 9 11 0 25-19 40-42 40-23 0-41-17-41-39 0-5 2-12 9-12l65 0 z" fill="#FFFFFF"/>
		<path d="M1582 1284l-49 0-1 11c0 15 7 33 25 33 18 0 26-18 26-33l-1-11 z M1271 1284l1 11c0 15-8 33-26 33-18 0-26-18-26-33 0-4 1-7 2-11l49 0 z" fill="#7D4533"/>
		<path d="M1563 1284l-21 0c-3 3-4 6-4 11 0 8 5 19 14 19 9 0 15-11 15-19 0-3-1-7-4-11 z M1262 1284c3 4 4 8 4 11 0 8-6 19-15 19-9 0-14-11-14-19 0-5 1-8 3-11l22 0 z" fill="#000000"/>
		<path d="M1544 1302c3 0 5 2 5 6 0 5-2 7-5 7-3 0-5-2-5-7 0-4 2-6 5-6 z M1260 1302c3 0 5 2 5 6 0 5-2 7-5 7-3 0-5-2-5-7 0-4 2-6 5-6 z" fill="#FFFFFF"/>
		<path d="M1609 1353c7 0 10 3 10 9 0 7-3 10-10 10l-59 0c-6 0-9-3-9-10 0-6 3-9 9-9l59 0 z M1253 1353c7 0 10 3 10 9 0 7-3 10-10 10l-59 0c-6 0-9-3-9-10 0-6 3-9 9-9l59 0 z" fill="#000000"/>
		<path d="M1609 1351c10 0 20 10 20 20 0 10-10 20-20 20l-59 0c-10 0-19-9-19-20 0-11 9-20 19-20l59 0 z M1253 1351c10 0 20 10 20 20 0 10-10 20-20 20l-58 0c-10 0-20-10-20-20 0-10 10-20 20-20l58 0 z" fill="#000000"/>
		<path d="M2310 352l-202 0 57 174-23-2c-19 0-38 4-57 11-26 9-49 24-68 43l-214 224c-18 19-32 40-41 62-10 22-15 46-15 73 0 27 5 52 15 75 10 23 24 43 41 60 17 17 38 31 61 41 23 10 47 15 74 15 25 0 50-5 73-14 23-9 44-23 62-41l256-256c22-22 40-45 53-69 13-24 19-52 19-85 0-15-1-30-4-43-3-14-7-28-12-42l-75-226 z M703 352l-57 173 20-1c21 0 41 3 61 10 26 9 49 23 68 43l214 225c18 19 32 40 42 62 9 22 14 46 14 73 0 27-5 52-15 75-10 23-24 43-41 60-17 17-38 31-61 41-23 10-48 15-75 15-25 0-50-5-73-14-24-9-45-23-62-41l-255-256c-22-22-39-45-52-69-13-24-20-52-20-85 0-15 2-30 5-43 3-14 6-28 11-42l75-226 201 0 z" fill="#0092E7"/>
		<path d="M1648 1036c5 0 8 1 11 4 21 19 40 43 57 71 17 27 29 55 38 83l17-2c8 0 16 2 24 4 13 4 24 10 34 19 10 9 18 19 24 32 6 12 9 25 9 39 0 30-10 53-30 69-21 16-45 24-73 24l-28 93c-10 30-20 60-29 91-2 8-7 12-16 12-4 0-7-2-10-5-3-3-5-7-5-11 0-7 3-19 8-35 5-16 11-33 18-52 7-19 13-37 19-56 6-19 10-34 12-46-16-7-29-19-38-34-10-16-15-33-15-50 0-17 4-33 13-48 9-15 21-26 36-34-9-29-21-54-35-75-14-21-31-43-52-66-3-3-5-7-5-12 0-5 2-8 5-11 3-3 7-4 11-4 z M1156 1036c4 0 8 2 11 5 3 3 4 7 4 11 0 5-1 8-4 11-21 23-38 45-52 66-15 21-26 46-35 75 15 8 27 19 36 34 8 15 12 31 12 48 0 18-5 35-14 50-9 15-22 27-39 34 2 9 6 23 13 43l37 116c5 17 7 27 7 30 0 4-1 8-4 11-3 3-7 5-12 5-8 0-13-4-15-12l-53-173-3-11c-28 0-52-8-73-23-21-16-31-39-31-70 0-14 3-27 9-39 6-13 14-23 25-32 10-9 22-15 35-19 8-2 16-4 24-4l16 2c8-28 20-56 37-83 17-28 36-52 58-71 3-3 6-4 11-4 z" fill="#321B41"/>
		<path d="M1595 1184c6 0 9 3 9 9 0 6-3 9-9 9l-51 0c-6 0-9-3-9-9 0-6 3-9 9-9l51 0 z M1260 1184c6 0 9 3 9 9 0 6-3 9-9 9l-52 0c-6 0-9-3-9-9 0-6 3-9 9-9l52 0 z" fill="#290118"/>
		<path d="M2372-69l-22 69-165 0 36-69 151 0 z M1851-72l-148 0 0 72 152 0-4-72 z M1109-72l0 72-152 0 3-72 149 0 z M591-69l36 69-166 0-21-69 151 0 z" fill="#D3D3D3"/>
		<path d="M1422 501c27 0 53 0 80 1 27 1 53 1 80 1 23 0 46 5 69 14 23 9 45 20 67 35 22 15 43 32 64 51 21 19 40 38 59 58 19 20 36 40 51 60l41 53c17-10 36-15 57-15 17 0 33 3 48 10 15 7 28 16 39 27 11 11 19 24 26 39 6 15 9 30 9 47 0 31-11 59-33 82l-31 33c-10 11-20 21-31 30-11 9-23 16-36 22-13 5-27 8-44 8-17 0-32-3-46-10-15-7-27-15-38-26-11-11-19-24-25-39-7-15-10-30-10-46 0-7 1-14 2-19 1-5 3-11 4-18-12-21-27-45-45-72-19-27-39-53-62-76-23-24-48-44-75-60-27-17-54-25-83-25-4 0-7 0-9 1-1 5-3 10-4 17l-6 19c-3 6-6 11-10 15-5 4-10 6-17 6-7 0-12-2-17-6-5-5-9-10-10-17-19 17-40 26-65 26l-16 0c-6 0-11-1-16-2-5-2-9-5-12-8-3-4-5-10-5-17 0-11 3-18 9-21 6-3 13-5 21-6l25-2c21-2 20-8 35-23l-40 3-15-1c-10-1-18-4-25-8-7-5-11-12-11-22 0-5 2-10 5-15 3-5 8-8 13-10-12-5-18-13-18-25 0-8 3-14 9-19 5-5 12-8 19-8-3-3-4-8-4-15 0-7 3-14 8-19 5-5 12-8 19-8 z M1269 339c6 0 12 2 18 6 5 4 8 9 9 16 3-2 6-3 11-3 8 0 14 2 18 6 3 4 6 9 9 16 9 0 17 2 24 5 7 3 10 10 10 21 0 5-1 9-3 13 5 2 9 6 12 11 3 5 4 10 4 15 0 6-2 12-6 17-4 5-9 9-15 13l-18 10c-7 3-12 5-17 8l2 0c4 0 10 3 14 10 5 7 7 13 7 18 0 7-3 13-8 18-5 5-12 7-19 7l-14-2-38-12c-7-4-11-5-17-5-67 35-125 81-175 137-51 56-90 119-117 190 11 11 19 24 25 39 6 14 9 29 9 44 0 16-3 31-9 46-7 14-15 27-26 38-11 11-24 19-38 26-15 7-30 10-46 10-17 0-33-3-48-10-15-7-29-16-40-27l-30-29c-10-10-19-20-27-30-8-11-14-22-19-34-5-12-8-26-8-41 0-16 3-31 10-45 6-15 14-27 25-38 11-11 23-20 38-27 14-7 29-10 45-10 21-50 45-95 72-134 27-39 56-75 89-106 33-32 69-61 108-87 39-27 83-52 130-77 7-3 15-8 25-14 9-6 17-9 24-9 z" fill="#573739"/>
	</g></svg>
