<svg version="1.1" xmlns="http://www.w3.org/2000/svg" viewBox="0 0 2300 2300"><g transform="scale(1,-1) translate(-256, -1869)">
		<path d="M2181 709l0 117-118 37-119-37 0-117 237 0 z M849 709l0 117-123 39-114-39 0-117 237 0 z" fill="#0092E7"/>
		<path d="M1871-143l0 314c48-27 82-42 133-42 117 0 212 93 212 211l0 362c0 29-22 53-52 53l-206 0c-30 0-53-24-53-53l0-174c0-8-4-12-12-12-8 0-179 91-202 107-42 22-99 35-148 35l-291 0c-52 0-103-12-150-36-20-12-200-106-204-106-7 0-11 5-11 12l0 174c0 29-23 53-53 53l-205 0c-29 0-53-23-53-53l0-362c0-117 93-211 212-211 59 0 85 16 137 44l0-316 946 0 z" fill="#00A6ED"/>
		<path d="M2214 825c47 0 86 18 117 54 16 19 48 47 48 72 0 13-4 23-12 31 13 15 28 28 28 48 0 19-12 34-28 40 3 7 4 12 4 17 0 25-21 42-43 42-11 0-19-3-26-10-9 15-22 23-39 23-13 0-23-5-31-14l-66-76-61-1c-5 0-8 3-8 9 0 11 38 30 38 66 0 29-21 53-53 53-34 0-58-37-75-59-41-48-62-106-62-166l0-129 269 0 z M849 826l0 129c0 63-21 119-63 166-20 23-41 59-76 59-30 0-52-24-52-53 0-37 38-56 38-67 0-6-3-9-8-9l-61 1-66 76c-9 10-19 15-32 15-15 0-30-9-37-24-7 7-17 10-28 10-22 0-42-19-42-42 0-5 1-10 4-17-16-7-27-20-27-39 0-21 15-34 28-49-9-9-13-19-13-30 0-24 33-55 48-73 30-36 74-53 117-53l270 0 z" fill="#EEBFAA"/>
		<path d="M1396 477c76 0 141 60 141 141l0 166c0 76-61 140-141 140-77 0-140-62-140-140l0-166c0-77 62-141 140-141 z" fill="#E4B29A"/>
		<path d="M1071 946c57 0 104 47 104 105 0 56-45 105-104 105-57 0-105-46-105-105 0-59 47-105 105-105 z M1684 1001c56 0 105 45 105 104 0 59-48 105-105 105-57 0-104-47-104-105 0-55 44-104 104-104 z" fill="#FECA46"/>
		<path d="M1290 659c71 0 157 12 226 19 108 11 190 96 190 210 0 124-3 235-6 359-3 168-140 304-309 304-27 0-55-3-83-6-159-16-282-144-282-307 0-17 1-33 4-49l56-355c16-100 103-175 204-175 z" fill="#EEBFAA"/>
		<path d="M1144 1185c5 0 9 1 13 3 5 3 7 7 12 7 37 37 114 8 114 62 0 24-21 34-39 34-31 0-136-20-136-69 0-21 17-37 36-37 z M1583 1224c21 0 36 16 36 35 0 43-84 55-111 55-26 0-68-3-68-38 0-19 13-36 35-36 11 0 21 4 32 4 34 0 56-20 76-20 z" fill="#A56953"/>
		<path d="M1152 1056l145 13c3 1 7 2 10 5 3 3 4 6 4 9 0 9-3 18-8 27-6 8-13 15-22 22-9 6-18 11-28 15-10 3-19 5-28 5-10 0-20-2-31-6-11-5-20-10-29-17-9-7-16-16-21-25-6-10-9-20-9-31 0-5 2-10 6-13 3-2 7-4 11-4 z M1455 1083l146 12c5 1 9 3 12 7 3 3 4 7 4 11 0 9-3 18-9 26-6 8-13 15-22 21-9 6-19 11-29 14-10 3-19 5-27 5-10 0-20-2-31-6-11-5-20-10-28-17-9-7-16-16-21-26-5-10-8-20-8-31 0-5 1-9 4-12 2-2 6-4 9-4 z" fill="#FFFFFF"/>
		<path d="M1182 1059l111 10 1 8 0 8c0 29-32 51-58 51-30 0-57-26-57-57 0-5 0-15 3-20 z M1463 1083l109 10 1 11c0 30-25 56-56 56-31 0-58-24-58-57 0-8 1-15 4-20 z" fill="#7D4533"/>
		<path d="M1208 1061l58 5c3 5 3 9 3 16 0 18-18 30-34 30-18 0-32-15-32-34 0-6 2-12 5-17 z M1489 1085l59 5 2 16c0 18-18 30-34 30-18 0-32-15-32-34 0-6 2-12 5-17 z" fill="#000000"/>
		<path d="M1215 1090c7 0 10 3 10 10 0 7-3 10-10 10-7 0-10-3-10-10 0-7 3-10 10-10 z M1497 1114c7 0 10 3 10 10 0 7-3 10-10 10-7 0-10-3-10-10 0-7 3-10 10-10 z" fill="#FFFFFF"/>
		<path d="M1047 1088l-9 51c-4 18-6 35-6 51 0 12 3 22 8 29l16 20c6 7 12 14 17 23 5 8 7 20 7 35 0 11-1 21-2 32-2 10-3 20-3 31 0 7 2 14 7 20 4 5 9 9 16 12 24 10 51 19 82 26 30 7 61 12 93 17 31 4 63 7 94 9 31 2 59 3 86 3 24 0 49-1 74-2 25-1 49-4 72-9 17-3 26-13 28-31l5-56c1-15 6-27 13-36 7-9 15-16 24-23 8-7 15-15 22-22 7-7 10-18 10-31 0-15 0-31 1-46 0-15 0-31 1-46 10 1 18 6 25 13 6 7 10 16 11 26 1 15 3 32 6 51l12 112c1 18 2 34 2 49 0 29-6 51-17 67-11 15-25 28-41 38-17 9-34 18-53 25-19 7-37 18-53 31l-34 30c-11 10-23 19-34 27-12 8-25 14-38 19-14 5-29 7-46 7-11 0-22-1-32-4l-31-9c-10-4-20-7-30-10-11-3-22-4-33-4-15 0-30 2-43 7-13 4-27 6-42 6-19 0-35-3-49-10-15-7-28-16-39-27-11-11-22-24-32-37l-32-40c-13-15-27-28-42-37-16-10-31-20-44-31-14-11-26-23-35-38-9-15-14-34-14-59 0-10 2-21 5-33l53-195c3-9 8-17 17-23 7-5 15-8 23-8l4 0 z" fill="#FFF9BA"/>
		<path d="M1397 807c25 0 45 19 45 45 0 25-19 45-45 45-25 0-45-19-45-45 0-25 19-45 45-45 z" fill="#990839"/>
		<path d="M1362 942l24 1c29 1 59 8 59 37 0 14-20 60-35 93-16 35-16 41-33 41-13 0-22-7-25-20-5-29-25-91-25-118 0-21 17-34 35-34 z" fill="#D19479"/>
	</g></svg>
