<svg version="1.1" xmlns="http://www.w3.org/2000/svg" viewBox="0 0 2300 2300"><g transform="scale(1,-1) translate(-256, -1869)">
		<path d="M933-287c36 0 57 23 82 53 109 132 182 285 182 463 0 187-85 338-213 468-110 112-196 255-196 413 0 193 143 400 361 400 143 0 272-56 339-180 26-53 32-108 92-108 40 0 72 35 72 73 0 19-13 57-28 88-94 185-280 270-475 270-290 0-505-257-505-539 0-128 42-247 105-350-117-16-206-113-206-233l0-327c0-25 21-26 39-26 131 0 236 106 236 237l0 253c20-25 41-49 64-72 100-103 170-220 170-367 0-127-53-244-124-340-28-35-67-64-67-105 0-40 34-71 72-71 z" fill="#86D72F"/>
		<path d="M1513 253c18 0 39 7 58 11 92 18 157 89 176 172 42-59 111-97 187-97 17 0 31 1 44 4 25 5 74 5 74 39 0 24-59 298-67 340-21 106-111 183-221 183-22 0-83-9-101-18l-8 2c-18 0-39-8-56-11-108-22-184-116-184-223 0-13 2-28 5-45l66-333c3-14 14-24 27-24 z" fill="#CA0B4A"/>
		<path d="M2196-287c16 0 30 14 30 30l0 272c0 106-86 186-186 186l-36 0c-17 0-30-12-30-30l0-272c0-104 82-186 186-186l36 0 z M1376 377c13 0 26 2 41 6l39 10c31 7 60 17 87 32 27 14 52 31 74 52 21 21 40 44 55 71 15 27 26 56 33 87 29-43 67-76 114-100 47-25 96-37 148-37 21 0 42 2 63 6 9 2 19 4 31 5 12 1 24 4 35 7 11 3 20 9 28 16 7 7 11 16 11 29l0 4c-1 1-1 2-1 3l-93 468c-7 37-21 72-40 103-19 31-43 59-71 82-28 23-59 40-94 53-35 13-71 19-109 19-23 0-47-2-72-6-25-5-49-10-71-17l-15 2c-10 0-19-2-30-5-17-5-32-8-45-11-37-7-72-21-103-40-31-19-58-43-81-70-23-28-40-59-53-94-13-35-20-71-20-109 0-21 2-42 6-63l93-469c2-9 7-17 15-24 7-7 16-10 25-10 z" fill="#F8312F"/>
	</g></svg>
