<svg version="1.1" xmlns="http://www.w3.org/2000/svg" viewBox="0 0 2300 2300"><g transform="scale(1,-1) translate(-256, -1869)">
		<path d="M1738 272l141 101c139 99 223 261 226 431 1 93 3 177 3 270 0 137-110 246-246 246-133 0-245-109-245-246l0-289c0-54 19-110 54-154l-396-359 463 0 z" fill="#CA0B4A"/>
		<path d="M1837 144l0 216c48 64 72 139 72 215l0 647c0 276-223 503-503 503l-216 0c-267 0-503-213-503-503l0-503c0-167 85-323 216-413l0-162 934 0 z" fill="#F8312F"/>
		<path d="M1775-287c39 0 62 34 62 68l0 435-934 0 0-435c0-34 23-68 62-68l810 0 z" fill="#9B9B9B"/>
		<path d="M1527-144c15 0 23 13 23 26l0 165c0 13-8 25-23 25l-314 0c-15 0-23-12-23-25l0-165c0-13 8-26 23-26l314 0 z" fill="#D3D3D3"/>
	</g></svg>
