<svg version="1.1" xmlns="http://www.w3.org/2000/svg" viewBox="0 0 2300 2300"><g transform="scale(1,-1) translate(-256, -1869)">
		<path d="M1605 1042l-375 616c-24 40-65 67-117 67l-473 0c-77 0-137-62-137-136 0-24 7-45 18-66 91-173 234-307 390-416 62-44 119-65 192-65l502 0 z" fill="#0074BA"/>
		<path d="M1709 1042c73 0 130 21 192 65 157 108 297 242 390 416 11 21 18 42 18 66 0 74-60 136-137 136l-474 0c-51 0-89-24-116-67l-375-616 502 0 z" fill="#00A6ED"/>
		<path d="M1403-287c404 0 722 336 722 739 0 400-313 740-722 740-409 0-722-343-722-740 0-401 318-739 722-739 z" fill="#BEBEBE"/>
		<path d="M1403-198c355 0 635 293 635 650 0 352-276 650-635 650-350 0-635-293-635-650 0-352 276-650 635-650 z M1402-110c-308 0-547 256-547 562 0 294 225 562 547 562 308 0 548-254 548-562 0-293-226-562-548-562 z" fill="#E6E6E6"/>
		<path d="M1538 148c41 0 72 34 72 73 0 41-34 72-73 72l-132 0 140 173c30 36 45 77 45 124 0 95-79 196-186 196-72 0-140-26-184-91-9-13-13-27-13-42 0-39 31-72 72-72 61 0 56 60 117 60 30 0 50-23 50-52 0-11-4-22-12-32l-237-291c-11-13-17-29-17-46 0-42 34-72 73-72l285 0 z" fill="#636363"/>
	</g></svg>
