<svg version="1.1" xmlns="http://www.w3.org/2000/svg" viewBox="0 0 2300 2300"><g transform="scale(1,-1) translate(-256, -1869)">
		<path d="M474 501l1544 115-55 68c-18 23-37 45-56 68-11 14-23 28-36 41-13 13-25 26-37 40-25 28-51 60-79 96-28 36-54 74-77 114-23 39-43 80-58 122-16 41-24 82-24 122 0 41 8 76 25 107 17 30 39 56 67 79 27 23 59 42 95 57 35 15 72 27 110 37 38 10 76 18 113 23 37 5 70 10 101 13 23 3 45 5 68 6l67 3 29 0 16 1c15 2 28 8 39 17 11 9 16 22 16 39 0 15-5 29-16 40-11 11-25 16-40 16l-950 0c-79 0-156-10-229-31-73-21-142-50-206-87-64-37-122-82-174-134-53-53-98-111-135-175-37-64-66-133-87-206-21-73-31-150-31-229l0-362 z" fill="#26EAFC"/>
		<path d="M1528-288c300 0 642 151 642 498 0 169-79 322-201 450-234 246-564 370-857 370-300 0-640-151-640-498 0-167 81-324 201-450 231-243 561-370 855-370 z" fill="#0074BA"/>
		<path d="M1616-40c227 0 509 98 509 366 0 143-80 280-193 388-238 227-548 328-799 328-224 0-510-96-510-367 0-145 82-280 193-386 240-230 550-329 800-329 z" fill="#00A6ED"/>
	</g></svg>
