<svg version="1.1" xmlns="http://www.w3.org/2000/svg" viewBox="0 0 2300 2300"><g transform="scale(1,-1) translate(-256, -1869)">
		<path d="M1605 1042l-375 616c-24 40-65 67-117 67l-473 0c-77 0-137-62-137-136 0-24 7-45 18-66 91-173 234-307 390-416 62-44 119-65 192-65l502 0 z" fill="#0074BA"/>
		<path d="M1709 1042c73 0 130 21 192 65 157 108 297 242 390 416 11 21 18 42 18 66 0 74-60 136-137 136l-474 0c-51 0-89-24-116-67l-375-616 502 0 z" fill="#00A6ED"/>
		<path d="M1405-287c404 0 722 336 722 739 0 400-313 740-722 740-408 0-721-341-721-740 0-395 309-739 721-739 z" fill="#D3883E"/>
		<path d="M1406-198c354 0 634 292 634 650 0 351-273 650-634 650-359 0-635-297-635-650 0-351 275-650 635-650 z M1405-110c-308 0-547 256-547 562 0 294 225 562 547 562 308 0 548-254 548-562 0-303-236-562-548-562 z" fill="#F3AD61"/>
		<path d="M1401 144c30 0 58 6 85 18 27 11 50 27 70 47 19 19 35 42 47 69 11 27 17 55 17 85 0 40-10 77-30 112-21 34-48 61-83 80l75 131c6 10 9 22 9 35 0 19-7 36-20 50-13 13-30 20-50 20l-222 0c-19 0-36-7-49-20-14-14-21-31-21-50 0-23 6-40 19-50 12-10 27-17 45-20 13-2 27-3 41-3l66 2-17-29c-8-12-16-25-23-38-8-13-15-26-20-39-6-13-9-23-9-31 0-19 7-36 21-49 13-14 30-21 49-21 22 0 41-8 56-23 15-16 23-35 23-57 0-22-8-41-23-56-15-15-34-23-56-23-22 0-38 5-48 16-10 10-18 21-25 34-7 12-15 23-24 34-9 10-24 15-44 15-19 0-36-7-49-20-14-13-21-30-21-49 0-8 2-16 5-25 7-22 18-42 32-59 14-18 30-33 48-46 18-13 38-22 60-29 21-7 43-11 66-11 z" fill="#402A32"/>
	</g></svg>
