<svg version="1.1" xmlns="http://www.w3.org/2000/svg" viewBox="0 0 2300 2300"><g transform="scale(1,-1) translate(-256, -1869)">
		<path d="M1898-144c68 0 119 57 119 120l0 347c18-8 37-12 56-12 25 0 49 7 72 20l269 154c43 27 70 75 70 125 0 27-6 51-19 72l-418 723c-38 65-108 105-182 105l-918 0c-74 0-144-40-182-105l-418-723c-13-21-19-45-19-72 0-50 27-99 72-126l267-153c23-13 47-20 72-20 19 0 38 4 56 12l0-347c0-68 57-120 120-120l983 0 z" fill="#9B9B9B"/>
		<path d="M1898-72c27 0 47 22 47 48l0 558 155 357-155 522c-23 16-46 23-70 25l-38 1c-13-1-26-1-39-1l-393-280-390 280-68 0c-29 0-57-10-80-26l-118-538c12-32 114-329 118-341 2-18 3-34 4-49l0-43c-1-28-4-59-4-94l0-371c0-26 20-48 48-48l983 0 z" fill="#F4F4F4"/>
		<path d="M1458 710l343 728-139 0-256-342-256 342-139 0 325-692-17-36 139 0 z" fill="#D3D3D3"/>
		<path d="M1621 225c34 0 63 26 63 62 0 10-2 19-6 27l-126 270 346 0c27 0 47 22 47 48 0 34 0 78-47 78l-984 0c-26 0-47-20-47-47 0-34 0-79 47-79l346 0-127-270c-4-8-6-17-6-26 0-35 30-63 64-63 24 0 45 14 56 36l152 323 14 0 152-323c11-23 31-36 56-36 z M1406 894l256 544-512 0 256-544 z" fill="#635994"/>
		<path d="M739 383c24 0 49 12 63 36l65 113 0 880c-17-11-30-26-40-43l-418-723c-6-11-9-23-9-35 0-26 12-50 36-64l267-154c12-7 24-10 36-10 z M2073 383c12 0 24 3 36 10l268 154c23 14 35 40 35 65 0 13-3 24-9 34l-418 723c-11 19-24 32-40 44l0-882 65-112c14-24 39-36 63-36 z" fill="#D3D3D3"/>
	</g></svg>
