<svg version="1.1" xmlns="http://www.w3.org/2000/svg" viewBox="0 0 2300 2300"><g transform="scale(1,-1) translate(-256, -1869)">
		<path d="M1409-289c547 0 1003 445 1003 1011 0 469-336 894-798 982l-1193-1193c88-463 518-800 988-800 z" fill="#F3C07B"/>
		<path d="M910 130c141 0 255 47 359 151l568 567c92 92 151 219 151 360 0 69-12 135-37 196-71 171-272 321-473 321-142 0-257-48-360-151l-567-568c-101-101-152-229-152-363 0-279 230-513 511-513 z M864 254c-190 23-353 184-353 393 0 111 47 208 119 280l568 568c72 72 177 115 280 115 208 0 373-155 392-360-52-55-105-109-158-162-282-277-577-541-848-834 z" fill="#FFDEA7"/>
		<path d="M910 248c111 0 208 47 280 119l568 568c76 76 113 177 113 277 0 214-160 396-390 396-99 0-207-37-283-113l-568-568c-76-76-119-169-119-277 0-209 172-402 399-402 z" fill="#F3AD61"/>
		<path d="M708 363c49 0 88 19 123 54l891 891c30 30 49 71 49 114 0 45-18 78-49 109-71 70-144 105-237 105-68 0-116-19-158-43-79-46-138-123-275-123-31 0-58 7-89 7-172 0-313-157-313-329 0-35 9-69 9-104 0-145-173-200-173-400 0-119 79-281 222-281 z" fill="#44911B"/>
		<path d="M932 374c180 0 337 144 337 338 0 186-149 338-337 338-186 0-338-150-338-338 0-186 150-338 338-338 z M1413 856c186 0 338 149 338 337 0 186-150 338-338 338-186 0-338-150-338-338 0-180 144-337 338-337 z" fill="#F8312F"/>
		<path d="M877 252c65 0 116 23 164 71l760 752c47 47 70 109 70 171 0 129-105 240-239 240-65 0-116-22-164-70l-760-760c-46-46-71-107-71-169 0-132 113-235 240-235 z" fill="#7D4533"/>
		<path d="M1241 417l467 467 0 266c0 47-39 86-86 86l-647 0c-50 0-87-34-87-86l0-647c0-52 37-86 87-86l266 0 z" fill="#F9C23C"/>
		<path d="M911 249c111 0 205 44 279 118l568 568c72 72 117 176 117 279 0 14-1 28-3 42-11 2-23 3-34 3-165 0-314-152-477-152-19 0-37 3-56 3-172 0-295-146-295-311 0-27 4-52 4-79 0-209-158-220-158-418 0-17 1-34 4-50 17-2 34-3 51-3 z" fill="#86D72F"/>
	</g></svg>
