<svg version="1.1" xmlns="http://www.w3.org/2000/svg" viewBox="0 0 2300 2300"><g transform="scale(1,-1) translate(-256, -1869)">
		<path d="M1949-208c57 0 114 22 156 64l117 118c43 43 65 95 65 156 0 61-22 113-65 156-51 52-97 97-149 149 39 91 58 186 58 284 0 399-322 725-725 725-98 0-193-19-284-58-52 52-97 98-149 149-43 43-95 65-156 65-61 0-113-22-156-65l-118-117c-42-42-64-99-64-156 0-58 21-114 64-157l171-170c-23-71-32-142-32-215 0-399 321-725 725-725 73 0 144 9 215 32l170-171c43-43 99-64 157-64 z M1948-58c-19 0-35 7-49 21l-129 129c91 53 170 126 226 207l119-119c14-14 21-31 21-50 0-19-7-36-21-50l-117-117c-14-14-31-21-50-21 z M779 1083l-129 129c-14 14-21 31-21 50 0 19 7 35 21 49l117 117c14 14 31 21 50 21 19 0 36-7 50-21l119-119c-81-56-154-135-207-226 z" fill="#533566"/>
		<path d="M1406-95c447 0 813 363 813 814 0 448-362 813-813 813-447 0-814-362-814-813 0-448 363-814 814-814 z M1406 103c-341 0-616 275-616 616 0 339 275 616 616 616 338 0 616-275 616-616 0-339-275-616-616-616 z" fill="#635994"/>
		<path d="M1532 210l20 1c59 6 99 72 146 107 41 31 105 46 137 89 32 43 27 106 43 158 16 51 58 97 58 154 0 41-21 78-42 117-27 49-25 101-41 160-15 52-68 78-120 103-79 38-111 129-201 129-43 0-83-14-126-14-43 0-84 14-127 14l-18-1c-62-7-102-76-147-107-41-30-105-46-137-89-32-43-27-106-43-158-15-52-58-97-58-154 0-41 21-78 42-116 27-50 25-102 42-160 14-52 67-79 119-104 79-38 111-129 201-129 43 0 83 14 126 14 43 0 83-14 126-14 z" fill="#FCD53F"/>
		<path d="M1368 384c-12 0-23 6-32 14l-122 121c-9 8-14 19-14 32 0 26 21 45 45 45 13 0 23-4 32-13l123-121c9-9 13-19 13-32 0-25-19-46-45-46 z M1613 570c23 0 42 17 45 39 5 40 28 143 28 177 0 25-19 45-45 45-23 0-42-16-45-38-5-39-28-143-28-178 0-25 19-45 45-45 z M1145 879c27 0 145 40 177 51 18 6 33 22 33 43 0 25-20 46-46 46-24 0-141-40-177-52-19-7-32-24-32-42 0-25 19-46 45-46 z" fill="#44911B"/>
		<path d="M1039 575c27 0 47 22 47 48 0 26-20 47-47 47-26 0-48-20-48-47 0-26 20-48 48-48 z M1607 372c27 0 47 22 47 48 0 25-21 47-47 47-26 0-48-20-48-47 0-26 20-48 48-48 z M1515 950c26 0 47 20 47 47 0 26-20 48-47 48-25 0-47-21-47-48 0-25 21-47 47-47 z" fill="#F8312F"/>
	</g></svg>
