<svg version="1.1" xmlns="http://www.w3.org/2000/svg" viewBox="0 0 2300 2300"><g transform="scale(1,-1) translate(-256, -1869)">
		<path d="M1929-287c34 0 62 23 67 58l272 1878 1 10c0 38-32 66-69 66l-1588 0c-37 0-69-28-69-66l1-10 272-1878c5-33 33-58 67-58l1046 0 z" fill="#AEDDFF"/>
		<path d="M1866-72c23 0 41 17 44 39l178 1234 1 12c0 47-38 81-82 81l-1202 0c-44 0-82-34-82-81l1-12 177-1234c3-22 21-39 44-39l921 0 z" fill="#F3EEF8"/>
		<path d="M1818-72l224 1566 1 11c0 41-33 71-72 71-34 0-66-25-71-61l-227-1587 145 0 z" fill="#FFFFFF"/>
	</g></svg>
