<svg version="1.1" xmlns="http://www.w3.org/2000/svg" viewBox="0 0 2300 2300"><g transform="scale(1,-1) translate(-256, -1869)">
		<path d="M1152-287c53 0 98 42 101 98 218 63 413 171 576 311 13-5 26-8 39-8 56 0 101 45 101 102 0 12-2 24-6 35 140 153 253 334 325 540 53 3 95 48 95 100 0 33-16 64-43 83 23 109 35 218 35 327 0 228-183 424-424 424-228 0-424-183-424-424 0-59-7-117-22-173-53-3-95-47-95-101 0-27 9-50 28-69-66-119-162-212-278-275-18 26-50 42-82 42-56 0-101-45-101-102l1-9c-51-11-102-17-154-17-228 0-424-183-424-424 0-233 184-424 424-424 80 0 160 6 239 18 18-31 50-54 89-54 z" fill="#44911B"/>
		<path d="M1108 104c-47 0-82 38-82 82 0 48 36 82 82 82 44 0 82-35 82-82 0-44-35-82-82-82 z M1597 392c-44 0-82 35-82 82 0 44 35 82 82 82 47 0 82-38 82-82 0-44-35-82-82-82 z M1862 899c44 0 82 35 82 82 0 48-36 82-82 82-44 0-82-35-82-82 0-44 35-82 82-82 z" fill="#86D72F"/>
	</g></svg>
