<svg version="1.1" xmlns="http://www.w3.org/2000/svg" viewBox="0 0 2300 2300"><g transform="scale(1,-1) translate(-256, -1869)">
		<path d="M2126 828c146 0 268 120 268 269 0 64-23 125-61 170l0 1c49 49 79 116 79 190 0 151-124 267-269 267-74 0-142-30-190-80-48 37-105 56-164 56-150 0-268-119-268-268 0-136 100-246 232-265l-125-125 101-102 130 130c13-137 129-243 267-243 z" fill="#00D26A"/>
		<path d="M544-287c15 0 30 3 46 8l1132 366c190 62 315 237 315 435 0 117-44 231-134 321l-373 374c-89 90-204 134-321 134-200 0-373-126-435-316l-367-1132c-5-14-7-29-7-46 0-77 64-144 144-144 z" fill="#FF822D"/>
		<path d="M1806 123c53 31 100 70 136 119l-390 390c-18 18-40 27-65 27-50 0-89-41-89-90 0-25 9-47 26-64l382-382 z M1030-137l192 62-221 222c-17 17-39 26-64 26-49 0-90-38-90-90 0-25 9-46 27-64l156-156 z M1081 448c51 0 90 39 90 90 0 22-8 46-26 64l-386 386-63-192 321-322c18-18 42-26 64-26 z" fill="#FF6723"/>
	</g></svg>
