<svg version="1.1" xmlns="http://www.w3.org/2000/svg" viewBox="0 0 2300 2300"><g transform="scale(1,-1) translate(-256, -1869)">
		<path d="M1581-291c19 0 35 3 52 7 74 19 126 87 190 124 68 38 150 50 203 103 66 66 65 166 135 250 51 60 98 115 98 192 0 63-19 115-19 178 0 63 19 112 19 175 0 19-3 35-7 52-22 78-91 132-124 191-38 65-50 149-103 202-56 56-138 65-202 103-79 46-136 131-240 131-63 0-114-19-177-19-63 0-114 19-177 19-104 0-160-84-241-131-66-38-150-50-203-103-54-54-65-138-102-202-46-79-131-136-131-240 0-63 19-115 19-178 0-63-19-114-19-177 0-17 2-34 6-50 19-72 88-127 125-190 28-48 40-104 69-157 36-69 109-98 185-125 110-40 177-154 293-154 63 0 113 18 176 18 63 0 112-19 175-19 z" fill="#6D4534"/>
		<path d="M1583 0c19 0 35 3 52 7 75 19 128 88 193 125 63 37 152 51 205 104 53 51 67 141 104 205 45 77 131 137 131 242 0 64-19 117-19 180 0 63 18 115 18 178 0 17-2 34-6 51-19 75-88 130-125 193-27 47-42 106-70 160-37 68-105 93-187 125-115 43-181 155-296 155-63 0-114-18-177-18-63 0-115 18-178 18-18 0-35-2-52-6-72-19-129-88-192-125-65-38-156-52-205-104-53-53-67-141-104-205-44-76-132-135-132-245 0-63 19-114 19-177 0-63-19-114-19-177 0-19 3-35 7-52 19-77 85-126 125-193 37-64 52-153 104-205 53-53 143-68 205-104 82-46 133-132 245-132 63 0 114 19 177 19 63 0 114-19 177-19 z" fill="#F3AD61"/>
		<path d="M1486 166c334 0 602 271 602 601 0 21-19 35-37 35l-173 0 0 122 173 0c19 0 35 17 35 35 0 334-271 602-601 602l-160 0c-332 0-602-270-602-602 0-18 16-35 35-35l173 0 0-122-171 0c-21 0-36-16-36-35 0-319 258-601 602-601l160 0 z M1486 236l-161 0c-267 0-509 203-529 495l494 0 0-316c-87 9-171 50-233 122l125 0c20 0 35 15 35 35 0 18-16 35-35 35l-194 0c-19 0-36-15-36-36 0-6 2-12 5-17 73-132 224-212 368-212 19 0 35 17 35 35l0 106 90 0 0-106c0-18 16-35 35-35 145 0 296 81 368 212 3 5 4 10 4 17 0 21-16 36-35 36l-193 0c-19 0-36-17-36-35 0-19 15-35 36-35l125 0c-62-72-146-113-233-122l0 316 494 0c-18-268-241-495-529-495 z M1450 556l-90 0 0 212c0 18-16 35-35 35l-322 0 0 121 322 0c18 0 35 16 35 35l0 213 90 0 0-212c0-20 15-35 35-35l322 0 0-122-322 0c-18 0-35-16-35-35l0-212 z M2015 994l-494 0 0 317c86-10 171-51 233-122l-125 0c-19 0-36-17-36-35 0-18 17-35 36-35l193 0c19 0 35 16 35 35 0 7-1 13-4 18-72 131-222 212-368 212-18 0-35-16-35-35l0-106-90 0 0 106c0 18-16 35-35 35-145 0-296-81-368-212-3-5-5-11-5-18 0-18 17-35 36-35l194 0c18 0 35 16 35 35 0 19-17 36-35 36l-125 0c58 65 139 111 233 121l0-316-494 0c18 268 241 495 529 495l161 0c267 0 510-207 529-496 z" fill="#FFDEA7"/>
	</g></svg>
