<svg version="1.1" xmlns="http://www.w3.org/2000/svg" viewBox="0 0 2300 2300"><g transform="scale(1,-1) translate(-256, -1869)">
		<path d="M1406 1240c30 0 54 22 54 54l0 323 233 0 0 108-287 0c-30 0-54-22-54-54l0-377c0-30 22-54 54-54 z" fill="#CA0B4A"/>
		<path d="M1693 1617c24 0 36 31 36 54 0 21-11 54-36 54-24 0-35-34-35-54 0-18 11-54 35-54 z" fill="#990838"/>
		<path d="M1801-287c40 0 69 36 72 72l66 790c-7 3-10 7-17 10l-517 249c-52-24-518-245-532-259l66-790c3-36 32-72 72-72l790 0 z M1765 1150l0 72c-35 73-53 144-143 144l-432 0c-56 0-81-20-107-71l-36-73 0-72 718 0 z" fill="#CDC4D6"/>
		<path d="M1939 575l42 503-383 24c-74 5-118 12-192 12-74 0-118-7-192-12l-383-24 42-503 1066 0 z" fill="#E5336D"/>
		<path d="M1981 1078c39 0 72 34 72 72 0 39-31 72-72 72l-1150 0c-39 0-72-31-72-72 0-38 33-72 72-72l1150 0 z" fill="#F3EEF8"/>
	</g></svg>
