<svg version="1.1" xmlns="http://www.w3.org/2000/svg" viewBox="0 0 2300 2300"><g transform="scale(1,-1) translate(-256, -1869)">
		<path d="M1406-287c616 0 1006 391 1006 1006 0 613-388 1006-1006 1006-616 0-1006-391-1006-1006 0-613 388-1006 1006-1006 z" fill="#FFB02E"/>
		<path d="M1406-72c239 0 431 192 431 432 0 234-190 431-431 431-234 0-431-190-431-431 0-229 180-432 431-432 z" fill="#BB1D80"/>
		<path d="M851-297c174 0 326 127 440 241l190 190c17 17 26 38 26 63 0 51-42 91-92 91 32 27 56 47 56 90 0 50-40 90-90 90-17 0-34-6-49-15l77 77c17 17 26 38 26 63 0 51-39 90-90 90-25 0-46-9-63-26l-77-77c10 14 15 30 15 49 0 49-39 90-91 90-25 0-46-9-63-26l-224-224 0 70c0 51-39 90-90 90-53 0-88-42-92-90-8-98-17-257-69-341-34-52-47-113-47-174 0-176 127-321 307-321 z" fill="#FF822D"/>
		<path d="M2053 934c38 0 72 32 72 73 0 11-3 21-8 32-64 130-222 211-369 211-59 0-198-16-198-100 0-39 31-72 72-72 28 0 66 28 127 28 97 0 196-50 240-132 13-24 35-40 64-40 z M759 934c28 0 51 15 64 40 43 81 141 132 240 132 59 0 98-28 127-28 39 0 72 31 72 72 0 82-140 100-198 100-141 0-303-76-369-211-5-11-8-22-8-33 0-38 33-72 72-72 z" fill="#402A32"/>
	</g></svg>
