<svg version="1.1" xmlns="http://www.w3.org/2000/svg" viewBox="0 0 2300 2300"><g transform="scale(1,-1) translate(-256, -1869)">
		<path d="M1406-287c616 0 1006 391 1006 1006 0 613-388 1006-1006 1006-616 0-1006-391-1006-1006 0-613 388-1006 1006-1006 z" fill="#FFB02E"/>
		<path d="M1980 1007c39 0 73 30 73 72l-1 12c-22 130-133 203-251 203-128 0-226-74-250-202l-1-14c0-41 34-71 72-71 104 0 37 143 179 143 143 0 79-143 179-143 z M1190 1007c39 0 72 30 72 71l-1 13c-22 129-128 203-250 203-128 0-227-73-251-202l-1-6c0-52 32-79 72-79 103 0 37 143 180 143 46 0 71-16 87-37 29-42 24-106 92-106 z" fill="#402A32"/>
		<path d="M1406 360c208 0 359 149 359 359 0 39-31 72-72 72-40 0-71-34-71-72 0-132-91-216-216-216-128 0-216 85-216 216 0 39-31 72-72 72-40 0-71-34-71-72 0-212 153-359 359-359 z" fill="#402A32"/>
		<path d="M2132 0c-21 0-39 8-54 25-37 38-68 80-102 121-79 97-184 201-184 323 0 97 66 179 165 179 65 0 166-52 204-109 24 71 104 108 179 108 100 0 159-75 159-173 0-27-5-53-15-78-46-118-212-299-306-378-15-12-27-18-46-18 z M782-294c27 0 49 10 68 31 77 85 159 212 159 326 0 111-59 191-170 191-46 0-97-25-116-74-27 7-54 9-81 9-99 0-176-47-176-154 0-68 31-133 77-179 30-30 90-72 141-104 42-28 63-46 98-46 z M635 1150c23 0 44 7 63 21 71 52 194 160 241 231 40 60 72 132 72 206 0 93-72 189-172 189-59 0-114-34-152-72-40 40-108 72-168 72-129 0-191-134-191-237 0-117 84-221 168-315 41-47 79-95 139-95 z" fill="#F70A8D"/>
	</g></svg>
