<svg version="1.1" xmlns="http://www.w3.org/2000/svg" viewBox="0 0 2300 2300"><g transform="scale(1,-1) translate(-256, -1869)">
		<path d="M1406-287c616 0 1006 391 1006 1006 0 613-388 1006-1006 1006-616 0-1006-391-1006-1006 0-613 388-1006 1006-1006 z" fill="#FFB02E"/>
		<path d="M1047 503c-136 0-266 71-288 216l102 38 239-10 156 158 78 30 1-19c0-170-44-413-288-413 z M1801 503c177 0 324 143 324 324 0 97-102 122-176 140l-208-83-99 152c-123-8-164-100-164-209 0-179 145-324 323-324 z" fill="#FFFFFF"/>
		<path d="M1047 647c119 0 215 97 215 216 0 15-1 28-4 43l-399-150c37-66 106-109 188-109 z M1765 647c121 0 216 99 216 216 0 36-10 71-26 103l-218 60c-25 7-50 11-75 11-8 0-17-1-26-2-57-41-86-106-86-172 0-121 97-216 215-216 z M1011 108c239 0 314 252 395 252 99 0 166-144 359-144 82 0 179 26 253 78 34 24 71 60 71 102 0 40-34 71-72 71-27 0-45-12-60-32-39-52-125-75-192-75-148 0-188 143-359 143-32 0-60-6-83-18-119-62-174-233-312-233-77 0-148 39-201 87-15 14-32 21-51 21-41 0-72-34-72-72 0-19 7-36 21-51 67-72 198-129 303-129 z M872 926c159 0 276 90 317 251l1 9c0 19-15 36-36 36-18 0-30-11-34-27-34-127-114-197-248-197-27 0-54 8-77 8-19 0-36-15-36-36 0-34 46-43 82-43l31-1 z M2016 1150c21 0 37 16 37 35 0 3-1 7-2 11-54 183-206 244-375 244-27 0-54-9-54-38 0-18 14-36 33-36 15 0 29 2 44 2 131 0 235-54 283-192 5-14 18-26 34-26 z" fill="#402A32"/>
	</g></svg>
