<svg version="1.1" xmlns="http://www.w3.org/2000/svg" viewBox="0 0 2300 2300"><g transform="scale(1,-1) translate(-256, -1869)">
		<path d="M1406-282c14 0 28 2 42 6l639 183c193 56 325 233 325 432l0 463c0 108-144 99-144 152 0 17 13 33 32 33 27 0 57-34 83-34 16 0 29 13 29 29l0 282c0 138-113 246-245 246l-42 0c10 34 45 116 45 148 0 37-28 67-67 67l-481 0c-116 0-208-87-216-205l-1 0c-5 115-101 205-215 205l-481 0c-37 0-68-29-68-67 0-32 33-114 46-148l-42 0c-133 0-245-109-245-246l0-282c0-16 13-29 29-29 26 0 54 34 83 34 17 0 32-14 32-32 0-9-3-17-10-22-36-29-134-44-134-131l0-463c0-204 137-377 325-432l639-183c14-4 28-6 42-6 z" fill="#6D4534"/>
		<path d="M1762 288c238 0 435 190 435 434 0 94-30 182-83 255l-165 227c49 43 73 103 73 162 0 120-97 215-215 215-63 0-139-33-170-84-41-67-153-106-231-106-78 0-190 40-230 106-33 54-113 84-171 84-120 0-215-97-215-215 0-65 29-121 73-162l-165-227c-53-73-83-161-83-255 0-239 193-434 434-434l713 0 z" fill="#FFB02E"/>
		<path d="M1907 1262c29 28 44 62 44 103 0 81-67 144-144 144-44 0-89-21-116-59 83-43 159-106 216-188 z M906 1263c54 81 135 145 215 188-27 39-71 59-115 59-81 0-144-67-144-144 0-39 16-77 44-103 z" fill="#D3883E"/>
		<path d="M1406-72c237 0 431 192 431 432l0 112-862 0 0-112c0-236 190-432 431-432 z" fill="#F3C07B"/>
		<path d="M1652 288c101 0 185 81 185 184 0 100-80 185-185 185-21 0-38 8-51 23l-143 165c-13 15-33 25-53 25-20 0-39-10-52-25l-143-165c-13-15-30-23-51-23-101 0-184-82-184-185 0-100 81-184 184-184l93 0c63 0 120 33 154 82 34-49 91-82 154-82l92 0 z" fill="#FFDEA7"/>
		<path d="M1407 435c16 0 30 6 41 17l140 140c7 7 11 16 11 27 0 21-17 38-39 38l-306 0c-21 0-40-15-40-38 0-10 4-19 12-27l140-140c11-11 25-17 41-17 z M1693 719c39 0 72 31 72 72l0 72c0 39-34 72-72 72-40 0-71-34-71-72l0-72c0-38 31-72 71-72 z M1118 719c39 0 72 31 72 72l0 72c0 39-34 72-72 72-40 0-71-34-71-72l0-72c0-38 31-72 71-72 z" fill="#212121"/>
	</g></svg>
