<svg version="1.1" xmlns="http://www.w3.org/2000/svg" viewBox="0 0 2300 2300"><g transform="scale(1,-1) translate(-256, -1869)">
		<path d="M903 863l259 72 148 336c18 39 27 84 27 129 0 179-146 325-325 325-179 0-325-146-325-325 0-36 7-72 18-107l-18 1 72-144c15 0 27-13 27-27 0-13-71-165-81-188l198-72 z" fill="#44911B"/>
		<path d="M759 1150l0 454-159-177c-45-50-99-61-164-61-19 0-36-16-36-37 0-97 79-179 179-179l180 0 z" fill="#F9C23C"/>
		<path d="M1012 1328c38 0 72 33 72 72 0 39-31 72-72 72-39 0-72-31-72-72 0-38 33-72 72-72 z" fill="#212121"/>
		<path d="M1622-287c69 0 131 12 186 35 271 112 389 442 389 755l-217 288-882 0 63 144-457 0-63-144 190-72 248 67-356-498 174-556c49-12 99-19 150-19l575 0 z" fill="#D3D3D3"/>
		<path d="M1622-287c424 0 790 346 790 775l0 329c0 61-50 108-109 108-44 0-71-25-89-43-41-41-137-91-234-91 6-35 10-86 10-121 0-342-204-517-541-517-175 0-334 63-460 195-25 26-48 55-66 86 0-304 226-506 526-506l500 0c-148-139-340-215-543-215l216 0 z" fill="#9B9B9B"/>
		<path d="M903-269l0 528c0 103 24 201 71 292l124 240-457 0c-71-158-169-327-169-503 0-260 174-489 431-557 z" fill="#A56953"/>
	</g></svg>
