<svg version="1.1" xmlns="http://www.w3.org/2000/svg" viewBox="0 0 2300 2300"><g transform="scale(1,-1) translate(-256, -1869)">
		<path d="M1047-287c59 0 112 36 135 93 3 5 8 22 8 29 0 11-6 21-18 21l-304 0-37-143 216 0 z M1273 288l0 143-625 0-69-143 694 0 z M1980-287l-36 143-304 0c-13 0-18-10-18-21 0-7 5-22 8-29 21-58 75-93 133-93l217 0 z M2232 288l-68 143-626 0 0-143 694 0 z M723 503c9 0 18 4 25 11l119 119c15 15 34 23 57 23 71 0 149-110 200-110 20 0 35 15 35 35 0 12-4 23-15 30l-137 91c-25 17-54 26-85 26-41 0-77-15-106-44l-119-119c-7-7-11-16-11-26 0-18 16-36 37-36 z M723 712c9 0 18 4 25 11l119 118c15 15 34 23 56 23 71 0 152-110 201-110 22 0 35 17 35 36 0 13-5 23-15 30l-137 91c-26 17-54 25-84 25-42 0-78-15-107-44l-119-118c-7-7-11-16-11-26 0-18 16-36 37-36 z M723 926c9 0 18 4 25 11l119 118c15 15 34 23 56 23 71 0 152-110 201-110 19 0 35 15 35 36 0 13-5 23-15 30l-137 91c-26 17-54 25-83 25-41 0-80-16-108-44l-119-119c-7-7-11-16-11-26 0-19 16-35 37-35 z M2086 503c21 0 36 18 36 36 0 11-3 19-10 26l-119 119c-28 28-65 44-106 44-31 0-60-9-85-26l-137-91c-11-7-15-18-15-30 0-20 15-35 35-35 50 0 132 110 200 110 23 0 42-8 57-23l119-119c7-7 16-11 25-11 z M2086 712c19 0 36 16 36 37 0 10-3 18-10 25l-119 119c-29 29-67 44-107 44-31 0-59-8-84-25l-137-92c-10-7-15-17-15-30 0-19 16-35 35-35 49 0 131 110 200 110 23 0 42-8 57-23l119-119c7-7 16-11 25-11 z M2086 926c19 0 36 18 36 36 0 11-3 19-10 26l-119 118c-29 29-65 44-107 44-30 0-58-8-84-25l-137-91c-10-7-15-17-15-30 0-21 16-36 35-36 48 0 133 110 201 110 22 0 41-8 56-23l119-118c7-7 16-11 25-11 z M938 1243c9 0 17 4 24 12l62 83c9 13 16 25 19 36 3 11 4 25 4 40 0 7 2 12 7 17 4 5 9 8 15 10 21 6 37 14 48 24 11 10 21 25 31 44 5 9 12 14 21 14 7 0 16-2 26-6 9-5 20-7 31-7 12 0 23 3 34 8 10 5 18 7 25 7 9 0 15-4 18-13 9-22 22-40 40-53 17-14 38-21 63-21 15 0 29 3 42 9 13 5 24 13 34 23 10 10 18 22 24 35 5 13 8 26 8 41 0 14-3 28-8 41-6 13-14 24-23 34-9 9-20 17-33 23-13 6-26 9-40 9-13 0-26-2-37-7-11-5-20-8-26-8-7 0-12 5-17 14l-18 30c-8 11-18 21-31 30-13 9-32 13-55 13-24 0-44-6-61-19-17-13-31-31-40-52-4-9-11-14-20-14-8 0-17 2-27 7-11 4-22 6-33 6-13 0-26-2-38-7-12-5-23-11-32-20-10-9-18-19-24-30-6-11-10-24-12-37l-1-7 1-8 0-15c0-5-1-10-4-13-3-4-8-7-13-8-27-6-48-18-65-36-17-18-26-41-26-70 0-13 2-25 6-35 4-11 10-21 18-32l59-80c7-8 15-12 24-12 z" fill="#402A32"/>
		<path d="M888-287l0 189c0 14 12 26 27 26l256 0c12 0 18 10 18 21 0 47-52 98-96 112l-230 73c-19 7-32 25-32 43l0 71c0 98-80 183-178 183-103 0-181-81-181-179l0-294c0-136 108-245 245-245l171 0 z M2094-287c133 0 245 111 245 245l0 294c0 101-80 179-180 179-102 0-179-87-179-183l0-71c0-18-12-36-31-43l-230-73c-41-13-97-63-97-112 0-11 6-21 18-21l256 0c15 0 27-12 27-26l0-189 171 0 z M1481-2c56 0 98 86 98 132l0 159-144-11 0-235c0-27 23-45 46-45 z M1318-2c23 0 46 18 46 45l0 235-144 11 0-159c0-46 41-132 98-132 z M1831 459l-130 748c-23 142-135 282-295 282-158 0-271-137-295-282l-131-748 851 0 z" fill="#6D4534"/>
		<path d="M1548 123c161 0 288 128 288 288 0 156-128 287-288 287l-284 0c-157 0-288-129-288-287 0-161 128-288 288-288l284 0 z" fill="#A56953"/>
		<path d="M1585 339c39 0 72 31 72 72 0 40-34 71-72 71-38 0-72-31-72-71 0-39 31-72 72-72 z M1227 339c39 0 72 31 72 72 0 40-34 71-72 71-38 0-72-31-72-71 0-39 31-72 72-72 z" fill="#212121"/>
	</g></svg>
