<svg version="1.1" xmlns="http://www.w3.org/2000/svg" viewBox="0 0 2300 2300"><g transform="scale(1,-1) translate(-256, -1869)">
		<path d="M1832 639c-34 0-63 27-63 63 0 36 29 62 63 62 74 0 137 60 137 138 0 21 11 40 28 52-24 12-36 37-36 61 0 38 32 71 71 71 40 0 70-33 70-71 0-24-12-49-36-61 17-12 28-31 28-52 0-143-114-263-262-263 z M1149-284c13 0 25 5 35 14 9 9 14 21 15 34l16 443c0 13-5 24-14 33-10 10-22 15-36 15-7 0-14-1-19-4-5-3-11-6-16-11-36-34-63-75-81-122-18-47-27-95-27-144 0-43 8-86 23-128 15-42 37-79 66-112 11-12 23-18 38-18 z M716-137c12 0 24 6 33 14l320 297c11 9 16 21 16 35 0 27-22 51-51 51-192 0-354-153-367-342 0-30 16-55 49-55 z M795 451c-182 0-355 168-355 355 0 29 17 52 49 52 14 0 26-5 35-14l308-309c10-10 15-22 15-35 0-30-23-49-52-49 z M667 219c-84 0-184 32-251 98-11 11-16 23-16 37 0 26 20 49 49 49l436 0c29 0 49-23 49-49 0-14-5-26-16-37-67-66-167-98-251-98 z M1662-276c15 0 27 6 38 18 29 32 52 70 67 113 15 43 22 85 22 128 0 70-17 134-52 193l322-299c5-4 10-7 16-10 5-3 11-4 17-4 14 0 26 5 36 15 12 13 14 24 14 40-4 48-16 93-37 135-21 42-48 79-81 110-33 31-72 55-115 73-43 18-89 27-138 27-14 0-26-5-35-15-10-11-15-23-15-36 0-4 1-9 2-14l-14 21-18 21c-7 7-14 12-21 17-8 4-16 6-24 6-14 0-26-5-36-15-9-9-14-20-14-33l17-443c1-13 6-25 15-34 9-9 21-14 34-14 z M2143 223c-86 0-189 34-253 98-11 11-17 22-17 37 0 27 21 50 50 50l440 0c29 0 50-24 50-50 0-13-6-26-17-37-68-67-166-98-253-98 z M2014 456c184 0 358 173 358 358 0 29-19 52-51 52-13 0-25-5-34-14l-311-311c-10-10-15-22-15-35 0-32 24-50 53-50 z M969 639c-143 0-263 115-263 263 0 21 11 41 29 52-24 12-36 37-36 61 0 39 33 71 71 71 40 0 70-33 70-71 0-26-14-50-37-62 17-10 28-30 28-51 0-79 64-138 138-138 34 0 62-26 62-62 0-34-26-63-62-63 z M1693 1273l0 106-37 0c-60 0-106-46-106-106l143 0 z M1693 1403l-37 0c-57 0-106 47-106 107l143 0 0-107 z M1262 1273l-136 0 0 106 30 0c60 0 106-46 106-106 z M1156 1403c57 0 106 47 106 107l-136 0 0-107 30 0 z" fill="#CA0B4A"/>
		<path d="M1622 863c40 0 71 34 71 72 0 38-32 71-71 71-38 0-72-31-72-71 0-39 31-72 72-72 z M1190 863c39 0 72 31 72 72 0 40-34 71-72 71-38 0-72-31-72-71 0-39 34-72 72-72 z" fill="#533566"/>
		<path d="M1406-72c-338 0-647 261-647 627 0 192 96 288 217 331 131 47 271 49 430 49 289 0 647-7 647-380 0-352-297-627-647-627 z M2125 1042l-167 0c-165 0-300 133-300 300l0 168c259 0 467-209 467-468 z M854 1042c165 0 300 133 300 300l0 168c-259 0-467-209-467-468l167 0 z" fill="#F8312F"/>
	</g></svg>
