<svg version="1.1" xmlns="http://www.w3.org/2000/svg" viewBox="0 0 2300 2300"><g transform="scale(1,-1) translate(-256, -1869)">
		<path d="M1729-287c19 0 36 15 36 36l0 467-287 0 0-467c0-19 15-36 36-36l215 0 z M1370-287c19 0 36 15 36 36l0 467-288 0 0-467c0-19 15-36 36-36l216 0 z" fill="#008463"/>
		<path d="M946-287c19 0 30 9 35 28l90 368c3 9 7 18 12 25 5 7 14 10 25 10l661 0c11 0 20-3 25-10 5-7 8-16 11-25l91-364c5-19 16-28 35-28l231 0c6 0 13 3 22 9 6 4 10 9 10 15l-1 4c-3 9-7 26-14 53l-23 91c-9 35-19 71-28 110l-27 106-20 84c-5 23-8 37-8 42 0 24 11 42 32 54 47 27 90 58 128 94 38 35 70 75 97 118 26 43 46 89 61 139 14 49 21 102 21 157 0 54-7 107-21 160-14 53-34 102-61 147-27 45-61 86-101 122-40 36-86 65-137 86-5 2-10 3-15 3-9 0-16-3-23-8-7-6-11-14-11-23 0-7 2-12 5-17 3-5 6-10 11-15 22-23 43-45 62-68 19-23 36-46 50-71 14-25 25-52 34-80 8-29 12-60 12-93 0-20-4-43-12-70-9-27-20-52-35-76-15-24-33-44-53-61-20-17-41-26-64-26-20 0-37 4-51 12-15 8-28 18-41 30-13 11-26 24-39 38-13 14-29 27-46 39-18 11-39 21-64 29-25 8-55 12-90 12l-797 0c-6 0-12 2-17 6-6 4-9 9-9 16l0 705c0 19-3 36-10 51-7 15-16 28-28 39-12 10-26 18-42 24-16 5-33 8-51 8l-225 0c-19 0-38-3-55-9-17-6-32-15-45-26-13-11-24-25-31-41-8-17-12-35-12-55 0-20 4-39 11-56 7-17 18-32 31-45 13-13 28-24 45-31 17-7 36-11 56-11 4 0 11 0 21 1 9 0 19 0 29-1 10-1 19-4 27-7 7-3 11-9 11-16l-7-1062c0-40 10-77 28-108 19-33 47-59 85-79 11-6 21-14 28-25 7-11 10-23 10-36l-2-15-79-350-1-6c0-6 2-11 7-15 4-4 9-6 15-6l231 0 z" fill="#00D26A"/>
		<path d="M723 1579c19 0 36 15 36 36 0 19-15 36-36 36-19 0-36-15-36-36 0-19 15-36 36-36 z" fill="#1C1C1C"/>
	</g></svg>
