<svg version="1.1" xmlns="http://www.w3.org/2000/svg" viewBox="0 0 2300 2300"><g transform="scale(1,-1) translate(-256, -1869)">
		<path d="M1887-287l-170 0c-12 0-22 11-22 23 0 16 58 278 66 313l216 0-68-318c-2-12-9-18-22-18 z M1524-287c12 0 22 10 22 22 0 16-59 280-67 314l-215 0 68-319c3-11 11-17 22-17l170 0 z" fill="#D3883E"/>
		<path d="M2243-287c13 0 24 10 24 24l0 215-1 79 1 29 30 319c5 65 15 98 15 160 0 337-272 615-616 615-112 0-211-27-311-84l-578-321c-74-41-121-121-121-207l1-47c0-16-1-31-4-46-6-29-22-55-55-71l-193-94c-26-12-35-39-35-65 0-21 3-41 8-61 40-163 183-229 340-229l205 0c-12-24-85-181-85-193 0-13 10-23 24-23l187 0c10 0 17 5 22 14l91 202 840 0c10 0 20-10 20-20l0-172c0-13 10-24 24-24l167 0 z" fill="#F3AD61"/>
		<path d="M1162 464c44 0 77 35 77 77 0 42-33 77-77 77-42 0-77-33-77-77 0-42 33-77 77-77 z" fill="#D3883E"/>
		<path d="M2268 72l110 84c15 11 23 26 23 43 0 9-2 18-6 27l-12 27c-5 9-9 18-13 28-4 10-6 21-6 32 0 13 2 25 7 37 5 12 10 24 16 36 6 12 11 24 16 36 5 11 7 23 7 34 0 12-3 23-9 32-6 9-13 18-20 27-8 9-15 20-21 31-6 11-9 24-9 40 0 14 3 28 9 43 5 14 11 28 18 42 7 14 13 28 19 42 5 13 8 26 8 38 0 19-8 35-23 46l-75 54c-13 9-23 21-30 34-7 13-11 28-11 43l0 120c0 15-6 29-17 40-11 11-25 17-40 17l-134 0c-25 0-47 8-64 25-17 16-33 34-47 54-14 20-28 38-42 55-14 16-30 24-49 24-13 0-27-3-42-10-15-7-31-15-47-24-16-9-32-16-48-23-17-7-33-11-48-11-13 0-27 2-40 5-13 3-27 7-40 11l-40 10c-13 3-26 5-39 5-19 0-35-8-49-23-15-15-29-32-43-51-15-19-30-36-47-51-17-15-38-23-62-23l-128 0c-22 0-39-11-51-32l-36-69c-9-17-19-29-30-36-12-7-24-12-37-14-10-2-19-3-28-3l-29 1-18-1c-12-1-23-4-32-8-10-5-18-13-23-25l-31-65c-8-16-17-28-28-36-11-8-24-13-41-15-17-3-41-4-72-4-15 0-29-5-40-16-12-11-18-25-18-41l0-173 279 0c11 0 22 3 31 10 9 7 15 16 18 27 11 35 29 63 54 84 25 21 57 32 95 32 21 0 40-4 59-12 18-8 34-19 48-33 14-14 25-30 33-49 8-19 12-38 12-59 0-16-3-32-9-49-6-17-14-33-25-47-11-15-24-27-39-36-15-10-31-16-48-18 22-50 50-95 85-134 34-39 73-73 117-100 43-27 90-48 141-63 50-15 102-22 156-22l575 0 z" fill="#6D4534"/>
		<path d="M813 180c30 0 54 22 54 54 0 32-24 54-54 54-30 0-54-22-54-54 0-32 24-54 54-54 z M470 155c38 0 69 29 69 69 0 40-31 69-69 69-38 0-69-29-69-69 0-40 31-69 69-69 z" fill="#1C1C1C"/>
		<path d="M1939 791c-18 0-36 17-36 36 0 10 4 19 11 26l66 65c7 7 16 11 26 11 18 0 36-17 36-36 0-10-4-19-11-26l-66-65c-7-7-16-11-26-11 z M2171 575c19 0 36 15 36 36 0 19-15 36-36 36l-94 0c-19 0-36-15-36-36 0-18 17-36 36-36l94 0 z M1658 898c18 0 35 16 35 35l0 94c0 21-16 36-35 36-19 0-36-15-36-36l0-94c0-19 15-35 36-35 z" fill="#F3AD61"/>
	</g></svg>
