<svg version="1.1" xmlns="http://www.w3.org/2000/svg" viewBox="0 0 2300 2300"><g transform="scale(1,-1) translate(-256, -1869)">
		<path d="M1673-283c40 0 74 25 88 59l0 368c375 16 643 201 643 598 0 82-18 232-67 303-13 19-42 74-67 74-11 0-12-10-12-19 0-19 3-39 3-59 0-270-171-464-447-464-19 0-36 1-53 3-10 111-75 212-163 276-79 57-156 69-259 76-5 0-7 2-7 7l0 380c0 148-105 260-258 260l-201 0-63 1-80-1c-56-1-109-4-135-12-154-47-194-148-194-290l1-66c0-51 26-131 92-131l111 0 28 1 28-1c41-1 56-5 56-49l0-242-102-106 105-83c14-118 76-213 153-285 46-43 103-77 135-108 43-44 115-109 203-109 40 0 90 18 118 50 20-1 39-2 59-2 17 0 33 1 49 2 40-72 125-103 194-131 4-3 11-3 11-10 0-24-237-211-237-256 0-16 20-34 35-34l233 0 z" fill="#00D26A"/>
		<path d="M948 506c18 0 28 7 42 18 42 38 102 96 146 144 27 29 55 55 55 80 0 30-27 41-53 41l-172 0c-33 0-64-23-64-59l0-191c0-22 27-33 46-33 z M599 503c15 0 27 4 38 13 11 8 21 17 30 28l26 32c8 11 17 18 27 23-2 26-4 53-4 79l0 17c1 31 1 63 1 95l-114 0c-17 0-31-5-41-16-11-11-16-26-16-43l0-178c0-14 5-26 16-35 11-10 23-15 37-15 z M1263-283c48 0 69 53 69 92l0 339c-109 8-278 34-371 97l-13 9c6-21 15-42 28-62 53-89 127-143 226-168 5-1 12-3 12-10 0-14-87-100-158-171-57-57-81-71-81-94 0-24 21-32 40-32l248 0 z" fill="#008463"/>
		<path d="M880 1376c20 0 43 24 61 44 15 16 24 22 24 40 0 19-17 36-35 36-8 0-16-3-24-10l-51-49c-7-7-11-16-11-25 0-19 15-36 36-36 z" fill="#1C1C1C"/>
	</g></svg>
