<svg version="1.1" xmlns="http://www.w3.org/2000/svg" viewBox="0 0 2300 2300"><g transform="scale(1,-1) translate(-256, -1869)">
		<path d="M2208-287l-515 0c-108 0-200 70-230 177l-37 135-36-135c-29-103-120-177-230-177l-515 0c-44 0-81 34-81 81 0 45 37 80 81 80l514 0c34 0 65 22 74 57l35 130c-81-81-138-137-256-137-178 0-245 155-285 155-27 0-36-33-82-33-44 0-81 35-81 80 0 74 102 115 160 115 53 0 91-17 122-40 58-44 88-115 165-115 114 0 136 134 221 134 28 0 55-14 69-38l41 155c-11 34-38 119-38 150 0 44 34 82 81 82 15 0 28-4 41-11 12 8 26 11 41 11 47 0 81-37 81-80 0-35-27-117-38-152l42-155c15 24 42 37 68 37 83 0 116-133 216-133 132 0 126 154 294 154 60 0 159-42 159-115 0-44-33-80-81-80-45 0-58 34-82 34-40 0-104-155-285-155-121 0-177 57-256 136l34-129c9-33 38-57 74-57l516 0c43 0 80-34 80-80 0-44-34-81-81-81 z M1716 250c-43 0-80 34-80 80 0 34 20 66 54 77l302 106c80 27 136 107 136 191l0 266c0 84-92 94-92 208 0 35 10 61 28 93l65 119c16 28 45 47 79 47 34 0 64-19 79-47l66-122c16-32 27-57 27-91 0-112-91-126-91-207l0-266c0-150-95-291-243-343-47-16-294-111-330-111 z M1135 250c47 0 81 38 81 81 0 36-23 66-54 76l-303 106c-82 27-135 108-135 191l0 266c0 89 91 93 91 208 0 35-10 61-28 93l-65 119c-16 31-44 47-79 47-34 0-63-19-79-47l-66-122c-17-30-26-55-26-91 0-116 91-125 91-207l0-266c0-154 98-292 243-343 49-16 295-111 329-111 z M1426 757c34 0 58 12 80 33l391 352c21 19 32 53 32 79 0 34-12 58-33 80l-328 363c-36 40-94 59-143 59-49 0-106-19-142-59l-327-363c-21-22-33-46-33-80 0-26 11-60 33-79l391-352c23-21 47-33 79-33 z" fill="#BB1D80"/>
		<path d="M643 1328c22 0 38 16 38 37 0 21-16 37-38 37-19 0-37-16-37-37 0-19 16-37 37-37 z M588 1236c-21 0-37 15-37 37 0 21 15 37 37 37 21 0 37-15 37-37 0-21-15-37-37-37 z M699 1236c19 0 37 16 37 37 0 19-16 37-37 37-22 0-38-16-38-37 0-21 16-37 38-37 z M643 1059c-47 0-84 37-84 84 0 47 37 84 84 84 47 0 84-37 84-84 0-47-37-84-84-84 z M2263 1236c-19 0-37 16-37 37 0 19 16 37 37 37 22 0 38-16 38-37 0-21-16-37-38-37 z M2208 1059c47 0 84 37 84 84 0 47-37 84-84 84-47 0-84-37-84-84 0-47 37-84 84-84 z M2153 1236c19 0 37 16 37 37 0 19-16 37-37 37-22 0-38-16-38-37 0-21 16-37 38-37 z M2208 1328c21 0 37 15 37 37 0 22-16 37-37 37-21 0-37-15-37-37 0-22 16-37 37-37 z" fill="#FF6DC6"/>
		<path d="M1606 72c98 0 179 79 179 180l0 155c88 52 145 154 145 258 0 26-2 60-12 85l-301 839c-30 84-104 136-191 136-89 0-161-54-190-136l-301-839c-10-25-12-59-12-85 0-104 55-208 147-259l0-154c0-98 79-180 179-180l357 0 z" fill="#F70A8D"/>
		<path d="M1364 718c43 0 80 34 80 80 0 44-35 81-80 81-44 0-81-36-81-81 0-45 37-80 81-80 z M1570 890c45 0 80 37 80 81 0 46-37 80-80 80-44 0-81-35-81-80 0-44 34-81 81-81 z M1354 971c29 0 54 21 54 53 0 30-22 54-54 54-30 0-54-22-54-54 0-32 25-53 54-53 z" fill="#BB1D80"/>
		<path d="M1601 187c30 0 54 25 54 54 0 29-24 54-54 54-30 0-54-22-54-54 0-30 22-54 54-54 z M1251 187c30 0 54 25 54 54 0 29-24 54-54 54-30 0-54-22-54-54 0-30 22-54 54-54 z" fill="#1C1C1C"/>
	</g></svg>
