<svg version="1.1" xmlns="http://www.w3.org/2000/svg" viewBox="0 0 2300 2300"><g transform="scale(1,-1) translate(-256, -1869)">
		<path d="M1604-241c105 0 204 17 297 50 93 33 177 79 252 138 75 59 139 131 192 214 53 83 92 175 117 276 1 7 2 12 2 17 0 23-9 41-27 55l13 24c5 9 11 19 16 30 5 10 9 20 13 30 3 10 5 18 5 25l0 302c0 21-4 40-12 59-8 18-19 34-33 48-14 13-30 24-48 32-19 7-38 11-59 11-21 0-41-4-58-11-17-8-34-19-49-33-45-41-94-71-146-89-52-19-109-28-170-28l-503 0c-67 0-132-12-193-37-61-25-118-60-169-103l110 504c6 28 9 56 9 85 0 57-11 110-33 161-22 50-52 94-89 131-37 37-81 67-132 89-51 21-104 32-161 32-60 0-116-11-167-34-51-23-96-53-133-92-37-39-67-85-88-137-21-52-32-108-32-167 0-21 7-38 21-52l144-144c7-7 16-13 26-16 10-3 21-5 32-6l17-1 16 1c11 1 21 1 31 1 12 0 22 2 31 7 9 4 16 10 22 17 6 7 11 15 16 24 5 9 9 19 13 28l-166-763c-5-19-8-39-10-59-2-20-3-40-3-60 0-78 15-151 45-219 30-68 71-127 123-177 51-51 111-90 180-119 69-29 142-44 219-44l519 0 z" fill="#9B9B9B"/>
		<path d="M1604-170c364 0 703 243 788 623-160-213-415-335-681-335l-341 0c-21 0-36 16-36 35 0 18 17 35 36 35l341 0c297 0 574 166 701 433l0 299c0 45-37 79-80 79-35 0-57-24-80-45-91-83-228-117-343-117l-503 0c-73 0-141-16-202-48-106-55-142-100-229-191-4-4-9-6-15-6-15 0-22 10-22 26l145 670c5 25 8 48 8 71 0 189-155 340-344 340-202 0-347-162-347-359l143-72 141 72c8 35 18 75 63 75 31 0 56-26 56-56l-1-11-201-926c-7-35-11-70-11-104 0-270 223-488 495-488l519 0 z" fill="#FFFFFF"/>
		<path d="M543 1196l-139 72c-4 28-4 44-4 72l284 0-21-72-120-72 z M508 1340c18 0 35 17 35 36 0 19-17 36-35 36-18 0-36-17-36-36 0-19 15-36 36-36 z" fill="#212121"/>
		<path d="M549 969c22 0 41 14 48 37 23 90 39 175 66 262l-259 0c7-39 17-75 32-111l68-159c7-17 26-29 45-29 z" fill="#FF822D"/>
	</g></svg>
