<svg version="1.1" xmlns="http://www.w3.org/2000/svg" viewBox="0 0 2300 2300"><g transform="scale(1,-1) translate(-256, -1869)">
		<path d="M1170-144c12 0 22 11 22 23l0 263-143 0 0-263c0-12 10-23 22-23l99 0 z M1744-146c11 0 19 6 22 17l155 560-141 0c-10-47-153-544-153-554 0-14 11-23 23-23l94 0 z" fill="#7D4533"/>
		<path d="M1118 72c118 0 218 95 218 218l0 69-218 72-217-72 0-69c0-120 96-218 217-218 z M2412 120l0 288-38 23-34-43c-42-26-72-72-72-124 0-81 67-144 144-144 z" fill="#1C1C1C"/>
		<path d="M1096-144l-99 0c-12 0-22 11-22 23l0 263 143 0 0-263c0-12-10-23-22-23 z M2246-144c12 0 22 10 22 22l0 686c27 19 52 39 72 66l0-242c23 13 47 20 72 20l0 432c0 144-86 276-218 332l-179 77c-70 30-144 45-221 45l-958 0 0-190-115 45-178-71 0-152c0-87-71-99-71-171 0-57 45-108 107-108l63 0 117-72 77 38 0-34c0-123 89-220 213-220l635 0c55 0 110 20 152 60 0-78 30-147 77-195 58-61 119-81 212-81l0-265c0-12 10-22 22-22l99 0 z" fill="#A56953"/>
		<path d="M1044 70c120 0 218 96 218 217l0 586c0 82 46 157 120 193l455 228c0 42-26 82-66 100l-354 151c-55 23-109 36-169 36-152 0-293-81-368-215l-4 0c-22 43-68 71-117 71-89 0-97-71-152-71l-64 0c-80 0-143-65-143-144l0-98c0-64 54-118 118-118l107 0c12 0 19 4 22 11 9 24-4 61 17 61l123 0c25 0 44-18 44-44 1-57 2-114 2-171l-1-216-145 0 0 79c0 56-44 100-100 100l-85 0c-20-20-30-47-30-75 0-23 7-42 19-62l155-242c9-15 23-22 40-22 51 0 49 65 76 65 14 0 58-51 69-62l0-141c0-120 93-217 213-217 z" fill="#6D4534"/>
		<path d="M579 719c19 0 36 15 36 36 0 19-15 36-36 36-18 0-36-17-36-36 0-18 17-36 36-36 z M651 862c19 0 36 15 36 36l0 43c0 19-15 36-36 36-19 0-36-15-36-36l0-43c0-19 15-36 36-36 z" fill="#1C1C1C"/>
		<path d="M759 1150c114 0 214 96 214 214 0 102-84 217-201 217-8 0-12-4-12-11 0-10 74-49 74-134 0-82-66-142-146-142-39 0-73-31-73-72 0-38 33-72 72-72l72 0 z" fill="#F9C23C"/>
	</g></svg>
