<svg version="1.1" xmlns="http://www.w3.org/2000/svg" viewBox="0 0 2300 2300"><g transform="scale(1,-1) translate(-256, -1869)">
		<path d="M1752-287l-108 0c-12 0-22 10-22 22l0 364 351-77-183-289c-7-12-23-20-38-20 z M1384-287c12 0 22 10 22 22l0 364-352-77 184-289c8-14 24-20 38-20l108 0 z" fill="#212121"/>
		<path d="M2224-287c12 0 22 4 31 13 9 9 13 19 13 31l0 674c0 22-1 43-3 62-2 19-5 38-10 56-5 17-12 35-20 52-8 17-18 35-30 54 67 60 119 130 155 210 35 79 53 164 53 254 0 83-16 162-49 235-33 73-77 138-132 193-56 55-121 98-195 130-74 32-152 48-235 48-69 0-134-11-196-32-63-21-121-53-176-94-69-52-143-92-222-119-79-28-163-42-250-42-11 0-21-2-28-6-7-5-13-10-17-17-4-7-7-15-8-24-1-9-2-18-2-27l145-212 574-56 35-2 26 1c21 1 42 1 61 1 33 0 63-7 92-21 29-14 54-33 75-56 21-23 38-50 51-79 12-30 18-61 19-93-35 13-70 23-106 29-37 6-73 9-110 9-40 0-79-4-118-12-39-8-77-20-112-36-36-17-70-37-101-61-31-24-59-52-84-84l-1 5 57 79c-13-15-27-29-42-43-15-14-31-26-48-37-17-11-35-19-54-26-19-7-38-10-59-10-15 0-29 2-43 6-15 3-29 8-42 14 0 15-3 29-8 43-5 13-13 25-22 35-10 10-21 18-34 24-13 6-28 9-43 9-23 0-44-7-63-20-25 5-48 8-69 8-43 0-80-7-110-22-30-15-56-34-79-57-23-24-45-51-64-81-19-31-39-62-60-94-10-15-21-27-33-34-13-7-25-12-37-15-13-3-25-5-36-5-11 0-21 0-30-1-9-1-17-3-22-6-5-4-8-11-8-20 0-23 3-43 8-62 5-19 12-36 23-50 11-14 25-25 42-32 17-8 38-12 63-12 18 0 35 0 51 1l11 0c11 0 23-1 33-3 14-3 27-9 39-17 12-8 23-20 34-37l113-177c9-15 14-31 14-49 0-17-6-39-19-65-13-27-27-54-42-81l-42-75c-13-23-19-40-19-50 0-7 2-12 7-16 5-4 10-6 16-6l159 0c9 0 19 2 28 6 9 4 17 10 24 17l196 233c9 10 19 18 32 23 12 5 24 8 37 8l586 0c15 0 30-4 43-11 13-7 24-18 33-31l143-225c4-7 10-12 17-15 7-3 14-5 21-5l173 0 z" fill="#636363"/>
		<path d="M505 431l-105 0c0 26 5 52 39 52 53 0 94 4 127 53 81 126 144 255 313 255 29 0 56-4 81-13-24-13-43-35-52-62-197-28-189-285-403-285 z M2248 575c-13 42-31 81-52 117l1-1 0 141c0 216-173 391-391 391l-557 0c-124 0-250 47-346 143 8-141 128-288 287-288l554 0c116 0 211-82 232-190l2 0 0-1c-67 32-138 48-213 48-99 0-196-29-283-87-97-65-155-180-279-180-31 0-58 7-85 19 0-24-4-46-19-66 58-30 109-46 170-46 96 0 173 38 242 105 72 70 162 111 267 111 135 0 236-63 315-168 23-29 49-48 88-48l67 0 z" fill="#D3D3D3"/>
		<path d="M795 442c19 0 36 18 36 36l0 43c0 19-15 36-36 36-19 0-36-15-36-36l0-43c0-19 15-36 36-36 z M443 399c24 0 43 18 43 43 0 24-18 43-43 43-24 0-43-18-43-43 0-24 18-43 43-43 z M1011 625c33 0 58 27 58 58 0 31-25 58-58 58-32 0-59-25-59-58 0-33 27-58 59-58 z" fill="#1C1C1C"/>
	</g></svg>
