<svg version="1.1" xmlns="http://www.w3.org/2000/svg" viewBox="0 0 2300 2300"><g transform="scale(1,-1) translate(-256, -1869)">
		<path d="M1622-287c0 41-22 59-51 67-15 4-30 6-47 6l-46-1 0 143-144 0 0-143-144 0c-38 0-72-33-72-72l504 0 z" fill="#FF822D"/>
		<path d="M1482-72l-152 0c-39 0-68 31-68 68l0 220 288 0 0-220c0-39-31-68-68-68 z M2164 511c136 0 248 110 248 247 0 135-108 248-248 248-135 0-248-108-248-248 0-136 111-247 248-247 z" fill="#636363"/>
		<path d="M1770-72c19 0 35 7 48 20 13 13 19 29 19 48l0 76 22 0c47 0 91 9 132 27 41 17 76 41 107 72 31 30 55 66 73 107 17 41 26 84 26 131l0 93c0-27 7-50 20-71 13-21 32-38 55-51 5-3 12-7 23-12 10-6 17-9 22-9 7 0 12 2 17 7 4 5 6 10 6 16l0 86c0 17 2 32 7 44 4 11 10 24 17 39 15 33 27 67 36 100 8 33 12 67 12 104 0 25-5 48-14 70-9 22-22 41-38 58-17 16-36 29-57 38-22 9-45 14-70 14-35 0-66-9-95-27-29-19-52-44-67-75-75 57-157 102-245 134-89 31-181 47-276 47-57 0-113-5-166-16-54-11-108-26-161-46l-9-2c-6 0-11 2-16 7-5 5-7 10-7 16 0 3 4 11 11 24l27 47 73 123 32 51 17 29c31 52 46 107 46 164 0 43-8 84-25 123-17 38-39 71-68 100-29 28-63 50-101 67-39 16-80 24-123 24-43 0-84-8-122-25-38-17-71-39-99-67-29-29-51-62-67-100-17-39-25-80-25-123 0-39 7-76 21-112 14-37 34-69 59-98l220 0 0-5-46-9-192-336c-23-40-40-82-52-127-12-45-18-90-18-136 0-71 14-138 41-200 27-63 63-117 110-164 47-47 101-83 164-110 62-27 129-41 200-41l276 0c0-13 0-28-1-44l0-9c0-13 2-26 5-38 3-15 10-28 19-38 9-10 24-15 44-15l153 0 z" fill="#9B9B9B"/>
		<path d="M1640 171c26 0 51 5 75 14 23 9 45 21 64 37 19 15 35 34 48 56 13 21 21 45 25 71l0 5c0 12-4 20-11 25-8 5-18 7-30 8l-11 0-27-1c-13-1-26-2-38-2-12 0-22 2-29 5-8 3-12 9-12 19 0 3 4 8 11 16 7 8 16 19 25 33 9 14 17 31 24 50 7 19 11 41 11 66 0 31-5 59-16 86-11 26-27 49-46 68-19 19-42 35-68 46-26 11-54 17-85 17-28 0-55-5-81-16-26-11-49-26-69-45-20-19-36-42-48-67-12-25-18-52-18-81l0-105c0-42 8-82 24-119 16-37 38-70 66-97 27-27 60-49 97-65 37-16 77-24 119-24 z M1008 1150c136 0 248 112 248 247 0 135-109 251-248 251-175 0-177-138-306-138l-65 0 50-360 321 0 z" fill="#D3D3D3"/>
		<path d="M954 1351c30 0 54 22 54 54 0 30-25 54-54 54-29 0-54-24-54-54 0-32 24-54 54-54 z" fill="#1C1C1C"/>
		<path d="M1909-287c0 41-21 59-51 67-15 4-30 6-47 6l-46-1 0 143-143 0 0-143-144 0c-38 0-72-33-72-72l503 0 z" fill="#FFB02E"/>
		<path d="M520 1093c15 0 21 9 23 21l1 19-1 17 144 0 0 309c0 27-21 51-50 51-129 0-237-105-237-238 0-73 40-143 109-176 3-2 6-3 11-3 z" fill="#FFB02E"/>
	</g></svg>
