<svg version="1.1" xmlns="http://www.w3.org/2000/svg" viewBox="0 0 2300 2300"><g transform="scale(1,-1) translate(-256, -1869)">
		<path d="M1803-81l0 1054-787 0 0-1054 787 0 z" fill="#7D4533"/>
		<path d="M2212-287l187 465c9 21 13 44 13 68 0 100-80 185-185 185l-302 0-218-544c-6-15-9-31-9-47 0-69 55-127 127-127l387 0 z M1006-287c62 0 114 49 114 113 0 14-3 28-8 43l-225 562-303 0c-101 0-185-82-185-184 0-23 5-46 14-69l187-465 406 0 z" fill="#FF6723"/>
		<path d="M1286-289l-14 1c-9 0-18 2-25 5-7 3-12 9-14 17-16-14-35-21-56-21-6 0-13 0-22-1l-19-1-8 0c-9 1-17 3-24 6-7 3-12 9-15 17-17-14-36-21-56-21-6 0-14 0-23-1l-15-1-14 1c-10 1-18 3-25 8-7 4-11 11-11 21l0 188 923 0 0-188c0-8-3-15-9-20-6-5-13-8-20-8l-60 0c-21 0-39 7-56 21-1-6-4-11-9-15-5-4-11-6-18-6l-61 0c-20 0-39 7-56 21-1-6-4-11-9-15-5-4-11-6-18-6l-60 0c-12 0-23 2-33 7-11 4-20 10-27 18-8 7-14 16-19 27-5 10-7 21-7 33 0-12-2-23-7-33-5-11-11-20-18-27-8-8-17-14-27-18-11-5-22-7-34-7-5 0-12 0-21-1l-13-1 z M2263-287l-221 0c-79 0-144 60-144 144 0 82 65 145 144 145l298 0c42 0 72-36 72-73 0-41-33-72-72-73l0-47c0-49-16-96-77-96 z M770-287l-221 0c-63 0-77 48-77 96l0 47c-39 1-72 32-72 73 0 37 30 73 72 73l298 0c80 0 144-66 144-145 0-79-63-144-144-144 z M1537 503c67 0 121 53 121 120 0 66-53 120-121 120l-263 0c-68 0-120-57-120-120 0-68 57-120 120-120l263 0 z" fill="#636363"/>
		<path d="M1790-144c32 0 56 17 69 46 21 45 49 88 78 129l277 395c17 25 26 53 26 84 0 35-22 75-22 80 0 5 3 7 8 7 5 0 44-21 76-21 25 0 46 19 46 45 0 20-203 501-223 556-46 116-153 189-274 189l-352 0 184-817c2-8 3-16 3-24 0-22-6-42-18-60l-220-330c-25-36-39-80-42-125-3 45-16 89-41 125l-220 330c-15 22-18 41-18 73 0 4 1 8 2 11l184 817-351 0c-131 0-230-79-275-189-21-52-223-537-223-557 0-26 21-45 46-45 32 0 72 22 77 22 5 0 7-2 7-7 0-5-22-47-22-81 0-31 9-58 26-83l277-396c15-21 28-42 41-63 28-48 48-111 105-111 49 0 69 47 77 47 8 0 28-47 77-47 49 0 69 47 77 47 8 0 28-47 77-47 41 0 74 34 77 73 3-39 36-73 77-73 52 0 69 47 77 47 8 0 28-47 77-47 49 0 69 47 77 47 5 0 29-47 76-47 z" fill="#FF822D"/>
		<path d="M1575 626c47 0 84 37 84 84l0 273c151 25 250 158 250 297 0 164-131 301-301 301l-127 0c11 11 21 21 21 36 0 19-16 36-37 36-23 0-44-28-59-45-16 16-37 45-61 45-19 0-36-15-36-36 0-16 10-25 21-36l-126 0c-164 0-301-131-301-301 0-148 108-273 253-297l0-273-2 0c0-47 37-84 84-84 46 0 85 36 85 84 0-47 37-84 84-84 47 0 84 37 84 84 0-47 37-84 84-84 z" fill="#FF6723"/>
		<path d="M1406 720c138 0 251 108 251 251 0 36-7 72-23 104 79 24 131 98 131 178 0 100-80 185-185 185l-349 0c-101 0-184-81-184-186 0-78 50-152 131-177-15-33-23-67-23-104 0-138 108-251 251-251 z" fill="#636363"/>
		<path d="M1298 1178c-21 0-36 16-36 35l0 45c0 19 15 36 36 36 19 0 36-15 36-36l0-45c0-19-15-35-36-35 z M1514 1006c19 0 36 18 36 36 0 19-15 36-36 36-19 0-36-15-36-36 0-18 17-36 36-36 z M1298 1006c19 0 36 18 36 36 0 19-15 36-36 36-19 0-36-15-36-36 0-19 18-36 36-36 z M1514 1177c19 0 36 15 36 36l0 45c0 19-15 36-36 36-19 0-36-15-36-36l0-45c0-19 15-36 36-36 z" fill="#212121"/>
	</g></svg>
