<svg version="1.1" xmlns="http://www.w3.org/2000/svg" viewBox="0 0 2300 2300"><g transform="scale(1,-1) translate(-256, -1869)">
		<path d="M946-358c40 0 75 8 114 17l4 1c143 56 209 173 209 313 0 60-12 120-39 173l13 16c51 54 102 108 163 166 180 171 345 342 544 529 10 10 21 15 32 15 7 0 13-1 20-2 45-12 88-28 144-28 170 0 332 138 332 317 0 158-114 309-274 333-7 1-11 1-18 4-8 23-10 47-15 70-29 132-162 233-298 233-27 0-54-3-79-10-150-41-260-148-260-317 0-52 11-100 26-152 3-9 5-18 5-27 0-9-3-16-9-23-26-31-696-694-711-699-12 0-23 2-41 7-59 17-96 19-137 19-182 0-341-133-341-334 0-174 133-314 312-319 0-168 136-302 304-302 z" fill="#9B9B9B"/>
		<path d="M947-286c155 0 255 105 255 260 0 54-13 104-38 150-4 8-8 15-8 24 0 18 20 41 38 62 76 85 112 119 164 169 189 181 372 367 546 530 25 23 50 35 83 35 51 0 100-30 162-30 129 0 261 104 261 244 0 122-87 241-210 262-86 13-79 60-95 131-21 98-127 176-229 176-145 0-267-111-267-255 0-46 11-87 25-134 4-15 8-30 8-45 0-63-60-104-106-148-252-250-355-358-608-602-23-21-47-44-80-44-15 0-31 2-46 7-43 13-90 19-131 19-149 0-269-108-269-262 0-142 106-243 245-248 54-3 67-24 67-82 0-122 115-219 233-219 z" fill="#FFFFFF"/>
		<path d="M946-286c39 0 75 6 107 19 31 13 58 31 80 54 22 23 39 50 51 82 12 31 18 66 18 105 0 54-13 104-38 150-2 4-4 8-5 12-2 3-3 7-3 12 0 6 2 13 6 20 4 7 9 15 15 22 5 7 11 13 17 20l14 15c44 48 90 95 137 140l140 136 209 205c69 68 139 136 210 203 12 11 25 20 38 26 13 6 28 9 45 9 13 0 25-1 38-4 13-3 26-7 39-11 13-4 26-7 40-10 14-3 29-5 45-5 33 0 65 6 96 19 31 13 59 30 84 52 25 22 44 48 59 78 15 29 22 61 22 95 0 38-8 75-23 111-16 35-38 66-66 92l-4 0c15-19 25-41 32-64 7-24 10-48 10-71 0-27-5-54-14-80-9-27-22-50-39-71-17-21-38-37-62-50-24-13-50-20-79-20-17 0-33 2-48 6-16 4-31 9-46 14-15 5-30 9-44 14-15 4-29 6-44 6-21 0-42-3-62-10-20-7-37-18-52-33-55-59-110-116-167-171l-171-169-297-298-72-71c-24-24-48-48-71-73-13-14-20-31-20-51 0-15 3-30 8-45l17-48c6-17 12-35 17-54 5-19 8-39 8-60 0-27-6-52-18-73-12-22-28-41-47-56-19-15-41-27-65-35-25-8-50-12-75-12-34 0-66 7-97 20-31 13-59 30-85 50l1-5c-7 17-11 36-14 57-3 21-5 40-5 59 0 15 1 32 4 49 3 17 8 33 16 46 7 12 15 23 25 34 10 10 21 19 33 27 12 8 25 14 39 19 13 5 27 7 41 7 9 0 18 4 25 11 7 7 11 15 11 24 0 11-3 19-9 26-7 7-15 10-26 11l5 0-5 0c-29 0-56-5-81-16-26-11-49-26-70-45-21-19-38-41-51-66-13-25-22-52-26-79l5 0c25 0 42-7 50-21 8-15 12-35 12-61 0-31 7-59 20-86 13-27 31-50 53-69 21-20 46-36 74-47 27-11 56-17 85-17 z M1943 1204c128 0 228 91 241 219-49 10-62 40-72 88 2-13 3-27 3-42 0-86-36-163-119-186-24-8-87 0-87-40 0-21 13-36 33-39l1 0 z" fill="#D3D3D3"/>
	</g></svg>
