<svg version="1.1" xmlns="http://www.w3.org/2000/svg" viewBox="0 0 2300 2300"><g transform="scale(1,-1) translate(-256, -1869)">
		<path d="M2217-287c107 0 196 86 196 195l0 964c0 88-32 165-83 237-116 159-166 301-197 489-14 70-61 126-137 126l-1163 0c-80 0-126-56-139-125-5-28-8-57-15-85-33-152-99-288-193-416-53-72-86-149-86-240l0-950c0-107 87-195 196-195l551 0c144 0 260 117 260 259 0-144 116-259 261-259l549 0 z" fill="#FF6723"/>
		<path d="M2412 144l0 144-430 0 0 1437-144 0 0-1437-863 0 0 1436-143 0 0-1436-432 0 0-144 2012 0 z" fill="#D3D3D3"/>
		<path d="M1334-208c12 10 23 22 32 36 9 14 16 29 22 44 6 15 11 31 14 48 3 16 4 32 4 47 0-15 2-31 5-47 3-16 8-32 14-47 6-16 14-31 23-44 9-14 19-26 31-36l0 761c0 37-1 70-3 101-2 31-3 61-4 90l-1 62 0 27c0 30 3 63 8 100 3 24 8 45 14 64 6 19 13 37 21 55 7 17 15 35 24 53 9 18 17 38 25 61l169 465c10 28 27 50 51 67 24 17 51 25 81 25l-930 0c32 0 62-7 90-22 27-15 47-39 58-70l168-465c8-23 16-43 25-61l25-53c7-18 14-36 20-55 6-19 11-40 14-64 5-37 7-70 8-100l1-45-1-44c-1-29-3-59-5-90-2-31-3-65-3-102l0-761 z" fill="#CA0B4A"/>
	</g></svg>
