<svg version="1.1" xmlns="http://www.w3.org/2000/svg" viewBox="0 0 2300 2300"><g transform="scale(1,-1) translate(-256, -1869)">
		<path d="M2412-287c-3 79-12 159-26 239-14 79-35 156-64 230-29 73-67 143-112 208-45 65-101 123-166 173-31 23-64 45-99 64-35 19-71 34-108 46l0 5c0 11-3 20-11 28-9 9-20 13-33 13l-739 0c-11 0-20-3-28-10-9-7-14-15-15-26-16-4-32-9-49-16-17-7-34-15-51-24l-50-27c-16-10-31-19-44-28-72-50-134-108-185-173-51-66-93-137-126-212-33-76-58-155-75-238-17-83-27-167-31-252l143 0 863 215 862-215 144 0 z" fill="#F8312F"/>
		<path d="M1981-287l108 395-108 406c-49 49-103 91-163 128 0 0-383-230-412-246-43 28-383 242-390 260-67-39-129-86-185-142l-108-406 108-395 1150 0 z" fill="#007ACF"/>
		<path d="M1406-226c25 0 47 14 60 33l192 298c8 12 12 25 12 39 0 39-31 72-72 72l-384 0c-39 0-72-31-72-72 0-15 5-27 12-39l191-298c13-20 37-33 61-33 z M2268-287l0 72c0 263-99 539-287 729l0-801 287 0 z M831-287l0 801c-185-187-288-457-288-729l0-72 288 0 z" fill="#0092E7"/>
		<path d="M1404 365c38 0 72 31 72 71 0 39-34 72-72 72-39 0-72-31-72-72 0-40 34-71 72-71 z" fill="#966661"/>
		<path d="M1406 539c83 0 144 76 144 155l0 193c0 82-62 155-144 155-85 0-144-75-144-155l0-193c0-78 58-155 144-155 z" fill="#8B5C56"/>
		<path d="M1757 988c67 0 120 54 120 120 0 68-57 120-120 120-68 0-120-57-120-120 0-68 57-120 120-120 z M1054 988c68 0 120 57 120 120 0 68-57 120-120 120-68 0-120-57-120-120 0-67 54-120 120-120 z" fill="#8B5C56"/>
		<path d="M1522 647c118 0 224 92 232 220l13 189-38 94 51 94c1 19 3 39 3 58 0 192-154 351-345 351l-64 0c-185 0-346-151-346-353 0-19 1-35 4-54l51-96-38-93 13-190c8-124 110-220 232-220l232 0 z" fill="#966661"/>
		<path d="M1406 823c25 0 48 7 71 20 23 13 55 45 55 57 0 9-4 13-12 13l-6-2c-42-15-65-27-108-27-38 0-74 9-108 27l-6 2c-6 0-12-5-12-12 0-2 1-4 2-7 24-42 75-71 124-71 z" fill="#990839"/>
		<path d="M1771 1150c11 1 20 6 29 13 8 7 13 15 15 26l40 219c2 9 3 17 3 26 0 29-6 52-17 69-11 17-25 31-41 42-17 11-35 21-54 31-19 10-37 23-53 39l-38 39c-12 13-25 24-38 34-13 9-28 17-43 23-15 6-33 9-54 9-19 0-38-3-56-10-18-7-37-10-57-10-11 0-21 1-31 4l-29 9-28 8c-10 3-20 4-31 4-19 0-35-3-50-10-15-7-29-16-42-27-13-11-26-23-38-36l-36-38c-11-11-22-20-34-27l-37-21c-13-7-24-14-35-21-11-7-21-16-30-25-9-10-16-22-21-35-5-14-8-31-8-51 0-9 1-17 3-26l40-219c2-11 7-20 15-27 8-7 18-11 29-12l-4 55c-1 18-2 36-2 54 0 14 3 25 10 34 7 8 14 16 22 23 7 7 14 16 21 26 7 10 10 24 10 41l0 61c0 9 3 17 8 23 5 6 12 10 21 13 44 13 90 22 138 26 47 3 94 5 139 5 45 0 92-2 140-5 48-4 94-13 138-26 11-3 18-9 23-16 4-7 7-16 8-25l1-14-1-15c-1-10-2-19-2-27 0-17 3-30 10-40 7-10 14-19 22-27 8-8 15-16 22-25 7-9 10-20 10-33 0-17-1-35-2-53-2-19-4-37-5-55 z" fill="#2D242D"/>
		<path d="M2268-287l0 72c0 263-99 539-287 729l0-801 287 0 z M831-287l0 801c-185-187-288-457-288-729l0-72 288 0 z" fill="#0092E7"/>
		<path d="M1598 1017c54 0 95 32 133 37l17 1c5-1 12-1 19-1l13 191-38 0c-46 0-75 49-144 49-72 0-102-47-150-47l-87 0c-52 0-79 47-148 47-35 0-63-12-94-29l-2-3c-13-9-27-14-40-14-14-1-29-1-45-1l13-192 35 0c11 0 22-3 32-8 32-17 64-29 101-29 59 0 100 37 140 37l103 0c40 0 84-38 142-38 z" fill="#F8312F"/>
		<path d="M1433 953c22 0 37 20 37 39 0 18-16 71-28 107-12 32-12 51-35 51-14 0-23-9-26-21-8-29-38-113-38-136 0-19 15-40 37-40l53 0 z" fill="#75443E"/>
		<path d="M1662 1105l-164 0c-7 0-17 6-17 14 0 47 52 89 101 89 39 0 100-36 100-83 0-10-10-20-20-20 z M1315 1105c7 0 16 6 16 14 0 48-51 89-100 89-39 0-101-35-101-82 0-10 10-21 21-21l164 0 z" fill="#FFFFFF"/>
		<path d="M1630 1105l-126 0c-1 3-2 6-2 9l0 8c0 35 28 66 65 66 18 0 33-6 46-19 16-17 19-40 19-55 0-3-1-6-2-9 z M1309 1105c1 7 2 10 2 17 0 35-27 66-65 66-36 0-66-29-66-66 0-7 1-10 2-17l127 0 z" fill="#7D4533"/>
		<path d="M1600 1105l-66 0c-3 5-4 10-4 17 0 22 16 38 37 38 21 0 37-16 37-38 0-7-1-12-4-17 z M1279 1105c3 5 4 10 4 17 0 22-16 38-37 38-21 0-38-16-38-38 0-6 2-12 5-17l66 0 z" fill="#000000"/>
		<path d="M1547 1137c7 0 11 5 11 12 0 7-4 11-11 11-7 0-12-4-12-11 0-8 4-12 12-12 z M1223 1137c8 0 12 4 12 12 0 7-5 11-12 11-7 0-11-4-11-11 0-7 4-12 11-12 z" fill="#FFFFFF"/>
	</g></svg>
