<svg version="1.1" xmlns="http://www.w3.org/2000/svg" viewBox="0 0 2300 2300"><g transform="scale(1,-1) translate(-256, -1869)">
		<path d="M2412-287c0 267-62 541-196 794-27 51-56 101-91 146l-1438 0c-17-22-33-45-48-70-166-276-239-581-239-870l215 0c5 0 743 201 791 215 51-15 786-215 791-215l215 0 z" fill="#533566"/>
		<path d="M1926-288l0 852c-79 74-180 90-287 90-79 0-153-7-233-7-79 0-151 7-230 7-109 0-206-16-290-92l0-850 1040 0 z" fill="#6B438B"/>
		<path d="M1407 319c15 0 26 6 33 17l253 382-575 0 256-381c7-12 18-18 33-18 z" fill="#C3EF3C"/>
		<path d="M2196-287l1 148c0 269-77 533-288 714l0-862 287 0 z M903-287l0 862c-212-187-288-452-288-711l0-151 288 0 z M1406 521c91 0 144 74 144 156l0 114-288 0 0-114c0-85 54-156 144-156 z" fill="#8D65C5"/>
		<path d="M1840 324c-25 0-49 4-70 13-134 54-220 186-220 330l0 52 573 0c22 0 38-14 38-37 0-6-1-11-4-16l-148-245c-34-57-94-97-169-97 z M972 324c25 0 49 4 70 13 134 54 220 186 220 330l0 52-575 0c-21 0-36-12-36-35 0-7 1-13 4-18l147-245c35-59 98-97 170-97 z" fill="#F92F60"/>
		<path d="M1415 18c64 0 117 53 117 117 0 64-53 117-117 117-64 0-117-53-117-117 0-63 50-117 117-117 z" fill="#F92F60"/>
		<path d="M1457 125c22 0 35 16 35 37 0 26-21 54-50 54-23 0-36-17-36-38 0-26 22-53 51-53 z" fill="#F7A7B8"/>
		<path d="M1756 988c64 0 117 53 117 117 0 63-50 117-117 117-64 0-116-52-116-117 0-64 51-117 116-117 z M1056 988c64 0 116 53 116 117 0 66-52 117-116 117-63 0-117-50-117-117 0-64 53-117 117-117 z" fill="#FECA46"/>
		<path d="M1522 647c120 0 224 92 232 212 11 137 18 258 28 395l1 12 0 12c0 189-155 339-344 339l-66 0c-140 0-261-81-316-204-22-50-28-101-28-146l1-13c10-137 17-258 28-395 8-119 111-212 232-212l232 0 z" fill="#FDD641"/>
		<path d="M1044 1150l-4 55c-2 18-3 36-3 54 0 14 3 25 10 34l22 24c7 7 14 16 21 26 7 9 10 22 10 39l0 61c0 9 3 17 8 24 5 6 12 10 21 13 43 13 89 22 137 26 48 3 95 5 140 5 45 0 92-2 140-5 48-4 94-13 137-26 11-3 18-9 23-16 4-7 7-16 8-25l1-14-1-15c-1-11-2-20-2-28 0-16 3-29 10-39 7-10 14-19 22-27l22-25c7-9 10-20 10-33 0-17-1-35-2-53-2-19-4-37-5-54 11 1 20 5 29 12 8 7 13 15 15 26l40 219c1 4 2 8 2 13l0 12c0 29-5 52-16 69-11 17-25 31-41 42-17 11-35 22-54 32-19 10-37 23-53 39l-38 39c-12 13-25 24-38 34-13 9-28 17-43 23-16 6-34 9-54 9-19 0-38-3-56-10-18-7-37-10-57-10-11 0-21 1-31 4l-29 9-28 8c-10 3-20 4-31 4-19 0-36-3-51-10-15-7-29-16-42-27-13-11-26-23-37-36l-36-38c-16-16-33-29-52-38-19-10-37-21-53-32-17-11-30-25-41-41-11-17-17-40-17-70l0-12c0-5 1-9 2-13l40-219c2-11 7-20 16-27 8-7 18-11 29-12 z" fill="#FFB02F"/>
		<path d="M1617 933c40 0 61 46 78 73l246 369c3 5 5 10 5 15 0 15-10 26-25 26-12 0-354-102-391-114-34-10-54-20-75-51-10-16-28-29-49-29-44 0-43 56-122 80-37 8-378 114-391 114-15 0-26-12-26-26 0-5 2-10 5-15l246-369c18-29 40-73 78-73 17 0 31 6 42 19 21 23 73 82 110 129 32 41 34 69 58 69 18 0 29-21 36-36 10-22 61-82 104-128 37-42 44-53 71-53 z" fill="#533566"/>
		<path d="M1432 967c21 0 37 16 37 38 0 18-15 63-28 103-12 35-12 49-35 49-12 0-23-8-26-20-8-29-37-107-37-132 0-22 16-38 37-38l52 0 z" fill="#FFB02C"/>
		<path d="M1448 863c41 0 102 34 102 81 0 6-3 9-8 9-2 0-4-1-7-4-45-39-72-57-138-57-4 0-9-3-9-8 0-14 50-21 60-21 z" fill="#990839"/>
		<path d="M1837 647c0 19-15 36-36 36-19 0-36-15-36-36l72 0 z M1981 647c0 19-15 36-36 36-19 0-36-15-36-36l72 0 z M2053 719c0 19-15 36-36 36-19 0-36-15-36-36l72 0 z M1909 719c0 19-15 36-36 36-19 0-36-15-36-36l72 0 z M903 647c0 19-15 36-36 36-19 0-36-15-36-36l72 0 z M1047 647c0 19-15 36-36 36-19 0-36-15-36-36l72 0 z M975 719c0 19-15 36-36 36-19 0-36-15-36-36l72 0 z M831 719c0 19-15 36-36 36-19 0-36-15-36-36l72 0 z" fill="#8D65C5"/>
		<path d="M1567 1138c-21 0-68 18-68 45 0 8 3 13 10 15l120 36c16 0 16-6 16-19 0-44-36-77-78-77 z M1238 1138c21 0 69 19 69 45 0 7-4 12-11 15l-119 36c-14 0-17-5-17-18 0-42 34-78 78-78 z" fill="#C3EF3C"/>
	</g></svg>
