<svg version="1.1" xmlns="http://www.w3.org/2000/svg" viewBox="0 0 2300 2300"><g transform="scale(1,-1) translate(-256, -1869)">
		<path d="M687 144c22 0 46 11 59 30l359 503c9 11 13 25 13 42 0 39-34 72-72 72-25 0-44-10-58-30l-359-503c-9-13-14-27-14-43 0-38 31-71 72-71 z" fill="#CA0B4A"/>
		<path d="M687 144c-20 0-37 7-51 21l-143 144c-14 14-21 31-21 50 0 40 33 73 71 73 20 0 36-9 51-22l144-143c14-14 21-31 21-51 0-39-31-72-72-72 z M1047-215c-98 0-180 79-180 179 0 98 78 180 180 180 98 0 179-79 179-180 0-97-79-179-179-179 z M1906 848l0 230-776 0c-85 0-155-67-155-155l0-75 931 0 z" fill="#1C1C1C"/>
		<path d="M1047-72c40 0 71 34 71 72l0 431c0 38-31 72-71 72-39 0-72-31-72-72l0-431c0-39 31-72 72-72 z" fill="#9B9B9B"/>
		<path d="M1909 144c20 0 37 7 51 21 14 14 21 31 21 51l0 664c0 32 0 61-1 88l-3 78-1 55 0 23c0 27 2 56 5 88 1 17 4 32 7 45 3 13 7 25 12 38 5 12 9 25 14 38 5 13 9 27 14 43l94 329c2 7 3 13 3 20 0 20-7 37-21 51-15 14-32 21-51 21-16 0-30-5-43-14-13-10-21-23-26-38l-129-451-509 0c-31 0-61-6-88-18-28-12-52-28-73-49-21-21-37-45-49-72-12-28-18-58-18-89l0-131c-14 0-29 0-46 1-17 0-32-2-46-6-15-4-27-11-36-21-10-10-15-25-15-46l0-432c0-20 7-37 22-51 14-14 31-21 50-21 5 0 11 0 16 1 5 1 10 1 15 1 22 0 40-4 55-12 15-8 26-19 35-32 8-13 14-29 17-46 3-18 5-36 5-55 0-19 7-36 22-50 14-15 31-22 50-22l647 0 z M1837 288l-509 0c-19 109-87 196-210 214l0 289 719 0 0-503 z M1837 935l-575 0 0 131c0 47 37 84 84 84l491 0 0-215 z" fill="#F92F60"/>
		<path d="M1909-215c289 0 539 232 539 539 0 294-239 539-539 539-294 0-539-239-539-539 0-294 239-539 539-539 z M2340 1653c39 0 72 34 72 72 0 39-31 72-72 72l-287 0c-39 0-72-31-72-72 0-38 33-72 72-72l287 0 z" fill="#1C1C1C"/>
		<path d="M1908-72c217 0 396 174 396 396 0 211-169 395-396 395-214 0-395-174-395-395 0-218 175-396 395-396 z" fill="#9B9B9B"/>
		<path d="M1909 0c177 0 324 143 324 324 0 178-145 323-324 323-179 0-323-147-323-323 0-179 144-324 323-324 z" fill="#D3D3D3"/>
		<path d="M1908 216c57 0 108 46 108 108 0 58-47 107-108 107-59 0-107-49-107-107 0-57 45-108 107-108 z" fill="#212121"/>
	</g></svg>
