<svg version="1.1" xmlns="http://www.w3.org/2000/svg" viewBox="0 0 2300 2300"><g transform="scale(1,-1) translate(-256, -1869)">
		<path d="M2412-287c-3 79-12 159-26 239-14 79-35 156-64 230-29 73-67 143-112 208-45 65-101 123-166 173-31 23-64 45-99 64-35 19-71 34-108 46l0 5c0 11-3 20-11 28-9 9-20 13-33 13l-739 0c-11 0-20-3-28-10-9-7-14-15-15-26-16-4-32-9-49-16-17-7-34-15-51-24l-50-27c-16-10-31-19-44-28-72-50-134-108-185-173-51-66-93-137-126-212-33-76-58-155-75-238-17-83-27-167-31-252l143 0 863 215 862-215 144 0 z" fill="#F8312F"/>
		<path d="M1981-287l108 395-108 406c-49 49-103 91-163 128 0 0-383-230-412-246-43 28-383 242-390 260-67-39-129-86-185-142l-108-406 108-395 1150 0 z" fill="#007ACF"/>
		<path d="M1406-226c25 0 47 14 60 33l192 298c8 12 12 25 12 39 0 39-31 72-72 72l-384 0c-39 0-72-31-72-72 0-15 5-27 12-39l191-298c13-20 37-33 61-33 z M2268-287l0 72c0 263-99 539-287 729l0-801 287 0 z M831-287l0 801c-185-187-288-457-288-729l0-72 288 0 z" fill="#0092E7"/>
		<path d="M1404 365c38 0 72 31 72 71 0 39-34 72-72 72-39 0-72-31-72-72 0-40 34-71 72-71 z" fill="#966661"/>
		<path d="M1406 539c83 0 144 76 144 155l0 193c0 82-62 155-144 155-85 0-144-75-144-155l0-193c0-78 58-155 144-155 z" fill="#8B5C56"/>
		<path d="M1585 748l136 46c31 11 57 30 76 57 19 27 29 58 29 91l0 300c0 14 3 27 8 38 5 11 11 23 18 35 7 11 13 24 18 38 5 14 8 31 8 51 0 38-10 71-31 100-21 28-50 48-85 61-43 15-76 41-99 78-16 25-37 45-62 60-25 15-53 22-84 22-11 0-21-1-30-3l-27-8c-9-3-18-6-27-8-9-3-18-4-27-4-9 0-18 1-27 4-9 2-18 5-27 8l-28 8c-9 2-19 3-29 3-31 0-58-7-83-21-25-14-45-34-62-59-25-37-58-64-101-80-35-13-62-33-83-62-21-29-32-62-32-99 0-19 3-36 8-49 5-13 11-26 17-37l17-35c5-12 8-25 8-40l0-300c0-34 10-64 29-91 19-27 45-46 77-57l136-47 0 534c13 13 24 29 33 47 9 17 14 36 15 55 3-1 7-1 11-1 3-1 7-1 10-1 20 0 40 4 59 11 19 7 36 17 51 30 17-15 38-26 61-33 15-5 31-8 47-8 8 0 15 1 23 2 3-21 8-40 16-55 8-16 19-32 33-47l0-534 z" fill="#2D242D"/>
		<path d="M1757 988c67 0 120 54 120 120 0 68-57 120-120 120-68 0-120-57-120-120 0-68 57-120 120-120 z M1054 988c68 0 120 57 120 120 0 68-57 120-120 120-68 0-120-57-120-120 0-67 54-120 120-120 z" fill="#8B5C56"/>
		<path d="M1476 647c29 0 57 4 84 13 27 8 53 20 76 35 23 15 44 33 62 55 18 21 33 45 44 72 5 10 9 21 12 32 3 11 5 23 6 34l11 166-42 96 54 94 0 28c-1 29-10 54-29 75-19 20-43 30-73 31-31 1-58 1-83 1l-10 0c-21 0-42 3-60 7-21 5-41 14-60 29-19 14-37 36-54 65-5 9-11 17-17 22-7 5-16 8-28 8l-94 0c-31 0-62-6-91-17-29-12-55-28-78-49-23-21-42-45-56-73-14-28-21-58-21-91 0-5 0-11 1-17 0-6 0-12 1-18l52-95-39-94 11-168c1-11 4-23 7-34 3-11 7-22 11-32 11-27 25-51 44-72 18-22 39-40 62-55 23-15 49-27 76-35 27-9 55-13 84-13l137 0 z" fill="#966661"/>
		<path d="M1406 823c25 0 48 7 71 20 23 13 55 45 55 57 0 9-4 13-12 13l-6-2c-42-15-65-27-108-27-38 0-74 9-108 27l-6 2c-6 0-12-5-12-12 0-2 1-4 2-7 24-42 75-71 124-71 z" fill="#990839"/>
		<path d="M1598 1017c53 0 104 37 135 37l39 0 11 191-41 0c-46 0-75 49-144 49-72 0-102-47-150-47l-87 0c-52 0-79 47-148 47-35 0-63-12-94-29l-2-3c-14-9-28-14-42-14-15-1-30-1-46-1l11-192 37 0c13 0 24-3 35-8 32-17 64-29 101-29 59 0 100 37 140 37l103 0c40 0 84-38 142-38 z" fill="#F8312F"/>
		<path d="M1433 953c22 0 37 20 37 39 0 18-16 71-28 107-12 32-12 51-35 51-14 0-23-9-26-21-8-29-38-113-38-136 0-19 15-40 37-40l53 0 z" fill="#75443E"/>
		<path d="M1662 1105l-164 0c-7 0-17 6-17 14 0 47 52 89 101 89 39 0 100-36 100-83 0-10-10-20-20-20 z M1315 1105c7 0 16 6 16 14 0 48-51 89-100 89-39 0-101-35-101-82 0-10 10-21 21-21l164 0 z" fill="#FFFFFF"/>
		<path d="M1630 1105l-126 0c-1 3-2 6-2 9l0 8c0 35 28 66 65 66 18 0 33-6 46-19 16-17 19-40 19-55 0-3-1-6-2-9 z M1309 1105c1 7 2 10 2 17 0 35-27 66-65 66-36 0-66-29-66-66 0-7 1-10 2-17l127 0 z" fill="#7D4533"/>
		<path d="M1600 1105l-66 0c-3 5-4 10-4 17 0 22 16 38 37 38 21 0 37-16 37-38 0-7-1-12-4-17 z M1279 1105c3 5 4 10 4 17 0 22-16 38-37 38-21 0-38-16-38-38 0-6 2-12 5-17l66 0 z" fill="#000000"/>
		<path d="M1547 1137c7 0 11 5 11 12 0 7-4 11-11 11-7 0-12-4-12-11 0-8 4-12 12-12 z M1223 1137c8 0 12 4 12 12 0 7-5 11-12 11-7 0-11-4-11-11 0-7 4-12 11-12 z" fill="#FFFFFF"/>
	</g></svg>
