<svg version="1.1" xmlns="http://www.w3.org/2000/svg" viewBox="0 0 2300 2300"><g transform="scale(1,-1) translate(-256, -1869)">
		<path d="M2125 360l0 215-143 0 0-215 143 0 z M1550 360l0 215-144 0 0-215 144 0 z M1941 671c41 0 72 34 72 72 0 13-4 30-12 40l-219 292c-15 20-33 32-60 32-41 0-72-34-72-72 0-13 4-30 12-40l219-292c15-20 33-32 60-32 z" fill="#9B9B9B"/>
		<path d="" fill="#F92F60"/>
		<path d="M1749 935c49 0 88 38 88 88l0 39c0 49-38 88-88 88l-399 0c-48 0-88-40-88-88l0-39c0-50 39-88 88-88l399 0 z" fill="#533566"/>
		<path d="M2053 576c39 0 71 33 71 71 0 38-32 71-71 71-39 0-71-33-71-71 0-38 32-71 71-71 z" fill="#433B6B"/>
		<path d="M2095 503c30 0 55 9 76 28 21 19 33 43 36 72l133 1050 0 6c0 7-1 14-4 21-5 9-10 16-17 23-7 6-15 11-24 15-9 4-18 6-27 6l-143 0 0 1c-25 0-46-5-64-15-18-11-33-24-45-41-12-17-21-37-26-58-6-21-9-43-9-65 0-20 3-39 9-57 5-19 14-36 27-51-12-17-23-39-33-65-10-26-19-54-27-85-8-31-15-62-21-95-6-33-11-66-15-97-4-31-7-61-9-89-2-28-3-52-3-72l0-144-640 0c-11 0-21-2-30-6-10-5-18-11-25-18-7-7-13-16-17-25-5-10-7-20-7-31l0-129c0-21 8-40 24-55 15-16 34-24 55-24l826 0 z" fill="#5092FF"/>
		<path d="M1873-215c95 0 185 53 227 143l78 0c50 0 90 40 90 90l0 323c0 50-40 90-90 90l-730 0c-218 0-401-175-401-401 0-54 33-102 94-102l505 0c42-90 132-143 227-143 z" fill="#321B41"/>
		<path d="M723-287c98 0 180 79 180 179 0 98-78 180-180 180-98 0-180-78-180-180 0-98 79-179 180-179 z" fill="#533566"/>
		<path d="M1873-287c179 0 324 145 324 323 0 177-143 324-324 324-178 0-323-145-323-324 0-179 147-323 323-323 z M723-215c57 0 108 45 108 107 0 57-46 108-108 108-58 0-108-49-108-108 0-59 49-107 108-107 z M1873-144c-98 0-180 78-180 180 0 98 78 180 180 180 98 0 180-78 180-180 0-98-78-180-180-180 z" fill="#D3D3D3"/>
		<path d="M722-144c21 0 477 134 514 146 14 4 26 19 26 35 0 18-16 35-37 35-20 0-470-134-512-145-15-4-26-18-26-34 0-18 14-37 35-37 z" fill="#9B9B9B"/>
	</g></svg>
