<svg version="1.1" xmlns="http://www.w3.org/2000/svg" viewBox="0 0 2300 2300"><g transform="scale(1,-1) translate(-256, -1869)">
		<path d="M1085 812c-28 61-27 120-31 188-23 1-45 9-65 22l0-67c0-65 40-120 96-143 z M1728 815c56 24 91 79 91 140l0 67c-18-13-38-21-61-22-5-73 0-118-30-185 z" fill="#000000"/>
		<path d="M2412-287c0 267-62 541-196 794-27 51-56 101-91 146l-1438 0c-17-22-33-45-48-70-166-276-239-581-239-870l215 0c5 0 743 201 791 215 51-15 786-215 791-215l215 0 z" fill="#533566"/>
		<path d="M1926-288l0 852c-79 74-180 90-287 90-79 0-153-7-233-7-79 0-151 7-230 7-109 0-206-16-290-92l0-850 1040 0 z" fill="#6B438B"/>
		<path d="M1407 319c15 0 26 6 33 17l253 382-575 0 256-381c7-12 18-18 33-18 z" fill="#C3EF3C"/>
		<path d="M2196-287l1 148c0 269-77 533-288 714l0-862 287 0 z M903-287l0 862c-212-187-288-452-288-711l0-151 288 0 z M1406 521c91 0 144 74 144 156l0 114-288 0 0-114c0-85 54-156 144-156 z" fill="#8D65C5"/>
		<path d="M1840 324c-25 0-49 4-70 13-134 54-220 186-220 330l0 52 573 0c22 0 38-14 38-37 0-6-1-11-4-16l-148-245c-34-57-94-97-169-97 z M972 324c25 0 49 4 70 13 134 54 220 186 220 330l0 52-575 0c-21 0-36-12-36-35 0-7 1-13 4-18l147-245c35-59 98-97 170-97 z" fill="#F92F60"/>
		<path d="M1756 988c64 0 117 53 117 117 0 63-50 117-117 117-64 0-116-52-116-117 0-64 51-117 116-117 z M1056 988c64 0 116 53 116 117 0 66-52 117-116 117-63 0-117-50-117-117 0-64 53-117 117-117 z" fill="#452829"/>
		<path d="M1474 653c137 0 266 104 281 243 10 141 16 268 26 409 1 13 2 25 2 37 0 164-133 297-298 297l-160 0c-170 0-296-132-296-296 0-7 0-13 1-19 7-131 18-295 28-428 11-140 147-243 280-243l136 0 z" fill="#573739"/>
		<path d="M1819 1213l0 28c0 8 1 16 2 24 1 7 2 15 5 23 3 7 7 16 13 25 10 15 18 31 23 46 5 15 7 32 7 50 0 36-10 69-31 98-21 29-49 49-83 61-21 7-40 17-55 29-16 12-30 28-42 47-16 25-36 45-61 60-25 14-52 21-83 21-19 0-38-4-55-11-18-7-36-11-55-11-9 0-18 1-27 4-9 2-17 4-26 7l-27 8c-9 2-19 3-29 3-30 0-57-7-81-20-25-14-45-33-61-58-15-23-32-40-49-51-17-11-35-20-52-28-17-8-34-17-49-28-16-11-30-29-43-53-13-25-20-51-20-78 0-18 3-35 8-50 5-15 13-31 22-46 6-9 10-18 13-25 3-7 5-15 6-22 1-8 1-16 1-24l0-28c15 10 31 17 49 20l0 59c0 33 6 65 19 94 13 29 30 55 52 77 21 21 47 38 76 51 29 13 61 19 94 19l92 0c21 0 36-10 45-30 14-29 30-51 49-65 18-14 38-24 60-29 22-6 46-9 71-9l80 0c13 0 26-3 38-8 12-6 23-14 32-23 9-9 17-20 22-32 5-13 8-26 8-39 0-11 0-21-1-32l-3-33 4-1 8-1 13-6c4-3 8-5 12-7l9-6 z" fill="#000000"/>
		<path d="M1617 933c40 0 61 46 78 73l246 369c3 5 5 10 5 15 0 15-10 26-25 26-12 0-354-102-391-114-34-10-54-20-75-51-10-16-28-29-49-29-44 0-43 56-122 80-37 8-378 114-391 114-15 0-26-12-26-26 0-5 2-10 5-15l246-369c18-29 40-73 78-73 17 0 31 6 42 19 21 23 73 82 110 129 32 41 34 69 58 69 18 0 29-21 36-36 10-22 61-82 104-128 37-42 44-53 71-53 z" fill="#533566"/>
		<path d="M1432 967c21 0 37 16 37 38 0 18-15 63-28 103-12 35-12 49-35 49-12 0-23-8-26-20-8-29-37-107-37-132 0-22 16-38 37-38l52 0 z" fill="#3D2123"/>
		<path d="M1448 863c41 0 102 34 102 81 0 6-3 9-8 9-2 0-4-1-7-4-45-39-72-57-138-57-4 0-9-3-9-8 0-14 50-21 60-21 z" fill="#290118"/>
		<path d="M1415 18c64 0 117 53 117 117 0 64-53 117-117 117-64 0-117-53-117-117 0-63 50-117 117-117 z" fill="#F92F60"/>
		<path d="M1457 125c22 0 35 16 35 37 0 26-21 54-50 54-23 0-36-17-36-38 0-26 22-53 51-53 z" fill="#F7A7B8"/>
		<path d="M1837 647c0 19-15 36-36 36-19 0-36-15-36-36l72 0 z M1981 647c0 19-15 36-36 36-19 0-36-15-36-36l72 0 z M2053 719c0 19-15 36-36 36-19 0-36-15-36-36l72 0 z M1909 719c0 19-15 36-36 36-19 0-36-15-36-36l72 0 z M903 647c0 19-15 36-36 36-19 0-36-15-36-36l72 0 z M1047 647c0 19-15 36-36 36-19 0-36-15-36-36l72 0 z M975 719c0 19-15 36-36 36-19 0-36-15-36-36l72 0 z M831 719c0 19-15 36-36 36-19 0-36-15-36-36l72 0 z" fill="#8D65C5"/>
		<path d="M1567 1138c-21 0-68 18-68 45 0 8 3 13 10 15l120 36c16 0 16-6 16-19 0-44-36-77-78-77 z M1238 1138c21 0 69 19 69 45 0 7-4 12-11 15l-119 36c-14 0-17-5-17-18 0-42 34-78 78-78 z" fill="#C3EF3C"/>
	</g></svg>
