<svg version="1.1" xmlns="http://www.w3.org/2000/svg" viewBox="0 0 2300 2300"><g transform="scale(1,-1) translate(-256, -1869)">
		<path d="M1406 144c315 0 575 252 575 575 0 218-125 419-319 515l-29 60-67-23c-53 15-107 23-160 23-315 0-575-252-575-575 0-315 252-575 575-575 z" fill="#86D72F"/>
		<path d="M1406-287c447 0 791 339 791 790 0 104-18 194-54 283-16 37-54 111-54 149 0 28 19 53 36 71l-18 12-1406 0-14-12c17-18 36-43 36-71 0-40-39-113-54-149-36-89-54-179-54-283 0-448 340-790 791-790 z" fill="#8C5543"/>
		<path d="M2125 1006l-1438 0c-38 0-72 33-72 72 0 38 33 72 72 72l1438 0c39 0 72-34 72-72 0-39-34-72-72-72 z M1665 1233l118 205-2 2c16 52 159 159 159 188 0 7-3 13-9 16-19 11-135 82-146 82-8 0-15-6-18-14-11-37-51-197-75-221l-2 1-127-220c35-10 69-23 102-39 z" fill="#D3D3D3"/>
		<path d="M1784 1401c21 0 37 17 37 36 0 12-7 24-18 31-20 10-89 61-114 61-19 0-37-16-37-37 0-12 7-24 18-31 21-13 92-60 114-60 z" fill="#F9C23C"/>
	</g></svg>
