<svg version="1.1" xmlns="http://www.w3.org/2000/svg" viewBox="0 0 2300 2300"><g transform="scale(1,-1) translate(-256, -1869)">
		<path d="M1945-287c258 0 467 206 467 467 0 215-148 396-342 450 7 24 10 49 10 76 0 164-131 300-300 300-165 0-300-133-300-300 0-90 40-172 105-228-72-87-107-193-107-298 0-258 206-467 467-467 z M867-287c258 0 467 206 467 467 0 105-35 211-107 298 65 56 105 138 105 228 0 165-133 300-300 300-164 0-300-131-300-300 0-27 3-52 10-76-204-56-342-241-342-450 0-258 206-467 467-467 z" fill="#E6E6E6"/>
		<path d="M1714 647c128 0 231 103 231 231 0 18-2 35-6 52-6 23-21 51-21 65 0 5 1 10 4 17 15 34 23 64 23 102 0 48-14 91-39 131-25 40-38 81-38 128 0 130-105 237-237 237-13 0-24 5-33 16-53 64-110 99-192 99-82 0-141-35-193-99-11-14-20-15-38-16-129-5-231-107-231-237 0-47-13-88-38-128-27-42-39-83-39-131 0-18 2-35 6-52 6-25 21-51 21-67 0-4-1-9-4-16-15-33-23-65-23-101 0-128 103-231 231-231l616 0 z" fill="#FFB02F"/>
		<path d="M1756 988c64 0 117 53 117 117 0 63-50 117-117 117-64 0-116-52-116-117 0-64 51-117 116-117 z M1056 988c64 0 116 53 116 117 0 66-52 117-116 117-63 0-117-50-117-117 0-64 53-117 117-117 z" fill="#FECA46"/>
		<path d="M2197-287l0 72c0 436-354 790-791 790-435 0-791-352-791-790l0-72 1582 0 z" fill="#8B62BF"/>
		<path d="M1404-284l361 774c-56 30-111 46-174 65-22 6-39 24-39 50l0 141c0 78-63 148-147 148-79 0-148-64-148-148l0-141c0-26-17-44-39-50-62-19-116-35-171-64l357-775 z" fill="#F9C136"/>
		<path d="M1547-287l281 733c7 18 9 42 9 62 0 173-146 247-287 247l0-144c0-80 93-40 93-96 0-24-13-62-21-84l-216-539-216 539c-8 21-21 61-21 84 0 56 93 17 93 96l0 144c-153 0-287-84-287-247 0-20 2-44 9-62l281-733 282 0 z" fill="#A17FD5"/>
		<path d="M1406 660c51 0 97 9 140 28 42 19 78 44 109 76 31 32 55 70 73 113 18 43 28 89 30 138l7 193-1 33c-1 17-5 32-10 46-5 14-13 26-24 36-11 9-26 14-45 14l-227 0c-51 0-93 11-128 34-35 23-68 54-97 93-5 6-10 9-15 9-7 0-12-3-15-9l-8-18c-9-21-20-39-33-55-13-17-30-30-51-40-22-11-38-26-48-45-11-20-16-42-16-67l0-24c0-3 0-7 1-10l0-10-1 0 7-180c2-49 12-95 30-138 18-43 42-81 73-113 31-32 67-57 110-76 42-19 88-28 139-28 z" fill="#FDD641"/>
		<path d="M1406 809c25 0 48 6 71 19 23 13 55 45 55 57 0 9-4 13-13 13l-2 0c-73-25-56-28-111-28-37 0-73 9-108 27l-6 2c-7 0-12-6-12-13 0-2 1-4 2-7 24-43 75-70 124-70 z" fill="#990839"/>
		<path d="M1432 953c22 0 37 19 37 38 0 20-16 70-28 109-13 37-13 50-35 50-12 0-23-8-26-20-8-29-37-113-37-139 0-19 15-38 37-38l52 0 z" fill="#FFB02C"/>
		<path d="M1648 1104c-48 17-97 29-146 44 22 32 53 61 96 61 26 0 96-15 96-50 0-24-30-42-46-55 z M1164 1104c48 17 97 29 146 44-22 32-53 61-96 61-29 0-96-16-96-50 0-24 30-42 46-55 z" fill="#000000"/>
		<path d="M1664 1100l-163 0c-12 0-17 9-17 20 0 4 4 17 7 20 16 37 52 62 94 62 39 0 100-35 100-82 0-10-10-20-21-20 z M1311 1100c12 0 17 9 17 20 0 4-4 17-7 20-16 37-52 62-94 62-39 0-100-35-100-82 0-10 10-20 20-20l164 0 z" fill="#FFFFFF"/>
		<path d="M1633 1099l-127 0c-1 7-2 11-2 18 0 38 33 65 66 65 18 0 33-6 46-19 16-16 19-38 19-55 0-3-1-6-2-9 z M1305 1099c2 6 3 12 3 18 0 38-33 65-66 65-18 0-33-6-46-19-16-16-19-38-19-55 0-3 1-6 2-9l126 0 z" fill="#7D4533"/>
		<path d="M1603 1099l-66 0c-3 5-5 11-5 18 0 19 17 37 38 37 19 0 37-16 37-37 0-7-1-11-4-18 z M1274 1099c4 5 5 11 5 18 0 19-16 37-37 37-21 0-38-18-38-37 0-7 1-11 4-18l66 0 z" fill="#000000"/>
		<path d="M1540 1131c7 0 11 4 11 11 0 7-4 12-11 12-6 0-12-5-12-12 0-7 5-11 12-11 z M1212 1131c7 0 11 4 11 11 0 7-4 12-11 12-6 0-12-5-12-12 0-7 5-11 12-11 z" fill="#FFFFFF"/>
		<path d="M1664 1230c10 0 19 9 19 20 0 32-98 44-117 44-18 0-48 0-48-23 0-12 9-19 20-19 11 0 19 2 30 2 40 0 85-24 96-24 z M1145 1230c8 0 58 24 95 24 11 0 21-2 32-2 11 0 18 9 18 20 0 18-17 22-33 22-35 0-131-10-131-44 0-11 9-20 19-20 z" fill="#D37034"/>
		<path d="M2412-287l0 431-215 0c-229 0-432-180-432-431l647 0 z M1047-287c0 239-192 431-432 431l-215 0 0-431 647 0 z" fill="#F4F4F4"/>
	</g></svg>
