<svg version="1.1" xmlns="http://www.w3.org/2000/svg" viewBox="0 0 2300 2300"><g transform="scale(1,-1) translate(-256, -1869)">
		<path d="M1831 1117c-65 132-119 266-194 393l161-1c28 0 48 24 48 50 0 36-41 54-76 74-114 65-230 92-366 92-30 0-59-12-88-35-151-121-278-453-340-573l855 0 z" fill="#0074BA"/>
		<path d="M1862 1112c-27 55-56 103-99 146l-719 0c-41-44-71-93-98-146l916 0 z" fill="#533566"/>
		<path d="M2179-287c-41 252-125 430-328 579 51 44 79 89 79 154 0 32-8 65-25 93l44 0c175 0 319 144 319 323 0 176-140 323-319 323l-1087 1c-175 0-319-144-319-323 0-175 141-323 319-323l46 0c-17-29-26-61-26-95 0-71 31-108 80-154-204-144-293-349-329-578l1546 0 z" fill="#00A6ED"/>
		<path d="M1406 74l388 354c17 15 25 33 25 56 0 42-33 78-77 78-116 1-220 2-336 2-116 0-221-1-337-2-44 0-76-36-76-78 0-22 8-41 25-56l388-354 z M1904 575c138 0 293 94 293 251 0 162-157 252-293 252l-997 0c-137 0-292-92-292-251 0-160 155-252 292-252l997 0 z" fill="#0074BA"/>
		<path d="M1409 144c15 0 26 7 33 20l90 193c-14-2-28-3-42-3l-151 0c-21 0-40 2-59 6l97-197c7-12 19-19 32-19 z" fill="#8B5C56"/>
		<path d="M1585 429l135 47c63 22 104 79 104 147l0 179-239 8 0-381 z M1228 429l0 387-154 0-85-1-1-192c0-67 42-124 105-147l135-47 z" fill="#D3D3D3"/>
		<path d="M1765 687c57 0 108 45 108 107 0 57-46 108-108 108-59 0-107-48-107-108 0-59 49-107 107-107 z M1047 687c59 0 107 49 107 107 0 60-49 108-107 108-61 0-108-48-108-108 0-59 48-107 108-107 z" fill="#8B5C56"/>
		<path d="M1476 324c115 0 225 68 268 178 8 19 16 42 17 64l21 324 1 7c0 94-70 145-140 145l-474 0c-78 0-141-60-141-136 10-117 14-214 23-340 1-11 3-22 6-33 42-142 165-209 280-209l139 0 z" fill="#966661"/>
		<path d="M1406 492c23 0 47 6 70 17 23 12 56 42 56 54 0 8-4 12-13 12l-2 0c-68-23-67-26-111-26-39 0-72 9-108 25l-5 1c-9 0-13-4-13-12l2-6c26-43 79-65 124-65 z" fill="#990839"/>
		<path d="M1658 781l-162 0c-7 0-17 5-17 13 0 48 56 88 100 88 39 0 100-35 100-81 0-10-10-20-21-20 z M1314 781c8 0 17 6 17 15 0 48-57 86-100 86-39 0-100-35-100-81 0-10 10-20 21-20l162 0 z" fill="#FFFFFF"/>
		<path d="M1627 781l-125 0c-2 5-3 10-3 17 0 35 28 65 65 65 37 0 65-30 65-65 0-7-1-10-2-17 z M1308 781c1 3 2 6 2 9l0 8c0 35-26 65-64 65-37 0-65-30-65-65 0-7 1-10 2-17l125 0 z" fill="#7D4533"/>
		<path d="M1597 781l-65 0c-3 4-5 10-5 17 0 21 15 37 37 37 21 0 37-15 37-37 0-7-1-12-4-17 z M1278 781c3 4 5 10 5 17 0 21-15 37-37 37-22 0-38-16-38-37 0-6 2-12 5-17l65 0 z" fill="#000000"/>
		<path d="M1544 812c7 0 11 5 11 12 0 7-4 11-11 11-7 0-12-4-12-11 0-6 6-12 12-12 z M1223 812c7 0 12 6 12 12 0 7-5 11-12 11-7 0-11-4-11-11 0-7 4-12 11-12 z" fill="#FFFFFF"/>
		<path d="M1438 632c21 0 39 17 39 39 0 19-30 106-39 133-4 12-16 19-28 19-12 0-24-7-28-19-8-30-39-109-39-134 0-21 17-38 39-38l56 0 z" fill="#75443E"/>
		<path d="M1654 907c6 0 11 2 16 7 4 4 6 9 6 15 0 9-4 15-12 18-5 5-13 10-22 14-9 4-19 8-29 11-11 3-21 5-31 6-10 1-19 2-26 2l-14 0c-5 0-10-1-14-2-5-2-8-5-11-8-3-3-5-8-5-14 0-6 2-10 5-13 3-3 6-5 11-6l6-1 7 1 13 0c12 0 23-1 34-4 11-3 21-7 30-11l23-10c6-3 10-5 13-5 z M1156 907c4 0 11 3 20 8 32 19 45 20 61 21l41 0c10 0 20 10 20 20 0 18-15 24-29 24-31 0-134-12-134-52 0-12 9-21 21-21 z" fill="#9B9B9B"/>
		<path d="M1757 986c-25 35-53 56-97 56l-182 0c29-33 73-56 122-56l157 0 z" fill="#D3D3D3"/>
		<path d="M2268 0l0 150c0 40-34 66-71 66-37 0-72-26-72-66l0-150 143 0 z" fill="#8B5C56"/>
		<path d="M2128-80c21 0 38 7 51 22 12 15 18 32 18 52l0 1144c0 5 6 12 18 20 12 7 25 18 40 32 15 13 28 31 40 52 12 21 18 48 18 81 0 33-9 65-26 96-18 31-42 54-72 69-3 2-7 3-11 3-11 0-17-5-20-14-2-7-3-16-3-26l0-11c0-15 1-30 2-47l1-18c0-10-1-19-3-29-3-15-8-27-16-36-8-10-21-15-40-15-18 0-31 5-39 15-8 9-13 21-15 36-2 10-3 19-3 29l3 65c0 15-1 27-4 37-3 9-10 14-20 14-4 0-7-1-10-3-30-16-54-39-71-68-18-29-27-61-27-95 0-40 9-73 27-98 18-26 43-49 75-70l9-7c2-3 3-7 3-12l0-1144c0-21 7-38 22-52 15-15 32-22 53-22 z" fill="#F3AD61"/>
		<path d="M2125 1224c109 0 197 88 197 198 0 109-87 198-197 198-109 0-198-88-198-198 0-109 88-198 198-198 z" fill="#00D1ED"/>
		<path d="M2210 1429c33 0 53 27 53 57 0 41-36 83-79 83-33 0-54-26-54-56 0-40 37-84 80-84 z" fill="#B4F6FC"/>
		<path d="M1203 676c36 0 75 14 101 41l1 0c4 4 6 9 6 14 0 12-10 22-22 22-10 0-26-18-54-29-18-8-53-2-53-27 0-10 10-21 21-21 z M1617 676c11 0 21 11 21 21 0 12-9 21-21 21-48 0-71 35-87 35-11 0-21-11-21-21 0-4 3-12 6-15 34-26 61-41 102-41 z" fill="#764C49"/>
		<path d="M2212-287c36 0 56 33 56 65l0 265c0 32-20 65-56 65l-217 0c-33 0-50-32-50-61 0-17 9-33 22-44-15-11-22-28-22-47 0-17 7-35 22-46-15-13-22-28-22-47 0-19 7-36 22-47-15-11-22-25-22-44 0-29 17-59 50-59l217 0 z" fill="#966661"/>
	</g></svg>
