<svg version="1.1" xmlns="http://www.w3.org/2000/svg" viewBox="0 0 2300 2300"><g transform="scale(1,-1) translate(-256, -1869)">
		<path d="M1909-287l144 431-144 395-1006 0-144-395 144-431 1006 0 z" fill="#212121"/>
		<path d="M1729-287l-71 0 0 378c0 21 16 36 35 36 19 0 36-15 36-36l0-378 z M1442-287l-72 0 0 378c0 19 15 36 36 36 19 0 36-15 36-36l0-378 z M1154-287l-71 0 0 378c0 21 16 36 35 36 19 0 36-15 36-36l0-378 z M2197-287l0 251c0 235-106 461-288 611l0-1c-139 114-313 181-503 181-184 0-361-63-503-181l0 1c-180-151-288-372-288-611l0-251 288 0 0 819c101-184 297-296 503-296 210 0 401 112 503 297l0-820 288 0 z" fill="#000000"/>
		<path d="M1405 404c19 0 55 38 67 50 49 45 82 110 82 182l0 222c0 83-65 148-148 148-82 0-149-67-149-147l0-222c0-73 31-138 82-183 14-14 47-50 66-50 z" fill="#9B9B9B"/>
		<path d="M1465 450c4 0 7 1 9 3 51 40 81 120 81 183l0 140-297 0 0-140c0-66 31-142 82-183 2-2 5-3 8-3 19 0 40 70 59 70 19 0 39-70 58-70 z" fill="#E6E6E6"/>
		<path d="M2268 0l0 150c0 40-35 66-72 66-38 0-71-25-71-66l0-150 143 0 z" fill="#FECA46"/>
		<path d="M2135-98l0 386c11 0 21 3 29 9 8 6 12 15 12 27 0 9-3 16-8 23-5 7-12 11-20 13l32 0c9 0 16 2 23 5 6 3 11 8 14 15 3 7 4 17 4 31 3-15 10-27 21-36 11-10 24-15 39-15 17 0 31 6 43 18 11 12 17 26 17 43l0 167c0 17-6 31-17 43-12 12-26 18-43 18-15 0-29-5-40-14-11-10-18-23-20-38l0 6c0 10-2 19-6 28-5 11-15 16-30 16l-207 0c-10 0-17-2-22-7-5-5-9-11-11-18-2-7-3-15-3-24l0-23c0 19-4 37-13 52-9 15-25 22-47 22-17 0-31-6-43-18-12-12-18-26-18-43l0-167c0-17 6-31 18-43 12-12 26-18 43-18 21 0 37 7 46 22 9 14 14 30 14 49 0-17 1-31 2-40 1-10 4-17 9-22 5-5 12-7 22-8 9-1 23-1 40-1-9-2-16-6-21-13-5-7-8-14-8-23 0-12 4-21 12-27 8-6 18-9 29-9l0-386 108 0 z" fill="#7D4533"/>
		<path d="M2211-287c36 0 57 33 57 65l0 264c0 33-21 66-57 66l-216 0 0-1c-33 0-50-31-50-60 0-16 8-33 22-44-15-11-22-29-22-46 0-19 7-36 22-47-15-11-22-28-22-47 0-17 7-35 22-46-15-12-22-30-22-49 0-26 21-55 50-55l216 0 z" fill="#FDD641"/>
		<path d="M1406 539c86 0 144 80 144 155l0 193c0 82-62 155-144 155-88 0-144-76-144-154l0-193c0-78 56-156 144-156 z" fill="#F9C136"/>
		<path d="M1585 748l136 46c31 11 57 30 76 57 19 27 29 58 29 91l0 300c0 14 3 27 8 38 5 11 11 23 18 35 7 11 13 24 18 38 5 14 8 31 8 51 0 38-10 71-31 100-21 28-50 48-85 61-43 15-76 41-99 78-16 25-37 45-62 60-25 15-53 22-84 22-11 0-21-1-30-3l-27-8c-9-3-18-6-27-8-9-3-18-4-27-4-9 0-18 1-27 4-9 2-18 5-27 8l-28 8c-9 2-19 3-29 3-31 0-58-7-83-21-25-14-45-34-62-59-25-37-58-64-101-80-35-13-62-33-83-62-21-29-32-62-32-99 0-19 3-36 8-49 5-13 11-26 17-37l17-35c5-12 8-25 8-40l0-300c0-34 10-64 29-91 19-27 45-46 77-57l136-47 0 534c13 13 24 29 33 47 9 17 14 36 15 55 3-1 7-1 11-1 3-1 7-1 10-1 20 0 40 4 59 11 19 7 36 17 51 30 17-15 38-26 61-33 15-5 31-8 47-8 8 0 15 1 23 2 3-21 8-40 16-55 8-16 19-32 33-47l0-534 z" fill="#FFB02F"/>
		<path d="M1757 988c68 0 120 57 120 120 0 68-57 120-120 120-68 0-120-57-120-120 0-68 57-120 120-120 z M1054 988c68 0 120 57 120 120 0 68-57 120-120 120-68 0-120-57-120-120 0-68 57-120 120-120 z" fill="#FECA46"/>
		<path d="M1479 647c29 0 58 4 85 13 27 9 53 21 76 37 23 15 43 34 61 56 18 22 32 47 43 74l12 33c3 11 5 23 6 34l12 178 10 178c1 6 1 12 1 19l0 18c0 14-2 28-7 41-5 13-12 25-21 35-9 10-20 18-33 25-13 6-26 9-41 9-32 1-60 1-85 1l-10 0c-21 0-40 3-58 7-21 5-40 14-58 29-18 14-36 36-54 67-5 9-11 17-18 22-7 5-16 8-27 8l-94 0c-31 0-62-6-91-18-29-13-55-30-78-51-23-21-41-46-54-74-14-29-21-59-21-92 0-26 1-48 3-67l6-67 17-268c1-11 4-23 7-34 3-12 6-23 11-33 11-27 25-52 43-74 18-22 39-41 62-56 23-16 48-28 75-37 27-9 55-13 84-13l136 0 z" fill="#FDD641"/>
		<path d="M1658 1256c10 0 20 10 20 20 0 35-96 51-119 51-9 0-18-1-28-2-10-2-15-9-15-20 0-10 9-19 20-19 21 0 40-1 57-3 16-2 33-9 52-22l2 1-1-2c5-3 9-4 12-4 z M1155 1256c2 0 5 1 8 3 27 13 50 25 72 26l41 1c11 0 20 9 20 19 0 11-5 18-15 20-10 1-19 2-27 2-23 0-119-18-119-51 0-10 10-20 20-20 z" fill="#D37034"/>
		<path d="M1662 1105l-164 0c-7 0-17 6-17 14 0 47 52 89 101 89 39 0 100-36 100-83 0-10-10-20-20-20 z M1315 1105c7 0 16 6 16 14 0 48-51 89-100 89-39 0-101-35-101-82 0-10 10-21 21-21l164 0 z" fill="#FFFFFF"/>
		<path d="M1630 1105l-126 0c-1 3-2 6-2 9l0 8c0 35 28 66 65 66 18 0 33-6 46-19 16-17 19-40 19-55 0-3-1-6-2-9 z M1309 1105c1 7 2 10 2 17 0 35-27 66-65 66-36 0-66-29-66-66 0-7 1-10 2-17l127 0 z" fill="#7D4533"/>
		<path d="M1600 1105l-66 0c-3 5-4 10-4 17 0 22 16 38 37 38 21 0 37-16 37-38 0-7-1-12-4-17 z M1279 1105c3 5 4 10 4 17 0 22-16 38-37 38-21 0-38-16-38-38 0-6 2-12 5-17l66 0 z" fill="#000000"/>
		<path d="M1547 1137c7 0 11 4 11 11 0 7-4 12-11 12-6 0-12-5-12-12 0-7 5-11 12-11 z M1223 1137c7 0 12 4 12 11 0 7-5 12-12 12-7 0-11-5-11-12 0-7 4-11 11-11 z" fill="#FFFFFF"/>
		<path d="M1439 954c22 0 39 17 39 39 0 12-7 37-17 66-19 58-22 89-50 89-13 0-22-7-27-20-8-27-40-111-40-135 0-22 17-39 39-39l56 0 z" fill="#FFB02C"/>
		<path d="M1407 829c24 0 47 6 69 18 22 12 54 42 54 54 0 7-5 12-12 12l-2 0c-62-21-64-27-109-27-39 0-72 9-107 26l-5 1c-6 0-12-5-12-12l2-6c15-39 83-66 122-66 z" fill="#990839"/>
	</g></svg>
