<svg version="1.1" xmlns="http://www.w3.org/2000/svg" viewBox="0 0 2300 2300"><g transform="scale(1,-1) translate(-256, -1869)">
		<path d="M1049-287c83 0 126 143 199 143l643 0c127 0 234 103 234 234 0 127-103 234-234 234l-485 0 0-216-300 0c-23 0-48-11-55-36-12-43-76-253-76-287 0-41 35-72 74-72 z" fill="#F59B31"/>
		<path d="M1762-287c39 0 75 30 75 72 0 31-65 246-76 287-7 25-32 36-55 36l-300 0 0 216-485 0c-127 0-234-103-234-234 0-124 96-225 216-233l0-1 661 0c75 0 118-143 198-143 z" fill="#FECA46"/>
		<path d="M2134 36c15 0 26 5 31 20 9-3 19-4 32-4 8 0 17 2 27 5 14 4 15 13 15 29 14 3 25 12 25 27 0 12-4 21-13 26 11 5 17 14 17 27 0 19-15 28-32 28-22 0-38 1-58 12-3 9-8 16-13 24 20 3 38 9 38 33 0 19-13 32-31 32-23 0-48-7-71-10-58 52-144 114-204 185-33 37-46 78-52 99-8 22-8 34-8 78 0 234-190 431-431 431-234 0-431-190-431-431l0-35c-2-25-4-34-18-73-32-94-168-185-246-254-23 3-48 10-71 10-18 0-31-13-31-32 0-24 18-30 38-33-5-8-10-15-13-24-16-9-32-13-48-13-19 0-42 0-42-27 0-13 6-22 17-27-9-5-14-15-14-28 0-14 14-24 26-25 0-29 16-34 42-34 13 0 23 1 32 4 5-15 16-20 31-20 28 0 60 17 81 33l195 150c74 59 200 149 200 250l72 0 0 106 360 0 0-106 72 0c0-78 85-162 141-204 88-66 163-126 253-196 21-16 55-33 82-33 z" fill="#FDD641"/>
		<path d="M1693 324l0 645c-23 19-45 37-72 52l-431 0c-25-15-51-31-72-52l0-645 575 0 z" fill="#FF6723"/>
		<path d="M1416 791c110 0 206 87 206 197l0 33c-67 37-140 57-216 57-76 0-149-20-216-56l0-35c0-111 94-196 205-196l21 0 z" fill="#F9C136"/>
		<path d="M1209 1149c-23 44-16 97-19 145-15 1-28 5-41 14l0-69c0-38 23-75 60-90 z M1606 1151c36 17 56 52 56 89l0 69c-12-9-25-13-38-13-3-53 3-97-18-145 z" fill="#FFB02F"/>
		<path d="M1622 1273c40 0 71 34 71 72 0 38-31 72-71 72-39 0-72-31-72-72 0-39 31-72 72-72 z M1190 1273c39 0 72 31 72 72 0 39-31 72-72 72-38 0-72-33-72-72 0-38 33-72 72-72 z" fill="#FECA46"/>
		<path d="M1451 1042c79 0 180 58 188 151 7 87 10 167 17 254 1 8 2 16 2 25 0 109-97 181-198 181l-108 0c-114 0-197-81-197-194l1-12c7-87 10-167 17-254 8-94 110-151 188-151l90 0 z" fill="#FDD641"/>
		<path d="M1421 1241c14 0 21 14 21 25 0 13-3 28-8 45-11 30-13 56-28 56-7 0-12-4-15-13-7-26-21-62-21-88 0-11 7-25 21-25l30 0 z" fill="#FFB02C"/>
		<path d="M1406 1150c21 0 72 22 72 47 0 5-2 7-6 7-5 0-40-17-66-17-27 0-61 17-66 17-4 0-6-2-6-7 0-24 51-47 72-47 z" fill="#990839"/>
		<path d="M1149 1402c10 8 20 12 31 13l0 37c0 21 4 40 12 59 7 18 18 34 32 48 13 14 29 25 47 33 18 8 37 12 58 12l57 0c13 0 23-6 28-18 9-18 19-32 30-41 11-9 24-16 37-19 13-3 28-5 44-5l50 0c17 0 32-7 44-20 12-13 18-28 18-45 0-7 0-13-1-20l-2-21 2 0c3 0 7-2 13-4 7-3 11-6 14-8 0 18 2 32 5 42 3 10 6 19 10 26l11 22c3 7 4 18 4 32 0 26-5 45-15 58-10 13-22 23-35 32l-43 24c-15 7-28 19-38 35-10 16-22 29-37 38-15 9-32 13-51 13-13 0-24-2-34-7-11-5-22-7-34-7-11 0-22 2-33 7-11 5-22 7-35 7-18 0-35-4-50-13-16-9-29-21-38-36-11-16-23-28-38-37l-43-25c-14-9-26-19-35-32-10-13-15-31-15-56 0-11 2-21 5-30 3-9 6-17 10-24l11-22c3-7 4-16 4-25l0-23 z" fill="#FFB02F"/>
		<path d="M1246 1430c3 0 5 1 8 2l0 1 19 8c5 2 9 4 14 5l15 2 20 0c3 0 6 1 9 3 3 2 4 5 4 8 0 8-3 13-9 14-6 1-12 1-17 1-15 0-27-2-36-7-9-5-20-9-33-13-1 0-1 0-1-1l0-1-1 0c-3-2-4-5-4-10 0-8 4-12 12-12 z M1562 1435c3 0 6 1 9 4 2 2 3 5 3 8l-2 7c-1 2-2 4-3 4l-1 0c-11 6-21 11-31 15-10 3-21 5-34 5-5 0-11 0-16-1-6-1-9-6-9-13 0-7 3-11 9-11l17 0c18 0 35-5 50-15l-1-1 1 0 0-1 1 1c1-1 4-2 7-2 z" fill="#D37034"/>
		<path d="M1505 1333c16 0 55 15 55 33 0 7-3 11-10 11-8 0-20-22-45-22-29 0-35 22-46 22-1 0-3-2-6-2-3-3-4-6-4-9 0-3 2-4 2-7 13-17 31-26 54-26 z M1307 1333c16 0 56 13 56 32 0 7-3 12-10 12-10 0-19-22-46-22-26 0-37 22-45 22-5 0-10-5-10-11 0-19 40-33 55-33 z" fill="#D37034"/>
		<path d="M2137 32c-3 0-8 0-14 1-7 0-10 2-10 7 2 2 4 3 6 3 3 0 6 0 9-1 3-1 6-1 9-1 6 0 12 2 17 7 5 4 8 9 8 16 0 7-3 13-8 17-5 3-12 6-20 9l-25 8c-9 3-16 7-23 12l-89 69-1 6 2 1 5 0c14-11 29-23 44-36 15-13 30-24 45-33 8-5 16-10 23-13 7-3 16-6 26-7 9-1 16-5 22-10 7-7 8-15 8-28 4-1 8-2 12-2l11 0c4 0 9 0 14 1 5 0 9 1 13 2 4 1 7 4 10 7 3 3 4 8 4 13 0 7-2 13-6 18-5 5-10 7-17 7-17 0-30 1-41 3-11 1-23 7-37 18l-89 68-2 4c0 3 2 5 5 5 5 0 12-5 22-14l35-30c13-11 28-22 44-31 15-9 32-14 49-14 9 0 18-1 27-2 8-2 14-9 17-20 5 1 10 4 13 8 3 3 5 8 5 13 0 7-2 13-6 18-4 5-10 7-17 7-18 0-33 2-44 5-12 3-23 7-32 13-10 6-20 14-31 23l-40 33-1 4 0 3 3 1c1 0 5-2 12-7 7-5 14-11 23-17l23-19c10-8 12-11 15-11 17-13 37-20 58-20 5 0 10 1 14 2l2 0c4 0 8-2 12-4 9 5 13 13 13 22 0 7-2 12-7 16-5 4-11 6-16 6-16 0-30 1-41 3-11 2-24 8-37 18l-1 6 4 2 2-1c11-6 20-11 28-14 7-3 18-5 31-5 5 0 11 0 17-1 5-1 10-2 15-4 4-2 7-5 10-9 3-5 4-11 4-18 0-11-5-20-14-27 7-6 10-14 10-23 0-7-2-14-7-20-5-7-11-11-18-12l0-6c0-5-1-9-3-12-3-5-7-8-12-11-5-3-11-4-17-5-7-1-13-1-19-1l-12 0c-5 0-9 1-14 2-3-5-7-10-12-13-6-3-12-5-18-5 z M2170 54l1 5-1 0-1-5 1 0 z M676 32c3 0 8 0 15 1 6 0 9 2 9 7-2 2-4 3-6 3-3 0-6 0-9-1-3-1-6-1-9-1-6 0-12 2-17 7-5 4-8 9-8 16 0 7 3 13 8 17 5 3 12 6 20 9l25 8c9 3 16 7 23 12l89 69 1 6-2 1-5 0c-14-11-28-23-43-36-15-13-31-24-46-33-8-5-16-10-23-13-7-3-16-6-26-7-9-1-16-5-21-10-8-7-9-15-9-26l0-2 1 0 1-5-1 0-1 5c-4-1-8-2-11-2l-12 0c-4 0-8 0-13 1-5 0-10 1-14 2-4 1-7 4-10 7-3 3-4 8-4 13 0 7 2 13 7 18 4 5 9 7 16 7 17 0 30 1 41 3 11 1 23 7 37 18l89 68 1 2c0 1 0 1 1 1l0 1c0 3-2 5-5 5-5 0-13-5-22-14l-35-30c-13-11-28-22-44-31-16-9-32-14-49-14-9 0-18-1-26-2-9-2-15-9-18-20-5 1-10 4-13 8-3 3-5 8-5 13 0 7 2 13 6 18 4 5 10 7 17 7 18 0 33 2 45 5 11 3 22 7 32 13 9 6 19 14 30 23l40 33 1 2 0 5-4 1c-1 0-4-2-11-7l-23-17-23-19c-10-8-12-11-15-11-17-13-37-20-58-20-5 0-10 1-14 2l-2 0c-4 0-8-2-12-4-9 5-13 13-13 22 0 7 3 12 8 16 5 4 10 6 15 6 16 0 30 1 41 3 11 2 24 8 37 18l1 2 0 4-4 2-2-1c-11-6-20-11-27-14-8-3-19-5-32-5-11 0-22-2-31-5-10-3-15-12-15-27 0-11 5-20 14-27-7-6-10-14-10-23 0-7 2-14 7-20 5-7 11-11 18-12l0-4c0-6 2-11 4-14 3-5 7-8 12-11 5-3 10-4 17-5 6-1 12-1 18-1l13 0c4 0 8 1 13 2 3-5 7-10 13-13 5-3 11-5 17-5 z" fill="#F59B31"/>
		<path d="M1572 108l121 216-575 0 118-216 336 0 z" fill="#9B9B9B"/>
	</g></svg>
