<svg version="1.1" xmlns="http://www.w3.org/2000/svg" viewBox="0 0 2300 2300"><g transform="scale(1,-1) translate(-256, -1869)">
		<path d="M1831 1117c-65 132-119 266-194 393l161-1c28 0 48 24 48 50 0 36-41 54-76 74-114 65-230 92-366 92-30 0-59-12-88-35-151-121-278-453-340-573l855 0 z" fill="#0074BA"/>
		<path d="M1862 1112c-27 55-56 103-99 146l-719 0c-41-44-71-93-98-146l916 0 z" fill="#533566"/>
		<path d="M2179-287c-41 252-125 430-328 579 51 44 79 89 79 154 0 32-8 65-25 93l44 0c175 0 319 144 319 323 0 176-140 323-319 323l-1087 1c-175 0-319-144-319-323 0-175 141-323 319-323l46 0c-17-29-26-61-26-95 0-71 31-108 80-154-204-144-293-349-329-578l1546 0 z" fill="#00A6ED"/>
		<path d="M1406 74l388 354c17 15 25 33 25 56 0 42-33 78-77 78-116 1-220 2-336 2-116 0-221-1-337-2-44 0-76-36-76-78 0-22 8-41 25-56l388-354 z M1904 575c138 0 293 94 293 251 0 162-157 252-293 252l-997 0c-137 0-292-92-292-251 0-160 155-252 292-252l997 0 z" fill="#0074BA"/>
		<path d="M1409 144c15 0 26 7 33 20l90 193c-14-2-28-3-42-3l-151 0c-21 0-40 2-59 6l97-197c7-12 19-19 32-19 z" fill="#F4C6AD"/>
		<path d="M1745 561c36 43 64 90 84 143 20 53 30 107 30 163 0 37-4 73-12 109-9 35-22 69-39 102l-782 0c-17-33-30-67-38-102-9-36-13-73-13-110 0-55 9-108 28-159 19-51 46-98 81-140-5 23-8 46-9 71l-10 248c0 21 7 40 22 54 15 15 34 27 57 38 23 10 46 18 71 25 24 7 44 13 61 19 5 1 9 4 14 7l13 8c10-9 20-20 31-31 11-12 22-23 35-33 12-11 25-19 38-26 13-7 27-11 42-11l236 0c3 0 6 2 10 5l29 20c5 3 11 4 16 4 7 0 13-3 17-10 4-7 7-14 9-23 1-9 2-19 2-28l0-21-13-251-3-36c-2-12-4-24-7-35 z" fill="#D3D3D3"/>
		<path d="M1765 611c57 0 108 46 108 108 0 58-49 108-108 108-59 0-107-49-107-108 0-57 45-108 107-108 z M1047 611c58 0 107 47 107 108 0 58-47 108-107 108-58 0-108-49-108-108 0-63 50-108 108-108 z" fill="#F4C6AD"/>
		<path d="M1406 288c51 0 98 9 142 26 43 17 81 42 114 73 33 31 59 67 79 110 19 43 30 89 32 140 1 41 3 82 6 123 3 41 4 81 4 122 0 15-1 29-2 43-1 14-4 27-9 38-5 11-13 21-23 28-10 7-23 12-40 13-43 3-87 5-131 5l-48 0c-47 0-93 3-137 7-23 3-45 9-66 20-21 11-40 25-56 42l-104 0c-14-18-29-32-45-43-16-11-31-23-45-34-14-12-25-26-34-43-9-17-14-39-14-68 0-42 1-84 4-126l6-127c2-51 13-97 33-140 19-43 45-79 78-110 33-31 71-56 115-73 43-17 90-26 141-26 z" fill="#FFD7C2"/>
		<path d="M1649 714c-48 17-98 32-149 44 22 33 54 62 97 62 28 0 97-14 97-52 0-22-32-41-45-54 z M1158 714c49 17 98 32 149 44-22 32-54 62-97 62-28 0-97-14-97-52 0-21 30-39 45-54 z" fill="#000000"/>
		<path d="M1665 709l-166 0c-12 0-17 9-17 20 0 4 4 17 7 21 16 37 53 62 95 62 42 0 102-38 102-83 0-10-10-20-21-20 z M1307 709c12 0 18 9 18 20 0 4-4 17-7 21-16 37-53 62-95 62-42 0-102-38-102-83 0-10 10-20 21-20l165 0 z" fill="#FFFFFF"/>
		<path d="M1633 709l-127 0c-1 3-2 6-2 9l0 8c0 37 25 66 65 66 19 0 34-6 47-19 16-16 19-38 19-56 0-3-1-5-2-8 z M1301 709c1 7 2 10 2 17 0 37-27 66-65 66-19 0-34-6-47-19-16-16-19-38-19-56 0-3 1-5 2-8l127 0 z" fill="#7D4533"/>
		<path d="M1603 709l-68 0c-3 7-4 12-4 17 0 21 16 38 38 38 21 0 38-16 38-38 0-7-1-12-4-17 z M1271 709c3 5 5 11 5 17 0 21-16 38-38 38-21 0-38-16-38-38 0-7 1-12 4-17l67 0 z" fill="#000000"/>
		<path d="M1547 741c7 0 11 5 11 12 0 7-4 11-11 11-7 0-12-4-12-11 0-8 4-12 12-12 z M1215 741c8 0 12 4 12 12 0 7-5 11-12 11-7 0-11-4-11-11 0-7 4-12 11-12 z" fill="#FFFFFF"/>
		<path d="M1406 425c50 0 98 27 124 70 1 3 2 5 2 7 0 9-4 13-12 13l-6-2c-44-16-62-27-108-27-38 0-74 9-108 27l-5 2c-7 0-13-7-13-14l2-6c16-40 80-70 124-70 z" fill="#990839"/>
		<path d="M1432 557c22 0 37 20 37 39 0 21-15 68-28 108-10 33-12 51-35 51-12 0-23-9-26-21-8-29-37-113-37-138 0-19 15-39 37-39l52 0 z" fill="#F1B99B"/>
		<path d="M1664 841c12 0 22 10 22 22 0 33-95 46-120 46-16 0-50 0-50-23 0-12 10-22 22-22 11 0 19 2 30 2 41 0 89-25 96-25 z M1141 841c10 0 55 25 95 25 11 0 20-2 31-2 10 0 21 9 21 21 0 18-18 24-34 24-33 0-135-10-135-46 0-12 10-22 22-22 z" fill="#9B9B9B"/>
		<path d="M1599 602c12 0 21 9 21 21 0 10-10 20-21 20-47 0-65 33-82 33-10 0-21-9-21-21 0-33 77-53 103-53 z M1205 602c26 0 104 18 104 53 0 12-11 21-21 21-5 0-10-2-15-7l-1 0c-30-30-88-19-88-46 0-10 10-21 21-21 z" fill="#F1B99B"/>
		<path d="M2268 0l0 150c0 40-34 66-71 66-37 0-72-26-72-66l0-150 143 0 z" fill="#F4C6AD"/>
		<path d="M2128-80c21 0 38 7 51 22 12 15 18 32 18 52l0 1144c0 5 6 12 18 20 12 7 25 18 40 32 15 13 28 31 40 52 12 21 18 48 18 81 0 33-9 65-26 96-18 31-42 54-72 69-3 2-7 3-11 3-11 0-17-5-20-14-2-7-3-16-3-26l0-11c0-15 1-30 2-47l1-18c0-10-1-19-3-29-3-15-8-27-16-36-8-10-21-15-40-15-18 0-31 5-39 15-8 9-13 21-15 36-2 10-3 19-3 29l3 65c0 15-1 27-4 37-3 9-10 14-20 14-4 0-7-1-10-3-30-16-54-39-71-68-18-29-27-61-27-95 0-40 9-73 27-98 18-26 43-49 75-70l9-7c2-3 3-7 3-12l0-1144c0-21 7-38 22-52 15-15 32-22 53-22 z" fill="#F3AD61"/>
		<path d="M2125 1224c109 0 197 88 197 198 0 109-87 198-197 198-109 0-198-88-198-198 0-109 88-198 198-198 z" fill="#00D1ED"/>
		<path d="M2210 1429c33 0 53 27 53 57 0 41-36 83-79 83-33 0-54-26-54-56 0-40 37-84 80-84 z" fill="#B4F6FC"/>
		<path d="M2212-287c36 0 56 33 56 65l0 265c0 32-20 65-56 65l-217 0c-33 0-50-32-50-61 0-17 9-33 22-44-15-11-22-28-22-47 0-17 7-35 22-46-15-13-22-28-22-47 0-19 7-36 22-47-15-11-22-25-22-44 0-29 17-59 50-59l217 0 z" fill="#FFD7C2"/>
	</g></svg>
