<svg version="1.1" xmlns="http://www.w3.org/2000/svg" viewBox="0 0 2300 2300"><g transform="scale(1,-1) translate(-256, -1869)">
		<path d="M2057-288c8 0 15 3 22 9 6 6 9 13 9 21l0 1379 32 0c6 0 12 1 18 2 7 1 14 5 19 10 5 5 8 14 8 25 0 7-2 14-5 21-4 7-10 12-17 15l22 0c27 0 52 5 76 15 23 10 44 24 61 42 17 17 31 38 42 61 10 23 15 48 15 75 0 33-6 59-17 78-11 19-24 37-38 52-14 15-27 31-39 47-13 15-20 36-21 61 3 0 7 0 13-1l9-1 9 1c6 0 11 1 16 3 4 1 6 4 6 8 0 2-5 8-15 17l-35 30-37 27c-11 8-18 12-20 12-3 0-6-1-8-3-3-3-4-6-4-9l0-84c0-33 6-60 18-79 12-19 25-37 40-52 15-15 28-31 40-47 12-17 18-39 18-66 0-17-3-33-10-48-7-15-17-28-29-39-12-11-26-20-41-26-16-7-32-10-49-10-21 0-39 7-54 22-15 15-23 33-23 54l0 292 10 0 6-1 6 1c4 0 8 1 11 3 3 2 4 5 4 9 0 2-3 8-9 17l-22 30c-8 10-16 19-24 27-8 8-14 12-17 12-3 0-9-4-16-12-8-8-16-17-24-27l-21-30c-6-9-9-15-9-17 0-4 2-7 5-9 3-2 7-3 12-3l6-1 7 1 11 0 0-290c0-21-7-39-22-54-15-15-34-23-55-23-17 0-34 3-49 10-16 7-30 16-41 28-12 11-21 25-28 41-7 15-11 32-11 49 0 17 3 32 9 45 5 12 12 23 21 34l28 30c10 9 19 20 28 32 9 12 16 26 22 42 5 15 8 34 8 56l0 84c0 8-4 12-13 12-2 0-9-4-20-12-11-8-23-17-35-27-13-10-24-20-34-29-11-9-16-15-16-17 0-4 2-7 7-8 4-2 9-3 15-3 6 0 12 0 18 1l12 0c-1-17-4-31-10-43-6-12-13-23-22-34l-27-31c-10-10-19-21-27-33-9-13-16-27-21-42-5-15-8-34-8-55 0-27 5-53 16-76 10-23 24-44 41-61 17-17 38-31 62-41 23-10 48-15 75-15l77 0c-8 0-16 0-25 1-9 0-18-1-25-3-7-2-13-6-18-11-5-5-8-14-8-25 0-11 3-20 8-25 5-5 11-9 19-10 5-1 11-2 18-2l31 0 0-1379c0-9 3-17 10-22 6-5 14-8 23-8 z" fill="#FF9F2E"/>
		<path d="M1272-288c270 0 486 209 486 496 0 154-47 314-170 432-24 25-52 49-84 64l-21-28c-11 4-22 7-33 8-63 5-184 20-252 20-9 0-32-10-42-14-75-38-124-127-124-209 0-72 37-119 88-158 99-77 252-123 252-269 0-145-113-204-243-204-70 0-155 6-187 79l-1 6c0 17 52 30 64 35 63 26 102 85 102 151l0 43c0 11-8 21-20 21-8 0-114-45-130-50-36-14-56-39-78-72-4-7-10-11-16-11-6 0-12 4-17 11-22 34-40 58-78 72l-122 48c-1 1-3 1-7 1-14 0-19-12-21-25-1-7-1-13-1-20 1-7 1-13 1-18 0-67 41-126 102-151l61-24c16-6 18-33 22-50 20-98 128-184 244-184l225 0 z" fill="#00D26A"/>
		<path d="M579 632c19 0 32 13 32 31 0 11-7 19-7 30 0 17 10 30 22 39l-52 39c-24-18-34-47-34-74 0-24 7-65 39-65 z" fill="#F4C6AD"/>
		<path d="M1317 500c80 0 240 10 240 125 0 38-16 74-16 118l1 23c1 45-2 91 15 91 21 0 102-141 253-141l278 0-1 158-284 23c-14 1-26 12-35 21l-109 105c-39 36-82 64-131 83-47-4-94-6-140-6-47-1-94-1-141-1-47 0-92 3-139 4-47-19-85-45-120-80l-173-173c-6-6-14-10-23-11l-196-22c-47-5-76-23-101-60-8-12-24-30-24-45 0-18 16-34 35-34 42 0 41 69 89 69 11 0 17-5 17-15 0-18-38-32-38-61 0-22 15-34 34-34 27 0 28 25 54 25l148 0c51 0 97 21 131 55 14 14 123 128 132 128 5 0 9-3 10-9 3-13 4-28 5-45l0-47c0-46-17-83-17-119 0-118 165-125 246-125 z" fill="#FFD7C2"/>
		<path d="M1517 1294c39 0 72 31 72 72 0 39-31 72-72 72-39 0-72-31-72-72 0-39 31-72 72-72 z M1118 1294c39 0 72 31 72 72 0 39-31 72-72 72-40 0-71-34-71-72 0-38 31-72 71-72 z" fill="#F4C6AD"/>
		<path d="M1382 1042c55 0 108 22 148 64-43 16-88 24-135 24l-148 0c-49 0-98-10-141-28 40-40 91-60 144-60l132 0 z" fill="#F4C6AD"/>
		<path d="M1382 1114c72 0 128 55 133 126 7 80 16 170 16 248 0 109-87 201-197 201l-36 0c-109 0-197-90-197-201 0-78 9-168 16-248 5-72 62-126 133-126l132 0 z" fill="#FFD7C2"/>
		<path d="M1458 1367l-91 0c-7 0-10 3-10 10 0 26 32 46 56 46 25 0 56-19 56-46 0-7-6-10-11-10 z M1264 1367c4 0 9 3 9 7 0 28-30 49-56 49-24 0-55-21-55-46 0-7 6-10 11-10l91 0 z" fill="#FFFFFF"/>
		<path d="M1455 1440c-6 0-13 0-13 5-16 7-28 12-46 12-14 0-31 2-31 21 0 22 19 24 35 24 21 0 78-12 78-40 0-14-10-22-23-22 z M1175 1440c6 0 14 3 25 9 10 5 22 8 35 8 8 0 15 1 21 4 6 2 9 8 9 19 0 10-4 16-11 19-8 2-16 3-23 3-17 0-32-3-46-9l-24-12 0-1c-6-4-9-10-9-17 0-6 2-11 7-16 5-5 10-7 16-7 z" fill="#212121"/>
		<path d="M1440 1367l-70 0c-1 4-2 7-2 10 0 19 16 37 37 37 19 0 36-16 36-37l-1-10 z M1261 1367l1 10c0 21-17 37-36 37-19 0-37-16-37-37 0-1 0-3 1-4 0-4-1-4 1-6l70 0 z" fill="#7D4533"/>
		<path d="M1424 1367l-38 0c-1 4-2 7-2 10 0 10 10 21 21 21 10 0 21-10 21-21 0-3-1-6-2-10 z M1245 1367l1 6c1 1 1 3 1 4 0 5-2 10-6 15-5 4-10 6-15 6-5 0-10-2-14-6-5-5-7-10-7-15 0-3 1-6 2-10l38 0 z" fill="#000000"/>
		<path d="M1393 1385c5 0 7 2 7 6 0 5-2 7-7 7-4 0-6-2-6-7 0-4 2-6 6-6 z M1213 1385c4 0 6 2 6 6 0 5-2 7-6 7-5 0-7-2-7-7 0-4 2-6 7-6 z" fill="#FFFFFF"/>
		<path d="M1331 1283c12 0 21 12 21 22l-3 14c-11 38-15 72-33 72-7 0-11-4-14-11-5-16-22-65-22-75 0-12 9-22 21-22l30 0 z" fill="#F1B99B"/>
		<path d="M1520 1393c12 0 21 10 24 22 8 40 24 105 24 142 0 50-33 66-63 82-47 24-61 86-127 86-25 0-43-13-68-13-24 0-36 13-60 13-43 0-64-35-93-64-37-37-92-38-92-105 0-29 9-67 17-106 5-27 6-54 31-57-1 21-3 42-3 63 0 32 35 33 35 70l0 36c0 11 5 18 16 21 40 13 111 18 155 18 49 0 104-3 155-18 12-4 16-13 17-24l-1-32c0-41 36-40 36-71 0-21-2-42-3-63 z" fill="#212121"/>
		<path d="M1316 1212c18 0 72 20 72 41 0 5-2 7-6 7-8 0-42-15-66-15-27 0-58 15-66 15-4 0-6-2-6-7 0-21 53-41 72-41 z" fill="#990839"/>
		<path d="M2108 719c14 0 26 11 26 26 0 11-4 18-13 23 8 4 13 14 13 23 0 11-4 18-13 23 8 4 13 14 13 23 0 11-4 18-13 23 8 4 13 14 13 23 0 15-12 27-26 27l-43 0c-14 0-26-12-26-27 0-9 5-19 13-23-9-5-13-12-13-23 0-9 5-19 13-23-9-5-13-12-13-23 0-9 5-19 13-23-9-5-13-12-13-23 0-14 11-26 26-26l43 0 z" fill="#F4C6AD"/>
		<path d="M2055 812c19 0 33 14 33 32l0 59c0 18-17 34-34 34l-63 0c-30 0-34-35-41-52l60-5c17-2 16-17 17-33 0-17 6-35 28-35 z" fill="#F4C6AD"/>
	</g></svg>
