<svg version="1.1" xmlns="http://www.w3.org/2000/svg" viewBox="0 0 2300 2300"><g transform="scale(1,-1) translate(-256, -1869)">
		<path d="M1925 596c-92 0-168 68-176 161l-1-1-47 331 188 0c43-82 72-116 149-176l2-1c41-33 63-84 63-134 0-98-78-180-178-180 z M950 596c90 0 168 69 176 161l49 330-190 0c-37-76-84-125-148-176l-2-1c-41-36-64-81-64-137 0-99 82-177 179-177 z" fill="#593B39"/>
		<path d="M1445-287l-197 411-428 254c-95-149-133-360-133-523l0-142 758 0 z M2186-286l1 149c0 245-68 490-253 664l0-1c-135 126-309 195-496 195-60 0-118-7-177-22l300-603 625-382 z" fill="#44911B"/>
		<path d="M2187-287l-926 986c-189-47-344-167-441-321l625-665 742 0 z" fill="#7D4533"/>
		<path d="M1438 341c33 0 66 2 99 6 149 18 373 111 373 285 0 36-9 69-26 98-91 148-305 193-446 193-31 0-62-2-93-5-152-19-380-111-380-286 0-37 9-71 28-100 89-140 291-191 445-191 z" fill="#593B39"/>
		<path d="M1438 404c25 0 45 35 62 55 76 94 122 196 163 311l-451 0c42-107 83-207 154-297 16-21 45-69 72-69 z" fill="#BB806E"/>
		<path d="M1438 60c39 39 58 89 58 140 0 52-20 103-58 141-36-36-59-86-59-141 0-54 22-103 59-140 z" fill="#593B39"/>
		<path d="M1077 960c58 0 105 49 105 105 0 29-10 54-31 75-44 44-208 151-270 151-19 0-29-10-29-29 0-47 58-148 108-218 47-67 75-84 117-84 z M1798 960c29 0 54 10 75 31 43 40 150 207 150 270 0 19-10 29-29 29-47 0-148-58-218-107-67-48-83-76-83-118 0-59 47-105 105-105 z" fill="#BB806E"/>
		<path d="M1508 612c132 0 277 106 285 250 10 145 16 275 26 420 1 15 3 26 3 40 0 167-136 303-303 303l-163 0c-171 0-302-133-302-303 0-15 1-26 2-40 10-145 16-275 27-420 15-141 149-250 286-250l139 0 z" fill="#C68D7B"/>
		<path d="M1464 935c23 0 40 17 40 39 0 12-8 40-17 67-19 54-22 89-51 89-12 0-24-8-28-20-8-29-40-110-40-136 0-22 17-39 39-39l57 0 z" fill="#AB6A55"/>
		<path d="M1436 807c47 0 95 22 123 66 1 3 2 5 2 7 0 7-4 12-11 12l-6-2c-40-15-67-26-108-26-37 0-73 9-108 26l-6 2c-7 0-11-4-11-13l2-6c24-39 75-66 123-66 z" fill="#990839"/>
		<path d="M1691 1239c5 0 10 2 14 6 4 4 6 9 6 14 0 9-5 16-15 23-11 6-23 11-36 16-14 4-28 7-41 10-13 2-23 3-30 3l-12 0-14-3c-5-1-8-3-11-6-3-3-5-7-5-12 0-7 1-11 4-14 3-3 6-5 10-6l7-1 7 1 13 0c13 0 25-2 36-5 11-3 21-7 30-10l23-11c6-3 11-5 14-5 z M1182 1239c5 0 9 1 12 4 35 25 70 26 113 26 12 0 19 10 19 21 0 9-5 12-10 17-11 3-22 4-33 4-24 0-122-19-122-51 0-10 10-21 21-21 z" fill="#593B39"/>
		<path d="M1694 1087l-165 0c-7 0-17 6-17 14 0 50 56 89 102 89 42 0 101-36 101-83 0-10-10-20-21-20 z M1343 1087c12 0 18 9 18 20 0 4-4 17-7 21-16 39-54 62-95 62-41 0-102-36-102-84 0-10 10-19 21-19l165 0 z" fill="#FFFFFF"/>
		<path d="M1663 1087l-128 0c-2 5-3 10-3 17 0 38 30 66 67 66 36 0 66-29 66-66 0-7-1-10-2-17 z M1338 1087c1 7 2 10 2 17 0 37-28 66-66 66-19 0-34-6-47-19-16-16-19-38-19-56 0-3 1-5 2-8l128 0 z" fill="#7D4533"/>
		<path d="M1632 1087l-66 0c-4 5-6 10-6 17 0 21 17 38 39 38 19 0 38-17 38-38 0-6-2-12-5-17 z M1307 1087c3 5 5 11 5 17 0 21-16 38-38 38-21 0-38-16-38-38 0-7 1-12 4-17l67 0 z" fill="#000000"/>
		<path d="M1578 1119c7 0 11 4 11 11 0 7-4 12-11 12-6 0-12-5-12-12 0-7 5-11 12-11 z M1251 1119c7 0 12 4 12 11 0 7-5 12-12 12-7 0-11-5-11-12 0-7 4-11 11-11 z" fill="#FFFFFF"/>
		<path d="M1813 1207c17 12 34 23 50 32 5 54 51 73 51 152 0 32-8 62-24 89-53 90-142 69-199 160-34 52-86 85-151 85-39 0-64-16-102-23-38 7-63 23-102 23-66 0-118-33-152-85-25-39-60-65-104-81-71-26-119-89-119-167 0-78 45-99 50-153 16-9 33-20 50-32l1 0c-1 23-4 46-4 69 0 56 49 108 105 108l83 0c79 0 152 22 192 108 41-88 111-108 192-108l82 0c55 0 105-51 105-108 0-23-3-46-4-69 z" fill="#593B39"/>
		<path d="M1911 1424c18 0 35 16 35 35 0 18-16 34-35 34l-941 0c-19 0-35-16-35-34 0-18 16-35 35-35l941 0 z" fill="#9B9B9B"/>
		<path d="M1438 1347c34 34 52 80 52 126 0 46-18 92-52 126-32-32-53-77-53-126 0-49 21-94 53-126 z" fill="#B4F6FC"/>
	</g></svg>
