<svg version="1.1" xmlns="http://www.w3.org/2000/svg" viewBox="0 0 2300 2300"><g transform="scale(1,-1) translate(-256, -1869)">
		<path d="M1879-144c42 0 81 8 118 24 37 16 69 38 97 66 27 27 49 59 65 96 16 37 24 76 24 118l0 409 77 0-66 214 38 0c25 0 47 9 65 27 18 18 27 40 27 65l0 134c0 89-21 167-64 236-43 68-102 124-177 167l-24 14 42 0c15 0 28 2 41 6 13 3 23 10 32 19 8 9 12 22 12 41 0 7-1 14-3 21-10 29-24 56-41 81-18 24-39 45-62 63-24 17-50 31-79 41-29 9-59 14-90 14l-772 0c-21 0-42-4-61-11-19-8-36-19-51-32-15-14-28-30-37-48-10-19-16-39-19-60l-11 1-25-2c-64 0-124-12-181-36-57-25-106-58-148-100-42-42-75-91-99-148-25-57-37-117-37-181l0-207c0-14 2-28 5-41 3-13 9-25 16-35 7-11 17-19 28-25 11-7 24-10 40-10l41 0-66-208 91 0c-2-17-5-34-8-53-3-19-5-36-5-53l0-303c0-42 8-81 24-118 16-37 38-69 66-96 27-28 59-50 96-66 37-16 76-24 118-24l74 0 0 713 815 0 0-713 74 0 z" fill="#2D242D"/>
		<path d="M2074 357c128 0 232 104 232 231 0 81-40 153-106 195l-6 0c-1-48-3-95-6-142-3-39-30-70-72-70l8 244c-16 3-33 5-50 5-128 0-232-104-232-232 0-127 101-231 232-231 z M719 357c128 0 232 104 232 231 0 129-107 232-232 232-16 0-33-2-49-5l8-244c-40 0-70 32-73 70-3 45-2 91-5 136l-15 0c-64-44-97-115-97-189 0-128 103-231 231-231 z" fill="#8B5C56"/>
		<path d="M1396-286c100 0 193 18 278 54 86 35 160 84 223 147 63 62 113 136 150 221 37 85 57 177 60 276l8 224 7 230c0 5-1 9-2 13-2 5-4 11-8 18-12 31-31 55-58 74-27 18-57 27-90 27l-369 0c-41 0-82 5-121 16-40 10-77 25-113 45-35 19-68 43-98 71-30 28-56 60-78 95-7-33-20-64-38-91-18-28-39-52-65-72-25-20-53-36-84-47-31-11-64-17-98-17l-88 0c-28 0-54-8-78-23-24-16-41-37-53-63l-8-19c-3-6-3-13-3-21l8-230 7-230c2-66 12-129 30-189 17-60 42-116 72-168 31-52 67-99 110-140 42-42 89-78 141-108 51-30 107-53 168-69 60-16 124-24 190-24 z" fill="#966661"/>
		<path d="M1397 86c99 0 196 53 246 134 2 4 3 8 3 12 0 13-9 25-23 25-5 0-8-1-11-3-75-36-138-52-215-52-77 0-143 16-215 52-3 2-7 3-11 3-13 0-24-10-24-24 0-3 1-8 4-13 49-82 146-134 246-134 z" fill="#990839"/>
		<path d="M1396 285c44 0 125 38 125 91 0 27-21 52-50 52l-148 0c-29 0-51-24-51-51 0-54 79-92 124-92 z" fill="#75443E"/>
		<path d="M1912 526l-352 0c-18 0-37 15-37 36l1 7c22 108 114 178 217 178 101 0 190-70 214-167l1-11c0-25-21-43-44-43 z M1235 526c18 0 37 15 37 36l-1 7c-22 105-113 178-216 178-101 0-191-69-215-167l-1-11c0-25 21-43 44-43l352 0 z" fill="#FFFFFF"/>
		<path d="M1844 526l-272 0c-4 12-5 25-5 38 0 76 62 141 141 141 76 0 141-62 141-141 0-12-2-25-5-38 z M1224 526c3 13 5 26 5 38 0 77-65 141-142 141-76 0-141-62-141-141 0-12 2-25 5-38l273 0 z" fill="#7D4533"/>
		<path d="M1779 526l-143 0c-5 12-9 25-9 38 0 45 37 80 81 80 43 0 80-34 80-80 0-13-3-26-9-38 z M1159 526c5 12 9 25 9 38 0 45-37 80-81 80-43 0-80-34-80-80 0-13 3-26 9-38l143 0 z" fill="#000000"/>
		<path d="M1664 594c14 0 25 10 25 25 0 15-11 25-25 25-14 0-25-10-25-25 0-15 11-25 25-25 z M1039 594c14 0 25 10 25 25 0 15-11 25-25 25-14 0-25-10-25-25 0-15 11-25 25-25 z" fill="#FFFFFF"/>
		<path d="M1846 814c21 0 36 16 36 35 0 51-128 57-163 57l-25 0c-30 0-60-8-60-37 0-18 16-37 35-37 18 0 32 2 50 2 39 0 77-6 115-18l12-2 z M949 814l12 2c38 12 76 18 115 18 18 0 32-2 50-2 19 0 35 19 35 37 0 29-30 37-60 37l-25 0c-36 0-163-4-163-58 0-19 18-34 36-34 z" fill="#D37034"/>
	</g></svg>
