<svg version="1.1" xmlns="http://www.w3.org/2000/svg" viewBox="0 0 2300 2300"><g transform="scale(1,-1) translate(-256, -1869)">
		<path d="M2197-287l0 224c0 421-397 710-791 710-398 0-791-293-791-710l0-224 295 0 138 72 135-72 446 0 136 72 137-72 295 0 z" fill="#46A4FB"/>
		<path d="M1424 396c124 0 230 85 261 202l-63 18c-25-93-105-155-198-155-102 0-182 75-200 165-21-5-43-8-64-15 28-128 143-215 264-215 z" fill="#FCD53F"/>
		<path d="M1873-287l0 230c0 78 36 120 36 180 0 27-6 52-18 76l18 0 0 282c-42 39-94 72-144 94l0-266c-29 10-59 15-89 15-135 0-159-96-270-96-117 0-135 96-273 96-30 0-58-5-85-15l-1 259c-49-27-101-47-144-86l0-281 19 0c-13-25-19-51-19-78 0-61 36-108 36-180l0-230 934 0 z" fill="#F92F60"/>
		<path d="M1711 431c57 0 108 46 108 106l0 559 2-1c3 15 8 25 16 37 25 37 36 81 36 126 0 63-9 111-72 144l0 36c0 156-125 287-287 287l-36 0c-113 0-205-88-215-195-15-8-70-56-73-56-119 0-215-97-215-216 0-137 73-234 215-234 52 0 98 21 135 54l279 0 0-540c0-59 49-107 107-107 z" fill="#321B41"/>
		<path d="M1756 881c66 0 117 52 117 116 0 63-50 117-117 117-64 0-116-52-116-117 0-65 53-116 116-116 z M1056 881c65 0 116 53 116 116 0 66-52 117-116 117-63 0-117-50-117-117 0-64 52-116 117-116 z" fill="#26C9FC"/>
		<path d="M1406 575c188 0 342 132 350 333 3 74 9 140 9 214 0 49-23 100-80 100l-227 0c-95 0-162 41-224 118-4 5-9 8-16 8-7 0-12-3-15-8-23-50-42-80-92-104-43-21-64-55-64-104 0-75 6-149 9-224 8-194 155-333 350-333 z" fill="#26C9FC"/>
		<path d="M1179 998c45 15 93 25 137 42-19 30-50 56-90 56-26 0-90-14-90-47 0-21 29-40 43-51 z M1633 999c13 13 43 29 43 51 0 34-64 46-90 46-40 0-72-26-91-56 48-15 90-27 138-41 z" fill="#000000"/>
		<path d="M1648 994l-153 0c-7 0-16 6-16 13 0 49 51 82 94 82 36 0 94-34 94-76 0-11-8-19-19-19 z M1317 994c11 0 16 7 16 18 0 43-56 77-94 77-40 0-94-34-94-78 0-9 9-17 19-17l153 0 z" fill="#FFFFFF"/>
		<path d="M1311 993c2 5 3 10 3 16 0 36-28 61-62 61-36 0-61-27-61-61l2-16 118 0 z" fill="#7D4533"/>
		<path d="M1618 993c1 3 2 5 2 8l0 8c0 36-27 61-61 61-41 0-61-31-61-69 0-3 1-5 2-8l118 0 z" fill="#7D4533"/>
		<path d="M1589 994l-62 0c-1 5-3 9-3 16 0 18 16 35 35 35 18 0 35-16 35-35 0-5-2-11-5-16 z M1285 994c1 5 3 9 3 16 0 18-16 35-35 35-18 0-35-16-35-35 0-5 2-11 5-16l62 0 z" fill="#000000"/>
		<path d="M1538 1023c7 0 11 4 11 11 0 7-4 11-11 11-7 0-11-4-11-11 0-7 4-11 11-11 z M1231 1023c7 0 11 4 11 11 0 7-4 11-11 11-7 0-10-4-10-11 0-7 3-11 10-11 z" fill="#FFFFFF"/>
		<path d="M1406 701c25 0 48 7 71 20 23 13 55 45 55 57 0 9-4 13-11 13-3 0-5-2-6-2-40-15-68-27-109-27-39 0-74 10-109 27l-6 2c-7 0-11-4-11-13l2-6c24-42 75-71 124-71 z" fill="#990838"/>
		<path d="M1432 845c22 0 37 19 37 38 0 21-15 67-28 109-12 37-12 50-34 50-12 0-24-8-27-20-8-29-37-113-37-139 0-19 15-38 37-38l52 0 z" fill="#00A6ED"/>
		<path d="M1155 1127c13 0 52 22 90 22 9 0 18-2 29-2 9 0 17 8 17 17 0 18-18 22-34 22-50 0-80-7-111-25-7 0-9-9-9-16 0-11 7-18 18-18 z M1650 1127c11 0 18 7 18 18 0 29-87 41-107 41-13 0-47 0-47-19 0-11 6-20 17-20 11 0 18 2 29 2 25 0 59-6 79-20l2 0c2-1 5-2 9-2 z" fill="#321B41"/>
		<path d="M1945-287l0 230c0 64 36 116 36 179 0 162-149 274-305 274l-1-1c-151 0-195-96-269-96-25 0-48 8-69 24-60 47-127 73-204 73-78 0-152-28-209-77l-1 0c-54-47-92-117-92-196 0-68 36-117 36-180l0-230 72 0 0 230c0 73-36 118-36 179 0 127 123 202 233 202 132 0 161-96 270-96 112 0 140 96 273 96 108 0 230-77 230-202 0-62-36-103-36-179l0-230 72 0 z" fill="#FCD53F"/>
		<path d="M1705 72c16 0 28 5 36 15 49 62 81 138 81 227 0 64-53 117-117 117-65 0-116-51-116-117 0-70 20-135 59-196 15-23 25-46 57-46 z" fill="#321B41"/>
		<path d="M1801 396l0 107-179 0 0-107 179 0 z" fill="#FCD53F"/>
		<path d="M1550 1510l0 89-288 0 0-89 288 0 z" fill="#F8312F"/>
	</g></svg>
