<svg version="1.1" xmlns="http://www.w3.org/2000/svg" viewBox="0 0 2300 2300"><g transform="scale(1,-1) translate(-256, -1869)">
		<path d="M1945-287c258 0 467 206 467 467 0 215-148 396-342 450 7 24 10 49 10 76 0 164-131 300-300 300-165 0-300-133-300-300 0-90 40-172 105-228-72-87-107-193-107-298 0-258 206-467 467-467 z M867-287c258 0 467 206 467 467 0 105-35 211-107 298 65 56 105 138 105 228 0 165-133 300-300 300-164 0-300-131-300-300 0-27 3-52 10-76-204-56-342-241-342-450 0-258 206-467 467-467 z" fill="#E6E6E6"/>
		<path d="M2197-287l0 72c0 436-354 790-791 790-435 0-791-352-791-790l0-72 1582 0 z" fill="#FF6723"/>
		<path d="M1404-284l361 774c-56 30-111 46-174 65-22 6-39 24-39 50l0 141c0 78-63 148-147 148-79 0-148-64-148-148l0-141c0-26-17-44-39-50-62-19-116-35-171-64l357-775 z" fill="#BB806E"/>
		<path d="M1551-287l286 718c4 9 7 20 8 31 1 11 2 21 2 31 0 26-5 54-14 83-9 29-22 56-39 81-17 25-36 46-59 64-23 18-49 29-77 34l-24-26c-7-7-15-14-23-19-9-6-18-11-27-15-10-5-21-9-34-12 0-10 0-21-1-34l-1-19 1-18c1-13 5-24 10-34 5-10 14-17 27-21 15-5 27-12 35-21 7-9 11-22 11-39 0-15-3-31-10-48l-211-540-211 540c-7 17-10 33-10 48 0 13 2 23 6 30 4 7 9 13 15 18 6 4 13 8 20 11 7 3 14 6 20 10 6 4 11 10 15 17 4 7 6 16 6 28l0 72c-13 3-24 7-33 12-10 4-19 9-27 15-9 5-17 12-24 19-8 7-16 16-24 26-28-5-54-16-77-34-23-18-43-39-59-64-17-25-30-52-39-81-9-29-14-57-14-84 0-10 1-20 2-31 1-11 4-21 7-30l287-718 280 0 z" fill="#FF8101"/>
		<path d="M1722 801c60 24 97 81 97 146l0 131-97 0 0-277 z M1090 801l0 277-97 0 0-131c0-65 37-122 97-146 z M1726 1153c5 0 12 3 20 7 9 5 19 11 29 18l29 16c6 3 11 5 15 5l4-1 0 44c0 15 3 28 8 40l17 34c6 11 12 24 17 38 5 13 8 30 8 49 0 37-10 71-31 100-21 29-49 49-84 62-21 7-39 17-56 30-17 13-31 29-42 48-15 25-36 45-61 60-25 15-53 22-83 22-19 0-38-4-55-11-18-7-36-11-55-11-9 0-18 1-27 4-9 2-17 4-26 7l-28 8c-9 2-19 3-29 3-30 0-57-7-82-21-25-15-45-34-61-59-25-37-58-64-100-80-34-13-61-34-82-62-21-29-32-62-32-99 0-19 3-36 8-51 5-16 13-32 22-47 11-18 17-35 18-51 1-17 1-36 1-57l6 2c4 0 8-1 13-4l12-10 13-9c3-2 7-3 10-3l4 0-1 26-1 20 1 22c1 14 3 27 7 38 3 11 10 16 19 16 9 0 21-4 36-12 15-9 31-18 49-27 18-10 38-19 59-27 21-9 43-13 66-13l92 0c11 0 19-2 25-6 6-5 11-10 15-15l8-14c2-5 4-7 7-7 3 0 7 4 11 12 3 7 7 17 11 29l13 38c5 13 10 26 16 38 6 11 13 21 21 29 7 7 16 11 26 11l101 0c14 0 27-3 39-9 12-6 23-14 32-23 9-10 16-21 21-33 5-13 8-26 8-39 0-13 0-25-1-37l-2-38 2 0 z" fill="#593B39"/>
		<path d="M1756 988c64 0 117 53 117 117 0 63-50 117-117 117-64 0-116-52-116-117 0-64 51-117 116-117 z M1056 988c64 0 116 53 116 117 0 66-52 117-116 117-63 0-117-50-117-117 0-64 53-117 117-117 z" fill="#BB806E"/>
		<path d="M1478 647c29 0 58 4 86 13 27 8 53 20 77 35 24 15 46 33 65 55 19 21 34 46 45 73 5 11 9 23 13 36 3 12 6 24 7 36 3 53 7 107 11 160l10 159-15 3 2 38c1 12 1 24 1 37 0 13-3 26-8 39-5 13-12 24-21 33-9 9-20 17-32 23-12 6-25 9-39 9l-45 1-49-1c-22 0-41 3-58 8-21 5-40 15-57 30-17 14-35 36-53 67-5 9-11 17-18 22-7 5-16 8-27 8l-92 0c-34 0-66-6-95-19-29-13-55-31-77-53-22-23-39-49-52-78-13-30-19-62-19-95l0-68-18-5 21-318c1-12 4-24 8-37 3-13 7-24 12-35 12-27 28-52 47-73 19-22 40-41 64-56 24-15 50-27 78-35 27-8 56-12 85-12l143 0 z" fill="#C68D7B"/>
		<path d="M1432 953c22 0 37 19 37 38 0 20-16 70-28 109-13 37-13 50-35 50-12 0-23-8-26-20-8-29-37-113-37-139 0-19 15-38 37-38l52 0 z" fill="#AB6A55"/>
		<path d="M1663 1102l-163 0c-7 0-17 6-17 14 0 48 50 93 100 93 43 0 100-38 100-86 0-11-10-21-20-21 z M1316 1102c9 0 17 7 17 16 0 51-53 91-100 91-43 0-101-38-101-86 0-10 10-21 21-21l163 0 z" fill="#FFFFFF"/>
		<path d="M1631 1102l-126 0c-1 3-2 6-2 9l0 9c0 37 25 69 65 69 39 0 66-34 66-69 0-6-1-12-3-18 z M1311 1102c1 7 2 11 2 18 0 37-25 69-65 69-39 0-66-34-66-69 0-7 1-11 2-18l127 0 z" fill="#7D4533"/>
		<path d="M1601 1102l-66 0c-3 5-4 11-4 18 0 21 14 39 37 39 23 0 38-18 38-39 0-7-2-13-5-18 z M1281 1102c3 5 4 11 4 18 0 22-16 39-37 39-23 0-38-18-38-39 0-7 2-13 5-18l66 0 z" fill="#000000"/>
		<path d="M1548 1135c7 0 12 6 12 12 0 7-5 12-12 12-7 0-11-5-11-12 0-7 4-12 11-12 z M1225 1135c8 0 12 4 12 12 0 8-4 12-12 12-7 0-11-5-11-12 0-7 4-12 11-12 z" fill="#FFFFFF"/>
		<path d="M1663 1256c-2 0-6 2-12 5l-23 11c-9 3-19 7-30 10-11 3-23 5-36 5l-14 0-7-1-7 1c-4 1-7 3-10 6-3 3-4 8-4 15 0 6 2 11 5 14 3 3 6 5 11 6 5 1 9 2 14 2l13 0c7 0 16-1 27-2 11-1 22-3 33-6 11-3 21-7 30-11 9-5 17-10 22-16l1 0c6-5 9-10 9-17 0-6-2-11-6-15-5-5-10-7-16-7 z M1160 1256c3 0 7 2 14 5l23 11c9 3 19 7 30 10 11 3 22 5 34 5l19 0 10 1c4 1 7 3 10 6 3 3 4 8 4 15 0 5-2 9-5 12-3 3-7 5-11 6l-14 3-14 0c-7 0-16-1-27-2-11-1-21-3-31-6-11-3-21-7-30-11-10-5-18-10-23-16l-2 0c-5-4-8-10-8-17 0-6 2-11 7-15 4-5 9-7 14-7 z" fill="#593B39"/>
		<path d="M1406 809c25 0 48 6 71 19 23 13 55 45 55 57 0 9-4 13-13 13l-2 0c-73-25-56-28-111-28-37 0-73 9-108 27l-6 2c-7 0-12-6-12-13 0-2 1-4 2-7 24-43 75-70 124-70 z" fill="#990839"/>
		<path d="M2412-287l0 431-215 0c-229 0-432-180-432-431l647 0 z M1047-287c0 239-192 431-432 431l-215 0 0-431 647 0 z" fill="#F4F4F4"/>
	</g></svg>
