<svg version="1.1" xmlns="http://www.w3.org/2000/svg" viewBox="0 0 2300 2300"><g transform="scale(1,-1) translate(-256, -1869)">
		<path d="M1971 39c108 44 171 151 171 261 0 180-3 353-3 525 0 107 88 149 88 286 0 132-81 245-201 289-80 30-132 71-173 139-53 86-141 146-254 146-81 0-127-41-193-41-64 0-114 41-193 41-110 0-197-58-252-142-49-74-100-114-176-143-119-45-201-156-201-288 0-142 88-184 88-287 0-105 2-200 2-305 0-73-4-147-4-220 0-114 67-218 171-261l1130 0 z" fill="#F3EEF8"/>
		<path d="M1999 18c108 45 180 150 180 271 0 179-3 357-3 544 0 113 93 154 93 297 0 135-82 251-212 300-81 30-136 73-182 144-57 91-148 151-266 151-85 0-134-42-202-42-69 0-121 42-203 42-115 0-207-58-265-147-50-76-106-120-185-149-124-47-211-157-211-298 0-144 92-188 92-298 0-107 3-212 3-317 0-78-5-149-5-227 0-117 68-225 180-271l1186 0 z M1984 90l-1156 0c-75 36-123 112-123 197 0 79 5 151 5 230 0 105-3 211-3 316 0 132-92 176-92 298 0 100 59 191 163 230 95 35 165 90 222 179 45 69 116 113 204 113 72 0 132-42 203-42 73 0 131 42 202 42 89 0 160-47 205-117 53-84 121-138 219-174 95-35 164-122 164-231 0-127-93-166-93-298 0-179 3-357 3-544 0-85-48-162-123-199 z" fill="#E1D8EC"/>
		<path d="M2053 360c120 0 215 97 215 215 0 121-97 216-215 216-121 0-216-99-216-216 0-119 97-215 216-215 z M759 360c121 0 216 97 216 215 0 121-99 216-216 216-121 0-216-99-216-216 0-119 97-215 216-215 z" fill="#FECA46"/>
		<path d="M1533-287c106 0 208 31 295 91 116 78 217 225 226 365 14 202 25 417 38 618l-3 1c3 45 8 92 8 137 0 101-82 189-185 192l-93 1-94-1c-105 0-205 51-265 138-24 35-10 16-32 55-21 36-40 57-82 57l-171 0c-247 0-452-202-452-453l0-125-4-1c13-207 25-412 40-619 1-21 5-42 12-63 72-248 275-393 509-393l253 0 z" fill="#FDD641"/>
		<path d="M1459 288c37 0 73 31 73 71 0 8-1 15-4 22l-71 228c-6 22-25 38-51 38-24 0-44-16-51-38-12-40-75-214-75-249 0-41 34-72 73-72l106 0 z" fill="#FFB02C"/>
		<path d="M1406 54c83 0 166 39 212 113 3 4 4 8 4 11 0 10-10 20-20 20-4 0-7-1-10-3-63-31-121-44-186-44-65 0-124 14-186 44-3 2-7 3-10 3-10 0-20-10-20-20 0-3 1-7 4-11 47-73 129-113 212-113 z" fill="#990839"/>
		<path d="M1872 575l-299 0c-16 0-31 12-31 30l1 6c19 88 91 151 183 151 86 0 161-59 182-141l1-9c0-21-16-37-37-37 z M1239 575c16 0 31 12 31 30l-1 6c-19 89-96 151-183 151-86 0-161-59-182-141l-1-9c0-21 16-37 37-37l299 0 z" fill="#FFFFFF"/>
		<path d="M1814 575l-230 0c-3 11-5 22-5 32 0 68 57 120 120 120 68 0 120-57 120-120 0-10-2-21-5-32 z M1228 575c3 9 4 19 4 32 0 67-51 120-119 120-68 0-120-57-120-120 0-10 2-21 5-32l230 0 z" fill="#7D4533"/>
		<path d="M1758 575l-120 0c-5 11-8 21-8 32 0 38 28 68 68 68 40 0 68-30 68-68 0-11-3-21-8-32 z M1174 575c5 9 7 20 7 32 0 38-28 68-68 68-37 0-68-29-68-68 0-11 3-21 8-32l121 0 z" fill="#000000"/>
		<path d="M1661 631c12 0 21 10 21 22 0 12-9 21-21 21-12 0-21-9-21-21 0-12 9-22 21-22 z M1072 631c12 0 21 10 21 22 0 12-9 21-21 21-12 0-21-9-21-21 0-12 9-22 21-22 z" fill="#FFFFFF"/>
		<path d="M952 874c-21 0-37 16-37 36 0 25 32 46 60 59 67 30 111 36 162 36 30 0 77 0 77-40 0-19-14-37-36-37-13 0-27 2-40 2-39 0-75-8-111-21-19-8-62-35-75-35 z M1882 874c21 0 37 15 37 37 0 11-4 21-13 28-27 25-56 43-85 53-38 12-62 14-129 14-35 0-73-7-73-42 0-19 16-36 37-36 23 0 44 4 67 4 104 0 130-58 159-58 z" fill="#F3EEF8"/>
	</g></svg>
