<svg version="1.1" xmlns="http://www.w3.org/2000/svg" viewBox="0 0 2300 2300"><g transform="scale(1,-1) translate(-256, -1869)">
		<path d="M2165-287l-12 279 179 56-355 434-1 0c-146 173-362 272-592 272-415 0-768-329-768-752l-1-153c0-74 59-136 136-136l403 0 180 72 144-72 687 0 z" fill="#FF6723"/>
		<path d="M1364 537c73 0 138 59 138 137l0 163c0 75-62 137-138 137-75 0-137-62-137-137l0-163c0-76 59-137 137-137 z" fill="#8B5C56"/>
		<path d="M1182 713l-92 524c11 15 20 33 25 52 4 16 6 32 6 48l0 9c25 3 48 9 68 18 19 9 37 23 54 44 13-8 26-14 41-18 14-4 29-6 44-6 15 0 32 3 50 8 5-19 14-36 26-51 11-16 25-30 40-41l92-524 125 70c25 13 44 33 59 58 14 25 21 51 21 79l0 13c0 4-1 8-2 13l-52 294c-1 3-1 7-1 10-1 3-1 6-1 9 0 10 1 20 4 29 3 9 6 19 10 28l9 29c3 10 4 21 4 32 0 21-4 42-11 61-7 19-17 35-30 50-13 15-28 27-45 37-18 10-37 17-58 20-44 7-81 27-110 59-17 18-36 32-57 43-22 10-46 15-71 15-18 0-33-2-46-7-13-5-25-10-36-16-11-6-23-11-34-16-11-5-24-7-38-7-11 0-22 1-32 4-10 2-21 3-32 3-35 0-67-9-95-28-29-19-50-45-63-77-18-41-47-74-86-97-27-15-49-36-64-61-15-26-23-55-23-87 0-25 4-45 11-60 7-15 15-29 24-41l27-35c8-11 14-26 17-43l52-294c6-33 21-61 44-84 23-23 52-38 85-43l141-23 z" fill="#2D242D"/>
		<path d="M968 917c68 0 120 57 120 120 0 68-57 119-120 119-68 0-119-55-119-119 0-65 53-120 119-120 z M1642 1040c65 0 120 53 120 119 0 68-57 119-120 119-63 0-119-52-119-119 0-63 52-119 119-119 z" fill="#8B5C56"/>
		<path d="M1264 636c31 0 63 4 94 11 31 7 61 13 91 18 34 6 65 18 94 35 29 17 53 37 74 62 21 25 37 53 49 84 14 39 17 66 17 110l-38 337c-2 17-5 34-9 51-4 16-10 31-18 44-9 13-20 23-33 31-14 7-31 11-52 11-12 0-24-1-36-3l-36-8c-12-3-24-6-36-8-12-3-24-4-36-4-30 0-58 7-83 21-26 14-48 33-65 57-5 7-11 13-18 18-5 4-11 5-18 5l-6 0-99-17c-29-5-56-15-81-30-25-15-46-33-64-54-18-21-32-45-42-72-10-27-15-56-15-85 0-5 0-11 1-18 0-7 1-13 2-18 15-64 31-127 47-190l46-190c7-29 20-56 38-80 18-25 39-46 64-63 25-17 52-31 81-40 29-10 58-15 87-15 z" fill="#966661"/>
		<path d="M1300 942c20 0 43 7 63 11 18 3 32 19 32 38 0 25-52 110-62 132-5 9-15 15-26 15-14 0-26-10-29-25-6-44-15-90-15-133 0-19 15-38 37-38 z" fill="#75443E"/>
		<path d="M1332 812c60 0 107 39 127 89l1 4c0 7-4 11-11 11-3 0-71-49-141-49-28 0-56 10-71 10-7 0-11-5-11-12 0-3 2-4 3-7 19-29 71-46 103-46 z" fill="#990839"/>
		<path d="M1146 1024c31 0 101 29 101 67 0 13-6 19-19 19-18 0-32-47-84-47-35 0-48 21-61 21-11 0-18-8-18-19 0-27 60-41 81-41 z M1469 1082c31 0 102 31 102 67 0 10-9 19-20 19-18 0-31-47-83-47-33 0-48 21-61 21-11 0-19-9-19-18 0-27 60-42 81-42 z" fill="#372128"/>
		<path d="M1021 1199c11 0 57 45 117 50 13 1 19 8 19 21 0 9-9 18-18 18-28 0-137-32-137-69 0-11 9-20 19-20 z M1517 1287c10 0 19 9 19 20 0 29-74 36-93 36-21 0-72-2-72-29 0-12 10-19 21-19 16 0 32 7 51 7 22 0 42-5 63-13l1 0c2-1 5-2 10-2 z" fill="#372128"/>
		<path d="M1397 375c29 0 35 37 56 37 10 0 17-5 28-5 19 0 34 16 34 34 0 43-50 28-53 49-11 50-6 45-53 58l-44-166c11-3 21-7 32-7 z" fill="#F9C23C"/>
		<path d="M1274 331c13 0 26 4 38 12 11 7 20 18 25 31l24 9 46 168-17 21 1 13c0 12-3 24-10 35-9 15-23 24-40 28l-207 56c-7 2-14 3-21 3-17 0-33-5-47-16-14-11-23-25-28-42l-11-41c-5-17-11-35-16-54l-14-53c-4-17-6-29-6-37 0-17 5-33 16-47 10-15 24-24 41-29l207-55c3-1 7-2 10-2l9 0 z" fill="#26EAFC"/>
		<path d="M1359 368c8 0 13 4 15 12 5 16 46 164 46 172 0 16-19 17-30 20-8-45-40-165-53-199 7-3 16-5 22-5 z M1274 356c9 0 18 3 26 9 8 6 13 14 16 23l29 100 15 58c4 18 6 30 6 36 0 13-3 23-9 28-7 5-15 11-24 16-1 0-6 1-15 4l-35 9c-14 3-29 7-46 12l-47 12-38 11c-15 4-19 4-23 6l-8 1c-3 1-5 1-8 1-12 0-23-4-32-11-9-7-16-17-19-28-2-9-6-21-11-38-5-17-11-35-16-54l-14-52c-4-17-6-28-6-35 0-12 4-23 11-32 7-10 17-17 28-20l208-55c3-1 7-1 12-1 z" fill="#00D1ED"/>
		<path d="M1200 374c11 0 21 10 21 20l3 252c0 5-3 9-8 10l-85 23c-6 2-12 3-18 3-25 0-44-17-51-39-8-34-47-150-47-179 0-25 17-45 39-52 19-5 136-38 146-38 z" fill="#FFFFFF"/>
		<path d="M1922-83c169 0 309 134 309 309 0 169-134 309-309 309-169 0-309-134-309-309 0-169 134-309 309-309 z" fill="#00F397"/>
		<path d="M1262-287l0 72 432-59c75 43 108 112 108 196l-1 19c39-17 80-25 122-25 78 0 156 30 215 89-27-8-55-11-83-11-171 0-309 138-309 309 0 81 31 161 93 220-111-29-195-121-220-237-25 7-51 10-78 10-54 0-105-14-152-41-160-92-328-153-328-365 0-66 19-120 56-177l145 0 z" fill="#00D26A"/>
		<path d="M2201-287c106 0 193 85 193 192 0 71-35 142-96 177-26 14-55 17-83 17-5 0-9-1-14-2l-461-81c-73-14-82-79-82-141l0-162 543 0 z M858-287l156 504c7 21 10 41 10 64 0 121-97 216-215 216-98 0-177-64-206-152l-203-632 458 0 z" fill="#FF8101"/>
		<path d="M1617-287c30 0 38 11 38 43l0 70c0 12-4 29-7 41l-139 140c-15 15-33 22-54 22-44 0-77-35-77-77 0-49 44-69 44-77 0-5-3-8-8-8l-183 0c-44 0-77-35-77-77 0-42 33-77 77-77l386 0 z M868 262c24 0 45 7 64 20 19 13 35 30 48 49 11-7 21-15 32-23 11-9 23-13 36-13 17 0 32 7 43 20 9 10 13 22 13 34l-1 11c6-2 12-3 19-3 15 0 28 5 39 16 10 11 15 24 15 39 0 19-7 33-20 43l-71 58 59-10c21-4 42-6 61-6 15 0 27 6 38 17 11 11 16 23 16 38 0 9-2 18-7 27-5 8-11 15-18 20l7 0c15 0 29 5 40 16 11 10 16 23 16 38 0 14-5 26-14 37-9 11-21 17-34 19l-119 16c-16 2-32 4-47 7-15 2-31 3-47 3-43 0-79-8-107-24-29-16-53-37-73-63-21-26-39-55-54-88-15-33-31-65-48-98-13-24-19-49-19-76 0-17 4-33 12-48 7-15 17-28 30-39 13-11 27-20 43-27 16-7 32-10 48-10 z" fill="#8B5C56"/>
		<path d="M1675-287l-53 0 0 233c0 11 7 18 18 18l26 0c6 0 9-3 9-9l0-242 z M865 234c62 0 110 33 142 79l-32 34c-22-33-54-68-99-68-69 0-136 56-136 128 0 38 18 64 37 96-52-17-78-53-78-108 0-92 72-161 166-161 z" fill="#F24827"/>
	</g></svg>
