<svg version="1.1" xmlns="http://www.w3.org/2000/svg" viewBox="0 0 2300 2300"><g transform="scale(1,-1) translate(-256, -1869)">
		<path d="M2197-287l0 224c0 227-123 432-304 556-5 3-10 6-17 6-24 0-42-22-67-22-32 0-53 50-79 88-19 28-43 34-66 39-84 25-170 43-258 43-62 0-238-26-294-54-45-21-86-124-122-124-24 0-42 25-63 25-5 0-9-2-14-5-181-125-298-331-298-552l0-224 295 0 138 72 135-72 446 0 136 72 137-72 295 0 z" fill="#46A4FB"/>
		<path d="M1909-287l0 768c-87 64-182 107-287 135l0-903 287 0 z M1190-287l0 903c-104-27-200-70-287-134l0-769 287 0 z" fill="#F92F60"/>
		<path d="M1756 881c66 0 117 52 117 116 0 63-50 117-117 117-64 0-116-52-116-117 0-65 53-116 116-116 z M1056 881c65 0 116 53 116 116 0 66-52 117-116 117-63 0-117-50-117-117 0-64 52-116 117-116 z" fill="#26C9FC"/>
		<path d="M1622-287l-108 0 0 1006c36-5 72-11 108-19l0-987 z M1298-287l0 1006c-36-5-72-11-108-18l0-988 108 0 z" fill="#FCD53F"/>
		<path d="M1522 539c119 0 224 93 232 213 11 139 19 275 28 414l1 12 0 12c0 191-159 320-345 320l-64 0c-177 0-346-117-346-333l1-11c11-140 18-274 29-414 8-121 114-213 232-213l232 0 z" fill="#00A6ED"/>
		<path d="M1657 985l-160 0c-11 0-17 6-17 19 0 4 4 17 7 20 16 37 52 62 92 62 38 0 99-36 99-81 0-10-10-20-21-20 z M1317 985c11 0 17 6 17 19 0 44-59 82-99 82-38 0-99-36-99-81 0-10 10-20 21-20l160 0 z" fill="#FFFFFF"/>
		<path d="M1626 985l-123 0c-1 3-2 6-2 9l0 8c0 35 27 64 64 64 34 0 64-29 64-64 0-7-1-12-3-17 z M1312 985c1 7 2 10 2 17 0 35-30 64-64 64-17 0-32-6-45-19-16-16-19-39-19-53 0-3 1-6 2-9l124 0 z" fill="#7D4533"/>
		<path d="M1597 985l-65 0c-3 5-4 10-4 17 0 21 18 37 37 37 19 0 36-16 36-37 0-7-1-12-4-17 z M1282 985c3 5 4 10 4 17 0 21-17 37-36 37-19 0-37-16-37-37 0-5 1-10 4-17l65 0 z" fill="#000000"/>
		<path d="M1544 1016c7 0 12 4 12 11 0 8-4 12-12 12-7 0-11-5-11-12 0-7 4-11 11-11 z M1227 1016c7 0 12 4 12 11 0 8-4 12-12 12-7 0-11-5-11-12 0-7 4-11 11-11 z" fill="#FFFFFF"/>
		<path d="M1406 709c23 0 47 6 70 17 25 12 56 41 56 53 0 8-4 12-12 12l-6-2c-26-10-78-12-108-12-20 0-58 1-85 6-14 2-25 8-29 8-6 0-12-5-12-12l2-6c25-42 79-64 124-64 z" fill="#290118"/>
		<path d="M1528 541c116 0 235 83 243 212 11 140 18 273 29 413l1 12 0 11c0 198-176 321-362 321l-66 0c-193 0-362-122-362-332l1-12c11-140 18-273 29-413 8-126 122-212 243-212l244 0 z M1527 603l-243 0c-88 0-168 65-176 155l-31 431c0 160 142 257 294 257l68 0c144 0 294-89 294-255l-30-433c-5-91-88-155-176-155 z" fill="#321B41"/>
		<path d="M1157 1115c9 0 17 3 24 8l0 1c4 1 8 3 12 6 15 9 33 13 47 14l36 0c21 0 38 16 38 38 0 35-35 40-62 40-36 0-133-20-133-68 0-22 19-39 38-39 z M1642 1115c21 0 38 17 38 39 0 8-1 14-4 18-3 5-6 12-15 15-22 22-85 35-114 35-29 0-62-4-62-40 0-37 33-37 58-37 34 0 46-10 75-21l0-1c7-5 15-8 24-8 z" fill="#321B41"/>
		<path d="M1767 1132c15 3 28 10 38 21 9 11 15 24 18 39l29 188c1 5 2 11 2 16l0 16c0 28-5 55-16 80-11 25-25 46-43 65-19 18-40 33-65 44-25 11-51 16-79 16l-491 0c-28 0-54-5-79-16-25-11-46-26-64-44-19-19-33-40-44-65-11-25-16-52-16-80l0-16c0-5 1-11 2-16l29-188c3-16 9-29 19-38 10-10 22-17 37-22l0 42c0 9 1 18 3 26 5 23 18 42 37 57 19 15 41 22 64 22l515 0c16 0 31-3 44-9 13-6 24-14 33-24 9-11 16-23 21-36 5-14 7-29 7-44l0-17c0-6 0-12-1-17 z" fill="#F92F60"/>
		<path d="M1855 1403c0 20 0 32-5 56-62 49-138 76-218 76-11 0-19-7-19-18 0-11 7-19 18-19 87 0 166-36 224-95 z M1830 1232l8 53c-57 68-142 110-236 110-11 0-18-7-18-18 0-11 7-19 18-19 94 0 178-50 228-126 z M979 1253c60 120 230 94 345 112 69 10 135 48 168 100 14 22 37 78 37 98 0 12-5 24-19 24-15 0-50-69-164-69-86 0-176 31-264 31-28 0-56-3-83-11-13-15-23-34-30-55 34 22 75 28 113 28 87 0 179-31 266-31 44 0 87 9 125 30-29-65-79-92-137-104-112-23-270 8-365-100l8-53 z" fill="#CA0B4A"/>
		<path d="M1406 1330c58 0 108 49 108 108 0 58-49 108-108 108-58 0-108-49-108-108 0-63 50-108 108-108 z" fill="#FCD53F"/>
		<path d="M1406 1384c30 0 54 22 54 54 0 29-24 54-54 54-29 0-54-24-54-54 0-30 22-54 54-54 z" fill="#F8312F"/>
		<path d="M1436 829c22 0 42 18 42 41 0 10-9 38-18 66-22 62-24 91-55 91-13 0-25-7-29-21-8-25-42-115-42-137 0-22 19-40 42-40l60 0 z" fill="#00A6ED"/>
		<path d="M1604 564l0 239c0 36-29 60-62 60l-70 0c-3-18-19-32-38-32l-56 0c-19 0-35 14-38 32l-70 0c-33 0-62-24-62-60l0-239 75 0 0 11 87 0 0-3 72 0 0 3 87 0 0-11 75 0 z M1529 611l-87 0c0 7 0 14 1 23 0 9-1 17-3 24-2 7-5 13-10 18-5 5-13 7-24 7-11 0-18-2-23-7-5-5-9-11-11-18-1-5-2-11-2-17l0-30-87 0 0 150 246 0 0-150 z" fill="#321B41"/>
	</g></svg>
