<svg version="1.1" xmlns="http://www.w3.org/2000/svg" viewBox="0 0 2300 2300"><g transform="scale(1,-1) translate(-256, -1869)">
		<path d="M1517 1222l146 25-23 142-145-22 22-145 z" fill="#452829"/>
		<path d="M2096-74l98 63-289 391c-16 20-63 256-74 291l-185-179c13-48 25-96 40-144 11-36 85-101 114-130l296-292 z" fill="#636363"/>
		<path d="M1684-181l-19 510 150 254c12 20 18 42 18 65 0 23-7 48-10 71l-163 38-179-38-17-315c0-62 9-107 23-170l81-360 51-55 65 0 z" fill="#9B9B9B"/>
		<path d="M1667-288c11 0 17 9 17 18l0 89c-14 8-108 54-116 54l-192-115c-6-4-11-13-11-20 0-15 12-26 26-26l276 0 z M2040-286c7 0 13 3 18 8l188 202c3 3 5 7 5 12 0 16-61 64-75 78l-115-52c-8-29-47-213-47-223 0-15 11-25 26-25 z" fill="#321B41"/>
		<path d="M1236 574c21 0 31 18 48 27l0 14 21 39c131 102 236 238 279 406 4 14 9 33 9 47l1 1c0 42-22 73-67 73-34 0-62-23-66-59-19-145-144-295-254-376l-14 7c-21-13-52-20-52-48 0-11 3-22 3-33-9-6-14-14-14-23 0-36 71-75 106-75 z" fill="#573739"/>
		<path d="M1518 896c24 0 86 200 86 234 0 42-35 75-76 75-36 0-63-27-70-61-11-63-34-118-61-174l-1-5c0-11 114-69 122-69 z" fill="#F95725"/>
		<path d="M1823 719l-43 398c-8 85-83 152-170 152-101 0-170-83-170-178l41-372 342 0 z" fill="#FF6723"/>
		<path d="M602-273c32 0 59 26 59 59 0 7-1 13-3 19l104 140 3 26-8 24-50-11-103-139c-33 0-61-23-61-59 0-32 26-59 59-59 z M877 156l50 14 291 395-55 39-290-394 4-54 z" fill="#D3D3D3"/>
		<path d="M761-56l166 226-54 40-166-226 54-40 z" fill="#F92F60"/>
		<path d="M1194 519c-3 0-8 2-13 6-26 16-54 35-54 48 0 13 38 57 46 67 5-5 12-8 20-8 14 0 26 12 26 27 0 11-6 22-9 31 5 8 20 35 33 35 3 0 7-2 13-5 27-17 54-36 54-48 0-12-47-75-81-117-22-29-25-36-35-36 z M1267 589c55 3 97 50 97 102 0 56-45 102-102 102-36 0-71-19-89-53 10 4 21 6 33 6 15 16 33 24 56 24 43 0 79-34 79-79 0-36-24-66-57-76-5-9-10-17-17-26 z" fill="#635994"/>
		<path d="M1947 593c7 0 16 2 28 5 11 3 23 7 35 12 11 5 21 11 30 18 8 7 12 14 12 23 0 11-2 22-5 32-4 9-8 19-11 29-29 77-62 149-99 216-38 67-86 131-143 190-9 9-20 20-35 33-15 13-31 25-48 37-17 12-33 22-50 31-17 9-32 13-45 13-12 0-22-3-31-9-9-7-16-15-21-26l28-90c19-11 38-24 57-38 18-15 35-30 51-46 63-63 114-134 152-213 7-14 12-28 17-43 5-15 10-29 17-42l4-6c-5-7-10-15-14-24-4-9-6-17-6-26 0-6 1-11 4-15 3-5 6-9 10-12l25-18 0-5c0-10 3-17 10-20 8-4 17-6 28-6 z" fill="#573739"/>
		<path d="M1729 991l7 3c11 11 97 81 97 92 0 3-1 5-4 8-47 55-108 107-174 144-13 7-26 11-39 11-31 0-59-21-71-48 0-3-4-18-4-25 0-26 14-50 37-64 55-36 90-68 142-117 3-3 6-4 9-4 z" fill="#FF8101"/>
		<path d="M1483 1290c51 0 141 31 157 87l48 168c0 65-54 115-115 115l-75 0c-65 0-115-54-115-115l0-46c-3 0-32-50-32-56 0-16 18-27 32-27 3-72 14-126 100-126 z" fill="#573739"/>
		<path d="M1466 1480c5 0 8 3 8 9 0 18-16 34-35 34-19 0-35-15-35-33 0-7 3-10 8-10l54 0 z" fill="#FFFFFF"/>
		<path d="M1445 1480l1 10c0 12-6 27-21 27-15 0-22-15-22-27 0-3 1-6 2-10l40 0 z" fill="#7D4533"/>
		<path d="M1430 1480c3 3 3 7 3 10 0 7-4 15-12 15-7 0-12-8-12-15 0-5 1-8 3-10l18 0 z" fill="#000000"/>
		<path d="M1414 1495l4 5c0 2-1 4-4 5-3 0-4-2-4-5 0-3 1-5 4-5 z" fill="#FFFFFF"/>
		<path d="M1419 1375c7 0 16 3 26 9 10 5 15 12 15 21 0 5-3 8-9 8-2 0-4-1-5-3-1-3-3-5-5-8-2-3-5-6-8-8-3-3-8-4-14-4-3 0-7 0-11 1l-2 0c-3 0-5-3-5-8 0-3 2-5 7-6 5-1 8-2 11-2 z" fill="#290118"/>
		<path d="M1667 1369c6 0 12 0 19 1 6 0 12 1 17 3 5 1 10 4 13 9 3 4 5 10 5 18 0 11-3 19-10 24-7 5-16 8-25 8 13 0 24 8 32 23 8 15 14 32 19 51 4 19 7 38 8 57l2 39c0 41-11 71-34 92-23 21-55 31-94 31-17 0-33-2-48-7-15-5-31-7-46-7-13 0-27 2-40 6-13 4-27 6-42 6-18 0-33-6-44-17-11-11-17-26-17-44 0-16 3-29 9-39 5-10 13-18 23-23 9-5 20-9 33-10 13-2 26-3 40-3 9 0 19-1 30-3 11-2 22-5 32-9 10-5 18-11 25-18 7-8 10-18 10-29 3 1 5 1 8 1 3 0 7 0 10-2 5-3 10-6 15-11 4-5 8-11 11-17 3-7 4-12 4-17 0-10-3-19-9-27 1-9 1-19 1-29l0-8c0-7 1-13 2-19 2-9 6-16 12-21 6-6 16-9 29-9 z" fill="#000000"/>
		<path d="M1473 1538c3 2 4 1 4 5l0 3c0 2-1 4-3 6-15 9-30 14-47 14-15 0-14-2-16-9 3-5 7-7 10-7 17 0 29-1 43-11 3 0 2-1 5-1l4 0 z" fill="#000000"/>
	</g></svg>
