<svg version="1.1" xmlns="http://www.w3.org/2000/svg" viewBox="0 0 2300 2300"><g transform="scale(1,-1) translate(-256, -1869)">
		<path d="M2124-287l0 246c0 237-105 460-287 613l-72 3-72 92c-112 59-235 88-359 88-125 0-247-29-359-86l-72-94-72-1c-185-153-288-376-288-610l0-251 1581 0 z" fill="#D3D3D3"/>
		<path d="M1837-287l0 859c-45 38-93 70-144 95l0-379c0-38-31-72-71-72l-575 0c-39 0-72 31-72 72l0 381c-51-27-100-58-144-95l0-861 1006 0 z" fill="#0084CE"/>
		<path d="M1581 313c23 0 41 19 41 41l0 348c-92 35-189 54-288 54-99 0-195-19-287-54l0-348c0-23 18-41 40-41 9 0 16 3 23 8l195 168c8 7 18 10 29 10 13 0 23-3 30-10l194-168c7-5 14-8 23-8 z" fill="#E6E6E6"/>
		<path d="M1136-113c73 0 128 60 128 128 0 73-58 129-128 129l-105 0c-72 0-128-58-128-129 0-73 60-128 128-128l105 0 z" fill="#F8312F"/>
		<path d="M1136-77c50 0 92 39 92 92 0 52-42 93-92 93l-105 0c-52 0-92-42-92-93 0-50 39-92 92-92l105 0 z" fill="#E6E6E6"/>
		<path d="M1334 527c80 0 144 69 144 147l0 184c0 82-65 148-144 148-80 0-144-67-144-147l0-184c0-82 65-148 144-148 z" fill="#E4B29A"/>
		<path d="M1514 748l136 47c65 23 106 81 106 148l0 202-21 6 0 174-172 0 0-124-49 15 0-468 z M1154 748l0 465-50-15 0 127-172 0 0-173-20-5 0-204c0-139 136-160 242-195 z" fill="#FFF9BA"/>
		<path d="M1686 988c68 0 120 57 120 120 0 68-57 120-120 120-68 0-120-57-120-120 0-67 54-120 120-120 z M981 988c68 0 120 57 120 120 0 68-57 120-120 120-68 0-120-57-120-120 0-68 57-120 120-120 z" fill="#E4B29A"/>
		<path d="M1406 647c143 0 277 107 294 248l26 418c1 15 3 27 3 42 0 171-145 298-311 298l-168 0c-171 0-311-127-311-302 0-7 0-13 1-19 7-132 19-301 29-437 3-23 13-56 23-77 50-109 161-171 271-171l143 0 z" fill="#EEBFAA"/>
		<path d="M1590 1105l-164 0c-9 0-17 6-17 15 0 48 56 88 101 88 43 0 100-37 100-83 0-10-10-20-20-20 z M1243 1105c7 0 16 6 16 14 0 47-51 89-100 89-43 0-100-37-100-83 0-10 10-20 20-20l164 0 z" fill="#FFFFFF"/>
		<path d="M1558 1106l-126 0c-1 3-2 5-2 8l0 9c0 37 27 65 65 65 18 0 33-6 46-19 16-16 19-38 19-55 0-3-1-5-2-8 z M1237 1106c1 7 2 10 2 17 0 35-28 65-65 65-35 0-66-28-66-65 0-7 1-12 3-17l126 0 z" fill="#7D4533"/>
		<path d="M1528 1106l-66 0c-3 5-4 10-4 17 0 21 15 37 37 37 21 0 37-15 37-37 0-7-1-12-4-17 z M1207 1106c3 5 4 10 4 17 0 21-15 37-37 37-22 0-38-16-38-37 0-6 2-12 5-17l66 0 z" fill="#000000"/>
		<path d="M1474 1137c8 0 12 4 12 12 0 7-5 11-12 11-7 0-11-4-11-11 0-7 4-12 11-12 z M1152 1137c7 0 11 5 11 12 0 7-4 11-11 11-7 0-12-4-12-11 0-8 4-12 12-12 z" fill="#FFFFFF"/>
		<path d="M1587 1226c5 0 10 2 14 6 4 4 6 9 6 14 0 8-5 15-15 22-10 6-21 11-34 15-13 4-27 7-40 10-13 2-23 3-29 3l-12 0c-5 0-10-1-15-2-5-1-8-3-11-6-3-3-5-6-5-11 0-7 1-11 4-14 3-3 6-5 11-6l10-1 17 0c12 0 23-1 34-4 11-3 20-7 29-11l23-10c6-3 10-5 13-5 z M1083 1226c5 0 9 1 12 4 18 13 36 21 55 23 19 2 39 3 60 3 8 0 14 13 14 20 0 15-17 20-31 20-44 0-130-17-130-51 0-10 9-19 20-19 z" fill="#A56953"/>
		<path d="M1367 954c22 0 40 17 40 40 0 14-17 67-31 106-15 40-17 48-37 48-13 0-22-7-27-20-8-27-40-111-40-135 0-22 17-39 39-39l56 0 z" fill="#D19479"/>
		<path d="M1334 829c23 0 46 6 69 18 24 12 55 42 55 54 0 8-4 12-13 12-5 0-11-3-15-6-33-17-64-21-96-21-39 0-71 9-106 26l-5 1c-8 0-12-4-12-11 0-2 1-4 2-7 25-43 76-66 121-66 z" fill="#990839"/>
		<path d="M1735 1325c4 27 7 53 7 80 0 207-128 320-332 320l-152 0c-207 0-333-114-333-319 0-27 3-54 7-81l5 1c105 73 268 111 397 111 130 0 269-33 388-106 5-5 6-5 13-6 z" fill="#0084CE"/>
		<path d="M1649 1261c44 0 62 32 86 64-113 107-260 152-402 152-142 0-288-43-401-152 24-29 44-64 87-64 11 0 23 3 35 9 97 47 179 71 280 71 101 0 183-24 280-71 12-6 24-9 35-9 z" fill="#00A6ED"/>
		<path d="M2197 0l0 150c0 40-36 66-72 66-36 0-72-26-72-66l0-150 144 0 z" fill="#E4B29A"/>
		<path d="M2018-215c19 0 36 7 51 21 14 14 21 31 21 50l0 455c0 7 4 13 11 18l16 10c5 3 10 6 15 11 21 17 37 37 48 61 11 24 17 49 17 76 0 32-9 63-26 92-18 29-41 50-70 65-2 1-5 2-10 2-10 0-16-5-19-14-2-7-3-15-3-24l0-10c0-14 1-29 2-45l0-13c0-11-1-21-2-31-3-14-8-26-15-35-8-9-21-14-39-14-17 0-30 5-37 14-7 9-12 21-14 35l-2 25 1 20c1 16 1 31 1 45 0 13-1 25-4 34-3 9-9 14-19 14l-9-2c-29-15-52-36-69-65-17-29-26-59-26-91 0-20 2-38 7-53 4-15 10-29 19-42 9-13 19-24 31-34 12-11 26-21 41-32 7-5 11-11 11-18l0-454c0-19 7-36 22-50 14-14 31-21 50-21 z" fill="#9B9B9B"/>
		<path d="M2140-287c34 0 57 30 57 62l0 253c0 32-23 62-57 62l-216 0c-33 0-50-29-50-58 0-16 8-32 21-43-15-11-22-25-22-44 0-19 7-34 22-45-15-11-22-25-22-44 0-19 7-34 22-45-14-11-21-25-21-42 0-30 17-56 50-56l216 0 z" fill="#EEBFAA"/>
	</g></svg>
