<svg version="1.1" xmlns="http://www.w3.org/2000/svg" viewBox="0 0 2300 2300"><g transform="scale(1,-1) translate(-256, -1869)">
		<path d="M1981 0c56 0 110 9 161 27 51 17 97 42 140 74 42 31 79 69 110 113 31 44 55 93 71 146 7 25 13 50 16 76 3 25 5 51 6 77l1 38-1 39c-1 26-1 52-1 78 0 97-13 191-38 281-25 90-61 174-107 253-46 78-101 149-165 214-65 64-136 119-214 165-79 45-163 81-253 106-90 25-183 38-280 38l-89 0c-93 0-183-12-269-36-86-24-166-58-241-102-75-44-143-97-204-158-61-61-114-129-158-204-44-75-78-155-102-241-24-87-36-176-36-269 0-49 9-95 28-138 19-43 44-81 76-113 32-32 70-57 113-76 43-19 89-28 138-28l150 0c5-51 18-98 41-142 22-44 51-82 86-114 35-33 75-58 121-76 45-19 94-28 145-28l755 0 z" fill="#FF6DC6"/>
		<path d="M1999-312c30 0 54 22 54 54l0 259-388-1 296-296c11-11 23-16 38-16 z" fill="#F70A8D"/>
		<path d="M2376 467c6 25 9 50 9 77 0 53-11 103-33 152-22 49-52 92-89 129-37 37-80 66-129 87-47 20-95 30-146 30l-7 0c36 38 65 81 86 128 21 47 31 97 31 150 0 25-3 50-9 74-60-251-216-407-467-467 25-6 50-9 77-9 49 0 95 9 138 27 43 18 83 43 120 75 115-34 206-89 275-165 69-77 117-173 144-288 z M1837 252c10 16 15 34 15 53 0 35-14 66-37 93l57 3c89 3 184 72 184 181 0 9-1 19-3 29-16-85-84-149-174-149-67 0-128 5-195 5-52 0-105-1-157-4 22 25 38 59 38 94 0 20-5 38-15 54-40-67-85-117-143-155-65-7-130-13-194-25 165-29 330-35 497-35 52-39 92-88 127-144 z M795 360c59 229 202 372 431 431-24 6-48 9-73 9-60 0-108-15-166-43 0 81-89 155-170 155-21 0-41-4-58-13 84-46 133-81 188-167-92-68-161-173-161-299 0-25 3-49 9-73 z M1671 1498c-41 86-143 131-229 131-87 0-187-44-229-131 72 35 148 59 229 59 81 0 157-24 229-59 z M476 791c72 252 246 455 507 535l4 1c9 5 14 11 15 18 5 30 7 61 8 94l1 95c-20-56-36-107-51-164-197-32-367-168-446-354-31-73-39-146-39-210l1-15 z" fill="#F70A8D"/>
	</g></svg>
