<svg version="1.1" xmlns="http://www.w3.org/2000/svg" viewBox="0 0 2300 2300"><g transform="scale(1,-1) translate(-256, -1869)">
		<path d="M1622 1006l0 431-504 0 0-431 504 0 z" fill="#8C5543"/>
		<path d="M1909-287c41 0 72 30 72 72l0 647 115-204c9-15 21-23 38-23 24 0 203 105 246 129 15 8 23 25 23 39 0 7-1 13-4 18l-459 899c-41 83-110 147-213 147l-105 0-244-488-261 489c-104 0-181 0-229-97l-484-950c-3-5-4-12-4-19 0-14 7-31 22-38 36-20 221-129 247-129 15 0 28 8 38 23l126 206-3-650c0-44 33-71 74-71l1005 0 z" fill="#FFDEA7"/>
		<path d="M1336 719c23 27 46 55 67 82 21 27 43 55 64 84l-348 553-51 0c-13 0-25-2-37-6-12-5-23-11-32-18-10-8-19-17-26-28-7-11-12-22-15-35l-18-70c-3-13-6-26-8-38-3-13-4-22-4-29 0-15 4-26 12-31 7-6 17-10 28-11 8-1 16-2 25-2l9 0c12 0 22-1 31-4 4-1 6-4 6-7 0-5-4-11-12-18-9-7-18-15-28-22-10-8-19-16-27-24-9-8-13-16-13-24 0-9 3-17 10-22l367-330 z" fill="#E19747"/>
		<path d="M1442 72c19 0 36 15 36 36 0 19-15 36-36 36-19 0-36-15-36-36 0-19 15-36 36-36 z M1442 287c19 0 36 18 36 36 0 21-17 37-36 37-19 0-36-16-36-37 0-18 17-36 36-36 z M1442 503c19 0 36 15 36 36 0 19-15 36-36 36-19 0-36-15-36-36 0-19 15-36 36-36 z" fill="#8C5543"/>
		<path d="M1857 124c-12 0-22 3-31 9l-180 107c-17 11-24 27-24 47l0 30c0 6 3 9 10 9 3 0 175-101 245-143 27-17 32-17 32-25 0-19-35-34-52-34 z M955 124c11 0 22 3 31 9l180 107c17 11 24 27 24 47l0 30c0 6-3 9-10 9-3 0-174-101-245-143-26-15-31-16-31-25 0-19 34-34 51-34 z" fill="#E19747"/>
		<path d="M1334-287l0 1025-71 0 0-1025 71 0 z" fill="#F3C07B"/>
		<path d="M1282 614c5 0 10 2 13 5l469 430c7 7 10 14 10 22 0 8-4 16-12 25l-27 24-27 22c-9 7-13 13-13 18 0 3 2 5 6 6 8 3 18 4 30 4l11 0 24 1c11 1 20 5 28 11 8 6 12 16 12 31 0 7-1 16-3 29l-9 39-18 70c-3 13-7 24-14 35-7 11-16 20-26 28-10 7-21 13-33 18-12 4-24 6-37 6l-45 0-347-550c-3-5-6-14-8-26-3-12-4-21-4-28l0-201c0-5 2-10 6-13 4-4 9-6 14-6 z" fill="#F3AD61"/>
	</g></svg>
