<svg version="1.1" xmlns="http://www.w3.org/2000/svg" viewBox="0 0 2300 2300"><g transform="scale(1,-1) translate(-256, -1869)">
		<path d="M1812 875c28 0 89 74 108 93 77 77 115 179 115 280 0 99-40 210-115 280-7 7-15 10-26 10-18 0-36-15-36-36 0-9 4-18 11-25 63-70 95-138 95-229 0-205-188-289-188-337 0-18 17-36 36-36 z" fill="#212121"/>
		<path d="M1057-288c41 0 78 16 106 44l846 846c28 28 43 67 43 105 0 38-15 77-43 105l-293 294c-28 28-67 43-105 43-38 0-78-15-106-43l-846-847c-28-28-44-67-44-105 0-38 16-77 44-105l293-293c29-29 64-44 105-44 z" fill="#F8312F"/>
		<path d="M1945 1171c8 0 16 2 23 7 7 5 15 11 15 21 2 6 3 12 3 18 0 3 0 6-1 9-1 2-1 5-1 8 0 5 1 9 3 14 2 5 6 7 11 7 5 0 9-1 12-4 2-3 3-6 4-9 0-4 0-8-1-12-1-5-1-8-1-11 0-12 4-22 11-31 7-9 17-14 29-14 6 0 13 2 22 5l25 10c8 4 16 8 24 13l19 9c7 3 13 8 18 15 4 7 6 14 6 21 0 9-4 12-4 19l-19 22c-4 3-7 7-10 10-3 3-4 6-4 9 0 4 2 8 5 11 3 3 6 4 10 4 4 0 8-2 11-5l11-12c4-5 9-9 14-12 5-4 12-6 20-6 8 0 16 3 23 8 7 5 12 12 15 19l8 20 11 24 9 24c2 8 3 15 3 21 0 13-5 24-14 31-9 7-20 10-32 10-3 0-6 0-9-1-3-1-6-1-9-1-5 0-10 1-14 3-4 2-6 6-6 12 0 5 1 8 4 10 3 2 6 3 10 4l5 1 6-1c4-1 8-1 11-1 11 0 22 4 31 11 9 7 13 17 13 30 0 6-1 13-4 21l-11 25-12 24c-5 7-8 14-10 19-3 7-8 13-15 18-7 4-14 6-22 6-9 0-16-2-21-6-6-4-11-8-15-12l-11-13c-4-4-8-6-13-6-9 0-14 5-14 14 0 5 2 9 6 12l11 11c4 3 8 8 12 13 3 5 5 12 5 20 0 9-2 16-7 23-5 7-12 12-20 15l-19 8c-8 3-16 7-24 11l-25 9c-8 2-15 3-21 3-12 0-22-4-30-13-8-9-12-20-12-31 0-3 1-7 2-10 1-3 1-7 1-10 0-5-1-10-3-14-2-5-6-7-12-7-5 0-9 1-11 4-2 3-3 6-3 10l-1 6 1 6c1 4 1 8 1 11 0 11-4 22-11 31-7 9-17 13-29 13-5 0-10-1-17-4l-74-33c-7-3-13-8-17-15-4-7-6-14-6-22 0-8 2-15 6-20 4-6 8-11 13-15 4-5 8-9 12-12 4-4 6-8 6-12 0-4-1-7-4-10-3-3-7-5-11-5-4 0-8 2-11 6-3 3-7 7-10 12l-14 12c-5 3-12 5-21 5-8 0-15-3-22-8-7-5-12-12-15-19l-18-44c-4-9-7-17-9-25-3-8-4-15-4-21 0-8 3-15 8-22 5-8 11-15 20-15 6-2 12-3 18-3 3 0 6 0 9 1 2 1 5 1 8 1 5 0 10-1 15-3 4-2 6-6 6-12 0-5-1-9-4-10-3-2-6-3-10-4l-6-1-6 1c-4 1-7 1-10 1-12 0-22-4-31-11-9-7-13-17-13-30 0-6 2-13 5-21 3-8 6-16 10-24l21-44c3-7 8-13 15-17 7-5 14-7 21-7 9 0 12 4 19 4 3 2 7 5 11 9l21 20c3 3 6 4 9 4 4 0 8-1 11-4 3-3 4-7 4-11 0-4-2-8-5-11l-12-10c-4-4-8-8-11-13-4-5-6-12-6-21 0-9 3-16 8-22 5-7 11-12 18-15l21-8c7-4 15-8 24-11 8-3 16-6 24-8 8-3 15-4 21-4 z" fill="#FF822D"/>
	</g></svg>
