<svg version="1.1" xmlns="http://www.w3.org/2000/svg" viewBox="0 0 2300 2300"><g transform="scale(1,-1) translate(-256, -1869)">
		<path d="M2340 144l0 72-1868 0 0-72 1868 0 z M2340 503l0 72-1868 0 0-72 1868 0 z M2340 863l0 72-1868 0 0-72 1868 0 z M2340 1222l0 72-1868 0 0-72 1868 0 z" fill="#D3D3D3"/>
		<path d="M1981-287c234 0 431 190 431 431l0 1150c0 234-190 431-431 431l-1150 0c-234 0-431-190-431-431l0-1150c0-234 190-431 431-431l1150 0 z M1981-144l-1150 0c-161 0-288 128-288 288l0 1150c0 160 129 287 288 287l1150 0c161 0 287-130 287-287l0-1150c0-161-129-288-287-288 z" fill="#FF6723"/>
		<path d="M2017 1114c-58 0-108 49-108 108l0 72c0 58 49 108 108 108 58 0 108-49 108-108l0-72c0-58-49-108-108-108 z M1442 1114c58 0 108 49 108 108l0 72c0 58-49 108-108 108-58 0-108-49-108-108 0 58-49 108-108 108-58 0-108-49-108-108 0 58-47 108-107 108-58 0-108-49-108-108 0 58-49 108-108 108-58 0-108-49-108-108l0-72c0-58 49-108 108-108 58 0 108 49 108 108 0-58 49-108 108-108 59 0 107 49 107 108 0-58 49-108 108-108 58 0 108 49 108 108 0-58 49-108 108-108 z" fill="#F70A8D"/>
		<path d="M2017 755c-63 0-108 50-108 108l0 72c0 58 47 107 108 107 58 0 108-47 108-107l0-72c0-58-49-108-108-108 z M1442 755c58 0 108 49 108 108l0 72c0 59-49 107-108 107-60 0-108-49-108-107 0 58-47 107-108 107-58 0-108-47-108-107 0 59-49 107-107 107-60 0-108-49-108-107 0 58-47 107-108 107-60 0-108-49-108-107l0-72c0-63 50-108 108-108 57 0 108 46 108 108 0-63 50-108 108-108 59 0 107 49 107 108 0-58 49-108 108-108 57 0 108 46 108 108 0-63 50-108 108-108 z" fill="#00A6ED"/>
		<path d="M2017 396c-57 0-108 45-108 107l0 72c0 57 46 108 108 108 58 0 108-49 108-108l0-72c0-59-49-107-108-107 z M1442 396c58 0 108 47 108 107l0 72c0 58-49 108-108 108-61 0-108-48-108-108 0 57-46 108-108 108-58 0-108-49-108-108 0 58-47 108-107 108-61 0-108-48-108-108 0 57-46 108-108 108-61 0-108-48-108-108l0-72c0-59 48-107 108-107 57 0 108 45 108 107 0-59 48-107 108-107 59 0 107 49 107 107 0-59 49-107 108-107 57 0 108 45 108 107 0-59 48-107 108-107 z" fill="#FCD53F"/>
		<path d="M2017 36c-63 0-108 50-108 108l0 72c0 58 49 108 108 108 58 0 108-49 108-108l0-72c0-58-49-108-108-108 z M1442 36c58 0 108 49 108 108l0 72c0 58-49 108-108 108-58 0-108-49-108-108 0 58-49 108-108 108-58 0-108-49-108-108 0 58-47 108-107 108-58 0-108-49-108-108 0 58-49 108-108 108-58 0-108-49-108-108l0-72c0-63 50-108 108-108 57 0 108 46 108 108 0-63 50-108 108-108 59 0 107 49 107 108 0-58 49-108 108-108 57 0 108 46 108 108 0-63 50-108 108-108 z" fill="#00D26A"/>
	</g></svg>
