<svg version="1.1" xmlns="http://www.w3.org/2000/svg" viewBox="0 0 2300 2300"><g transform="scale(1,-1) translate(-256, -1869)">
		<path d="M1837 943l0 318c0 100-82 177-177 177l-508 0c-100 0-177-82-177-177l0-318 862 0 z M1675 1105l-539 0 0 156c0 9 8 15 16 15l508 0c8 0 15-7 15-15l0-156 z" fill="#321B41"/>
		<path d="M2300-287c61 0 111 49 111 112l0 750-53 35 53 36 0 280c0 122-98 224-224 224l-1563 0c-125 0-224-101-224-224l0-279 71-39-71-33 0-749c0-61 50-113 112-113l1788 0 z" fill="#F8312F"/>
		<path d="M2412 575l0 72-2012 0 0-72 2012 0 z" fill="#CA0B4A"/>
		<path d="M2089-75c19 0 36 15 36 36 0 18-17 36-36 36l-1366 0c-19 0-36-15-36-36 0-19 15-36 36-36l1366 0 z M2089 140c19 0 36 15 36 36 0 19-15 36-36 36l-1366 0c-19 0-36-15-36-36 0-19 15-36 36-36l1366 0 z M1909 429c80 0 143 65 143 144l0 97c0 25-18 45-44 45l-198 0c-25 0-45-19-45-45l0-97c0-81 67-144 144-144 z M903 429c80 0 143 65 143 144l0 97c0 25-19 45-45 45l-197 0c-25 0-45-19-45-45l0-97c0-81 67-144 144-144 z" fill="#D3D3D3"/>
	</g></svg>
