<svg version="1.1" xmlns="http://www.w3.org/2000/svg" viewBox="0 0 2300 2300"><g transform="scale(1,-1) translate(-256, -1869)">
		<path d="M908-287c127 0 259 49 354 143l754 736c23 23 37 50 37 82 0 66-59 117-126 117-30 0-65-11-88-34l-434-424c-40 197-185 350-382 399l420 425c23 23 35 54 35 86 0 67-54 123-120 123-32 0-63-14-85-36l-725-736c-100-101-149-233-149-365 0-283 225-516 509-516 z M908-44c-150 0-269 124-269 272 0 149 119 273 269 273 149 0 268-124 268-273 0-151-121-272-268-272 z" fill="#CDC4D6"/>
		<path d="M1247-156c104 91 168 237 168 385 0 37-3 71-10 104l118 115c24-70 36-142 36-217 0-30-2-60-6-90l-291-285c-4-4-10-8-15-12 z M1950 503c12 0 22 4 30 12l274 275c107 107 158 246 158 386 0 303-239 549-546 549-146 0-286-55-395-164l-269-269c-8-8-12-18-12-30 0-11 4-22 12-30 58-58 109-127 200-127 49 0 94 21 126 53l175 175c42 42 100 68 163 68 59 0 113-22 157-64l0-1c44-44 66-102 66-161 0-19-2-35-24-35-6 0-11 2-16 7-57 51-113 77-187 77-147 0-269-123-269-271 0-68 26-136 77-187l250-251c8-8 18-12 30-12 z" fill="#B4ACBC"/>
	</g></svg>
