<svg version="1.1" xmlns="http://www.w3.org/2000/svg" viewBox="0 0 2300 2300"><g transform="scale(1,-1) translate(-256, -1869)">
		<path d="M1856-287c97 0 181 64 207 153l256 853c47 0 93 15 93 72l0 144c0 40-34 71-72 71l-1293 0-72 36-72-36-431 0c-38 0-72-31-72-71l0-144c0-56 44-72 93-72l256-853c26-90 110-153 206-153l901 0 z" fill="#F3AD61"/>
		<path d="M1750-287l86 85 78-78c24 7 48 18 68 33l-95 96 101 102 77-76 1 1 23 76-50 50 92 92 44 145-34-34-102 102 102 101 65-65 23 78-37 38 70 70 43 145-12-12-56 57-192 0-57-57-56 57-192 0-57-57-56 57-192 0-57-57-56 57-192 0-57-57-56 57-192 0-56-57-57 57-192 0-21-21 24-78 93 93 102-102-102-101-86 86 63-211 23 23 102-101-78-78 64-214 14-13-7-8 23-78 35 35 101-102-70-70c17-19 37-32 58-43l63 62 86-85 133 0 86 85 86-85 133 0 86 85 85-85 134 0 z M921 510l-102 101 102 102 102-102-102-101 z M769 52l-102 102 102 102 101-102-101-102 z M921-100l-102 102 102 101 102-101-102-102 z M1226 510l-102 101 102 102 102-102-102-101 z M1073-253l-101 102 101 102 102-102-102-102 z M2141 510l-102 101 102 102 101-102-101-101 z M1683 52l-101 102 101 102 102-102-102-102 z M1531 205l-102 102 102 101 102-101-102-102 z M1378 357l-101 102 101 102 102-102-102-102 z M1683 357l-101 102 101 102 102-102-102-102 z M1531 510l-102 101 102 102 102-102-102-101 z M1836 510l-102 101 102 102 101-102-101-101 z M1988 357l-101 102 101 102 102-102-102-102 z M1836 205l-102 102 102 101 101-101-101-102 z M1988 52l-101 102 101 102 102-102-102-102 z M1836-100l-102 102 102 101 101-101-101-102 z M1531-100l-102 102 102 101 102-101-102-102 z M1683-253l-101 102 101 102 102-102-102-102 z M1378-253l-101 102 101 102 102-102-102-102 z M1378 52l-101 102 101 102 102-102-102-102 z M1226-100l-102 102 102 101 102-101-102-102 z M1226 205l-102 102 102 101 102-101-102-102 z M1073 52l-101 102 101 102 102-102-102-102 z M1073 357l-101 102 101 102 102-102-102-102 z M921 205l-102 102 102 101 102-101-102-102 z M769 357l-102 102 102 102 101-102-101-102 z" fill="#D3883E"/>
		<path d="M1837 791c39 0 72 31 72 72l0 575c0 158-122 287-287 287l-432 0c-158 0-287-122-287-287l0-432 144 0 0 432c0 141 63 215 215 215l288 0c152 0 215-74 215-215l0-575c0-39 31-72 72-72 z" fill="#E19747"/>
	</g></svg>
