<svg version="1.1" xmlns="http://www.w3.org/2000/svg" viewBox="0 0 2300 2300"><g transform="scale(1,-1) translate(-256, -1869)">
		<path d="M2049 618c55 0 216 2 216 86 0 9-2 18-5 27-31 81-120 134-207 134-76 0-174-44-212-115-3-5-4-10-4-17 0-9 2-16 6-23 34-67 123-92 206-92 z" fill="#FF6723"/>
		<path d="M1866-282c44 0 79 37 79 79l0 420c0 42-35 79-79 79l-201 0c-43 0-80-34-80-79l0-420c0-43 38-79 80-79l201 0 z M1183-282c42 0 79 35 79 79l0 490c0 45-36 79-79 79l-201 0c-43 0-79-34-79-79l0-490c0-42 35-79 79-79l201 0 z" fill="#433B6B"/>
		<path d="M1043-282l-190 0c-48 0-77 47-77 92l0 100c0 25 14 46 21 69l284 0c26-18 37-30 37-60l0-118c0-44-25-83-75-83 z M1997-283c51 0 85 32 85 85l0 105c0 26-26 52-43 75l-247 0c0-21-22-57-45-57-12 0-14-8-14-19 0-23-2-46-2-69 0-70 16-120 95-120l171 0 z" fill="#8D65C5"/>
		<path d="M1088 1433c40 0 71 34 71 72l0 142c0 38-31 72-71 72l-41 0c-39 0-72-31-72-72l0-142c0-39 31-72 72-72l41 0 z" fill="#608842"/>
		<path d="M2042-78c-56 0-60 42-76 42-10 0-25-39-71-39-51 0-63 41-74 41-13 0-25-41-70-41-15 0-19 10-19 23l0 128c0 59-22 79-84 79l-458 0c-53 0-72-28-72-80l0-114c0-5-1-7-4-7-6 0-8 9-15 9-13 0-34-39-77-39-46 0-59 40-70 40-13 0-26-40-74-40-48 0-61 42-72 42-13 0-14-22-25-22-19 0-22 43-22 56 0 42 16 77 16 119 0 86 11 125 27 210 35 7 66 18 101 18l1095 0c41-62 82-97 82-180l-1-122c0-35 24-71 24-96 0-19-48-27-61-27 z M2197 113c27 0 28 32 28 51l-1 31c0 49 12 81 33 126 30 66 42 113 42 182 0 99-83 178-182 178-56 0-123-26-159-74l109-342c21-66 44-110 101-142 9-5 18-10 29-10 z" fill="#00A6ED"/>
		<path d="M2039 214c11 0 62 1 62 17 0 8-22 37-22 69 0 42 3 88 3 130 0 104-37 133-97 209l-1140 0c-13-17-25-36-35-56-16-30-36-65-36-98l-1-39c0-26 2-51 2-77 0-35-16-63-16-98 0-10 1-17 4-21 3-8 6-14 19-22 11 6 12 27 24 27 16 0 30-41 72-41 41 0 63 40 75 40 10 0 32-38 71-38 41 0 61 39 72 39 13 0 27-39 71-39 46 0 63 39 73 39 11 0 27-39 70-39 56 0 62 39 75 39 15 0 21-41 72-41 51 0 60 41 73 41 13 0 29-41 73-41 25 0 44 14 60 31 0 5 7 10 13 10 8 0 31-41 78-41 39 0 57 43 67 43 8 0 31-43 70-43 44 0 62 41 75 41 11 0 33-41 73-41 z" fill="#FF6DC6"/>
		<path d="M2050 501c4 0 9 0 14 1l14 3c5 1 9 4 12 7 3 3 5 7 5 12 0 3-1 6-4 9-3 3-6 5-7 7-15 17-28 36-39 56-11 19-23 38-38 55 17 9 35 17 54 22 18 5 37 8 56 8 21 0 42-4 62-11 20-7 38-18 55-31 17-13 31-29 42-47 11-19 18-39 21-60 4 13 6 27 7 41 1 14 1 28 1 42 0 25-5 48-16 69-11 21-26 39-43 54-18 15-38 28-60 37-23 9-46 13-69 13-33 0-64-7-93-21-29-15-53-36-70-65-31 23-65 38-102 47-37 9-75 13-113 13l-213 0c-17 0-35 3-53 9-19 5-35 12-50 19-15 7-28 13-38 19-10 6-16 9-18 9-5 0-11-2-16-5-5-3-11-5-18-5-15 0-26 6-33 18-7 11-11 24-11 37l-451 0c-19 0-32-7-41-20-9-13-15-29-18-48-2-16-4-31-4-47l0-58c0-21-3-42-8-62-5-21-8-42-8-63 0-2 0-6 1-11l3-16c1-5 3-10 5-14 2-4 5-6 8-6 3 0 6 1 8 4l6 9 7 8c2 3 5 4 8 4 3 0 7-2 11-6 4-5 9-9 14-14 5-5 12-10 20-14 8-4 18-6 29-6 9 0 18 2 26 7 7 4 14 9 20 14l16 14c4 4 8 6 11 6 3 0 6-2 10-6 4-5 9-9 15-14 5-5 12-10 20-14 7-5 16-7 27-7 11 0 20 2 28 7 7 4 14 9 20 14 5 5 10 9 14 14 3 4 7 6 10 6 3 0 7-2 11-6 4-5 9-9 14-14 5-5 12-10 20-14 7-5 16-7 27-7 10 0 19 2 27 6 8 4 15 9 21 14 5 5 10 9 14 14 4 4 8 6 11 6 3 0 6-2 11-6l16-14c5-5 12-10 19-14 7-4 15-6 24-6 11 0 20 2 29 7 8 4 15 9 21 14l16 14c4 4 7 6 10 6 2 0 5-2 9-6 4-5 9-9 15-14 6-5 13-10 21-14 8-5 17-7 27-7 11 0 20 2 28 7 7 4 14 9 20 14 5 5 10 9 14 14 3 4 7 6 10 6 3 0 7-2 11-6 4-5 9-9 14-14 5-5 12-10 20-14 7-5 16-7 27-7 11 0 20 2 28 7 8 5 15 10 21 15 6 5 11 10 15 15 3 5 6 7 8 7 3 0 6-2 10-7 3-5 8-10 14-15 6-5 13-10 22-15 8-5 18-7 30-7 10 0 19 2 26 7 7 4 13 9 19 14l14 15c4 4 8 6 12 6 3 0 6-2 10-6 4-5 9-10 15-15 5-5 12-10 20-14 7-5 16-7 26-7 9 0 18 2 25 7 7 4 14 9 20 14l16 14c4 4 8 6 12 6 4 0 8-2 11-6 3-5 8-10 14-15 5-6 13-11 22-15 9-5 21-7 37-7 z" fill="#F8312F"/>
		<path d="M1316 793c16 0 67 19 67 38 0 5-6 7-9 10-30 21-50 45-60 72-18 49-14 119-16 147-2 35-16 34-84 102l-607 0-19 8 0-73c0-8 7-8 11-15l-4-4c0-19 94-46 113-49 36-7 63-18 63-59 0-42-11-79-11-121 0-11 1-39 16-39 11 0 14 23 27 23 16 0 36-40 76-40 38 0 65 42 73 42 10 0 33-41 70-41 43 0 61 39 74 39 13 0 32-40 72-40 43 0 60 41 73 41 13 0 31-41 75-41 z" fill="#FF822D"/>
		<path d="M578 1076c38 0 79 48 84 48 16 0 23-42 71-42 44 0 67 44 75 44 8 0 29-44 71-44 43 0 60 41 73 41 8 0 32-38 71-38 38 0 61 36 72 36 18 0 22-39 75-39 51 0 53 39 71 39 13 0 34-40 63-40 4 0 10 1 10 6 0 7-6 10-6 15-10 18-12 67-12 102 0 76 2 102 2 144 0 9-1 16-2 21-8 20-57 62-86 89l-261 0c-25 0-60-45-81-58-34-22-63-28-100-28l-146 0c-75 0-107-60-107-129 0-63 15-90 43-149 4-9 9-18 20-18 z" fill="#F9C23C"/>
		<path d="M1308 1369c2 0 5 0 8 1 3 1 4 3 4 6 0 5-1 10-4 14-3 3-6 7-8 11-5 10-8 22-9 35-1 13-2 25-2 36l0 172c0 23-6 41-17 55-11 13-29 20-52 20-15 0-28 0-41-1-13-1-24-4-33-9-9-5-17-13-22-23-5-10-8-24-8-42 0-10 1-21 2-32l0-10-1-22c-2-10-6-18-13-25-7-7-18-10-33-10l-84 0c-22 0-41-3-57-9-16-7-30-18-43-35-13-17-28-42-45-75-3-5-7-11-12-16l-13-16c0-4 2-7 7-10 4-3 9-5 14-6 5-2 11-3 17-4l13-2c11 0 20 2 28 7 8 4 15 9 22 14 6 5 11 9 15 14 4 4 7 6 10 6 3 0 6-2 11-6 5-5 10-9 17-14 6-5 13-10 20-14 7-4 15-6 22-6 11 0 20 2 28 6 8 4 15 9 21 14l16 14c4 4 8 6 11 6 3 0 7-2 11-6 4-5 9-9 14-14 5-5 12-10 20-14 7-4 16-6 27-6 10 0 19 2 27 6 8 4 15 8 21 13l16 12c4 4 7 6 10 6 3 0 6-2 11-6l15-14c5-5 11-10 18-14 7-5 14-7 21-7 z" fill="#96C34A"/>
		<path d="M940 1240c22 0 42 19 42 42 0 23-20 41-42 41-22 0-42-18-42-41 0-23 20-42 42-42 z" fill="#433B6B"/>
	</g></svg>
