<svg version="1.1" xmlns="http://www.w3.org/2000/svg" viewBox="0 0 2300 2300"><g transform="scale(1,-1) translate(-256, -1869)">
		<path d="M1408 70c356 0 649 287 649 649 0 37-4 76-11 117-93 91-196 282-242 396-109 85-248 135-396 135l-30 1c-11 0-20-1-29-3-20-6-47-21-68-34-233-148-418-371-520-562-1-18-2-32-2-50 0-160 60-309 156-422 144-50 270-113 378-217 39-7 76-10 115-10 z" fill="#FF944C"/>
		<path d="M1295 80c-155 26-287 109-381 218 310 181 751 604 890 935 121-94 211-231 241-393-87-155-190-298-309-430-126-138-280-241-441-330 z M761 770c140 50 260 143 354 243 92 101 195 226 233 352-314-29-563-281-587-595 z" fill="#FBB8AB"/>
		<path d="M714-126c241 0 760 487 931 658 167 167 610 624 610 868 0 93-64 170-161 170-140 0-354-162-457-244 64-24 123-58 176-101 39 29 79 57 120 82 46 29 84 47 131 70-14-65-84-171-127-229-244-336-618-699-934-928-68-50-175-125-254-151 33 88 96 166 153 243-43 53-77 114-102 178-80-111-245-310-245-451 0-94 66-165 159-165 z" fill="#FCD53F"/>
	</g></svg>
