<svg version="1.1" xmlns="http://www.w3.org/2000/svg" viewBox="0 0 2300 2300"><g transform="scale(1,-1) translate(-256, -1869)">
		<path d="M1765-72c161 0 288 128 288 288l0 934c0 161-128 288-288 288l-431 0c-160 0-287-129-287-288l0-934c0-161 129-288 287-288l431 0 z" fill="#FFCE7C"/>
		<path d="M1563-105c-18 0-32 11-35 30l-239 1528c0 26 12 40 36 40 18 0 32-11 35-30l239-1528c0-26-12-40-36-40 z M1708-108c10 0 19 4 26 11 7 7 11 15 11 25l28 1544c0 9-3 18-10 26-7 7-15 11-25 11-9 0-18-3-25-10-8-7-12-16-12-25l-28-1542-98 1542c-1 9-4 17-11 24-7 6-15 9-24 9-11 0-20-3-27-10-6-6-10-14-10-24l98-1545c1-9 4-17 11-24 7-7 15-10 24-10 10 0 19 3 26 9 7 6 10 14 11 24 1-9 4-17 11-24 7-7 15-11 24-11 z" fill="#E19747"/>
		<path d="M829-311c7 0 11 1 18 2l628 156c30 8 54 36 54 69 0 7-1 11-2 18l-365 1465c-8 32-35 54-69 54-7 0-11-1-18-2l-627-156c-33-8-55-39-55-70 0-5 1-10 2-17l365-1465c8-30 36-54 69-54 z M2174-161c37 0 68 26 72 64 115 1056 53 503 165 1509 0 37-29 66-64 70l-357 40-7 0c-38 0-69-29-73-64l-164-1500c0-41 19-75 64-80l357-39 7 0 z" fill="#F92F60"/>
		<path d="M2190 994c-21 0-37 16-37 35 0 21 16 36 35 36 18 0 36-13 36-34 0-18-13-37-34-37 z M2165 780c19 0 36 14 36 36 0 19-17 35-36 35-19 0-35-16-35-37 0-18 16-34 35-34 z M2142 565c-21 0-36 18-36 36 0 19 15 36 36 36 21 0 36-18 36-36 0-21-18-36-36-36 z M2118 351c19 0 36 14 36 36 0 19-16 35-37 35-21 0-34-18-34-36 0-18 16-35 35-35 z M2096 137c-22 0-37 15-37 36 0 19 16 35 37 35 19 0 35-16 35-37 0-18-16-34-35-34 z M2015 724c-19 0-36 15-36 36 0 18 16 35 35 35 19 0 36-17 36-35 0-19-17-36-35-36 z M1944 81c19 0 36 15 36 36 0 19-17 35-36 35-18 0-36-15-36-36 0-18 17-35 36-35 z M1968 295c19 0 35 16 35 37 0 18-16 35-35 35-19 0-36-15-36-36 0-19 14-36 36-36 z M1992 510c-22 0-37 15-37 36 0 21 19 35 37 35 19 0 35-16 35-37 0-18-16-34-35-34 z M2038 938c19 0 36 15 36 36 0 19-15 36-36 36-19 0-36-15-36-36 0-19 15-36 36-36 z M2063 1153c18 0 34 16 34 35 0 19-14 36-36 36-19 0-35-17-35-36 0-19 16-35 37-35 z M2212 1208c19 0 36 15 36 36 0 19-15 36-36 36-22 0-35-18-35-37 0-18 16-35 35-35 z M854-225c20 0 347 84 393 97l-35 139-384-95c-16-4-27-19-27-35 0-12 2-25 7-39 11-34 14-67 46-67 z M818-78c-16 0-31 11-35 27-7 24-18 53-18 79 0 16 12 30 27 34l383 96 35-140c-44-12-370-96-392-96 z M781 68c20 0 347 84 393 97l-35 139-384-95c-16-4-27-19-27-35 0-12 2-25 7-39 11-34 14-67 46-67 z M745 215c-16 0-31 11-35 27-7 24-18 54-18 78 0 16 11 31 27 35l383 96 35-140c-44-12-370-96-392-96 z M708 361c20 0 347 84 393 97l-35 139-384-95c-16-4-27-19-27-35 0-12 2-25 7-39 11-34 14-67 46-67 z M673 507c-17 0-32 10-36 28-7 24-18 54-18 78 0 16 11 31 27 35l383 96 35-140c-40-12-372-97-391-97 z M635 654c20 0 347 84 393 97l-35 139-384-96c-17-4-27-18-27-34 0-12 2-25 7-39 11-34 14-67 46-67 z M600 800c-17 0-32 10-36 28-7 24-18 54-18 78 0 16 11 31 27 35l383 96 35-140c-40-8-370-97-391-97 z M562 947c20 0 349 84 393 96l-35 140-384-96c-17-4-27-18-27-34 0-12 2-25 7-39 11-34 14-67 46-67 z M527 1093c19 0 340 83 391 97l-35 139-383-95c-16-4-27-19-27-35 0-26 11-55 18-79 4-16 19-27 36-27 z" fill="#FFFFFF"/>
		<path d="M1038-64c-19 0-36 17-36 35 0 17 12 32 28 36l174 43 17-70c-31-8-157-44-183-44 z M1005 87c25 0 150 36 183 44l-17 70-175-43c-16-4-27-19-27-35 0-19 15-36 36-36 z M927 378c-18 0-37 14-37 35 0 17 12 32 28 36l174 44 17-70c-26-8-164-45-182-45 z M891 527c25 0 150 36 184 44l-18 70-174-44c-17-4-27-18-27-34 0-19 17-36 35-36 z M855 666c-18 0-35 17-35 36 0 16 10 30 27 34l174 44 18-70c-32-8-159-44-184-44 z M780 964c25 0 150 36 183 44l-17 70-174-43c-16-4-27-18-27-35 0-21 16-36 35-36 z M746 1103c18 0 153 37 183 45l-18 70-174-44c-16-4-27-19-27-35 0-19 15-36 36-36 z" fill="#321B41"/>
	</g></svg>
