<svg version="1.1" xmlns="http://www.w3.org/2000/svg" viewBox="0 0 2300 2300"><g transform="scale(1,-1) translate(-256, -1869)">
		<path d="M1493-270c285 0 488 193 534 469 4 27 8 52 8 79 0 98-39 210-93 294-41 61-164 182-248 182-21 0-54-9-54-36 0-34 66-51 66-117 0-23-4-46-4-69 0-91 81-148 81-245 0-55-19-114-41-159-50-103-146-146-249-146-176 0-321 104-321 290 0 277 3 542 4 806 0 43 35 118 61 144 59 64 97 120 97 216l0-1c0 160-130 288-290 288-156 0-285-129-285-288 0-90 35-152 101-218 24-24 65-98 65-131-1-266-4-549-4-816 0-328 254-542 572-542 z M1046 1294c-80 0-143 65-143 144 0 79 63 143 145 143 76 0 142-63 142-144 0-80-65-143-144-143 z" fill="#F9C23C"/>
	</g></svg>
