<svg version="1.1" xmlns="http://www.w3.org/2000/svg" viewBox="0 0 2300 2300"><g transform="scale(1,-1) translate(-256, -1869)">
		<path d="M939 575l239 96c94 36 104 32 216 120l192 144c16 52 105 346 157 346 5 0 9-2 12-6-26 32-91 91-133 91l-755 0c-49 0-93-35-116-72l-351-575 539-144 z" fill="#F3C07B"/>
		<path d="M2053-287l321 545c8 13 11 29 11 44 0 44-24 95-47 129l-570 827c-22 33-57 63-101 63-16 0-37-5-45-20l-324-582 288-575 467-431 z" fill="#FFDEA7"/>
		<path d="M2053-287l-755 1006-898 0 754-1006 899 0 z" fill="#7D4533"/>
		<path d="M759-305c20 0 37 7 51 21 14 14 21 31 21 51l0 819c29 11 52 29 69 53 16 23 27 50 32 80l-102 0-23-1-21 1c-14 0-25 0-34 1-9 0-14 0-15 1-7 5-10 16-11 31-1 15-2 31-5 48-3 17-9 31-18 44-10 13-27 19-52 19-19 0-36-7-50-21-15-15-22-32-22-51 0-21 2-41 5-62 3-21 9-41 17-59 8-19 19-35 33-50 14-15 32-26 53-34l0-819c0-20 7-37 21-51 14-14 31-21 51-21 z" fill="#D3D3D3"/>
		<path d="M1398-287c27 0 44 27 44 51 0 13-6 25-7 37l-46 487-217 0c-16 0-31-12-37-26l-226-471c-4-8-6-17-6-26 0-25 16-52 43-52l452 0 z" fill="#FFB02E"/>
		<path d="M1614-287c28 0 43 28 43 53 0 8-1 17-5 25l-226 471c-6 14-20 25-38 25-18 0-32-11-38-25l-226-471c-4-8-5-17-5-25 0-25 16-53 43-53l452 0 z" fill="#F9C23C"/>
		<path d="M1478-108c-19 0-36 15-36 36 0 19 15 36 36 36 19 0 36-15 36-36 0-19-15-36-36-36 z M1334-215c38 0 72 31 72 71 0 39-31 72-72 72-39 0-72-31-72-72 0-40 34-71 72-71 z M1370-18c32 0 54 24 54 54 0 30-22 54-54 54-32 0-54-24-54-54 0-30 22-54 54-54 z" fill="#D3883E"/>
	</g></svg>
