<svg version="1.1" xmlns="http://www.w3.org/2000/svg" viewBox="0 0 2300 2300"><g transform="scale(1,-1) translate(-256, -1869)">
		<path d="M1406-287c121 0 216 97 216 215l0 1582c0 119-97 215-216 215-121 0-216-97-216-215l0-1582c0-119 97-215 216-215 z" fill="#F3AD61"/>
		<path d="M1622 431l0 144-432 0 0-144 432 0 z" fill="#D3883E"/>
		<path d="M2017 503c98 0 180 78 180 180l0 647c0 98-78 180-180 180l-1222 0c-98 0-180-78-180-180l0-647c0-98 78-180 180-180l1222 0 z" fill="#CDC4D6"/>
		<path d="M1658 791l-504 0c-18 0-36 17-36 36 0 18 17 36 36 36l504 0c18 0 35-17 35-36 0-19-17-36-35-36 z M1586 1006c19 0 36 18 36 36 0 18-17 36-36 36l-360 0c-19 0-36-15-36-36 0-18 17-36 36-36l360 0 z M1729 1222c19 0 36 15 36 36 0 19-15 36-36 36l-646 0c-19 0-36-15-36-36 0-19 15-36 36-36l646 0 z" fill="#998EA4"/>
	</g></svg>
