<svg version="1.1" xmlns="http://www.w3.org/2000/svg" viewBox="0 0 2300 2300"><g transform="scale(1,-1) translate(-256, -1869)">
		<path d="M1406 910c164 0 300 131 300 300 0 133-88 250-217 288 19 54 80 83 133 83 38 0 72 33 72 72 0 38-33 72-72 72-138 0-255-92-281-223-136-29-234-153-234-292 0-165 133-300 299-300 z" fill="#C3EF3C"/>
		<path d="M1946-287c155 0 286 119 299 274l95 1099 0 13c0 146-120 267-269 267l-200 0c-122 0-224-98-224-224l0-1129c0-164 131-300 299-300 z M866-287c167 0 299 132 299 300l0 1129c0 122-98 224-224 224l-200 0c-37 0-72-7-104-21-110-47-165-143-165-260l95-1098c13-155 144-274 299-274 z" fill="#44911B"/>
		<path d="M1406-287c236 0 432 190 432 431l0 952c0 149-119 270-270 270l-323 0c-149 0-270-119-270-270l0-952c0-234 190-431 431-431 z" fill="#008463"/>
	</g></svg>
