<svg version="1.1" xmlns="http://www.w3.org/2000/svg" viewBox="0 0 2300 2300"><g transform="scale(1,-1) translate(-256, -1869)">
		<path d="M1640-195c52 0 103 19 143 59l478 478c38 38 59 87 59 142 0 55-20 104-59 143l-992 994-764-764 992-993c40-40 91-59 143-59 z" fill="#F9C23C"/>
		<path d="M1667-287c67 0 158 9 208 59l477 477c56 56 60 135 60 210 0 75-29 143-80 194l-464 462c-13 13-30 20-49 20-10 0-19-2-28-6l-423-185c-87-39-153-108-189-189-23-54-191-418-191-452 0-19 7-35 20-48l456-461c56-56 126-81 203-81 z" fill="#FCD53F"/>
		<path d="M1326 341l-437 437 51 51 437-438-51-50 z M1527 547l-434 435 51 51 434-435-51-51 z M1725 754l51 52-430 430-51-51 430-431 z" fill="#F3AD61"/>
		<path d="M2291 189l51 51-786 786-71-31 806-806 z M1885-218l50 51-806 807-31-71 787-787 z M2089-14l51 51-856 856c-19-16-36-32-51-51l856-856 z" fill="#F9C23C"/>
		<path d="M1117 72c20 0 37 7 51 21l310 310 0-188c0-39 31-72 72-72 38 0 72 33 72 72l0 288 288 0c38 0 72 33 72 72 0 39-34 72-72 72l-188 0 311 310c14 14 21 31 21 51 0 38-31 72-72 72-19 0-36-7-50-21l-865-865c-14-14-21-31-21-51 0-39 33-71 71-71 z" fill="#FFDEA7"/>
		<path d="M759 752c100 0 189 40 254 105l255 255c65 65 105 154 105 254 0 194-154 359-359 359-100 0-189-40-254-105l-255-255c-65-65-105-154-105-254 0-194 154-359 359-359 z" fill="#FFDEA7"/>
		<path d="M556 908c222 219 443 440 662 662-53 52-126 84-204 84-74 0-147-28-203-84l-255-255c-56-56-84-130-84-204 0-74 28-147 84-203 z" fill="#FFB02E"/>
		<path d="M609 866c21 11 36 23 55 38 211 155 402 348 570 534 7 27 14 54 26 78-42 72-134 136-221 136-87 0-142-77-142-154 0-16 7-32 7-47 0-7-7-13-14-13-15 0-31 7-47 7-88 0-162-72-162-162 0-17 6-34 6-51 0-3-6-9-9-9-18 0-32 6-50 6-82 0-154-61-154-144 0-89 66-173 135-219 z" fill="#6D4534"/>
		<path d="M760 824c74 0 147 28 203 84l255 255c56 56 84 129 84 203 0 55-15 106-44 153-24 13-49 19-76 19-89 0-162-74-162-161 0-19 6-33 6-51 0-4-6-10-10-10-16 0-33 6-50 6-88 0-162-72-162-161 0-15 6-30 6-45 0-13-5-16-17-16-13 0-28 6-43 6-88 0-163-73-163-162 0-27 6-52 19-76 47-29 99-44 154-44 z" fill="#A56953"/>
	</g></svg>
