<svg version="1.1" xmlns="http://www.w3.org/2000/svg" viewBox="0 0 2300 2300"><g transform="scale(1,-1) translate(-256, -1869)">
		<path d="M2125-287c156 0 287 125 287 287l0 1438c0 156-125 287-287 287l-1438 0c-156 0-287-125-287-287l0-1438c0-161 130-287 287-287l1438 0 z" fill="#00A6ED"/>
		<path d="M1556 144c14 0 27 3 40 8 13 5 24 13 34 22 10 9 18 19 24 32 6 12 9 25 10 39l10 170c1 11 7 16 18 16l109 0c15 0 29 3 42 9 13 5 24 13 34 23 10 10 18 22 24 35 5 13 8 26 8 41 0 15-3 29-8 42-6 13-14 25-23 35-10 9-22 17-35 23-13 5-27 8-42 8l-93 0c-5 0-10 2-13 6-3 2-5 6-5 10l7 111c1 11 7 17 18 17l86 0c15 0 29 3 42 9 13 5 25 13 35 23 9 9 17 21 23 34 5 13 8 27 8 42 0 15-3 29-8 42-6 13-14 25-24 34-10 9-21 17-34 23-13 5-27 8-42 8l-70 0c-5 0-10 2-13 6-3 3-5 7-5 11l0 3c1 27 3 54 6 81 2 27 3 53 3 80 0 15-3 29-8 42-6 13-14 24-23 34-10 9-21 17-34 23-13 5-27 8-42 8-14 0-27-3-40-8-13-5-24-12-34-21-10-9-18-20-24-32-6-13-9-26-10-40l-10-170c-1-5-3-9-6-12-3-3-7-5-12-5l-108 0c-5 0-10 2-13 6-3 3-5 7-5 11l0 3c1 27 3 54 6 81 3 27 4 53 4 80 0 15-3 29-8 42-6 13-14 25-24 34-10 9-21 17-34 23-13 5-27 8-42 8-14 0-27-3-40-8-13-5-24-12-33-21-9-9-17-20-23-32-7-13-10-26-11-40l-11-170c-1-5-2-9-5-12-3-3-7-5-12-5l-109 0c-15 0-28-3-41-8-13-6-25-14-35-23-10-9-18-21-23-34-6-13-9-27-9-42 0-15 3-29 9-42 5-13 13-25 23-34 9-10 21-18 34-23 13-6 27-9 42-9l93 0c5 0 10-2 14-5 2-3 4-7 4-11l-7-111c-1-11-7-17-18-17l-86 0c-15 0-29-3-42-8-13-6-25-14-34-23-10-10-18-22-23-35-6-13-9-27-9-42 0-15 3-28 9-41 5-13 13-25 23-35 10-10 22-18 35-23 13-6 26-9 41-9l70 0c5 0 10-2 14-5 2-3 4-7 4-11l0-3c-1-27-3-53-5-80-3-27-4-54-4-81 0-15 3-28 9-41 5-13 13-25 23-34 9-10 21-18 34-23 13-6 26-9 41-9 29 0 52 7 67 22 15 14 27 32 34 53 7 21 10 44 11 69l2 69c0 21 1 38 4 53 2 14 8 21 18 21l108 0c5 0 10-2 14-5 2-3 4-7 4-11l0-3c-1-27-3-53-6-80-3-27-4-54-4-81 0-15 3-28 9-41 5-13 13-25 23-34 9-10 21-18 34-23 13-6 26-9 41-9 z M1456 647l-107 0c-9 0-18 6-18 17 0 36 4 74 7 110 1 9 8 17 17 17l108 0c9 0 18-6 18-17 0-36-4-74-7-110-1-11-7-17-18-17 z" fill="#FFFFFF"/>
	</g></svg>
