<svg version="1.1" xmlns="http://www.w3.org/2000/svg" viewBox="0 0 2300 2300"><g transform="scale(1,-1) translate(-256, -1869)">
		<path d="M2304 575l-107 0c-39 0-72 31-72 72l0 144c0 39 31 72 72 72l107 0c39 0 72-31 72-72l0-144c0-39-31-72-72-72 z M1837-287c39 0 72 31 72 72l0 305c-142-101-313-162-503-162-179 0-354 54-503 162l0-305c0-39 31-72 72-72l862 0 z M1909 1348l0 305c0 39-31 72-72 72l-862 0c-39 0-72-31-72-72l0-305c149 108 324 162 503 162 190 0 361-61 503-162 z" fill="#3F5FFF"/>
		<path d="M1406-144c477 0 862 389 862 863 0 476-388 862-862 862-476 0-863-387-863-862 0-476 388-863 863-863 z" fill="#A4AEEB"/>
		<path d="M1406 72c355 0 647 288 647 647 0 355-288 647-647 647-355 0-647-288-647-647 0-355 288-647 647-647 z" fill="#5235A6"/>
		<path d="M1166 368c21 0 39 8 53 24l240 268c12 13 18 28 18 47 0 17-4 31-13 42 9 13 14 27 14 42l0 431c0 39-31 72-72 72-39 0-72-31-72-72l0-431c0-15 4-28 13-41l-235-262c-13-14-19-30-19-47 0-40 32-73 73-73 z" fill="#FFFFFF"/>
		<path d="M1406 575c81 0 144 67 144 144 0 81-67 144-144 144-81 0-144-67-144-144 0-81 67-144 144-144 z" fill="#FCD53F"/>
	</g></svg>
