<svg version="1.1" xmlns="http://www.w3.org/2000/svg" viewBox="0 0 2300 2300"><g transform="scale(1,-1) translate(-256, -1869)">
		<path d="M2197-162c119 0 215 97 215 216l0 809c0 120-97 215-215 215l-1582 0c-120 0-215-97-215-215l0-809c0-121 97-216 215-216l1582 0 z" fill="#CDC4D6"/>
		<path d="M2197-287c120 0 215 97 215 215l0 144c0-121-97-216-215-216l-1582 0c-119 0-215 97-215 216l0-144c0-120 97-215 215-215l1582 0 z M2161 827c19 0 36 18 36 36l0 36c0 18-17 36-36 36l-72 0c-19 0-36-18-36-36l0-36c0-19 15-36 36-36l72 0 z M1945 827l-72 0c-19 0-36 15-36 36l0 36c0 18 17 36 36 36l72 0c18 0 36-17 36-36l0-36c0-19-15-36-36-36 z M1729 827c19 0 36 15 36 36l0 36c0 18-17 36-36 36l-71 0c-18 0-36-17-36-36l0-36c0-19 15-36 36-36l71 0 z M1514 827l-72 0c-19 0-36 15-36 36l0 36c0 18 17 36 36 36l72 0c18 0 36-17 36-36l0-36c0-19-15-36-36-36 z M1298 827c19 0 36 15 36 36l0 36c0 18-17 36-36 36l-72 0c-18 0-36-17-36-36l0-36c0-19 15-36 36-36l72 0 z M1083 827l-72 0c-19 0-36 15-36 36l0 36c0 18 17 36 36 36l72 0c18 0 35-17 35-36l0-36c0-19-17-36-35-36 z M2161 503l-72 0c-19 0-36 15-36 36l0 72c0 19 15 36 36 36l72 0c19 0 36-18 36-36l0-72c0-19-18-36-36-36 z M1945 503c19 0 36 15 36 36l0 72c0 19-15 36-36 36l-72 0c-19 0-36-15-36-36l0-72c0-19 15-36 36-36l72 0 z M1729 503l-71 0c-19 0-36 15-36 36l0 72c0 19 15 36 36 36l71 0c19 0 36-15 36-36l0-72c0-19-15-36-36-36 z M1514 503c19 0 36 15 36 36l0 72c0 19-15 36-36 36l-72 0c-19 0-36-15-36-36l0-72c0-19 15-36 36-36l72 0 z M1298 503l-72 0c-19 0-36 15-36 36l0 72c0 19 15 36 36 36l72 0c19 0 36-15 36-36l0-72c0-19-15-36-36-36 z M1083 503c18 0 35 17 35 36l0 72c0 19-17 36-35 36l-72 0c-19 0-36-15-36-36l0-72c0-19 15-36 36-36l72 0 z M867 503l-72 0c-19 0-36 15-36 36l0 72c0 19 15 36 36 36l72 0c19 0 36-15 36-36l0-72c0-19-15-36-36-36 z M2089 288l-72 0c-19 0-36 15-36 36l0 72c0 18 17 35 36 35l72 0c19 0 36-17 36-35l0-72c0-19-15-36-36-36 z M1873 288c19 0 36 15 36 36l0 72c0 18-17 35-36 35l-72 0c-19 0-36-17-36-35l0-72c0-19 15-36 36-36l72 0 z M1658 288l-72 0c-19 0-36 15-36 36l0 72c0 18 17 35 36 35l72 0c19 0 35-17 35-35l0-72c0-19-17-36-35-36 z M1442 288c19 0 36 15 36 36l0 72c0 18-17 35-36 35l-72 0c-19 0-36-17-36-35l0-72c0-19 15-36 36-36l72 0 z M1226 288l-72 0c-19 0-36 18-36 36l0 72c0 18 17 35 36 35l72 0c19 0 36-17 36-35l0-72c0-19-15-36-36-36 z M1011 288c19 0 36 18 36 36l0 72c0 18-17 35-36 35l-72 0c-19 0-36-17-36-35l0-72c0-19 15-36 36-36l72 0 z M1801 72c19 0 36 15 36 36l0 72c0 19-15 36-36 36l-790 0c-19 0-36-15-36-36l0-72c0-19 15-36 36-36l790 0 z M2017 72l-72 0c-19 0-36 15-36 36l0 72c0 19 15 36 36 36l72 0c19 0 36-15 36-36l0-72c0-19-15-36-36-36 z M867 72l-72 0c-19 0-36 15-36 36l0 72c0 19 15 36 36 36l72 0c19 0 36-15 36-36l0-72c0-19-15-36-36-36 z M795 288l-72 0c-19 0-36 15-36 36l0 72c0 18 17 35 36 35l72 0c19 0 36-17 36-35l0-72c0-19-15-36-36-36 z M651 503c19 0 36 15 36 36l0 72c0 19-15 36-36 36l-72 0c-18 0-36-17-36-36l0-72c0-18 17-36 36-36l72 0 z M651 827c19 0 36 15 36 36l0 36c0 18-17 36-36 36l-72 0c-18 0-36-17-36-36l0-36c0-18 17-36 36-36l72 0 z" fill="#998EA4"/>
	</g></svg>
