<svg version="1.1" xmlns="http://www.w3.org/2000/svg" viewBox="0 0 2300 2300"><g transform="scale(1,-1) translate(-256, -1869)">
		<path d="M2125-287c156 0 287 125 287 287l0 1438c0 156-125 287-287 287l-1438 0c-156 0-287-125-287-287l0-1438c0-161 130-287 287-287l1438 0 z" fill="#00A6ED"/>
		<path d="M1550 194c19 0 35 7 50 20l471 453c15 15 22 32 22 52 0 19-8 39-22 52l-471 453c-15 13-31 20-50 20-39 0-72-31-72-72l0-384-453 436c-13 13-30 20-50 20-39 0-72-31-72-72l0-907c0-41 33-71 72-71 20 0 37 7 50 20l453 436 0-385c0-41 33-71 72-71 z" fill="#FFFFFF"/>
	</g></svg>
