<svg version="1.1" xmlns="http://www.w3.org/2000/svg" viewBox="0 0 2300 2300"><g transform="scale(1,-1) translate(-256, -1869)">
		<path d="M2125-287c156 0 287 125 287 287l0 1438c0 156-125 287-287 287l-1438 0c-156 0-287-125-287-287l0-1438c0-161 130-287 287-287l1438 0 z" fill="#00A6ED"/>
		<path d="M1478 194c19 0 35 7 50 20l450 433 3 0 0-395c0-19 15-36 36-36l72 0c19 0 36 15 36 36l0 934c0 19-15 36-36 36l-72 0c-19 0-36-15-36-36l0-395-3 0-450 433c-15 13-31 20-50 20-39 0-72-31-72-72l0-381-3 0-450 433c-15 13-31 20-50 20-39 0-72-31-72-72l0-907c0-41 33-71 72-71 19 0 35 7 50 20l450 433 3 0 0-382c0-41 33-71 72-71 z" fill="#FFFFFF"/>
	</g></svg>
