<svg version="1.1" xmlns="http://www.w3.org/2000/svg" viewBox="0 0 2300 2300"><g transform="scale(1,-1) translate(-256, -1869)">
		<path d="M2033 862c25 0 46 9 64 27l75 74c18 18 27 40 27 65 0 25-9 46-27 64l-176 176c-18 18-40 27-65 27-25 0-46-9-64-27l-75-75c-18-18-27-39-27-64 0-25 9-46 27-64l176-176c18-18 40-27 65-27 z M780 862c25 0 47 9 65 27l176 176c18 18 27 39 27 64 0 25-9 47-26 64l-75 74c-18 18-39 27-64 27-25 0-47-9-65-27l-176-176c-18-18-27-39-27-64 0-25 9-46 27-64l74-74c18-18 39-27 64-27 z M1551 1222l0 216-144 72-144-72 0-216 288 0 z" fill="#D3D3D3"/>
		<path d="M1407-287c435 0 791 352 791 790 0 436-351 791-791 791-436 0-791-351-791-791 0-436 354-790 791-790 z M1603 1438c51 0 91 40 91 91l0 105c0 51-40 91-91 91l-393 0c-48 0-91-43-91-91l0-105c0-51 40-91 91-91l393 0 z" fill="#636363"/>
		<path d="M1407-144c355 0 647 288 647 647 0 355-288 647-647 647-355 0-647-288-647-647 0-355 288-647 647-647 z" fill="#FFFFFF"/>
		<path d="M1711 737c44 0 123 76 123 122 0 39-31 72-72 72-46 0-122-79-122-123 0-38 32-71 71-71 z" fill="#9B9B9B"/>
		<path d="M1051 76c-38 0-72 33-72 72 0 45 77 123 123 123 39 0 72-31 72-72 0-45-77-123-123-123 z M1102 736c38 0 72 31 72 71 0 45-78 124-123 124-42 0-72-36-72-73 0-46 79-122 123-122 z M1763 75c-42 0-123 77-123 123 0 39 31 72 72 72 45 0 123-77 123-123 0-39-34-72-72-72 z M976 431c38 0 72 33 72 72 0 39-34 72-72 72l-72 0c-39 0-72-31-72-72 0-39 34-72 72-72l72 0 z M1910 431l-72 0c-38 0-72 33-72 72 0 39 31 72 72 72l72 0c39 0 72-31 72-72 0-39-34-72-72-72 z M1407-72c38 0 72 33 72 72l0 72c0 39-31 72-72 72-39 0-72-31-72-72l0-72c0-38 33-72 72-72 z M1407 863c39 0 72 31 72 72l0 71c0 39-31 72-72 72-39 0-72-31-72-72l0-71c0-39 31-72 72-72 z" fill="#D3D3D3"/>
		<path d="M1406 431c20 0 37 7 51 21l356 356c14 14 21 31 21 50 0 39-31 72-72 72-19 0-36-7-50-21l-356-355c-14-14-21-31-21-51 0-38 31-72 71-72 z" fill="#F8312F"/>
	</g></svg>
