<svg version="1.1" xmlns="http://www.w3.org/2000/svg" viewBox="0 0 2300 2300"><g transform="scale(1,-1) translate(-256, -1869)">
		<path d="M2125-287c156 0 287 125 287 287l0 1438c0 156-125 287-287 287l-1438 0c-156 0-287-125-287-287l0-1438c0-161 130-287 287-287l1438 0 z" fill="#00A6ED"/>
		<path d="M1693 216c39 0 72 31 72 72l0 862c0 39-31 72-72 72l-143 0c-39 0-72-31-72-72l0-862c0-39 31-72 72-72l143 0 z M1262 216c39 0 72 31 72 72l0 862c0 39-31 72-72 72l-144 0c-40 0-71-34-71-72l0-862c0-38 31-72 71-72l144 0 z" fill="#FFFFFF"/>
	</g></svg>
