<svg version="1.1" xmlns="http://www.w3.org/2000/svg" viewBox="0 0 2300 2300"><g transform="scale(1,-1) translate(-256, -1869)">
		<path d="M1406-287c177 0 164 172 339 172 46 0 82-20 128-20 124 0 203 97 211 210 8 101 52 160 144 198 84 35 145 100 145 201 0 89-79 155-79 245 0 90 79 155 79 245 0 101-61 166-145 201-92 38-136 97-144 198-8 119-92 210-211 210-46 0-82-20-128-20-174 0-168 171-339 171-174 0-168-171-339-171-46 0-82 20-128 20-124 0-203-97-211-210-8-101-52-160-144-198-84-35-145-100-145-201 0-90 79-154 79-245 0-93-79-155-79-245 0-101 61-166 145-201 92-38 136-97 144-198 8-119 92-210 211-210 46 0 82 20 128 20 177 0 164-172 339-172 z" fill="#FF822D"/>
		<path d="M1406-33c415 0 752 338 752 752 0 415-338 752-752 752-415 0-752-338-752-752 0-415 338-752 752-752 z" fill="#FCD53F"/>
	</g></svg>
