<svg version="1.1" xmlns="http://www.w3.org/2000/svg" viewBox="0 0 2300 2300"><g transform="scale(1,-1) translate(-256, -1869)">
		<path d="M1046-147c68 0 132 13 193 38 61 25 115 62 163 110l436 435c8 8 12 18 12 30 0 12-4 22-12 31-8 9-18 13-30 13l-100 0 333 333c9 9 13 19 13 30 0 12-4 22-12 31-9 8-19 12-31 12l-100 0 283 283c8 8 12 18 12 29 0 15-4 25-13 32-9 7-19 11-31 13l-28 1-45-2 245 316c6 7 9 15 9 25 0 11-4 20-11 28-8 8-17 12-28 12-5 0-9-1-13-2-5-2-9-4-12-7l-317-245c0 9 1 20 2 34l0 11-1 28c-2 12-6 23-12 32-7 9-17 13-32 13-11 0-21-4-30-13l-283-284 0 100c0 12-4 22-13 31-9 8-19 12-31 12-12 0-22-4-30-12l-333-334 0 100c0 12-4 22-12 31-9 8-19 12-31 12-12 0-22-4-31-13l-434-435c-48-48-85-102-110-163-25-61-38-125-38-193 0-69 13-134 40-195 26-61 62-115 108-160 45-46 99-82 160-108 61-27 126-40 195-40 z" fill="#D3D3D3"/>
		<path d="M1623 735c32 0 54 24 54 54 0 30-22 54-54 54-32 0-54-24-54-54 0-30 22-54 54-54 z M1623 951c-32 0-54 24-54 54 0 30 22 54 54 54 32 0 54-24 54-54 0-30-22-54-54-54 z M1407 646c39 0 71 33 71 71 0 38-32 71-71 71-39 0-71-33-71-71 0-38 32-71 71-71 z M1156 789c-19 0-36 15-36 36 0 19 15 36 36 36 18 0 36-17 36-36 0-18-17-36-36-36 z M1515 430c19 0 36 15 36 36 0 19-15 36-36 36-19 0-36-15-36-36 0-19 15-36 36-36 z M1371 933c-19 0-36 15-36 36 0 19 15 36 36 36 19 0 36-15 36-36 0-19-15-36-36-36 z M1048-1c190 0 359 152 359 359 0 191-155 359-359 359-191 0-360-153-360-359 0-201 162-359 360-359 z M1803 1077c18 0 35 17 35 36 0 19-17 36-35 36-18 0-36-17-36-36 0-19 15-36 36-36 z" fill="#F8312F"/>
	</g></svg>
