<svg version="1.1" xmlns="http://www.w3.org/2000/svg" viewBox="0 0 2300 2300"><g transform="scale(1,-1) translate(-256, -1869)">
		<path d="M2125-287c156 0 287 125 287 287l0 1438c0 156-125 287-287 287l-1438 0c-156 0-287-125-287-287l0-1438c0-161 130-287 287-287l1438 0 z" fill="#8D65C5"/>
		<path d="M1938 487c5 0 8 3 8 9 0 11-1 23-4 36l-8 37c-3 12-6 24-8 36-3 12-4 24-4 36 0 5 6 12 17 23 11 11 24 22 37 34 13 12 26 23 37 34 11 10 17 17 17 22 0 7-8 11-23 14-15 2-32 4-51 5-19 1-37 3-54 5-17 2-26 6-29 11l-64 129c-2 3-5 5-8 5-6 0-12-7-19-21-7-15-13-30-20-47l-21-48c-7-15-13-22-18-23l-143-21c-5-1-7-4-7-9l2-6 59-55 33-34c9-10 14-16 14-19l0-1-6-31c-3-13-5-27-8-42-3-15-6-28-8-41-2-13-3-22-3-29 0-3 1-5 3-6 2-2 4-3 6-3 3 0 12 4 25 11 13 7 28 14 43 23l42 24c13 7 22 10 25 10 7 0 17-3 30-10 13-7 26-15 40-24 13-9 26-16 39-23 13-7 22-11 29-11 z M1478 0c140 0 303 38 418 109 9 5 13 13 13 22 0 14-12 26-27 26-3 0-6-1-10-2-85-31-164-47-250-47-330 0-647 247-647 611 0 350 302 611 647 611 86 0 167-17 250-48 4-1 7-2 10-2 14 0 27 12 27 27 0 9-4 17-13 22-118 73-280 109-418 109-405 0-791-293-791-719 0-428 388-719 791-719 z" fill="#FFFFFF"/>
	</g></svg>
