<svg version="1.1" xmlns="http://www.w3.org/2000/svg" viewBox="0 0 2300 2300"><g transform="scale(1,-1) translate(-256, -1869)">
		<path d="M2125-287c156 0 287 125 287 287l0 1438c0 156-125 287-287 287l-1438 0c-156 0-287-125-287-287l0-1438c0-161 130-287 287-287l1438 0 z" fill="#8D65C5"/>
		<path d="M759 72c20 0 37 7 51 21l380 381 165-165c14-14 31-21 51-21 38 0 72 31 72 71 0 20-7 37-21 51l-165 165 617 618 0-474c0-39 31-72 72-72 39 0 72 34 72 72l0 654c0 31-37 63-65 63l-654 0c-38 0-72-33-72-72 0-38 33-72 72-72l474 0-618-615-164 164c-14 14-31 21-51 21-38 0-72-33-72-72 0-19 7-36 21-50l165-165-380-380c-14-14-21-31-21-51 0-37 32-72 71-72 z" fill="#FFFFFF"/>
	</g></svg>
