<svg version="1.1" xmlns="http://www.w3.org/2000/svg" viewBox="0 0 2300 2300"><g transform="scale(1,-1) translate(-256, -1869)">
		<path d="M1981-287l0 143c0 121-97 216-215 216 50 49 75 116 75 181 0 200-255 290-255 394l0 288 36 0c80 0 143 62 143 143 0 80-64 144-143 144l-26 0c64 57 97 134 97 216 0 156-125 287-287 287-157 0-288-129-288-287 0-82 34-159 98-216l-26 0c-80 0-143-65-143-144 0-80 62-143 143-143l36 0 0-288c0-107-256-195-256-394 0-71 30-136 76-181-119 0-215-97-215-216l0-143 1150 0 z" fill="#635994"/>
	</g></svg>
