<svg version="1.1" xmlns="http://www.w3.org/2000/svg" viewBox="0 0 2300 2300"><g transform="scale(1,-1) translate(-256, -1869)">
		<path d="M946 433c41 0 160 163 184 199 38 64 66 126 66 198 0 39-5 73-15 100-44 114-137 152-192 264-14 28-26 63-26 107 0 90 66 204 66 266 0 4 0 14-7 14-49 0-152-157-178-204-25-47-40-88-40-139 0-71 23-121 57-164 64-84 162-146 162-306 0-76-25-145-52-216-8-24-33-84-33-108 0-7 3-11 8-11 z M1753 433c10 0 24 9 42 26 81 76 142 173 165 213 27 47 43 107 43 162 0 225-232 260-232 469 0 92 65 203 65 264 0 4 0 14-7 14-49 0-155-160-179-204-23-44-39-88-39-139 0-219 219-229 219-465 0-80-25-147-52-221-8-25-33-86-33-109 0-7 3-10 8-10 z M1406-289c440 0 933 295 933 781 0 90-14 167-57 256-20 44-107 191-158 191-15 0-20-15-20-27 0-73 81-187 81-296 0-400-433-599-780-599-121 0-242 21-355 64-218 80-424 269-424 527 0 122 81 234 81 303 0 12-6 28-21 28-52 0-137-146-158-191-39-84-57-162-57-253 0-77 12-149 37-218 123-344 495-566 898-566 z M1335 288c47 0 205 203 236 250 52 77 85 160 85 252 0 95-30 160-71 214-80 104-209 168-228 359l-1 13c0 111 84 251 84 331 0 5-1 18-9 18-62 0-201-202-228-256-29-55-50-113-50-176 0-85 41-177 96-235 109-114 184-183 184-347 0-20-1-39-2-59-8-107-106-275-106-351 0-8 1-13 10-13 z" fill="#F8312F"/>
	</g></svg>
