<svg version="1.1" xmlns="http://www.w3.org/2000/svg" viewBox="0 0 2300 2300"><g transform="scale(1,-1) translate(-256, -1869)">
		<path d="M2125-287c156 0 287 125 287 287l0 1438c0 156-125 287-287 287l-1438 0c-156 0-287-125-287-287l0-1438c0-161 130-287 287-287l1438 0 z" fill="#00A6ED"/>
		<path d="M2017 144l-71 0c-60 0-106 46-109 107-3 80-10 228-57 300-7 11-15 22-28 25l-341 62c-51 9-88 55-88 107 0 21 6 41 18 59l157 236c-32 32-52 57-101 57-27 0-53-8-78-16-83-27-104-110-165-110-39 0-71 33-71 71 0 16 5 30 14 43l0 1c69 93 182 155 300 155 37 0 74-8 111-25 53-24 142-110 142-173 0-22-6-42-18-60l-142-213 288-52c162-31 197-273 202-430l37 0c39 0 72-31 72-72 0-39-31-72-72-72 z M1190 72c-59 0-115 11-167 34-53 23-98 54-137 93-39 39-70 84-93 137-23 52-34 108-34 167 0 59 11 115 34 168 23 53 54 99 93 138 39 39 84 69 137 92 52 23 108 34 167 34 4 0 10 0 17 1 7 0 15 0 22-1 7-1 13-3 18-6 5-3 8-7 8-14l-2-8-58-107c-3-5-8-8-15-9l-37-4c-12-2-24-5-37-9-30-9-57-23-82-41-25-18-47-39-65-63-18-24-32-51-41-80-10-29-15-60-15-91 0-39 8-76 23-111 15-35 35-66 61-92 26-26 57-46 92-61 35-15 72-23 111-23 39 0 77 8 112 23 35 15 65 35 91 61 26 26 47 57 62 92 15 35 23 72 23 111 0 7 2 13 5 19 3 4 6 6 13 6l4 0 107-22c9-2 14-8 14-17 0-58-12-112-35-163-24-51-56-95-95-132-40-38-86-68-138-89-52-22-106-33-163-33 z M1765 1150c81 0 144 67 144 144 0 81-67 144-144 144-80 0-143-65-143-144 0-80 64-144 143-144 z" fill="#FFFFFF"/>
	</g></svg>
