<svg version="1.1" xmlns="http://www.w3.org/2000/svg" viewBox="0 0 2300 2300"><g transform="scale(1,-1) translate(-256, -1869)">
		<path d="M865-271c16 0 29 5 40 16l719 720c58 58 16 120 73 177l668 668c7 7 10 15 10 26 0 9-3 21-10 27l-104 104c-7 7-15 10-26 10-9 0-20-3-27-10l-667-668c-56-56-124-18-179-73l-718-720c-11-11-17-24-17-39 0-15 6-28 17-39l182-183c11-11 24-16 39-16 z" fill="#6D4534"/>
		<path d="M2083-270c15 0 28 5 39 16l183 183c11 11 16 24 16 39 0 15-5 28-16 39l-692 692c-62 60-121 18-178 75l-668 668c-7 7-15 10-26 10-11 0-19-3-26-10l-104-105c-7-7-11-16-11-27 0-10 4-19 11-26l667-667c60-60 15-120 74-179l692-692c11-11 24-16 39-16 z" fill="#A56953"/>
		<path d="M2259 680c56 0 102 40 111 93l36 205c4 22 6 45 6 68 0 108-44 209-117 282l-309 309c-11 11-24 16-39 16-15 0-28-5-39-16l-287-287c-11-11-16-24-16-39 0-15 5-28 16-39l559-559c22-22 48-33 79-33 z M741 656c15 0 28 6 39 17l600 599c11 11 16 24 16 39 0 15-5 28-16 39l-286 287c-11 11-24 16-40 16-15 0-28-5-39-16l-599-599c-11-11-17-25-17-40 0-15 6-28 17-39l286-286c11-11 24-17 39-17 z" fill="#B4ACBC"/>
	</g></svg>
