<svg version="1.1" xmlns="http://www.w3.org/2000/svg" viewBox="0 0 2300 2300"><g transform="scale(1,-1) translate(-256, -1869)">
		<path d="M1406-287c365 0 689 228 813 575l8 0c55 0 114 3 114 73l-42 295c-5 35-35 63-73 63-21 0-40-9-55-26l-244-285c-12-14-18-30-18-47 0-44 34-73 76-73-85-173-246-302-435-344l0 991 251 0c58 0 108 47 108 107 0 57-46 108-108 108l-251 0 0 199c49 42 72 102 72 161 0 119-97 215-216 215-121 0-216-97-216-215 0-59 23-119 72-161l0-199-251 0c-61 0-108-48-108-108 0-59 49-107 108-107l251 0 0-991c-192 43-351 174-435 344 42 0 76 29 76 73 0 17-6 33-18 47l-244 285c-15 17-34 26-55 26-38 0-68-28-73-63l-42-295c0-55 38-70 80-72l42-1c122-343 445-575 813-575 z M1406 1438c-39 0-72 31-72 72 0 40 34 71 72 71 38 0 72-31 72-71 0-39-31-72-72-72 z" fill="#00A6ED"/>
	</g></svg>
