<svg version="1.1" xmlns="http://www.w3.org/2000/svg" viewBox="0 0 2300 2300"><g transform="scale(1,-1) translate(-256, -1869)">
		<path d="M1128 717l98 38 41 103-243 315c-35 45-55 79-85 118-51 64-125 107-200 167l-329 256c-7-7-10-15-10-25l0-223c0-19 7-35 20-48l708-701 z M1106 146l300 296 272-269 164 110-113 184-184 113 112 27 27 111 708 700c13 13 20 29 20 48l0 223c0 11-4 19-11 25l-519-424c-77-62-129-96-195-152-108-91-186-204-282-325l-435-530 136-137 z" fill="#9B9B9B"/>
		<path d="M1842 283l138 136-296 299-139-138 297-297 z M970 283l1432 1432c-8 7-17 10-26 10l-223 0c-19 0-35-7-48-20l-699-706-699 706c-13 13-29 20-48 20l-223 0c-9 0-18-3-26-10l857-857-434-439 137-136 z" fill="#D3D3D3"/>
		<path d="M2156-168l137 137-382 382-137-137 382-382 z M656-168l382 382-137 137-382-382 137-137 z" fill="#321B41"/>
		<path d="M2179-288c27 0 49 10 68 29l136 136c19 19 29 42 29 68 0 52-44 97-97 97-27 0-49-9-68-28l-137-137c-19-19-29-43-29-68 0-53 45-97 98-97 z M633-288c54 0 97 43 97 97 0 27-9 49-28 68l-137 137c-19 19-41 28-68 28-53 0-98-44-98-97 0-25 10-49 29-68l137-136c19-19 42-29 68-29 z" fill="#635994"/>
		<path d="M1230 13c34 0 81 6 81 30l0 152c0 13-10 23-24 23-20 0-52-11-84-11-171 0-310 136-310 309 0 30 5 56 12 85l1 6c0 13-9 23-23 23l-152 0c-12 0-19-7-22-18-8-24-9-68-9-96 0-276 221-503 503-503l27 0 z M1607 13c279 0 505 223 505 505l-1 49c-2 33-5 64-30 64l-153 0c-12 0-22-11-22-23l1-6c7-28 12-56 12-85 0-170-139-310-310-310-30 0-56 5-85 12l-6 1c-14 0-23-11-23-23l0-152c0-25 48-32 84-32l28 0 z" fill="#533566"/>
	</g></svg>
