<svg version="1.1" xmlns="http://www.w3.org/2000/svg" viewBox="0 0 2300 2300"><g transform="scale(1,-1) translate(-256, -1869)">
		<path d="M1489-287c75 0 139 58 144 132l16 203c1 18 17 33 36 33 9 0 17-3 24-9l155-132c27-23 58-34 93-34 38 0 76 16 102 42l117 118c27 27 43 65 43 103 0 35-11 65-34 92l-132 155c-6 7-9 15-9 24 0 19 15 32 33 35l203 17c75 5 132 70 132 144l0 166c0 75-58 139-132 144l-203 16c-18 1-33 17-33 36 0 9 3 17 9 24l132 155c23 27 34 57 34 92 0 38-16 76-43 103l-117 117c-27 27-65 43-103 43-35 0-65-11-92-34l-155-132c-7-6-15-9-24-9-19 0-35 15-36 33l-16 203c-5 75-70 132-144 132l-166 0c-75 0-139-58-144-132l-17-203c-3-18-16-33-35-33-9 0-17 3-24 9l-155 132c-27 23-57 34-92 34-38 0-76-16-103-43l-118-117c-26-26-42-64-42-102 0-35 11-66 34-93l132-155c6-7 9-15 9-24 0-19-15-35-33-36l-203-16c-75-5-132-70-132-144l0-166c0-75 58-139 132-144l203-17c18-3 33-16 33-35 0-9-3-17-9-24l-132-155c-23-27-34-58-34-93 0-38 16-76 42-102l118-118c26-26 64-42 102-42 35 0 66 11 93 34l155 132c7 6 15 9 24 9 19 0 32-15 35-33l17-203c5-75 70-132 144-132l166 0 z M1406 360c-194 0-359 154-359 359 0 190 152 359 359 359 191 0 359-155 359-359 0-196-159-359-359-359 z" fill="#B4ACBC"/>
		<path d="M1406 144c315 0 575 252 575 575 0 315-252 575-575 575-315 0-575-252-575-575 0-315 252-575 575-575 z M1406 396c-179 0-323 144-323 323 0 179 144 323 323 323 179 0 323-144 323-323 0-179-144-323-323-323 z" fill="#998EA4"/>
		<path d="M1406 324c216 0 395 173 395 395 0 216-173 395-395 395-216 0-395-173-395-395 0-216 173-395 395-395 z M1406 360c-194 0-359 154-359 359 0 190 152 359 359 359 191 0 359-155 359-359 0-196-159-359-359-359 z" fill="#CDC4D6"/>
	</g></svg>
