<svg version="1.1" xmlns="http://www.w3.org/2000/svg" viewBox="0 0 2300 2300"><g transform="scale(1,-1) translate(-256, -1869)">
		<path d="M1673-66c33 0 63 5 92 16 29 10 55 24 79 43 23 19 44 41 61 67 17 25 30 53 40 84 7 23 11 46 11 68 0 5 0 10-1 17-1 6-3 12-6 17-3 5-6 9-10 13-5 3-10 5-17 5-9 0-17-6-25-17l-30-37c-11-13-25-26-41-37-16-11-36-17-60-17-25 0-48 6-70 19-22 13-41 29-57 49-17 19-30 41-39 65-9 24-14 48-14 71 0 39 10 75 30 110 20 35 46 65 77 92 31 26 66 47 105 62 38 15 75 23 111 23 32 0 60-5 85-16 24-11 45-27 62-46 17-20 29-43 38-69 9-27 13-55 13-85 0-4 0-10-1-18l-1-17 0-7c1-8 2-15 5-20 3-6 8-9 15-9 30 0 56 7 78 21 22 13 40 31 55 53 14 21 24 46 31 73 7 27 10 53 10 79 0 57-10 109-29 154-20 45-47 84-82 115-35 31-76 55-123 72-48 16-100 24-155 24-63 0-122-10-178-29-57-19-108-47-153-82-46-35-86-78-119-127-33-50-58-105-74-165-7 23-15 47-24 70-9 23-19 46-32 67-23 41-52 78-86 111-35 33-72 61-113 84-41 23-85 40-131 53-46 12-92 18-139 18-55 0-107-8-154-24-48-17-89-41-124-72-35-31-62-70-81-115-20-45-30-97-30-154 0-26 3-52 10-79 7-27 17-52 32-73 14-22 32-40 54-53 22-14 48-21 78-21 9 0 15 4 17 12 2 7 3 14 3 21 0 7 0 13-1 19-1 6-1 12-1 19 0 30 4 58 13 85 9 26 22 49 39 69 17 19 37 35 62 46 24 11 52 16 84 16 36 0 73-8 112-23 38-15 73-36 104-62 31-27 57-57 77-92 20-35 30-71 30-110 0-23-5-47-14-71-9-24-22-46-38-65-17-20-36-36-58-49-22-13-45-19-70-19-24 0-44 6-60 17-16 11-30 24-41 37-11 13-21 26-29 37-9 11-17 17-26 17-7 0-12-2-16-5-5-4-8-8-11-13-3-5-4-11-5-17-1-7-2-12-2-17 0-22 4-45 11-68 10-31 24-59 41-84 17-26 37-48 61-67 23-19 49-33 78-43 29-11 59-16 92-16 37 0 70 7 101 20 31 13 58 31 83 54 24 23 45 49 62 79 17 29 31 60 42 93 10-33 24-65 42-94 17-30 38-56 62-78 24-23 51-41 82-54 31-13 64-20 101-20 z" fill="#FF9F2E"/>
		<path d="M1415-271c18 0 30 8 45 20 68 58 162 161 162 264 0 100-81 202-144 267l0 282c0 176 359 236 359 588 0 29-1 55-4 78-20 169-186 282-353 454-21 21-41 43-72 43-30 0-50-22-72-43-97-95-197-176-269-268-74-92-92-144-92-264 0-118 39-204 93-271 104-132 266-201 266-317l0-282c-62-65-144-168-144-267 0-103 111-208 180-264 15-12 27-20 45-20 z" fill="#F9C23C"/>
		<path d="M1622 360c39 0 71 33 71 71 0 38-31 72-71 72l-432 0c-38 0-72-33-72-72 0-40 34-71 72-71l432 0 z" fill="#FF822D"/>
	</g></svg>
