<svg version="1.1" xmlns="http://www.w3.org/2000/svg" viewBox="0 0 2300 2300"><g transform="scale(1,-1) translate(-256, -1869)">
		<path d="M2316-259c54 0 96 42 96 96 0 17-4 33-13 48l-910 1577c-17 30-48 48-83 48-35 0-67-18-84-48l-909-1577c-9-15-13-31-13-48 0-54 42-96 96-96l1820 0 z" fill="#FFB02E"/>
		<path d="M1406-63c56 0 100 47 100 101 0 56-44 100-100 100-55 0-101-45-101-100 0-56 45-101 101-101 z M1406 223c55 0 100 43 100 102l0 658c0 55-45 101-100 101-57 0-101-48-101-101l0-659c0-56 45-101 101-101 z" fill="#000000"/>
	</g></svg>
