<svg version="1.1" xmlns="http://www.w3.org/2000/svg" viewBox="0 0 2300 2300"><g transform="scale(1,-1) translate(-256, -1869)">
		<path d="M1705-287c86 0 160 34 211 105 166 228 297 551 337 828l-55 74 69 70 1 37 0 72c0 11-1 23-2 35l-68 73 49 70c-7 28-15 56-26 83-37 94-127 206-240 206l-95 0-48 27 23 45c-85 175-258 287-455 287-195 0-373-112-455-287l24-42-51-30-93 0c-23 0-51-9-71-17-113-48-168-157-195-271l51-72-70-71c-2-24-3-48-3-72 0-24 1-49 2-73l69-72-55-70c35-253 129-489 256-704 25-43 51-86 80-126 50-69 123-105 212-105l598 0 z" fill="#E19747"/>
		<path d="M1888 1366c-7 25-16 49-27 72l-910 0c-11-23-20-47-27-72l964 0 z" fill="#D3883E"/>
		<path d="M2253 647c7 48 11 96 14 144l-1722 0c3-48 7-96 14-144l1694 0 z M2266 935c-3 48-9 96-20 143l-1680 0c-11-47-17-95-20-143l1720 0 z" fill="#8C5543"/>
	</g></svg>
