<svg version="1.1" xmlns="http://www.w3.org/2000/svg" viewBox="0 0 2300 2300"><g transform="scale(1,-1) translate(-256, -1869)">
		<path d="M2045-287c39 0 77 18 101 51l166 228c16 21 24 47 24 74 0 71-60 125-125 125-38 0-77-18-101-51l-166-227c-16-22-24-47-24-75 0-71 60-125 125-125 z M1686-96c39 0 77 18 101 51l166 227c16 21 24 45 24 74 0 71-60 125-125 125-38 0-79-19-102-51l-166-227c-16-22-24-47-24-74 0-70 58-125 126-125 z M888-287c39 0 77 18 101 51l166 228c16 21 24 47 24 74 0 71-60 125-125 125-38 0-79-19-102-51l-166-227c-16-21-24-46-24-74 0-69 56-126 126-126 z M528-96c38 0 79 19 102 51l166 227c15 21 24 46 24 73 0 69-56 126-126 126-38 0-77-18-101-51l-166-227c-16-21-24-46-24-74 0-71 60-125 125-125 z" fill="#3F5FFF"/>
		<path d="M1765 431c355 0 647 288 647 647 0 355-284 647-647 647-194 0-380-87-503-240-33 17-71 25-108 25-98 0-188-58-229-148-19 3-39 4-58 4-269 0-467-214-467-478 0-254 210-457 467-457l898 0 z" fill="#1345B7"/>
		<path d="M1291-77c11 0 19 4 24 12l349 524c3 5 5 11 5 16 0 7-2 12-5 17-3 4-8 7-13 9-5 2-11 3-17 4-6 1-12 1-17 1-15 0-29-1-43-2-14-2-28-3-43-3-5 0-11 0-17 1-7 1-13 2-18 4-5 2-10 5-13 9-3 4-5 10-5 17l0 302c0 8-3 15-8 21-6 5-13 8-21 8-11 0-19-4-24-13l-152-239-64-103-48-80c-13-23-19-36-19-39 0-13 4-21 13-24 9-3 19-5 30-5 6 0 14 0 23 1l8 0 17-1c8-1 15-4 21-8 5-4 8-11 8-21l0-380c0-8 3-15 9-20 5-5 12-8 20-8 z" fill="#FF6723"/>
	</g></svg>
