<svg version="1.1" xmlns="http://www.w3.org/2000/svg" viewBox="0 0 2300 2300"><g transform="scale(1,-1) translate(-256, -1869)">
		<path d="M2231-288c19 0 36 7 50 21l111 111c13 13 20 30 20 49 0 19-7 37-20 50l-1000 999-274 29 64-238 1000-1000c14-14 30-21 49-21 z M902 1013l210 210-106 106c-9 9-20 13-33 13-13 0-24-4-33-13l-144-144c-9-9-14-20-14-33 0-13 5-24 14-33l106-106 z" fill="#7D4533"/>
		<path d="M449 229c13 0 25 5 34 14l523 523c5 5 11 7 19 7 36 0 66-77 105-77 11 0 20 4 27 11l262 262c7 7 10 15 10 26 0 43-77 70-77 105 0 8 3 15 8 20l523 523c9 9 14 20 14 33 0 26-22 49-49 49l-12-1c-245-63-493-180-717-347-352-263-614-667-718-1088l-1-12c0-27 23-48 49-48 z" fill="#B4ACBC"/>
	</g></svg>
