<svg version="1.1" xmlns="http://www.w3.org/2000/svg" viewBox="0 0 2300 2300"><g transform="scale(1,-1) translate(-256, -1869)">
		<path d="M1440-317c319 0 602 256 602 603l0 217c0 29-22 52-52 52-29 0-52-24-52-52l0-217c0-273-219-499-498-499-269 0-499 213-499 499l0 217c0 29-22 52-52 52-28 0-52-23-52-52l0-217c0-331 270-603 603-603 z" fill="#9B9B9B"/>
		<path d="M2181 643l0 409c0 256-207 465-465 465l-552 0c-254 0-465-204-465-465l0-409 1482 0 z" fill="#CA0B4A"/>
		<path d="M1790 643l0 770c0 134-109 240-240 240l-220 0c-134 0-240-109-240-240l0-770 700 0 z" fill="#F8312F"/>
		<path d="M1440 858c49 0 89 38 89 88l0 70 70 0c48 0 88 40 88 88 0 48-39 89-88 89l-70 0 0 69c0 50-39 89-89 89-48 0-88-41-88-89l0-69-70 0c-50 0-88-40-88-89 0-49 38-88 88-88l70 0 0-70c0-48 40-88 88-88 z" fill="#FFFFFF"/>
		<path d="M2185 414c84 0 150 71 150 150 0 82-65 151-150 151l-1491 0c-82 0-151-67-151-151 0-83 69-150 151-150l1491 0 z" fill="#F8312F"/>
		<path d="M1440-360c165 0 343 67 458 190 18 19 27 42 27 67 0 54-42 96-96 96-25 0-47-9-67-28-96-90-195-135-322-135-125 0-226 45-323 135-20 19-43 28-68 28-54 0-95-44-95-96 0-25 9-47 28-67 115-123 293-190 458-190 z" fill="#990838"/>
	</g></svg>
