<svg version="1.1" xmlns="http://www.w3.org/2000/svg" viewBox="0 0 2300 2300"><g transform="scale(1,-1) translate(-256, -1869)">
		<path d="M2271-215l0 467-518 323 86 0 0 465-432 326-430-326 0-465 86 0-517-323 0-467 1725 0 z" fill="#FFCE7C"/>
		<path d="M1552-144l0 432c0 80-65 143-144 143-80 0-144-64-144-143l0-432 288 0 z" fill="#321B41"/>
		<path d="M1921-144l0 246c0 61-49 114-113 114-65 0-114-53-114-114l0-246 227 0 z M1120-144l-225 0 0 247c0 65 53 113 113 113 61 0 113-51 113-113l-1 0 0-247 z M1522 719c16 0 30 14 30 30l0 186c0 80-65 143-144 143-80 0-144-64-144-143l0-186c0-18 15-30 31-30l227 0 z" fill="#00A6ED"/>
		<path d="M459 144c-38 0-58 26-58 65l1 0c0 20 10 38 27 49l881 550c29 19 62 28 99 28 35 0 68-9 99-28l879-550c17-11 27-29 27-49 0-31-25-58-58-58-11 0-21 3-30 9l-799 498c-32 21-81 43-121 43-41 0-84-22-116-43l-800-505c-9-6-20-9-31-9 z M2414-287l0 48c0 54-42 96-96 96l-1822 0c-54 0-96-42-96-96l0-48 2014 0 z M1861 1006c17 0 31 6 43 18 11 11 17 25 17 42 0 21-9 37-26 49l-423 302c-9 5-18 10-29 15l0 149 30 0c6 0 12 1 17 2 7 2 13 6 18 11 5 5 7 12 7 23 0 11-2 19-7 24-5 5-11 8-18 10-7 2-15 3-24 3-9-1-16-1-23-1 0 7 0 14 1 23 0 9-1 17-3 24-2 7-5 13-10 18-5 5-13 7-24 7-11 0-18-2-23-7-5-5-9-11-11-18-1-5-2-11-2-17l0-30c-7 0-15 0-23 1-9 0-16-1-23-3-7-2-13-5-18-10-5-5-7-13-7-24 0-11 2-18 7-23 5-5 11-9 18-11 5-1 11-2 17-2l29 0 0-149c-9-4-19-9-28-15l-424-302c-7-5-13-12-18-21-5-9-7-19-7-28 0-17 6-31 19-42 12-12 26-18 42-18 13 0 24 4 35 11l363 260c17 11 35 17 55 17 20 0 38-6 55-17l363-260c11-7 22-11 35-11 z" fill="#8C5543"/>
	</g></svg>
