<svg version="1.1" xmlns="http://www.w3.org/2000/svg" viewBox="0 0 2300 2300"><g transform="scale(1,-1) translate(-256, -1869)">
		<path d="M1763-288l1 47c-1 50-19 97-78 97l-65 0 0 217c325 0 647 230 647 576 0 39-22 71-66 71l-1592 0c-38 0-67-26-67-66 0-347 317-581 647-581l0-217-47 0c-51 0-96-17-96-78l0-66 716 0 z" fill="#B4ACBC"/>
		<path d="M687 791c39 0 72 31 72 72 0 39-31 72-72 72-38 0-72-33-72-72 0-38 33-72 72-72 z M2125 1366c39 0 72 34 72 72 0 38-33 72-72 72-39 0-72-31-72-72 0-39 31-72 72-72 z M1405 791c10 0 19 2 26 7 7 4 12 10 17 17 4 7 7 14 10 23 2 9 3 17 4 25l19 310c1 7 4 13 9 19 5 6 11 11 18 16 7 4 14 7 21 10 7 2 14 3 20 3 21 0 37-5 47-14 10-10 17-22 21-37 4-15 6-30 6-47-1-17-1-33-1-47 0-19 4-37 12-54 8-17 19-32 32-44 13-13 28-23 45-30 17-7 35-11 54-11 19 0 38 4 55 11 17 7 32 17 45 30 13 12 23 27 31 44 7 17 11 35 12 54l1 0 0 147c0 39-7 77-22 112-15 35-36 65-62 91-26 26-56 47-91 62-35 15-73 22-112 22-42 0-82-8-119-25-37-17-70-42-97-74-28 31-60 56-97 73-37 17-77 26-119 26-39 0-76-7-111-22-35-15-66-36-92-62-26-26-46-56-61-91-15-35-23-73-23-112l0-146 1 0c1-19 5-37 13-54 7-17 17-32 30-45 13-13 28-22 45-29 17-7 36-11 55-11 19 0 37 4 54 11 17 7 33 17 46 30 13 12 23 27 31 44 8 17 12 35 12 54l0 55c0 13 2 26 5 38 3 15 10 27 20 37 10 10 26 15 47 15 6 0 13-1 20-3 7-3 15-6 22-10 7-5 13-10 18-16 5-6 7-12 8-19l18-311c1-8 2-16 5-25 2-9 5-16 10-23 5-7 11-13 18-17 7-5 15-7 24-7 z" fill="#83CBFF"/>
	</g></svg>
