<svg version="1.1" xmlns="http://www.w3.org/2000/svg" viewBox="0 0 2300 2300"><g transform="scale(1,-1) translate(-256, -1869)">
		<path d="M2412-179l0 251-153 232 153 199 0 360-71 72 71 71 0 72c-3 17-9 35-16 54-8 19-15 37-20 54l20 57 16 51 0 144-647 0c-21 0-36-5-46-14-10-10-17-22-21-37-3-12-5-25-5-38l0-55-207 0 33 35c11 12 22 24 31 37l14 21c7 11 16 24 27 39l32 47 54 83 9 16c0 6-3 9-9 9l-184 0c-11 0-19-3-26-10l-205-205 64-72-423 0 50-72 131-72-30-72 49-73c16-25 33-49 51-70l23-17c5-5 11-9 16-12l9-7-48-36c0-13-4-26-11-39-8-13-16-24-25-33l0-71-106-53c-10-5-18-10-25-13l-12-7-73-72-71-72-24-37c-7-11-13-23-19-34-7-11-13-23-19-34l-190-326c12-7 21-17 27-31 6-14 9-28 9-41l2-48c1-20 3-40 8-59 5-20 12-37 22-51 9-14 23-21 40-21l1725 0 z" fill="#CDC4D6"/>
		<path d="M2413-287l0 215c-122 0-137-80-252-80-122 0-138 80-253 80-121 0-136-80-251-80-121 0-137 80-252 80-121 0-136-80-251-80-121 0-137 80-252 80-121 0-136-80-251-80-121 0-136 80-251 80l0-215 2013 0 z" fill="#5092FF"/>
		<path d="M1263 1078l-208 0-102 144 310 0c39 0 72-31 72-72 0-38-33-72-72-72 z M2274 647c-39 0-72 34-72 72 0 38 33 72 72 72 39 0 72-31 72-72 0-39-31-72-72-72 z M2059 647c39 0 72 34 72 72 0 38-33 72-72 72-39 0-72-31-72-72 0-39 31-72 72-72 z M1843 647c-39 0-72 31-72 72 0 39 31 72 72 72 39 0 72-31 72-72 0-39-31-72-72-72 z M1627 647c39 0 72 31 72 72 0 39-31 72-72 72-40 0-71-34-71-72 0-38 31-72 71-72 z M1412 647c-39 0-72 31-72 72 0 39 31 72 72 72 39 0 72-31 72-72 0-39-31-72-72-72 z M1190 647l-216 0 144 144 72 0c38 0 72-33 72-72 0-39-34-72-72-72 z M2412 1078l0 216-605 0c-19 0-36-15-36-36l0-144c0-19 15-36 36-36l605 0 z" fill="#00A6ED"/>
		<path d="M1478 396c129 0 187 6 311 12l623 23 0 72-1761 0c-19 0-36-15-36-36l0-36 575-23c115-5 183-12 288-12 z M1873 897c68 0 112 8 180 13l359 25 0 71-1042 0c-19 0-36-17-36-35l0-36 359-25c70-5 115-13 180-13 z" fill="#433B6B"/>
		<path d="M2412 72l-1833 0c-91 0-179 48-179 144l0 144c0 40 34 71 72 71l1940 0 0-359 z M2412 863l0 72-1329 0c-18 0-36-17-36-36 0-19 15-36 36-36l1329 0 z M1693 1294l0 72-826 0c-19 0-36-15-36-36 0-19 15-36 36-36l826 0 z" fill="#0084CE"/>
		<path d="M1693 1006l0 288-71 0 0-288 71 0 z" fill="#B4ACBC"/>
	</g></svg>
