<svg version="1.1" xmlns="http://www.w3.org/2000/svg" viewBox="0 0 2300 2300"><g transform="scale(1,-1) translate(-256, -1869)">
		<path d="M1526 575l180 69c-7 25-14 51-20 78-8 29-1 15-34 106-27 76-88 227-88 237 0 11 4 17 12 19 7 1 15 2 22 2 68 0 131-10 195-34 13-5 21-14 22-28 5-60 15-126 15-187 0-26-23-32-23-61l0-24c0-55 44-65 89-65 37 0 65 30 65 65 0 111-3 210-6 321 0 67-60 85-110 111-132 65-277 100-418 100-27 0-54-1-81-4-99-11-144-114-144-198 0-29 6-59 11-88 19-127 61-223 110-350l203-69 z" fill="#8B5C56"/>
		<path d="M1029-287c45 0 64 59 79 97 46 116 88 214 135 332 15 37 39 67 72 88l233 148 0-1c42-63 108-170 197-170 20 0 37 6 56 15l327 174c15 8 42 14 58 14 69 0 125-144 199-144 12 0 26 4 26 19l-1 6-120 302c-9 23-22 40-49 40-51 0-381-211-415-211-10 0-18 4-25 12l-96 108c3 13 4 26 4 41 0 20-2 40-3 60-67-8-132-20-200-20-62 0-120 10-184 20 1-15 3-27 3-42 0-40-17-80-43-110l-123-135c-32-36-58-78-73-125l-75-227c-13-38-42-77-88-77-48 0-97 21-151 21-21 0-71-2-71-33 0-7 3-12 8-15l283-174c12-7 22-13 37-13 z" fill="#8B5C56"/>
		<path d="M1719 188c9 0 15 3 19 9 41 63 80 154 80 232 0 7-4 17-8 23-40 55-77 110-114 166l-153-248c35-69 73-115 132-156 11-8 30-26 44-26 z" fill="#636363"/>
		<path d="M789 667c29 0 50 56 83 59l96 7c56 4 104 25 143 62l129 122-22 251-185-256c-16-22-37-37-64-44-109-29-218-49-310-112-16-11-43-23-43-44 0-16 10-30 28-30 24 0 78 40 96 40 6 0 12-1 17-3 10-4 6-25 10-40 2-8 9-12 22-12 z" fill="#966661"/>
		<path d="M1355 235c7 0 13 2 18 5l233 144c16 10 31 22 44 36 13 14 24 29 33 46 9 16 17 33 22 52 5 19 8 37 8 56l0 15-3 23c-1 7-3 14-5 20-3 6-6 9-10 9-13 0-27-2-42-5-15-4-30-7-43-9-32-6-65-9-98-9-31 0-62 3-92 9l-93 16c-3 0-4-2-6-5-3-5-5-10-7-15l-5-17-3-11c-6-18-13-33-20-46-7-13-16-26-25-37-9-11-20-22-31-33l-36-36c-6-6-9-14-9-23 0-7 3-17 10-28 7-12 15-25 26-38 10-14 22-28 35-42 13-14 25-27 38-38 12-11 24-21 35-28 11-7 19-11 26-11 z" fill="#9B9B9B"/>
		<path d="M723 288c98 0 180 79 180 179 0 98-78 180-180 180-98 0-180-78-180-180 0-98 79-179 180-179 z" fill="#FF6723"/>
		<path d="M729 288c-3 46-20 90-50 122l45 44 120-120 12 13-120 120 45 44c33-30 76-48 122-49l0 5-1 12c-41 1-78 16-109 44l64 64-12 13-65-65c-28 30-43 71-46 112l-17 0c2-47 19-89 51-124l-44-44-122 121-12-12 122-121-45-45c-34 30-77 48-123 51l-1-6 1-11c41-3 80-18 111-46l-64-64 12-12 63 63c28-31 43-69 46-109l17 0 z" fill="#000000"/>
		<path d="M1123-153c31 73 59 147 90 222l-156 72c-16-43-40-148-72-183 47-36 91-74 138-111 z" fill="#D3D3D3"/>
		<path d="M1036-316c-2 0-4 1-7 2l-325 200c-8 5-12 12-12 23 0 9 7 21 15 31 15 18 25 35 43 35 24 0 78-34 125-34 33 0 112 20 123 63 7 5 9 9 17 9 22 0 49-74 70-74 7 0 15 2 15 9 7 9 16 14 27 14 23 0 39-24 39-45 0-9-3-16-7-24l-82-180c-5-12-29-29-41-29 z M2353 247c-36 0-49 99-139 128-17 7-34 13-53 13-18 0-27-8-42-11-2-2-2-2-8-2-15 0-16 9-16 21l2 22 1 29c-1 20-4 37-18 37-5 0-12-4-19-4-22 0-33 20-33 38 0 22 11 32 29 43l171 97c6 3 19 4 25 4 9 0 26 0 30-11 12-35 145-345 145-362 0-12-7-24-19-27-15-4-41-15-56-15 z M1510 611c32 0 64 2 95 5 31 3 63 7 95 12 7 1 12 5 16 10 4 5 6 10 6 17 0 3-3 14-8 31l-22 64-30 81-32 83-44 116c-3 9-9 13-17 13-7 0-15-2-22-5-7-3-15-5-22-5-19 0-36 7-49 22-13 14-20 30-20 49 0 13 2 27 7 43 4 15 9 31 15 46 6 15 12 30 19 44l15 37 1 3-2 5c-2 2-4 3-7 3l-66 0c-3 0-5-1-8-4l-18-42c-6-15-13-28-22-40-9-12-19-22-31-29-12-7-27-11-46-11-17 0-32 4-45 11-13 7-25 16-37 28-10-19-16-38-18-57-3-19-4-40-4-62 0-20 1-42 2-65 1-23 3-47 6-71 3-24 6-47 10-70 4-23 9-45 14-64 7-27 15-53 23-80 8-27 16-53 23-80 3-9 10-15 21-18 33-7 67-12 101-15 33-3 67-5 101-5 z" fill="#FF6723"/>
		<path d="M1442 1375c29 0 52 22 52 52 0 28-23 52-52 52-28 0-52-23-52-52 0-28 23-52 52-52 z M1138 1375c28 0 52 23 52 52 0 28-23 52-52 52-28 0-52-23-52-52 0-29 22-52 52-52 z" fill="#8B5C56"/>
		<path d="M1321 1222c60 0 117 48 122 107 4 65 12 133 12 198 0 71-56 129-129 129l-70 0c-73 0-129-57-129-131 0-64 8-131 12-196 3-59 66-107 122-107l60 0 z" fill="#966661"/>
		<path d="M1291 1305c14 0 53 16 53 32-1 1-1 3-1 3-3 0-2 1-7 1-15-7-30-11-46-11-19 0-44 12-48 12-3 0-4-1-4-3l0-5c13-19 30-29 53-29 z" fill="#990839"/>
		<path d="M1303 1360c5 0 10 2 13 7 2 4 3 8 3 11l0 4-3 14c-1 7-3 14-5 21l-9 19c-3 5-7 8-11 8-2 0-4-1-7-2-3-2-5-4-6-7-1-3-3-8-4-13l-6-16-5-17-2-12c0-5 2-9 5-12 3-3 7-5 12-5l25 0 z" fill="#75443E"/>
		<path d="M1401 1425l-71 0c-5 0-7 3-7 8 0 20 24 37 43 37 19 0 44-14 44-36 0-7-5-6-9-9 z M1251 1425c5 0 7 3 7 8 0 20-24 37-43 37-19 0-44-14-44-36 0-7 5-6 9-9l71 0 z" fill="#FFFFFF"/>
		<path d="M1387 1425l-54 0c-1 3-2 5-2 8 0 16 15 28 29 28 16 0 28-12 28-28l-1-8 z M1248 1425l1 9c0 14-13 27-28 27-16 0-28-12-28-28l1-8 54 0 z" fill="#7D4533"/>
		<path d="M1374 1425l-28 0c-1 2-2 5-2 8 0 11 5 16 16 16 11 0 16-5 16-16 0-3-1-6-2-8 z M1235 1425c1 2 2 5 2 8 0 11-5 16-16 16-11 0-16-5-16-16l2-8 28 0 z" fill="#000000"/>
		<path d="M1351 1439c3 0 5 2 5 5 0 3-2 5-5 5-3 0-5-2-5-5 0-3 2-5 5-5 z M1211 1439c3 0 5 2 5 5 0 3-2 5-5 5-3-2-5-4-5-5 0-2 2-4 5-5 z" fill="#FFFFFF"/>
		<path d="M1399 1490c6 0 9 3 9 8 0 4-2 8-6 11-5 3-10 5-15 7-6 2-12 3-18 4-6 1-11 1-14 1-4 0-8 0-12-1-4-1-6-4-6-9 0-4 2-7 5-7l14 0c10 0 19-2 28-7 8-5 13-7 15-7 z M1181 1490c3 0 24 13 53 13 6 0 9 3 9 9 0 5-2 8-6 9l-12 0c-13 0-53-6-53-22 0-4 4-9 9-9 z" fill="#372128"/>
		<path d="M1433 1293c24 11 40 35 40 62l0 30c-7-5-16-9-27-10-3-30-2-55-13-82 z M1150 1293c-12 27-11 54-14 82-10 0-19 3-28 10l0-29c0-26 16-52 42-63 z M1473 1469c0 11 1 21 4 28 2 7 4 13 7 18 3 5 5 11 8 17 2 5 3 13 3 22 0 19-3 33-10 42-7 9-16 16-26 21-10 5-20 11-31 16-11 5-19 14-26 25-7 11-16 20-27 27-11 6-24 9-37 9-9 0-17-2-24-5-7-3-15-5-24-5-8 0-16 2-23 5-7 3-16 5-25 5-25 0-46-12-62-35-7-11-16-20-27-25l-31-18c-10-6-18-13-25-22-7-9-11-23-11-40 0-9 1-17 4-22 2-6 4-12 7-17 3-5 5-11 8-18 2-7 3-17 3-28 6 5 13 8 22 9l0 26c0 30 10 55 31 76 20 20 45 30 75 30l40 0c9 0 15-4 20-13 6-13 13-23 21-29 8-7 17-11 27-13 10-3 21-4 32-4l35 0c11 0 19-2 25-7 6-5 10-11 13-18 3-7 4-15 4-24l0-25 2 0c3 0 5-1 9-2l9-6 z" fill="#2D242D"/>
		<path d="M2392 257l-164 401c9 4 19 10 30 10 13 0 21-6 26-17 16-36 145-349 145-363 0-22-18-26-37-31 z M1043-318c19 0 25 16 34 31l-368 227c-8-11-17-18-17-31 0-11 4-18 12-23l325-200c3-3 8-4 14-4 z M1161-63c-7 13-18 25-34 25-11 0-20-5-27-14 0-7-8-9-15-9-24 0-46 74-71 74l43 129 157-73c-17-44-34-88-53-132 z M2013 335l-70 146 87 48-2-12c0-6 2-13 6-20 6-11 15-17 27-17 4 0 7 2 12 2 3 1 5 2 7 2 5 0 9-2 12-5 3-4 5-8 5-13l-1-44-1-13 1-12c0-8 1-13 2-16l-85-46 z M1817 988c-6 0-8 12-8 22l0 7c-3 32-41 32-41 40 0 4 26 69 46 114 9 22 9 30 16 30 5 0 10-2 14-6 54-28 123-48 123-125l0-68c0-4-2-6-5-6-18-3-120-8-145-8 z M1502 1546c8 0 12 4 12 13l0 45c0 9-4 13-12 13l-408 0c-7 0-11-6-11-13l0-45c0-7 4-13 11-13l408 0 z" fill="#D3D3D3"/>
	</g></svg>
