<svg version="1.1" xmlns="http://www.w3.org/2000/svg" viewBox="0 0 2300 2300"><g transform="scale(1,-1) translate(-256, -1869)">
		<path d="M1526 575l180 69c-7 25-14 51-20 78-8 29-1 15-34 106-27 76-88 227-88 237 0 11 4 17 12 19 7 1 15 2 22 2 68 0 131-10 195-34 13-5 21-14 22-28 5-60 15-126 15-187 0-26-23-32-23-61l0-24c0-55 44-65 89-65 37 0 65 30 65 65 0 111-3 210-6 321 0 67-60 85-110 111-132 65-277 100-418 100-27 0-54-1-81-4-99-11-144-114-144-198 0-29 6-59 11-88 19-127 61-223 110-350l203-69 z" fill="#8B5C56"/>
		<path d="M1029-287c45 0 64 59 79 97 46 116 88 214 135 332 15 37 39 67 72 88l233 148 0-1c42-63 108-170 197-170 20 0 37 6 56 15l327 174c15 8 42 14 58 14 69 0 125-144 199-144 12 0 26 4 26 19l-1 6-120 302c-9 23-22 40-49 40-51 0-381-211-415-211-10 0-18 4-25 12l-96 108c3 13 4 26 4 41 0 20-2 40-3 60-67-8-132-20-200-20-62 0-120 10-184 20 1-15 3-27 3-42 0-40-17-80-43-110l-123-135c-32-36-58-78-73-125l-75-227c-13-38-42-77-88-77-48 0-97 21-151 21-21 0-71-2-71-33 0-7 3-12 8-15l283-174c12-7 22-13 37-13 z" fill="#8B5C56"/>
		<path d="M1719 188c9 0 15 3 19 9 41 63 80 154 80 232 0 7-4 17-8 23-40 55-77 110-114 166l-153-248c35-69 73-115 132-156 11-8 30-26 44-26 z" fill="#636363"/>
		<path d="M789 667c29 0 50 56 83 59l96 7c56 4 104 25 143 62l129 122-22 251-185-256c-16-22-37-37-64-44-109-29-218-49-310-112-16-11-43-23-43-44 0-16 10-30 28-30 24 0 78 40 96 40 6 0 12-1 17-3 10-4 6-25 10-40 2-8 9-12 22-12 z" fill="#966661"/>
		<path d="M1355 235c7 0 13 2 18 5l233 144c16 10 31 22 44 36 13 14 24 29 33 46 9 16 17 33 22 52 5 19 8 37 8 56l0 15-3 23c-1 7-3 14-5 20-3 6-6 9-10 9-13 0-27-2-42-5-15-4-30-7-43-9-32-6-65-9-98-9-31 0-62 3-92 9l-93 16c-3 0-4-2-6-5-3-5-5-10-7-15l-5-17-3-11c-6-18-13-33-20-46-7-13-16-26-25-37-9-11-20-22-31-33l-36-36c-6-6-9-14-9-23 0-7 3-17 10-28 7-12 15-25 26-38 10-14 22-28 35-42 13-14 25-27 38-38 12-11 24-21 35-28 11-7 19-11 26-11 z" fill="#9B9B9B"/>
		<path d="M1510 611c32 0 64 2 95 5 31 3 63 7 95 12 7 1 12 5 16 10 4 5 6 10 6 17 0 3-3 14-8 31l-22 64-30 81-32 83-44 116c-3 9-9 13-17 13-7 0-14-2-21-5-7-3-15-5-23-5-19 0-36 7-49 22-13 14-20 30-20 49 0 13 2 27 7 43 4 15 9 31 15 46 6 15 12 30 19 44l15 37 1 3-2 5c-2 2-4 3-7 3l-66 0c-3 0-5-1-8-4l-18-42c-6-15-13-28-22-40-9-12-19-22-31-29-12-7-27-11-46-11-17 0-32 4-45 11-13 7-25 16-37 28-10-19-16-38-18-57-3-19-4-40-4-62 0-20 1-42 2-65 1-23 3-47 6-71 3-24 6-47 10-70 4-23 9-45 14-64 7-27 15-53 23-80 8-27 16-53 23-80 1-5 4-9 8-12 4-3 8-5 13-6 32-9 66-14 101-16 35-3 68-4 101-4 z" fill="#00A6ED"/>
		<path d="M723 288c98 0 180 79 180 179 0 98-78 180-180 180-98 0-180-78-180-180 0-98 79-179 180-179 z" fill="#FF6723"/>
		<path d="M729 288c-3 46-20 90-50 122l45 44 120-120 12 13-120 120 45 44c33-30 76-48 122-49l0 5-1 12c-41 1-78 16-109 44l64 64-12 13-65-65c-28 30-43 71-46 112l-17 0c2-47 19-89 51-124l-44-44-122 121-12-12 122-121-45-45c-34 30-77 48-123 51l-1-6 1-11c41-3 80-18 111-46l-64-64 12-12 63 63c28-31 43-69 46-109l17 0 z" fill="#000000"/>
		<path d="M1143-106c25 60 48 114 71 175l-157 73c-16-48-37-136-66-176l152-72 z M2013 335c43 23 85 48 129 67l-71 149-128-70 70-146 z" fill="#D3D3D3"/>
		<path d="M1036-316c12 0 36 17 41 29l82 180c4 8 7 15 7 24 0 21-16 45-39 45-11 0-20-5-27-14 0-7-8-9-15-9-22 0-49 74-70 74-8 0-10-4-17-9-11-41-87-63-123-63-47 0-101 34-125 34-9 0-15-3-20-9-11-13-38-38-38-57 0-11 4-18 12-23l325-200 7-2 z M2353 247c18 0 39 10 56 15 12 3 19 15 19 27 0 16-134 328-145 362-4 11-21 11-30 11-6 0-19-1-25-4l-171-97c-18-11-29-21-29-43 0-18 11-38 33-38 6 0 14 4 19 4 9 0 17-9 17-18 0-14-2-42-2-63 0-21 3-28 16-28 6 0 6 0 8 2 15 3 24 11 42 11 19 0 36-6 53-13 92-30 102-128 139-128 z" fill="#00A6ED"/>
		<path d="M1440 1372c27 0 51 22 51 51 0 29-21 51-51 51-27 0-51-22-51-51 0-27 22-51 51-51 z M1141 1372c27 0 51 22 51 51 0 27-22 51-51 51-27 0-51-22-51-51 0-27 22-51 51-51 z" fill="#8B5C56"/>
		<path d="M1341 1224c54 0 96 39 100 93 4 61 12 125 12 186 0 81-65 149-149 149l-27 0c-83 0-150-69-150-150 0-62 8-125 12-185 4-57 49-93 101-93l101 0 z" fill="#966661"/>
		<path d="M1290 1302c13 0 54 14 54 31 0 3-2 5-5 5-10 0-30-11-49-11-19 0-39 11-49 11-3 0-4-1-4-4 0-16 39-32 53-32 z" fill="#990838"/>
		<path d="M1302 1358c9 0 17 8 17 17 0 5-15 49-18 57-2 5-6 8-11 8-5 0-9-3-11-8-3-11-18-49-18-57 0-9 8-17 17-17l24 0 z" fill="#75443E"/>
		<path d="M1399 1423l-70 0c-5 0-7 2-7 6 0 22 24 37 43 37 18 0 43-16 43-35 0-5-5-8-9-8 z M1251 1423c5 0 8 3 8 8 0 19-26 35-44 35-19 0-42-16-42-35 0-5 5-8 9-8l69 0 z" fill="#FFFFFF"/>
		<path d="M1386 1423l-54 0-1 10c0 15 15 25 28 25 14 0 28-13 28-28l-1-7 z M1249 1423c0 22-5 35-27 35-14 0-28-13-28-28l0-4 1-3 54 0 z" fill="#7D4533"/>
		<path d="M1372 1423l-28 0-1 7c0 8 8 16 16 16 8 0 15-8 15-16 0-3-1-6-2-7 z M1236 1423c1 3 2 5 2 7 0 8-8 16-16 16-8 0-16-8-16-16 0-2 1-4 2-7l28 0 z" fill="#000000"/>
		<path d="M1350 1436c3 0 5 2 5 5-2 3-4 5-5 5-2 0-4-2-5-5 0-3 2-5 5-5 z M1213 1436c3 1 5 3 5 5l-5 5c-2 0-4-2-5-5 0-3 2-5 5-5 z" fill="#FFFFFF"/>
		<path d="M1183 1478c7 0 14 2 21 6 13 7 48 1 48 23 0 15-13 18-26 18-16 0-60-8-60-30 0-11 6-17 17-17 z M1397 1478c11 0 18 7 18 18 0 6-2 14-8 14-17 11-35 16-53 16-12 0-26-2-26-19 0-9 3-13 10-14 6-1 12-2 17-2 23 0 34-13 42-13 z" fill="#372128"/>
		<path d="M1450 1441c11 1 17 7 19 17 7 30 18 69 18 101 0 43-23 55-49 67-36 16-49 65-99 65-18 0-31-9-50-9-19 0-34 11-53 11-32 0-50-27-72-49-28-28-72-27-72-79 0-17 2-35 7-53 8-30 7-67 32-71-2 16-3 32-3 48 0 24 28 25 28 54l0 27c0 9 4 14 12 16 38 12 83 14 122 14 19 0 40-1 61-3 29-3 71-4 74-29l-1-25c0-30 29-32 29-57 0-15-2-30-3-45 z" fill="#2D242D"/>
		<path d="M2392 257l-164 401c9 4 19 10 30 10 13 0 21-6 26-17 16-36 145-349 145-363 0-22-18-26-37-31 z M1043-318c19 0 25 16 34 31l-368 227c-8-11-17-18-17-31 0-11 4-18 12-23l325-200c3-3 8-4 14-4 z M1817 988c19 0 77 3 118 6 21 1 32-1 32 8l0 68c0 75-65 94-123 125-4 4-8 6-14 6-3 0-4-1-5-3-5-13-57-135-57-141 0-8 38-9 41-40 0-5 0-29 8-29 z M1479 1551c8 0 12 4 12 12l0 40c0 7-5 12-12 12l-381 0c-6 0-12-5-12-12l0-40c0-8 4-12 12-12l381 0 z" fill="#D3D3D3"/>
	</g></svg>
