<svg version="1.1" xmlns="http://www.w3.org/2000/svg" viewBox="0 0 2300 2300"><g transform="scale(1,-1) translate(-256, -1869)">
		<path d="M2005 734c121 0 239 65 307 171 8 12 14 23 14 38 0 43-54 46-86 46-179 0-321 145-321 323 0 30 12 55 12 85 0 31-13 64-50 64-11 0-23-3-35-10-125-61-238-194-238-337 0-222 181-380 397-380 z" fill="#FFB02E"/>
		<path d="M1441-287c61 0 116 42 137 94l390 992c2 5 3 10 3 16 0 26-21 45-46 45l-1074 0c-20 0-35-11-42-30-39-95-409-1026-409-1053 0-38 35-64 68-64l440 0c4 0 237 74 265 82 23-8 261-82 268-82 z" fill="#44911B"/>
		<path d="M1442-287c61 0 115 43 136 95l390 992c2 5 3 10 3 16 0 26-21 45-46 45l-894 0c-20 0-35-11-42-30l-439-1118 359 0c12 0 189 47 220 55l309-55 4 0 z" fill="#86D72F"/>
		<path d="M1437-287c4 0 9 2 13 2l0 969-541 0 0-971 528 0 z" fill="#1C1C1C"/>
		<path d="M2344-286c37 0 69 29 69 67 0 26-367 951-409 1052-7 19-25 30-43 30l-1109 0c-9 0-23-8-29-12l411-1043c23-62 77-94 140-94l970 0 z" fill="#86D72F"/>
		<path d="M1764 243c37 0 68 28 68 66 0 28-80 213-94 245-12 26-35 42-63 42l-214 0c-37 0-68-28-68-66 0-28 80-213 94-245 12-25 33-42 63-42l214 0 z" fill="#44911B"/>
	</g></svg>
