<svg version="1.1" xmlns="http://www.w3.org/2000/svg" viewBox="0 0 2300 2300"><g transform="scale(1,-1) translate(-256, -1869)">
		<path d="M2483-287l1 1 0 1578-1 2-2154 0-1-2 0-1578 1-1 2154 0 z" fill="#B4ACBC"/>
		<path d="M2411-144l1 1 0 1292-1 1-2010 0-1-1 0-1292 1-1 2010 0 z" fill="#CDC4D6"/>
		<path d="M2411-215l1 1 0 185-932 560c-23 13-47 20-74 20-27 0-51-7-74-20l-932-560 0-185 1-1 2010 0 z" fill="#E1D8EC"/>
		<path d="M1406 383c40 0 77 10 111 31l895 537 0 127-2012 0 0-127 895-537c34-21 71-31 111-31 z" fill="#998EA4"/>
		<path d="M1406 456c27 0 51 7 74 20l932 559 0 186-1 1-2010 0-1-1 0-186 932-559c23-13 47-20 74-20 z" fill="#F3EEF8"/>
	</g></svg>
