<svg version="1.1" xmlns="http://www.w3.org/2000/svg" viewBox="0 0 2300 2300"><g transform="scale(1,-1) translate(-256, -1869)">
		<path d="M1414-287c587 0 926 418 926 987 0 88-10 180-54 261l-1 522c0 128-114 234-240 234-122 0-185-37-209-167l-2 8c-44 99-130 167-252 167-109 0-196-82-226-184-40 75-149 101-224 101-95 0-169-72-198-153-47 34-106 43-161 43-12 0-24-1-37-4-138-33-193-131-193-248l0-228c0-149 1-303 13-450 38-500 240-889 858-889 z" fill="#FFD7C2"/>
		<path d="M1020 289c10 0 19 4 27 12 31 31 57 60 91 87 225 190 501 260 769 260 20-40 33-82 46-125 16-49 43-168 111-168 63 0 128 61 128 127 0 203-162 271-327 271-91 0-248 9-293 109-15 32-16 69-16 104 0 147 259 174 402 176 31 0 57-1 77-2-39 23-80 39-125 39l0 317c0 64 11 168 66 212-135-24-149-168-149-278 0-84 1-167 4-251-125-4-344-26-400-170l0 437c0 74 9 205 64 262-127-54-161-185-161-309l0-296c0-28 1-56 5-83 1-11 5-18 5-29 0-18-6-42-13-58-31-86-112-114-199-114-57 0-108 31-144 68l0 538c0 56 4 111 19 166-72-56-93-157-93-244l0-263c0-66 18-131 61-183-48-66-128-82-202-82-103 0-208 93-226 188 8-135 71-358 240-358 72 0 150 18 196 77 30-59 137-77 191-77 65 0 136 32 181 77 34-30 83-57 129-69-175-55-366-163-490-308-6-7-9-15-9-24 0-19 17-36 35-36 z" fill="#F1B99B"/>
	</g></svg>
