<svg version="1.1" xmlns="http://www.w3.org/2000/svg" viewBox="0 0 2300 2300"><g transform="scale(1,-1) translate(-256, -1869)">
		<path d="M1283-288c71 0 136 13 195 40 59 26 113 61 162 104 48 43 91 93 130 148 39 55 73 112 102 170 19 38 40 76 63 114 23 38 48 76 74 113 25 37 51 74 78 110l116 157 39 51c9 13 16 28 21 44 4 15 6 31 6 47 0 26-4 50-13 73-9 22-21 41-36 58-15 17-34 30-55 39-22 9-46 14-73 14-29 0-55-5-79-16-24-11-46-26-66-43-20-18-39-38-56-60-17-22-33-44-48-66l13 562c0 22-3 44-7 66-6 25-15 48-28 68-13 20-29 36-50 49-21 12-45 18-74 18-15 0-30-2-45-5-16-4-31-9-46-16-15-7-28-16-40-26-12-11-21-23-28-37 1 5 1 11 1 16l0 15c0 23-3 46-8 71-6 25-15 47-28 67-13 20-29 37-48 50-19 13-43 19-70 19-35 0-65-5-89-14-25-10-45-24-60-42-15-19-26-41-33-67-7-27-11-57-11-90l1-25c-7 12-15 23-26 32-11 9-22 17-35 24-13 6-27 11-41 14-14 3-28 5-41 5-17 0-35-4-54-11-19-8-36-18-51-31-15-13-28-27-39-44-11-17-17-34-18-52l-3-65-4-66c-5 9-13 17-22 24-10 7-21 12-32 16-11 4-23 7-35 9-12 1-23 2-32 2-24 0-46-5-66-16-20-11-37-25-52-42-15-17-27-37-35-59-12-28-13-47-13-78 2-36 3-72 4-107 0-36 1-72 2-108 3-94 8-188 13-281 5-93 11-187 20-281 4-45 11-88 21-131 9-43 23-86 40-128 25-61 58-117 98-166 39-49 84-91 135-126 51-35 106-62 166-81 60-19 123-29 190-29 z" fill="#C68D7B"/>
		<path d="M972 859c23 0 35 15 35 40l-62 462c-3 23-5 46-5 69 0 83 30 121 108 133-68-3-157-67-160-138-3-42-6-88-6-130 0-52 10-84 18-135l36-271c3-17 17-30 36-30 z M1056 138c-18 0-36 15-36 36 0 7 2 14 7 21 120 172 326 309 541 380-112 31-229 37-345 37-56 0-113-2-169-5-25-1-52-5-77-5-18 0-38 12-38 34 0 22 11 35 33 38 52 8 131 10 191 10 164 0 411-5 535-83 12-7 18-18 18-32 0-43-54-39-91-51-189-56-398-178-512-330-17-22-33-50-57-50 z M1547 917c-19 0-35 15-35 36l9 442c1 39 6 76 18 112l-1-19c26 55 102 84 157 84-78-11-103-117-103-179l-9-441c0-22-15-35-36-35 z M1258 949c11 0 21 3 29 10 7 6 10 14 10 24l-38 563c-1 4-1 8-1 12l0 12c0 16 2 33 5 52 3 18 9 35 17 50 8 15 19 27 32 37 13 10 30 15 50 15l0 1c-32-2-59-9-80-20-22-11-40-26-53-44-13-19-23-40-28-65-6-25-9-52-9-82 0-5 0-9 1-13l0-13-3 4 35-510c1-8 4-15 11-22 6-7 13-11 22-11 z M972 859c23 0 35 15 35 40l-62 462c-3 23-5 46-5 69 0 83 30 121 108 133-68-3-157-67-160-138-3-42-6-88-6-130 0-52 10-84 18-135l36-271c3-17 17-30 36-30 z M1056 138c-18 0-36 15-36 36 0 7 2 14 7 21 120 172 326 309 541 380-112 31-229 37-345 37-56 0-113-2-169-5-25-1-52-5-77-5-18 0-38 12-38 34 0 22 11 35 33 38 52 8 131 10 191 10 164 0 411-5 535-83 12-7 18-18 18-32 0-43-54-39-91-51-189-56-398-178-512-330-17-22-33-50-57-50 z M1547 917c-19 0-35 15-35 36l9 442c1 39 6 76 18 112l-1-19c26 55 102 84 157 84-78-11-103-117-103-179l-9-441c0-22-15-35-36-35 z M1258 949c11 0 21 3 29 10 7 6 10 14 10 24l-38 563c-1 4-1 8-1 12l0 12c0 16 2 33 5 52 3 18 9 35 17 50 8 15 19 27 32 37 13 10 30 15 50 15l0 1c-32-2-59-9-80-20-22-11-40-26-53-44-13-19-23-40-28-65-6-25-9-52-9-82 0-5 0-9 1-13l0-13-3 4 35-510c1-8 4-15 11-22 6-7 13-11 22-11 z" fill="#AB6A55"/>
	</g></svg>
