<svg version="1.1" xmlns="http://www.w3.org/2000/svg" viewBox="0 0 2300 2300"><g transform="scale(1,-1) translate(-256, -1869)">
		<path d="M1337-281c71 0 141 7 209 22 67 15 130 38 189 70 59 31 112 71 159 120 47 49 85 107 115 175 17 39 31 80 40 122 9 41 14 83 14 126 0 15-1 31-3 47-6 53-11 106-15 161-4 54-6 108-6 162 0 28 2 55 5 82 3 26 9 52 18 79l128 378c10 30 15 61 15 92 0 28-4 54-13 77-9 23-22 43-38 60-17 17-37 30-60 39-24 9-50 13-79 13-18 0-36-3-53-9-18-6-34-14-49-25-15-11-29-23-40-38-12-15-21-32-27-49l-142-421c-1-3-3-5-6-7-3-3-6-4-9-4-8 0-12 4-13 11-1 7-1 13-1 18-1 46-3 92-6 137l-10 136c-3 43-5 87-7 130-3 43-7 86-12 129-7 51-26 91-58 122-33 30-75 45-126 45-23 0-46-4-68-13-22-9-42-21-59-36-17-16-31-34-42-55-13-25-16-46-16-76l24-403c-17 16-37 28-59 37-22 8-45 12-68 12-43 0-79-9-110-28-31-19-54-49-68-91-15 14-33 25-52 32-19 7-39 11-60 11-30 0-57-5-81-14-24-10-44-24-61-41-17-18-29-39-38-64-9-25-13-52-13-82l0-96c0-33 1-65 2-97l1-19-1-20c-1-13-2-27-2-40 0-59 2-117 7-176 4-59 11-117 20-175 14-85 38-162 72-231 33-70 76-130 129-179 52-49 114-88 185-115 71-27 150-41 239-41 z" fill="#FDD641"/>
		<path d="M1734 946c15 0 29 10 34 24l105 316c23 72 75 253 171 256-11 1-20 2-29 2-71 0-144-50-169-121l-142-421-3-4c-1-5-3-11-3-16 0-21 18-36 36-36 z M1182 63c9 0 17 3 25 10 10 9 20 18 30 29 9 10 19 20 29 29l74 70c25 23 51 46 78 67 28 22 57 42 88 60 31 18 64 31 99 39 25-5 48-14 69-26 20-12 38-27 53-44 15-18 29-38 40-59 11-21 19-44 25-68 5-19 14-35 26-46 11-12 28-18 49-18 23 0 42 7 56 21 13 13 20 32 20 55 0 12-3 25-8 39-5 13-11 25-16 36-24 45-56 81-95 107-39 25-84 42-135 49-33 4-65 12-97 24l0 1-2 0c-15 6-31 14-46 24-15 9-29 20-41 33-12 13-22 27-29 43-7 15-11 32-11 50 0 16 3 31 9 46 5 14 13 27 22 40 9 13 20 24 32 35 12 11 24 20 37 29l-7 0c-22 0-42-4-61-12-21-9-40-22-56-38-17-17-30-36-39-57-9-21-14-44-14-67 0-16 2-32 5-49 3-17 9-34 16-49 7-15 16-29 27-42 11-13 24-24 39-32-17-10-34-21-50-32-17-11-33-23-49-35-15-11-32-25-52-42-20-17-40-35-61-54-21-19-40-38-59-56-19-19-34-35-46-48-7-7-11-16-11-26 0-9 4-18 11-25 7-7 16-11 26-11 z M1167 431c35 0 65 9 88 28 23 18 41 41 55 68 14 27 24 57 30 90 6 33 10 63 12 91-6-21-15-41-26-58-11-18-25-33-41-46-16-13-34-24-53-31-20-7-41-11-64-11-29 0-57 6-83 19-26 12-48 30-65 53l-1-1c-21 37-31 77-31 120 0 24 0 48 1 73l2 72c1 27 1 54 1 81l0 14c0 23 2 45 4 67-19 19-40 33-64 41-3-9-5-22-6-39-2-17-4-37-5-59l-3-70c-1-25-1-48-1-71-1-23-1-44-1-63l0-46c0-28 4-56 12-85 8-29 19-56 34-80-13-7-27-11-41-13-14-3-28-4-43-4-22 0-43 3-63 9-21 5-39 14-56 25-17 11-32 24-44 41-13 17-21 36-26 59 2-27 6-56 11-88 5-32 13-62 26-89 12-27 29-50 51-69 21-19 49-28 84-28 37 0 66 6 89 19 22 13 43 34 62 64 7-15 16-28 27-39 11-11 24-19 38-25 13-7 28-11 43-14 15-3 31-5 47-5 z M1361 899c7 3 12 8 16 15 3 5 5 11 5 16l-38 560c-1 12-2 24-2 37l0 36c0 15 1 31 2 48 1 17 5 32 10 47 5 14 14 26 25 36 11 9 26 14 45 15l0 8c-20-3-39-10-57-20-19-11-35-24-49-39-14-15-25-32-34-51-9-19-13-39-13-60 0-38 2-77 5-116l8-117c2-30 4-60 7-90l6-90c17-17 29-34 38-52 9-19 15-38 19-57 4-20 6-40 7-61l0-65 z" fill="#FFB02C"/>
	</g></svg>
