<svg version="1.1" xmlns="http://www.w3.org/2000/svg" viewBox="0 0 2300 2300"><g transform="scale(1,-1) translate(-256, -1869)">
		<path d="M2125-287c156 0 287 125 287 287l0 1438c0 156-125 287-287 287l-1438 0c-156 0-287-125-287-287l0-1438c0-161 130-287 287-287l1438 0 z" fill="#8D65C5"/>
		<path d="M1406 0c39 0 72 31 72 72l0 791 359 0c39 0 72 31 72 72 0 40-34 71-72 71l-359 0 0 360c0 39-31 72-72 72-39 0-72-31-72-72l0-360-359 0c-38 0-72-31-72-71 0-39 31-72 72-72l359 0 0-791c0-39 31-72 72-72 z" fill="#FFFFFF"/>
	</g></svg>
