<svg version="1.1" xmlns="http://www.w3.org/2000/svg" viewBox="0 0 2300 2300"><g transform="scale(1,-1) translate(-256, -1869)">
		<path d="M2125-287c156 0 287 125 287 287l0 1438c0 156-125 287-287 287l-1438 0c-156 0-287-125-287-287l0-1438c0-161 130-287 287-287l1438 0 z" fill="#8D65C5"/>
		<path d="M1406 0c27 0 49 13 62 36l166 288 332 0c38 0 72 31 72 72 0 11-3 23-10 35l-166 288 166 287c7 12 10 24 10 36 0 38-33 72-72 72l-332 0-166 288c-13 23-35 36-62 36-27 0-49-13-62-36l-166-288-332 0c-39 0-72-31-72-72 0-13 3-25 9-36l166-287-166-288c-6-11-9-23-9-35 0-39 31-72 72-72l332 0 166-288c13-23 35-36 62-36 z M1800 827l-104 179 208 0-104-179 z M1904 431l-208 0 104 180 104-180 z M1406 144l-104 180 208 0-104-180 z M1115 431l-207 0 104 180 103-180 z M1572 431l-332 0-166 288 166 287 332 0 166-287-166-288 z M1012 827l-104 179 207 0-103-179 z M1510 1114l-208 0 104 180 104-180 z" fill="#FFFFFF"/>
	</g></svg>
