<svg version="1.1" xmlns="http://www.w3.org/2000/svg" viewBox="0 0 2300 2300"><g transform="scale(1,-1) translate(-256, -1869)">
		<path d="M1406-288c27 0 53 8 76 25 31 22 69 50 114 85 45 34 94 73 147 118 52 45 106 94 162 147 56 53 110 110 163 170 53 60 102 123 148 189 46 65 85 132 117 201l-111 273-58 518c-51 31-110 52-175 64-30 5-61 7-94 7-40 0-83-3-129-11-33-6-65-17-96-32-31-16-59-34-86-54-27-21-51-42-72-64-22-22-41-42-56-61-6-7-13-13-22-17-9-4-19-6-28-6-9 0-18 2-27 6-9 4-17 10-23 17-15 19-34 39-55 61-22 22-46 43-73 64-27 20-55 38-86 54-31 15-63 26-97 32-44 8-86 12-125 12-37 0-71-4-104-10-68-13-128-36-179-69-51-33-94-74-129-123-35-49-61-101-79-158l230-309 35-527c55-67 112-130 173-189 61-60 120-115 177-164 57-50 111-94 161-132 49-38 91-69 124-93 23-16 49-24 77-24 z" fill="#F92F60"/>
		<path d="M2334 647c47 103 78 203 78 315 0 63-10 126-29 188l-1954 0c-20-61-29-125-29-189 0-112 33-214 78-314l1856 0 z" fill="#E6E6E6"/>
		<path d="M694 314l1708 759c-27 150-107 285-239 366l-1701-756c57-135 140-256 232-369 z" fill="#F4F4F4"/>
	</g></svg>
