<svg version="1.1" xmlns="http://www.w3.org/2000/svg" viewBox="0 0 2300 2300"><g transform="scale(1,-1) translate(-256, -1869)">
		<path d="M2125-287c156 0 287 125 287 287l0 1438c0 156-125 287-287 287l-1438 0c-156 0-287-125-287-287l0-1438c0-161 130-287 287-287l1438 0 z" fill="#00A6ED"/>
		<path d="M1622 243c21 0 38 7 51 22l368 381c13 13 20 30 20 50 0 20-7 37-20 50l-368 382c-13 15-30 22-51 22-39 0-72-31-72-72l0-220c0-11-7-18-18-18l-701 0c-39 0-72-31-72-72l0-144c0-40 34-71 72-71l701 0c11 0 18-7 18-18l0-221c0-41 33-71 72-71 z" fill="#FFFFFF"/>
	</g></svg>
