<svg version="1.1" xmlns="http://www.w3.org/2000/svg" viewBox="0 0 2300 2300"><g transform="scale(1,-1) translate(-256, -1869)">
		<path d="M2125-287c156 0 287 125 287 287l0 1438c0 156-125 287-287 287l-1438 0c-156 0-287-125-287-287l0-1438c0-161 130-287 287-287l1438 0 z" fill="#00A6ED"/>
		<path d="M1550 22c15 0 27 5 38 16l304 301c11 11 16 23 16 38 0 18-5 31-16 39-11 8-24 13-40 16l-29 2-74-5-11 0c-11 0-21 1-29 3-11 2-16 8-16 17l0 414c0 73-15 141-44 203-30 61-70 114-119 159-50 44-107 79-172 104-65 25-133 37-204 37l-36-1 0 1-143 0c-20 0-37-7-51-21-14-14-21-31-21-51l0-144c0-19 7-36 22-50 14-15 31-22 50-22l142 0c1-1 2-2 3-2 13 2 26 3 39 3 20 0 40-2 60-7 34-9 65-23 93-42 27-19 50-43 68-72 17-29 26-60 26-95l0-414c0-9-5-15-16-17-8-2-18-3-29-3l-11 0c-16 1-33 2-51 4l-23 1-29-2c-16-3-29-8-40-16-11-8-16-21-16-39 0-15 5-27 16-38l305-301c11-11 23-16 38-16 z" fill="#FFFFFF"/>
	</g></svg>
