<svg version="1.1" xmlns="http://www.w3.org/2000/svg" viewBox="0 0 2300 2300"><g transform="scale(1,-1) translate(-256, -1869)">
		<path d="M2125-287c156 0 287 125 287 287l0 1438c0 156-125 287-287 287l-1438 0c-156 0-287-125-287-287l0-1438c0-161 130-287 287-287l1438 0 z" fill="#00A6ED"/>
		<path d="M1408 126c68 0 125 55 125 126l0 248 215-124c19-11 40-17 63-17 68 0 125 54 125 127 0 49-26 86-63 108l-215 125 215 125c37 22 63 59 63 108 0 69-54 126-125 126-23 0-44-6-63-17l-215-123 0 248c0 69-54 126-125 126-69 0-126-56-126-126l0-250-218 125c-19 11-40 17-63 17-69 0-126-56-126-126 0-46 25-86 63-108l216-125-216-125c-38-22-63-63-63-109 0-69 56-126 126-126 23 0 44 6 63 17l218 126 0-250c0-69 56-126 126-126 z" fill="#FFFFFF"/>
	</g></svg>
