<svg version="1.1" xmlns="http://www.w3.org/2000/svg" viewBox="0 0 2300 2300"><g transform="scale(1,-1) translate(-256, -1869)">
		<path d="M952 509c135 0 242 58 321 166 33 45 79 71 135 71 56 0 101-26 134-70 79-107 185-164 318-164 118 0 224 47 302 123 35 33 67 65 106 92 11 8 23 16 36 21 2 2 4 3 5 3 56 6 103 41 103 107 0 57-46 108-108 108-110 0-224-110-294-178-40-39-89-61-145-61-58 0-110 24-146 72-74 101-178 162-310 162-134 0-239-63-313-164-34-47-85-73-147-73-56 0-104 22-144 59-72 69-192 183-300 183-58 0-108-49-108-108 0-64 48-101 103-107 1 0 3-1 5-3 47-22 108-81 149-119 83-80 190-120 298-120 z" fill="#635994"/>
	</g></svg>
