<svg version="1.1" xmlns="http://www.w3.org/2000/svg" viewBox="0 0 2300 2300"><g transform="scale(1,-1) translate(-256, -1869)">
		<path d="M1406-287c547 0 1006 440 1006 1006 0 547-440 1006-1006 1006-547 0-1006-440-1006-1006 0-547 440-1006 1006-1006 z" fill="#F92F60"/>
		<path d="M988-13c38 0 72 31 72 71l0 590c0 7 3 10 9 10 18 0 46-86 106-86 39 0 72 31 72 72 0 63-108 139-111 169 0 8 12 10 27 11l35-2c40 0 71 34 71 72 0 38-31 72-71 72l-129 0c-6 0-9 3-9 9l0 247c0 28 166 14 166 108 0 39-31 73-72 73-7 0-14-1-20-3l-353-102c-30-9-52-36-52-69 0-38 31-72 72-72 38 0 72 27 110 27 3 0 5-5 5-8l0-201c0-6-3-9-9-9l-128 0c-39 0-72-31-72-72 0-38 33-72 72-72l104 0c6 0 9-4 9-11 0-3-37-96-39-103-47-115-106-228-194-321-14-15-21-32-21-50 0-39 34-72 72-72 20 0 37 7 52 22 57 57 91 118 137 188 2 3 5 5 8 5 6 0 9-3 9-9l0-413c0-40 34-71 72-71 z M2115 516c39 0 72 31 72 72 0 16-4 30-13 41l-140 196c-15 20-34 30-58 30-39 0-72-31-72-72 0-16 4-30 13-41l140-196c14-20 33-30 58-30 z M1267 347c25 0 44 11 59 32 110 156 152 343 152 515 0 39-31 72-72 72-39 0-72-31-72-72 0-180-42-290-127-435-8-14-12-24-12-40 0-38 31-72 72-72 z M1755-13c39 0 75 7 109 22 34 15 64 35 90 61 25 25 45 55 60 89 15 34 22 70 22 109 0 19-7 36-21 51-15 14-32 21-51 21-20 0-37-7-51-21-14-14-21-31-21-51 0-19-3-37-10-53-7-17-17-31-30-44-13-13-27-22-44-29-17-7-34-11-53-11-4 0-10 0-17-1l-11-1-11 1c-8 0-15 1-20 3-6 2-9 6-9 12l0 296c0 1 0 2 1 3l0 2c91 140 160 289 207 448 47 158 70 321 70 488 0 19-7 36-21 51-15 14-32 21-51 21-19 0-36-7-50-21-15-15-22-32-22-51 0-49-2-99-7-150-5-52-12-104-21-155-10-51-22-102-37-151-15-50-32-97-52-142-3-4-6-6-9-6-5 0-8 3-8 9l0 364c0 20-7 37-21 51-14 14-31 21-51 21-20 0-37-7-51-21-14-14-21-31-21-51l0-124c0-32 0-67 1-106l0-336c-1-29-1-53-1-71 0-19 0-28-1-29-39-56-80-109-125-158l-134-151c-13-14-19-30-19-48 0-20 7-37 21-51 14-14 31-21 51-21 10 0 20 2 30 7 9 4 17 10 24 17l141 159 5 2c3 0 6-4 7-13 1-9 2-18 2-29 0-11 0-22-1-32l-1-22c0-22 4-42 13-61 8-19 19-36 34-50 14-15 31-26 50-34 19-9 39-13 61-13l54 0 z M1675 1283c41 0 72 34 72 72 0 27-15 49-38 63l-179 97c-11 5-22 8-33 8-39 0-73-30-73-71 0-27 16-52 38-64l179-96c10-6 21-9 34-9 z" fill="#F4F4F4"/>
	</g></svg>
