<svg version="1.1" xmlns="http://www.w3.org/2000/svg" viewBox="0 0 2300 2300"><g transform="scale(1,-1) translate(-256, -1869)">
		<path d="M2125-287c156 0 287 125 287 287l0 1438c0 156-125 287-287 287l-1438 0c-156 0-287-125-287-287l0-1438c0-161 130-287 287-287l1438 0 z" fill="#00A6ED"/>
		<path d="M1567 135c69 0 126 54 126 125l0 274c58 12 101 62 101 123 0 60-42 112-101 124l0 82c0 68-55 125-126 125-71 0-125-60-125-125l0-80-137 0 93 373c3 11 4 20 4 31 0 70-58 125-127 125-60 0-107-41-121-95l-132-529c-3-11-4-19-4-30 0-69 56-126 126-126l298 0 0-272c0-71 60-125 125-125 z" fill="#FFFFFF"/>
	</g></svg>
